<?xml version="1.0" encoding="UTF-8" standalone="no"?>
<!DOCTYPE svg PUBLIC "-//W3C//DTD SVG 1.1//EN"
 "http://www.w3.org/Graphics/SVG/1.1/DTD/svg11.dtd">
<!-- Generated by graphviz version 2.36.0 (20140111.2315)
 -->
<!-- Title: /home/travis/build/igankevich/arma/src/bits/acf_wrapper.cc Pages: 1 -->
<svg width="699pt" height="386pt"
 viewBox="0.00 0.00 699.00 386.00" xmlns="http://www.w3.org/2000/svg" xmlns:xlink="http://www.w3.org/1999/xlink">
<g id="graph0" class="graph" transform="scale(1 1) rotate(0) translate(4 382)">
<title>/home/travis/build/igankevich/arma/src/bits/acf_wrapper.cc</title>
<!-- Node1 -->
<g id="node1" class="node"><title>Node1</title>
<polygon fill="#bfbfbf" stroke="black" points="479.5,-336.5 479.5,-377.5 586.5,-377.5 586.5,-336.5 479.5,-336.5"/>
<text text-anchor="start" x="487.5" y="-365.5" font-family="Helvetica,sans-Serif" font-size="10.00">/home/travis/build</text>
<text text-anchor="start" x="487.5" y="-354.5" font-family="Helvetica,sans-Serif" font-size="10.00">/igankevich/arma/src</text>
<text text-anchor="middle" x="533" y="-343.5" font-family="Helvetica,sans-Serif" font-size="10.00">/bits/acf_wrapper.cc</text>
</g>
<!-- Node2 -->
<g id="node2" class="node"><title>Node2</title>
<g id="a_node2"><a xlink:href="acf__wrapper_8hh.html" target="_top" xlink:title="acf_wrapper.hh">
<polygon fill="none" stroke="black" points="65.5,-280.5 65.5,-299.5 148.5,-299.5 148.5,-280.5 65.5,-280.5"/>
<text text-anchor="middle" x="107" y="-287.5" font-family="Helvetica,sans-Serif" font-size="10.00">acf_wrapper.hh</text>
</a>
</g>
</g>
<!-- Node1&#45;&gt;Node2 -->
<g id="edge1" class="edge"><title>Node1&#45;&gt;Node2</title>
<path fill="none" stroke="midnightblue" d="M479.478,-347.834C396.972,-335.245 239.769,-311.258 158.502,-298.858"/>
<polygon fill="midnightblue" stroke="midnightblue" points="158.917,-295.381 148.503,-297.333 157.861,-302.301 158.917,-295.381"/>
</g>
<!-- Node13 -->
<g id="node13" class="node"><title>Node13</title>
<polygon fill="none" stroke="#bfbfbf" points="438.5,-56.5 438.5,-75.5 497.5,-75.5 497.5,-56.5 438.5,-56.5"/>
<text text-anchor="middle" x="468" y="-63.5" font-family="Helvetica,sans-Serif" font-size="10.00">stdexcept</text>
</g>
<!-- Node1&#45;&gt;Node13 -->
<g id="edge32" class="edge"><title>Node1&#45;&gt;Node13</title>
<path fill="none" stroke="midnightblue" d="M555.391,-336.113C577.81,-313.9 609,-275.683 609,-235 609,-235 609,-235 609,-177 609,-125.119 548.923,-94.0996 507.199,-78.8126"/>
<polygon fill="midnightblue" stroke="midnightblue" points="508.153,-75.4384 497.558,-75.4366 505.84,-82.045 508.153,-75.4384"/>
</g>
<!-- Node14 -->
<g id="node14" class="node"><title>Node14</title>
<g id="a_node14"><a xlink:href="params_8hh.html" target="_top" xlink:title="params.hh">
<polygon fill="none" stroke="black" points="405,-224.5 405,-243.5 467,-243.5 467,-224.5 405,-224.5"/>
<text text-anchor="middle" x="436" y="-231.5" font-family="Helvetica,sans-Serif" font-size="10.00">params.hh</text>
</a>
</g>
</g>
<!-- Node1&#45;&gt;Node14 -->
<g id="edge18" class="edge"><title>Node1&#45;&gt;Node14</title>
<path fill="none" stroke="midnightblue" d="M517.199,-336.29C498.326,-312.747 467.087,-273.779 449.363,-251.669"/>
<polygon fill="midnightblue" stroke="midnightblue" points="451.86,-249.188 442.874,-243.575 446.398,-253.566 451.86,-249.188"/>
</g>
<!-- Node15 -->
<g id="node15" class="node"><title>Node15</title>
<polygon fill="none" stroke="#bfbfbf" points="391.5,-168.5 391.5,-187.5 450.5,-187.5 450.5,-168.5 391.5,-168.5"/>
<text text-anchor="middle" x="421" y="-175.5" font-family="Helvetica,sans-Serif" font-size="10.00">functional</text>
</g>
<!-- Node1&#45;&gt;Node15 -->
<g id="edge31" class="edge"><title>Node1&#45;&gt;Node15</title>
<path fill="none" stroke="midnightblue" d="M527.449,-336.162C519.167,-308.952 501.637,-259.404 475,-224 466.084,-212.15 453.466,-201.411 442.669,-193.398"/>
<polygon fill="midnightblue" stroke="midnightblue" points="444.682,-190.535 434.505,-187.587 440.622,-196.237 444.682,-190.535"/>
</g>
<!-- Node16 -->
<g id="node16" class="node"><title>Node16</title>
<polygon fill="none" stroke="#bfbfbf" points="468.5,-168.5 468.5,-187.5 551.5,-187.5 551.5,-168.5 468.5,-168.5"/>
<text text-anchor="middle" x="510" y="-175.5" font-family="Helvetica,sans-Serif" font-size="10.00">unordered_map</text>
</g>
<!-- Node1&#45;&gt;Node16 -->
<g id="edge34" class="edge"><title>Node1&#45;&gt;Node16</title>
<path fill="none" stroke="midnightblue" d="M540.404,-336.12C549.067,-309.709 560.604,-261.965 547,-224 543.059,-213.003 535.143,-202.769 527.64,-194.848"/>
<polygon fill="midnightblue" stroke="midnightblue" points="530.019,-192.278 520.438,-187.755 525.108,-197.266 530.019,-192.278"/>
</g>
<!-- Node17 -->
<g id="node17" class="node"><title>Node17</title>
<g id="a_node17"><a xlink:href="acf_8hh.html" target="_top" xlink:title="acf.hh">
<polygon fill="none" stroke="black" points="317,-280.5 317,-299.5 361,-299.5 361,-280.5 317,-280.5"/>
<text text-anchor="middle" x="339" y="-287.5" font-family="Helvetica,sans-Serif" font-size="10.00">acf.hh</text>
</a>
</g>
</g>
<!-- Node1&#45;&gt;Node17 -->
<g id="edge22" class="edge"><title>Node1&#45;&gt;Node17</title>
<path fill="none" stroke="midnightblue" d="M479.475,-338.066C444.763,-326.436 400.684,-311.667 371.249,-301.805"/>
<polygon fill="midnightblue" stroke="midnightblue" points="372.081,-298.393 361.487,-298.534 369.857,-305.03 372.081,-298.393"/>
</g>
<!-- Node18 -->
<g id="node18" class="node"><title>Node18</title>
<polygon fill="none" stroke="#bfbfbf" points="637,-280.5 637,-299.5 691,-299.5 691,-280.5 637,-280.5"/>
<text text-anchor="middle" x="664" y="-287.5" font-family="Helvetica,sans-Serif" font-size="10.00">iostream</text>
</g>
<!-- Node1&#45;&gt;Node18 -->
<g id="edge33" class="edge"><title>Node1&#45;&gt;Node18</title>
<path fill="none" stroke="midnightblue" d="M572.304,-336.498C593.355,-326.053 618.727,-313.464 637.441,-304.178"/>
<polygon fill="midnightblue" stroke="midnightblue" points="639.16,-307.233 646.562,-299.652 636.048,-300.962 639.16,-307.233"/>
</g>
<!-- Node3 -->
<g id="node3" class="node"><title>Node3</title>
<polygon fill="none" stroke="#bfbfbf" points="-0.5,-112.5 -0.5,-131.5 48.5,-131.5 48.5,-112.5 -0.5,-112.5"/>
<text text-anchor="middle" x="24" y="-119.5" font-family="Helvetica,sans-Serif" font-size="10.00">istream</text>
</g>
<!-- Node2&#45;&gt;Node3 -->
<g id="edge2" class="edge"><title>Node2&#45;&gt;Node3</title>
<path fill="none" stroke="midnightblue" d="M85.5375,-280.389C70.2332,-273.071 50.5655,-261.025 40,-244 20.3307,-212.305 20.1468,-166.983 21.9509,-141.764"/>
<polygon fill="midnightblue" stroke="midnightblue" points="25.445,-141.986 22.8569,-131.712 18.4733,-141.357 25.445,-141.986"/>
</g>
<!-- Node4 -->
<g id="node4" class="node"><title>Node4</title>
<polygon fill="none" stroke="#bfbfbf" points="269.5,-168.5 269.5,-187.5 310.5,-187.5 310.5,-168.5 269.5,-168.5"/>
<text text-anchor="middle" x="290" y="-175.5" font-family="Helvetica,sans-Serif" font-size="10.00">string</text>
</g>
<!-- Node2&#45;&gt;Node4 -->
<g id="edge3" class="edge"><title>Node2&#45;&gt;Node4</title>
<path fill="none" stroke="midnightblue" d="M121.36,-280.368C152.896,-261.412 228.444,-216.001 266.805,-192.942"/>
<polygon fill="midnightblue" stroke="midnightblue" points="268.939,-195.743 275.707,-187.591 265.333,-189.744 268.939,-195.743"/>
</g>
<!-- Node5 -->
<g id="node5" class="node"><title>Node5</title>
<g id="a_node5"><a xlink:href="types_8hh.html" target="_top" xlink:title="types.hh">
<polygon fill="none" stroke="black" points="90,-168.5 90,-187.5 144,-187.5 144,-168.5 90,-168.5"/>
<text text-anchor="middle" x="117" y="-175.5" font-family="Helvetica,sans-Serif" font-size="10.00">types.hh</text>
</a>
</g>
</g>
<!-- Node2&#45;&gt;Node5 -->
<g id="edge4" class="edge"><title>Node2&#45;&gt;Node5</title>
<path fill="none" stroke="midnightblue" d="M87.8518,-280.33C65.4895,-268.895 33.0952,-247.458 46,-224 53.8872,-209.663 68.4856,-199.253 82.4033,-192.079"/>
<polygon fill="midnightblue" stroke="midnightblue" points="84.2922,-195.058 91.839,-187.622 81.3022,-188.728 84.2922,-195.058"/>
</g>
<!-- Node7 -->
<g id="node7" class="node"><title>Node7</title>
<g id="a_node7"><a xlink:href="discrete__function_8hh.html" target="_top" xlink:title="discrete_function.hh">
<polygon fill="none" stroke="black" points="55,-224.5 55,-243.5 159,-243.5 159,-224.5 55,-224.5"/>
<text text-anchor="middle" x="107" y="-231.5" font-family="Helvetica,sans-Serif" font-size="10.00">discrete_function.hh</text>
</a>
</g>
</g>
<!-- Node2&#45;&gt;Node7 -->
<g id="edge6" class="edge"><title>Node2&#45;&gt;Node7</title>
<path fill="none" stroke="midnightblue" d="M107,-280.083C107,-273.006 107,-262.861 107,-253.986"/>
<polygon fill="midnightblue" stroke="midnightblue" points="110.5,-253.751 107,-243.751 103.5,-253.751 110.5,-253.751"/>
</g>
<!-- Node6 -->
<g id="node6" class="node"><title>Node6</title>
<polygon fill="none" stroke="#bfbfbf" points="91,-0.5 91,-19.5 159,-19.5 159,-0.5 91,-0.5"/>
<text text-anchor="middle" x="125" y="-7.5" font-family="Helvetica,sans-Serif" font-size="10.00">blitz/array.h</text>
</g>
<!-- Node5&#45;&gt;Node6 -->
<g id="edge5" class="edge"><title>Node5&#45;&gt;Node6</title>
<path fill="none" stroke="midnightblue" d="M117.43,-168.075C118.689,-141.945 122.387,-65.2106 124.105,-29.577"/>
<polygon fill="midnightblue" stroke="midnightblue" points="127.602,-29.725 124.587,-19.5681 120.61,-29.388 127.602,-29.725"/>
</g>
<!-- Node7&#45;&gt;Node5 -->
<g id="edge17" class="edge"><title>Node7&#45;&gt;Node5</title>
<path fill="none" stroke="midnightblue" d="M108.651,-224.083C109.976,-216.927 111.882,-206.635 113.539,-197.691"/>
<polygon fill="midnightblue" stroke="midnightblue" points="117,-198.221 115.379,-187.751 110.117,-196.947 117,-198.221"/>
</g>
<!-- Node8 -->
<g id="node8" class="node"><title>Node8</title>
<g id="a_node8"><a xlink:href="grid_8hh.html" target="_top" xlink:title="grid.hh">
<polygon fill="none" stroke="black" points="203,-168.5 203,-187.5 249,-187.5 249,-168.5 203,-168.5"/>
<text text-anchor="middle" x="226" y="-175.5" font-family="Helvetica,sans-Serif" font-size="10.00">grid.hh</text>
</a>
</g>
</g>
<!-- Node7&#45;&gt;Node8 -->
<g id="edge7" class="edge"><title>Node7&#45;&gt;Node8</title>
<path fill="none" stroke="midnightblue" d="M125.856,-224.444C145.266,-215.636 175.73,-201.812 197.965,-191.722"/>
<polygon fill="midnightblue" stroke="midnightblue" points="199.572,-194.836 207.232,-187.516 196.68,-188.462 199.572,-194.836"/>
</g>
<!-- Node8&#45;&gt;Node3 -->
<g id="edge9" class="edge"><title>Node8&#45;&gt;Node3</title>
<path fill="none" stroke="midnightblue" d="M202.828,-170.806C167.48,-161.356 99.8622,-143.28 58.6587,-132.265"/>
<polygon fill="midnightblue" stroke="midnightblue" points="59.3528,-128.828 48.7881,-129.627 57.545,-135.59 59.3528,-128.828"/>
</g>
<!-- Node9 -->
<g id="node9" class="node"><title>Node9</title>
<polygon fill="none" stroke="#bfbfbf" points="180,-0.5 180,-19.5 224,-19.5 224,-0.5 180,-0.5"/>
<text text-anchor="middle" x="202" y="-7.5" font-family="Helvetica,sans-Serif" font-size="10.00">cmath</text>
</g>
<!-- Node8&#45;&gt;Node9 -->
<g id="edge8" class="edge"><title>Node8&#45;&gt;Node9</title>
<path fill="none" stroke="midnightblue" d="M224.71,-168.075C220.932,-141.945 209.838,-65.2106 204.686,-29.577"/>
<polygon fill="midnightblue" stroke="midnightblue" points="208.134,-28.9644 203.239,-19.5681 201.206,-29.9661 208.134,-28.9644"/>
</g>
<!-- Node10 -->
<g id="node10" class="node"><title>Node10</title>
<g id="a_node10"><a xlink:href="blitz_8hh.html" target="_top" xlink:title="blitz.hh">
<polygon fill="none" stroke="black" points="230,-56.5 230,-75.5 278,-75.5 278,-56.5 230,-56.5"/>
<text text-anchor="middle" x="254" y="-63.5" font-family="Helvetica,sans-Serif" font-size="10.00">blitz.hh</text>
</a>
</g>
</g>
<!-- Node8&#45;&gt;Node10 -->
<g id="edge10" class="edge"><title>Node8&#45;&gt;Node10</title>
<path fill="none" stroke="midnightblue" d="M228.197,-168.368C232.716,-150.617 243.139,-109.666 249.266,-85.5974"/>
<polygon fill="midnightblue" stroke="midnightblue" points="252.738,-86.1458 251.813,-75.5914 245.954,-84.419 252.738,-86.1458"/>
</g>
<!-- Node12 -->
<g id="node12" class="node"><title>Node12</title>
<g id="a_node12"><a xlink:href="validators_8hh.html" target="_top" xlink:title="validators.hh">
<polygon fill="none" stroke="black" points="291,-112.5 291,-131.5 363,-131.5 363,-112.5 291,-112.5"/>
<text text-anchor="middle" x="327" y="-119.5" font-family="Helvetica,sans-Serif" font-size="10.00">validators.hh</text>
</a>
</g>
</g>
<!-- Node8&#45;&gt;Node12 -->
<g id="edge14" class="edge"><title>Node8&#45;&gt;Node12</title>
<path fill="none" stroke="midnightblue" d="M242.227,-168.324C258.351,-159.703 283.3,-146.364 301.964,-136.386"/>
<polygon fill="midnightblue" stroke="midnightblue" points="303.644,-139.456 310.813,-131.655 300.344,-133.283 303.644,-139.456"/>
</g>
<!-- Node10&#45;&gt;Node6 -->
<g id="edge12" class="edge"><title>Node10&#45;&gt;Node6</title>
<path fill="none" stroke="midnightblue" d="M233.56,-56.4435C212.33,-47.5566 178.901,-33.5632 154.745,-23.4514"/>
<polygon fill="midnightblue" stroke="midnightblue" points="155.921,-20.1493 145.345,-19.5164 153.218,-26.6064 155.921,-20.1493"/>
</g>
<!-- Node10&#45;&gt;Node9 -->
<g id="edge13" class="edge"><title>Node10&#45;&gt;Node9</title>
<path fill="none" stroke="midnightblue" d="M245.413,-56.083C237.841,-48.2195 226.622,-36.5688 217.486,-27.0813"/>
<polygon fill="midnightblue" stroke="midnightblue" points="219.885,-24.5266 210.427,-19.7511 214.842,-29.3821 219.885,-24.5266"/>
</g>
<!-- Node11 -->
<g id="node11" class="node"><title>Node11</title>
<polygon fill="none" stroke="#bfbfbf" points="242,-0.5 242,-19.5 298,-19.5 298,-0.5 242,-0.5"/>
<text text-anchor="middle" x="270" y="-7.5" font-family="Helvetica,sans-Serif" font-size="10.00">algorithm</text>
</g>
<!-- Node10&#45;&gt;Node11 -->
<g id="edge11" class="edge"><title>Node10&#45;&gt;Node11</title>
<path fill="none" stroke="midnightblue" d="M256.642,-56.083C258.786,-48.8486 261.879,-38.4087 264.549,-29.3968"/>
<polygon fill="midnightblue" stroke="midnightblue" points="267.922,-30.3334 267.407,-19.7511 261.21,-28.3447 267.922,-30.3334"/>
</g>
<!-- Node12&#45;&gt;Node10 -->
<g id="edge16" class="edge"><title>Node12&#45;&gt;Node10</title>
<path fill="none" stroke="midnightblue" d="M315.271,-112.324C304.163,-104.107 287.258,-91.6017 274.017,-81.8069"/>
<polygon fill="midnightblue" stroke="midnightblue" points="276.063,-78.9671 265.942,-75.8339 271.9,-84.5948 276.063,-78.9671"/>
</g>
<!-- Node12&#45;&gt;Node13 -->
<g id="edge15" class="edge"><title>Node12&#45;&gt;Node13</title>
<path fill="none" stroke="midnightblue" d="M349.342,-112.444C372.753,-103.478 409.736,-89.314 436.19,-79.1827"/>
<polygon fill="midnightblue" stroke="midnightblue" points="437.676,-82.3615 445.763,-75.5164 435.172,-75.8245 437.676,-82.3615"/>
</g>
<!-- Node14&#45;&gt;Node4 -->
<g id="edge20" class="edge"><title>Node14&#45;&gt;Node4</title>
<path fill="none" stroke="midnightblue" d="M412.866,-224.444C387.802,-215.173 347.714,-200.346 320.187,-190.165"/>
<polygon fill="midnightblue" stroke="midnightblue" points="321.258,-186.83 310.665,-186.643 318.83,-193.395 321.258,-186.83"/>
</g>
<!-- Node14&#45;&gt;Node15 -->
<g id="edge19" class="edge"><title>Node14&#45;&gt;Node15</title>
<path fill="none" stroke="midnightblue" d="M433.523,-224.083C431.514,-216.849 428.614,-206.409 426.11,-197.397"/>
<polygon fill="midnightblue" stroke="midnightblue" points="429.48,-196.449 423.431,-187.751 422.735,-198.323 429.48,-196.449"/>
</g>
<!-- Node14&#45;&gt;Node16 -->
<g id="edge21" class="edge"><title>Node14&#45;&gt;Node16</title>
<path fill="none" stroke="midnightblue" d="M447.889,-224.324C459.15,-216.107 476.287,-203.602 489.709,-193.807"/>
<polygon fill="midnightblue" stroke="midnightblue" points="491.88,-196.556 497.894,-187.834 487.753,-190.901 491.88,-196.556"/>
</g>
<!-- Node17&#45;&gt;Node4 -->
<g id="edge25" class="edge"><title>Node17&#45;&gt;Node4</title>
<path fill="none" stroke="midnightblue" d="M335.155,-280.368C327.176,-262.456 308.675,-220.923 297.995,-196.948"/>
<polygon fill="midnightblue" stroke="midnightblue" points="301.093,-195.302 293.827,-187.591 294.699,-198.15 301.093,-195.302"/>
</g>
<!-- Node17&#45;&gt;Node5 -->
<g id="edge26" class="edge"><title>Node17&#45;&gt;Node5</title>
<path fill="none" stroke="midnightblue" d="M321.58,-280.368C282.836,-261.171 189.335,-214.842 143.386,-192.074"/>
<polygon fill="midnightblue" stroke="midnightblue" points="144.853,-188.895 134.339,-187.591 141.745,-195.167 144.853,-188.895"/>
</g>
<!-- Node17&#45;&gt;Node7 -->
<g id="edge30" class="edge"><title>Node17&#45;&gt;Node7</title>
<path fill="none" stroke="midnightblue" d="M316.755,-283.822C279.3,-275.104 202.896,-257.321 153.371,-245.793"/>
<polygon fill="midnightblue" stroke="midnightblue" points="154.072,-242.363 143.539,-243.505 152.485,-249.181 154.072,-242.363"/>
</g>
<!-- Node17&#45;&gt;Node8 -->
<g id="edge28" class="edge"><title>Node17&#45;&gt;Node8</title>
<path fill="none" stroke="midnightblue" d="M330.133,-280.368C311.155,-261.894 266.364,-218.293 242.173,-194.744"/>
<polygon fill="midnightblue" stroke="midnightblue" points="244.433,-192.059 234.826,-187.591 239.55,-197.075 244.433,-192.059"/>
</g>
<!-- Node17&#45;&gt;Node12 -->
<g id="edge29" class="edge"><title>Node17&#45;&gt;Node12</title>
<path fill="none" stroke="midnightblue" d="M338.355,-280.075C336.466,-253.945 330.919,-177.211 328.343,-141.577"/>
<polygon fill="midnightblue" stroke="midnightblue" points="331.831,-141.29 327.619,-131.568 324.85,-141.794 331.831,-141.29"/>
</g>
<!-- Node17&#45;&gt;Node14 -->
<g id="edge27" class="edge"><title>Node17&#45;&gt;Node14</title>
<path fill="none" stroke="midnightblue" d="M354.585,-280.324C369.999,-271.743 393.812,-258.486 411.71,-248.522"/>
<polygon fill="midnightblue" stroke="midnightblue" points="413.419,-251.577 420.454,-243.655 410.014,-245.461 413.419,-251.577"/>
</g>
<!-- Node17&#45;&gt;Node15 -->
<g id="edge23" class="edge"><title>Node17&#45;&gt;Node15</title>
<path fill="none" stroke="midnightblue" d="M345.434,-280.368C359.027,-262.135 390.864,-219.426 408.569,-195.675"/>
<polygon fill="midnightblue" stroke="midnightblue" points="411.425,-197.701 414.595,-187.591 405.813,-193.517 411.425,-197.701"/>
</g>
<!-- Node17&#45;&gt;Node16 -->
<g id="edge24" class="edge"><title>Node17&#45;&gt;Node16</title>
<path fill="none" stroke="midnightblue" d="M361.217,-286.739C390.35,-282.733 441.662,-271.978 475,-244 489.536,-231.801 498.966,-211.97 504.333,-197.416"/>
<polygon fill="midnightblue" stroke="midnightblue" points="507.651,-198.529 507.538,-187.935 501.02,-196.287 507.651,-198.529"/>
</g>
</g>
</svg>
