<?xml version="1.0" encoding="UTF-8" standalone="no"?>
<!DOCTYPE svg PUBLIC "-//W3C//DTD SVG 1.1//EN"
 "http://www.w3.org/Graphics/SVG/1.1/DTD/svg11.dtd">
<!-- Generated by graphviz version 2.40.1 (20161225.0304)
 -->
<!-- Title: src/acf.hh Pages: 1 -->
<svg width="513pt" height="308pt"
 viewBox="0.00 0.00 512.50 308.00" xmlns="http://www.w3.org/2000/svg" xmlns:xlink="http://www.w3.org/1999/xlink">
<g id="graph0" class="graph" transform="scale(1 1) rotate(0) translate(4 304)">
<title>src/acf.hh</title>
<!-- Node0 -->
<g id="node1" class="node">
<title>Node0</title>
<polygon fill="#bfbfbf" stroke="#000000" points="187.5,-280.5 187.5,-299.5 247.5,-299.5 247.5,-280.5 187.5,-280.5"/>
<text text-anchor="middle" x="217.5" y="-287.5" font-family="Helvetica,sans-Serif" font-size="10.00" fill="#000000">src/acf.hh</text>
</g>
<!-- Node1 -->
<g id="node2" class="node">
<title>Node1</title>
<polygon fill="none" stroke="#bfbfbf" points="0,-168.5 0,-187.5 59,-187.5 59,-168.5 0,-168.5"/>
<text text-anchor="middle" x="29.5" y="-175.5" font-family="Helvetica,sans-Serif" font-size="10.00" fill="#000000">functional</text>
</g>
<!-- Node0&#45;&gt;Node1 -->
<g id="edge1" class="edge">
<title>Node0&#45;&gt;Node1</title>
<path fill="none" stroke="#191970" d="M187.2103,-284.1078C147.4607,-275.8723 80.5097,-260.1109 61.5,-244 47.2727,-231.9423 38.8509,-212.0802 34.2484,-197.2895"/>
<polygon fill="#191970" stroke="#191970" points="37.6035,-196.2907 31.5437,-187.5999 30.8612,-198.1728 37.6035,-196.2907"/>
</g>
<!-- Node2 -->
<g id="node3" class="node">
<title>Node2</title>
<polygon fill="none" stroke="#bfbfbf" points="77,-168.5 77,-187.5 160,-187.5 160,-168.5 77,-168.5"/>
<text text-anchor="middle" x="118.5" y="-175.5" font-family="Helvetica,sans-Serif" font-size="10.00" fill="#000000">unordered_map</text>
</g>
<!-- Node0&#45;&gt;Node2 -->
<g id="edge2" class="edge">
<title>Node0&#45;&gt;Node2</title>
<path fill="none" stroke="#191970" d="M209.0593,-280.4509C192.3281,-261.5227 154.7535,-219.014 133.6398,-195.1279"/>
<polygon fill="#191970" stroke="#191970" points="136.1646,-192.6994 126.9193,-187.5249 130.9198,-197.3354 136.1646,-192.6994"/>
</g>
<!-- Node3 -->
<g id="node4" class="node">
<title>Node3</title>
<polygon fill="none" stroke="#bfbfbf" points="178,-168.5 178,-187.5 219,-187.5 219,-168.5 178,-168.5"/>
<text text-anchor="middle" x="198.5" y="-175.5" font-family="Helvetica,sans-Serif" font-size="10.00" fill="#000000">string</text>
</g>
<!-- Node0&#45;&gt;Node3 -->
<g id="edge3" class="edge">
<title>Node0&#45;&gt;Node3</title>
<path fill="none" stroke="#191970" d="M215.8801,-280.4509C212.7812,-262.184 205.9567,-221.9553 201.8416,-197.6976"/>
<polygon fill="#191970" stroke="#191970" points="205.2391,-196.7986 200.1158,-187.5249 198.3377,-197.9694 205.2391,-196.7986"/>
</g>
<!-- Node4 -->
<g id="node5" class="node">
<title>Node4</title>
<g id="a_node5"><a xlink:href="types_8hh.html" target="_top" xlink:title="types.hh">
<polygon fill="none" stroke="#000000" points="237.5,-168.5 237.5,-187.5 291.5,-187.5 291.5,-168.5 237.5,-168.5"/>
<text text-anchor="middle" x="264.5" y="-175.5" font-family="Helvetica,sans-Serif" font-size="10.00" fill="#000000">types.hh</text>
</a>
</g>
</g>
<!-- Node0&#45;&gt;Node4 -->
<g id="edge4" class="edge">
<title>Node0&#45;&gt;Node4</title>
<path fill="none" stroke="#191970" d="M221.5072,-280.4509C229.2422,-262.0186 246.3608,-221.2254 256.5087,-197.043"/>
<polygon fill="#191970" stroke="#191970" points="259.8607,-198.1002 260.5029,-187.5249 253.406,-195.3915 259.8607,-198.1002"/>
</g>
<!-- Node6 -->
<g id="node7" class="node">
<title>Node6</title>
<g id="a_node7"><a xlink:href="params_8hh.html" target="_top" xlink:title="params.hh">
<polygon fill="none" stroke="#000000" points="70.5,-224.5 70.5,-243.5 132.5,-243.5 132.5,-224.5 70.5,-224.5"/>
<text text-anchor="middle" x="101.5" y="-231.5" font-family="Helvetica,sans-Serif" font-size="10.00" fill="#000000">params.hh</text>
</a>
</g>
</g>
<!-- Node0&#45;&gt;Node6 -->
<g id="edge6" class="edge">
<title>Node0&#45;&gt;Node6</title>
<path fill="none" stroke="#191970" d="M197.5589,-280.3733C179.0214,-271.4241 151.1972,-257.9917 130.2587,-247.8835"/>
<polygon fill="#191970" stroke="#191970" points="131.7081,-244.6967 121.1809,-243.5011 128.6648,-251.0006 131.7081,-244.6967"/>
</g>
<!-- Node7 -->
<g id="node8" class="node">
<title>Node7</title>
<g id="a_node8"><a xlink:href="grid_8hh.html" target="_top" xlink:title="grid.hh">
<polygon fill="none" stroke="#000000" points="339.5,-168.5 339.5,-187.5 385.5,-187.5 385.5,-168.5 339.5,-168.5"/>
<text text-anchor="middle" x="362.5" y="-175.5" font-family="Helvetica,sans-Serif" font-size="10.00" fill="#000000">grid.hh</text>
</a>
</g>
</g>
<!-- Node0&#45;&gt;Node7 -->
<g id="edge10" class="edge">
<title>Node0&#45;&gt;Node7</title>
<path fill="none" stroke="#191970" d="M247.6438,-285.6833C289.5114,-279.0004 361.8959,-264.7224 377.5,-244 387.8375,-230.2717 381.468,-210.6886 374.1067,-196.4207"/>
<polygon fill="#191970" stroke="#191970" points="377.0342,-194.4884 369.0452,-187.5294 370.9508,-197.9515 377.0342,-194.4884"/>
</g>
<!-- Node12 -->
<g id="node13" class="node">
<title>Node12</title>
<g id="a_node13"><a xlink:href="validators_8hh.html" target="_top" xlink:title="validators.hh">
<polygon fill="none" stroke="#000000" points="432.5,-112.5 432.5,-131.5 504.5,-131.5 504.5,-112.5 432.5,-112.5"/>
<text text-anchor="middle" x="468.5" y="-119.5" font-family="Helvetica,sans-Serif" font-size="10.00" fill="#000000">validators.hh</text>
</a>
</g>
</g>
<!-- Node0&#45;&gt;Node12 -->
<g id="edge20" class="edge">
<title>Node0&#45;&gt;Node12</title>
<path fill="none" stroke="#191970" d="M247.6899,-284.915C291.6283,-277.0525 370.4708,-261.0613 393.5,-244 429.302,-217.4759 451.7326,-168.3005 461.9678,-141.186"/>
<polygon fill="#191970" stroke="#191970" points="465.3035,-142.2533 465.4019,-131.6589 458.7182,-139.8796 465.3035,-142.2533"/>
</g>
<!-- Node14 -->
<g id="node15" class="node">
<title>Node14</title>
<g id="a_node15"><a xlink:href="discrete__function_8hh.html" target="_top" xlink:title="discrete_function.hh">
<polygon fill="none" stroke="#000000" points="264.5,-224.5 264.5,-243.5 368.5,-243.5 368.5,-224.5 264.5,-224.5"/>
<text text-anchor="middle" x="316.5" y="-231.5" font-family="Helvetica,sans-Serif" font-size="10.00" fill="#000000">discrete_function.hh</text>
</a>
</g>
</g>
<!-- Node0&#45;&gt;Node14 -->
<g id="edge21" class="edge">
<title>Node0&#45;&gt;Node14</title>
<path fill="none" stroke="#191970" d="M234.7445,-280.2455C250.0761,-271.5731 272.7199,-258.7645 290.2916,-248.825"/>
<polygon fill="#191970" stroke="#191970" points="292.4724,-251.6126 299.4531,-243.6427 289.0259,-245.5198 292.4724,-251.6126"/>
</g>
<!-- Node5 -->
<g id="node6" class="node">
<title>Node5</title>
<polygon fill="none" stroke="#bfbfbf" points="227,-.5 227,-19.5 294,-19.5 294,-.5 227,-.5"/>
<text text-anchor="middle" x="260.5" y="-7.5" font-family="Helvetica,sans-Serif" font-size="10.00" fill="#000000">blitz/array.h</text>
</g>
<!-- Node4&#45;&gt;Node5 -->
<g id="edge5" class="edge">
<title>Node4&#45;&gt;Node5</title>
<path fill="none" stroke="#191970" d="M264.2735,-168.4862C263.6412,-141.9293 261.8468,-66.5651 260.9801,-30.1655"/>
<polygon fill="#191970" stroke="#191970" points="264.4711,-29.7417 260.734,-19.8279 257.4731,-29.9084 264.4711,-29.7417"/>
</g>
<!-- Node6&#45;&gt;Node1 -->
<g id="edge7" class="edge">
<title>Node6&#45;&gt;Node1</title>
<path fill="none" stroke="#191970" d="M88.9586,-224.2455C78.2213,-215.8943 62.5527,-203.7076 49.9953,-193.9408"/>
<polygon fill="#191970" stroke="#191970" points="51.9401,-191.0194 41.8977,-187.6427 47.6425,-196.5449 51.9401,-191.0194"/>
</g>
<!-- Node6&#45;&gt;Node2 -->
<g id="edge9" class="edge">
<title>Node6&#45;&gt;Node2</title>
<path fill="none" stroke="#191970" d="M104.4612,-224.2455C106.7038,-216.8579 109.8577,-206.4689 112.6081,-197.4087"/>
<polygon fill="#191970" stroke="#191970" points="116.017,-198.2282 115.5728,-187.6427 109.3188,-196.1948 116.017,-198.2282"/>
</g>
<!-- Node6&#45;&gt;Node3 -->
<g id="edge8" class="edge">
<title>Node6&#45;&gt;Node3</title>
<path fill="none" stroke="#191970" d="M118.3961,-224.2455C133.418,-215.5731 155.6043,-202.7645 172.821,-192.825"/>
<polygon fill="#191970" stroke="#191970" points="174.8871,-195.6737 181.7975,-187.6427 171.3872,-189.6114 174.8871,-195.6737"/>
</g>
<!-- Node8 -->
<g id="node9" class="node">
<title>Node8</title>
<polygon fill="none" stroke="#bfbfbf" points="312.5,-.5 312.5,-19.5 356.5,-19.5 356.5,-.5 312.5,-.5"/>
<text text-anchor="middle" x="334.5" y="-7.5" font-family="Helvetica,sans-Serif" font-size="10.00" fill="#000000">cmath</text>
</g>
<!-- Node7&#45;&gt;Node8 -->
<g id="edge11" class="edge">
<title>Node7&#45;&gt;Node8</title>
<path fill="none" stroke="#191970" d="M356.5816,-168.332C346.1989,-150.7402 325.085,-111.984 317.5,-76 314.1493,-60.1039 319.2825,-42.2746 324.7632,-29.1579"/>
<polygon fill="#191970" stroke="#191970" points="328.0794,-30.3237 329.0777,-19.7759 321.7197,-27.3989 328.0794,-30.3237"/>
</g>
<!-- Node9 -->
<g id="node10" class="node">
<title>Node9</title>
<polygon fill="none" stroke="#bfbfbf" points="365,-112.5 365,-131.5 414,-131.5 414,-112.5 365,-112.5"/>
<text text-anchor="middle" x="389.5" y="-119.5" font-family="Helvetica,sans-Serif" font-size="10.00" fill="#000000">istream</text>
</g>
<!-- Node7&#45;&gt;Node9 -->
<g id="edge12" class="edge">
<title>Node7&#45;&gt;Node9</title>
<path fill="none" stroke="#191970" d="M367.203,-168.2455C370.8424,-160.6973 375.9924,-150.0158 380.4262,-140.8197"/>
<polygon fill="#191970" stroke="#191970" points="383.6605,-142.1704 384.8509,-131.6427 377.3551,-139.1303 383.6605,-142.1704"/>
</g>
<!-- Node10 -->
<g id="node11" class="node">
<title>Node10</title>
<g id="a_node11"><a xlink:href="blitz_8hh.html" target="_top" xlink:title="blitz.hh">
<polygon fill="none" stroke="#000000" points="326.5,-56.5 326.5,-75.5 374.5,-75.5 374.5,-56.5 326.5,-56.5"/>
<text text-anchor="middle" x="350.5" y="-63.5" font-family="Helvetica,sans-Serif" font-size="10.00" fill="#000000">blitz.hh</text>
</a>
</g>
</g>
<!-- Node7&#45;&gt;Node10 -->
<g id="edge13" class="edge">
<title>Node7&#45;&gt;Node10</title>
<path fill="none" stroke="#191970" d="M361.1505,-168.4983C359.8568,-159.2058 357.8992,-144.6478 356.5,-132 354.7974,-116.6099 353.2268,-99.1613 352.1199,-86.0717"/>
<polygon fill="#191970" stroke="#191970" points="355.5871,-85.5296 351.2749,-75.852 348.6109,-86.1065 355.5871,-85.5296"/>
</g>
<!-- Node7&#45;&gt;Node12 -->
<g id="edge17" class="edge">
<title>Node7&#45;&gt;Node12</title>
<path fill="none" stroke="#191970" d="M380.9638,-168.2455C397.6074,-159.4527 422.2993,-146.4079 441.2192,-136.4125"/>
<polygon fill="#191970" stroke="#191970" points="443.0408,-139.4086 450.2478,-131.6427 439.7709,-133.2193 443.0408,-139.4086"/>
</g>
<!-- Node10&#45;&gt;Node5 -->
<g id="edge15" class="edge">
<title>Node10&#45;&gt;Node5</title>
<path fill="none" stroke="#191970" d="M334.8232,-56.2455C321.0144,-47.6534 300.6807,-35.0014 284.7708,-25.1018"/>
<polygon fill="#191970" stroke="#191970" points="286.3368,-21.954 275.9972,-19.6427 282.6387,-27.8974 286.3368,-21.954"/>
</g>
<!-- Node10&#45;&gt;Node8 -->
<g id="edge16" class="edge">
<title>Node10&#45;&gt;Node8</title>
<path fill="none" stroke="#191970" d="M347.713,-56.2455C345.6023,-48.8579 342.634,-38.4689 340.0453,-29.4087"/>
<polygon fill="#191970" stroke="#191970" points="343.3677,-28.2964 337.255,-19.6427 336.637,-30.2195 343.3677,-28.2964"/>
</g>
<!-- Node11 -->
<g id="node12" class="node">
<title>Node11</title>
<polygon fill="none" stroke="#bfbfbf" points="374.5,-.5 374.5,-19.5 430.5,-19.5 430.5,-.5 374.5,-.5"/>
<text text-anchor="middle" x="402.5" y="-7.5" font-family="Helvetica,sans-Serif" font-size="10.00" fill="#000000">algorithm</text>
</g>
<!-- Node10&#45;&gt;Node11 -->
<g id="edge14" class="edge">
<title>Node10&#45;&gt;Node11</title>
<path fill="none" stroke="#191970" d="M359.5577,-56.2455C367.0142,-48.2155 377.7634,-36.6394 386.6417,-27.0781"/>
<polygon fill="#191970" stroke="#191970" points="389.3063,-29.3522 393.5461,-19.6427 384.1768,-24.589 389.3063,-29.3522"/>
</g>
<!-- Node12&#45;&gt;Node10 -->
<g id="edge19" class="edge">
<title>Node12&#45;&gt;Node10</title>
<path fill="none" stroke="#191970" d="M448.2151,-112.3733C429.3579,-103.4241 401.054,-89.9917 379.7545,-79.8835"/>
<polygon fill="#191970" stroke="#191970" points="381.0551,-76.6266 370.5202,-75.5011 378.0539,-82.9506 381.0551,-76.6266"/>
</g>
<!-- Node13 -->
<g id="node14" class="node">
<title>Node13</title>
<polygon fill="none" stroke="#bfbfbf" points="439,-56.5 439,-75.5 498,-75.5 498,-56.5 439,-56.5"/>
<text text-anchor="middle" x="468.5" y="-63.5" font-family="Helvetica,sans-Serif" font-size="10.00" fill="#000000">stdexcept</text>
</g>
<!-- Node12&#45;&gt;Node13 -->
<g id="edge18" class="edge">
<title>Node12&#45;&gt;Node13</title>
<path fill="none" stroke="#191970" d="M468.5,-112.2455C468.5,-104.9382 468.5,-94.6944 468.5,-85.7046"/>
<polygon fill="#191970" stroke="#191970" points="472.0001,-85.6426 468.5,-75.6427 465.0001,-85.6427 472.0001,-85.6426"/>
</g>
<!-- Node14&#45;&gt;Node4 -->
<g id="edge23" class="edge">
<title>Node14&#45;&gt;Node4</title>
<path fill="none" stroke="#191970" d="M307.4423,-224.2455C299.9858,-216.2155 289.2366,-204.6394 280.3583,-195.0781"/>
<polygon fill="#191970" stroke="#191970" points="282.8232,-192.589 273.4539,-187.6427 277.6937,-197.3522 282.8232,-192.589"/>
</g>
<!-- Node14&#45;&gt;Node7 -->
<g id="edge22" class="edge">
<title>Node14&#45;&gt;Node7</title>
<path fill="none" stroke="#191970" d="M324.5126,-224.2455C330.9768,-216.3761 340.2385,-205.101 347.9983,-195.6542"/>
<polygon fill="#191970" stroke="#191970" points="350.9364,-197.5916 354.5792,-187.6427 345.5273,-193.1484 350.9364,-197.5916"/>
</g>
</g>
</svg>
