<?xml version="1.0" encoding="UTF-8" standalone="no"?>
<!DOCTYPE svg PUBLIC "-//W3C//DTD SVG 1.1//EN"
 "http://www.w3.org/Graphics/SVG/1.1/DTD/svg11.dtd">
<!-- Generated by graphviz version 2.36.0 (20140111.2315)
 -->
<!-- Title: /home/travis/build/igankevich/arma/src/bits/acf_wrapper.cc Pages: 1 -->
<svg width="662pt" height="386pt"
 viewBox="0.00 0.00 661.54 386.00" xmlns="http://www.w3.org/2000/svg" xmlns:xlink="http://www.w3.org/1999/xlink">
<g id="graph0" class="graph" transform="scale(1 1) rotate(0) translate(4 382)">
<title>/home/travis/build/igankevich/arma/src/bits/acf_wrapper.cc</title>
<!-- Node1 -->
<g id="node1" class="node"><title>Node1</title>
<polygon fill="#bfbfbf" stroke="black" points="442.037,-336.5 442.037,-377.5 549.037,-377.5 549.037,-336.5 442.037,-336.5"/>
<text text-anchor="start" x="450.037" y="-365.5" font-family="Helvetica,sans-Serif" font-size="10.00">/home/travis/build</text>
<text text-anchor="start" x="450.037" y="-354.5" font-family="Helvetica,sans-Serif" font-size="10.00">/igankevich/arma/src</text>
<text text-anchor="middle" x="495.537" y="-343.5" font-family="Helvetica,sans-Serif" font-size="10.00">/bits/acf_wrapper.cc</text>
</g>
<!-- Node2 -->
<g id="node2" class="node"><title>Node2</title>
<g id="a_node2"><a xlink:href="acf__wrapper_8hh.html" target="_top" xlink:title="acf_wrapper.hh">
<polygon fill="none" stroke="black" points="28.0372,-280.5 28.0372,-299.5 111.037,-299.5 111.037,-280.5 28.0372,-280.5"/>
<text text-anchor="middle" x="69.5372" y="-287.5" font-family="Helvetica,sans-Serif" font-size="10.00">acf_wrapper.hh</text>
</a>
</g>
</g>
<!-- Node1&#45;&gt;Node2 -->
<g id="edge1" class="edge"><title>Node1&#45;&gt;Node2</title>
<path fill="none" stroke="midnightblue" d="M442.015,-347.834C359.51,-335.245 202.306,-311.258 121.039,-298.858"/>
<polygon fill="midnightblue" stroke="midnightblue" points="121.454,-295.381 111.04,-297.333 120.398,-302.301 121.454,-295.381"/>
</g>
<!-- Node11 -->
<g id="node11" class="node"><title>Node11</title>
<polygon fill="none" stroke="#bfbfbf" points="407.037,-56.5 407.037,-75.5 466.037,-75.5 466.037,-56.5 407.037,-56.5"/>
<text text-anchor="middle" x="436.537" y="-63.5" font-family="Helvetica,sans-Serif" font-size="10.00">stdexcept</text>
</g>
<!-- Node1&#45;&gt;Node11 -->
<g id="edge32" class="edge"><title>Node1&#45;&gt;Node11</title>
<path fill="none" stroke="midnightblue" d="M517.929,-336.113C540.347,-313.9 571.537,-275.683 571.537,-235 571.537,-235 571.537,-235 571.537,-177 571.537,-126.307 513.622,-94.8301 473.659,-79.144"/>
<polygon fill="midnightblue" stroke="midnightblue" points="474.774,-75.8243 464.182,-75.5841 472.313,-82.3772 474.774,-75.8243"/>
</g>
<!-- Node15 -->
<g id="node15" class="node"><title>Node15</title>
<g id="a_node15"><a xlink:href="params_8hh.html" target="_top" xlink:title="params.hh">
<polygon fill="none" stroke="black" points="367.537,-224.5 367.537,-243.5 429.537,-243.5 429.537,-224.5 367.537,-224.5"/>
<text text-anchor="middle" x="398.537" y="-231.5" font-family="Helvetica,sans-Serif" font-size="10.00">params.hh</text>
</a>
</g>
</g>
<!-- Node1&#45;&gt;Node15 -->
<g id="edge18" class="edge"><title>Node1&#45;&gt;Node15</title>
<path fill="none" stroke="midnightblue" d="M479.737,-336.29C460.863,-312.747 429.625,-273.779 411.9,-251.669"/>
<polygon fill="midnightblue" stroke="midnightblue" points="414.397,-249.188 405.411,-243.575 408.935,-253.566 414.397,-249.188"/>
</g>
<!-- Node16 -->
<g id="node16" class="node"><title>Node16</title>
<polygon fill="none" stroke="#bfbfbf" points="360.037,-168.5 360.037,-187.5 419.037,-187.5 419.037,-168.5 360.037,-168.5"/>
<text text-anchor="middle" x="389.537" y="-175.5" font-family="Helvetica,sans-Serif" font-size="10.00">functional</text>
</g>
<!-- Node1&#45;&gt;Node16 -->
<g id="edge31" class="edge"><title>Node1&#45;&gt;Node16</title>
<path fill="none" stroke="midnightblue" d="M489.688,-336.38C481.059,-309.423 463.129,-260.166 437.537,-224 429.576,-212.75 418.457,-202.108 408.925,-194"/>
<polygon fill="midnightblue" stroke="midnightblue" points="411.031,-191.202 401.076,-187.576 406.598,-196.619 411.031,-191.202"/>
</g>
<!-- Node17 -->
<g id="node17" class="node"><title>Node17</title>
<polygon fill="none" stroke="#bfbfbf" points="437.037,-168.5 437.037,-187.5 520.037,-187.5 520.037,-168.5 437.037,-168.5"/>
<text text-anchor="middle" x="478.537" y="-175.5" font-family="Helvetica,sans-Serif" font-size="10.00">unordered_map</text>
</g>
<!-- Node1&#45;&gt;Node17 -->
<g id="edge34" class="edge"><title>Node1&#45;&gt;Node17</title>
<path fill="none" stroke="midnightblue" d="M502.453,-336.283C510.576,-310.052 521.517,-262.509 509.537,-224 506.309,-213.622 499.761,-203.521 493.513,-195.527"/>
<polygon fill="midnightblue" stroke="midnightblue" points="496.121,-193.19 487.02,-187.766 490.752,-197.682 496.121,-193.19"/>
</g>
<!-- Node18 -->
<g id="node18" class="node"><title>Node18</title>
<g id="a_node18"><a xlink:href="acf_8hh.html" target="_top" xlink:title="acf.hh">
<polygon fill="none" stroke="black" points="279.537,-280.5 279.537,-299.5 323.537,-299.5 323.537,-280.5 279.537,-280.5"/>
<text text-anchor="middle" x="301.537" y="-287.5" font-family="Helvetica,sans-Serif" font-size="10.00">acf.hh</text>
</a>
</g>
</g>
<!-- Node1&#45;&gt;Node18 -->
<g id="edge22" class="edge"><title>Node1&#45;&gt;Node18</title>
<path fill="none" stroke="midnightblue" d="M442.012,-338.066C407.3,-326.436 363.222,-311.667 333.786,-301.805"/>
<polygon fill="midnightblue" stroke="midnightblue" points="334.618,-298.393 324.024,-298.534 332.394,-305.03 334.618,-298.393"/>
</g>
<!-- Node19 -->
<g id="node19" class="node"><title>Node19</title>
<polygon fill="none" stroke="#bfbfbf" points="599.537,-280.5 599.537,-299.5 653.537,-299.5 653.537,-280.5 599.537,-280.5"/>
<text text-anchor="middle" x="626.537" y="-287.5" font-family="Helvetica,sans-Serif" font-size="10.00">iostream</text>
</g>
<!-- Node1&#45;&gt;Node19 -->
<g id="edge33" class="edge"><title>Node1&#45;&gt;Node19</title>
<path fill="none" stroke="midnightblue" d="M534.842,-336.498C555.892,-326.053 581.264,-313.464 599.978,-304.178"/>
<polygon fill="midnightblue" stroke="midnightblue" points="601.697,-307.233 609.099,-299.652 598.586,-300.962 601.697,-307.233"/>
</g>
<!-- Node3 -->
<g id="node3" class="node"><title>Node3</title>
<polygon fill="none" stroke="#bfbfbf" points="65.0372,-112.5 65.0372,-131.5 114.037,-131.5 114.037,-112.5 65.0372,-112.5"/>
<text text-anchor="middle" x="89.5372" y="-119.5" font-family="Helvetica,sans-Serif" font-size="10.00">istream</text>
</g>
<!-- Node2&#45;&gt;Node3 -->
<g id="edge2" class="edge"><title>Node2&#45;&gt;Node3</title>
<path fill="none" stroke="midnightblue" d="M46.7488,-280.471C31.2111,-273.316 11.8298,-261.435 2.53722,-244 -1.6436,-236.156 0.749971,-232.707 2.53722,-224 7.98175,-197.475 9.55864,-189.094 26.5372,-168 36.7777,-155.277 51.4899,-144.494 64.122,-136.676"/>
<polygon fill="midnightblue" stroke="midnightblue" points="66.0244,-139.617 72.8587,-131.521 62.4674,-133.588 66.0244,-139.617"/>
</g>
<!-- Node4 -->
<g id="node4" class="node"><title>Node4</title>
<polygon fill="none" stroke="#bfbfbf" points="292.037,-168.5 292.037,-187.5 333.037,-187.5 333.037,-168.5 292.037,-168.5"/>
<text text-anchor="middle" x="312.537" y="-175.5" font-family="Helvetica,sans-Serif" font-size="10.00">string</text>
</g>
<!-- Node2&#45;&gt;Node4 -->
<g id="edge3" class="edge"><title>Node2&#45;&gt;Node4</title>
<path fill="none" stroke="midnightblue" d="M88.605,-280.368C131.191,-261.091 234.217,-214.454 284.284,-191.789"/>
<polygon fill="midnightblue" stroke="midnightblue" points="285.891,-194.904 293.558,-187.591 283.005,-188.527 285.891,-194.904"/>
</g>
<!-- Node5 -->
<g id="node5" class="node"><title>Node5</title>
<g id="a_node5"><a xlink:href="types_8hh.html" target="_top" xlink:title="types.hh">
<polygon fill="none" stroke="black" points="35.5372,-168.5 35.5372,-187.5 89.5372,-187.5 89.5372,-168.5 35.5372,-168.5"/>
<text text-anchor="middle" x="62.5372" y="-175.5" font-family="Helvetica,sans-Serif" font-size="10.00">types.hh</text>
</a>
</g>
</g>
<!-- Node2&#45;&gt;Node5 -->
<g id="edge4" class="edge"><title>Node2&#45;&gt;Node5</title>
<path fill="none" stroke="midnightblue" d="M49.6312,-280.41C35.3122,-273.04 17.0792,-260.916 8.53722,-244 -1.45318,-224.215 19.1537,-205.145 37.7241,-192.836"/>
<polygon fill="midnightblue" stroke="midnightblue" points="39.6238,-195.777 46.2643,-187.521 35.9249,-189.834 39.6238,-195.777"/>
</g>
<!-- Node7 -->
<g id="node7" class="node"><title>Node7</title>
<g id="a_node7"><a xlink:href="discrete__function_8hh.html" target="_top" xlink:title="discrete_function.hh">
<polygon fill="none" stroke="black" points="17.5372,-224.5 17.5372,-243.5 121.537,-243.5 121.537,-224.5 17.5372,-224.5"/>
<text text-anchor="middle" x="69.5372" y="-231.5" font-family="Helvetica,sans-Serif" font-size="10.00">discrete_function.hh</text>
</a>
</g>
</g>
<!-- Node2&#45;&gt;Node7 -->
<g id="edge6" class="edge"><title>Node2&#45;&gt;Node7</title>
<path fill="none" stroke="midnightblue" d="M69.5372,-280.083C69.5372,-273.006 69.5372,-262.861 69.5372,-253.986"/>
<polygon fill="midnightblue" stroke="midnightblue" points="73.0373,-253.751 69.5372,-243.751 66.0373,-253.751 73.0373,-253.751"/>
</g>
<!-- Node6 -->
<g id="node6" class="node"><title>Node6</title>
<polygon fill="none" stroke="#bfbfbf" points="108.537,-0.5 108.537,-19.5 176.537,-19.5 176.537,-0.5 108.537,-0.5"/>
<text text-anchor="middle" x="142.537" y="-7.5" font-family="Helvetica,sans-Serif" font-size="10.00">blitz/array.h</text>
</g>
<!-- Node5&#45;&gt;Node6 -->
<g id="edge5" class="edge"><title>Node5&#45;&gt;Node6</title>
<path fill="none" stroke="midnightblue" d="M59.1724,-168.279C54.7755,-155.507 48.4257,-131.152 55.5372,-112 68.9786,-75.8003 101.856,-43.8835 123.124,-26.0442"/>
<polygon fill="midnightblue" stroke="midnightblue" points="125.363,-28.7352 130.908,-19.7072 120.943,-23.3068 125.363,-28.7352"/>
</g>
<!-- Node7&#45;&gt;Node5 -->
<g id="edge7" class="edge"><title>Node7&#45;&gt;Node5</title>
<path fill="none" stroke="midnightblue" d="M68.3813,-224.083C67.4537,-216.927 66.1196,-206.635 64.9601,-197.691"/>
<polygon fill="midnightblue" stroke="midnightblue" points="68.4282,-197.218 63.6716,-187.751 61.4863,-198.118 68.4282,-197.218"/>
</g>
<!-- Node8 -->
<g id="node8" class="node"><title>Node8</title>
<g id="a_node8"><a xlink:href="grid_8hh.html" target="_top" xlink:title="grid.hh">
<polygon fill="none" stroke="black" points="126.537,-168.5 126.537,-187.5 172.537,-187.5 172.537,-168.5 126.537,-168.5"/>
<text text-anchor="middle" x="149.537" y="-175.5" font-family="Helvetica,sans-Serif" font-size="10.00">grid.hh</text>
</a>
</g>
</g>
<!-- Node7&#45;&gt;Node8 -->
<g id="edge8" class="edge"><title>Node7&#45;&gt;Node8</title>
<path fill="none" stroke="midnightblue" d="M82.3906,-224.324C94.7536,-215.979 113.667,-203.212 128.274,-193.352"/>
<polygon fill="midnightblue" stroke="midnightblue" points="130.385,-196.15 136.716,-187.655 126.469,-190.348 130.385,-196.15"/>
</g>
<!-- Node8&#45;&gt;Node3 -->
<g id="edge10" class="edge"><title>Node8&#45;&gt;Node3</title>
<path fill="none" stroke="midnightblue" d="M139.897,-168.324C131.028,-160.341 117.663,-148.313 106.929,-138.653"/>
<polygon fill="midnightblue" stroke="midnightblue" points="109.127,-135.922 99.3527,-131.834 104.444,-141.125 109.127,-135.922"/>
</g>
<!-- Node8&#45;&gt;Node6 -->
<g id="edge11" class="edge"><title>Node8&#45;&gt;Node6</title>
<path fill="none" stroke="midnightblue" d="M149.161,-168.075C148.059,-141.945 144.823,-65.2106 143.321,-29.577"/>
<polygon fill="midnightblue" stroke="midnightblue" points="146.817,-29.4117 142.899,-19.5681 139.823,-29.7067 146.817,-29.4117"/>
</g>
<!-- Node9 -->
<g id="node9" class="node"><title>Node9</title>
<polygon fill="none" stroke="#bfbfbf" points="170.537,-112.5 170.537,-131.5 222.537,-131.5 222.537,-112.5 170.537,-112.5"/>
<text text-anchor="middle" x="196.537" y="-119.5" font-family="Helvetica,sans-Serif" font-size="10.00">stddef.h</text>
</g>
<!-- Node8&#45;&gt;Node9 -->
<g id="edge9" class="edge"><title>Node8&#45;&gt;Node9</title>
<path fill="none" stroke="midnightblue" d="M157.298,-168.083C164.074,-160.298 174.08,-148.801 182.292,-139.367"/>
<polygon fill="midnightblue" stroke="midnightblue" points="184.995,-141.592 188.921,-131.751 179.715,-136.996 184.995,-141.592"/>
</g>
<!-- Node10 -->
<g id="node10" class="node"><title>Node10</title>
<g id="a_node10"><a xlink:href="validators_8hh.html" target="_top" xlink:title="validators.hh">
<polygon fill="none" stroke="black" points="240.537,-112.5 240.537,-131.5 312.537,-131.5 312.537,-112.5 240.537,-112.5"/>
<text text-anchor="middle" x="276.537" y="-119.5" font-family="Helvetica,sans-Serif" font-size="10.00">validators.hh</text>
</a>
</g>
</g>
<!-- Node8&#45;&gt;Node10 -->
<g id="edge12" class="edge"><title>Node8&#45;&gt;Node10</title>
<path fill="none" stroke="midnightblue" d="M169.661,-168.444C190.562,-159.557 223.472,-145.563 247.253,-135.451"/>
<polygon fill="midnightblue" stroke="midnightblue" points="248.675,-138.65 256.508,-131.516 245.936,-132.208 248.675,-138.65"/>
</g>
<!-- Node10&#45;&gt;Node11 -->
<g id="edge13" class="edge"><title>Node10&#45;&gt;Node11</title>
<path fill="none" stroke="midnightblue" d="M301.89,-112.444C328.807,-103.359 371.534,-88.9388 401.624,-78.7831"/>
<polygon fill="midnightblue" stroke="midnightblue" points="402.948,-82.0305 411.303,-75.5164 400.709,-75.3981 402.948,-82.0305"/>
</g>
<!-- Node12 -->
<g id="node12" class="node"><title>Node12</title>
<g id="a_node12"><a xlink:href="blitz_8hh.html" target="_top" xlink:title="blitz.hh">
<polygon fill="none" stroke="black" points="222.537,-56.5 222.537,-75.5 270.537,-75.5 270.537,-56.5 222.537,-56.5"/>
<text text-anchor="middle" x="246.537" y="-63.5" font-family="Helvetica,sans-Serif" font-size="10.00">blitz.hh</text>
</a>
</g>
</g>
<!-- Node10&#45;&gt;Node12 -->
<g id="edge14" class="edge"><title>Node10&#45;&gt;Node12</title>
<path fill="none" stroke="midnightblue" d="M271.583,-112.083C267.433,-104.613 261.384,-93.7244 256.27,-84.5199"/>
<polygon fill="midnightblue" stroke="midnightblue" points="259.315,-82.7929 251.399,-75.7511 253.196,-86.1924 259.315,-82.7929"/>
</g>
<!-- Node12&#45;&gt;Node6 -->
<g id="edge17" class="edge"><title>Node12&#45;&gt;Node6</title>
<path fill="none" stroke="midnightblue" d="M229.828,-56.324C213.225,-47.7034 187.535,-34.3643 168.317,-24.3855"/>
<polygon fill="midnightblue" stroke="midnightblue" points="169.693,-21.1565 159.205,-19.6545 166.467,-27.3689 169.693,-21.1565"/>
</g>
<!-- Node13 -->
<g id="node13" class="node"><title>Node13</title>
<polygon fill="none" stroke="#bfbfbf" points="209.537,-0.5 209.537,-19.5 253.537,-19.5 253.537,-0.5 209.537,-0.5"/>
<text text-anchor="middle" x="231.537" y="-7.5" font-family="Helvetica,sans-Serif" font-size="10.00">cmath</text>
</g>
<!-- Node12&#45;&gt;Node13 -->
<g id="edge15" class="edge"><title>Node12&#45;&gt;Node13</title>
<path fill="none" stroke="midnightblue" d="M244.06,-56.083C242.051,-48.8486 239.151,-38.4087 236.647,-29.3968"/>
<polygon fill="midnightblue" stroke="midnightblue" points="240.017,-28.4495 233.968,-19.7511 233.272,-30.323 240.017,-28.4495"/>
</g>
<!-- Node14 -->
<g id="node14" class="node"><title>Node14</title>
<polygon fill="none" stroke="#bfbfbf" points="271.537,-0.5 271.537,-19.5 327.537,-19.5 327.537,-0.5 271.537,-0.5"/>
<text text-anchor="middle" x="299.537" y="-7.5" font-family="Helvetica,sans-Serif" font-size="10.00">algorithm</text>
</g>
<!-- Node12&#45;&gt;Node14 -->
<g id="edge16" class="edge"><title>Node12&#45;&gt;Node14</title>
<path fill="none" stroke="midnightblue" d="M255.289,-56.083C263.007,-48.2195 274.442,-36.5688 283.754,-27.0813"/>
<polygon fill="midnightblue" stroke="midnightblue" points="286.441,-29.3396 290.948,-19.7511 281.446,-24.4363 286.441,-29.3396"/>
</g>
<!-- Node15&#45;&gt;Node4 -->
<g id="edge20" class="edge"><title>Node15&#45;&gt;Node4</title>
<path fill="none" stroke="midnightblue" d="M384.72,-224.324C371.304,-215.9 350.713,-202.971 334.952,-193.074"/>
<polygon fill="midnightblue" stroke="midnightblue" points="336.65,-190.008 326.32,-187.655 332.928,-195.936 336.65,-190.008"/>
</g>
<!-- Node15&#45;&gt;Node16 -->
<g id="edge19" class="edge"><title>Node15&#45;&gt;Node16</title>
<path fill="none" stroke="midnightblue" d="M397.051,-224.083C395.858,-216.927 394.143,-206.635 392.652,-197.691"/>
<polygon fill="midnightblue" stroke="midnightblue" points="396.092,-197.04 390.996,-187.751 389.187,-198.19 396.092,-197.04"/>
</g>
<!-- Node15&#45;&gt;Node17 -->
<g id="edge21" class="edge"><title>Node15&#45;&gt;Node17</title>
<path fill="none" stroke="midnightblue" d="M411.391,-224.324C423.754,-215.979 442.667,-203.212 457.274,-193.352"/>
<polygon fill="midnightblue" stroke="midnightblue" points="459.385,-196.15 465.716,-187.655 455.469,-190.348 459.385,-196.15"/>
</g>
<!-- Node18&#45;&gt;Node4 -->
<g id="edge25" class="edge"><title>Node18&#45;&gt;Node4</title>
<path fill="none" stroke="midnightblue" d="M302.4,-280.368C304.176,-262.617 308.271,-221.666 310.677,-197.597"/>
<polygon fill="midnightblue" stroke="midnightblue" points="314.166,-197.89 311.678,-187.591 307.2,-197.193 314.166,-197.89"/>
</g>
<!-- Node18&#45;&gt;Node5 -->
<g id="edge26" class="edge"><title>Node18&#45;&gt;Node5</title>
<path fill="none" stroke="midnightblue" d="M282.783,-280.368C240.898,-261.091 139.568,-214.454 90.3251,-191.789"/>
<polygon fill="midnightblue" stroke="midnightblue" points="91.7514,-188.593 81.204,-187.591 88.8247,-194.952 91.7514,-188.593"/>
</g>
<!-- Node18&#45;&gt;Node7 -->
<g id="edge30" class="edge"><title>Node18&#45;&gt;Node7</title>
<path fill="none" stroke="midnightblue" d="M279.292,-283.822C241.837,-275.104 165.433,-257.321 115.908,-245.793"/>
<polygon fill="midnightblue" stroke="midnightblue" points="116.61,-242.363 106.076,-243.505 115.023,-249.181 116.61,-242.363"/>
</g>
<!-- Node18&#45;&gt;Node8 -->
<g id="edge28" class="edge"><title>Node18&#45;&gt;Node8</title>
<path fill="none" stroke="midnightblue" d="M289.61,-280.368C263.638,-261.573 201.726,-216.768 169.62,-193.533"/>
<polygon fill="midnightblue" stroke="midnightblue" points="171.562,-190.619 161.409,-187.591 167.458,-196.29 171.562,-190.619"/>
</g>
<!-- Node18&#45;&gt;Node10 -->
<g id="edge29" class="edge"><title>Node18&#45;&gt;Node10</title>
<path fill="none" stroke="midnightblue" d="M299.636,-280.398C295.859,-263.023 287.358,-222.457 282.537,-188 280.376,-172.549 278.804,-154.918 277.812,-141.92"/>
<polygon fill="midnightblue" stroke="midnightblue" points="281.297,-141.586 277.09,-131.862 274.315,-142.087 281.297,-141.586"/>
</g>
<!-- Node18&#45;&gt;Node15 -->
<g id="edge27" class="edge"><title>Node18&#45;&gt;Node15</title>
<path fill="none" stroke="midnightblue" d="M317.122,-280.324C332.536,-271.743 356.349,-258.486 374.247,-248.522"/>
<polygon fill="midnightblue" stroke="midnightblue" points="375.956,-251.577 382.991,-243.655 372.551,-245.461 375.956,-251.577"/>
</g>
<!-- Node18&#45;&gt;Node16 -->
<g id="edge23" class="edge"><title>Node18&#45;&gt;Node16</title>
<path fill="none" stroke="midnightblue" d="M308.442,-280.368C323.029,-262.135 357.197,-219.426 376.197,-195.675"/>
<polygon fill="midnightblue" stroke="midnightblue" points="379.15,-197.587 382.664,-187.591 373.684,-193.214 379.15,-197.587"/>
</g>
<!-- Node18&#45;&gt;Node17 -->
<g id="edge24" class="edge"><title>Node18&#45;&gt;Node17</title>
<path fill="none" stroke="midnightblue" d="M323.968,-286.313C352.873,-281.869 403.452,-270.662 437.537,-244 453.097,-231.829 464.373,-211.993 471.116,-197.43"/>
<polygon fill="midnightblue" stroke="midnightblue" points="474.462,-198.511 475.221,-187.943 468.037,-195.731 474.462,-198.511"/>
</g>
</g>
</svg>
