<?xml version="1.0" encoding="UTF-8" standalone="no"?>
<!DOCTYPE svg PUBLIC "-//W3C//DTD SVG 1.1//EN"
 "http://www.w3.org/Graphics/SVG/1.1/DTD/svg11.dtd">
<!-- Generated by graphviz version 2.36.0 (20140111.2315)
 -->
<!-- Title: /home/travis/build/igankevich/arma/src/bits/acf_wrapper.hh Pages: 1 -->
<svg width="395pt" height="330pt"
 viewBox="0.00 0.00 394.74 330.00" xmlns="http://www.w3.org/2000/svg" xmlns:xlink="http://www.w3.org/1999/xlink">
<g id="graph0" class="graph" transform="scale(1 1) rotate(0) translate(4 326)">
<title>/home/travis/build/igankevich/arma/src/bits/acf_wrapper.hh</title>
<!-- Node1 -->
<g id="node1" class="node"><title>Node1</title>
<polygon fill="#bfbfbf" stroke="black" points="51.2413,-280.5 51.2413,-321.5 158.241,-321.5 158.241,-280.5 51.2413,-280.5"/>
<text text-anchor="start" x="59.2413" y="-309.5" font-family="Helvetica,sans-Serif" font-size="10.00">/home/travis/build</text>
<text text-anchor="start" x="59.2413" y="-298.5" font-family="Helvetica,sans-Serif" font-size="10.00">/igankevich/arma/src</text>
<text text-anchor="middle" x="104.741" y="-287.5" font-family="Helvetica,sans-Serif" font-size="10.00">/bits/acf_wrapper.hh</text>
</g>
<!-- Node2 -->
<g id="node2" class="node"><title>Node2</title>
<polygon fill="none" stroke="#bfbfbf" points="112.241,-112.5 112.241,-131.5 161.241,-131.5 161.241,-112.5 112.241,-112.5"/>
<text text-anchor="middle" x="136.741" y="-119.5" font-family="Helvetica,sans-Serif" font-size="10.00">istream</text>
</g>
<!-- Node1&#45;&gt;Node2 -->
<g id="edge1" class="edge"><title>Node1&#45;&gt;Node2</title>
<path fill="none" stroke="midnightblue" d="M113.552,-280.442C117.936,-269.864 122.895,-256.45 125.741,-244 133.86,-208.48 136.031,-165.805 136.584,-141.802"/>
<polygon fill="midnightblue" stroke="midnightblue" points="140.086,-141.686 136.744,-131.632 133.087,-141.576 140.086,-141.686"/>
</g>
<!-- Node3 -->
<g id="node3" class="node"><title>Node3</title>
<polygon fill="none" stroke="#bfbfbf" points="173.241,-224.5 173.241,-243.5 214.241,-243.5 214.241,-224.5 173.241,-224.5"/>
<text text-anchor="middle" x="193.741" y="-231.5" font-family="Helvetica,sans-Serif" font-size="10.00">string</text>
</g>
<!-- Node1&#45;&gt;Node3 -->
<g id="edge2" class="edge"><title>Node1&#45;&gt;Node3</title>
<path fill="none" stroke="midnightblue" d="M131.444,-280.498C144.958,-270.628 161.094,-258.843 173.558,-249.741"/>
<polygon fill="midnightblue" stroke="midnightblue" points="175.883,-252.377 181.894,-243.652 171.754,-246.724 175.883,-252.377"/>
</g>
<!-- Node4 -->
<g id="node4" class="node"><title>Node4</title>
<g id="a_node4"><a xlink:href="types_8hh.html" target="_top" xlink:title="types.hh">
<polygon fill="none" stroke="black" points="37.7413,-168.5 37.7413,-187.5 91.7413,-187.5 91.7413,-168.5 37.7413,-168.5"/>
<text text-anchor="middle" x="64.7413" y="-175.5" font-family="Helvetica,sans-Serif" font-size="10.00">types.hh</text>
</a>
</g>
</g>
<!-- Node1&#45;&gt;Node4 -->
<g id="edge3" class="edge"><title>Node1&#45;&gt;Node4</title>
<path fill="none" stroke="midnightblue" d="M51.1306,-283.095C32.7972,-274.457 14.2724,-261.881 3.7413,-244 -8.2161,-223.698 15.6249,-204.554 36.9132,-192.371"/>
<polygon fill="midnightblue" stroke="midnightblue" points="38.6299,-195.422 45.7686,-187.593 35.3059,-189.261 38.6299,-195.422"/>
</g>
<!-- Node6 -->
<g id="node6" class="node"><title>Node6</title>
<g id="a_node6"><a xlink:href="discrete__function_8hh.html" target="_top" xlink:title="discrete_function.hh">
<polygon fill="none" stroke="black" points="12.7413,-224.5 12.7413,-243.5 116.741,-243.5 116.741,-224.5 12.7413,-224.5"/>
<text text-anchor="middle" x="64.7413" y="-231.5" font-family="Helvetica,sans-Serif" font-size="10.00">discrete_function.hh</text>
</a>
</g>
</g>
<!-- Node1&#45;&gt;Node6 -->
<g id="edge5" class="edge"><title>Node1&#45;&gt;Node6</title>
<path fill="none" stroke="midnightblue" d="M92.74,-280.498C87.1969,-271.49 80.6724,-260.888 75.3168,-252.185"/>
<polygon fill="midnightblue" stroke="midnightblue" points="78.2877,-250.335 70.0659,-243.652 72.3261,-254.003 78.2877,-250.335"/>
</g>
<!-- Node5 -->
<g id="node5" class="node"><title>Node5</title>
<polygon fill="none" stroke="#bfbfbf" points="155.741,-0.5 155.741,-19.5 223.741,-19.5 223.741,-0.5 155.741,-0.5"/>
<text text-anchor="middle" x="189.741" y="-7.5" font-family="Helvetica,sans-Serif" font-size="10.00">blitz/array.h</text>
</g>
<!-- Node4&#45;&gt;Node5 -->
<g id="edge4" class="edge"><title>Node4&#45;&gt;Node5</title>
<path fill="none" stroke="midnightblue" d="M69.1852,-168.278C75.8369,-155.505 89.0692,-131.149 102.741,-112 125.451,-80.1924 156.058,-46.3984 174.261,-27.0801"/>
<polygon fill="midnightblue" stroke="midnightblue" points="176.89,-29.3943 181.243,-19.7351 171.817,-24.5713 176.89,-29.3943"/>
</g>
<!-- Node6&#45;&gt;Node4 -->
<g id="edge6" class="edge"><title>Node6&#45;&gt;Node4</title>
<path fill="none" stroke="midnightblue" d="M64.7413,-224.083C64.7413,-217.006 64.7413,-206.861 64.7413,-197.986"/>
<polygon fill="midnightblue" stroke="midnightblue" points="68.2414,-197.751 64.7413,-187.751 61.2414,-197.751 68.2414,-197.751"/>
</g>
<!-- Node7 -->
<g id="node7" class="node"><title>Node7</title>
<g id="a_node7"><a xlink:href="grid_8hh.html" target="_top" xlink:title="grid.hh">
<polygon fill="none" stroke="black" points="172.741,-168.5 172.741,-187.5 218.741,-187.5 218.741,-168.5 172.741,-168.5"/>
<text text-anchor="middle" x="195.741" y="-175.5" font-family="Helvetica,sans-Serif" font-size="10.00">grid.hh</text>
</a>
</g>
</g>
<!-- Node6&#45;&gt;Node7 -->
<g id="edge7" class="edge"><title>Node6&#45;&gt;Node7</title>
<path fill="none" stroke="midnightblue" d="M85.4986,-224.444C107.058,-215.557 141.005,-201.563 165.535,-191.451"/>
<polygon fill="midnightblue" stroke="midnightblue" points="167.17,-194.563 175.081,-187.516 164.502,-188.092 167.17,-194.563"/>
</g>
<!-- Node7&#45;&gt;Node2 -->
<g id="edge9" class="edge"><title>Node7&#45;&gt;Node2</title>
<path fill="none" stroke="midnightblue" d="M186.262,-168.324C177.54,-160.341 164.398,-148.313 153.844,-138.653"/>
<polygon fill="midnightblue" stroke="midnightblue" points="156.133,-136.004 146.393,-131.834 151.407,-141.167 156.133,-136.004"/>
</g>
<!-- Node7&#45;&gt;Node5 -->
<g id="edge10" class="edge"><title>Node7&#45;&gt;Node5</title>
<path fill="none" stroke="midnightblue" d="M195.419,-168.075C194.474,-141.945 191.701,-65.2106 190.413,-29.577"/>
<polygon fill="midnightblue" stroke="midnightblue" points="193.91,-29.4351 190.051,-19.5681 186.915,-29.688 193.91,-29.4351"/>
</g>
<!-- Node8 -->
<g id="node8" class="node"><title>Node8</title>
<polygon fill="none" stroke="#bfbfbf" points="217.741,-112.5 217.741,-131.5 269.741,-131.5 269.741,-112.5 217.741,-112.5"/>
<text text-anchor="middle" x="243.741" y="-119.5" font-family="Helvetica,sans-Serif" font-size="10.00">stddef.h</text>
</g>
<!-- Node7&#45;&gt;Node8 -->
<g id="edge8" class="edge"><title>Node7&#45;&gt;Node8</title>
<path fill="none" stroke="midnightblue" d="M203.668,-168.083C210.587,-160.298 220.807,-148.801 229.193,-139.367"/>
<polygon fill="midnightblue" stroke="midnightblue" points="231.935,-141.55 235.963,-131.751 226.703,-136.9 231.935,-141.55"/>
</g>
<!-- Node9 -->
<g id="node9" class="node"><title>Node9</title>
<g id="a_node9"><a xlink:href="validators_8hh.html" target="_top" xlink:title="validators.hh">
<polygon fill="none" stroke="black" points="287.741,-112.5 287.741,-131.5 359.741,-131.5 359.741,-112.5 287.741,-112.5"/>
<text text-anchor="middle" x="323.741" y="-119.5" font-family="Helvetica,sans-Serif" font-size="10.00">validators.hh</text>
</a>
</g>
</g>
<!-- Node7&#45;&gt;Node9 -->
<g id="edge11" class="edge"><title>Node7&#45;&gt;Node9</title>
<path fill="none" stroke="midnightblue" d="M216.023,-168.444C237.089,-159.557 270.258,-145.563 294.227,-135.451"/>
<polygon fill="midnightblue" stroke="midnightblue" points="295.701,-138.628 303.554,-131.516 292.98,-132.179 295.701,-138.628"/>
</g>
<!-- Node10 -->
<g id="node10" class="node"><title>Node10</title>
<polygon fill="none" stroke="#bfbfbf" points="222.241,-56.5 222.241,-75.5 281.241,-75.5 281.241,-56.5 222.241,-56.5"/>
<text text-anchor="middle" x="251.741" y="-63.5" font-family="Helvetica,sans-Serif" font-size="10.00">stdexcept</text>
</g>
<!-- Node9&#45;&gt;Node10 -->
<g id="edge12" class="edge"><title>Node9&#45;&gt;Node10</title>
<path fill="none" stroke="midnightblue" d="M312.173,-112.324C301.321,-104.185 284.861,-91.8395 271.858,-82.0874"/>
<polygon fill="midnightblue" stroke="midnightblue" points="273.62,-79.0339 263.52,-75.8339 269.42,-84.6339 273.62,-79.0339"/>
</g>
<!-- Node11 -->
<g id="node11" class="node"><title>Node11</title>
<g id="a_node11"><a xlink:href="blitz_8hh.html" target="_top" xlink:title="blitz.hh">
<polygon fill="none" stroke="black" points="299.741,-56.5 299.741,-75.5 347.741,-75.5 347.741,-56.5 299.741,-56.5"/>
<text text-anchor="middle" x="323.741" y="-63.5" font-family="Helvetica,sans-Serif" font-size="10.00">blitz.hh</text>
</a>
</g>
</g>
<!-- Node9&#45;&gt;Node11 -->
<g id="edge13" class="edge"><title>Node9&#45;&gt;Node11</title>
<path fill="none" stroke="midnightblue" d="M323.741,-112.083C323.741,-105.006 323.741,-94.8611 323.741,-85.9865"/>
<polygon fill="midnightblue" stroke="midnightblue" points="327.241,-85.751 323.741,-75.7511 320.241,-85.7511 327.241,-85.751"/>
</g>
<!-- Node11&#45;&gt;Node5 -->
<g id="edge16" class="edge"><title>Node11&#45;&gt;Node5</title>
<path fill="none" stroke="midnightblue" d="M302.509,-56.4435C280.358,-47.5171 245.423,-33.4387 220.305,-23.3168"/>
<polygon fill="midnightblue" stroke="midnightblue" points="221.458,-20.0079 210.875,-19.5164 218.842,-26.5006 221.458,-20.0079"/>
</g>
<!-- Node12 -->
<g id="node12" class="node"><title>Node12</title>
<polygon fill="none" stroke="#bfbfbf" points="342.741,-0.5 342.741,-19.5 386.741,-19.5 386.741,-0.5 342.741,-0.5"/>
<text text-anchor="middle" x="364.741" y="-7.5" font-family="Helvetica,sans-Serif" font-size="10.00">cmath</text>
</g>
<!-- Node11&#45;&gt;Node12 -->
<g id="edge14" class="edge"><title>Node11&#45;&gt;Node12</title>
<path fill="none" stroke="midnightblue" d="M330.512,-56.083C336.303,-48.4554 344.8,-37.2645 351.879,-27.9408"/>
<polygon fill="midnightblue" stroke="midnightblue" points="354.837,-29.8321 358.097,-19.7511 349.262,-25.5991 354.837,-29.8321"/>
</g>
<!-- Node13 -->
<g id="node13" class="node"><title>Node13</title>
<polygon fill="none" stroke="#bfbfbf" points="268.741,-0.5 268.741,-19.5 324.741,-19.5 324.741,-0.5 268.741,-0.5"/>
<text text-anchor="middle" x="296.741" y="-7.5" font-family="Helvetica,sans-Serif" font-size="10.00">algorithm</text>
</g>
<!-- Node11&#45;&gt;Node13 -->
<g id="edge15" class="edge"><title>Node11&#45;&gt;Node13</title>
<path fill="none" stroke="midnightblue" d="M319.283,-56.083C315.587,-48.6913 310.218,-37.9533 305.647,-28.8111"/>
<polygon fill="midnightblue" stroke="midnightblue" points="308.72,-27.1301 301.117,-19.7511 302.459,-30.2606 308.72,-27.1301"/>
</g>
</g>
</svg>
