<?xml version="1.0" encoding="UTF-8" standalone="no"?>
<!DOCTYPE svg PUBLIC "-//W3C//DTD SVG 1.1//EN"
 "http://www.w3.org/Graphics/SVG/1.1/DTD/svg11.dtd">
<!-- Generated by graphviz version 2.36.0 (20140111.2315)
 -->
<!-- Title: /home/travis/build/igankevich/arma/src/bits/acf_wrapper.cc Pages: 1 -->
<svg width="710pt" height="386pt"
 viewBox="0.00 0.00 710.00 386.00" xmlns="http://www.w3.org/2000/svg" xmlns:xlink="http://www.w3.org/1999/xlink">
<g id="graph0" class="graph" transform="scale(1 1) rotate(0) translate(4 382)">
<title>/home/travis/build/igankevich/arma/src/bits/acf_wrapper.cc</title>
<!-- Node1 -->
<g id="node1" class="node"><title>Node1</title>
<polygon fill="#bfbfbf" stroke="black" points="490.5,-336.5 490.5,-377.5 597.5,-377.5 597.5,-336.5 490.5,-336.5"/>
<text text-anchor="start" x="498.5" y="-365.5" font-family="Helvetica,sans-Serif" font-size="10.00">/home/travis/build</text>
<text text-anchor="start" x="498.5" y="-354.5" font-family="Helvetica,sans-Serif" font-size="10.00">/igankevich/arma/src</text>
<text text-anchor="middle" x="544" y="-343.5" font-family="Helvetica,sans-Serif" font-size="10.00">/bits/acf_wrapper.cc</text>
</g>
<!-- Node2 -->
<g id="node2" class="node"><title>Node2</title>
<g id="a_node2"><a xlink:href="acf__wrapper_8hh.html" target="_top" xlink:title="acf_wrapper.hh">
<polygon fill="none" stroke="black" points="76.5,-280.5 76.5,-299.5 159.5,-299.5 159.5,-280.5 76.5,-280.5"/>
<text text-anchor="middle" x="118" y="-287.5" font-family="Helvetica,sans-Serif" font-size="10.00">acf_wrapper.hh</text>
</a>
</g>
</g>
<!-- Node1&#45;&gt;Node2 -->
<g id="edge1" class="edge"><title>Node1&#45;&gt;Node2</title>
<path fill="none" stroke="midnightblue" d="M490.478,-347.834C407.972,-335.245 250.769,-311.258 169.502,-298.858"/>
<polygon fill="midnightblue" stroke="midnightblue" points="169.917,-295.381 159.503,-297.333 168.861,-302.301 169.917,-295.381"/>
</g>
<!-- Node13 -->
<g id="node13" class="node"><title>Node13</title>
<polygon fill="none" stroke="#bfbfbf" points="291.5,-56.5 291.5,-75.5 350.5,-75.5 350.5,-56.5 291.5,-56.5"/>
<text text-anchor="middle" x="321" y="-63.5" font-family="Helvetica,sans-Serif" font-size="10.00">stdexcept</text>
</g>
<!-- Node1&#45;&gt;Node13 -->
<g id="edge31" class="edge"><title>Node1&#45;&gt;Node13</title>
<path fill="none" stroke="midnightblue" d="M566.391,-336.113C588.81,-313.9 620,-275.683 620,-235 620,-235 620,-235 620,-177 620,-122.366 441.947,-86.548 360.642,-73.0401"/>
<polygon fill="midnightblue" stroke="midnightblue" points="361.195,-69.5841 350.762,-71.4296 360.069,-76.493 361.195,-69.5841"/>
</g>
<!-- Node14 -->
<g id="node14" class="node"><title>Node14</title>
<g id="a_node14"><a xlink:href="params_8hh.html" target="_top" xlink:title="params.hh">
<polygon fill="none" stroke="black" points="416,-224.5 416,-243.5 478,-243.5 478,-224.5 416,-224.5"/>
<text text-anchor="middle" x="447" y="-231.5" font-family="Helvetica,sans-Serif" font-size="10.00">params.hh</text>
</a>
</g>
</g>
<!-- Node1&#45;&gt;Node14 -->
<g id="edge17" class="edge"><title>Node1&#45;&gt;Node14</title>
<path fill="none" stroke="midnightblue" d="M528.199,-336.29C509.326,-312.747 478.087,-273.779 460.363,-251.669"/>
<polygon fill="midnightblue" stroke="midnightblue" points="462.86,-249.188 453.874,-243.575 457.398,-253.566 462.86,-249.188"/>
</g>
<!-- Node15 -->
<g id="node15" class="node"><title>Node15</title>
<polygon fill="none" stroke="#bfbfbf" points="402.5,-168.5 402.5,-187.5 461.5,-187.5 461.5,-168.5 402.5,-168.5"/>
<text text-anchor="middle" x="432" y="-175.5" font-family="Helvetica,sans-Serif" font-size="10.00">functional</text>
</g>
<!-- Node1&#45;&gt;Node15 -->
<g id="edge30" class="edge"><title>Node1&#45;&gt;Node15</title>
<path fill="none" stroke="midnightblue" d="M538.449,-336.162C530.167,-308.952 512.637,-259.404 486,-224 477.084,-212.15 464.466,-201.411 453.669,-193.398"/>
<polygon fill="midnightblue" stroke="midnightblue" points="455.682,-190.535 445.505,-187.587 451.622,-196.237 455.682,-190.535"/>
</g>
<!-- Node16 -->
<g id="node16" class="node"><title>Node16</title>
<polygon fill="none" stroke="#bfbfbf" points="479.5,-168.5 479.5,-187.5 562.5,-187.5 562.5,-168.5 479.5,-168.5"/>
<text text-anchor="middle" x="521" y="-175.5" font-family="Helvetica,sans-Serif" font-size="10.00">unordered_map</text>
</g>
<!-- Node1&#45;&gt;Node16 -->
<g id="edge33" class="edge"><title>Node1&#45;&gt;Node16</title>
<path fill="none" stroke="midnightblue" d="M551.404,-336.12C560.067,-309.709 571.604,-261.965 558,-224 554.059,-213.003 546.143,-202.769 538.64,-194.848"/>
<polygon fill="midnightblue" stroke="midnightblue" points="541.019,-192.278 531.438,-187.755 536.108,-197.266 541.019,-192.278"/>
</g>
<!-- Node17 -->
<g id="node17" class="node"><title>Node17</title>
<g id="a_node17"><a xlink:href="acf_8hh.html" target="_top" xlink:title="acf.hh">
<polygon fill="none" stroke="black" points="328,-280.5 328,-299.5 372,-299.5 372,-280.5 328,-280.5"/>
<text text-anchor="middle" x="350" y="-287.5" font-family="Helvetica,sans-Serif" font-size="10.00">acf.hh</text>
</a>
</g>
</g>
<!-- Node1&#45;&gt;Node17 -->
<g id="edge21" class="edge"><title>Node1&#45;&gt;Node17</title>
<path fill="none" stroke="midnightblue" d="M490.475,-338.066C455.763,-326.436 411.684,-311.667 382.249,-301.805"/>
<polygon fill="midnightblue" stroke="midnightblue" points="383.081,-298.393 372.487,-298.534 380.857,-305.03 383.081,-298.393"/>
</g>
<!-- Node18 -->
<g id="node18" class="node"><title>Node18</title>
<polygon fill="none" stroke="#bfbfbf" points="648,-280.5 648,-299.5 702,-299.5 702,-280.5 648,-280.5"/>
<text text-anchor="middle" x="675" y="-287.5" font-family="Helvetica,sans-Serif" font-size="10.00">iostream</text>
</g>
<!-- Node1&#45;&gt;Node18 -->
<g id="edge32" class="edge"><title>Node1&#45;&gt;Node18</title>
<path fill="none" stroke="midnightblue" d="M583.304,-336.498C604.355,-326.053 629.727,-313.464 648.441,-304.178"/>
<polygon fill="midnightblue" stroke="midnightblue" points="650.16,-307.233 657.562,-299.652 647.048,-300.962 650.16,-307.233"/>
</g>
<!-- Node3 -->
<g id="node3" class="node"><title>Node3</title>
<polygon fill="none" stroke="#bfbfbf" points="-0.5,-112.5 -0.5,-131.5 48.5,-131.5 48.5,-112.5 -0.5,-112.5"/>
<text text-anchor="middle" x="24" y="-119.5" font-family="Helvetica,sans-Serif" font-size="10.00">istream</text>
</g>
<!-- Node2&#45;&gt;Node3 -->
<g id="edge2" class="edge"><title>Node2&#45;&gt;Node3</title>
<path fill="none" stroke="midnightblue" d="M97.5998,-280.417C82.4351,-272.984 62.4629,-260.775 51,-244 29.6229,-212.716 24.8785,-167.24 24.0002,-141.884"/>
<polygon fill="midnightblue" stroke="midnightblue" points="27.4978,-141.71 23.8229,-131.773 20.4989,-141.833 27.4978,-141.71"/>
</g>
<!-- Node4 -->
<g id="node4" class="node"><title>Node4</title>
<polygon fill="none" stroke="#bfbfbf" points="280.5,-168.5 280.5,-187.5 321.5,-187.5 321.5,-168.5 280.5,-168.5"/>
<text text-anchor="middle" x="301" y="-175.5" font-family="Helvetica,sans-Serif" font-size="10.00">string</text>
</g>
<!-- Node2&#45;&gt;Node4 -->
<g id="edge3" class="edge"><title>Node2&#45;&gt;Node4</title>
<path fill="none" stroke="midnightblue" d="M132.36,-280.368C163.896,-261.412 239.444,-216.001 277.805,-192.942"/>
<polygon fill="midnightblue" stroke="midnightblue" points="279.939,-195.743 286.707,-187.591 276.333,-189.744 279.939,-195.743"/>
</g>
<!-- Node5 -->
<g id="node5" class="node"><title>Node5</title>
<g id="a_node5"><a xlink:href="types_8hh.html" target="_top" xlink:title="types.hh">
<polygon fill="none" stroke="black" points="93,-168.5 93,-187.5 147,-187.5 147,-168.5 93,-168.5"/>
<text text-anchor="middle" x="120" y="-175.5" font-family="Helvetica,sans-Serif" font-size="10.00">types.hh</text>
</a>
</g>
</g>
<!-- Node2&#45;&gt;Node5 -->
<g id="edge4" class="edge"><title>Node2&#45;&gt;Node5</title>
<path fill="none" stroke="midnightblue" d="M99.058,-280.44C76.9136,-269.121 44.7491,-247.806 57,-224 64.0773,-210.247 77.521,-199.766 90.1778,-192.394"/>
<polygon fill="midnightblue" stroke="midnightblue" points="91.9994,-195.389 99.1527,-187.573 88.6869,-189.222 91.9994,-195.389"/>
</g>
<!-- Node7 -->
<g id="node7" class="node"><title>Node7</title>
<g id="a_node7"><a xlink:href="discrete__function_8hh.html" target="_top" xlink:title="discrete_function.hh">
<polygon fill="none" stroke="black" points="66,-224.5 66,-243.5 170,-243.5 170,-224.5 66,-224.5"/>
<text text-anchor="middle" x="118" y="-231.5" font-family="Helvetica,sans-Serif" font-size="10.00">discrete_function.hh</text>
</a>
</g>
</g>
<!-- Node2&#45;&gt;Node7 -->
<g id="edge6" class="edge"><title>Node2&#45;&gt;Node7</title>
<path fill="none" stroke="midnightblue" d="M118,-280.083C118,-273.006 118,-262.861 118,-253.986"/>
<polygon fill="midnightblue" stroke="midnightblue" points="121.5,-253.751 118,-243.751 114.5,-253.751 121.5,-253.751"/>
</g>
<!-- Node6 -->
<g id="node6" class="node"><title>Node6</title>
<polygon fill="none" stroke="#bfbfbf" points="99,-0.5 99,-19.5 167,-19.5 167,-0.5 99,-0.5"/>
<text text-anchor="middle" x="133" y="-7.5" font-family="Helvetica,sans-Serif" font-size="10.00">blitz/array.h</text>
</g>
<!-- Node5&#45;&gt;Node6 -->
<g id="edge5" class="edge"><title>Node5&#45;&gt;Node6</title>
<path fill="none" stroke="midnightblue" d="M120.699,-168.075C122.745,-141.945 128.755,-65.2106 131.545,-29.577"/>
<polygon fill="midnightblue" stroke="midnightblue" points="135.037,-29.8109 132.329,-19.5681 128.059,-29.2643 135.037,-29.8109"/>
</g>
<!-- Node7&#45;&gt;Node5 -->
<g id="edge16" class="edge"><title>Node7&#45;&gt;Node5</title>
<path fill="none" stroke="midnightblue" d="M118.33,-224.083C118.592,-217.006 118.968,-206.861 119.297,-197.986"/>
<polygon fill="midnightblue" stroke="midnightblue" points="122.803,-197.874 119.676,-187.751 115.808,-197.615 122.803,-197.874"/>
</g>
<!-- Node8 -->
<g id="node8" class="node"><title>Node8</title>
<g id="a_node8"><a xlink:href="grid_8hh.html" target="_top" xlink:title="grid.hh">
<polygon fill="none" stroke="black" points="193,-168.5 193,-187.5 239,-187.5 239,-168.5 193,-168.5"/>
<text text-anchor="middle" x="216" y="-175.5" font-family="Helvetica,sans-Serif" font-size="10.00">grid.hh</text>
</a>
</g>
</g>
<!-- Node7&#45;&gt;Node8 -->
<g id="edge7" class="edge"><title>Node7&#45;&gt;Node8</title>
<path fill="none" stroke="midnightblue" d="M133.745,-224.324C149.319,-215.743 173.377,-202.486 191.459,-192.522"/>
<polygon fill="midnightblue" stroke="midnightblue" points="193.224,-195.546 200.294,-187.655 189.846,-189.415 193.224,-195.546"/>
</g>
<!-- Node8&#45;&gt;Node3 -->
<g id="edge8" class="edge"><title>Node8&#45;&gt;Node3</title>
<path fill="none" stroke="midnightblue" d="M192.84,-170.486C159.422,-161.087 97.4358,-143.654 58.5835,-132.727"/>
<polygon fill="midnightblue" stroke="midnightblue" points="59.333,-129.302 48.7589,-129.963 57.4378,-136.04 59.333,-129.302"/>
</g>
<!-- Node9 -->
<g id="node9" class="node"><title>Node9</title>
<g id="a_node9"><a xlink:href="blitz_8hh.html" target="_top" xlink:title="blitz.hh">
<polygon fill="none" stroke="black" points="192,-56.5 192,-75.5 240,-75.5 240,-56.5 192,-56.5"/>
<text text-anchor="middle" x="216" y="-63.5" font-family="Helvetica,sans-Serif" font-size="10.00">blitz.hh</text>
</a>
</g>
</g>
<!-- Node8&#45;&gt;Node9 -->
<g id="edge9" class="edge"><title>Node8&#45;&gt;Node9</title>
<path fill="none" stroke="midnightblue" d="M216,-168.368C216,-150.617 216,-109.666 216,-85.5974"/>
<polygon fill="midnightblue" stroke="midnightblue" points="219.5,-85.5914 216,-75.5914 212.5,-85.5915 219.5,-85.5914"/>
</g>
<!-- Node12 -->
<g id="node12" class="node"><title>Node12</title>
<g id="a_node12"><a xlink:href="validators_8hh.html" target="_top" xlink:title="validators.hh">
<polygon fill="none" stroke="black" points="281,-112.5 281,-131.5 353,-131.5 353,-112.5 281,-112.5"/>
<text text-anchor="middle" x="317" y="-119.5" font-family="Helvetica,sans-Serif" font-size="10.00">validators.hh</text>
</a>
</g>
</g>
<!-- Node8&#45;&gt;Node12 -->
<g id="edge13" class="edge"><title>Node8&#45;&gt;Node12</title>
<path fill="none" stroke="midnightblue" d="M232.227,-168.324C248.351,-159.703 273.3,-146.364 291.964,-136.386"/>
<polygon fill="midnightblue" stroke="midnightblue" points="293.644,-139.456 300.813,-131.655 290.344,-133.283 293.644,-139.456"/>
</g>
<!-- Node9&#45;&gt;Node6 -->
<g id="edge11" class="edge"><title>Node9&#45;&gt;Node6</title>
<path fill="none" stroke="midnightblue" d="M202.665,-56.324C189.838,-47.979 170.215,-35.2122 155.06,-25.3524"/>
<polygon fill="midnightblue" stroke="midnightblue" points="156.593,-22.1742 146.302,-19.6545 152.776,-28.0417 156.593,-22.1742"/>
</g>
<!-- Node10 -->
<g id="node10" class="node"><title>Node10</title>
<polygon fill="none" stroke="#bfbfbf" points="253,-0.5 253,-19.5 309,-19.5 309,-0.5 253,-0.5"/>
<text text-anchor="middle" x="281" y="-7.5" font-family="Helvetica,sans-Serif" font-size="10.00">algorithm</text>
</g>
<!-- Node9&#45;&gt;Node10 -->
<g id="edge10" class="edge"><title>Node9&#45;&gt;Node10</title>
<path fill="none" stroke="midnightblue" d="M226.443,-56.324C236.146,-48.2631 250.815,-36.0765 262.5,-26.3695"/>
<polygon fill="midnightblue" stroke="midnightblue" points="264.911,-28.9163 270.367,-19.8339 260.438,-23.532 264.911,-28.9163"/>
</g>
<!-- Node11 -->
<g id="node11" class="node"><title>Node11</title>
<polygon fill="none" stroke="#bfbfbf" points="191,-0.5 191,-19.5 235,-19.5 235,-0.5 191,-0.5"/>
<text text-anchor="middle" x="213" y="-7.5" font-family="Helvetica,sans-Serif" font-size="10.00">cmath</text>
</g>
<!-- Node9&#45;&gt;Node11 -->
<g id="edge12" class="edge"><title>Node9&#45;&gt;Node11</title>
<path fill="none" stroke="midnightblue" d="M215.505,-56.083C215.111,-49.0059 214.548,-38.8611 214.055,-29.9865"/>
<polygon fill="midnightblue" stroke="midnightblue" points="217.536,-29.5415 213.486,-19.7511 210.546,-29.9299 217.536,-29.5415"/>
</g>
<!-- Node12&#45;&gt;Node9 -->
<g id="edge15" class="edge"><title>Node12&#45;&gt;Node9</title>
<path fill="none" stroke="midnightblue" d="M300.773,-112.324C284.649,-103.703 259.7,-90.3643 241.036,-80.3855"/>
<polygon fill="midnightblue" stroke="midnightblue" points="242.656,-77.283 232.187,-75.6545 239.356,-83.456 242.656,-77.283"/>
</g>
<!-- Node12&#45;&gt;Node13 -->
<g id="edge14" class="edge"><title>Node12&#45;&gt;Node13</title>
<path fill="none" stroke="midnightblue" d="M317.661,-112.083C318.185,-105.006 318.936,-94.8611 319.594,-85.9865"/>
<polygon fill="midnightblue" stroke="midnightblue" points="323.103,-85.9823 320.352,-75.7511 316.123,-85.4652 323.103,-85.9823"/>
</g>
<!-- Node14&#45;&gt;Node4 -->
<g id="edge19" class="edge"><title>Node14&#45;&gt;Node4</title>
<path fill="none" stroke="midnightblue" d="M423.866,-224.444C398.802,-215.173 358.714,-200.346 331.187,-190.165"/>
<polygon fill="midnightblue" stroke="midnightblue" points="332.258,-186.83 321.665,-186.643 329.83,-193.395 332.258,-186.83"/>
</g>
<!-- Node14&#45;&gt;Node15 -->
<g id="edge18" class="edge"><title>Node14&#45;&gt;Node15</title>
<path fill="none" stroke="midnightblue" d="M444.523,-224.083C442.514,-216.849 439.614,-206.409 437.11,-197.397"/>
<polygon fill="midnightblue" stroke="midnightblue" points="440.48,-196.449 434.431,-187.751 433.735,-198.323 440.48,-196.449"/>
</g>
<!-- Node14&#45;&gt;Node16 -->
<g id="edge20" class="edge"><title>Node14&#45;&gt;Node16</title>
<path fill="none" stroke="midnightblue" d="M458.889,-224.324C470.15,-216.107 487.287,-203.602 500.709,-193.807"/>
<polygon fill="midnightblue" stroke="midnightblue" points="502.88,-196.556 508.894,-187.834 498.753,-190.901 502.88,-196.556"/>
</g>
<!-- Node17&#45;&gt;Node4 -->
<g id="edge24" class="edge"><title>Node17&#45;&gt;Node4</title>
<path fill="none" stroke="midnightblue" d="M346.155,-280.368C338.176,-262.456 319.675,-220.923 308.995,-196.948"/>
<polygon fill="midnightblue" stroke="midnightblue" points="312.093,-195.302 304.827,-187.591 305.699,-198.15 312.093,-195.302"/>
</g>
<!-- Node17&#45;&gt;Node5 -->
<g id="edge25" class="edge"><title>Node17&#45;&gt;Node5</title>
<path fill="none" stroke="midnightblue" d="M331.952,-280.368C291.728,-261.131 194.536,-214.648 147.038,-191.931"/>
<polygon fill="midnightblue" stroke="midnightblue" points="148.495,-188.749 137.964,-187.591 145.475,-195.064 148.495,-188.749"/>
</g>
<!-- Node17&#45;&gt;Node7 -->
<g id="edge29" class="edge"><title>Node17&#45;&gt;Node7</title>
<path fill="none" stroke="midnightblue" d="M327.755,-283.822C290.3,-275.104 213.896,-257.321 164.371,-245.793"/>
<polygon fill="midnightblue" stroke="midnightblue" points="165.072,-242.363 154.539,-243.505 163.485,-249.181 165.072,-242.363"/>
</g>
<!-- Node17&#45;&gt;Node8 -->
<g id="edge27" class="edge"><title>Node17&#45;&gt;Node8</title>
<path fill="none" stroke="midnightblue" d="M339.485,-280.368C316.784,-261.733 262.939,-217.532 234.436,-194.134"/>
<polygon fill="midnightblue" stroke="midnightblue" points="236.416,-191.231 226.466,-187.591 231.974,-196.642 236.416,-191.231"/>
</g>
<!-- Node17&#45;&gt;Node12 -->
<g id="edge28" class="edge"><title>Node17&#45;&gt;Node12</title>
<path fill="none" stroke="midnightblue" d="M348.935,-280.425C346.388,-260.529 339.445,-209.742 330,-168 327.979,-159.066 325.219,-149.282 322.763,-141.125"/>
<polygon fill="midnightblue" stroke="midnightblue" points="326.098,-140.065 319.795,-131.549 319.412,-142.137 326.098,-140.065"/>
</g>
<!-- Node17&#45;&gt;Node14 -->
<g id="edge26" class="edge"><title>Node17&#45;&gt;Node14</title>
<path fill="none" stroke="midnightblue" d="M365.585,-280.324C380.999,-271.743 404.812,-258.486 422.71,-248.522"/>
<polygon fill="midnightblue" stroke="midnightblue" points="424.419,-251.577 431.454,-243.655 421.014,-245.461 424.419,-251.577"/>
</g>
<!-- Node17&#45;&gt;Node15 -->
<g id="edge22" class="edge"><title>Node17&#45;&gt;Node15</title>
<path fill="none" stroke="midnightblue" d="M356.434,-280.368C370.027,-262.135 401.864,-219.426 419.569,-195.675"/>
<polygon fill="midnightblue" stroke="midnightblue" points="422.425,-197.701 425.595,-187.591 416.813,-193.517 422.425,-197.701"/>
</g>
<!-- Node17&#45;&gt;Node16 -->
<g id="edge23" class="edge"><title>Node17&#45;&gt;Node16</title>
<path fill="none" stroke="midnightblue" d="M372.217,-286.739C401.35,-282.733 452.662,-271.978 486,-244 500.536,-231.801 509.966,-211.97 515.333,-197.416"/>
<polygon fill="midnightblue" stroke="midnightblue" points="518.651,-198.529 518.538,-187.935 512.02,-196.287 518.651,-198.529"/>
</g>
</g>
</svg>
