<?xml version="1.0" encoding="UTF-8" standalone="no"?>
<!DOCTYPE svg PUBLIC "-//W3C//DTD SVG 1.1//EN"
 "http://www.w3.org/Graphics/SVG/1.1/DTD/svg11.dtd">
<!-- Generated by graphviz version 2.36.0 (20140111.2315)
 -->
<!-- Title: /home/travis/build/igankevich/arma/src/acf.hh Pages: 1 -->
<svg width="478pt" height="330pt"
 viewBox="0.00 0.00 478.00 330.00" xmlns="http://www.w3.org/2000/svg" xmlns:xlink="http://www.w3.org/1999/xlink">
<g id="graph0" class="graph" transform="scale(1 1) rotate(0) translate(4 326)">
<title>/home/travis/build/igankevich/arma/src/acf.hh</title>
<!-- Node1 -->
<g id="node1" class="node"><title>Node1</title>
<polygon fill="#bfbfbf" stroke="black" points="163.5,-280.5 163.5,-321.5 270.5,-321.5 270.5,-280.5 163.5,-280.5"/>
<text text-anchor="start" x="171.5" y="-309.5" font-family="Helvetica,sans-Serif" font-size="10.00">/home/travis/build</text>
<text text-anchor="start" x="171.5" y="-298.5" font-family="Helvetica,sans-Serif" font-size="10.00">/igankevich/arma/src</text>
<text text-anchor="middle" x="217" y="-287.5" font-family="Helvetica,sans-Serif" font-size="10.00">/acf.hh</text>
</g>
<!-- Node2 -->
<g id="node2" class="node"><title>Node2</title>
<polygon fill="none" stroke="#bfbfbf" points="-0.5,-168.5 -0.5,-187.5 58.5,-187.5 58.5,-168.5 -0.5,-168.5"/>
<text text-anchor="middle" x="29" y="-175.5" font-family="Helvetica,sans-Serif" font-size="10.00">functional</text>
</g>
<!-- Node1&#45;&gt;Node2 -->
<g id="edge1" class="edge"><title>Node1&#45;&gt;Node2</title>
<path fill="none" stroke="midnightblue" d="M163.337,-291.295C130.536,-283.612 89.5448,-269.493 61,-244 47.2445,-231.715 38.7485,-212.18 33.9997,-197.729"/>
<polygon fill="midnightblue" stroke="midnightblue" points="37.2753,-196.464 31.0736,-187.874 30.5648,-198.457 37.2753,-196.464"/>
</g>
<!-- Node3 -->
<g id="node3" class="node"><title>Node3</title>
<polygon fill="none" stroke="#bfbfbf" points="76.5,-168.5 76.5,-187.5 159.5,-187.5 159.5,-168.5 76.5,-168.5"/>
<text text-anchor="middle" x="118" y="-175.5" font-family="Helvetica,sans-Serif" font-size="10.00">unordered_map</text>
</g>
<!-- Node1&#45;&gt;Node3 -->
<g id="edge2" class="edge"><title>Node1&#45;&gt;Node3</title>
<path fill="none" stroke="midnightblue" d="M200.874,-280.29C181.526,-256.642 149.445,-217.432 131.398,-195.375"/>
<polygon fill="midnightblue" stroke="midnightblue" points="134.057,-193.098 125.016,-187.575 128.639,-197.531 134.057,-193.098"/>
</g>
<!-- Node4 -->
<g id="node4" class="node"><title>Node4</title>
<polygon fill="none" stroke="#bfbfbf" points="177.5,-168.5 177.5,-187.5 218.5,-187.5 218.5,-168.5 177.5,-168.5"/>
<text text-anchor="middle" x="198" y="-175.5" font-family="Helvetica,sans-Serif" font-size="10.00">string</text>
</g>
<!-- Node1&#45;&gt;Node4 -->
<g id="edge3" class="edge"><title>Node1&#45;&gt;Node4</title>
<path fill="none" stroke="midnightblue" d="M213.905,-280.29C210.307,-257.375 204.414,-219.846 200.901,-197.473"/>
<polygon fill="midnightblue" stroke="midnightblue" points="204.355,-196.911 199.346,-187.575 197.44,-197.997 204.355,-196.911"/>
</g>
<!-- Node5 -->
<g id="node5" class="node"><title>Node5</title>
<g id="a_node5"><a xlink:href="types_8hh.html" target="_top" xlink:title="types.hh">
<polygon fill="none" stroke="black" points="237,-168.5 237,-187.5 291,-187.5 291,-168.5 237,-168.5"/>
<text text-anchor="middle" x="264" y="-175.5" font-family="Helvetica,sans-Serif" font-size="10.00">types.hh</text>
</a>
</g>
</g>
<!-- Node1&#45;&gt;Node5 -->
<g id="edge4" class="edge"><title>Node1&#45;&gt;Node5</title>
<path fill="none" stroke="midnightblue" d="M224.656,-280.29C233.597,-257.27 248.267,-219.503 256.943,-197.168"/>
<polygon fill="midnightblue" stroke="midnightblue" points="260.311,-198.164 260.669,-187.575 253.786,-195.629 260.311,-198.164"/>
</g>
<!-- Node7 -->
<g id="node7" class="node"><title>Node7</title>
<g id="a_node7"><a xlink:href="params_8hh.html" target="_top" xlink:title="params.hh">
<polygon fill="none" stroke="black" points="70,-224.5 70,-243.5 132,-243.5 132,-224.5 70,-224.5"/>
<text text-anchor="middle" x="101" y="-231.5" font-family="Helvetica,sans-Serif" font-size="10.00">params.hh</text>
</a>
</g>
</g>
<!-- Node1&#45;&gt;Node7 -->
<g id="edge6" class="edge"><title>Node1&#45;&gt;Node7</title>
<path fill="none" stroke="midnightblue" d="M182.196,-280.498C163.898,-270.245 141.912,-257.925 125.436,-248.693"/>
<polygon fill="midnightblue" stroke="midnightblue" points="126.876,-245.488 116.441,-243.652 123.454,-251.594 126.876,-245.488"/>
</g>
<!-- Node8 -->
<g id="node8" class="node"><title>Node8</title>
<g id="a_node8"><a xlink:href="grid_8hh.html" target="_top" xlink:title="grid.hh">
<polygon fill="none" stroke="black" points="332,-168.5 332,-187.5 378,-187.5 378,-168.5 332,-168.5"/>
<text text-anchor="middle" x="355" y="-175.5" font-family="Helvetica,sans-Serif" font-size="10.00">grid.hh</text>
</a>
</g>
</g>
<!-- Node1&#45;&gt;Node8 -->
<g id="edge10" class="edge"><title>Node1&#45;&gt;Node8</title>
<path fill="none" stroke="midnightblue" d="M270.707,-296.683C307.216,-291.298 353.074,-277.724 377,-244 387.292,-229.494 378.097,-209.8 368.644,-195.903"/>
<polygon fill="midnightblue" stroke="midnightblue" points="371.355,-193.683 362.597,-187.721 365.726,-197.843 371.355,-193.683"/>
</g>
<!-- Node13 -->
<g id="node13" class="node"><title>Node13</title>
<g id="a_node13"><a xlink:href="validators_8hh.html" target="_top" xlink:title="validators.hh">
<polygon fill="none" stroke="black" points="398,-112.5 398,-131.5 470,-131.5 470,-112.5 398,-112.5"/>
<text text-anchor="middle" x="434" y="-119.5" font-family="Helvetica,sans-Serif" font-size="10.00">validators.hh</text>
</a>
</g>
</g>
<!-- Node1&#45;&gt;Node13 -->
<g id="edge19" class="edge"><title>Node1&#45;&gt;Node13</title>
<path fill="none" stroke="midnightblue" d="M270.843,-295.826C309.816,-290.059 361.201,-276.38 394,-244 422.116,-216.243 430.471,-168.333 432.952,-141.892"/>
<polygon fill="midnightblue" stroke="midnightblue" points="436.459,-141.932 433.713,-131.699 429.478,-141.411 436.459,-141.932"/>
</g>
<!-- Node15 -->
<g id="node15" class="node"><title>Node15</title>
<g id="a_node15"><a xlink:href="discrete__function_8hh.html" target="_top" xlink:title="discrete_function.hh">
<polygon fill="none" stroke="black" points="264,-224.5 264,-243.5 368,-243.5 368,-224.5 264,-224.5"/>
<text text-anchor="middle" x="316" y="-231.5" font-family="Helvetica,sans-Serif" font-size="10.00">discrete_function.hh</text>
</a>
</g>
</g>
<!-- Node1&#45;&gt;Node15 -->
<g id="edge20" class="edge"><title>Node1&#45;&gt;Node15</title>
<path fill="none" stroke="midnightblue" d="M246.703,-280.498C262.028,-270.436 280.383,-258.385 294.352,-249.214"/>
<polygon fill="midnightblue" stroke="midnightblue" points="296.383,-252.067 302.822,-243.652 292.541,-246.215 296.383,-252.067"/>
</g>
<!-- Node6 -->
<g id="node6" class="node"><title>Node6</title>
<polygon fill="none" stroke="#bfbfbf" points="230,-0.5 230,-19.5 298,-19.5 298,-0.5 230,-0.5"/>
<text text-anchor="middle" x="264" y="-7.5" font-family="Helvetica,sans-Serif" font-size="10.00">blitz/array.h</text>
</g>
<!-- Node5&#45;&gt;Node6 -->
<g id="edge5" class="edge"><title>Node5&#45;&gt;Node6</title>
<path fill="none" stroke="midnightblue" d="M264,-168.075C264,-141.945 264,-65.2106 264,-29.577"/>
<polygon fill="midnightblue" stroke="midnightblue" points="267.5,-29.5681 264,-19.5681 260.5,-29.5681 267.5,-29.5681"/>
</g>
<!-- Node7&#45;&gt;Node2 -->
<g id="edge7" class="edge"><title>Node7&#45;&gt;Node2</title>
<path fill="none" stroke="midnightblue" d="M89.432,-224.324C78.5798,-216.185 62.1193,-203.839 49.1166,-194.087"/>
<polygon fill="midnightblue" stroke="midnightblue" points="50.8786,-191.034 40.7785,-187.834 46.6785,-196.634 50.8786,-191.034"/>
</g>
<!-- Node7&#45;&gt;Node3 -->
<g id="edge9" class="edge"><title>Node7&#45;&gt;Node3</title>
<path fill="none" stroke="midnightblue" d="M103.807,-224.083C106.085,-216.849 109.371,-206.409 112.208,-197.397"/>
<polygon fill="midnightblue" stroke="midnightblue" points="115.581,-198.341 115.245,-187.751 108.904,-196.239 115.581,-198.341"/>
</g>
<!-- Node7&#45;&gt;Node4 -->
<g id="edge8" class="edge"><title>Node7&#45;&gt;Node4</title>
<path fill="none" stroke="midnightblue" d="M116.585,-224.324C131.999,-215.743 155.812,-202.486 173.71,-192.522"/>
<polygon fill="midnightblue" stroke="midnightblue" points="175.419,-195.577 182.454,-187.655 172.014,-189.461 175.419,-195.577"/>
</g>
<!-- Node9 -->
<g id="node9" class="node"><title>Node9</title>
<polygon fill="none" stroke="#bfbfbf" points="330.5,-112.5 330.5,-131.5 379.5,-131.5 379.5,-112.5 330.5,-112.5"/>
<text text-anchor="middle" x="355" y="-119.5" font-family="Helvetica,sans-Serif" font-size="10.00">istream</text>
</g>
<!-- Node8&#45;&gt;Node9 -->
<g id="edge11" class="edge"><title>Node8&#45;&gt;Node9</title>
<path fill="none" stroke="midnightblue" d="M355,-168.083C355,-161.006 355,-150.861 355,-141.986"/>
<polygon fill="midnightblue" stroke="midnightblue" points="358.5,-141.751 355,-131.751 351.5,-141.751 358.5,-141.751"/>
</g>
<!-- Node10 -->
<g id="node10" class="node"><title>Node10</title>
<g id="a_node10"><a xlink:href="blitz_8hh.html" target="_top" xlink:title="blitz.hh">
<polygon fill="none" stroke="black" points="314,-56.5 314,-75.5 362,-75.5 362,-56.5 314,-56.5"/>
<text text-anchor="middle" x="338" y="-63.5" font-family="Helvetica,sans-Serif" font-size="10.00">blitz.hh</text>
</a>
</g>
</g>
<!-- Node8&#45;&gt;Node10 -->
<g id="edge12" class="edge"><title>Node8&#45;&gt;Node10</title>
<path fill="none" stroke="midnightblue" d="M345.712,-168.395C337.419,-160.025 325.856,-146.483 321,-132 315.681,-116.137 321.66,-97.6441 327.945,-84.4484"/>
<polygon fill="midnightblue" stroke="midnightblue" points="331.082,-86.0027 332.63,-75.5215 324.884,-82.7499 331.082,-86.0027"/>
</g>
<!-- Node8&#45;&gt;Node13 -->
<g id="edge16" class="edge"><title>Node8&#45;&gt;Node13</title>
<path fill="none" stroke="midnightblue" d="M367.693,-168.324C379.901,-159.979 398.578,-147.212 413.003,-137.352"/>
<polygon fill="midnightblue" stroke="midnightblue" points="415.058,-140.187 421.339,-131.655 411.108,-134.408 415.058,-140.187"/>
</g>
<!-- Node10&#45;&gt;Node6 -->
<g id="edge14" class="edge"><title>Node10&#45;&gt;Node6</title>
<path fill="none" stroke="midnightblue" d="M326.111,-56.324C314.85,-48.1066 297.713,-35.6017 284.291,-25.8069"/>
<polygon fill="midnightblue" stroke="midnightblue" points="286.247,-22.9014 276.106,-19.8339 282.12,-28.5559 286.247,-22.9014"/>
</g>
<!-- Node11 -->
<g id="node11" class="node"><title>Node11</title>
<polygon fill="none" stroke="#bfbfbf" points="378,-0.5 378,-19.5 434,-19.5 434,-0.5 378,-0.5"/>
<text text-anchor="middle" x="406" y="-7.5" font-family="Helvetica,sans-Serif" font-size="10.00">algorithm</text>
</g>
<!-- Node10&#45;&gt;Node11 -->
<g id="edge13" class="edge"><title>Node10&#45;&gt;Node11</title>
<path fill="none" stroke="midnightblue" d="M348.925,-56.324C359.175,-48.1849 374.721,-35.8395 387.001,-26.0874"/>
<polygon fill="midnightblue" stroke="midnightblue" points="389.221,-28.7937 394.876,-19.8339 384.868,-23.3119 389.221,-28.7937"/>
</g>
<!-- Node12 -->
<g id="node12" class="node"><title>Node12</title>
<polygon fill="none" stroke="#bfbfbf" points="316,-0.5 316,-19.5 360,-19.5 360,-0.5 316,-0.5"/>
<text text-anchor="middle" x="338" y="-7.5" font-family="Helvetica,sans-Serif" font-size="10.00">cmath</text>
</g>
<!-- Node10&#45;&gt;Node12 -->
<g id="edge15" class="edge"><title>Node10&#45;&gt;Node12</title>
<path fill="none" stroke="midnightblue" d="M338,-56.083C338,-49.0059 338,-38.8611 338,-29.9865"/>
<polygon fill="midnightblue" stroke="midnightblue" points="341.5,-29.751 338,-19.7511 334.5,-29.7511 341.5,-29.751"/>
</g>
<!-- Node13&#45;&gt;Node10 -->
<g id="edge18" class="edge"><title>Node13&#45;&gt;Node10</title>
<path fill="none" stroke="midnightblue" d="M418.576,-112.324C403.46,-103.822 380.185,-90.7288 362.529,-80.7975"/>
<polygon fill="midnightblue" stroke="midnightblue" points="363.817,-77.5066 353.386,-75.6545 360.386,-83.6077 363.817,-77.5066"/>
</g>
<!-- Node14 -->
<g id="node14" class="node"><title>Node14</title>
<polygon fill="none" stroke="#bfbfbf" points="404.5,-56.5 404.5,-75.5 463.5,-75.5 463.5,-56.5 404.5,-56.5"/>
<text text-anchor="middle" x="434" y="-63.5" font-family="Helvetica,sans-Serif" font-size="10.00">stdexcept</text>
</g>
<!-- Node13&#45;&gt;Node14 -->
<g id="edge17" class="edge"><title>Node13&#45;&gt;Node14</title>
<path fill="none" stroke="midnightblue" d="M434,-112.083C434,-105.006 434,-94.8611 434,-85.9865"/>
<polygon fill="midnightblue" stroke="midnightblue" points="437.5,-85.751 434,-75.7511 430.5,-85.7511 437.5,-85.751"/>
</g>
<!-- Node15&#45;&gt;Node5 -->
<g id="edge21" class="edge"><title>Node15&#45;&gt;Node5</title>
<path fill="none" stroke="midnightblue" d="M307.413,-224.083C299.841,-216.22 288.622,-204.569 279.486,-195.081"/>
<polygon fill="midnightblue" stroke="midnightblue" points="281.885,-192.527 272.427,-187.751 276.842,-197.382 281.885,-192.527"/>
</g>
<!-- Node15&#45;&gt;Node8 -->
<g id="edge22" class="edge"><title>Node15&#45;&gt;Node8</title>
<path fill="none" stroke="midnightblue" d="M322.44,-224.083C327.949,-216.455 336.031,-205.264 342.765,-195.941"/>
<polygon fill="midnightblue" stroke="midnightblue" points="345.662,-197.907 348.68,-187.751 339.987,-193.809 345.662,-197.907"/>
</g>
</g>
</svg>
