<?xml version="1.0" encoding="UTF-8" standalone="no"?>
<!DOCTYPE svg PUBLIC "-//W3C//DTD SVG 1.1//EN"
 "http://www.w3.org/Graphics/SVG/1.1/DTD/svg11.dtd">
<!-- Generated by graphviz version 2.40.1 (20161225.0304)
 -->
<!-- Title: src/bits/acf_wrapper.hh Pages: 1 -->
<svg width="284pt" height="308pt"
 viewBox="0.00 0.00 284.00 308.00" xmlns="http://www.w3.org/2000/svg" xmlns:xlink="http://www.w3.org/1999/xlink">
<g id="graph0" class="graph" transform="scale(1 1) rotate(0) translate(4 304)">
<title>src/bits/acf_wrapper.hh</title>
<!-- Node0 -->
<g id="node1" class="node">
<title>Node0</title>
<polygon fill="#bfbfbf" stroke="#000000" points="93.5,-280.5 93.5,-299.5 211.5,-299.5 211.5,-280.5 93.5,-280.5"/>
<text text-anchor="middle" x="152.5" y="-287.5" font-family="Helvetica,sans-Serif" font-size="10.00" fill="#000000">src/bits/acf_wrapper.hh</text>
</g>
<!-- Node1 -->
<g id="node2" class="node">
<title>Node1</title>
<polygon fill="none" stroke="#bfbfbf" points="0,-112.5 0,-131.5 49,-131.5 49,-112.5 0,-112.5"/>
<text text-anchor="middle" x="24.5" y="-119.5" font-family="Helvetica,sans-Serif" font-size="10.00" fill="#000000">istream</text>
</g>
<!-- Node0&#45;&gt;Node1 -->
<g id="edge1" class="edge">
<title>Node0&#45;&gt;Node1</title>
<path fill="none" stroke="#191970" d="M110.8644,-280.4842C90.1175,-273.6651 66.3526,-262.3439 51.5,-244 27.5989,-214.4806 23.7618,-168.2713 23.7238,-142.0106"/>
<polygon fill="#191970" stroke="#191970" points="27.2272,-141.8416 23.9038,-131.7815 20.2283,-141.7184 27.2272,-141.8416"/>
</g>
<!-- Node2 -->
<g id="node3" class="node">
<title>Node2</title>
<polygon fill="none" stroke="#bfbfbf" points="221,-224.5 221,-243.5 262,-243.5 262,-224.5 221,-224.5"/>
<text text-anchor="middle" x="241.5" y="-231.5" font-family="Helvetica,sans-Serif" font-size="10.00" fill="#000000">string</text>
</g>
<!-- Node0&#45;&gt;Node2 -->
<g id="edge2" class="edge">
<title>Node0&#45;&gt;Node2</title>
<path fill="none" stroke="#191970" d="M168.0026,-280.2455C181.658,-271.6534 201.7657,-259.0014 217.4989,-249.1018"/>
<polygon fill="#191970" stroke="#191970" points="219.5751,-251.9307 226.175,-243.6427 215.8471,-246.006 219.5751,-251.9307"/>
</g>
<!-- Node3 -->
<g id="node4" class="node">
<title>Node3</title>
<g id="a_node4"><a xlink:href="types_8hh.html" target="_top" xlink:title="types.hh">
<polygon fill="none" stroke="#000000" points="165.5,-168.5 165.5,-187.5 219.5,-187.5 219.5,-168.5 165.5,-168.5"/>
<text text-anchor="middle" x="192.5" y="-175.5" font-family="Helvetica,sans-Serif" font-size="10.00" fill="#000000">types.hh</text>
</a>
</g>
</g>
<!-- Node0&#45;&gt;Node3 -->
<g id="edge3" class="edge">
<title>Node0&#45;&gt;Node3</title>
<path fill="none" stroke="#191970" d="M157.4348,-280.3063C161.9901,-271.1164 168.7489,-256.8446 173.5,-244 179.1877,-228.6231 184.2468,-210.7243 187.7118,-197.4486"/>
<polygon fill="#191970" stroke="#191970" points="191.1586,-198.095 190.2262,-187.5413 184.3737,-196.373 191.1586,-198.095"/>
</g>
<!-- Node5 -->
<g id="node6" class="node">
<title>Node5</title>
<g id="a_node6"><a xlink:href="discrete__function_8hh.html" target="_top" xlink:title="discrete_function.hh">
<polygon fill="none" stroke="#000000" points="60.5,-224.5 60.5,-243.5 164.5,-243.5 164.5,-224.5 60.5,-224.5"/>
<text text-anchor="middle" x="112.5" y="-231.5" font-family="Helvetica,sans-Serif" font-size="10.00" fill="#000000">discrete_function.hh</text>
</a>
</g>
</g>
<!-- Node0&#45;&gt;Node5 -->
<g id="edge5" class="edge">
<title>Node0&#45;&gt;Node5</title>
<path fill="none" stroke="#191970" d="M145.5325,-280.2455C139.9689,-272.4564 132.022,-261.3308 125.3171,-251.9439"/>
<polygon fill="#191970" stroke="#191970" points="128.0481,-249.7457 119.3876,-243.6427 122.352,-253.8144 128.0481,-249.7457"/>
</g>
<!-- Node4 -->
<g id="node5" class="node">
<title>Node4</title>
<polygon fill="none" stroke="#bfbfbf" points="209,-.5 209,-19.5 276,-19.5 276,-.5 209,-.5"/>
<text text-anchor="middle" x="242.5" y="-7.5" font-family="Helvetica,sans-Serif" font-size="10.00" fill="#000000">blitz/array.h</text>
</g>
<!-- Node3&#45;&gt;Node4 -->
<g id="edge4" class="edge">
<title>Node3&#45;&gt;Node4</title>
<path fill="none" stroke="#191970" d="M200.6332,-168.3577C207.8019,-159.4323 218.0774,-145.5352 224.5,-132 235.5968,-108.6144 236.5219,-101.5773 240.5,-76 242.871,-60.7558 243.3018,-43.2997 243.1772,-30.1701"/>
<polygon fill="#191970" stroke="#191970" points="246.6709,-29.8336 242.9594,-19.9101 239.6725,-29.9822 246.6709,-29.8336"/>
</g>
<!-- Node5&#45;&gt;Node3 -->
<g id="edge16" class="edge">
<title>Node5&#45;&gt;Node3</title>
<path fill="none" stroke="#191970" d="M126.4349,-224.2455C138.5947,-215.7337 156.4464,-203.2375 170.5285,-193.3801"/>
<polygon fill="#191970" stroke="#191970" points="172.5395,-196.2447 178.7248,-187.6427 168.5253,-190.51 172.5395,-196.2447"/>
</g>
<!-- Node6 -->
<g id="node7" class="node">
<title>Node6</title>
<g id="a_node7"><a xlink:href="grid_8hh.html" target="_top" xlink:title="grid.hh">
<polygon fill="none" stroke="#000000" points="89.5,-168.5 89.5,-187.5 135.5,-187.5 135.5,-168.5 89.5,-168.5"/>
<text text-anchor="middle" x="112.5" y="-175.5" font-family="Helvetica,sans-Serif" font-size="10.00" fill="#000000">grid.hh</text>
</a>
</g>
</g>
<!-- Node5&#45;&gt;Node6 -->
<g id="edge6" class="edge">
<title>Node5&#45;&gt;Node6</title>
<path fill="none" stroke="#191970" d="M112.5,-224.2455C112.5,-216.9382 112.5,-206.6944 112.5,-197.7046"/>
<polygon fill="#191970" stroke="#191970" points="116.0001,-197.6426 112.5,-187.6427 109.0001,-197.6427 116.0001,-197.6426"/>
</g>
<!-- Node6&#45;&gt;Node1 -->
<g id="edge8" class="edge">
<title>Node6&#45;&gt;Node1</title>
<path fill="none" stroke="#191970" d="M97.1716,-168.2455C83.6697,-159.6534 63.7878,-147.0014 48.2314,-137.1018"/>
<polygon fill="#191970" stroke="#191970" points="49.9685,-134.0587 39.6528,-131.6427 46.2103,-139.9643 49.9685,-134.0587"/>
</g>
<!-- Node7 -->
<g id="node8" class="node">
<title>Node7</title>
<polygon fill="none" stroke="#bfbfbf" points="55.5,-.5 55.5,-19.5 99.5,-19.5 99.5,-.5 55.5,-.5"/>
<text text-anchor="middle" x="77.5" y="-7.5" font-family="Helvetica,sans-Serif" font-size="10.00" fill="#000000">cmath</text>
</g>
<!-- Node6&#45;&gt;Node7 -->
<g id="edge7" class="edge">
<title>Node6&#45;&gt;Node7</title>
<path fill="none" stroke="#191970" d="M110.518,-168.4862C104.9613,-141.8144 89.1483,-65.9117 81.6031,-29.695"/>
<polygon fill="#191970" stroke="#191970" points="85.0135,-28.9038 79.5475,-19.8279 78.1607,-30.3316 85.0135,-28.9038"/>
</g>
<!-- Node8 -->
<g id="node9" class="node">
<title>Node8</title>
<g id="a_node9"><a xlink:href="blitz_8hh.html" target="_top" xlink:title="blitz.hh">
<polygon fill="none" stroke="#000000" points="105.5,-56.5 105.5,-75.5 153.5,-75.5 153.5,-56.5 105.5,-56.5"/>
<text text-anchor="middle" x="129.5" y="-63.5" font-family="Helvetica,sans-Serif" font-size="10.00" fill="#000000">blitz.hh</text>
</a>
</g>
</g>
<!-- Node6&#45;&gt;Node8 -->
<g id="edge9" class="edge">
<title>Node6&#45;&gt;Node8</title>
<path fill="none" stroke="#191970" d="M113.9494,-168.4509C116.7221,-150.184 122.8282,-109.9553 126.5102,-85.6976"/>
<polygon fill="#191970" stroke="#191970" points="130.0139,-85.9369 128.0543,-75.5249 123.0931,-84.8864 130.0139,-85.9369"/>
</g>
<!-- Node10 -->
<g id="node11" class="node">
<title>Node10</title>
<g id="a_node11"><a xlink:href="validators_8hh.html" target="_top" xlink:title="validators.hh">
<polygon fill="none" stroke="#000000" points="143.5,-112.5 143.5,-131.5 215.5,-131.5 215.5,-112.5 143.5,-112.5"/>
<text text-anchor="middle" x="179.5" y="-119.5" font-family="Helvetica,sans-Serif" font-size="10.00" fill="#000000">validators.hh</text>
</a>
</g>
</g>
<!-- Node6&#45;&gt;Node10 -->
<g id="edge13" class="edge">
<title>Node6&#45;&gt;Node10</title>
<path fill="none" stroke="#191970" d="M124.1705,-168.2455C134.0661,-159.9746 148.4627,-147.9416 160.0901,-138.2232"/>
<polygon fill="#191970" stroke="#191970" points="162.535,-140.7413 167.9632,-131.6427 158.0458,-135.3703 162.535,-140.7413"/>
</g>
<!-- Node8&#45;&gt;Node4 -->
<g id="edge11" class="edge">
<title>Node8&#45;&gt;Node4</title>
<path fill="none" stroke="#191970" d="M148.9254,-56.3733C166.9021,-47.4644 193.8441,-34.1127 214.209,-24.0203"/>
<polygon fill="#191970" stroke="#191970" points="215.9222,-27.0776 223.3281,-19.5011 212.8139,-20.8055 215.9222,-27.0776"/>
</g>
<!-- Node8&#45;&gt;Node7 -->
<g id="edge12" class="edge">
<title>Node8&#45;&gt;Node7</title>
<path fill="none" stroke="#191970" d="M120.4423,-56.2455C112.9858,-48.2155 102.2366,-36.6394 93.3583,-27.0781"/>
<polygon fill="#191970" stroke="#191970" points="95.8232,-24.589 86.4539,-19.6427 90.6937,-29.3522 95.8232,-24.589"/>
</g>
<!-- Node9 -->
<g id="node10" class="node">
<title>Node9</title>
<polygon fill="none" stroke="#bfbfbf" points="117.5,-.5 117.5,-19.5 173.5,-19.5 173.5,-.5 117.5,-.5"/>
<text text-anchor="middle" x="145.5" y="-7.5" font-family="Helvetica,sans-Serif" font-size="10.00" fill="#000000">algorithm</text>
</g>
<!-- Node8&#45;&gt;Node9 -->
<g id="edge10" class="edge">
<title>Node8&#45;&gt;Node9</title>
<path fill="none" stroke="#191970" d="M132.287,-56.2455C134.3977,-48.8579 137.366,-38.4689 139.9547,-29.4087"/>
<polygon fill="#191970" stroke="#191970" points="143.363,-30.2195 142.745,-19.6427 136.6323,-28.2964 143.363,-30.2195"/>
</g>
<!-- Node10&#45;&gt;Node8 -->
<g id="edge15" class="edge">
<title>Node10&#45;&gt;Node8</title>
<path fill="none" stroke="#191970" d="M170.7907,-112.2455C163.6927,-104.2958 153.4916,-92.8706 145.005,-83.3656"/>
<polygon fill="#191970" stroke="#191970" points="147.3805,-80.771 138.1095,-75.6427 142.1589,-85.4331 147.3805,-80.771"/>
</g>
<!-- Node11 -->
<g id="node12" class="node">
<title>Node11</title>
<polygon fill="none" stroke="#bfbfbf" points="172,-56.5 172,-75.5 231,-75.5 231,-56.5 172,-56.5"/>
<text text-anchor="middle" x="201.5" y="-63.5" font-family="Helvetica,sans-Serif" font-size="10.00" fill="#000000">stdexcept</text>
</g>
<!-- Node10&#45;&gt;Node11 -->
<g id="edge14" class="edge">
<title>Node10&#45;&gt;Node11</title>
<path fill="none" stroke="#191970" d="M183.3321,-112.2455C186.2659,-104.7776 190.4047,-94.2427 193.991,-85.1137"/>
<polygon fill="#191970" stroke="#191970" points="197.3129,-86.23 197.7118,-75.6427 190.7976,-83.6704 197.3129,-86.23"/>
</g>
</g>
</svg>
