<?xml version="1.0" encoding="UTF-8" standalone="no"?>
<!DOCTYPE svg PUBLIC "-//W3C//DTD SVG 1.1//EN"
 "http://www.w3.org/Graphics/SVG/1.1/DTD/svg11.dtd">
<!-- Generated by graphviz version 2.36.0 (20140111.2315)
 -->
<!-- Title: /home/travis/build/igankevich/arma/src/apmath/fourier_gsl.hh Pages: 1 -->
<svg width="987pt" height="554pt"
 viewBox="0.00 0.00 987.00 554.00" xmlns="http://www.w3.org/2000/svg" xmlns:xlink="http://www.w3.org/1999/xlink">
<g id="graph0" class="graph" transform="scale(1 1) rotate(0) translate(4 550)">
<title>/home/travis/build/igankevich/arma/src/apmath/fourier_gsl.hh</title>
<!-- Node1 -->
<g id="node1" class="node"><title>Node1</title>
<polygon fill="#bfbfbf" stroke="black" points="703.5,-504.5 703.5,-545.5 816.5,-545.5 816.5,-504.5 703.5,-504.5"/>
<text text-anchor="start" x="711.5" y="-533.5" font-family="Helvetica,sans-Serif" font-size="10.00">/home/travis/build</text>
<text text-anchor="start" x="711.5" y="-522.5" font-family="Helvetica,sans-Serif" font-size="10.00">/igankevich/arma/src</text>
<text text-anchor="middle" x="760" y="-511.5" font-family="Helvetica,sans-Serif" font-size="10.00">/apmath/fourier_gsl.hh</text>
</g>
<!-- Node2 -->
<g id="node2" class="node"><title>Node2</title>
<g id="a_node2"><a xlink:href="fourier_8hh.html" target="_top" xlink:title="/home/travis/build\l/igankevich/arma/src\l/fourier.hh">
<polygon fill="none" stroke="black" points="706.5,-426.5 706.5,-467.5 813.5,-467.5 813.5,-426.5 706.5,-426.5"/>
<text text-anchor="start" x="714.5" y="-455.5" font-family="Helvetica,sans-Serif" font-size="10.00">/home/travis/build</text>
<text text-anchor="start" x="714.5" y="-444.5" font-family="Helvetica,sans-Serif" font-size="10.00">/igankevich/arma/src</text>
<text text-anchor="middle" x="760" y="-433.5" font-family="Helvetica,sans-Serif" font-size="10.00">/fourier.hh</text>
</a>
</g>
</g>
<!-- Node1&#45;&gt;Node2 -->
<g id="edge1" class="edge"><title>Node1&#45;&gt;Node2</title>
<path fill="none" stroke="midnightblue" d="M760,-494.297C760,-485.301 760,-475.653 760,-467.506"/>
<polygon fill="midnightblue" stroke="midnightblue" points="756.5,-494.428 760,-504.428 763.5,-494.428 756.5,-494.428"/>
</g>
<!-- Node3 -->
<g id="node3" class="node"><title>Node3</title>
<g id="a_node3"><a xlink:href="convolution_8hh.html" target="_top" xlink:title="/home/travis/build\l/igankevich/arma/src\l/apmath/convolution.hh">
<polygon fill="none" stroke="black" points="701,-348.5 701,-389.5 819,-389.5 819,-348.5 701,-348.5"/>
<text text-anchor="start" x="709" y="-377.5" font-family="Helvetica,sans-Serif" font-size="10.00">/home/travis/build</text>
<text text-anchor="start" x="709" y="-366.5" font-family="Helvetica,sans-Serif" font-size="10.00">/igankevich/arma/src</text>
<text text-anchor="middle" x="760" y="-355.5" font-family="Helvetica,sans-Serif" font-size="10.00">/apmath/convolution.hh</text>
</a>
</g>
</g>
<!-- Node2&#45;&gt;Node3 -->
<g id="edge2" class="edge"><title>Node2&#45;&gt;Node3</title>
<path fill="none" stroke="midnightblue" d="M760,-416.297C760,-407.301 760,-397.653 760,-389.506"/>
<polygon fill="midnightblue" stroke="midnightblue" points="756.5,-416.428 760,-426.428 763.5,-416.428 756.5,-416.428"/>
</g>
<!-- Node5 -->
<g id="node5" class="node"><title>Node5</title>
<g id="a_node5"><a xlink:href="arma_8hh.html" target="_top" xlink:title="/home/travis/build\l/igankevich/arma/src\l/arma.hh">
<polygon fill="none" stroke="black" points="426.5,-348.5 426.5,-389.5 533.5,-389.5 533.5,-348.5 426.5,-348.5"/>
<text text-anchor="start" x="434.5" y="-377.5" font-family="Helvetica,sans-Serif" font-size="10.00">/home/travis/build</text>
<text text-anchor="start" x="434.5" y="-366.5" font-family="Helvetica,sans-Serif" font-size="10.00">/igankevich/arma/src</text>
<text text-anchor="middle" x="480" y="-355.5" font-family="Helvetica,sans-Serif" font-size="10.00">/arma.hh</text>
</a>
</g>
</g>
<!-- Node2&#45;&gt;Node5 -->
<g id="edge4" class="edge"><title>Node2&#45;&gt;Node5</title>
<path fill="none" stroke="midnightblue" d="M696.482,-428.76C647.461,-415.454 580.389,-397.248 533.951,-384.644"/>
<polygon fill="midnightblue" stroke="midnightblue" points="695.777,-432.195 706.344,-431.436 697.611,-425.439 695.777,-432.195"/>
</g>
<!-- Node20 -->
<g id="node20" class="node"><title>Node20</title>
<g id="a_node20"><a xlink:href="linear__solver_8hh.html" target="_top" xlink:title="/home/travis/build\l/igankevich/arma/src\l/velocity/linear_solver.hh">
<polygon fill="none" stroke="black" points="788.5,-264.5 788.5,-305.5 913.5,-305.5 913.5,-264.5 788.5,-264.5"/>
<text text-anchor="start" x="796.5" y="-293.5" font-family="Helvetica,sans-Serif" font-size="10.00">/home/travis/build</text>
<text text-anchor="start" x="796.5" y="-282.5" font-family="Helvetica,sans-Serif" font-size="10.00">/igankevich/arma/src</text>
<text text-anchor="middle" x="851" y="-271.5" font-family="Helvetica,sans-Serif" font-size="10.00">/velocity/linear_solver.hh</text>
</a>
</g>
</g>
<!-- Node2&#45;&gt;Node20 -->
<g id="edge25" class="edge"><title>Node2&#45;&gt;Node20</title>
<path fill="none" stroke="midnightblue" d="M800.173,-420.259C810.63,-411.783 820.932,-401.534 828,-390 844.038,-363.827 848.948,-327.868 850.417,-305.819"/>
<polygon fill="midnightblue" stroke="midnightblue" points="797.995,-417.518 792.197,-426.386 802.26,-423.069 797.995,-417.518"/>
</g>
<!-- Node4 -->
<g id="node4" class="node"><title>Node4</title>
<g id="a_node4"><a xlink:href="ma__model_8cc.html" target="_top" xlink:title="/home/travis/build\l/igankevich/arma/src\l/generator/ma_model.cc">
<polygon fill="none" stroke="black" points="535,-174.5 535,-215.5 657,-215.5 657,-174.5 535,-174.5"/>
<text text-anchor="start" x="543" y="-203.5" font-family="Helvetica,sans-Serif" font-size="10.00">/home/travis/build</text>
<text text-anchor="start" x="543" y="-192.5" font-family="Helvetica,sans-Serif" font-size="10.00">/igankevich/arma/src</text>
<text text-anchor="middle" x="596" y="-181.5" font-family="Helvetica,sans-Serif" font-size="10.00">/generator/ma_model.cc</text>
</a>
</g>
</g>
<!-- Node3&#45;&gt;Node4 -->
<g id="edge3" class="edge"><title>Node3&#45;&gt;Node4</title>
<path fill="none" stroke="midnightblue" d="M761.876,-338.254C761.825,-314.164 758.001,-280.626 740,-258 733.73,-250.119 686.581,-230.628 647.915,-215.586"/>
<polygon fill="midnightblue" stroke="midnightblue" points="758.376,-338.198 761.684,-348.263 765.375,-338.332 758.376,-338.198"/>
</g>
<!-- Node6 -->
<g id="node6" class="node"><title>Node6</title>
<g id="a_node6"><a xlink:href="arma_8cc.html" target="_top" xlink:title="/home/travis/build\l/igankevich/arma/src\l/arma.cc">
<polygon fill="none" stroke="black" points="493.5,-264.5 493.5,-305.5 600.5,-305.5 600.5,-264.5 493.5,-264.5"/>
<text text-anchor="start" x="501.5" y="-293.5" font-family="Helvetica,sans-Serif" font-size="10.00">/home/travis/build</text>
<text text-anchor="start" x="501.5" y="-282.5" font-family="Helvetica,sans-Serif" font-size="10.00">/igankevich/arma/src</text>
<text text-anchor="middle" x="547" y="-271.5" font-family="Helvetica,sans-Serif" font-size="10.00">/arma.cc</text>
</a>
</g>
</g>
<!-- Node5&#45;&gt;Node6 -->
<g id="edge5" class="edge"><title>Node5&#45;&gt;Node6</title>
<path fill="none" stroke="midnightblue" d="M502.703,-340.214C511.973,-328.869 522.478,-316.012 530.931,-305.667"/>
<polygon fill="midnightblue" stroke="midnightblue" points="499.836,-338.192 496.219,-348.15 505.256,-342.621 499.836,-338.192"/>
</g>
<!-- Node7 -->
<g id="node7" class="node"><title>Node7</title>
<g id="a_node7"><a xlink:href="arma__driver_8hh.html" target="_top" xlink:title="/home/travis/build\l/igankevich/arma/src\l/arma_driver.hh">
<polygon fill="none" stroke="black" points="51.5,-174.5 51.5,-215.5 158.5,-215.5 158.5,-174.5 51.5,-174.5"/>
<text text-anchor="start" x="59.5" y="-203.5" font-family="Helvetica,sans-Serif" font-size="10.00">/home/travis/build</text>
<text text-anchor="start" x="59.5" y="-192.5" font-family="Helvetica,sans-Serif" font-size="10.00">/igankevich/arma/src</text>
<text text-anchor="middle" x="105" y="-181.5" font-family="Helvetica,sans-Serif" font-size="10.00">/arma_driver.hh</text>
</a>
</g>
</g>
<!-- Node5&#45;&gt;Node7 -->
<g id="edge6" class="edge"><title>Node5&#45;&gt;Node7</title>
<path fill="none" stroke="midnightblue" d="M416.308,-365.875C358.959,-361.487 274.085,-348.677 210,-312 168.507,-288.252 134.438,-242.33 117.197,-215.947"/>
<polygon fill="midnightblue" stroke="midnightblue" points="416.109,-369.37 426.33,-366.578 416.599,-362.387 416.109,-369.37"/>
</g>
<!-- Node13 -->
<g id="node13" class="node"><title>Node13</title>
<g id="a_node13"><a xlink:href="ar__model_8hh.html" target="_top" xlink:title="/home/travis/build\l/igankevich/arma/src\l/generator/ar_model.hh">
<polygon fill="none" stroke="black" points="219,-264.5 219,-305.5 335,-305.5 335,-264.5 219,-264.5"/>
<text text-anchor="start" x="227" y="-293.5" font-family="Helvetica,sans-Serif" font-size="10.00">/home/travis/build</text>
<text text-anchor="start" x="227" y="-282.5" font-family="Helvetica,sans-Serif" font-size="10.00">/igankevich/arma/src</text>
<text text-anchor="middle" x="277" y="-271.5" font-family="Helvetica,sans-Serif" font-size="10.00">/generator/ar_model.hh</text>
</a>
</g>
</g>
<!-- Node5&#45;&gt;Node13 -->
<g id="edge12" class="edge"><title>Node5&#45;&gt;Node13</title>
<path fill="none" stroke="midnightblue" d="M422.353,-344.714C391.709,-332.336 354.463,-317.29 325.347,-305.529"/>
<polygon fill="midnightblue" stroke="midnightblue" points="421.051,-347.963 431.634,-348.463 423.673,-341.472 421.051,-347.963"/>
</g>
<!-- Node18 -->
<g id="node18" class="node"><title>Node18</title>
<g id="a_node18"><a xlink:href="ma__model_8hh.html" target="_top" xlink:title="/home/travis/build\l/igankevich/arma/src\l/generator/ma_model.hh">
<polygon fill="none" stroke="black" points="353,-264.5 353,-305.5 475,-305.5 475,-264.5 353,-264.5"/>
<text text-anchor="start" x="361" y="-293.5" font-family="Helvetica,sans-Serif" font-size="10.00">/home/travis/build</text>
<text text-anchor="start" x="361" y="-282.5" font-family="Helvetica,sans-Serif" font-size="10.00">/igankevich/arma/src</text>
<text text-anchor="middle" x="414" y="-271.5" font-family="Helvetica,sans-Serif" font-size="10.00">/generator/ma_model.hh</text>
</a>
</g>
</g>
<!-- Node5&#45;&gt;Node18 -->
<g id="edge20" class="edge"><title>Node5&#45;&gt;Node18</title>
<path fill="none" stroke="midnightblue" d="M457.635,-340.214C448.504,-328.869 438.156,-316.012 429.83,-305.667"/>
<polygon fill="midnightblue" stroke="midnightblue" points="455.027,-342.554 464.023,-348.15 460.48,-338.165 455.027,-342.554"/>
</g>
<!-- Node19 -->
<g id="node19" class="node"><title>Node19</title>
<g id="a_node19"><a xlink:href="basic__arma__model_8cc.html" target="_top" xlink:title="/home/travis/build\l/igankevich/arma/src\l/generator/basic_arma\l_model.cc">
<polygon fill="none" stroke="black" points="618.5,-259 618.5,-311 731.5,-311 731.5,-259 618.5,-259"/>
<text text-anchor="start" x="626.5" y="-299" font-family="Helvetica,sans-Serif" font-size="10.00">/home/travis/build</text>
<text text-anchor="start" x="626.5" y="-288" font-family="Helvetica,sans-Serif" font-size="10.00">/igankevich/arma/src</text>
<text text-anchor="start" x="626.5" y="-277" font-family="Helvetica,sans-Serif" font-size="10.00">/generator/basic_arma</text>
<text text-anchor="middle" x="675" y="-266" font-family="Helvetica,sans-Serif" font-size="10.00">_model.cc</text>
</a>
</g>
</g>
<!-- Node5&#45;&gt;Node19 -->
<g id="edge24" class="edge"><title>Node5&#45;&gt;Node19</title>
<path fill="none" stroke="midnightblue" d="M535.979,-344.46C561.778,-333.611 592.348,-320.756 618.242,-309.868"/>
<polygon fill="midnightblue" stroke="midnightblue" points="534.569,-341.256 526.707,-348.359 537.282,-347.709 534.569,-341.256"/>
</g>
<!-- Node8 -->
<g id="node8" class="node"><title>Node8</title>
<g id="a_node8"><a xlink:href="arma__driver_8cc.html" target="_top" xlink:title="/home/travis/build\l/igankevich/arma/src\l/arma_driver.cc">
<polygon fill="none" stroke="black" points="-0.5,-84.5 -0.5,-125.5 106.5,-125.5 106.5,-84.5 -0.5,-84.5"/>
<text text-anchor="start" x="7.5" y="-113.5" font-family="Helvetica,sans-Serif" font-size="10.00">/home/travis/build</text>
<text text-anchor="start" x="7.5" y="-102.5" font-family="Helvetica,sans-Serif" font-size="10.00">/igankevich/arma/src</text>
<text text-anchor="middle" x="53" y="-91.5" font-family="Helvetica,sans-Serif" font-size="10.00">/arma_driver.cc</text>
</a>
</g>
</g>
<!-- Node7&#45;&gt;Node8 -->
<g id="edge7" class="edge"><title>Node7&#45;&gt;Node8</title>
<path fill="none" stroke="midnightblue" d="M88.3629,-165.845C80.6505,-152.793 71.6694,-137.594 64.688,-125.78"/>
<polygon fill="midnightblue" stroke="midnightblue" points="85.3589,-167.641 93.4595,-174.47 91.3854,-164.08 85.3589,-167.641"/>
</g>
<!-- Node9 -->
<g id="node9" class="node"><title>Node9</title>
<g id="a_node9"><a xlink:href="arma__main_8cc.html" target="_top" xlink:title="/home/travis/build\l/igankevich/arma/src\l/arma_main.cc">
<polygon fill="none" stroke="black" points="437.5,-0.5 437.5,-41.5 544.5,-41.5 544.5,-0.5 437.5,-0.5"/>
<text text-anchor="start" x="445.5" y="-29.5" font-family="Helvetica,sans-Serif" font-size="10.00">/home/travis/build</text>
<text text-anchor="start" x="445.5" y="-18.5" font-family="Helvetica,sans-Serif" font-size="10.00">/igankevich/arma/src</text>
<text text-anchor="middle" x="491" y="-7.5" font-family="Helvetica,sans-Serif" font-size="10.00">/arma_main.cc</text>
</a>
</g>
</g>
<!-- Node7&#45;&gt;Node9 -->
<g id="edge8" class="edge"><title>Node7&#45;&gt;Node9</title>
<path fill="none" stroke="midnightblue" d="M161.765,-170.552C163.869,-169.689 165.953,-168.836 168,-168 207.499,-151.861 223.419,-158.324 257,-132 280.299,-113.736 271.777,-95.0198 296,-78 301.962,-73.8109 381.714,-51.6334 437.356,-36.4768"/>
<polygon fill="midnightblue" stroke="midnightblue" points="160.379,-167.337 152.457,-174.373 163.037,-173.813 160.379,-167.337"/>
</g>
<!-- Node10 -->
<g id="node10" class="node"><title>Node10</title>
<g id="a_node10"><a xlink:href="arma__realtime__driver_8hh.html" target="_top" xlink:title="/home/travis/build\l/igankevich/arma/src\l/arma_realtime_driver.hh">
<polygon fill="none" stroke="black" points="125,-84.5 125,-125.5 249,-125.5 249,-84.5 125,-84.5"/>
<text text-anchor="start" x="133" y="-113.5" font-family="Helvetica,sans-Serif" font-size="10.00">/home/travis/build</text>
<text text-anchor="start" x="133" y="-102.5" font-family="Helvetica,sans-Serif" font-size="10.00">/igankevich/arma/src</text>
<text text-anchor="middle" x="187" y="-91.5" font-family="Helvetica,sans-Serif" font-size="10.00">/arma_realtime_driver.hh</text>
</a>
</g>
</g>
<!-- Node7&#45;&gt;Node10 -->
<g id="edge9" class="edge"><title>Node7&#45;&gt;Node10</title>
<path fill="none" stroke="midnightblue" d="M130.188,-166.969C142.578,-153.673 157.242,-137.935 168.569,-125.78"/>
<polygon fill="midnightblue" stroke="midnightblue" points="127.455,-164.768 123.198,-174.47 132.576,-169.54 127.455,-164.768"/>
</g>
<!-- Node11 -->
<g id="node11" class="node"><title>Node11</title>
<g id="a_node11"><a xlink:href="arma__realtime_8cc.html" target="_top" xlink:title="/home/travis/build\l/igankevich/arma/src\l/arma_realtime.cc">
<polygon fill="none" stroke="black" points="297.5,-0.5 297.5,-41.5 404.5,-41.5 404.5,-0.5 297.5,-0.5"/>
<text text-anchor="start" x="305.5" y="-29.5" font-family="Helvetica,sans-Serif" font-size="10.00">/home/travis/build</text>
<text text-anchor="start" x="305.5" y="-18.5" font-family="Helvetica,sans-Serif" font-size="10.00">/igankevich/arma/src</text>
<text text-anchor="middle" x="351" y="-7.5" font-family="Helvetica,sans-Serif" font-size="10.00">/arma_realtime.cc</text>
</a>
</g>
</g>
<!-- Node10&#45;&gt;Node11 -->
<g id="edge10" class="edge"><title>Node10&#45;&gt;Node11</title>
<path fill="none" stroke="midnightblue" d="M235.354,-79.823C259.695,-67.6524 288.822,-53.0891 311.755,-41.6227"/>
<polygon fill="midnightblue" stroke="midnightblue" points="233.661,-76.7563 226.282,-84.359 236.792,-83.0173 233.661,-76.7563"/>
</g>
<!-- Node12 -->
<g id="node12" class="node"><title>Node12</title>
<g id="a_node12"><a xlink:href="arma__realtime__driver_8cc.html" target="_top" xlink:title="/home/travis/build\l/igankevich/arma/src\l/arma_realtime_driver.cc">
<polygon fill="none" stroke="black" points="125,-0.5 125,-41.5 249,-41.5 249,-0.5 125,-0.5"/>
<text text-anchor="start" x="133" y="-29.5" font-family="Helvetica,sans-Serif" font-size="10.00">/home/travis/build</text>
<text text-anchor="start" x="133" y="-18.5" font-family="Helvetica,sans-Serif" font-size="10.00">/igankevich/arma/src</text>
<text text-anchor="middle" x="187" y="-7.5" font-family="Helvetica,sans-Serif" font-size="10.00">/arma_realtime_driver.cc</text>
</a>
</g>
</g>
<!-- Node10&#45;&gt;Node12 -->
<g id="edge11" class="edge"><title>Node10&#45;&gt;Node12</title>
<path fill="none" stroke="midnightblue" d="M187,-73.881C187,-63.1328 187,-51.309 187,-41.6671"/>
<polygon fill="midnightblue" stroke="midnightblue" points="183.5,-74.1501 187,-84.1501 190.5,-74.1501 183.5,-74.1501"/>
</g>
<!-- Node14 -->
<g id="node14" class="node"><title>Node14</title>
<g id="a_node14"><a xlink:href="common__main_8hh.html" target="_top" xlink:title="/home/travis/build\l/igankevich/arma/src\l/common_main.hh">
<polygon fill="none" stroke="black" points="453.5,-84.5 453.5,-125.5 560.5,-125.5 560.5,-84.5 453.5,-84.5"/>
<text text-anchor="start" x="461.5" y="-113.5" font-family="Helvetica,sans-Serif" font-size="10.00">/home/travis/build</text>
<text text-anchor="start" x="461.5" y="-102.5" font-family="Helvetica,sans-Serif" font-size="10.00">/igankevich/arma/src</text>
<text text-anchor="middle" x="507" y="-91.5" font-family="Helvetica,sans-Serif" font-size="10.00">/common_main.hh</text>
</a>
</g>
</g>
<!-- Node13&#45;&gt;Node14 -->
<g id="edge13" class="edge"><title>Node13&#45;&gt;Node14</title>
<path fill="none" stroke="midnightblue" d="M289.723,-255.154C303.542,-224.951 325.568,-180.237 340,-168 377.308,-136.368 398.263,-149.337 444,-132 449.311,-129.987 454.845,-127.815 460.332,-125.614"/>
<polygon fill="midnightblue" stroke="midnightblue" points="286.478,-253.836 285.545,-264.39 292.856,-256.722 286.478,-253.836"/>
</g>
<!-- Node15 -->
<g id="node15" class="node"><title>Node15</title>
<g id="a_node15"><a xlink:href="arma__model_8hh.html" target="_top" xlink:title="/home/travis/build\l/igankevich/arma/src\l/generator/arma_model.hh">
<polygon fill="none" stroke="black" points="349,-174.5 349,-215.5 479,-215.5 479,-174.5 349,-174.5"/>
<text text-anchor="start" x="357" y="-203.5" font-family="Helvetica,sans-Serif" font-size="10.00">/home/travis/build</text>
<text text-anchor="start" x="357" y="-192.5" font-family="Helvetica,sans-Serif" font-size="10.00">/igankevich/arma/src</text>
<text text-anchor="middle" x="414" y="-181.5" font-family="Helvetica,sans-Serif" font-size="10.00">/generator/arma_model.hh</text>
</a>
</g>
</g>
<!-- Node13&#45;&gt;Node15 -->
<g id="edge16" class="edge"><title>Node13&#45;&gt;Node15</title>
<path fill="none" stroke="midnightblue" d="M315.922,-258.999C337.249,-245.3 363.31,-228.56 383.207,-215.78"/>
<polygon fill="midnightblue" stroke="midnightblue" points="313.927,-256.121 307.405,-264.47 317.71,-262.01 313.927,-256.121"/>
</g>
<!-- Node17 -->
<g id="node17" class="node"><title>Node17</title>
<g id="a_node17"><a xlink:href="ar__model_8cc.html" target="_top" xlink:title="/home/travis/build\l/igankevich/arma/src\l/generator/ar_model.cc">
<polygon fill="none" stroke="black" points="177,-174.5 177,-215.5 293,-215.5 293,-174.5 177,-174.5"/>
<text text-anchor="start" x="185" y="-203.5" font-family="Helvetica,sans-Serif" font-size="10.00">/home/travis/build</text>
<text text-anchor="start" x="185" y="-192.5" font-family="Helvetica,sans-Serif" font-size="10.00">/igankevich/arma/src</text>
<text text-anchor="middle" x="235" y="-181.5" font-family="Helvetica,sans-Serif" font-size="10.00">/generator/ar_model.cc</text>
</a>
</g>
</g>
<!-- Node13&#45;&gt;Node17 -->
<g id="edge19" class="edge"><title>Node13&#45;&gt;Node17</title>
<path fill="none" stroke="midnightblue" d="M263.202,-255.09C257.055,-242.21 249.971,-227.367 244.44,-215.78"/>
<polygon fill="midnightblue" stroke="midnightblue" points="260.213,-256.953 267.679,-264.47 266.53,-253.938 260.213,-256.953"/>
</g>
<!-- Node14&#45;&gt;Node9 -->
<g id="edge14" class="edge"><title>Node14&#45;&gt;Node9</title>
<path fill="none" stroke="midnightblue" d="M501.189,-74.2165C499.074,-63.3793 496.738,-51.4095 494.837,-41.6671"/>
<polygon fill="midnightblue" stroke="midnightblue" points="497.776,-75.0055 503.127,-84.1501 504.647,-73.6649 497.776,-75.0055"/>
</g>
<!-- Node14&#45;&gt;Node11 -->
<g id="edge15" class="edge"><title>Node14&#45;&gt;Node11</title>
<path fill="none" stroke="midnightblue" d="M460.699,-79.6621C437.607,-67.5242 410.049,-53.0386 388.331,-41.6227"/>
<polygon fill="midnightblue" stroke="midnightblue" points="459.154,-82.8042 469.634,-84.359 462.411,-76.608 459.154,-82.8042"/>
</g>
<!-- Node15&#45;&gt;Node14 -->
<g id="edge17" class="edge"><title>Node15&#45;&gt;Node14</title>
<path fill="none" stroke="midnightblue" d="M442.174,-167.341C456.307,-153.967 473.13,-138.049 486.096,-125.78"/>
<polygon fill="midnightblue" stroke="midnightblue" points="439.498,-165.055 434.64,-174.47 444.309,-170.139 439.498,-165.055"/>
</g>
<!-- Node16 -->
<g id="node16" class="node"><title>Node16</title>
<g id="a_node16"><a xlink:href="arma__model_8cc.html" target="_top" xlink:title="/home/travis/build\l/igankevich/arma/src\l/generator/arma_model.cc">
<polygon fill="none" stroke="black" points="305,-84.5 305,-125.5 435,-125.5 435,-84.5 305,-84.5"/>
<text text-anchor="start" x="313" y="-113.5" font-family="Helvetica,sans-Serif" font-size="10.00">/home/travis/build</text>
<text text-anchor="start" x="313" y="-102.5" font-family="Helvetica,sans-Serif" font-size="10.00">/igankevich/arma/src</text>
<text text-anchor="middle" x="370" y="-91.5" font-family="Helvetica,sans-Serif" font-size="10.00">/generator/arma_model.cc</text>
</a>
</g>
</g>
<!-- Node15&#45;&gt;Node16 -->
<g id="edge18" class="edge"><title>Node15&#45;&gt;Node16</title>
<path fill="none" stroke="midnightblue" d="M399.734,-165.468C393.251,-152.501 385.74,-137.481 379.89,-125.78"/>
<polygon fill="midnightblue" stroke="midnightblue" points="396.632,-167.091 404.235,-174.47 402.893,-163.96 396.632,-167.091"/>
</g>
<!-- Node18&#45;&gt;Node4 -->
<g id="edge23" class="edge"><title>Node18&#45;&gt;Node4</title>
<path fill="none" stroke="midnightblue" d="M463.486,-260.073C492.325,-246.129 528.243,-228.762 555.407,-215.627"/>
<polygon fill="midnightblue" stroke="midnightblue" points="461.871,-256.966 454.392,-264.47 464.918,-263.268 461.871,-256.966"/>
</g>
<!-- Node18&#45;&gt;Node14 -->
<g id="edge21" class="edge"><title>Node18&#45;&gt;Node14</title>
<path fill="none" stroke="midnightblue" d="M454.943,-258.244C467.431,-248.397 479.969,-236.096 488,-222 505.275,-191.68 507.949,-150.108 507.82,-125.845"/>
<polygon fill="midnightblue" stroke="midnightblue" points="452.694,-255.556 446.792,-264.355 456.893,-261.157 452.694,-255.556"/>
</g>
<!-- Node18&#45;&gt;Node15 -->
<g id="edge22" class="edge"><title>Node18&#45;&gt;Node15</title>
<path fill="none" stroke="midnightblue" d="M414,-254.33C414,-241.629 414,-227.14 414,-215.78"/>
<polygon fill="midnightblue" stroke="midnightblue" points="410.5,-254.47 414,-264.47 417.5,-254.47 410.5,-254.47"/>
</g>
<!-- Node20&#45;&gt;Node14 -->
<g id="edge29" class="edge"><title>Node20&#45;&gt;Node14</title>
<path fill="none" stroke="midnightblue" d="M778.608,-262.668C753.304,-252.931 725.8,-239.57 704,-222 681.15,-203.584 689.099,-186.102 666,-168 635.1,-143.785 593.592,-128.027 560.735,-118.459"/>
<polygon fill="midnightblue" stroke="midnightblue" points="777.589,-266.023 788.182,-266.224 780.026,-259.461 777.589,-266.023"/>
</g>
<!-- Node21 -->
<g id="node21" class="node"><title>Node21</title>
<g id="a_node21"><a xlink:href="high__amplitude__solver_8hh.html" target="_top" xlink:title="/home/travis/build\l/igankevich/arma/src\l/velocity/high_amplitude\l_solver.hh">
<polygon fill="none" stroke="black" points="713,-169 713,-221 835,-221 835,-169 713,-169"/>
<text text-anchor="start" x="721" y="-209" font-family="Helvetica,sans-Serif" font-size="10.00">/home/travis/build</text>
<text text-anchor="start" x="721" y="-198" font-family="Helvetica,sans-Serif" font-size="10.00">/igankevich/arma/src</text>
<text text-anchor="start" x="721" y="-187" font-family="Helvetica,sans-Serif" font-size="10.00">/velocity/high_amplitude</text>
<text text-anchor="middle" x="774" y="-176" font-family="Helvetica,sans-Serif" font-size="10.00">_solver.hh</text>
</a>
</g>
</g>
<!-- Node20&#45;&gt;Node21 -->
<g id="edge26" class="edge"><title>Node20&#45;&gt;Node21</title>
<path fill="none" stroke="midnightblue" d="M827.3,-256.914C817.331,-245.521 805.801,-232.344 796.02,-221.166"/>
<polygon fill="midnightblue" stroke="midnightblue" points="824.692,-259.249 833.911,-264.47 829.96,-254.639 824.692,-259.249"/>
</g>
<!-- Node23 -->
<g id="node23" class="node"><title>Node23</title>
<g id="a_node23"><a xlink:href="linear__solver_8cc.html" target="_top" xlink:title="/home/travis/build\l/igankevich/arma/src\l/velocity/linear_solver.cc">
<polygon fill="none" stroke="black" points="853.5,-174.5 853.5,-215.5 978.5,-215.5 978.5,-174.5 853.5,-174.5"/>
<text text-anchor="start" x="861.5" y="-203.5" font-family="Helvetica,sans-Serif" font-size="10.00">/home/travis/build</text>
<text text-anchor="start" x="861.5" y="-192.5" font-family="Helvetica,sans-Serif" font-size="10.00">/igankevich/arma/src</text>
<text text-anchor="middle" x="916" y="-181.5" font-family="Helvetica,sans-Serif" font-size="10.00">/velocity/linear_solver.cc</text>
</a>
</g>
</g>
<!-- Node20&#45;&gt;Node23 -->
<g id="edge30" class="edge"><title>Node20&#45;&gt;Node23</title>
<path fill="none" stroke="midnightblue" d="M871.519,-256.221C881.221,-243.086 892.579,-227.708 901.39,-215.78"/>
<polygon fill="midnightblue" stroke="midnightblue" points="868.552,-254.347 865.426,-264.47 874.182,-258.506 868.552,-254.347"/>
</g>
<!-- Node21&#45;&gt;Node14 -->
<g id="edge27" class="edge"><title>Node21&#45;&gt;Node14</title>
<path fill="none" stroke="midnightblue" d="M702.78,-169.269C701.511,-168.842 700.25,-168.418 699,-168 652.497,-152.433 599.435,-135.35 560.895,-123.065"/>
<polygon fill="midnightblue" stroke="midnightblue" points="702.047,-172.716 712.641,-172.61 704.293,-166.086 702.047,-172.716"/>
</g>
<!-- Node22 -->
<g id="node22" class="node"><title>Node22</title>
<g id="a_node22"><a xlink:href="high__amplitude__solver_8cc.html" target="_top" xlink:title="/home/travis/build\l/igankevich/arma/src\l/velocity/high_amplitude\l_solver.cc">
<polygon fill="none" stroke="black" points="713,-79 713,-131 835,-131 835,-79 713,-79"/>
<text text-anchor="start" x="721" y="-119" font-family="Helvetica,sans-Serif" font-size="10.00">/home/travis/build</text>
<text text-anchor="start" x="721" y="-108" font-family="Helvetica,sans-Serif" font-size="10.00">/igankevich/arma/src</text>
<text text-anchor="start" x="721" y="-97" font-family="Helvetica,sans-Serif" font-size="10.00">/velocity/high_amplitude</text>
<text text-anchor="middle" x="774" y="-86" font-family="Helvetica,sans-Serif" font-size="10.00">_solver.cc</text>
</a>
</g>
</g>
<!-- Node21&#45;&gt;Node22 -->
<g id="edge28" class="edge"><title>Node21&#45;&gt;Node22</title>
<path fill="none" stroke="midnightblue" d="M774,-158.489C774,-149.309 774,-139.616 774,-131.092"/>
<polygon fill="midnightblue" stroke="midnightblue" points="770.5,-158.547 774,-168.547 777.5,-158.547 770.5,-158.547"/>
</g>
</g>
</svg>
