<?xml version="1.0" encoding="UTF-8" standalone="no"?>
<!DOCTYPE svg PUBLIC "-//W3C//DTD SVG 1.1//EN"
 "http://www.w3.org/Graphics/SVG/1.1/DTD/svg11.dtd">
<!-- Generated by graphviz version 2.36.0 (20140111.2315)
 -->
<!-- Title: /home/travis/build/igankevich/arma/src/apmath/fourier_gsl.hh Pages: 1 -->
<svg width="880pt" height="632pt"
 viewBox="0.00 0.00 880.00 632.00" xmlns="http://www.w3.org/2000/svg" xmlns:xlink="http://www.w3.org/1999/xlink">
<g id="graph0" class="graph" transform="scale(1 1) rotate(0) translate(4 628)">
<title>/home/travis/build/igankevich/arma/src/apmath/fourier_gsl.hh</title>
<!-- Node1 -->
<g id="node1" class="node"><title>Node1</title>
<polygon fill="#bfbfbf" stroke="black" points="520.499,-582.5 520.499,-623.5 633.499,-623.5 633.499,-582.5 520.499,-582.5"/>
<text text-anchor="start" x="528.499" y="-611.5" font-family="Helvetica,sans-Serif" font-size="10.00">/home/travis/build</text>
<text text-anchor="start" x="528.499" y="-600.5" font-family="Helvetica,sans-Serif" font-size="10.00">/igankevich/arma/src</text>
<text text-anchor="middle" x="576.999" y="-589.5" font-family="Helvetica,sans-Serif" font-size="10.00">/apmath/fourier_gsl.hh</text>
</g>
<!-- Node2 -->
<g id="node2" class="node"><title>Node2</title>
<g id="a_node2"><a xlink:href="fourier_8hh.html" target="_top" xlink:title="/home/travis/build\l/igankevich/arma/src\l/fourier.hh">
<polygon fill="none" stroke="black" points="523.499,-504.5 523.499,-545.5 630.499,-545.5 630.499,-504.5 523.499,-504.5"/>
<text text-anchor="start" x="531.499" y="-533.5" font-family="Helvetica,sans-Serif" font-size="10.00">/home/travis/build</text>
<text text-anchor="start" x="531.499" y="-522.5" font-family="Helvetica,sans-Serif" font-size="10.00">/igankevich/arma/src</text>
<text text-anchor="middle" x="576.999" y="-511.5" font-family="Helvetica,sans-Serif" font-size="10.00">/fourier.hh</text>
</a>
</g>
</g>
<!-- Node1&#45;&gt;Node2 -->
<g id="edge1" class="edge"><title>Node1&#45;&gt;Node2</title>
<path fill="none" stroke="midnightblue" d="M576.999,-572.297C576.999,-563.301 576.999,-553.653 576.999,-545.506"/>
<polygon fill="midnightblue" stroke="midnightblue" points="573.499,-572.428 576.999,-582.428 580.499,-572.428 573.499,-572.428"/>
</g>
<!-- Node3 -->
<g id="node3" class="node"><title>Node3</title>
<g id="a_node3"><a xlink:href="convolution_8hh.html" target="_top" xlink:title="/home/travis/build\l/igankevich/arma/src\l/apmath/convolution.hh">
<polygon fill="none" stroke="black" points="517.999,-426.5 517.999,-467.5 635.999,-467.5 635.999,-426.5 517.999,-426.5"/>
<text text-anchor="start" x="525.999" y="-455.5" font-family="Helvetica,sans-Serif" font-size="10.00">/home/travis/build</text>
<text text-anchor="start" x="525.999" y="-444.5" font-family="Helvetica,sans-Serif" font-size="10.00">/igankevich/arma/src</text>
<text text-anchor="middle" x="576.999" y="-433.5" font-family="Helvetica,sans-Serif" font-size="10.00">/apmath/convolution.hh</text>
</a>
</g>
</g>
<!-- Node2&#45;&gt;Node3 -->
<g id="edge2" class="edge"><title>Node2&#45;&gt;Node3</title>
<path fill="none" stroke="midnightblue" d="M576.999,-494.297C576.999,-485.301 576.999,-475.653 576.999,-467.506"/>
<polygon fill="midnightblue" stroke="midnightblue" points="573.499,-494.428 576.999,-504.428 580.499,-494.428 573.499,-494.428"/>
</g>
<!-- Node5 -->
<g id="node5" class="node"><title>Node5</title>
<g id="a_node5"><a xlink:href="arma_8hh.html" target="_top" xlink:title="/home/travis/build\l/igankevich/arma/src\l/arma.hh">
<polygon fill="none" stroke="black" points="234.499,-426.5 234.499,-467.5 341.499,-467.5 341.499,-426.5 234.499,-426.5"/>
<text text-anchor="start" x="242.499" y="-455.5" font-family="Helvetica,sans-Serif" font-size="10.00">/home/travis/build</text>
<text text-anchor="start" x="242.499" y="-444.5" font-family="Helvetica,sans-Serif" font-size="10.00">/igankevich/arma/src</text>
<text text-anchor="middle" x="287.999" y="-433.5" font-family="Helvetica,sans-Serif" font-size="10.00">/arma.hh</text>
</a>
</g>
</g>
<!-- Node2&#45;&gt;Node5 -->
<g id="edge4" class="edge"><title>Node2&#45;&gt;Node5</title>
<path fill="none" stroke="midnightblue" d="M513.643,-507.339C462.237,-493.82 390.559,-474.971 341.883,-462.17"/>
<polygon fill="midnightblue" stroke="midnightblue" points="512.756,-510.725 523.318,-509.883 514.537,-503.955 512.756,-510.725"/>
</g>
<!-- Node22 -->
<g id="node22" class="node"><title>Node22</title>
<g id="a_node22"><a xlink:href="linear__solver_8hh.html" target="_top" xlink:title="/home/travis/build\l/igankevich/arma/src\l/velocity/linear_solver.hh">
<polygon fill="none" stroke="black" points="605.499,-342.5 605.499,-383.5 730.499,-383.5 730.499,-342.5 605.499,-342.5"/>
<text text-anchor="start" x="613.499" y="-371.5" font-family="Helvetica,sans-Serif" font-size="10.00">/home/travis/build</text>
<text text-anchor="start" x="613.499" y="-360.5" font-family="Helvetica,sans-Serif" font-size="10.00">/igankevich/arma/src</text>
<text text-anchor="middle" x="667.999" y="-349.5" font-family="Helvetica,sans-Serif" font-size="10.00">/velocity/linear_solver.hh</text>
</a>
</g>
</g>
<!-- Node2&#45;&gt;Node22 -->
<g id="edge28" class="edge"><title>Node2&#45;&gt;Node22</title>
<path fill="none" stroke="midnightblue" d="M617.172,-498.259C627.629,-489.783 637.931,-479.534 644.999,-468 661.038,-441.827 665.947,-405.868 667.417,-383.819"/>
<polygon fill="midnightblue" stroke="midnightblue" points="614.994,-495.518 609.196,-504.386 619.259,-501.069 614.994,-495.518"/>
</g>
<!-- Node4 -->
<g id="node4" class="node"><title>Node4</title>
<g id="a_node4"><a xlink:href="ma__model_8cc.html" target="_top" xlink:title="/home/travis/build\l/igankevich/arma/src\l/generator/ma_model.cc">
<polygon fill="none" stroke="black" points="427.999,-252.5 427.999,-293.5 549.999,-293.5 549.999,-252.5 427.999,-252.5"/>
<text text-anchor="start" x="435.999" y="-281.5" font-family="Helvetica,sans-Serif" font-size="10.00">/home/travis/build</text>
<text text-anchor="start" x="435.999" y="-270.5" font-family="Helvetica,sans-Serif" font-size="10.00">/igankevich/arma/src</text>
<text text-anchor="middle" x="488.999" y="-259.5" font-family="Helvetica,sans-Serif" font-size="10.00">/generator/ma_model.cc</text>
</a>
</g>
</g>
<!-- Node3&#45;&gt;Node4 -->
<g id="edge3" class="edge"><title>Node3&#45;&gt;Node4</title>
<path fill="none" stroke="midnightblue" d="M577.069,-416.192C575.935,-393.013 571.676,-360.746 557.999,-336 548.651,-319.086 532.905,-304.406 518.814,-293.582"/>
<polygon fill="midnightblue" stroke="midnightblue" points="573.579,-416.571 577.397,-426.454 580.575,-416.347 573.579,-416.571"/>
</g>
<!-- Node6 -->
<g id="node6" class="node"><title>Node6</title>
<g id="a_node6"><a xlink:href="arma_8cc.html" target="_top" xlink:title="/home/travis/build\l/igankevich/arma/src\l/arma.cc">
<polygon fill="none" stroke="black" points="170.499,-342.5 170.499,-383.5 277.499,-383.5 277.499,-342.5 170.499,-342.5"/>
<text text-anchor="start" x="178.499" y="-371.5" font-family="Helvetica,sans-Serif" font-size="10.00">/home/travis/build</text>
<text text-anchor="start" x="178.499" y="-360.5" font-family="Helvetica,sans-Serif" font-size="10.00">/igankevich/arma/src</text>
<text text-anchor="middle" x="223.999" y="-349.5" font-family="Helvetica,sans-Serif" font-size="10.00">/arma.cc</text>
</a>
</g>
</g>
<!-- Node5&#45;&gt;Node6 -->
<g id="edge5" class="edge"><title>Node5&#45;&gt;Node6</title>
<path fill="none" stroke="midnightblue" d="M266.312,-418.214C257.458,-406.869 247.423,-394.012 239.349,-383.667"/>
<polygon fill="midnightblue" stroke="midnightblue" points="263.595,-420.42 272.507,-426.15 269.113,-416.113 263.595,-420.42"/>
</g>
<!-- Node7 -->
<g id="node7" class="node"><title>Node7</title>
<g id="a_node7"><a xlink:href="arma__driver_8hh.html" target="_top" xlink:title="/home/travis/build\l/igankevich/arma/src\l/arma_driver.hh">
<polygon fill="none" stroke="black" points="72.4991,-162.5 72.4991,-203.5 179.499,-203.5 179.499,-162.5 72.4991,-162.5"/>
<text text-anchor="start" x="80.4991" y="-191.5" font-family="Helvetica,sans-Serif" font-size="10.00">/home/travis/build</text>
<text text-anchor="start" x="80.4991" y="-180.5" font-family="Helvetica,sans-Serif" font-size="10.00">/igankevich/arma/src</text>
<text text-anchor="middle" x="125.999" y="-169.5" font-family="Helvetica,sans-Serif" font-size="10.00">/arma_driver.hh</text>
</a>
</g>
</g>
<!-- Node5&#45;&gt;Node7 -->
<g id="edge6" class="edge"><title>Node5&#45;&gt;Node7</title>
<path fill="none" stroke="midnightblue" d="M224.03,-441.306C154.895,-434.745 51.3131,-420.084 26.9991,-390 -13.2297,-340.224 -4.00064,-301.991 26.9991,-246 37.4115,-227.193 56.1745,-213.331 74.5875,-203.543"/>
<polygon fill="midnightblue" stroke="midnightblue" points="224.112,-444.828 234.389,-442.253 224.749,-437.857 224.112,-444.828"/>
</g>
<!-- Node14 -->
<g id="node14" class="node"><title>Node14</title>
<g id="a_node14"><a xlink:href="ar__model_8hh.html" target="_top" xlink:title="/home/travis/build\l/igankevich/arma/src\l/generator/ar_model.hh">
<polygon fill="none" stroke="black" points="35.9991,-342.5 35.9991,-383.5 151.999,-383.5 151.999,-342.5 35.9991,-342.5"/>
<text text-anchor="start" x="43.9991" y="-371.5" font-family="Helvetica,sans-Serif" font-size="10.00">/home/travis/build</text>
<text text-anchor="start" x="43.9991" y="-360.5" font-family="Helvetica,sans-Serif" font-size="10.00">/igankevich/arma/src</text>
<text text-anchor="middle" x="93.9991" y="-349.5" font-family="Helvetica,sans-Serif" font-size="10.00">/generator/ar_model.hh</text>
</a>
</g>
</g>
<!-- Node5&#45;&gt;Node14 -->
<g id="edge13" class="edge"><title>Node5&#45;&gt;Node14</title>
<path fill="none" stroke="midnightblue" d="M232.317,-422.464C203.223,-410.167 168.029,-395.291 140.424,-383.623"/>
<polygon fill="midnightblue" stroke="midnightblue" points="230.958,-425.689 241.531,-426.359 233.683,-419.242 230.958,-425.689"/>
</g>
<!-- Node20 -->
<g id="node20" class="node"><title>Node20</title>
<g id="a_node20"><a xlink:href="ma__model_8hh.html" target="_top" xlink:title="/home/travis/build\l/igankevich/arma/src\l/generator/ma_model.hh">
<polygon fill="none" stroke="black" points="426.999,-342.5 426.999,-383.5 548.999,-383.5 548.999,-342.5 426.999,-342.5"/>
<text text-anchor="start" x="434.999" y="-371.5" font-family="Helvetica,sans-Serif" font-size="10.00">/home/travis/build</text>
<text text-anchor="start" x="434.999" y="-360.5" font-family="Helvetica,sans-Serif" font-size="10.00">/igankevich/arma/src</text>
<text text-anchor="middle" x="487.999" y="-349.5" font-family="Helvetica,sans-Serif" font-size="10.00">/generator/ma_model.hh</text>
</a>
</g>
</g>
<!-- Node5&#45;&gt;Node20 -->
<g id="edge23" class="edge"><title>Node5&#45;&gt;Node20</title>
<path fill="none" stroke="midnightblue" d="M345.185,-422.554C375.302,-410.206 411.805,-395.24 440.367,-383.529"/>
<polygon fill="midnightblue" stroke="midnightblue" points="343.575,-419.431 335.65,-426.463 346.23,-425.908 343.575,-419.431"/>
</g>
<!-- Node21 -->
<g id="node21" class="node"><title>Node21</title>
<g id="a_node21"><a xlink:href="basic__arma__model_8cc.html" target="_top" xlink:title="/home/travis/build\l/igankevich/arma/src\l/generator/basic_arma\l_model.cc">
<polygon fill="none" stroke="black" points="295.499,-337 295.499,-389 408.499,-389 408.499,-337 295.499,-337"/>
<text text-anchor="start" x="303.499" y="-377" font-family="Helvetica,sans-Serif" font-size="10.00">/home/travis/build</text>
<text text-anchor="start" x="303.499" y="-366" font-family="Helvetica,sans-Serif" font-size="10.00">/igankevich/arma/src</text>
<text text-anchor="start" x="303.499" y="-355" font-family="Helvetica,sans-Serif" font-size="10.00">/generator/basic_arma</text>
<text text-anchor="middle" x="351.999" y="-344" font-family="Helvetica,sans-Serif" font-size="10.00">_model.cc</text>
</a>
</g>
</g>
<!-- Node5&#45;&gt;Node21 -->
<g id="edge27" class="edge"><title>Node5&#45;&gt;Node21</title>
<path fill="none" stroke="midnightblue" d="M309.673,-418.231C316.994,-408.851 325.122,-398.436 332.283,-389.261"/>
<polygon fill="midnightblue" stroke="midnightblue" points="306.885,-416.113 303.492,-426.15 312.404,-420.42 306.885,-416.113"/>
</g>
<!-- Node8 -->
<g id="node8" class="node"><title>Node8</title>
<g id="a_node8"><a xlink:href="arma__driver_8cc.html" target="_top" xlink:title="/home/travis/build\l/igankevich/arma/src\l/arma_driver.cc">
<polygon fill="none" stroke="black" points="84.4991,-78.5 84.4991,-119.5 191.499,-119.5 191.499,-78.5 84.4991,-78.5"/>
<text text-anchor="start" x="92.4991" y="-107.5" font-family="Helvetica,sans-Serif" font-size="10.00">/home/travis/build</text>
<text text-anchor="start" x="92.4991" y="-96.5" font-family="Helvetica,sans-Serif" font-size="10.00">/igankevich/arma/src</text>
<text text-anchor="middle" x="137.999" y="-85.5" font-family="Helvetica,sans-Serif" font-size="10.00">/arma_driver.cc</text>
</a>
</g>
</g>
<!-- Node7&#45;&gt;Node8 -->
<g id="edge7" class="edge"><title>Node7&#45;&gt;Node8</title>
<path fill="none" stroke="midnightblue" d="M130.358,-152.217C131.944,-141.379 133.695,-129.409 135.121,-119.667"/>
<polygon fill="midnightblue" stroke="midnightblue" points="126.889,-151.749 128.904,-162.15 133.815,-152.762 126.889,-151.749"/>
</g>
<!-- Node9 -->
<g id="node9" class="node"><title>Node9</title>
<g id="a_node9"><a xlink:href="arma__main_8cc.html" target="_top" xlink:title="/home/travis/build\l/igankevich/arma/src\l/arma_main.cc">
<polygon fill="none" stroke="black" points="106.499,-0.5 106.499,-41.5 213.499,-41.5 213.499,-0.5 106.499,-0.5"/>
<text text-anchor="start" x="114.499" y="-29.5" font-family="Helvetica,sans-Serif" font-size="10.00">/home/travis/build</text>
<text text-anchor="start" x="114.499" y="-18.5" font-family="Helvetica,sans-Serif" font-size="10.00">/igankevich/arma/src</text>
<text text-anchor="middle" x="159.999" y="-7.5" font-family="Helvetica,sans-Serif" font-size="10.00">/arma_main.cc</text>
</a>
</g>
</g>
<!-- Node7&#45;&gt;Node9 -->
<g id="edge8" class="edge"><title>Node7&#45;&gt;Node9</title>
<path fill="none" stroke="midnightblue" d="M96.7106,-154.704C87.9973,-144.724 79.5635,-132.734 74.9991,-120 68.7006,-102.428 66.1463,-94.4339 74.9991,-78 83.3801,-62.4421 98.1834,-50.4939 113.113,-41.7092"/>
<polygon fill="midnightblue" stroke="midnightblue" points="94.3311,-157.285 103.69,-162.252 99.4709,-152.533 94.3311,-157.285"/>
</g>
<!-- Node10 -->
<g id="node10" class="node"><title>Node10</title>
<g id="a_node10"><a xlink:href="arma__realtime__driver_8hh.html" target="_top" xlink:title="/home/travis/build\l/igankevich/arma/src\l/arma_realtime_driver.hh">
<polygon fill="none" stroke="black" points="459.999,-78.5 459.999,-119.5 583.999,-119.5 583.999,-78.5 459.999,-78.5"/>
<text text-anchor="start" x="467.999" y="-107.5" font-family="Helvetica,sans-Serif" font-size="10.00">/home/travis/build</text>
<text text-anchor="start" x="467.999" y="-96.5" font-family="Helvetica,sans-Serif" font-size="10.00">/igankevich/arma/src</text>
<text text-anchor="middle" x="521.999" y="-85.5" font-family="Helvetica,sans-Serif" font-size="10.00">/arma_realtime_driver.hh</text>
</a>
</g>
</g>
<!-- Node7&#45;&gt;Node10 -->
<g id="edge9" class="edge"><title>Node7&#45;&gt;Node10</title>
<path fill="none" stroke="midnightblue" d="M178.808,-159.084C182.226,-157.951 185.642,-156.908 188.999,-156 302.033,-125.417 335.329,-143.723 449.999,-120 453.175,-119.343 456.418,-118.623 459.683,-117.86"/>
<polygon fill="midnightblue" stroke="midnightblue" points="177.473,-155.844 169.218,-162.486 179.813,-162.441 177.473,-155.844"/>
</g>
<!-- Node13 -->
<g id="node13" class="node"><title>Node13</title>
<g id="a_node13"><a xlink:href="visual_8cc.html" target="_top" xlink:title="/home/travis/build\l/igankevich/arma/src\l/visual.cc">
<polygon fill="none" stroke="black" points="209.499,-78.5 209.499,-119.5 316.499,-119.5 316.499,-78.5 209.499,-78.5"/>
<text text-anchor="start" x="217.499" y="-107.5" font-family="Helvetica,sans-Serif" font-size="10.00">/home/travis/build</text>
<text text-anchor="start" x="217.499" y="-96.5" font-family="Helvetica,sans-Serif" font-size="10.00">/igankevich/arma/src</text>
<text text-anchor="middle" x="262.999" y="-85.5" font-family="Helvetica,sans-Serif" font-size="10.00">/visual.cc</text>
</a>
</g>
</g>
<!-- Node7&#45;&gt;Node13 -->
<g id="edge12" class="edge"><title>Node7&#45;&gt;Node13</title>
<path fill="none" stroke="midnightblue" d="M167.438,-157.197C187.472,-145.206 211.185,-131.013 229.977,-119.765"/>
<polygon fill="midnightblue" stroke="midnightblue" points="165.597,-154.22 158.814,-162.359 169.192,-160.226 165.597,-154.22"/>
</g>
<!-- Node11 -->
<g id="node11" class="node"><title>Node11</title>
<g id="a_node11"><a xlink:href="arma__realtime_8cc.html" target="_top" xlink:title="/home/travis/build\l/igankevich/arma/src\l/arma_realtime.cc">
<polygon fill="none" stroke="black" points="334.499,-0.5 334.499,-41.5 441.499,-41.5 441.499,-0.5 334.499,-0.5"/>
<text text-anchor="start" x="342.499" y="-29.5" font-family="Helvetica,sans-Serif" font-size="10.00">/home/travis/build</text>
<text text-anchor="start" x="342.499" y="-18.5" font-family="Helvetica,sans-Serif" font-size="10.00">/igankevich/arma/src</text>
<text text-anchor="middle" x="387.999" y="-7.5" font-family="Helvetica,sans-Serif" font-size="10.00">/arma_realtime.cc</text>
</a>
</g>
</g>
<!-- Node10&#45;&gt;Node11 -->
<g id="edge10" class="edge"><title>Node10&#45;&gt;Node11</title>
<path fill="none" stroke="midnightblue" d="M478.776,-73.4856C460.524,-63.1335 439.567,-51.2473 422.391,-41.5056"/>
<polygon fill="midnightblue" stroke="midnightblue" points="477.066,-76.5391 487.491,-78.4281 480.519,-70.4502 477.066,-76.5391"/>
</g>
<!-- Node12 -->
<g id="node12" class="node"><title>Node12</title>
<g id="a_node12"><a xlink:href="arma__realtime__driver_8cc.html" target="_top" xlink:title="/home/travis/build\l/igankevich/arma/src\l/arma_realtime_driver.cc">
<polygon fill="none" stroke="black" points="459.999,-0.5 459.999,-41.5 583.999,-41.5 583.999,-0.5 459.999,-0.5"/>
<text text-anchor="start" x="467.999" y="-29.5" font-family="Helvetica,sans-Serif" font-size="10.00">/home/travis/build</text>
<text text-anchor="start" x="467.999" y="-18.5" font-family="Helvetica,sans-Serif" font-size="10.00">/igankevich/arma/src</text>
<text text-anchor="middle" x="521.999" y="-7.5" font-family="Helvetica,sans-Serif" font-size="10.00">/arma_realtime_driver.cc</text>
</a>
</g>
</g>
<!-- Node10&#45;&gt;Node12 -->
<g id="edge11" class="edge"><title>Node10&#45;&gt;Node12</title>
<path fill="none" stroke="midnightblue" d="M521.999,-68.2965C521.999,-59.3009 521.999,-49.6532 521.999,-41.5056"/>
<polygon fill="midnightblue" stroke="midnightblue" points="518.499,-68.4281 521.999,-78.4281 525.499,-68.4281 518.499,-68.4281"/>
</g>
<!-- Node15 -->
<g id="node15" class="node"><title>Node15</title>
<g id="a_node15"><a xlink:href="register__all_8hh.html" target="_top" xlink:title="/home/travis/build\l/igankevich/arma/src\l/register_all.hh">
<polygon fill="none" stroke="black" points="346.499,-162.5 346.499,-203.5 453.499,-203.5 453.499,-162.5 346.499,-162.5"/>
<text text-anchor="start" x="354.499" y="-191.5" font-family="Helvetica,sans-Serif" font-size="10.00">/home/travis/build</text>
<text text-anchor="start" x="354.499" y="-180.5" font-family="Helvetica,sans-Serif" font-size="10.00">/igankevich/arma/src</text>
<text text-anchor="middle" x="399.999" y="-169.5" font-family="Helvetica,sans-Serif" font-size="10.00">/register_all.hh</text>
</a>
</g>
</g>
<!-- Node14&#45;&gt;Node15 -->
<g id="edge14" class="edge"><title>Node14&#45;&gt;Node15</title>
<path fill="none" stroke="midnightblue" d="M122.829,-335.333C157.822,-303.147 213.589,-252.501 224.999,-246 270.429,-220.117 287.905,-227.988 336.999,-210 342.443,-208.005 348.111,-205.822 353.718,-203.595"/>
<polygon fill="midnightblue" stroke="midnightblue" points="120.258,-332.943 115.274,-342.292 125,-338.092 120.258,-332.943"/>
</g>
<!-- Node17 -->
<g id="node17" class="node"><title>Node17</title>
<g id="a_node17"><a xlink:href="arma__model_8hh.html" target="_top" xlink:title="/home/travis/build\l/igankevich/arma/src\l/generator/arma_model.hh">
<polygon fill="none" stroke="black" points="233.999,-252.5 233.999,-293.5 363.999,-293.5 363.999,-252.5 233.999,-252.5"/>
<text text-anchor="start" x="241.999" y="-281.5" font-family="Helvetica,sans-Serif" font-size="10.00">/home/travis/build</text>
<text text-anchor="start" x="241.999" y="-270.5" font-family="Helvetica,sans-Serif" font-size="10.00">/igankevich/arma/src</text>
<text text-anchor="middle" x="298.999" y="-259.5" font-family="Helvetica,sans-Serif" font-size="10.00">/generator/arma_model.hh</text>
</a>
</g>
</g>
<!-- Node14&#45;&gt;Node17 -->
<g id="edge19" class="edge"><title>Node14&#45;&gt;Node17</title>
<path fill="none" stroke="midnightblue" d="M148.897,-338.434C181.521,-324.43 222.414,-306.875 253.276,-293.627"/>
<polygon fill="midnightblue" stroke="midnightblue" points="147.304,-335.309 139.495,-342.47 150.065,-341.741 147.304,-335.309"/>
</g>
<!-- Node19 -->
<g id="node19" class="node"><title>Node19</title>
<g id="a_node19"><a xlink:href="ar__model_8cc.html" target="_top" xlink:title="/home/travis/build\l/igankevich/arma/src\l/generator/ar_model.cc">
<polygon fill="none" stroke="black" points="35.9991,-252.5 35.9991,-293.5 151.999,-293.5 151.999,-252.5 35.9991,-252.5"/>
<text text-anchor="start" x="43.9991" y="-281.5" font-family="Helvetica,sans-Serif" font-size="10.00">/home/travis/build</text>
<text text-anchor="start" x="43.9991" y="-270.5" font-family="Helvetica,sans-Serif" font-size="10.00">/igankevich/arma/src</text>
<text text-anchor="middle" x="93.9991" y="-259.5" font-family="Helvetica,sans-Serif" font-size="10.00">/generator/ar_model.cc</text>
</a>
</g>
</g>
<!-- Node14&#45;&gt;Node19 -->
<g id="edge22" class="edge"><title>Node14&#45;&gt;Node19</title>
<path fill="none" stroke="midnightblue" d="M93.9991,-332.33C93.9991,-319.629 93.9991,-305.14 93.9991,-293.78"/>
<polygon fill="midnightblue" stroke="midnightblue" points="90.4992,-332.47 93.9991,-342.47 97.4992,-332.47 90.4992,-332.47"/>
</g>
<!-- Node15&#45;&gt;Node13 -->
<g id="edge18" class="edge"><title>Node15&#45;&gt;Node13</title>
<path fill="none" stroke="midnightblue" d="M358.56,-157.197C338.527,-145.206 314.814,-131.013 296.021,-119.765"/>
<polygon fill="midnightblue" stroke="midnightblue" points="356.806,-160.226 367.184,-162.359 360.401,-154.22 356.806,-160.226"/>
</g>
<!-- Node16 -->
<g id="node16" class="node"><title>Node16</title>
<g id="a_node16"><a xlink:href="common__main_8hh.html" target="_top" xlink:title="/home/travis/build\l/igankevich/arma/src\l/common_main.hh">
<polygon fill="none" stroke="black" points="334.499,-78.5 334.499,-119.5 441.499,-119.5 441.499,-78.5 334.499,-78.5"/>
<text text-anchor="start" x="342.499" y="-107.5" font-family="Helvetica,sans-Serif" font-size="10.00">/home/travis/build</text>
<text text-anchor="start" x="342.499" y="-96.5" font-family="Helvetica,sans-Serif" font-size="10.00">/igankevich/arma/src</text>
<text text-anchor="middle" x="387.999" y="-85.5" font-family="Helvetica,sans-Serif" font-size="10.00">/common_main.hh</text>
</a>
</g>
</g>
<!-- Node15&#45;&gt;Node16 -->
<g id="edge15" class="edge"><title>Node15&#45;&gt;Node16</title>
<path fill="none" stroke="midnightblue" d="M395.641,-152.217C394.055,-141.379 392.303,-129.409 390.877,-119.667"/>
<polygon fill="midnightblue" stroke="midnightblue" points="392.183,-152.762 397.094,-162.15 399.109,-151.749 392.183,-152.762"/>
</g>
<!-- Node16&#45;&gt;Node9 -->
<g id="edge16" class="edge"><title>Node16&#45;&gt;Node9</title>
<path fill="none" stroke="midnightblue" d="M324.648,-76.8828C289.788,-65.2629 246.997,-50.9994 213.777,-39.926"/>
<polygon fill="midnightblue" stroke="midnightblue" points="323.661,-80.2433 334.255,-80.0853 325.875,-73.6026 323.661,-80.2433"/>
</g>
<!-- Node16&#45;&gt;Node11 -->
<g id="edge17" class="edge"><title>Node16&#45;&gt;Node11</title>
<path fill="none" stroke="midnightblue" d="M387.999,-68.2965C387.999,-59.3009 387.999,-49.6532 387.999,-41.5056"/>
<polygon fill="midnightblue" stroke="midnightblue" points="384.499,-68.4281 387.999,-78.4281 391.499,-68.4281 384.499,-68.4281"/>
</g>
<!-- Node17&#45;&gt;Node15 -->
<g id="edge20" class="edge"><title>Node17&#45;&gt;Node15</title>
<path fill="none" stroke="midnightblue" d="M329.171,-245.712C344.607,-232.262 363.086,-216.162 377.297,-203.78"/>
<polygon fill="midnightblue" stroke="midnightblue" points="326.655,-243.262 321.414,-252.47 331.253,-248.54 326.655,-243.262"/>
</g>
<!-- Node18 -->
<g id="node18" class="node"><title>Node18</title>
<g id="a_node18"><a xlink:href="arma__model_8cc.html" target="_top" xlink:title="/home/travis/build\l/igankevich/arma/src\l/generator/arma_model.cc">
<polygon fill="none" stroke="black" points="197.999,-162.5 197.999,-203.5 327.999,-203.5 327.999,-162.5 197.999,-162.5"/>
<text text-anchor="start" x="205.999" y="-191.5" font-family="Helvetica,sans-Serif" font-size="10.00">/home/travis/build</text>
<text text-anchor="start" x="205.999" y="-180.5" font-family="Helvetica,sans-Serif" font-size="10.00">/igankevich/arma/src</text>
<text text-anchor="middle" x="262.999" y="-169.5" font-family="Helvetica,sans-Serif" font-size="10.00">/generator/arma_model.cc</text>
</a>
</g>
</g>
<!-- Node17&#45;&gt;Node18 -->
<g id="edge21" class="edge"><title>Node17&#45;&gt;Node18</title>
<path fill="none" stroke="midnightblue" d="M287.172,-243.09C281.903,-230.21 275.831,-215.367 271.091,-203.78"/>
<polygon fill="midnightblue" stroke="midnightblue" points="283.984,-244.54 291.01,-252.47 290.463,-241.889 283.984,-244.54"/>
</g>
<!-- Node20&#45;&gt;Node4 -->
<g id="edge26" class="edge"><title>Node20&#45;&gt;Node4</title>
<path fill="none" stroke="midnightblue" d="M488.336,-332.33C488.481,-319.629 488.645,-305.14 488.774,-293.78"/>
<polygon fill="midnightblue" stroke="midnightblue" points="484.835,-332.431 488.221,-342.47 491.835,-332.51 484.835,-332.431"/>
</g>
<!-- Node20&#45;&gt;Node15 -->
<g id="edge24" class="edge"><title>Node20&#45;&gt;Node15</title>
<path fill="none" stroke="midnightblue" d="M450.068,-335.972C438.339,-326.051 426.535,-313.776 418.999,-300 402.252,-269.385 399.4,-227.913 399.353,-203.747"/>
<polygon fill="midnightblue" stroke="midnightblue" points="448.137,-338.91 458.122,-342.453 452.525,-333.457 448.137,-338.91"/>
</g>
<!-- Node20&#45;&gt;Node17 -->
<g id="edge25" class="edge"><title>Node20&#45;&gt;Node17</title>
<path fill="none" stroke="midnightblue" d="M436.61,-338.073C406.662,-324.129 369.362,-306.762 341.153,-293.627"/>
<polygon fill="midnightblue" stroke="midnightblue" points="435.511,-341.422 446.054,-342.47 438.466,-335.076 435.511,-341.422"/>
</g>
<!-- Node22&#45;&gt;Node15 -->
<g id="edge32" class="edge"><title>Node22&#45;&gt;Node15</title>
<path fill="none" stroke="midnightblue" d="M634.741,-335.814C622.289,-325.295 608.408,-312.669 596.999,-300 577.361,-278.192 582.098,-264.102 558.999,-246 528.099,-221.785 486.591,-206.027 453.734,-196.459"/>
<polygon fill="midnightblue" stroke="midnightblue" points="632.747,-338.707 642.677,-342.402 637.218,-333.321 632.747,-338.707"/>
</g>
<!-- Node23 -->
<g id="node23" class="node"><title>Node23</title>
<g id="a_node23"><a xlink:href="high__amplitude__solver_8hh.html" target="_top" xlink:title="/home/travis/build\l/igankevich/arma/src\l/velocity/high_amplitude\l_solver.hh">
<polygon fill="none" stroke="black" points="605.999,-247 605.999,-299 727.999,-299 727.999,-247 605.999,-247"/>
<text text-anchor="start" x="613.999" y="-287" font-family="Helvetica,sans-Serif" font-size="10.00">/home/travis/build</text>
<text text-anchor="start" x="613.999" y="-276" font-family="Helvetica,sans-Serif" font-size="10.00">/igankevich/arma/src</text>
<text text-anchor="start" x="613.999" y="-265" font-family="Helvetica,sans-Serif" font-size="10.00">/velocity/high_amplitude</text>
<text text-anchor="middle" x="666.999" y="-254" font-family="Helvetica,sans-Serif" font-size="10.00">_solver.hh</text>
</a>
</g>
</g>
<!-- Node22&#45;&gt;Node23 -->
<g id="edge29" class="edge"><title>Node22&#45;&gt;Node23</title>
<path fill="none" stroke="midnightblue" d="M667.661,-332.255C667.539,-321.506 667.402,-309.484 667.285,-299.166"/>
<polygon fill="midnightblue" stroke="midnightblue" points="664.164,-332.51 667.777,-342.47 671.163,-332.431 664.164,-332.51"/>
</g>
<!-- Node25 -->
<g id="node25" class="node"><title>Node25</title>
<g id="a_node25"><a xlink:href="linear__solver_8cc.html" target="_top" xlink:title="/home/travis/build\l/igankevich/arma/src\l/velocity/linear_solver.cc">
<polygon fill="none" stroke="black" points="746.499,-252.5 746.499,-293.5 871.499,-293.5 871.499,-252.5 746.499,-252.5"/>
<text text-anchor="start" x="754.499" y="-281.5" font-family="Helvetica,sans-Serif" font-size="10.00">/home/travis/build</text>
<text text-anchor="start" x="754.499" y="-270.5" font-family="Helvetica,sans-Serif" font-size="10.00">/igankevich/arma/src</text>
<text text-anchor="middle" x="808.999" y="-259.5" font-family="Helvetica,sans-Serif" font-size="10.00">/velocity/linear_solver.cc</text>
</a>
</g>
</g>
<!-- Node22&#45;&gt;Node25 -->
<g id="edge33" class="edge"><title>Node22&#45;&gt;Node25</title>
<path fill="none" stroke="midnightblue" d="M708.057,-336.999C730.007,-323.3 756.829,-306.56 777.307,-293.78"/>
<polygon fill="midnightblue" stroke="midnightblue" points="705.922,-334.206 699.292,-342.47 709.628,-340.145 705.922,-334.206"/>
</g>
<!-- Node23&#45;&gt;Node15 -->
<g id="edge30" class="edge"><title>Node23&#45;&gt;Node15</title>
<path fill="none" stroke="midnightblue" d="M595.779,-247.269C594.51,-246.842 593.249,-246.418 591.999,-246 545.496,-230.433 492.434,-213.35 453.894,-201.065"/>
<polygon fill="midnightblue" stroke="midnightblue" points="595.046,-250.716 605.641,-250.61 597.292,-244.086 595.046,-250.716"/>
</g>
<!-- Node24 -->
<g id="node24" class="node"><title>Node24</title>
<g id="a_node24"><a xlink:href="high__amplitude__solver_8cc.html" target="_top" xlink:title="/home/travis/build\l/igankevich/arma/src\l/velocity/high_amplitude\l_solver.cc">
<polygon fill="none" stroke="black" points="605.999,-157 605.999,-209 727.999,-209 727.999,-157 605.999,-157"/>
<text text-anchor="start" x="613.999" y="-197" font-family="Helvetica,sans-Serif" font-size="10.00">/home/travis/build</text>
<text text-anchor="start" x="613.999" y="-186" font-family="Helvetica,sans-Serif" font-size="10.00">/igankevich/arma/src</text>
<text text-anchor="start" x="613.999" y="-175" font-family="Helvetica,sans-Serif" font-size="10.00">/velocity/high_amplitude</text>
<text text-anchor="middle" x="666.999" y="-164" font-family="Helvetica,sans-Serif" font-size="10.00">_solver.cc</text>
</a>
</g>
</g>
<!-- Node23&#45;&gt;Node24 -->
<g id="edge31" class="edge"><title>Node23&#45;&gt;Node24</title>
<path fill="none" stroke="midnightblue" d="M666.999,-236.489C666.999,-227.309 666.999,-217.616 666.999,-209.092"/>
<polygon fill="midnightblue" stroke="midnightblue" points="663.499,-236.547 666.999,-246.547 670.499,-236.547 663.499,-236.547"/>
</g>
</g>
</svg>
