<?xml version="1.0" encoding="UTF-8" standalone="no"?>
<!DOCTYPE svg PUBLIC "-//W3C//DTD SVG 1.1//EN"
 "http://www.w3.org/Graphics/SVG/1.1/DTD/svg11.dtd">
<!-- Generated by graphviz version 2.36.0 (20140111.2315)
 -->
<!-- Title: /home/travis/build/igankevich/arma/src/generator/ar_model_bscheduler.cc Pages: 1 -->
<svg width="1063pt" height="330pt"
 viewBox="0.00 0.00 1063.00 330.00" xmlns="http://www.w3.org/2000/svg" xmlns:xlink="http://www.w3.org/1999/xlink">
<g id="graph0" class="graph" transform="scale(1 1) rotate(0) translate(4 326)">
<title>/home/travis/build/igankevich/arma/src/generator/ar_model_bscheduler.cc</title>
<!-- Node1 -->
<g id="node1" class="node"><title>Node1</title>
<polygon fill="#bfbfbf" stroke="black" points="550.5,-280.5 550.5,-321.5 719.5,-321.5 719.5,-280.5 550.5,-280.5"/>
<text text-anchor="start" x="558.5" y="-309.5" font-family="Helvetica,sans-Serif" font-size="10.00">/home/travis/build</text>
<text text-anchor="start" x="558.5" y="-298.5" font-family="Helvetica,sans-Serif" font-size="10.00">/igankevich/arma/src</text>
<text text-anchor="middle" x="635" y="-287.5" font-family="Helvetica,sans-Serif" font-size="10.00">/generator/ar_model_bscheduler.cc</text>
</g>
<!-- Node2 -->
<g id="node2" class="node"><title>Node2</title>
<polygon fill="none" stroke="#bfbfbf" points="82,-224.5 82,-243.5 126,-243.5 126,-224.5 82,-224.5"/>
<text text-anchor="middle" x="104" y="-231.5" font-family="Helvetica,sans-Serif" font-size="10.00">thread</text>
</g>
<!-- Node1&#45;&gt;Node2 -->
<g id="edge1" class="edge"><title>Node1&#45;&gt;Node2</title>
<path fill="none" stroke="midnightblue" d="M550.278,-294.944C452.43,-288.108 286.646,-273.461 136.13,-243.918"/>
<polygon fill="midnightblue" stroke="midnightblue" points="136.729,-240.468 126.238,-241.95 135.363,-247.334 136.729,-240.468"/>
</g>
<!-- Node3 -->
<g id="node3" class="node"><title>Node3</title>
<polygon fill="none" stroke="#bfbfbf" points="122,-168.5 122,-187.5 166,-187.5 166,-168.5 122,-168.5"/>
<text text-anchor="middle" x="144" y="-175.5" font-family="Helvetica,sans-Serif" font-size="10.00">vector</text>
</g>
<!-- Node1&#45;&gt;Node3 -->
<g id="edge2" class="edge"><title>Node1&#45;&gt;Node3</title>
<path fill="none" stroke="midnightblue" d="M555.84,-280.492C445.997,-253.423 252.278,-205.684 176.075,-186.905"/>
<polygon fill="midnightblue" stroke="midnightblue" points="176.671,-183.447 166.124,-184.452 174.996,-190.243 176.671,-183.447"/>
</g>
<!-- Node4 -->
<g id="node4" class="node"><title>Node4</title>
<polygon fill="none" stroke="#bfbfbf" points="626.5,-224.5 626.5,-243.5 719.5,-243.5 719.5,-224.5 626.5,-224.5"/>
<text text-anchor="middle" x="673" y="-231.5" font-family="Helvetica,sans-Serif" font-size="10.00">bscheduler/api.hh</text>
</g>
<!-- Node1&#45;&gt;Node4 -->
<g id="edge3" class="edge"><title>Node1&#45;&gt;Node4</title>
<path fill="none" stroke="midnightblue" d="M646.401,-280.498C651.611,-271.586 657.734,-261.113 662.791,-252.464"/>
<polygon fill="midnightblue" stroke="midnightblue" points="665.916,-254.052 667.942,-243.652 659.873,-250.519 665.916,-254.052"/>
</g>
<!-- Node5 -->
<g id="node5" class="node"><title>Node5</title>
<polygon fill="none" stroke="#bfbfbf" points="737,-224.5 737,-243.5 793,-243.5 793,-224.5 737,-224.5"/>
<text text-anchor="middle" x="765" y="-231.5" font-family="Helvetica,sans-Serif" font-size="10.00">config.hh</text>
</g>
<!-- Node1&#45;&gt;Node5 -->
<g id="edge4" class="edge"><title>Node1&#45;&gt;Node5</title>
<path fill="none" stroke="midnightblue" d="M674.004,-280.498C694.894,-270.053 720.072,-257.464 738.644,-248.178"/>
<polygon fill="midnightblue" stroke="midnightblue" points="740.316,-251.255 747.695,-243.652 737.185,-244.994 740.316,-251.255"/>
</g>
<!-- Node6 -->
<g id="node6" class="node"><title>Node6</title>
<g id="a_node6"><a xlink:href="parallel__mt_8hh.html" target="_top" xlink:title="parallel_mt.hh">
<polygon fill="none" stroke="black" points="492.5,-224.5 492.5,-243.5 569.5,-243.5 569.5,-224.5 492.5,-224.5"/>
<text text-anchor="middle" x="531" y="-231.5" font-family="Helvetica,sans-Serif" font-size="10.00">parallel_mt.hh</text>
</a>
</g>
</g>
<!-- Node1&#45;&gt;Node6 -->
<g id="edge5" class="edge"><title>Node1&#45;&gt;Node6</title>
<path fill="none" stroke="midnightblue" d="M603.797,-280.498C587.698,-270.436 568.416,-258.385 553.742,-249.214"/>
<polygon fill="midnightblue" stroke="midnightblue" points="555.179,-245.985 544.844,-243.652 551.469,-251.921 555.179,-245.985"/>
</g>
<!-- Node18 -->
<g id="node18" class="node"><title>Node18</title>
<g id="a_node18"><a xlink:href="profile_8hh.html" target="_top" xlink:title="profile.hh">
<polygon fill="none" stroke="black" points="941,-168.5 941,-187.5 997,-187.5 997,-168.5 941,-168.5"/>
<text text-anchor="middle" x="969" y="-175.5" font-family="Helvetica,sans-Serif" font-size="10.00">profile.hh</text>
</a>
</g>
</g>
<!-- Node1&#45;&gt;Node18 -->
<g id="edge18" class="edge"><title>Node1&#45;&gt;Node18</title>
<path fill="none" stroke="midnightblue" d="M699.617,-280.496C730.651,-270.55 768.148,-257.677 801,-244 819.349,-236.361 822.699,-231.756 841,-224 871.06,-211.26 906.091,-199.125 931.898,-190.674"/>
<polygon fill="midnightblue" stroke="midnightblue" points="933.222,-193.924 941.655,-187.51 931.063,-187.265 933.222,-193.924"/>
</g>
<!-- Node19 -->
<g id="node19" class="node"><title>Node19</title>
<g id="a_node19"><a xlink:href="profile__counters_8hh.html" target="_top" xlink:title="profile_counters.hh">
<polygon fill="none" stroke="black" points="849.5,-224.5 849.5,-243.5 948.5,-243.5 948.5,-224.5 849.5,-224.5"/>
<text text-anchor="middle" x="899" y="-231.5" font-family="Helvetica,sans-Serif" font-size="10.00">profile_counters.hh</text>
</a>
</g>
</g>
<!-- Node1&#45;&gt;Node19 -->
<g id="edge19" class="edge"><title>Node1&#45;&gt;Node19</title>
<path fill="none" stroke="midnightblue" d="M714.209,-280.498C760.078,-269.204 816.131,-255.403 854.393,-245.983"/>
<polygon fill="midnightblue" stroke="midnightblue" points="855.331,-249.356 864.205,-243.567 853.658,-242.559 855.331,-249.356"/>
</g>
<!-- Node20 -->
<g id="node20" class="node"><title>Node20</title>
<g id="a_node20"><a xlink:href="util_8hh.html" target="_top" xlink:title="util.hh">
<polygon fill="none" stroke="black" points="879.5,-168.5 879.5,-187.5 922.5,-187.5 922.5,-168.5 879.5,-168.5"/>
<text text-anchor="middle" x="901" y="-175.5" font-family="Helvetica,sans-Serif" font-size="10.00">util.hh</text>
</a>
</g>
</g>
<!-- Node1&#45;&gt;Node20 -->
<g id="edge21" class="edge"><title>Node1&#45;&gt;Node20</title>
<path fill="none" stroke="midnightblue" d="M622.207,-280.259C613.071,-263.423 604.557,-239.545 618,-224 654.284,-182.044 810.581,-198.74 865,-188 866.462,-187.712 867.953,-187.402 869.457,-187.077"/>
<polygon fill="midnightblue" stroke="midnightblue" points="870.425,-190.445 879.377,-184.779 868.845,-183.626 870.425,-190.445"/>
</g>
<!-- Node25 -->
<g id="node25" class="node"><title>Node25</title>
<g id="a_node25"><a xlink:href="ar__model__wn_8cc.html" target="_top" xlink:title="ar_model_wn.cc">
<polygon fill="none" stroke="black" points="967,-224.5 967,-243.5 1055,-243.5 1055,-224.5 967,-224.5"/>
<text text-anchor="middle" x="1011" y="-231.5" font-family="Helvetica,sans-Serif" font-size="10.00">ar_model_wn.cc</text>
</a>
</g>
</g>
<!-- Node1&#45;&gt;Node25 -->
<g id="edge26" class="edge"><title>Node1&#45;&gt;Node25</title>
<path fill="none" stroke="midnightblue" d="M719.851,-285.332C792.482,-272.776 894.864,-255.077 956.871,-244.357"/>
<polygon fill="midnightblue" stroke="midnightblue" points="957.581,-247.787 966.839,-242.634 956.389,-240.889 957.581,-247.787"/>
</g>
<!-- Node26 -->
<g id="node26" class="node"><title>Node26</title>
<g id="a_node26"><a xlink:href="bscheduler__io_8hh.html" target="_top" xlink:title="bits/bscheduler_io.hh">
<polygon fill="none" stroke="black" points="144.5,-224.5 144.5,-243.5 253.5,-243.5 253.5,-224.5 144.5,-224.5"/>
<text text-anchor="middle" x="199" y="-231.5" font-family="Helvetica,sans-Serif" font-size="10.00">bits/bscheduler_io.hh</text>
</a>
</g>
</g>
<!-- Node1&#45;&gt;Node26 -->
<g id="edge27" class="edge"><title>Node1&#45;&gt;Node26</title>
<path fill="none" stroke="midnightblue" d="M550.418,-287.39C466.52,-274.883 339.786,-255.989 263.639,-244.637"/>
<polygon fill="midnightblue" stroke="midnightblue" points="264.104,-241.167 253.697,-243.154 263.072,-248.091 264.104,-241.167"/>
</g>
<!-- Node6&#45;&gt;Node3 -->
<g id="edge13" class="edge"><title>Node6&#45;&gt;Node3</title>
<path fill="none" stroke="midnightblue" d="M492.333,-229.542C427.425,-223.403 292.597,-209.216 180,-188 178.754,-187.765 177.486,-187.513 176.208,-187.248"/>
<polygon fill="midnightblue" stroke="midnightblue" points="176.904,-183.817 166.379,-185.027 175.361,-190.645 176.904,-183.817"/>
</g>
<!-- Node7 -->
<g id="node7" class="node"><title>Node7</title>
<polygon fill="none" stroke="#bfbfbf" points="355.5,-168.5 355.5,-187.5 400.5,-187.5 400.5,-168.5 355.5,-168.5"/>
<text text-anchor="middle" x="378" y="-175.5" font-family="Helvetica,sans-Serif" font-size="10.00">cstdlib</text>
</g>
<!-- Node6&#45;&gt;Node7 -->
<g id="edge6" class="edge"><title>Node6&#45;&gt;Node7</title>
<path fill="none" stroke="midnightblue" d="M506.757,-224.444C480.677,-215.239 439.077,-200.556 410.251,-190.383"/>
<polygon fill="midnightblue" stroke="midnightblue" points="411.228,-187.016 400.634,-186.988 408.899,-193.617 411.228,-187.016"/>
</g>
<!-- Node8 -->
<g id="node8" class="node"><title>Node8</title>
<polygon fill="none" stroke="#bfbfbf" points="580,-0.5 580,-19.5 636,-19.5 636,-0.5 580,-0.5"/>
<text text-anchor="middle" x="608" y="-7.5" font-family="Helvetica,sans-Serif" font-size="10.00">algorithm</text>
</g>
<!-- Node6&#45;&gt;Node8 -->
<g id="edge7" class="edge"><title>Node6&#45;&gt;Node8</title>
<path fill="none" stroke="midnightblue" d="M569.693,-227.88C650.006,-217.164 827.732,-192.954 832,-188 896.456,-113.191 724.921,-47.6197 645.671,-22.2161"/>
<polygon fill="midnightblue" stroke="midnightblue" points="646.625,-18.8469 636.035,-19.1794 644.521,-25.5233 646.625,-18.8469"/>
</g>
<!-- Node9 -->
<g id="node9" class="node"><title>Node9</title>
<polygon fill="none" stroke="#bfbfbf" points="419,-168.5 419,-187.5 465,-187.5 465,-168.5 419,-168.5"/>
<text text-anchor="middle" x="442" y="-175.5" font-family="Helvetica,sans-Serif" font-size="10.00">cstdint</text>
</g>
<!-- Node6&#45;&gt;Node9 -->
<g id="edge8" class="edge"><title>Node6&#45;&gt;Node9</title>
<path fill="none" stroke="midnightblue" d="M516.701,-224.324C502.817,-215.9 481.508,-202.971 465.196,-193.074"/>
<polygon fill="midnightblue" stroke="midnightblue" points="466.629,-189.85 456.264,-187.655 462.998,-195.834 466.629,-189.85"/>
</g>
<!-- Node10 -->
<g id="node10" class="node"><title>Node10</title>
<polygon fill="none" stroke="#bfbfbf" points="483,-168.5 483,-187.5 529,-187.5 529,-168.5 483,-168.5"/>
<text text-anchor="middle" x="506" y="-175.5" font-family="Helvetica,sans-Serif" font-size="10.00">cstring</text>
</g>
<!-- Node6&#45;&gt;Node10 -->
<g id="edge9" class="edge"><title>Node6&#45;&gt;Node10</title>
<path fill="none" stroke="midnightblue" d="M526.872,-224.083C523.486,-216.77 518.584,-206.181 514.381,-197.103"/>
<polygon fill="midnightblue" stroke="midnightblue" points="517.429,-195.355 510.051,-187.751 511.077,-198.296 517.429,-195.355"/>
</g>
<!-- Node11 -->
<g id="node11" class="node"><title>Node11</title>
<polygon fill="none" stroke="#bfbfbf" points="148.5,-112.5 148.5,-131.5 197.5,-131.5 197.5,-112.5 148.5,-112.5"/>
<text text-anchor="middle" x="173" y="-119.5" font-family="Helvetica,sans-Serif" font-size="10.00">istream</text>
</g>
<!-- Node6&#45;&gt;Node11 -->
<g id="edge10" class="edge"><title>Node6&#45;&gt;Node11</title>
<path fill="none" stroke="midnightblue" d="M492.38,-229.387C412.795,-221.677 236.031,-203.084 213,-188 196.249,-177.028 185.335,-156.359 179.205,-141.264"/>
<polygon fill="midnightblue" stroke="midnightblue" points="182.484,-140.041 175.712,-131.893 175.925,-142.486 182.484,-140.041"/>
</g>
<!-- Node12 -->
<g id="node12" class="node"><title>Node12</title>
<polygon fill="none" stroke="#bfbfbf" points="585,-168.5 585,-187.5 625,-187.5 625,-168.5 585,-168.5"/>
<text text-anchor="middle" x="605" y="-175.5" font-family="Helvetica,sans-Serif" font-size="10.00">limits</text>
</g>
<!-- Node6&#45;&gt;Node12 -->
<g id="edge11" class="edge"><title>Node6&#45;&gt;Node12</title>
<path fill="none" stroke="midnightblue" d="M542.889,-224.324C554.15,-216.107 571.287,-203.602 584.709,-193.807"/>
<polygon fill="midnightblue" stroke="midnightblue" points="586.88,-196.556 592.894,-187.834 582.753,-190.901 586.88,-196.556"/>
</g>
<!-- Node13 -->
<g id="node13" class="node"><title>Node13</title>
<polygon fill="none" stroke="#bfbfbf" points="455.5,-56.5 455.5,-75.5 514.5,-75.5 514.5,-56.5 455.5,-56.5"/>
<text text-anchor="middle" x="485" y="-63.5" font-family="Helvetica,sans-Serif" font-size="10.00">stdexcept</text>
</g>
<!-- Node6&#45;&gt;Node13 -->
<g id="edge12" class="edge"><title>Node6&#45;&gt;Node13</title>
<path fill="none" stroke="midnightblue" d="M533.777,-224.46C537.442,-211.913 542.889,-187.836 538,-168 530.141,-136.11 510.218,-103.147 497.163,-83.8869"/>
<polygon fill="midnightblue" stroke="midnightblue" points="499.976,-81.8023 491.388,-75.5977 494.232,-85.8036 499.976,-81.8023"/>
</g>
<!-- Node14 -->
<g id="node14" class="node"><title>Node14</title>
<polygon fill="none" stroke="#bfbfbf" points="643,-168.5 643,-187.5 693,-187.5 693,-168.5 643,-168.5"/>
<text text-anchor="middle" x="668" y="-175.5" font-family="Helvetica,sans-Serif" font-size="10.00">fstream</text>
</g>
<!-- Node6&#45;&gt;Node14 -->
<g id="edge14" class="edge"><title>Node6&#45;&gt;Node14</title>
<path fill="none" stroke="midnightblue" d="M552.708,-224.444C575.355,-215.517 611.072,-201.439 636.752,-191.317"/>
<polygon fill="midnightblue" stroke="midnightblue" points="638.374,-194.44 646.394,-187.516 635.807,-187.927 638.374,-194.44"/>
</g>
<!-- Node15 -->
<g id="node15" class="node"><title>Node15</title>
<polygon fill="none" stroke="#bfbfbf" points="711.5,-168.5 711.5,-187.5 758.5,-187.5 758.5,-168.5 711.5,-168.5"/>
<text text-anchor="middle" x="735" y="-175.5" font-family="Helvetica,sans-Serif" font-size="10.00">iterator</text>
</g>
<!-- Node6&#45;&gt;Node15 -->
<g id="edge15" class="edge"><title>Node6&#45;&gt;Node15</title>
<path fill="none" stroke="midnightblue" d="M563.805,-224.46C596.295,-215.981 647.72,-202.507 701.504,-188.116"/>
<polygon fill="midnightblue" stroke="midnightblue" points="702.46,-191.483 711.214,-185.514 700.649,-184.721 702.46,-191.483"/>
</g>
<!-- Node16 -->
<g id="node16" class="node"><title>Node16</title>
<polygon fill="none" stroke="#bfbfbf" points="777,-168.5 777,-187.5 823,-187.5 823,-168.5 777,-168.5"/>
<text text-anchor="middle" x="800" y="-175.5" font-family="Helvetica,sans-Serif" font-size="10.00">chrono</text>
</g>
<!-- Node6&#45;&gt;Node16 -->
<g id="edge16" class="edge"><title>Node6&#45;&gt;Node16</title>
<path fill="none" stroke="midnightblue" d="M569.958,-225.953C626.908,-215.585 730.122,-196.531 767,-188 767.101,-187.977 767.203,-187.953 767.304,-187.929"/>
<polygon fill="midnightblue" stroke="midnightblue" points="768.119,-191.334 776.979,-185.524 766.43,-184.54 768.119,-191.334"/>
</g>
<!-- Node17 -->
<g id="node17" class="node"><title>Node17</title>
<polygon fill="none" stroke="#bfbfbf" points="302.5,-168.5 302.5,-187.5 337.5,-187.5 337.5,-168.5 302.5,-168.5"/>
<text text-anchor="middle" x="320" y="-175.5" font-family="Helvetica,sans-Serif" font-size="10.00">dc.h</text>
</g>
<!-- Node6&#45;&gt;Node17 -->
<g id="edge17" class="edge"><title>Node6&#45;&gt;Node17</title>
<path fill="none" stroke="midnightblue" d="M492.452,-224.741C456.89,-216.874 402.466,-204.211 347.154,-188.149"/>
<polygon fill="midnightblue" stroke="midnightblue" points="348.131,-184.788 337.549,-185.327 346.157,-191.504 348.131,-184.788"/>
</g>
<!-- Node19&#45;&gt;Node18 -->
<g id="edge20" class="edge"><title>Node19&#45;&gt;Node18</title>
<path fill="none" stroke="midnightblue" d="M910.247,-224.324C920.797,-216.185 936.801,-203.839 949.442,-194.087"/>
<polygon fill="midnightblue" stroke="midnightblue" points="951.769,-196.713 957.549,-187.834 947.493,-191.171 951.769,-196.713"/>
</g>
<!-- Node21 -->
<g id="node21" class="node"><title>Node21</title>
<polygon fill="none" stroke="#bfbfbf" points="430,-112.5 430,-131.5 482,-131.5 482,-112.5 430,-112.5"/>
<text text-anchor="middle" x="456" y="-119.5" font-family="Helvetica,sans-Serif" font-size="10.00">ostream</text>
</g>
<!-- Node20&#45;&gt;Node21 -->
<g id="edge22" class="edge"><title>Node20&#45;&gt;Node21</title>
<path fill="none" stroke="midnightblue" d="M879.254,-174.104C865.674,-172.31 847.823,-169.979 832,-168 707.535,-152.435 559.745,-135.076 492.531,-127.242"/>
<polygon fill="midnightblue" stroke="midnightblue" points="492.789,-123.748 482.452,-126.068 491.98,-130.701 492.789,-123.748"/>
</g>
<!-- Node22 -->
<g id="node22" class="node"><title>Node22</title>
<polygon fill="none" stroke="#bfbfbf" points="944.5,-112.5 944.5,-131.5 973.5,-131.5 973.5,-112.5 944.5,-112.5"/>
<text text-anchor="middle" x="959" y="-119.5" font-family="Helvetica,sans-Serif" font-size="10.00">ios</text>
</g>
<!-- Node20&#45;&gt;Node22 -->
<g id="edge23" class="edge"><title>Node20&#45;&gt;Node22</title>
<path fill="none" stroke="midnightblue" d="M910.319,-168.324C918.893,-160.341 931.812,-148.313 942.188,-138.653"/>
<polygon fill="midnightblue" stroke="midnightblue" points="944.578,-141.21 949.512,-131.834 939.808,-136.086 944.578,-141.21"/>
</g>
<!-- Node23 -->
<g id="node23" class="node"><title>Node23</title>
<polygon fill="none" stroke="#bfbfbf" points="876,-112.5 876,-131.5 926,-131.5 926,-112.5 876,-112.5"/>
<text text-anchor="middle" x="901" y="-119.5" font-family="Helvetica,sans-Serif" font-size="10.00">iomanip</text>
</g>
<!-- Node20&#45;&gt;Node23 -->
<g id="edge24" class="edge"><title>Node20&#45;&gt;Node23</title>
<path fill="none" stroke="midnightblue" d="M901,-168.083C901,-161.006 901,-150.861 901,-141.986"/>
<polygon fill="midnightblue" stroke="midnightblue" points="904.5,-141.751 901,-131.751 897.5,-141.751 904.5,-141.751"/>
</g>
<!-- Node24 -->
<g id="node24" class="node"><title>Node24</title>
<polygon fill="none" stroke="#bfbfbf" points="991,-112.5 991,-131.5 1035,-131.5 1035,-112.5 991,-112.5"/>
<text text-anchor="middle" x="1013" y="-119.5" font-family="Helvetica,sans-Serif" font-size="10.00">mutex</text>
</g>
<!-- Node20&#45;&gt;Node24 -->
<g id="edge25" class="edge"><title>Node20&#45;&gt;Node24</title>
<path fill="none" stroke="midnightblue" d="M918.995,-168.324C937.038,-159.625 965.047,-146.12 985.803,-136.113"/>
<polygon fill="midnightblue" stroke="midnightblue" points="987.562,-139.15 995.05,-131.655 984.522,-132.845 987.562,-139.15"/>
</g>
<!-- Node26&#45;&gt;Node3 -->
<g id="edge28" class="edge"><title>Node26&#45;&gt;Node3</title>
<path fill="none" stroke="midnightblue" d="M189.918,-224.083C181.829,-216.141 169.805,-204.335 160.09,-194.797"/>
<polygon fill="midnightblue" stroke="midnightblue" points="162.501,-192.26 152.913,-187.751 157.597,-197.254 162.501,-192.26"/>
</g>
<!-- Node27 -->
<g id="node27" class="node"><title>Node27</title>
<g id="a_node27"><a xlink:href="domain_8hh.html" target="_top" xlink:title="domain.hh">
<polygon fill="none" stroke="black" points="222,-168.5 222,-187.5 284,-187.5 284,-168.5 222,-168.5"/>
<text text-anchor="middle" x="253" y="-175.5" font-family="Helvetica,sans-Serif" font-size="10.00">domain.hh</text>
</a>
</g>
</g>
<!-- Node26&#45;&gt;Node27 -->
<g id="edge29" class="edge"><title>Node26&#45;&gt;Node27</title>
<path fill="none" stroke="midnightblue" d="M207.917,-224.083C215.78,-216.22 227.431,-204.569 236.919,-195.081"/>
<polygon fill="midnightblue" stroke="midnightblue" points="239.653,-197.297 244.249,-187.751 234.703,-192.347 239.653,-197.297"/>
</g>
<!-- Node32 -->
<g id="node32" class="node"><title>Node32</title>
<g id="a_node32"><a xlink:href="grid_8hh.html" target="_top" xlink:title="grid.hh">
<polygon fill="none" stroke="black" points="58,-168.5 58,-187.5 104,-187.5 104,-168.5 58,-168.5"/>
<text text-anchor="middle" x="81" y="-175.5" font-family="Helvetica,sans-Serif" font-size="10.00">grid.hh</text>
</a>
</g>
</g>
<!-- Node26&#45;&gt;Node32 -->
<g id="edge41" class="edge"><title>Node26&#45;&gt;Node32</title>
<path fill="none" stroke="midnightblue" d="M180.303,-224.444C161.056,-215.636 130.848,-201.812 108.8,-191.722"/>
<polygon fill="midnightblue" stroke="midnightblue" points="110.16,-188.495 99.61,-187.516 107.247,-194.86 110.16,-188.495"/>
</g>
<!-- Node33 -->
<g id="node33" class="node"><title>Node33</title>
<g id="a_node33"><a xlink:href="types_8hh.html" target="_top" xlink:title="types.hh">
<polygon fill="none" stroke="black" points="0,-56.5 0,-75.5 54,-75.5 54,-56.5 0,-56.5"/>
<text text-anchor="middle" x="27" y="-63.5" font-family="Helvetica,sans-Serif" font-size="10.00">types.hh</text>
</a>
</g>
</g>
<!-- Node26&#45;&gt;Node33 -->
<g id="edge46" class="edge"><title>Node26&#45;&gt;Node33</title>
<path fill="none" stroke="midnightblue" d="M152.046,-224.459C113.403,-216.465 62.8187,-203.454 49,-188 23.5851,-159.578 22.9219,-111.931 24.8456,-85.71"/>
<polygon fill="midnightblue" stroke="midnightblue" points="28.3438,-85.8929 25.7977,-75.6085 21.3747,-85.2359 28.3438,-85.8929"/>
</g>
<!-- Node27&#45;&gt;Node11 -->
<g id="edge32" class="edge"><title>Node27&#45;&gt;Node11</title>
<path fill="none" stroke="midnightblue" d="M240.147,-168.324C227.784,-159.979 208.87,-147.212 194.263,-137.352"/>
<polygon fill="midnightblue" stroke="midnightblue" points="196.068,-134.348 185.821,-131.655 192.152,-140.15 196.068,-134.348"/>
</g>
<!-- Node27&#45;&gt;Node21 -->
<g id="edge33" class="edge"><title>Node27&#45;&gt;Node21</title>
<path fill="none" stroke="midnightblue" d="M284.274,-168.681C320.926,-158.931 381.54,-142.807 420.085,-132.554"/>
<polygon fill="midnightblue" stroke="midnightblue" points="421.092,-135.908 429.857,-129.954 419.293,-129.143 421.092,-135.908"/>
</g>
<!-- Node27&#45;&gt;Node23 -->
<g id="edge31" class="edge"><title>Node27&#45;&gt;Node23</title>
<path fill="none" stroke="midnightblue" d="M284.361,-169.485C287.271,-168.926 290.184,-168.419 293,-168 509.234,-135.851 772.314,-126.286 865.899,-123.79"/>
<polygon fill="midnightblue" stroke="midnightblue" points="866.044,-127.288 875.951,-123.532 865.865,-120.29 866.044,-127.288"/>
</g>
<!-- Node28 -->
<g id="node28" class="node"><title>Node28</title>
<polygon fill="none" stroke="#bfbfbf" points="273,-0.5 273,-19.5 317,-19.5 317,-0.5 273,-0.5"/>
<text text-anchor="middle" x="295" y="-7.5" font-family="Helvetica,sans-Serif" font-size="10.00">cmath</text>
</g>
<!-- Node27&#45;&gt;Node28 -->
<g id="edge30" class="edge"><title>Node27&#45;&gt;Node28</title>
<path fill="none" stroke="midnightblue" d="M284.394,-168.538C302.622,-161.834 324.082,-150.446 335,-132 355.275,-97.7463 327.298,-51.8785 308.875,-27.6373"/>
<polygon fill="midnightblue" stroke="midnightblue" points="311.579,-25.4136 302.627,-19.7464 306.091,-29.7591 311.579,-25.4136"/>
</g>
<!-- Node29 -->
<g id="node29" class="node"><title>Node29</title>
<polygon fill="none" stroke="#bfbfbf" points="187,-0.5 187,-19.5 255,-19.5 255,-0.5 187,-0.5"/>
<text text-anchor="middle" x="221" y="-7.5" font-family="Helvetica,sans-Serif" font-size="10.00">blitz/array.h</text>
</g>
<!-- Node27&#45;&gt;Node29 -->
<g id="edge34" class="edge"><title>Node27&#45;&gt;Node29</title>
<path fill="none" stroke="midnightblue" d="M251.28,-168.075C246.242,-141.945 231.45,-65.2106 224.581,-29.577"/>
<polygon fill="midnightblue" stroke="midnightblue" points="227.981,-28.7248 222.652,-19.5681 221.108,-30.0499 227.981,-28.7248"/>
</g>
<!-- Node30 -->
<g id="node30" class="node"><title>Node30</title>
<g id="a_node30"><a xlink:href="validators_8hh.html" target="_top" xlink:title="validators.hh">
<polygon fill="none" stroke="black" points="254,-112.5 254,-131.5 326,-131.5 326,-112.5 254,-112.5"/>
<text text-anchor="middle" x="290" y="-119.5" font-family="Helvetica,sans-Serif" font-size="10.00">validators.hh</text>
</a>
</g>
</g>
<!-- Node27&#45;&gt;Node30 -->
<g id="edge35" class="edge"><title>Node27&#45;&gt;Node30</title>
<path fill="none" stroke="midnightblue" d="M259.11,-168.083C264.282,-160.534 271.846,-149.495 278.194,-140.23"/>
<polygon fill="midnightblue" stroke="midnightblue" points="281.239,-141.979 284.004,-131.751 275.464,-138.022 281.239,-141.979"/>
</g>
<!-- Node30&#45;&gt;Node13 -->
<g id="edge36" class="edge"><title>Node30&#45;&gt;Node13</title>
<path fill="none" stroke="midnightblue" d="M320.898,-112.444C354.568,-103.12 408.536,-88.1746 445.318,-77.9889"/>
<polygon fill="midnightblue" stroke="midnightblue" points="446.502,-81.2927 455.205,-75.2508 444.634,-74.5466 446.502,-81.2927"/>
</g>
<!-- Node31 -->
<g id="node31" class="node"><title>Node31</title>
<g id="a_node31"><a xlink:href="blitz_8hh.html" target="_top" xlink:title="blitz.hh">
<polygon fill="none" stroke="black" points="266,-56.5 266,-75.5 314,-75.5 314,-56.5 266,-56.5"/>
<text text-anchor="middle" x="290" y="-63.5" font-family="Helvetica,sans-Serif" font-size="10.00">blitz.hh</text>
</a>
</g>
</g>
<!-- Node30&#45;&gt;Node31 -->
<g id="edge37" class="edge"><title>Node30&#45;&gt;Node31</title>
<path fill="none" stroke="midnightblue" d="M290,-112.083C290,-105.006 290,-94.8611 290,-85.9865"/>
<polygon fill="midnightblue" stroke="midnightblue" points="293.5,-85.751 290,-75.7511 286.5,-85.7511 293.5,-85.751"/>
</g>
<!-- Node31&#45;&gt;Node8 -->
<g id="edge38" class="edge"><title>Node31&#45;&gt;Node8</title>
<path fill="none" stroke="midnightblue" d="M314.163,-60.8969C369.058,-51.5751 503.523,-28.7413 569.801,-17.4866"/>
<polygon fill="midnightblue" stroke="midnightblue" points="570.557,-20.9084 579.83,-15.7835 569.385,-14.0072 570.557,-20.9084"/>
</g>
<!-- Node31&#45;&gt;Node28 -->
<g id="edge40" class="edge"><title>Node31&#45;&gt;Node28</title>
<path fill="none" stroke="midnightblue" d="M290.826,-56.083C291.481,-49.0059 292.42,-38.8611 293.242,-29.9865"/>
<polygon fill="midnightblue" stroke="midnightblue" points="296.753,-30.0312 294.19,-19.7511 289.783,-29.3858 296.753,-30.0312"/>
</g>
<!-- Node31&#45;&gt;Node29 -->
<g id="edge39" class="edge"><title>Node31&#45;&gt;Node29</title>
<path fill="none" stroke="midnightblue" d="M278.914,-56.324C268.514,-48.1849 252.739,-35.8395 240.278,-26.0874"/>
<polygon fill="midnightblue" stroke="midnightblue" points="242.32,-23.2407 232.288,-19.8339 238.006,-28.7533 242.32,-23.2407"/>
</g>
<!-- Node32&#45;&gt;Node11 -->
<g id="edge43" class="edge"><title>Node32&#45;&gt;Node11</title>
<path fill="none" stroke="midnightblue" d="M95.7814,-168.324C110.267,-159.822 132.573,-146.729 149.493,-136.797"/>
<polygon fill="midnightblue" stroke="midnightblue" points="151.403,-139.735 158.255,-131.655 147.859,-133.698 151.403,-139.735"/>
</g>
<!-- Node32&#45;&gt;Node28 -->
<g id="edge42" class="edge"><title>Node32&#45;&gt;Node28</title>
<path fill="none" stroke="midnightblue" d="M83.2331,-168.44C87.1106,-154.996 96.2227,-128.742 112,-112 155.019,-66.3513 223.374,-36.3012 263.239,-21.5963"/>
<polygon fill="midnightblue" stroke="midnightblue" points="264.5,-24.8626 272.728,-18.1883 262.133,-18.2747 264.5,-24.8626"/>
</g>
<!-- Node32&#45;&gt;Node30 -->
<g id="edge45" class="edge"><title>Node32&#45;&gt;Node30</title>
<path fill="none" stroke="midnightblue" d="M104.053,-170.442C107.06,-169.608 110.101,-168.776 113,-168 157.881,-155.985 209.375,-142.981 245.207,-134.057"/>
<polygon fill="midnightblue" stroke="midnightblue" points="246.478,-137.347 255.338,-131.538 244.789,-130.554 246.478,-137.347"/>
</g>
<!-- Node32&#45;&gt;Node31 -->
<g id="edge44" class="edge"><title>Node32&#45;&gt;Node31</title>
<path fill="none" stroke="midnightblue" d="M86.312,-168.461C95.3968,-154.562 115.255,-127.084 139,-112 175.096,-89.0701 223.415,-77.3642 255.57,-71.7249"/>
<polygon fill="midnightblue" stroke="midnightblue" points="256.515,-75.1164 265.813,-70.0376 255.377,-68.2095 256.515,-75.1164"/>
</g>
<!-- Node33&#45;&gt;Node29 -->
<g id="edge47" class="edge"><title>Node33&#45;&gt;Node29</title>
<path fill="none" stroke="midnightblue" d="M54.384,-57.3776C87.2701,-48.2238 142.72,-32.7892 180.545,-22.2607"/>
<polygon fill="midnightblue" stroke="midnightblue" points="181.539,-25.6171 190.234,-19.5637 179.662,-18.8735 181.539,-25.6171"/>
</g>
</g>
</svg>
