<?xml version="1.0" encoding="UTF-8" standalone="no"?>
<!DOCTYPE svg PUBLIC "-//W3C//DTD SVG 1.1//EN"
 "http://www.w3.org/Graphics/SVG/1.1/DTD/svg11.dtd">
<!-- Generated by graphviz version 2.36.0 (20140111.2315)
 -->
<!-- Title: /home/travis/build/igankevich/arma/src/generator/ar_model_bscheduler.cc Pages: 1 -->
<svg width="1129pt" height="330pt"
 viewBox="0.00 0.00 1129.00 330.00" xmlns="http://www.w3.org/2000/svg" xmlns:xlink="http://www.w3.org/1999/xlink">
<g id="graph0" class="graph" transform="scale(1 1) rotate(0) translate(4 326)">
<title>/home/travis/build/igankevich/arma/src/generator/ar_model_bscheduler.cc</title>
<!-- Node1 -->
<g id="node1" class="node"><title>Node1</title>
<polygon fill="#bfbfbf" stroke="black" points="616.5,-280.5 616.5,-321.5 785.5,-321.5 785.5,-280.5 616.5,-280.5"/>
<text text-anchor="start" x="624.5" y="-309.5" font-family="Helvetica,sans-Serif" font-size="10.00">/home/travis/build</text>
<text text-anchor="start" x="624.5" y="-298.5" font-family="Helvetica,sans-Serif" font-size="10.00">/igankevich/arma/src</text>
<text text-anchor="middle" x="701" y="-287.5" font-family="Helvetica,sans-Serif" font-size="10.00">/generator/ar_model_bscheduler.cc</text>
</g>
<!-- Node2 -->
<g id="node2" class="node"><title>Node2</title>
<polygon fill="none" stroke="#bfbfbf" points="147,-224.5 147,-243.5 191,-243.5 191,-224.5 147,-224.5"/>
<text text-anchor="middle" x="169" y="-231.5" font-family="Helvetica,sans-Serif" font-size="10.00">thread</text>
</g>
<!-- Node1&#45;&gt;Node2 -->
<g id="edge1" class="edge"><title>Node1&#45;&gt;Node2</title>
<path fill="none" stroke="midnightblue" d="M616.109,-294.959C518.064,-288.136 351.949,-273.502 201.148,-243.921"/>
<polygon fill="midnightblue" stroke="midnightblue" points="201.729,-240.468 191.238,-241.951 200.364,-247.333 201.729,-240.468"/>
</g>
<!-- Node3 -->
<g id="node3" class="node"><title>Node3</title>
<polygon fill="none" stroke="#bfbfbf" points="277,-168.5 277,-187.5 321,-187.5 321,-168.5 277,-168.5"/>
<text text-anchor="middle" x="299" y="-175.5" font-family="Helvetica,sans-Serif" font-size="10.00">vector</text>
</g>
<!-- Node1&#45;&gt;Node3 -->
<g id="edge2" class="edge"><title>Node1&#45;&gt;Node3</title>
<path fill="none" stroke="midnightblue" d="M635.965,-280.425C548.639,-254.14 396.856,-208.454 331.006,-188.634"/>
<polygon fill="midnightblue" stroke="midnightblue" points="331.783,-185.212 321.198,-185.682 329.765,-191.915 331.783,-185.212"/>
</g>
<!-- Node4 -->
<g id="node4" class="node"><title>Node4</title>
<polygon fill="none" stroke="#bfbfbf" points="692.5,-224.5 692.5,-243.5 785.5,-243.5 785.5,-224.5 692.5,-224.5"/>
<text text-anchor="middle" x="739" y="-231.5" font-family="Helvetica,sans-Serif" font-size="10.00">bscheduler/api.hh</text>
</g>
<!-- Node1&#45;&gt;Node4 -->
<g id="edge3" class="edge"><title>Node1&#45;&gt;Node4</title>
<path fill="none" stroke="midnightblue" d="M712.401,-280.498C717.611,-271.586 723.734,-261.113 728.791,-252.464"/>
<polygon fill="midnightblue" stroke="midnightblue" points="731.916,-254.052 733.942,-243.652 725.873,-250.519 731.916,-254.052"/>
</g>
<!-- Node5 -->
<g id="node5" class="node"><title>Node5</title>
<polygon fill="none" stroke="#bfbfbf" points="803,-224.5 803,-243.5 859,-243.5 859,-224.5 803,-224.5"/>
<text text-anchor="middle" x="831" y="-231.5" font-family="Helvetica,sans-Serif" font-size="10.00">config.hh</text>
</g>
<!-- Node1&#45;&gt;Node5 -->
<g id="edge4" class="edge"><title>Node1&#45;&gt;Node5</title>
<path fill="none" stroke="midnightblue" d="M740.004,-280.498C760.894,-270.053 786.072,-257.464 804.644,-248.178"/>
<polygon fill="midnightblue" stroke="midnightblue" points="806.316,-251.255 813.695,-243.652 803.185,-244.994 806.316,-251.255"/>
</g>
<!-- Node6 -->
<g id="node6" class="node"><title>Node6</title>
<g id="a_node6"><a xlink:href="parallel__mt_8hh.html" target="_top" xlink:title="parallel_mt.hh">
<polygon fill="none" stroke="black" points="558.5,-224.5 558.5,-243.5 635.5,-243.5 635.5,-224.5 558.5,-224.5"/>
<text text-anchor="middle" x="597" y="-231.5" font-family="Helvetica,sans-Serif" font-size="10.00">parallel_mt.hh</text>
</a>
</g>
</g>
<!-- Node1&#45;&gt;Node6 -->
<g id="edge5" class="edge"><title>Node1&#45;&gt;Node6</title>
<path fill="none" stroke="midnightblue" d="M669.797,-280.498C653.698,-270.436 634.416,-258.385 619.742,-249.214"/>
<polygon fill="midnightblue" stroke="midnightblue" points="621.179,-245.985 610.844,-243.652 617.469,-251.921 621.179,-245.985"/>
</g>
<!-- Node18 -->
<g id="node18" class="node"><title>Node18</title>
<g id="a_node18"><a xlink:href="profile_8hh.html" target="_top" xlink:title="profile.hh">
<polygon fill="none" stroke="black" points="1016,-168.5 1016,-187.5 1072,-187.5 1072,-168.5 1016,-168.5"/>
<text text-anchor="middle" x="1044" y="-175.5" font-family="Helvetica,sans-Serif" font-size="10.00">profile.hh</text>
</a>
</g>
</g>
<!-- Node1&#45;&gt;Node18 -->
<g id="edge18" class="edge"><title>Node1&#45;&gt;Node18</title>
<path fill="none" stroke="midnightblue" d="M765.617,-280.496C796.651,-270.55 834.148,-257.677 867,-244 885.349,-236.361 888.62,-231.566 907,-224 939.783,-210.505 978.218,-198.17 1006.02,-189.842"/>
<polygon fill="midnightblue" stroke="midnightblue" points="1007.16,-193.155 1015.75,-186.96 1005.17,-186.443 1007.16,-193.155"/>
</g>
<!-- Node19 -->
<g id="node19" class="node"><title>Node19</title>
<g id="a_node19"><a xlink:href="profile__counters_8hh.html" target="_top" xlink:title="profile_counters.hh">
<polygon fill="none" stroke="black" points="915.5,-224.5 915.5,-243.5 1014.5,-243.5 1014.5,-224.5 915.5,-224.5"/>
<text text-anchor="middle" x="965" y="-231.5" font-family="Helvetica,sans-Serif" font-size="10.00">profile_counters.hh</text>
</a>
</g>
</g>
<!-- Node1&#45;&gt;Node19 -->
<g id="edge19" class="edge"><title>Node1&#45;&gt;Node19</title>
<path fill="none" stroke="midnightblue" d="M780.209,-280.498C826.078,-269.204 882.131,-255.403 920.393,-245.983"/>
<polygon fill="midnightblue" stroke="midnightblue" points="921.331,-249.356 930.205,-243.567 919.658,-242.559 921.331,-249.356"/>
</g>
<!-- Node20 -->
<g id="node20" class="node"><title>Node20</title>
<g id="a_node20"><a xlink:href="util_8hh.html" target="_top" xlink:title="util.hh">
<polygon fill="none" stroke="black" points="954.5,-168.5 954.5,-187.5 997.5,-187.5 997.5,-168.5 954.5,-168.5"/>
<text text-anchor="middle" x="976" y="-175.5" font-family="Helvetica,sans-Serif" font-size="10.00">util.hh</text>
</a>
</g>
</g>
<!-- Node1&#45;&gt;Node20 -->
<g id="edge21" class="edge"><title>Node1&#45;&gt;Node20</title>
<path fill="none" stroke="midnightblue" d="M688.177,-280.233C679.022,-263.381 670.497,-239.493 684,-224 720.665,-181.931 872.52,-198.43 944.417,-187.519"/>
<polygon fill="midnightblue" stroke="midnightblue" points="945.209,-190.932 954.422,-185.7 943.957,-184.045 945.209,-190.932"/>
</g>
<!-- Node25 -->
<g id="node25" class="node"><title>Node25</title>
<g id="a_node25"><a xlink:href="ar__model__wn_8cc.html" target="_top" xlink:title="ar_model_wn.cc">
<polygon fill="none" stroke="black" points="1033,-224.5 1033,-243.5 1121,-243.5 1121,-224.5 1033,-224.5"/>
<text text-anchor="middle" x="1077" y="-231.5" font-family="Helvetica,sans-Serif" font-size="10.00">ar_model_wn.cc</text>
</a>
</g>
</g>
<!-- Node1&#45;&gt;Node25 -->
<g id="edge26" class="edge"><title>Node1&#45;&gt;Node25</title>
<path fill="none" stroke="midnightblue" d="M785.851,-285.332C858.482,-272.776 960.864,-255.077 1022.87,-244.357"/>
<polygon fill="midnightblue" stroke="midnightblue" points="1023.58,-247.787 1032.84,-242.634 1022.39,-240.889 1023.58,-247.787"/>
</g>
<!-- Node26 -->
<g id="node26" class="node"><title>Node26</title>
<g id="a_node26"><a xlink:href="bscheduler__io_8hh.html" target="_top" xlink:title="bits/bscheduler_io.hh">
<polygon fill="none" stroke="black" points="209.5,-224.5 209.5,-243.5 318.5,-243.5 318.5,-224.5 209.5,-224.5"/>
<text text-anchor="middle" x="264" y="-231.5" font-family="Helvetica,sans-Serif" font-size="10.00">bits/bscheduler_io.hh</text>
</a>
</g>
</g>
<!-- Node1&#45;&gt;Node26 -->
<g id="edge27" class="edge"><title>Node1&#45;&gt;Node26</title>
<path fill="none" stroke="midnightblue" d="M616.483,-287.429C532.306,-274.908 404.917,-255.96 328.544,-244.6"/>
<polygon fill="midnightblue" stroke="midnightblue" points="328.98,-241.127 318.574,-243.117 327.95,-248.051 328.98,-241.127"/>
</g>
<!-- Node6&#45;&gt;Node3 -->
<g id="edge13" class="edge"><title>Node6&#45;&gt;Node3</title>
<path fill="none" stroke="midnightblue" d="M558.206,-227.267C506.912,-219.474 413.807,-204.594 335,-188 333.723,-187.731 332.424,-187.449 331.112,-187.156"/>
<polygon fill="midnightblue" stroke="midnightblue" points="331.56,-183.666 321.024,-184.783 329.957,-190.48 331.56,-183.666"/>
</g>
<!-- Node7 -->
<g id="node7" class="node"><title>Node7</title>
<polygon fill="none" stroke="#bfbfbf" points="724.5,-168.5 724.5,-187.5 769.5,-187.5 769.5,-168.5 724.5,-168.5"/>
<text text-anchor="middle" x="747" y="-175.5" font-family="Helvetica,sans-Serif" font-size="10.00">cstdlib</text>
</g>
<!-- Node6&#45;&gt;Node7 -->
<g id="edge6" class="edge"><title>Node6&#45;&gt;Node7</title>
<path fill="none" stroke="midnightblue" d="M620.768,-224.444C646.188,-215.292 686.65,-200.726 714.89,-190.559"/>
<polygon fill="midnightblue" stroke="midnightblue" points="716.102,-193.843 724.325,-187.163 713.731,-187.257 716.102,-193.843"/>
</g>
<!-- Node8 -->
<g id="node8" class="node"><title>Node8</title>
<polygon fill="none" stroke="#bfbfbf" points="488,-0.5 488,-19.5 544,-19.5 544,-0.5 488,-0.5"/>
<text text-anchor="middle" x="516" y="-7.5" font-family="Helvetica,sans-Serif" font-size="10.00">algorithm</text>
</g>
<!-- Node6&#45;&gt;Node8 -->
<g id="edge7" class="edge"><title>Node6&#45;&gt;Node8</title>
<path fill="none" stroke="midnightblue" d="M635.887,-228.886C683.711,-222.933 760.699,-210.129 778,-188 783.475,-180.997 782.382,-175.734 778,-168 729.692,-82.7343 614.59,-38.7558 554.308,-20.8898"/>
<polygon fill="midnightblue" stroke="midnightblue" points="554.998,-17.4463 544.42,-18.0483 553.064,-24.1741 554.998,-17.4463"/>
</g>
<!-- Node9 -->
<g id="node9" class="node"><title>Node9</title>
<polygon fill="none" stroke="#bfbfbf" points="826,-168.5 826,-187.5 872,-187.5 872,-168.5 826,-168.5"/>
<text text-anchor="middle" x="849" y="-175.5" font-family="Helvetica,sans-Serif" font-size="10.00">cstdint</text>
</g>
<!-- Node6&#45;&gt;Node9 -->
<g id="edge8" class="edge"><title>Node6&#45;&gt;Node9</title>
<path fill="none" stroke="midnightblue" d="M635.531,-225.326C678.619,-216.653 750.442,-201.925 812,-188 813.269,-187.713 814.562,-187.417 815.868,-187.114"/>
<polygon fill="midnightblue" stroke="midnightblue" points="817.009,-190.441 825.934,-184.732 815.397,-183.629 817.009,-190.441"/>
</g>
<!-- Node10 -->
<g id="node10" class="node"><title>Node10</title>
<polygon fill="none" stroke="#bfbfbf" points="890,-168.5 890,-187.5 936,-187.5 936,-168.5 890,-168.5"/>
<text text-anchor="middle" x="913" y="-175.5" font-family="Helvetica,sans-Serif" font-size="10.00">cstring</text>
</g>
<!-- Node6&#45;&gt;Node10 -->
<g id="edge9" class="edge"><title>Node6&#45;&gt;Node10</title>
<path fill="none" stroke="midnightblue" d="M635.777,-226.353C640.566,-225.55 645.394,-224.75 650,-224 749.451,-207.807 777.774,-209.954 879.879,-188.036"/>
<polygon fill="midnightblue" stroke="midnightblue" points="880.633,-191.454 889.662,-185.912 879.147,-184.613 880.633,-191.454"/>
</g>
<!-- Node11 -->
<g id="node11" class="node"><title>Node11</title>
<polygon fill="none" stroke="#bfbfbf" points="210.5,-112.5 210.5,-131.5 259.5,-131.5 259.5,-112.5 210.5,-112.5"/>
<text text-anchor="middle" x="235" y="-119.5" font-family="Helvetica,sans-Serif" font-size="10.00">istream</text>
</g>
<!-- Node6&#45;&gt;Node11 -->
<g id="edge10" class="edge"><title>Node6&#45;&gt;Node11</title>
<path fill="none" stroke="midnightblue" d="M558.22,-228.117C512.968,-221.758 436.272,-208.913 373,-188 367.306,-186.118 300.572,-154.353 262.034,-135.939"/>
<polygon fill="midnightblue" stroke="midnightblue" points="263.43,-132.726 252.898,-131.571 260.41,-139.042 263.43,-132.726"/>
</g>
<!-- Node12 -->
<g id="node12" class="node"><title>Node12</title>
<polygon fill="none" stroke="#bfbfbf" points="415,-168.5 415,-187.5 455,-187.5 455,-168.5 415,-168.5"/>
<text text-anchor="middle" x="435" y="-175.5" font-family="Helvetica,sans-Serif" font-size="10.00">limits</text>
</g>
<!-- Node6&#45;&gt;Node12 -->
<g id="edge11" class="edge"><title>Node6&#45;&gt;Node12</title>
<path fill="none" stroke="midnightblue" d="M571.331,-224.444C542.474,-214.825 495.671,-199.224 465.112,-189.037"/>
<polygon fill="midnightblue" stroke="midnightblue" points="466.014,-185.649 455.42,-185.807 463.8,-192.289 466.014,-185.649"/>
</g>
<!-- Node13 -->
<g id="node13" class="node"><title>Node13</title>
<polygon fill="none" stroke="#bfbfbf" points="297.5,-56.5 297.5,-75.5 356.5,-75.5 356.5,-56.5 297.5,-56.5"/>
<text text-anchor="middle" x="327" y="-63.5" font-family="Helvetica,sans-Serif" font-size="10.00">stdexcept</text>
</g>
<!-- Node6&#45;&gt;Node13 -->
<g id="edge12" class="edge"><title>Node6&#45;&gt;Node13</title>
<path fill="none" stroke="midnightblue" d="M558.153,-229.449C507.909,-223.96 424.61,-211.504 406,-188 385.03,-161.516 424.054,-141.16 407,-112 398.073,-96.7356 381.853,-86.2492 366.34,-79.2666"/>
<polygon fill="midnightblue" stroke="midnightblue" points="367.424,-75.928 356.845,-75.3604 364.761,-82.4016 367.424,-75.928"/>
</g>
<!-- Node14 -->
<g id="node14" class="node"><title>Node14</title>
<polygon fill="none" stroke="#bfbfbf" points="473,-168.5 473,-187.5 523,-187.5 523,-168.5 473,-168.5"/>
<text text-anchor="middle" x="498" y="-175.5" font-family="Helvetica,sans-Serif" font-size="10.00">fstream</text>
</g>
<!-- Node6&#45;&gt;Node14 -->
<g id="edge14" class="edge"><title>Node6&#45;&gt;Node14</title>
<path fill="none" stroke="midnightblue" d="M581.094,-224.324C565.362,-215.743 541.058,-202.486 522.791,-192.522"/>
<polygon fill="midnightblue" stroke="midnightblue" points="524.322,-189.37 513.867,-187.655 520.97,-195.516 524.322,-189.37"/>
</g>
<!-- Node15 -->
<g id="node15" class="node"><title>Node15</title>
<polygon fill="none" stroke="#bfbfbf" points="541.5,-168.5 541.5,-187.5 588.5,-187.5 588.5,-168.5 541.5,-168.5"/>
<text text-anchor="middle" x="565" y="-175.5" font-family="Helvetica,sans-Serif" font-size="10.00">iterator</text>
</g>
<!-- Node6&#45;&gt;Node15 -->
<g id="edge15" class="edge"><title>Node6&#45;&gt;Node15</title>
<path fill="none" stroke="midnightblue" d="M591.716,-224.083C587.289,-216.613 580.837,-205.724 575.382,-196.52"/>
<polygon fill="midnightblue" stroke="midnightblue" points="578.295,-194.57 570.186,-187.751 572.273,-198.138 578.295,-194.57"/>
</g>
<!-- Node16 -->
<g id="node16" class="node"><title>Node16</title>
<polygon fill="none" stroke="#bfbfbf" points="607,-168.5 607,-187.5 653,-187.5 653,-168.5 607,-168.5"/>
<text text-anchor="middle" x="630" y="-175.5" font-family="Helvetica,sans-Serif" font-size="10.00">chrono</text>
</g>
<!-- Node6&#45;&gt;Node16 -->
<g id="edge16" class="edge"><title>Node6&#45;&gt;Node16</title>
<path fill="none" stroke="midnightblue" d="M602.449,-224.083C607.014,-216.613 613.668,-205.724 619.293,-196.52"/>
<polygon fill="midnightblue" stroke="midnightblue" points="622.424,-198.109 624.652,-187.751 616.451,-194.459 622.424,-198.109"/>
</g>
<!-- Node17 -->
<g id="node17" class="node"><title>Node17</title>
<polygon fill="none" stroke="#bfbfbf" points="671.5,-168.5 671.5,-187.5 706.5,-187.5 706.5,-168.5 671.5,-168.5"/>
<text text-anchor="middle" x="689" y="-175.5" font-family="Helvetica,sans-Serif" font-size="10.00">dc.h</text>
</g>
<!-- Node6&#45;&gt;Node17 -->
<g id="edge17" class="edge"><title>Node6&#45;&gt;Node17</title>
<path fill="none" stroke="midnightblue" d="M611.781,-224.324C626.267,-215.822 648.573,-202.729 665.493,-192.797"/>
<polygon fill="midnightblue" stroke="midnightblue" points="667.403,-195.735 674.255,-187.655 663.859,-189.698 667.403,-195.735"/>
</g>
<!-- Node19&#45;&gt;Node18 -->
<g id="edge20" class="edge"><title>Node19&#45;&gt;Node18</title>
<path fill="none" stroke="midnightblue" d="M977.693,-224.324C989.901,-215.979 1008.58,-203.212 1023,-193.352"/>
<polygon fill="midnightblue" stroke="midnightblue" points="1025.06,-196.187 1031.34,-187.655 1021.11,-190.408 1025.06,-196.187"/>
</g>
<!-- Node21 -->
<g id="node21" class="node"><title>Node21</title>
<polygon fill="none" stroke="#bfbfbf" points="278,-112.5 278,-131.5 330,-131.5 330,-112.5 278,-112.5"/>
<text text-anchor="middle" x="304" y="-119.5" font-family="Helvetica,sans-Serif" font-size="10.00">ostream</text>
</g>
<!-- Node20&#45;&gt;Node21 -->
<g id="edge22" class="edge"><title>Node20&#45;&gt;Node21</title>
<path fill="none" stroke="midnightblue" d="M954.464,-170.081C951.316,-169.265 948.093,-168.534 945,-168 682.37,-122.662 607.377,-172.542 340.252,-131.88"/>
<polygon fill="midnightblue" stroke="midnightblue" points="340.678,-128.404 330.26,-130.33 339.606,-135.321 340.678,-128.404"/>
</g>
<!-- Node22 -->
<g id="node22" class="node"><title>Node22</title>
<polygon fill="none" stroke="#bfbfbf" points="988.5,-112.5 988.5,-131.5 1017.5,-131.5 1017.5,-112.5 988.5,-112.5"/>
<text text-anchor="middle" x="1003" y="-119.5" font-family="Helvetica,sans-Serif" font-size="10.00">ios</text>
</g>
<!-- Node20&#45;&gt;Node22 -->
<g id="edge23" class="edge"><title>Node20&#45;&gt;Node22</title>
<path fill="none" stroke="midnightblue" d="M980.459,-168.083C984.154,-160.691 989.523,-149.953 994.094,-140.811"/>
<polygon fill="midnightblue" stroke="midnightblue" points="997.283,-142.261 998.624,-131.751 991.022,-139.13 997.283,-142.261"/>
</g>
<!-- Node23 -->
<g id="node23" class="node"><title>Node23</title>
<polygon fill="none" stroke="#bfbfbf" points="348,-112.5 348,-131.5 398,-131.5 398,-112.5 348,-112.5"/>
<text text-anchor="middle" x="373" y="-119.5" font-family="Helvetica,sans-Serif" font-size="10.00">iomanip</text>
</g>
<!-- Node20&#45;&gt;Node23 -->
<g id="edge24" class="edge"><title>Node20&#45;&gt;Node23</title>
<path fill="none" stroke="midnightblue" d="M954.454,-170.135C951.307,-169.311 948.087,-168.563 945,-168 744.192,-131.349 498.356,-124.54 408.247,-123.282"/>
<polygon fill="midnightblue" stroke="midnightblue" points="408.086,-119.78 398.043,-123.155 407.999,-126.779 408.086,-119.78"/>
</g>
<!-- Node24 -->
<g id="node24" class="node"><title>Node24</title>
<polygon fill="none" stroke="#bfbfbf" points="927,-112.5 927,-131.5 971,-131.5 971,-112.5 927,-112.5"/>
<text text-anchor="middle" x="949" y="-119.5" font-family="Helvetica,sans-Serif" font-size="10.00">mutex</text>
</g>
<!-- Node20&#45;&gt;Node24 -->
<g id="edge25" class="edge"><title>Node20&#45;&gt;Node24</title>
<path fill="none" stroke="midnightblue" d="M971.541,-168.083C967.846,-160.691 962.477,-149.953 957.906,-140.811"/>
<polygon fill="midnightblue" stroke="midnightblue" points="960.978,-139.13 953.376,-131.751 954.717,-142.261 960.978,-139.13"/>
</g>
<!-- Node26&#45;&gt;Node3 -->
<g id="edge28" class="edge"><title>Node26&#45;&gt;Node3</title>
<path fill="none" stroke="midnightblue" d="M269.78,-224.083C274.672,-216.534 281.827,-205.495 287.833,-196.23"/>
<polygon fill="midnightblue" stroke="midnightblue" points="290.826,-198.046 293.328,-187.751 284.952,-194.239 290.826,-198.046"/>
</g>
<!-- Node27 -->
<g id="node27" class="node"><title>Node27</title>
<g id="a_node27"><a xlink:href="domain_8hh.html" target="_top" xlink:title="domain.hh">
<polygon fill="none" stroke="black" points="197,-168.5 197,-187.5 259,-187.5 259,-168.5 197,-168.5"/>
<text text-anchor="middle" x="228" y="-175.5" font-family="Helvetica,sans-Serif" font-size="10.00">domain.hh</text>
</a>
</g>
</g>
<!-- Node26&#45;&gt;Node27 -->
<g id="edge29" class="edge"><title>Node26&#45;&gt;Node27</title>
<path fill="none" stroke="midnightblue" d="M258.055,-224.083C253.023,-216.534 245.663,-205.495 239.487,-196.23"/>
<polygon fill="midnightblue" stroke="midnightblue" points="242.293,-194.13 233.834,-187.751 236.469,-198.013 242.293,-194.13"/>
</g>
<!-- Node32 -->
<g id="node32" class="node"><title>Node32</title>
<g id="a_node32"><a xlink:href="grid_8hh.html" target="_top" xlink:title="grid.hh">
<polygon fill="none" stroke="black" points="133,-168.5 133,-187.5 179,-187.5 179,-168.5 133,-168.5"/>
<text text-anchor="middle" x="156" y="-175.5" font-family="Helvetica,sans-Serif" font-size="10.00">grid.hh</text>
</a>
</g>
</g>
<!-- Node26&#45;&gt;Node32 -->
<g id="edge40" class="edge"><title>Node26&#45;&gt;Node32</title>
<path fill="none" stroke="midnightblue" d="M246.648,-224.324C229.328,-215.664 202.485,-202.242 182.498,-192.249"/>
<polygon fill="midnightblue" stroke="midnightblue" points="183.819,-188.996 173.309,-187.655 180.688,-195.257 183.819,-188.996"/>
</g>
<!-- Node33 -->
<g id="node33" class="node"><title>Node33</title>
<g id="a_node33"><a xlink:href="types_8hh.html" target="_top" xlink:title="types.hh">
<polygon fill="none" stroke="black" points="0,-56.5 0,-75.5 54,-75.5 54,-56.5 0,-56.5"/>
<text text-anchor="middle" x="27" y="-63.5" font-family="Helvetica,sans-Serif" font-size="10.00">types.hh</text>
</a>
</g>
</g>
<!-- Node26&#45;&gt;Node33 -->
<g id="edge44" class="edge"><title>Node26&#45;&gt;Node33</title>
<path fill="none" stroke="midnightblue" d="M214.517,-224.477C186.189,-217.871 151.02,-206.606 124,-188 83.6908,-160.244 51.7191,-110.897 36.5683,-84.6164"/>
<polygon fill="midnightblue" stroke="midnightblue" points="39.5484,-82.7749 31.6028,-75.7664 33.4436,-86.2001 39.5484,-82.7749"/>
</g>
<!-- Node27&#45;&gt;Node11 -->
<g id="edge30" class="edge"><title>Node27&#45;&gt;Node11</title>
<path fill="none" stroke="midnightblue" d="M229.156,-168.083C230.084,-160.927 231.418,-150.635 232.577,-141.691"/>
<polygon fill="midnightblue" stroke="midnightblue" points="236.051,-142.118 233.866,-131.751 229.109,-141.218 236.051,-142.118"/>
</g>
<!-- Node27&#45;&gt;Node21 -->
<g id="edge31" class="edge"><title>Node27&#45;&gt;Node21</title>
<path fill="none" stroke="midnightblue" d="M240.211,-168.324C251.776,-160.107 269.375,-147.602 283.161,-137.807"/>
<polygon fill="midnightblue" stroke="midnightblue" points="285.443,-140.479 291.567,-131.834 281.388,-134.773 285.443,-140.479"/>
</g>
<!-- Node27&#45;&gt;Node23 -->
<g id="edge32" class="edge"><title>Node27&#45;&gt;Node23</title>
<path fill="none" stroke="midnightblue" d="M250.976,-168.444C275.157,-159.438 313.418,-145.189 340.646,-135.049"/>
<polygon fill="midnightblue" stroke="midnightblue" points="341.982,-138.286 350.132,-131.516 339.539,-131.727 341.982,-138.286"/>
</g>
<!-- Node28 -->
<g id="node28" class="node"><title>Node28</title>
<polygon fill="none" stroke="#bfbfbf" points="53,-0.5 53,-19.5 121,-19.5 121,-0.5 53,-0.5"/>
<text text-anchor="middle" x="87" y="-7.5" font-family="Helvetica,sans-Serif" font-size="10.00">blitz/array.h</text>
</g>
<!-- Node27&#45;&gt;Node28 -->
<g id="edge33" class="edge"><title>Node27&#45;&gt;Node28</title>
<path fill="none" stroke="midnightblue" d="M196.852,-168.709C166.19,-159.924 122.352,-145.486 111,-132 86.4912,-102.885 84.4437,-55.887 85.4839,-29.862"/>
<polygon fill="midnightblue" stroke="midnightblue" points="88.9817,-30.0034 86.0858,-19.812 81.9942,-29.5849 88.9817,-30.0034"/>
</g>
<!-- Node29 -->
<g id="node29" class="node"><title>Node29</title>
<g id="a_node29"><a xlink:href="validators_8hh.html" target="_top" xlink:title="validators.hh">
<polygon fill="none" stroke="black" points="120,-112.5 120,-131.5 192,-131.5 192,-112.5 120,-112.5"/>
<text text-anchor="middle" x="156" y="-119.5" font-family="Helvetica,sans-Serif" font-size="10.00">validators.hh</text>
</a>
</g>
</g>
<!-- Node27&#45;&gt;Node29 -->
<g id="edge34" class="edge"><title>Node27&#45;&gt;Node29</title>
<path fill="none" stroke="midnightblue" d="M216.432,-168.324C205.58,-160.185 189.119,-147.839 176.117,-138.087"/>
<polygon fill="midnightblue" stroke="midnightblue" points="177.879,-135.034 167.779,-131.834 173.679,-140.634 177.879,-135.034"/>
</g>
<!-- Node29&#45;&gt;Node13 -->
<g id="edge35" class="edge"><title>Node29&#45;&gt;Node13</title>
<path fill="none" stroke="midnightblue" d="M183.095,-112.444C211.988,-103.32 257.925,-88.8133 290.105,-78.6509"/>
<polygon fill="midnightblue" stroke="midnightblue" points="291.549,-81.8654 300.031,-75.5164 289.441,-75.1903 291.549,-81.8654"/>
</g>
<!-- Node30 -->
<g id="node30" class="node"><title>Node30</title>
<g id="a_node30"><a xlink:href="blitz_8hh.html" target="_top" xlink:title="blitz.hh">
<polygon fill="none" stroke="black" points="132,-56.5 132,-75.5 180,-75.5 180,-56.5 132,-56.5"/>
<text text-anchor="middle" x="156" y="-63.5" font-family="Helvetica,sans-Serif" font-size="10.00">blitz.hh</text>
</a>
</g>
</g>
<!-- Node29&#45;&gt;Node30 -->
<g id="edge36" class="edge"><title>Node29&#45;&gt;Node30</title>
<path fill="none" stroke="midnightblue" d="M156,-112.083C156,-105.006 156,-94.8611 156,-85.9865"/>
<polygon fill="midnightblue" stroke="midnightblue" points="159.5,-85.751 156,-75.7511 152.5,-85.7511 159.5,-85.751"/>
</g>
<!-- Node30&#45;&gt;Node8 -->
<g id="edge37" class="edge"><title>Node30&#45;&gt;Node8</title>
<path fill="none" stroke="midnightblue" d="M180.18,-61.3731C241.41,-52.1884 402.994,-27.9509 477.441,-16.7838"/>
<polygon fill="midnightblue" stroke="midnightblue" points="478.401,-20.1792 487.771,-15.2344 477.362,-13.2566 478.401,-20.1792"/>
</g>
<!-- Node30&#45;&gt;Node28 -->
<g id="edge38" class="edge"><title>Node30&#45;&gt;Node28</title>
<path fill="none" stroke="midnightblue" d="M144.914,-56.324C134.514,-48.1849 118.739,-35.8395 106.278,-26.0874"/>
<polygon fill="midnightblue" stroke="midnightblue" points="108.32,-23.2407 98.2878,-19.8339 104.006,-28.7533 108.32,-23.2407"/>
</g>
<!-- Node31 -->
<g id="node31" class="node"><title>Node31</title>
<polygon fill="none" stroke="#bfbfbf" points="139,-0.5 139,-19.5 183,-19.5 183,-0.5 139,-0.5"/>
<text text-anchor="middle" x="161" y="-7.5" font-family="Helvetica,sans-Serif" font-size="10.00">cmath</text>
</g>
<!-- Node30&#45;&gt;Node31 -->
<g id="edge39" class="edge"><title>Node30&#45;&gt;Node31</title>
<path fill="none" stroke="midnightblue" d="M156.826,-56.083C157.481,-49.0059 158.42,-38.8611 159.242,-29.9865"/>
<polygon fill="midnightblue" stroke="midnightblue" points="162.753,-30.0312 160.19,-19.7511 155.783,-29.3858 162.753,-30.0312"/>
</g>
<!-- Node32&#45;&gt;Node11 -->
<g id="edge41" class="edge"><title>Node32&#45;&gt;Node11</title>
<path fill="none" stroke="midnightblue" d="M168.693,-168.324C180.901,-159.979 199.578,-147.212 214.003,-137.352"/>
<polygon fill="midnightblue" stroke="midnightblue" points="216.058,-140.187 222.339,-131.655 212.108,-134.408 216.058,-140.187"/>
</g>
<!-- Node32&#45;&gt;Node29 -->
<g id="edge43" class="edge"><title>Node32&#45;&gt;Node29</title>
<path fill="none" stroke="midnightblue" d="M156,-168.083C156,-161.006 156,-150.861 156,-141.986"/>
<polygon fill="midnightblue" stroke="midnightblue" points="159.5,-141.751 156,-131.751 152.5,-141.751 159.5,-141.751"/>
</g>
<!-- Node32&#45;&gt;Node30 -->
<g id="edge42" class="edge"><title>Node32&#45;&gt;Node30</title>
<path fill="none" stroke="midnightblue" d="M142.855,-168.463C126.492,-156.671 101.756,-134.317 111,-112 115.92,-100.121 125.667,-89.7428 134.834,-81.9557"/>
<polygon fill="midnightblue" stroke="midnightblue" points="137.253,-84.5058 142.936,-75.5641 132.917,-79.0101 137.253,-84.5058"/>
</g>
<!-- Node33&#45;&gt;Node28 -->
<g id="edge45" class="edge"><title>Node33&#45;&gt;Node28</title>
<path fill="none" stroke="midnightblue" d="M36.64,-56.324C45.5096,-48.3414 58.8747,-36.3128 69.6079,-26.6529"/>
<polygon fill="midnightblue" stroke="midnightblue" points="72.093,-29.1251 77.1846,-19.8339 67.4102,-23.922 72.093,-29.1251"/>
</g>
</g>
</svg>
