<?xml version="1.0" encoding="UTF-8" standalone="no"?>
<!DOCTYPE svg PUBLIC "-//W3C//DTD SVG 1.1//EN"
 "http://www.w3.org/Graphics/SVG/1.1/DTD/svg11.dtd">
<!-- Generated by graphviz version 2.36.0 (20140111.2315)
 -->
<!-- Title: /home/travis/build/igankevich/arma/src/generator/ar_model_opencl.cc Pages: 1 -->
<svg width="867pt" height="274pt"
 viewBox="0.00 0.00 867.00 274.00" xmlns="http://www.w3.org/2000/svg" xmlns:xlink="http://www.w3.org/1999/xlink">
<g id="graph0" class="graph" transform="scale(1 1) rotate(0) translate(4 270)">
<title>/home/travis/build/igankevich/arma/src/generator/ar_model_opencl.cc</title>
<!-- Node1 -->
<g id="node1" class="node"><title>Node1</title>
<polygon fill="#bfbfbf" stroke="black" points="218,-224.5 218,-265.5 368,-265.5 368,-224.5 218,-224.5"/>
<text text-anchor="start" x="226" y="-253.5" font-family="Helvetica,sans-Serif" font-size="10.00">/home/travis/build</text>
<text text-anchor="start" x="226" y="-242.5" font-family="Helvetica,sans-Serif" font-size="10.00">/igankevich/arma/src</text>
<text text-anchor="middle" x="293" y="-231.5" font-family="Helvetica,sans-Serif" font-size="10.00">/generator/ar_model_opencl.cc</text>
</g>
<!-- Node2 -->
<g id="node2" class="node"><title>Node2</title>
<polygon fill="none" stroke="#bfbfbf" points="10.5,-168.5 10.5,-187.5 59.5,-187.5 59.5,-168.5 10.5,-168.5"/>
<text text-anchor="middle" x="35" y="-175.5" font-family="Helvetica,sans-Serif" font-size="10.00">random</text>
</g>
<!-- Node1&#45;&gt;Node2 -->
<g id="edge1" class="edge"><title>Node1&#45;&gt;Node2</title>
<path fill="none" stroke="midnightblue" d="M217.757,-225.464C176.717,-215.289 124.774,-202.307 69.4949,-188.101"/>
<polygon fill="midnightblue" stroke="midnightblue" points="70.0603,-184.633 59.5035,-185.529 68.3154,-191.412 70.0603,-184.633"/>
</g>
<!-- Node3 -->
<g id="node3" class="node"><title>Node3</title>
<polygon fill="none" stroke="#bfbfbf" points="78,-168.5 78,-187.5 122,-187.5 122,-168.5 78,-168.5"/>
<text text-anchor="middle" x="100" y="-175.5" font-family="Helvetica,sans-Serif" font-size="10.00">vector</text>
</g>
<!-- Node1&#45;&gt;Node3 -->
<g id="edge2" class="edge"><title>Node1&#45;&gt;Node3</title>
<path fill="none" stroke="midnightblue" d="M235.094,-224.498C201.273,-213.108 159.881,-199.167 131.896,-189.742"/>
<polygon fill="midnightblue" stroke="midnightblue" points="132.825,-186.362 122.231,-186.487 130.591,-192.996 132.825,-186.362"/>
</g>
<!-- Node4 -->
<g id="node4" class="node"><title>Node4</title>
<polygon fill="none" stroke="#bfbfbf" points="140,-168.5 140,-187.5 186,-187.5 186,-168.5 140,-168.5"/>
<text text-anchor="middle" x="163" y="-175.5" font-family="Helvetica,sans-Serif" font-size="10.00">atomic</text>
</g>
<!-- Node1&#45;&gt;Node4 -->
<g id="edge3" class="edge"><title>Node1&#45;&gt;Node4</title>
<path fill="none" stroke="midnightblue" d="M253.996,-224.498C233.106,-214.053 207.928,-201.464 189.356,-192.178"/>
<polygon fill="midnightblue" stroke="midnightblue" points="190.815,-188.994 180.305,-187.652 187.684,-195.255 190.815,-188.994"/>
</g>
<!-- Node5 -->
<g id="node5" class="node"><title>Node5</title>
<g id="a_node5"><a xlink:href="util_8hh.html" target="_top" xlink:title="util.hh">
<polygon fill="none" stroke="black" points="204.5,-168.5 204.5,-187.5 247.5,-187.5 247.5,-168.5 204.5,-168.5"/>
<text text-anchor="middle" x="226" y="-175.5" font-family="Helvetica,sans-Serif" font-size="10.00">util.hh</text>
</a>
</g>
</g>
<!-- Node1&#45;&gt;Node5 -->
<g id="edge4" class="edge"><title>Node1&#45;&gt;Node5</title>
<path fill="none" stroke="midnightblue" d="M272.898,-224.498C263.119,-215.011 251.517,-203.756 242.3,-194.813"/>
<polygon fill="midnightblue" stroke="midnightblue" points="244.533,-192.104 234.919,-187.652 239.659,-197.128 244.533,-192.104"/>
</g>
<!-- Node10 -->
<g id="node10" class="node"><title>Node10</title>
<g id="a_node10"><a xlink:href="opencl_8hh.html" target="_top" xlink:title="opencl/opencl.hh">
<polygon fill="none" stroke="black" points="248,-112.5 248,-131.5 338,-131.5 338,-112.5 248,-112.5"/>
<text text-anchor="middle" x="293" y="-119.5" font-family="Helvetica,sans-Serif" font-size="10.00">opencl/opencl.hh</text>
</a>
</g>
</g>
<!-- Node1&#45;&gt;Node10 -->
<g id="edge9" class="edge"><title>Node1&#45;&gt;Node10</title>
<path fill="none" stroke="midnightblue" d="M293,-224.29C293,-201.48 293,-164.189 293,-141.781"/>
<polygon fill="midnightblue" stroke="midnightblue" points="296.5,-141.575 293,-131.575 289.5,-141.575 296.5,-141.575"/>
</g>
<!-- Node13 -->
<g id="node13" class="node"><title>Node13</title>
<g id="a_node13"><a xlink:href="vec_8hh.html" target="_top" xlink:title="opencl/vec.hh">
<polygon fill="none" stroke="black" points="750.5,-168.5 750.5,-187.5 827.5,-187.5 827.5,-168.5 750.5,-168.5"/>
<text text-anchor="middle" x="789" y="-175.5" font-family="Helvetica,sans-Serif" font-size="10.00">opencl/vec.hh</text>
</a>
</g>
</g>
<!-- Node1&#45;&gt;Node13 -->
<g id="edge12" class="edge"><title>Node1&#45;&gt;Node13</title>
<path fill="none" stroke="midnightblue" d="M368.062,-234.163C471.117,-220.658 653.505,-196.756 740.376,-185.372"/>
<polygon fill="midnightblue" stroke="midnightblue" points="741.024,-188.817 750.484,-184.047 740.114,-181.877 741.024,-188.817"/>
</g>
<!-- Node15 -->
<g id="node15" class="node"><title>Node15</title>
<g id="a_node15"><a xlink:href="array_8hh.html" target="_top" xlink:title="opencl/array.hh">
<polygon fill="none" stroke="black" points="402.5,-168.5 402.5,-187.5 485.5,-187.5 485.5,-168.5 402.5,-168.5"/>
<text text-anchor="middle" x="444" y="-175.5" font-family="Helvetica,sans-Serif" font-size="10.00">opencl/array.hh</text>
</a>
</g>
</g>
<!-- Node1&#45;&gt;Node15 -->
<g id="edge14" class="edge"><title>Node1&#45;&gt;Node15</title>
<path fill="none" stroke="midnightblue" d="M338.305,-224.498C363.014,-213.861 392.89,-201.001 414.566,-191.67"/>
<polygon fill="midnightblue" stroke="midnightblue" points="416.098,-194.821 423.9,-187.652 413.331,-188.392 416.098,-194.821"/>
</g>
<!-- Node17 -->
<g id="node17" class="node"><title>Node17</title>
<g id="a_node17"><a xlink:href="profile_8hh.html" target="_top" xlink:title="profile.hh">
<polygon fill="none" stroke="black" points="377,-56.5 377,-75.5 433,-75.5 433,-56.5 377,-56.5"/>
<text text-anchor="middle" x="405" y="-63.5" font-family="Helvetica,sans-Serif" font-size="10.00">profile.hh</text>
</a>
</g>
</g>
<!-- Node1&#45;&gt;Node17 -->
<g id="edge24" class="edge"><title>Node1&#45;&gt;Node17</title>
<path fill="none" stroke="midnightblue" d="M305.414,-224.382C327.497,-189.483 373.243,-117.187 394.15,-84.1468"/>
<polygon fill="midnightblue" stroke="midnightblue" points="397.179,-85.9057 399.568,-75.5838 391.264,-82.1627 397.179,-85.9057"/>
</g>
<!-- Node20 -->
<g id="node20" class="node"><title>Node20</title>
<g id="a_node20"><a xlink:href="blitz_8hh.html" target="_top" xlink:title="blitz.hh">
<polygon fill="none" stroke="black" points="639,-168.5 639,-187.5 687,-187.5 687,-168.5 639,-168.5"/>
<text text-anchor="middle" x="663" y="-175.5" font-family="Helvetica,sans-Serif" font-size="10.00">blitz.hh</text>
</a>
</g>
</g>
<!-- Node1&#45;&gt;Node20 -->
<g id="edge20" class="edge"><title>Node1&#45;&gt;Node20</title>
<path fill="none" stroke="midnightblue" d="M368.321,-230.768C448.051,-216.761 570.32,-195.282 629.118,-184.952"/>
<polygon fill="midnightblue" stroke="midnightblue" points="629.756,-188.394 638.999,-183.216 628.545,-181.499 629.756,-188.394"/>
</g>
<!-- Node6 -->
<g id="node6" class="node"><title>Node6</title>
<polygon fill="none" stroke="#bfbfbf" points="0,-112.5 0,-131.5 52,-131.5 52,-112.5 0,-112.5"/>
<text text-anchor="middle" x="26" y="-119.5" font-family="Helvetica,sans-Serif" font-size="10.00">ostream</text>
</g>
<!-- Node5&#45;&gt;Node6 -->
<g id="edge5" class="edge"><title>Node5&#45;&gt;Node6</title>
<path fill="none" stroke="midnightblue" d="M204.337,-170.644C201.208,-169.745 198.023,-168.841 195,-168 149.272,-155.276 96.3719,-141.311 62.1111,-132.366"/>
<polygon fill="midnightblue" stroke="midnightblue" points="62.6649,-128.894 52.1054,-129.758 60.8992,-135.667 62.6649,-128.894"/>
</g>
<!-- Node7 -->
<g id="node7" class="node"><title>Node7</title>
<polygon fill="none" stroke="#bfbfbf" points="70.5,-112.5 70.5,-131.5 99.5,-131.5 99.5,-112.5 70.5,-112.5"/>
<text text-anchor="middle" x="85" y="-119.5" font-family="Helvetica,sans-Serif" font-size="10.00">ios</text>
</g>
<!-- Node5&#45;&gt;Node7 -->
<g id="edge6" class="edge"><title>Node5&#45;&gt;Node7</title>
<path fill="none" stroke="midnightblue" d="M204.278,-168.681C178.522,-158.817 135.731,-142.429 109.013,-132.196"/>
<polygon fill="midnightblue" stroke="midnightblue" points="110.219,-128.91 99.6285,-128.602 107.715,-135.447 110.219,-128.91"/>
</g>
<!-- Node8 -->
<g id="node8" class="node"><title>Node8</title>
<polygon fill="none" stroke="#bfbfbf" points="118,-112.5 118,-131.5 168,-131.5 168,-112.5 118,-112.5"/>
<text text-anchor="middle" x="143" y="-119.5" font-family="Helvetica,sans-Serif" font-size="10.00">iomanip</text>
</g>
<!-- Node5&#45;&gt;Node8 -->
<g id="edge7" class="edge"><title>Node5&#45;&gt;Node8</title>
<path fill="none" stroke="midnightblue" d="M212.665,-168.324C199.838,-159.979 180.215,-147.212 165.06,-137.352"/>
<polygon fill="midnightblue" stroke="midnightblue" points="166.593,-134.174 156.302,-131.655 162.776,-140.042 166.593,-134.174"/>
</g>
<!-- Node9 -->
<g id="node9" class="node"><title>Node9</title>
<polygon fill="none" stroke="#bfbfbf" points="186,-112.5 186,-131.5 230,-131.5 230,-112.5 186,-112.5"/>
<text text-anchor="middle" x="208" y="-119.5" font-family="Helvetica,sans-Serif" font-size="10.00">mutex</text>
</g>
<!-- Node5&#45;&gt;Node9 -->
<g id="edge8" class="edge"><title>Node5&#45;&gt;Node9</title>
<path fill="none" stroke="midnightblue" d="M223.028,-168.083C220.616,-160.849 217.136,-150.409 214.132,-141.397"/>
<polygon fill="midnightblue" stroke="midnightblue" points="217.4,-140.131 210.917,-131.751 210.759,-142.345 217.4,-140.131"/>
</g>
<!-- Node11 -->
<g id="node11" class="node"><title>Node11</title>
<g id="a_node11"><a xlink:href="cl_8hh_source.html" target="_top" xlink:title="cl.hh">
<polygon fill="none" stroke="black" points="274,-56.5 274,-75.5 312,-75.5 312,-56.5 274,-56.5"/>
<text text-anchor="middle" x="293" y="-63.5" font-family="Helvetica,sans-Serif" font-size="10.00">cl.hh</text>
</a>
</g>
</g>
<!-- Node10&#45;&gt;Node11 -->
<g id="edge10" class="edge"><title>Node10&#45;&gt;Node11</title>
<path fill="none" stroke="midnightblue" d="M293,-112.083C293,-105.006 293,-94.8611 293,-85.9865"/>
<polygon fill="midnightblue" stroke="midnightblue" points="296.5,-85.751 293,-75.7511 289.5,-85.7511 296.5,-85.751"/>
</g>
<!-- Node12 -->
<g id="node12" class="node"><title>Node12</title>
<polygon fill="none" stroke="#bfbfbf" points="263.5,-0.5 263.5,-19.5 322.5,-19.5 322.5,-0.5 263.5,-0.5"/>
<text text-anchor="middle" x="293" y="-7.5" font-family="Helvetica,sans-Serif" font-size="10.00">CL/cl.hpp</text>
</g>
<!-- Node11&#45;&gt;Node12 -->
<g id="edge11" class="edge"><title>Node11&#45;&gt;Node12</title>
<path fill="none" stroke="midnightblue" d="M293,-56.083C293,-49.0059 293,-38.8611 293,-29.9865"/>
<polygon fill="midnightblue" stroke="midnightblue" points="296.5,-29.751 293,-19.7511 289.5,-29.7511 296.5,-29.751"/>
</g>
<!-- Node14 -->
<g id="node14" class="node"><title>Node14</title>
<polygon fill="none" stroke="#bfbfbf" points="811,-112.5 811,-131.5 859,-131.5 859,-112.5 811,-112.5"/>
<text text-anchor="middle" x="835" y="-119.5" font-family="Helvetica,sans-Serif" font-size="10.00">CL/cl.h</text>
</g>
<!-- Node13&#45;&gt;Node14 -->
<g id="edge13" class="edge"><title>Node13&#45;&gt;Node14</title>
<path fill="none" stroke="midnightblue" d="M796.596,-168.083C803.227,-160.298 813.021,-148.801 821.058,-139.367"/>
<polygon fill="midnightblue" stroke="midnightblue" points="823.725,-141.633 827.545,-131.751 818.396,-137.094 823.725,-141.633"/>
</g>
<!-- Node15&#45;&gt;Node10 -->
<g id="edge15" class="edge"><title>Node15&#45;&gt;Node10</title>
<path fill="none" stroke="midnightblue" d="M420.074,-168.444C394.781,-159.399 354.698,-145.064 326.32,-134.916"/>
<polygon fill="midnightblue" stroke="midnightblue" points="327.409,-131.588 316.814,-131.516 325.052,-138.179 327.409,-131.588"/>
</g>
<!-- Node16 -->
<g id="node16" class="node"><title>Node16</title>
<g id="a_node16"><a xlink:href="profile__counters_8hh.html" target="_top" xlink:title="profile_counters.hh">
<polygon fill="none" stroke="black" points="394.5,-112.5 394.5,-131.5 493.5,-131.5 493.5,-112.5 394.5,-112.5"/>
<text text-anchor="middle" x="444" y="-119.5" font-family="Helvetica,sans-Serif" font-size="10.00">profile_counters.hh</text>
</a>
</g>
</g>
<!-- Node15&#45;&gt;Node16 -->
<g id="edge16" class="edge"><title>Node15&#45;&gt;Node16</title>
<path fill="none" stroke="midnightblue" d="M444,-168.083C444,-161.006 444,-150.861 444,-141.986"/>
<polygon fill="midnightblue" stroke="midnightblue" points="447.5,-141.751 444,-131.751 440.5,-141.751 447.5,-141.751"/>
</g>
<!-- Node18 -->
<g id="node18" class="node"><title>Node18</title>
<polygon fill="none" stroke="#bfbfbf" points="589,-112.5 589,-131.5 657,-131.5 657,-112.5 589,-112.5"/>
<text text-anchor="middle" x="623" y="-119.5" font-family="Helvetica,sans-Serif" font-size="10.00">blitz/array.h</text>
</g>
<!-- Node15&#45;&gt;Node18 -->
<g id="edge18" class="edge"><title>Node15&#45;&gt;Node18</title>
<path fill="none" stroke="midnightblue" d="M472.363,-168.444C502.738,-159.28 551.11,-144.688 584.816,-134.519"/>
<polygon fill="midnightblue" stroke="midnightblue" points="586.207,-137.756 594.77,-131.516 584.185,-131.054 586.207,-137.756"/>
</g>
<!-- Node19 -->
<g id="node19" class="node"><title>Node19</title>
<polygon fill="none" stroke="#bfbfbf" points="511.5,-112.5 511.5,-131.5 570.5,-131.5 570.5,-112.5 511.5,-112.5"/>
<text text-anchor="middle" x="541" y="-119.5" font-family="Helvetica,sans-Serif" font-size="10.00">stdexcept</text>
</g>
<!-- Node15&#45;&gt;Node19 -->
<g id="edge19" class="edge"><title>Node15&#45;&gt;Node19</title>
<path fill="none" stroke="midnightblue" d="M459.585,-168.324C474.999,-159.743 498.812,-146.486 516.71,-136.522"/>
<polygon fill="midnightblue" stroke="midnightblue" points="518.419,-139.577 525.454,-131.655 515.014,-133.461 518.419,-139.577"/>
</g>
<!-- Node16&#45;&gt;Node17 -->
<g id="edge17" class="edge"><title>Node16&#45;&gt;Node17</title>
<path fill="none" stroke="midnightblue" d="M437.56,-112.083C432.051,-104.455 423.969,-93.2645 417.235,-83.9408"/>
<polygon fill="midnightblue" stroke="midnightblue" points="420.013,-81.8087 411.32,-75.7511 414.338,-85.9071 420.013,-81.8087"/>
</g>
<!-- Node20&#45;&gt;Node18 -->
<g id="edge22" class="edge"><title>Node20&#45;&gt;Node18</title>
<path fill="none" stroke="midnightblue" d="M656.395,-168.083C650.745,-160.455 642.455,-149.264 635.549,-139.941"/>
<polygon fill="midnightblue" stroke="midnightblue" points="638.247,-137.703 629.482,-131.751 632.622,-141.87 638.247,-137.703"/>
</g>
<!-- Node21 -->
<g id="node21" class="node"><title>Node21</title>
<polygon fill="none" stroke="#bfbfbf" points="675,-112.5 675,-131.5 731,-131.5 731,-112.5 675,-112.5"/>
<text text-anchor="middle" x="703" y="-119.5" font-family="Helvetica,sans-Serif" font-size="10.00">algorithm</text>
</g>
<!-- Node20&#45;&gt;Node21 -->
<g id="edge21" class="edge"><title>Node20&#45;&gt;Node21</title>
<path fill="none" stroke="midnightblue" d="M669.605,-168.083C675.255,-160.455 683.545,-149.264 690.451,-139.941"/>
<polygon fill="midnightblue" stroke="midnightblue" points="693.378,-141.87 696.518,-131.751 687.753,-137.703 693.378,-141.87"/>
</g>
<!-- Node22 -->
<g id="node22" class="node"><title>Node22</title>
<polygon fill="none" stroke="#bfbfbf" points="749,-112.5 749,-131.5 793,-131.5 793,-112.5 749,-112.5"/>
<text text-anchor="middle" x="771" y="-119.5" font-family="Helvetica,sans-Serif" font-size="10.00">cmath</text>
</g>
<!-- Node20&#45;&gt;Node22 -->
<g id="edge23" class="edge"><title>Node20&#45;&gt;Node22</title>
<path fill="none" stroke="midnightblue" d="M680.352,-168.324C697.672,-159.664 724.515,-146.242 744.502,-136.249"/>
<polygon fill="midnightblue" stroke="midnightblue" points="746.312,-139.257 753.691,-131.655 743.181,-132.996 746.312,-139.257"/>
</g>
</g>
</svg>
