<?xml version="1.0" encoding="UTF-8" standalone="no"?>
<!DOCTYPE svg PUBLIC "-//W3C//DTD SVG 1.1//EN"
 "http://www.w3.org/Graphics/SVG/1.1/DTD/svg11.dtd">
<!-- Generated by graphviz version 2.40.1 (20161225.0304)
 -->
<!-- Title: src/arma_driver.hh Pages: 1 -->
<svg width="1517pt" height="364pt"
 viewBox="0.00 0.00 1517.00 364.00" xmlns="http://www.w3.org/2000/svg" xmlns:xlink="http://www.w3.org/1999/xlink">
<g id="graph0" class="graph" transform="scale(1 1) rotate(0) translate(4 360)">
<title>src/arma_driver.hh</title>
<!-- Node0 -->
<g id="node1" class="node">
<title>Node0</title>
<polygon fill="#bfbfbf" stroke="#000000" points="994.5,-336.5 994.5,-355.5 1091.5,-355.5 1091.5,-336.5 994.5,-336.5"/>
<text text-anchor="middle" x="1043" y="-343.5" font-family="Helvetica,sans-Serif" font-size="10.00" fill="#000000">src/arma_driver.hh</text>
</g>
<!-- Node1 -->
<g id="node2" class="node">
<title>Node1</title>
<polygon fill="none" stroke="#bfbfbf" points="593.5,-280.5 593.5,-299.5 652.5,-299.5 652.5,-280.5 593.5,-280.5"/>
<text text-anchor="middle" x="623" y="-287.5" font-family="Helvetica,sans-Serif" font-size="10.00" fill="#000000">functional</text>
</g>
<!-- Node0&#45;&gt;Node1 -->
<g id="edge1" class="edge">
<title>Node0&#45;&gt;Node1</title>
<path fill="none" stroke="#191970" d="M994.3936,-341.6485C922.5148,-334.8535 783.779,-320.3594 667,-300 665.553,-299.7477 664.0819,-299.4788 662.5981,-299.1969"/>
<polygon fill="#191970" stroke="#191970" points="663.2365,-295.7552 652.7393,-297.1899 661.8401,-302.6145 663.2365,-295.7552"/>
</g>
<!-- Node2 -->
<g id="node3" class="node">
<title>Node2</title>
<polygon fill="none" stroke="#bfbfbf" points="779.5,-112.5 779.5,-131.5 828.5,-131.5 828.5,-112.5 779.5,-112.5"/>
<text text-anchor="middle" x="804" y="-119.5" font-family="Helvetica,sans-Serif" font-size="10.00" fill="#000000">istream</text>
</g>
<!-- Node0&#45;&gt;Node2 -->
<g id="edge2" class="edge">
<title>Node0&#45;&gt;Node2</title>
<path fill="none" stroke="#191970" d="M994.282,-340.3712C931.4078,-332.5503 825.9403,-317.3817 791,-300 758.049,-283.6079 752.5634,-273.0751 730,-244 707.7364,-215.3112 680.1848,-198.4314 700,-168 708.1075,-155.5489 742.6328,-141.8375 769.7085,-132.6519"/>
<polygon fill="#191970" stroke="#191970" points="770.8898,-135.9477 779.284,-129.4833 768.6907,-129.3021 770.8898,-135.9477"/>
</g>
<!-- Node3 -->
<g id="node4" class="node">
<title>Node3</title>
<polygon fill="none" stroke="#bfbfbf" points="1148,-112.5 1148,-131.5 1200,-131.5 1200,-112.5 1148,-112.5"/>
<text text-anchor="middle" x="1174" y="-119.5" font-family="Helvetica,sans-Serif" font-size="10.00" fill="#000000">ostream</text>
</g>
<!-- Node0&#45;&gt;Node3 -->
<g id="edge3" class="edge">
<title>Node0&#45;&gt;Node3</title>
<path fill="none" stroke="#191970" d="M1091.6273,-342.1438C1148.8309,-334.509 1239.3904,-311.7624 1266,-244 1283.1945,-200.2137 1232.425,-158.5502 1199.597,-137.0781"/>
<polygon fill="#191970" stroke="#191970" points="1201.2082,-133.956 1190.885,-131.5723 1197.4685,-139.8734 1201.2082,-133.956"/>
</g>
<!-- Node4 -->
<g id="node5" class="node">
<title>Node4</title>
<polygon fill="none" stroke="#bfbfbf" points="846.5,-112.5 846.5,-131.5 887.5,-131.5 887.5,-112.5 846.5,-112.5"/>
<text text-anchor="middle" x="867" y="-119.5" font-family="Helvetica,sans-Serif" font-size="10.00" fill="#000000">string</text>
</g>
<!-- Node0&#45;&gt;Node4 -->
<g id="edge4" class="edge">
<title>Node0&#45;&gt;Node4</title>
<path fill="none" stroke="#191970" d="M1025.8344,-336.4623C1011.8354,-328.1085 992.135,-314.9838 978,-300 930.4392,-249.5833 892.2478,-175.7542 875.78,-141.1858"/>
<polygon fill="#191970" stroke="#191970" points="878.79,-139.3603 871.3804,-131.7875 872.4503,-142.3282 878.79,-139.3603"/>
</g>
<!-- Node5 -->
<g id="node6" class="node">
<title>Node5</title>
<polygon fill="none" stroke="#bfbfbf" points="1351.5,-280.5 1351.5,-299.5 1434.5,-299.5 1434.5,-280.5 1351.5,-280.5"/>
<text text-anchor="middle" x="1393" y="-287.5" font-family="Helvetica,sans-Serif" font-size="10.00" fill="#000000">unordered_map</text>
</g>
<!-- Node0&#45;&gt;Node5 -->
<g id="edge5" class="edge">
<title>Node0&#45;&gt;Node5</title>
<path fill="none" stroke="#191970" d="M1091.6921,-338.7093C1150.0473,-329.896 1250.7623,-314.4446 1337,-300 1338.461,-299.7553 1339.9431,-299.5049 1341.4388,-299.2504"/>
<polygon fill="#191970" stroke="#191970" points="1342.1685,-302.6763 1351.4274,-297.5262 1340.9777,-295.7783 1342.1685,-302.6763"/>
</g>
<!-- Node6 -->
<g id="node7" class="node">
<title>Node6</title>
<polygon fill="none" stroke="#bfbfbf" points="1453,-280.5 1453,-299.5 1509,-299.5 1509,-280.5 1453,-280.5"/>
<text text-anchor="middle" x="1481" y="-287.5" font-family="Helvetica,sans-Serif" font-size="10.00" fill="#000000">config.hh</text>
</g>
<!-- Node0&#45;&gt;Node6 -->
<g id="edge6" class="edge">
<title>Node0&#45;&gt;Node6</title>
<path fill="none" stroke="#191970" d="M1091.8109,-342.7691C1165.817,-337.3524 1310.9146,-324.7083 1442.9341,-299.9636"/>
<polygon fill="#191970" stroke="#191970" points="1443.6498,-303.3903 1452.8195,-298.0831 1442.3416,-296.5136 1443.6498,-303.3903"/>
</g>
<!-- Node7 -->
<g id="node8" class="node">
<title>Node7</title>
<g id="a_node8"><a xlink:href="types_8hh.html" target="_top" xlink:title="types.hh">
<polygon fill="none" stroke="#000000" points="1169,-168.5 1169,-187.5 1223,-187.5 1223,-168.5 1169,-168.5"/>
<text text-anchor="middle" x="1196" y="-175.5" font-family="Helvetica,sans-Serif" font-size="10.00" fill="#000000">types.hh</text>
</a>
</g>
</g>
<!-- Node0&#45;&gt;Node7 -->
<g id="edge7" class="edge">
<title>Node0&#45;&gt;Node7</title>
<path fill="none" stroke="#191970" d="M1091.4411,-336.4841C1114.0881,-329.7652 1139.7918,-318.5334 1157,-300 1183.6232,-271.3265 1192.073,-224.4319 1194.7543,-197.9113"/>
<polygon fill="#191970" stroke="#191970" points="1198.2707,-197.8553 1195.6059,-187.6011 1191.2945,-197.279 1198.2707,-197.8553"/>
</g>
<!-- Node9 -->
<g id="node10" class="node">
<title>Node9</title>
<g id="a_node10"><a xlink:href="arma_8hh.html" target="_top" xlink:title="arma.hh">
<polygon fill="none" stroke="#000000" points="1205,-224.5 1205,-243.5 1257,-243.5 1257,-224.5 1205,-224.5"/>
<text text-anchor="middle" x="1231" y="-231.5" font-family="Helvetica,sans-Serif" font-size="10.00" fill="#000000">arma.hh</text>
</a>
</g>
</g>
<!-- Node0&#45;&gt;Node9 -->
<g id="edge9" class="edge">
<title>Node0&#45;&gt;Node9</title>
<path fill="none" stroke="#191970" d="M1091.7578,-339.8811C1122.7926,-333.9439 1162.3853,-322.3753 1191,-300 1206.4577,-287.9128 1217.3204,-268.055 1223.7865,-253.2733"/>
<polygon fill="#191970" stroke="#191970" points="1227.1989,-254.1727 1227.7207,-243.5908 1220.7138,-251.5377 1227.1989,-254.1727"/>
</g>
<!-- Node10 -->
<g id="node11" class="node">
<title>Node10</title>
<g id="a_node11"><a xlink:href="basic__model_8hh.html" target="_top" xlink:title="generator/basic_model.hh">
<polygon fill="none" stroke="#000000" points="747,-224.5 747,-243.5 875,-243.5 875,-224.5 747,-224.5"/>
<text text-anchor="middle" x="811" y="-231.5" font-family="Helvetica,sans-Serif" font-size="10.00" fill="#000000">generator/basic_model.hh</text>
</a>
</g>
</g>
<!-- Node0&#45;&gt;Node10 -->
<g id="edge11" class="edge">
<title>Node0&#45;&gt;Node10</title>
<path fill="none" stroke="#191970" d="M994.1622,-336.826C962.8363,-329.6598 922.0027,-317.8696 889,-300 865.0457,-287.0297 841.7632,-265.8716 826.966,-251.0156"/>
<polygon fill="#191970" stroke="#191970" points="829.1462,-248.2369 819.6678,-243.5027 824.1251,-253.1143 829.1462,-248.2369"/>
</g>
<!-- Node11 -->
<g id="node12" class="node">
<title>Node11</title>
<g id="a_node12"><a xlink:href="grid_8hh.html" target="_top" xlink:title="grid.hh">
<polygon fill="none" stroke="#000000" points="931,-168.5 931,-187.5 977,-187.5 977,-168.5 931,-168.5"/>
<text text-anchor="middle" x="954" y="-175.5" font-family="Helvetica,sans-Serif" font-size="10.00" fill="#000000">grid.hh</text>
</a>
</g>
</g>
<!-- Node0&#45;&gt;Node11 -->
<g id="edge45" class="edge">
<title>Node0&#45;&gt;Node11</title>
<path fill="none" stroke="#191970" d="M1031.6717,-336.3814C1012.9703,-319.7389 976.1071,-283.5377 960,-244 954.0314,-229.3489 952.7434,-211.3962 952.83,-197.9152"/>
<polygon fill="#191970" stroke="#191970" points="956.3315,-197.9204 953.1534,-187.8135 949.3351,-197.6963 956.3315,-197.9204"/>
</g>
<!-- Node17 -->
<g id="node18" class="node">
<title>Node17</title>
<g id="a_node18"><a xlink:href="output__flags_8hh.html" target="_top" xlink:title="output_flags.hh">
<polygon fill="none" stroke="#000000" points="709.5,-168.5 709.5,-187.5 792.5,-187.5 792.5,-168.5 709.5,-168.5"/>
<text text-anchor="middle" x="751" y="-175.5" font-family="Helvetica,sans-Serif" font-size="10.00" fill="#000000">output_flags.hh</text>
</a>
</g>
</g>
<!-- Node0&#45;&gt;Node17 -->
<g id="edge44" class="edge">
<title>Node0&#45;&gt;Node17</title>
<path fill="none" stroke="#191970" d="M994.2677,-337.3C915.4599,-322.071 766.0056,-287.9743 738,-244 729.0143,-229.8907 734.1535,-210.9087 740.4244,-196.9235"/>
<polygon fill="#191970" stroke="#191970" points="743.6624,-198.2737 745.0049,-187.7643 737.4016,-195.1427 743.6624,-198.2737"/>
</g>
<!-- Node30 -->
<g id="node31" class="node">
<title>Node30</title>
<g id="a_node31"><a xlink:href="basic__solver_8hh.html" target="_top" xlink:title="velocity/basic_solver.hh">
<polygon fill="none" stroke="#000000" points="1027.5,-280.5 1027.5,-299.5 1148.5,-299.5 1148.5,-280.5 1027.5,-280.5"/>
<text text-anchor="middle" x="1088" y="-287.5" font-family="Helvetica,sans-Serif" font-size="10.00" fill="#000000">velocity/basic_solver.hh</text>
</a>
</g>
</g>
<!-- Node0&#45;&gt;Node30 -->
<g id="edge46" class="edge">
<title>Node0&#45;&gt;Node30</title>
<path fill="none" stroke="#191970" d="M1050.8384,-336.2455C1057.162,-328.3761 1066.2224,-317.101 1073.8136,-307.6542"/>
<polygon fill="#191970" stroke="#191970" points="1076.7158,-309.6302 1080.2514,-299.6427 1071.2592,-305.2454 1076.7158,-309.6302"/>
</g>
<!-- Node33 -->
<g id="node34" class="node">
<title>Node33</title>
<g id="a_node34"><a xlink:href="discrete__function_8hh.html" target="_top" xlink:title="discrete_function.hh">
<polygon fill="none" stroke="#000000" points="969,-224.5 969,-243.5 1073,-243.5 1073,-224.5 969,-224.5"/>
<text text-anchor="middle" x="1021" y="-231.5" font-family="Helvetica,sans-Serif" font-size="10.00" fill="#000000">discrete_function.hh</text>
</a>
</g>
</g>
<!-- Node0&#45;&gt;Node33 -->
<g id="edge58" class="edge">
<title>Node0&#45;&gt;Node33</title>
<path fill="none" stroke="#191970" d="M1035.8985,-336.3724C1029.7948,-327.4569 1021.4483,-313.5662 1018,-300 1014.1147,-284.7146 1015.2685,-266.8089 1017.1692,-253.5074"/>
<polygon fill="#191970" stroke="#191970" points="1020.6323,-254.0189 1018.8472,-243.5756 1013.7301,-252.8527 1020.6323,-254.0189"/>
</g>
<!-- Node34 -->
<g id="node35" class="node">
<title>Node34</title>
<g id="a_node35"><a xlink:href="util_8hh.html" target="_top" xlink:title="util.hh">
<polygon fill="none" stroke="#000000" points="1313.5,-168.5 1313.5,-187.5 1356.5,-187.5 1356.5,-168.5 1313.5,-168.5"/>
<text text-anchor="middle" x="1335" y="-175.5" font-family="Helvetica,sans-Serif" font-size="10.00" fill="#000000">util.hh</text>
</a>
</g>
</g>
<!-- Node0&#45;&gt;Node34 -->
<g id="edge59" class="edge">
<title>Node0&#45;&gt;Node34</title>
<path fill="none" stroke="#191970" d="M1091.7566,-343.2424C1157.313,-338.5529 1269.1163,-326.7879 1299,-300 1328.2084,-273.8175 1334.2157,-225.2345 1335.1564,-197.941"/>
<polygon fill="#191970" stroke="#191970" points="1338.6597,-197.7233 1335.3022,-187.6746 1331.6604,-197.6239 1338.6597,-197.7233"/>
</g>
<!-- Node8 -->
<g id="node9" class="node">
<title>Node8</title>
<polygon fill="none" stroke="#bfbfbf" points="1086.5,-.5 1086.5,-19.5 1153.5,-19.5 1153.5,-.5 1086.5,-.5"/>
<text text-anchor="middle" x="1120" y="-7.5" font-family="Helvetica,sans-Serif" font-size="10.00" fill="#000000">blitz/array.h</text>
</g>
<!-- Node7&#45;&gt;Node8 -->
<g id="edge8" class="edge">
<title>Node7&#45;&gt;Node8</title>
<path fill="none" stroke="#191970" d="M1201.1292,-168.3308C1207.3655,-155.2239 1216.2161,-131.2458 1209,-112 1195.4518,-75.8659 1162.6675,-44.1213 1140.8979,-26.0015"/>
<polygon fill="#191970" stroke="#191970" points="1142.8605,-23.0875 1132.8817,-19.5274 1138.4623,-28.5334 1142.8605,-23.0875"/>
</g>
<!-- Node9&#45;&gt;Node7 -->
<g id="edge10" class="edge">
<title>Node9&#45;&gt;Node7</title>
<path fill="none" stroke="#191970" d="M1224.9035,-224.2455C1220.0855,-216.5367 1213.2249,-205.5598 1207.3968,-196.2348"/>
<polygon fill="#191970" stroke="#191970" points="1210.2947,-194.2677 1202.0267,-187.6427 1204.3587,-197.9777 1210.2947,-194.2677"/>
</g>
<!-- Node10&#45;&gt;Node2 -->
<g id="edge12" class="edge">
<title>Node10&#45;&gt;Node2</title>
<path fill="none" stroke="#191970" d="M810.4032,-224.4509C809.2615,-206.184 806.7472,-165.9553 805.2311,-141.6976"/>
<polygon fill="#191970" stroke="#191970" points="808.7124,-141.2871 804.5953,-131.5249 801.726,-141.7238 808.7124,-141.2871"/>
</g>
<!-- Node10&#45;&gt;Node3 -->
<g id="edge13" class="edge">
<title>Node10&#45;&gt;Node3</title>
<path fill="none" stroke="#191970" d="M875.3349,-230.0688C953.8527,-224.3192 1081.2092,-211.636 1122,-188 1141.0508,-176.9611 1155.7136,-155.9958 1164.5401,-140.6468"/>
<polygon fill="#191970" stroke="#191970" points="1167.7927,-141.9909 1169.485,-131.5321 1161.6399,-138.6528 1167.7927,-141.9909"/>
</g>
<!-- Node10&#45;&gt;Node7 -->
<g id="edge43" class="edge">
<title>Node10&#45;&gt;Node7</title>
<path fill="none" stroke="#191970" d="M875.0425,-227.4963C944.3713,-219.9767 1058.0377,-206.2541 1155,-188 1156.2555,-187.7636 1157.5303,-187.5131 1158.8157,-187.2513"/>
<polygon fill="#191970" stroke="#191970" points="1159.7216,-190.636 1168.7407,-185.0766 1158.2233,-183.7982 1159.7216,-190.636"/>
</g>
<!-- Node10&#45;&gt;Node11 -->
<g id="edge14" class="edge">
<title>Node10&#45;&gt;Node11</title>
<path fill="none" stroke="#191970" d="M835.5826,-224.3733C859.2328,-215.1116 895.1447,-201.0482 921.2194,-190.8371"/>
<polygon fill="#191970" stroke="#191970" points="922.6499,-194.0358 930.6851,-187.1303 920.0974,-187.5178 922.6499,-194.0358"/>
</g>
<!-- Node10&#45;&gt;Node17 -->
<g id="edge24" class="edge">
<title>Node10&#45;&gt;Node17</title>
<path fill="none" stroke="#191970" d="M800.5488,-224.2455C791.7731,-216.0549 779.0446,-204.1749 768.686,-194.5069"/>
<polygon fill="#191970" stroke="#191970" points="771.0301,-191.9072 761.3314,-187.6427 766.2539,-197.0246 771.0301,-191.9072"/>
</g>
<!-- Node20 -->
<g id="node21" class="node">
<title>Node20</title>
<g id="a_node21"><a xlink:href="parallel__mt_8hh.html" target="_top" xlink:title="parallel_mt.hh">
<polygon fill="none" stroke="#000000" points="343.5,-168.5 343.5,-187.5 420.5,-187.5 420.5,-168.5 343.5,-168.5"/>
<text text-anchor="middle" x="382" y="-175.5" font-family="Helvetica,sans-Serif" font-size="10.00" fill="#000000">parallel_mt.hh</text>
</a>
</g>
</g>
<!-- Node10&#45;&gt;Node20 -->
<g id="edge30" class="edge">
<title>Node10&#45;&gt;Node20</title>
<path fill="none" stroke="#191970" d="M746.7744,-225.6162C660.3144,-214.3301 508.3936,-194.4989 430.7217,-184.3599"/>
<polygon fill="#191970" stroke="#191970" points="431.0904,-180.8785 420.7215,-183.0546 430.1843,-187.8196 431.0904,-180.8785"/>
</g>
<!-- Node11&#45;&gt;Node2 -->
<g id="edge16" class="edge">
<title>Node11&#45;&gt;Node2</title>
<path fill="none" stroke="#191970" d="M930.8912,-169.3727C906.1175,-160.1239 866.5276,-145.3436 838.1568,-134.7519"/>
<polygon fill="#191970" stroke="#191970" points="839.2249,-131.4147 828.6323,-131.1961 836.7765,-137.9726 839.2249,-131.4147"/>
</g>
<!-- Node12 -->
<g id="node13" class="node">
<title>Node12</title>
<polygon fill="none" stroke="#bfbfbf" points="971,-.5 971,-19.5 1015,-19.5 1015,-.5 971,-.5"/>
<text text-anchor="middle" x="993" y="-7.5" font-family="Helvetica,sans-Serif" font-size="10.00" fill="#000000">cmath</text>
</g>
<!-- Node11&#45;&gt;Node12 -->
<g id="edge15" class="edge">
<title>Node11&#45;&gt;Node12</title>
<path fill="none" stroke="#191970" d="M952.6922,-168.4746C950.1833,-147.4633 946.0971,-95.8443 960,-56 963.6529,-45.5311 970.4947,-35.3561 977.0055,-27.2489"/>
<polygon fill="#191970" stroke="#191970" points="979.6865,-29.499 983.5231,-19.6232 974.3653,-24.951 979.6865,-29.499"/>
</g>
<!-- Node13 -->
<g id="node14" class="node">
<title>Node13</title>
<g id="a_node14"><a xlink:href="blitz_8hh.html" target="_top" xlink:title="blitz.hh">
<polygon fill="none" stroke="#000000" points="969,-56.5 969,-75.5 1017,-75.5 1017,-56.5 969,-56.5"/>
<text text-anchor="middle" x="993" y="-63.5" font-family="Helvetica,sans-Serif" font-size="10.00" fill="#000000">blitz.hh</text>
</a>
</g>
</g>
<!-- Node11&#45;&gt;Node13 -->
<g id="edge17" class="edge">
<title>Node11&#45;&gt;Node13</title>
<path fill="none" stroke="#191970" d="M956.3262,-168.4778C959.5811,-155.5376 965.8985,-131.7476 973,-112 976.2683,-102.9118 980.4584,-93.0645 984.1583,-84.8216"/>
<polygon fill="#191970" stroke="#191970" points="987.3444,-86.2703 988.3333,-75.7217 980.9821,-83.3513 987.3444,-86.2703"/>
</g>
<!-- Node15 -->
<g id="node16" class="node">
<title>Node15</title>
<g id="a_node16"><a xlink:href="validators_8hh.html" target="_top" xlink:title="validators.hh">
<polygon fill="none" stroke="#000000" points="982,-112.5 982,-131.5 1054,-131.5 1054,-112.5 982,-112.5"/>
<text text-anchor="middle" x="1018" y="-119.5" font-family="Helvetica,sans-Serif" font-size="10.00" fill="#000000">validators.hh</text>
</a>
</g>
</g>
<!-- Node11&#45;&gt;Node15 -->
<g id="edge21" class="edge">
<title>Node11&#45;&gt;Node15</title>
<path fill="none" stroke="#191970" d="M965.1479,-168.2455C974.5087,-160.0549 988.0858,-148.1749 999.1349,-138.5069"/>
<polygon fill="#191970" stroke="#191970" points="1001.7588,-140.8618 1006.9798,-131.6427 997.1492,-135.5937 1001.7588,-140.8618"/>
</g>
<!-- Node13&#45;&gt;Node8 -->
<g id="edge19" class="edge">
<title>Node13&#45;&gt;Node8</title>
<path fill="none" stroke="#191970" d="M1014.8321,-56.3733C1035.3103,-47.3435 1066.1399,-33.7494 1089.1319,-23.6111"/>
<polygon fill="#191970" stroke="#191970" points="1090.715,-26.7383 1098.4528,-19.5011 1087.8907,-20.3333 1090.715,-26.7383"/>
</g>
<!-- Node13&#45;&gt;Node12 -->
<g id="edge20" class="edge">
<title>Node13&#45;&gt;Node12</title>
<path fill="none" stroke="#191970" d="M993,-56.2455C993,-48.9382 993,-38.6944 993,-29.7046"/>
<polygon fill="#191970" stroke="#191970" points="996.5001,-29.6426 993,-19.6427 989.5001,-29.6427 996.5001,-29.6426"/>
</g>
<!-- Node14 -->
<g id="node15" class="node">
<title>Node14</title>
<polygon fill="none" stroke="#bfbfbf" points="638,-.5 638,-19.5 694,-19.5 694,-.5 638,-.5"/>
<text text-anchor="middle" x="666" y="-7.5" font-family="Helvetica,sans-Serif" font-size="10.00" fill="#000000">algorithm</text>
</g>
<!-- Node13&#45;&gt;Node14 -->
<g id="edge18" class="edge">
<title>Node13&#45;&gt;Node14</title>
<path fill="none" stroke="#191970" d="M968.9549,-61.8822C912.698,-52.248 772.1296,-28.1751 704.088,-16.5227"/>
<polygon fill="#191970" stroke="#191970" points="704.6512,-13.0683 694.2039,-14.83 703.4696,-19.9678 704.6512,-13.0683"/>
</g>
<!-- Node15&#45;&gt;Node13 -->
<g id="edge23" class="edge">
<title>Node15&#45;&gt;Node13</title>
<path fill="none" stroke="#191970" d="M1013.6453,-112.2455C1010.2756,-104.6973 1005.507,-94.0158 1001.4017,-84.8197"/>
<polygon fill="#191970" stroke="#191970" points="1004.5773,-83.3473 997.3048,-75.6427 998.1853,-86.2009 1004.5773,-83.3473"/>
</g>
<!-- Node16 -->
<g id="node17" class="node">
<title>Node16</title>
<polygon fill="none" stroke="#bfbfbf" points="705.5,-56.5 705.5,-75.5 764.5,-75.5 764.5,-56.5 705.5,-56.5"/>
<text text-anchor="middle" x="735" y="-63.5" font-family="Helvetica,sans-Serif" font-size="10.00" fill="#000000">stdexcept</text>
</g>
<!-- Node15&#45;&gt;Node16 -->
<g id="edge22" class="edge">
<title>Node15&#45;&gt;Node16</title>
<path fill="none" stroke="#191970" d="M981.8704,-114.8507C928.8149,-104.3521 830.1634,-84.8309 774.9901,-73.9132"/>
<polygon fill="#191970" stroke="#191970" points="775.3773,-70.4221 764.8881,-71.9142 774.0184,-77.2889 775.3773,-70.4221"/>
</g>
<!-- Node17&#45;&gt;Node2 -->
<g id="edge26" class="edge">
<title>Node17&#45;&gt;Node2</title>
<path fill="none" stroke="#191970" d="M760.2319,-168.2455C767.8317,-160.2155 778.7877,-148.6394 787.8368,-139.0781"/>
<polygon fill="#191970" stroke="#191970" points="790.5421,-141.3115 794.8739,-131.6427 785.458,-136.4998 790.5421,-141.3115"/>
</g>
<!-- Node17&#45;&gt;Node3 -->
<g id="edge27" class="edge">
<title>Node17&#45;&gt;Node3</title>
<path fill="none" stroke="#191970" d="M792.7165,-172.4772C875.5286,-161.5139 1059.4165,-137.1694 1137.6428,-126.8132"/>
<polygon fill="#191970" stroke="#191970" points="1138.504,-130.2299 1147.9581,-125.4476 1137.5852,-123.2904 1138.504,-130.2299"/>
</g>
<!-- Node17&#45;&gt;Node4 -->
<g id="edge28" class="edge">
<title>Node17&#45;&gt;Node4</title>
<path fill="none" stroke="#191970" d="M770.9411,-168.3733C789.4786,-159.4241 817.3028,-145.9917 838.2413,-135.8835"/>
<polygon fill="#191970" stroke="#191970" points="839.8352,-139.0006 847.3191,-131.5011 836.7919,-132.6967 839.8352,-139.0006"/>
</g>
<!-- Node18 -->
<g id="node19" class="node">
<title>Node18</title>
<polygon fill="none" stroke="#bfbfbf" points="720.5,-112.5 720.5,-131.5 761.5,-131.5 761.5,-112.5 720.5,-112.5"/>
<text text-anchor="middle" x="741" y="-119.5" font-family="Helvetica,sans-Serif" font-size="10.00" fill="#000000">bitset</text>
</g>
<!-- Node17&#45;&gt;Node18 -->
<g id="edge25" class="edge">
<title>Node17&#45;&gt;Node18</title>
<path fill="none" stroke="#191970" d="M749.2581,-168.2455C747.9533,-160.9382 746.124,-150.6944 744.5187,-141.7046"/>
<polygon fill="#191970" stroke="#191970" points="747.9254,-140.8717 742.7219,-131.6427 741.0344,-142.1022 747.9254,-140.8717"/>
</g>
<!-- Node19 -->
<g id="node20" class="node">
<title>Node19</title>
<polygon fill="none" stroke="#bfbfbf" points="640,-112.5 640,-131.5 702,-131.5 702,-112.5 640,-112.5"/>
<text text-anchor="middle" x="671" y="-119.5" font-family="Helvetica,sans-Serif" font-size="10.00" fill="#000000">type_traits</text>
</g>
<!-- Node17&#45;&gt;Node19 -->
<g id="edge29" class="edge">
<title>Node17&#45;&gt;Node19</title>
<path fill="none" stroke="#191970" d="M737.0651,-168.2455C724.9053,-159.7337 707.0536,-147.2375 692.9715,-137.3801"/>
<polygon fill="#191970" stroke="#191970" points="694.9747,-134.51 684.7752,-131.6427 690.9605,-140.2447 694.9747,-134.51"/>
</g>
<!-- Node20&#45;&gt;Node2 -->
<g id="edge35" class="edge">
<title>Node20&#45;&gt;Node2</title>
<path fill="none" stroke="#191970" d="M420.6166,-175.5801C489.0555,-170.8261 636.1608,-158.5161 769.2732,-131.8356"/>
<polygon fill="#191970" stroke="#191970" points="770.1388,-135.2312 779.2389,-129.8055 768.7415,-128.3721 770.1388,-135.2312"/>
</g>
<!-- Node20&#45;&gt;Node14 -->
<g id="edge32" class="edge">
<title>Node20&#45;&gt;Node14</title>
<path fill="none" stroke="#191970" d="M382.1953,-168.1867C382.9967,-154.0242 386.499,-127.8229 401,-112 461.6733,-45.796 570.1781,-22.1637 627.7226,-14.0388"/>
<polygon fill="#191970" stroke="#191970" points="628.3983,-17.4799 637.8513,-12.6954 627.4779,-10.5407 628.3983,-17.4799"/>
</g>
<!-- Node20&#45;&gt;Node16 -->
<g id="edge37" class="edge">
<title>Node20&#45;&gt;Node16</title>
<path fill="none" stroke="#191970" d="M420.6073,-172.7858C463.5963,-166.2507 534.7028,-153.2514 593,-132 610.931,-125.4635 613.8185,-120.3093 631,-112 654.7824,-100.4983 682.1165,-88.4529 702.7919,-79.5744"/>
<polygon fill="#191970" stroke="#191970" points="704.2526,-82.7564 712.0735,-75.6091 701.5024,-76.3193 704.2526,-82.7564"/>
</g>
<!-- Node21 -->
<g id="node22" class="node">
<title>Node21</title>
<polygon fill="none" stroke="#bfbfbf" points="410.5,-112.5 410.5,-131.5 455.5,-131.5 455.5,-112.5 410.5,-112.5"/>
<text text-anchor="middle" x="433" y="-119.5" font-family="Helvetica,sans-Serif" font-size="10.00" fill="#000000">cstdlib</text>
</g>
<!-- Node20&#45;&gt;Node21 -->
<g id="edge31" class="edge">
<title>Node20&#45;&gt;Node21</title>
<path fill="none" stroke="#191970" d="M390.8835,-168.2455C398.1966,-160.2155 408.7391,-148.6394 417.4467,-139.0781"/>
<polygon fill="#191970" stroke="#191970" points="420.0727,-141.3928 424.2183,-131.6427 414.8972,-136.6795 420.0727,-141.3928"/>
</g>
<!-- Node22 -->
<g id="node23" class="node">
<title>Node22</title>
<polygon fill="none" stroke="#bfbfbf" points="474,-112.5 474,-131.5 520,-131.5 520,-112.5 474,-112.5"/>
<text text-anchor="middle" x="497" y="-119.5" font-family="Helvetica,sans-Serif" font-size="10.00" fill="#000000">cstdint</text>
</g>
<!-- Node20&#45;&gt;Node22 -->
<g id="edge33" class="edge">
<title>Node20&#45;&gt;Node22</title>
<path fill="none" stroke="#191970" d="M401.7692,-168.3733C420.1469,-159.4241 447.7312,-145.9917 468.4893,-135.8835"/>
<polygon fill="#191970" stroke="#191970" points="470.0304,-139.026 477.4888,-131.5011 466.9657,-132.7325 470.0304,-139.026"/>
</g>
<!-- Node23 -->
<g id="node24" class="node">
<title>Node23</title>
<polygon fill="none" stroke="#bfbfbf" points="538,-112.5 538,-131.5 584,-131.5 584,-112.5 538,-112.5"/>
<text text-anchor="middle" x="561" y="-119.5" font-family="Helvetica,sans-Serif" font-size="10.00" fill="#000000">cstring</text>
</g>
<!-- Node20&#45;&gt;Node23 -->
<g id="edge34" class="edge">
<title>Node20&#45;&gt;Node23</title>
<path fill="none" stroke="#191970" d="M412.7712,-168.3733C444.9297,-158.3125 495.1997,-142.5856 528.123,-132.2855"/>
<polygon fill="#191970" stroke="#191970" points="529.2456,-135.6017 537.7444,-129.2755 527.1555,-128.921 529.2456,-135.6017"/>
</g>
<!-- Node24 -->
<g id="node25" class="node">
<title>Node24</title>
<polygon fill="none" stroke="#bfbfbf" points="0,-112.5 0,-131.5 40,-131.5 40,-112.5 0,-112.5"/>
<text text-anchor="middle" x="20" y="-119.5" font-family="Helvetica,sans-Serif" font-size="10.00" fill="#000000">limits</text>
</g>
<!-- Node20&#45;&gt;Node24 -->
<g id="edge36" class="edge">
<title>Node20&#45;&gt;Node24</title>
<path fill="none" stroke="#191970" d="M343.3436,-175.1197C282.6393,-170.0656 161.2503,-157.8165 50.1611,-131.8892"/>
<polygon fill="#191970" stroke="#191970" points="50.6713,-128.413 40.1328,-129.5041 49.0516,-135.223 50.6713,-128.413"/>
</g>
<!-- Node25 -->
<g id="node26" class="node">
<title>Node25</title>
<polygon fill="none" stroke="#bfbfbf" points="58,-112.5 58,-131.5 102,-131.5 102,-112.5 58,-112.5"/>
<text text-anchor="middle" x="80" y="-119.5" font-family="Helvetica,sans-Serif" font-size="10.00" fill="#000000">vector</text>
</g>
<!-- Node20&#45;&gt;Node25 -->
<g id="edge38" class="edge">
<title>Node20&#45;&gt;Node25</title>
<path fill="none" stroke="#191970" d="M343.497,-173.2414C292.5421,-166.5563 199.8229,-153.0509 112.0849,-131.9973"/>
<polygon fill="#191970" stroke="#191970" points="112.7856,-128.5657 102.2412,-129.5977 111.1277,-135.3666 112.7856,-128.5657"/>
</g>
<!-- Node26 -->
<g id="node27" class="node">
<title>Node26</title>
<polygon fill="none" stroke="#bfbfbf" points="120,-112.5 120,-131.5 170,-131.5 170,-112.5 120,-112.5"/>
<text text-anchor="middle" x="145" y="-119.5" font-family="Helvetica,sans-Serif" font-size="10.00" fill="#000000">fstream</text>
</g>
<!-- Node20&#45;&gt;Node26 -->
<g id="edge39" class="edge">
<title>Node20&#45;&gt;Node26</title>
<path fill="none" stroke="#191970" d="M343.2856,-169.9887C304.3886,-161.7712 242.517,-148.2434 180.203,-132.2008"/>
<polygon fill="#191970" stroke="#191970" points="180.7602,-128.7295 170.2016,-129.6049 179.0016,-135.505 180.7602,-128.7295"/>
</g>
<!-- Node27 -->
<g id="node28" class="node">
<title>Node27</title>
<polygon fill="none" stroke="#bfbfbf" points="188.5,-112.5 188.5,-131.5 235.5,-131.5 235.5,-112.5 188.5,-112.5"/>
<text text-anchor="middle" x="212" y="-119.5" font-family="Helvetica,sans-Serif" font-size="10.00" fill="#000000">iterator</text>
</g>
<!-- Node20&#45;&gt;Node27 -->
<g id="edge40" class="edge">
<title>Node20&#45;&gt;Node27</title>
<path fill="none" stroke="#191970" d="M352.776,-168.3733C322.88,-158.5252 276.5026,-143.2479 245.2286,-132.9459"/>
<polygon fill="#191970" stroke="#191970" points="246.2385,-129.5936 235.6455,-129.7891 244.0483,-136.2422 246.2385,-129.5936"/>
</g>
<!-- Node28 -->
<g id="node29" class="node">
<title>Node28</title>
<polygon fill="none" stroke="#bfbfbf" points="254,-112.5 254,-131.5 300,-131.5 300,-112.5 254,-112.5"/>
<text text-anchor="middle" x="277" y="-119.5" font-family="Helvetica,sans-Serif" font-size="10.00" fill="#000000">chrono</text>
</g>
<!-- Node20&#45;&gt;Node28 -->
<g id="edge41" class="edge">
<title>Node20&#45;&gt;Node28</title>
<path fill="none" stroke="#191970" d="M363.7104,-168.2455C347.2238,-159.4527 322.7648,-146.4079 304.0235,-136.4125"/>
<polygon fill="#191970" stroke="#191970" points="305.5506,-133.2604 295.08,-131.6427 302.2565,-139.4368 305.5506,-133.2604"/>
</g>
<!-- Node29 -->
<g id="node30" class="node">
<title>Node29</title>
<polygon fill="none" stroke="#bfbfbf" points="318.5,-112.5 318.5,-131.5 353.5,-131.5 353.5,-112.5 318.5,-112.5"/>
<text text-anchor="middle" x="336" y="-119.5" font-family="Helvetica,sans-Serif" font-size="10.00" fill="#000000">dc.h</text>
</g>
<!-- Node20&#45;&gt;Node29 -->
<g id="edge42" class="edge">
<title>Node20&#45;&gt;Node29</title>
<path fill="none" stroke="#191970" d="M373.9874,-168.2455C367.5232,-160.3761 358.2615,-149.101 350.5017,-139.6542"/>
<polygon fill="#191970" stroke="#191970" points="352.9727,-137.1484 343.9208,-131.6427 347.5636,-141.5916 352.9727,-137.1484"/>
</g>
<!-- Node30&#45;&gt;Node7 -->
<g id="edge47" class="edge">
<title>Node30&#45;&gt;Node7</title>
<path fill="none" stroke="#191970" d="M1097.208,-280.4509C1115.5399,-261.4401 1156.8092,-218.6423 1179.7845,-194.816"/>
<polygon fill="#191970" stroke="#191970" points="1182.3934,-197.1528 1186.8153,-187.5249 1177.3544,-192.2939 1182.3934,-197.1528"/>
</g>
<!-- Node31 -->
<g id="node32" class="node">
<title>Node31</title>
<g id="a_node32"><a xlink:href="domain_8hh.html" target="_top" xlink:title="domain.hh">
<polygon fill="none" stroke="#000000" points="1051,-168.5 1051,-187.5 1113,-187.5 1113,-168.5 1051,-168.5"/>
<text text-anchor="middle" x="1082" y="-175.5" font-family="Helvetica,sans-Serif" font-size="10.00" fill="#000000">domain.hh</text>
</a>
</g>
</g>
<!-- Node30&#45;&gt;Node31 -->
<g id="edge48" class="edge">
<title>Node30&#45;&gt;Node31</title>
<path fill="none" stroke="#191970" d="M1087.4884,-280.4509C1086.5099,-262.184 1084.3547,-221.9553 1083.0552,-197.6976"/>
<polygon fill="#191970" stroke="#191970" points="1086.5403,-197.3233 1082.5103,-187.5249 1079.5503,-197.6978 1086.5403,-197.3233"/>
</g>
<!-- Node30&#45;&gt;Node33 -->
<g id="edge55" class="edge">
<title>Node30&#45;&gt;Node33</title>
<path fill="none" stroke="#191970" d="M1076.3295,-280.2455C1066.4339,-271.9746 1052.0373,-259.9416 1040.4099,-250.2232"/>
<polygon fill="#191970" stroke="#191970" points="1042.4542,-247.3703 1032.5368,-243.6427 1037.965,-252.7413 1042.4542,-247.3703"/>
</g>
<!-- Node31&#45;&gt;Node2 -->
<g id="edge51" class="edge">
<title>Node31&#45;&gt;Node2</title>
<path fill="none" stroke="#191970" d="M1050.8283,-173.2616C1005.8845,-166.1889 920.1289,-151.7957 838.6933,-132.2371"/>
<polygon fill="#191970" stroke="#191970" points="839.3306,-128.7901 828.7865,-129.8264 837.6755,-135.5917 839.3306,-128.7901"/>
</g>
<!-- Node31&#45;&gt;Node3 -->
<g id="edge52" class="edge">
<title>Node31&#45;&gt;Node3</title>
<path fill="none" stroke="#191970" d="M1098.0252,-168.2455C1112.1408,-159.6534 1132.9263,-147.0014 1149.1899,-137.1018"/>
<polygon fill="#191970" stroke="#191970" points="1151.4363,-139.8319 1158.1585,-131.6427 1147.7966,-133.8525 1151.4363,-139.8319"/>
</g>
<!-- Node31&#45;&gt;Node8 -->
<g id="edge53" class="edge">
<title>Node31&#45;&gt;Node8</title>
<path fill="none" stroke="#191970" d="M1085.2947,-168.21C1088.3351,-158.952 1092.8433,-144.6342 1096,-132 1104.9441,-96.2027 1112.6439,-53.8192 1116.7736,-29.6036"/>
<polygon fill="#191970" stroke="#191970" points="1120.2551,-30.0051 1118.4579,-19.5639 1113.3516,-28.847 1120.2551,-30.0051"/>
</g>
<!-- Node31&#45;&gt;Node12 -->
<g id="edge49" class="edge">
<title>Node31&#45;&gt;Node12</title>
<path fill="none" stroke="#191970" d="M1080.1679,-168.2755C1077.473,-155.1059 1071.7881,-131.057 1063,-112 1048.2591,-80.0342 1023.7008,-47.1902 1007.9381,-27.695"/>
<polygon fill="#191970" stroke="#191970" points="1010.4386,-25.2255 1001.3815,-19.7282 1005.0336,-29.6737 1010.4386,-25.2255"/>
</g>
<!-- Node31&#45;&gt;Node15 -->
<g id="edge54" class="edge">
<title>Node31&#45;&gt;Node15</title>
<path fill="none" stroke="#191970" d="M1070.8521,-168.2455C1061.4913,-160.0549 1047.9142,-148.1749 1036.8651,-138.5069"/>
<polygon fill="#191970" stroke="#191970" points="1038.8508,-135.5937 1029.0202,-131.6427 1034.2412,-140.8618 1038.8508,-135.5937"/>
</g>
<!-- Node32 -->
<g id="node33" class="node">
<title>Node32</title>
<polygon fill="none" stroke="#bfbfbf" points="1256,-112.5 1256,-131.5 1306,-131.5 1306,-112.5 1256,-112.5"/>
<text text-anchor="middle" x="1281" y="-119.5" font-family="Helvetica,sans-Serif" font-size="10.00" fill="#000000">iomanip</text>
</g>
<!-- Node31&#45;&gt;Node32 -->
<g id="edge50" class="edge">
<title>Node31&#45;&gt;Node32</title>
<path fill="none" stroke="#191970" d="M1113.0938,-169.25C1149.0649,-159.1275 1208.1547,-142.4992 1245.788,-131.9089"/>
<polygon fill="#191970" stroke="#191970" points="1247.1185,-135.1705 1255.7965,-129.0924 1245.2223,-128.4322 1247.1185,-135.1705"/>
</g>
<!-- Node33&#45;&gt;Node7 -->
<g id="edge57" class="edge">
<title>Node33&#45;&gt;Node7</title>
<path fill="none" stroke="#191970" d="M1051.0836,-224.3733C1080.977,-214.8073 1126.8782,-200.119 1158.9892,-189.8435"/>
<polygon fill="#191970" stroke="#191970" points="1160.4349,-193.0557 1168.8924,-186.6744 1158.3015,-186.3888 1160.4349,-193.0557"/>
</g>
<!-- Node33&#45;&gt;Node11 -->
<g id="edge56" class="edge">
<title>Node33&#45;&gt;Node11</title>
<path fill="none" stroke="#191970" d="M1009.3295,-224.2455C999.4339,-215.9746 985.0373,-203.9416 973.4099,-194.2232"/>
<polygon fill="#191970" stroke="#191970" points="975.4542,-191.3703 965.5368,-187.6427 970.965,-196.7413 975.4542,-191.3703"/>
</g>
<!-- Node34&#45;&gt;Node3 -->
<g id="edge60" class="edge">
<title>Node34&#45;&gt;Node3</title>
<path fill="none" stroke="#191970" d="M1313.2868,-170.4476C1286.7989,-161.2344 1241.6396,-145.5268 1209.9397,-134.5008"/>
<polygon fill="#191970" stroke="#191970" points="1210.7561,-131.0791 1200.1612,-131.0996 1208.4564,-137.6906 1210.7561,-131.0791"/>
</g>
<!-- Node34&#45;&gt;Node32 -->
<g id="edge62" class="edge">
<title>Node34&#45;&gt;Node32</title>
<path fill="none" stroke="#191970" d="M1325.5939,-168.2455C1317.8507,-160.2155 1306.688,-148.6394 1297.4682,-139.0781"/>
<polygon fill="#191970" stroke="#191970" points="1299.7591,-136.4117 1290.2983,-131.6427 1294.7202,-141.2706 1299.7591,-136.4117"/>
</g>
<!-- Node35 -->
<g id="node36" class="node">
<title>Node35</title>
<polygon fill="none" stroke="#bfbfbf" points="1386.5,-112.5 1386.5,-131.5 1415.5,-131.5 1415.5,-112.5 1386.5,-112.5"/>
<text text-anchor="middle" x="1401" y="-119.5" font-family="Helvetica,sans-Serif" font-size="10.00" fill="#000000">ios</text>
</g>
<!-- Node34&#45;&gt;Node35 -->
<g id="edge61" class="edge">
<title>Node34&#45;&gt;Node35</title>
<path fill="none" stroke="#191970" d="M1346.4963,-168.2455C1356.2442,-159.9746 1370.4259,-147.9416 1381.8798,-138.2232"/>
<polygon fill="#191970" stroke="#191970" points="1384.2747,-140.7813 1389.6354,-131.6427 1379.7459,-135.4437 1384.2747,-140.7813"/>
</g>
<!-- Node36 -->
<g id="node37" class="node">
<title>Node36</title>
<polygon fill="none" stroke="#bfbfbf" points="1324,-112.5 1324,-131.5 1368,-131.5 1368,-112.5 1324,-112.5"/>
<text text-anchor="middle" x="1346" y="-119.5" font-family="Helvetica,sans-Serif" font-size="10.00" fill="#000000">mutex</text>
</g>
<!-- Node34&#45;&gt;Node36 -->
<g id="edge63" class="edge">
<title>Node34&#45;&gt;Node36</title>
<path fill="none" stroke="#191970" d="M1336.9161,-168.2455C1338.3514,-160.9382 1340.3636,-150.6944 1342.1295,-141.7046"/>
<polygon fill="#191970" stroke="#191970" points="1345.6127,-142.1298 1344.1059,-131.6427 1338.744,-140.7805 1345.6127,-142.1298"/>
</g>
</g>
</svg>
