<?xml version="1.0" encoding="UTF-8" standalone="no"?>
<!DOCTYPE svg PUBLIC "-//W3C//DTD SVG 1.1//EN"
 "http://www.w3.org/Graphics/SVG/1.1/DTD/svg11.dtd">
<!-- Generated by graphviz version 2.40.1 (20161225.0304)
 -->
<!-- Title: src/arma_realtime.cc Pages: 1 -->
<svg width="1897pt" height="621pt"
 viewBox="0.00 0.00 1896.79 621.00" xmlns="http://www.w3.org/2000/svg" xmlns:xlink="http://www.w3.org/1999/xlink">
<g id="graph0" class="graph" transform="scale(1 1) rotate(0) translate(4 617)">
<title>src/arma_realtime.cc</title>
<!-- Node0 -->
<g id="node1" class="node">
<title>Node0</title>
<polygon fill="#bfbfbf" stroke="#000000" points="838.2922,-593.5 838.2922,-612.5 946.2922,-612.5 946.2922,-593.5 838.2922,-593.5"/>
<text text-anchor="middle" x="892.2922" y="-600.5" font-family="Helvetica,sans-Serif" font-size="10.00" fill="#000000">src/arma_realtime.cc</text>
</g>
<!-- Node1 -->
<g id="node2" class="node">
<title>Node1</title>
<polygon fill="none" stroke="#bfbfbf" points="497.2922,-481.5 497.2922,-500.5 577.2922,-500.5 577.2922,-481.5 497.2922,-481.5"/>
<text text-anchor="middle" x="537.2922" y="-488.5" font-family="Helvetica,sans-Serif" font-size="10.00" fill="#000000">gsl/gsl_errno.h</text>
</g>
<!-- Node0&#45;&gt;Node1 -->
<g id="edge1" class="edge">
<title>Node0&#45;&gt;Node1</title>
<path fill="none" stroke="#191970" d="M838.2204,-596.2179C791.7309,-589.3969 723.3556,-576.9835 666.2922,-557 627.975,-543.5814 586.7028,-520.8522 561.4288,-505.8839"/>
<polygon fill="#191970" stroke="#191970" points="562.9403,-502.709 552.5652,-500.5627 559.3373,-508.7106 562.9403,-502.709"/>
</g>
<!-- Node2 -->
<g id="node3" class="node">
<title>Node2</title>
<polygon fill="none" stroke="#bfbfbf" points="1674.7922,-112.5 1674.7922,-131.5 1719.7922,-131.5 1719.7922,-112.5 1674.7922,-112.5"/>
<text text-anchor="middle" x="1697.2922" y="-119.5" font-family="Helvetica,sans-Serif" font-size="10.00" fill="#000000">cstdlib</text>
</g>
<!-- Node0&#45;&gt;Node2 -->
<g id="edge2" class="edge">
<title>Node0&#45;&gt;Node2</title>
<path fill="none" stroke="#191970" d="M946.5018,-601.5075C1132.4917,-595.6774 1733.2922,-570.6779 1733.2922,-491 1733.2922,-491 1733.2922,-491 1733.2922,-234 1733.2922,-199.7942 1717.8847,-162.4094 1707.2291,-140.6445"/>
<polygon fill="#191970" stroke="#191970" points="1710.2581,-138.8795 1702.6041,-131.5538 1704.0191,-142.0537 1710.2581,-138.8795"/>
</g>
<!-- Node3 -->
<g id="node4" class="node">
<title>Node3</title>
<polygon fill="none" stroke="#bfbfbf" points="595.7922,-481.5 595.7922,-500.5 654.7922,-500.5 654.7922,-481.5 595.7922,-481.5"/>
<text text-anchor="middle" x="625.2922" y="-488.5" font-family="Helvetica,sans-Serif" font-size="10.00" fill="#000000">exception</text>
</g>
<!-- Node0&#45;&gt;Node3 -->
<g id="edge3" class="edge">
<title>Node0&#45;&gt;Node3</title>
<path fill="none" stroke="#191970" d="M838.2002,-597.3491C798.0611,-591.4778 742.9568,-579.796 699.2922,-557 675.8582,-544.7659 653.9112,-523.4607 640.0993,-508.3692"/>
<polygon fill="#191970" stroke="#191970" points="642.5633,-505.8729 633.3051,-500.7214 637.33,-510.522 642.5633,-505.8729"/>
</g>
<!-- Node4 -->
<g id="node5" class="node">
<title>Node4</title>
<polygon fill="none" stroke="#bfbfbf" points="810.2922,-481.5 810.2922,-500.5 864.2922,-500.5 864.2922,-481.5 810.2922,-481.5"/>
<text text-anchor="middle" x="837.2922" y="-488.5" font-family="Helvetica,sans-Serif" font-size="10.00" fill="#000000">iostream</text>
</g>
<!-- Node0&#45;&gt;Node4 -->
<g id="edge4" class="edge">
<title>Node0&#45;&gt;Node4</title>
<path fill="none" stroke="#191970" d="M887.6029,-593.4509C878.5107,-574.936 858.339,-533.8591 846.4844,-509.7187"/>
<polygon fill="#191970" stroke="#191970" points="849.5192,-507.9582 841.9696,-500.5249 843.2359,-511.0438 849.5192,-507.9582"/>
</g>
<!-- Node5 -->
<g id="node6" class="node">
<title>Node5</title>
<polygon fill="none" stroke="#bfbfbf" points="1837.7922,-537.5 1837.7922,-556.5 1888.7922,-556.5 1888.7922,-537.5 1837.7922,-537.5"/>
<text text-anchor="middle" x="1863.2922" y="-544.5" font-family="Helvetica,sans-Serif" font-size="10.00" fill="#000000">unistd.h</text>
</g>
<!-- Node0&#45;&gt;Node5 -->
<g id="edge5" class="edge">
<title>Node0&#45;&gt;Node5</title>
<path fill="none" stroke="#191970" d="M946.319,-601.7197C1118.3899,-597.4234 1652.3071,-582.3478 1823.2922,-557 1824.7526,-556.7835 1826.2373,-556.537 1827.733,-556.2667"/>
<polygon fill="#191970" stroke="#191970" points="1828.5458,-559.6725 1837.6201,-554.2038 1827.1161,-552.8201 1828.5458,-559.6725"/>
</g>
<!-- Node6 -->
<g id="node7" class="node">
<title>Node6</title>
<g id="a_node7"><a xlink:href="arma__realtime__driver_8hh.html" target="_top" xlink:title="arma_realtime_driver.hh">
<polygon fill="none" stroke="#000000" points="1507.2922,-420 1507.2922,-439 1627.2922,-439 1627.2922,-420 1507.2922,-420"/>
<text text-anchor="middle" x="1567.2922" y="-427" font-family="Helvetica,sans-Serif" font-size="10.00" fill="#000000">arma_realtime_driver.hh</text>
</a>
</g>
</g>
<!-- Node0&#45;&gt;Node6 -->
<g id="edge6" class="edge">
<title>Node0&#45;&gt;Node6</title>
<path fill="none" stroke="#191970" d="M929.5446,-593.4248C1044.4469,-563.8906 1393.2385,-474.2382 1520.3266,-441.5719"/>
<polygon fill="#191970" stroke="#191970" points="1521.341,-444.925 1530.1549,-439.0457 1519.5984,-438.1454 1521.341,-444.925"/>
</g>
<!-- Node46 -->
<g id="node38" class="node">
<title>Node46</title>
<g id="a_node38"><a xlink:href="high__amplitude__realtime__solver_8hh.html" target="_top" xlink:title="velocity/high_amplitude\l_realtime_solver.hh">
<polygon fill="none" stroke="#000000" points="739.7922,-347.5 739.7922,-377.5 858.7922,-377.5 858.7922,-347.5 739.7922,-347.5"/>
<text text-anchor="start" x="747.7922" y="-365.5" font-family="Helvetica,sans-Serif" font-size="10.00" fill="#000000">velocity/high_amplitude</text>
<text text-anchor="middle" x="799.2922" y="-354.5" font-family="Helvetica,sans-Serif" font-size="10.00" fill="#000000">_realtime_solver.hh</text>
</a>
</g>
</g>
<!-- Node0&#45;&gt;Node46 -->
<g id="edge68" class="edge">
<title>Node0&#45;&gt;Node46</title>
<path fill="none" stroke="#191970" d="M892.0991,-593.4943C891.4001,-572.5225 888.1738,-520.9774 873.2922,-481 859.9367,-445.1224 834.9202,-408.4398 817.6986,-385.5831"/>
<polygon fill="#191970" stroke="#191970" points="820.3844,-383.3339 811.5204,-377.5304 814.8307,-387.5949 820.3844,-383.3339"/>
</g>
<!-- Node47 -->
<g id="node39" class="node">
<title>Node47</title>
<g id="a_node39"><a xlink:href="errors_8hh.html" target="_top" xlink:title="errors.hh">
<polygon fill="none" stroke="#000000" points="1799.7922,-168.5 1799.7922,-187.5 1854.7922,-187.5 1854.7922,-168.5 1799.7922,-168.5"/>
<text text-anchor="middle" x="1827.2922" y="-175.5" font-family="Helvetica,sans-Serif" font-size="10.00" fill="#000000">errors.hh</text>
</a>
</g>
</g>
<!-- Node0&#45;&gt;Node47 -->
<g id="edge71" class="edge">
<title>Node0&#45;&gt;Node47</title>
<path fill="none" stroke="#191970" d="M946.4065,-602.4187C1122.9515,-600.2018 1674.9656,-590.6262 1747.2922,-557 1783.7869,-540.0328 1809.2922,-531.2462 1809.2922,-491 1809.2922,-491 1809.2922,-491 1809.2922,-295.5 1809.2922,-260.7391 1817.0845,-220.8538 1822.4152,-197.6357"/>
<polygon fill="#191970" stroke="#191970" points="1825.876,-198.211 1824.7893,-187.6721 1819.0666,-196.5884 1825.876,-198.211"/>
</g>
<!-- Node48 -->
<g id="node40" class="node">
<title>Node48</title>
<g id="a_node40"><a xlink:href="common__main_8hh.html" target="_top" xlink:title="common_main.hh">
<polygon fill="none" stroke="#000000" points="708.2922,-537.5 708.2922,-556.5 802.2922,-556.5 802.2922,-537.5 708.2922,-537.5"/>
<text text-anchor="middle" x="755.2922" y="-544.5" font-family="Helvetica,sans-Serif" font-size="10.00" fill="#000000">common_main.hh</text>
</a>
</g>
</g>
<!-- Node0&#45;&gt;Node48 -->
<g id="edge74" class="edge">
<title>Node0&#45;&gt;Node48</title>
<path fill="none" stroke="#191970" d="M868.741,-593.3733C846.4531,-584.2629 812.7985,-570.5062 787.9285,-560.3404"/>
<polygon fill="#191970" stroke="#191970" points="789.1169,-557.0451 778.536,-556.5011 786.4682,-563.5247 789.1169,-557.0451"/>
</g>
<!-- Node7 -->
<g id="node8" class="node">
<title>Node7</title>
<polygon fill="none" stroke="#bfbfbf" points="1016.7922,-112.5 1016.7922,-131.5 1065.7922,-131.5 1065.7922,-112.5 1016.7922,-112.5"/>
<text text-anchor="middle" x="1041.2922" y="-119.5" font-family="Helvetica,sans-Serif" font-size="10.00" fill="#000000">istream</text>
</g>
<!-- Node6&#45;&gt;Node7 -->
<g id="edge7" class="edge">
<title>Node6&#45;&gt;Node7</title>
<path fill="none" stroke="#191970" d="M1577.9455,-419.6566C1587.4574,-410.0812 1600.7209,-394.5853 1606.2922,-378 1613.3022,-357.1316 1606.2745,-286.2261 1600.2922,-280 1557.2847,-235.2402 1382.7729,-261.752 1323.2922,-244 1249.0066,-221.8295 1237.6438,-198.3121 1166.2922,-168 1136.0417,-155.1488 1100.85,-142.388 1075.5287,-133.5787"/>
<polygon fill="#191970" stroke="#191970" points="1076.5961,-130.2446 1066.0014,-130.2885 1074.3111,-136.8612 1076.5961,-130.2446"/>
</g>
<!-- Node8 -->
<g id="node9" class="node">
<title>Node8</title>
<polygon fill="none" stroke="#bfbfbf" points="1423.2922,-112.5 1423.2922,-131.5 1467.2922,-131.5 1467.2922,-112.5 1423.2922,-112.5"/>
<text text-anchor="middle" x="1445.2922" y="-119.5" font-family="Helvetica,sans-Serif" font-size="10.00" fill="#000000">vector</text>
</g>
<!-- Node6&#45;&gt;Node8 -->
<g id="edge8" class="edge">
<title>Node6&#45;&gt;Node8</title>
<path fill="none" stroke="#191970" d="M1609.8876,-419.9215C1632.2992,-412.4837 1657.851,-399.6549 1671.2922,-378 1694.262,-340.9936 1683.4335,-321.8291 1671.2922,-280 1654.8632,-223.399 1647.3793,-203.4454 1600.2922,-168 1554.7845,-133.7436 1531.8113,-148.4956 1477.2922,-132 1477.1912,-131.9694 1477.09,-131.9388 1476.9887,-131.9081"/>
<polygon fill="#191970" stroke="#191970" points="1477.8967,-128.5257 1467.3099,-128.9382 1475.8432,-135.2178 1477.8967,-128.5257"/>
</g>
<!-- Node9 -->
<g id="node10" class="node">
<title>Node9</title>
<g id="a_node10"><a xlink:href="arma__driver_8hh.html" target="_top" xlink:title="arma_driver.hh">
<polygon fill="none" stroke="#000000" points="1072.2922,-353 1072.2922,-372 1152.2922,-372 1152.2922,-353 1072.2922,-353"/>
<text text-anchor="middle" x="1112.2922" y="-360" font-family="Helvetica,sans-Serif" font-size="10.00" fill="#000000">arma_driver.hh</text>
</a>
</g>
</g>
<!-- Node6&#45;&gt;Node9 -->
<g id="edge9" class="edge">
<title>Node6&#45;&gt;Node9</title>
<path fill="none" stroke="#191970" d="M1506.8717,-420.6029C1416.2533,-407.2591 1246.8125,-382.3085 1162.5466,-369.9001"/>
<polygon fill="#191970" stroke="#191970" points="1162.8623,-366.4089 1152.4591,-368.4147 1161.8425,-373.3343 1162.8623,-366.4089"/>
</g>
<!-- Node43 -->
<g id="node35" class="node">
<title>Node43</title>
<g id="a_node35"><a xlink:href="opengl_8hh.html" target="_top" xlink:title="opengl.hh">
<polygon fill="none" stroke="#000000" points="1537.7922,-353 1537.7922,-372 1596.7922,-372 1596.7922,-353 1537.7922,-353"/>
<text text-anchor="middle" x="1567.2922" y="-360" font-family="Helvetica,sans-Serif" font-size="10.00" fill="#000000">opengl.hh</text>
</a>
</g>
</g>
<!-- Node6&#45;&gt;Node43 -->
<g id="edge64" class="edge">
<title>Node6&#45;&gt;Node43</title>
<path fill="none" stroke="#191970" d="M1567.2922,-419.9005C1567.2922,-410.149 1567.2922,-394.7597 1567.2922,-382.3695"/>
<polygon fill="#191970" stroke="#191970" points="1570.7923,-382.0816 1567.2922,-372.0817 1563.7923,-382.0817 1570.7923,-382.0816"/>
</g>
<!-- Node9&#45;&gt;Node7 -->
<g id="edge11" class="edge">
<title>Node9&#45;&gt;Node7</title>
<path fill="none" stroke="#191970" d="M1107.0951,-352.989C1096.5573,-333.2768 1072.6308,-286.2704 1060.2922,-244 1050.0254,-208.8275 1044.9983,-166.2345 1042.7909,-141.8106"/>
<polygon fill="#191970" stroke="#191970" points="1046.2647,-141.3494 1041.9447,-131.6753 1039.2889,-141.9319 1046.2647,-141.3494"/>
</g>
<!-- Node10 -->
<g id="node11" class="node">
<title>Node10</title>
<polygon fill="none" stroke="#bfbfbf" points="1140.7922,-286 1140.7922,-305 1199.7922,-305 1199.7922,-286 1140.7922,-286"/>
<text text-anchor="middle" x="1170.2922" y="-293" font-family="Helvetica,sans-Serif" font-size="10.00" fill="#000000">functional</text>
</g>
<!-- Node9&#45;&gt;Node10 -->
<g id="edge10" class="edge">
<title>Node9&#45;&gt;Node10</title>
<path fill="none" stroke="#191970" d="M1120.6022,-352.9005C1129.6467,-342.4525 1144.2939,-325.5325 1155.3476,-312.7635"/>
<polygon fill="#191970" stroke="#191970" points="1158.0988,-314.9331 1161.9976,-305.0817 1152.8063,-310.3515 1158.0988,-314.9331"/>
</g>
<!-- Node11 -->
<g id="node12" class="node">
<title>Node11</title>
<polygon fill="none" stroke="#bfbfbf" points="1235.2922,-112.5 1235.2922,-131.5 1287.2922,-131.5 1287.2922,-112.5 1235.2922,-112.5"/>
<text text-anchor="middle" x="1261.2922" y="-119.5" font-family="Helvetica,sans-Serif" font-size="10.00" fill="#000000">ostream</text>
</g>
<!-- Node9&#45;&gt;Node11 -->
<g id="edge12" class="edge">
<title>Node9&#45;&gt;Node11</title>
<path fill="none" stroke="#191970" d="M1152.4129,-357.769C1204.2958,-350.7307 1290.2792,-335.6223 1309.2922,-311 1349.73,-258.6319 1300.4497,-176.069 1274.8698,-139.9356"/>
<polygon fill="#191970" stroke="#191970" points="1277.6604,-137.8221 1268.9461,-131.7962 1272.0006,-141.9412 1277.6604,-137.8221"/>
</g>
<!-- Node12 -->
<g id="node13" class="node">
<title>Node12</title>
<polygon fill="none" stroke="#bfbfbf" points="1745.7922,-112.5 1745.7922,-131.5 1786.7922,-131.5 1786.7922,-112.5 1745.7922,-112.5"/>
<text text-anchor="middle" x="1766.2922" y="-119.5" font-family="Helvetica,sans-Serif" font-size="10.00" fill="#000000">string</text>
</g>
<!-- Node9&#45;&gt;Node12 -->
<g id="edge13" class="edge">
<title>Node9&#45;&gt;Node12</title>
<path fill="none" stroke="#191970" d="M1152.6935,-359.0732C1209.1239,-353.4357 1314.1864,-339.824 1399.2922,-311 1417.2709,-304.9109 1656.9047,-179.4255 1738.957,-136.3596"/>
<polygon fill="#191970" stroke="#191970" points="1740.9296,-139.277 1748.1567,-131.5298 1737.6758,-133.0792 1740.9296,-139.277"/>
</g>
<!-- Node13 -->
<g id="node14" class="node">
<title>Node13</title>
<polygon fill="none" stroke="#bfbfbf" points="1217.7922,-286 1217.7922,-305 1300.7922,-305 1300.7922,-286 1217.7922,-286"/>
<text text-anchor="middle" x="1259.2922" y="-293" font-family="Helvetica,sans-Serif" font-size="10.00" fill="#000000">unordered_map</text>
</g>
<!-- Node9&#45;&gt;Node13 -->
<g id="edge14" class="edge">
<title>Node9&#45;&gt;Node13</title>
<path fill="none" stroke="#191970" d="M1133.3537,-352.9005C1158.4602,-341.4574 1200.5998,-322.2509 1229.152,-309.2374"/>
<polygon fill="#191970" stroke="#191970" points="1230.6219,-312.4139 1238.2697,-305.0817 1227.7187,-306.0443 1230.6219,-312.4139"/>
</g>
<!-- Node14 -->
<g id="node15" class="node">
<title>Node14</title>
<polygon fill="none" stroke="#bfbfbf" points="952.2922,-286 952.2922,-305 1008.2922,-305 1008.2922,-286 952.2922,-286"/>
<text text-anchor="middle" x="980.2922" y="-293" font-family="Helvetica,sans-Serif" font-size="10.00" fill="#000000">config.hh</text>
</g>
<!-- Node9&#45;&gt;Node14 -->
<g id="edge15" class="edge">
<title>Node9&#45;&gt;Node14</title>
<path fill="none" stroke="#191970" d="M1093.3798,-352.9005C1071.1292,-341.6067 1033.98,-322.7506 1008.3663,-309.7497"/>
<polygon fill="#191970" stroke="#191970" points="1009.6707,-306.4868 999.1695,-305.0817 1006.5024,-312.7288 1009.6707,-306.4868"/>
</g>
<!-- Node15 -->
<g id="node16" class="node">
<title>Node15</title>
<g id="a_node16"><a xlink:href="types_8hh.html" target="_top" xlink:title="types.hh">
<polygon fill="none" stroke="#000000" points="421.2922,-168.5 421.2922,-187.5 475.2922,-187.5 475.2922,-168.5 421.2922,-168.5"/>
<text text-anchor="middle" x="448.2922" y="-175.5" font-family="Helvetica,sans-Serif" font-size="10.00" fill="#000000">types.hh</text>
</a>
</g>
</g>
<!-- Node9&#45;&gt;Node15 -->
<g id="edge16" class="edge">
<title>Node9&#45;&gt;Node15</title>
<path fill="none" stroke="#191970" d="M1072.2318,-360.0534C965.7364,-353.2744 681.2686,-333.2736 645.2922,-311 606.1944,-286.794 625.7007,-252.0889 589.2922,-224 558.928,-200.5742 516.1689,-188.8361 485.7152,-183.1153"/>
<polygon fill="#191970" stroke="#191970" points="485.9497,-179.6035 475.4971,-181.3335 484.7471,-186.4994 485.9497,-179.6035"/>
</g>
<!-- Node17 -->
<g id="node18" class="node">
<title>Node17</title>
<g id="a_node18"><a xlink:href="arma_8hh.html" target="_top" xlink:title="arma.hh">
<polygon fill="none" stroke="#000000" points="173.2922,-224.5 173.2922,-243.5 225.2922,-243.5 225.2922,-224.5 173.2922,-224.5"/>
<text text-anchor="middle" x="199.2922" y="-231.5" font-family="Helvetica,sans-Serif" font-size="10.00" fill="#000000">arma.hh</text>
</a>
</g>
</g>
<!-- Node9&#45;&gt;Node17 -->
<g id="edge18" class="edge">
<title>Node9&#45;&gt;Node17</title>
<path fill="none" stroke="#191970" d="M1071.9819,-359.8127C1023.4351,-356.6081 939.4126,-351.1626 867.2922,-347 828.9705,-344.7882 203.7182,-338.8408 177.2922,-311 162.1904,-295.0897 174.0611,-269.5418 185.3929,-252.28"/>
<polygon fill="#191970" stroke="#191970" points="188.568,-253.8494 191.4582,-243.6564 182.8424,-249.8224 188.568,-253.8494"/>
</g>
<!-- Node18 -->
<g id="node19" class="node">
<title>Node18</title>
<g id="a_node19"><a xlink:href="basic__model_8hh.html" target="_top" xlink:title="generator/basic_model.hh">
<polygon fill="none" stroke="#000000" points="1069.2922,-224.5 1069.2922,-243.5 1197.2922,-243.5 1197.2922,-224.5 1069.2922,-224.5"/>
<text text-anchor="middle" x="1133.2922" y="-231.5" font-family="Helvetica,sans-Serif" font-size="10.00" fill="#000000">generator/basic_model.hh</text>
</a>
</g>
</g>
<!-- Node9&#45;&gt;Node18 -->
<g id="edge20" class="edge">
<title>Node9&#45;&gt;Node18</title>
<path fill="none" stroke="#191970" d="M1113.8706,-352.8416C1117.2911,-331.9114 1125.4472,-282.004 1130.0276,-253.9762"/>
<polygon fill="#191970" stroke="#191970" points="1133.5367,-254.2041 1131.6954,-243.7705 1126.6283,-253.075 1133.5367,-254.2041"/>
</g>
<!-- Node19 -->
<g id="node20" class="node">
<title>Node19</title>
<g id="a_node20"><a xlink:href="grid_8hh.html" target="_top" xlink:title="grid.hh">
<polygon fill="none" stroke="#000000" points="777.2922,-168.5 777.2922,-187.5 823.2922,-187.5 823.2922,-168.5 777.2922,-168.5"/>
<text text-anchor="middle" x="800.2922" y="-175.5" font-family="Helvetica,sans-Serif" font-size="10.00" fill="#000000">grid.hh</text>
</a>
</g>
</g>
<!-- Node9&#45;&gt;Node19 -->
<g id="edge45" class="edge">
<title>Node9&#45;&gt;Node19</title>
<path fill="none" stroke="#191970" d="M1103.0286,-352.8733C1086.8081,-336.3986 1051.705,-302.411 1017.2922,-280 956.1278,-240.1674 876.9492,-207.0488 833.1272,-190.1335"/>
<polygon fill="#191970" stroke="#191970" points="834.1463,-186.7762 823.5556,-186.4801 831.65,-193.3161 834.1463,-186.7762"/>
</g>
<!-- Node25 -->
<g id="node25" class="node">
<title>Node25</title>
<g id="a_node25"><a xlink:href="output__flags_8hh.html" target="_top" xlink:title="output_flags.hh">
<polygon fill="none" stroke="#000000" points="1460.7922,-168.5 1460.7922,-187.5 1543.7922,-187.5 1543.7922,-168.5 1460.7922,-168.5"/>
<text text-anchor="middle" x="1502.2922" y="-175.5" font-family="Helvetica,sans-Serif" font-size="10.00" fill="#000000">output_flags.hh</text>
</a>
</g>
</g>
<!-- Node9&#45;&gt;Node25 -->
<g id="edge44" class="edge">
<title>Node9&#45;&gt;Node25</title>
<path fill="none" stroke="#191970" d="M1152.5029,-357.0733C1213.9675,-348.3139 1327.9834,-330.1002 1364.2922,-311 1419.268,-282.08 1467.4506,-224.6099 1489.5115,-195.6097"/>
<polygon fill="#191970" stroke="#191970" points="1492.3228,-197.6946 1495.498,-187.5868 1486.7125,-193.5084 1492.3228,-197.6946"/>
</g>
<!-- Node36 -->
<g id="node29" class="node">
<title>Node36</title>
<g id="a_node29"><a xlink:href="basic__solver_8hh.html" target="_top" xlink:title="velocity/basic_solver.hh">
<polygon fill="none" stroke="#000000" points="438.7922,-286 438.7922,-305 559.7922,-305 559.7922,-286 438.7922,-286"/>
<text text-anchor="middle" x="499.2922" y="-293" font-family="Helvetica,sans-Serif" font-size="10.00" fill="#000000">velocity/basic_solver.hh</text>
</a>
</g>
</g>
<!-- Node9&#45;&gt;Node36 -->
<g id="edge46" class="edge">
<title>Node9&#45;&gt;Node36</title>
<path fill="none" stroke="#191970" d="M1072.2903,-360.159C982.7254,-354.5924 759.3913,-338.9023 574.2922,-311 566.8875,-309.8838 559.1108,-308.5085 551.4843,-307.0422"/>
<polygon fill="#191970" stroke="#191970" points="552.0791,-303.592 541.5887,-305.0762 550.715,-310.4578 552.0791,-303.592"/>
</g>
<!-- Node39 -->
<g id="node32" class="node">
<title>Node39</title>
<g id="a_node32"><a xlink:href="discrete__function_8hh.html" target="_top" xlink:title="discrete_function.hh">
<polygon fill="none" stroke="#000000" points="476.2922,-224.5 476.2922,-243.5 580.2922,-243.5 580.2922,-224.5 476.2922,-224.5"/>
<text text-anchor="middle" x="528.2922" y="-231.5" font-family="Helvetica,sans-Serif" font-size="10.00" fill="#000000">discrete_function.hh</text>
</a>
</g>
</g>
<!-- Node9&#45;&gt;Node39 -->
<g id="edge59" class="edge">
<title>Node9&#45;&gt;Node39</title>
<path fill="none" stroke="#191970" d="M1072.1261,-359.8194C960.8232,-352.1876 653.8825,-329.6876 612.2922,-311 596.7598,-304.0209 564.1326,-271.609 544.4253,-251.125"/>
<polygon fill="#191970" stroke="#191970" points="546.7648,-248.5068 537.3304,-243.6856 541.6991,-253.3379 546.7648,-248.5068"/>
</g>
<!-- Node40 -->
<g id="node33" class="node">
<title>Node40</title>
<g id="a_node33"><a xlink:href="util_8hh.html" target="_top" xlink:title="util.hh">
<polygon fill="none" stroke="#ff0000" points="1332.7922,-224.5 1332.7922,-243.5 1375.7922,-243.5 1375.7922,-224.5 1332.7922,-224.5"/>
<text text-anchor="middle" x="1354.2922" y="-231.5" font-family="Helvetica,sans-Serif" font-size="10.00" fill="#000000">util.hh</text>
</a>
</g>
</g>
<!-- Node9&#45;&gt;Node40 -->
<g id="edge60" class="edge">
<title>Node9&#45;&gt;Node40</title>
<path fill="none" stroke="#191970" d="M1152.6725,-358.9574C1211.8555,-352.8953 1317.8965,-338.4432 1343.2922,-311 1357.3615,-295.7964 1358.5194,-271.1659 1357.1876,-253.8649"/>
<polygon fill="#191970" stroke="#191970" points="1360.6443,-253.2801 1356.0635,-243.7268 1353.6869,-254.0516 1360.6443,-253.2801"/>
</g>
<!-- Node16 -->
<g id="node17" class="node">
<title>Node16</title>
<polygon fill="none" stroke="#bfbfbf" points="623.7922,-.5 623.7922,-19.5 690.7922,-19.5 690.7922,-.5 623.7922,-.5"/>
<text text-anchor="middle" x="657.2922" y="-7.5" font-family="Helvetica,sans-Serif" font-size="10.00" fill="#000000">blitz/array.h</text>
</g>
<!-- Node15&#45;&gt;Node16 -->
<g id="edge17" class="edge">
<title>Node15&#45;&gt;Node16</title>
<path fill="none" stroke="#191970" d="M460.1277,-168.4862C494.4622,-140.8872 594.3743,-60.5751 637.3057,-26.0657"/>
<polygon fill="#191970" stroke="#191970" points="639.726,-28.6108 645.3273,-19.6177 635.3404,-23.1549 639.726,-28.6108"/>
</g>
<!-- Node17&#45;&gt;Node15 -->
<g id="edge19" class="edge">
<title>Node17&#45;&gt;Node15</title>
<path fill="none" stroke="#191970" d="M225.4689,-228.1129C269.8586,-218.1296 360.0326,-197.8495 411.0088,-186.385"/>
<polygon fill="#191970" stroke="#191970" points="411.9703,-189.7563 420.9586,-184.1473 410.4343,-182.9269 411.9703,-189.7563"/>
</g>
<!-- Node18&#45;&gt;Node7 -->
<g id="edge21" class="edge">
<title>Node18&#45;&gt;Node7</title>
<path fill="none" stroke="#191970" d="M1125.4483,-224.4509C1109.968,-205.6054 1075.2869,-163.3849 1055.6194,-139.4419"/>
<polygon fill="#191970" stroke="#191970" points="1058.1682,-137.0306 1049.1162,-131.5249 1052.7591,-141.4738 1058.1682,-137.0306"/>
</g>
<!-- Node18&#45;&gt;Node11 -->
<g id="edge22" class="edge">
<title>Node18&#45;&gt;Node11</title>
<path fill="none" stroke="#191970" d="M1144.2054,-224.4509C1166.121,-205.2747 1215.6965,-161.8962 1242.7792,-138.1988"/>
<polygon fill="#191970" stroke="#191970" points="1245.1856,-140.744 1250.4066,-131.5249 1240.576,-135.4759 1245.1856,-140.744"/>
</g>
<!-- Node18&#45;&gt;Node15 -->
<g id="edge43" class="edge">
<title>Node18&#45;&gt;Node15</title>
<path fill="none" stroke="#191970" d="M1069.1569,-228.7568C928.5175,-217.2593 596.6898,-190.1318 485.4086,-181.0343"/>
<polygon fill="#191970" stroke="#191970" points="485.5937,-177.5379 475.3417,-180.2114 485.0233,-184.5146 485.5937,-177.5379"/>
</g>
<!-- Node18&#45;&gt;Node19 -->
<g id="edge23" class="edge">
<title>Node18&#45;&gt;Node19</title>
<path fill="none" stroke="#191970" d="M1076.4258,-224.4369C1006.4758,-212.6735 890.052,-193.0947 833.3523,-183.5597"/>
<polygon fill="#191970" stroke="#191970" points="833.9269,-180.1072 823.4849,-181.9003 832.766,-187.0103 833.9269,-180.1072"/>
</g>
<!-- Node18&#45;&gt;Node25 -->
<g id="edge32" class="edge">
<title>Node18&#45;&gt;Node25</title>
<path fill="none" stroke="#191970" d="M1197.3053,-225.8067C1259.6235,-217.5951 1357.2439,-204.1107 1450.6794,-188.2144"/>
<polygon fill="#191970" stroke="#191970" points="1451.3165,-191.6563 1460.5818,-186.5178 1450.1343,-184.7568 1451.3165,-191.6563"/>
</g>
<!-- Node28 -->
<g id="node28" class="node">
<title>Node28</title>
<g id="a_node28"><a xlink:href="parallel__mt_8hh.html" target="_top" xlink:title="parallel_mt.hh">
<polygon fill="none" stroke="#ff0000" points="1365.7922,-168.5 1365.7922,-187.5 1442.7922,-187.5 1442.7922,-168.5 1365.7922,-168.5"/>
<text text-anchor="middle" x="1404.2922" y="-175.5" font-family="Helvetica,sans-Serif" font-size="10.00" fill="#000000">parallel_mt.hh</text>
</a>
</g>
</g>
<!-- Node18&#45;&gt;Node28 -->
<g id="edge38" class="edge">
<title>Node18&#45;&gt;Node28</title>
<path fill="none" stroke="#191970" d="M1179.5708,-224.4369C1228.647,-214.2957 1305.8324,-198.3459 1355.7519,-188.0305"/>
<polygon fill="#191970" stroke="#191970" points="1356.5782,-191.4337 1365.663,-185.9824 1355.1616,-184.5786 1356.5782,-191.4337"/>
</g>
<!-- Node19&#45;&gt;Node7 -->
<g id="edge25" class="edge">
<title>Node19&#45;&gt;Node7</title>
<path fill="none" stroke="#191970" d="M823.3457,-171.6082C827.9559,-170.3754 832.771,-169.1202 837.2922,-168 896.6178,-153.3013 966.1357,-138.0422 1006.7864,-129.316"/>
<polygon fill="#191970" stroke="#191970" points="1007.6739,-132.7054 1016.7201,-127.1904 1006.2091,-125.8603 1007.6739,-132.7054"/>
</g>
<!-- Node20 -->
<g id="node21" class="node">
<title>Node20</title>
<polygon fill="none" stroke="#bfbfbf" points="737.2922,-.5 737.2922,-19.5 781.2922,-19.5 781.2922,-.5 737.2922,-.5"/>
<text text-anchor="middle" x="759.2922" y="-7.5" font-family="Helvetica,sans-Serif" font-size="10.00" fill="#000000">cmath</text>
</g>
<!-- Node19&#45;&gt;Node20 -->
<g id="edge24" class="edge">
<title>Node19&#45;&gt;Node20</title>
<path fill="none" stroke="#191970" d="M806.6069,-168.264C814.1189,-155.4794 825.0786,-132.2755 820.2922,-112 812.5224,-79.0868 789.6981,-46.5085 774.2806,-27.3272"/>
<polygon fill="#191970" stroke="#191970" points="776.874,-24.9712 767.7988,-19.5037 771.4836,-29.4372 776.874,-24.9712"/>
</g>
<!-- Node21 -->
<g id="node22" class="node">
<title>Node21</title>
<g id="a_node22"><a xlink:href="blitz_8hh.html" target="_top" xlink:title="blitz.hh">
<polygon fill="none" stroke="#ff0000" points="735.2922,-56.5 735.2922,-75.5 783.2922,-75.5 783.2922,-56.5 735.2922,-56.5"/>
<text text-anchor="middle" x="759.2922" y="-63.5" font-family="Helvetica,sans-Serif" font-size="10.00" fill="#000000">blitz.hh</text>
</a>
</g>
</g>
<!-- Node19&#45;&gt;Node21 -->
<g id="edge26" class="edge">
<title>Node19&#45;&gt;Node21</title>
<path fill="none" stroke="#191970" d="M803.4549,-168.1732C807.1696,-154.8878 811.9211,-130.708 804.2922,-112 799.5766,-100.4363 790.3994,-90.2008 781.556,-82.3383"/>
<polygon fill="#191970" stroke="#191970" points="783.603,-79.4894 773.6659,-75.8147 779.1425,-84.8842 783.603,-79.4894"/>
</g>
<!-- Node23 -->
<g id="node23" class="node">
<title>Node23</title>
<g id="a_node23"><a xlink:href="validators_8hh.html" target="_top" xlink:title="validators.hh">
<polygon fill="none" stroke="#000000" points="723.2922,-112.5 723.2922,-131.5 795.2922,-131.5 795.2922,-112.5 723.2922,-112.5"/>
<text text-anchor="middle" x="759.2922" y="-119.5" font-family="Helvetica,sans-Serif" font-size="10.00" fill="#000000">validators.hh</text>
</a>
</g>
</g>
<!-- Node19&#45;&gt;Node23 -->
<g id="edge29" class="edge">
<title>Node19&#45;&gt;Node23</title>
<path fill="none" stroke="#191970" d="M793.1505,-168.2455C787.4478,-160.4564 779.3022,-149.3308 772.4297,-139.9439"/>
<polygon fill="#191970" stroke="#191970" points="775.0834,-137.6437 766.352,-131.6427 769.4354,-141.7789 775.0834,-137.6437"/>
</g>
<!-- Node21&#45;&gt;Node16 -->
<g id="edge27" class="edge">
<title>Node21&#45;&gt;Node16</title>
<path fill="none" stroke="#191970" d="M741.5251,-56.2455C725.5827,-47.4928 701.9663,-34.527 683.7933,-24.5496"/>
<polygon fill="#191970" stroke="#191970" points="685.3058,-21.3873 674.8556,-19.6427 681.937,-27.5233 685.3058,-21.3873"/>
</g>
<!-- Node21&#45;&gt;Node20 -->
<g id="edge28" class="edge">
<title>Node21&#45;&gt;Node20</title>
<path fill="none" stroke="#191970" d="M759.2922,-56.2455C759.2922,-48.9382 759.2922,-38.6944 759.2922,-29.7046"/>
<polygon fill="#191970" stroke="#191970" points="762.7923,-29.6426 759.2922,-19.6427 755.7923,-29.6427 762.7923,-29.6426"/>
</g>
<!-- Node23&#45;&gt;Node21 -->
<g id="edge31" class="edge">
<title>Node23&#45;&gt;Node21</title>
<path fill="none" stroke="#191970" d="M759.2922,-112.2455C759.2922,-104.9382 759.2922,-94.6944 759.2922,-85.7046"/>
<polygon fill="#191970" stroke="#191970" points="762.7923,-85.6426 759.2922,-75.6427 755.7923,-85.6427 762.7923,-85.6426"/>
</g>
<!-- Node24 -->
<g id="node24" class="node">
<title>Node24</title>
<polygon fill="none" stroke="#bfbfbf" points="1365.7922,-56.5 1365.7922,-75.5 1424.7922,-75.5 1424.7922,-56.5 1365.7922,-56.5"/>
<text text-anchor="middle" x="1395.2922" y="-63.5" font-family="Helvetica,sans-Serif" font-size="10.00" fill="#000000">stdexcept</text>
</g>
<!-- Node23&#45;&gt;Node24 -->
<g id="edge30" class="edge">
<title>Node23&#45;&gt;Node24</title>
<path fill="none" stroke="#191970" d="M795.3086,-118.8287C905.9012,-109.091 1240.0749,-79.6669 1355.54,-69.5002"/>
<polygon fill="#191970" stroke="#191970" points="1356.0466,-72.9692 1365.701,-68.6055 1355.4325,-65.9962 1356.0466,-72.9692"/>
</g>
<!-- Node25&#45;&gt;Node7 -->
<g id="edge34" class="edge">
<title>Node25&#45;&gt;Node7</title>
<path fill="none" stroke="#191970" d="M1460.5981,-169.3826C1457.7918,-168.8886 1455.0038,-168.4221 1452.2922,-168 1313.6184,-146.4132 1147.1009,-130.9735 1076.1047,-124.8787"/>
<polygon fill="#191970" stroke="#191970" points="1076.2035,-121.3746 1065.9428,-124.0144 1075.6102,-128.3494 1076.2035,-121.3746"/>
</g>
<!-- Node25&#45;&gt;Node11 -->
<g id="edge35" class="edge">
<title>Node25&#45;&gt;Node11</title>
<path fill="none" stroke="#191970" d="M1461.1366,-168.4369C1415.0862,-157.7364 1341.2049,-140.5689 1297.3433,-130.377"/>
<polygon fill="#191970" stroke="#191970" points="1297.9356,-126.9215 1287.4029,-128.0672 1296.3512,-133.7398 1297.9356,-126.9215"/>
</g>
<!-- Node25&#45;&gt;Node12 -->
<g id="edge36" class="edge">
<title>Node25&#45;&gt;Node12</title>
<path fill="none" stroke="#191970" d="M1544.0151,-169.6957C1604.5594,-157.6224 1711.5107,-136.2 1729.2922,-132 1731.4494,-131.4904 1733.6718,-130.9442 1735.9058,-130.3794"/>
<polygon fill="#191970" stroke="#191970" points="1736.8199,-133.7581 1745.6084,-127.8409 1735.0481,-126.986 1736.8199,-133.7581"/>
</g>
<!-- Node26 -->
<g id="node26" class="node">
<title>Node26</title>
<polygon fill="none" stroke="#bfbfbf" points="1485.7922,-112.5 1485.7922,-131.5 1526.7922,-131.5 1526.7922,-112.5 1485.7922,-112.5"/>
<text text-anchor="middle" x="1506.2922" y="-119.5" font-family="Helvetica,sans-Serif" font-size="10.00" fill="#000000">bitset</text>
</g>
<!-- Node25&#45;&gt;Node26 -->
<g id="edge33" class="edge">
<title>Node25&#45;&gt;Node26</title>
<path fill="none" stroke="#191970" d="M1502.9889,-168.2455C1503.5109,-160.9382 1504.2426,-150.6944 1504.8847,-141.7046"/>
<polygon fill="#191970" stroke="#191970" points="1508.3819,-141.8667 1505.6034,-131.6427 1501.3997,-141.3679 1508.3819,-141.8667"/>
</g>
<!-- Node27 -->
<g id="node27" class="node">
<title>Node27</title>
<polygon fill="none" stroke="#bfbfbf" points="1578.2922,-112.5 1578.2922,-131.5 1640.2922,-131.5 1640.2922,-112.5 1578.2922,-112.5"/>
<text text-anchor="middle" x="1609.2922" y="-119.5" font-family="Helvetica,sans-Serif" font-size="10.00" fill="#000000">type_traits</text>
</g>
<!-- Node25&#45;&gt;Node27 -->
<g id="edge37" class="edge">
<title>Node25&#45;&gt;Node27</title>
<path fill="none" stroke="#191970" d="M1520.9301,-168.2455C1537.7308,-159.4527 1562.6556,-146.4079 1581.754,-136.4125"/>
<polygon fill="#191970" stroke="#191970" points="1583.6308,-139.3807 1590.8678,-131.6427 1580.3849,-133.1787 1583.6308,-139.3807"/>
</g>
<!-- Node28&#45;&gt;Node2 -->
<g id="edge39" class="edge">
<title>Node28&#45;&gt;Node2</title>
<path fill="none" stroke="#191970" d="M1443.0482,-169.8404C1446.1738,-169.2083 1449.2847,-168.588 1452.2922,-168 1539.6439,-150.9222 1561.9404,-149.0778 1649.2922,-132 1654.1532,-131.0496 1659.2843,-130.0147 1664.3115,-128.9827"/>
<polygon fill="#191970" stroke="#191970" points="1665.2847,-132.3554 1674.365,-126.8965 1663.8624,-125.5014 1665.2847,-132.3554"/>
</g>
<!-- Node28&#45;&gt;Node7 -->
<g id="edge40" class="edge">
<title>Node28&#45;&gt;Node7</title>
<path fill="none" stroke="#191970" d="M1365.7885,-172.06C1294.7765,-161.105 1144.2327,-137.8806 1076.0931,-127.3687"/>
<polygon fill="#191970" stroke="#191970" points="1076.3062,-123.8603 1065.8895,-125.7946 1075.2389,-130.7784 1076.3062,-123.8603"/>
</g>
<!-- Node28&#45;&gt;Node8 -->
<g id="edge42" class="edge">
<title>Node28&#45;&gt;Node8</title>
<path fill="none" stroke="#191970" d="M1411.4338,-168.2455C1417.1366,-160.4564 1425.2821,-149.3308 1432.1546,-139.9439"/>
<polygon fill="#191970" stroke="#191970" points="1435.1489,-141.7789 1438.2323,-131.6427 1429.5009,-137.6437 1435.1489,-141.7789"/>
</g>
<!-- Node28&#45;&gt;Node24 -->
<g id="edge41" class="edge">
<title>Node28&#45;&gt;Node24</title>
<path fill="none" stroke="#191970" d="M1403.5248,-168.4509C1402.0569,-150.184 1398.8243,-109.9553 1396.875,-85.6976"/>
<polygon fill="#191970" stroke="#191970" points="1400.3474,-85.2124 1396.0576,-75.5249 1393.3699,-85.7731 1400.3474,-85.2124"/>
</g>
<!-- Node36&#45;&gt;Node15 -->
<g id="edge47" class="edge">
<title>Node36&#45;&gt;Node15</title>
<path fill="none" stroke="#191970" d="M492.0524,-285.6983C484.9214,-275.6606 474.1311,-259.3912 467.2922,-244 460.6348,-229.0174 455.6476,-211.0893 452.4571,-197.7021"/>
<polygon fill="#191970" stroke="#191970" points="455.8138,-196.676 450.2024,-187.6892 448.9848,-198.2138 455.8138,-196.676"/>
</g>
<!-- Node37 -->
<g id="node30" class="node">
<title>Node37</title>
<g id="a_node30"><a xlink:href="domain_8hh.html" target="_top" xlink:title="domain.hh">
<polygon fill="none" stroke="#000000" points="712.2922,-224.5 712.2922,-243.5 774.2922,-243.5 774.2922,-224.5 712.2922,-224.5"/>
<text text-anchor="middle" x="743.2922" y="-231.5" font-family="Helvetica,sans-Serif" font-size="10.00" fill="#000000">domain.hh</text>
</a>
</g>
</g>
<!-- Node36&#45;&gt;Node37 -->
<g id="edge48" class="edge">
<title>Node36&#45;&gt;Node37</title>
<path fill="none" stroke="#191970" d="M537.1494,-285.9581C581.8254,-274.6976 655.8528,-256.039 701.9806,-244.4125"/>
<polygon fill="#191970" stroke="#191970" points="703.1017,-247.7395 711.943,-241.9015 701.3908,-240.9518 703.1017,-247.7395"/>
</g>
<!-- Node36&#45;&gt;Node39 -->
<g id="edge56" class="edge">
<title>Node36&#45;&gt;Node39</title>
<path fill="none" stroke="#191970" d="M503.8234,-285.8906C507.9702,-277.0965 514.2254,-263.8312 519.3731,-252.9145"/>
<polygon fill="#191970" stroke="#191970" points="522.5976,-254.2825 523.697,-243.7449 516.2662,-251.2969 522.5976,-254.2825"/>
</g>
<!-- Node37&#45;&gt;Node7 -->
<g id="edge51" class="edge">
<title>Node37&#45;&gt;Node7</title>
<path fill="none" stroke="#191970" d="M762.0275,-224.3803C795.6589,-207.1497 863.8426,-172.4012 875.2922,-168 919.5623,-150.9825 972.6901,-137.3957 1006.7103,-129.5199"/>
<polygon fill="#191970" stroke="#191970" points="1007.6512,-132.8954 1016.624,-127.2616 1006.0963,-126.0702 1007.6512,-132.8954"/>
</g>
<!-- Node37&#45;&gt;Node11 -->
<g id="edge52" class="edge">
<title>Node37&#45;&gt;Node11</title>
<path fill="none" stroke="#191970" d="M774.5139,-224.604C821.0008,-210.8469 911.312,-185.0147 989.2922,-168 1073.1232,-149.7087 1172.8352,-134.4898 1225.1425,-127.0015"/>
<polygon fill="#191970" stroke="#191970" points="1225.849,-130.4364 1235.2577,-125.5654 1224.865,-123.5059 1225.849,-130.4364"/>
</g>
<!-- Node37&#45;&gt;Node16 -->
<g id="edge53" class="edge">
<title>Node37&#45;&gt;Node16</title>
<path fill="none" stroke="#191970" d="M736.6012,-224.4926C730.4488,-215.4344 721.384,-201.2517 715.2922,-188 689.8011,-132.5485 670.5005,-62.6779 662.0234,-29.3741"/>
<polygon fill="#191970" stroke="#191970" points="665.3899,-28.4086 659.5702,-19.5552 658.5986,-30.1054 665.3899,-28.4086"/>
</g>
<!-- Node37&#45;&gt;Node19 -->
<g id="edge54" class="edge">
<title>Node37&#45;&gt;Node19</title>
<path fill="none" stroke="#191970" d="M753.2208,-224.2455C761.476,-216.1352 773.4131,-204.4075 783.2004,-194.7919"/>
<polygon fill="#191970" stroke="#191970" points="785.7968,-197.1476 790.4773,-187.6427 780.891,-192.1542 785.7968,-197.1476"/>
</g>
<!-- Node37&#45;&gt;Node20 -->
<g id="edge49" class="edge">
<title>Node37&#45;&gt;Node20</title>
<path fill="none" stroke="#191970" d="M738.6611,-224.3427C729.3827,-203.9046 709.7738,-154.6497 714.2922,-112 716.9738,-86.6877 715.9899,-79.2758 726.2922,-56 730.7327,-45.9676 737.5749,-35.9384 743.8802,-27.8169"/>
<polygon fill="#191970" stroke="#191970" points="746.7726,-29.8078 750.3722,-19.8432 741.3442,-25.3882 746.7726,-29.8078"/>
</g>
<!-- Node37&#45;&gt;Node23 -->
<g id="edge55" class="edge">
<title>Node37&#45;&gt;Node23</title>
<path fill="none" stroke="#191970" d="M744.6563,-224.4509C747.2659,-206.184 753.0128,-165.9553 756.4782,-141.6976"/>
<polygon fill="#191970" stroke="#191970" points="759.982,-141.9194 757.9315,-131.5249 753.0523,-140.9294 759.982,-141.9194"/>
</g>
<!-- Node38 -->
<g id="node31" class="node">
<title>Node38</title>
<polygon fill="none" stroke="#bfbfbf" points="1107.2922,-168.5 1107.2922,-187.5 1157.2922,-187.5 1157.2922,-168.5 1107.2922,-168.5"/>
<text text-anchor="middle" x="1132.2922" y="-175.5" font-family="Helvetica,sans-Serif" font-size="10.00" fill="#000000">iomanip</text>
</g>
<!-- Node37&#45;&gt;Node38 -->
<g id="edge50" class="edge">
<title>Node37&#45;&gt;Node38</title>
<path fill="none" stroke="#191970" d="M774.4681,-229.5119C846.0994,-219.2 1022.0324,-193.8729 1097.2559,-183.0438"/>
<polygon fill="#191970" stroke="#191970" points="1097.7813,-186.5043 1107.1805,-181.615 1096.7838,-179.5757 1097.7813,-186.5043"/>
</g>
<!-- Node39&#45;&gt;Node15 -->
<g id="edge58" class="edge">
<title>Node39&#45;&gt;Node15</title>
<path fill="none" stroke="#191970" d="M514.3572,-224.2455C502.1975,-215.7337 484.3457,-203.2375 470.2637,-193.3801"/>
<polygon fill="#191970" stroke="#191970" points="472.2669,-190.51 462.0674,-187.6427 468.2526,-196.2447 472.2669,-190.51"/>
</g>
<!-- Node39&#45;&gt;Node19 -->
<g id="edge57" class="edge">
<title>Node39&#45;&gt;Node19</title>
<path fill="none" stroke="#191970" d="M574.7416,-224.4369C629.4475,-213.1739 718.9534,-194.7462 767.12,-184.8296"/>
<polygon fill="#191970" stroke="#191970" points="767.9362,-188.235 777.0249,-182.7903 766.5245,-181.3788 767.9362,-188.235"/>
</g>
<!-- Node40&#45;&gt;Node11 -->
<g id="edge61" class="edge">
<title>Node40&#45;&gt;Node11</title>
<path fill="none" stroke="#191970" d="M1349.5071,-224.4618C1342.5535,-211.0878 1328.7826,-186.3458 1313.2922,-168 1304.0582,-157.0639 1292.2019,-146.3756 1282.143,-138.0584"/>
<polygon fill="#191970" stroke="#191970" points="1284.1981,-135.2196 1274.2133,-131.6763 1279.8091,-140.6728 1284.1981,-135.2196"/>
</g>
<!-- Node40&#45;&gt;Node38 -->
<g id="edge63" class="edge">
<title>Node40&#45;&gt;Node38</title>
<path fill="none" stroke="#191970" d="M1332.6017,-228.5285C1294.1589,-218.8312 1213.761,-198.5507 1167.3604,-186.846"/>
<polygon fill="#191970" stroke="#191970" points="1168.0011,-183.3981 1157.4488,-184.3458 1166.2889,-190.1855 1168.0011,-183.3981"/>
</g>
<!-- Node41 -->
<g id="node34" class="node">
<title>Node41</title>
<polygon fill="none" stroke="#bfbfbf" points="1561.7922,-168.5 1561.7922,-187.5 1590.7922,-187.5 1590.7922,-168.5 1561.7922,-168.5"/>
<text text-anchor="middle" x="1576.2922" y="-175.5" font-family="Helvetica,sans-Serif" font-size="10.00" fill="#000000">ios</text>
</g>
<!-- Node40&#45;&gt;Node41 -->
<g id="edge62" class="edge">
<title>Node40&#45;&gt;Node41</title>
<path fill="none" stroke="#191970" d="M1375.8492,-230.356C1411.0929,-224.1166 1483.28,-210.1591 1551.7231,-188.1268"/>
<polygon fill="#191970" stroke="#191970" points="1552.9432,-191.4101 1561.3517,-184.9643 1550.7588,-184.7596 1552.9432,-191.4101"/>
</g>
<!-- Node43&#45;&gt;Node27 -->
<g id="edge67" class="edge">
<title>Node43&#45;&gt;Node27</title>
<path fill="none" stroke="#191970" d="M1575.8564,-352.6645C1583.8187,-342.8558 1595.1943,-326.9849 1600.2922,-311 1619.1238,-251.9521 1615.0861,-177.2819 1611.6597,-142.0897"/>
<polygon fill="#191970" stroke="#191970" points="1615.0975,-141.3196 1610.5551,-131.7479 1608.1371,-142.0631 1615.0975,-141.3196"/>
</g>
<!-- Node44 -->
<g id="node36" class="node">
<title>Node44</title>
<polygon fill="none" stroke="#bfbfbf" points="1543.2922,-286 1543.2922,-305 1591.2922,-305 1591.2922,-286 1543.2922,-286"/>
<text text-anchor="middle" x="1567.2922" y="-293" font-family="Helvetica,sans-Serif" font-size="10.00" fill="#000000">GL/gl.h</text>
</g>
<!-- Node43&#45;&gt;Node44 -->
<g id="edge65" class="edge">
<title>Node43&#45;&gt;Node44</title>
<path fill="none" stroke="#191970" d="M1567.2922,-352.9005C1567.2922,-343.149 1567.2922,-327.7597 1567.2922,-315.3695"/>
<polygon fill="#191970" stroke="#191970" points="1570.7923,-315.0816 1567.2922,-305.0817 1563.7923,-315.0817 1570.7923,-315.0816"/>
</g>
<!-- Node45 -->
<g id="node37" class="node">
<title>Node45</title>
<polygon fill="none" stroke="#bfbfbf" points="1471.7922,-286 1471.7922,-305 1524.7922,-305 1524.7922,-286 1471.7922,-286"/>
<text text-anchor="middle" x="1498.2922" y="-293" font-family="Helvetica,sans-Serif" font-size="10.00" fill="#000000">GL/glx.h</text>
</g>
<!-- Node43&#45;&gt;Node45 -->
<g id="edge66" class="edge">
<title>Node43&#45;&gt;Node45</title>
<path fill="none" stroke="#191970" d="M1557.4061,-352.9005C1546.5437,-342.353 1528.8886,-325.2096 1515.6965,-312.3998"/>
<polygon fill="#191970" stroke="#191970" points="1517.7724,-309.537 1508.1598,-305.0817 1512.8959,-314.559 1517.7724,-309.537"/>
</g>
<!-- Node46&#45;&gt;Node19 -->
<g id="edge70" class="edge">
<title>Node46&#45;&gt;Node19</title>
<path fill="none" stroke="#191970" d="M800.0604,-347.1287C801.2399,-321.5716 803.264,-268.7239 802.2922,-224 802.1035,-215.3189 801.7149,-205.7229 801.3299,-197.5513"/>
<polygon fill="#191970" stroke="#191970" points="804.823,-197.3229 800.8264,-187.5108 797.8318,-197.6736 804.823,-197.3229"/>
</g>
<!-- Node46&#45;&gt;Node36 -->
<g id="edge69" class="edge">
<title>Node46&#45;&gt;Node36</title>
<path fill="none" stroke="#191970" d="M739.6631,-349.1828C684.7615,-336.9215 604.109,-318.9091 551.6439,-307.1919"/>
<polygon fill="#191970" stroke="#191970" points="552.388,-303.7719 541.8656,-305.0081 550.8622,-310.6036 552.388,-303.7719"/>
</g>
<!-- Node47&#45;&gt;Node12 -->
<g id="edge73" class="edge">
<title>Node47&#45;&gt;Node12</title>
<path fill="none" stroke="#191970" d="M1816.6668,-168.2455C1807.7448,-160.0549 1794.8041,-148.1749 1784.2729,-138.5069"/>
<polygon fill="#191970" stroke="#191970" points="1786.5293,-135.8271 1776.7958,-131.6427 1781.7954,-140.9837 1786.5293,-135.8271"/>
</g>
<!-- Node47&#45;&gt;Node24 -->
<g id="edge72" class="edge">
<title>Node47&#45;&gt;Node24</title>
<path fill="none" stroke="#191970" d="M1825.8043,-168.4995C1822.9481,-153.7401 1815.21,-125.59 1796.2922,-112 1767.3216,-91.1884 1530.7526,-74.3822 1435.1515,-68.3757"/>
<polygon fill="#191970" stroke="#191970" points="1435.2105,-64.8727 1425.0127,-67.7461 1434.7765,-71.8592 1435.2105,-64.8727"/>
</g>
<!-- Node48&#45;&gt;Node1 -->
<g id="edge78" class="edge">
<title>Node48&#45;&gt;Node1</title>
<path fill="none" stroke="#191970" d="M717.8166,-537.3733C680.7819,-527.8598 624.024,-513.2797 584.0561,-503.0127"/>
<polygon fill="#191970" stroke="#191970" points="584.8351,-499.5993 574.2787,-500.5011 583.0934,-506.3792 584.8351,-499.5993"/>
</g>
<!-- Node48&#45;&gt;Node3 -->
<g id="edge75" class="edge">
<title>Node48&#45;&gt;Node3</title>
<path fill="none" stroke="#191970" d="M732.9444,-537.3733C711.8888,-528.3032 680.1426,-514.6279 656.5747,-504.4755"/>
<polygon fill="#191970" stroke="#191970" points="657.9172,-501.243 647.3483,-500.5011 655.1478,-507.6719 657.9172,-501.243"/>
</g>
<!-- Node48&#45;&gt;Node4 -->
<g id="edge76" class="edge">
<title>Node48&#45;&gt;Node4</title>
<path fill="none" stroke="#191970" d="M769.5755,-537.2455C782.0392,-528.7337 800.3373,-516.2375 814.7713,-506.3801"/>
<polygon fill="#191970" stroke="#191970" points="816.8884,-509.1726 823.1725,-500.6427 812.9406,-503.392 816.8884,-509.1726"/>
</g>
<!-- Node48&#45;&gt;Node12 -->
<g id="edge77" class="edge">
<title>Node48&#45;&gt;Node12</title>
<path fill="none" stroke="#191970" d="M758.8171,-537.2122C764.8605,-522.059 778.7713,-493.3792 801.2922,-481 964.052,-391.5343 1468.2311,-524.0591 1636.2922,-445 1717.302,-406.8914 1771.2922,-385.0258 1771.2922,-295.5 1771.2922,-295.5 1771.2922,-295.5 1771.2922,-234 1771.2922,-201.6794 1769.1884,-164.1646 1767.7101,-141.7929"/>
<polygon fill="#191970" stroke="#191970" points="1771.1859,-141.3185 1767.0085,-131.5819 1764.2023,-141.7984 1771.1859,-141.3185"/>
</g>
<!-- Node49 -->
<g id="node41" class="node">
<title>Node49</title>
<g id="a_node41"><a xlink:href="register__all_8hh.html" target="_top" xlink:title="register_all.hh">
<polygon fill="none" stroke="#000000" points="672.7922,-481.5 672.7922,-500.5 749.7922,-500.5 749.7922,-481.5 672.7922,-481.5"/>
<text text-anchor="middle" x="711.2922" y="-488.5" font-family="Helvetica,sans-Serif" font-size="10.00" fill="#000000">register_all.hh</text>
</a>
</g>
</g>
<!-- Node48&#45;&gt;Node49 -->
<g id="edge79" class="edge">
<title>Node48&#45;&gt;Node49</title>
<path fill="none" stroke="#191970" d="M747.6279,-537.2455C741.4448,-529.3761 732.5858,-518.101 725.1633,-508.6542"/>
<polygon fill="#191970" stroke="#191970" points="727.7989,-506.3435 718.8686,-500.6427 722.2947,-510.6683 727.7989,-506.3435"/>
</g>
<!-- Node49&#45;&gt;Node14 -->
<g id="edge80" class="edge">
<title>Node49&#45;&gt;Node14</title>
<path fill="none" stroke="#191970" d="M749.3535,-481.4764C774.738,-474.0283 808.1243,-462.0533 834.2922,-445 891.5554,-407.6823 943.6094,-344.3205 967.1068,-313.4606"/>
<polygon fill="#191970" stroke="#191970" points="970.0065,-315.4278 973.2081,-305.3283 964.4071,-311.2269 970.0065,-315.4278"/>
</g>
<!-- Node50 -->
<g id="node42" class="node">
<title>Node50</title>
<g id="a_node42"><a xlink:href="ar__model_8hh.html" target="_top" xlink:title="generator/ar_model.hh">
<polygon fill="none" stroke="#ff0000" points="16.7922,-286 16.7922,-305 129.7922,-305 129.7922,-286 16.7922,-286"/>
<text text-anchor="middle" x="73.2922" y="-293" font-family="Helvetica,sans-Serif" font-size="10.00" fill="#000000">generator/ar_model.hh</text>
</a>
</g>
</g>
<!-- Node49&#45;&gt;Node50 -->
<g id="edge81" class="edge">
<title>Node49&#45;&gt;Node50</title>
<path fill="none" stroke="#191970" d="M672.5909,-482.5197C669.453,-481.9596 666.3244,-481.4432 663.2922,-481 476.5966,-453.7095 419.5106,-503.998 240.2922,-445 186.279,-427.2191 172.7209,-416.9517 131.2922,-378 111.0585,-358.9761 93.631,-331.8527 83.3007,-313.9711"/>
<polygon fill="#191970" stroke="#191970" points="86.2665,-312.1042 78.319,-305.0979 80.1626,-315.5311 86.2665,-312.1042"/>
</g>
<!-- Node67 -->
<g id="node43" class="node">
<title>Node67</title>
<g id="a_node43"><a xlink:href="ma__model_8hh.html" target="_top" xlink:title="generator/ma_model.hh">
<polygon fill="none" stroke="#ff0000" points="186.7922,-286 186.7922,-305 305.7922,-305 305.7922,-286 186.7922,-286"/>
<text text-anchor="middle" x="246.2922" y="-293" font-family="Helvetica,sans-Serif" font-size="10.00" fill="#000000">generator/ma_model.hh</text>
</a>
</g>
</g>
<!-- Node49&#45;&gt;Node67 -->
<g id="edge85" class="edge">
<title>Node49&#45;&gt;Node67</title>
<path fill="none" stroke="#191970" d="M672.5685,-482.6623C669.4356,-482.0702 666.3142,-481.5076 663.2922,-481 539.1218,-460.1442 494.2178,-502.6705 382.2922,-445 322.9605,-414.4289 276.7123,-346.7459 256.863,-313.9829"/>
<polygon fill="#191970" stroke="#191970" points="259.8727,-312.1962 251.7694,-305.3706 253.8475,-315.7597 259.8727,-312.1962"/>
</g>
<!-- Node69 -->
<g id="node44" class="node">
<title>Node69</title>
<g id="a_node44"><a xlink:href="arma__model_8hh.html" target="_top" xlink:title="generator/arma_model.hh">
<polygon fill="none" stroke="#000000" points="140.7922,-353 140.7922,-372 267.7922,-372 267.7922,-353 140.7922,-353"/>
<text text-anchor="middle" x="204.2922" y="-360" font-family="Helvetica,sans-Serif" font-size="10.00" fill="#000000">generator/arma_model.hh</text>
</a>
</g>
</g>
<!-- Node49&#45;&gt;Node69 -->
<g id="edge89" class="edge">
<title>Node49&#45;&gt;Node69</title>
<path fill="none" stroke="#191970" d="M672.5863,-482.5509C669.4494,-481.9838 666.3223,-481.4573 663.2922,-481 579.2008,-468.3079 358.7278,-482.2832 282.2922,-445 252.9282,-430.677 228.8902,-400.3167 215.591,-380.6904"/>
<polygon fill="#191970" stroke="#191970" points="218.4984,-378.7412 210.102,-372.2798 212.6363,-382.567 218.4984,-378.7412"/>
</g>
<!-- Node70 -->
<g id="node45" class="node">
<title>Node70</title>
<g id="a_node45"><a xlink:href="plain__wave__model_8hh.html" target="_top" xlink:title="generator/plain_wave\l_model.hh">
<polygon fill="none" stroke="#ff0000" points="824.7922,-280.5 824.7922,-310.5 933.7922,-310.5 933.7922,-280.5 824.7922,-280.5"/>
<text text-anchor="start" x="832.7922" y="-298.5" font-family="Helvetica,sans-Serif" font-size="10.00" fill="#000000">generator/plain_wave</text>
<text text-anchor="middle" x="879.2922" y="-287.5" font-family="Helvetica,sans-Serif" font-size="10.00" fill="#000000">_model.hh</text>
</a>
</g>
</g>
<!-- Node49&#45;&gt;Node70 -->
<g id="edge94" class="edge">
<title>Node49&#45;&gt;Node70</title>
<path fill="none" stroke="#191970" d="M734.3838,-481.4474C769.5064,-465.6043 835.6086,-430.3592 867.2922,-378 877.6187,-360.9347 880.3047,-338.3345 880.5837,-321.1041"/>
<polygon fill="#191970" stroke="#191970" points="884.0791,-320.632 880.4757,-310.6688 877.0795,-320.7046 884.0791,-320.632"/>
</g>
<!-- Node71 -->
<g id="node46" class="node">
<title>Node71</title>
<g id="a_node46"><a xlink:href="lh__model_8hh.html" target="_top" xlink:title="generator/lh_model.hh">
<polygon fill="none" stroke="#000000" points="654.7922,-286 654.7922,-305 767.7922,-305 767.7922,-286 654.7922,-286"/>
<text text-anchor="middle" x="711.2922" y="-293" font-family="Helvetica,sans-Serif" font-size="10.00" fill="#000000">generator/lh_model.hh</text>
</a>
</g>
</g>
<!-- Node49&#45;&gt;Node71 -->
<g id="edge100" class="edge">
<title>Node49&#45;&gt;Node71</title>
<path fill="none" stroke="#191970" d="M711.2922,-481.3051C711.2922,-450.8813 711.2922,-356.8666 711.2922,-315.4452"/>
<polygon fill="#191970" stroke="#191970" points="714.7923,-315.2534 711.2922,-305.2534 707.7923,-315.2534 714.7923,-315.2534"/>
</g>
<!-- Node72 -->
<g id="node47" class="node">
<title>Node72</title>
<g id="a_node47"><a xlink:href="high__amplitude__solver_8hh.html" target="_top" xlink:title="velocity/high_amplitude\l_solver.hh">
<polygon fill="none" stroke="#000000" points="465.7922,-414.5 465.7922,-444.5 584.7922,-444.5 584.7922,-414.5 465.7922,-414.5"/>
<text text-anchor="start" x="473.7922" y="-432.5" font-family="Helvetica,sans-Serif" font-size="10.00" fill="#000000">velocity/high_amplitude</text>
<text text-anchor="middle" x="525.2922" y="-421.5" font-family="Helvetica,sans-Serif" font-size="10.00" fill="#000000">_solver.hh</text>
</a>
</g>
</g>
<!-- Node49&#45;&gt;Node72 -->
<g id="edge108" class="edge">
<title>Node49&#45;&gt;Node72</title>
<path fill="none" stroke="#191970" d="M682.2297,-481.3906C655.0756,-472.4123 613.8267,-458.7735 580.4317,-447.7316"/>
<polygon fill="#191970" stroke="#191970" points="581.3861,-444.3609 570.7929,-444.5446 579.1886,-451.007 581.3861,-444.3609"/>
</g>
<!-- Node73 -->
<g id="node48" class="node">
<title>Node73</title>
<g id="a_node48"><a xlink:href="linear__solver_8hh.html" target="_top" xlink:title="linear_solver.hh">
<polygon fill="none" stroke="#ff0000" points="479.2922,-353 479.2922,-372 563.2922,-372 563.2922,-353 479.2922,-353"/>
<text text-anchor="middle" x="521.2922" y="-360" font-family="Helvetica,sans-Serif" font-size="10.00" fill="#000000">linear_solver.hh</text>
</a>
</g>
</g>
<!-- Node49&#45;&gt;Node73 -->
<g id="edge112" class="edge">
<title>Node49&#45;&gt;Node73</title>
<path fill="none" stroke="#191970" d="M697.0113,-481.3416C664.2645,-459.1945 583.5449,-404.6025 543.9433,-377.8193"/>
<polygon fill="#191970" stroke="#191970" points="545.7238,-374.7982 535.4796,-372.0952 541.8022,-380.5966 545.7238,-374.7982"/>
</g>
<!-- Node81 -->
<g id="node49" class="node">
<title>Node81</title>
<g id="a_node49"><a xlink:href="plain__wave__solver_8hh.html" target="_top" xlink:title="velocity/plain_wave\l_solver.hh">
<polygon fill="none" stroke="#000000" points="581.2922,-347.5 581.2922,-377.5 683.2922,-377.5 683.2922,-347.5 581.2922,-347.5"/>
<text text-anchor="start" x="589.2922" y="-365.5" font-family="Helvetica,sans-Serif" font-size="10.00" fill="#000000">velocity/plain_wave</text>
<text text-anchor="middle" x="632.2922" y="-354.5" font-family="Helvetica,sans-Serif" font-size="10.00" fill="#000000">_solver.hh</text>
</a>
</g>
</g>
<!-- Node49&#45;&gt;Node81 -->
<g id="edge113" class="edge">
<title>Node49&#45;&gt;Node81</title>
<path fill="none" stroke="#191970" d="M705.3543,-481.3416C693.0502,-461.328 664.4574,-414.8194 646.9117,-386.2799"/>
<polygon fill="#191970" stroke="#191970" points="649.8568,-384.3874 641.6379,-377.7016 643.8936,-388.0536 649.8568,-384.3874"/>
</g>
<!-- Node82 -->
<g id="node50" class="node">
<title>Node82</title>
<g id="a_node50"><a xlink:href="profile_8hh.html" target="_top" xlink:title="profile.hh">
<polygon fill="none" stroke="#000000" points="391.2922,-420 391.2922,-439 447.2922,-439 447.2922,-420 391.2922,-420"/>
<text text-anchor="middle" x="419.2922" y="-427" font-family="Helvetica,sans-Serif" font-size="10.00" fill="#000000">profile.hh</text>
</a>
</g>
</g>
<!-- Node49&#45;&gt;Node82 -->
<g id="edge117" class="edge">
<title>Node49&#45;&gt;Node82</title>
<path fill="none" stroke="#191970" d="M672.5417,-482.8118C669.4148,-482.1862 666.3021,-481.5751 663.2922,-481 571.5705,-463.4749 545.9207,-471.2054 456.2922,-445 453.9797,-444.3239 451.6166,-443.5475 449.2587,-442.7102"/>
<polygon fill="#191970" stroke="#191970" points="450.3279,-439.3711 439.7387,-439.0267 447.802,-445.8995 450.3279,-439.3711"/>
</g>
<!-- Node50&#45;&gt;Node15 -->
<g id="edge84" class="edge">
<title>Node50&#45;&gt;Node15</title>
<path fill="none" stroke="#191970" d="M82.3062,-285.7523C97.5373,-269.9521 130.0675,-239.0085 164.2922,-224 207.9294,-204.8638 344.27,-188.7008 410.8948,-181.7084"/>
<polygon fill="#191970" stroke="#191970" points="411.3779,-185.1772 420.9643,-180.6658 410.6569,-178.2144 411.3779,-185.1772"/>
</g>
<!-- Node50&#45;&gt;Node17 -->
<g id="edge82" class="edge">
<title>Node50&#45;&gt;Node17</title>
<path fill="none" stroke="#191970" d="M92.9797,-285.8906C113.7844,-275.7359 146.8032,-259.6196 170.524,-248.0416"/>
<polygon fill="#191970" stroke="#191970" points="172.2915,-251.0736 179.7429,-243.5419 169.221,-244.783 172.2915,-251.0736"/>
</g>
<!-- Node50&#45;&gt;Node39 -->
<g id="edge83" class="edge">
<title>Node50&#45;&gt;Node39</title>
<path fill="none" stroke="#191970" d="M129.9404,-286.872C145.2976,-284.5836 161.9254,-282.1519 177.2922,-280 278.3775,-265.8445 396.0343,-250.6952 466.2153,-241.7994"/>
<polygon fill="#191970" stroke="#191970" points="466.7366,-245.2615 476.2178,-240.5332 465.8574,-238.3169 466.7366,-245.2615"/>
</g>
<!-- Node67&#45;&gt;Node15 -->
<g id="edge88" class="edge">
<title>Node67&#45;&gt;Node15</title>
<path fill="none" stroke="#191970" d="M253.9372,-285.8351C266.3649,-270.7053 292.3834,-241.3659 320.2922,-224 348.6481,-206.3559 384.7407,-194.1672 411.3668,-186.7915"/>
<polygon fill="#191970" stroke="#191970" points="412.3141,-190.1612 421.0721,-184.1989 410.5075,-183.3983 412.3141,-190.1612"/>
</g>
<!-- Node67&#45;&gt;Node17 -->
<g id="edge86" class="edge">
<title>Node67&#45;&gt;Node17</title>
<path fill="none" stroke="#191970" d="M238.9484,-285.8906C232.022,-276.8273 221.4661,-263.0149 212.9862,-251.9188"/>
<polygon fill="#191970" stroke="#191970" points="215.5925,-249.565 206.7395,-243.7449 210.0307,-253.8155 215.5925,-249.565"/>
</g>
<!-- Node67&#45;&gt;Node39 -->
<g id="edge87" class="edge">
<title>Node67&#45;&gt;Node39</title>
<path fill="none" stroke="#191970" d="M290.0453,-285.9581C339.7506,-275.1181 420.892,-257.4224 474.4423,-245.7439"/>
<polygon fill="#191970" stroke="#191970" points="475.4119,-249.1148 484.4364,-243.5643 473.9203,-242.2755 475.4119,-249.1148"/>
</g>
<!-- Node69&#45;&gt;Node15 -->
<g id="edge93" class="edge">
<title>Node69&#45;&gt;Node15</title>
<path fill="none" stroke="#191970" d="M140.7326,-358.7768C71.0702,-352.0112 -26.603,-333.0363 7.2922,-280 51.134,-211.4001 312.9011,-187.0273 411.1063,-180.228"/>
<polygon fill="#191970" stroke="#191970" points="411.4278,-183.7144 421.1714,-179.5534 410.9597,-176.73 411.4278,-183.7144"/>
</g>
<!-- Node69&#45;&gt;Node39 -->
<g id="edge91" class="edge">
<title>Node69&#45;&gt;Node39</title>
<path fill="none" stroke="#191970" d="M228.3801,-352.9466C285.4335,-330.3189 428.9344,-273.4058 494.5746,-247.3726"/>
<polygon fill="#191970" stroke="#191970" points="496.0404,-250.5565 504.0456,-243.6163 493.4597,-244.0496 496.0404,-250.5565"/>
</g>
<!-- Node69&#45;&gt;Node50 -->
<g id="edge90" class="edge">
<title>Node69&#45;&gt;Node50</title>
<path fill="none" stroke="#191970" d="M185.5231,-352.9005C163.441,-341.6067 126.5733,-322.7506 101.1536,-309.7497"/>
<polygon fill="#191970" stroke="#191970" points="102.5233,-306.5191 92.0265,-305.0817 99.3358,-312.7513 102.5233,-306.5191"/>
</g>
<!-- Node69&#45;&gt;Node67 -->
<g id="edge92" class="edge">
<title>Node69&#45;&gt;Node67</title>
<path fill="none" stroke="#191970" d="M210.3097,-352.9005C216.6721,-342.751 226.8631,-326.4941 234.7779,-313.8679"/>
<polygon fill="#191970" stroke="#191970" points="237.9399,-315.4135 240.2858,-305.0817 232.0088,-311.6956 237.9399,-315.4135"/>
</g>
<!-- Node70&#45;&gt;Node7 -->
<g id="edge95" class="edge">
<title>Node70&#45;&gt;Node7</title>
<path fill="none" stroke="#191970" d="M899.3927,-280.4015C911.9533,-270.5873 928.1755,-257.2026 941.2922,-244 975.3518,-209.7173 1009.9692,-164.7318 1028.1933,-140.0863"/>
<polygon fill="#191970" stroke="#191970" points="1031.2505,-141.8357 1034.3398,-131.7012 1025.6049,-137.6972 1031.2505,-141.8357"/>
</g>
<!-- Node70&#45;&gt;Node11 -->
<g id="edge96" class="edge">
<title>Node70&#45;&gt;Node11</title>
<path fill="none" stroke="#191970" d="M934.0257,-281.8572C937.154,-281.1981 940.2591,-280.5733 943.2922,-280 1001.2551,-269.0433 1159.0351,-279.3062 1206.2922,-244 1239.6638,-219.0677 1253.2691,-169.2148 1258.426,-141.5791"/>
<polygon fill="#191970" stroke="#191970" points="1261.9066,-141.9855 1260.106,-131.5448 1255.0027,-140.8296 1261.9066,-141.9855"/>
</g>
<!-- Node70&#45;&gt;Node15 -->
<g id="edge99" class="edge">
<title>Node70&#45;&gt;Node15</title>
<path fill="none" stroke="#191970" d="M824.5889,-280.8472C789.6463,-271.155 743.5121,-257.7402 703.2922,-244 680.2523,-236.1289 675.5681,-231.1429 652.2922,-224 594.858,-206.3748 526.4378,-192.3153 485.2316,-184.5761"/>
<polygon fill="#191970" stroke="#191970" points="485.8356,-181.1285 475.365,-182.7463 484.5592,-188.0111 485.8356,-181.1285"/>
</g>
<!-- Node70&#45;&gt;Node18 -->
<g id="edge97" class="edge">
<title>Node70&#45;&gt;Node18</title>
<path fill="none" stroke="#191970" d="M934.0937,-282.2311C978.6483,-271.4433 1040.9555,-256.3571 1083.9661,-245.9431"/>
<polygon fill="#191970" stroke="#191970" points="1085.0237,-249.2883 1093.9192,-243.5332 1083.3764,-242.4848 1085.0237,-249.2883"/>
</g>
<!-- Node70&#45;&gt;Node39 -->
<g id="edge98" class="edge">
<title>Node70&#45;&gt;Node39</title>
<path fill="none" stroke="#191970" d="M824.4484,-285.8906C760.9936,-274.7725 656.751,-256.5077 590.3738,-244.8775"/>
<polygon fill="#191970" stroke="#191970" points="590.9154,-241.4192 580.4614,-243.1408 589.7073,-248.3142 590.9154,-241.4192"/>
</g>
<!-- Node71&#45;&gt;Node7 -->
<g id="edge101" class="edge">
<title>Node71&#45;&gt;Node7</title>
<path fill="none" stroke="#191970" d="M729.5045,-285.9248C784.4957,-257.0127 949.0666,-170.4883 1014.263,-136.2108"/>
<polygon fill="#191970" stroke="#191970" points="1015.9137,-139.2972 1023.1362,-131.5457 1012.6562,-133.1014 1015.9137,-139.2972"/>
</g>
<!-- Node71&#45;&gt;Node11 -->
<g id="edge102" class="edge">
<title>Node71&#45;&gt;Node11</title>
<path fill="none" stroke="#191970" d="M738.8481,-285.9667C802.0918,-264.1868 962.654,-209.4615 1098.2922,-168 1141.8686,-154.6797 1192.4178,-140.6297 1225.5296,-131.6147"/>
<polygon fill="#191970" stroke="#191970" points="1226.4847,-134.9821 1235.2188,-128.9849 1224.6511,-128.2265 1226.4847,-134.9821"/>
</g>
<!-- Node71&#45;&gt;Node15 -->
<g id="edge103" class="edge">
<title>Node71&#45;&gt;Node15</title>
<path fill="none" stroke="#191970" d="M701.8572,-285.6151C686.5811,-270.1839 654.8458,-240.4389 622.2922,-224 578.121,-201.6944 522.0118,-189.3824 485.6387,-183.2357"/>
<polygon fill="#191970" stroke="#191970" points="485.9053,-179.7334 475.4747,-181.5919 484.7877,-186.6436 485.9053,-179.7334"/>
</g>
<!-- Node71&#45;&gt;Node18 -->
<g id="edge107" class="edge">
<title>Node71&#45;&gt;Node18</title>
<path fill="none" stroke="#191970" d="M767.9601,-287.0092C783.3173,-284.7205 799.9401,-282.2544 815.2922,-280 898.7207,-267.7489 994.4996,-253.9272 1058.9548,-244.6612"/>
<polygon fill="#191970" stroke="#191970" points="1059.6234,-248.1012 1069.0238,-243.2141 1058.6276,-241.1724 1059.6234,-248.1012"/>
</g>
<!-- Node71&#45;&gt;Node19 -->
<g id="edge106" class="edge">
<title>Node71&#45;&gt;Node19</title>
<path fill="none" stroke="#191970" d="M731.726,-285.9284C748.0772,-277.2342 770.3436,-262.8866 783.2922,-244 792.6895,-230.2932 796.8924,-211.76 798.772,-197.8222"/>
<polygon fill="#191970" stroke="#191970" points="802.2596,-198.1236 799.8362,-187.8096 795.2988,-197.3837 802.2596,-198.1236"/>
</g>
<!-- Node71&#45;&gt;Node37 -->
<g id="edge105" class="edge">
<title>Node71&#45;&gt;Node37</title>
<path fill="none" stroke="#191970" d="M716.2922,-285.8906C720.868,-277.0965 727.7702,-263.8312 733.4505,-252.9145"/>
<polygon fill="#191970" stroke="#191970" points="736.7107,-254.2314 738.2217,-243.7449 730.501,-251.0003 736.7107,-254.2314"/>
</g>
<!-- Node71&#45;&gt;Node39 -->
<g id="edge104" class="edge">
<title>Node71&#45;&gt;Node39</title>
<path fill="none" stroke="#191970" d="M682.6984,-285.8906C651.4077,-275.3749 601.0936,-258.466 566.4522,-246.8243"/>
<polygon fill="#191970" stroke="#191970" points="567.2791,-243.4099 556.6851,-243.5419 565.0492,-250.0452 567.2791,-243.4099"/>
</g>
<!-- Node72&#45;&gt;Node15 -->
<g id="edge109" class="edge">
<title>Node72&#45;&gt;Node15</title>
<path fill="none" stroke="#191970" d="M502.6242,-414.3186C475.253,-394.4025 430.831,-356.5767 414.2922,-311 410.3733,-300.2008 412.3669,-235.7758 416.2922,-224 419.7262,-213.6979 426.2496,-203.6341 432.5152,-195.5596"/>
<polygon fill="#191970" stroke="#191970" points="435.3731,-197.596 439.0547,-187.6614 429.9813,-193.1318 435.3731,-197.596"/>
</g>
<!-- Node72&#45;&gt;Node73 -->
<g id="edge110" class="edge">
<title>Node72&#45;&gt;Node73</title>
<path fill="none" stroke="#191970" d="M524.3845,-414.2967C523.8157,-404.7699 523.077,-392.3954 522.4641,-382.1306"/>
<polygon fill="#191970" stroke="#191970" points="525.9524,-381.8286 521.8626,-372.055 518.9649,-382.2458 525.9524,-381.8286"/>
</g>
<!-- Node73&#45;&gt;Node36 -->
<g id="edge111" class="edge">
<title>Node73&#45;&gt;Node36</title>
<path fill="none" stroke="#191970" d="M518.1401,-352.9005C514.8728,-342.95 509.6779,-327.1292 505.5686,-314.6147"/>
<polygon fill="#191970" stroke="#191970" points="508.8835,-313.4907 502.4384,-305.0817 502.2328,-315.6745 508.8835,-313.4907"/>
</g>
<!-- Node81&#45;&gt;Node15 -->
<g id="edge116" class="edge">
<title>Node81&#45;&gt;Node15</title>
<path fill="none" stroke="#191970" d="M581.2346,-349.2872C578.2094,-348.5115 575.2111,-347.7445 572.2922,-347 508.7864,-330.8036 469.5829,-362.691 429.2922,-311 403.2397,-277.5759 423.7372,-224.6033 437.8327,-196.6656"/>
<polygon fill="#191970" stroke="#191970" points="441.0528,-198.0636 442.638,-187.588 434.8661,-194.7886 441.0528,-198.0636"/>
</g>
<!-- Node81&#45;&gt;Node36 -->
<g id="edge114" class="edge">
<title>Node81&#45;&gt;Node36</title>
<path fill="none" stroke="#191970" d="M602.4444,-347.4639C580.0282,-336.1715 549.5315,-320.8086 527.5183,-309.7192"/>
<polygon fill="#191970" stroke="#191970" points="528.8621,-306.4772 518.3567,-305.1039 525.7128,-312.7287 528.8621,-306.4772"/>
</g>
<!-- Node81&#45;&gt;Node70 -->
<g id="edge115" class="edge">
<title>Node81&#45;&gt;Node70</title>
<path fill="none" stroke="#191970" d="M683.4707,-348.6176C721.5887,-338.2779 773.8988,-324.0885 814.8649,-312.9762"/>
<polygon fill="#191970" stroke="#191970" points="816.0176,-316.2901 824.7525,-310.2942 814.1849,-309.5342 816.0176,-316.2901"/>
</g>
</g>
</svg>
