<?xml version="1.0" encoding="UTF-8" standalone="no"?>
<!DOCTYPE svg PUBLIC "-//W3C//DTD SVG 1.1//EN"
 "http://www.w3.org/Graphics/SVG/1.1/DTD/svg11.dtd">
<!-- Generated by graphviz version 2.36.0 (20140111.2315)
 -->
<!-- Title: /home/travis/build/igankevich/arma/src/arma.hh Pages: 1 -->
<svg width="746pt" height="374pt"
 viewBox="0.00 0.00 746.00 374.00" xmlns="http://www.w3.org/2000/svg" xmlns:xlink="http://www.w3.org/1999/xlink">
<g id="graph0" class="graph" transform="scale(1 1) rotate(0) translate(4 370)">
<title>/home/travis/build/igankevich/arma/src/arma.hh</title>
<!-- Node1 -->
<g id="node1" class="node"><title>Node1</title>
<polygon fill="#bfbfbf" stroke="black" points="355.5,-324.5 355.5,-365.5 462.5,-365.5 462.5,-324.5 355.5,-324.5"/>
<text text-anchor="start" x="363.5" y="-353.5" font-family="Helvetica,sans-Serif" font-size="10.00">/home/travis/build</text>
<text text-anchor="start" x="363.5" y="-342.5" font-family="Helvetica,sans-Serif" font-size="10.00">/igankevich/arma/src</text>
<text text-anchor="middle" x="409" y="-331.5" font-family="Helvetica,sans-Serif" font-size="10.00">/arma.hh</text>
</g>
<!-- Node2 -->
<g id="node2" class="node"><title>Node2</title>
<g id="a_node2"><a xlink:href="arma_8cc.html" target="_top" xlink:title="/home/travis/build\l/igankevich/arma/src\l/arma.cc">
<polygon fill="none" stroke="black" points="187.5,-240.5 187.5,-281.5 294.5,-281.5 294.5,-240.5 187.5,-240.5"/>
<text text-anchor="start" x="195.5" y="-269.5" font-family="Helvetica,sans-Serif" font-size="10.00">/home/travis/build</text>
<text text-anchor="start" x="195.5" y="-258.5" font-family="Helvetica,sans-Serif" font-size="10.00">/igankevich/arma/src</text>
<text text-anchor="middle" x="241" y="-247.5" font-family="Helvetica,sans-Serif" font-size="10.00">/arma.cc</text>
</a>
</g>
</g>
<!-- Node1&#45;&gt;Node2 -->
<g id="edge1" class="edge"><title>Node1&#45;&gt;Node2</title>
<path fill="none" stroke="midnightblue" d="M359.467,-319.823C334.532,-307.652 304.695,-293.089 281.203,-281.623"/>
<polygon fill="midnightblue" stroke="midnightblue" points="358.238,-323.118 368.76,-324.359 361.308,-316.827 358.238,-323.118"/>
</g>
<!-- Node3 -->
<g id="node3" class="node"><title>Node3</title>
<g id="a_node3"><a xlink:href="arma__driver_8hh.html" target="_top" xlink:title="/home/travis/build\l/igankevich/arma/src\l/arma_driver.hh">
<polygon fill="none" stroke="black" points="90.5,-156.5 90.5,-197.5 197.5,-197.5 197.5,-156.5 90.5,-156.5"/>
<text text-anchor="start" x="98.5" y="-185.5" font-family="Helvetica,sans-Serif" font-size="10.00">/home/travis/build</text>
<text text-anchor="start" x="98.5" y="-174.5" font-family="Helvetica,sans-Serif" font-size="10.00">/igankevich/arma/src</text>
<text text-anchor="middle" x="144" y="-163.5" font-family="Helvetica,sans-Serif" font-size="10.00">/arma_driver.hh</text>
</a>
</g>
</g>
<!-- Node1&#45;&gt;Node3 -->
<g id="edge2" class="edge"><title>Node1&#45;&gt;Node3</title>
<path fill="none" stroke="midnightblue" d="M374.742,-318.129C363.763,-309.132 351.896,-298.621 342,-288 321.819,-266.339 326.711,-251.727 303,-234 294.151,-227.385 240.423,-209.09 197.837,-195.196"/>
<polygon fill="midnightblue" stroke="midnightblue" points="372.55,-320.858 382.538,-324.392 376.934,-315.401 372.55,-320.858"/>
</g>
<!-- Node9 -->
<g id="node9" class="node"><title>Node9</title>
<g id="a_node9"><a xlink:href="ar__model_8hh.html" target="_top" xlink:title="/home/travis/build\l/igankevich/arma/src\l/generator/ar_model.hh">
<polygon fill="none" stroke="black" points="351,-240.5 351,-281.5 467,-281.5 467,-240.5 351,-240.5"/>
<text text-anchor="start" x="359" y="-269.5" font-family="Helvetica,sans-Serif" font-size="10.00">/home/travis/build</text>
<text text-anchor="start" x="359" y="-258.5" font-family="Helvetica,sans-Serif" font-size="10.00">/igankevich/arma/src</text>
<text text-anchor="middle" x="409" y="-247.5" font-family="Helvetica,sans-Serif" font-size="10.00">/generator/ar_model.hh</text>
</a>
</g>
</g>
<!-- Node1&#45;&gt;Node9 -->
<g id="edge8" class="edge"><title>Node1&#45;&gt;Node9</title>
<path fill="none" stroke="midnightblue" d="M409,-313.881C409,-303.133 409,-291.309 409,-281.667"/>
<polygon fill="midnightblue" stroke="midnightblue" points="405.5,-314.15 409,-324.15 412.5,-314.15 405.5,-314.15"/>
</g>
<!-- Node14 -->
<g id="node14" class="node"><title>Node14</title>
<g id="a_node14"><a xlink:href="ma__model_8hh.html" target="_top" xlink:title="/home/travis/build\l/igankevich/arma/src\l/generator/ma_model.hh">
<polygon fill="none" stroke="black" points="485,-240.5 485,-281.5 607,-281.5 607,-240.5 485,-240.5"/>
<text text-anchor="start" x="493" y="-269.5" font-family="Helvetica,sans-Serif" font-size="10.00">/home/travis/build</text>
<text text-anchor="start" x="493" y="-258.5" font-family="Helvetica,sans-Serif" font-size="10.00">/igankevich/arma/src</text>
<text text-anchor="middle" x="546" y="-247.5" font-family="Helvetica,sans-Serif" font-size="10.00">/generator/ma_model.hh</text>
</a>
</g>
</g>
<!-- Node1&#45;&gt;Node14 -->
<g id="edge16" class="edge"><title>Node1&#45;&gt;Node14</title>
<path fill="none" stroke="midnightblue" d="M450.439,-319.197C470.473,-307.206 494.186,-293.013 512.978,-281.765"/>
<polygon fill="midnightblue" stroke="midnightblue" points="448.598,-316.22 441.815,-324.359 452.193,-322.226 448.598,-316.22"/>
</g>
<!-- Node16 -->
<g id="node16" class="node"><title>Node16</title>
<g id="a_node16"><a xlink:href="basic__arma__model_8cc.html" target="_top" xlink:title="/home/travis/build\l/igankevich/arma/src\l/generator/basic_arma\l_model.cc">
<polygon fill="none" stroke="black" points="625.5,-235 625.5,-287 738.5,-287 738.5,-235 625.5,-235"/>
<text text-anchor="start" x="633.5" y="-275" font-family="Helvetica,sans-Serif" font-size="10.00">/home/travis/build</text>
<text text-anchor="start" x="633.5" y="-264" font-family="Helvetica,sans-Serif" font-size="10.00">/igankevich/arma/src</text>
<text text-anchor="start" x="633.5" y="-253" font-family="Helvetica,sans-Serif" font-size="10.00">/generator/basic_arma</text>
<text text-anchor="middle" x="682" y="-242" font-family="Helvetica,sans-Serif" font-size="10.00">_model.cc</text>
</a>
</g>
</g>
<!-- Node1&#45;&gt;Node16 -->
<g id="edge20" class="edge"><title>Node1&#45;&gt;Node16</title>
<path fill="none" stroke="midnightblue" d="M472.577,-328.748C513.807,-318.38 568.494,-303.729 616,-288 619.04,-286.994 622.143,-285.923 625.265,-284.813"/>
<polygon fill="midnightblue" stroke="midnightblue" points="471.518,-325.404 462.664,-331.223 473.214,-332.196 471.518,-325.404"/>
</g>
<!-- Node4 -->
<g id="node4" class="node"><title>Node4</title>
<g id="a_node4"><a xlink:href="arma__driver_8cc.html" target="_top" xlink:title="/home/travis/build\l/igankevich/arma/src\l/arma_driver.cc">
<polygon fill="none" stroke="black" points="142.5,-78.5 142.5,-119.5 249.5,-119.5 249.5,-78.5 142.5,-78.5"/>
<text text-anchor="start" x="150.5" y="-107.5" font-family="Helvetica,sans-Serif" font-size="10.00">/home/travis/build</text>
<text text-anchor="start" x="150.5" y="-96.5" font-family="Helvetica,sans-Serif" font-size="10.00">/igankevich/arma/src</text>
<text text-anchor="middle" x="196" y="-85.5" font-family="Helvetica,sans-Serif" font-size="10.00">/arma_driver.cc</text>
</a>
</g>
</g>
<!-- Node3&#45;&gt;Node4 -->
<g id="edge3" class="edge"><title>Node3&#45;&gt;Node4</title>
<path fill="none" stroke="midnightblue" d="M163.125,-148.048C169.613,-138.566 176.716,-128.185 182.654,-119.506"/>
<polygon fill="midnightblue" stroke="midnightblue" points="160.15,-146.199 157.391,-156.428 165.927,-150.151 160.15,-146.199"/>
</g>
<!-- Node5 -->
<g id="node5" class="node"><title>Node5</title>
<g id="a_node5"><a xlink:href="arma__main_8cc.html" target="_top" xlink:title="/home/travis/build\l/igankevich/arma/src\l/arma_main.cc">
<polygon fill="none" stroke="black" points="407.5,-0.5 407.5,-41.5 514.5,-41.5 514.5,-0.5 407.5,-0.5"/>
<text text-anchor="start" x="415.5" y="-29.5" font-family="Helvetica,sans-Serif" font-size="10.00">/home/travis/build</text>
<text text-anchor="start" x="415.5" y="-18.5" font-family="Helvetica,sans-Serif" font-size="10.00">/igankevich/arma/src</text>
<text text-anchor="middle" x="461" y="-7.5" font-family="Helvetica,sans-Serif" font-size="10.00">/arma_main.cc</text>
</a>
</g>
</g>
<!-- Node3&#45;&gt;Node5 -->
<g id="edge4" class="edge"><title>Node3&#45;&gt;Node5</title>
<path fill="none" stroke="midnightblue" d="M202.886,-152.115C221.357,-143.328 241.275,-132.44 258,-120 278.439,-104.797 275.633,-91.869 297,-78 330.69,-56.132 373.842,-41.8427 407.425,-33.1746"/>
<polygon fill="midnightblue" stroke="midnightblue" points="201.271,-149.006 193.67,-156.386 204.215,-155.357 201.271,-149.006"/>
</g>
<!-- Node6 -->
<g id="node6" class="node"><title>Node6</title>
<g id="a_node6"><a xlink:href="arma__realtime__driver_8hh.html" target="_top" xlink:title="/home/travis/build\l/igankevich/arma/src\l/arma_realtime_driver.hh">
<polygon fill="none" stroke="black" points="0,-78.5 0,-119.5 124,-119.5 124,-78.5 0,-78.5"/>
<text text-anchor="start" x="8" y="-107.5" font-family="Helvetica,sans-Serif" font-size="10.00">/home/travis/build</text>
<text text-anchor="start" x="8" y="-96.5" font-family="Helvetica,sans-Serif" font-size="10.00">/igankevich/arma/src</text>
<text text-anchor="middle" x="62" y="-85.5" font-family="Helvetica,sans-Serif" font-size="10.00">/arma_realtime_driver.hh</text>
</a>
</g>
</g>
<!-- Node3&#45;&gt;Node6 -->
<g id="edge5" class="edge"><title>Node3&#45;&gt;Node6</title>
<path fill="none" stroke="midnightblue" d="M115.399,-149.492C104.758,-139.629 92.8874,-128.627 83.0455,-119.506"/>
<polygon fill="midnightblue" stroke="midnightblue" points="113.169,-152.197 122.883,-156.428 117.928,-147.063 113.169,-152.197"/>
</g>
<!-- Node7 -->
<g id="node7" class="node"><title>Node7</title>
<g id="a_node7"><a xlink:href="arma__realtime_8cc.html" target="_top" xlink:title="/home/travis/build\l/igankevich/arma/src\l/arma_realtime.cc">
<polygon fill="none" stroke="black" points="235.5,-0.5 235.5,-41.5 342.5,-41.5 342.5,-0.5 235.5,-0.5"/>
<text text-anchor="start" x="243.5" y="-29.5" font-family="Helvetica,sans-Serif" font-size="10.00">/home/travis/build</text>
<text text-anchor="start" x="243.5" y="-18.5" font-family="Helvetica,sans-Serif" font-size="10.00">/igankevich/arma/src</text>
<text text-anchor="middle" x="289" y="-7.5" font-family="Helvetica,sans-Serif" font-size="10.00">/arma_realtime.cc</text>
</a>
</g>
</g>
<!-- Node6&#45;&gt;Node7 -->
<g id="edge6" class="edge"><title>Node6&#45;&gt;Node7</title>
<path fill="none" stroke="midnightblue" d="M130.233,-75.1556C163.916,-63.8783 203.961,-50.4712 235.406,-39.9433"/>
<polygon fill="midnightblue" stroke="midnightblue" points="128.83,-71.9343 120.458,-78.4281 131.052,-78.5722 128.83,-71.9343"/>
</g>
<!-- Node8 -->
<g id="node8" class="node"><title>Node8</title>
<g id="a_node8"><a xlink:href="arma__realtime__driver_8cc.html" target="_top" xlink:title="/home/travis/build\l/igankevich/arma/src\l/arma_realtime_driver.cc">
<polygon fill="none" stroke="black" points="0,-0.5 0,-41.5 124,-41.5 124,-0.5 0,-0.5"/>
<text text-anchor="start" x="8" y="-29.5" font-family="Helvetica,sans-Serif" font-size="10.00">/home/travis/build</text>
<text text-anchor="start" x="8" y="-18.5" font-family="Helvetica,sans-Serif" font-size="10.00">/igankevich/arma/src</text>
<text text-anchor="middle" x="62" y="-7.5" font-family="Helvetica,sans-Serif" font-size="10.00">/arma_realtime_driver.cc</text>
</a>
</g>
</g>
<!-- Node6&#45;&gt;Node8 -->
<g id="edge7" class="edge"><title>Node6&#45;&gt;Node8</title>
<path fill="none" stroke="midnightblue" d="M62,-68.2965C62,-59.3009 62,-49.6532 62,-41.5056"/>
<polygon fill="midnightblue" stroke="midnightblue" points="58.5001,-68.4281 62,-78.4281 65.5001,-68.4281 58.5001,-68.4281"/>
</g>
<!-- Node10 -->
<g id="node10" class="node"><title>Node10</title>
<g id="a_node10"><a xlink:href="common__main_8hh.html" target="_top" xlink:title="/home/travis/build\l/igankevich/arma/src\l/common_main.hh">
<polygon fill="none" stroke="black" points="454.5,-78.5 454.5,-119.5 561.5,-119.5 561.5,-78.5 454.5,-78.5"/>
<text text-anchor="start" x="462.5" y="-107.5" font-family="Helvetica,sans-Serif" font-size="10.00">/home/travis/build</text>
<text text-anchor="start" x="462.5" y="-96.5" font-family="Helvetica,sans-Serif" font-size="10.00">/igankevich/arma/src</text>
<text text-anchor="middle" x="508" y="-85.5" font-family="Helvetica,sans-Serif" font-size="10.00">/common_main.hh</text>
</a>
</g>
</g>
<!-- Node9&#45;&gt;Node10 -->
<g id="edge9" class="edge"><title>Node9&#45;&gt;Node10</title>
<path fill="none" stroke="midnightblue" d="M453.304,-234.474C466.684,-224.695 480.156,-212.377 489,-198 503.801,-173.939 507.457,-140.788 508.16,-119.877"/>
<polygon fill="midnightblue" stroke="midnightblue" points="451.238,-231.647 445.026,-240.23 455.234,-237.394 451.238,-231.647"/>
</g>
<!-- Node11 -->
<g id="node11" class="node"><title>Node11</title>
<g id="a_node11"><a xlink:href="arma__model_8hh.html" target="_top" xlink:title="/home/travis/build\l/igankevich/arma/src\l/generator/arma_model.hh">
<polygon fill="none" stroke="black" points="350,-156.5 350,-197.5 480,-197.5 480,-156.5 350,-156.5"/>
<text text-anchor="start" x="358" y="-185.5" font-family="Helvetica,sans-Serif" font-size="10.00">/home/travis/build</text>
<text text-anchor="start" x="358" y="-174.5" font-family="Helvetica,sans-Serif" font-size="10.00">/igankevich/arma/src</text>
<text text-anchor="middle" x="415" y="-163.5" font-family="Helvetica,sans-Serif" font-size="10.00">/generator/arma_model.hh</text>
</a>
</g>
</g>
<!-- Node9&#45;&gt;Node11 -->
<g id="edge12" class="edge"><title>Node9&#45;&gt;Node11</title>
<path fill="none" stroke="midnightblue" d="M411.204,-229.881C411.99,-219.133 412.855,-207.309 413.561,-197.667"/>
<polygon fill="midnightblue" stroke="midnightblue" points="407.692,-229.921 410.452,-240.15 414.673,-230.432 407.692,-229.921"/>
</g>
<!-- Node13 -->
<g id="node13" class="node"><title>Node13</title>
<g id="a_node13"><a xlink:href="ar__model_8cc.html" target="_top" xlink:title="/home/travis/build\l/igankevich/arma/src\l/generator/ar_model.cc">
<polygon fill="none" stroke="black" points="216,-156.5 216,-197.5 332,-197.5 332,-156.5 216,-156.5"/>
<text text-anchor="start" x="224" y="-185.5" font-family="Helvetica,sans-Serif" font-size="10.00">/home/travis/build</text>
<text text-anchor="start" x="224" y="-174.5" font-family="Helvetica,sans-Serif" font-size="10.00">/igankevich/arma/src</text>
<text text-anchor="middle" x="274" y="-163.5" font-family="Helvetica,sans-Serif" font-size="10.00">/generator/ar_model.cc</text>
</a>
</g>
</g>
<!-- Node9&#45;&gt;Node13 -->
<g id="edge15" class="edge"><title>Node9&#45;&gt;Node13</title>
<path fill="none" stroke="midnightblue" d="M367.9,-235.036C348.215,-223.079 324.975,-208.963 306.54,-197.765"/>
<polygon fill="midnightblue" stroke="midnightblue" points="366.3,-238.159 376.664,-240.359 369.934,-232.176 366.3,-238.159"/>
</g>
<!-- Node10&#45;&gt;Node5 -->
<g id="edge10" class="edge"><title>Node10&#45;&gt;Node5</title>
<path fill="none" stroke="midnightblue" d="M490.534,-69.7571C484.719,-60.354 478.375,-50.096 473.063,-41.5056"/>
<polygon fill="midnightblue" stroke="midnightblue" points="487.66,-71.764 495.896,-78.4281 493.613,-68.0822 487.66,-71.764"/>
</g>
<!-- Node10&#45;&gt;Node7 -->
<g id="edge11" class="edge"><title>Node10&#45;&gt;Node7</title>
<path fill="none" stroke="midnightblue" d="M444.64,-76.0119C412.375,-64.8152 373.57,-51.3487 342.779,-40.6632"/>
<polygon fill="midnightblue" stroke="midnightblue" points="443.832,-79.4363 454.427,-79.4083 446.127,-72.8232 443.832,-79.4363"/>
</g>
<!-- Node11&#45;&gt;Node10 -->
<g id="edge13" class="edge"><title>Node11&#45;&gt;Node10</title>
<path fill="none" stroke="midnightblue" d="M446.737,-150.065C458.982,-140.057 472.752,-128.804 484.131,-119.506"/>
<polygon fill="midnightblue" stroke="midnightblue" points="444.478,-147.39 438.95,-156.428 448.908,-152.81 444.478,-147.39"/>
</g>
<!-- Node12 -->
<g id="node12" class="node"><title>Node12</title>
<g id="a_node12"><a xlink:href="arma__model_8cc.html" target="_top" xlink:title="/home/travis/build\l/igankevich/arma/src\l/generator/arma_model.cc">
<polygon fill="none" stroke="black" points="306,-78.5 306,-119.5 436,-119.5 436,-78.5 306,-78.5"/>
<text text-anchor="start" x="314" y="-107.5" font-family="Helvetica,sans-Serif" font-size="10.00">/home/travis/build</text>
<text text-anchor="start" x="314" y="-96.5" font-family="Helvetica,sans-Serif" font-size="10.00">/igankevich/arma/src</text>
<text text-anchor="middle" x="371" y="-85.5" font-family="Helvetica,sans-Serif" font-size="10.00">/generator/arma_model.cc</text>
</a>
</g>
</g>
<!-- Node11&#45;&gt;Node12 -->
<g id="edge14" class="edge"><title>Node11&#45;&gt;Node12</title>
<path fill="none" stroke="midnightblue" d="M398.649,-147.757C393.205,-138.354 387.266,-128.096 382.293,-119.506"/>
<polygon fill="midnightblue" stroke="midnightblue" points="395.629,-149.527 403.669,-156.428 401.687,-146.02 395.629,-149.527"/>
</g>
<!-- Node14&#45;&gt;Node10 -->
<g id="edge17" class="edge"><title>Node14&#45;&gt;Node10</title>
<path fill="none" stroke="midnightblue" d="M539.36,-230.578C534.619,-209.733 528.039,-181.123 522,-156 519.096,-143.918 515.72,-130.401 513.012,-119.675"/>
<polygon fill="midnightblue" stroke="midnightblue" points="535.968,-231.446 541.594,-240.424 542.795,-229.897 535.968,-231.446"/>
</g>
<!-- Node14&#45;&gt;Node11 -->
<g id="edge18" class="edge"><title>Node14&#45;&gt;Node11</title>
<path fill="none" stroke="midnightblue" d="M506.118,-235.036C487.016,-223.079 464.465,-208.963 446.576,-197.765"/>
<polygon fill="midnightblue" stroke="midnightblue" points="504.289,-238.02 514.622,-240.359 508.003,-232.086 504.289,-238.02"/>
</g>
<!-- Node15 -->
<g id="node15" class="node"><title>Node15</title>
<g id="a_node15"><a xlink:href="ma__model_8cc.html" target="_top" xlink:title="/home/travis/build\l/igankevich/arma/src\l/generator/ma_model.cc">
<polygon fill="none" stroke="black" points="574,-156.5 574,-197.5 696,-197.5 696,-156.5 574,-156.5"/>
<text text-anchor="start" x="582" y="-185.5" font-family="Helvetica,sans-Serif" font-size="10.00">/home/travis/build</text>
<text text-anchor="start" x="582" y="-174.5" font-family="Helvetica,sans-Serif" font-size="10.00">/igankevich/arma/src</text>
<text text-anchor="middle" x="635" y="-163.5" font-family="Helvetica,sans-Serif" font-size="10.00">/generator/ma_model.cc</text>
</a>
</g>
</g>
<!-- Node14&#45;&gt;Node15 -->
<g id="edge19" class="edge"><title>Node14&#45;&gt;Node15</title>
<path fill="none" stroke="midnightblue" d="M575.087,-233.201C587.657,-221.62 602.099,-208.313 613.654,-197.667"/>
<polygon fill="midnightblue" stroke="midnightblue" points="572.527,-230.8 567.544,-240.15 577.27,-235.948 572.527,-230.8"/>
</g>
</g>
</svg>
