<?xml version="1.0" encoding="UTF-8" standalone="no"?>
<!DOCTYPE svg PUBLIC "-//W3C//DTD SVG 1.1//EN"
 "http://www.w3.org/Graphics/SVG/1.1/DTD/svg11.dtd">
<!-- Generated by graphviz version 2.40.1 (20161225.0304)
 -->
<!-- Title: src/arma_realtime_driver.hh Pages: 1 -->
<svg width="1540pt" height="420pt"
 viewBox="0.00 0.00 1540.45 420.00" xmlns="http://www.w3.org/2000/svg" xmlns:xlink="http://www.w3.org/1999/xlink">
<g id="graph0" class="graph" transform="scale(1 1) rotate(0) translate(4 416)">
<title>src/arma_realtime_driver.hh</title>
<!-- Node0 -->
<g id="node1" class="node">
<title>Node0</title>
<polygon fill="#bfbfbf" stroke="#000000" points="636.5,-392.5 636.5,-411.5 773.5,-411.5 773.5,-392.5 636.5,-392.5"/>
<text text-anchor="middle" x="705" y="-399.5" font-family="Helvetica,sans-Serif" font-size="10.00" fill="#000000">src/arma_realtime_driver.hh</text>
</g>
<!-- Node1 -->
<g id="node2" class="node">
<title>Node1</title>
<polygon fill="none" stroke="#bfbfbf" points="678.5,-112.5 678.5,-131.5 727.5,-131.5 727.5,-112.5 678.5,-112.5"/>
<text text-anchor="middle" x="703" y="-119.5" font-family="Helvetica,sans-Serif" font-size="10.00" fill="#000000">istream</text>
</g>
<!-- Node0&#45;&gt;Node1 -->
<g id="edge1" class="edge">
<title>Node0&#45;&gt;Node1</title>
<path fill="none" stroke="#191970" d="M656.0143,-392.4487C577.2022,-375.6633 431,-338.0497 431,-290 431,-290 431,-290 431,-234 431,-208.5762 595.5807,-154.9365 668.6985,-132.3607"/>
<polygon fill="#191970" stroke="#191970" points="669.8499,-135.6685 678.3821,-129.3874 667.7952,-128.9768 669.8499,-135.6685"/>
</g>
<!-- Node2 -->
<g id="node3" class="node">
<title>Node2</title>
<polygon fill="none" stroke="#bfbfbf" points="0,-112.5 0,-131.5 44,-131.5 44,-112.5 0,-112.5"/>
<text text-anchor="middle" x="22" y="-119.5" font-family="Helvetica,sans-Serif" font-size="10.00" fill="#000000">vector</text>
</g>
<!-- Node0&#45;&gt;Node2 -->
<g id="edge2" class="edge">
<title>Node0&#45;&gt;Node2</title>
<path fill="none" stroke="#191970" d="M636.2515,-394.9923C489.7374,-379.129 160,-338.0864 160,-290 160,-290 160,-290 160,-234 160,-179.5544 94.4386,-146.9541 53.6938,-131.951"/>
<polygon fill="#191970" stroke="#191970" points="54.7669,-128.6183 44.1721,-128.5964 52.4408,-135.2205 54.7669,-128.6183"/>
</g>
<!-- Node3 -->
<g id="node4" class="node">
<title>Node3</title>
<g id="a_node4"><a xlink:href="arma__driver_8hh.html" target="_top" xlink:title="arma_driver.hh">
<polygon fill="none" stroke="#000000" points="939,-336.5 939,-355.5 1019,-355.5 1019,-336.5 939,-336.5"/>
<text text-anchor="middle" x="979" y="-343.5" font-family="Helvetica,sans-Serif" font-size="10.00" fill="#000000">arma_driver.hh</text>
</a>
</g>
</g>
<!-- Node0&#45;&gt;Node3 -->
<g id="edge3" class="edge">
<title>Node0&#45;&gt;Node3</title>
<path fill="none" stroke="#191970" d="M751.791,-392.4369C800.9814,-382.3834 878.103,-366.6213 928.6072,-356.2993"/>
<polygon fill="#191970" stroke="#191970" points="929.552,-359.6786 938.6486,-354.247 928.1503,-352.8204 929.552,-359.6786"/>
</g>
<!-- Node38 -->
<g id="node39" class="node">
<title>Node38</title>
<g id="a_node39"><a xlink:href="opengl_8hh.html" target="_top" xlink:title="opengl.hh">
<polygon fill="none" stroke="#000000" points="1421.5,-336.5 1421.5,-355.5 1480.5,-355.5 1480.5,-336.5 1421.5,-336.5"/>
<text text-anchor="middle" x="1451" y="-343.5" font-family="Helvetica,sans-Serif" font-size="10.00" fill="#000000">opengl.hh</text>
</a>
</g>
</g>
<!-- Node0&#45;&gt;Node38 -->
<g id="edge67" class="edge">
<title>Node0&#45;&gt;Node38</title>
<path fill="none" stroke="#191970" d="M773.5121,-396.857C926.1305,-385.4004 1290.1304,-358.076 1411.1269,-348.9932"/>
<polygon fill="#191970" stroke="#191970" points="1411.6959,-352.4604 1421.4058,-348.2216 1411.1718,-345.48 1411.6959,-352.4604"/>
</g>
<!-- Node3&#45;&gt;Node1 -->
<g id="edge5" class="edge">
<title>Node3&#45;&gt;Node1</title>
<path fill="none" stroke="#191970" d="M938.7091,-343.6449C862.0133,-338.6364 698.2053,-325.266 648,-300 610.7555,-281.2565 576.3204,-262.2134 593,-224 610.036,-184.97 650.1869,-154.1856 676.9738,-137.0367"/>
<polygon fill="#191970" stroke="#191970" points="678.8406,-139.9975 685.493,-131.7515 675.1503,-134.0492 678.8406,-139.9975"/>
</g>
<!-- Node4 -->
<g id="node5" class="node">
<title>Node4</title>
<polygon fill="none" stroke="#bfbfbf" points="1137.5,-280.5 1137.5,-299.5 1196.5,-299.5 1196.5,-280.5 1137.5,-280.5"/>
<text text-anchor="middle" x="1167" y="-287.5" font-family="Helvetica,sans-Serif" font-size="10.00" fill="#000000">functional</text>
</g>
<!-- Node3&#45;&gt;Node4 -->
<g id="edge4" class="edge">
<title>Node3&#45;&gt;Node4</title>
<path fill="none" stroke="#191970" d="M1011.3184,-336.3733C1043.5194,-326.7814 1093.0106,-312.0394 1127.5196,-301.7601"/>
<polygon fill="#191970" stroke="#191970" points="1128.6854,-305.0649 1137.27,-298.8557 1126.687,-298.3562 1128.6854,-305.0649"/>
</g>
<!-- Node5 -->
<g id="node6" class="node">
<title>Node5</title>
<polygon fill="none" stroke="#bfbfbf" points="1016,-112.5 1016,-131.5 1068,-131.5 1068,-112.5 1016,-112.5"/>
<text text-anchor="middle" x="1042" y="-119.5" font-family="Helvetica,sans-Serif" font-size="10.00" fill="#000000">ostream</text>
</g>
<!-- Node3&#45;&gt;Node5 -->
<g id="edge6" class="edge">
<title>Node3&#45;&gt;Node5</title>
<path fill="none" stroke="#191970" d="M993.1704,-336.4986C1004.181,-328.2564 1018.7582,-315.2675 1026,-300 1050.9684,-247.3603 1047.9168,-176.1766 1044.5168,-141.9732"/>
<polygon fill="#191970" stroke="#191970" points="1047.9771,-141.4221 1043.3903,-131.8717 1041.0202,-142.198 1047.9771,-141.4221"/>
</g>
<!-- Node6 -->
<g id="node7" class="node">
<title>Node6</title>
<polygon fill="none" stroke="#bfbfbf" points="1214.5,-112.5 1214.5,-131.5 1255.5,-131.5 1255.5,-112.5 1214.5,-112.5"/>
<text text-anchor="middle" x="1235" y="-119.5" font-family="Helvetica,sans-Serif" font-size="10.00" fill="#000000">string</text>
</g>
<!-- Node3&#45;&gt;Node6 -->
<g id="edge7" class="edge">
<title>Node3&#45;&gt;Node6</title>
<path fill="none" stroke="#191970" d="M1019.1308,-343.7845C1081.1866,-339.5155 1196.2889,-327.9676 1225,-300 1267.7801,-258.3278 1251.7525,-178.3527 1241.2633,-141.4881"/>
<polygon fill="#191970" stroke="#191970" points="1244.6141,-140.4769 1238.3809,-131.9097 1237.9111,-142.4941 1244.6141,-140.4769"/>
</g>
<!-- Node7 -->
<g id="node8" class="node">
<title>Node7</title>
<polygon fill="none" stroke="#bfbfbf" points="1291.5,-280.5 1291.5,-299.5 1374.5,-299.5 1374.5,-280.5 1291.5,-280.5"/>
<text text-anchor="middle" x="1333" y="-287.5" font-family="Helvetica,sans-Serif" font-size="10.00" fill="#000000">unordered_map</text>
</g>
<!-- Node3&#45;&gt;Node7 -->
<g id="edge8" class="edge">
<title>Node3&#45;&gt;Node7</title>
<path fill="none" stroke="#191970" d="M1019.0545,-340.1233C1076.3097,-331.6533 1184.8253,-315.3418 1277,-300 1278.4613,-299.7568 1279.9436,-299.5077 1281.4395,-299.2544"/>
<polygon fill="#191970" stroke="#191970" points="1282.1672,-302.6807 1291.429,-297.5357 1280.9803,-295.782 1282.1672,-302.6807"/>
</g>
<!-- Node8 -->
<g id="node9" class="node">
<title>Node8</title>
<polygon fill="none" stroke="#bfbfbf" points="459,-280.5 459,-299.5 515,-299.5 515,-280.5 459,-280.5"/>
<text text-anchor="middle" x="487" y="-287.5" font-family="Helvetica,sans-Serif" font-size="10.00" fill="#000000">config.hh</text>
</g>
<!-- Node3&#45;&gt;Node8 -->
<g id="edge9" class="edge">
<title>Node3&#45;&gt;Node8</title>
<path fill="none" stroke="#191970" d="M938.7276,-343.6709C859.7186,-338.7079 679.0187,-325.413 529,-300 527.7529,-299.7887 526.4877,-299.5619 525.2123,-299.3224"/>
<polygon fill="#191970" stroke="#191970" points="525.8637,-295.8831 515.3625,-297.2886 524.4481,-302.7385 525.8637,-295.8831"/>
</g>
<!-- Node9 -->
<g id="node10" class="node">
<title>Node9</title>
<g id="a_node10"><a xlink:href="types_8hh.html" target="_top" xlink:title="types.hh">
<polygon fill="none" stroke="#000000" points="933,-168.5 933,-187.5 987,-187.5 987,-168.5 933,-168.5"/>
<text text-anchor="middle" x="960" y="-175.5" font-family="Helvetica,sans-Serif" font-size="10.00" fill="#000000">types.hh</text>
</a>
</g>
</g>
<!-- Node3&#45;&gt;Node9 -->
<g id="edge10" class="edge">
<title>Node3&#45;&gt;Node9</title>
<path fill="none" stroke="#191970" d="M986.1669,-336.4694C1001.0373,-315.4479 1032.3837,-263.8098 1014,-224 1008.1741,-211.384 996.9931,-200.9528 986.3095,-193.2314"/>
<polygon fill="#191970" stroke="#191970" points="988.2142,-190.2946 977.9599,-187.6299 984.3144,-196.1076 988.2142,-190.2946"/>
</g>
<!-- Node11 -->
<g id="node12" class="node">
<title>Node11</title>
<g id="a_node12"><a xlink:href="arma_8hh.html" target="_top" xlink:title="arma.hh">
<polygon fill="none" stroke="#000000" points="953,-224.5 953,-243.5 1005,-243.5 1005,-224.5 953,-224.5"/>
<text text-anchor="middle" x="979" y="-231.5" font-family="Helvetica,sans-Serif" font-size="10.00" fill="#000000">arma.hh</text>
</a>
</g>
</g>
<!-- Node3&#45;&gt;Node11 -->
<g id="edge12" class="edge">
<title>Node3&#45;&gt;Node11</title>
<path fill="none" stroke="#191970" d="M979,-336.4509C979,-318.184 979,-277.9553 979,-253.6976"/>
<polygon fill="#191970" stroke="#191970" points="982.5001,-253.5249 979,-243.5249 975.5001,-253.5249 982.5001,-253.5249"/>
</g>
<!-- Node12 -->
<g id="node13" class="node">
<title>Node12</title>
<g id="a_node13"><a xlink:href="basic__model_8hh.html" target="_top" xlink:title="generator/basic_model.hh">
<polygon fill="none" stroke="#000000" points="769,-224.5 769,-243.5 897,-243.5 897,-224.5 769,-224.5"/>
<text text-anchor="middle" x="833" y="-231.5" font-family="Helvetica,sans-Serif" font-size="10.00" fill="#000000">generator/basic_model.hh</text>
</a>
</g>
</g>
<!-- Node3&#45;&gt;Node12 -->
<g id="edge14" class="edge">
<title>Node3&#45;&gt;Node12</title>
<path fill="none" stroke="#191970" d="M966.5521,-336.4509C941.4468,-317.1921 884.5195,-273.5218 853.7183,-249.8935"/>
<polygon fill="#191970" stroke="#191970" points="855.481,-246.8345 845.4164,-243.5249 851.2204,-252.3885 855.481,-246.8345"/>
</g>
<!-- Node13 -->
<g id="node14" class="node">
<title>Node13</title>
<g id="a_node14"><a xlink:href="grid_8hh.html" target="_top" xlink:title="grid.hh">
<polygon fill="none" stroke="#000000" points="680,-168.5 680,-187.5 726,-187.5 726,-168.5 680,-168.5"/>
<text text-anchor="middle" x="703" y="-175.5" font-family="Helvetica,sans-Serif" font-size="10.00" fill="#000000">grid.hh</text>
</a>
</g>
</g>
<!-- Node3&#45;&gt;Node13 -->
<g id="edge48" class="edge">
<title>Node3&#45;&gt;Node13</title>
<path fill="none" stroke="#191970" d="M938.9613,-342.0017C848.9276,-332.0236 635.5731,-302.5162 600,-244 581.1928,-213.0629 633.1071,-194.0617 669.8945,-184.8185"/>
<polygon fill="#191970" stroke="#191970" points="670.8763,-188.1828 679.798,-182.4684 669.2601,-181.372 670.8763,-188.1828"/>
</g>
<!-- Node19 -->
<g id="node20" class="node">
<title>Node19</title>
<g id="a_node20"><a xlink:href="output__flags_8hh.html" target="_top" xlink:title="output_flags.hh">
<polygon fill="none" stroke="#000000" points="1079.5,-168.5 1079.5,-187.5 1162.5,-187.5 1162.5,-168.5 1079.5,-168.5"/>
<text text-anchor="middle" x="1121" y="-175.5" font-family="Helvetica,sans-Serif" font-size="10.00" fill="#000000">output_flags.hh</text>
</a>
</g>
</g>
<!-- Node3&#45;&gt;Node19 -->
<g id="edge47" class="edge">
<title>Node3&#45;&gt;Node19</title>
<path fill="none" stroke="#191970" d="M1019.2413,-337.4258C1041.4884,-330.7344 1067.9884,-319.2344 1085,-300 1110.7435,-270.8927 1118.1056,-224.1606 1120.1927,-197.784"/>
<polygon fill="#191970" stroke="#191970" points="1123.7025,-197.7285 1120.8152,-187.5346 1116.7153,-197.304 1123.7025,-197.7285"/>
</g>
<!-- Node31 -->
<g id="node32" class="node">
<title>Node31</title>
<g id="a_node32"><a xlink:href="basic__solver_8hh.html" target="_top" xlink:title="velocity/basic_solver.hh">
<polygon fill="none" stroke="#000000" points="753.5,-280.5 753.5,-299.5 874.5,-299.5 874.5,-280.5 753.5,-280.5"/>
<text text-anchor="middle" x="814" y="-287.5" font-family="Helvetica,sans-Serif" font-size="10.00" fill="#000000">velocity/basic_solver.hh</text>
</a>
</g>
</g>
<!-- Node3&#45;&gt;Node31 -->
<g id="edge49" class="edge">
<title>Node3&#45;&gt;Node31</title>
<path fill="none" stroke="#191970" d="M950.6355,-336.3733C923.3173,-327.1016 881.8204,-313.0178 851.7262,-302.804"/>
<polygon fill="#191970" stroke="#191970" points="852.5887,-299.4008 841.9944,-299.5011 850.339,-306.0294 852.5887,-299.4008"/>
</g>
<!-- Node34 -->
<g id="node35" class="node">
<title>Node34</title>
<g id="a_node35"><a xlink:href="discrete__function_8hh.html" target="_top" xlink:title="discrete_function.hh">
<polygon fill="none" stroke="#000000" points="609,-224.5 609,-243.5 713,-243.5 713,-224.5 609,-224.5"/>
<text text-anchor="middle" x="661" y="-231.5" font-family="Helvetica,sans-Serif" font-size="10.00" fill="#000000">discrete_function.hh</text>
</a>
</g>
</g>
<!-- Node3&#45;&gt;Node34 -->
<g id="edge61" class="edge">
<title>Node3&#45;&gt;Node34</title>
<path fill="none" stroke="#191970" d="M938.9803,-343.9441C890.7408,-340.1897 808.1649,-329.6255 744,-300 718.095,-288.0394 693.1351,-266.3707 677.4707,-251.1323"/>
<polygon fill="#191970" stroke="#191970" points="679.7176,-248.4296 670.1707,-243.8353 674.7688,-253.3804 679.7176,-248.4296"/>
</g>
<!-- Node35 -->
<g id="node36" class="node">
<title>Node35</title>
<g id="a_node36"><a xlink:href="util_8hh.html" target="_top" xlink:title="util.hh">
<polygon fill="none" stroke="#000000" points="1191.5,-168.5 1191.5,-187.5 1234.5,-187.5 1234.5,-168.5 1191.5,-168.5"/>
<text text-anchor="middle" x="1213" y="-175.5" font-family="Helvetica,sans-Serif" font-size="10.00" fill="#000000">util.hh</text>
</a>
</g>
</g>
<!-- Node3&#45;&gt;Node35 -->
<g id="edge62" class="edge">
<title>Node3&#45;&gt;Node35</title>
<path fill="none" stroke="#191970" d="M1019.4125,-343.5865C1077.9864,-339.1725 1182.1009,-327.5761 1206,-300 1230.5586,-271.6629 1224.5421,-224.2988 1218.4635,-197.6894"/>
<polygon fill="#191970" stroke="#191970" points="1221.7774,-196.516 1215.9435,-187.672 1214.9889,-198.2238 1221.7774,-196.516"/>
</g>
<!-- Node10 -->
<g id="node11" class="node">
<title>Node10</title>
<polygon fill="none" stroke="#bfbfbf" points="888.5,-.5 888.5,-19.5 955.5,-19.5 955.5,-.5 888.5,-.5"/>
<text text-anchor="middle" x="922" y="-7.5" font-family="Helvetica,sans-Serif" font-size="10.00" fill="#000000">blitz/array.h</text>
</g>
<!-- Node9&#45;&gt;Node10 -->
<g id="edge11" class="edge">
<title>Node9&#45;&gt;Node10</title>
<path fill="none" stroke="#191970" d="M958.4579,-168.4361C955.0516,-147.7706 946.3606,-97.4666 936,-56 933.8051,-47.2153 930.9568,-37.6166 928.4029,-29.4708"/>
<polygon fill="#191970" stroke="#191970" points="931.6842,-28.2414 925.2947,-19.79 925.0193,-30.3813 931.6842,-28.2414"/>
</g>
<!-- Node11&#45;&gt;Node9 -->
<g id="edge13" class="edge">
<title>Node11&#45;&gt;Node9</title>
<path fill="none" stroke="#191970" d="M975.6905,-224.2455C973.1567,-216.7776 969.5823,-206.2427 966.485,-197.1137"/>
<polygon fill="#191970" stroke="#191970" points="969.7991,-195.9879 963.2716,-187.6427 963.1702,-198.237 969.7991,-195.9879"/>
</g>
<!-- Node12&#45;&gt;Node1 -->
<g id="edge15" class="edge">
<title>Node12&#45;&gt;Node1</title>
<path fill="none" stroke="#191970" d="M821.9163,-224.4509C799.6582,-205.2747 749.3081,-161.8962 721.8022,-138.1988"/>
<polygon fill="#191970" stroke="#191970" points="723.9163,-135.4004 714.0557,-131.5249 719.3473,-140.7036 723.9163,-135.4004"/>
</g>
<!-- Node12&#45;&gt;Node5 -->
<g id="edge16" class="edge">
<title>Node12&#45;&gt;Node5</title>
<path fill="none" stroke="#191970" d="M844.1456,-224.4529C860.7022,-210.622 893.1642,-184.8296 924,-168 950.3448,-153.6215 982.1434,-141.4982 1006.0899,-133.3131"/>
<polygon fill="#191970" stroke="#191970" points="1007.4616,-136.5449 1015.8331,-130.0513 1005.2393,-129.907 1007.4616,-136.5449"/>
</g>
<!-- Node12&#45;&gt;Node9 -->
<g id="edge46" class="edge">
<title>Node12&#45;&gt;Node9</title>
<path fill="none" stroke="#191970" d="M854.8321,-224.3733C875.3103,-215.3435 906.1399,-201.7494 929.1319,-191.6111"/>
<polygon fill="#191970" stroke="#191970" points="930.715,-194.7383 938.4528,-187.5011 927.8907,-188.3333 930.715,-194.7383"/>
</g>
<!-- Node12&#45;&gt;Node13 -->
<g id="edge17" class="edge">
<title>Node12&#45;&gt;Node13</title>
<path fill="none" stroke="#191970" d="M810.6522,-224.3733C789.5967,-215.3032 757.8505,-201.6279 734.2825,-191.4755"/>
<polygon fill="#191970" stroke="#191970" points="735.625,-188.243 725.0562,-187.5011 732.8556,-194.6719 735.625,-188.243"/>
</g>
<!-- Node12&#45;&gt;Node19 -->
<g id="edge27" class="edge">
<title>Node12&#45;&gt;Node19</title>
<path fill="none" stroke="#191970" d="M882.1817,-224.4369C934.4033,-214.2827 1016.5741,-198.305 1069.6186,-187.9908"/>
<polygon fill="#191970" stroke="#191970" points="1070.3478,-191.4147 1079.4959,-186.0702 1069.0116,-184.5434 1070.3478,-191.4147"/>
</g>
<!-- Node22 -->
<g id="node23" class="node">
<title>Node22</title>
<g id="a_node23"><a xlink:href="parallel__mt_8hh.html" target="_top" xlink:title="parallel_mt.hh">
<polygon fill="none" stroke="#000000" points="325.5,-168.5 325.5,-187.5 402.5,-187.5 402.5,-168.5 325.5,-168.5"/>
<text text-anchor="middle" x="364" y="-175.5" font-family="Helvetica,sans-Serif" font-size="10.00" fill="#000000">parallel_mt.hh</text>
</a>
</g>
</g>
<!-- Node12&#45;&gt;Node22 -->
<g id="edge33" class="edge">
<title>Node12&#45;&gt;Node22</title>
<path fill="none" stroke="#191970" d="M768.7709,-226.3309C673.7639,-214.9867 497.8548,-193.9827 412.701,-183.815"/>
<polygon fill="#191970" stroke="#191970" points="412.8765,-180.3112 402.532,-182.6008 412.0465,-187.2618 412.8765,-180.3112"/>
</g>
<!-- Node13&#45;&gt;Node1 -->
<g id="edge19" class="edge">
<title>Node13&#45;&gt;Node1</title>
<path fill="none" stroke="#191970" d="M703,-168.2455C703,-160.9382 703,-150.6944 703,-141.7046"/>
<polygon fill="#191970" stroke="#191970" points="706.5001,-141.6426 703,-131.6427 699.5001,-141.6427 706.5001,-141.6426"/>
</g>
<!-- Node14 -->
<g id="node15" class="node">
<title>Node14</title>
<polygon fill="none" stroke="#bfbfbf" points="785,-.5 785,-19.5 829,-19.5 829,-.5 785,-.5"/>
<text text-anchor="middle" x="807" y="-7.5" font-family="Helvetica,sans-Serif" font-size="10.00" fill="#000000">cmath</text>
</g>
<!-- Node13&#45;&gt;Node14 -->
<g id="edge18" class="edge">
<title>Node13&#45;&gt;Node14</title>
<path fill="none" stroke="#191970" d="M679.9669,-176.7235C605.1943,-172.3476 372.8029,-156.8375 351,-132 345.136,-125.3198 345.8156,-119.2204 351,-112 400.9438,-42.4423 678.6256,-18.2409 774.4659,-11.8925"/>
<polygon fill="#191970" stroke="#191970" points="774.9571,-15.3683 784.7131,-11.2365 774.5099,-8.3826 774.9571,-15.3683"/>
</g>
<!-- Node15 -->
<g id="node16" class="node">
<title>Node15</title>
<g id="a_node16"><a xlink:href="blitz_8hh.html" target="_top" xlink:title="blitz.hh">
<polygon fill="none" stroke="#000000" points="783,-56.5 783,-75.5 831,-75.5 831,-56.5 783,-56.5"/>
<text text-anchor="middle" x="807" y="-63.5" font-family="Helvetica,sans-Serif" font-size="10.00" fill="#000000">blitz.hh</text>
</a>
</g>
</g>
<!-- Node13&#45;&gt;Node15 -->
<g id="edge20" class="edge">
<title>Node13&#45;&gt;Node15</title>
<path fill="none" stroke="#191970" d="M726.177,-172.73C758.6895,-164.8143 815.1992,-148.9644 827,-132 836.9832,-117.6485 829.0716,-98.1969 820.4308,-84.1321"/>
<polygon fill="#191970" stroke="#191970" points="823.3038,-82.1321 814.828,-75.7751 817.4896,-86.0302 823.3038,-82.1321"/>
</g>
<!-- Node17 -->
<g id="node18" class="node">
<title>Node17</title>
<g id="a_node18"><a xlink:href="validators_8hh.html" target="_top" xlink:title="validators.hh">
<polygon fill="none" stroke="#000000" points="746,-112.5 746,-131.5 818,-131.5 818,-112.5 746,-112.5"/>
<text text-anchor="middle" x="782" y="-119.5" font-family="Helvetica,sans-Serif" font-size="10.00" fill="#000000">validators.hh</text>
</a>
</g>
</g>
<!-- Node13&#45;&gt;Node17 -->
<g id="edge24" class="edge">
<title>Node13&#45;&gt;Node17</title>
<path fill="none" stroke="#191970" d="M716.7607,-168.2455C728.6552,-159.814 746.065,-147.4729 759.9085,-137.6598"/>
<polygon fill="#191970" stroke="#191970" points="762.2628,-140.2811 768.3969,-131.6427 758.2146,-134.5704 762.2628,-140.2811"/>
</g>
<!-- Node15&#45;&gt;Node10 -->
<g id="edge22" class="edge">
<title>Node15&#45;&gt;Node10</title>
<path fill="none" stroke="#191970" d="M826.7692,-56.3733C845.1469,-47.4241 872.7312,-33.9917 893.4893,-23.8835"/>
<polygon fill="#191970" stroke="#191970" points="895.0304,-27.026 902.4888,-19.5011 891.9657,-20.7325 895.0304,-27.026"/>
</g>
<!-- Node15&#45;&gt;Node14 -->
<g id="edge23" class="edge">
<title>Node15&#45;&gt;Node14</title>
<path fill="none" stroke="#191970" d="M807,-56.2455C807,-48.9382 807,-38.6944 807,-29.7046"/>
<polygon fill="#191970" stroke="#191970" points="810.5001,-29.6426 807,-19.6427 803.5001,-29.6427 810.5001,-29.6426"/>
</g>
<!-- Node16 -->
<g id="node17" class="node">
<title>Node16</title>
<polygon fill="none" stroke="#bfbfbf" points="390,-.5 390,-19.5 446,-19.5 446,-.5 390,-.5"/>
<text text-anchor="middle" x="418" y="-7.5" font-family="Helvetica,sans-Serif" font-size="10.00" fill="#000000">algorithm</text>
</g>
<!-- Node15&#45;&gt;Node16 -->
<g id="edge21" class="edge">
<title>Node15&#45;&gt;Node16</title>
<path fill="none" stroke="#191970" d="M782.9599,-62.5392C717.5669,-53.1253 536.043,-26.9933 456.3496,-15.5208"/>
<polygon fill="#191970" stroke="#191970" points="456.6476,-12.0277 446.2509,-14.067 455.6502,-18.9562 456.6476,-12.0277"/>
</g>
<!-- Node17&#45;&gt;Node15 -->
<g id="edge26" class="edge">
<title>Node17&#45;&gt;Node15</title>
<path fill="none" stroke="#191970" d="M786.3547,-112.2455C789.7244,-104.6973 794.493,-94.0158 798.5983,-84.8197"/>
<polygon fill="#191970" stroke="#191970" points="801.8147,-86.2009 802.6952,-75.6427 795.4227,-83.3473 801.8147,-86.2009"/>
</g>
<!-- Node18 -->
<g id="node19" class="node">
<title>Node18</title>
<polygon fill="none" stroke="#bfbfbf" points="526.5,-56.5 526.5,-75.5 585.5,-75.5 585.5,-56.5 526.5,-56.5"/>
<text text-anchor="middle" x="556" y="-63.5" font-family="Helvetica,sans-Serif" font-size="10.00" fill="#000000">stdexcept</text>
</g>
<!-- Node17&#45;&gt;Node18 -->
<g id="edge25" class="edge">
<title>Node17&#45;&gt;Node18</title>
<path fill="none" stroke="#191970" d="M745.9397,-113.0647C704.8674,-102.8875 637.9689,-86.3109 595.512,-75.7906"/>
<polygon fill="#191970" stroke="#191970" points="596.3462,-72.3915 585.798,-73.3836 594.6626,-79.186 596.3462,-72.3915"/>
</g>
<!-- Node19&#45;&gt;Node1 -->
<g id="edge29" class="edge">
<title>Node19&#45;&gt;Node1</title>
<path fill="none" stroke="#191970" d="M1079.2099,-173.8846C997.4404,-165.6922 818.0097,-146.9935 737.9295,-131.8227"/>
<polygon fill="#191970" stroke="#191970" points="738.2523,-128.3185 727.7618,-129.8019 736.8877,-135.1842 738.2523,-128.3185"/>
</g>
<!-- Node19&#45;&gt;Node5 -->
<g id="edge30" class="edge">
<title>Node19&#45;&gt;Node5</title>
<path fill="none" stroke="#191970" d="M1107.2393,-168.2455C1095.3448,-159.814 1077.935,-147.4729 1064.0915,-137.6598"/>
<polygon fill="#191970" stroke="#191970" points="1065.7854,-134.5704 1055.6031,-131.6427 1061.7372,-140.2811 1065.7854,-134.5704"/>
</g>
<!-- Node19&#45;&gt;Node6 -->
<g id="edge31" class="edge">
<title>Node19&#45;&gt;Node6</title>
<path fill="none" stroke="#191970" d="M1140.5973,-168.3733C1158.7331,-159.4644 1185.9135,-146.1127 1206.4587,-136.0203"/>
<polygon fill="#191970" stroke="#191970" points="1208.2261,-139.0517 1215.6584,-131.5011 1205.1397,-132.7688 1208.2261,-139.0517"/>
</g>
<!-- Node20 -->
<g id="node21" class="node">
<title>Node20</title>
<polygon fill="none" stroke="#bfbfbf" points="1086.5,-112.5 1086.5,-131.5 1127.5,-131.5 1127.5,-112.5 1086.5,-112.5"/>
<text text-anchor="middle" x="1107" y="-119.5" font-family="Helvetica,sans-Serif" font-size="10.00" fill="#000000">bitset</text>
</g>
<!-- Node19&#45;&gt;Node20 -->
<g id="edge28" class="edge">
<title>Node19&#45;&gt;Node20</title>
<path fill="none" stroke="#191970" d="M1118.5614,-168.2455C1116.7145,-160.8579 1114.1172,-150.4689 1111.8522,-141.4087"/>
<polygon fill="#191970" stroke="#191970" points="1115.2316,-140.4952 1109.4107,-131.6427 1108.4406,-142.193 1115.2316,-140.4952"/>
</g>
<!-- Node21 -->
<g id="node22" class="node">
<title>Node21</title>
<polygon fill="none" stroke="#bfbfbf" points="1447,-112.5 1447,-131.5 1509,-131.5 1509,-112.5 1447,-112.5"/>
<text text-anchor="middle" x="1478" y="-119.5" font-family="Helvetica,sans-Serif" font-size="10.00" fill="#000000">type_traits</text>
</g>
<!-- Node19&#45;&gt;Node21 -->
<g id="edge32" class="edge">
<title>Node19&#45;&gt;Node21</title>
<path fill="none" stroke="#191970" d="M1162.6831,-171.2463C1169.4727,-170.155 1176.4313,-169.0419 1183,-168 1273.6058,-153.629 1379.9295,-137.1426 1436.9323,-128.3344"/>
<polygon fill="#191970" stroke="#191970" points="1437.6386,-131.7669 1446.9871,-126.7813 1436.57,-124.849 1437.6386,-131.7669"/>
</g>
<!-- Node22&#45;&gt;Node1 -->
<g id="edge38" class="edge">
<title>Node22&#45;&gt;Node1</title>
<path fill="none" stroke="#191970" d="M402.7519,-170.482C407.5447,-169.6131 412.3811,-168.7653 417,-168 525.4545,-150.0309 556.688,-155.675 668.26,-131.8915"/>
<polygon fill="#191970" stroke="#191970" points="669.1905,-135.2712 678.2242,-129.7356 667.7101,-128.4295 669.1905,-135.2712"/>
</g>
<!-- Node22&#45;&gt;Node2 -->
<g id="edge41" class="edge">
<title>Node22&#45;&gt;Node2</title>
<path fill="none" stroke="#191970" d="M325.0838,-173.69C266.6893,-166.8764 153.0989,-152.2774 58,-132 56.751,-131.7337 55.4812,-131.4492 54.2012,-131.1509"/>
<polygon fill="#191970" stroke="#191970" points="54.9169,-127.7218 44.3642,-128.6663 53.2026,-134.5087 54.9169,-127.7218"/>
</g>
<!-- Node22&#45;&gt;Node16 -->
<g id="edge35" class="edge">
<title>Node22&#45;&gt;Node16</title>
<path fill="none" stroke="#191970" d="M325.2578,-174.231C253.5364,-166.8611 105.9742,-149.7084 91,-132 85.2605,-125.2125 85.7329,-119.1603 91,-112 125.7777,-64.7216 301.3302,-29.7107 379.8942,-16.1572"/>
<polygon fill="#191970" stroke="#191970" points="380.596,-19.5882 389.8683,-14.4622 379.4232,-12.6871 380.596,-19.5882"/>
</g>
<!-- Node22&#45;&gt;Node18 -->
<g id="edge40" class="edge">
<title>Node22&#45;&gt;Node18</title>
<path fill="none" stroke="#191970" d="M357.7696,-168.3423C349.6271,-154.3735 337.8633,-128.4111 351,-112 371.3011,-86.6387 462.5996,-74.2999 516.2668,-69.1398"/>
<polygon fill="#191970" stroke="#191970" points="516.829,-72.6029 526.4664,-68.2017 516.1878,-65.6324 516.829,-72.6029"/>
</g>
<!-- Node23 -->
<g id="node24" class="node">
<title>Node23</title>
<polygon fill="none" stroke="#bfbfbf" points="360.5,-112.5 360.5,-131.5 405.5,-131.5 405.5,-112.5 360.5,-112.5"/>
<text text-anchor="middle" x="383" y="-119.5" font-family="Helvetica,sans-Serif" font-size="10.00" fill="#000000">cstdlib</text>
</g>
<!-- Node22&#45;&gt;Node23 -->
<g id="edge34" class="edge">
<title>Node22&#45;&gt;Node23</title>
<path fill="none" stroke="#191970" d="M367.3095,-168.2455C369.8433,-160.7776 373.4177,-150.2427 376.515,-141.1137"/>
<polygon fill="#191970" stroke="#191970" points="379.8298,-142.237 379.7284,-131.6427 373.2009,-139.9879 379.8298,-142.237"/>
</g>
<!-- Node24 -->
<g id="node25" class="node">
<title>Node24</title>
<polygon fill="none" stroke="#bfbfbf" points="424,-112.5 424,-131.5 470,-131.5 470,-112.5 424,-112.5"/>
<text text-anchor="middle" x="447" y="-119.5" font-family="Helvetica,sans-Serif" font-size="10.00" fill="#000000">cstdint</text>
</g>
<!-- Node22&#45;&gt;Node24 -->
<g id="edge36" class="edge">
<title>Node22&#45;&gt;Node24</title>
<path fill="none" stroke="#191970" d="M378.4575,-168.2455C391.0732,-159.7337 409.5944,-147.2375 424.2045,-137.3801"/>
<polygon fill="#191970" stroke="#191970" points="426.3761,-140.1371 432.7082,-131.6427 422.4609,-134.3343 426.3761,-140.1371"/>
</g>
<!-- Node25 -->
<g id="node26" class="node">
<title>Node25</title>
<polygon fill="none" stroke="#bfbfbf" points="488,-112.5 488,-131.5 534,-131.5 534,-112.5 488,-112.5"/>
<text text-anchor="middle" x="511" y="-119.5" font-family="Helvetica,sans-Serif" font-size="10.00" fill="#000000">cstring</text>
</g>
<!-- Node22&#45;&gt;Node25 -->
<g id="edge37" class="edge">
<title>Node22&#45;&gt;Node25</title>
<path fill="none" stroke="#191970" d="M389.2702,-168.3733C413.9815,-158.9594 451.7151,-144.5847 478.6157,-134.3369"/>
<polygon fill="#191970" stroke="#191970" points="479.8932,-137.5956 487.9921,-130.7649 477.4012,-131.0542 479.8932,-137.5956"/>
</g>
<!-- Node26 -->
<g id="node27" class="node">
<title>Node26</title>
<polygon fill="none" stroke="#bfbfbf" points="552,-112.5 552,-131.5 592,-131.5 592,-112.5 552,-112.5"/>
<text text-anchor="middle" x="572" y="-119.5" font-family="Helvetica,sans-Serif" font-size="10.00" fill="#000000">limits</text>
</g>
<!-- Node22&#45;&gt;Node26 -->
<g id="edge39" class="edge">
<title>Node22&#45;&gt;Node26</title>
<path fill="none" stroke="#191970" d="M402.6568,-169.018C437.0156,-160.8232 488.7825,-147.9608 542.1578,-132.0931"/>
<polygon fill="#191970" stroke="#191970" points="543.2146,-135.4303 551.786,-129.2028 541.2019,-128.7259 543.2146,-135.4303"/>
</g>
<!-- Node27 -->
<g id="node28" class="node">
<title>Node27</title>
<polygon fill="none" stroke="#bfbfbf" points="610,-112.5 610,-131.5 660,-131.5 660,-112.5 610,-112.5"/>
<text text-anchor="middle" x="635" y="-119.5" font-family="Helvetica,sans-Serif" font-size="10.00" fill="#000000">fstream</text>
</g>
<!-- Node22&#45;&gt;Node27 -->
<g id="edge42" class="edge">
<title>Node22&#45;&gt;Node27</title>
<path fill="none" stroke="#191970" d="M402.7206,-170.6922C459.0764,-160.0277 560.5379,-140.7128 599.7639,-132.0264"/>
<polygon fill="#191970" stroke="#191970" points="600.8704,-135.3627 609.8206,-129.6932 599.2883,-128.5438 600.8704,-135.3627"/>
</g>
<!-- Node28 -->
<g id="node29" class="node">
<title>Node28</title>
<polygon fill="none" stroke="#bfbfbf" points="100.5,-112.5 100.5,-131.5 147.5,-131.5 147.5,-112.5 100.5,-112.5"/>
<text text-anchor="middle" x="124" y="-119.5" font-family="Helvetica,sans-Serif" font-size="10.00" fill="#000000">iterator</text>
</g>
<!-- Node22&#45;&gt;Node28 -->
<g id="edge43" class="edge">
<title>Node22&#45;&gt;Node28</title>
<path fill="none" stroke="#191970" d="M325.2579,-170.3029C285.5491,-162.212 221.8281,-148.672 157.6209,-132.0152"/>
<polygon fill="#191970" stroke="#191970" points="158.2926,-128.5731 147.7321,-129.4256 156.5193,-135.3448 158.2926,-128.5731"/>
</g>
<!-- Node29 -->
<g id="node30" class="node">
<title>Node29</title>
<polygon fill="none" stroke="#bfbfbf" points="166,-112.5 166,-131.5 212,-131.5 212,-112.5 166,-112.5"/>
<text text-anchor="middle" x="189" y="-119.5" font-family="Helvetica,sans-Serif" font-size="10.00" fill="#000000">chrono</text>
</g>
<!-- Node22&#45;&gt;Node29 -->
<g id="edge44" class="edge">
<title>Node22&#45;&gt;Node29</title>
<path fill="none" stroke="#191970" d="M333.9164,-168.3733C302.7002,-158.3841 254.0284,-142.8091 221.8319,-132.5062"/>
<polygon fill="#191970" stroke="#191970" points="222.5914,-129.0745 212.0004,-129.3601 220.458,-135.7415 222.5914,-129.0745"/>
</g>
<!-- Node30 -->
<g id="node31" class="node">
<title>Node30</title>
<polygon fill="none" stroke="#bfbfbf" points="230.5,-112.5 230.5,-131.5 265.5,-131.5 265.5,-112.5 230.5,-112.5"/>
<text text-anchor="middle" x="248" y="-119.5" font-family="Helvetica,sans-Serif" font-size="10.00" fill="#000000">dc.h</text>
</g>
<!-- Node22&#45;&gt;Node30 -->
<g id="edge45" class="edge">
<title>Node22&#45;&gt;Node30</title>
<path fill="none" stroke="#191970" d="M344.0589,-168.3733C324.9596,-159.1529 296.0023,-145.1735 274.8746,-134.9739"/>
<polygon fill="#191970" stroke="#191970" points="276.3089,-131.7799 265.7817,-130.5843 273.2656,-138.0838 276.3089,-131.7799"/>
</g>
<!-- Node31&#45;&gt;Node9 -->
<g id="edge50" class="edge">
<title>Node31&#45;&gt;Node9</title>
<path fill="none" stroke="#191970" d="M840.292,-280.3444C859.6845,-272.4294 886.0535,-259.9447 906,-244 923.0753,-230.3505 938.4177,-210.4899 948.3457,-196.1239"/>
<polygon fill="#191970" stroke="#191970" points="951.3988,-197.8547 954.0517,-187.5974 945.5813,-193.9616 951.3988,-197.8547"/>
</g>
<!-- Node32 -->
<g id="node33" class="node">
<title>Node32</title>
<g id="a_node33"><a xlink:href="domain_8hh.html" target="_top" xlink:title="domain.hh">
<polygon fill="none" stroke="#000000" points="815,-168.5 815,-187.5 877,-187.5 877,-168.5 815,-168.5"/>
<text text-anchor="middle" x="846" y="-175.5" font-family="Helvetica,sans-Serif" font-size="10.00" fill="#000000">domain.hh</text>
</a>
</g>
</g>
<!-- Node31&#45;&gt;Node32 -->
<g id="edge51" class="edge">
<title>Node31&#45;&gt;Node32</title>
<path fill="none" stroke="#191970" d="M796.1461,-280.4008C775.7874,-268.1282 746.9119,-245.8434 760,-224 769.894,-207.4875 787.961,-196.5691 804.9906,-189.5328"/>
<polygon fill="#191970" stroke="#191970" points="806.7046,-192.6272 814.8279,-185.8256 804.2361,-186.0769 806.7046,-192.6272"/>
</g>
<!-- Node31&#45;&gt;Node34 -->
<g id="edge58" class="edge">
<title>Node31&#45;&gt;Node34</title>
<path fill="none" stroke="#191970" d="M787.6984,-280.3733C762.5872,-271.1822 724.5562,-257.2624 696.7128,-247.0713"/>
<polygon fill="#191970" stroke="#191970" points="697.5522,-243.6516 686.9584,-243.5011 695.1462,-250.2251 697.5522,-243.6516"/>
</g>
<!-- Node32&#45;&gt;Node1 -->
<g id="edge54" class="edge">
<title>Node32&#45;&gt;Node1</title>
<path fill="none" stroke="#191970" d="M821.4174,-168.3733C798.0504,-159.2226 762.7138,-145.3844 736.7216,-135.2057"/>
<polygon fill="#191970" stroke="#191970" points="737.8495,-131.8886 727.2618,-131.5011 735.297,-138.4066 737.8495,-131.8886"/>
</g>
<!-- Node32&#45;&gt;Node5 -->
<g id="edge55" class="edge">
<title>Node32&#45;&gt;Node5</title>
<path fill="none" stroke="#191970" d="M877.0568,-169.1266C912.0834,-159.119 968.9647,-142.8672 1005.9298,-132.3058"/>
<polygon fill="#191970" stroke="#191970" points="1007.1392,-135.6003 1015.7929,-129.4877 1005.2162,-128.8697 1007.1392,-135.6003"/>
</g>
<!-- Node32&#45;&gt;Node10 -->
<g id="edge56" class="edge">
<title>Node32&#45;&gt;Node10</title>
<path fill="none" stroke="#191970" d="M850.3038,-168.4862C862.4217,-141.6994 897.003,-65.2565 913.3012,-29.2289"/>
<polygon fill="#191970" stroke="#191970" points="916.6212,-30.3816 917.5541,-19.8279 910.2434,-27.4964 916.6212,-30.3816"/>
</g>
<!-- Node32&#45;&gt;Node14 -->
<g id="edge52" class="edge">
<title>Node32&#45;&gt;Node14</title>
<path fill="none" stroke="#191970" d="M847.3734,-168.4513C850.013,-147.3936 854.3437,-95.6878 840,-56 836.2313,-45.5722 829.3757,-35.4021 822.8858,-27.2875"/>
<polygon fill="#191970" stroke="#191970" points="825.5409,-25.0069 816.3996,-19.6506 820.2055,-29.5383 825.5409,-25.0069"/>
</g>
<!-- Node32&#45;&gt;Node17 -->
<g id="edge57" class="edge">
<title>Node32&#45;&gt;Node17</title>
<path fill="none" stroke="#191970" d="M834.8521,-168.2455C825.4913,-160.0549 811.9142,-148.1749 800.8651,-138.5069"/>
<polygon fill="#191970" stroke="#191970" points="802.8508,-135.5937 793.0202,-131.6427 798.2412,-140.8618 802.8508,-135.5937"/>
</g>
<!-- Node33 -->
<g id="node34" class="node">
<title>Node33</title>
<polygon fill="none" stroke="#bfbfbf" points="1146,-112.5 1146,-131.5 1196,-131.5 1196,-112.5 1146,-112.5"/>
<text text-anchor="middle" x="1171" y="-119.5" font-family="Helvetica,sans-Serif" font-size="10.00" fill="#000000">iomanip</text>
</g>
<!-- Node32&#45;&gt;Node33 -->
<g id="edge53" class="edge">
<title>Node32&#45;&gt;Node33</title>
<path fill="none" stroke="#191970" d="M877.4135,-173.5593C938.6135,-164.8263 1072.6945,-145.2746 1135.9609,-131.9561"/>
<polygon fill="#191970" stroke="#191970" points="1136.8237,-135.3502 1145.8439,-129.7926 1135.3267,-128.5121 1136.8237,-135.3502"/>
</g>
<!-- Node34&#45;&gt;Node9 -->
<g id="edge60" class="edge">
<title>Node34&#45;&gt;Node9</title>
<path fill="none" stroke="#191970" d="M712.0602,-224.4369C771.9493,-213.2202 869.7787,-194.8976 922.8796,-184.9523"/>
<polygon fill="#191970" stroke="#191970" points="923.6941,-188.3607 932.8789,-183.0795 922.4055,-181.4803 923.6941,-188.3607"/>
</g>
<!-- Node34&#45;&gt;Node13 -->
<g id="edge59" class="edge">
<title>Node34&#45;&gt;Node13</title>
<path fill="none" stroke="#191970" d="M668.3158,-224.2455C674.2179,-216.3761 682.6742,-205.101 689.7594,-195.6542"/>
<polygon fill="#191970" stroke="#191970" points="692.568,-197.7427 695.768,-187.6427 686.9679,-193.5427 692.568,-197.7427"/>
</g>
<!-- Node35&#45;&gt;Node5 -->
<g id="edge63" class="edge">
<title>Node35&#45;&gt;Node5</title>
<path fill="none" stroke="#191970" d="M1191.3427,-170.9076C1162.7959,-161.5589 1112.1886,-144.9857 1077.881,-133.7505"/>
<polygon fill="#191970" stroke="#191970" points="1078.8273,-130.3775 1068.2346,-130.5914 1076.6487,-137.0299 1078.8273,-130.3775"/>
</g>
<!-- Node35&#45;&gt;Node33 -->
<g id="edge65" class="edge">
<title>Node35&#45;&gt;Node33</title>
<path fill="none" stroke="#191970" d="M1205.6842,-168.2455C1199.7821,-160.3761 1191.3258,-149.101 1184.2406,-139.6542"/>
<polygon fill="#191970" stroke="#191970" points="1187.0321,-137.5427 1178.232,-131.6427 1181.432,-141.7427 1187.0321,-137.5427"/>
</g>
<!-- Node36 -->
<g id="node37" class="node">
<title>Node36</title>
<polygon fill="none" stroke="#bfbfbf" points="1273.5,-112.5 1273.5,-131.5 1302.5,-131.5 1302.5,-112.5 1273.5,-112.5"/>
<text text-anchor="middle" x="1288" y="-119.5" font-family="Helvetica,sans-Serif" font-size="10.00" fill="#000000">ios</text>
</g>
<!-- Node35&#45;&gt;Node36 -->
<g id="edge64" class="edge">
<title>Node35&#45;&gt;Node36</title>
<path fill="none" stroke="#191970" d="M1226.064,-168.2455C1237.3562,-159.814 1253.8845,-147.4729 1267.0271,-137.6598"/>
<polygon fill="#191970" stroke="#191970" points="1269.1669,-140.4301 1275.0857,-131.6427 1264.9789,-134.8211 1269.1669,-140.4301"/>
</g>
<!-- Node37 -->
<g id="node38" class="node">
<title>Node37</title>
<polygon fill="none" stroke="#bfbfbf" points="1321,-112.5 1321,-131.5 1365,-131.5 1365,-112.5 1321,-112.5"/>
<text text-anchor="middle" x="1343" y="-119.5" font-family="Helvetica,sans-Serif" font-size="10.00" fill="#000000">mutex</text>
</g>
<!-- Node35&#45;&gt;Node37 -->
<g id="edge66" class="edge">
<title>Node35&#45;&gt;Node37</title>
<path fill="none" stroke="#191970" d="M1234.7591,-168.6269C1255.7234,-159.5961 1287.6706,-145.8342 1311.43,-135.5994"/>
<polygon fill="#191970" stroke="#191970" points="1312.9348,-138.7622 1320.7342,-131.5914 1310.1653,-132.3333 1312.9348,-138.7622"/>
</g>
<!-- Node38&#45;&gt;Node21 -->
<g id="edge70" class="edge">
<title>Node38&#45;&gt;Node21</title>
<path fill="none" stroke="#191970" d="M1477.601,-336.397C1493.5873,-329.0839 1512.5998,-317.291 1522,-300 1551.0462,-246.5718 1512.2383,-173.7595 1490.6727,-140.247"/>
<polygon fill="#191970" stroke="#191970" points="1493.5669,-138.2785 1485.118,-131.8857 1487.7362,-142.152 1493.5669,-138.2785"/>
</g>
<!-- Node39 -->
<g id="node40" class="node">
<title>Node39</title>
<polygon fill="none" stroke="#bfbfbf" points="1393,-280.5 1393,-299.5 1441,-299.5 1441,-280.5 1393,-280.5"/>
<text text-anchor="middle" x="1417" y="-287.5" font-family="Helvetica,sans-Serif" font-size="10.00" fill="#000000">GL/gl.h</text>
</g>
<!-- Node38&#45;&gt;Node39 -->
<g id="edge68" class="edge">
<title>Node38&#45;&gt;Node39</title>
<path fill="none" stroke="#191970" d="M1445.0777,-336.2455C1440.3973,-328.5367 1433.7327,-317.5598 1428.0711,-308.2348"/>
<polygon fill="#191970" stroke="#191970" points="1431.0361,-306.3741 1422.8545,-299.6427 1425.0525,-310.007 1431.0361,-306.3741"/>
</g>
<!-- Node40 -->
<g id="node41" class="node">
<title>Node40</title>
<polygon fill="none" stroke="#bfbfbf" points="1459.5,-280.5 1459.5,-299.5 1512.5,-299.5 1512.5,-280.5 1459.5,-280.5"/>
<text text-anchor="middle" x="1486" y="-287.5" font-family="Helvetica,sans-Serif" font-size="10.00" fill="#000000">GL/glx.h</text>
</g>
<!-- Node38&#45;&gt;Node40 -->
<g id="edge69" class="edge">
<title>Node38&#45;&gt;Node40</title>
<path fill="none" stroke="#191970" d="M1457.0965,-336.2455C1461.9145,-328.5367 1468.7751,-317.5598 1474.6032,-308.2348"/>
<polygon fill="#191970" stroke="#191970" points="1477.6413,-309.9777 1479.9733,-299.6427 1471.7053,-306.2677 1477.6413,-309.9777"/>
</g>
</g>
</svg>
