<?xml version="1.0" encoding="UTF-8" standalone="no"?>
<!DOCTYPE svg PUBLIC "-//W3C//DTD SVG 1.1//EN"
 "http://www.w3.org/Graphics/SVG/1.1/DTD/svg11.dtd">
<!-- Generated by graphviz version 2.36.0 (20140111.2315)
 -->
<!-- Title: /home/travis/build/igankevich/arma/src/arma.hh Pages: 1 -->
<svg width="1875pt" height="298pt"
 viewBox="0.00 0.00 1875.00 298.00" xmlns="http://www.w3.org/2000/svg" xmlns:xlink="http://www.w3.org/1999/xlink">
<g id="graph0" class="graph" transform="scale(1 1) rotate(0) translate(4 294)">
<title>/home/travis/build/igankevich/arma/src/arma.hh</title>
<!-- Node1 -->
<g id="node1" class="node"><title>Node1</title>
<polygon fill="#bfbfbf" stroke="black" points="1034.5,-248.5 1034.5,-289.5 1141.5,-289.5 1141.5,-248.5 1034.5,-248.5"/>
<text text-anchor="start" x="1042.5" y="-277.5" font-family="Helvetica,sans-Serif" font-size="10.00">/home/travis/build</text>
<text text-anchor="start" x="1042.5" y="-266.5" font-family="Helvetica,sans-Serif" font-size="10.00">/igankevich/arma/src</text>
<text text-anchor="middle" x="1088" y="-255.5" font-family="Helvetica,sans-Serif" font-size="10.00">/arma.hh</text>
</g>
<!-- Node2 -->
<g id="node2" class="node"><title>Node2</title>
<polygon fill="none" stroke="#bfbfbf" points="720,-136.5 720,-155.5 776,-155.5 776,-136.5 720,-136.5"/>
<text text-anchor="middle" x="748" y="-143.5" font-family="Helvetica,sans-Serif" font-size="10.00">algorithm</text>
</g>
<!-- Node1&#45;&gt;Node2 -->
<g id="edge1" class="edge"><title>Node1&#45;&gt;Node2</title>
<path fill="none" stroke="midnightblue" d="M1034.46,-264.866C954.994,-259.183 811.008,-244.606 772,-212 758.32,-200.565 752.436,-180.582 749.906,-165.783"/>
<polygon fill="midnightblue" stroke="midnightblue" points="753.352,-165.148 748.551,-155.703 746.414,-166.08 753.352,-165.148"/>
</g>
<!-- Node3 -->
<g id="node3" class="node"><title>Node3</title>
<polygon fill="none" stroke="#bfbfbf" points="1156.5,-192.5 1156.5,-211.5 1205.5,-211.5 1205.5,-192.5 1156.5,-192.5"/>
<text text-anchor="middle" x="1181" y="-199.5" font-family="Helvetica,sans-Serif" font-size="10.00">cassert</text>
</g>
<!-- Node1&#45;&gt;Node3 -->
<g id="edge2" class="edge"><title>Node1&#45;&gt;Node3</title>
<path fill="none" stroke="midnightblue" d="M1115.9,-248.498C1130.16,-238.532 1147.21,-226.614 1160.29,-217.476"/>
<polygon fill="midnightblue" stroke="midnightblue" points="1162.43,-220.25 1168.62,-211.652 1158.42,-214.512 1162.43,-220.25"/>
</g>
<!-- Node4 -->
<g id="node4" class="node"><title>Node4</title>
<polygon fill="none" stroke="#bfbfbf" points="1224,-192.5 1224,-211.5 1270,-211.5 1270,-192.5 1224,-192.5"/>
<text text-anchor="middle" x="1247" y="-199.5" font-family="Helvetica,sans-Serif" font-size="10.00">chrono</text>
</g>
<!-- Node1&#45;&gt;Node4 -->
<g id="edge3" class="edge"><title>Node1&#45;&gt;Node4</title>
<path fill="none" stroke="midnightblue" d="M1135.71,-248.498C1161.84,-237.813 1193.47,-224.885 1216.31,-215.545"/>
<polygon fill="midnightblue" stroke="midnightblue" points="1217.9,-218.676 1225.83,-211.652 1215.25,-212.197 1217.9,-218.676"/>
</g>
<!-- Node5 -->
<g id="node5" class="node"><title>Node5</title>
<polygon fill="none" stroke="#bfbfbf" points="976,-6.5 976,-25.5 1020,-25.5 1020,-6.5 976,-6.5"/>
<text text-anchor="middle" x="998" y="-13.5" font-family="Helvetica,sans-Serif" font-size="10.00">cmath</text>
</g>
<!-- Node1&#45;&gt;Node5 -->
<g id="edge4" class="edge"><title>Node1&#45;&gt;Node5</title>
<path fill="none" stroke="midnightblue" d="M1038.39,-248.255C1022.21,-239.467 1005.68,-227.526 995,-212 958.369,-158.772 961.415,-131.17 975,-68 977.516,-56.3009 982.937,-44.0502 987.885,-34.4885"/>
<polygon fill="midnightblue" stroke="midnightblue" points="991,-36.0865 992.728,-25.6334 984.859,-32.7277 991,-36.0865"/>
</g>
<!-- Node6 -->
<g id="node6" class="node"><title>Node6</title>
<polygon fill="none" stroke="#bfbfbf" points="1288.5,-192.5 1288.5,-211.5 1347.5,-211.5 1347.5,-192.5 1288.5,-192.5"/>
<text text-anchor="middle" x="1318" y="-199.5" font-family="Helvetica,sans-Serif" font-size="10.00">functional</text>
</g>
<!-- Node1&#45;&gt;Node6 -->
<g id="edge5" class="edge"><title>Node1&#45;&gt;Node6</title>
<path fill="none" stroke="midnightblue" d="M1141.63,-252.842C1183.55,-240.996 1240.85,-224.803 1278.61,-214.131"/>
<polygon fill="midnightblue" stroke="midnightblue" points="1279.57,-217.497 1288.24,-211.409 1277.67,-210.761 1279.57,-217.497"/>
</g>
<!-- Node7 -->
<g id="node7" class="node"><title>Node7</title>
<polygon fill="none" stroke="#bfbfbf" points="1365.5,-192.5 1365.5,-211.5 1414.5,-211.5 1414.5,-192.5 1365.5,-192.5"/>
<text text-anchor="middle" x="1390" y="-199.5" font-family="Helvetica,sans-Serif" font-size="10.00">random</text>
</g>
<!-- Node1&#45;&gt;Node7 -->
<g id="edge6" class="edge"><title>Node1&#45;&gt;Node7</title>
<path fill="none" stroke="midnightblue" d="M1141.57,-257.67C1193.69,-247.427 1275.31,-230.871 1355.4,-212.045"/>
<polygon fill="midnightblue" stroke="midnightblue" points="1356.23,-215.445 1365.16,-209.738 1354.62,-208.633 1356.23,-215.445"/>
</g>
<!-- Node8 -->
<g id="node8" class="node"><title>Node8</title>
<polygon fill="none" stroke="#bfbfbf" points="1432.5,-192.5 1432.5,-211.5 1491.5,-211.5 1491.5,-192.5 1432.5,-192.5"/>
<text text-anchor="middle" x="1462" y="-199.5" font-family="Helvetica,sans-Serif" font-size="10.00">stdexcept</text>
</g>
<!-- Node1&#45;&gt;Node8 -->
<g id="edge7" class="edge"><title>Node1&#45;&gt;Node8</title>
<path fill="none" stroke="midnightblue" d="M1141.56,-260.08C1205.85,-250.345 1317.11,-232.764 1422.39,-212.019"/>
<polygon fill="midnightblue" stroke="midnightblue" points="1423.1,-215.446 1432.23,-210.067 1421.74,-208.58 1423.1,-215.446"/>
</g>
<!-- Node9 -->
<g id="node9" class="node"><title>Node9</title>
<polygon fill="none" stroke="#bfbfbf" points="1214,-6.5 1214,-25.5 1266,-25.5 1266,-6.5 1214,-6.5"/>
<text text-anchor="middle" x="1240" y="-13.5" font-family="Helvetica,sans-Serif" font-size="10.00">ostream</text>
</g>
<!-- Node1&#45;&gt;Node9 -->
<g id="edge8" class="edge"><title>Node1&#45;&gt;Node9</title>
<path fill="none" stroke="midnightblue" d="M1056.68,-248.419C1038.44,-234.296 1020.42,-213.925 1028,-192 1038.35,-162.086 1049.07,-157.819 1072,-136 1118.39,-91.859 1182.13,-51.2188 1216.22,-30.798"/>
<polygon fill="midnightblue" stroke="midnightblue" points="1218.19,-33.6984 1225,-25.5883 1214.62,-27.6768 1218.19,-33.6984"/>
</g>
<!-- Node10 -->
<g id="node10" class="node"><title>Node10</title>
<polygon fill="none" stroke="#bfbfbf" points="1510,-192.5 1510,-211.5 1560,-211.5 1560,-192.5 1510,-192.5"/>
<text text-anchor="middle" x="1535" y="-199.5" font-family="Helvetica,sans-Serif" font-size="10.00">fstream</text>
</g>
<!-- Node1&#45;&gt;Node10 -->
<g id="edge9" class="edge"><title>Node1&#45;&gt;Node10</title>
<path fill="none" stroke="midnightblue" d="M1141.66,-262.727C1220.6,-254.513 1372.49,-236.972 1500,-212 1500.1,-211.98 1500.2,-211.961 1500.3,-211.941"/>
<polygon fill="midnightblue" stroke="midnightblue" points="1500.83,-215.408 1509.84,-209.842 1499.33,-208.571 1500.83,-215.408"/>
</g>
<!-- Node11 -->
<g id="node11" class="node"><title>Node11</title>
<polygon fill="none" stroke="#bfbfbf" points="316,-6.5 316,-25.5 378,-25.5 378,-6.5 316,-6.5"/>
<text text-anchor="middle" x="347" y="-13.5" font-family="Helvetica,sans-Serif" font-size="10.00">type_traits</text>
</g>
<!-- Node1&#45;&gt;Node11 -->
<g id="edge10" class="edge"><title>Node1&#45;&gt;Node11</title>
<path fill="none" stroke="midnightblue" d="M1034.46,-265.299C929.519,-259.383 700.764,-243.246 629,-212 606.226,-202.084 478.975,-81.3056 458,-68 433.196,-52.2658 402.74,-38.6285 380.009,-29.4248"/>
<polygon fill="midnightblue" stroke="midnightblue" points="381.054,-26.074 370.468,-25.6377 378.471,-32.5802 381.054,-26.074"/>
</g>
<!-- Node12 -->
<g id="node12" class="node"><title>Node12</title>
<polygon fill="none" stroke="#bfbfbf" points="1578.5,-192.5 1578.5,-211.5 1673.5,-211.5 1673.5,-192.5 1578.5,-192.5"/>
<text text-anchor="middle" x="1626" y="-199.5" font-family="Helvetica,sans-Serif" font-size="10.00">gsl/gsl_complex.h</text>
</g>
<!-- Node1&#45;&gt;Node12 -->
<g id="edge11" class="edge"><title>Node1&#45;&gt;Node12</title>
<path fill="none" stroke="midnightblue" d="M1141.83,-262.455C1229.03,-253.315 1406.8,-234.024 1568.31,-212.043"/>
<polygon fill="midnightblue" stroke="midnightblue" points="1569,-215.481 1578.44,-210.658 1568.05,-208.546 1569,-215.481"/>
</g>
<!-- Node13 -->
<g id="node13" class="node"><title>Node13</title>
<polygon fill="none" stroke="#bfbfbf" points="1692,-192.5 1692,-211.5 1772,-211.5 1772,-192.5 1692,-192.5"/>
<text text-anchor="middle" x="1732" y="-199.5" font-family="Helvetica,sans-Serif" font-size="10.00">gsl/gsl_errno.h</text>
</g>
<!-- Node1&#45;&gt;Node13 -->
<g id="edge12" class="edge"><title>Node1&#45;&gt;Node13</title>
<path fill="none" stroke="midnightblue" d="M1141.82,-264.449C1246.29,-257.221 1483.68,-239.149 1682,-212 1682.1,-211.986 1682.2,-211.972 1682.3,-211.958"/>
<polygon fill="midnightblue" stroke="midnightblue" points="1682.56,-215.459 1691.93,-210.519 1681.52,-208.536 1682.56,-215.459"/>
</g>
<!-- Node14 -->
<g id="node14" class="node"><title>Node14</title>
<polygon fill="none" stroke="#bfbfbf" points="1790.5,-192.5 1790.5,-211.5 1867.5,-211.5 1867.5,-192.5 1790.5,-192.5"/>
<text text-anchor="middle" x="1829" y="-199.5" font-family="Helvetica,sans-Serif" font-size="10.00">gsl/gsl_poly.h</text>
</g>
<!-- Node1&#45;&gt;Node14 -->
<g id="edge13" class="edge"><title>Node1&#45;&gt;Node14</title>
<path fill="none" stroke="midnightblue" d="M1141.68,-265.581C1256.79,-259.978 1536.04,-244.171 1780.15,-211.968"/>
<polygon fill="midnightblue" stroke="midnightblue" points="1780.83,-215.408 1790.28,-210.619 1779.91,-208.47 1780.83,-215.408"/>
</g>
<!-- Node15 -->
<g id="node15" class="node"><title>Node15</title>
<g id="a_node15"><a xlink:href="types_8hh.html" target="_top" xlink:title="types.hh">
<polygon fill="none" stroke="black" points="506,-74.5 506,-93.5 560,-93.5 560,-74.5 506,-74.5"/>
<text text-anchor="middle" x="533" y="-81.5" font-family="Helvetica,sans-Serif" font-size="10.00">types.hh</text>
</a>
</g>
</g>
<!-- Node1&#45;&gt;Node15 -->
<g id="edge14" class="edge"><title>Node1&#45;&gt;Node15</title>
<path fill="none" stroke="midnightblue" d="M1034.28,-265.187C934.882,-259.29 726.52,-243.497 662,-212 609.222,-186.235 564.758,-130.411 544.593,-102.143"/>
<polygon fill="midnightblue" stroke="midnightblue" points="547.297,-99.9008 538.709,-93.6956 541.553,-103.902 547.297,-99.9008"/>
</g>
<!-- Node17 -->
<g id="node17" class="node"><title>Node17</title>
<g id="a_node17"><a xlink:href="statistics_8hh.html" target="_top" xlink:title="stats/statistics.hh">
<polygon fill="none" stroke="black" points="832.5,-136.5 832.5,-155.5 927.5,-155.5 927.5,-136.5 832.5,-136.5"/>
<text text-anchor="middle" x="880" y="-143.5" font-family="Helvetica,sans-Serif" font-size="10.00">stats/statistics.hh</text>
</a>
</g>
</g>
<!-- Node1&#45;&gt;Node17 -->
<g id="edge16" class="edge"><title>Node1&#45;&gt;Node17</title>
<path fill="none" stroke="midnightblue" d="M1034.27,-253.684C1005.43,-244.495 970.129,-230.738 942,-212 922.223,-198.826 904.024,-178.306 892.531,-163.853"/>
<polygon fill="midnightblue" stroke="midnightblue" points="895.166,-161.539 886.287,-155.758 889.623,-165.814 895.166,-161.539"/>
</g>
<!-- Node20 -->
<g id="node20" class="node"><title>Node20</title>
<g id="a_node20"><a xlink:href="distribution_8hh.html" target="_top" xlink:title="stats/distribution.hh">
<polygon fill="none" stroke="black" points="1037,-192.5 1037,-211.5 1139,-211.5 1139,-192.5 1037,-192.5"/>
<text text-anchor="middle" x="1088" y="-199.5" font-family="Helvetica,sans-Serif" font-size="10.00">stats/distribution.hh</text>
</a>
</g>
</g>
<!-- Node1&#45;&gt;Node20 -->
<g id="edge20" class="edge"><title>Node1&#45;&gt;Node20</title>
<path fill="none" stroke="midnightblue" d="M1088,-248.498C1088,-240.065 1088,-230.235 1088,-221.874"/>
<polygon fill="midnightblue" stroke="midnightblue" points="1091.5,-221.652 1088,-211.652 1084.5,-221.653 1091.5,-221.652"/>
</g>
<!-- Node29 -->
<g id="node29" class="node"><title>Node29</title>
<g id="a_node29"><a xlink:href="qq__graph_8hh.html" target="_top" xlink:title="stats/qq_graph.hh">
<polygon fill="none" stroke="black" points="781.5,-192.5 781.5,-211.5 876.5,-211.5 876.5,-192.5 781.5,-192.5"/>
<text text-anchor="middle" x="829" y="-199.5" font-family="Helvetica,sans-Serif" font-size="10.00">stats/qq_graph.hh</text>
</a>
</g>
</g>
<!-- Node1&#45;&gt;Node29 -->
<g id="edge40" class="edge"><title>Node1&#45;&gt;Node29</title>
<path fill="none" stroke="midnightblue" d="M1034.34,-254.532C986.636,-242.561 917.743,-225.271 873.165,-214.084"/>
<polygon fill="midnightblue" stroke="midnightblue" points="873.763,-210.625 863.212,-211.586 872.059,-217.415 873.763,-210.625"/>
</g>
<!-- Node30 -->
<g id="node30" class="node"><title>Node30</title>
<g id="a_node30"><a xlink:href="fourier_8hh.html" target="_top" xlink:title="fourier.hh">
<polygon fill="none" stroke="black" points="358.5,-192.5 358.5,-211.5 415.5,-211.5 415.5,-192.5 358.5,-192.5"/>
<text text-anchor="middle" x="387" y="-199.5" font-family="Helvetica,sans-Serif" font-size="10.00">fourier.hh</text>
</a>
</g>
</g>
<!-- Node1&#45;&gt;Node30 -->
<g id="edge44" class="edge"><title>Node1&#45;&gt;Node30</title>
<path fill="none" stroke="midnightblue" d="M1034.12,-263.655C925.953,-254.824 674.706,-233.765 464,-212 451.449,-210.704 437.764,-209.15 425.459,-207.701"/>
<polygon fill="midnightblue" stroke="midnightblue" points="425.846,-204.222 415.502,-206.516 425.019,-211.173 425.846,-204.222"/>
</g>
<!-- Node38 -->
<g id="node38" class="node"><title>Node38</title>
<g id="a_node38"><a xlink:href="blitz_8hh.html" target="_top" xlink:title="blitz.hh">
<polygon fill="none" stroke="black" points="671,-192.5 671,-211.5 719,-211.5 719,-192.5 671,-192.5"/>
<text text-anchor="middle" x="695" y="-199.5" font-family="Helvetica,sans-Serif" font-size="10.00">blitz.hh</text>
</a>
</g>
</g>
<!-- Node1&#45;&gt;Node38 -->
<g id="edge54" class="edge"><title>Node1&#45;&gt;Node38</title>
<path fill="none" stroke="midnightblue" d="M1034.46,-260.474C965.316,-250.528 841.339,-231.923 736,-212 733.789,-211.582 731.515,-211.134 729.226,-210.669"/>
<polygon fill="midnightblue" stroke="midnightblue" points="729.74,-207.2 719.234,-208.565 728.298,-214.05 729.74,-207.2"/>
</g>
<!-- Node16 -->
<g id="node16" class="node"><title>Node16</title>
<polygon fill="none" stroke="#bfbfbf" points="573,-6.5 573,-25.5 641,-25.5 641,-6.5 573,-6.5"/>
<text text-anchor="middle" x="607" y="-13.5" font-family="Helvetica,sans-Serif" font-size="10.00">blitz/array.h</text>
</g>
<!-- Node15&#45;&gt;Node16 -->
<g id="edge15" class="edge"><title>Node15&#45;&gt;Node16</title>
<path fill="none" stroke="midnightblue" d="M542.674,-74.3717C554.464,-63.8564 574.617,-45.8819 589.229,-32.8496"/>
<polygon fill="midnightblue" stroke="midnightblue" points="591.954,-35.1093 597.087,-25.8411 587.295,-29.8853 591.954,-35.1093"/>
</g>
<!-- Node17&#45;&gt;Node16 -->
<g id="edge17" class="edge"><title>Node17&#45;&gt;Node16</title>
<path fill="none" stroke="midnightblue" d="M833.896,-136.473C801.287,-129.374 757.12,-117.562 721,-100 683.292,-81.6658 645.015,-50.7148 623.807,-32.2342"/>
<polygon fill="midnightblue" stroke="midnightblue" points="626.113,-29.6006 616.305,-25.5925 621.472,-34.8418 626.113,-29.6006"/>
</g>
<!-- Node18 -->
<g id="node18" class="node"><title>Node18</title>
<polygon fill="none" stroke="#bfbfbf" points="838,-69 838,-99 928,-99 928,-69 838,-69"/>
<text text-anchor="start" x="846" y="-87" font-family="Helvetica,sans-Serif" font-size="10.00">gsl/gsl_statistics</text>
<text text-anchor="middle" x="883" y="-76" font-family="Helvetica,sans-Serif" font-size="10.00">_float.h</text>
</g>
<!-- Node17&#45;&gt;Node18 -->
<g id="edge18" class="edge"><title>Node17&#45;&gt;Node18</title>
<path fill="none" stroke="midnightblue" d="M880.43,-136.403C880.783,-129.341 881.301,-118.975 881.78,-109.399"/>
<polygon fill="midnightblue" stroke="midnightblue" points="885.289,-109.303 882.293,-99.1408 878.298,-108.954 885.289,-109.303"/>
</g>
<!-- Node19 -->
<g id="node19" class="node"><title>Node19</title>
<polygon fill="none" stroke="#bfbfbf" points="730,-69 730,-99 820,-99 820,-69 730,-69"/>
<text text-anchor="start" x="738" y="-87" font-family="Helvetica,sans-Serif" font-size="10.00">gsl/gsl_statistics</text>
<text text-anchor="middle" x="775" y="-76" font-family="Helvetica,sans-Serif" font-size="10.00">_double.h</text>
</g>
<!-- Node17&#45;&gt;Node19 -->
<g id="edge19" class="edge"><title>Node17&#45;&gt;Node19</title>
<path fill="none" stroke="midnightblue" d="M864.956,-136.403C850.27,-128.011 827.425,-114.957 808.432,-104.104"/>
<polygon fill="midnightblue" stroke="midnightblue" points="810.165,-101.063 799.746,-99.1408 806.692,-107.141 810.165,-101.063"/>
</g>
<!-- Node21 -->
<g id="node21" class="node"><title>Node21</title>
<g id="a_node21"><a xlink:href="gaussian_8hh.html" target="_top" xlink:title="gaussian.hh">
<polygon fill="none" stroke="black" points="1384.5,-74.5 1384.5,-93.5 1453.5,-93.5 1453.5,-74.5 1384.5,-74.5"/>
<text text-anchor="middle" x="1419" y="-81.5" font-family="Helvetica,sans-Serif" font-size="10.00">gaussian.hh</text>
</a>
</g>
</g>
<!-- Node20&#45;&gt;Node21 -->
<g id="edge21" class="edge"><title>Node20&#45;&gt;Node21</title>
<path fill="none" stroke="midnightblue" d="M1112.34,-192.47C1170.56,-172.066 1318,-120.395 1384.97,-96.9256"/>
<polygon fill="midnightblue" stroke="midnightblue" points="1386.35,-100.153 1394.63,-93.5423 1384.03,-93.5466 1386.35,-100.153"/>
</g>
<!-- Node24 -->
<g id="node24" class="node"><title>Node24</title>
<g id="a_node24"><a xlink:href="weibull_8hh.html" target="_top" xlink:title="weibull.hh">
<polygon fill="none" stroke="black" points="1268,-74.5 1268,-93.5 1328,-93.5 1328,-74.5 1268,-74.5"/>
<text text-anchor="middle" x="1298" y="-81.5" font-family="Helvetica,sans-Serif" font-size="10.00">weibull.hh</text>
</a>
</g>
</g>
<!-- Node20&#45;&gt;Node24 -->
<g id="edge25" class="edge"><title>Node20&#45;&gt;Node24</title>
<path fill="none" stroke="midnightblue" d="M1106.34,-192.451C1124.88,-183.692 1154.23,-169.485 1179,-156 1213.32,-137.313 1252,-113.755 1275.69,-99.0308"/>
<polygon fill="midnightblue" stroke="midnightblue" points="1277.65,-101.93 1284.28,-93.6664 1273.94,-95.9918 1277.65,-101.93"/>
</g>
<!-- Node25 -->
<g id="node25" class="node"><title>Node25</title>
<g id="a_node25"><a xlink:href="gram__charlier_8hh.html" target="_top" xlink:title="gram_charlier.hh">
<polygon fill="none" stroke="black" points="1081.5,-136.5 1081.5,-155.5 1170.5,-155.5 1170.5,-136.5 1081.5,-136.5"/>
<text text-anchor="middle" x="1126" y="-143.5" font-family="Helvetica,sans-Serif" font-size="10.00">gram_charlier.hh</text>
</a>
</g>
</g>
<!-- Node20&#45;&gt;Node25 -->
<g id="edge29" class="edge"><title>Node20&#45;&gt;Node25</title>
<path fill="none" stroke="midnightblue" d="M1094.27,-192.083C1099.64,-184.455 1107.52,-173.264 1114.08,-163.941"/>
<polygon fill="midnightblue" stroke="midnightblue" points="1116.95,-165.943 1119.84,-155.751 1111.22,-161.915 1116.95,-165.943"/>
</g>
<!-- Node27 -->
<g id="node27" class="node"><title>Node27</title>
<g id="a_node27"><a xlink:href="skew__normal_8hh.html" target="_top" xlink:title="skew_normal.hh">
<polygon fill="none" stroke="black" points="1375,-136.5 1375,-155.5 1463,-155.5 1463,-136.5 1375,-136.5"/>
<text text-anchor="middle" x="1419" y="-143.5" font-family="Helvetica,sans-Serif" font-size="10.00">skew_normal.hh</text>
</a>
</g>
</g>
<!-- Node20&#45;&gt;Node27 -->
<g id="edge35" class="edge"><title>Node20&#45;&gt;Node27</title>
<path fill="none" stroke="midnightblue" d="M1139.36,-192.622C1200.59,-182.632 1302.48,-166.01 1364.9,-155.826"/>
<polygon fill="midnightblue" stroke="midnightblue" points="1365.64,-159.252 1374.94,-154.188 1364.51,-152.344 1365.64,-159.252"/>
</g>
<!-- Node21&#45;&gt;Node9 -->
<g id="edge23" class="edge"><title>Node21&#45;&gt;Node9</title>
<path fill="none" stroke="midnightblue" d="M1395.6,-74.3717C1364.16,-62.7779 1308.12,-42.1162 1272.57,-29.0087"/>
<polygon fill="midnightblue" stroke="midnightblue" points="1273.72,-25.7015 1263.12,-25.5259 1271.29,-32.2693 1273.72,-25.7015"/>
</g>
<!-- Node22 -->
<g id="node22" class="node"><title>Node22</title>
<polygon fill="none" stroke="#bfbfbf" points="1389.5,-6.5 1389.5,-25.5 1438.5,-25.5 1438.5,-6.5 1389.5,-6.5"/>
<text text-anchor="middle" x="1414" y="-13.5" font-family="Helvetica,sans-Serif" font-size="10.00">istream</text>
</g>
<!-- Node21&#45;&gt;Node22 -->
<g id="edge22" class="edge"><title>Node21&#45;&gt;Node22</title>
<path fill="none" stroke="midnightblue" d="M1418.35,-74.3717C1417.61,-64.6426 1416.39,-48.528 1415.43,-35.8504"/>
<polygon fill="midnightblue" stroke="midnightblue" points="1418.92,-35.5481 1414.67,-25.8411 1411.94,-36.077 1418.92,-35.5481"/>
</g>
<!-- Node23 -->
<g id="node23" class="node"><title>Node23</title>
<polygon fill="none" stroke="#bfbfbf" points="1294,-6.5 1294,-25.5 1366,-25.5 1366,-6.5 1294,-6.5"/>
<text text-anchor="middle" x="1330" y="-13.5" font-family="Helvetica,sans-Serif" font-size="10.00">gsl/gsl_cdf.h</text>
</g>
<!-- Node21&#45;&gt;Node23 -->
<g id="edge24" class="edge"><title>Node21&#45;&gt;Node23</title>
<path fill="none" stroke="midnightblue" d="M1407.36,-74.3717C1392.84,-63.6004 1367.76,-45.0021 1350.1,-31.9065"/>
<polygon fill="midnightblue" stroke="midnightblue" points="1351.76,-28.7758 1341.64,-25.6305 1347.59,-34.3984 1351.76,-28.7758"/>
</g>
<!-- Node24&#45;&gt;Node9 -->
<g id="edge27" class="edge"><title>Node24&#45;&gt;Node9</title>
<path fill="none" stroke="midnightblue" d="M1290.42,-74.3717C1281.35,-64.053 1265.97,-46.5513 1254.58,-33.5854"/>
<polygon fill="midnightblue" stroke="midnightblue" points="1257,-31.0424 1247.77,-25.8411 1251.74,-35.6632 1257,-31.0424"/>
</g>
<!-- Node24&#45;&gt;Node22 -->
<g id="edge26" class="edge"><title>Node24&#45;&gt;Node22</title>
<path fill="none" stroke="midnightblue" d="M1313.16,-74.3717C1332.7,-63.2545 1366.9,-43.7997 1389.99,-30.6624"/>
<polygon fill="midnightblue" stroke="midnightblue" points="1391.87,-33.6178 1398.83,-25.6305 1388.41,-27.5337 1391.87,-33.6178"/>
</g>
<!-- Node24&#45;&gt;Node23 -->
<g id="edge28" class="edge"><title>Node24&#45;&gt;Node23</title>
<path fill="none" stroke="midnightblue" d="M1302.18,-74.3717C1307,-64.4461 1315.03,-47.8743 1321.23,-35.0864"/>
<polygon fill="midnightblue" stroke="midnightblue" points="1324.5,-36.3662 1325.71,-25.8411 1318.2,-33.3123 1324.5,-36.3662"/>
</g>
<!-- Node25&#45;&gt;Node5 -->
<g id="edge32" class="edge"><title>Node25&#45;&gt;Node5</title>
<path fill="none" stroke="midnightblue" d="M1126.17,-136.316C1126.03,-120.84 1123.6,-88.2175 1107,-68 1087.62,-44.4067 1054.85,-31.1311 1030.29,-24.0815"/>
<polygon fill="midnightblue" stroke="midnightblue" points="1030.9,-20.6203 1020.33,-21.4294 1029.1,-27.3846 1030.9,-20.6203"/>
</g>
<!-- Node25&#45;&gt;Node9 -->
<g id="edge31" class="edge"><title>Node25&#45;&gt;Node9</title>
<path fill="none" stroke="midnightblue" d="M1137.38,-136.336C1148.35,-127.714 1165.15,-113.808 1178,-100 1197.64,-78.8927 1217,-51.6724 1228.72,-34.2726"/>
<polygon fill="midnightblue" stroke="midnightblue" points="1231.79,-35.9841 1234.4,-25.7175 1225.96,-32.1114 1231.79,-35.9841"/>
</g>
<!-- Node25&#45;&gt;Node22 -->
<g id="edge30" class="edge"><title>Node25&#45;&gt;Node22</title>
<path fill="none" stroke="midnightblue" d="M1170.53,-143.131C1215,-139.568 1284.04,-129.319 1336,-100 1364.86,-83.7143 1389.36,-53.1841 1402.84,-34.0368"/>
<polygon fill="midnightblue" stroke="midnightblue" points="1405.81,-35.899 1408.54,-25.6639 1400.02,-31.9579 1405.81,-35.899"/>
</g>
<!-- Node26 -->
<g id="node26" class="node"><title>Node26</title>
<g id="a_node26"><a xlink:href="physical__constants_8hh.html" target="_top" xlink:title="physical_constants.hh">
<polygon fill="none" stroke="black" points="984,-74.5 984,-93.5 1098,-93.5 1098,-74.5 984,-74.5"/>
<text text-anchor="middle" x="1041" y="-81.5" font-family="Helvetica,sans-Serif" font-size="10.00">physical_constants.hh</text>
</a>
</g>
</g>
<!-- Node25&#45;&gt;Node26 -->
<g id="edge33" class="edge"><title>Node25&#45;&gt;Node26</title>
<path fill="none" stroke="midnightblue" d="M1113.82,-136.403C1100.19,-126.78 1077.87,-111.024 1061.53,-99.4891"/>
<polygon fill="midnightblue" stroke="midnightblue" points="1063.34,-96.4881 1053.16,-93.5806 1059.31,-102.207 1063.34,-96.4881"/>
</g>
<!-- Node26&#45;&gt;Node5 -->
<g id="edge34" class="edge"><title>Node26&#45;&gt;Node5</title>
<path fill="none" stroke="midnightblue" d="M1035.38,-74.3717C1028.78,-64.2495 1017.69,-47.2154 1009.29,-34.3312"/>
<polygon fill="midnightblue" stroke="midnightblue" points="1012.15,-32.3092 1003.76,-25.8411 1006.29,-36.1304 1012.15,-32.3092"/>
</g>
<!-- Node27&#45;&gt;Node9 -->
<g id="edge37" class="edge"><title>Node27&#45;&gt;Node9</title>
<path fill="none" stroke="midnightblue" d="M1374.77,-144.367C1338.65,-141.41 1288.84,-131.348 1259,-100 1242.62,-82.7996 1239.32,-54.4995 1239.13,-35.8054"/>
<polygon fill="midnightblue" stroke="midnightblue" points="1242.63,-35.6571 1239.32,-25.5921 1235.63,-35.5235 1242.63,-35.6571"/>
</g>
<!-- Node27&#45;&gt;Node21 -->
<g id="edge38" class="edge"><title>Node27&#45;&gt;Node21</title>
<path fill="none" stroke="midnightblue" d="M1419,-136.403C1419,-127.938 1419,-114.728 1419,-103.82"/>
<polygon fill="midnightblue" stroke="midnightblue" points="1422.5,-103.581 1419,-93.5806 1415.5,-103.581 1422.5,-103.581"/>
</g>
<!-- Node27&#45;&gt;Node22 -->
<g id="edge36" class="edge"><title>Node27&#45;&gt;Node22</title>
<path fill="none" stroke="midnightblue" d="M1431.5,-136.302C1441.87,-128.251 1455.89,-115.245 1462,-100 1467.29,-86.7994 1467.24,-81.2205 1462,-68 1456.34,-53.7304 1444.59,-41.1316 1434.13,-32.0261"/>
<polygon fill="midnightblue" stroke="midnightblue" points="1436.12,-29.1298 1426.16,-25.5075 1431.69,-34.5481 1436.12,-29.1298"/>
</g>
<!-- Node28 -->
<g id="node28" class="node"><title>Node28</title>
<g id="a_node28"><a xlink:href="owen__t_8hh.html" target="_top" xlink:title="apmath/owen_t.hh">
<polygon fill="none" stroke="black" points="1510.5,-74.5 1510.5,-93.5 1607.5,-93.5 1607.5,-74.5 1510.5,-74.5"/>
<text text-anchor="middle" x="1559" y="-81.5" font-family="Helvetica,sans-Serif" font-size="10.00">apmath/owen_t.hh</text>
</a>
</g>
</g>
<!-- Node27&#45;&gt;Node28 -->
<g id="edge39" class="edge"><title>Node27&#45;&gt;Node28</title>
<path fill="none" stroke="midnightblue" d="M1439.06,-136.403C1462.76,-126.245 1502.41,-109.255 1529.58,-97.6074"/>
<polygon fill="midnightblue" stroke="midnightblue" points="1531.17,-100.737 1538.98,-93.5806 1528.41,-94.3028 1531.17,-100.737"/>
</g>
<!-- Node29&#45;&gt;Node2 -->
<g id="edge42" class="edge"><title>Node29&#45;&gt;Node2</title>
<path fill="none" stroke="midnightblue" d="M815.986,-192.324C803.468,-183.979 784.318,-171.212 769.529,-161.352"/>
<polygon fill="midnightblue" stroke="midnightblue" points="771.244,-158.289 760.982,-155.655 767.361,-164.114 771.244,-158.289"/>
</g>
<!-- Node29&#45;&gt;Node16 -->
<g id="edge41" class="edge"><title>Node29&#45;&gt;Node16</title>
<path fill="none" stroke="midnightblue" d="M825.363,-192.466C819.011,-178.573 804.581,-151.104 784,-136 740.48,-104.063 711.967,-131.319 668,-100 644.048,-82.9381 625.697,-53.5477 615.635,-34.7078"/>
<polygon fill="midnightblue" stroke="midnightblue" points="618.7,-33.0131 611.029,-25.7051 612.468,-36.2017 618.7,-33.0131"/>
</g>
<!-- Node29&#45;&gt;Node17 -->
<g id="edge43" class="edge"><title>Node29&#45;&gt;Node17</title>
<path fill="none" stroke="midnightblue" d="M837.422,-192.083C844.848,-184.22 855.852,-172.569 864.812,-163.081"/>
<polygon fill="midnightblue" stroke="midnightblue" points="867.413,-165.424 871.735,-155.751 862.324,-160.618 867.413,-165.424"/>
</g>
<!-- Node31 -->
<g id="node31" class="node"><title>Node31</title>
<g id="a_node31"><a xlink:href="apmath_2fourier__gsl_8hh.html" target="_top" xlink:title="apmath/fourier_gsl.hh">
<polygon fill="none" stroke="black" points="298,-136.5 298,-155.5 408,-155.5 408,-136.5 298,-136.5"/>
<text text-anchor="middle" x="353" y="-143.5" font-family="Helvetica,sans-Serif" font-size="10.00">apmath/fourier_gsl.hh</text>
</a>
</g>
</g>
<!-- Node30&#45;&gt;Node31 -->
<g id="edge45" class="edge"><title>Node30&#45;&gt;Node31</title>
<path fill="none" stroke="midnightblue" d="M381.386,-192.083C376.633,-184.534 369.682,-173.495 363.848,-164.23"/>
<polygon fill="midnightblue" stroke="midnightblue" points="366.8,-162.349 358.51,-155.751 360.876,-166.078 366.8,-162.349"/>
</g>
<!-- Node31&#45;&gt;Node15 -->
<g id="edge53" class="edge"><title>Node31&#45;&gt;Node15</title>
<path fill="none" stroke="midnightblue" d="M378.79,-136.403C409.933,-126.022 462.481,-108.506 497.453,-96.849"/>
<polygon fill="midnightblue" stroke="midnightblue" points="498.878,-100.063 507.258,-93.5806 496.665,-93.4225 498.878,-100.063"/>
</g>
<!-- Node32 -->
<g id="node32" class="node"><title>Node32</title>
<polygon fill="none" stroke="#bfbfbf" points="396.5,-74.5 396.5,-93.5 449.5,-93.5 449.5,-74.5 396.5,-74.5"/>
<text text-anchor="middle" x="423" y="-81.5" font-family="Helvetica,sans-Serif" font-size="10.00">complex</text>
</g>
<!-- Node31&#45;&gt;Node32 -->
<g id="edge46" class="edge"><title>Node31&#45;&gt;Node32</title>
<path fill="none" stroke="midnightblue" d="M363.029,-136.403C374.049,-126.958 391.96,-111.606 405.343,-100.134"/>
<polygon fill="midnightblue" stroke="midnightblue" points="407.675,-102.746 412.989,-93.5806 403.119,-97.4311 407.675,-102.746"/>
</g>
<!-- Node33 -->
<g id="node33" class="node"><title>Node33</title>
<polygon fill="none" stroke="#bfbfbf" points="182,-74.5 182,-93.5 226,-93.5 226,-74.5 182,-74.5"/>
<text text-anchor="middle" x="204" y="-81.5" font-family="Helvetica,sans-Serif" font-size="10.00">vector</text>
</g>
<!-- Node31&#45;&gt;Node33 -->
<g id="edge47" class="edge"><title>Node31&#45;&gt;Node33</title>
<path fill="none" stroke="midnightblue" d="M328.8,-136.465C304.774,-127.829 267.007,-113.816 235,-100 233.415,-99.3158 231.793,-98.5951 230.163,-97.8549"/>
<polygon fill="midnightblue" stroke="midnightblue" points="231.472,-94.6031 220.933,-93.5194 228.496,-100.939 231.472,-94.6031"/>
</g>
<!-- Node34 -->
<g id="node34" class="node"><title>Node34</title>
<g id="a_node34"><a xlink:href="fourier__direction_8hh.html" target="_top" xlink:title="apmath/fourier_direction.hh">
<polygon fill="none" stroke="black" points="244,-74.5 244,-93.5 378,-93.5 378,-74.5 244,-74.5"/>
<text text-anchor="middle" x="311" y="-81.5" font-family="Helvetica,sans-Serif" font-size="10.00">apmath/fourier_direction.hh</text>
</a>
</g>
</g>
<!-- Node31&#45;&gt;Node34 -->
<g id="edge48" class="edge"><title>Node31&#45;&gt;Node34</title>
<path fill="none" stroke="midnightblue" d="M346.982,-136.403C340.682,-127.403 330.629,-113.041 322.748,-101.782"/>
<polygon fill="midnightblue" stroke="midnightblue" points="325.608,-99.7658 317.006,-93.5806 319.874,-103.78 325.608,-99.7658"/>
</g>
<!-- Node35 -->
<g id="node35" class="node"><title>Node35</title>
<g id="a_node35"><a xlink:href="bits_2fourier__gsl_8hh.html" target="_top" xlink:title="bits/fourier_gsl.hh">
<polygon fill="none" stroke="black" points="70,-74.5 70,-93.5 164,-93.5 164,-74.5 70,-74.5"/>
<text text-anchor="middle" x="117" y="-81.5" font-family="Helvetica,sans-Serif" font-size="10.00">bits/fourier_gsl.hh</text>
</a>
</g>
</g>
<!-- Node31&#45;&gt;Node35 -->
<g id="edge49" class="edge"><title>Node31&#45;&gt;Node35</title>
<path fill="none" stroke="midnightblue" d="M318.113,-136.462C281.818,-127.536 223.361,-113.039 173,-100 168.256,-98.7717 163.291,-97.4681 158.361,-96.1622"/>
<polygon fill="midnightblue" stroke="midnightblue" points="158.935,-92.6932 148.371,-93.5019 157.133,-99.4575 158.935,-92.6932"/>
</g>
<!-- Node35&#45;&gt;Node11 -->
<g id="edge52" class="edge"><title>Node35&#45;&gt;Node11</title>
<path fill="none" stroke="midnightblue" d="M147.068,-74.3717C188.162,-62.5797 261.945,-41.4071 307.471,-28.3432"/>
<polygon fill="midnightblue" stroke="midnightblue" points="308.642,-31.6484 317.289,-25.5259 306.711,-24.92 308.642,-31.6484"/>
</g>
<!-- Node36 -->
<g id="node36" class="node"><title>Node36</title>
<polygon fill="none" stroke="#bfbfbf" points="0,-6.5 0,-25.5 110,-25.5 110,-6.5 0,-6.5"/>
<text text-anchor="middle" x="55" y="-13.5" font-family="Helvetica,sans-Serif" font-size="10.00">gsl/gsl_fft_complex.h</text>
</g>
<!-- Node35&#45;&gt;Node36 -->
<g id="edge50" class="edge"><title>Node35&#45;&gt;Node36</title>
<path fill="none" stroke="midnightblue" d="M108.895,-74.3717C99.109,-63.9547 82.4465,-46.2173 70.2334,-33.2162"/>
<polygon fill="midnightblue" stroke="midnightblue" points="72.7031,-30.7333 63.3053,-25.8411 67.6011,-35.526 72.7031,-30.7333"/>
</g>
<!-- Node37 -->
<g id="node37" class="node"><title>Node37</title>
<polygon fill="none" stroke="#bfbfbf" points="128.5,-1 128.5,-31 229.5,-31 229.5,-1 128.5,-1"/>
<text text-anchor="start" x="136.5" y="-19" font-family="Helvetica,sans-Serif" font-size="10.00">gsl/gsl_fft_complex</text>
<text text-anchor="middle" x="179" y="-8" font-family="Helvetica,sans-Serif" font-size="10.00">_float.h</text>
</g>
<!-- Node35&#45;&gt;Node37 -->
<g id="edge51" class="edge"><title>Node35&#45;&gt;Node37</title>
<path fill="none" stroke="midnightblue" d="M125.105,-74.3717C133.56,-65.3715 147.148,-50.9067 158.565,-38.7534"/>
<polygon fill="midnightblue" stroke="midnightblue" points="161.382,-40.8663 165.678,-31.1815 156.28,-36.0736 161.382,-40.8663"/>
</g>
<!-- Node38&#45;&gt;Node2 -->
<g id="edge56" class="edge"><title>Node38&#45;&gt;Node2</title>
<path fill="none" stroke="midnightblue" d="M703.752,-192.083C711.47,-184.22 722.905,-172.569 732.217,-163.081"/>
<polygon fill="midnightblue" stroke="midnightblue" points="734.904,-165.34 739.411,-155.751 729.908,-160.436 734.904,-165.34"/>
</g>
<!-- Node38&#45;&gt;Node5 -->
<g id="edge55" class="edge"><title>Node38&#45;&gt;Node5</title>
<path fill="none" stroke="midnightblue" d="M693.73,-192.356C690.789,-168.706 686.207,-102.413 721,-68 755.167,-34.2056 900.165,-22.2405 965.658,-18.506"/>
<polygon fill="midnightblue" stroke="midnightblue" points="966.028,-21.9912 975.824,-17.9565 965.65,-15.0014 966.028,-21.9912"/>
</g>
<!-- Node38&#45;&gt;Node16 -->
<g id="edge57" class="edge"><title>Node38&#45;&gt;Node16</title>
<path fill="none" stroke="midnightblue" d="M684.436,-192.326C665.844,-176.333 627.755,-140.141 612,-100 603.858,-79.2554 603.717,-53.3476 604.889,-36.0474"/>
<polygon fill="midnightblue" stroke="midnightblue" points="608.417,-35.8881 605.827,-25.6147 601.445,-35.2608 608.417,-35.8881"/>
</g>
</g>
</svg>
