<?xml version="1.0" encoding="UTF-8" standalone="no"?>
<!DOCTYPE svg PUBLIC "-//W3C//DTD SVG 1.1//EN"
 "http://www.w3.org/Graphics/SVG/1.1/DTD/svg11.dtd">
<!-- Generated by graphviz version 2.40.1 (20161225.0304)
 -->
<!-- Title: src/arma_realtime_driver.hh Pages: 1 -->
<svg width="272pt" height="84pt"
 viewBox="0.00 0.00 271.50 84.00" xmlns="http://www.w3.org/2000/svg" xmlns:xlink="http://www.w3.org/1999/xlink">
<g id="graph0" class="graph" transform="scale(1 1) rotate(0) translate(4 80)">
<title>src/arma_realtime_driver.hh</title>
<!-- Node41 -->
<g id="node1" class="node">
<title>Node41</title>
<polygon fill="#bfbfbf" stroke="#000000" points="55.5,-56.5 55.5,-75.5 192.5,-75.5 192.5,-56.5 55.5,-56.5"/>
<text text-anchor="middle" x="124" y="-63.5" font-family="Helvetica,sans-Serif" font-size="10.00" fill="#000000">src/arma_realtime_driver.hh</text>
</g>
<!-- Node42 -->
<g id="node2" class="node">
<title>Node42</title>
<g id="a_node2"><a xlink:href="arma__realtime_8cc.html" target="_top" xlink:title="src/arma_realtime.cc">
<polygon fill="none" stroke="#000000" points="0,-.5 0,-19.5 108,-19.5 108,-.5 0,-.5"/>
<text text-anchor="middle" x="54" y="-7.5" font-family="Helvetica,sans-Serif" font-size="10.00" fill="#000000">src/arma_realtime.cc</text>
</a>
</g>
</g>
<!-- Node41&#45;&gt;Node42 -->
<g id="edge1" class="edge">
<title>Node41&#45;&gt;Node42</title>
<path fill="none" stroke="#191970" d="M103.91,-49.928C91.6747,-40.1397 76.4493,-27.9595 66.0533,-19.6427"/>
<polygon fill="#191970" stroke="#191970" points="101.8118,-52.7316 111.8069,-56.2455 106.1847,-47.2655 101.8118,-52.7316"/>
</g>
<!-- Node43 -->
<g id="node3" class="node">
<title>Node43</title>
<g id="a_node3"><a xlink:href="arma__realtime__driver_8cc.html" target="_top" xlink:title="src/arma_realtime_driver.cc">
<polygon fill="none" stroke="#000000" points="126.5,-.5 126.5,-19.5 263.5,-19.5 263.5,-.5 126.5,-.5"/>
<text text-anchor="middle" x="195" y="-7.5" font-family="Helvetica,sans-Serif" font-size="10.00" fill="#000000">src/arma_realtime_driver.cc</text>
</a>
</g>
</g>
<!-- Node41&#45;&gt;Node43 -->
<g id="edge2" class="edge">
<title>Node41&#45;&gt;Node43</title>
<path fill="none" stroke="#191970" d="M144.377,-49.928C156.7871,-40.1397 172.23,-27.9595 182.7745,-19.6427"/>
<polygon fill="#191970" stroke="#191970" points="142.0514,-47.3046 136.3673,-56.2455 146.3864,-52.8007 142.0514,-47.3046"/>
</g>
</g>
</svg>
