<?xml version="1.0" encoding="UTF-8" standalone="no"?>
<!DOCTYPE svg PUBLIC "-//W3C//DTD SVG 1.1//EN"
 "http://www.w3.org/Graphics/SVG/1.1/DTD/svg11.dtd">
<!-- Generated by graphviz version 2.36.0 (20140111.2315)
 -->
<!-- Title: /home/travis/build/igankevich/arma/src/generator/arma_model.hh Pages: 1 -->
<svg width="325pt" height="206pt"
 viewBox="0.00 0.00 325.00 206.00" xmlns="http://www.w3.org/2000/svg" xmlns:xlink="http://www.w3.org/1999/xlink">
<g id="graph0" class="graph" transform="scale(1 1) rotate(0) translate(4 202)">
<title>/home/travis/build/igankevich/arma/src/generator/arma_model.hh</title>
<!-- Node1 -->
<g id="node1" class="node"><title>Node1</title>
<polygon fill="#bfbfbf" stroke="black" points="118,-156.5 118,-197.5 248,-197.5 248,-156.5 118,-156.5"/>
<text text-anchor="start" x="126" y="-185.5" font-family="Helvetica,sans-Serif" font-size="10.00">/home/travis/build</text>
<text text-anchor="start" x="126" y="-174.5" font-family="Helvetica,sans-Serif" font-size="10.00">/igankevich/arma/src</text>
<text text-anchor="middle" x="183" y="-163.5" font-family="Helvetica,sans-Serif" font-size="10.00">/generator/arma_model.hh</text>
</g>
<!-- Node2 -->
<g id="node2" class="node"><title>Node2</title>
<g id="a_node2"><a xlink:href="common__main_8hh.html" target="_top" xlink:title="/home/travis/build\l/igankevich/arma/src\l/common_main.hh">
<polygon fill="none" stroke="black" points="61.5,-78.5 61.5,-119.5 168.5,-119.5 168.5,-78.5 61.5,-78.5"/>
<text text-anchor="start" x="69.5" y="-107.5" font-family="Helvetica,sans-Serif" font-size="10.00">/home/travis/build</text>
<text text-anchor="start" x="69.5" y="-96.5" font-family="Helvetica,sans-Serif" font-size="10.00">/igankevich/arma/src</text>
<text text-anchor="middle" x="115" y="-85.5" font-family="Helvetica,sans-Serif" font-size="10.00">/common_main.hh</text>
</a>
</g>
</g>
<!-- Node1&#45;&gt;Node2 -->
<g id="edge1" class="edge"><title>Node1&#45;&gt;Node2</title>
<path fill="none" stroke="midnightblue" d="M158.767,-148.916C150.076,-139.203 140.455,-128.45 132.452,-119.506"/>
<polygon fill="midnightblue" stroke="midnightblue" points="156.212,-151.309 165.488,-156.428 161.429,-146.642 156.212,-151.309"/>
</g>
<!-- Node5 -->
<g id="node5" class="node"><title>Node5</title>
<g id="a_node5"><a xlink:href="arma__model_8cc.html" target="_top" xlink:title="/home/travis/build\l/igankevich/arma/src\l/generator/arma_model.cc">
<polygon fill="none" stroke="black" points="187,-78.5 187,-119.5 317,-119.5 317,-78.5 187,-78.5"/>
<text text-anchor="start" x="195" y="-107.5" font-family="Helvetica,sans-Serif" font-size="10.00">/home/travis/build</text>
<text text-anchor="start" x="195" y="-96.5" font-family="Helvetica,sans-Serif" font-size="10.00">/igankevich/arma/src</text>
<text text-anchor="middle" x="252" y="-85.5" font-family="Helvetica,sans-Serif" font-size="10.00">/generator/arma_model.cc</text>
</a>
</g>
</g>
<!-- Node1&#45;&gt;Node5 -->
<g id="edge4" class="edge"><title>Node1&#45;&gt;Node5</title>
<path fill="none" stroke="midnightblue" d="M207.59,-148.916C216.408,-139.203 226.17,-128.45 234.291,-119.506"/>
<polygon fill="midnightblue" stroke="midnightblue" points="204.9,-146.672 200.769,-156.428 210.082,-151.377 204.9,-146.672"/>
</g>
<!-- Node3 -->
<g id="node3" class="node"><title>Node3</title>
<g id="a_node3"><a xlink:href="arma__main_8cc.html" target="_top" xlink:title="/home/travis/build\l/igankevich/arma/src\l/arma_main.cc">
<polygon fill="none" stroke="black" points="-0.5,-0.5 -0.5,-41.5 106.5,-41.5 106.5,-0.5 -0.5,-0.5"/>
<text text-anchor="start" x="7.5" y="-29.5" font-family="Helvetica,sans-Serif" font-size="10.00">/home/travis/build</text>
<text text-anchor="start" x="7.5" y="-18.5" font-family="Helvetica,sans-Serif" font-size="10.00">/igankevich/arma/src</text>
<text text-anchor="middle" x="53" y="-7.5" font-family="Helvetica,sans-Serif" font-size="10.00">/arma_main.cc</text>
</a>
</g>
</g>
<!-- Node2&#45;&gt;Node3 -->
<g id="edge2" class="edge"><title>Node2&#45;&gt;Node3</title>
<path fill="none" stroke="midnightblue" d="M92.6694,-70.627C84.8077,-60.9901 76.1371,-50.3617 68.9124,-41.5056"/>
<polygon fill="midnightblue" stroke="midnightblue" points="90.0001,-72.8919 99.0335,-78.4281 95.4242,-68.467 90.0001,-72.8919"/>
</g>
<!-- Node4 -->
<g id="node4" class="node"><title>Node4</title>
<g id="a_node4"><a xlink:href="arma__realtime_8cc.html" target="_top" xlink:title="/home/travis/build\l/igankevich/arma/src\l/arma_realtime.cc">
<polygon fill="none" stroke="black" points="124.5,-0.5 124.5,-41.5 231.5,-41.5 231.5,-0.5 124.5,-0.5"/>
<text text-anchor="start" x="132.5" y="-29.5" font-family="Helvetica,sans-Serif" font-size="10.00">/home/travis/build</text>
<text text-anchor="start" x="132.5" y="-18.5" font-family="Helvetica,sans-Serif" font-size="10.00">/igankevich/arma/src</text>
<text text-anchor="middle" x="178" y="-7.5" font-family="Helvetica,sans-Serif" font-size="10.00">/arma_realtime.cc</text>
</a>
</g>
</g>
<!-- Node2&#45;&gt;Node4 -->
<g id="edge3" class="edge"><title>Node2&#45;&gt;Node4</title>
<path fill="none" stroke="midnightblue" d="M137.691,-70.627C145.679,-60.9901 154.49,-50.3617 161.831,-41.5056"/>
<polygon fill="midnightblue" stroke="midnightblue" points="134.911,-68.4956 131.224,-78.4281 140.301,-72.963 134.911,-68.4956"/>
</g>
</g>
</svg>
