<?xml version="1.0" encoding="UTF-8" standalone="no"?>
<!DOCTYPE svg PUBLIC "-//W3C//DTD SVG 1.1//EN"
 "http://www.w3.org/Graphics/SVG/1.1/DTD/svg11.dtd">
<!-- Generated by graphviz version 2.40.1 (20161225.0304)
 -->
<!-- Title: src/arma_driver.hh Pages: 1 -->
<svg width="464pt" height="140pt"
 viewBox="0.00 0.00 463.50 140.00" xmlns="http://www.w3.org/2000/svg" xmlns:xlink="http://www.w3.org/1999/xlink">
<g id="graph0" class="graph" transform="scale(1 1) rotate(0) translate(4 136)">
<title>src/arma_driver.hh</title>
<!-- Node37 -->
<g id="node1" class="node">
<title>Node37</title>
<polygon fill="#bfbfbf" stroke="#000000" points="181,-112.5 181,-131.5 278,-131.5 278,-112.5 181,-112.5"/>
<text text-anchor="middle" x="229.5" y="-119.5" font-family="Helvetica,sans-Serif" font-size="10.00" fill="#000000">src/arma_driver.hh</text>
</g>
<!-- Node38 -->
<g id="node2" class="node">
<title>Node38</title>
<g id="a_node2"><a xlink:href="arma__driver_8cc.html" target="_top" xlink:title="src/arma_driver.cc">
<polygon fill="none" stroke="#000000" points="0,-56.5 0,-75.5 97,-75.5 97,-56.5 0,-56.5"/>
<text text-anchor="middle" x="48.5" y="-63.5" font-family="Helvetica,sans-Serif" font-size="10.00" fill="#000000">src/arma_driver.cc</text>
</a>
</g>
</g>
<!-- Node37&#45;&gt;Node38 -->
<g id="edge1" class="edge">
<title>Node37&#45;&gt;Node38</title>
<path fill="none" stroke="#191970" d="M188.5278,-109.3235C155.3339,-99.0536 109.2942,-84.8093 79.209,-75.5011"/>
<polygon fill="#191970" stroke="#191970" points="187.7973,-112.7611 198.385,-112.3733 189.8663,-106.0739 187.7973,-112.7611"/>
</g>
<!-- Node39 -->
<g id="node3" class="node">
<title>Node39</title>
<g id="a_node3"><a xlink:href="arma__main_8cc.html" target="_top" xlink:title="src/arma_main.cc">
<polygon fill="none" stroke="#000000" points="115,-56.5 115,-75.5 210,-75.5 210,-56.5 115,-56.5"/>
<text text-anchor="middle" x="162.5" y="-63.5" font-family="Helvetica,sans-Serif" font-size="10.00" fill="#000000">src/arma_main.cc</text>
</a>
</g>
</g>
<!-- Node37&#45;&gt;Node39 -->
<g id="edge2" class="edge">
<title>Node37&#45;&gt;Node39</title>
<path fill="none" stroke="#191970" d="M209.9324,-105.645C198.2802,-95.9058 183.8916,-83.8795 174.0368,-75.6427"/>
<polygon fill="#191970" stroke="#191970" points="207.9121,-108.5179 217.8295,-112.2455 212.4012,-103.1469 207.9121,-108.5179"/>
</g>
<!-- Node40 -->
<g id="node4" class="node">
<title>Node40</title>
<g id="a_node4"><a xlink:href="arma__realtime__driver_8hh.html" target="_top" xlink:title="src/arma_realtime_driver.hh">
<polygon fill="none" stroke="#000000" points="228,-56.5 228,-75.5 365,-75.5 365,-56.5 228,-56.5"/>
<text text-anchor="middle" x="296.5" y="-63.5" font-family="Helvetica,sans-Serif" font-size="10.00" fill="#000000">src/arma_realtime_driver.hh</text>
</a>
</g>
</g>
<!-- Node37&#45;&gt;Node40 -->
<g id="edge3" class="edge">
<title>Node37&#45;&gt;Node40</title>
<path fill="none" stroke="#191970" d="M249.0676,-105.645C260.7198,-95.9058 275.1084,-83.8795 284.9632,-75.6427"/>
<polygon fill="#191970" stroke="#191970" points="246.5988,-103.1469 241.1705,-112.2455 251.0879,-108.5179 246.5988,-103.1469"/>
</g>
<!-- Node43 -->
<g id="node7" class="node">
<title>Node43</title>
<g id="a_node7"><a xlink:href="visual_8cc.html" target="_top" xlink:title="src/visual.cc">
<polygon fill="none" stroke="#000000" points="383.5,-56.5 383.5,-75.5 455.5,-75.5 455.5,-56.5 383.5,-56.5"/>
<text text-anchor="middle" x="419.5" y="-63.5" font-family="Helvetica,sans-Serif" font-size="10.00" fill="#000000">src/visual.cc</text>
</a>
</g>
</g>
<!-- Node37&#45;&gt;Node43 -->
<g id="edge6" class="edge">
<title>Node37&#45;&gt;Node43</title>
<path fill="none" stroke="#191970" d="M272.0597,-109.4561C306.9369,-99.1765 355.5468,-84.8494 387.264,-75.5011"/>
<polygon fill="#191970" stroke="#191970" points="270.7647,-106.1888 262.1622,-112.3733 272.7437,-112.9033 270.7647,-106.1888"/>
</g>
<!-- Node41 -->
<g id="node5" class="node">
<title>Node41</title>
<g id="a_node5"><a xlink:href="arma__realtime_8cc.html" target="_top" xlink:title="src/arma_realtime.cc">
<polygon fill="none" stroke="#000000" points="171.5,-.5 171.5,-19.5 279.5,-19.5 279.5,-.5 171.5,-.5"/>
<text text-anchor="middle" x="225.5" y="-7.5" font-family="Helvetica,sans-Serif" font-size="10.00" fill="#000000">src/arma_realtime.cc</text>
</a>
</g>
</g>
<!-- Node40&#45;&gt;Node41 -->
<g id="edge4" class="edge">
<title>Node40&#45;&gt;Node41</title>
<path fill="none" stroke="#191970" d="M276.123,-49.928C263.7129,-40.1397 248.27,-27.9595 237.7255,-19.6427"/>
<polygon fill="#191970" stroke="#191970" points="274.1136,-52.8007 284.1327,-56.2455 278.4486,-47.3046 274.1136,-52.8007"/>
</g>
<!-- Node42 -->
<g id="node6" class="node">
<title>Node42</title>
<g id="a_node6"><a xlink:href="arma__realtime__driver_8cc.html" target="_top" xlink:title="src/arma_realtime_driver.cc">
<polygon fill="none" stroke="#000000" points="298,-.5 298,-19.5 435,-19.5 435,-.5 298,-.5"/>
<text text-anchor="middle" x="366.5" y="-7.5" font-family="Helvetica,sans-Serif" font-size="10.00" fill="#000000">src/arma_realtime_driver.cc</text>
</a>
</g>
</g>
<!-- Node40&#45;&gt;Node42 -->
<g id="edge5" class="edge">
<title>Node40&#45;&gt;Node42</title>
<path fill="none" stroke="#191970" d="M316.59,-49.928C328.8253,-40.1397 344.0507,-27.9595 354.4467,-19.6427"/>
<polygon fill="#191970" stroke="#191970" points="314.3153,-47.2655 308.6931,-56.2455 318.6882,-52.7316 314.3153,-47.2655"/>
</g>
</g>
</svg>
