<?xml version="1.0" encoding="UTF-8" standalone="no"?>
<!DOCTYPE svg PUBLIC "-//W3C//DTD SVG 1.1//EN"
 "http://www.w3.org/Graphics/SVG/1.1/DTD/svg11.dtd">
<!-- Generated by graphviz version 2.40.1 (20161225.0304)
 -->
<!-- Title: src/generator/arma_model.hh Pages: 1 -->
<svg width="333pt" height="218pt"
 viewBox="0.00 0.00 332.50 218.00" xmlns="http://www.w3.org/2000/svg" xmlns:xlink="http://www.w3.org/1999/xlink">
<g id="graph0" class="graph" transform="scale(1 1) rotate(0) translate(4 214)">
<title>src/generator/arma_model.hh</title>
<!-- Node52 -->
<g id="node1" class="node">
<title>Node52</title>
<polygon fill="#bfbfbf" stroke="#000000" points="169.5,-179.5 169.5,-209.5 267.5,-209.5 267.5,-179.5 169.5,-179.5"/>
<text text-anchor="start" x="177.5" y="-197.5" font-family="Helvetica,sans-Serif" font-size="10.00" fill="#000000">src/generator/arma</text>
<text text-anchor="middle" x="218.5" y="-186.5" font-family="Helvetica,sans-Serif" font-size="10.00" fill="#000000">_model.hh</text>
</g>
<!-- Node53 -->
<g id="node2" class="node">
<title>Node53</title>
<g id="a_node2"><a xlink:href="register__all_8hh.html" target="_top" xlink:title="src/register_all.hh">
<polygon fill="none" stroke="#000000" points="114.5,-118 114.5,-137 208.5,-137 208.5,-118 114.5,-118"/>
<text text-anchor="middle" x="161.5" y="-125" font-family="Helvetica,sans-Serif" font-size="10.00" fill="#000000">src/register_all.hh</text>
</a>
</g>
</g>
<!-- Node52&#45;&gt;Node53 -->
<g id="edge1" class="edge">
<title>Node52&#45;&gt;Node53</title>
<path fill="none" stroke="#191970" d="M198.9542,-171.5252C188.9226,-159.7336 177.2435,-146.0055 169.6289,-137.055"/>
<polygon fill="#191970" stroke="#191970" points="196.4202,-173.948 205.5658,-179.2967 201.7518,-169.4121 196.4202,-173.948"/>
</g>
<!-- Node58 -->
<g id="node7" class="node">
<title>Node58</title>
<g id="a_node7"><a xlink:href="arma__model_8cc.html" target="_top" xlink:title="src/generator/arma\l_model.cc">
<polygon fill="none" stroke="#000000" points="226.5,-112.5 226.5,-142.5 324.5,-142.5 324.5,-112.5 226.5,-112.5"/>
<text text-anchor="start" x="234.5" y="-130.5" font-family="Helvetica,sans-Serif" font-size="10.00" fill="#000000">src/generator/arma</text>
<text text-anchor="middle" x="275.5" y="-119.5" font-family="Helvetica,sans-Serif" font-size="10.00" fill="#000000">_model.cc</text>
</a>
</g>
</g>
<!-- Node52&#45;&gt;Node58 -->
<g id="edge6" class="edge">
<title>Node52&#45;&gt;Node58</title>
<path fill="none" stroke="#191970" d="M237.9494,-171.6385C246.0937,-162.0653 255.3384,-151.1987 262.617,-142.6432"/>
<polygon fill="#191970" stroke="#191970" points="235.2482,-169.4121 231.4342,-179.2967 240.5798,-173.948 235.2482,-169.4121"/>
</g>
<!-- Node54 -->
<g id="node3" class="node">
<title>Node54</title>
<g id="a_node3"><a xlink:href="common__main_8hh.html" target="_top" xlink:title="src/common_main.hh">
<polygon fill="none" stroke="#000000" points="52.5,-56.5 52.5,-75.5 162.5,-75.5 162.5,-56.5 52.5,-56.5"/>
<text text-anchor="middle" x="107.5" y="-63.5" font-family="Helvetica,sans-Serif" font-size="10.00" fill="#000000">src/common_main.hh</text>
</a>
</g>
</g>
<!-- Node53&#45;&gt;Node54 -->
<g id="edge2" class="edge">
<title>Node53&#45;&gt;Node54</title>
<path fill="none" stroke="#191970" d="M146.1995,-110.0744C136.4332,-98.9517 124.135,-84.9454 116.0565,-75.7449"/>
<polygon fill="#191970" stroke="#191970" points="143.8344,-112.6855 153.0625,-117.8906 149.0945,-108.0669 143.8344,-112.6855"/>
</g>
<!-- Node57 -->
<g id="node6" class="node">
<title>Node57</title>
<g id="a_node6"><a xlink:href="visual_8cc.html" target="_top" xlink:title="src/visual.cc">
<polygon fill="none" stroke="#000000" points="180.5,-56.5 180.5,-75.5 252.5,-75.5 252.5,-56.5 180.5,-56.5"/>
<text text-anchor="middle" x="216.5" y="-63.5" font-family="Helvetica,sans-Serif" font-size="10.00" fill="#000000">src/visual.cc</text>
</a>
</g>
</g>
<!-- Node53&#45;&gt;Node57 -->
<g id="edge5" class="edge">
<title>Node53&#45;&gt;Node57</title>
<path fill="none" stroke="#191970" d="M176.792,-110.4007C186.785,-99.2268 199.4763,-85.0356 207.7851,-75.7449"/>
<polygon fill="#191970" stroke="#191970" points="174.1511,-108.1034 170.0938,-117.8906 179.3689,-112.7698 174.1511,-108.1034"/>
</g>
<!-- Node55 -->
<g id="node4" class="node">
<title>Node55</title>
<g id="a_node4"><a xlink:href="arma__main_8cc.html" target="_top" xlink:title="src/arma_main.cc">
<polygon fill="none" stroke="#000000" points="0,-.5 0,-19.5 95,-19.5 95,-.5 0,-.5"/>
<text text-anchor="middle" x="47.5" y="-7.5" font-family="Helvetica,sans-Serif" font-size="10.00" fill="#000000">src/arma_main.cc</text>
</a>
</g>
</g>
<!-- Node54&#45;&gt;Node55 -->
<g id="edge3" class="edge">
<title>Node54&#45;&gt;Node55</title>
<path fill="none" stroke="#191970" d="M89.6722,-49.3607C79.2922,-39.6727 66.5709,-27.7995 57.8314,-19.6427"/>
<polygon fill="#191970" stroke="#191970" points="87.3501,-51.981 97.0488,-56.2455 92.1263,-46.8636 87.3501,-51.981"/>
</g>
<!-- Node56 -->
<g id="node5" class="node">
<title>Node56</title>
<g id="a_node5"><a xlink:href="arma__realtime_8cc.html" target="_top" xlink:title="src/arma_realtime.cc">
<polygon fill="none" stroke="#000000" points="113.5,-.5 113.5,-19.5 221.5,-19.5 221.5,-.5 113.5,-.5"/>
<text text-anchor="middle" x="167.5" y="-7.5" font-family="Helvetica,sans-Serif" font-size="10.00" fill="#000000">src/arma_realtime.cc</text>
</a>
</g>
</g>
<!-- Node54&#45;&gt;Node56 -->
<g id="edge4" class="edge">
<title>Node54&#45;&gt;Node56</title>
<path fill="none" stroke="#191970" d="M125.3278,-49.3607C135.7078,-39.6727 148.4291,-27.7995 157.1686,-19.6427"/>
<polygon fill="#191970" stroke="#191970" points="122.8737,-46.8636 117.9512,-56.2455 127.6499,-51.981 122.8737,-46.8636"/>
</g>
</g>
</svg>
