<?xml version="1.0" encoding="UTF-8" standalone="no"?>
<!DOCTYPE svg PUBLIC "-//W3C//DTD SVG 1.1//EN"
 "http://www.w3.org/Graphics/SVG/1.1/DTD/svg11.dtd">
<!-- Generated by graphviz version 2.36.0 (20140111.2315)
 -->
<!-- Title: /home/travis/build/igankevich/arma/src/arma_driver.hh Pages: 1 -->
<svg width="1517pt" height="386pt"
 viewBox="0.00 0.00 1517.00 386.00" xmlns="http://www.w3.org/2000/svg" xmlns:xlink="http://www.w3.org/1999/xlink">
<g id="graph0" class="graph" transform="scale(1 1) rotate(0) translate(4 382)">
<title>/home/travis/build/igankevich/arma/src/arma_driver.hh</title>
<!-- Node1 -->
<g id="node1" class="node"><title>Node1</title>
<polygon fill="#bfbfbf" stroke="black" points="989.5,-336.5 989.5,-377.5 1096.5,-377.5 1096.5,-336.5 989.5,-336.5"/>
<text text-anchor="start" x="997.5" y="-365.5" font-family="Helvetica,sans-Serif" font-size="10.00">/home/travis/build</text>
<text text-anchor="start" x="997.5" y="-354.5" font-family="Helvetica,sans-Serif" font-size="10.00">/igankevich/arma/src</text>
<text text-anchor="middle" x="1043" y="-343.5" font-family="Helvetica,sans-Serif" font-size="10.00">/arma_driver.hh</text>
</g>
<!-- Node2 -->
<g id="node2" class="node"><title>Node2</title>
<polygon fill="none" stroke="#bfbfbf" points="593.5,-280.5 593.5,-299.5 652.5,-299.5 652.5,-280.5 593.5,-280.5"/>
<text text-anchor="middle" x="623" y="-287.5" font-family="Helvetica,sans-Serif" font-size="10.00">functional</text>
</g>
<!-- Node1&#45;&gt;Node2 -->
<g id="edge1" class="edge"><title>Node1&#45;&gt;Node2</title>
<path fill="none" stroke="midnightblue" d="M989.304,-348.93C916.21,-339.095 781.386,-320.202 667,-300 665.56,-299.746 664.096,-299.48 662.617,-299.207"/>
<polygon fill="midnightblue" stroke="midnightblue" points="663.261,-295.767 652.78,-297.318 661.941,-302.641 663.261,-295.767"/>
</g>
<!-- Node3 -->
<g id="node3" class="node"><title>Node3</title>
<polygon fill="none" stroke="#bfbfbf" points="779.5,-112.5 779.5,-131.5 828.5,-131.5 828.5,-112.5 779.5,-112.5"/>
<text text-anchor="middle" x="804" y="-119.5" font-family="Helvetica,sans-Serif" font-size="10.00">istream</text>
</g>
<!-- Node1&#45;&gt;Node3 -->
<g id="edge2" class="edge"><title>Node1&#45;&gt;Node3</title>
<path fill="none" stroke="midnightblue" d="M989.496,-350.184C919.539,-341.743 801.698,-324.394 766,-300 711.845,-262.993 663.988,-222.821 700,-168 708.129,-155.625 742.65,-142.246 769.719,-133.322"/>
<polygon fill="midnightblue" stroke="midnightblue" points="770.843,-136.637 779.292,-130.245 768.701,-129.973 770.843,-136.637"/>
</g>
<!-- Node4 -->
<g id="node4" class="node"><title>Node4</title>
<polygon fill="none" stroke="#bfbfbf" points="1148,-112.5 1148,-131.5 1200,-131.5 1200,-112.5 1148,-112.5"/>
<text text-anchor="middle" x="1174" y="-119.5" font-family="Helvetica,sans-Serif" font-size="10.00">ostream</text>
</g>
<!-- Node1&#45;&gt;Node4 -->
<g id="edge3" class="edge"><title>Node1&#45;&gt;Node4</title>
<path fill="none" stroke="midnightblue" d="M1096.7,-348.93C1153.79,-337.99 1239.44,-310.715 1266,-244 1283.58,-199.852 1230.91,-157.944 1198.12,-136.968"/>
<polygon fill="midnightblue" stroke="midnightblue" points="1199.82,-133.904 1189.47,-131.622 1196.14,-139.858 1199.82,-133.904"/>
</g>
<!-- Node5 -->
<g id="node5" class="node"><title>Node5</title>
<polygon fill="none" stroke="#bfbfbf" points="846.5,-112.5 846.5,-131.5 887.5,-131.5 887.5,-112.5 846.5,-112.5"/>
<text text-anchor="middle" x="867" y="-119.5" font-family="Helvetica,sans-Serif" font-size="10.00">string</text>
</g>
<!-- Node1&#45;&gt;Node5 -->
<g id="edge4" class="edge"><title>Node1&#45;&gt;Node5</title>
<path fill="none" stroke="midnightblue" d="M1014.55,-336.44C1001.28,-326.481 985.853,-313.614 974,-300 928.894,-248.195 891.452,-174.978 875.406,-141.277"/>
<polygon fill="midnightblue" stroke="midnightblue" points="878.378,-139.371 870.966,-131.801 872.04,-142.341 878.378,-139.371"/>
</g>
<!-- Node6 -->
<g id="node6" class="node"><title>Node6</title>
<polygon fill="none" stroke="#bfbfbf" points="1351.5,-280.5 1351.5,-299.5 1434.5,-299.5 1434.5,-280.5 1351.5,-280.5"/>
<text text-anchor="middle" x="1393" y="-287.5" font-family="Helvetica,sans-Serif" font-size="10.00">unordered_map</text>
</g>
<!-- Node1&#45;&gt;Node6 -->
<g id="edge5" class="edge"><title>Node1&#45;&gt;Node6</title>
<path fill="none" stroke="midnightblue" d="M1096.54,-346.057C1162.98,-333.719 1275.5,-312.822 1341.15,-300.63"/>
<polygon fill="midnightblue" stroke="midnightblue" points="1342.07,-304.018 1351.27,-298.751 1340.79,-297.136 1342.07,-304.018"/>
</g>
<!-- Node7 -->
<g id="node7" class="node"><title>Node7</title>
<polygon fill="none" stroke="#bfbfbf" points="1453,-280.5 1453,-299.5 1509,-299.5 1509,-280.5 1453,-280.5"/>
<text text-anchor="middle" x="1481" y="-287.5" font-family="Helvetica,sans-Serif" font-size="10.00">config.hh</text>
</g>
<!-- Node1&#45;&gt;Node7 -->
<g id="edge6" class="edge"><title>Node1&#45;&gt;Node7</title>
<path fill="none" stroke="midnightblue" d="M1096.64,-350.106C1173.64,-341.279 1319.82,-323.158 1443,-300 1443.1,-299.981 1443.2,-299.962 1443.3,-299.943"/>
<polygon fill="midnightblue" stroke="midnightblue" points="1443.75,-303.424 1452.84,-297.979 1442.34,-296.568 1443.75,-303.424"/>
</g>
<!-- Node8 -->
<g id="node8" class="node"><title>Node8</title>
<g id="a_node8"><a xlink:href="types_8hh.html" target="_top" xlink:title="types.hh">
<polygon fill="none" stroke="black" points="1169,-168.5 1169,-187.5 1223,-187.5 1223,-168.5 1169,-168.5"/>
<text text-anchor="middle" x="1196" y="-175.5" font-family="Helvetica,sans-Serif" font-size="10.00">types.hh</text>
</a>
</g>
</g>
<!-- Node1&#45;&gt;Node8 -->
<g id="edge7" class="edge"><title>Node1&#45;&gt;Node8</title>
<path fill="none" stroke="midnightblue" d="M1096.7,-340.312C1118.37,-331.569 1141.99,-318.593 1158,-300 1183.53,-270.352 1191.93,-223.561 1194.68,-197.712"/>
<polygon fill="midnightblue" stroke="midnightblue" points="1198.16,-198.007 1195.56,-187.736 1191.19,-197.387 1198.16,-198.007"/>
</g>
<!-- Node10 -->
<g id="node10" class="node"><title>Node10</title>
<g id="a_node10"><a xlink:href="arma_8hh.html" target="_top" xlink:title="arma.hh">
<polygon fill="none" stroke="black" points="1205,-224.5 1205,-243.5 1257,-243.5 1257,-224.5 1205,-224.5"/>
<text text-anchor="middle" x="1231" y="-231.5" font-family="Helvetica,sans-Serif" font-size="10.00">arma.hh</text>
</a>
</g>
</g>
<!-- Node1&#45;&gt;Node10 -->
<g id="edge9" class="edge"><title>Node1&#45;&gt;Node10</title>
<path fill="none" stroke="midnightblue" d="M1096.67,-344.796C1126.89,-336.395 1163.89,-322.395 1191,-300 1206.13,-287.505 1217.14,-267.721 1223.73,-253.258"/>
<polygon fill="midnightblue" stroke="midnightblue" points="1227.04,-254.419 1227.75,-243.848 1220.6,-251.67 1227.04,-254.419"/>
</g>
<!-- Node11 -->
<g id="node11" class="node"><title>Node11</title>
<g id="a_node11"><a xlink:href="basic__model_8hh.html" target="_top" xlink:title="generator/basic_model.hh">
<polygon fill="none" stroke="black" points="747,-224.5 747,-243.5 875,-243.5 875,-224.5 747,-224.5"/>
<text text-anchor="middle" x="811" y="-231.5" font-family="Helvetica,sans-Serif" font-size="10.00">generator/basic_model.hh</text>
</a>
</g>
</g>
<!-- Node1&#45;&gt;Node11 -->
<g id="edge11" class="edge"><title>Node1&#45;&gt;Node11</title>
<path fill="none" stroke="midnightblue" d="M989.318,-341.501C958.769,-332.04 920.446,-318.078 889,-300 865.275,-286.361 841.639,-265.359 826.71,-250.941"/>
<polygon fill="midnightblue" stroke="midnightblue" points="828.944,-248.228 819.366,-243.697 824.028,-253.211 828.944,-248.228"/>
</g>
<!-- Node12 -->
<g id="node12" class="node"><title>Node12</title>
<g id="a_node12"><a xlink:href="grid_8hh.html" target="_top" xlink:title="grid.hh">
<polygon fill="none" stroke="black" points="931,-168.5 931,-187.5 977,-187.5 977,-168.5 931,-168.5"/>
<text text-anchor="middle" x="954" y="-175.5" font-family="Helvetica,sans-Serif" font-size="10.00">grid.hh</text>
</a>
</g>
</g>
<!-- Node1&#45;&gt;Node12 -->
<g id="edge45" class="edge"><title>Node1&#45;&gt;Node12</title>
<path fill="none" stroke="midnightblue" d="M1022.94,-336.214C1003.15,-315.314 973.905,-280.399 960,-244 954.37,-229.262 953.089,-211.33 953.092,-198.037"/>
<polygon fill="midnightblue" stroke="midnightblue" points="956.598,-197.83 953.348,-187.746 949.6,-197.656 956.598,-197.83"/>
</g>
<!-- Node18 -->
<g id="node18" class="node"><title>Node18</title>
<g id="a_node18"><a xlink:href="output__flags_8hh.html" target="_top" xlink:title="output_flags.hh">
<polygon fill="none" stroke="black" points="709.5,-168.5 709.5,-187.5 792.5,-187.5 792.5,-168.5 709.5,-168.5"/>
<text text-anchor="middle" x="751" y="-175.5" font-family="Helvetica,sans-Serif" font-size="10.00">output_flags.hh</text>
</a>
</g>
</g>
<!-- Node1&#45;&gt;Node18 -->
<g id="edge44" class="edge"><title>Node1&#45;&gt;Node18</title>
<path fill="none" stroke="midnightblue" d="M989.38,-354.691C917.175,-349.63 791.573,-328.42 738,-244 728.969,-229.77 734.526,-210.548 740.935,-196.703"/>
<polygon fill="midnightblue" stroke="midnightblue" points="744.094,-198.214 745.556,-187.721 737.869,-195.012 744.094,-198.214"/>
</g>
<!-- Node31 -->
<g id="node31" class="node"><title>Node31</title>
<g id="a_node31"><a xlink:href="basic__solver_8hh.html" target="_top" xlink:title="velocity/basic_solver.hh">
<polygon fill="none" stroke="black" points="1027,-280.5 1027,-299.5 1149,-299.5 1149,-280.5 1027,-280.5"/>
<text text-anchor="middle" x="1088" y="-287.5" font-family="Helvetica,sans-Serif" font-size="10.00">velocity/basic_solver.hh</text>
</a>
</g>
</g>
<!-- Node1&#45;&gt;Node31 -->
<g id="edge46" class="edge"><title>Node1&#45;&gt;Node31</title>
<path fill="none" stroke="midnightblue" d="M1056.5,-336.498C1062.8,-327.395 1070.23,-316.662 1076.29,-307.908"/>
<polygon fill="midnightblue" stroke="midnightblue" points="1079.2,-309.867 1082.01,-299.652 1073.44,-305.882 1079.2,-309.867"/>
</g>
<!-- Node34 -->
<g id="node34" class="node"><title>Node34</title>
<g id="a_node34"><a xlink:href="discrete__function_8hh.html" target="_top" xlink:title="discrete_function.hh">
<polygon fill="none" stroke="black" points="969,-224.5 969,-243.5 1073,-243.5 1073,-224.5 969,-224.5"/>
<text text-anchor="middle" x="1021" y="-231.5" font-family="Helvetica,sans-Serif" font-size="10.00">discrete_function.hh</text>
</a>
</g>
</g>
<!-- Node1&#45;&gt;Node34 -->
<g id="edge58" class="edge"><title>Node1&#45;&gt;Node34</title>
<path fill="none" stroke="midnightblue" d="M1031.85,-336.475C1026.51,-326.018 1020.71,-312.704 1018,-300 1014.72,-284.618 1015.9,-266.743 1017.65,-253.635"/>
<polygon fill="midnightblue" stroke="midnightblue" points="1021.14,-253.949 1019.24,-243.526 1014.23,-252.86 1021.14,-253.949"/>
</g>
<!-- Node35 -->
<g id="node35" class="node"><title>Node35</title>
<g id="a_node35"><a xlink:href="util_8hh.html" target="_top" xlink:title="util.hh">
<polygon fill="none" stroke="black" points="1313.5,-168.5 1313.5,-187.5 1356.5,-187.5 1356.5,-168.5 1313.5,-168.5"/>
<text text-anchor="middle" x="1335" y="-175.5" font-family="Helvetica,sans-Serif" font-size="10.00">util.hh</text>
</a>
</g>
</g>
<!-- Node1&#45;&gt;Node35 -->
<g id="edge59" class="edge"><title>Node1&#45;&gt;Node35</title>
<path fill="none" stroke="midnightblue" d="M1096.61,-350.669C1162.77,-343.033 1270.08,-326.859 1299,-300 1327.82,-273.235 1333.92,-224.54 1335,-197.81"/>
<polygon fill="midnightblue" stroke="midnightblue" points="1338.5,-197.596 1335.2,-187.528 1331.5,-197.457 1338.5,-197.596"/>
</g>
<!-- Node9 -->
<g id="node9" class="node"><title>Node9</title>
<polygon fill="none" stroke="#bfbfbf" points="1086,-0.5 1086,-19.5 1154,-19.5 1154,-0.5 1086,-0.5"/>
<text text-anchor="middle" x="1120" y="-7.5" font-family="Helvetica,sans-Serif" font-size="10.00">blitz/array.h</text>
</g>
<!-- Node8&#45;&gt;Node9 -->
<g id="edge8" class="edge"><title>Node8&#45;&gt;Node9</title>
<path fill="none" stroke="midnightblue" d="M1200.69,-168.339C1206.92,-155.641 1216.32,-131.378 1209,-112 1195.22,-75.5205 1161.6,-43.6886 1139.85,-25.9424"/>
<polygon fill="midnightblue" stroke="midnightblue" points="1141.9,-23.1049 1131.89,-19.642 1137.56,-28.5932 1141.9,-23.1049"/>
</g>
<!-- Node10&#45;&gt;Node8 -->
<g id="edge10" class="edge"><title>Node10&#45;&gt;Node8</title>
<path fill="none" stroke="midnightblue" d="M1225.22,-224.083C1220.33,-216.534 1213.17,-205.495 1207.17,-196.23"/>
<polygon fill="midnightblue" stroke="midnightblue" points="1210.05,-194.239 1201.67,-187.751 1204.17,-198.046 1210.05,-194.239"/>
</g>
<!-- Node11&#45;&gt;Node3 -->
<g id="edge12" class="edge"><title>Node11&#45;&gt;Node3</title>
<path fill="none" stroke="midnightblue" d="M810.451,-224.368C809.321,-206.617 806.715,-165.666 805.183,-141.597"/>
<polygon fill="midnightblue" stroke="midnightblue" points="808.675,-141.349 804.547,-131.591 801.689,-141.794 808.675,-141.349"/>
</g>
<!-- Node11&#45;&gt;Node4 -->
<g id="edge13" class="edge"><title>Node11&#45;&gt;Node4</title>
<path fill="none" stroke="midnightblue" d="M875.061,-229.165C953.256,-223.551 1080.13,-211.155 1121,-188 1140.33,-177.049 1155.45,-156.062 1164.5,-140.892"/>
<polygon fill="midnightblue" stroke="midnightblue" points="1167.7,-142.356 1169.56,-131.928 1161.6,-138.915 1167.7,-142.356"/>
</g>
<!-- Node11&#45;&gt;Node8 -->
<g id="edge43" class="edge"><title>Node11&#45;&gt;Node8</title>
<path fill="none" stroke="midnightblue" d="M875.285,-226.263C944.58,-218.612 1057.99,-204.96 1155,-188 1156.25,-187.781 1157.52,-187.55 1158.81,-187.31"/>
<polygon fill="midnightblue" stroke="midnightblue" points="1159.6,-190.722 1168.72,-185.331 1158.23,-183.857 1159.6,-190.722"/>
</g>
<!-- Node11&#45;&gt;Node12 -->
<g id="edge14" class="edge"><title>Node11&#45;&gt;Node12</title>
<path fill="none" stroke="midnightblue" d="M833.659,-224.444C857.402,-215.478 894.909,-201.314 921.738,-191.183"/>
<polygon fill="midnightblue" stroke="midnightblue" points="923.329,-194.324 931.447,-187.516 920.856,-187.775 923.329,-194.324"/>
</g>
<!-- Node11&#45;&gt;Node18 -->
<g id="edge24" class="edge"><title>Node11&#45;&gt;Node18</title>
<path fill="none" stroke="midnightblue" d="M801.36,-224.324C792.49,-216.341 779.125,-204.313 768.392,-194.653"/>
<polygon fill="midnightblue" stroke="midnightblue" points="770.59,-191.922 760.815,-187.834 765.907,-197.125 770.59,-191.922"/>
</g>
<!-- Node21 -->
<g id="node21" class="node"><title>Node21</title>
<g id="a_node21"><a xlink:href="parallel__mt_8hh.html" target="_top" xlink:title="parallel_mt.hh">
<polygon fill="none" stroke="black" points="343.5,-168.5 343.5,-187.5 420.5,-187.5 420.5,-168.5 343.5,-168.5"/>
<text text-anchor="middle" x="382" y="-175.5" font-family="Helvetica,sans-Serif" font-size="10.00">parallel_mt.hh</text>
</a>
</g>
</g>
<!-- Node11&#45;&gt;Node21 -->
<g id="edge30" class="edge"><title>Node11&#45;&gt;Node21</title>
<path fill="none" stroke="midnightblue" d="M746.774,-224.916C660.314,-214.033 508.394,-194.91 430.722,-185.133"/>
<polygon fill="midnightblue" stroke="midnightblue" points="431.08,-181.65 420.721,-183.874 430.206,-188.596 431.08,-181.65"/>
</g>
<!-- Node12&#45;&gt;Node3 -->
<g id="edge16" class="edge"><title>Node12&#45;&gt;Node3</title>
<path fill="none" stroke="midnightblue" d="M930.891,-168.681C905.897,-159.683 865.822,-145.256 837.402,-135.025"/>
<polygon fill="midnightblue" stroke="midnightblue" points="838.474,-131.691 827.879,-131.597 836.103,-138.277 838.474,-131.691"/>
</g>
<!-- Node13 -->
<g id="node13" class="node"><title>Node13</title>
<polygon fill="none" stroke="#bfbfbf" points="971,-0.5 971,-19.5 1015,-19.5 1015,-0.5 971,-0.5"/>
<text text-anchor="middle" x="993" y="-7.5" font-family="Helvetica,sans-Serif" font-size="10.00">cmath</text>
</g>
<!-- Node12&#45;&gt;Node13 -->
<g id="edge15" class="edge"><title>Node12&#45;&gt;Node13</title>
<path fill="none" stroke="midnightblue" d="M952.791,-168.464C950.268,-148.228 945.785,-96.0377 960,-56 963.713,-45.5407 970.712,-35.4308 977.312,-27.4521"/>
<polygon fill="midnightblue" stroke="midnightblue" points="980.148,-29.5282 984.142,-19.7153 974.9,-24.8953 980.148,-29.5282"/>
</g>
<!-- Node14 -->
<g id="node14" class="node"><title>Node14</title>
<g id="a_node14"><a xlink:href="blitz_8hh.html" target="_top" xlink:title="blitz.hh">
<polygon fill="none" stroke="black" points="969,-56.5 969,-75.5 1017,-75.5 1017,-56.5 969,-56.5"/>
<text text-anchor="middle" x="993" y="-63.5" font-family="Helvetica,sans-Serif" font-size="10.00">blitz.hh</text>
</a>
</g>
</g>
<!-- Node12&#45;&gt;Node14 -->
<g id="edge17" class="edge"><title>Node12&#45;&gt;Node14</title>
<path fill="none" stroke="midnightblue" d="M956.104,-168.469C959.283,-155.933 965.717,-131.87 973,-112 976.31,-102.969 980.573,-93.1855 984.312,-85.0543"/>
<polygon fill="midnightblue" stroke="midnightblue" points="987.567,-86.3585 988.658,-75.8199 981.233,-83.378 987.567,-86.3585"/>
</g>
<!-- Node16 -->
<g id="node16" class="node"><title>Node16</title>
<g id="a_node16"><a xlink:href="validators_8hh.html" target="_top" xlink:title="validators.hh">
<polygon fill="none" stroke="black" points="982,-112.5 982,-131.5 1054,-131.5 1054,-112.5 982,-112.5"/>
<text text-anchor="middle" x="1018" y="-119.5" font-family="Helvetica,sans-Serif" font-size="10.00">validators.hh</text>
</a>
</g>
</g>
<!-- Node12&#45;&gt;Node16 -->
<g id="edge21" class="edge"><title>Node12&#45;&gt;Node16</title>
<path fill="none" stroke="midnightblue" d="M964.283,-168.324C973.836,-160.263 988.28,-148.077 999.784,-138.369"/>
<polygon fill="midnightblue" stroke="midnightblue" points="1002.14,-140.958 1007.53,-131.834 997.63,-135.608 1002.14,-140.958"/>
</g>
<!-- Node14&#45;&gt;Node9 -->
<g id="edge19" class="edge"><title>Node14&#45;&gt;Node9</title>
<path fill="none" stroke="midnightblue" d="M1013.12,-56.4435C1034.02,-47.5566 1066.93,-33.5632 1090.72,-23.4514"/>
<polygon fill="midnightblue" stroke="midnightblue" points="1092.14,-26.6504 1099.97,-19.5164 1089.4,-20.2085 1092.14,-26.6504"/>
</g>
<!-- Node14&#45;&gt;Node13 -->
<g id="edge20" class="edge"><title>Node14&#45;&gt;Node13</title>
<path fill="none" stroke="midnightblue" d="M993,-56.083C993,-49.0059 993,-38.8611 993,-29.9865"/>
<polygon fill="midnightblue" stroke="midnightblue" points="996.5,-29.751 993,-19.7511 989.5,-29.7511 996.5,-29.751"/>
</g>
<!-- Node15 -->
<g id="node15" class="node"><title>Node15</title>
<polygon fill="none" stroke="#bfbfbf" points="626,-0.5 626,-19.5 682,-19.5 682,-0.5 626,-0.5"/>
<text text-anchor="middle" x="654" y="-7.5" font-family="Helvetica,sans-Serif" font-size="10.00">algorithm</text>
</g>
<!-- Node14&#45;&gt;Node15 -->
<g id="edge18" class="edge"><title>Node14&#45;&gt;Node15</title>
<path fill="none" stroke="midnightblue" d="M968.892,-61.1597C910.909,-51.9235 763.245,-28.4018 692.684,-17.1621"/>
<polygon fill="midnightblue" stroke="midnightblue" points="692.876,-13.6486 682.45,-15.5318 691.775,-20.5614 692.876,-13.6486"/>
</g>
<!-- Node16&#45;&gt;Node14 -->
<g id="edge23" class="edge"><title>Node16&#45;&gt;Node14</title>
<path fill="none" stroke="midnightblue" d="M1013.87,-112.083C1010.49,-104.77 1005.58,-94.1814 1001.38,-85.1034"/>
<polygon fill="midnightblue" stroke="midnightblue" points="1004.43,-83.3553 997.051,-75.7511 998.077,-86.2962 1004.43,-83.3553"/>
</g>
<!-- Node17 -->
<g id="node17" class="node"><title>Node17</title>
<polygon fill="none" stroke="#bfbfbf" points="705.5,-56.5 705.5,-75.5 764.5,-75.5 764.5,-56.5 705.5,-56.5"/>
<text text-anchor="middle" x="735" y="-63.5" font-family="Helvetica,sans-Serif" font-size="10.00">stdexcept</text>
</g>
<!-- Node16&#45;&gt;Node17 -->
<g id="edge22" class="edge"><title>Node16&#45;&gt;Node17</title>
<path fill="none" stroke="midnightblue" d="M981.87,-114.106C928.815,-103.982 830.163,-85.1584 774.99,-74.6306"/>
<polygon fill="midnightblue" stroke="midnightblue" points="775.367,-71.1394 764.888,-72.703 774.055,-78.0154 775.367,-71.1394"/>
</g>
<!-- Node18&#45;&gt;Node3 -->
<g id="edge26" class="edge"><title>Node18&#45;&gt;Node3</title>
<path fill="none" stroke="midnightblue" d="M759.752,-168.083C767.47,-160.22 778.905,-148.569 788.217,-139.081"/>
<polygon fill="midnightblue" stroke="midnightblue" points="790.904,-141.34 795.411,-131.751 785.908,-136.436 790.904,-141.34"/>
</g>
<!-- Node18&#45;&gt;Node4 -->
<g id="edge27" class="edge"><title>Node18&#45;&gt;Node4</title>
<path fill="none" stroke="midnightblue" d="M792.717,-171.674C875.529,-161.103 1059.42,-137.628 1137.64,-127.641"/>
<polygon fill="midnightblue" stroke="midnightblue" points="1138.48,-131.063 1147.96,-126.324 1137.6,-124.119 1138.48,-131.063"/>
</g>
<!-- Node18&#45;&gt;Node5 -->
<g id="edge28" class="edge"><title>Node18&#45;&gt;Node5</title>
<path fill="none" stroke="midnightblue" d="M769.381,-168.444C788.216,-159.675 817.731,-145.935 839.379,-135.858"/>
<polygon fill="midnightblue" stroke="midnightblue" points="841.117,-138.91 848.705,-131.516 838.162,-132.564 841.117,-138.91"/>
</g>
<!-- Node19 -->
<g id="node19" class="node"><title>Node19</title>
<polygon fill="none" stroke="#bfbfbf" points="720.5,-112.5 720.5,-131.5 761.5,-131.5 761.5,-112.5 720.5,-112.5"/>
<text text-anchor="middle" x="741" y="-119.5" font-family="Helvetica,sans-Serif" font-size="10.00">bitset</text>
</g>
<!-- Node18&#45;&gt;Node19 -->
<g id="edge25" class="edge"><title>Node18&#45;&gt;Node19</title>
<path fill="none" stroke="midnightblue" d="M749.349,-168.083C748.024,-160.927 746.118,-150.635 744.461,-141.691"/>
<polygon fill="midnightblue" stroke="midnightblue" points="747.883,-140.947 742.621,-131.751 741,-142.221 747.883,-140.947"/>
</g>
<!-- Node20 -->
<g id="node20" class="node"><title>Node20</title>
<polygon fill="none" stroke="#bfbfbf" points="640,-112.5 640,-131.5 702,-131.5 702,-112.5 640,-112.5"/>
<text text-anchor="middle" x="671" y="-119.5" font-family="Helvetica,sans-Serif" font-size="10.00">type_traits</text>
</g>
<!-- Node18&#45;&gt;Node20 -->
<g id="edge29" class="edge"><title>Node18&#45;&gt;Node20</title>
<path fill="none" stroke="midnightblue" d="M738.147,-168.324C725.784,-159.979 706.87,-147.212 692.263,-137.352"/>
<polygon fill="midnightblue" stroke="midnightblue" points="694.068,-134.348 683.821,-131.655 690.152,-140.15 694.068,-134.348"/>
</g>
<!-- Node21&#45;&gt;Node3 -->
<g id="edge35" class="edge"><title>Node21&#45;&gt;Node3</title>
<path fill="none" stroke="midnightblue" d="M420.55,-174.369C488.886,-169.308 635.834,-156.639 769.224,-131.882"/>
<polygon fill="midnightblue" stroke="midnightblue" points="770.032,-135.292 779.212,-130.001 768.736,-128.413 770.032,-135.292"/>
</g>
<!-- Node21&#45;&gt;Node15 -->
<g id="edge32" class="edge"><title>Node21&#45;&gt;Node15</title>
<path fill="none" stroke="midnightblue" d="M382.211,-168.266C383,-154.584 386.45,-128.009 401,-112 458.375,-48.87 560.499,-24.5604 615.83,-15.7069"/>
<polygon fill="midnightblue" stroke="midnightblue" points="616.555,-19.1371 625.92,-14.1815 615.509,-12.2157 616.555,-19.1371"/>
</g>
<!-- Node21&#45;&gt;Node17 -->
<g id="edge37" class="edge"><title>Node21&#45;&gt;Node17</title>
<path fill="none" stroke="midnightblue" d="M420.611,-172.015C463.603,-165.725 534.712,-153.099 593,-132 610.946,-125.504 613.785,-120.24 631,-112 655.511,-100.268 683.848,-88.0958 704.747,-79.3738"/>
<polygon fill="midnightblue" stroke="midnightblue" points="706.176,-82.57 714.072,-75.505 703.494,-76.1044 706.176,-82.57"/>
</g>
<!-- Node22 -->
<g id="node22" class="node"><title>Node22</title>
<polygon fill="none" stroke="#bfbfbf" points="410.5,-112.5 410.5,-131.5 455.5,-131.5 455.5,-112.5 410.5,-112.5"/>
<text text-anchor="middle" x="433" y="-119.5" font-family="Helvetica,sans-Serif" font-size="10.00">cstdlib</text>
</g>
<!-- Node21&#45;&gt;Node22 -->
<g id="edge31" class="edge"><title>Node21&#45;&gt;Node22</title>
<path fill="none" stroke="midnightblue" d="M390.422,-168.083C397.848,-160.22 408.852,-148.569 417.812,-139.081"/>
<polygon fill="midnightblue" stroke="midnightblue" points="420.413,-141.424 424.735,-131.751 415.324,-136.618 420.413,-141.424"/>
</g>
<!-- Node23 -->
<g id="node23" class="node"><title>Node23</title>
<polygon fill="none" stroke="#bfbfbf" points="474,-112.5 474,-131.5 520,-131.5 520,-112.5 474,-112.5"/>
<text text-anchor="middle" x="497" y="-119.5" font-family="Helvetica,sans-Serif" font-size="10.00">cstdint</text>
</g>
<!-- Node21&#45;&gt;Node23 -->
<g id="edge33" class="edge"><title>Node21&#45;&gt;Node23</title>
<path fill="none" stroke="midnightblue" d="M400.222,-168.444C418.896,-159.675 448.156,-145.935 469.617,-135.858"/>
<polygon fill="midnightblue" stroke="midnightblue" points="471.299,-138.935 478.863,-131.516 468.324,-132.599 471.299,-138.935"/>
</g>
<!-- Node24 -->
<g id="node24" class="node"><title>Node24</title>
<polygon fill="none" stroke="#bfbfbf" points="538,-112.5 538,-131.5 584,-131.5 584,-112.5 538,-112.5"/>
<text text-anchor="middle" x="561" y="-119.5" font-family="Helvetica,sans-Serif" font-size="10.00">cstring</text>
</g>
<!-- Node21&#45;&gt;Node24 -->
<g id="edge34" class="edge"><title>Node21&#45;&gt;Node24</title>
<path fill="none" stroke="midnightblue" d="M410.363,-168.444C442.346,-158.795 494.282,-143.127 528.041,-132.943"/>
<polygon fill="midnightblue" stroke="midnightblue" points="529.33,-136.21 537.893,-129.971 527.308,-129.508 529.33,-136.21"/>
</g>
<!-- Node25 -->
<g id="node25" class="node"><title>Node25</title>
<polygon fill="none" stroke="#bfbfbf" points="0,-112.5 0,-131.5 40,-131.5 40,-112.5 0,-112.5"/>
<text text-anchor="middle" x="20" y="-119.5" font-family="Helvetica,sans-Serif" font-size="10.00">limits</text>
</g>
<!-- Node21&#45;&gt;Node25 -->
<g id="edge36" class="edge"><title>Node21&#45;&gt;Node25</title>
<path fill="none" stroke="midnightblue" d="M343.43,-173.891C282.842,-168.551 161.61,-156.033 50.2226,-131.942"/>
<polygon fill="midnightblue" stroke="midnightblue" points="50.6846,-128.46 40.1661,-129.729 49.1802,-135.297 50.6846,-128.46"/>
</g>
<!-- Node26 -->
<g id="node26" class="node"><title>Node26</title>
<polygon fill="none" stroke="#bfbfbf" points="58,-112.5 58,-131.5 102,-131.5 102,-112.5 58,-112.5"/>
<text text-anchor="middle" x="80" y="-119.5" font-family="Helvetica,sans-Serif" font-size="10.00">vector</text>
</g>
<!-- Node21&#45;&gt;Node26 -->
<g id="edge38" class="edge"><title>Node21&#45;&gt;Node26</title>
<path fill="none" stroke="midnightblue" d="M343.126,-172.015C292.157,-165.157 199.831,-151.632 112.112,-132.036"/>
<polygon fill="midnightblue" stroke="midnightblue" points="112.795,-128.602 102.269,-129.806 111.249,-135.429 112.795,-128.602"/>
</g>
<!-- Node27 -->
<g id="node27" class="node"><title>Node27</title>
<polygon fill="none" stroke="#bfbfbf" points="120,-112.5 120,-131.5 170,-131.5 170,-112.5 120,-112.5"/>
<text text-anchor="middle" x="145" y="-119.5" font-family="Helvetica,sans-Serif" font-size="10.00">fstream</text>
</g>
<!-- Node21&#45;&gt;Node27 -->
<g id="edge39" class="edge"><title>Node21&#45;&gt;Node27</title>
<path fill="none" stroke="midnightblue" d="M343.353,-168.921C304.509,-160.693 242.681,-147.303 180.245,-132.231"/>
<polygon fill="midnightblue" stroke="midnightblue" points="180.765,-128.756 170.222,-129.798 179.114,-135.559 180.765,-128.756"/>
</g>
<!-- Node28 -->
<g id="node28" class="node"><title>Node28</title>
<polygon fill="none" stroke="#bfbfbf" points="188.5,-112.5 188.5,-131.5 235.5,-131.5 235.5,-112.5 188.5,-112.5"/>
<text text-anchor="middle" x="212" y="-119.5" font-family="Helvetica,sans-Serif" font-size="10.00">iterator</text>
</g>
<!-- Node21&#45;&gt;Node28 -->
<g id="edge40" class="edge"><title>Node21&#45;&gt;Node28</title>
<path fill="none" stroke="midnightblue" d="M355.063,-168.444C325.326,-158.998 277.427,-143.783 245.344,-133.592"/>
<polygon fill="midnightblue" stroke="midnightblue" points="246.117,-130.165 235.526,-130.473 243.997,-136.836 246.117,-130.165"/>
</g>
<!-- Node29 -->
<g id="node29" class="node"><title>Node29</title>
<polygon fill="none" stroke="#bfbfbf" points="254,-112.5 254,-131.5 300,-131.5 300,-112.5 254,-112.5"/>
<text text-anchor="middle" x="277" y="-119.5" font-family="Helvetica,sans-Serif" font-size="10.00">chrono</text>
</g>
<!-- Node21&#45;&gt;Node29 -->
<g id="edge41" class="edge"><title>Node21&#45;&gt;Node29</title>
<path fill="none" stroke="midnightblue" d="M365.13,-168.324C348.291,-159.664 322.193,-146.242 302.762,-136.249"/>
<polygon fill="midnightblue" stroke="midnightblue" points="304.322,-133.116 293.828,-131.655 301.12,-139.341 304.322,-133.116"/>
</g>
<!-- Node30 -->
<g id="node30" class="node"><title>Node30</title>
<polygon fill="none" stroke="#bfbfbf" points="318.5,-112.5 318.5,-131.5 353.5,-131.5 353.5,-112.5 318.5,-112.5"/>
<text text-anchor="middle" x="336" y="-119.5" font-family="Helvetica,sans-Serif" font-size="10.00">dc.h</text>
</g>
<!-- Node21&#45;&gt;Node30 -->
<g id="edge42" class="edge"><title>Node21&#45;&gt;Node30</title>
<path fill="none" stroke="midnightblue" d="M374.404,-168.083C367.773,-160.298 357.979,-148.801 349.942,-139.367"/>
<polygon fill="midnightblue" stroke="midnightblue" points="352.604,-137.094 343.455,-131.751 347.275,-141.633 352.604,-137.094"/>
</g>
<!-- Node31&#45;&gt;Node8 -->
<g id="edge47" class="edge"><title>Node31&#45;&gt;Node8</title>
<path fill="none" stroke="midnightblue" d="M1096.47,-280.368C1114.61,-261.894 1157.42,-218.293 1180.54,-194.744"/>
<polygon fill="midnightblue" stroke="midnightblue" points="1183.06,-197.179 1187.56,-187.591 1178.06,-192.275 1183.06,-197.179"/>
</g>
<!-- Node32 -->
<g id="node32" class="node"><title>Node32</title>
<g id="a_node32"><a xlink:href="domain_8hh.html" target="_top" xlink:title="domain.hh">
<polygon fill="none" stroke="black" points="1051,-168.5 1051,-187.5 1113,-187.5 1113,-168.5 1051,-168.5"/>
<text text-anchor="middle" x="1082" y="-175.5" font-family="Helvetica,sans-Serif" font-size="10.00">domain.hh</text>
</a>
</g>
</g>
<!-- Node31&#45;&gt;Node32 -->
<g id="edge48" class="edge"><title>Node31&#45;&gt;Node32</title>
<path fill="none" stroke="midnightblue" d="M1087.53,-280.368C1086.56,-262.617 1084.33,-221.666 1083.01,-197.597"/>
<polygon fill="midnightblue" stroke="midnightblue" points="1086.51,-197.386 1082.47,-187.591 1079.52,-197.767 1086.51,-197.386"/>
</g>
<!-- Node31&#45;&gt;Node34 -->
<g id="edge55" class="edge"><title>Node31&#45;&gt;Node34</title>
<path fill="none" stroke="midnightblue" d="M1077.24,-280.324C1067.23,-272.263 1052.11,-260.077 1040.07,-250.369"/>
<polygon fill="midnightblue" stroke="midnightblue" points="1041.94,-247.384 1031.96,-243.834 1037.55,-252.834 1041.94,-247.384"/>
</g>
<!-- Node32&#45;&gt;Node3 -->
<g id="edge51" class="edge"><title>Node32&#45;&gt;Node3</title>
<path fill="none" stroke="midnightblue" d="M1050.65,-172.005C1005.87,-164.702 920.847,-150.202 838.815,-132.039"/>
<polygon fill="midnightblue" stroke="midnightblue" points="839.351,-128.573 828.829,-129.807 837.824,-135.404 839.351,-128.573"/>
</g>
<!-- Node32&#45;&gt;Node4 -->
<g id="edge52" class="edge"><title>Node32&#45;&gt;Node4</title>
<path fill="none" stroke="midnightblue" d="M1096.78,-168.324C1111.27,-159.822 1133.57,-146.729 1150.49,-136.797"/>
<polygon fill="midnightblue" stroke="midnightblue" points="1152.4,-139.735 1159.26,-131.655 1148.86,-133.698 1152.4,-139.735"/>
</g>
<!-- Node32&#45;&gt;Node9 -->
<g id="edge53" class="edge"><title>Node32&#45;&gt;Node9</title>
<path fill="none" stroke="midnightblue" d="M1084.96,-168.45C1088,-159.455 1092.74,-144.847 1096,-132 1105.11,-96.1452 1112.85,-53.5872 1116.92,-29.6959"/>
<polygon fill="midnightblue" stroke="midnightblue" points="1120.42,-30.019 1118.62,-19.5781 1113.52,-28.8622 1120.42,-30.019"/>
</g>
<!-- Node32&#45;&gt;Node13 -->
<g id="edge49" class="edge"><title>Node32&#45;&gt;Node13</title>
<path fill="none" stroke="midnightblue" d="M1080.32,-168.292C1077.68,-155.535 1071.9,-131.199 1063,-112 1047.98,-79.6055 1022.68,-46.3986 1006.96,-27.2878"/>
<polygon fill="midnightblue" stroke="midnightblue" points="1009.59,-24.973 1000.48,-19.5527 1004.22,-29.4669 1009.59,-24.973"/>
</g>
<!-- Node32&#45;&gt;Node16 -->
<g id="edge54" class="edge"><title>Node32&#45;&gt;Node16</title>
<path fill="none" stroke="midnightblue" d="M1071.72,-168.324C1062.16,-160.263 1047.72,-148.077 1036.22,-138.369"/>
<polygon fill="midnightblue" stroke="midnightblue" points="1038.37,-135.608 1028.47,-131.834 1033.86,-140.958 1038.37,-135.608"/>
</g>
<!-- Node33 -->
<g id="node33" class="node"><title>Node33</title>
<polygon fill="none" stroke="#bfbfbf" points="1256,-112.5 1256,-131.5 1306,-131.5 1306,-112.5 1256,-112.5"/>
<text text-anchor="middle" x="1281" y="-119.5" font-family="Helvetica,sans-Serif" font-size="10.00">iomanip</text>
</g>
<!-- Node32&#45;&gt;Node33 -->
<g id="edge50" class="edge"><title>Node32&#45;&gt;Node33</title>
<path fill="none" stroke="midnightblue" d="M1113.09,-168.562C1149.06,-158.801 1208.15,-142.767 1245.79,-132.555"/>
<polygon fill="midnightblue" stroke="midnightblue" points="1247.06,-135.836 1255.8,-129.839 1245.23,-129.08 1247.06,-135.836"/>
</g>
<!-- Node34&#45;&gt;Node8 -->
<g id="edge57" class="edge"><title>Node34&#45;&gt;Node8</title>
<path fill="none" stroke="midnightblue" d="M1048.73,-224.444C1078.6,-215.226 1126.27,-200.516 1159.25,-190.34"/>
<polygon fill="midnightblue" stroke="midnightblue" points="1160.45,-193.632 1168.98,-187.339 1158.39,-186.943 1160.45,-193.632"/>
</g>
<!-- Node34&#45;&gt;Node12 -->
<g id="edge56" class="edge"><title>Node34&#45;&gt;Node12</title>
<path fill="none" stroke="midnightblue" d="M1010.24,-224.324C1000.23,-216.263 985.113,-204.077 973.07,-194.369"/>
<polygon fill="midnightblue" stroke="midnightblue" points="974.943,-191.384 964.961,-187.834 970.55,-196.834 974.943,-191.384"/>
</g>
<!-- Node35&#45;&gt;Node4 -->
<g id="edge60" class="edge"><title>Node35&#45;&gt;Node4</title>
<path fill="none" stroke="midnightblue" d="M1313.29,-169.717C1286.64,-160.781 1241.11,-145.509 1209.38,-134.868"/>
<polygon fill="midnightblue" stroke="midnightblue" points="1210.2,-131.452 1199.61,-131.59 1207.98,-138.088 1210.2,-131.452"/>
</g>
<!-- Node35&#45;&gt;Node33 -->
<g id="edge62" class="edge"><title>Node35&#45;&gt;Node33</title>
<path fill="none" stroke="midnightblue" d="M1326.08,-168.083C1318.22,-160.22 1306.57,-148.569 1297.08,-139.081"/>
<polygon fill="midnightblue" stroke="midnightblue" points="1299.3,-136.347 1289.75,-131.751 1294.35,-141.297 1299.3,-136.347"/>
</g>
<!-- Node36 -->
<g id="node36" class="node"><title>Node36</title>
<polygon fill="none" stroke="#bfbfbf" points="1385.5,-112.5 1385.5,-131.5 1414.5,-131.5 1414.5,-112.5 1385.5,-112.5"/>
<text text-anchor="middle" x="1400" y="-119.5" font-family="Helvetica,sans-Serif" font-size="10.00">ios</text>
</g>
<!-- Node35&#45;&gt;Node36 -->
<g id="edge61" class="edge"><title>Node35&#45;&gt;Node36</title>
<path fill="none" stroke="midnightblue" d="M1345.44,-168.324C1355.15,-160.263 1369.82,-148.077 1381.5,-138.369"/>
<polygon fill="midnightblue" stroke="midnightblue" points="1383.91,-140.916 1389.37,-131.834 1379.44,-135.532 1383.91,-140.916"/>
</g>
<!-- Node37 -->
<g id="node37" class="node"><title>Node37</title>
<polygon fill="none" stroke="#bfbfbf" points="1324,-112.5 1324,-131.5 1368,-131.5 1368,-112.5 1324,-112.5"/>
<text text-anchor="middle" x="1346" y="-119.5" font-family="Helvetica,sans-Serif" font-size="10.00">mutex</text>
</g>
<!-- Node35&#45;&gt;Node37 -->
<g id="edge63" class="edge"><title>Node35&#45;&gt;Node37</title>
<path fill="none" stroke="midnightblue" d="M1336.82,-168.083C1338.27,-160.927 1340.37,-150.635 1342.19,-141.691"/>
<polygon fill="midnightblue" stroke="midnightblue" points="1345.65,-142.248 1344.22,-131.751 1338.79,-140.851 1345.65,-142.248"/>
</g>
</g>
</svg>
