<?xml version="1.0" encoding="UTF-8" standalone="no"?>
<!DOCTYPE svg PUBLIC "-//W3C//DTD SVG 1.1//EN"
 "http://www.w3.org/Graphics/SVG/1.1/DTD/svg11.dtd">
<!-- Generated by graphviz version 2.36.0 (20140111.2315)
 -->
<!-- Title: /home/travis/build/igankevich/arma/src/arma.hh Pages: 1 -->
<svg width="831pt" height="464pt"
 viewBox="0.00 0.00 831.00 464.00" xmlns="http://www.w3.org/2000/svg" xmlns:xlink="http://www.w3.org/1999/xlink">
<g id="graph0" class="graph" transform="scale(1 1) rotate(0) translate(4 460)">
<title>/home/travis/build/igankevich/arma/src/arma.hh</title>
<!-- Node1 -->
<g id="node1" class="node"><title>Node1</title>
<polygon fill="#bfbfbf" stroke="black" points="363.5,-414.5 363.5,-455.5 470.5,-455.5 470.5,-414.5 363.5,-414.5"/>
<text text-anchor="start" x="371.5" y="-443.5" font-family="Helvetica,sans-Serif" font-size="10.00">/home/travis/build</text>
<text text-anchor="start" x="371.5" y="-432.5" font-family="Helvetica,sans-Serif" font-size="10.00">/igankevich/arma/src</text>
<text text-anchor="middle" x="417" y="-421.5" font-family="Helvetica,sans-Serif" font-size="10.00">/arma.hh</text>
</g>
<!-- Node2 -->
<g id="node2" class="node"><title>Node2</title>
<g id="a_node2"><a xlink:href="arma_8cc.html" target="_top" xlink:title="/home/travis/build\l/igankevich/arma/src\l/arma.cc">
<polygon fill="none" stroke="black" points="19.5,-330.5 19.5,-371.5 126.5,-371.5 126.5,-330.5 19.5,-330.5"/>
<text text-anchor="start" x="27.5" y="-359.5" font-family="Helvetica,sans-Serif" font-size="10.00">/home/travis/build</text>
<text text-anchor="start" x="27.5" y="-348.5" font-family="Helvetica,sans-Serif" font-size="10.00">/igankevich/arma/src</text>
<text text-anchor="middle" x="73" y="-337.5" font-family="Helvetica,sans-Serif" font-size="10.00">/arma.cc</text>
</a>
</g>
</g>
<!-- Node1&#45;&gt;Node2 -->
<g id="edge1" class="edge"><title>Node1&#45;&gt;Node2</title>
<path fill="none" stroke="midnightblue" d="M353.257,-424.141C296.848,-414.691 212.606,-398.799 141,-378 134.567,-376.131 127.883,-373.922 121.328,-371.593"/>
<polygon fill="midnightblue" stroke="midnightblue" points="353.02,-427.649 363.457,-425.83 354.163,-420.743 353.02,-427.649"/>
</g>
<!-- Node3 -->
<g id="node3" class="node"><title>Node3</title>
<g id="a_node3"><a xlink:href="arma__driver_8hh.html" target="_top" xlink:title="/home/travis/build\l/igankevich/arma/src\l/arma_driver.hh">
<polygon fill="none" stroke="black" points="101.5,-156.5 101.5,-197.5 208.5,-197.5 208.5,-156.5 101.5,-156.5"/>
<text text-anchor="start" x="109.5" y="-185.5" font-family="Helvetica,sans-Serif" font-size="10.00">/home/travis/build</text>
<text text-anchor="start" x="109.5" y="-174.5" font-family="Helvetica,sans-Serif" font-size="10.00">/igankevich/arma/src</text>
<text text-anchor="middle" x="155" y="-163.5" font-family="Helvetica,sans-Serif" font-size="10.00">/arma_driver.hh</text>
</a>
</g>
</g>
<!-- Node1&#45;&gt;Node3 -->
<g id="edge2" class="edge"><title>Node1&#45;&gt;Node3</title>
<path fill="none" stroke="midnightblue" d="M353.953,-415.599C295.784,-394.915 212.75,-355.126 174,-288 157.625,-259.635 154.59,-220.782 154.418,-197.65"/>
<polygon fill="midnightblue" stroke="midnightblue" points="352.83,-418.914 363.424,-418.877 355.119,-412.299 352.83,-418.914"/>
</g>
<!-- Node10 -->
<g id="node10" class="node"><title>Node10</title>
<g id="a_node10"><a xlink:href="ar__model_8hh.html" target="_top" xlink:title="/home/travis/build\l/igankevich/arma/src\l/generator/ar_model.hh">
<polygon fill="none" stroke="black" points="291,-330.5 291,-371.5 407,-371.5 407,-330.5 291,-330.5"/>
<text text-anchor="start" x="299" y="-359.5" font-family="Helvetica,sans-Serif" font-size="10.00">/home/travis/build</text>
<text text-anchor="start" x="299" y="-348.5" font-family="Helvetica,sans-Serif" font-size="10.00">/igankevich/arma/src</text>
<text text-anchor="middle" x="349" y="-337.5" font-family="Helvetica,sans-Serif" font-size="10.00">/generator/ar_model.hh</text>
</a>
</g>
</g>
<!-- Node1&#45;&gt;Node10 -->
<g id="edge9" class="edge"><title>Node1&#45;&gt;Node10</title>
<path fill="none" stroke="midnightblue" d="M393.958,-406.214C384.55,-394.869 373.888,-382.012 365.309,-371.667"/>
<polygon fill="midnightblue" stroke="midnightblue" points="391.462,-408.687 400.539,-414.15 396.85,-404.218 391.462,-408.687"/>
</g>
<!-- Node16 -->
<g id="node16" class="node"><title>Node16</title>
<g id="a_node16"><a xlink:href="ma__model_8hh.html" target="_top" xlink:title="/home/travis/build\l/igankevich/arma/src\l/generator/ma_model.hh">
<polygon fill="none" stroke="black" points="425,-330.5 425,-371.5 547,-371.5 547,-330.5 425,-330.5"/>
<text text-anchor="start" x="433" y="-359.5" font-family="Helvetica,sans-Serif" font-size="10.00">/home/travis/build</text>
<text text-anchor="start" x="433" y="-348.5" font-family="Helvetica,sans-Serif" font-size="10.00">/igankevich/arma/src</text>
<text text-anchor="middle" x="486" y="-337.5" font-family="Helvetica,sans-Serif" font-size="10.00">/generator/ma_model.hh</text>
</a>
</g>
</g>
<!-- Node1&#45;&gt;Node16 -->
<g id="edge19" class="edge"><title>Node1&#45;&gt;Node16</title>
<path fill="none" stroke="midnightblue" d="M440.381,-406.214C449.928,-394.869 460.746,-382.012 469.451,-371.667"/>
<polygon fill="midnightblue" stroke="midnightblue" points="437.463,-404.245 433.703,-414.15 442.82,-408.752 437.463,-404.245"/>
</g>
<!-- Node18 -->
<g id="node18" class="node"><title>Node18</title>
<g id="a_node18"><a xlink:href="basic__arma__model_8cc.html" target="_top" xlink:title="/home/travis/build\l/igankevich/arma/src\l/generator/basic_arma\l_model.cc">
<polygon fill="none" stroke="black" points="710.5,-325 710.5,-377 823.5,-377 823.5,-325 710.5,-325"/>
<text text-anchor="start" x="718.5" y="-365" font-family="Helvetica,sans-Serif" font-size="10.00">/home/travis/build</text>
<text text-anchor="start" x="718.5" y="-354" font-family="Helvetica,sans-Serif" font-size="10.00">/igankevich/arma/src</text>
<text text-anchor="start" x="718.5" y="-343" font-family="Helvetica,sans-Serif" font-size="10.00">/generator/basic_arma</text>
<text text-anchor="middle" x="767" y="-332" font-family="Helvetica,sans-Serif" font-size="10.00">_model.cc</text>
</a>
</g>
</g>
<!-- Node1&#45;&gt;Node18 -->
<g id="edge23" class="edge"><title>Node1&#45;&gt;Node18</title>
<path fill="none" stroke="midnightblue" d="M480.687,-424.819C538.769,-415.653 626.613,-399.792 701,-378 704.073,-377.1 707.202,-376.114 710.345,-375.07"/>
<polygon fill="midnightblue" stroke="midnightblue" points="479.898,-421.4 470.556,-426.397 480.975,-428.316 479.898,-421.4"/>
</g>
<!-- Node19 -->
<g id="node19" class="node"><title>Node19</title>
<g id="a_node19"><a xlink:href="ma__coefficient__solver_8hh.html" target="_top" xlink:title="/home/travis/build\l/igankevich/arma/src\l/generator/ma_coefficient\l_solver.hh">
<polygon fill="none" stroke="black" points="565.5,-325 565.5,-377 692.5,-377 692.5,-325 565.5,-325"/>
<text text-anchor="start" x="573.5" y="-365" font-family="Helvetica,sans-Serif" font-size="10.00">/home/travis/build</text>
<text text-anchor="start" x="573.5" y="-354" font-family="Helvetica,sans-Serif" font-size="10.00">/igankevich/arma/src</text>
<text text-anchor="start" x="573.5" y="-343" font-family="Helvetica,sans-Serif" font-size="10.00">/generator/ma_coefficient</text>
<text text-anchor="middle" x="629" y="-332" font-family="Helvetica,sans-Serif" font-size="10.00">_solver.hh</text>
</a>
</g>
</g>
<!-- Node1&#45;&gt;Node19 -->
<g id="edge24" class="edge"><title>Node1&#45;&gt;Node19</title>
<path fill="none" stroke="midnightblue" d="M477.018,-410.786C504.548,-400.137 537.212,-387.503 565.189,-376.682"/>
<polygon fill="midnightblue" stroke="midnightblue" points="475.574,-407.591 467.51,-414.463 478.099,-414.12 475.574,-407.591"/>
</g>
<!-- Node4 -->
<g id="node4" class="node"><title>Node4</title>
<g id="a_node4"><a xlink:href="arma__driver_8cc.html" target="_top" xlink:title="/home/travis/build\l/igankevich/arma/src\l/arma_driver.cc">
<polygon fill="none" stroke="black" points="180.5,-78.5 180.5,-119.5 287.5,-119.5 287.5,-78.5 180.5,-78.5"/>
<text text-anchor="start" x="188.5" y="-107.5" font-family="Helvetica,sans-Serif" font-size="10.00">/home/travis/build</text>
<text text-anchor="start" x="188.5" y="-96.5" font-family="Helvetica,sans-Serif" font-size="10.00">/igankevich/arma/src</text>
<text text-anchor="middle" x="234" y="-85.5" font-family="Helvetica,sans-Serif" font-size="10.00">/arma_driver.cc</text>
</a>
</g>
</g>
<!-- Node3&#45;&gt;Node4 -->
<g id="edge3" class="edge"><title>Node3&#45;&gt;Node4</title>
<path fill="none" stroke="midnightblue" d="M182.555,-149.492C192.806,-139.629 204.243,-128.627 213.724,-119.506"/>
<polygon fill="midnightblue" stroke="midnightblue" points="180.125,-146.973 175.344,-156.428 184.978,-152.017 180.125,-146.973"/>
</g>
<!-- Node5 -->
<g id="node5" class="node"><title>Node5</title>
<g id="a_node5"><a xlink:href="arma__main_8cc.html" target="_top" xlink:title="/home/travis/build\l/igankevich/arma/src\l/arma_main.cc">
<polygon fill="none" stroke="black" points="389.5,-0.5 389.5,-41.5 496.5,-41.5 496.5,-0.5 389.5,-0.5"/>
<text text-anchor="start" x="397.5" y="-29.5" font-family="Helvetica,sans-Serif" font-size="10.00">/home/travis/build</text>
<text text-anchor="start" x="397.5" y="-18.5" font-family="Helvetica,sans-Serif" font-size="10.00">/igankevich/arma/src</text>
<text text-anchor="middle" x="443" y="-7.5" font-family="Helvetica,sans-Serif" font-size="10.00">/arma_main.cc</text>
</a>
</g>
</g>
<!-- Node3&#45;&gt;Node5 -->
<g id="edge4" class="edge"><title>Node3&#45;&gt;Node5</title>
<path fill="none" stroke="midnightblue" d="M151.631,-146.205C150.918,-124.487 153.87,-95.8512 171,-78 174.802,-74.0376 311.046,-47.335 389.231,-32.2785"/>
<polygon fill="midnightblue" stroke="midnightblue" points="148.14,-146.46 152.229,-156.233 155.127,-146.043 148.14,-146.46"/>
</g>
<!-- Node6 -->
<g id="node6" class="node"><title>Node6</title>
<g id="a_node6"><a xlink:href="arma__realtime__driver_8hh.html" target="_top" xlink:title="/home/travis/build\l/igankevich/arma/src\l/arma_realtime_driver.hh">
<polygon fill="none" stroke="black" points="0,-78.5 0,-119.5 124,-119.5 124,-78.5 0,-78.5"/>
<text text-anchor="start" x="8" y="-107.5" font-family="Helvetica,sans-Serif" font-size="10.00">/home/travis/build</text>
<text text-anchor="start" x="8" y="-96.5" font-family="Helvetica,sans-Serif" font-size="10.00">/igankevich/arma/src</text>
<text text-anchor="middle" x="62" y="-85.5" font-family="Helvetica,sans-Serif" font-size="10.00">/arma_realtime_driver.hh</text>
</a>
</g>
</g>
<!-- Node3&#45;&gt;Node6 -->
<g id="edge5" class="edge"><title>Node3&#45;&gt;Node6</title>
<path fill="none" stroke="midnightblue" d="M123.263,-150.065C111.018,-140.057 97.2476,-128.804 85.8687,-119.506"/>
<polygon fill="midnightblue" stroke="midnightblue" points="121.092,-152.81 131.05,-156.428 125.522,-147.39 121.092,-152.81"/>
</g>
<!-- Node9 -->
<g id="node9" class="node"><title>Node9</title>
<g id="a_node9"><a xlink:href="visual_8cc.html" target="_top" xlink:title="/home/travis/build\l/igankevich/arma/src\l/visual.cc">
<polygon fill="none" stroke="black" points="305.5,-78.5 305.5,-119.5 412.5,-119.5 412.5,-78.5 305.5,-78.5"/>
<text text-anchor="start" x="313.5" y="-107.5" font-family="Helvetica,sans-Serif" font-size="10.00">/home/travis/build</text>
<text text-anchor="start" x="313.5" y="-96.5" font-family="Helvetica,sans-Serif" font-size="10.00">/igankevich/arma/src</text>
<text text-anchor="middle" x="359" y="-85.5" font-family="Helvetica,sans-Serif" font-size="10.00">/visual.cc</text>
</a>
</g>
</g>
<!-- Node3&#45;&gt;Node9 -->
<g id="edge8" class="edge"><title>Node3&#45;&gt;Node9</title>
<path fill="none" stroke="midnightblue" d="M217.039,-152.887C245.677,-142.219 279.306,-129.69 306.643,-119.506"/>
<polygon fill="midnightblue" stroke="midnightblue" points="215.684,-149.657 207.535,-156.428 218.128,-156.217 215.684,-149.657"/>
</g>
<!-- Node7 -->
<g id="node7" class="node"><title>Node7</title>
<g id="a_node7"><a xlink:href="arma__realtime_8cc.html" target="_top" xlink:title="/home/travis/build\l/igankevich/arma/src\l/arma_realtime.cc">
<polygon fill="none" stroke="black" points="223.5,-0.5 223.5,-41.5 330.5,-41.5 330.5,-0.5 223.5,-0.5"/>
<text text-anchor="start" x="231.5" y="-29.5" font-family="Helvetica,sans-Serif" font-size="10.00">/home/travis/build</text>
<text text-anchor="start" x="231.5" y="-18.5" font-family="Helvetica,sans-Serif" font-size="10.00">/igankevich/arma/src</text>
<text text-anchor="middle" x="277" y="-7.5" font-family="Helvetica,sans-Serif" font-size="10.00">/arma_realtime.cc</text>
</a>
</g>
</g>
<!-- Node6&#45;&gt;Node7 -->
<g id="edge6" class="edge"><title>Node6&#45;&gt;Node7</title>
<path fill="none" stroke="midnightblue" d="M127.143,-74.9725C157.898,-64.1013 194.157,-51.284 223.305,-40.9804"/>
<polygon fill="midnightblue" stroke="midnightblue" points="125.63,-71.7954 117.368,-78.4281 127.963,-78.3952 125.63,-71.7954"/>
</g>
<!-- Node8 -->
<g id="node8" class="node"><title>Node8</title>
<g id="a_node8"><a xlink:href="arma__realtime__driver_8cc.html" target="_top" xlink:title="/home/travis/build\l/igankevich/arma/src\l/arma_realtime_driver.cc">
<polygon fill="none" stroke="black" points="0,-0.5 0,-41.5 124,-41.5 124,-0.5 0,-0.5"/>
<text text-anchor="start" x="8" y="-29.5" font-family="Helvetica,sans-Serif" font-size="10.00">/home/travis/build</text>
<text text-anchor="start" x="8" y="-18.5" font-family="Helvetica,sans-Serif" font-size="10.00">/igankevich/arma/src</text>
<text text-anchor="middle" x="62" y="-7.5" font-family="Helvetica,sans-Serif" font-size="10.00">/arma_realtime_driver.cc</text>
</a>
</g>
</g>
<!-- Node6&#45;&gt;Node8 -->
<g id="edge7" class="edge"><title>Node6&#45;&gt;Node8</title>
<path fill="none" stroke="midnightblue" d="M62,-68.2965C62,-59.3009 62,-49.6532 62,-41.5056"/>
<polygon fill="midnightblue" stroke="midnightblue" points="58.5001,-68.4281 62,-78.4281 65.5001,-68.4281 58.5001,-68.4281"/>
</g>
<!-- Node11 -->
<g id="node11" class="node"><title>Node11</title>
<g id="a_node11"><a xlink:href="register__all_8hh.html" target="_top" xlink:title="/home/travis/build\l/igankevich/arma/src\l/register_all.hh">
<polygon fill="none" stroke="black" points="427.5,-156.5 427.5,-197.5 534.5,-197.5 534.5,-156.5 427.5,-156.5"/>
<text text-anchor="start" x="435.5" y="-185.5" font-family="Helvetica,sans-Serif" font-size="10.00">/home/travis/build</text>
<text text-anchor="start" x="435.5" y="-174.5" font-family="Helvetica,sans-Serif" font-size="10.00">/igankevich/arma/src</text>
<text text-anchor="middle" x="481" y="-163.5" font-family="Helvetica,sans-Serif" font-size="10.00">/register_all.hh</text>
</a>
</g>
</g>
<!-- Node10&#45;&gt;Node11 -->
<g id="edge10" class="edge"><title>Node10&#45;&gt;Node11</title>
<path fill="none" stroke="midnightblue" d="M410.314,-325.71C427.348,-316.264 444.349,-303.828 456,-288 475.737,-261.188 480.285,-221.478 481.114,-197.824"/>
<polygon fill="midnightblue" stroke="midnightblue" points="408.654,-322.628 401.431,-330.379 411.911,-328.825 408.654,-322.628"/>
</g>
<!-- Node13 -->
<g id="node13" class="node"><title>Node13</title>
<g id="a_node13"><a xlink:href="arma__model_8hh.html" target="_top" xlink:title="/home/travis/build\l/igankevich/arma/src\l/generator/arma_model.hh">
<polygon fill="none" stroke="black" points="317,-240.5 317,-281.5 447,-281.5 447,-240.5 317,-240.5"/>
<text text-anchor="start" x="325" y="-269.5" font-family="Helvetica,sans-Serif" font-size="10.00">/home/travis/build</text>
<text text-anchor="start" x="325" y="-258.5" font-family="Helvetica,sans-Serif" font-size="10.00">/igankevich/arma/src</text>
<text text-anchor="middle" x="382" y="-247.5" font-family="Helvetica,sans-Serif" font-size="10.00">/generator/arma_model.hh</text>
</a>
</g>
</g>
<!-- Node10&#45;&gt;Node13 -->
<g id="edge15" class="edge"><title>Node10&#45;&gt;Node13</title>
<path fill="none" stroke="midnightblue" d="M359.841,-321.09C364.671,-308.21 370.237,-293.367 374.583,-281.78"/>
<polygon fill="midnightblue" stroke="midnightblue" points="356.558,-319.878 356.324,-330.47 363.112,-322.336 356.558,-319.878"/>
</g>
<!-- Node15 -->
<g id="node15" class="node"><title>Node15</title>
<g id="a_node15"><a xlink:href="ar__model_8cc.html" target="_top" xlink:title="/home/travis/build\l/igankevich/arma/src\l/generator/ar_model.cc">
<polygon fill="none" stroke="black" points="183,-240.5 183,-281.5 299,-281.5 299,-240.5 183,-240.5"/>
<text text-anchor="start" x="191" y="-269.5" font-family="Helvetica,sans-Serif" font-size="10.00">/home/travis/build</text>
<text text-anchor="start" x="191" y="-258.5" font-family="Helvetica,sans-Serif" font-size="10.00">/igankevich/arma/src</text>
<text text-anchor="middle" x="241" y="-247.5" font-family="Helvetica,sans-Serif" font-size="10.00">/generator/ar_model.cc</text>
</a>
</g>
</g>
<!-- Node10&#45;&gt;Node15 -->
<g id="edge18" class="edge"><title>Node10&#45;&gt;Node15</title>
<path fill="none" stroke="midnightblue" d="M317.191,-324.081C300.594,-310.558 280.611,-294.276 265.275,-281.78"/>
<polygon fill="midnightblue" stroke="midnightblue" points="315.068,-326.867 325.031,-330.47 319.49,-321.44 315.068,-326.867"/>
</g>
<!-- Node11&#45;&gt;Node9 -->
<g id="edge14" class="edge"><title>Node11&#45;&gt;Node9</title>
<path fill="none" stroke="midnightblue" d="M440.739,-150.919C424.337,-140.702 405.665,-129.07 390.312,-119.506"/>
<polygon fill="midnightblue" stroke="midnightblue" points="439.244,-154.111 449.582,-156.428 442.945,-148.17 439.244,-154.111"/>
</g>
<!-- Node12 -->
<g id="node12" class="node"><title>Node12</title>
<g id="a_node12"><a xlink:href="common__main_8hh.html" target="_top" xlink:title="/home/travis/build\l/igankevich/arma/src\l/common_main.hh">
<polygon fill="none" stroke="black" points="430.5,-78.5 430.5,-119.5 537.5,-119.5 537.5,-78.5 430.5,-78.5"/>
<text text-anchor="start" x="438.5" y="-107.5" font-family="Helvetica,sans-Serif" font-size="10.00">/home/travis/build</text>
<text text-anchor="start" x="438.5" y="-96.5" font-family="Helvetica,sans-Serif" font-size="10.00">/igankevich/arma/src</text>
<text text-anchor="middle" x="484" y="-85.5" font-family="Helvetica,sans-Serif" font-size="10.00">/common_main.hh</text>
</a>
</g>
</g>
<!-- Node11&#45;&gt;Node12 -->
<g id="edge11" class="edge"><title>Node11&#45;&gt;Node12</title>
<path fill="none" stroke="midnightblue" d="M482.173,-146.297C482.528,-137.301 482.908,-127.653 483.23,-119.506"/>
<polygon fill="midnightblue" stroke="midnightblue" points="478.67,-146.298 481.773,-156.428 485.664,-146.574 478.67,-146.298"/>
</g>
<!-- Node12&#45;&gt;Node5 -->
<g id="edge12" class="edge"><title>Node12&#45;&gt;Node5</title>
<path fill="none" stroke="midnightblue" d="M468.607,-69.466C463.577,-60.1427 458.109,-50.0074 453.523,-41.5056"/>
<polygon fill="midnightblue" stroke="midnightblue" points="465.613,-71.2889 473.441,-78.4281 471.774,-67.9653 465.613,-71.2889"/>
</g>
<!-- Node12&#45;&gt;Node7 -->
<g id="edge13" class="edge"><title>Node12&#45;&gt;Node7</title>
<path fill="none" stroke="midnightblue" d="M421.048,-74.8874C391.99,-64.2185 357.866,-51.6901 330.127,-41.5056"/>
<polygon fill="midnightblue" stroke="midnightblue" points="420.099,-78.2671 430.692,-78.4281 422.511,-71.6959 420.099,-78.2671"/>
</g>
<!-- Node13&#45;&gt;Node11 -->
<g id="edge16" class="edge"><title>Node13&#45;&gt;Node11</title>
<path fill="none" stroke="midnightblue" d="M413.71,-233.735C427.799,-222.065 444.106,-208.559 457.137,-197.765"/>
<polygon fill="midnightblue" stroke="midnightblue" points="411.182,-231.285 405.713,-240.359 415.647,-236.676 411.182,-231.285"/>
</g>
<!-- Node14 -->
<g id="node14" class="node"><title>Node14</title>
<g id="a_node14"><a xlink:href="arma__model_8cc.html" target="_top" xlink:title="/home/travis/build\l/igankevich/arma/src\l/generator/arma_model.cc">
<polygon fill="none" stroke="black" points="279,-156.5 279,-197.5 409,-197.5 409,-156.5 279,-156.5"/>
<text text-anchor="start" x="287" y="-185.5" font-family="Helvetica,sans-Serif" font-size="10.00">/home/travis/build</text>
<text text-anchor="start" x="287" y="-174.5" font-family="Helvetica,sans-Serif" font-size="10.00">/igankevich/arma/src</text>
<text text-anchor="middle" x="344" y="-163.5" font-family="Helvetica,sans-Serif" font-size="10.00">/generator/arma_model.cc</text>
</a>
</g>
</g>
<!-- Node13&#45;&gt;Node14 -->
<g id="edge17" class="edge"><title>Node13&#45;&gt;Node14</title>
<path fill="none" stroke="midnightblue" d="M368.508,-230.885C363.405,-219.874 357.722,-207.61 353.114,-197.667"/>
<polygon fill="midnightblue" stroke="midnightblue" points="365.421,-232.549 372.801,-240.15 371.772,-229.605 365.421,-232.549"/>
</g>
<!-- Node16&#45;&gt;Node11 -->
<g id="edge20" class="edge"><title>Node16&#45;&gt;Node11</title>
<path fill="none" stroke="midnightblue" d="M488.35,-320.253C489.821,-296.799 491.081,-263.276 489,-234 488.137,-221.853 486.233,-208.334 484.499,-197.623"/>
<polygon fill="midnightblue" stroke="midnightblue" points="484.855,-320.056 487.67,-330.27 491.839,-320.53 484.855,-320.056"/>
</g>
<!-- Node16&#45;&gt;Node13 -->
<g id="edge21" class="edge"><title>Node16&#45;&gt;Node13</title>
<path fill="none" stroke="midnightblue" d="M454.932,-323.712C439.037,-310.262 420.01,-294.162 405.376,-281.78"/>
<polygon fill="midnightblue" stroke="midnightblue" points="453.024,-326.682 462.919,-330.47 457.546,-321.339 453.024,-326.682"/>
</g>
<!-- Node17 -->
<g id="node17" class="node"><title>Node17</title>
<g id="a_node17"><a xlink:href="ma__model_8cc.html" target="_top" xlink:title="/home/travis/build\l/igankevich/arma/src\l/generator/ma_model.cc">
<polygon fill="none" stroke="black" points="541,-240.5 541,-281.5 663,-281.5 663,-240.5 541,-240.5"/>
<text text-anchor="start" x="549" y="-269.5" font-family="Helvetica,sans-Serif" font-size="10.00">/home/travis/build</text>
<text text-anchor="start" x="549" y="-258.5" font-family="Helvetica,sans-Serif" font-size="10.00">/igankevich/arma/src</text>
<text text-anchor="middle" x="602" y="-247.5" font-family="Helvetica,sans-Serif" font-size="10.00">/generator/ma_model.cc</text>
</a>
</g>
</g>
<!-- Node16&#45;&gt;Node17 -->
<g id="edge22" class="edge"><title>Node16&#45;&gt;Node17</title>
<path fill="none" stroke="midnightblue" d="M520.165,-324.081C537.992,-310.558 559.454,-294.276 575.927,-281.78"/>
<polygon fill="midnightblue" stroke="midnightblue" points="517.596,-321.638 511.744,-330.47 521.826,-327.214 517.596,-321.638"/>
</g>
<!-- Node19&#45;&gt;Node17 -->
<g id="edge26" class="edge"><title>Node19&#45;&gt;Node17</title>
<path fill="none" stroke="midnightblue" d="M618.218,-314.859C614.734,-303.503 610.998,-291.326 607.991,-281.525"/>
<polygon fill="midnightblue" stroke="midnightblue" points="614.911,-316.013 621.19,-324.547 621.603,-313.96 614.911,-316.013"/>
</g>
<!-- Node20 -->
<g id="node20" class="node"><title>Node20</title>
<g id="a_node20"><a xlink:href="ma__coefficient__solver_8cc.html" target="_top" xlink:title="/home/travis/build\l/igankevich/arma/src\l/generator/ma_coefficient\l_solver.cc">
<polygon fill="none" stroke="black" points="681.5,-235 681.5,-287 808.5,-287 808.5,-235 681.5,-235"/>
<text text-anchor="start" x="689.5" y="-275" font-family="Helvetica,sans-Serif" font-size="10.00">/home/travis/build</text>
<text text-anchor="start" x="689.5" y="-264" font-family="Helvetica,sans-Serif" font-size="10.00">/igankevich/arma/src</text>
<text text-anchor="start" x="689.5" y="-253" font-family="Helvetica,sans-Serif" font-size="10.00">/generator/ma_coefficient</text>
<text text-anchor="middle" x="745" y="-242" font-family="Helvetica,sans-Serif" font-size="10.00">_solver.cc</text>
</a>
</g>
</g>
<!-- Node19&#45;&gt;Node20 -->
<g id="edge25" class="edge"><title>Node19&#45;&gt;Node20</title>
<path fill="none" stroke="midnightblue" d="M670.479,-318.534C684.029,-308.254 698.891,-296.979 711.754,-287.221"/>
<polygon fill="midnightblue" stroke="midnightblue" points="668.093,-315.95 662.241,-324.783 672.323,-321.527 668.093,-315.95"/>
</g>
</g>
</svg>
