<?xml version="1.0" encoding="UTF-8" standalone="no"?>
<!DOCTYPE svg PUBLIC "-//W3C//DTD SVG 1.1//EN"
 "http://www.w3.org/Graphics/SVG/1.1/DTD/svg11.dtd">
<!-- Generated by graphviz version 2.40.1 (20161225.0304)
 -->
<!-- Title: src/arma_driver.hh Pages: 1 -->
<svg width="1294pt" height="364pt"
 viewBox="0.00 0.00 1294.15 364.00" xmlns="http://www.w3.org/2000/svg" xmlns:xlink="http://www.w3.org/1999/xlink">
<g id="graph0" class="graph" transform="scale(1 1) rotate(0) translate(4 360)">
<title>src/arma_driver.hh</title>
<!-- Node0 -->
<g id="node1" class="node">
<title>Node0</title>
<polygon fill="#bfbfbf" stroke="#000000" points="708.6462,-336.5 708.6462,-355.5 805.6462,-355.5 805.6462,-336.5 708.6462,-336.5"/>
<text text-anchor="middle" x="757.1462" y="-343.5" font-family="Helvetica,sans-Serif" font-size="10.00" fill="#000000">src/arma_driver.hh</text>
</g>
<!-- Node1 -->
<g id="node2" class="node">
<title>Node1</title>
<polygon fill="none" stroke="#bfbfbf" points="217.6462,-280.5 217.6462,-299.5 276.6462,-299.5 276.6462,-280.5 217.6462,-280.5"/>
<text text-anchor="middle" x="247.1462" y="-287.5" font-family="Helvetica,sans-Serif" font-size="10.00" fill="#000000">functional</text>
</g>
<!-- Node0&#45;&gt;Node1 -->
<g id="edge1" class="edge">
<title>Node0&#45;&gt;Node1</title>
<path fill="none" stroke="#191970" d="M708.5866,-343.2139C623.5691,-337.8896 442.4089,-324.5559 291.1462,-300 289.6964,-299.7646 288.2229,-299.5101 286.737,-299.2405"/>
<polygon fill="#191970" stroke="#191970" points="287.3591,-295.7958 276.8695,-297.2851 285.9984,-302.6622 287.3591,-295.7958"/>
</g>
<!-- Node2 -->
<g id="node3" class="node">
<title>Node2</title>
<polygon fill="none" stroke="#bfbfbf" points="584.6462,-112.5 584.6462,-131.5 633.6462,-131.5 633.6462,-112.5 584.6462,-112.5"/>
<text text-anchor="middle" x="609.1462" y="-119.5" font-family="Helvetica,sans-Serif" font-size="10.00" fill="#000000">istream</text>
</g>
<!-- Node0&#45;&gt;Node2 -->
<g id="edge2" class="edge">
<title>Node0&#45;&gt;Node2</title>
<path fill="none" stroke="#191970" d="M708.6427,-342.0226C634.4749,-335.3834 496.7789,-320.7001 452.1462,-300 383.5704,-268.1954 355.3821,-256.8367 324.1462,-188 266.2451,-60.3994 179.821,-215.7153 574.3614,-131.8895"/>
<polygon fill="#191970" stroke="#191970" points="575.3311,-135.261 584.37,-129.734 573.8573,-128.4179 575.3311,-135.261"/>
</g>
<!-- Node3 -->
<g id="node4" class="node">
<title>Node3</title>
<polygon fill="none" stroke="#bfbfbf" points="608.1462,-168.5 608.1462,-187.5 660.1462,-187.5 660.1462,-168.5 608.1462,-168.5"/>
<text text-anchor="middle" x="634.1462" y="-175.5" font-family="Helvetica,sans-Serif" font-size="10.00" fill="#000000">ostream</text>
</g>
<!-- Node0&#45;&gt;Node3 -->
<g id="edge3" class="edge">
<title>Node0&#45;&gt;Node3</title>
<path fill="none" stroke="#191970" d="M749.5629,-336.1844C742.4238,-326.9084 731.4656,-312.5783 722.1462,-300 694.9706,-263.321 663.879,-219.8525 646.8888,-195.9666"/>
<polygon fill="#191970" stroke="#191970" points="649.5552,-193.6765 640.9104,-187.5513 643.8487,-197.7306 649.5552,-193.6765"/>
</g>
<!-- Node4 -->
<g id="node5" class="node">
<title>Node4</title>
<polygon fill="none" stroke="#bfbfbf" points="333.6462,-168.5 333.6462,-187.5 374.6462,-187.5 374.6462,-168.5 333.6462,-168.5"/>
<text text-anchor="middle" x="354.1462" y="-175.5" font-family="Helvetica,sans-Serif" font-size="10.00" fill="#000000">string</text>
</g>
<!-- Node0&#45;&gt;Node4 -->
<g id="edge4" class="edge">
<title>Node0&#45;&gt;Node4</title>
<path fill="none" stroke="#191970" d="M708.4722,-340.9378C642.0632,-333.4737 526.9875,-318.3926 489.1462,-300 436.8463,-274.5799 389.959,-222.6378 367.7415,-195.4585"/>
<polygon fill="#191970" stroke="#191970" points="370.404,-193.1839 361.4193,-187.5691 364.9416,-197.5614 370.404,-193.1839"/>
</g>
<!-- Node5 -->
<g id="node6" class="node">
<title>Node5</title>
<polygon fill="none" stroke="#bfbfbf" points="1128.6462,-280.5 1128.6462,-299.5 1211.6462,-299.5 1211.6462,-280.5 1128.6462,-280.5"/>
<text text-anchor="middle" x="1170.1462" y="-287.5" font-family="Helvetica,sans-Serif" font-size="10.00" fill="#000000">unordered_map</text>
</g>
<!-- Node0&#45;&gt;Node5 -->
<g id="edge5" class="edge">
<title>Node0&#45;&gt;Node5</title>
<path fill="none" stroke="#191970" d="M805.756,-340.4949C874.5533,-332.5313 1004.201,-316.8897 1114.1462,-300 1115.6105,-299.7751 1117.0954,-299.5422 1118.5935,-299.303"/>
<polygon fill="#191970" stroke="#191970" points="1119.2976,-302.7342 1128.5937,-297.6516 1118.1571,-295.8277 1119.2976,-302.7342"/>
</g>
<!-- Node6 -->
<g id="node7" class="node">
<title>Node6</title>
<polygon fill="none" stroke="#bfbfbf" points="1230.1462,-280.5 1230.1462,-299.5 1286.1462,-299.5 1286.1462,-280.5 1230.1462,-280.5"/>
<text text-anchor="middle" x="1258.1462" y="-287.5" font-family="Helvetica,sans-Serif" font-size="10.00" fill="#000000">config.hh</text>
</g>
<!-- Node0&#45;&gt;Node6 -->
<g id="edge6" class="edge">
<title>Node0&#45;&gt;Node6</title>
<path fill="none" stroke="#191970" d="M805.8208,-343.7028C890.5699,-339.1392 1070.4896,-326.9509 1220.1462,-300 1220.2469,-299.9819 1220.3478,-299.9636 1220.4487,-299.9452"/>
<polygon fill="#191970" stroke="#191970" points="1220.9705,-303.4121 1230.0354,-297.9278 1219.529,-296.5622 1220.9705,-303.4121"/>
</g>
<!-- Node7 -->
<g id="node8" class="node">
<title>Node7</title>
<g id="a_node8"><a xlink:href="types_8hh.html" target="_top" xlink:title="types.hh">
<polygon fill="none" stroke="#000000" points="962.1462,-168.5 962.1462,-187.5 1016.1462,-187.5 1016.1462,-168.5 962.1462,-168.5"/>
<text text-anchor="middle" x="989.1462" y="-175.5" font-family="Helvetica,sans-Serif" font-size="10.00" fill="#000000">types.hh</text>
</a>
</g>
</g>
<!-- Node0&#45;&gt;Node7 -->
<g id="edge7" class="edge">
<title>Node0&#45;&gt;Node7</title>
<path fill="none" stroke="#191970" d="M805.915,-341.0879C862.1594,-332.4266 951.5678,-308.6821 988.1462,-244 996.0692,-229.9897 995.5994,-211.486 993.5612,-197.6367"/>
<polygon fill="#191970" stroke="#191970" points="996.9839,-196.8976 991.7208,-187.7025 990.101,-198.1728 996.9839,-196.8976"/>
</g>
<!-- Node9 -->
<g id="node10" class="node">
<title>Node9</title>
<g id="a_node10"><a xlink:href="arma_8hh.html" target="_top" xlink:title="arma.hh">
<polygon fill="none" stroke="#000000" points="1052.1462,-224.5 1052.1462,-243.5 1104.1462,-243.5 1104.1462,-224.5 1052.1462,-224.5"/>
<text text-anchor="middle" x="1078.1462" y="-231.5" font-family="Helvetica,sans-Serif" font-size="10.00" fill="#000000">arma.hh</text>
</a>
</g>
</g>
<!-- Node0&#45;&gt;Node9 -->
<g id="edge9" class="edge">
<title>Node0&#45;&gt;Node9</title>
<path fill="none" stroke="#191970" d="M805.8238,-342.917C875.9543,-337.6684 1001.074,-325.0425 1038.1462,-300 1054.5643,-288.9095 1065.3616,-268.6097 1071.5535,-253.4404"/>
<polygon fill="#191970" stroke="#191970" points="1074.8841,-254.5267 1075.1169,-243.9345 1068.3295,-252.0696 1074.8841,-254.5267"/>
</g>
<!-- Node10 -->
<g id="node11" class="node">
<title>Node10</title>
<g id="a_node11"><a xlink:href="basic__model_8hh.html" target="_top" xlink:title="generator/basic_model.hh">
<polygon fill="none" stroke="#000000" points="514.1462,-280.5 514.1462,-299.5 642.1462,-299.5 642.1462,-280.5 514.1462,-280.5"/>
<text text-anchor="middle" x="578.1462" y="-287.5" font-family="Helvetica,sans-Serif" font-size="10.00" fill="#000000">generator/basic_model.hh</text>
</a>
</g>
</g>
<!-- Node0&#45;&gt;Node10 -->
<g id="edge11" class="edge">
<title>Node0&#45;&gt;Node10</title>
<path fill="none" stroke="#191970" d="M726.375,-336.3733C696.4812,-327.021 650.937,-312.7725 618.2245,-302.5385"/>
<polygon fill="#191970" stroke="#191970" points="619.1048,-299.1466 608.5159,-299.5011 617.0147,-305.8273 619.1048,-299.1466"/>
</g>
<!-- Node11 -->
<g id="node12" class="node">
<title>Node11</title>
<g id="a_node12"><a xlink:href="grid_8hh.html" target="_top" xlink:title="grid.hh">
<polygon fill="none" stroke="#000000" points="754.1462,-168.5 754.1462,-187.5 800.1462,-187.5 800.1462,-168.5 754.1462,-168.5"/>
<text text-anchor="middle" x="777.1462" y="-175.5" font-family="Helvetica,sans-Serif" font-size="10.00" fill="#000000">grid.hh</text>
</a>
</g>
</g>
<!-- Node0&#45;&gt;Node11 -->
<g id="edge45" class="edge">
<title>Node0&#45;&gt;Node11</title>
<path fill="none" stroke="#191970" d="M750.7527,-336.46C737.5071,-315.4197 709.7046,-263.7464 727.1462,-224 732.4785,-211.8487 742.7801,-201.4938 752.6538,-193.7031"/>
<polygon fill="#191970" stroke="#191970" points="754.7362,-196.5162 760.7285,-187.7788 750.5954,-190.8723 754.7362,-196.5162"/>
</g>
<!-- Node17 -->
<g id="node18" class="node">
<title>Node17</title>
<g id="a_node18"><a xlink:href="output__flags_8hh.html" target="_top" xlink:title="output_flags.hh">
<polygon fill="none" stroke="#000000" points="444.6462,-224.5 444.6462,-243.5 527.6462,-243.5 527.6462,-224.5 444.6462,-224.5"/>
<text text-anchor="middle" x="486.1462" y="-231.5" font-family="Helvetica,sans-Serif" font-size="10.00" fill="#000000">output_flags.hh</text>
</a>
</g>
</g>
<!-- Node0&#45;&gt;Node17 -->
<g id="edge44" class="edge">
<title>Node0&#45;&gt;Node17</title>
<path fill="none" stroke="#191970" d="M708.5748,-343.1269C643.9336,-338.3226 534.371,-326.4459 505.1462,-300 492.3238,-288.3968 487.9318,-268.7577 486.5334,-253.9119"/>
<polygon fill="#191970" stroke="#191970" points="490.0155,-253.493 485.9576,-243.7061 483.0266,-253.8874 490.0155,-253.493"/>
</g>
<!-- Node30 -->
<g id="node31" class="node">
<title>Node30</title>
<g id="a_node31"><a xlink:href="basic__solver_8hh.html" target="_top" xlink:title="velocity/basic_solver.hh">
<polygon fill="none" stroke="#000000" points="746.6462,-280.5 746.6462,-299.5 867.6462,-299.5 867.6462,-280.5 746.6462,-280.5"/>
<text text-anchor="middle" x="807.1462" y="-287.5" font-family="Helvetica,sans-Serif" font-size="10.00" fill="#000000">velocity/basic_solver.hh</text>
</a>
</g>
</g>
<!-- Node0&#45;&gt;Node30 -->
<g id="edge46" class="edge">
<title>Node0&#45;&gt;Node30</title>
<path fill="none" stroke="#191970" d="M765.8556,-336.2455C772.9535,-328.2958 783.1547,-316.8706 791.6412,-307.3656"/>
<polygon fill="#191970" stroke="#191970" points="794.4873,-309.4331 798.5367,-299.6427 789.2657,-304.771 794.4873,-309.4331"/>
</g>
<!-- Node33 -->
<g id="node34" class="node">
<title>Node33</title>
<g id="a_node34"><a xlink:href="discrete__function_8hh.html" target="_top" xlink:title="discrete_function.hh">
<polygon fill="none" stroke="#000000" points="854.1462,-224.5 854.1462,-243.5 958.1462,-243.5 958.1462,-224.5 854.1462,-224.5"/>
<text text-anchor="middle" x="906.1462" y="-231.5" font-family="Helvetica,sans-Serif" font-size="10.00" fill="#000000">discrete_function.hh</text>
</a>
</g>
</g>
<!-- Node0&#45;&gt;Node33 -->
<g id="edge59" class="edge">
<title>Node0&#45;&gt;Node33</title>
<path fill="none" stroke="#191970" d="M805.2618,-336.4624C829.0048,-329.6785 856.6557,-318.3959 876.1462,-300 889.2755,-287.608 897.1102,-268.3826 901.4617,-253.8716"/>
<polygon fill="#191970" stroke="#191970" points="904.9301,-254.4506 904.1403,-243.8852 898.169,-252.6371 904.9301,-254.4506"/>
</g>
<!-- Node34 -->
<g id="node35" class="node">
<title>Node34</title>
<g id="a_node35"><a xlink:href="util_8hh.html" target="_top" xlink:title="util.hh">
<polygon fill="none" stroke="#000000" points="1122.6462,-224.5 1122.6462,-243.5 1165.6462,-243.5 1165.6462,-224.5 1122.6462,-224.5"/>
<text text-anchor="middle" x="1144.1462" y="-231.5" font-family="Helvetica,sans-Serif" font-size="10.00" fill="#000000">util.hh</text>
</a>
</g>
</g>
<!-- Node0&#45;&gt;Node34 -->
<g id="edge60" class="edge">
<title>Node0&#45;&gt;Node34</title>
<path fill="none" stroke="#191970" d="M805.8528,-341.7739C879.9567,-334.8219 1017.1587,-319.7512 1062.1462,-300 1088.3646,-288.4891 1113.2072,-266.3442 1128.5363,-250.8947"/>
<polygon fill="#191970" stroke="#191970" points="1131.2254,-253.1481 1135.6421,-243.5177 1126.1838,-248.2918 1131.2254,-253.1481"/>
</g>
<!-- Node8 -->
<g id="node9" class="node">
<title>Node8</title>
<polygon fill="none" stroke="#bfbfbf" points="832.6462,-.5 832.6462,-19.5 899.6462,-19.5 899.6462,-.5 832.6462,-.5"/>
<text text-anchor="middle" x="866.1462" y="-7.5" font-family="Helvetica,sans-Serif" font-size="10.00" fill="#000000">blitz/array.h</text>
</g>
<!-- Node7&#45;&gt;Node8 -->
<g id="edge8" class="edge">
<title>Node7&#45;&gt;Node8</title>
<path fill="none" stroke="#191970" d="M982.1808,-168.4862C962.4007,-141.4695 905.6384,-63.9405 879.5519,-28.3102"/>
<polygon fill="#191970" stroke="#191970" points="882.0731,-25.8289 873.3416,-19.8279 876.425,-29.9641 882.0731,-25.8289"/>
</g>
<!-- Node9&#45;&gt;Node7 -->
<g id="edge10" class="edge">
<title>Node9&#45;&gt;Node7</title>
<path fill="none" stroke="#191970" d="M1062.6436,-224.2455C1048.9883,-215.6534 1028.8805,-203.0014 1013.1473,-193.1018"/>
<polygon fill="#191970" stroke="#191970" points="1014.7991,-190.006 1004.4712,-187.6427 1011.0711,-195.9307 1014.7991,-190.006"/>
</g>
<!-- Node10&#45;&gt;Node2 -->
<g id="edge12" class="edge">
<title>Node10&#45;&gt;Node2</title>
<path fill="none" stroke="#191970" d="M579.6395,-280.4829C582.8995,-259.9082 591.015,-209.7702 599.1462,-168 600.8211,-159.3963 602.8477,-149.9279 604.6375,-141.8294"/>
<polygon fill="#191970" stroke="#191970" points="608.1034,-142.3683 606.8759,-131.8449 601.273,-140.837 608.1034,-142.3683"/>
</g>
<!-- Node10&#45;&gt;Node3 -->
<g id="edge13" class="edge">
<title>Node10&#45;&gt;Node3</title>
<path fill="none" stroke="#191970" d="M582.9208,-280.4509C592.1782,-261.936 612.7167,-220.8591 624.7869,-196.7187"/>
<polygon fill="#191970" stroke="#191970" points="628.0421,-198.0344 629.3838,-187.5249 621.7811,-194.9039 628.0421,-198.0344"/>
</g>
<!-- Node10&#45;&gt;Node7 -->
<g id="edge43" class="edge">
<title>Node10&#45;&gt;Node7</title>
<path fill="none" stroke="#191970" d="M642.1501,-282.1531C688.8167,-275.2366 753.0771,-263.2088 807.1462,-244 825.1303,-237.6109 827.5441,-231.3765 845.1462,-224 864.6162,-215.8407 916.4825,-199.7705 952.3394,-188.9543"/>
<polygon fill="#191970" stroke="#191970" points="953.4191,-192.2845 961.9882,-186.0538 951.4039,-185.5808 953.4191,-192.2845"/>
</g>
<!-- Node10&#45;&gt;Node11 -->
<g id="edge14" class="edge">
<title>Node10&#45;&gt;Node11</title>
<path fill="none" stroke="#191970" d="M595.0182,-280.3219C617.5663,-267.4058 658.7913,-243.8542 694.1462,-224 712.9988,-213.413 734.3358,-201.5912 750.6549,-192.5832"/>
<polygon fill="#191970" stroke="#191970" points="752.5604,-195.5294 759.6268,-187.6352 749.1799,-189.3997 752.5604,-195.5294"/>
</g>
<!-- Node10&#45;&gt;Node17 -->
<g id="edge24" class="edge">
<title>Node10&#45;&gt;Node17</title>
<path fill="none" stroke="#191970" d="M562.1211,-280.2455C548.0054,-271.6534 527.2199,-259.0014 510.9563,-249.1018"/>
<polygon fill="#191970" stroke="#191970" points="512.3496,-245.8525 501.9878,-243.6427 508.7099,-251.8319 512.3496,-245.8525"/>
</g>
<!-- Node20 -->
<g id="node21" class="node">
<title>Node20</title>
<g id="a_node21"><a xlink:href="parallel__mt_8hh.html" target="_top" xlink:title="parallel_mt.hh">
<polygon fill="none" stroke="#000000" points="199.6462,-168.5 199.6462,-187.5 276.6462,-187.5 276.6462,-168.5 199.6462,-168.5"/>
<text text-anchor="middle" x="238.1462" y="-175.5" font-family="Helvetica,sans-Serif" font-size="10.00" fill="#000000">parallel_mt.hh</text>
</a>
</g>
</g>
<!-- Node10&#45;&gt;Node20 -->
<g id="edge30" class="edge">
<title>Node10&#45;&gt;Node20</title>
<path fill="none" stroke="#191970" d="M547.9825,-280.4132C519.0182,-271.1802 474.0474,-256.7728 435.1462,-244 379.5435,-225.7435 315.2889,-204.1171 275.6844,-190.7258"/>
<polygon fill="#191970" stroke="#191970" points="276.761,-187.3953 266.1668,-187.5058 274.5176,-194.026 276.761,-187.3953"/>
</g>
<!-- Node11&#45;&gt;Node2 -->
<g id="edge16" class="edge">
<title>Node11&#45;&gt;Node2</title>
<path fill="none" stroke="#191970" d="M754.1388,-170.3309C725.5532,-160.8023 676.5218,-144.4585 643.4832,-133.4457"/>
<polygon fill="#191970" stroke="#191970" points="644.3773,-130.0544 633.7837,-130.2125 642.1637,-136.6952 644.3773,-130.0544"/>
</g>
<!-- Node12 -->
<g id="node13" class="node">
<title>Node12</title>
<polygon fill="none" stroke="#bfbfbf" points="768.1462,-.5 768.1462,-19.5 812.1462,-19.5 812.1462,-.5 768.1462,-.5"/>
<text text-anchor="middle" x="790.1462" y="-7.5" font-family="Helvetica,sans-Serif" font-size="10.00" fill="#000000">cmath</text>
</g>
<!-- Node11&#45;&gt;Node12 -->
<g id="edge15" class="edge">
<title>Node11&#45;&gt;Node12</title>
<path fill="none" stroke="#191970" d="M777.8824,-168.4862C779.9374,-141.9293 785.7692,-66.5651 788.5858,-30.1655"/>
<polygon fill="#191970" stroke="#191970" points="792.1037,-30.0681 789.3857,-19.8279 785.1246,-29.528 792.1037,-30.0681"/>
</g>
<!-- Node13 -->
<g id="node14" class="node">
<title>Node13</title>
<g id="a_node14"><a xlink:href="blitz_8hh.html" target="_top" xlink:title="blitz.hh">
<polygon fill="none" stroke="#000000" points="714.1462,-56.5 714.1462,-75.5 762.1462,-75.5 762.1462,-56.5 714.1462,-56.5"/>
<text text-anchor="middle" x="738.1462" y="-63.5" font-family="Helvetica,sans-Serif" font-size="10.00" fill="#000000">blitz.hh</text>
</a>
</g>
</g>
<!-- Node11&#45;&gt;Node13 -->
<g id="edge17" class="edge">
<title>Node11&#45;&gt;Node13</title>
<path fill="none" stroke="#191970" d="M773.8211,-168.4509C767.4027,-150.0186 753.1979,-109.2254 744.7773,-85.043"/>
<polygon fill="#191970" stroke="#191970" points="748.0568,-83.8177 741.4629,-75.5249 741.4461,-86.1197 748.0568,-83.8177"/>
</g>
<!-- Node15 -->
<g id="node16" class="node">
<title>Node15</title>
<g id="a_node16"><a xlink:href="validators_8hh.html" target="_top" xlink:title="validators.hh">
<polygon fill="none" stroke="#000000" points="652.1462,-112.5 652.1462,-131.5 724.1462,-131.5 724.1462,-112.5 652.1462,-112.5"/>
<text text-anchor="middle" x="688.1462" y="-119.5" font-family="Helvetica,sans-Serif" font-size="10.00" fill="#000000">validators.hh</text>
</a>
</g>
</g>
<!-- Node11&#45;&gt;Node15 -->
<g id="edge21" class="edge">
<title>Node11&#45;&gt;Node15</title>
<path fill="none" stroke="#191970" d="M761.6436,-168.2455C747.9883,-159.6534 727.8805,-147.0014 712.1473,-137.1018"/>
<polygon fill="#191970" stroke="#191970" points="713.7991,-134.006 703.4712,-131.6427 710.0711,-139.9307 713.7991,-134.006"/>
</g>
<!-- Node13&#45;&gt;Node8 -->
<g id="edge19" class="edge">
<title>Node13&#45;&gt;Node8</title>
<path fill="none" stroke="#191970" d="M760.1502,-56.3733C780.7897,-47.3435 811.862,-33.7494 835.0351,-23.6111"/>
<polygon fill="#191970" stroke="#191970" points="836.6707,-26.7159 844.4294,-19.5011 833.8649,-20.3028 836.6707,-26.7159"/>
</g>
<!-- Node13&#45;&gt;Node12 -->
<g id="edge20" class="edge">
<title>Node13&#45;&gt;Node12</title>
<path fill="none" stroke="#191970" d="M747.2039,-56.2455C754.6604,-48.2155 765.4097,-36.6394 774.288,-27.0781"/>
<polygon fill="#191970" stroke="#191970" points="776.9526,-29.3522 781.1923,-19.6427 771.823,-24.589 776.9526,-29.3522"/>
</g>
<!-- Node14 -->
<g id="node15" class="node">
<title>Node14</title>
<polygon fill="none" stroke="#bfbfbf" points="311.1462,-.5 311.1462,-19.5 367.1462,-19.5 367.1462,-.5 311.1462,-.5"/>
<text text-anchor="middle" x="339.1462" y="-7.5" font-family="Helvetica,sans-Serif" font-size="10.00" fill="#000000">algorithm</text>
</g>
<!-- Node13&#45;&gt;Node14 -->
<g id="edge18" class="edge">
<title>Node13&#45;&gt;Node14</title>
<path fill="none" stroke="#191970" d="M714.0855,-62.6231C647.2494,-53.2425 458.9079,-26.8087 377.463,-15.3778"/>
<polygon fill="#191970" stroke="#191970" points="377.5495,-11.8557 367.16,-13.9318 376.5765,-18.7878 377.5495,-11.8557"/>
</g>
<!-- Node15&#45;&gt;Node13 -->
<g id="edge23" class="edge">
<title>Node15&#45;&gt;Node13</title>
<path fill="none" stroke="#191970" d="M696.8556,-112.2455C703.9535,-104.2958 714.1547,-92.8706 722.6412,-83.3656"/>
<polygon fill="#191970" stroke="#191970" points="725.4873,-85.4331 729.5367,-75.6427 720.2657,-80.771 725.4873,-85.4331"/>
</g>
<!-- Node16 -->
<g id="node17" class="node">
<title>Node16</title>
<polygon fill="none" stroke="#bfbfbf" points="310.6462,-56.5 310.6462,-75.5 369.6462,-75.5 369.6462,-56.5 310.6462,-56.5"/>
<text text-anchor="middle" x="340.1462" y="-63.5" font-family="Helvetica,sans-Serif" font-size="10.00" fill="#000000">stdexcept</text>
</g>
<!-- Node15&#45;&gt;Node16 -->
<g id="edge22" class="edge">
<title>Node15&#45;&gt;Node16</title>
<path fill="none" stroke="#191970" d="M652.0302,-113.924C648.6941,-113.2459 645.3609,-112.5936 642.1462,-112 548.6153,-94.7281 437.9206,-79.0807 380.0106,-71.2581"/>
<polygon fill="#191970" stroke="#191970" points="380.2049,-67.7528 369.8279,-69.8899 379.2727,-74.6905 380.2049,-67.7528"/>
</g>
<!-- Node17&#45;&gt;Node2 -->
<g id="edge26" class="edge">
<title>Node17&#45;&gt;Node2</title>
<path fill="none" stroke="#191970" d="M496.6331,-224.4509C517.6019,-205.3574 564.9214,-162.2697 591.0187,-138.5063"/>
<polygon fill="#191970" stroke="#191970" points="593.6483,-140.8455 598.6859,-131.5249 588.9354,-135.6697 593.6483,-140.8455"/>
</g>
<!-- Node17&#45;&gt;Node3 -->
<g id="edge27" class="edge">
<title>Node17&#45;&gt;Node3</title>
<path fill="none" stroke="#191970" d="M511.5883,-224.3733C535.8789,-215.1822 572.667,-201.2624 599.6005,-191.0713"/>
<polygon fill="#191970" stroke="#191970" points="600.9219,-194.3136 609.0361,-187.5011 598.4446,-187.7666 600.9219,-194.3136"/>
</g>
<!-- Node17&#45;&gt;Node4 -->
<g id="edge28" class="edge">
<title>Node17&#45;&gt;Node4</title>
<path fill="none" stroke="#191970" d="M463.4546,-224.3733C441.5569,-215.0833 408.2713,-200.9621 384.1845,-190.7435"/>
<polygon fill="#191970" stroke="#191970" points="385.3791,-187.4484 374.8064,-186.7649 382.6452,-193.8925 385.3791,-187.4484"/>
</g>
<!-- Node18 -->
<g id="node19" class="node">
<title>Node18</title>
<polygon fill="none" stroke="#bfbfbf" points="392.6462,-168.5 392.6462,-187.5 433.6462,-187.5 433.6462,-168.5 392.6462,-168.5"/>
<text text-anchor="middle" x="413.1462" y="-175.5" font-family="Helvetica,sans-Serif" font-size="10.00" fill="#000000">bitset</text>
</g>
<!-- Node17&#45;&gt;Node18 -->
<g id="edge25" class="edge">
<title>Node17&#45;&gt;Node18</title>
<path fill="none" stroke="#191970" d="M473.4306,-224.2455C462.5442,-215.8943 446.658,-203.7076 433.9262,-193.9408"/>
<polygon fill="#191970" stroke="#191970" points="435.7808,-190.9523 425.7161,-187.6427 431.5202,-196.5063 435.7808,-190.9523"/>
</g>
<!-- Node19 -->
<g id="node20" class="node">
<title>Node19</title>
<polygon fill="none" stroke="#bfbfbf" points="452.1462,-168.5 452.1462,-187.5 514.1462,-187.5 514.1462,-168.5 452.1462,-168.5"/>
<text text-anchor="middle" x="483.1462" y="-175.5" font-family="Helvetica,sans-Serif" font-size="10.00" fill="#000000">type_traits</text>
</g>
<!-- Node17&#45;&gt;Node19 -->
<g id="edge29" class="edge">
<title>Node17&#45;&gt;Node19</title>
<path fill="none" stroke="#191970" d="M485.6237,-224.2455C485.2322,-216.9382 484.6834,-206.6944 484.2018,-197.7046"/>
<polygon fill="#191970" stroke="#191970" points="487.6928,-197.4411 483.6628,-187.6427 480.7029,-197.8156 487.6928,-197.4411"/>
</g>
<!-- Node20&#45;&gt;Node2 -->
<g id="edge35" class="edge">
<title>Node20&#45;&gt;Node2</title>
<path fill="none" stroke="#191970" d="M276.8866,-170.411C281.6814,-169.5543 286.5214,-168.7287 291.1462,-168 413.6366,-148.6989 448.8313,-157.5531 574.3807,-131.8612"/>
<polygon fill="#191970" stroke="#191970" points="575.3023,-135.2445 584.3802,-129.7818 573.8771,-128.3912 575.3023,-135.2445"/>
</g>
<!-- Node20&#45;&gt;Node14 -->
<g id="edge32" class="edge">
<title>Node20&#45;&gt;Node14</title>
<path fill="none" stroke="#191970" d="M199.2599,-176.1424C139.242,-172.3699 28.4092,-161.497 4.1462,-132 -1.5005,-125.1351 -1.1452,-119.1424 4.1462,-112 39.9942,-63.6123 220.9727,-29.0322 300.9961,-15.8663"/>
<polygon fill="#191970" stroke="#191970" points="301.8301,-19.2769 311.1419,-14.2232 300.711,-12.367 301.8301,-19.2769"/>
</g>
<!-- Node20&#45;&gt;Node16 -->
<g id="edge37" class="edge">
<title>Node20&#45;&gt;Node16</title>
<path fill="none" stroke="#191970" d="M199.6271,-175.867C141.4293,-171.749 35.3889,-160.45 12.1462,-132 6.5225,-125.1163 6.3136,-118.7077 12.1462,-112 30.8485,-90.4919 217.3282,-74.7069 300.4823,-68.6815"/>
<polygon fill="#191970" stroke="#191970" points="300.838,-72.1651 310.5636,-67.9622 300.3398,-65.1828 300.838,-72.1651"/>
</g>
<!-- Node21 -->
<g id="node22" class="node">
<title>Node21</title>
<polygon fill="none" stroke="#bfbfbf" points="21.6462,-112.5 21.6462,-131.5 66.6462,-131.5 66.6462,-112.5 21.6462,-112.5"/>
<text text-anchor="middle" x="44.1462" y="-119.5" font-family="Helvetica,sans-Serif" font-size="10.00" fill="#000000">cstdlib</text>
</g>
<!-- Node20&#45;&gt;Node21 -->
<g id="edge31" class="edge">
<title>Node20&#45;&gt;Node21</title>
<path fill="none" stroke="#191970" d="M203.6237,-168.4799C172.7631,-159.9068 126.0776,-146.7845 76.4732,-132.0446"/>
<polygon fill="#191970" stroke="#191970" points="77.4326,-128.6785 66.8494,-129.1754 75.4325,-135.3867 77.4326,-128.6785"/>
</g>
<!-- Node22 -->
<g id="node23" class="node">
<title>Node22</title>
<polygon fill="none" stroke="#bfbfbf" points="85.1462,-112.5 85.1462,-131.5 131.1462,-131.5 131.1462,-112.5 85.1462,-112.5"/>
<text text-anchor="middle" x="108.1462" y="-119.5" font-family="Helvetica,sans-Serif" font-size="10.00" fill="#000000">cstdint</text>
</g>
<!-- Node20&#45;&gt;Node22 -->
<g id="edge33" class="edge">
<title>Node20&#45;&gt;Node22</title>
<path fill="none" stroke="#191970" d="M215.7984,-168.3733C194.7429,-159.3032 162.9967,-145.6279 139.4287,-135.4755"/>
<polygon fill="#191970" stroke="#191970" points="140.7712,-132.243 130.2024,-131.5011 138.0018,-138.6719 140.7712,-132.243"/>
</g>
<!-- Node23 -->
<g id="node24" class="node">
<title>Node23</title>
<polygon fill="none" stroke="#bfbfbf" points="149.1462,-112.5 149.1462,-131.5 195.1462,-131.5 195.1462,-112.5 149.1462,-112.5"/>
<text text-anchor="middle" x="172.1462" y="-119.5" font-family="Helvetica,sans-Serif" font-size="10.00" fill="#000000">cstring</text>
</g>
<!-- Node20&#45;&gt;Node23 -->
<g id="edge34" class="edge">
<title>Node20&#45;&gt;Node23</title>
<path fill="none" stroke="#191970" d="M226.6499,-168.2455C216.902,-159.9746 202.7203,-147.9416 191.2665,-138.2232"/>
<polygon fill="#191970" stroke="#191970" points="193.4004,-135.4437 183.5108,-131.6427 188.8715,-140.7813 193.4004,-135.4437"/>
</g>
<!-- Node24 -->
<g id="node25" class="node">
<title>Node24</title>
<polygon fill="none" stroke="#bfbfbf" points="213.1462,-112.5 213.1462,-131.5 253.1462,-131.5 253.1462,-112.5 213.1462,-112.5"/>
<text text-anchor="middle" x="233.1462" y="-119.5" font-family="Helvetica,sans-Serif" font-size="10.00" fill="#000000">limits</text>
</g>
<!-- Node20&#45;&gt;Node24 -->
<g id="edge36" class="edge">
<title>Node20&#45;&gt;Node24</title>
<path fill="none" stroke="#191970" d="M237.2753,-168.2455C236.6229,-160.9382 235.7082,-150.6944 234.9056,-141.7046"/>
<polygon fill="#191970" stroke="#191970" points="238.3827,-141.2918 234.0072,-131.6427 231.4105,-141.9143 238.3827,-141.2918"/>
</g>
<!-- Node25 -->
<g id="node26" class="node">
<title>Node25</title>
<polygon fill="none" stroke="#bfbfbf" points="271.1462,-112.5 271.1462,-131.5 315.1462,-131.5 315.1462,-112.5 271.1462,-112.5"/>
<text text-anchor="middle" x="293.1462" y="-119.5" font-family="Helvetica,sans-Serif" font-size="10.00" fill="#000000">vector</text>
</g>
<!-- Node20&#45;&gt;Node25 -->
<g id="edge38" class="edge">
<title>Node20&#45;&gt;Node25</title>
<path fill="none" stroke="#191970" d="M247.7265,-168.2455C255.692,-160.1352 267.2103,-148.4075 276.6542,-138.7919"/>
<polygon fill="#191970" stroke="#191970" points="279.1657,-141.2297 283.6757,-131.6427 274.1716,-136.3247 279.1657,-141.2297"/>
</g>
<!-- Node26 -->
<g id="node27" class="node">
<title>Node26</title>
<polygon fill="none" stroke="#bfbfbf" points="333.1462,-112.5 333.1462,-131.5 383.1462,-131.5 383.1462,-112.5 333.1462,-112.5"/>
<text text-anchor="middle" x="358.1462" y="-119.5" font-family="Helvetica,sans-Serif" font-size="10.00" fill="#000000">fstream</text>
</g>
<!-- Node20&#45;&gt;Node26 -->
<g id="edge39" class="edge">
<title>Node20&#45;&gt;Node26</title>
<path fill="none" stroke="#191970" d="M258.775,-168.3733C278.0381,-159.3838 306.9949,-145.8706 328.6882,-135.7471"/>
<polygon fill="#191970" stroke="#191970" points="330.205,-138.9017 337.7867,-131.5011 327.2447,-132.5584 330.205,-138.9017"/>
</g>
<!-- Node27 -->
<g id="node28" class="node">
<title>Node27</title>
<polygon fill="none" stroke="#bfbfbf" points="401.6462,-112.5 401.6462,-131.5 448.6462,-131.5 448.6462,-112.5 401.6462,-112.5"/>
<text text-anchor="middle" x="425.1462" y="-119.5" font-family="Helvetica,sans-Serif" font-size="10.00" fill="#000000">iterator</text>
</g>
<!-- Node20&#45;&gt;Node27 -->
<g id="edge40" class="edge">
<title>Node20&#45;&gt;Node27</title>
<path fill="none" stroke="#191970" d="M270.3073,-168.4339C299.5223,-159.7351 344.056,-146.453 391.7741,-132.1042"/>
<polygon fill="#191970" stroke="#191970" points="392.789,-135.4539 401.3566,-129.2213 390.7722,-128.7507 392.789,-135.4539"/>
</g>
<!-- Node28 -->
<g id="node29" class="node">
<title>Node28</title>
<polygon fill="none" stroke="#bfbfbf" points="467.1462,-112.5 467.1462,-131.5 513.1462,-131.5 513.1462,-112.5 467.1462,-112.5"/>
<text text-anchor="middle" x="490.1462" y="-119.5" font-family="Helvetica,sans-Serif" font-size="10.00" fill="#000000">chrono</text>
</g>
<!-- Node20&#45;&gt;Node28 -->
<g id="edge41" class="edge">
<title>Node20&#45;&gt;Node28</title>
<path fill="none" stroke="#191970" d="M276.9711,-170.2696C330.3348,-159.5712 423.5555,-140.5998 457.1462,-132 457.2477,-131.974 457.3494,-131.9479 457.4512,-131.9217"/>
<polygon fill="#191970" stroke="#191970" points="458.4289,-135.2828 467.1393,-129.2514 456.5688,-128.5345 458.4289,-135.2828"/>
</g>
<!-- Node29 -->
<g id="node30" class="node">
<title>Node29</title>
<polygon fill="none" stroke="#bfbfbf" points="531.6462,-112.5 531.6462,-131.5 566.6462,-131.5 566.6462,-112.5 531.6462,-112.5"/>
<text text-anchor="middle" x="549.1462" y="-119.5" font-family="Helvetica,sans-Serif" font-size="10.00" fill="#000000">dc.h</text>
</g>
<!-- Node20&#45;&gt;Node29 -->
<g id="edge42" class="edge">
<title>Node20&#45;&gt;Node29</title>
<path fill="none" stroke="#191970" d="M276.9077,-170.539C281.6989,-169.6603 286.5323,-168.7946 291.1462,-168 390.4448,-150.8991 419.8249,-157.7254 521.8204,-131.6204"/>
<polygon fill="#191970" stroke="#191970" points="522.7936,-134.9838 531.5894,-129.0775 521.0302,-128.2095 522.7936,-134.9838"/>
</g>
<!-- Node30&#45;&gt;Node7 -->
<g id="edge47" class="edge">
<title>Node30&#45;&gt;Node7</title>
<path fill="none" stroke="#191970" d="M859.4905,-280.4207C899.9534,-272.0421 951.6054,-258.9044 967.1462,-244 979.7888,-231.8751 985.1676,-212.3054 987.4553,-197.6179"/>
<polygon fill="#191970" stroke="#191970" points="990.9478,-197.8893 988.6712,-187.542 983.9982,-197.0506 990.9478,-197.8893"/>
</g>
<!-- Node31 -->
<g id="node32" class="node">
<title>Node31</title>
<g id="a_node32"><a xlink:href="domain_8hh.html" target="_top" xlink:title="domain.hh">
<polygon fill="none" stroke="#000000" points="736.1462,-224.5 736.1462,-243.5 798.1462,-243.5 798.1462,-224.5 736.1462,-224.5"/>
<text text-anchor="middle" x="767.1462" y="-231.5" font-family="Helvetica,sans-Serif" font-size="10.00" fill="#000000">domain.hh</text>
</a>
</g>
</g>
<!-- Node30&#45;&gt;Node31 -->
<g id="edge48" class="edge">
<title>Node30&#45;&gt;Node31</title>
<path fill="none" stroke="#191970" d="M800.1788,-280.2455C794.6151,-272.4564 786.6682,-261.3308 779.9633,-251.9439"/>
<polygon fill="#191970" stroke="#191970" points="782.6944,-249.7457 774.0339,-243.6427 776.9982,-253.8144 782.6944,-249.7457"/>
</g>
<!-- Node30&#45;&gt;Node33 -->
<g id="edge56" class="edge">
<title>Node30&#45;&gt;Node33</title>
<path fill="none" stroke="#191970" d="M824.3907,-280.2455C839.7223,-271.5731 862.3661,-258.7645 879.9378,-248.825"/>
<polygon fill="#191970" stroke="#191970" points="882.1186,-251.6126 889.0994,-243.6427 878.6721,-245.5198 882.1186,-251.6126"/>
</g>
<!-- Node31&#45;&gt;Node2 -->
<g id="edge51" class="edge">
<title>Node31&#45;&gt;Node2</title>
<path fill="none" stroke="#191970" d="M753.6752,-224.4509C726.3899,-205.1094 664.3708,-161.1465 631.1398,-137.5904"/>
<polygon fill="#191970" stroke="#191970" points="632.7654,-134.4526 622.5831,-131.5249 628.7173,-140.1633 632.7654,-134.4526"/>
</g>
<!-- Node31&#45;&gt;Node3 -->
<g id="edge52" class="edge">
<title>Node31&#45;&gt;Node3</title>
<path fill="none" stroke="#191970" d="M744.2827,-224.3733C722.7413,-215.3032 690.2625,-201.6279 666.1506,-191.4755"/>
<polygon fill="#191970" stroke="#191970" points="667.286,-188.156 656.7114,-187.5011 664.5695,-194.6075 667.286,-188.156"/>
</g>
<!-- Node31&#45;&gt;Node8 -->
<g id="edge53" class="edge">
<title>Node31&#45;&gt;Node8</title>
<path fill="none" stroke="#191970" d="M785.3952,-224.3618C798.7186,-216.3783 816.1351,-203.7984 826.1462,-188 858.1327,-137.5224 864.6979,-64.7648 865.9387,-29.9857"/>
<polygon fill="#191970" stroke="#191970" points="869.4437,-29.8151 866.1844,-19.7341 862.4457,-29.6473 869.4437,-29.8151"/>
</g>
<!-- Node31&#45;&gt;Node11 -->
<g id="edge54" class="edge">
<title>Node31&#45;&gt;Node11</title>
<path fill="none" stroke="#191970" d="M768.8881,-224.2455C770.193,-216.9382 772.0222,-206.6944 773.6276,-197.7046"/>
<polygon fill="#191970" stroke="#191970" points="777.1118,-198.1022 775.4243,-187.6427 770.2208,-196.8717 777.1118,-198.1022"/>
</g>
<!-- Node31&#45;&gt;Node12 -->
<g id="edge49" class="edge">
<title>Node31&#45;&gt;Node12</title>
<path fill="none" stroke="#191970" d="M780.1743,-224.3141C790.2255,-215.9649 803.3588,-202.922 809.1462,-188 830.34,-133.3555 809.9965,-62.622 797.8133,-29.1597"/>
<polygon fill="#191970" stroke="#191970" points="801.032,-27.7767 794.2074,-19.6726 794.4887,-30.2638 801.032,-27.7767"/>
</g>
<!-- Node31&#45;&gt;Node15 -->
<g id="edge55" class="edge">
<title>Node31&#45;&gt;Node15</title>
<path fill="none" stroke="#191970" d="M760.4107,-224.4509C747.1762,-205.688 717.5982,-163.7548 700.6719,-139.758"/>
<polygon fill="#191970" stroke="#191970" points="703.4888,-137.6792 694.8647,-131.5249 697.7686,-141.714 703.4888,-137.6792"/>
</g>
<!-- Node32 -->
<g id="node33" class="node">
<title>Node32</title>
<polygon fill="none" stroke="#bfbfbf" points="894.1462,-168.5 894.1462,-187.5 944.1462,-187.5 944.1462,-168.5 894.1462,-168.5"/>
<text text-anchor="middle" x="919.1462" y="-175.5" font-family="Helvetica,sans-Serif" font-size="10.00" fill="#000000">iomanip</text>
</g>
<!-- Node31&#45;&gt;Node32 -->
<g id="edge50" class="edge">
<title>Node31&#45;&gt;Node32</title>
<path fill="none" stroke="#191970" d="M793.276,-224.3733C818.4498,-215.0987 856.6935,-201.0089 884.4187,-190.7943"/>
<polygon fill="#191970" stroke="#191970" points="885.9403,-193.9638 894.1137,-187.2225 883.5203,-187.3954 885.9403,-193.9638"/>
</g>
<!-- Node33&#45;&gt;Node7 -->
<g id="edge58" class="edge">
<title>Node33&#45;&gt;Node7</title>
<path fill="none" stroke="#191970" d="M920.6037,-224.2455C933.2195,-215.7337 951.7407,-203.2375 966.3508,-193.3801"/>
<polygon fill="#191970" stroke="#191970" points="968.5223,-196.1371 974.8544,-187.6427 964.6072,-190.3343 968.5223,-196.1371"/>
</g>
<!-- Node33&#45;&gt;Node11 -->
<g id="edge57" class="edge">
<title>Node33&#45;&gt;Node11</title>
<path fill="none" stroke="#191970" d="M883.9703,-224.3733C863.1696,-215.3435 831.8546,-201.7494 808.5004,-191.6111"/>
<polygon fill="#191970" stroke="#191970" points="809.5995,-188.2727 799.0327,-187.5011 806.812,-194.6938 809.5995,-188.2727"/>
</g>
<!-- Node34&#45;&gt;Node3 -->
<g id="edge61" class="edge">
<title>Node34&#45;&gt;Node3</title>
<path fill="none" stroke="#191970" d="M1122.6259,-226.4003C1119.4753,-225.4804 1116.2475,-224.6412 1113.1462,-224 1091.4967,-219.5237 778.0873,-190.9935 670.2677,-181.2535"/>
<polygon fill="#191970" stroke="#191970" points="670.4731,-177.7579 660.1989,-180.3446 669.8437,-184.7296 670.4731,-177.7579"/>
</g>
<!-- Node34&#45;&gt;Node32 -->
<g id="edge63" class="edge">
<title>Node34&#45;&gt;Node32</title>
<path fill="none" stroke="#191970" d="M1122.5411,-226.7543C1119.4029,-225.7825 1116.2011,-224.8345 1113.1462,-224 1045.8551,-205.6171 1025.4409,-206.2022 954.2514,-188.156"/>
<polygon fill="#191970" stroke="#191970" points="954.9033,-184.7098 944.3467,-185.6092 953.1601,-191.4893 954.9033,-184.7098"/>
</g>
<!-- Node35 -->
<g id="node36" class="node">
<title>Node35</title>
<polygon fill="none" stroke="#bfbfbf" points="1156.6462,-168.5 1156.6462,-187.5 1185.6462,-187.5 1185.6462,-168.5 1156.6462,-168.5"/>
<text text-anchor="middle" x="1171.1462" y="-175.5" font-family="Helvetica,sans-Serif" font-size="10.00" fill="#000000">ios</text>
</g>
<!-- Node34&#45;&gt;Node35 -->
<g id="edge62" class="edge">
<title>Node34&#45;&gt;Node35</title>
<path fill="none" stroke="#191970" d="M1148.8493,-224.2455C1152.4886,-216.6973 1157.6386,-206.0158 1162.0724,-196.8197"/>
<polygon fill="#191970" stroke="#191970" points="1165.3067,-198.1704 1166.4971,-187.6427 1159.0013,-195.1303 1165.3067,-198.1704"/>
</g>
<!-- Node36 -->
<g id="node37" class="node">
<title>Node36</title>
<polygon fill="none" stroke="#bfbfbf" points="1094.1462,-168.5 1094.1462,-187.5 1138.1462,-187.5 1138.1462,-168.5 1094.1462,-168.5"/>
<text text-anchor="middle" x="1116.1462" y="-175.5" font-family="Helvetica,sans-Serif" font-size="10.00" fill="#000000">mutex</text>
</g>
<!-- Node34&#45;&gt;Node36 -->
<g id="edge64" class="edge">
<title>Node34&#45;&gt;Node36</title>
<path fill="none" stroke="#191970" d="M1139.269,-224.2455C1135.4949,-216.6973 1130.1541,-206.0158 1125.5561,-196.8197"/>
<polygon fill="#191970" stroke="#191970" points="1128.5703,-195.0217 1120.9676,-187.6427 1122.3093,-198.1522 1128.5703,-195.0217"/>
</g>
</g>
</svg>
