<?xml version="1.0" encoding="UTF-8" standalone="no"?>
<!DOCTYPE svg PUBLIC "-//W3C//DTD SVG 1.1//EN"
 "http://www.w3.org/Graphics/SVG/1.1/DTD/svg11.dtd">
<!-- Generated by graphviz version 2.40.1 (20161225.0304)
 -->
<!-- Title: src/arma_realtime_driver.hh Pages: 1 -->
<svg width="1472pt" height="420pt"
 viewBox="0.00 0.00 1472.00 420.00" xmlns="http://www.w3.org/2000/svg" xmlns:xlink="http://www.w3.org/1999/xlink">
<g id="graph0" class="graph" transform="scale(1 1) rotate(0) translate(4 416)">
<title>src/arma_realtime_driver.hh</title>
<!-- Node0 -->
<g id="node1" class="node">
<title>Node0</title>
<polygon fill="#bfbfbf" stroke="#000000" points="515.5,-392.5 515.5,-411.5 652.5,-411.5 652.5,-392.5 515.5,-392.5"/>
<text text-anchor="middle" x="584" y="-399.5" font-family="Helvetica,sans-Serif" font-size="10.00" fill="#000000">src/arma_realtime_driver.hh</text>
</g>
<!-- Node1 -->
<g id="node2" class="node">
<title>Node1</title>
<polygon fill="none" stroke="#bfbfbf" points="639.5,-112.5 639.5,-131.5 688.5,-131.5 688.5,-112.5 639.5,-112.5"/>
<text text-anchor="middle" x="664" y="-119.5" font-family="Helvetica,sans-Serif" font-size="10.00" fill="#000000">istream</text>
</g>
<!-- Node0&#45;&gt;Node1 -->
<g id="edge1" class="edge">
<title>Node0&#45;&gt;Node1</title>
<path fill="none" stroke="#191970" d="M548.6875,-392.3822C485.125,-374.0192 358,-332.0383 358,-290 358,-290 358,-290 358,-234 358,-134.7857 572.4171,-136.8849 629.1804,-131.0966"/>
<polygon fill="#191970" stroke="#191970" points="629.8202,-134.54 639.1932,-129.6007 628.7858,-127.6168 629.8202,-134.54"/>
</g>
<!-- Node2 -->
<g id="node3" class="node">
<title>Node2</title>
<polygon fill="none" stroke="#bfbfbf" points="0,-112.5 0,-131.5 44,-131.5 44,-112.5 0,-112.5"/>
<text text-anchor="middle" x="22" y="-119.5" font-family="Helvetica,sans-Serif" font-size="10.00" fill="#000000">vector</text>
</g>
<!-- Node0&#45;&gt;Node2 -->
<g id="edge2" class="edge">
<title>Node0&#45;&gt;Node2</title>
<path fill="none" stroke="#191970" d="M515.4814,-399.5069C387.0611,-392.9573 123,-369.789 123,-290 123,-290 123,-290 123,-234 123,-189.8652 79.2112,-155.2933 49.2988,-136.8258"/>
<polygon fill="#191970" stroke="#191970" points="50.9108,-133.7126 40.525,-131.6188 47.3383,-139.7323 50.9108,-133.7126"/>
</g>
<!-- Node3 -->
<g id="node4" class="node">
<title>Node3</title>
<g id="a_node4"><a xlink:href="arma__driver_8hh.html" target="_top" xlink:title="arma_driver.hh">
<polygon fill="none" stroke="#000000" points="770,-336.5 770,-355.5 850,-355.5 850,-336.5 770,-336.5"/>
<text text-anchor="middle" x="810" y="-343.5" font-family="Helvetica,sans-Serif" font-size="10.00" fill="#000000">arma_driver.hh</text>
</a>
</g>
</g>
<!-- Node0&#45;&gt;Node3 -->
<g id="edge3" class="edge">
<title>Node0&#45;&gt;Node3</title>
<path fill="none" stroke="#191970" d="M622.594,-392.4369C661.0284,-382.9133 720.136,-368.2672 761.671,-357.9753"/>
<polygon fill="#191970" stroke="#191970" points="762.7006,-361.3261 771.5652,-355.5237 761.0169,-354.5316 762.7006,-361.3261"/>
</g>
<!-- Node38 -->
<g id="node39" class="node">
<title>Node38</title>
<g id="a_node39"><a xlink:href="opengl_8hh.html" target="_top" xlink:title="opengl.hh">
<polygon fill="none" stroke="#000000" points="1130.5,-336.5 1130.5,-355.5 1189.5,-355.5 1189.5,-336.5 1130.5,-336.5"/>
<text text-anchor="middle" x="1160" y="-343.5" font-family="Helvetica,sans-Serif" font-size="10.00" fill="#000000">opengl.hh</text>
</a>
</g>
</g>
<!-- Node0&#45;&gt;Node38 -->
<g id="edge68" class="edge">
<title>Node0&#45;&gt;Node38</title>
<path fill="none" stroke="#191970" d="M652.6216,-395.3285C774.1022,-383.5178 1023.318,-359.2885 1120.2214,-349.8674"/>
<polygon fill="#191970" stroke="#191970" points="1120.8481,-353.323 1130.4625,-348.8717 1120.1707,-346.3559 1120.8481,-353.323"/>
</g>
<!-- Node3&#45;&gt;Node1 -->
<g id="edge5" class="edge">
<title>Node3&#45;&gt;Node1</title>
<path fill="none" stroke="#191970" d="M769.8904,-344.7397C696.2549,-341.6752 543.268,-331.5889 502,-300 458.8556,-266.9748 464.1246,-241.1822 453,-188 436.7167,-110.1561 541.8668,-148.8189 629.4195,-131.7305"/>
<polygon fill="#191970" stroke="#191970" points="630.1796,-135.1471 639.1844,-129.5646 628.6637,-128.3132 630.1796,-135.1471"/>
</g>
<!-- Node4 -->
<g id="node5" class="node">
<title>Node4</title>
<polygon fill="none" stroke="#bfbfbf" points="722.5,-280.5 722.5,-299.5 781.5,-299.5 781.5,-280.5 722.5,-280.5"/>
<text text-anchor="middle" x="752" y="-287.5" font-family="Helvetica,sans-Serif" font-size="10.00" fill="#000000">functional</text>
</g>
<!-- Node3&#45;&gt;Node4 -->
<g id="edge4" class="edge">
<title>Node3&#45;&gt;Node4</title>
<path fill="none" stroke="#191970" d="M799.8972,-336.2455C791.4972,-328.1352 779.3506,-316.4075 769.3916,-306.7919"/>
<polygon fill="#191970" stroke="#191970" points="771.6122,-304.0707 761.9871,-299.6427 766.75,-309.1066 771.6122,-304.0707"/>
</g>
<!-- Node5 -->
<g id="node6" class="node">
<title>Node5</title>
<polygon fill="none" stroke="#bfbfbf" points="619,-168.5 619,-187.5 671,-187.5 671,-168.5 619,-168.5"/>
<text text-anchor="middle" x="645" y="-175.5" font-family="Helvetica,sans-Serif" font-size="10.00" fill="#000000">ostream</text>
</g>
<!-- Node3&#45;&gt;Node5 -->
<g id="edge6" class="edge">
<title>Node3&#45;&gt;Node5</title>
<path fill="none" stroke="#191970" d="M778.6004,-336.4646C758.3115,-329.0694 732.3656,-317.1594 714,-300 682.433,-270.5062 661.464,-223.244 651.5758,-197.0439"/>
<polygon fill="#191970" stroke="#191970" points="654.8201,-195.7236 648.1209,-187.5156 648.2393,-198.1098 654.8201,-195.7236"/>
</g>
<!-- Node6 -->
<g id="node7" class="node">
<title>Node6</title>
<polygon fill="none" stroke="#bfbfbf" points="462.5,-168.5 462.5,-187.5 503.5,-187.5 503.5,-168.5 462.5,-168.5"/>
<text text-anchor="middle" x="483" y="-175.5" font-family="Helvetica,sans-Serif" font-size="10.00" fill="#000000">string</text>
</g>
<!-- Node3&#45;&gt;Node6 -->
<g id="edge7" class="edge">
<title>Node3&#45;&gt;Node6</title>
<path fill="none" stroke="#191970" d="M769.8332,-344.7139C699.3847,-341.6501 557.5449,-331.6245 521,-300 491.2031,-274.2149 484.4611,-225.4778 483.1257,-198.0528"/>
<polygon fill="#191970" stroke="#191970" points="486.6153,-197.6297 482.833,-187.733 479.6181,-197.8283 486.6153,-197.6297"/>
</g>
<!-- Node7 -->
<g id="node8" class="node">
<title>Node7</title>
<polygon fill="none" stroke="#bfbfbf" points="838.5,-280.5 838.5,-299.5 921.5,-299.5 921.5,-280.5 838.5,-280.5"/>
<text text-anchor="middle" x="880" y="-287.5" font-family="Helvetica,sans-Serif" font-size="10.00" fill="#000000">unordered_map</text>
</g>
<!-- Node3&#45;&gt;Node7 -->
<g id="edge8" class="edge">
<title>Node3&#45;&gt;Node7</title>
<path fill="none" stroke="#191970" d="M822.1931,-336.2455C832.6321,-327.8943 847.8655,-315.7076 860.074,-305.9408"/>
<polygon fill="#191970" stroke="#191970" points="862.3244,-308.6227 867.9467,-299.6427 857.9515,-303.1566 862.3244,-308.6227"/>
</g>
<!-- Node8 -->
<g id="node9" class="node">
<title>Node8</title>
<polygon fill="none" stroke="#bfbfbf" points="1156,-280.5 1156,-299.5 1212,-299.5 1212,-280.5 1156,-280.5"/>
<text text-anchor="middle" x="1184" y="-287.5" font-family="Helvetica,sans-Serif" font-size="10.00" fill="#000000">config.hh</text>
</g>
<!-- Node3&#45;&gt;Node8 -->
<g id="edge9" class="edge">
<title>Node3&#45;&gt;Node8</title>
<path fill="none" stroke="#191970" d="M850.224,-342.1964C911.8383,-336.0033 1033.4073,-322.3386 1145.6698,-300.0604"/>
<polygon fill="#191970" stroke="#191970" points="1146.6945,-303.4245 1155.8071,-298.0197 1145.313,-296.5621 1146.6945,-303.4245"/>
</g>
<!-- Node9 -->
<g id="node10" class="node">
<title>Node9</title>
<g id="a_node10"><a xlink:href="types_8hh.html" target="_top" xlink:title="types.hh">
<polygon fill="none" stroke="#000000" points="1172,-168.5 1172,-187.5 1226,-187.5 1226,-168.5 1172,-168.5"/>
<text text-anchor="middle" x="1199" y="-175.5" font-family="Helvetica,sans-Serif" font-size="10.00" fill="#000000">types.hh</text>
</a>
</g>
</g>
<!-- Node3&#45;&gt;Node9 -->
<g id="edge10" class="edge">
<title>Node3&#45;&gt;Node9</title>
<path fill="none" stroke="#191970" d="M850.2466,-343.782C953.705,-337.8121 1223.2648,-320.4639 1258,-300 1290.7109,-280.7287 1317.3584,-256.0456 1297,-224 1283.6881,-203.0462 1258.0251,-191.4692 1236.2996,-185.1711"/>
<polygon fill="#191970" stroke="#191970" points="1236.8991,-181.7101 1226.3384,-182.5598 1235.124,-188.4813 1236.8991,-181.7101"/>
</g>
<!-- Node11 -->
<g id="node12" class="node">
<title>Node11</title>
<g id="a_node12"><a xlink:href="arma_8hh.html" target="_top" xlink:title="arma.hh">
<polygon fill="none" stroke="#000000" points="1236,-224.5 1236,-243.5 1288,-243.5 1288,-224.5 1236,-224.5"/>
<text text-anchor="middle" x="1262" y="-231.5" font-family="Helvetica,sans-Serif" font-size="10.00" fill="#000000">arma.hh</text>
</a>
</g>
</g>
<!-- Node3&#45;&gt;Node11 -->
<g id="edge12" class="edge">
<title>Node3&#45;&gt;Node11</title>
<path fill="none" stroke="#191970" d="M850.1209,-344.0519C950.5158,-338.8461 1206.7291,-323.3971 1237,-300 1251.198,-289.0261 1257.3331,-269.0077 1259.9839,-253.8848"/>
<polygon fill="#191970" stroke="#191970" points="1263.4564,-254.3236 1261.3637,-243.9375 1256.5228,-253.3618 1263.4564,-254.3236"/>
</g>
<!-- Node12 -->
<g id="node13" class="node">
<title>Node12</title>
<g id="a_node13"><a xlink:href="basic__model_8hh.html" target="_top" xlink:title="generator/basic_model.hh">
<polygon fill="none" stroke="#000000" points="538,-280.5 538,-299.5 666,-299.5 666,-280.5 538,-280.5"/>
<text text-anchor="middle" x="602" y="-287.5" font-family="Helvetica,sans-Serif" font-size="10.00" fill="#000000">generator/basic_model.hh</text>
</a>
</g>
</g>
<!-- Node3&#45;&gt;Node12 -->
<g id="edge14" class="edge">
<title>Node3&#45;&gt;Node12</title>
<path fill="none" stroke="#191970" d="M774.2435,-336.3733C739.0574,-326.9001 685.2119,-312.4032 647.1044,-302.1435"/>
<polygon fill="#191970" stroke="#191970" points="647.856,-298.7213 637.2899,-299.5011 646.0361,-305.4806 647.856,-298.7213"/>
</g>
<!-- Node13 -->
<g id="node14" class="node">
<title>Node13</title>
<g id="a_node14"><a xlink:href="grid_8hh.html" target="_top" xlink:title="grid.hh">
<polygon fill="none" stroke="#000000" points="1023,-168.5 1023,-187.5 1069,-187.5 1069,-168.5 1023,-168.5"/>
<text text-anchor="middle" x="1046" y="-175.5" font-family="Helvetica,sans-Serif" font-size="10.00" fill="#000000">grid.hh</text>
</a>
</g>
</g>
<!-- Node3&#45;&gt;Node13 -->
<g id="edge48" class="edge">
<title>Node3&#45;&gt;Node13</title>
<path fill="none" stroke="#191970" d="M847.5242,-336.4945C872.5314,-329.0543 905.3837,-317.0813 931,-300 974.759,-270.821 1014.0386,-222.0516 1033.361,-195.8846"/>
<polygon fill="#191970" stroke="#191970" points="1036.3017,-197.7913 1039.3379,-187.6408 1030.6344,-193.6824 1036.3017,-197.7913"/>
</g>
<!-- Node19 -->
<g id="node20" class="node">
<title>Node19</title>
<g id="a_node20"><a xlink:href="output__flags_8hh.html" target="_top" xlink:title="output_flags.hh">
<polygon fill="none" stroke="#000000" points="533.5,-224.5 533.5,-243.5 616.5,-243.5 616.5,-224.5 533.5,-224.5"/>
<text text-anchor="middle" x="575" y="-231.5" font-family="Helvetica,sans-Serif" font-size="10.00" fill="#000000">output_flags.hh</text>
</a>
</g>
</g>
<!-- Node3&#45;&gt;Node19 -->
<g id="edge47" class="edge">
<title>Node3&#45;&gt;Node19</title>
<path fill="none" stroke="#191970" d="M769.8408,-342.288C695.9212,-335.048 544.4235,-318.1537 529,-300 515.2445,-283.8096 534.0756,-263.5581 551.6251,-249.7874"/>
<polygon fill="#191970" stroke="#191970" points="554.0353,-252.3579 559.989,-243.5941 549.8696,-246.7323 554.0353,-252.3579"/>
</g>
<!-- Node31 -->
<g id="node32" class="node">
<title>Node31</title>
<g id="a_node32"><a xlink:href="basic__solver_8hh.html" target="_top" xlink:title="velocity/basic_solver.hh">
<polygon fill="none" stroke="#000000" points="1016.5,-280.5 1016.5,-299.5 1137.5,-299.5 1137.5,-280.5 1016.5,-280.5"/>
<text text-anchor="middle" x="1077" y="-287.5" font-family="Helvetica,sans-Serif" font-size="10.00" fill="#000000">velocity/basic_solver.hh</text>
</a>
</g>
</g>
<!-- Node3&#45;&gt;Node31 -->
<g id="edge49" class="edge">
<title>Node3&#45;&gt;Node31</title>
<path fill="none" stroke="#191970" d="M850.2617,-337.5556C895.8782,-327.9881 970.5039,-312.3363 1021.5949,-301.6205"/>
<polygon fill="#191970" stroke="#191970" points="1022.4151,-305.0247 1031.4837,-299.5465 1020.9782,-298.1738 1022.4151,-305.0247"/>
</g>
<!-- Node34 -->
<g id="node35" class="node">
<title>Node34</title>
<g id="a_node35"><a xlink:href="discrete__function_8hh.html" target="_top" xlink:title="discrete_function.hh">
<polygon fill="none" stroke="#000000" points="1076,-224.5 1076,-243.5 1180,-243.5 1180,-224.5 1076,-224.5"/>
<text text-anchor="middle" x="1128" y="-231.5" font-family="Helvetica,sans-Serif" font-size="10.00" fill="#000000">discrete_function.hh</text>
</a>
</g>
</g>
<!-- Node3&#45;&gt;Node34 -->
<g id="edge62" class="edge">
<title>Node3&#45;&gt;Node34</title>
<path fill="none" stroke="#191970" d="M850.2365,-344.4861C948.8847,-340.3626 1196.5299,-327.3617 1221,-300 1241.0006,-277.636 1204.7338,-258.6218 1171.8069,-246.8281"/>
<polygon fill="#191970" stroke="#191970" points="1172.8055,-243.4708 1162.2109,-243.5504 1170.5428,-250.095 1172.8055,-243.4708"/>
</g>
<!-- Node35 -->
<g id="node36" class="node">
<title>Node35</title>
<g id="a_node36"><a xlink:href="util_8hh.html" target="_top" xlink:title="util.hh">
<polygon fill="none" stroke="#000000" points="737.5,-224.5 737.5,-243.5 780.5,-243.5 780.5,-224.5 737.5,-224.5"/>
<text text-anchor="middle" x="759" y="-231.5" font-family="Helvetica,sans-Serif" font-size="10.00" fill="#000000">util.hh</text>
</a>
</g>
</g>
<!-- Node3&#45;&gt;Node35 -->
<g id="edge63" class="edge">
<title>Node3&#45;&gt;Node35</title>
<path fill="none" stroke="#191970" d="M808.2345,-336.2443C805.6151,-323.0394 800.0155,-298.9505 791,-280 786.2734,-270.0648 779.4778,-259.9303 773.3636,-251.7116"/>
<polygon fill="#191970" stroke="#191970" points="776.0125,-249.4155 767.1268,-243.6454 770.4748,-253.6973 776.0125,-249.4155"/>
</g>
<!-- Node10 -->
<g id="node11" class="node">
<title>Node10</title>
<polygon fill="none" stroke="#bfbfbf" points="1101.5,-.5 1101.5,-19.5 1168.5,-19.5 1168.5,-.5 1101.5,-.5"/>
<text text-anchor="middle" x="1135" y="-7.5" font-family="Helvetica,sans-Serif" font-size="10.00" fill="#000000">blitz/array.h</text>
</g>
<!-- Node9&#45;&gt;Node10 -->
<g id="edge11" class="edge">
<title>Node9&#45;&gt;Node10</title>
<path fill="none" stroke="#191970" d="M1195.3757,-168.4862C1185.1712,-141.6994 1156.0501,-65.2565 1142.3253,-29.2289"/>
<polygon fill="#191970" stroke="#191970" points="1145.5747,-27.9268 1138.744,-19.8279 1139.0333,-30.4188 1145.5747,-27.9268"/>
</g>
<!-- Node11&#45;&gt;Node9 -->
<g id="edge13" class="edge">
<title>Node11&#45;&gt;Node9</title>
<path fill="none" stroke="#191970" d="M1251.0262,-224.2455C1241.8118,-216.0549 1228.4468,-204.1749 1217.5703,-194.5069"/>
<polygon fill="#191970" stroke="#191970" points="1219.6474,-191.6704 1209.848,-187.6427 1214.9968,-196.9023 1219.6474,-191.6704"/>
</g>
<!-- Node12&#45;&gt;Node1 -->
<g id="edge15" class="edge">
<title>Node12&#45;&gt;Node1</title>
<path fill="none" stroke="#191970" d="M571.5288,-280.404C517.0479,-261.7071 412.2784,-217.8377 453,-168 501.8096,-108.2637 548.3112,-147.9524 629.1529,-131.8192"/>
<polygon fill="#191970" stroke="#191970" points="630.1953,-135.1724 639.1844,-129.5646 628.6602,-128.3427 630.1953,-135.1724"/>
</g>
<!-- Node12&#45;&gt;Node5 -->
<g id="edge16" class="edge">
<title>Node12&#45;&gt;Node5</title>
<path fill="none" stroke="#191970" d="M607.7358,-280.3987C613.0098,-271.2742 620.7801,-257.0465 626,-244 632.0903,-228.7781 637.1195,-210.8677 640.4705,-197.5482"/>
<polygon fill="#191970" stroke="#191970" points="643.9278,-198.142 642.8771,-187.5994 637.124,-196.4961 643.9278,-198.142"/>
</g>
<!-- Node12&#45;&gt;Node9 -->
<g id="edge46" class="edge">
<title>Node12&#45;&gt;Node9</title>
<path fill="none" stroke="#191970" d="M666.3064,-283.6572C758.8486,-274.2898 924.9425,-256.5163 984,-244 1048.536,-230.3227 1121.5355,-205.951 1163.7168,-190.9585"/>
<polygon fill="#191970" stroke="#191970" points="1165.0137,-194.2118 1173.2472,-187.544 1162.6526,-187.622 1165.0137,-194.2118"/>
</g>
<!-- Node12&#45;&gt;Node13 -->
<g id="edge17" class="edge">
<title>Node12&#45;&gt;Node13</title>
<path fill="none" stroke="#191970" d="M666.1172,-283.2921C760.0854,-273.2045 926.9311,-254.2238 953,-244 982.1451,-232.5697 1010.7675,-210.0793 1028.3933,-194.5528"/>
<polygon fill="#191970" stroke="#191970" points="1031.0468,-196.8722 1036.1167,-187.5691 1026.3519,-191.68 1031.0468,-196.8722"/>
</g>
<!-- Node12&#45;&gt;Node19 -->
<g id="edge27" class="edge">
<title>Node12&#45;&gt;Node19</title>
<path fill="none" stroke="#191970" d="M597.297,-280.2455C593.6576,-272.6973 588.5076,-262.0158 584.0738,-252.8197"/>
<polygon fill="#191970" stroke="#191970" points="587.1449,-251.1303 579.6491,-243.6427 580.8395,-254.1704 587.1449,-251.1303"/>
</g>
<!-- Node22 -->
<g id="node23" class="node">
<title>Node22</title>
<g id="a_node23"><a xlink:href="parallel__mt_8hh.html" target="_top" xlink:title="parallel_mt.hh">
<polygon fill="none" stroke="#000000" points="252.5,-168.5 252.5,-187.5 329.5,-187.5 329.5,-168.5 252.5,-168.5"/>
<text text-anchor="middle" x="291" y="-175.5" font-family="Helvetica,sans-Serif" font-size="10.00" fill="#000000">parallel_mt.hh</text>
</a>
</g>
</g>
<!-- Node12&#45;&gt;Node22 -->
<g id="edge33" class="edge">
<title>Node12&#45;&gt;Node22</title>
<path fill="none" stroke="#191970" d="M537.7079,-283.7825C492.6282,-277.7163 431.7733,-266.0369 382,-244 353.9351,-231.5744 326.0095,-209.5078 308.6434,-194.3347"/>
<polygon fill="#191970" stroke="#191970" points="310.8001,-191.568 301.0122,-187.5123 306.1346,-196.7866 310.8001,-191.568"/>
</g>
<!-- Node13&#45;&gt;Node1 -->
<g id="edge19" class="edge">
<title>Node13&#45;&gt;Node1</title>
<path fill="none" stroke="#191970" d="M1022.9645,-174.6231C958.4133,-165.1601 775.4789,-138.3425 698.6511,-127.0797"/>
<polygon fill="#191970" stroke="#191970" points="698.9399,-123.5848 688.538,-125.5972 697.9246,-130.5107 698.9399,-123.5848"/>
</g>
<!-- Node14 -->
<g id="node15" class="node">
<title>Node14</title>
<polygon fill="none" stroke="#bfbfbf" points="1037,-.5 1037,-19.5 1081,-19.5 1081,-.5 1037,-.5"/>
<text text-anchor="middle" x="1059" y="-7.5" font-family="Helvetica,sans-Serif" font-size="10.00" fill="#000000">cmath</text>
</g>
<!-- Node13&#45;&gt;Node14 -->
<g id="edge18" class="edge">
<title>Node13&#45;&gt;Node14</title>
<path fill="none" stroke="#191970" d="M1046.7362,-168.4862C1048.7912,-141.9293 1054.6229,-66.5651 1057.4396,-30.1655"/>
<polygon fill="#191970" stroke="#191970" points="1060.9575,-30.0681 1058.2395,-19.8279 1053.9783,-29.528 1060.9575,-30.0681"/>
</g>
<!-- Node15 -->
<g id="node16" class="node">
<title>Node15</title>
<g id="a_node16"><a xlink:href="blitz_8hh.html" target="_top" xlink:title="blitz.hh">
<polygon fill="none" stroke="#000000" points="983,-56.5 983,-75.5 1031,-75.5 1031,-56.5 983,-56.5"/>
<text text-anchor="middle" x="1007" y="-63.5" font-family="Helvetica,sans-Serif" font-size="10.00" fill="#000000">blitz.hh</text>
</a>
</g>
</g>
<!-- Node13&#45;&gt;Node15 -->
<g id="edge20" class="edge">
<title>Node13&#45;&gt;Node15</title>
<path fill="none" stroke="#191970" d="M1042.6749,-168.4509C1036.2565,-150.0186 1022.0517,-109.2254 1013.631,-85.043"/>
<polygon fill="#191970" stroke="#191970" points="1016.9106,-83.8177 1010.3167,-75.5249 1010.2999,-86.1197 1016.9106,-83.8177"/>
</g>
<!-- Node17 -->
<g id="node18" class="node">
<title>Node17</title>
<g id="a_node18"><a xlink:href="validators_8hh.html" target="_top" xlink:title="validators.hh">
<polygon fill="none" stroke="#000000" points="921,-112.5 921,-131.5 993,-131.5 993,-112.5 921,-112.5"/>
<text text-anchor="middle" x="957" y="-119.5" font-family="Helvetica,sans-Serif" font-size="10.00" fill="#000000">validators.hh</text>
</a>
</g>
</g>
<!-- Node13&#45;&gt;Node17 -->
<g id="edge24" class="edge">
<title>Node13&#45;&gt;Node17</title>
<path fill="none" stroke="#191970" d="M1030.4974,-168.2455C1016.842,-159.6534 996.7343,-147.0014 981.0011,-137.1018"/>
<polygon fill="#191970" stroke="#191970" points="982.6529,-134.006 972.325,-131.6427 978.9249,-139.9307 982.6529,-134.006"/>
</g>
<!-- Node15&#45;&gt;Node10 -->
<g id="edge22" class="edge">
<title>Node15&#45;&gt;Node10</title>
<path fill="none" stroke="#191970" d="M1029.004,-56.3733C1049.6435,-47.3435 1080.7158,-33.7494 1103.8889,-23.6111"/>
<polygon fill="#191970" stroke="#191970" points="1105.5245,-26.7159 1113.2831,-19.5011 1102.7187,-20.3028 1105.5245,-26.7159"/>
</g>
<!-- Node15&#45;&gt;Node14 -->
<g id="edge23" class="edge">
<title>Node15&#45;&gt;Node14</title>
<path fill="none" stroke="#191970" d="M1016.0577,-56.2455C1023.5142,-48.2155 1034.2634,-36.6394 1043.1417,-27.0781"/>
<polygon fill="#191970" stroke="#191970" points="1045.8063,-29.3522 1050.0461,-19.6427 1040.6768,-24.589 1045.8063,-29.3522"/>
</g>
<!-- Node16 -->
<g id="node17" class="node">
<title>Node16</title>
<polygon fill="none" stroke="#bfbfbf" points="594,-.5 594,-19.5 650,-19.5 650,-.5 594,-.5"/>
<text text-anchor="middle" x="622" y="-7.5" font-family="Helvetica,sans-Serif" font-size="10.00" fill="#000000">algorithm</text>
</g>
<!-- Node15&#45;&gt;Node16 -->
<g id="edge21" class="edge">
<title>Node15&#45;&gt;Node16</title>
<path fill="none" stroke="#191970" d="M982.9165,-62.4969C918.007,-53.0556 739.0234,-27.0216 660.1611,-15.5507"/>
<polygon fill="#191970" stroke="#191970" points="660.5634,-12.0725 650.1637,-14.0965 659.5558,-18.9996 660.5634,-12.0725"/>
</g>
<!-- Node17&#45;&gt;Node15 -->
<g id="edge26" class="edge">
<title>Node17&#45;&gt;Node15</title>
<path fill="none" stroke="#191970" d="M965.7093,-112.2455C972.8073,-104.2958 983.0084,-92.8706 991.495,-83.3656"/>
<polygon fill="#191970" stroke="#191970" points="994.3411,-85.4331 998.3905,-75.6427 989.1195,-80.771 994.3411,-85.4331"/>
</g>
<!-- Node18 -->
<g id="node19" class="node">
<title>Node18</title>
<polygon fill="none" stroke="#bfbfbf" points="593.5,-56.5 593.5,-75.5 652.5,-75.5 652.5,-56.5 593.5,-56.5"/>
<text text-anchor="middle" x="623" y="-63.5" font-family="Helvetica,sans-Serif" font-size="10.00" fill="#000000">stdexcept</text>
</g>
<!-- Node17&#45;&gt;Node18 -->
<g id="edge25" class="edge">
<title>Node17&#45;&gt;Node18</title>
<path fill="none" stroke="#191970" d="M920.9388,-115.9538C857.8531,-105.3766 727.9609,-83.5982 662.5203,-72.6262"/>
<polygon fill="#191970" stroke="#191970" points="663.0321,-69.1632 652.591,-70.9614 661.8746,-76.0668 663.0321,-69.1632"/>
</g>
<!-- Node19&#45;&gt;Node1 -->
<g id="edge29" class="edge">
<title>Node19&#45;&gt;Node1</title>
<path fill="none" stroke="#191970" d="M578.7427,-224.3664C584.2723,-210.879 595.548,-186.0032 610,-168 619.0345,-156.7455 631.1132,-146.1556 641.5559,-137.9802"/>
<polygon fill="#191970" stroke="#191970" points="643.9727,-140.5409 649.8403,-131.7192 639.7521,-134.9564 643.9727,-140.5409"/>
</g>
<!-- Node19&#45;&gt;Node5 -->
<g id="edge30" class="edge">
<title>Node19&#45;&gt;Node5</title>
<path fill="none" stroke="#191970" d="M587.1931,-224.2455C597.6321,-215.8943 612.8655,-203.7076 625.074,-193.9408"/>
<polygon fill="#191970" stroke="#191970" points="627.3244,-196.6227 632.9467,-187.6427 622.9515,-191.1566 627.3244,-196.6227"/>
</g>
<!-- Node19&#45;&gt;Node6 -->
<g id="edge31" class="edge">
<title>Node19&#45;&gt;Node6</title>
<path fill="none" stroke="#191970" d="M558.9748,-224.2455C544.8592,-215.6534 524.0737,-203.0014 507.8101,-193.1018"/>
<polygon fill="#191970" stroke="#191970" points="509.2034,-189.8525 498.8415,-187.6427 505.5637,-195.8319 509.2034,-189.8525"/>
</g>
<!-- Node20 -->
<g id="node21" class="node">
<title>Node20</title>
<polygon fill="none" stroke="#bfbfbf" points="521.5,-168.5 521.5,-187.5 562.5,-187.5 562.5,-168.5 521.5,-168.5"/>
<text text-anchor="middle" x="542" y="-175.5" font-family="Helvetica,sans-Serif" font-size="10.00" fill="#000000">bitset</text>
</g>
<!-- Node19&#45;&gt;Node20 -->
<g id="edge28" class="edge">
<title>Node19&#45;&gt;Node20</title>
<path fill="none" stroke="#191970" d="M569.2518,-224.2455C564.7565,-216.617 558.3752,-205.7881 552.9175,-196.5267"/>
<polygon fill="#191970" stroke="#191970" points="555.7747,-194.4811 547.6823,-187.6427 549.7439,-198.035 555.7747,-194.4811"/>
</g>
<!-- Node21 -->
<g id="node22" class="node">
<title>Node21</title>
<polygon fill="none" stroke="#bfbfbf" points="799,-168.5 799,-187.5 861,-187.5 861,-168.5 799,-168.5"/>
<text text-anchor="middle" x="830" y="-175.5" font-family="Helvetica,sans-Serif" font-size="10.00" fill="#000000">type_traits</text>
</g>
<!-- Node19&#45;&gt;Node21 -->
<g id="edge32" class="edge">
<title>Node19&#45;&gt;Node21</title>
<path fill="none" stroke="#191970" d="M616.7122,-225.5162C657.9793,-217.0249 723.1891,-203.3447 788.5223,-188.2911"/>
<polygon fill="#191970" stroke="#191970" points="789.6286,-191.6276 798.5816,-185.9624 788.0499,-184.8079 789.6286,-191.6276"/>
</g>
<!-- Node22&#45;&gt;Node1 -->
<g id="edge38" class="edge">
<title>Node22&#45;&gt;Node1</title>
<path fill="none" stroke="#191970" d="M329.7398,-170.4071C334.5347,-169.551 339.3749,-168.7267 344,-168 467.3479,-148.6189 502.7976,-157.6685 629.1695,-131.8725"/>
<polygon fill="#191970" stroke="#191970" points="630.1541,-135.2429 639.2345,-129.7844 628.732,-128.3888 630.1541,-135.2429"/>
</g>
<!-- Node22&#45;&gt;Node2 -->
<g id="edge41" class="edge">
<title>Node22&#45;&gt;Node2</title>
<path fill="none" stroke="#191970" d="M252.3456,-172.0091C207.0274,-164.6611 129.5211,-151.0866 54.3627,-132.1227"/>
<polygon fill="#191970" stroke="#191970" points="54.8123,-128.625 44.2567,-129.5358 53.0764,-135.4063 54.8123,-128.625"/>
</g>
<!-- Node22&#45;&gt;Node16 -->
<g id="edge35" class="edge">
<title>Node22&#45;&gt;Node16</title>
<path fill="none" stroke="#191970" d="M288.1214,-168.3457C284.5944,-154.3811 280.5086,-128.4239 293,-112 328.7283,-65.024 504.9545,-29.8491 583.7772,-16.2047"/>
<polygon fill="#191970" stroke="#191970" points="584.5144,-19.6296 593.7836,-14.498 583.3374,-12.7293 584.5144,-19.6296"/>
</g>
<!-- Node22&#45;&gt;Node18 -->
<g id="edge40" class="edge">
<title>Node22&#45;&gt;Node18</title>
<path fill="none" stroke="#191970" d="M290.7488,-168.2235C290.9499,-153.6142 293.6594,-126.2801 310,-112 330.3094,-94.2515 503.7337,-76.6571 583.3432,-69.43"/>
<polygon fill="#191970" stroke="#191970" points="583.8295,-72.9005 593.4764,-68.5201 583.2035,-65.9285 583.8295,-72.9005"/>
</g>
<!-- Node23 -->
<g id="node24" class="node">
<title>Node23</title>
<polygon fill="none" stroke="#bfbfbf" points="115.5,-112.5 115.5,-131.5 160.5,-131.5 160.5,-112.5 115.5,-112.5"/>
<text text-anchor="middle" x="138" y="-119.5" font-family="Helvetica,sans-Serif" font-size="10.00" fill="#000000">cstdlib</text>
</g>
<!-- Node22&#45;&gt;Node23 -->
<g id="edge34" class="edge">
<title>Node22&#45;&gt;Node23</title>
<path fill="none" stroke="#191970" d="M264.6984,-168.3733C238.6741,-158.848 198.7732,-144.2438 170.7168,-133.9748"/>
<polygon fill="#191970" stroke="#191970" points="171.5576,-130.5555 160.9638,-130.4051 169.1516,-137.129 171.5576,-130.5555"/>
</g>
<!-- Node24 -->
<g id="node25" class="node">
<title>Node24</title>
<polygon fill="none" stroke="#bfbfbf" points="179,-112.5 179,-131.5 225,-131.5 225,-112.5 179,-112.5"/>
<text text-anchor="middle" x="202" y="-119.5" font-family="Helvetica,sans-Serif" font-size="10.00" fill="#000000">cstdint</text>
</g>
<!-- Node22&#45;&gt;Node24 -->
<g id="edge36" class="edge">
<title>Node22&#45;&gt;Node24</title>
<path fill="none" stroke="#191970" d="M275.4974,-168.2455C261.842,-159.6534 241.7343,-147.0014 226.0011,-137.1018"/>
<polygon fill="#191970" stroke="#191970" points="227.6529,-134.006 217.325,-131.6427 223.9249,-139.9307 227.6529,-134.006"/>
</g>
<!-- Node25 -->
<g id="node26" class="node">
<title>Node25</title>
<polygon fill="none" stroke="#bfbfbf" points="319,-112.5 319,-131.5 365,-131.5 365,-112.5 319,-112.5"/>
<text text-anchor="middle" x="342" y="-119.5" font-family="Helvetica,sans-Serif" font-size="10.00" fill="#000000">cstring</text>
</g>
<!-- Node22&#45;&gt;Node25 -->
<g id="edge37" class="edge">
<title>Node22&#45;&gt;Node25</title>
<path fill="none" stroke="#191970" d="M299.8835,-168.2455C307.1966,-160.2155 317.7391,-148.6394 326.4467,-139.0781"/>
<polygon fill="#191970" stroke="#191970" points="329.0727,-141.3928 333.2183,-131.6427 323.8972,-136.6795 329.0727,-141.3928"/>
</g>
<!-- Node26 -->
<g id="node27" class="node">
<title>Node26</title>
<polygon fill="none" stroke="#bfbfbf" points="383,-112.5 383,-131.5 423,-131.5 423,-112.5 383,-112.5"/>
<text text-anchor="middle" x="403" y="-119.5" font-family="Helvetica,sans-Serif" font-size="10.00" fill="#000000">limits</text>
</g>
<!-- Node22&#45;&gt;Node26 -->
<g id="edge39" class="edge">
<title>Node22&#45;&gt;Node26</title>
<path fill="none" stroke="#191970" d="M310.2535,-168.3733C328.0712,-159.4644 354.7747,-146.1127 374.9594,-136.0203"/>
<polygon fill="#191970" stroke="#191970" points="376.6187,-139.1038 383.9978,-131.5011 373.4882,-132.8428 376.6187,-139.1038"/>
</g>
<!-- Node27 -->
<g id="node28" class="node">
<title>Node27</title>
<polygon fill="none" stroke="#bfbfbf" points="441,-112.5 441,-131.5 491,-131.5 491,-112.5 441,-112.5"/>
<text text-anchor="middle" x="466" y="-119.5" font-family="Helvetica,sans-Serif" font-size="10.00" fill="#000000">fstream</text>
</g>
<!-- Node22&#45;&gt;Node27 -->
<g id="edge42" class="edge">
<title>Node22&#45;&gt;Node27</title>
<path fill="none" stroke="#191970" d="M321.0836,-168.3733C351.5943,-158.6098 398.7807,-143.5102 430.9604,-133.2127"/>
<polygon fill="#191970" stroke="#191970" points="432.3834,-136.4322 440.8409,-130.0509 430.2499,-129.7652 432.3834,-136.4322"/>
</g>
<!-- Node28 -->
<g id="node29" class="node">
<title>Node28</title>
<polygon fill="none" stroke="#bfbfbf" points="509.5,-112.5 509.5,-131.5 556.5,-131.5 556.5,-112.5 509.5,-112.5"/>
<text text-anchor="middle" x="533" y="-119.5" font-family="Helvetica,sans-Serif" font-size="10.00" fill="#000000">iterator</text>
</g>
<!-- Node22&#45;&gt;Node28 -->
<g id="edge43" class="edge">
<title>Node22&#45;&gt;Node28</title>
<path fill="none" stroke="#191970" d="M329.7346,-170.4123C369.7964,-162.3574 434.3533,-148.8017 499.2721,-132.0381"/>
<polygon fill="#191970" stroke="#191970" points="500.476,-135.3413 509.2694,-129.4314 498.7098,-128.5678 500.476,-135.3413"/>
</g>
<!-- Node29 -->
<g id="node30" class="node">
<title>Node29</title>
<polygon fill="none" stroke="#bfbfbf" points="575,-112.5 575,-131.5 621,-131.5 621,-112.5 575,-112.5"/>
<text text-anchor="middle" x="598" y="-119.5" font-family="Helvetica,sans-Serif" font-size="10.00" fill="#000000">chrono</text>
</g>
<!-- Node22&#45;&gt;Node29 -->
<g id="edge44" class="edge">
<title>Node22&#45;&gt;Node29</title>
<path fill="none" stroke="#191970" d="M329.7663,-170.5666C334.5566,-169.6831 339.3885,-168.8088 344,-168 439.2799,-151.2888 466.9505,-154.7146 564.6856,-132.0576"/>
<polygon fill="#191970" stroke="#191970" points="565.7541,-135.4019 574.6874,-129.7057 564.1517,-128.5878 565.7541,-135.4019"/>
</g>
<!-- Node30 -->
<g id="node31" class="node">
<title>Node30</title>
<polygon fill="none" stroke="#bfbfbf" points="62.5,-112.5 62.5,-131.5 97.5,-131.5 97.5,-112.5 62.5,-112.5"/>
<text text-anchor="middle" x="80" y="-119.5" font-family="Helvetica,sans-Serif" font-size="10.00" fill="#000000">dc.h</text>
</g>
<!-- Node22&#45;&gt;Node30 -->
<g id="edge45" class="edge">
<title>Node22&#45;&gt;Node30</title>
<path fill="none" stroke="#191970" d="M252.3494,-169.8511C216.7146,-162.015 162.2376,-149.2216 107.0921,-132.0915"/>
<polygon fill="#191970" stroke="#191970" points="108.1077,-128.7419 97.5181,-129.075 106.0042,-135.4184 108.1077,-128.7419"/>
</g>
<!-- Node31&#45;&gt;Node9 -->
<g id="edge50" class="edge">
<title>Node31&#45;&gt;Node9</title>
<path fill="none" stroke="#191970" d="M1129.0656,-280.4626C1150.788,-273.8329 1174.3292,-262.6811 1189,-244 1199.1663,-231.0546 1201.1301,-212.158 1200.8636,-197.8985"/>
<polygon fill="#191970" stroke="#191970" points="1204.3437,-197.446 1200.2859,-187.6591 1197.3548,-197.8404 1204.3437,-197.446"/>
</g>
<!-- Node32 -->
<g id="node33" class="node">
<title>Node32</title>
<g id="a_node33"><a xlink:href="domain_8hh.html" target="_top" xlink:title="domain.hh">
<polygon fill="none" stroke="#000000" points="882,-224.5 882,-243.5 944,-243.5 944,-224.5 882,-224.5"/>
<text text-anchor="middle" x="913" y="-231.5" font-family="Helvetica,sans-Serif" font-size="10.00" fill="#000000">domain.hh</text>
</a>
</g>
</g>
<!-- Node31&#45;&gt;Node32 -->
<g id="edge51" class="edge">
<title>Node31&#45;&gt;Node32</title>
<path fill="none" stroke="#191970" d="M1048.8074,-280.3733C1021.6547,-271.1016 980.4093,-257.0178 950.4975,-246.804"/>
<polygon fill="#191970" stroke="#191970" points="951.4192,-243.4204 940.8247,-243.5011 949.1572,-250.0449 951.4192,-243.4204"/>
</g>
<!-- Node31&#45;&gt;Node34 -->
<g id="edge59" class="edge">
<title>Node31&#45;&gt;Node34</title>
<path fill="none" stroke="#191970" d="M1085.8835,-280.2455C1093.1966,-272.2155 1103.7391,-260.6394 1112.4467,-251.0781"/>
<polygon fill="#191970" stroke="#191970" points="1115.0727,-253.3928 1119.2183,-243.6427 1109.8972,-248.6795 1115.0727,-253.3928"/>
</g>
<!-- Node32&#45;&gt;Node1 -->
<g id="edge54" class="edge">
<title>Node32&#45;&gt;Node1</title>
<path fill="none" stroke="#191970" d="M922.0685,-224.4548C934.0989,-210.6263 952.2459,-184.8369 938,-168 922.6639,-149.8746 768.8382,-132.4196 698.6226,-125.3256"/>
<polygon fill="#191970" stroke="#191970" points="698.7981,-121.8258 688.5002,-124.3163 698.1035,-128.7913 698.7981,-121.8258"/>
</g>
<!-- Node32&#45;&gt;Node5 -->
<g id="edge55" class="edge">
<title>Node32&#45;&gt;Node5</title>
<path fill="none" stroke="#191970" d="M881.6926,-228.5649C836.969,-220.6258 752.3091,-204.9481 681,-188 680.9014,-187.9766 680.8026,-187.953 680.7038,-187.9294"/>
<polygon fill="#191970" stroke="#191970" points="681.8399,-184.6066 671.2869,-185.5478 680.1235,-191.393 681.8399,-184.6066"/>
</g>
<!-- Node32&#45;&gt;Node10 -->
<g id="edge56" class="edge">
<title>Node32&#45;&gt;Node10</title>
<path fill="none" stroke="#191970" d="M944.3624,-228.0331C994.0503,-218.3056 1086.3625,-199.0127 1097,-188 1138.9963,-144.5226 1139.4476,-66.6295 1136.9929,-30.0324"/>
<polygon fill="#191970" stroke="#191970" points="1140.4509,-29.3767 1136.1428,-19.6973 1133.4745,-29.9505 1140.4509,-29.3767"/>
</g>
<!-- Node32&#45;&gt;Node13 -->
<g id="edge57" class="edge">
<title>Node32&#45;&gt;Node13</title>
<path fill="none" stroke="#191970" d="M935.8635,-224.3733C957.405,-215.3032 989.8838,-201.6279 1013.9956,-191.4755"/>
<polygon fill="#191970" stroke="#191970" points="1015.5767,-194.6075 1023.4348,-187.5011 1012.8603,-188.156 1015.5767,-194.6075"/>
</g>
<!-- Node32&#45;&gt;Node14 -->
<g id="edge52" class="edge">
<title>Node32&#45;&gt;Node14</title>
<path fill="none" stroke="#191970" d="M944.0726,-229.8263C987.2324,-223.3195 1061.8591,-209.2563 1078,-188 1114.0939,-140.4671 1085.3426,-64.0797 1068.7237,-28.8784"/>
<polygon fill="#191970" stroke="#191970" points="1071.7792,-27.1601 1064.2309,-19.7254 1065.4954,-30.2445 1071.7792,-27.1601"/>
</g>
<!-- Node32&#45;&gt;Node17 -->
<g id="edge58" class="edge">
<title>Node32&#45;&gt;Node17</title>
<path fill="none" stroke="#191970" d="M932.8241,-224.3695C946.3215,-216.6136 963.1157,-204.3161 971,-188 978.1476,-173.2085 973.2616,-154.8148 967.3819,-141.2053"/>
<polygon fill="#191970" stroke="#191970" points="970.3744,-139.3534 962.8749,-131.8696 964.0706,-142.3967 970.3744,-139.3534"/>
</g>
<!-- Node33 -->
<g id="node34" class="node">
<title>Node33</title>
<polygon fill="none" stroke="#bfbfbf" points="879,-168.5 879,-187.5 929,-187.5 929,-168.5 879,-168.5"/>
<text text-anchor="middle" x="904" y="-175.5" font-family="Helvetica,sans-Serif" font-size="10.00" fill="#000000">iomanip</text>
</g>
<!-- Node32&#45;&gt;Node33 -->
<g id="edge53" class="edge">
<title>Node32&#45;&gt;Node33</title>
<path fill="none" stroke="#191970" d="M911.4323,-224.2455C910.2579,-216.9382 908.6116,-206.6944 907.1668,-197.7046"/>
<polygon fill="#191970" stroke="#191970" points="910.5922,-196.9606 905.5497,-187.6427 903.6809,-198.0714 910.5922,-196.9606"/>
</g>
<!-- Node34&#45;&gt;Node9 -->
<g id="edge61" class="edge">
<title>Node34&#45;&gt;Node9</title>
<path fill="none" stroke="#191970" d="M1140.3673,-224.2455C1150.9554,-215.8943 1166.4064,-203.7076 1178.7893,-193.9408"/>
<polygon fill="#191970" stroke="#191970" points="1181.0903,-196.5837 1186.7745,-187.6427 1176.7553,-191.0875 1181.0903,-196.5837"/>
</g>
<!-- Node34&#45;&gt;Node13 -->
<g id="edge60" class="edge">
<title>Node34&#45;&gt;Node13</title>
<path fill="none" stroke="#191970" d="M1113.7167,-224.2455C1101.253,-215.7337 1082.9549,-203.2375 1068.5208,-193.3801"/>
<polygon fill="#191970" stroke="#191970" points="1070.3515,-190.392 1060.1196,-187.6427 1066.4038,-196.1726 1070.3515,-190.392"/>
</g>
<!-- Node35&#45;&gt;Node5 -->
<g id="edge64" class="edge">
<title>Node35&#45;&gt;Node5</title>
<path fill="none" stroke="#191970" d="M739.4027,-224.3733C721.2669,-215.4644 694.0865,-202.1127 673.5413,-192.0203"/>
<polygon fill="#191970" stroke="#191970" points="674.8603,-188.7688 664.3416,-187.5011 671.7739,-195.0517 674.8603,-188.7688"/>
</g>
<!-- Node35&#45;&gt;Node33 -->
<g id="edge66" class="edge">
<title>Node35&#45;&gt;Node33</title>
<path fill="none" stroke="#191970" d="M780.708,-225.6162C804.2092,-216.5399 842.02,-201.9371 869.5799,-191.2933"/>
<polygon fill="#191970" stroke="#191970" points="871.1567,-194.4363 879.2242,-187.5686 868.6348,-187.9064 871.1567,-194.4363"/>
</g>
<!-- Node36 -->
<g id="node37" class="node">
<title>Node36</title>
<polygon fill="none" stroke="#bfbfbf" points="689.5,-168.5 689.5,-187.5 718.5,-187.5 718.5,-168.5 689.5,-168.5"/>
<text text-anchor="middle" x="704" y="-175.5" font-family="Helvetica,sans-Serif" font-size="10.00" fill="#000000">ios</text>
</g>
<!-- Node35&#45;&gt;Node36 -->
<g id="edge65" class="edge">
<title>Node35&#45;&gt;Node36</title>
<path fill="none" stroke="#191970" d="M749.4197,-224.2455C741.4542,-216.1352 729.9359,-204.4075 720.4921,-194.7919"/>
<polygon fill="#191970" stroke="#191970" points="722.9747,-192.3247 713.4705,-187.6427 717.9805,-197.2297 722.9747,-192.3247"/>
</g>
<!-- Node37 -->
<g id="node38" class="node">
<title>Node37</title>
<polygon fill="none" stroke="#bfbfbf" points="737,-168.5 737,-187.5 781,-187.5 781,-168.5 737,-168.5"/>
<text text-anchor="middle" x="759" y="-175.5" font-family="Helvetica,sans-Serif" font-size="10.00" fill="#000000">mutex</text>
</g>
<!-- Node35&#45;&gt;Node37 -->
<g id="edge67" class="edge">
<title>Node35&#45;&gt;Node37</title>
<path fill="none" stroke="#191970" d="M759,-224.2455C759,-216.9382 759,-206.6944 759,-197.7046"/>
<polygon fill="#191970" stroke="#191970" points="762.5001,-197.6426 759,-187.6427 755.5001,-197.6427 762.5001,-197.6426"/>
</g>
<!-- Node38&#45;&gt;Node21 -->
<g id="edge71" class="edge">
<title>Node38&#45;&gt;Node21</title>
<path fill="none" stroke="#191970" d="M1130.1601,-338.2138C1065.2043,-320.8244 913.5707,-277.7091 873,-244 857.6165,-231.2182 845.7759,-211.5001 838.4509,-196.9426"/>
<polygon fill="#191970" stroke="#191970" points="841.5738,-195.36 834.1131,-187.8375 835.2543,-198.3707 841.5738,-195.36"/>
</g>
<!-- Node39 -->
<g id="node40" class="node">
<title>Node39</title>
<polygon fill="none" stroke="#bfbfbf" points="1416,-280.5 1416,-299.5 1464,-299.5 1464,-280.5 1416,-280.5"/>
<text text-anchor="middle" x="1440" y="-287.5" font-family="Helvetica,sans-Serif" font-size="10.00" fill="#000000">GL/gl.h</text>
</g>
<!-- Node38&#45;&gt;Node39 -->
<g id="edge69" class="edge">
<title>Node38&#45;&gt;Node39</title>
<path fill="none" stroke="#191970" d="M1189.8813,-341.525C1234.7768,-334.5665 1322.4402,-320.0703 1406.0273,-300.0331"/>
<polygon fill="#191970" stroke="#191970" points="1407.0424,-303.3884 1415.9338,-297.6271 1405.3902,-296.5861 1407.0424,-303.3884"/>
</g>
<!-- Node40 -->
<g id="node41" class="node">
<title>Node40</title>
<polygon fill="none" stroke="#bfbfbf" points="1344.5,-280.5 1344.5,-299.5 1397.5,-299.5 1397.5,-280.5 1344.5,-280.5"/>
<text text-anchor="middle" x="1371" y="-287.5" font-family="Helvetica,sans-Serif" font-size="10.00" fill="#000000">GL/glx.h</text>
</g>
<!-- Node38&#45;&gt;Node40 -->
<g id="edge70" class="edge">
<title>Node38&#45;&gt;Node40</title>
<path fill="none" stroke="#191970" d="M1189.7836,-338.0953C1227.7982,-328.0062 1293.5337,-310.5598 1334.5143,-299.6834"/>
<polygon fill="#191970" stroke="#191970" points="1335.6002,-303.0165 1344.3678,-297.0683 1333.8045,-296.2507 1335.6002,-303.0165"/>
</g>
</g>
</svg>
