<?xml version="1.0" encoding="UTF-8" standalone="no"?>
<!DOCTYPE svg PUBLIC "-//W3C//DTD SVG 1.1//EN"
 "http://www.w3.org/Graphics/SVG/1.1/DTD/svg11.dtd">
<!-- Generated by graphviz version 2.40.1 (20161225.0304)
 -->
<!-- Title: src/arma_realtime_driver.cc Pages: 1 -->
<svg width="1662pt" height="487pt"
 viewBox="0.00 0.00 1662.27 487.00" xmlns="http://www.w3.org/2000/svg" xmlns:xlink="http://www.w3.org/1999/xlink">
<g id="graph0" class="graph" transform="scale(1 1) rotate(0) translate(4 483)">
<title>src/arma_realtime_driver.cc</title>
<!-- Node0 -->
<g id="node1" class="node">
<title>Node0</title>
<polygon fill="#bfbfbf" stroke="#000000" points="1220.7738,-459.5 1220.7738,-478.5 1357.7738,-478.5 1357.7738,-459.5 1220.7738,-459.5"/>
<text text-anchor="middle" x="1289.2738" y="-466.5" font-family="Helvetica,sans-Serif" font-size="10.00" fill="#000000">src/arma_realtime_driver.cc</text>
</g>
<!-- Node1 -->
<g id="node2" class="node">
<title>Node1</title>
<g id="a_node2"><a xlink:href="arma__realtime__driver_8hh.html" target="_top" xlink:title="arma_realtime_driver.hh">
<polygon fill="none" stroke="#000000" points="1015.2738,-403.5 1015.2738,-422.5 1135.2738,-422.5 1135.2738,-403.5 1015.2738,-403.5"/>
<text text-anchor="middle" x="1075.2738" y="-410.5" font-family="Helvetica,sans-Serif" font-size="10.00" fill="#000000">arma_realtime_driver.hh</text>
</a>
</g>
</g>
<!-- Node0&#45;&gt;Node1 -->
<g id="edge1" class="edge">
<title>Node0&#45;&gt;Node1</title>
<path fill="none" stroke="#191970" d="M1252.4859,-459.3733C1216.2077,-449.8799 1160.6502,-435.3415 1121.4292,-425.0781"/>
<polygon fill="#191970" stroke="#191970" points="1122.142,-421.6468 1111.5816,-422.5011 1120.3698,-428.4188 1122.142,-421.6468"/>
</g>
<!-- Node17 -->
<g id="node18" class="node">
<title>Node17</title>
<polygon fill="none" stroke="#bfbfbf" points="1179.2738,-.5 1179.2738,-19.5 1235.2738,-19.5 1235.2738,-.5 1179.2738,-.5"/>
<text text-anchor="middle" x="1207.2738" y="-7.5" font-family="Helvetica,sans-Serif" font-size="10.00" fill="#000000">algorithm</text>
</g>
<!-- Node0&#45;&gt;Node17 -->
<g id="edge77" class="edge">
<title>Node0&#45;&gt;Node17</title>
<path fill="none" stroke="#191970" d="M1357.9275,-461.1088C1463.6591,-447.0187 1654.2738,-413.0778 1654.2738,-351.5 1654.2738,-351.5 1654.2738,-351.5 1654.2738,-122 1654.2738,-38.0908 1354.155,-16.4935 1245.7485,-11.4292"/>
<polygon fill="#191970" stroke="#191970" points="1245.7204,-7.9246 1235.5747,-10.9766 1245.4093,-14.9177 1245.7204,-7.9246"/>
</g>
<!-- Node28 -->
<g id="node29" class="node">
<title>Node28</title>
<polygon fill="none" stroke="#bfbfbf" points="1235.2738,-168.5 1235.2738,-187.5 1285.2738,-187.5 1285.2738,-168.5 1235.2738,-168.5"/>
<text text-anchor="middle" x="1260.2738" y="-175.5" font-family="Helvetica,sans-Serif" font-size="10.00" fill="#000000">fstream</text>
</g>
<!-- Node0&#45;&gt;Node28 -->
<g id="edge76" class="edge">
<title>Node0&#45;&gt;Node28</title>
<path fill="none" stroke="#191970" d="M1289.2738,-459.2511C1289.2738,-439.1182 1289.2738,-391.4826 1289.2738,-351.5 1289.2738,-351.5 1289.2738,-351.5 1289.2738,-290 1289.2738,-256.5134 1276.9743,-219.1413 1268.3953,-197.1469"/>
<polygon fill="#191970" stroke="#191970" points="1271.5537,-195.6216 1264.5528,-187.6693 1265.0665,-198.2517 1271.5537,-195.6216"/>
</g>
<!-- Node29 -->
<g id="node30" class="node">
<title>Node29</title>
<polygon fill="none" stroke="#bfbfbf" points="1303.7738,-168.5 1303.7738,-187.5 1350.7738,-187.5 1350.7738,-168.5 1303.7738,-168.5"/>
<text text-anchor="middle" x="1327.2738" y="-175.5" font-family="Helvetica,sans-Serif" font-size="10.00" fill="#000000">iterator</text>
</g>
<!-- Node0&#45;&gt;Node29 -->
<g id="edge78" class="edge">
<title>Node0&#45;&gt;Node29</title>
<path fill="none" stroke="#191970" d="M1294.7183,-459.2863C1305.2256,-439.599 1327.2738,-393.3072 1327.2738,-351.5 1327.2738,-351.5 1327.2738,-351.5 1327.2738,-290 1327.2738,-257.7116 1327.2738,-220.1872 1327.2738,-197.8048"/>
<polygon fill="#191970" stroke="#191970" points="1330.7739,-197.5883 1327.2738,-187.5884 1323.7739,-197.5884 1330.7739,-197.5883"/>
</g>
<!-- Node42 -->
<g id="node43" class="node">
<title>Node42</title>
<g id="a_node43"><a xlink:href="high__amplitude__realtime__solver_8hh.html" target="_top" xlink:title="velocity/high_amplitude\l_realtime_solver.hh">
<polygon fill="none" stroke="#000000" points="273.7738,-336.5 273.7738,-366.5 392.7738,-366.5 392.7738,-336.5 273.7738,-336.5"/>
<text text-anchor="start" x="281.7738" y="-354.5" font-family="Helvetica,sans-Serif" font-size="10.00" fill="#000000">velocity/high_amplitude</text>
<text text-anchor="middle" x="333.2738" y="-343.5" font-family="Helvetica,sans-Serif" font-size="10.00" fill="#000000">_realtime_solver.hh</text>
</a>
</g>
</g>
<!-- Node0&#45;&gt;Node42 -->
<g id="edge73" class="edge">
<title>Node0&#45;&gt;Node42</title>
<path fill="none" stroke="#191970" d="M1220.5206,-460.5497C1044.6555,-438.9345 579.8797,-381.8098 402.978,-360.0672"/>
<polygon fill="#191970" stroke="#191970" points="403.3575,-356.5876 393.0052,-358.8415 402.5036,-363.5353 403.3575,-356.5876"/>
</g>
<!-- Node2 -->
<g id="node3" class="node">
<title>Node2</title>
<polygon fill="none" stroke="#bfbfbf" points="568.7738,-112.5 568.7738,-131.5 617.7738,-131.5 617.7738,-112.5 568.7738,-112.5"/>
<text text-anchor="middle" x="593.2738" y="-119.5" font-family="Helvetica,sans-Serif" font-size="10.00" fill="#000000">istream</text>
</g>
<!-- Node1&#45;&gt;Node2 -->
<g id="edge2" class="edge">
<title>Node1&#45;&gt;Node2</title>
<path fill="none" stroke="#191970" d="M1073.2019,-403.1877C1068.6049,-378.4047 1060.5283,-312.9246 1095.2738,-280 1156.2017,-222.2651 1390.0895,-265.3222 1471.2738,-244 1534.5269,-227.3872 1642.4467,-215.29 1597.2738,-168 1563.112,-132.2372 801.7736,-123.7387 628.2563,-122.2637"/>
<polygon fill="#191970" stroke="#191970" points="628.1711,-118.7629 618.1425,-122.1801 628.1132,-125.7627 628.1711,-118.7629"/>
</g>
<!-- Node3 -->
<g id="node4" class="node">
<title>Node3</title>
<polygon fill="none" stroke="#bfbfbf" points="691.2738,-168.5 691.2738,-187.5 735.2738,-187.5 735.2738,-168.5 691.2738,-168.5"/>
<text text-anchor="middle" x="713.2738" y="-175.5" font-family="Helvetica,sans-Serif" font-size="10.00" fill="#000000">vector</text>
</g>
<!-- Node1&#45;&gt;Node3 -->
<g id="edge3" class="edge">
<title>Node1&#45;&gt;Node3</title>
<path fill="none" stroke="#191970" d="M1070.7775,-403.1469C1059.2101,-378.8324 1026.0841,-315.3873 980.2738,-280 960.804,-264.9601 811.2636,-212.0086 744.8646,-188.9106"/>
<polygon fill="#191970" stroke="#191970" points="745.9198,-185.5721 735.325,-185.5986 743.6239,-192.1849 745.9198,-185.5721"/>
</g>
<!-- Node4 -->
<g id="node5" class="node">
<title>Node4</title>
<g id="a_node5"><a xlink:href="arma__driver_8hh.html" target="_top" xlink:title="arma_driver.hh">
<polygon fill="none" stroke="#000000" points="537.2738,-342 537.2738,-361 617.2738,-361 617.2738,-342 537.2738,-342"/>
<text text-anchor="middle" x="577.2738" y="-349" font-family="Helvetica,sans-Serif" font-size="10.00" fill="#000000">arma_driver.hh</text>
</a>
</g>
</g>
<!-- Node1&#45;&gt;Node4 -->
<g id="edge4" class="edge">
<title>Node1&#45;&gt;Node4</title>
<path fill="none" stroke="#191970" d="M1015.2033,-405.5817C916.0628,-393.3384 719.986,-369.1241 627.6292,-357.7186"/>
<polygon fill="#191970" stroke="#191970" points="627.7783,-354.2105 617.4247,-356.4584 626.9203,-361.1577 627.7783,-354.2105"/>
</g>
<!-- Node39 -->
<g id="node40" class="node">
<title>Node39</title>
<g id="a_node40"><a xlink:href="opengl_8hh.html" target="_top" xlink:title="opengl.hh">
<polygon fill="none" stroke="#000000" points="1136.7738,-342 1136.7738,-361 1195.7738,-361 1195.7738,-342 1136.7738,-342"/>
<text text-anchor="middle" x="1166.2738" y="-349" font-family="Helvetica,sans-Serif" font-size="10.00" fill="#000000">opengl.hh</text>
</a>
</g>
</g>
<!-- Node1&#45;&gt;Node39 -->
<g id="edge69" class="edge">
<title>Node1&#45;&gt;Node39</title>
<path fill="none" stroke="#191970" d="M1089.4925,-403.3906C1103.9171,-393.6421 1126.4714,-378.3994 1143.4098,-366.9521"/>
<polygon fill="#191970" stroke="#191970" points="1145.8293,-369.5412 1152.1549,-361.0419 1141.9097,-363.7415 1145.8293,-369.5412"/>
</g>
<!-- Node4&#45;&gt;Node2 -->
<g id="edge6" class="edge">
<title>Node4&#45;&gt;Node2</title>
<path fill="none" stroke="#191970" d="M559.5002,-341.8865C542.6458,-332.36 517.0335,-316.7953 497.2738,-300 440.9887,-252.1588 350.3609,-225.8688 396.2738,-168 416.1439,-142.9556 507.379,-130.2683 558.4301,-125.0282"/>
<polygon fill="#191970" stroke="#191970" points="559.0642,-128.4829 568.6738,-124.0213 558.3793,-121.5165 559.0642,-128.4829"/>
</g>
<!-- Node5 -->
<g id="node6" class="node">
<title>Node5</title>
<polygon fill="none" stroke="#bfbfbf" points="911.7738,-280.5 911.7738,-299.5 970.7738,-299.5 970.7738,-280.5 911.7738,-280.5"/>
<text text-anchor="middle" x="941.2738" y="-287.5" font-family="Helvetica,sans-Serif" font-size="10.00" fill="#000000">functional</text>
</g>
<!-- Node4&#45;&gt;Node5 -->
<g id="edge5" class="edge">
<title>Node4&#45;&gt;Node5</title>
<path fill="none" stroke="#191970" d="M617.5204,-346.3602C677.2811,-338.4584 793.1687,-322.1011 901.4165,-300.0178"/>
<polygon fill="#191970" stroke="#191970" points="902.4429,-303.3799 911.5303,-297.9329 901.0295,-296.5241 902.4429,-303.3799"/>
</g>
<!-- Node6 -->
<g id="node7" class="node">
<title>Node6</title>
<polygon fill="none" stroke="#bfbfbf" points="621.2738,-168.5 621.2738,-187.5 673.2738,-187.5 673.2738,-168.5 621.2738,-168.5"/>
<text text-anchor="middle" x="647.2738" y="-175.5" font-family="Helvetica,sans-Serif" font-size="10.00" fill="#000000">ostream</text>
</g>
<!-- Node4&#45;&gt;Node6 -->
<g id="edge7" class="edge">
<title>Node4&#45;&gt;Node6</title>
<path fill="none" stroke="#191970" d="M601.0639,-341.9392C618.1829,-333.6454 639.9958,-319.8291 650.2738,-300 667.2599,-267.2289 659.7371,-222.5593 653.1971,-197.3635"/>
<polygon fill="#191970" stroke="#191970" points="656.5166,-196.2386 650.4409,-187.559 649.7778,-198.133 656.5166,-196.2386"/>
</g>
<!-- Node7 -->
<g id="node8" class="node">
<title>Node7</title>
<polygon fill="none" stroke="#bfbfbf" points="1466.7738,-168.5 1466.7738,-187.5 1507.7738,-187.5 1507.7738,-168.5 1466.7738,-168.5"/>
<text text-anchor="middle" x="1487.2738" y="-175.5" font-family="Helvetica,sans-Serif" font-size="10.00" fill="#000000">string</text>
</g>
<!-- Node4&#45;&gt;Node7 -->
<g id="edge8" class="edge">
<title>Node4&#45;&gt;Node7</title>
<path fill="none" stroke="#191970" d="M592.2711,-341.8564C618.4419,-325.6148 674.6886,-293.2788 727.2738,-280 805.0435,-260.3617 1379.6205,-285.4791 1448.2738,-244 1465.3042,-233.7105 1475.7441,-212.9304 1481.483,-197.4214"/>
<polygon fill="#191970" stroke="#191970" points="1484.8749,-198.3141 1484.7282,-187.7203 1478.2365,-196.0933 1484.8749,-198.3141"/>
</g>
<!-- Node8 -->
<g id="node9" class="node">
<title>Node8</title>
<polygon fill="none" stroke="#bfbfbf" points="735.7738,-280.5 735.7738,-299.5 818.7738,-299.5 818.7738,-280.5 735.7738,-280.5"/>
<text text-anchor="middle" x="777.2738" y="-287.5" font-family="Helvetica,sans-Serif" font-size="10.00" fill="#000000">unordered_map</text>
</g>
<!-- Node4&#45;&gt;Node8 -->
<g id="edge9" class="edge">
<title>Node4&#45;&gt;Node8</title>
<path fill="none" stroke="#191970" d="M608.5238,-341.8906C643.0148,-331.2846 698.6549,-314.1753 736.5399,-302.5257"/>
<polygon fill="#191970" stroke="#191970" points="737.7136,-305.8266 746.2432,-299.5419 735.6562,-299.1357 737.7136,-305.8266"/>
</g>
<!-- Node9 -->
<g id="node10" class="node">
<title>Node9</title>
<polygon fill="none" stroke="#bfbfbf" points="837.2738,-280.5 837.2738,-299.5 893.2738,-299.5 893.2738,-280.5 837.2738,-280.5"/>
<text text-anchor="middle" x="865.2738" y="-287.5" font-family="Helvetica,sans-Serif" font-size="10.00" fill="#000000">config.hh</text>
</g>
<!-- Node4&#45;&gt;Node9 -->
<g id="edge10" class="edge">
<title>Node4&#45;&gt;Node9</title>
<path fill="none" stroke="#191970" d="M617.435,-344.0505C665.0966,-335.0357 747.1799,-318.964 826.8336,-300.2402"/>
<polygon fill="#191970" stroke="#191970" points="828.1135,-303.5339 837.0377,-297.8235 826.5002,-296.7224 828.1135,-303.5339"/>
</g>
<!-- Node10 -->
<g id="node11" class="node">
<title>Node10</title>
<g id="a_node11"><a xlink:href="types_8hh.html" target="_top" xlink:title="types.hh">
<polygon fill="none" stroke="#000000" points="73.2738,-168.5 73.2738,-187.5 127.2738,-187.5 127.2738,-168.5 73.2738,-168.5"/>
<text text-anchor="middle" x="100.2738" y="-175.5" font-family="Helvetica,sans-Serif" font-size="10.00" fill="#000000">types.hh</text>
</a>
</g>
</g>
<!-- Node4&#45;&gt;Node10 -->
<g id="edge11" class="edge">
<title>Node4&#45;&gt;Node10</title>
<path fill="none" stroke="#191970" d="M537.1546,-347.7406C433.2675,-337.8964 160.808,-311.3441 121.2738,-300 65.8605,-284.0996 35.0035,-292.7765 4.2738,-244 -13.0943,-216.4321 29.413,-197.4243 63.3157,-187.12"/>
<polygon fill="#191970" stroke="#191970" points="64.3956,-190.4514 73.0382,-184.3231 62.4603,-183.7242 64.3956,-190.4514"/>
</g>
<!-- Node12 -->
<g id="node13" class="node">
<title>Node12</title>
<g id="a_node13"><a xlink:href="arma_8hh.html" target="_top" xlink:title="arma.hh">
<polygon fill="none" stroke="#000000" points="13.2738,-224.5 13.2738,-243.5 65.2738,-243.5 65.2738,-224.5 13.2738,-224.5"/>
<text text-anchor="middle" x="39.2738" y="-231.5" font-family="Helvetica,sans-Serif" font-size="10.00" fill="#000000">arma.hh</text>
</a>
</g>
</g>
<!-- Node4&#45;&gt;Node12 -->
<g id="edge13" class="edge">
<title>Node4&#45;&gt;Node12</title>
<path fill="none" stroke="#191970" d="M537.2285,-348.06C449.2879,-340.234 241.7599,-320.2057 174.2738,-300 133.5402,-287.8041 89.9533,-264.3855 63.657,-248.9776"/>
<polygon fill="#191970" stroke="#191970" points="65.1717,-245.8061 54.7885,-243.699 61.5915,-251.8213 65.1717,-245.8061"/>
</g>
<!-- Node13 -->
<g id="node14" class="node">
<title>Node13</title>
<g id="a_node14"><a xlink:href="basic__model_8hh.html" target="_top" xlink:title="generator/basic_model.hh">
<polygon fill="none" stroke="#000000" points="513.2738,-280.5 513.2738,-299.5 641.2738,-299.5 641.2738,-280.5 513.2738,-280.5"/>
<text text-anchor="middle" x="577.2738" y="-287.5" font-family="Helvetica,sans-Serif" font-size="10.00" fill="#000000">generator/basic_model.hh</text>
</a>
</g>
</g>
<!-- Node4&#45;&gt;Node13 -->
<g id="edge15" class="edge">
<title>Node4&#45;&gt;Node13</title>
<path fill="none" stroke="#191970" d="M577.2738,-341.8906C577.2738,-333.3657 577.2738,-320.6392 577.2738,-309.9235"/>
<polygon fill="#191970" stroke="#191970" points="580.7739,-309.7448 577.2738,-299.7449 573.7739,-309.7449 580.7739,-309.7448"/>
</g>
<!-- Node14 -->
<g id="node15" class="node">
<title>Node14</title>
<g id="a_node15"><a xlink:href="grid_8hh.html" target="_top" xlink:title="grid.hh">
<polygon fill="none" stroke="#000000" points="265.2738,-168.5 265.2738,-187.5 311.2738,-187.5 311.2738,-168.5 265.2738,-168.5"/>
<text text-anchor="middle" x="288.2738" y="-175.5" font-family="Helvetica,sans-Serif" font-size="10.00" fill="#000000">grid.hh</text>
</a>
</g>
</g>
<!-- Node4&#45;&gt;Node14 -->
<g id="edge49" class="edge">
<title>Node4&#45;&gt;Node14</title>
<path fill="none" stroke="#191970" d="M537.0016,-343.2284C506.5258,-335.5826 464.697,-322.0118 433.2738,-300 397.3391,-274.8279 403.9731,-252.0944 370.2738,-224 354.8671,-211.1558 335.3576,-200.0435 319.2338,-191.9598"/>
<polygon fill="#191970" stroke="#191970" points="320.7118,-188.7866 310.1882,-187.56 317.6499,-195.0815 320.7118,-188.7866"/>
</g>
<!-- Node20 -->
<g id="node21" class="node">
<title>Node20</title>
<g id="a_node21"><a xlink:href="output__flags_8hh.html" target="_top" xlink:title="output_flags.hh">
<polygon fill="none" stroke="#000000" points="1355.7738,-224.5 1355.7738,-243.5 1438.7738,-243.5 1438.7738,-224.5 1355.7738,-224.5"/>
<text text-anchor="middle" x="1397.2738" y="-231.5" font-family="Helvetica,sans-Serif" font-size="10.00" fill="#000000">output_flags.hh</text>
</a>
</g>
</g>
<!-- Node4&#45;&gt;Node20 -->
<g id="edge48" class="edge">
<title>Node4&#45;&gt;Node20</title>
<path fill="none" stroke="#191970" d="M617.5521,-347.9006C690.3567,-341.0513 848.5353,-324.5972 980.2738,-300 1016.725,-293.1941 1024.8534,-286.9691 1061.2738,-280 1161.1767,-260.8835 1279.2588,-246.6195 1345.4882,-239.3644"/>
<polygon fill="#191970" stroke="#191970" points="1346.0976,-242.8189 1355.6617,-238.2605 1345.3425,-235.8597 1346.0976,-242.8189"/>
</g>
<!-- Node32 -->
<g id="node33" class="node">
<title>Node32</title>
<g id="a_node33"><a xlink:href="basic__solver_8hh.html" target="_top" xlink:title="velocity/basic_solver.hh">
<polygon fill="none" stroke="#000000" points="183.7738,-280.5 183.7738,-299.5 304.7738,-299.5 304.7738,-280.5 183.7738,-280.5"/>
<text text-anchor="middle" x="244.2738" y="-287.5" font-family="Helvetica,sans-Serif" font-size="10.00" fill="#000000">velocity/basic_solver.hh</text>
</a>
</g>
</g>
<!-- Node4&#45;&gt;Node32 -->
<g id="edge50" class="edge">
<title>Node4&#45;&gt;Node32</title>
<path fill="none" stroke="#191970" d="M537.1062,-344.0817C479.6003,-333.4612 373.3198,-313.8328 305.845,-301.3713"/>
<polygon fill="#191970" stroke="#191970" points="306.2417,-297.8854 295.7723,-299.511 304.9703,-304.769 306.2417,-297.8854"/>
</g>
<!-- Node35 -->
<g id="node36" class="node">
<title>Node35</title>
<g id="a_node36"><a xlink:href="discrete__function_8hh.html" target="_top" xlink:title="discrete_function.hh">
<polygon fill="none" stroke="#000000" points="121.2738,-224.5 121.2738,-243.5 225.2738,-243.5 225.2738,-224.5 121.2738,-224.5"/>
<text text-anchor="middle" x="173.2738" y="-231.5" font-family="Helvetica,sans-Serif" font-size="10.00" fill="#000000">discrete_function.hh</text>
</a>
</g>
</g>
<!-- Node4&#45;&gt;Node35 -->
<g id="edge63" class="edge">
<title>Node4&#45;&gt;Node35</title>
<path fill="none" stroke="#191970" d="M543.0204,-341.953C506.4082,-331.7145 446.6798,-314.9138 395.2738,-300 332.0874,-281.6685 258.9808,-259.8078 214.4484,-246.4183"/>
<polygon fill="#191970" stroke="#191970" points="215.4358,-243.0604 204.8514,-243.5309 213.419,-249.7636 215.4358,-243.0604"/>
</g>
<!-- Node36 -->
<g id="node37" class="node">
<title>Node36</title>
<g id="a_node37"><a xlink:href="util_8hh.html" target="_top" xlink:title="util.hh">
<polygon fill="none" stroke="#000000" points="513.7738,-224.5 513.7738,-243.5 556.7738,-243.5 556.7738,-224.5 513.7738,-224.5"/>
<text text-anchor="middle" x="535.2738" y="-231.5" font-family="Helvetica,sans-Serif" font-size="10.00" fill="#000000">util.hh</text>
</a>
</g>
</g>
<!-- Node4&#45;&gt;Node36 -->
<g id="edge64" class="edge">
<title>Node4&#45;&gt;Node36</title>
<path fill="none" stroke="#191970" d="M553.4837,-341.9392C536.3646,-333.6454 514.5517,-319.8291 504.2738,-300 495.783,-283.6188 507.0088,-264.4969 518.2528,-251.065"/>
<polygon fill="#191970" stroke="#191970" points="520.9706,-253.2778 525.08,-243.5124 515.7777,-248.5837 520.9706,-253.2778"/>
</g>
<!-- Node11 -->
<g id="node12" class="node">
<title>Node11</title>
<polygon fill="none" stroke="#bfbfbf" points="127.7738,-.5 127.7738,-19.5 194.7738,-19.5 194.7738,-.5 127.7738,-.5"/>
<text text-anchor="middle" x="161.2738" y="-7.5" font-family="Helvetica,sans-Serif" font-size="10.00" fill="#000000">blitz/array.h</text>
</g>
<!-- Node10&#45;&gt;Node11 -->
<g id="edge12" class="edge">
<title>Node10&#45;&gt;Node11</title>
<path fill="none" stroke="#191970" d="M103.7282,-168.4862C113.4543,-141.6994 141.2104,-65.2565 154.2918,-29.2289"/>
<polygon fill="#191970" stroke="#191970" points="157.5822,-30.422 157.7053,-19.8279 151.0025,-28.0329 157.5822,-30.422"/>
</g>
<!-- Node12&#45;&gt;Node10 -->
<g id="edge14" class="edge">
<title>Node12&#45;&gt;Node10</title>
<path fill="none" stroke="#191970" d="M49.8992,-224.2455C58.8211,-216.0549 71.7618,-204.1749 82.293,-194.5069"/>
<polygon fill="#191970" stroke="#191970" points="84.7706,-196.9837 89.7701,-187.6427 80.0366,-191.8271 84.7706,-196.9837"/>
</g>
<!-- Node13&#45;&gt;Node2 -->
<g id="edge16" class="edge">
<title>Node13&#45;&gt;Node2</title>
<path fill="none" stroke="#191970" d="M578.1798,-280.4862C580.7091,-253.9293 587.8866,-178.5651 591.3532,-142.1655"/>
<polygon fill="#191970" stroke="#191970" points="594.8738,-142.1147 592.3378,-131.8279 587.9054,-141.451 594.8738,-142.1147"/>
</g>
<!-- Node13&#45;&gt;Node6 -->
<g id="edge17" class="edge">
<title>Node13&#45;&gt;Node6</title>
<path fill="none" stroke="#191970" d="M583.8058,-280.1901C589.9476,-270.9181 599.3557,-256.5908 607.2738,-244 617.2608,-228.1193 628.2888,-209.8669 636.2317,-196.5877"/>
<polygon fill="#191970" stroke="#191970" points="639.2953,-198.2837 641.411,-187.9023 633.2831,-194.6985 639.2953,-198.2837"/>
</g>
<!-- Node13&#45;&gt;Node10 -->
<g id="edge47" class="edge">
<title>Node13&#45;&gt;Node10</title>
<path fill="none" stroke="#191970" d="M513.0459,-286.5587C450.3123,-281.7562 352.7924,-270.4228 272.2738,-244 254.14,-238.0493 251.7956,-231.5652 234.2738,-224 202.2361,-210.1676 164.5526,-197.5387 137.3211,-189.0278"/>
<polygon fill="#191970" stroke="#191970" points="138.0171,-185.5797 127.4296,-185.9736 135.9519,-192.2682 138.0171,-185.5797"/>
</g>
<!-- Node13&#45;&gt;Node14 -->
<g id="edge18" class="edge">
<title>Node13&#45;&gt;Node14</title>
<path fill="none" stroke="#191970" d="M556.0601,-280.2966C526.5567,-266.9422 471.3376,-242.457 423.2738,-224 388.8396,-210.7769 348.7671,-197.3667 321.2783,-188.4646"/>
<polygon fill="#191970" stroke="#191970" points="321.9885,-185.0164 311.397,-185.2834 319.8433,-191.6796 321.9885,-185.0164"/>
</g>
<!-- Node13&#45;&gt;Node20 -->
<g id="edge28" class="edge">
<title>Node13&#45;&gt;Node20</title>
<path fill="none" stroke="#191970" d="M641.3765,-284.2345C658.2516,-282.7823 676.4437,-281.2751 693.2738,-280 937.2001,-261.5188 1229.0155,-243.8761 1345.5298,-237.0123"/>
<polygon fill="#191970" stroke="#191970" points="1345.8169,-240.5016 1355.5942,-236.4206 1345.406,-233.5137 1345.8169,-240.5016"/>
</g>
<!-- Node23 -->
<g id="node24" class="node">
<title>Node23</title>
<g id="a_node24"><a xlink:href="parallel__mt_8hh.html" target="_top" xlink:title="parallel_mt.hh">
<polygon fill="none" stroke="#000000" points="1022.7738,-224.5 1022.7738,-243.5 1099.7738,-243.5 1099.7738,-224.5 1022.7738,-224.5"/>
<text text-anchor="middle" x="1061.2738" y="-231.5" font-family="Helvetica,sans-Serif" font-size="10.00" fill="#000000">parallel_mt.hh</text>
</a>
</g>
</g>
<!-- Node13&#45;&gt;Node23 -->
<g id="edge34" class="edge">
<title>Node13&#45;&gt;Node23</title>
<path fill="none" stroke="#191970" d="M641.5452,-282.5636C739.7432,-271.2019 924.9549,-249.7724 1012.7523,-239.6141"/>
<polygon fill="#191970" stroke="#191970" points="1013.18,-243.088 1022.7114,-238.4618 1012.3754,-236.1344 1013.18,-243.088"/>
</g>
<!-- Node14&#45;&gt;Node2 -->
<g id="edge20" class="edge">
<title>Node14&#45;&gt;Node2</title>
<path fill="none" stroke="#191970" d="M311.2838,-171.4222C315.8976,-170.2048 320.7251,-169.0027 325.2738,-168 408.3408,-149.6883 507.2412,-134.3656 558.5357,-126.8958"/>
<polygon fill="#191970" stroke="#191970" points="559.3389,-130.3162 568.736,-125.4228 558.3384,-123.3881 559.3389,-130.3162"/>
</g>
<!-- Node15 -->
<g id="node16" class="node">
<title>Node15</title>
<polygon fill="none" stroke="#bfbfbf" points="235.2738,-.5 235.2738,-19.5 279.2738,-19.5 279.2738,-.5 235.2738,-.5"/>
<text text-anchor="middle" x="257.2738" y="-7.5" font-family="Helvetica,sans-Serif" font-size="10.00" fill="#000000">cmath</text>
</g>
<!-- Node14&#45;&gt;Node15 -->
<g id="edge19" class="edge">
<title>Node14&#45;&gt;Node15</title>
<path fill="none" stroke="#191970" d="M302.8652,-168.455C332.5613,-147.826 394.961,-97.5889 367.2738,-56 350.1344,-30.2549 315.5307,-18.8923 289.6873,-13.8935"/>
<polygon fill="#191970" stroke="#191970" points="290.0188,-10.3996 279.5727,-12.1687 288.8421,-17.3 290.0188,-10.3996"/>
</g>
<!-- Node16 -->
<g id="node17" class="node">
<title>Node16</title>
<g id="a_node17"><a xlink:href="blitz_8hh.html" target="_top" xlink:title="blitz.hh">
<polygon fill="none" stroke="#000000" points="233.2738,-56.5 233.2738,-75.5 281.2738,-75.5 281.2738,-56.5 233.2738,-56.5"/>
<text text-anchor="middle" x="257.2738" y="-63.5" font-family="Helvetica,sans-Serif" font-size="10.00" fill="#000000">blitz.hh</text>
</a>
</g>
</g>
<!-- Node14&#45;&gt;Node16 -->
<g id="edge21" class="edge">
<title>Node14&#45;&gt;Node16</title>
<path fill="none" stroke="#191970" d="M295.421,-168.3332C304.1723,-155.2292 316.8364,-131.2541 308.2738,-112 302.823,-99.7432 292.3139,-89.3755 282.2449,-81.6036"/>
<polygon fill="#191970" stroke="#191970" points="284.1778,-78.6828 274.0111,-75.7012 280.0994,-84.3721 284.1778,-78.6828"/>
</g>
<!-- Node18 -->
<g id="node19" class="node">
<title>Node18</title>
<g id="a_node19"><a xlink:href="validators_8hh.html" target="_top" xlink:title="validators.hh">
<polygon fill="none" stroke="#000000" points="227.2738,-112.5 227.2738,-131.5 299.2738,-131.5 299.2738,-112.5 227.2738,-112.5"/>
<text text-anchor="middle" x="263.2738" y="-119.5" font-family="Helvetica,sans-Serif" font-size="10.00" fill="#000000">validators.hh</text>
</a>
</g>
</g>
<!-- Node14&#45;&gt;Node18 -->
<g id="edge25" class="edge">
<title>Node14&#45;&gt;Node18</title>
<path fill="none" stroke="#191970" d="M283.9191,-168.2455C280.5494,-160.6973 275.7808,-150.0158 271.6754,-140.8197"/>
<polygon fill="#191970" stroke="#191970" points="274.8511,-139.3473 267.5785,-131.6427 268.4591,-142.2009 274.8511,-139.3473"/>
</g>
<!-- Node16&#45;&gt;Node11 -->
<g id="edge23" class="edge">
<title>Node16&#45;&gt;Node11</title>
<path fill="none" stroke="#191970" d="M240.5519,-56.2455C225.6848,-47.5731 203.7272,-34.7645 186.688,-24.825"/>
<polygon fill="#191970" stroke="#191970" points="188.2054,-21.6582 177.8041,-19.6427 184.6783,-27.7047 188.2054,-21.6582"/>
</g>
<!-- Node16&#45;&gt;Node15 -->
<g id="edge24" class="edge">
<title>Node16&#45;&gt;Node15</title>
<path fill="none" stroke="#191970" d="M257.2738,-56.2455C257.2738,-48.9382 257.2738,-38.6944 257.2738,-29.7046"/>
<polygon fill="#191970" stroke="#191970" points="260.7739,-29.6426 257.2738,-19.6427 253.7739,-29.6427 260.7739,-29.6426"/>
</g>
<!-- Node16&#45;&gt;Node17 -->
<g id="edge22" class="edge">
<title>Node16&#45;&gt;Node17</title>
<path fill="none" stroke="#191970" d="M281.6217,-57.8979C284.5132,-57.1516 287.4428,-56.4923 290.2738,-56 463.1916,-25.9296 1017.1678,-13.5546 1168.665,-10.6825"/>
<polygon fill="#191970" stroke="#191970" points="1168.9336,-14.1782 1178.8665,-10.492 1168.8028,-7.1794 1168.9336,-14.1782"/>
</g>
<!-- Node18&#45;&gt;Node16 -->
<g id="edge27" class="edge">
<title>Node18&#45;&gt;Node16</title>
<path fill="none" stroke="#191970" d="M262.2287,-112.2455C261.4457,-104.9382 260.3482,-94.6944 259.385,-85.7046"/>
<polygon fill="#191970" stroke="#191970" points="262.8524,-85.2129 258.3069,-75.6427 255.8923,-85.9587 262.8524,-85.2129"/>
</g>
<!-- Node19 -->
<g id="node20" class="node">
<title>Node19</title>
<polygon fill="none" stroke="#bfbfbf" points="299.7738,-56.5 299.7738,-75.5 358.7738,-75.5 358.7738,-56.5 299.7738,-56.5"/>
<text text-anchor="middle" x="329.2738" y="-63.5" font-family="Helvetica,sans-Serif" font-size="10.00" fill="#000000">stdexcept</text>
</g>
<!-- Node18&#45;&gt;Node19 -->
<g id="edge26" class="edge">
<title>Node18&#45;&gt;Node19</title>
<path fill="none" stroke="#191970" d="M274.7701,-112.2455C284.518,-103.9746 298.6997,-91.9416 310.1536,-82.2232"/>
<polygon fill="#191970" stroke="#191970" points="312.5485,-84.7813 317.9092,-75.6427 308.0196,-79.4437 312.5485,-84.7813"/>
</g>
<!-- Node20&#45;&gt;Node2 -->
<g id="edge30" class="edge">
<title>Node20&#45;&gt;Node2</title>
<path fill="none" stroke="#191970" d="M1394.9998,-224.3207C1390.9081,-209.3162 1380.7538,-180.8364 1360.2738,-168 1297.7569,-128.816 770.4614,-123.0029 628.4054,-122.1467"/>
<polygon fill="#191970" stroke="#191970" points="628.1216,-118.6452 618.1022,-122.0894 628.0826,-125.645 628.1216,-118.6452"/>
</g>
<!-- Node20&#45;&gt;Node6 -->
<g id="edge31" class="edge">
<title>Node20&#45;&gt;Node6</title>
<path fill="none" stroke="#191970" d="M1355.5166,-232.4888C1226.1267,-227.6255 832.1777,-211.4161 683.7617,-187.8562"/>
<polygon fill="#191970" stroke="#191970" points="683.9465,-184.3388 673.5071,-186.1472 682.7957,-191.2435 683.9465,-184.3388"/>
</g>
<!-- Node20&#45;&gt;Node7 -->
<g id="edge32" class="edge">
<title>Node20&#45;&gt;Node7</title>
<path fill="none" stroke="#191970" d="M1412.9506,-224.2455C1426.7593,-215.6534 1447.093,-203.0014 1463.003,-193.1018"/>
<polygon fill="#191970" stroke="#191970" points="1465.1351,-195.8974 1471.7766,-187.6427 1461.437,-189.954 1465.1351,-195.8974"/>
</g>
<!-- Node21 -->
<g id="node22" class="node">
<title>Node21</title>
<polygon fill="none" stroke="#bfbfbf" points="1407.7738,-168.5 1407.7738,-187.5 1448.7738,-187.5 1448.7738,-168.5 1407.7738,-168.5"/>
<text text-anchor="middle" x="1428.2738" y="-175.5" font-family="Helvetica,sans-Serif" font-size="10.00" fill="#000000">bitset</text>
</g>
<!-- Node20&#45;&gt;Node21 -->
<g id="edge29" class="edge">
<title>Node20&#45;&gt;Node21</title>
<path fill="none" stroke="#191970" d="M1402.6736,-224.2455C1406.8965,-216.617 1412.8911,-205.7881 1418.0179,-196.5267"/>
<polygon fill="#191970" stroke="#191970" points="1421.1548,-198.0867 1422.9359,-187.6427 1415.0305,-194.6965 1421.1548,-198.0867"/>
</g>
<!-- Node22 -->
<g id="node23" class="node">
<title>Node22</title>
<polygon fill="none" stroke="#bfbfbf" points="1526.2738,-168.5 1526.2738,-187.5 1588.2738,-187.5 1588.2738,-168.5 1526.2738,-168.5"/>
<text text-anchor="middle" x="1557.2738" y="-175.5" font-family="Helvetica,sans-Serif" font-size="10.00" fill="#000000">type_traits</text>
</g>
<!-- Node20&#45;&gt;Node22 -->
<g id="edge33" class="edge">
<title>Node20&#45;&gt;Node22</title>
<path fill="none" stroke="#191970" d="M1424.7788,-224.3733C1451.154,-215.1419 1491.1589,-201.1402 1520.3096,-190.9375"/>
<polygon fill="#191970" stroke="#191970" points="1521.8454,-194.1082 1530.1277,-187.5011 1519.5329,-187.5012 1521.8454,-194.1082"/>
</g>
<!-- Node23&#45;&gt;Node2 -->
<g id="edge39" class="edge">
<title>Node23&#45;&gt;Node2</title>
<path fill="none" stroke="#191970" d="M1022.6564,-226.6613C963.2717,-215.2868 854.5483,-194.0756 837.2738,-188 818.8976,-181.5369 816.5904,-174.63 798.2738,-168 740.2197,-146.9865 669.3143,-133.6509 627.9319,-127.0266"/>
<polygon fill="#191970" stroke="#191970" points="628.2443,-123.533 617.8241,-125.4486 627.1645,-130.4493 628.2443,-123.533"/>
</g>
<!-- Node23&#45;&gt;Node3 -->
<g id="edge42" class="edge">
<title>Node23&#45;&gt;Node3</title>
<path fill="none" stroke="#191970" d="M1022.5262,-226.4557C1017.7327,-225.5913 1012.8949,-224.7517 1008.2738,-224 891.8256,-205.0569 860.4229,-213.6844 745.2738,-188 745.1744,-187.9778 745.0748,-187.9555 744.9751,-187.933"/>
<polygon fill="#191970" stroke="#191970" points="746.0839,-184.605 735.5248,-185.4745 744.3215,-191.3795 746.0839,-184.605"/>
</g>
<!-- Node23&#45;&gt;Node17 -->
<g id="edge36" class="edge">
<title>Node23&#45;&gt;Node17</title>
<path fill="none" stroke="#191970" d="M1100.0278,-226.165C1122.5305,-219.6468 1149.6355,-208.0719 1166.2738,-188 1204.806,-141.5161 1208.7016,-65.7175 1208.1677,-29.9203"/>
<polygon fill="#191970" stroke="#191970" points="1211.6625,-29.6867 1207.877,-19.7912 1204.6654,-29.8876 1211.6625,-29.6867"/>
</g>
<!-- Node23&#45;&gt;Node19 -->
<g id="edge41" class="edge">
<title>Node23&#45;&gt;Node19</title>
<path fill="none" stroke="#191970" d="M1093.4776,-224.4481C1126.9222,-212.9505 1171.6067,-192.1474 1150.2738,-168 1097.8679,-108.6803 526.9829,-75.8902 369.3734,-67.9242"/>
<polygon fill="#191970" stroke="#191970" points="369.3374,-64.4182 359.175,-67.4144 368.9878,-71.4094 369.3374,-64.4182"/>
</g>
<!-- Node24 -->
<g id="node25" class="node">
<title>Node24</title>
<polygon fill="none" stroke="#bfbfbf" points="845.7738,-168.5 845.7738,-187.5 890.7738,-187.5 890.7738,-168.5 845.7738,-168.5"/>
<text text-anchor="middle" x="868.2738" y="-175.5" font-family="Helvetica,sans-Serif" font-size="10.00" fill="#000000">cstdlib</text>
</g>
<!-- Node23&#45;&gt;Node24 -->
<g id="edge35" class="edge">
<title>Node23&#45;&gt;Node24</title>
<path fill="none" stroke="#191970" d="M1026.9687,-224.4621C996.3653,-215.8951 950.0992,-202.801 900.8617,-188.126"/>
<polygon fill="#191970" stroke="#191970" points="901.5619,-184.6823 890.9783,-185.1708 899.5565,-191.3889 901.5619,-184.6823"/>
</g>
<!-- Node25 -->
<g id="node26" class="node">
<title>Node25</title>
<polygon fill="none" stroke="#bfbfbf" points="909.2738,-168.5 909.2738,-187.5 955.2738,-187.5 955.2738,-168.5 909.2738,-168.5"/>
<text text-anchor="middle" x="932.2738" y="-175.5" font-family="Helvetica,sans-Serif" font-size="10.00" fill="#000000">cstdint</text>
</g>
<!-- Node23&#45;&gt;Node25 -->
<g id="edge37" class="edge">
<title>Node23&#45;&gt;Node25</title>
<path fill="none" stroke="#191970" d="M1039.0979,-224.3733C1018.2972,-215.3435 986.9821,-201.7494 963.628,-191.6111"/>
<polygon fill="#191970" stroke="#191970" points="964.727,-188.2727 954.1603,-187.5011 961.9395,-194.6938 964.727,-188.2727"/>
</g>
<!-- Node26 -->
<g id="node27" class="node">
<title>Node26</title>
<polygon fill="none" stroke="#bfbfbf" points="973.2738,-168.5 973.2738,-187.5 1019.2738,-187.5 1019.2738,-168.5 973.2738,-168.5"/>
<text text-anchor="middle" x="996.2738" y="-175.5" font-family="Helvetica,sans-Serif" font-size="10.00" fill="#000000">cstring</text>
</g>
<!-- Node23&#45;&gt;Node26 -->
<g id="edge38" class="edge">
<title>Node23&#45;&gt;Node26</title>
<path fill="none" stroke="#191970" d="M1049.9516,-224.2455C1040.3515,-215.9746 1026.3846,-203.9416 1015.1043,-194.2232"/>
<polygon fill="#191970" stroke="#191970" points="1017.3268,-191.5182 1007.4662,-187.6427 1012.7578,-196.8214 1017.3268,-191.5182"/>
</g>
<!-- Node27 -->
<g id="node28" class="node">
<title>Node27</title>
<polygon fill="none" stroke="#bfbfbf" points="1037.2738,-168.5 1037.2738,-187.5 1077.2738,-187.5 1077.2738,-168.5 1037.2738,-168.5"/>
<text text-anchor="middle" x="1057.2738" y="-175.5" font-family="Helvetica,sans-Serif" font-size="10.00" fill="#000000">limits</text>
</g>
<!-- Node23&#45;&gt;Node27 -->
<g id="edge40" class="edge">
<title>Node23&#45;&gt;Node27</title>
<path fill="none" stroke="#191970" d="M1060.577,-224.2455C1060.0551,-216.9382 1059.3234,-206.6944 1058.6812,-197.7046"/>
<polygon fill="#191970" stroke="#191970" points="1062.1662,-197.3679 1057.9625,-187.6427 1055.184,-197.8667 1062.1662,-197.3679"/>
</g>
<!-- Node23&#45;&gt;Node28 -->
<g id="edge43" class="edge">
<title>Node23&#45;&gt;Node28</title>
<path fill="none" stroke="#191970" d="M1095.4831,-224.3733C1131.7461,-214.1686 1188.7243,-198.1345 1225.282,-187.8469"/>
<polygon fill="#191970" stroke="#191970" points="1226.3395,-191.1854 1235.0174,-185.1073 1224.4432,-184.4471 1226.3395,-191.1854"/>
</g>
<!-- Node23&#45;&gt;Node29 -->
<g id="edge44" class="edge">
<title>Node23&#45;&gt;Node29</title>
<path fill="none" stroke="#191970" d="M1099.8766,-227.59C1144.3104,-219.9455 1219.6387,-206.1723 1293.6072,-187.9719"/>
<polygon fill="#191970" stroke="#191970" points="1294.7012,-191.3065 1303.5591,-185.4938 1293.0097,-184.5139 1294.7012,-191.3065"/>
</g>
<!-- Node30 -->
<g id="node31" class="node">
<title>Node30</title>
<polygon fill="none" stroke="#bfbfbf" points="1095.2738,-168.5 1095.2738,-187.5 1141.2738,-187.5 1141.2738,-168.5 1095.2738,-168.5"/>
<text text-anchor="middle" x="1118.2738" y="-175.5" font-family="Helvetica,sans-Serif" font-size="10.00" fill="#000000">chrono</text>
</g>
<!-- Node23&#45;&gt;Node30 -->
<g id="edge45" class="edge">
<title>Node23&#45;&gt;Node30</title>
<path fill="none" stroke="#191970" d="M1071.2024,-224.2455C1079.4576,-216.1352 1091.3947,-204.4075 1101.182,-194.7919"/>
<polygon fill="#191970" stroke="#191970" points="1103.7784,-197.1476 1108.4589,-187.6427 1098.8726,-192.1542 1103.7784,-197.1476"/>
</g>
<!-- Node31 -->
<g id="node32" class="node">
<title>Node31</title>
<polygon fill="none" stroke="#bfbfbf" points="753.7738,-168.5 753.7738,-187.5 788.7738,-187.5 788.7738,-168.5 753.7738,-168.5"/>
<text text-anchor="middle" x="771.2738" y="-175.5" font-family="Helvetica,sans-Serif" font-size="10.00" fill="#000000">dc.h</text>
</g>
<!-- Node23&#45;&gt;Node31 -->
<g id="edge46" class="edge">
<title>Node23&#45;&gt;Node31</title>
<path fill="none" stroke="#191970" d="M1022.497,-226.6251C1017.7085,-225.7316 1012.8799,-224.8389 1008.2738,-224 917.2657,-207.4241 893.1636,-209.8415 803.2738,-188 801.8244,-187.6478 800.3446,-187.266 798.855,-186.8639"/>
<polygon fill="#191970" stroke="#191970" points="799.6798,-183.4587 789.0997,-184.0175 797.719,-190.1785 799.6798,-183.4587"/>
</g>
<!-- Node32&#45;&gt;Node10 -->
<g id="edge51" class="edge">
<title>Node32&#45;&gt;Node10</title>
<path fill="none" stroke="#191970" d="M202.8903,-280.4181C168.8422,-271.6936 124.3029,-258.0613 112.2738,-244 101.521,-231.4306 99.0059,-212.4927 98.8977,-198.122"/>
<polygon fill="#191970" stroke="#191970" points="102.4065,-197.8879 99.2156,-187.7851 95.4098,-197.6727 102.4065,-197.8879"/>
</g>
<!-- Node33 -->
<g id="node34" class="node">
<title>Node33</title>
<g id="a_node34"><a xlink:href="domain_8hh.html" target="_top" xlink:title="domain.hh">
<polygon fill="none" stroke="#000000" points="281.2738,-224.5 281.2738,-243.5 343.2738,-243.5 343.2738,-224.5 281.2738,-224.5"/>
<text text-anchor="middle" x="312.2738" y="-231.5" font-family="Helvetica,sans-Serif" font-size="10.00" fill="#000000">domain.hh</text>
</a>
</g>
</g>
<!-- Node32&#45;&gt;Node33 -->
<g id="edge52" class="edge">
<title>Node32&#45;&gt;Node33</title>
<path fill="none" stroke="#191970" d="M256.1185,-280.2455C266.1617,-271.9746 280.7732,-259.9416 292.5742,-250.2232"/>
<polygon fill="#191970" stroke="#191970" points="295.0705,-252.7015 300.5648,-243.6427 290.6205,-247.298 295.0705,-252.7015"/>
</g>
<!-- Node32&#45;&gt;Node35 -->
<g id="edge60" class="edge">
<title>Node32&#45;&gt;Node35</title>
<path fill="none" stroke="#191970" d="M231.9065,-280.2455C221.3184,-271.8943 205.8674,-259.7076 193.4845,-249.9408"/>
<polygon fill="#191970" stroke="#191970" points="195.5185,-247.0875 185.4993,-243.6427 191.1835,-252.5837 195.5185,-247.0875"/>
</g>
<!-- Node33&#45;&gt;Node2 -->
<g id="edge55" class="edge">
<title>Node33&#45;&gt;Node2</title>
<path fill="none" stroke="#191970" d="M316.9801,-224.126C324.5486,-209.3892 340.8769,-181.8909 363.2738,-168 395.4592,-148.0381 502.303,-132.799 558.3177,-125.9586"/>
<polygon fill="#191970" stroke="#191970" points="558.9681,-129.4058 568.481,-124.7416 558.1358,-122.4554 558.9681,-129.4058"/>
</g>
<!-- Node33&#45;&gt;Node6 -->
<g id="edge56" class="edge">
<title>Node33&#45;&gt;Node6</title>
<path fill="none" stroke="#191970" d="M343.4889,-228.7819C405.778,-218.3694 545.1793,-195.0665 611.2362,-184.0242"/>
<polygon fill="#191970" stroke="#191970" points="611.8991,-187.462 621.1852,-182.3611 610.745,-180.5578 611.8991,-187.462"/>
</g>
<!-- Node33&#45;&gt;Node11 -->
<g id="edge57" class="edge">
<title>Node33&#45;&gt;Node11</title>
<path fill="none" stroke="#191970" d="M284.7339,-224.4713C266.7986,-217.021 244.0682,-205.0455 229.2738,-188 187.9888,-140.4333 170.5005,-65.1625 164.2483,-29.7069"/>
<polygon fill="#191970" stroke="#191970" points="167.6756,-28.9785 162.5973,-19.68 160.7686,-30.1158 167.6756,-28.9785"/>
</g>
<!-- Node33&#45;&gt;Node14 -->
<g id="edge58" class="edge">
<title>Node33&#45;&gt;Node14</title>
<path fill="none" stroke="#191970" d="M308.0933,-224.2455C304.8928,-216.7776 300.3778,-206.2427 296.4654,-197.1137"/>
<polygon fill="#191970" stroke="#191970" points="299.5626,-195.4554 292.4064,-187.6427 293.1286,-198.2129 299.5626,-195.4554"/>
</g>
<!-- Node33&#45;&gt;Node15 -->
<g id="edge53" class="edge">
<title>Node33&#45;&gt;Node15</title>
<path fill="none" stroke="#191970" d="M294.8402,-224.4781C280.9276,-216.224 261.6227,-203.2291 248.2738,-188 229.6621,-166.767 225.1472,-159.386 218.2738,-132 213.6756,-113.6795 220.2722,-66.487 224.2738,-56 228.2266,-45.6406 235.104,-35.4786 241.5608,-27.3517"/>
<polygon fill="#191970" stroke="#191970" points="244.2407,-29.6029 247.997,-19.6963 238.8827,-25.0982 244.2407,-29.6029"/>
</g>
<!-- Node33&#45;&gt;Node18 -->
<g id="edge59" class="edge">
<title>Node33&#45;&gt;Node18</title>
<path fill="none" stroke="#191970" d="M293.3914,-224.3676C280.3038,-216.5389 263.9089,-204.1524 256.2738,-188 249.4353,-173.5328 252.0763,-155.3392 255.9244,-141.7196"/>
<polygon fill="#191970" stroke="#191970" points="259.3418,-142.5285 259.1112,-131.9361 252.686,-140.3604 259.3418,-142.5285"/>
</g>
<!-- Node34 -->
<g id="node35" class="node">
<title>Node34</title>
<polygon fill="none" stroke="#bfbfbf" points="405.2738,-168.5 405.2738,-187.5 455.2738,-187.5 455.2738,-168.5 405.2738,-168.5"/>
<text text-anchor="middle" x="430.2738" y="-175.5" font-family="Helvetica,sans-Serif" font-size="10.00" fill="#000000">iomanip</text>
</g>
<!-- Node33&#45;&gt;Node34 -->
<g id="edge54" class="edge">
<title>Node33&#45;&gt;Node34</title>
<path fill="none" stroke="#191970" d="M332.5587,-224.3733C351.4158,-215.4241 379.7197,-201.9917 401.0193,-191.8835"/>
<polygon fill="#191970" stroke="#191970" points="402.7199,-194.9506 410.2536,-187.5011 399.7187,-188.6266 402.7199,-194.9506"/>
</g>
<!-- Node35&#45;&gt;Node10 -->
<g id="edge62" class="edge">
<title>Node35&#45;&gt;Node10</title>
<path fill="none" stroke="#191970" d="M160.5581,-224.2455C149.6717,-215.8943 133.7855,-203.7076 121.0538,-193.9408"/>
<polygon fill="#191970" stroke="#191970" points="122.9083,-190.9523 112.8437,-187.6427 118.6477,-196.5063 122.9083,-190.9523"/>
</g>
<!-- Node35&#45;&gt;Node14 -->
<g id="edge61" class="edge">
<title>Node35&#45;&gt;Node14</title>
<path fill="none" stroke="#191970" d="M193.043,-224.3733C211.4207,-215.4241 239.005,-201.9917 259.763,-191.8835"/>
<polygon fill="#191970" stroke="#191970" points="261.3042,-195.026 268.7625,-187.5011 258.2395,-188.7325 261.3042,-195.026"/>
</g>
<!-- Node36&#45;&gt;Node6 -->
<g id="edge65" class="edge">
<title>Node36&#45;&gt;Node6</title>
<path fill="none" stroke="#191970" d="M554.5273,-224.3733C572.3449,-215.4644 599.0484,-202.1127 619.2332,-192.0203"/>
<polygon fill="#191970" stroke="#191970" points="620.8925,-195.1038 628.2715,-187.5011 617.762,-188.8428 620.8925,-195.1038"/>
</g>
<!-- Node36&#45;&gt;Node34 -->
<g id="edge67" class="edge">
<title>Node36&#45;&gt;Node34</title>
<path fill="none" stroke="#191970" d="M516.9842,-224.2455C500.4975,-215.4527 476.0386,-202.4079 457.2972,-192.4125"/>
<polygon fill="#191970" stroke="#191970" points="458.8244,-189.2604 448.3538,-187.6427 455.5303,-195.4368 458.8244,-189.2604"/>
</g>
<!-- Node37 -->
<g id="node38" class="node">
<title>Node37</title>
<polygon fill="none" stroke="#bfbfbf" points="535.7738,-168.5 535.7738,-187.5 564.7738,-187.5 564.7738,-168.5 535.7738,-168.5"/>
<text text-anchor="middle" x="550.2738" y="-175.5" font-family="Helvetica,sans-Serif" font-size="10.00" fill="#000000">ios</text>
</g>
<!-- Node36&#45;&gt;Node37 -->
<g id="edge66" class="edge">
<title>Node36&#45;&gt;Node37</title>
<path fill="none" stroke="#191970" d="M537.8866,-224.2455C539.8654,-216.8579 542.6482,-206.4689 545.075,-197.4087"/>
<polygon fill="#191970" stroke="#191970" points="548.4843,-198.2078 547.6909,-187.6427 541.7227,-196.3966 548.4843,-198.2078"/>
</g>
<!-- Node38 -->
<g id="node39" class="node">
<title>Node38</title>
<polygon fill="none" stroke="#bfbfbf" points="473.2738,-168.5 473.2738,-187.5 517.2738,-187.5 517.2738,-168.5 473.2738,-168.5"/>
<text text-anchor="middle" x="495.2738" y="-175.5" font-family="Helvetica,sans-Serif" font-size="10.00" fill="#000000">mutex</text>
</g>
<!-- Node36&#45;&gt;Node38 -->
<g id="edge68" class="edge">
<title>Node36&#45;&gt;Node38</title>
<path fill="none" stroke="#191970" d="M528.3063,-224.2455C522.7427,-216.4564 514.7958,-205.3308 508.0909,-195.9439"/>
<polygon fill="#191970" stroke="#191970" points="510.8219,-193.7457 502.1614,-187.6427 505.1258,-197.8144 510.8219,-193.7457"/>
</g>
<!-- Node39&#45;&gt;Node22 -->
<g id="edge72" class="edge">
<title>Node39&#45;&gt;Node22</title>
<path fill="none" stroke="#191970" d="M1196.1013,-345.375C1253.9813,-332.6389 1384.3509,-299.75 1481.2738,-244 1504.28,-230.7668 1526.7378,-210.0058 1541.2005,-195.3064"/>
<polygon fill="#191970" stroke="#191970" points="1543.9604,-197.4857 1548.3656,-187.85 1538.913,-192.6355 1543.9604,-197.4857"/>
</g>
<!-- Node40 -->
<g id="node41" class="node">
<title>Node40</title>
<polygon fill="none" stroke="#bfbfbf" points="1175.2738,-280.5 1175.2738,-299.5 1223.2738,-299.5 1223.2738,-280.5 1175.2738,-280.5"/>
<text text-anchor="middle" x="1199.2738" y="-287.5" font-family="Helvetica,sans-Serif" font-size="10.00" fill="#000000">GL/gl.h</text>
</g>
<!-- Node39&#45;&gt;Node40 -->
<g id="edge70" class="edge">
<title>Node39&#45;&gt;Node40</title>
<path fill="none" stroke="#191970" d="M1171.43,-341.8906C1176.197,-333.0068 1183.4123,-319.5601 1189.3034,-308.5811"/>
<polygon fill="#191970" stroke="#191970" points="1192.4007,-310.2114 1194.0448,-299.7449 1186.2325,-306.9016 1192.4007,-310.2114"/>
</g>
<!-- Node41 -->
<g id="node42" class="node">
<title>Node41</title>
<polygon fill="none" stroke="#bfbfbf" points="1103.7738,-280.5 1103.7738,-299.5 1156.7738,-299.5 1156.7738,-280.5 1103.7738,-280.5"/>
<text text-anchor="middle" x="1130.2738" y="-287.5" font-family="Helvetica,sans-Serif" font-size="10.00" fill="#000000">GL/glx.h</text>
</g>
<!-- Node39&#45;&gt;Node41 -->
<g id="edge71" class="edge">
<title>Node39&#45;&gt;Node41</title>
<path fill="none" stroke="#191970" d="M1160.6488,-341.8906C1155.4485,-333.0068 1147.5772,-319.5601 1141.1505,-308.5811"/>
<polygon fill="#191970" stroke="#191970" points="1144.0505,-306.6069 1135.9781,-299.7449 1138.0094,-310.1432 1144.0505,-306.6069"/>
</g>
<!-- Node42&#45;&gt;Node14 -->
<g id="edge75" class="edge">
<title>Node42&#45;&gt;Node14</title>
<path fill="none" stroke="#191970" d="M341.0189,-336.423C352.6306,-311.5632 371.2667,-261.041 352.2738,-224 345.3408,-210.4789 332.3801,-200.0326 319.9257,-192.5377"/>
<polygon fill="#191970" stroke="#191970" points="321.481,-189.3979 311.0398,-187.6001 318.081,-195.5168 321.481,-189.3979"/>
</g>
<!-- Node42&#45;&gt;Node32 -->
<g id="edge74" class="edge">
<title>Node42&#45;&gt;Node32</title>
<path fill="none" stroke="#191970" d="M311.2738,-336.2977C297.677,-326.9022 280.2772,-314.8787 266.6171,-305.4395"/>
<polygon fill="#191970" stroke="#191970" points="268.4747,-302.4688 258.258,-299.6633 264.4952,-308.2276 268.4747,-302.4688"/>
</g>
</g>
</svg>
