<?xml version="1.0" encoding="UTF-8" standalone="no"?>
<!DOCTYPE svg PUBLIC "-//W3C//DTD SVG 1.1//EN"
 "http://www.w3.org/Graphics/SVG/1.1/DTD/svg11.dtd">
<!-- Generated by graphviz version 2.36.0 (20140111.2315)
 -->
<!-- Title: /home/travis/build/igankevich/arma/src/arma_realtime_driver.cc Pages: 1 -->
<svg width="1426pt" height="510pt"
 viewBox="0.00 0.00 1425.72 510.00" xmlns="http://www.w3.org/2000/svg" xmlns:xlink="http://www.w3.org/1999/xlink">
<g id="graph0" class="graph" transform="scale(1 1) rotate(0) translate(4 506)">
<title>/home/travis/build/igankevich/arma/src/arma_realtime_driver.cc</title>
<!-- Node1 -->
<g id="node1" class="node"><title>Node1</title>
<polygon fill="#bfbfbf" stroke="black" points="1236.72,-460.5 1236.72,-501.5 1360.72,-501.5 1360.72,-460.5 1236.72,-460.5"/>
<text text-anchor="start" x="1244.72" y="-489.5" font-family="Helvetica,sans-Serif" font-size="10.00">/home/travis/build</text>
<text text-anchor="start" x="1244.72" y="-478.5" font-family="Helvetica,sans-Serif" font-size="10.00">/igankevich/arma/src</text>
<text text-anchor="middle" x="1298.72" y="-467.5" font-family="Helvetica,sans-Serif" font-size="10.00">/arma_realtime_driver.cc</text>
</g>
<!-- Node2 -->
<g id="node2" class="node"><title>Node2</title>
<g id="a_node2"><a xlink:href="arma__realtime__driver_8hh.html" target="_top" xlink:title="arma_realtime_driver.hh">
<polygon fill="none" stroke="black" points="873.223,-404.5 873.223,-423.5 994.223,-423.5 994.223,-404.5 873.223,-404.5"/>
<text text-anchor="middle" x="933.723" y="-411.5" font-family="Helvetica,sans-Serif" font-size="10.00">arma_realtime_driver.hh</text>
</a>
</g>
</g>
<!-- Node1&#45;&gt;Node2 -->
<g id="edge1" class="edge"><title>Node1&#45;&gt;Node2</title>
<path fill="none" stroke="midnightblue" d="M1236.39,-468.9C1167.74,-456.674 1058.24,-437.174 991.468,-425.283"/>
<polygon fill="midnightblue" stroke="midnightblue" points="991.993,-421.822 981.534,-423.514 990.766,-428.713 991.993,-421.822"/>
</g>
<!-- Node18 -->
<g id="node18" class="node"><title>Node18</title>
<polygon fill="none" stroke="#bfbfbf" points="1155.72,-0.5 1155.72,-19.5 1211.72,-19.5 1211.72,-0.5 1155.72,-0.5"/>
<text text-anchor="middle" x="1183.72" y="-7.5" font-family="Helvetica,sans-Serif" font-size="10.00">algorithm</text>
</g>
<!-- Node1&#45;&gt;Node18 -->
<g id="edge76" class="edge"><title>Node1&#45;&gt;Node18</title>
<path fill="none" stroke="midnightblue" d="M1336.05,-460.411C1370.95,-439.102 1417.72,-401.496 1417.72,-353 1417.72,-353 1417.72,-353 1417.72,-121 1417.72,-35.5665 1288.39,-16.3649 1222.03,-12.1358"/>
<polygon fill="midnightblue" stroke="midnightblue" points="1222.13,-8.63592 1211.95,-11.5778 1221.74,-15.6252 1222.13,-8.63592"/>
</g>
<!-- Node29 -->
<g id="node29" class="node"><title>Node29</title>
<polygon fill="none" stroke="#bfbfbf" points="1273.72,-112.5 1273.72,-131.5 1323.72,-131.5 1323.72,-112.5 1273.72,-112.5"/>
<text text-anchor="middle" x="1298.72" y="-119.5" font-family="Helvetica,sans-Serif" font-size="10.00">fstream</text>
</g>
<!-- Node1&#45;&gt;Node29 -->
<g id="edge75" class="edge"><title>Node1&#45;&gt;Node29</title>
<path fill="none" stroke="midnightblue" d="M1298.72,-460.202C1298.72,-435.217 1298.72,-390.924 1298.72,-353 1298.72,-353 1298.72,-353 1298.72,-233 1298.72,-200.948 1298.72,-163.643 1298.72,-141.749"/>
<polygon fill="midnightblue" stroke="midnightblue" points="1302.22,-141.558 1298.72,-131.558 1295.22,-141.558 1302.22,-141.558"/>
</g>
<!-- Node30 -->
<g id="node30" class="node"><title>Node30</title>
<polygon fill="none" stroke="#bfbfbf" points="1342.22,-112.5 1342.22,-131.5 1389.22,-131.5 1389.22,-112.5 1342.22,-112.5"/>
<text text-anchor="middle" x="1365.72" y="-119.5" font-family="Helvetica,sans-Serif" font-size="10.00">iterator</text>
</g>
<!-- Node1&#45;&gt;Node30 -->
<g id="edge77" class="edge"><title>Node1&#45;&gt;Node30</title>
<path fill="none" stroke="midnightblue" d="M1312.39,-460.345C1327.79,-436.217 1350.72,-393.503 1350.72,-353 1350.72,-353 1350.72,-353 1350.72,-233 1350.72,-200.502 1357.23,-163.095 1361.67,-141.343"/>
<polygon fill="midnightblue" stroke="midnightblue" points="1365.11,-142.013 1363.76,-131.504 1358.26,-140.559 1365.11,-142.013"/>
</g>
<!-- Node43 -->
<g id="node43" class="node"><title>Node43</title>
<g id="a_node43"><a xlink:href="high__amplitude__realtime__solver_8hh.html" target="_top" xlink:title="velocity/high_amplitude\l_realtime_solver.hh">
<polygon fill="none" stroke="black" points="308.223,-337 308.223,-367 427.223,-367 427.223,-337 308.223,-337"/>
<text text-anchor="start" x="316.223" y="-355" font-family="Helvetica,sans-Serif" font-size="10.00">velocity/high_amplitude</text>
<text text-anchor="middle" x="367.723" y="-344" font-family="Helvetica,sans-Serif" font-size="10.00">_realtime_solver.hh</text>
</a>
</g>
</g>
<!-- Node1&#45;&gt;Node43 -->
<g id="edge72" class="edge"><title>Node1&#45;&gt;Node43</title>
<path fill="none" stroke="midnightblue" d="M1236.7,-473.868C1095.99,-459.545 741.808,-421.162 437.271,-368.196"/>
<polygon fill="midnightblue" stroke="midnightblue" points="437.822,-364.739 427.369,-366.465 436.617,-371.634 437.822,-364.739"/>
</g>
<!-- Node3 -->
<g id="node3" class="node"><title>Node3</title>
<polygon fill="none" stroke="#bfbfbf" points="620.223,-112.5 620.223,-131.5 669.223,-131.5 669.223,-112.5 620.223,-112.5"/>
<text text-anchor="middle" x="644.723" y="-119.5" font-family="Helvetica,sans-Serif" font-size="10.00">istream</text>
</g>
<!-- Node2&#45;&gt;Node3 -->
<g id="edge2" class="edge"><title>Node2&#45;&gt;Node3</title>
<path fill="none" stroke="midnightblue" d="M928.573,-404.472C917.358,-385.063 891.723,-335.801 891.723,-291 891.723,-291 891.723,-291 891.723,-233 891.723,-174.29 830.295,-192.02 776.723,-168 744.595,-153.595 706.374,-141.035 679.349,-132.872"/>
<polygon fill="midnightblue" stroke="midnightblue" points="680.158,-129.461 669.575,-129.964 678.162,-136.17 680.158,-129.461"/>
</g>
<!-- Node4 -->
<g id="node4" class="node"><title>Node4</title>
<polygon fill="none" stroke="#bfbfbf" points="1211.72,-112.5 1211.72,-131.5 1255.72,-131.5 1255.72,-112.5 1211.72,-112.5"/>
<text text-anchor="middle" x="1233.72" y="-119.5" font-family="Helvetica,sans-Serif" font-size="10.00">vector</text>
</g>
<!-- Node2&#45;&gt;Node4 -->
<g id="edge3" class="edge"><title>Node2&#45;&gt;Node4</title>
<path fill="none" stroke="midnightblue" d="M935.577,-404.287C940.775,-381.568 957.344,-319.546 990.723,-280 1051.16,-208.393 1152.57,-157.774 1203.13,-135.581"/>
<polygon fill="midnightblue" stroke="midnightblue" points="1204.74,-138.698 1212.54,-131.524 1201.97,-132.271 1204.74,-138.698"/>
</g>
<!-- Node5 -->
<g id="node5" class="node"><title>Node5</title>
<g id="a_node5"><a xlink:href="arma__driver_8hh.html" target="_top" xlink:title="arma_driver.hh">
<polygon fill="none" stroke="black" points="445.223,-342.5 445.223,-361.5 526.223,-361.5 526.223,-342.5 445.223,-342.5"/>
<text text-anchor="middle" x="485.723" y="-349.5" font-family="Helvetica,sans-Serif" font-size="10.00">arma_driver.hh</text>
</a>
</g>
</g>
<!-- Node2&#45;&gt;Node5 -->
<g id="edge4" class="edge"><title>Node2&#45;&gt;Node5</title>
<path fill="none" stroke="midnightblue" d="M872.837,-404.846C783.728,-392.911 619.402,-370.903 536.452,-359.794"/>
<polygon fill="midnightblue" stroke="midnightblue" points="536.885,-356.321 526.509,-358.462 535.956,-363.259 536.885,-356.321"/>
</g>
<!-- Node40 -->
<g id="node40" class="node"><title>Node40</title>
<g id="a_node40"><a xlink:href="opengl_8hh.html" target="_top" xlink:title="opengl.hh">
<polygon fill="none" stroke="black" points="978.223,-342.5 978.223,-361.5 1037.22,-361.5 1037.22,-342.5 978.223,-342.5"/>
<text text-anchor="middle" x="1007.72" y="-349.5" font-family="Helvetica,sans-Serif" font-size="10.00">opengl.hh</text>
</a>
</g>
</g>
<!-- Node2&#45;&gt;Node40 -->
<g id="edge68" class="edge"><title>Node2&#45;&gt;Node40</title>
<path fill="none" stroke="midnightblue" d="M944.325,-404.403C955.975,-394.958 974.909,-379.606 989.057,-368.134"/>
<polygon fill="midnightblue" stroke="midnightblue" points="991.577,-370.597 997.14,-361.581 987.168,-365.16 991.577,-370.597"/>
</g>
<!-- Node5&#45;&gt;Node3 -->
<g id="edge6" class="edge"><title>Node5&#45;&gt;Node3</title>
<path fill="none" stroke="midnightblue" d="M526.473,-351.334C609.279,-351.052 792.687,-345.212 831.723,-300 889.917,-232.599 744.317,-162.919 676.846,-135.318"/>
<polygon fill="midnightblue" stroke="midnightblue" points="678.076,-132.04 667.492,-131.557 675.464,-138.535 678.076,-132.04"/>
</g>
<!-- Node6 -->
<g id="node6" class="node"><title>Node6</title>
<polygon fill="none" stroke="#bfbfbf" points="764.223,-280.5 764.223,-299.5 823.223,-299.5 823.223,-280.5 764.223,-280.5"/>
<text text-anchor="middle" x="793.723" y="-287.5" font-family="Helvetica,sans-Serif" font-size="10.00">functional</text>
</g>
<!-- Node5&#45;&gt;Node6 -->
<g id="edge5" class="edge"><title>Node5&#45;&gt;Node6</title>
<path fill="none" stroke="midnightblue" d="M526.67,-343.645C579.31,-334.09 673.496,-316.654 753.723,-300 753.827,-299.978 753.932,-299.957 754.037,-299.935"/>
<polygon fill="midnightblue" stroke="midnightblue" points="754.993,-303.309 764.04,-297.794 753.529,-296.464 754.993,-303.309"/>
</g>
<!-- Node7 -->
<g id="node7" class="node"><title>Node7</title>
<polygon fill="none" stroke="#bfbfbf" points="355.723,-112.5 355.723,-131.5 407.723,-131.5 407.723,-112.5 355.723,-112.5"/>
<text text-anchor="middle" x="381.723" y="-119.5" font-family="Helvetica,sans-Serif" font-size="10.00">ostream</text>
</g>
<!-- Node5&#45;&gt;Node7 -->
<g id="edge7" class="edge"><title>Node5&#45;&gt;Node7</title>
<path fill="none" stroke="midnightblue" d="M480.492,-342.453C466.128,-318.7 425.502,-249.586 400.723,-188 394.551,-172.662 389.427,-154.561 386.061,-141.361"/>
<polygon fill="midnightblue" stroke="midnightblue" points="389.447,-140.471 383.664,-131.594 382.649,-142.14 389.447,-140.471"/>
</g>
<!-- Node8 -->
<g id="node8" class="node"><title>Node8</title>
<polygon fill="none" stroke="#bfbfbf" points="502.223,-112.5 502.223,-131.5 543.223,-131.5 543.223,-112.5 502.223,-112.5"/>
<text text-anchor="middle" x="522.723" y="-119.5" font-family="Helvetica,sans-Serif" font-size="10.00">string</text>
</g>
<!-- Node5&#45;&gt;Node8 -->
<g id="edge8" class="edge"><title>Node5&#45;&gt;Node8</title>
<path fill="none" stroke="midnightblue" d="M486.692,-342.349C489.038,-321.775 495.374,-268.33 502.723,-224 507.51,-195.12 514.357,-161.856 518.67,-141.637"/>
<polygon fill="midnightblue" stroke="midnightblue" points="522.144,-142.126 520.828,-131.614 515.301,-140.653 522.144,-142.126"/>
</g>
<!-- Node9 -->
<g id="node9" class="node"><title>Node9</title>
<polygon fill="none" stroke="#bfbfbf" points="588.223,-280.5 588.223,-299.5 671.223,-299.5 671.223,-280.5 588.223,-280.5"/>
<text text-anchor="middle" x="629.723" y="-287.5" font-family="Helvetica,sans-Serif" font-size="10.00">unordered_map</text>
</g>
<!-- Node5&#45;&gt;Node9 -->
<g id="edge9" class="edge"><title>Node5&#45;&gt;Node9</title>
<path fill="none" stroke="midnightblue" d="M506.355,-342.403C530.842,-332.2 571.87,-315.105 599.832,-303.454"/>
<polygon fill="midnightblue" stroke="midnightblue" points="601.245,-306.658 609.129,-299.581 598.552,-300.196 601.245,-306.658"/>
</g>
<!-- Node10 -->
<g id="node10" class="node"><title>Node10</title>
<polygon fill="none" stroke="#bfbfbf" points="689.723,-280.5 689.723,-299.5 745.723,-299.5 745.723,-280.5 689.723,-280.5"/>
<text text-anchor="middle" x="717.723" y="-287.5" font-family="Helvetica,sans-Serif" font-size="10.00">config.hh</text>
</g>
<!-- Node5&#45;&gt;Node10 -->
<g id="edge10" class="edge"><title>Node5&#45;&gt;Node10</title>
<path fill="none" stroke="midnightblue" d="M518.963,-342.403C561.506,-331.401 635.039,-312.384 679.746,-300.822"/>
<polygon fill="midnightblue" stroke="midnightblue" points="680.836,-304.155 689.641,-298.263 679.083,-297.378 680.836,-304.155"/>
</g>
<!-- Node11 -->
<g id="node11" class="node"><title>Node11</title>
<g id="a_node11"><a xlink:href="types_8hh.html" target="_top" xlink:title="types.hh">
<polygon fill="none" stroke="black" points="52.7228,-168.5 52.7228,-187.5 106.723,-187.5 106.723,-168.5 52.7228,-168.5"/>
<text text-anchor="middle" x="79.7228" y="-175.5" font-family="Helvetica,sans-Serif" font-size="10.00">types.hh</text>
</a>
</g>
</g>
<!-- Node5&#45;&gt;Node11 -->
<g id="edge11" class="edge"><title>Node5&#45;&gt;Node11</title>
<path fill="none" stroke="midnightblue" d="M460.514,-342.463C452.649,-340.064 443.894,-337.66 435.723,-336 292.004,-306.809 241.751,-359.529 107.723,-300 73.4852,-284.793 60.0697,-278.175 44.7228,-244 36.9834,-226.765 49.7611,-207.827 61.9942,-194.862"/>
<polygon fill="midnightblue" stroke="midnightblue" points="64.6741,-197.136 69.3524,-187.63 59.7671,-192.143 64.6741,-197.136"/>
</g>
<!-- Node13 -->
<g id="node13" class="node"><title>Node13</title>
<g id="a_node13"><a xlink:href="arma_8hh.html" target="_top" xlink:title="arma.hh">
<polygon fill="none" stroke="black" points="53.7228,-224.5 53.7228,-243.5 105.723,-243.5 105.723,-224.5 53.7228,-224.5"/>
<text text-anchor="middle" x="79.7228" y="-231.5" font-family="Helvetica,sans-Serif" font-size="10.00">arma.hh</text>
</a>
</g>
</g>
<!-- Node5&#45;&gt;Node13 -->
<g id="edge13" class="edge"><title>Node5&#45;&gt;Node13</title>
<path fill="none" stroke="midnightblue" d="M460.247,-342.433C452.449,-340.062 443.797,-337.681 435.723,-336 303.82,-308.541 253.36,-363.858 134.723,-300 114.649,-289.195 98.8008,-267.819 89.3721,-252.53"/>
<polygon fill="midnightblue" stroke="midnightblue" points="92.186,-250.407 84.1233,-243.534 86.1398,-253.935 92.186,-250.407"/>
</g>
<!-- Node14 -->
<g id="node14" class="node"><title>Node14</title>
<g id="a_node14"><a xlink:href="basic__model_8hh.html" target="_top" xlink:title="generator/basic_model.hh">
<polygon fill="none" stroke="black" points="511.723,-224.5 511.723,-243.5 639.723,-243.5 639.723,-224.5 511.723,-224.5"/>
<text text-anchor="middle" x="575.723" y="-231.5" font-family="Helvetica,sans-Serif" font-size="10.00">generator/basic_model.hh</text>
</a>
</g>
</g>
<!-- Node5&#45;&gt;Node14 -->
<g id="edge15" class="edge"><title>Node5&#45;&gt;Node14</title>
<path fill="none" stroke="midnightblue" d="M492.487,-342.281C507.415,-323.041 543.388,-276.677 562.794,-251.664"/>
<polygon fill="midnightblue" stroke="midnightblue" points="565.76,-253.551 569.124,-243.505 560.229,-249.26 565.76,-253.551"/>
</g>
<!-- Node15 -->
<g id="node15" class="node"><title>Node15</title>
<g id="a_node15"><a xlink:href="grid_8hh.html" target="_top" xlink:title="grid.hh">
<polygon fill="none" stroke="black" points="409.723,-168.5 409.723,-187.5 455.723,-187.5 455.723,-168.5 409.723,-168.5"/>
<text text-anchor="middle" x="432.723" y="-175.5" font-family="Helvetica,sans-Serif" font-size="10.00">grid.hh</text>
</a>
</g>
</g>
<!-- Node5&#45;&gt;Node15 -->
<g id="edge49" class="edge"><title>Node5&#45;&gt;Node15</title>
<path fill="none" stroke="midnightblue" d="M482.986,-342.343C479.785,-332.202 474.336,-314.892 469.723,-300 458.445,-263.589 445.457,-220.947 438.258,-197.249"/>
<polygon fill="midnightblue" stroke="midnightblue" points="441.557,-196.067 435.303,-187.515 434.859,-198.101 441.557,-196.067"/>
</g>
<!-- Node21 -->
<g id="node21" class="node"><title>Node21</title>
<g id="a_node21"><a xlink:href="output__flags_8hh.html" target="_top" xlink:title="output_flags.hh">
<polygon fill="none" stroke="black" points="550.223,-168.5 550.223,-187.5 633.223,-187.5 633.223,-168.5 550.223,-168.5"/>
<text text-anchor="middle" x="591.723" y="-175.5" font-family="Helvetica,sans-Serif" font-size="10.00">output_flags.hh</text>
</a>
</g>
</g>
<!-- Node5&#45;&gt;Node21 -->
<g id="edge48" class="edge"><title>Node5&#45;&gt;Node21</title>
<path fill="none" stroke="midnightblue" d="M495.884,-342.278C512.534,-328.213 546.954,-300.074 578.723,-280 608.298,-261.312 630.5,-273.863 648.723,-244 660.641,-224.469 638.153,-205.15 618.01,-192.716"/>
<polygon fill="midnightblue" stroke="midnightblue" points="619.743,-189.676 609.34,-187.67 616.222,-195.725 619.743,-189.676"/>
</g>
<!-- Node33 -->
<g id="node33" class="node"><title>Node33</title>
<g id="a_node33"><a xlink:href="basic__solver_8hh.html" target="_top" xlink:title="velocity/basic_solver.hh">
<polygon fill="none" stroke="black" points="143.723,-280.5 143.723,-299.5 265.723,-299.5 265.723,-280.5 143.723,-280.5"/>
<text text-anchor="middle" x="204.723" y="-287.5" font-family="Helvetica,sans-Serif" font-size="10.00">velocity/basic_solver.hh</text>
</a>
</g>
</g>
<!-- Node5&#45;&gt;Node33 -->
<g id="edge50" class="edge"><title>Node5&#45;&gt;Node33</title>
<path fill="none" stroke="midnightblue" d="M459.13,-342.489C451.604,-340.226 443.378,-337.889 435.723,-336 378.81,-321.956 313.134,-309.52 266.393,-301.3"/>
<polygon fill="midnightblue" stroke="midnightblue" points="266.874,-297.831 256.421,-299.56 265.671,-304.727 266.874,-297.831"/>
</g>
<!-- Node36 -->
<g id="node36" class="node"><title>Node36</title>
<g id="a_node36"><a xlink:href="discrete__function_8hh.html" target="_top" xlink:title="discrete_function.hh">
<polygon fill="none" stroke="black" points="199.723,-224.5 199.723,-243.5 303.723,-243.5 303.723,-224.5 199.723,-224.5"/>
<text text-anchor="middle" x="251.723" y="-231.5" font-family="Helvetica,sans-Serif" font-size="10.00">discrete_function.hh</text>
</a>
</g>
</g>
<!-- Node5&#45;&gt;Node36 -->
<g id="edge62" class="edge"><title>Node5&#45;&gt;Node36</title>
<path fill="none" stroke="midnightblue" d="M457.165,-342.424C409.623,-328.135 319.266,-300.917 317.723,-300 296.459,-287.362 276.921,-266.446 264.711,-251.761"/>
<polygon fill="midnightblue" stroke="midnightblue" points="267.412,-249.535 258.412,-243.945 261.962,-253.927 267.412,-249.535"/>
</g>
<!-- Node37 -->
<g id="node37" class="node"><title>Node37</title>
<g id="a_node37"><a xlink:href="util_8hh.html" target="_top" xlink:title="util.hh">
<polygon fill="none" stroke="black" points="125.223,-168.5 125.223,-187.5 168.223,-187.5 168.223,-168.5 125.223,-168.5"/>
<text text-anchor="middle" x="146.723" y="-175.5" font-family="Helvetica,sans-Serif" font-size="10.00">util.hh</text>
</a>
</g>
</g>
<!-- Node5&#45;&gt;Node37 -->
<g id="edge63" class="edge"><title>Node5&#45;&gt;Node37</title>
<path fill="none" stroke="midnightblue" d="M467.29,-342.47C448.122,-333.221 417.63,-317.427 393.723,-300 353.83,-270.922 355.827,-248.062 312.723,-224 289.709,-211.153 219.494,-194.625 178.122,-185.602"/>
<polygon fill="midnightblue" stroke="midnightblue" points="178.785,-182.164 168.272,-183.476 177.309,-189.007 178.785,-182.164"/>
</g>
<!-- Node12 -->
<g id="node12" class="node"><title>Node12</title>
<polygon fill="none" stroke="#bfbfbf" points="165.723,-0.5 165.723,-19.5 233.723,-19.5 233.723,-0.5 165.723,-0.5"/>
<text text-anchor="middle" x="199.723" y="-7.5" font-family="Helvetica,sans-Serif" font-size="10.00">blitz/array.h</text>
</g>
<!-- Node11&#45;&gt;Node12 -->
<g id="edge12" class="edge"><title>Node11&#45;&gt;Node12</title>
<path fill="none" stroke="midnightblue" d="M54.553,-168.454C26.9145,-157.596 -11.6413,-137.201 3.72283,-112 36.6745,-57.9505 108.839,-31.5849 155.807,-19.6908"/>
<polygon fill="midnightblue" stroke="midnightblue" points="156.813,-23.0485 165.714,-17.3011 155.172,-16.2437 156.813,-23.0485"/>
</g>
<!-- Node13&#45;&gt;Node11 -->
<g id="edge14" class="edge"><title>Node13&#45;&gt;Node11</title>
<path fill="none" stroke="midnightblue" d="M79.7228,-224.083C79.7228,-217.006 79.7228,-206.861 79.7228,-197.986"/>
<polygon fill="midnightblue" stroke="midnightblue" points="83.2229,-197.751 79.7228,-187.751 76.2229,-197.751 83.2229,-197.751"/>
</g>
<!-- Node14&#45;&gt;Node3 -->
<g id="edge16" class="edge"><title>Node14&#45;&gt;Node3</title>
<path fill="none" stroke="midnightblue" d="M597.619,-224.406C612.865,-217.159 632.122,-205.194 641.723,-188 649.554,-173.976 649.611,-155.478 648.115,-141.803"/>
<polygon fill="midnightblue" stroke="midnightblue" points="651.54,-141.041 646.628,-131.654 644.614,-142.055 651.54,-141.041"/>
</g>
<!-- Node14&#45;&gt;Node7 -->
<g id="edge17" class="edge"><title>Node14&#45;&gt;Node7</title>
<path fill="none" stroke="midnightblue" d="M561.441,-224.434C540.391,-211.855 499.74,-187.738 464.723,-168 445.505,-157.167 423.554,-145.287 407.055,-136.455"/>
<polygon fill="midnightblue" stroke="midnightblue" points="408.502,-133.26 398.032,-131.638 405.205,-139.435 408.502,-133.26"/>
</g>
<!-- Node14&#45;&gt;Node11 -->
<g id="edge47" class="edge"><title>Node14&#45;&gt;Node11</title>
<path fill="none" stroke="midnightblue" d="M511.703,-229.726C424.473,-224.602 263.317,-212.784 116.832,-187.946"/>
<polygon fill="midnightblue" stroke="midnightblue" points="117.207,-184.459 106.758,-186.213 116.02,-191.358 117.207,-184.459"/>
</g>
<!-- Node14&#45;&gt;Node15 -->
<g id="edge18" class="edge"><title>Node14&#45;&gt;Node15</title>
<path fill="none" stroke="midnightblue" d="M553.064,-224.444C529.321,-215.478 491.814,-201.314 464.984,-191.183"/>
<polygon fill="midnightblue" stroke="midnightblue" points="465.867,-187.775 455.276,-187.516 463.394,-194.324 465.867,-187.775"/>
</g>
<!-- Node14&#45;&gt;Node21 -->
<g id="edge28" class="edge"><title>Node14&#45;&gt;Node21</title>
<path fill="none" stroke="midnightblue" d="M578.365,-224.083C580.508,-216.849 583.602,-206.409 586.272,-197.397"/>
<polygon fill="midnightblue" stroke="midnightblue" points="589.645,-198.333 589.13,-187.751 582.933,-196.345 589.645,-198.333"/>
</g>
<!-- Node24 -->
<g id="node24" class="node"><title>Node24</title>
<g id="a_node24"><a xlink:href="parallel__mt_8hh.html" target="_top" xlink:title="parallel_mt.hh">
<polygon fill="none" stroke="black" points="1000.22,-168.5 1000.22,-187.5 1077.22,-187.5 1077.22,-168.5 1000.22,-168.5"/>
<text text-anchor="middle" x="1038.72" y="-175.5" font-family="Helvetica,sans-Serif" font-size="10.00">parallel_mt.hh</text>
</a>
</g>
</g>
<!-- Node14&#45;&gt;Node24 -->
<g id="edge34" class="edge"><title>Node14&#45;&gt;Node24</title>
<path fill="none" stroke="midnightblue" d="M640.101,-225.492C733.842,-214.558 905.866,-194.495 989.912,-184.693"/>
<polygon fill="midnightblue" stroke="midnightblue" points="990.43,-188.156 999.957,-183.521 989.619,-181.203 990.43,-188.156"/>
</g>
<!-- Node15&#45;&gt;Node3 -->
<g id="edge20" class="edge"><title>Node15&#45;&gt;Node3</title>
<path fill="none" stroke="midnightblue" d="M455.786,-171.257C488.018,-163.211 548.613,-148.018 610.31,-132.084"/>
<polygon fill="midnightblue" stroke="midnightblue" points="611.412,-135.414 620.217,-129.522 609.659,-128.637 611.412,-135.414"/>
</g>
<!-- Node16 -->
<g id="node16" class="node"><title>Node16</title>
<polygon fill="none" stroke="#bfbfbf" points="290.723,-0.5 290.723,-19.5 334.723,-19.5 334.723,-0.5 290.723,-0.5"/>
<text text-anchor="middle" x="312.723" y="-7.5" font-family="Helvetica,sans-Serif" font-size="10.00">cmath</text>
</g>
<!-- Node15&#45;&gt;Node16 -->
<g id="edge19" class="edge"><title>Node15&#45;&gt;Node16</title>
<path fill="none" stroke="midnightblue" d="M436.995,-168.386C446.894,-147.064 468.724,-91.023 443.723,-56 421.476,-24.8356 376.225,-15.0298 345.192,-12.0696"/>
<polygon fill="midnightblue" stroke="midnightblue" points="345.106,-8.55304 334.87,-11.2842 344.575,-15.5329 345.106,-8.55304"/>
</g>
<!-- Node17 -->
<g id="node17" class="node"><title>Node17</title>
<g id="a_node17"><a xlink:href="blitz_8hh.html" target="_top" xlink:title="blitz.hh">
<polygon fill="none" stroke="black" points="288.723,-56.5 288.723,-75.5 336.723,-75.5 336.723,-56.5 288.723,-56.5"/>
<text text-anchor="middle" x="312.723" y="-63.5" font-family="Helvetica,sans-Serif" font-size="10.00">blitz.hh</text>
</a>
</g>
</g>
<!-- Node15&#45;&gt;Node17 -->
<g id="edge21" class="edge"><title>Node15&#45;&gt;Node17</title>
<path fill="none" stroke="midnightblue" d="M432.914,-168.342C432.755,-154.764 430.529,-128.329 416.723,-112 399.019,-91.0618 369.766,-79.5841 346.787,-73.472"/>
<polygon fill="midnightblue" stroke="midnightblue" points="347.6,-70.0678 337.055,-71.0978 345.94,-76.8683 347.6,-70.0678"/>
</g>
<!-- Node19 -->
<g id="node19" class="node"><title>Node19</title>
<g id="a_node19"><a xlink:href="validators_8hh.html" target="_top" xlink:title="validators.hh">
<polygon fill="none" stroke="black" points="265.723,-112.5 265.723,-131.5 337.723,-131.5 337.723,-112.5 265.723,-112.5"/>
<text text-anchor="middle" x="301.723" y="-119.5" font-family="Helvetica,sans-Serif" font-size="10.00">validators.hh</text>
</a>
</g>
</g>
<!-- Node15&#45;&gt;Node19 -->
<g id="edge25" class="edge"><title>Node15&#45;&gt;Node19</title>
<path fill="none" stroke="midnightblue" d="M411.965,-168.444C390.406,-159.557 356.459,-145.563 331.929,-135.451"/>
<polygon fill="midnightblue" stroke="midnightblue" points="332.962,-132.092 322.383,-131.516 330.294,-138.563 332.962,-132.092"/>
</g>
<!-- Node17&#45;&gt;Node12 -->
<g id="edge23" class="edge"><title>Node17&#45;&gt;Node12</title>
<path fill="none" stroke="midnightblue" d="M294.818,-56.4435C276.469,-47.6751 247.717,-33.9355 226.629,-23.8579"/>
<polygon fill="midnightblue" stroke="midnightblue" points="228.076,-20.6703 217.544,-19.5164 225.058,-26.9862 228.076,-20.6703"/>
</g>
<!-- Node17&#45;&gt;Node16 -->
<g id="edge24" class="edge"><title>Node17&#45;&gt;Node16</title>
<path fill="none" stroke="midnightblue" d="M312.723,-56.083C312.723,-49.0059 312.723,-38.8611 312.723,-29.9865"/>
<polygon fill="midnightblue" stroke="midnightblue" points="316.223,-29.751 312.723,-19.7511 309.223,-29.7511 316.223,-29.751"/>
</g>
<!-- Node17&#45;&gt;Node18 -->
<g id="edge22" class="edge"><title>Node17&#45;&gt;Node18</title>
<path fill="none" stroke="midnightblue" d="M336.837,-60.3977C346.144,-58.7749 356.898,-57.086 366.723,-56 665.21,-23.0072 1027.85,-13.8179 1145.15,-11.6174"/>
<polygon fill="midnightblue" stroke="midnightblue" points="1145.47,-15.1122 1155.41,-11.4313 1145.35,-8.11336 1145.47,-15.1122"/>
</g>
<!-- Node19&#45;&gt;Node17 -->
<g id="edge27" class="edge"><title>Node19&#45;&gt;Node17</title>
<path fill="none" stroke="midnightblue" d="M303.539,-112.083C304.997,-104.927 307.093,-94.6353 308.915,-85.6911"/>
<polygon fill="midnightblue" stroke="midnightblue" points="312.374,-86.2485 310.94,-75.7511 305.515,-84.8512 312.374,-86.2485"/>
</g>
<!-- Node20 -->
<g id="node20" class="node"><title>Node20</title>
<polygon fill="none" stroke="#bfbfbf" points="376.223,-56.5 376.223,-75.5 435.223,-75.5 435.223,-56.5 376.223,-56.5"/>
<text text-anchor="middle" x="405.723" y="-63.5" font-family="Helvetica,sans-Serif" font-size="10.00">stdexcept</text>
</g>
<!-- Node19&#45;&gt;Node20 -->
<g id="edge26" class="edge"><title>Node19&#45;&gt;Node20</title>
<path fill="none" stroke="midnightblue" d="M318.432,-112.324C335.035,-103.703 360.725,-90.3643 379.943,-80.3855"/>
<polygon fill="midnightblue" stroke="midnightblue" points="381.793,-83.3689 389.055,-75.6545 378.567,-77.1565 381.793,-83.3689"/>
</g>
<!-- Node21&#45;&gt;Node3 -->
<g id="edge30" class="edge"><title>Node21&#45;&gt;Node3</title>
<path fill="none" stroke="midnightblue" d="M600.475,-168.083C608.193,-160.22 619.627,-148.569 628.939,-139.081"/>
<polygon fill="midnightblue" stroke="midnightblue" points="631.627,-141.34 636.134,-131.751 626.631,-136.436 631.627,-141.34"/>
</g>
<!-- Node21&#45;&gt;Node7 -->
<g id="edge31" class="edge"><title>Node21&#45;&gt;Node7</title>
<path fill="none" stroke="midnightblue" d="M558.448,-168.444C520.04,-158.567 457.107,-142.385 417.623,-132.231"/>
<polygon fill="midnightblue" stroke="midnightblue" points="418.432,-128.826 407.876,-129.725 416.689,-135.605 418.432,-128.826"/>
</g>
<!-- Node21&#45;&gt;Node8 -->
<g id="edge32" class="edge"><title>Node21&#45;&gt;Node8</title>
<path fill="none" stroke="midnightblue" d="M580.637,-168.324C570.237,-160.185 554.462,-147.839 542.001,-138.087"/>
<polygon fill="midnightblue" stroke="midnightblue" points="544.043,-135.241 534.011,-131.834 539.729,-140.753 544.043,-135.241"/>
</g>
<!-- Node22 -->
<g id="node22" class="node"><title>Node22</title>
<polygon fill="none" stroke="#bfbfbf" points="561.223,-112.5 561.223,-131.5 602.223,-131.5 602.223,-112.5 561.223,-112.5"/>
<text text-anchor="middle" x="581.723" y="-119.5" font-family="Helvetica,sans-Serif" font-size="10.00">bitset</text>
</g>
<!-- Node21&#45;&gt;Node22 -->
<g id="edge29" class="edge"><title>Node21&#45;&gt;Node22</title>
<path fill="none" stroke="midnightblue" d="M590.072,-168.083C588.746,-160.927 586.84,-150.635 585.184,-141.691"/>
<polygon fill="midnightblue" stroke="midnightblue" points="588.606,-140.947 583.343,-131.751 581.723,-142.221 588.606,-140.947"/>
</g>
<!-- Node23 -->
<g id="node23" class="node"><title>Node23</title>
<polygon fill="none" stroke="#bfbfbf" points="687.723,-112.5 687.723,-131.5 749.723,-131.5 749.723,-112.5 687.723,-112.5"/>
<text text-anchor="middle" x="718.723" y="-119.5" font-family="Helvetica,sans-Serif" font-size="10.00">type_traits</text>
</g>
<!-- Node21&#45;&gt;Node23 -->
<g id="edge33" class="edge"><title>Node21&#45;&gt;Node23</title>
<path fill="none" stroke="midnightblue" d="M611.846,-168.444C632.747,-159.557 665.658,-145.563 689.439,-135.451"/>
<polygon fill="midnightblue" stroke="midnightblue" points="690.86,-138.65 698.693,-131.516 688.121,-132.208 690.86,-138.65"/>
</g>
<!-- Node24&#45;&gt;Node3 -->
<g id="edge39" class="edge"><title>Node24&#45;&gt;Node3</title>
<path fill="none" stroke="midnightblue" d="M1000.09,-173.888C935.633,-168.324 801.953,-155.202 679.443,-131.891"/>
<polygon fill="midnightblue" stroke="midnightblue" points="679.998,-128.434 669.516,-129.975 678.672,-135.307 679.998,-128.434"/>
</g>
<!-- Node24&#45;&gt;Node4 -->
<g id="edge42" class="edge"><title>Node24&#45;&gt;Node4</title>
<path fill="none" stroke="midnightblue" d="M1069.62,-168.444C1105.75,-158.44 1165.23,-141.966 1201.8,-131.842"/>
<polygon fill="midnightblue" stroke="midnightblue" points="1202.76,-135.207 1211.46,-129.165 1200.89,-128.461 1202.76,-135.207"/>
</g>
<!-- Node24&#45;&gt;Node18 -->
<g id="edge36" class="edge"><title>Node24&#45;&gt;Node18</title>
<path fill="none" stroke="midnightblue" d="M1076.75,-168.484C1098.41,-161.848 1124.56,-150.551 1141.72,-132 1168.69,-102.851 1178.47,-55.4915 1181.92,-29.5105"/>
<polygon fill="midnightblue" stroke="midnightblue" points="1185.41,-29.8438 1183.07,-19.5092 1178.45,-29.0434 1185.41,-29.8438"/>
</g>
<!-- Node24&#45;&gt;Node20 -->
<g id="edge41" class="edge"><title>Node24&#45;&gt;Node20</title>
<path fill="none" stroke="midnightblue" d="M1067.27,-168.429C1100.47,-157.099 1148.06,-135.773 1125.72,-112 1102.3,-87.0653 594.204,-71.9096 445.974,-68.0073"/>
<polygon fill="midnightblue" stroke="midnightblue" points="445.623,-64.4971 435.535,-67.7355 445.44,-71.4947 445.623,-64.4971"/>
</g>
<!-- Node25 -->
<g id="node25" class="node"><title>Node25</title>
<polygon fill="none" stroke="#bfbfbf" points="768.223,-112.5 768.223,-131.5 813.223,-131.5 813.223,-112.5 768.223,-112.5"/>
<text text-anchor="middle" x="790.723" y="-119.5" font-family="Helvetica,sans-Serif" font-size="10.00">cstdlib</text>
</g>
<!-- Node24&#45;&gt;Node25 -->
<g id="edge35" class="edge"><title>Node24&#45;&gt;Node25</title>
<path fill="none" stroke="midnightblue" d="M999.914,-169.749C958.571,-161.841 891.013,-148.392 823.374,-132.021"/>
<polygon fill="midnightblue" stroke="midnightblue" points="823.942,-128.557 813.398,-129.585 822.282,-135.358 823.942,-128.557"/>
</g>
<!-- Node26 -->
<g id="node26" class="node"><title>Node26</title>
<polygon fill="none" stroke="#bfbfbf" points="831.723,-112.5 831.723,-131.5 877.723,-131.5 877.723,-112.5 831.723,-112.5"/>
<text text-anchor="middle" x="854.723" y="-119.5" font-family="Helvetica,sans-Serif" font-size="10.00">cstdint</text>
</g>
<!-- Node24&#45;&gt;Node26 -->
<g id="edge37" class="edge"><title>Node24&#45;&gt;Node26</title>
<path fill="none" stroke="midnightblue" d="M1009.57,-168.444C976.365,-158.699 922.243,-142.816 887.575,-132.641"/>
<polygon fill="midnightblue" stroke="midnightblue" points="888.497,-129.264 877.916,-129.807 886.526,-135.981 888.497,-129.264"/>
</g>
<!-- Node27 -->
<g id="node27" class="node"><title>Node27</title>
<polygon fill="none" stroke="#bfbfbf" points="895.723,-112.5 895.723,-131.5 941.723,-131.5 941.723,-112.5 895.723,-112.5"/>
<text text-anchor="middle" x="918.723" y="-119.5" font-family="Helvetica,sans-Serif" font-size="10.00">cstring</text>
</g>
<!-- Node24&#45;&gt;Node27 -->
<g id="edge38" class="edge"><title>Node24&#45;&gt;Node27</title>
<path fill="none" stroke="midnightblue" d="M1019.71,-168.444C1000.14,-159.636 969.415,-145.812 946.994,-135.722"/>
<polygon fill="midnightblue" stroke="midnightblue" points="948.204,-132.428 937.648,-131.516 945.331,-138.812 948.204,-132.428"/>
</g>
<!-- Node28 -->
<g id="node28" class="node"><title>Node28</title>
<polygon fill="none" stroke="#bfbfbf" points="959.723,-112.5 959.723,-131.5 999.723,-131.5 999.723,-112.5 959.723,-112.5"/>
<text text-anchor="middle" x="979.723" y="-119.5" font-family="Helvetica,sans-Serif" font-size="10.00">limits</text>
</g>
<!-- Node24&#45;&gt;Node28 -->
<g id="edge40" class="edge"><title>Node24&#45;&gt;Node28</title>
<path fill="none" stroke="midnightblue" d="M1029.24,-168.324C1020.52,-160.341 1007.38,-148.313 996.825,-138.653"/>
<polygon fill="midnightblue" stroke="midnightblue" points="999.114,-136.004 989.375,-131.834 994.388,-141.167 999.114,-136.004"/>
</g>
<!-- Node24&#45;&gt;Node29 -->
<g id="edge43" class="edge"><title>Node24&#45;&gt;Node29</title>
<path fill="none" stroke="midnightblue" d="M1077.48,-169.911C1122.42,-161.537 1198.67,-146.857 1263.72,-132 1263.82,-131.977 1263.92,-131.955 1264.02,-131.932"/>
<polygon fill="midnightblue" stroke="midnightblue" points="1264.62,-135.388 1273.53,-129.653 1262.99,-128.581 1264.62,-135.388"/>
</g>
<!-- Node24&#45;&gt;Node30 -->
<g id="edge44" class="edge"><title>Node24&#45;&gt;Node30</title>
<path fill="none" stroke="midnightblue" d="M1077.5,-172.5C1132.12,-165.849 1234.94,-152.184 1332.03,-131.926"/>
<polygon fill="midnightblue" stroke="midnightblue" points="1332.95,-135.309 1342.01,-129.816 1331.5,-128.46 1332.95,-135.309"/>
</g>
<!-- Node31 -->
<g id="node31" class="node"><title>Node31</title>
<polygon fill="none" stroke="#bfbfbf" points="1017.72,-112.5 1017.72,-131.5 1063.72,-131.5 1063.72,-112.5 1017.72,-112.5"/>
<text text-anchor="middle" x="1040.72" y="-119.5" font-family="Helvetica,sans-Serif" font-size="10.00">chrono</text>
</g>
<!-- Node24&#45;&gt;Node31 -->
<g id="edge45" class="edge"><title>Node24&#45;&gt;Node31</title>
<path fill="none" stroke="midnightblue" d="M1039.05,-168.083C1039.32,-161.006 1039.69,-150.861 1040.02,-141.986"/>
<polygon fill="midnightblue" stroke="midnightblue" points="1043.53,-141.874 1040.4,-131.751 1036.53,-141.615 1043.53,-141.874"/>
</g>
<!-- Node32 -->
<g id="node32" class="node"><title>Node32</title>
<polygon fill="none" stroke="#bfbfbf" points="1082.22,-112.5 1082.22,-131.5 1117.22,-131.5 1117.22,-112.5 1082.22,-112.5"/>
<text text-anchor="middle" x="1099.72" y="-119.5" font-family="Helvetica,sans-Serif" font-size="10.00">dc.h</text>
</g>
<!-- Node24&#45;&gt;Node32 -->
<g id="edge46" class="edge"><title>Node24&#45;&gt;Node32</title>
<path fill="none" stroke="midnightblue" d="M1048.52,-168.324C1057.54,-160.341 1071.13,-148.313 1082.04,-138.653"/>
<polygon fill="midnightblue" stroke="midnightblue" points="1084.58,-141.083 1089.74,-131.834 1079.94,-135.842 1084.58,-141.083"/>
</g>
<!-- Node33&#45;&gt;Node11 -->
<g id="edge51" class="edge"><title>Node33&#45;&gt;Node11</title>
<path fill="none" stroke="midnightblue" d="M194.914,-280.368C173.829,-261.814 123.942,-217.913 97.2655,-194.438"/>
<polygon fill="midnightblue" stroke="midnightblue" points="99.3052,-191.57 89.4858,-187.591 94.6808,-196.825 99.3052,-191.57"/>
</g>
<!-- Node34 -->
<g id="node34" class="node"><title>Node34</title>
<g id="a_node34"><a xlink:href="domain_8hh.html" target="_top" xlink:title="domain.hh">
<polygon fill="none" stroke="black" points="206.723,-168.5 206.723,-187.5 268.723,-187.5 268.723,-168.5 206.723,-168.5"/>
<text text-anchor="middle" x="237.723" y="-175.5" font-family="Helvetica,sans-Serif" font-size="10.00">domain.hh</text>
</a>
</g>
</g>
<!-- Node33&#45;&gt;Node34 -->
<g id="edge52" class="edge"><title>Node33&#45;&gt;Node34</title>
<path fill="none" stroke="midnightblue" d="M199.596,-280.268C192.799,-267.481 182.563,-243.109 190.723,-224 195.87,-211.947 206.004,-201.576 215.549,-193.839"/>
<polygon fill="midnightblue" stroke="midnightblue" points="217.763,-196.553 223.644,-187.741 213.551,-190.962 217.763,-196.553"/>
</g>
<!-- Node33&#45;&gt;Node36 -->
<g id="edge59" class="edge"><title>Node33&#45;&gt;Node36</title>
<path fill="none" stroke="midnightblue" d="M212.484,-280.083C219.26,-272.298 229.266,-260.801 237.478,-251.367"/>
<polygon fill="midnightblue" stroke="midnightblue" points="240.181,-253.592 244.106,-243.751 234.901,-248.996 240.181,-253.592"/>
</g>
<!-- Node34&#45;&gt;Node3 -->
<g id="edge55" class="edge"><title>Node34&#45;&gt;Node3</title>
<path fill="none" stroke="midnightblue" d="M268.896,-174.71C331.652,-169.785 477.799,-156.73 610.032,-131.876"/>
<polygon fill="midnightblue" stroke="midnightblue" points="610.765,-135.299 619.932,-129.987 609.453,-128.423 610.765,-135.299"/>
</g>
<!-- Node34&#45;&gt;Node7 -->
<g id="edge56" class="edge"><title>Node34&#45;&gt;Node7</title>
<path fill="none" stroke="midnightblue" d="M260.54,-168.444C284.555,-159.438 322.552,-145.189 349.592,-135.049"/>
<polygon fill="midnightblue" stroke="midnightblue" points="350.878,-138.305 359.012,-131.516 348.42,-131.751 350.878,-138.305"/>
</g>
<!-- Node34&#45;&gt;Node12 -->
<g id="edge57" class="edge"><title>Node34&#45;&gt;Node12</title>
<path fill="none" stroke="midnightblue" d="M234.766,-168.45C231.725,-159.455 226.986,-144.847 223.723,-132 214.617,-96.1452 206.873,-53.5872 202.798,-29.6959"/>
<polygon fill="midnightblue" stroke="midnightblue" points="206.207,-28.8622 201.103,-19.5781 199.304,-30.019 206.207,-28.8622"/>
</g>
<!-- Node34&#45;&gt;Node16 -->
<g id="edge53" class="edge"><title>Node34&#45;&gt;Node16</title>
<path fill="none" stroke="midnightblue" d="M239.607,-168.349C244.302,-147.864 257.747,-95.1747 279.723,-56 285.292,-46.072 292.701,-35.7776 299.088,-27.5446"/>
<polygon fill="midnightblue" stroke="midnightblue" points="301.978,-29.534 305.481,-19.5349 296.507,-25.1671 301.978,-29.534"/>
</g>
<!-- Node34&#45;&gt;Node19 -->
<g id="edge58" class="edge"><title>Node34&#45;&gt;Node19</title>
<path fill="none" stroke="midnightblue" d="M248.006,-168.324C257.559,-160.263 272.003,-148.077 283.507,-138.369"/>
<polygon fill="midnightblue" stroke="midnightblue" points="285.867,-140.958 291.253,-131.834 281.353,-135.608 285.867,-140.958"/>
</g>
<!-- Node35 -->
<g id="node35" class="node"><title>Node35</title>
<polygon fill="none" stroke="#bfbfbf" points="121.723,-112.5 121.723,-131.5 171.723,-131.5 171.723,-112.5 121.723,-112.5"/>
<text text-anchor="middle" x="146.723" y="-119.5" font-family="Helvetica,sans-Serif" font-size="10.00">iomanip</text>
</g>
<!-- Node34&#45;&gt;Node35 -->
<g id="edge54" class="edge"><title>Node34&#45;&gt;Node35</title>
<path fill="none" stroke="midnightblue" d="M223.102,-168.324C208.774,-159.822 186.71,-146.729 169.974,-136.797"/>
<polygon fill="midnightblue" stroke="midnightblue" points="171.693,-133.748 161.307,-131.655 168.121,-139.768 171.693,-133.748"/>
</g>
<!-- Node36&#45;&gt;Node11 -->
<g id="edge61" class="edge"><title>Node36&#45;&gt;Node11</title>
<path fill="none" stroke="midnightblue" d="M224.469,-224.444C195.282,-215.28 148.802,-200.688 116.414,-190.519"/>
<polygon fill="midnightblue" stroke="midnightblue" points="117.438,-187.173 106.849,-187.516 115.342,-193.851 117.438,-187.173"/>
</g>
<!-- Node36&#45;&gt;Node15 -->
<g id="edge60" class="edge"><title>Node36&#45;&gt;Node15</title>
<path fill="none" stroke="midnightblue" d="M280.403,-224.444C312.834,-214.768 365.553,-199.04 399.681,-188.858"/>
<polygon fill="midnightblue" stroke="midnightblue" points="401.051,-192.102 409.633,-185.889 399.05,-185.394 401.051,-192.102"/>
</g>
<!-- Node37&#45;&gt;Node7 -->
<g id="edge64" class="edge"><title>Node37&#45;&gt;Node7</title>
<path fill="none" stroke="midnightblue" d="M168.378,-172.353C203.477,-164.774 275.194,-149.087 345.468,-132.25"/>
<polygon fill="midnightblue" stroke="midnightblue" points="346.467,-135.61 355.371,-129.868 344.83,-128.804 346.467,-135.61"/>
</g>
<!-- Node37&#45;&gt;Node35 -->
<g id="edge66" class="edge"><title>Node37&#45;&gt;Node35</title>
<path fill="none" stroke="midnightblue" d="M146.723,-168.083C146.723,-161.006 146.723,-150.861 146.723,-141.986"/>
<polygon fill="midnightblue" stroke="midnightblue" points="150.223,-141.751 146.723,-131.751 143.223,-141.751 150.223,-141.751"/>
</g>
<!-- Node38 -->
<g id="node38" class="node"><title>Node38</title>
<polygon fill="none" stroke="#bfbfbf" points="74.2228,-112.5 74.2228,-131.5 103.223,-131.5 103.223,-112.5 74.2228,-112.5"/>
<text text-anchor="middle" x="88.7228" y="-119.5" font-family="Helvetica,sans-Serif" font-size="10.00">ios</text>
</g>
<!-- Node37&#45;&gt;Node38 -->
<g id="edge65" class="edge"><title>Node37&#45;&gt;Node38</title>
<path fill="none" stroke="midnightblue" d="M137.404,-168.324C128.83,-160.341 115.911,-148.313 105.535,-138.653"/>
<polygon fill="midnightblue" stroke="midnightblue" points="107.915,-136.086 98.2111,-131.834 103.145,-141.21 107.915,-136.086"/>
</g>
<!-- Node39 -->
<g id="node39" class="node"><title>Node39</title>
<polygon fill="none" stroke="#bfbfbf" points="12.7228,-112.5 12.7228,-131.5 56.7228,-131.5 56.7228,-112.5 12.7228,-112.5"/>
<text text-anchor="middle" x="34.7228" y="-119.5" font-family="Helvetica,sans-Serif" font-size="10.00">mutex</text>
</g>
<!-- Node37&#45;&gt;Node39 -->
<g id="edge67" class="edge"><title>Node37&#45;&gt;Node39</title>
<path fill="none" stroke="midnightblue" d="M128.728,-168.324C110.685,-159.625 82.6759,-146.12 61.9201,-136.113"/>
<polygon fill="midnightblue" stroke="midnightblue" points="63.2007,-132.845 52.6729,-131.655 60.1605,-139.15 63.2007,-132.845"/>
</g>
<!-- Node40&#45;&gt;Node23 -->
<g id="edge71" class="edge"><title>Node40&#45;&gt;Node23</title>
<path fill="none" stroke="midnightblue" d="M1003.93,-342.146C989.54,-308.885 937.448,-192.079 905.723,-168 902.771,-165.76 813.957,-144.98 759.805,-132.455"/>
<polygon fill="midnightblue" stroke="midnightblue" points="760.33,-128.984 749.799,-130.144 758.755,-135.805 760.33,-128.984"/>
</g>
<!-- Node41 -->
<g id="node41" class="node"><title>Node41</title>
<polygon fill="none" stroke="#bfbfbf" points="999.723,-280.5 999.723,-299.5 1047.72,-299.5 1047.72,-280.5 999.723,-280.5"/>
<text text-anchor="middle" x="1023.72" y="-287.5" font-family="Helvetica,sans-Serif" font-size="10.00">GL/gl.h</text>
</g>
<!-- Node40&#45;&gt;Node41 -->
<g id="edge69" class="edge"><title>Node40&#45;&gt;Node41</title>
<path fill="none" stroke="midnightblue" d="M1010.02,-342.403C1012.3,-333.849 1015.87,-320.45 1018.8,-309.476"/>
<polygon fill="midnightblue" stroke="midnightblue" points="1022.24,-310.145 1021.43,-299.581 1015.48,-308.341 1022.24,-310.145"/>
</g>
<!-- Node42 -->
<g id="node42" class="node"><title>Node42</title>
<polygon fill="none" stroke="#bfbfbf" points="1066.22,-280.5 1066.22,-299.5 1119.22,-299.5 1119.22,-280.5 1066.22,-280.5"/>
<text text-anchor="middle" x="1092.72" y="-287.5" font-family="Helvetica,sans-Serif" font-size="10.00">GL/glx.h</text>
</g>
<!-- Node40&#45;&gt;Node42 -->
<g id="edge70" class="edge"><title>Node40&#45;&gt;Node42</title>
<path fill="none" stroke="midnightblue" d="M1019.9,-342.403C1033.53,-332.78 1055.86,-317.024 1072.2,-305.489"/>
<polygon fill="midnightblue" stroke="midnightblue" points="1074.42,-308.207 1080.57,-299.581 1070.38,-302.488 1074.42,-308.207"/>
</g>
<!-- Node43&#45;&gt;Node15 -->
<g id="edge74" class="edge"><title>Node43&#45;&gt;Node15</title>
<path fill="none" stroke="midnightblue" d="M373.042,-336.925C384.752,-305.939 412.753,-231.844 425.806,-197.304"/>
<polygon fill="midnightblue" stroke="midnightblue" points="429.218,-198.176 429.479,-187.585 422.669,-195.702 429.218,-198.176"/>
</g>
<!-- Node43&#45;&gt;Node33 -->
<g id="edge73" class="edge"><title>Node43&#45;&gt;Node33</title>
<path fill="none" stroke="midnightblue" d="M329.507,-336.933C301.638,-326.674 264.258,-312.915 237.695,-303.137"/>
<polygon fill="midnightblue" stroke="midnightblue" points="238.68,-299.77 228.086,-299.6 236.262,-306.339 238.68,-299.77"/>
</g>
</g>
</svg>
