<?xml version="1.0" encoding="UTF-8" standalone="no"?>
<!DOCTYPE svg PUBLIC "-//W3C//DTD SVG 1.1//EN"
 "http://www.w3.org/Graphics/SVG/1.1/DTD/svg11.dtd">
<!-- Generated by graphviz version 2.36.0 (20140111.2315)
 -->
<!-- Title: /home/travis/build/igankevich/arma/src/generator/basic_model.cc Pages: 1 -->
<svg width="1142pt" height="330pt"
 viewBox="0.00 0.00 1141.54 330.00" xmlns="http://www.w3.org/2000/svg" xmlns:xlink="http://www.w3.org/1999/xlink">
<g id="graph0" class="graph" transform="scale(1 1) rotate(0) translate(4 326)">
<title>/home/travis/build/igankevich/arma/src/generator/basic_model.cc</title>
<!-- Node1 -->
<g id="node1" class="node"><title>Node1</title>
<polygon fill="#bfbfbf" stroke="black" points="208.041,-280.5 208.041,-321.5 339.041,-321.5 339.041,-280.5 208.041,-280.5"/>
<text text-anchor="start" x="216.041" y="-309.5" font-family="Helvetica,sans-Serif" font-size="10.00">/home/travis/build</text>
<text text-anchor="start" x="216.041" y="-298.5" font-family="Helvetica,sans-Serif" font-size="10.00">/igankevich/arma/src</text>
<text text-anchor="middle" x="273.541" y="-287.5" font-family="Helvetica,sans-Serif" font-size="10.00">/generator/basic_model.cc</text>
</g>
<!-- Node2 -->
<g id="node2" class="node"><title>Node2</title>
<g id="a_node2"><a xlink:href="basic__model_8hh.html" target="_top" xlink:title="basic_model.hh">
<polygon fill="none" stroke="black" points="187.041,-224.5 187.041,-243.5 272.041,-243.5 272.041,-224.5 187.041,-224.5"/>
<text text-anchor="middle" x="229.541" y="-231.5" font-family="Helvetica,sans-Serif" font-size="10.00">basic_model.hh</text>
</a>
</g>
</g>
<!-- Node1&#45;&gt;Node2 -->
<g id="edge1" class="edge"><title>Node1&#45;&gt;Node2</title>
<path fill="none" stroke="midnightblue" d="M260.34,-280.498C254.242,-271.49 247.065,-260.888 241.174,-252.185"/>
<polygon fill="midnightblue" stroke="midnightblue" points="243.902,-249.972 235.398,-243.652 238.106,-253.896 243.902,-249.972"/>
</g>
<!-- Node27 -->
<g id="node27" class="node"><title>Node27</title>
<polygon fill="none" stroke="#bfbfbf" points="290.541,-224.5 290.541,-243.5 346.541,-243.5 346.541,-224.5 290.541,-224.5"/>
<text text-anchor="middle" x="318.541" y="-231.5" font-family="Helvetica,sans-Serif" font-size="10.00">config.hh</text>
</g>
<!-- Node1&#45;&gt;Node27 -->
<g id="edge34" class="edge"><title>Node1&#45;&gt;Node27</title>
<path fill="none" stroke="midnightblue" d="M287.043,-280.498C293.345,-271.395 300.775,-260.662 306.836,-251.908"/>
<polygon fill="midnightblue" stroke="midnightblue" points="309.737,-253.867 312.551,-243.652 303.981,-249.882 309.737,-253.867"/>
</g>
<!-- Node3 -->
<g id="node3" class="node"><title>Node3</title>
<polygon fill="none" stroke="#bfbfbf" points="174.041,-112.5 174.041,-131.5 223.041,-131.5 223.041,-112.5 174.041,-112.5"/>
<text text-anchor="middle" x="198.541" y="-119.5" font-family="Helvetica,sans-Serif" font-size="10.00">istream</text>
</g>
<!-- Node2&#45;&gt;Node3 -->
<g id="edge2" class="edge"><title>Node2&#45;&gt;Node3</title>
<path fill="none" stroke="midnightblue" d="M226.177,-224.469C222.714,-215.489 217.308,-200.894 213.541,-188 209.071,-172.695 205.07,-155.053 202.327,-142.014"/>
<polygon fill="midnightblue" stroke="midnightblue" points="205.694,-141.01 200.26,-131.915 198.837,-142.413 205.694,-141.01"/>
</g>
<!-- Node4 -->
<g id="node4" class="node"><title>Node4</title>
<polygon fill="none" stroke="#bfbfbf" points="103.541,-112.5 103.541,-131.5 155.541,-131.5 155.541,-112.5 103.541,-112.5"/>
<text text-anchor="middle" x="129.541" y="-119.5" font-family="Helvetica,sans-Serif" font-size="10.00">ostream</text>
</g>
<!-- Node2&#45;&gt;Node4 -->
<g id="edge3" class="edge"><title>Node2&#45;&gt;Node4</title>
<path fill="none" stroke="midnightblue" d="M221.694,-224.368C204.972,-205.974 165.606,-162.671 144.134,-139.052"/>
<polygon fill="midnightblue" stroke="midnightblue" points="146.668,-136.636 137.352,-131.591 141.489,-141.345 146.668,-136.636"/>
</g>
<!-- Node5 -->
<g id="node5" class="node"><title>Node5</title>
<g id="a_node5"><a xlink:href="grid_8hh.html" target="_top" xlink:title="grid.hh">
<polygon fill="none" stroke="black" points="48.5412,-168.5 48.5412,-187.5 94.5412,-187.5 94.5412,-168.5 48.5412,-168.5"/>
<text text-anchor="middle" x="71.5412" y="-175.5" font-family="Helvetica,sans-Serif" font-size="10.00">grid.hh</text>
</a>
</g>
</g>
<!-- Node2&#45;&gt;Node5 -->
<g id="edge4" class="edge"><title>Node2&#45;&gt;Node5</title>
<path fill="none" stroke="midnightblue" d="M204.506,-224.444C177.378,-215.172 133.988,-200.343 104.199,-190.161"/>
<polygon fill="midnightblue" stroke="midnightblue" points="105.255,-186.824 94.6605,-186.902 102.991,-193.448 105.255,-186.824"/>
</g>
<!-- Node12 -->
<g id="node12" class="node"><title>Node12</title>
<g id="a_node12"><a xlink:href="output__flags_8hh.html" target="_top" xlink:title="output_flags.hh">
<polygon fill="none" stroke="black" points="223.041,-168.5 223.041,-187.5 306.041,-187.5 306.041,-168.5 223.041,-168.5"/>
<text text-anchor="middle" x="264.541" y="-175.5" font-family="Helvetica,sans-Serif" font-size="10.00">output_flags.hh</text>
</a>
</g>
</g>
<!-- Node2&#45;&gt;Node12 -->
<g id="edge13" class="edge"><title>Node2&#45;&gt;Node12</title>
<path fill="none" stroke="midnightblue" d="M235.321,-224.083C240.214,-216.534 247.369,-205.495 253.374,-196.23"/>
<polygon fill="midnightblue" stroke="midnightblue" points="256.367,-198.046 258.869,-187.751 250.493,-194.239 256.367,-198.046"/>
</g>
<!-- Node16 -->
<g id="node16" class="node"><title>Node16</title>
<g id="a_node16"><a xlink:href="parallel__mt_8hh.html" target="_top" xlink:title="parallel_mt.hh">
<polygon fill="none" stroke="black" points="673.041,-168.5 673.041,-187.5 750.041,-187.5 750.041,-168.5 673.041,-168.5"/>
<text text-anchor="middle" x="711.541" y="-175.5" font-family="Helvetica,sans-Serif" font-size="10.00">parallel_mt.hh</text>
</a>
</g>
</g>
<!-- Node2&#45;&gt;Node16 -->
<g id="edge19" class="edge"><title>Node2&#45;&gt;Node16</title>
<path fill="none" stroke="midnightblue" d="M272.072,-225.4C275.272,-224.901 278.456,-224.428 281.541,-224 419.224,-204.903 582.723,-189.887 662.642,-183.041"/>
<polygon fill="midnightblue" stroke="midnightblue" points="663.224,-186.504 672.891,-182.169 662.63,-179.53 663.224,-186.504"/>
</g>
<!-- Node26 -->
<g id="node26" class="node"><title>Node26</title>
<g id="a_node26"><a xlink:href="types_8hh.html" target="_top" xlink:title="types.hh">
<polygon fill="none" stroke="black" points="1079.54,-56.5 1079.54,-75.5 1133.54,-75.5 1133.54,-56.5 1079.54,-56.5"/>
<text text-anchor="middle" x="1106.54" y="-63.5" font-family="Helvetica,sans-Serif" font-size="10.00">types.hh</text>
</a>
</g>
</g>
<!-- Node2&#45;&gt;Node26 -->
<g id="edge32" class="edge"><title>Node2&#45;&gt;Node26</title>
<path fill="none" stroke="midnightblue" d="M272.059,-225.299C275.262,-224.824 278.45,-224.383 281.541,-224 612.195,-183.004 724.304,-274.367 1025.54,-132 1051.36,-119.797 1076.24,-97.8121 1091.46,-82.8208"/>
<polygon fill="midnightblue" stroke="midnightblue" points="1093.95,-85.2804 1098.49,-75.7077 1088.97,-80.3595 1093.95,-85.2804"/>
</g>
<!-- Node5&#45;&gt;Node3 -->
<g id="edge5" class="edge"><title>Node5&#45;&gt;Node3</title>
<path fill="none" stroke="midnightblue" d="M91.6647,-168.444C112.566,-159.557 145.476,-145.563 169.257,-135.451"/>
<polygon fill="midnightblue" stroke="midnightblue" points="170.679,-138.65 178.512,-131.516 167.94,-132.208 170.679,-138.65"/>
</g>
<!-- Node6 -->
<g id="node6" class="node"><title>Node6</title>
<g id="a_node6"><a xlink:href="blitz_8hh.html" target="_top" xlink:title="blitz.hh">
<polygon fill="none" stroke="black" points="139.541,-56.5 139.541,-75.5 187.541,-75.5 187.541,-56.5 139.541,-56.5"/>
<text text-anchor="middle" x="163.541" y="-63.5" font-family="Helvetica,sans-Serif" font-size="10.00">blitz.hh</text>
</a>
</g>
</g>
<!-- Node5&#45;&gt;Node6 -->
<g id="edge6" class="edge"><title>Node5&#45;&gt;Node6</title>
<path fill="none" stroke="midnightblue" d="M50.5252,-168.39C25.0247,-156.689 -12.566,-134.621 4.54122,-112 19.5367,-92.1715 87.103,-78.5659 129.186,-71.8455"/>
<polygon fill="midnightblue" stroke="midnightblue" points="129.94,-75.2706 139.289,-70.2856 128.872,-68.3526 129.94,-75.2706"/>
</g>
<!-- Node10 -->
<g id="node10" class="node"><title>Node10</title>
<g id="a_node10"><a xlink:href="validators_8hh.html" target="_top" xlink:title="validators.hh">
<polygon fill="none" stroke="black" points="13.5412,-112.5 13.5412,-131.5 85.5412,-131.5 85.5412,-112.5 13.5412,-112.5"/>
<text text-anchor="middle" x="49.5412" y="-119.5" font-family="Helvetica,sans-Serif" font-size="10.00">validators.hh</text>
</a>
</g>
</g>
<!-- Node5&#45;&gt;Node10 -->
<g id="edge10" class="edge"><title>Node5&#45;&gt;Node10</title>
<path fill="none" stroke="midnightblue" d="M67.9084,-168.083C64.929,-160.77 60.6151,-150.181 56.9167,-141.103"/>
<polygon fill="midnightblue" stroke="midnightblue" points="60.1208,-139.691 53.1065,-131.751 53.6382,-142.333 60.1208,-139.691"/>
</g>
<!-- Node7 -->
<g id="node7" class="node"><title>Node7</title>
<polygon fill="none" stroke="#bfbfbf" points="657.541,-0.5 657.541,-19.5 713.541,-19.5 713.541,-0.5 657.541,-0.5"/>
<text text-anchor="middle" x="685.541" y="-7.5" font-family="Helvetica,sans-Serif" font-size="10.00">algorithm</text>
</g>
<!-- Node6&#45;&gt;Node7 -->
<g id="edge7" class="edge"><title>Node6&#45;&gt;Node7</title>
<path fill="none" stroke="midnightblue" d="M187.671,-62.5038C270.75,-53.9094 545.415,-25.4958 647.176,-14.9689"/>
<polygon fill="midnightblue" stroke="midnightblue" points="647.727,-18.4306 657.314,-13.9201 647.006,-11.4678 647.727,-18.4306"/>
</g>
<!-- Node8 -->
<g id="node8" class="node"><title>Node8</title>
<polygon fill="none" stroke="#bfbfbf" points="958.541,-0.5 958.541,-19.5 1026.54,-19.5 1026.54,-0.5 958.541,-0.5"/>
<text text-anchor="middle" x="992.541" y="-7.5" font-family="Helvetica,sans-Serif" font-size="10.00">blitz/array.h</text>
</g>
<!-- Node6&#45;&gt;Node8 -->
<g id="edge8" class="edge"><title>Node6&#45;&gt;Node8</title>
<path fill="none" stroke="midnightblue" d="M187.903,-63.4131C303.343,-55.8935 796.021,-23.8011 947.83,-13.9124"/>
<polygon fill="midnightblue" stroke="midnightblue" points="948.41,-17.3821 958.162,-13.2394 947.955,-10.3969 948.41,-17.3821"/>
</g>
<!-- Node9 -->
<g id="node9" class="node"><title>Node9</title>
<polygon fill="none" stroke="#bfbfbf" points="141.541,-0.5 141.541,-19.5 185.541,-19.5 185.541,-0.5 141.541,-0.5"/>
<text text-anchor="middle" x="163.541" y="-7.5" font-family="Helvetica,sans-Serif" font-size="10.00">cmath</text>
</g>
<!-- Node6&#45;&gt;Node9 -->
<g id="edge9" class="edge"><title>Node6&#45;&gt;Node9</title>
<path fill="none" stroke="midnightblue" d="M163.541,-56.083C163.541,-49.0059 163.541,-38.8611 163.541,-29.9865"/>
<polygon fill="midnightblue" stroke="midnightblue" points="167.041,-29.751 163.541,-19.7511 160.041,-29.7511 167.041,-29.751"/>
</g>
<!-- Node10&#45;&gt;Node6 -->
<g id="edge12" class="edge"><title>Node10&#45;&gt;Node6</title>
<path fill="none" stroke="midnightblue" d="M67.6049,-112.444C86.116,-103.675 115.122,-89.9355 136.397,-79.8579"/>
<polygon fill="midnightblue" stroke="midnightblue" points="138.023,-82.9604 145.562,-75.5164 135.026,-76.6343 138.023,-82.9604"/>
</g>
<!-- Node11 -->
<g id="node11" class="node"><title>Node11</title>
<polygon fill="none" stroke="#bfbfbf" points="528.041,-56.5 528.041,-75.5 587.041,-75.5 587.041,-56.5 528.041,-56.5"/>
<text text-anchor="middle" x="557.541" y="-63.5" font-family="Helvetica,sans-Serif" font-size="10.00">stdexcept</text>
</g>
<!-- Node10&#45;&gt;Node11 -->
<g id="edge11" class="edge"><title>Node10&#45;&gt;Node11</title>
<path fill="none" stroke="midnightblue" d="M85.8358,-113.416C88.7749,-112.901 91.704,-112.421 94.5412,-112 250.319,-88.9117 437.411,-74.8877 517.733,-69.515"/>
<polygon fill="midnightblue" stroke="midnightblue" points="518.147,-72.9954 527.894,-68.8436 517.685,-66.0106 518.147,-72.9954"/>
</g>
<!-- Node12&#45;&gt;Node3 -->
<g id="edge15" class="edge"><title>Node12&#45;&gt;Node3</title>
<path fill="none" stroke="midnightblue" d="M253.937,-168.324C244.085,-160.263 229.19,-148.077 217.326,-138.369"/>
<polygon fill="midnightblue" stroke="midnightblue" points="219.294,-135.457 209.338,-131.834 214.861,-140.875 219.294,-135.457"/>
</g>
<!-- Node12&#45;&gt;Node4 -->
<g id="edge16" class="edge"><title>Node12&#45;&gt;Node4</title>
<path fill="none" stroke="midnightblue" d="M243.15,-168.444C220.834,-159.517 185.638,-145.439 160.333,-135.317"/>
<polygon fill="midnightblue" stroke="midnightblue" points="161.417,-131.981 150.832,-131.516 158.817,-138.48 161.417,-131.981"/>
</g>
<!-- Node13 -->
<g id="node13" class="node"><title>Node13</title>
<polygon fill="none" stroke="#bfbfbf" points="241.041,-112.5 241.041,-131.5 282.041,-131.5 282.041,-112.5 241.041,-112.5"/>
<text text-anchor="middle" x="261.541" y="-119.5" font-family="Helvetica,sans-Serif" font-size="10.00">bitset</text>
</g>
<!-- Node12&#45;&gt;Node13 -->
<g id="edge14" class="edge"><title>Node12&#45;&gt;Node13</title>
<path fill="none" stroke="midnightblue" d="M264.046,-168.083C263.653,-161.006 263.089,-150.861 262.596,-141.986"/>
<polygon fill="midnightblue" stroke="midnightblue" points="266.077,-141.542 262.027,-131.751 259.088,-141.93 266.077,-141.542"/>
</g>
<!-- Node14 -->
<g id="node14" class="node"><title>Node14</title>
<polygon fill="none" stroke="#bfbfbf" points="300.041,-112.5 300.041,-131.5 341.041,-131.5 341.041,-112.5 300.041,-112.5"/>
<text text-anchor="middle" x="320.541" y="-119.5" font-family="Helvetica,sans-Serif" font-size="10.00">string</text>
</g>
<!-- Node12&#45;&gt;Node14 -->
<g id="edge17" class="edge"><title>Node12&#45;&gt;Node14</title>
<path fill="none" stroke="midnightblue" d="M273.539,-168.324C281.736,-160.42 294.047,-148.548 304.013,-138.938"/>
<polygon fill="midnightblue" stroke="midnightblue" points="306.611,-141.295 311.38,-131.834 301.752,-136.256 306.611,-141.295"/>
</g>
<!-- Node15 -->
<g id="node15" class="node"><title>Node15</title>
<polygon fill="none" stroke="#bfbfbf" points="359.541,-112.5 359.541,-131.5 421.541,-131.5 421.541,-112.5 359.541,-112.5"/>
<text text-anchor="middle" x="390.541" y="-119.5" font-family="Helvetica,sans-Serif" font-size="10.00">type_traits</text>
</g>
<!-- Node12&#45;&gt;Node15 -->
<g id="edge18" class="edge"><title>Node12&#45;&gt;Node15</title>
<path fill="none" stroke="midnightblue" d="M284.506,-168.444C305.15,-159.596 337.604,-145.687 361.173,-135.586"/>
<polygon fill="midnightblue" stroke="midnightblue" points="362.857,-138.673 370.67,-131.516 360.099,-132.239 362.857,-138.673"/>
</g>
<!-- Node16&#45;&gt;Node3 -->
<g id="edge24" class="edge"><title>Node16&#45;&gt;Node3</title>
<path fill="none" stroke="midnightblue" d="M672.969,-175.644C592.662,-172.338 401.629,-161.952 233.332,-132.056"/>
<polygon fill="midnightblue" stroke="midnightblue" points="233.765,-128.578 223.302,-130.246 232.522,-135.466 233.765,-128.578"/>
</g>
<!-- Node16&#45;&gt;Node7 -->
<g id="edge21" class="edge"><title>Node16&#45;&gt;Node7</title>
<path fill="none" stroke="midnightblue" d="M750.251,-177.125C823.166,-176.447 976.526,-170.375 1009.54,-132 1015.34,-125.262 1014.81,-119.16 1009.54,-112 975.122,-65.2179 801.561,-30.5904 723.581,-17.1419"/>
<polygon fill="midnightblue" stroke="midnightblue" points="724.121,-13.6837 713.676,-15.4594 722.949,-20.5848 724.121,-13.6837"/>
</g>
<!-- Node16&#45;&gt;Node11 -->
<g id="edge26" class="edge"><title>Node16&#45;&gt;Node11</title>
<path fill="none" stroke="midnightblue" d="M750.084,-176.753C819.844,-175.398 962.692,-168.162 993.541,-132 999.31,-125.237 999.495,-118.6 993.541,-112 967.265,-82.8723 700.443,-71.4723 597.633,-68.1393"/>
<polygon fill="midnightblue" stroke="midnightblue" points="597.457,-64.6321 587.352,-67.8153 597.237,-71.6287 597.457,-64.6321"/>
</g>
<!-- Node17 -->
<g id="node17" class="node"><title>Node17</title>
<polygon fill="none" stroke="#bfbfbf" points="440.041,-112.5 440.041,-131.5 485.041,-131.5 485.041,-112.5 440.041,-112.5"/>
<text text-anchor="middle" x="462.541" y="-119.5" font-family="Helvetica,sans-Serif" font-size="10.00">cstdlib</text>
</g>
<!-- Node16&#45;&gt;Node17 -->
<g id="edge20" class="edge"><title>Node16&#45;&gt;Node17</title>
<path fill="none" stroke="midnightblue" d="M672.945,-169.839C631.452,-161.954 563.352,-148.479 495.259,-132.035"/>
<polygon fill="midnightblue" stroke="midnightblue" points="495.76,-128.555 485.215,-129.588 494.102,-135.356 495.76,-128.555"/>
</g>
<!-- Node18 -->
<g id="node18" class="node"><title>Node18</title>
<polygon fill="none" stroke="#bfbfbf" points="503.541,-112.5 503.541,-131.5 549.541,-131.5 549.541,-112.5 503.541,-112.5"/>
<text text-anchor="middle" x="526.541" y="-119.5" font-family="Helvetica,sans-Serif" font-size="10.00">cstdint</text>
</g>
<!-- Node16&#45;&gt;Node18 -->
<g id="edge22" class="edge"><title>Node16&#45;&gt;Node18</title>
<path fill="none" stroke="midnightblue" d="M682.227,-168.444C648.752,-158.672 594.126,-142.727 559.282,-132.557"/>
<polygon fill="midnightblue" stroke="midnightblue" points="560.161,-129.167 549.581,-129.725 558.199,-135.887 560.161,-129.167"/>
</g>
<!-- Node19 -->
<g id="node19" class="node"><title>Node19</title>
<polygon fill="none" stroke="#bfbfbf" points="567.541,-112.5 567.541,-131.5 613.541,-131.5 613.541,-112.5 567.541,-112.5"/>
<text text-anchor="middle" x="590.541" y="-119.5" font-family="Helvetica,sans-Serif" font-size="10.00">cstring</text>
</g>
<!-- Node16&#45;&gt;Node19 -->
<g id="edge23" class="edge"><title>Node16&#45;&gt;Node19</title>
<path fill="none" stroke="midnightblue" d="M692.368,-168.444C672.632,-159.636 641.656,-145.812 619.048,-135.722"/>
<polygon fill="midnightblue" stroke="midnightblue" points="620.183,-132.396 609.624,-131.516 617.33,-138.788 620.183,-132.396"/>
</g>
<!-- Node20 -->
<g id="node20" class="node"><title>Node20</title>
<polygon fill="none" stroke="#bfbfbf" points="631.541,-112.5 631.541,-131.5 671.541,-131.5 671.541,-112.5 631.541,-112.5"/>
<text text-anchor="middle" x="651.541" y="-119.5" font-family="Helvetica,sans-Serif" font-size="10.00">limits</text>
</g>
<!-- Node16&#45;&gt;Node20 -->
<g id="edge25" class="edge"><title>Node16&#45;&gt;Node20</title>
<path fill="none" stroke="midnightblue" d="M701.901,-168.324C693.032,-160.341 679.667,-148.313 668.933,-138.653"/>
<polygon fill="midnightblue" stroke="midnightblue" points="671.131,-135.922 661.357,-131.834 666.448,-141.125 671.131,-135.922"/>
</g>
<!-- Node21 -->
<g id="node21" class="node"><title>Node21</title>
<polygon fill="none" stroke="#bfbfbf" points="689.541,-112.5 689.541,-131.5 733.541,-131.5 733.541,-112.5 689.541,-112.5"/>
<text text-anchor="middle" x="711.541" y="-119.5" font-family="Helvetica,sans-Serif" font-size="10.00">vector</text>
</g>
<!-- Node16&#45;&gt;Node21 -->
<g id="edge27" class="edge"><title>Node16&#45;&gt;Node21</title>
<path fill="none" stroke="midnightblue" d="M711.541,-168.083C711.541,-161.006 711.541,-150.861 711.541,-141.986"/>
<polygon fill="midnightblue" stroke="midnightblue" points="715.041,-141.751 711.541,-131.751 708.041,-141.751 715.041,-141.751"/>
</g>
<!-- Node22 -->
<g id="node22" class="node"><title>Node22</title>
<polygon fill="none" stroke="#bfbfbf" points="751.541,-112.5 751.541,-131.5 801.541,-131.5 801.541,-112.5 751.541,-112.5"/>
<text text-anchor="middle" x="776.541" y="-119.5" font-family="Helvetica,sans-Serif" font-size="10.00">fstream</text>
</g>
<!-- Node16&#45;&gt;Node22 -->
<g id="edge28" class="edge"><title>Node16&#45;&gt;Node22</title>
<path fill="none" stroke="midnightblue" d="M721.985,-168.324C731.687,-160.263 746.357,-148.077 758.041,-138.369"/>
<polygon fill="midnightblue" stroke="midnightblue" points="760.452,-140.916 765.908,-131.834 755.979,-135.532 760.452,-140.916"/>
</g>
<!-- Node23 -->
<g id="node23" class="node"><title>Node23</title>
<polygon fill="none" stroke="#bfbfbf" points="820.041,-112.5 820.041,-131.5 867.041,-131.5 867.041,-112.5 820.041,-112.5"/>
<text text-anchor="middle" x="843.541" y="-119.5" font-family="Helvetica,sans-Serif" font-size="10.00">iterator</text>
</g>
<!-- Node16&#45;&gt;Node23 -->
<g id="edge29" class="edge"><title>Node16&#45;&gt;Node23</title>
<path fill="none" stroke="midnightblue" d="M732.457,-168.444C754.277,-159.517 788.691,-145.439 813.433,-135.317"/>
<polygon fill="midnightblue" stroke="midnightblue" points="814.793,-138.542 822.723,-131.516 812.143,-132.063 814.793,-138.542"/>
</g>
<!-- Node24 -->
<g id="node24" class="node"><title>Node24</title>
<polygon fill="none" stroke="#bfbfbf" points="885.541,-112.5 885.541,-131.5 931.541,-131.5 931.541,-112.5 885.541,-112.5"/>
<text text-anchor="middle" x="908.541" y="-119.5" font-family="Helvetica,sans-Serif" font-size="10.00">chrono</text>
</g>
<!-- Node16&#45;&gt;Node24 -->
<g id="edge30" class="edge"><title>Node16&#45;&gt;Node24</title>
<path fill="none" stroke="midnightblue" d="M742.756,-168.444C779.053,-158.494 838.697,-142.145 875.682,-132.007"/>
<polygon fill="midnightblue" stroke="midnightblue" points="876.755,-135.342 885.474,-129.323 874.905,-128.591 876.755,-135.342"/>
</g>
<!-- Node25 -->
<g id="node25" class="node"><title>Node25</title>
<polygon fill="none" stroke="#bfbfbf" points="950.041,-112.5 950.041,-131.5 985.041,-131.5 985.041,-112.5 950.041,-112.5"/>
<text text-anchor="middle" x="967.541" y="-119.5" font-family="Helvetica,sans-Serif" font-size="10.00">dc.h</text>
</g>
<!-- Node16&#45;&gt;Node25 -->
<g id="edge31" class="edge"><title>Node16&#45;&gt;Node25</title>
<path fill="none" stroke="midnightblue" d="M750.376,-170.925C794.235,-163.722 867.856,-150.602 940.188,-131.8"/>
<polygon fill="midnightblue" stroke="midnightblue" points="941.143,-135.167 949.92,-129.233 939.358,-128.399 941.143,-135.167"/>
</g>
<!-- Node26&#45;&gt;Node8 -->
<g id="edge33" class="edge"><title>Node26&#45;&gt;Node8</title>
<path fill="none" stroke="midnightblue" d="M1088.48,-56.4435C1069.97,-47.6751 1040.96,-33.9355 1019.69,-23.8579"/>
<polygon fill="midnightblue" stroke="midnightblue" points="1021.06,-20.6343 1010.52,-19.5164 1018.06,-26.9604 1021.06,-20.6343"/>
</g>
</g>
</svg>
