<?xml version="1.0" encoding="UTF-8" standalone="no"?>
<!DOCTYPE svg PUBLIC "-//W3C//DTD SVG 1.1//EN"
 "http://www.w3.org/Graphics/SVG/1.1/DTD/svg11.dtd">
<!-- Generated by graphviz version 2.36.0 (20140111.2315)
 -->
<!-- Title: /home/travis/build/igankevich/arma/src/generator/basic_model.hh Pages: 1 -->
<svg width="998pt" height="488pt"
 viewBox="0.00 0.00 998.00 488.00" xmlns="http://www.w3.org/2000/svg" xmlns:xlink="http://www.w3.org/1999/xlink">
<g id="graph0" class="graph" transform="scale(1 1) rotate(0) translate(4 484)">
<title>/home/travis/build/igankevich/arma/src/generator/basic_model.hh</title>
<!-- Node1 -->
<g id="node1" class="node"><title>Node1</title>
<polygon fill="#bfbfbf" stroke="black" points="488.5,-438.5 488.5,-479.5 619.5,-479.5 619.5,-438.5 488.5,-438.5"/>
<text text-anchor="start" x="496.5" y="-467.5" font-family="Helvetica,sans-Serif" font-size="10.00">/home/travis/build</text>
<text text-anchor="start" x="496.5" y="-456.5" font-family="Helvetica,sans-Serif" font-size="10.00">/igankevich/arma/src</text>
<text text-anchor="middle" x="554" y="-445.5" font-family="Helvetica,sans-Serif" font-size="10.00">/generator/basic_model.hh</text>
</g>
<!-- Node2 -->
<g id="node2" class="node"><title>Node2</title>
<g id="a_node2"><a xlink:href="arma__driver_8hh.html" target="_top" xlink:title="/home/travis/build\l/igankevich/arma/src\l/arma_driver.hh">
<polygon fill="none" stroke="black" points="23.5,-174.5 23.5,-215.5 130.5,-215.5 130.5,-174.5 23.5,-174.5"/>
<text text-anchor="start" x="31.5" y="-203.5" font-family="Helvetica,sans-Serif" font-size="10.00">/home/travis/build</text>
<text text-anchor="start" x="31.5" y="-192.5" font-family="Helvetica,sans-Serif" font-size="10.00">/igankevich/arma/src</text>
<text text-anchor="middle" x="77" y="-181.5" font-family="Helvetica,sans-Serif" font-size="10.00">/arma_driver.hh</text>
</a>
</g>
</g>
<!-- Node1&#45;&gt;Node2 -->
<g id="edge1" class="edge"><title>Node1&#45;&gt;Node2</title>
<path fill="none" stroke="midnightblue" d="M478.274,-447.655C389.837,-432.087 243.51,-395.068 148,-312 117,-285.038 95.3404,-241.139 84.6453,-215.782"/>
<polygon fill="midnightblue" stroke="midnightblue" points="477.788,-451.122 488.235,-449.361 478.97,-444.223 477.788,-451.122"/>
</g>
<!-- Node8 -->
<g id="node8" class="node"><title>Node8</title>
<g id="a_node8"><a xlink:href="basic__arma__model_8hh.html" target="_top" xlink:title="/home/travis/build\l/igankevich/arma/src\l/generator/basic_arma\l_model.hh">
<polygon fill="none" stroke="black" points="364.5,-349 364.5,-401 477.5,-401 477.5,-349 364.5,-349"/>
<text text-anchor="start" x="372.5" y="-389" font-family="Helvetica,sans-Serif" font-size="10.00">/home/travis/build</text>
<text text-anchor="start" x="372.5" y="-378" font-family="Helvetica,sans-Serif" font-size="10.00">/igankevich/arma/src</text>
<text text-anchor="start" x="372.5" y="-367" font-family="Helvetica,sans-Serif" font-size="10.00">/generator/basic_arma</text>
<text text-anchor="middle" x="421" y="-356" font-family="Helvetica,sans-Serif" font-size="10.00">_model.hh</text>
</a>
</g>
</g>
<!-- Node1&#45;&gt;Node8 -->
<g id="edge7" class="edge"><title>Node1&#45;&gt;Node8</title>
<path fill="none" stroke="midnightblue" d="M513.324,-432.921C496.934,-422.816 478.065,-411.183 461.675,-401.078"/>
<polygon fill="midnightblue" stroke="midnightblue" points="511.794,-436.09 522.143,-438.359 515.468,-430.132 511.794,-436.09"/>
</g>
<!-- Node17 -->
<g id="node17" class="node"><title>Node17</title>
<g id="a_node17"><a xlink:href="plain__wave__model_8hh.html" target="_top" xlink:title="/home/travis/build\l/igankevich/arma/src\l/generator/plain_wave\l_model.hh">
<polygon fill="none" stroke="black" points="756,-259 756,-311 868,-311 868,-259 756,-259"/>
<text text-anchor="start" x="764" y="-299" font-family="Helvetica,sans-Serif" font-size="10.00">/home/travis/build</text>
<text text-anchor="start" x="764" y="-288" font-family="Helvetica,sans-Serif" font-size="10.00">/igankevich/arma/src</text>
<text text-anchor="start" x="764" y="-277" font-family="Helvetica,sans-Serif" font-size="10.00">/generator/plain_wave</text>
<text text-anchor="middle" x="812" y="-266" font-family="Helvetica,sans-Serif" font-size="10.00">_model.hh</text>
</a>
</g>
</g>
<!-- Node1&#45;&gt;Node17 -->
<g id="edge21" class="edge"><title>Node1&#45;&gt;Node17</title>
<path fill="none" stroke="midnightblue" d="M621.956,-434.716C643.559,-425.938 667.015,-414.903 687,-402 727.045,-376.146 766.161,-336.931 789.678,-311.386"/>
<polygon fill="midnightblue" stroke="midnightblue" points="620.51,-431.524 612.504,-438.463 623.09,-438.031 620.51,-431.524"/>
</g>
<!-- Node21 -->
<g id="node21" class="node"><title>Node21</title>
<g id="a_node21"><a xlink:href="lh__model_8hh.html" target="_top" xlink:title="/home/travis/build\l/igankevich/arma/src\l/generator/lh_model.hh">
<polygon fill="none" stroke="black" points="563,-354.5 563,-395.5 679,-395.5 679,-354.5 563,-354.5"/>
<text text-anchor="start" x="571" y="-383.5" font-family="Helvetica,sans-Serif" font-size="10.00">/home/travis/build</text>
<text text-anchor="start" x="571" y="-372.5" font-family="Helvetica,sans-Serif" font-size="10.00">/igankevich/arma/src</text>
<text text-anchor="middle" x="621" y="-361.5" font-family="Helvetica,sans-Serif" font-size="10.00">/generator/lh_model.hh</text>
</a>
</g>
</g>
<!-- Node1&#45;&gt;Node21 -->
<g id="edge27" class="edge"><title>Node1&#45;&gt;Node21</title>
<path fill="none" stroke="midnightblue" d="M576.703,-430.214C585.973,-418.869 596.478,-406.012 604.931,-395.667"/>
<polygon fill="midnightblue" stroke="midnightblue" points="573.836,-428.192 570.219,-438.15 579.256,-432.621 573.836,-428.192"/>
</g>
<!-- Node3 -->
<g id="node3" class="node"><title>Node3</title>
<g id="a_node3"><a xlink:href="arma__driver_8cc.html" target="_top" xlink:title="/home/travis/build\l/igankevich/arma/src\l/arma_driver.cc">
<polygon fill="none" stroke="black" points="-0.5,-84.5 -0.5,-125.5 106.5,-125.5 106.5,-84.5 -0.5,-84.5"/>
<text text-anchor="start" x="7.5" y="-113.5" font-family="Helvetica,sans-Serif" font-size="10.00">/home/travis/build</text>
<text text-anchor="start" x="7.5" y="-102.5" font-family="Helvetica,sans-Serif" font-size="10.00">/igankevich/arma/src</text>
<text text-anchor="middle" x="53" y="-91.5" font-family="Helvetica,sans-Serif" font-size="10.00">/arma_driver.cc</text>
</a>
</g>
</g>
<!-- Node2&#45;&gt;Node3 -->
<g id="edge2" class="edge"><title>Node2&#45;&gt;Node3</title>
<path fill="none" stroke="midnightblue" d="M69.0119,-164.71C65.5234,-151.919 61.5237,-137.253 58.3945,-125.78"/>
<polygon fill="midnightblue" stroke="midnightblue" points="65.6657,-165.743 71.6736,-174.47 72.419,-163.901 65.6657,-165.743"/>
</g>
<!-- Node4 -->
<g id="node4" class="node"><title>Node4</title>
<g id="a_node4"><a xlink:href="arma__main_8cc.html" target="_top" xlink:title="/home/travis/build\l/igankevich/arma/src\l/arma_main.cc">
<polygon fill="none" stroke="black" points="437.5,-0.5 437.5,-41.5 544.5,-41.5 544.5,-0.5 437.5,-0.5"/>
<text text-anchor="start" x="445.5" y="-29.5" font-family="Helvetica,sans-Serif" font-size="10.00">/home/travis/build</text>
<text text-anchor="start" x="445.5" y="-18.5" font-family="Helvetica,sans-Serif" font-size="10.00">/igankevich/arma/src</text>
<text text-anchor="middle" x="491" y="-7.5" font-family="Helvetica,sans-Serif" font-size="10.00">/arma_main.cc</text>
</a>
</g>
</g>
<!-- Node2&#45;&gt;Node4 -->
<g id="edge3" class="edge"><title>Node2&#45;&gt;Node4</title>
<path fill="none" stroke="midnightblue" d="M140.56,-174.186C188.328,-158.947 247.161,-139.303 257,-132 280.772,-114.355 271.777,-95.0198 296,-78 301.962,-73.8109 381.714,-51.6334 437.356,-36.4768"/>
<polygon fill="midnightblue" stroke="midnightblue" points="139.335,-170.903 130.864,-177.267 141.455,-177.574 139.335,-170.903"/>
</g>
<!-- Node5 -->
<g id="node5" class="node"><title>Node5</title>
<g id="a_node5"><a xlink:href="arma__realtime__driver_8hh.html" target="_top" xlink:title="/home/travis/build\l/igankevich/arma/src\l/arma_realtime_driver.hh">
<polygon fill="none" stroke="black" points="125,-84.5 125,-125.5 249,-125.5 249,-84.5 125,-84.5"/>
<text text-anchor="start" x="133" y="-113.5" font-family="Helvetica,sans-Serif" font-size="10.00">/home/travis/build</text>
<text text-anchor="start" x="133" y="-102.5" font-family="Helvetica,sans-Serif" font-size="10.00">/igankevich/arma/src</text>
<text text-anchor="middle" x="187" y="-91.5" font-family="Helvetica,sans-Serif" font-size="10.00">/arma_realtime_driver.hh</text>
</a>
</g>
</g>
<!-- Node2&#45;&gt;Node5 -->
<g id="edge4" class="edge"><title>Node2&#45;&gt;Node5</title>
<path fill="none" stroke="midnightblue" d="M109.398,-168.081C126.302,-154.558 146.655,-138.276 162.275,-125.78"/>
<polygon fill="midnightblue" stroke="midnightblue" points="107.035,-165.49 101.413,-174.47 111.408,-170.956 107.035,-165.49"/>
</g>
<!-- Node6 -->
<g id="node6" class="node"><title>Node6</title>
<g id="a_node6"><a xlink:href="arma__realtime_8cc.html" target="_top" xlink:title="/home/travis/build\l/igankevich/arma/src\l/arma_realtime.cc">
<polygon fill="none" stroke="black" points="297.5,-0.5 297.5,-41.5 404.5,-41.5 404.5,-0.5 297.5,-0.5"/>
<text text-anchor="start" x="305.5" y="-29.5" font-family="Helvetica,sans-Serif" font-size="10.00">/home/travis/build</text>
<text text-anchor="start" x="305.5" y="-18.5" font-family="Helvetica,sans-Serif" font-size="10.00">/igankevich/arma/src</text>
<text text-anchor="middle" x="351" y="-7.5" font-family="Helvetica,sans-Serif" font-size="10.00">/arma_realtime.cc</text>
</a>
</g>
</g>
<!-- Node5&#45;&gt;Node6 -->
<g id="edge5" class="edge"><title>Node5&#45;&gt;Node6</title>
<path fill="none" stroke="midnightblue" d="M235.354,-79.823C259.695,-67.6524 288.822,-53.0891 311.755,-41.6227"/>
<polygon fill="midnightblue" stroke="midnightblue" points="233.661,-76.7563 226.282,-84.359 236.792,-83.0173 233.661,-76.7563"/>
</g>
<!-- Node7 -->
<g id="node7" class="node"><title>Node7</title>
<g id="a_node7"><a xlink:href="arma__realtime__driver_8cc.html" target="_top" xlink:title="/home/travis/build\l/igankevich/arma/src\l/arma_realtime_driver.cc">
<polygon fill="none" stroke="black" points="125,-0.5 125,-41.5 249,-41.5 249,-0.5 125,-0.5"/>
<text text-anchor="start" x="133" y="-29.5" font-family="Helvetica,sans-Serif" font-size="10.00">/home/travis/build</text>
<text text-anchor="start" x="133" y="-18.5" font-family="Helvetica,sans-Serif" font-size="10.00">/igankevich/arma/src</text>
<text text-anchor="middle" x="187" y="-7.5" font-family="Helvetica,sans-Serif" font-size="10.00">/arma_realtime_driver.cc</text>
</a>
</g>
</g>
<!-- Node5&#45;&gt;Node7 -->
<g id="edge6" class="edge"><title>Node5&#45;&gt;Node7</title>
<path fill="none" stroke="midnightblue" d="M187,-73.881C187,-63.1328 187,-51.309 187,-41.6671"/>
<polygon fill="midnightblue" stroke="midnightblue" points="183.5,-74.1501 187,-84.1501 190.5,-74.1501 183.5,-74.1501"/>
</g>
<!-- Node9 -->
<g id="node9" class="node"><title>Node9</title>
<g id="a_node9"><a xlink:href="ar__model_8hh.html" target="_top" xlink:title="/home/travis/build\l/igankevich/arma/src\l/generator/ar_model.hh">
<polygon fill="none" stroke="black" points="297,-264.5 297,-305.5 413,-305.5 413,-264.5 297,-264.5"/>
<text text-anchor="start" x="305" y="-293.5" font-family="Helvetica,sans-Serif" font-size="10.00">/home/travis/build</text>
<text text-anchor="start" x="305" y="-282.5" font-family="Helvetica,sans-Serif" font-size="10.00">/igankevich/arma/src</text>
<text text-anchor="middle" x="355" y="-271.5" font-family="Helvetica,sans-Serif" font-size="10.00">/generator/ar_model.hh</text>
</a>
</g>
</g>
<!-- Node8&#45;&gt;Node9 -->
<g id="edge8" class="edge"><title>Node8&#45;&gt;Node9</title>
<path fill="none" stroke="midnightblue" d="M395.674,-340.231C386.868,-328.491 377.292,-315.722 369.644,-305.525"/>
<polygon fill="midnightblue" stroke="midnightblue" points="393.11,-342.647 401.91,-348.547 398.71,-338.447 393.11,-342.647"/>
</g>
<!-- Node14 -->
<g id="node14" class="node"><title>Node14</title>
<g id="a_node14"><a xlink:href="ma__model_8hh.html" target="_top" xlink:title="/home/travis/build\l/igankevich/arma/src\l/generator/ma_model.hh">
<polygon fill="none" stroke="black" points="157,-264.5 157,-305.5 279,-305.5 279,-264.5 157,-264.5"/>
<text text-anchor="start" x="165" y="-293.5" font-family="Helvetica,sans-Serif" font-size="10.00">/home/travis/build</text>
<text text-anchor="start" x="165" y="-282.5" font-family="Helvetica,sans-Serif" font-size="10.00">/igankevich/arma/src</text>
<text text-anchor="middle" x="218" y="-271.5" font-family="Helvetica,sans-Serif" font-size="10.00">/generator/ma_model.hh</text>
</a>
</g>
</g>
<!-- Node8&#45;&gt;Node14 -->
<g id="edge16" class="edge"><title>Node8&#45;&gt;Node14</title>
<path fill="none" stroke="midnightblue" d="M355.262,-345.503C325.102,-332.428 290.111,-317.26 263.007,-305.51"/>
<polygon fill="midnightblue" stroke="midnightblue" points="353.886,-348.721 364.453,-349.487 356.67,-342.298 353.886,-348.721"/>
</g>
<!-- Node16 -->
<g id="node16" class="node"><title>Node16</title>
<g id="a_node16"><a xlink:href="basic__arma__model_8cc.html" target="_top" xlink:title="/home/travis/build\l/igankevich/arma/src\l/generator/basic_arma\l_model.cc">
<polygon fill="none" stroke="black" points="431.5,-259 431.5,-311 544.5,-311 544.5,-259 431.5,-259"/>
<text text-anchor="start" x="439.5" y="-299" font-family="Helvetica,sans-Serif" font-size="10.00">/home/travis/build</text>
<text text-anchor="start" x="439.5" y="-288" font-family="Helvetica,sans-Serif" font-size="10.00">/igankevich/arma/src</text>
<text text-anchor="start" x="439.5" y="-277" font-family="Helvetica,sans-Serif" font-size="10.00">/generator/basic_arma</text>
<text text-anchor="middle" x="488" y="-266" font-family="Helvetica,sans-Serif" font-size="10.00">_model.cc</text>
</a>
</g>
</g>
<!-- Node8&#45;&gt;Node16 -->
<g id="edge20" class="edge"><title>Node8&#45;&gt;Node16</title>
<path fill="none" stroke="midnightblue" d="M446.465,-340.553C453.91,-330.775 461.918,-320.258 468.896,-311.092"/>
<polygon fill="midnightblue" stroke="midnightblue" points="443.652,-338.47 440.379,-348.547 449.222,-342.711 443.652,-338.47"/>
</g>
<!-- Node10 -->
<g id="node10" class="node"><title>Node10</title>
<g id="a_node10"><a xlink:href="common__main_8hh.html" target="_top" xlink:title="/home/travis/build\l/igankevich/arma/src\l/common_main.hh">
<polygon fill="none" stroke="black" points="453.5,-84.5 453.5,-125.5 560.5,-125.5 560.5,-84.5 453.5,-84.5"/>
<text text-anchor="start" x="461.5" y="-113.5" font-family="Helvetica,sans-Serif" font-size="10.00">/home/travis/build</text>
<text text-anchor="start" x="461.5" y="-102.5" font-family="Helvetica,sans-Serif" font-size="10.00">/igankevich/arma/src</text>
<text text-anchor="middle" x="507" y="-91.5" font-family="Helvetica,sans-Serif" font-size="10.00">/common_main.hh</text>
</a>
</g>
</g>
<!-- Node9&#45;&gt;Node10 -->
<g id="edge9" class="edge"><title>Node9&#45;&gt;Node10</title>
<path fill="none" stroke="midnightblue" d="M416.459,-259.764C434.402,-250.233 452.731,-237.735 466,-222 489.822,-193.751 500.171,-150.707 504.377,-125.766"/>
<polygon fill="midnightblue" stroke="midnightblue" points="414.483,-256.842 407.14,-264.479 417.643,-263.087 414.483,-256.842"/>
</g>
<!-- Node11 -->
<g id="node11" class="node"><title>Node11</title>
<g id="a_node11"><a xlink:href="arma__model_8hh.html" target="_top" xlink:title="/home/travis/build\l/igankevich/arma/src\l/generator/arma_model.hh">
<polygon fill="none" stroke="black" points="327,-174.5 327,-215.5 457,-215.5 457,-174.5 327,-174.5"/>
<text text-anchor="start" x="335" y="-203.5" font-family="Helvetica,sans-Serif" font-size="10.00">/home/travis/build</text>
<text text-anchor="start" x="335" y="-192.5" font-family="Helvetica,sans-Serif" font-size="10.00">/igankevich/arma/src</text>
<text text-anchor="middle" x="392" y="-181.5" font-family="Helvetica,sans-Serif" font-size="10.00">/generator/arma_model.hh</text>
</a>
</g>
</g>
<!-- Node9&#45;&gt;Node11 -->
<g id="edge12" class="edge"><title>Node9&#45;&gt;Node11</title>
<path fill="none" stroke="midnightblue" d="M367.155,-255.09C372.571,-242.21 378.812,-227.367 383.684,-215.78"/>
<polygon fill="midnightblue" stroke="midnightblue" points="363.861,-253.895 363.211,-264.47 370.314,-256.608 363.861,-253.895"/>
</g>
<!-- Node13 -->
<g id="node13" class="node"><title>Node13</title>
<g id="a_node13"><a xlink:href="ar__model_8cc.html" target="_top" xlink:title="/home/travis/build\l/igankevich/arma/src\l/generator/ar_model.cc">
<polygon fill="none" stroke="black" points="513,-174.5 513,-215.5 629,-215.5 629,-174.5 513,-174.5"/>
<text text-anchor="start" x="521" y="-203.5" font-family="Helvetica,sans-Serif" font-size="10.00">/home/travis/build</text>
<text text-anchor="start" x="521" y="-192.5" font-family="Helvetica,sans-Serif" font-size="10.00">/igankevich/arma/src</text>
<text text-anchor="middle" x="571" y="-181.5" font-family="Helvetica,sans-Serif" font-size="10.00">/generator/ar_model.cc</text>
</a>
</g>
</g>
<!-- Node9&#45;&gt;Node13 -->
<g id="edge15" class="edge"><title>Node9&#45;&gt;Node13</title>
<path fill="none" stroke="midnightblue" d="M412.401,-260.614C446.848,-246.581 490.166,-228.932 522.824,-215.627"/>
<polygon fill="midnightblue" stroke="midnightblue" points="410.878,-257.456 402.937,-264.47 413.519,-263.938 410.878,-257.456"/>
</g>
<!-- Node10&#45;&gt;Node4 -->
<g id="edge10" class="edge"><title>Node10&#45;&gt;Node4</title>
<path fill="none" stroke="midnightblue" d="M501.189,-74.2165C499.074,-63.3793 496.738,-51.4095 494.837,-41.6671"/>
<polygon fill="midnightblue" stroke="midnightblue" points="497.776,-75.0055 503.127,-84.1501 504.647,-73.6649 497.776,-75.0055"/>
</g>
<!-- Node10&#45;&gt;Node6 -->
<g id="edge11" class="edge"><title>Node10&#45;&gt;Node6</title>
<path fill="none" stroke="midnightblue" d="M460.699,-79.6621C437.607,-67.5242 410.049,-53.0386 388.331,-41.6227"/>
<polygon fill="midnightblue" stroke="midnightblue" points="459.154,-82.8042 469.634,-84.359 462.411,-76.608 459.154,-82.8042"/>
</g>
<!-- Node11&#45;&gt;Node10 -->
<g id="edge13" class="edge"><title>Node11&#45;&gt;Node10</title>
<path fill="none" stroke="midnightblue" d="M425.871,-168.081C443.543,-154.558 464.821,-138.276 481.151,-125.78"/>
<polygon fill="midnightblue" stroke="midnightblue" points="423.337,-165.613 417.522,-174.47 427.591,-171.172 423.337,-165.613"/>
</g>
<!-- Node12 -->
<g id="node12" class="node"><title>Node12</title>
<g id="a_node12"><a xlink:href="arma__model_8cc.html" target="_top" xlink:title="/home/travis/build\l/igankevich/arma/src\l/generator/arma_model.cc">
<polygon fill="none" stroke="black" points="305,-84.5 305,-125.5 435,-125.5 435,-84.5 305,-84.5"/>
<text text-anchor="start" x="313" y="-113.5" font-family="Helvetica,sans-Serif" font-size="10.00">/home/travis/build</text>
<text text-anchor="start" x="313" y="-102.5" font-family="Helvetica,sans-Serif" font-size="10.00">/igankevich/arma/src</text>
<text text-anchor="middle" x="370" y="-91.5" font-family="Helvetica,sans-Serif" font-size="10.00">/generator/arma_model.cc</text>
</a>
</g>
</g>
<!-- Node11&#45;&gt;Node12 -->
<g id="edge14" class="edge"><title>Node11&#45;&gt;Node12</title>
<path fill="none" stroke="midnightblue" d="M384.678,-164.71C381.48,-151.919 377.813,-137.253 374.945,-125.78"/>
<polygon fill="midnightblue" stroke="midnightblue" points="381.297,-165.617 387.117,-174.47 388.088,-163.92 381.297,-165.617"/>
</g>
<!-- Node14&#45;&gt;Node10 -->
<g id="edge17" class="edge"><title>Node14&#45;&gt;Node10</title>
<path fill="none" stroke="midnightblue" d="M194.243,-255.902C175.628,-230.351 156.214,-192.933 178,-168 217.249,-123.082 386.401,-147.506 444,-132 450.513,-130.247 457.248,-127.985 463.785,-125.529"/>
<polygon fill="midnightblue" stroke="midnightblue" points="191.624,-258.24 200.465,-264.077 197.194,-254 191.624,-258.24"/>
</g>
<!-- Node14&#45;&gt;Node11 -->
<g id="edge18" class="edge"><title>Node14&#45;&gt;Node11</title>
<path fill="none" stroke="midnightblue" d="M265.669,-259.891C293.179,-245.979 327.334,-228.705 353.191,-215.627"/>
<polygon fill="midnightblue" stroke="midnightblue" points="263.96,-256.833 256.616,-264.47 267.12,-263.08 263.96,-256.833"/>
</g>
<!-- Node15 -->
<g id="node15" class="node"><title>Node15</title>
<g id="a_node15"><a xlink:href="ma__model_8cc.html" target="_top" xlink:title="/home/travis/build\l/igankevich/arma/src\l/generator/ma_model.cc">
<polygon fill="none" stroke="black" points="187,-174.5 187,-215.5 309,-215.5 309,-174.5 187,-174.5"/>
<text text-anchor="start" x="195" y="-203.5" font-family="Helvetica,sans-Serif" font-size="10.00">/home/travis/build</text>
<text text-anchor="start" x="195" y="-192.5" font-family="Helvetica,sans-Serif" font-size="10.00">/igankevich/arma/src</text>
<text text-anchor="middle" x="248" y="-181.5" font-family="Helvetica,sans-Serif" font-size="10.00">/generator/ma_model.cc</text>
</a>
</g>
</g>
<!-- Node14&#45;&gt;Node15 -->
<g id="edge19" class="edge"><title>Node14&#45;&gt;Node15</title>
<path fill="none" stroke="midnightblue" d="M227.985,-254.71C232.346,-241.919 237.345,-227.253 241.257,-215.78"/>
<polygon fill="midnightblue" stroke="midnightblue" points="224.572,-253.875 224.658,-264.47 231.198,-256.134 224.572,-253.875"/>
</g>
<!-- Node17&#45;&gt;Node10 -->
<g id="edge22" class="edge"><title>Node17&#45;&gt;Node10</title>
<path fill="none" stroke="midnightblue" d="M831.845,-249.687C843.558,-224.429 852.782,-190.677 834,-168 799.908,-126.836 644.319,-112.789 560.639,-108.163"/>
<polygon fill="midnightblue" stroke="midnightblue" points="828.58,-248.394 827.288,-258.91 834.856,-251.496 828.58,-248.394"/>
</g>
<!-- Node18 -->
<g id="node18" class="node"><title>Node18</title>
<g id="a_node18"><a xlink:href="plain__wave__solver_8hh.html" target="_top" xlink:title="/home/travis/build\l/igankevich/arma/src\l/velocity/plain_wave\l_solver.hh">
<polygon fill="none" stroke="black" points="882.5,-169 882.5,-221 989.5,-221 989.5,-169 882.5,-169"/>
<text text-anchor="start" x="890.5" y="-209" font-family="Helvetica,sans-Serif" font-size="10.00">/home/travis/build</text>
<text text-anchor="start" x="890.5" y="-198" font-family="Helvetica,sans-Serif" font-size="10.00">/igankevich/arma/src</text>
<text text-anchor="start" x="890.5" y="-187" font-family="Helvetica,sans-Serif" font-size="10.00">/velocity/plain_wave</text>
<text text-anchor="middle" x="936" y="-176" font-family="Helvetica,sans-Serif" font-size="10.00">_solver.hh</text>
</a>
</g>
</g>
<!-- Node17&#45;&gt;Node18 -->
<g id="edge23" class="edge"><title>Node17&#45;&gt;Node18</title>
<path fill="none" stroke="midnightblue" d="M855.93,-252.824C870.524,-242.467 886.582,-231.071 900.461,-221.221"/>
<polygon fill="midnightblue" stroke="midnightblue" points="853.663,-250.141 847.533,-258.783 857.714,-255.85 853.663,-250.141"/>
</g>
<!-- Node20 -->
<g id="node20" class="node"><title>Node20</title>
<g id="a_node20"><a xlink:href="plain__wave__model_8cc.html" target="_top" xlink:title="/home/travis/build\l/igankevich/arma/src\l/generator/plain_wave\l_model.cc">
<polygon fill="none" stroke="black" points="714,-169 714,-221 826,-221 826,-169 714,-169"/>
<text text-anchor="start" x="722" y="-209" font-family="Helvetica,sans-Serif" font-size="10.00">/home/travis/build</text>
<text text-anchor="start" x="722" y="-198" font-family="Helvetica,sans-Serif" font-size="10.00">/igankevich/arma/src</text>
<text text-anchor="start" x="722" y="-187" font-family="Helvetica,sans-Serif" font-size="10.00">/generator/plain_wave</text>
<text text-anchor="middle" x="770" y="-176" font-family="Helvetica,sans-Serif" font-size="10.00">_model.cc</text>
</a>
</g>
</g>
<!-- Node17&#45;&gt;Node20 -->
<g id="edge26" class="edge"><title>Node17&#45;&gt;Node20</title>
<path fill="none" stroke="midnightblue" d="M795.475,-249.376C790.969,-239.935 786.175,-229.891 781.976,-221.092"/>
<polygon fill="midnightblue" stroke="midnightblue" points="792.386,-251.03 799.852,-258.547 798.703,-248.014 792.386,-251.03"/>
</g>
<!-- Node18&#45;&gt;Node10 -->
<g id="edge24" class="edge"><title>Node18&#45;&gt;Node10</title>
<path fill="none" stroke="midnightblue" d="M872.374,-169.246C870.907,-168.813 869.447,-168.397 868,-168 760.831,-138.612 631.759,-120.455 560.624,-111.891"/>
<polygon fill="midnightblue" stroke="midnightblue" points="871.537,-172.651 882.127,-172.312 873.637,-165.973 871.537,-172.651"/>
</g>
<!-- Node19 -->
<g id="node19" class="node"><title>Node19</title>
<g id="a_node19"><a xlink:href="plain__wave__solver_8cc.html" target="_top" xlink:title="/home/travis/build\l/igankevich/arma/src\l/velocity/plain_wave\l_solver.cc">
<polygon fill="none" stroke="black" points="882.5,-79 882.5,-131 989.5,-131 989.5,-79 882.5,-79"/>
<text text-anchor="start" x="890.5" y="-119" font-family="Helvetica,sans-Serif" font-size="10.00">/home/travis/build</text>
<text text-anchor="start" x="890.5" y="-108" font-family="Helvetica,sans-Serif" font-size="10.00">/igankevich/arma/src</text>
<text text-anchor="start" x="890.5" y="-97" font-family="Helvetica,sans-Serif" font-size="10.00">/velocity/plain_wave</text>
<text text-anchor="middle" x="936" y="-86" font-family="Helvetica,sans-Serif" font-size="10.00">_solver.cc</text>
</a>
</g>
</g>
<!-- Node18&#45;&gt;Node19 -->
<g id="edge25" class="edge"><title>Node18&#45;&gt;Node19</title>
<path fill="none" stroke="midnightblue" d="M936,-158.489C936,-149.309 936,-139.616 936,-131.092"/>
<polygon fill="midnightblue" stroke="midnightblue" points="932.5,-158.547 936,-168.547 939.5,-158.547 932.5,-158.547"/>
</g>
<!-- Node21&#45;&gt;Node10 -->
<g id="edge28" class="edge"><title>Node21&#45;&gt;Node10</title>
<path fill="none" stroke="midnightblue" d="M658.855,-348.06C670.073,-338.208 680.964,-325.951 687,-312 696.53,-289.973 693.02,-281.233 687,-258 675.522,-213.705 670.345,-199.336 637,-168 615.408,-147.708 585.95,-132.918 560.536,-122.883"/>
<polygon fill="midnightblue" stroke="midnightblue" points="656.562,-345.414 651.092,-354.488 661.027,-350.806 656.562,-345.414"/>
</g>
<!-- Node22 -->
<g id="node22" class="node"><title>Node22</title>
<g id="a_node22"><a xlink:href="lh__model_8cc.html" target="_top" xlink:title="/home/travis/build\l/igankevich/arma/src\l/generator/lh_model.cc">
<polygon fill="none" stroke="black" points="563,-264.5 563,-305.5 679,-305.5 679,-264.5 563,-264.5"/>
<text text-anchor="start" x="571" y="-293.5" font-family="Helvetica,sans-Serif" font-size="10.00">/home/travis/build</text>
<text text-anchor="start" x="571" y="-282.5" font-family="Helvetica,sans-Serif" font-size="10.00">/igankevich/arma/src</text>
<text text-anchor="middle" x="621" y="-271.5" font-family="Helvetica,sans-Serif" font-size="10.00">/generator/lh_model.cc</text>
</a>
</g>
</g>
<!-- Node21&#45;&gt;Node22 -->
<g id="edge29" class="edge"><title>Node21&#45;&gt;Node22</title>
<path fill="none" stroke="midnightblue" d="M621,-344.33C621,-331.629 621,-317.14 621,-305.78"/>
<polygon fill="midnightblue" stroke="midnightblue" points="617.5,-344.47 621,-354.47 624.5,-344.47 617.5,-344.47"/>
</g>
</g>
</svg>
