<?xml version="1.0" encoding="UTF-8" standalone="no"?>
<!DOCTYPE svg PUBLIC "-//W3C//DTD SVG 1.1//EN"
 "http://www.w3.org/Graphics/SVG/1.1/DTD/svg11.dtd">
<!-- Generated by graphviz version 2.36.0 (20140111.2315)
 -->
<!-- Title: /home/travis/build/igankevich/arma/src/velocity/basic_solver.hh Pages: 1 -->
<svg width="512pt" height="330pt"
 viewBox="0.00 0.00 512.44 330.00" xmlns="http://www.w3.org/2000/svg" xmlns:xlink="http://www.w3.org/1999/xlink">
<g id="graph0" class="graph" transform="scale(1 1) rotate(0) translate(4 326)">
<title>/home/travis/build/igankevich/arma/src/velocity/basic_solver.hh</title>
<!-- Node1 -->
<g id="node1" class="node"><title>Node1</title>
<polygon fill="#bfbfbf" stroke="black" points="58.9439,-280.5 58.9439,-321.5 183.944,-321.5 183.944,-280.5 58.9439,-280.5"/>
<text text-anchor="start" x="66.9439" y="-309.5" font-family="Helvetica,sans-Serif" font-size="10.00">/home/travis/build</text>
<text text-anchor="start" x="66.9439" y="-298.5" font-family="Helvetica,sans-Serif" font-size="10.00">/igankevich/arma/src</text>
<text text-anchor="middle" x="121.444" y="-287.5" font-family="Helvetica,sans-Serif" font-size="10.00">/velocity/basic_solver.hh</text>
</g>
<!-- Node2 -->
<g id="node2" class="node"><title>Node2</title>
<g id="a_node2"><a xlink:href="types_8hh.html" target="_top" xlink:title="types.hh">
<polygon fill="none" stroke="black" points="14.4439,-168.5 14.4439,-187.5 68.4439,-187.5 68.4439,-168.5 14.4439,-168.5"/>
<text text-anchor="middle" x="41.4439" y="-175.5" font-family="Helvetica,sans-Serif" font-size="10.00">types.hh</text>
</a>
</g>
</g>
<!-- Node1&#45;&gt;Node2 -->
<g id="edge1" class="edge"><title>Node1&#45;&gt;Node2</title>
<path fill="none" stroke="midnightblue" d="M93.9473,-280.272C82.1402,-270.545 69.0972,-257.918 60.4439,-244 51.6173,-229.803 46.7343,-211.325 44.1371,-197.701"/>
<polygon fill="midnightblue" stroke="midnightblue" points="47.5502,-196.889 42.4567,-187.599 40.6451,-198.037 47.5502,-196.889"/>
</g>
<!-- Node4 -->
<g id="node4" class="node"><title>Node4</title>
<g id="a_node4"><a xlink:href="domain_8hh.html" target="_top" xlink:title="domain.hh">
<polygon fill="none" stroke="black" points="257.444,-168.5 257.444,-187.5 319.444,-187.5 319.444,-168.5 257.444,-168.5"/>
<text text-anchor="middle" x="288.444" y="-175.5" font-family="Helvetica,sans-Serif" font-size="10.00">domain.hh</text>
</a>
</g>
</g>
<!-- Node1&#45;&gt;Node4 -->
<g id="edge3" class="edge"><title>Node1&#45;&gt;Node4</title>
<path fill="none" stroke="midnightblue" d="M148.647,-280.29C182.151,-256.015 238.289,-215.339 268.217,-193.655"/>
<polygon fill="midnightblue" stroke="midnightblue" points="270.565,-196.276 276.609,-187.575 266.458,-190.608 270.565,-196.276"/>
</g>
<!-- Node14 -->
<g id="node14" class="node"><title>Node14</title>
<g id="a_node14"><a xlink:href="discrete__function_8hh.html" target="_top" xlink:title="discrete_function.hh">
<polygon fill="none" stroke="black" points="69.4439,-224.5 69.4439,-243.5 173.444,-243.5 173.444,-224.5 69.4439,-224.5"/>
<text text-anchor="middle" x="121.444" y="-231.5" font-family="Helvetica,sans-Serif" font-size="10.00">discrete_function.hh</text>
</a>
</g>
</g>
<!-- Node1&#45;&gt;Node14 -->
<g id="edge15" class="edge"><title>Node1&#45;&gt;Node14</title>
<path fill="none" stroke="midnightblue" d="M121.444,-280.498C121.444,-272.065 121.444,-262.235 121.444,-253.874"/>
<polygon fill="midnightblue" stroke="midnightblue" points="124.944,-253.652 121.444,-243.652 117.944,-253.653 124.944,-253.652"/>
</g>
<!-- Node3 -->
<g id="node3" class="node"><title>Node3</title>
<polygon fill="none" stroke="#bfbfbf" points="125.444,-0.5 125.444,-19.5 193.444,-19.5 193.444,-0.5 125.444,-0.5"/>
<text text-anchor="middle" x="159.444" y="-7.5" font-family="Helvetica,sans-Serif" font-size="10.00">blitz/array.h</text>
</g>
<!-- Node2&#45;&gt;Node3 -->
<g id="edge2" class="edge"><title>Node2&#45;&gt;Node3</title>
<path fill="none" stroke="midnightblue" d="M29.9144,-168.267C15.0412,-155.881 -7.67265,-132.44 3.44386,-112 28.4899,-65.9472 84.5846,-37.667 122.226,-23.1507"/>
<polygon fill="midnightblue" stroke="midnightblue" points="123.681,-26.3443 131.84,-19.5859 121.247,-19.781 123.681,-26.3443"/>
</g>
<!-- Node4&#45;&gt;Node3 -->
<g id="edge8" class="edge"><title>Node4&#45;&gt;Node3</title>
<path fill="none" stroke="midnightblue" d="M287.262,-168.407C285.162,-155.372 279.876,-130.195 268.444,-112 245.34,-75.2296 205.493,-43.1475 180.911,-25.4858"/>
<polygon fill="midnightblue" stroke="midnightblue" points="182.798,-22.5345 172.604,-19.6494 178.774,-28.2621 182.798,-22.5345"/>
</g>
<!-- Node5 -->
<g id="node5" class="node"><title>Node5</title>
<polygon fill="none" stroke="#bfbfbf" points="316.944,-112.5 316.944,-131.5 365.944,-131.5 365.944,-112.5 316.944,-112.5"/>
<text text-anchor="middle" x="341.444" y="-119.5" font-family="Helvetica,sans-Serif" font-size="10.00">cstddef</text>
</g>
<!-- Node4&#45;&gt;Node5 -->
<g id="edge4" class="edge"><title>Node4&#45;&gt;Node5</title>
<path fill="none" stroke="midnightblue" d="M297.196,-168.083C304.914,-160.22 316.349,-148.569 325.66,-139.081"/>
<polygon fill="midnightblue" stroke="midnightblue" points="328.348,-141.34 332.855,-131.751 323.352,-136.436 328.348,-141.34"/>
</g>
<!-- Node6 -->
<g id="node6" class="node"><title>Node6</title>
<polygon fill="none" stroke="#bfbfbf" points="210.944,-112.5 210.944,-131.5 259.944,-131.5 259.944,-112.5 210.944,-112.5"/>
<text text-anchor="middle" x="235.444" y="-119.5" font-family="Helvetica,sans-Serif" font-size="10.00">istream</text>
</g>
<!-- Node4&#45;&gt;Node6 -->
<g id="edge5" class="edge"><title>Node4&#45;&gt;Node6</title>
<path fill="none" stroke="midnightblue" d="M279.692,-168.083C271.974,-160.22 260.539,-148.569 251.227,-139.081"/>
<polygon fill="midnightblue" stroke="midnightblue" points="253.535,-136.436 244.033,-131.751 248.54,-141.34 253.535,-136.436"/>
</g>
<!-- Node7 -->
<g id="node7" class="node"><title>Node7</title>
<polygon fill="none" stroke="#bfbfbf" points="384.444,-112.5 384.444,-131.5 436.444,-131.5 436.444,-112.5 384.444,-112.5"/>
<text text-anchor="middle" x="410.444" y="-119.5" font-family="Helvetica,sans-Serif" font-size="10.00">ostream</text>
</g>
<!-- Node4&#45;&gt;Node7 -->
<g id="edge6" class="edge"><title>Node4&#45;&gt;Node7</title>
<path fill="none" stroke="midnightblue" d="M307.775,-168.444C327.764,-159.596 359.187,-145.687 382.008,-135.586"/>
<polygon fill="midnightblue" stroke="midnightblue" points="383.475,-138.764 391.203,-131.516 380.642,-132.363 383.475,-138.764"/>
</g>
<!-- Node8 -->
<g id="node8" class="node"><title>Node8</title>
<polygon fill="none" stroke="#bfbfbf" points="454.444,-112.5 454.444,-131.5 504.444,-131.5 504.444,-112.5 454.444,-112.5"/>
<text text-anchor="middle" x="479.444" y="-119.5" font-family="Helvetica,sans-Serif" font-size="10.00">iomanip</text>
</g>
<!-- Node4&#45;&gt;Node8 -->
<g id="edge7" class="edge"><title>Node4&#45;&gt;Node8</title>
<path fill="none" stroke="midnightblue" d="M318.708,-168.444C352.791,-158.808 408.109,-143.168 444.135,-132.983"/>
<polygon fill="midnightblue" stroke="midnightblue" points="445.53,-136.225 454.201,-130.137 443.626,-129.489 445.53,-136.225"/>
</g>
<!-- Node9 -->
<g id="node9" class="node"><title>Node9</title>
<g id="a_node9"><a xlink:href="validators_8hh.html" target="_top" xlink:title="validators.hh">
<polygon fill="none" stroke="black" points="120.444,-112.5 120.444,-131.5 192.444,-131.5 192.444,-112.5 120.444,-112.5"/>
<text text-anchor="middle" x="156.444" y="-119.5" font-family="Helvetica,sans-Serif" font-size="10.00">validators.hh</text>
</a>
</g>
</g>
<!-- Node4&#45;&gt;Node9 -->
<g id="edge9" class="edge"><title>Node4&#45;&gt;Node9</title>
<path fill="none" stroke="midnightblue" d="M267.528,-168.444C245.708,-159.517 211.294,-145.439 186.552,-135.317"/>
<polygon fill="midnightblue" stroke="midnightblue" points="187.843,-132.063 177.262,-131.516 185.192,-138.542 187.843,-132.063"/>
</g>
<!-- Node10 -->
<g id="node10" class="node"><title>Node10</title>
<polygon fill="none" stroke="#bfbfbf" points="126.944,-56.5 126.944,-75.5 185.944,-75.5 185.944,-56.5 126.944,-56.5"/>
<text text-anchor="middle" x="156.444" y="-63.5" font-family="Helvetica,sans-Serif" font-size="10.00">stdexcept</text>
</g>
<!-- Node9&#45;&gt;Node10 -->
<g id="edge10" class="edge"><title>Node9&#45;&gt;Node10</title>
<path fill="none" stroke="midnightblue" d="M156.444,-112.083C156.444,-105.006 156.444,-94.8611 156.444,-85.9865"/>
<polygon fill="midnightblue" stroke="midnightblue" points="159.944,-85.751 156.444,-75.7511 152.944,-85.7511 159.944,-85.751"/>
</g>
<!-- Node11 -->
<g id="node11" class="node"><title>Node11</title>
<g id="a_node11"><a xlink:href="blitz_8hh.html" target="_top" xlink:title="blitz.hh">
<polygon fill="none" stroke="black" points="316.444,-56.5 316.444,-75.5 364.444,-75.5 364.444,-56.5 316.444,-56.5"/>
<text text-anchor="middle" x="340.444" y="-63.5" font-family="Helvetica,sans-Serif" font-size="10.00">blitz.hh</text>
</a>
</g>
</g>
<!-- Node9&#45;&gt;Node11 -->
<g id="edge11" class="edge"><title>Node9&#45;&gt;Node11</title>
<path fill="none" stroke="midnightblue" d="M185.599,-112.444C218.525,-102.78 272.023,-87.0801 306.721,-76.8969"/>
<polygon fill="midnightblue" stroke="midnightblue" points="307.799,-80.2282 316.409,-74.0537 305.828,-73.5114 307.799,-80.2282"/>
</g>
<!-- Node11&#45;&gt;Node3 -->
<g id="edge14" class="edge"><title>Node11&#45;&gt;Node3</title>
<path fill="none" stroke="midnightblue" d="M316.408,-57.8292C286.083,-48.7819 233.568,-33.1144 197.702,-22.4139"/>
<polygon fill="midnightblue" stroke="midnightblue" points="198.642,-19.0422 188.059,-19.5371 196.641,-25.75 198.642,-19.0422"/>
</g>
<!-- Node12 -->
<g id="node12" class="node"><title>Node12</title>
<polygon fill="none" stroke="#bfbfbf" points="352.444,-0.5 352.444,-19.5 396.444,-19.5 396.444,-0.5 352.444,-0.5"/>
<text text-anchor="middle" x="374.444" y="-7.5" font-family="Helvetica,sans-Serif" font-size="10.00">cmath</text>
</g>
<!-- Node11&#45;&gt;Node12 -->
<g id="edge12" class="edge"><title>Node11&#45;&gt;Node12</title>
<path fill="none" stroke="midnightblue" d="M346.058,-56.083C350.811,-48.5341 357.762,-37.4948 363.595,-28.2298"/>
<polygon fill="midnightblue" stroke="midnightblue" points="366.568,-30.0783 368.934,-19.7511 360.644,-26.3486 366.568,-30.0783"/>
</g>
<!-- Node13 -->
<g id="node13" class="node"><title>Node13</title>
<polygon fill="none" stroke="#bfbfbf" points="278.444,-0.5 278.444,-19.5 334.444,-19.5 334.444,-0.5 278.444,-0.5"/>
<text text-anchor="middle" x="306.444" y="-7.5" font-family="Helvetica,sans-Serif" font-size="10.00">algorithm</text>
</g>
<!-- Node11&#45;&gt;Node13 -->
<g id="edge13" class="edge"><title>Node11&#45;&gt;Node13</title>
<path fill="none" stroke="midnightblue" d="M334.829,-56.083C330.076,-48.5341 323.126,-37.4948 317.292,-28.2298"/>
<polygon fill="midnightblue" stroke="midnightblue" points="320.244,-26.3486 311.954,-19.7511 314.32,-30.0783 320.244,-26.3486"/>
</g>
<!-- Node14&#45;&gt;Node2 -->
<g id="edge16" class="edge"><title>Node14&#45;&gt;Node2</title>
<path fill="none" stroke="midnightblue" d="M108.59,-224.324C96.2275,-215.979 77.3138,-203.212 62.7067,-193.352"/>
<polygon fill="midnightblue" stroke="midnightblue" points="64.512,-190.348 54.2653,-187.655 60.5957,-196.15 64.512,-190.348"/>
</g>
<!-- Node15 -->
<g id="node15" class="node"><title>Node15</title>
<g id="a_node15"><a xlink:href="grid_8hh.html" target="_top" xlink:title="grid.hh">
<polygon fill="none" stroke="black" points="98.4439,-168.5 98.4439,-187.5 144.444,-187.5 144.444,-168.5 98.4439,-168.5"/>
<text text-anchor="middle" x="121.444" y="-175.5" font-family="Helvetica,sans-Serif" font-size="10.00">grid.hh</text>
</a>
</g>
</g>
<!-- Node14&#45;&gt;Node15 -->
<g id="edge17" class="edge"><title>Node14&#45;&gt;Node15</title>
<path fill="none" stroke="midnightblue" d="M121.444,-224.083C121.444,-217.006 121.444,-206.861 121.444,-197.986"/>
<polygon fill="midnightblue" stroke="midnightblue" points="124.944,-197.751 121.444,-187.751 117.944,-197.751 124.944,-197.751"/>
</g>
<!-- Node15&#45;&gt;Node3 -->
<g id="edge20" class="edge"><title>Node15&#45;&gt;Node3</title>
<path fill="none" stroke="midnightblue" d="M118.628,-168.274C112.487,-147.627 99.7898,-94.6128 117.444,-56 122.63,-44.6577 131.816,-34.3048 140.277,-26.3964"/>
<polygon fill="midnightblue" stroke="midnightblue" points="142.804,-28.836 148.013,-19.6106 138.188,-23.5736 142.804,-28.836"/>
</g>
<!-- Node15&#45;&gt;Node6 -->
<g id="edge19" class="edge"><title>Node15&#45;&gt;Node6</title>
<path fill="none" stroke="midnightblue" d="M139.507,-168.444C158.019,-159.675 187.025,-145.935 208.299,-135.858"/>
<polygon fill="midnightblue" stroke="midnightblue" points="209.926,-138.96 217.465,-131.516 206.929,-132.634 209.926,-138.96"/>
</g>
<!-- Node15&#45;&gt;Node9 -->
<g id="edge21" class="edge"><title>Node15&#45;&gt;Node9</title>
<path fill="none" stroke="midnightblue" d="M127.223,-168.083C132.116,-160.534 139.271,-149.495 145.276,-140.23"/>
<polygon fill="midnightblue" stroke="midnightblue" points="148.27,-142.046 150.772,-131.751 142.396,-138.239 148.27,-142.046"/>
</g>
<!-- Node16 -->
<g id="node16" class="node"><title>Node16</title>
<polygon fill="none" stroke="#bfbfbf" points="12.4439,-112.5 12.4439,-131.5 64.4439,-131.5 64.4439,-112.5 12.4439,-112.5"/>
<text text-anchor="middle" x="38.4439" y="-119.5" font-family="Helvetica,sans-Serif" font-size="10.00">stddef.h</text>
</g>
<!-- Node15&#45;&gt;Node16 -->
<g id="edge18" class="edge"><title>Node15&#45;&gt;Node16</title>
<path fill="none" stroke="midnightblue" d="M108.108,-168.324C95.2819,-159.979 75.6589,-147.212 60.5041,-137.352"/>
<polygon fill="midnightblue" stroke="midnightblue" points="62.037,-134.174 51.7461,-131.655 58.2196,-140.042 62.037,-134.174"/>
</g>
</g>
</svg>
