<?xml version="1.0" encoding="UTF-8" standalone="no"?>
<!DOCTYPE svg PUBLIC "-//W3C//DTD SVG 1.1//EN"
 "http://www.w3.org/Graphics/SVG/1.1/DTD/svg11.dtd">
<!-- Generated by graphviz version 2.36.0 (20140111.2315)
 -->
<!-- Title: /home/travis/build/igankevich/arma/src/generator/basic_arma_model.hh Pages: 1 -->
<svg width="2312pt" height="342pt"
 viewBox="0.00 0.00 2312.00 342.00" xmlns="http://www.w3.org/2000/svg" xmlns:xlink="http://www.w3.org/1999/xlink">
<g id="graph0" class="graph" transform="scale(1 1) rotate(0) translate(4 338)">
<title>/home/travis/build/igankevich/arma/src/generator/basic_arma_model.hh</title>
<!-- Node1 -->
<g id="node1" class="node"><title>Node1</title>
<polygon fill="#bfbfbf" stroke="black" points="752.5,-281 752.5,-333 865.5,-333 865.5,-281 752.5,-281"/>
<text text-anchor="start" x="760.5" y="-321" font-family="Helvetica,sans-Serif" font-size="10.00">/home/travis/build</text>
<text text-anchor="start" x="760.5" y="-310" font-family="Helvetica,sans-Serif" font-size="10.00">/igankevich/arma/src</text>
<text text-anchor="start" x="760.5" y="-299" font-family="Helvetica,sans-Serif" font-size="10.00">/generator/basic_arma</text>
<text text-anchor="middle" x="809" y="-288" font-family="Helvetica,sans-Serif" font-size="10.00">_model.hh</text>
</g>
<!-- Node2 -->
<g id="node2" class="node"><title>Node2</title>
<polygon fill="none" stroke="#bfbfbf" points="0,-56.5 0,-75.5 44,-75.5 44,-56.5 0,-56.5"/>
<text text-anchor="middle" x="22" y="-63.5" font-family="Helvetica,sans-Serif" font-size="10.00">vector</text>
</g>
<!-- Node1&#45;&gt;Node2 -->
<g id="edge1" class="edge"><title>Node1&#45;&gt;Node2</title>
<path fill="none" stroke="midnightblue" d="M752.463,-293.02C641.016,-266.868 385.662,-204.142 177,-132 131.46,-116.255 80.1791,-93.7778 49.5111,-79.8042"/>
<polygon fill="midnightblue" stroke="midnightblue" points="50.8604,-76.5726 40.3116,-75.5854 47.9424,-82.9354 50.8604,-76.5726"/>
</g>
<!-- Node3 -->
<g id="node3" class="node"><title>Node3</title>
<g id="a_node3"><a xlink:href="basic__model_8hh.html" target="_top" xlink:title="basic_model.hh">
<polygon fill="none" stroke="black" points="766.5,-224.5 766.5,-243.5 851.5,-243.5 851.5,-224.5 766.5,-224.5"/>
<text text-anchor="middle" x="809" y="-231.5" font-family="Helvetica,sans-Serif" font-size="10.00">basic_model.hh</text>
</a>
</g>
</g>
<!-- Node1&#45;&gt;Node3 -->
<g id="edge2" class="edge"><title>Node1&#45;&gt;Node3</title>
<path fill="none" stroke="midnightblue" d="M809,-280.768C809,-271.89 809,-262.074 809,-253.816"/>
<polygon fill="midnightblue" stroke="midnightblue" points="812.5,-253.757 809,-243.757 805.5,-253.757 812.5,-253.757"/>
</g>
<!-- Node27 -->
<g id="node27" class="node"><title>Node27</title>
<g id="a_node27"><a xlink:href="discrete__function_8hh.html" target="_top" xlink:title="discrete_function.hh">
<polygon fill="none" stroke="black" points="644,-224.5 644,-243.5 748,-243.5 748,-224.5 644,-224.5"/>
<text text-anchor="middle" x="696" y="-231.5" font-family="Helvetica,sans-Serif" font-size="10.00">discrete_function.hh</text>
</a>
</g>
</g>
<!-- Node1&#45;&gt;Node27 -->
<g id="edge35" class="edge"><title>Node1&#45;&gt;Node27</title>
<path fill="none" stroke="midnightblue" d="M769.16,-280.968C752.168,-270.291 732.968,-258.227 718.501,-249.138"/>
<polygon fill="midnightblue" stroke="midnightblue" points="720.079,-245.996 709.749,-243.639 716.354,-251.923 720.079,-245.996"/>
</g>
<!-- Node28 -->
<g id="node28" class="node"><title>Node28</title>
<g id="a_node28"><a xlink:href="nit__transform_8hh.html" target="_top" xlink:title="nonlinear/nit_transform.hh">
<polygon fill="none" stroke="black" points="1359.5,-224.5 1359.5,-243.5 1488.5,-243.5 1488.5,-224.5 1359.5,-224.5"/>
<text text-anchor="middle" x="1424" y="-231.5" font-family="Helvetica,sans-Serif" font-size="10.00">nonlinear/nit_transform.hh</text>
</a>
</g>
</g>
<!-- Node1&#45;&gt;Node28 -->
<g id="edge38" class="edge"><title>Node1&#45;&gt;Node28</title>
<path fill="none" stroke="midnightblue" d="M865.755,-299.448C977.109,-286.592 1224.2,-258.066 1348.91,-243.669"/>
<polygon fill="midnightblue" stroke="midnightblue" points="1349.6,-247.113 1359.13,-242.489 1348.79,-240.159 1349.6,-247.113"/>
</g>
<!-- Node42 -->
<g id="node42" class="node"><title>Node42</title>
<g id="a_node42"><a xlink:href="params_8hh.html" target="_top" xlink:title="params.hh">
<polygon fill="none" stroke="black" points="1689,-224.5 1689,-243.5 1751,-243.5 1751,-224.5 1689,-224.5"/>
<text text-anchor="middle" x="1720" y="-231.5" font-family="Helvetica,sans-Serif" font-size="10.00">params.hh</text>
</a>
</g>
</g>
<!-- Node1&#45;&gt;Node42 -->
<g id="edge72" class="edge"><title>Node1&#45;&gt;Node42</title>
<path fill="none" stroke="midnightblue" d="M865.643,-301.585C1034.4,-288.433 1531.23,-249.712 1678.44,-238.239"/>
<polygon fill="midnightblue" stroke="midnightblue" points="1679.13,-241.696 1688.83,-237.43 1678.58,-234.717 1679.13,-241.696"/>
</g>
<!-- Node4 -->
<g id="node4" class="node"><title>Node4</title>
<polygon fill="none" stroke="#bfbfbf" points="1144.5,-56.5 1144.5,-75.5 1193.5,-75.5 1193.5,-56.5 1144.5,-56.5"/>
<text text-anchor="middle" x="1169" y="-63.5" font-family="Helvetica,sans-Serif" font-size="10.00">istream</text>
</g>
<!-- Node3&#45;&gt;Node4 -->
<g id="edge3" class="edge"><title>Node3&#45;&gt;Node4</title>
<path fill="none" stroke="midnightblue" d="M809.596,-224.257C811.644,-201.617 820.457,-140.844 857,-112 899.392,-78.539 1061.87,-69.9251 1134.07,-67.7346"/>
<polygon fill="midnightblue" stroke="midnightblue" points="1134.55,-71.2227 1144.45,-67.4455 1134.35,-64.2254 1134.55,-71.2227"/>
</g>
<!-- Node5 -->
<g id="node5" class="node"><title>Node5</title>
<polygon fill="none" stroke="#bfbfbf" points="1410,-56.5 1410,-75.5 1462,-75.5 1462,-56.5 1410,-56.5"/>
<text text-anchor="middle" x="1436" y="-63.5" font-family="Helvetica,sans-Serif" font-size="10.00">ostream</text>
</g>
<!-- Node3&#45;&gt;Node5 -->
<g id="edge4" class="edge"><title>Node3&#45;&gt;Node5</title>
<path fill="none" stroke="midnightblue" d="M851.68,-231.288C917.911,-227.782 1048.96,-217.444 1156,-188 1254.64,-160.866 1363.86,-105.776 1411.52,-80.3771"/>
<polygon fill="midnightblue" stroke="midnightblue" points="1413.32,-83.3851 1420.47,-75.5692 1410,-77.2186 1413.32,-83.3851"/>
</g>
<!-- Node6 -->
<g id="node6" class="node"><title>Node6</title>
<g id="a_node6"><a xlink:href="grid_8hh.html" target="_top" xlink:title="grid.hh">
<polygon fill="none" stroke="black" points="735,-168.5 735,-187.5 781,-187.5 781,-168.5 735,-168.5"/>
<text text-anchor="middle" x="758" y="-175.5" font-family="Helvetica,sans-Serif" font-size="10.00">grid.hh</text>
</a>
</g>
</g>
<!-- Node3&#45;&gt;Node6 -->
<g id="edge5" class="edge"><title>Node3&#45;&gt;Node6</title>
<path fill="none" stroke="midnightblue" d="M800.578,-224.083C793.152,-216.22 782.148,-204.569 773.188,-195.081"/>
<polygon fill="midnightblue" stroke="midnightblue" points="775.676,-192.618 766.265,-187.751 770.587,-197.424 775.676,-192.618"/>
</g>
<!-- Node13 -->
<g id="node13" class="node"><title>Node13</title>
<g id="a_node13"><a xlink:href="output__flags_8hh.html" target="_top" xlink:title="output_flags.hh">
<polygon fill="none" stroke="black" points="1064.5,-168.5 1064.5,-187.5 1147.5,-187.5 1147.5,-168.5 1064.5,-168.5"/>
<text text-anchor="middle" x="1106" y="-175.5" font-family="Helvetica,sans-Serif" font-size="10.00">output_flags.hh</text>
</a>
</g>
</g>
<!-- Node3&#45;&gt;Node13 -->
<g id="edge14" class="edge"><title>Node3&#45;&gt;Node13</title>
<path fill="none" stroke="midnightblue" d="M851.553,-225.263C905.117,-215.524 997.055,-198.808 1054.52,-188.36"/>
<polygon fill="midnightblue" stroke="midnightblue" points="1055.27,-191.781 1064.48,-186.548 1054.02,-184.894 1055.27,-191.781"/>
</g>
<!-- Node17 -->
<g id="node17" class="node"><title>Node17</title>
<g id="a_node17"><a xlink:href="parallel__mt_8hh.html" target="_top" xlink:title="parallel_mt.hh">
<polygon fill="none" stroke="black" points="364.5,-112.5 364.5,-131.5 441.5,-131.5 441.5,-112.5 364.5,-112.5"/>
<text text-anchor="middle" x="403" y="-119.5" font-family="Helvetica,sans-Serif" font-size="10.00">parallel_mt.hh</text>
</a>
</g>
</g>
<!-- Node3&#45;&gt;Node17 -->
<g id="edge20" class="edge"><title>Node3&#45;&gt;Node17</title>
<path fill="none" stroke="midnightblue" d="M793.125,-224.383C760.936,-206.923 690.783,-168.937 688,-168 608.002,-141.064 509.833,-130.091 452.078,-125.737"/>
<polygon fill="midnightblue" stroke="midnightblue" points="452.002,-122.223 441.777,-124.999 451.501,-129.205 452.002,-122.223"/>
</g>
<!-- Node26 -->
<g id="node26" class="node"><title>Node26</title>
<g id="a_node26"><a xlink:href="types_8hh.html" target="_top" xlink:title="types.hh">
<polygon fill="none" stroke="black" points="625,-168.5 625,-187.5 679,-187.5 679,-168.5 625,-168.5"/>
<text text-anchor="middle" x="652" y="-175.5" font-family="Helvetica,sans-Serif" font-size="10.00">types.hh</text>
</a>
</g>
</g>
<!-- Node3&#45;&gt;Node26 -->
<g id="edge33" class="edge"><title>Node3&#45;&gt;Node26</title>
<path fill="none" stroke="midnightblue" d="M784.123,-224.444C757.711,-215.359 715.785,-200.939 686.258,-190.783"/>
<polygon fill="midnightblue" stroke="midnightblue" points="687.355,-187.459 676.761,-187.516 685.079,-194.079 687.355,-187.459"/>
</g>
<!-- Node6&#45;&gt;Node4 -->
<g id="edge6" class="edge"><title>Node6&#45;&gt;Node4</title>
<path fill="none" stroke="midnightblue" d="M760.274,-168.076C764.467,-153.623 774.885,-125.367 795,-112 850.182,-75.3296 1052.3,-68.5172 1134.19,-67.2705"/>
<polygon fill="midnightblue" stroke="midnightblue" points="1134.3,-70.7696 1144.25,-67.1366 1134.2,-63.7702 1134.3,-70.7696"/>
</g>
<!-- Node7 -->
<g id="node7" class="node"><title>Node7</title>
<g id="a_node7"><a xlink:href="blitz_8hh.html" target="_top" xlink:title="blitz.hh">
<polygon fill="none" stroke="black" points="717,-56.5 717,-75.5 765,-75.5 765,-56.5 717,-56.5"/>
<text text-anchor="middle" x="741" y="-63.5" font-family="Helvetica,sans-Serif" font-size="10.00">blitz.hh</text>
</a>
</g>
</g>
<!-- Node6&#45;&gt;Node7 -->
<g id="edge7" class="edge"><title>Node6&#45;&gt;Node7</title>
<path fill="none" stroke="midnightblue" d="M734.917,-170.824C698.381,-160.822 630.662,-141.265 624,-132 618.811,-124.783 618.968,-119.327 624,-112 628.983,-104.745 674.386,-88.6906 707.136,-77.8543"/>
<polygon fill="midnightblue" stroke="midnightblue" points="708.424,-81.1157 716.836,-74.6744 706.243,-74.464 708.424,-81.1157"/>
</g>
<!-- Node11 -->
<g id="node11" class="node"><title>Node11</title>
<g id="a_node11"><a xlink:href="validators_8hh.html" target="_top" xlink:title="validators.hh">
<polygon fill="none" stroke="black" points="633,-112.5 633,-131.5 705,-131.5 705,-112.5 633,-112.5"/>
<text text-anchor="middle" x="669" y="-119.5" font-family="Helvetica,sans-Serif" font-size="10.00">validators.hh</text>
</a>
</g>
</g>
<!-- Node6&#45;&gt;Node11 -->
<g id="edge11" class="edge"><title>Node6&#45;&gt;Node11</title>
<path fill="none" stroke="midnightblue" d="M743.701,-168.324C729.817,-159.9 708.508,-146.971 692.196,-137.074"/>
<polygon fill="midnightblue" stroke="midnightblue" points="693.629,-133.85 683.264,-131.655 689.998,-139.834 693.629,-133.85"/>
</g>
<!-- Node8 -->
<g id="node8" class="node"><title>Node8</title>
<polygon fill="none" stroke="#bfbfbf" points="357,-0.5 357,-19.5 413,-19.5 413,-0.5 357,-0.5"/>
<text text-anchor="middle" x="385" y="-7.5" font-family="Helvetica,sans-Serif" font-size="10.00">algorithm</text>
</g>
<!-- Node7&#45;&gt;Node8 -->
<g id="edge8" class="edge"><title>Node7&#45;&gt;Node8</title>
<path fill="none" stroke="midnightblue" d="M716.938,-58.2488C713.614,-57.4282 710.232,-56.6512 707,-56 605.471,-35.5446 484.067,-21.2946 423.434,-14.8628"/>
<polygon fill="midnightblue" stroke="midnightblue" points="423.498,-11.3504 413.188,-13.7892 422.768,-18.3122 423.498,-11.3504"/>
</g>
<!-- Node9 -->
<g id="node9" class="node"><title>Node9</title>
<polygon fill="none" stroke="#bfbfbf" points="733,-0.5 733,-19.5 801,-19.5 801,-0.5 733,-0.5"/>
<text text-anchor="middle" x="767" y="-7.5" font-family="Helvetica,sans-Serif" font-size="10.00">blitz/array.h</text>
</g>
<!-- Node7&#45;&gt;Node9 -->
<g id="edge9" class="edge"><title>Node7&#45;&gt;Node9</title>
<path fill="none" stroke="midnightblue" d="M745.293,-56.083C748.852,-48.6913 754.022,-37.9533 758.424,-28.8111"/>
<polygon fill="midnightblue" stroke="midnightblue" points="761.602,-30.2795 762.787,-19.7511 755.295,-27.2427 761.602,-30.2795"/>
</g>
<!-- Node10 -->
<g id="node10" class="node"><title>Node10</title>
<polygon fill="none" stroke="#bfbfbf" points="2088,-0.5 2088,-19.5 2132,-19.5 2132,-0.5 2088,-0.5"/>
<text text-anchor="middle" x="2110" y="-7.5" font-family="Helvetica,sans-Serif" font-size="10.00">cmath</text>
</g>
<!-- Node7&#45;&gt;Node10 -->
<g id="edge10" class="edge"><title>Node7&#45;&gt;Node10</title>
<path fill="none" stroke="midnightblue" d="M765.051,-64.0513C929.686,-57.5573 1889.41,-19.7011 2077.88,-12.2668"/>
<polygon fill="midnightblue" stroke="midnightblue" points="2078.12,-15.7602 2087.98,-11.8687 2077.85,-8.76563 2078.12,-15.7602"/>
</g>
<!-- Node11&#45;&gt;Node7 -->
<g id="edge13" class="edge"><title>Node11&#45;&gt;Node7</title>
<path fill="none" stroke="midnightblue" d="M680.568,-112.324C691.42,-104.185 707.881,-91.8395 720.883,-82.0874"/>
<polygon fill="midnightblue" stroke="midnightblue" points="723.321,-84.6339 729.221,-75.8339 719.121,-79.0339 723.321,-84.6339"/>
</g>
<!-- Node12 -->
<g id="node12" class="node"><title>Node12</title>
<polygon fill="none" stroke="#bfbfbf" points="639.5,-56.5 639.5,-75.5 698.5,-75.5 698.5,-56.5 639.5,-56.5"/>
<text text-anchor="middle" x="669" y="-63.5" font-family="Helvetica,sans-Serif" font-size="10.00">stdexcept</text>
</g>
<!-- Node11&#45;&gt;Node12 -->
<g id="edge12" class="edge"><title>Node11&#45;&gt;Node12</title>
<path fill="none" stroke="midnightblue" d="M669,-112.083C669,-105.006 669,-94.8611 669,-85.9865"/>
<polygon fill="midnightblue" stroke="midnightblue" points="672.5,-85.751 669,-75.7511 665.5,-85.7511 672.5,-85.751"/>
</g>
<!-- Node13&#45;&gt;Node4 -->
<g id="edge16" class="edge"><title>Node13&#45;&gt;Node4</title>
<path fill="none" stroke="midnightblue" d="M1110.94,-168.368C1121.29,-150.296 1145.42,-108.176 1159.09,-84.3074"/>
<polygon fill="midnightblue" stroke="midnightblue" points="1162.15,-86.0085 1164.08,-75.5914 1156.07,-82.5295 1162.15,-86.0085"/>
</g>
<!-- Node13&#45;&gt;Node5 -->
<g id="edge17" class="edge"><title>Node13&#45;&gt;Node5</title>
<path fill="none" stroke="midnightblue" d="M1119.08,-168.278C1140.52,-154.368 1184.88,-127.185 1226,-112 1284.85,-90.2685 1357.05,-77.6649 1399.63,-71.5775"/>
<polygon fill="midnightblue" stroke="midnightblue" points="1400.37,-75.0088 1409.79,-70.1687 1399.41,-68.0751 1400.37,-75.0088"/>
</g>
<!-- Node14 -->
<g id="node14" class="node"><title>Node14</title>
<polygon fill="none" stroke="#bfbfbf" points="1061.5,-112.5 1061.5,-131.5 1102.5,-131.5 1102.5,-112.5 1061.5,-112.5"/>
<text text-anchor="middle" x="1082" y="-119.5" font-family="Helvetica,sans-Serif" font-size="10.00">bitset</text>
</g>
<!-- Node13&#45;&gt;Node14 -->
<g id="edge15" class="edge"><title>Node13&#45;&gt;Node14</title>
<path fill="none" stroke="midnightblue" d="M1102.04,-168.083C1098.79,-160.77 1094.08,-150.181 1090.05,-141.103"/>
<polygon fill="midnightblue" stroke="midnightblue" points="1093.15,-139.468 1085.89,-131.751 1086.75,-142.311 1093.15,-139.468"/>
</g>
<!-- Node15 -->
<g id="node15" class="node"><title>Node15</title>
<polygon fill="none" stroke="#bfbfbf" points="1235.5,-112.5 1235.5,-131.5 1276.5,-131.5 1276.5,-112.5 1235.5,-112.5"/>
<text text-anchor="middle" x="1256" y="-119.5" font-family="Helvetica,sans-Serif" font-size="10.00">string</text>
</g>
<!-- Node13&#45;&gt;Node15 -->
<g id="edge18" class="edge"><title>Node13&#45;&gt;Node15</title>
<path fill="none" stroke="midnightblue" d="M1129.77,-168.444C1155.67,-159.12 1197.18,-144.177 1225.47,-133.991"/>
<polygon fill="midnightblue" stroke="midnightblue" points="1227.02,-137.153 1235.24,-130.473 1224.65,-130.567 1227.02,-137.153"/>
</g>
<!-- Node16 -->
<g id="node16" class="node"><title>Node16</title>
<polygon fill="none" stroke="#bfbfbf" points="981,-112.5 981,-131.5 1043,-131.5 1043,-112.5 981,-112.5"/>
<text text-anchor="middle" x="1012" y="-119.5" font-family="Helvetica,sans-Serif" font-size="10.00">type_traits</text>
</g>
<!-- Node13&#45;&gt;Node16 -->
<g id="edge19" class="edge"><title>Node13&#45;&gt;Node16</title>
<path fill="none" stroke="midnightblue" d="M1090.9,-168.324C1076.1,-159.822 1053.31,-146.729 1036.02,-136.797"/>
<polygon fill="midnightblue" stroke="midnightblue" points="1037.48,-133.601 1027.07,-131.655 1033.99,-139.671 1037.48,-133.601"/>
</g>
<!-- Node17&#45;&gt;Node2 -->
<g id="edge28" class="edge"><title>Node17&#45;&gt;Node2</title>
<path fill="none" stroke="midnightblue" d="M364.371,-115.525C289.154,-104.864 124.299,-81.4991 54.3793,-71.5892"/>
<polygon fill="midnightblue" stroke="midnightblue" points="54.779,-68.1109 44.3868,-70.1729 53.7966,-75.0417 54.779,-68.1109"/>
</g>
<!-- Node17&#45;&gt;Node4 -->
<g id="edge25" class="edge"><title>Node17&#45;&gt;Node4</title>
<path fill="none" stroke="midnightblue" d="M441.511,-118.285C573.725,-108.965 1007.92,-78.3553 1134.24,-69.4505"/>
<polygon fill="midnightblue" stroke="midnightblue" points="1134.76,-72.9229 1144.48,-68.7283 1134.26,-65.9402 1134.76,-72.9229"/>
</g>
<!-- Node17&#45;&gt;Node8 -->
<g id="edge22" class="edge"><title>Node17&#45;&gt;Node8</title>
<path fill="none" stroke="midnightblue" d="M364.473,-120.55C296.295,-118.849 158.76,-111.046 129,-76 123.246,-69.2244 123.285,-62.8078 129,-56 156.348,-23.4255 282.227,-14.4239 346.702,-11.9417"/>
<polygon fill="midnightblue" stroke="midnightblue" points="347,-15.4335 356.871,-11.5849 346.755,-8.43782 347,-15.4335"/>
</g>
<!-- Node17&#45;&gt;Node12 -->
<g id="edge27" class="edge"><title>Node17&#45;&gt;Node12</title>
<path fill="none" stroke="midnightblue" d="M441.634,-113.721C484.835,-105.497 557.138,-91.4838 629.067,-76.1472"/>
<polygon fill="midnightblue" stroke="midnightblue" points="630.165,-79.4914 639.211,-73.9748 628.7,-72.6466 630.165,-79.4914"/>
</g>
<!-- Node18 -->
<g id="node18" class="node"><title>Node18</title>
<polygon fill="none" stroke="#bfbfbf" points="191.5,-56.5 191.5,-75.5 236.5,-75.5 236.5,-56.5 191.5,-56.5"/>
<text text-anchor="middle" x="214" y="-63.5" font-family="Helvetica,sans-Serif" font-size="10.00">cstdlib</text>
</g>
<!-- Node17&#45;&gt;Node18 -->
<g id="edge21" class="edge"><title>Node17&#45;&gt;Node18</title>
<path fill="none" stroke="midnightblue" d="M373.052,-112.444C338.568,-102.591 282.117,-86.4621 246.565,-76.3044"/>
<polygon fill="midnightblue" stroke="midnightblue" points="247.266,-72.8646 236.689,-73.4826 245.343,-79.5952 247.266,-72.8646"/>
</g>
<!-- Node19 -->
<g id="node19" class="node"><title>Node19</title>
<polygon fill="none" stroke="#bfbfbf" points="255,-56.5 255,-75.5 301,-75.5 301,-56.5 255,-56.5"/>
<text text-anchor="middle" x="278" y="-63.5" font-family="Helvetica,sans-Serif" font-size="10.00">cstdint</text>
</g>
<!-- Node17&#45;&gt;Node19 -->
<g id="edge23" class="edge"><title>Node17&#45;&gt;Node19</title>
<path fill="none" stroke="midnightblue" d="M383.193,-112.444C362.713,-103.596 330.517,-89.6875 307.135,-79.5865"/>
<polygon fill="midnightblue" stroke="midnightblue" points="308.282,-76.2692 297.714,-75.5164 305.506,-82.6953 308.282,-76.2692"/>
</g>
<!-- Node20 -->
<g id="node20" class="node"><title>Node20</title>
<polygon fill="none" stroke="#bfbfbf" points="319,-56.5 319,-75.5 365,-75.5 365,-56.5 319,-56.5"/>
<text text-anchor="middle" x="342" y="-63.5" font-family="Helvetica,sans-Serif" font-size="10.00">cstring</text>
</g>
<!-- Node17&#45;&gt;Node20 -->
<g id="edge24" class="edge"><title>Node17&#45;&gt;Node20</title>
<path fill="none" stroke="midnightblue" d="M393.199,-112.324C384.182,-104.341 370.594,-92.3128 359.682,-82.6529"/>
<polygon fill="midnightblue" stroke="midnightblue" points="361.787,-79.8416 351.979,-75.8339 357.147,-85.083 361.787,-79.8416"/>
</g>
<!-- Node21 -->
<g id="node21" class="node"><title>Node21</title>
<polygon fill="none" stroke="#bfbfbf" points="383,-56.5 383,-75.5 423,-75.5 423,-56.5 383,-56.5"/>
<text text-anchor="middle" x="403" y="-63.5" font-family="Helvetica,sans-Serif" font-size="10.00">limits</text>
</g>
<!-- Node17&#45;&gt;Node21 -->
<g id="edge26" class="edge"><title>Node17&#45;&gt;Node21</title>
<path fill="none" stroke="midnightblue" d="M403,-112.083C403,-105.006 403,-94.8611 403,-85.9865"/>
<polygon fill="midnightblue" stroke="midnightblue" points="406.5,-85.751 403,-75.7511 399.5,-85.7511 406.5,-85.751"/>
</g>
<!-- Node22 -->
<g id="node22" class="node"><title>Node22</title>
<polygon fill="none" stroke="#bfbfbf" points="441,-56.5 441,-75.5 491,-75.5 491,-56.5 441,-56.5"/>
<text text-anchor="middle" x="466" y="-63.5" font-family="Helvetica,sans-Serif" font-size="10.00">fstream</text>
</g>
<!-- Node17&#45;&gt;Node22 -->
<g id="edge29" class="edge"><title>Node17&#45;&gt;Node22</title>
<path fill="none" stroke="midnightblue" d="M413.122,-112.324C422.526,-104.263 436.744,-92.0765 448.069,-82.3695"/>
<polygon fill="midnightblue" stroke="midnightblue" points="450.379,-84.9993 455.694,-75.8339 445.823,-79.6844 450.379,-84.9993"/>
</g>
<!-- Node23 -->
<g id="node23" class="node"><title>Node23</title>
<polygon fill="none" stroke="#bfbfbf" points="509.5,-56.5 509.5,-75.5 556.5,-75.5 556.5,-56.5 509.5,-56.5"/>
<text text-anchor="middle" x="533" y="-63.5" font-family="Helvetica,sans-Serif" font-size="10.00">iterator</text>
</g>
<!-- Node17&#45;&gt;Node23 -->
<g id="edge30" class="edge"><title>Node17&#45;&gt;Node23</title>
<path fill="none" stroke="midnightblue" d="M423.599,-112.444C444.993,-103.557 478.681,-89.5632 503.024,-79.4514"/>
<polygon fill="midnightblue" stroke="midnightblue" points="504.605,-82.5848 512.497,-75.5164 501.92,-76.1203 504.605,-82.5848"/>
</g>
<!-- Node24 -->
<g id="node24" class="node"><title>Node24</title>
<polygon fill="none" stroke="#bfbfbf" points="575,-56.5 575,-75.5 621,-75.5 621,-56.5 575,-56.5"/>
<text text-anchor="middle" x="598" y="-63.5" font-family="Helvetica,sans-Serif" font-size="10.00">chrono</text>
</g>
<!-- Node17&#45;&gt;Node24 -->
<g id="edge31" class="edge"><title>Node17&#45;&gt;Node24</title>
<path fill="none" stroke="midnightblue" d="M433.898,-112.444C469.728,-102.522 528.543,-86.2343 565.174,-76.0904"/>
<polygon fill="midnightblue" stroke="midnightblue" points="566.176,-79.4445 574.879,-73.4026 564.308,-72.6984 566.176,-79.4445"/>
</g>
<!-- Node25 -->
<g id="node25" class="node"><title>Node25</title>
<polygon fill="none" stroke="#bfbfbf" points="138.5,-56.5 138.5,-75.5 173.5,-75.5 173.5,-56.5 138.5,-56.5"/>
<text text-anchor="middle" x="156" y="-63.5" font-family="Helvetica,sans-Serif" font-size="10.00">dc.h</text>
</g>
<!-- Node17&#45;&gt;Node25 -->
<g id="edge32" class="edge"><title>Node17&#45;&gt;Node25</title>
<path fill="none" stroke="midnightblue" d="M364.309,-114.722C321.896,-107.488 251.733,-94.4914 183.183,-76.0559"/>
<polygon fill="midnightblue" stroke="midnightblue" points="184.092,-72.6763 173.523,-73.4186 182.248,-79.4291 184.092,-72.6763"/>
</g>
<!-- Node26&#45;&gt;Node9 -->
<g id="edge34" class="edge"><title>Node26&#45;&gt;Node9</title>
<path fill="none" stroke="midnightblue" d="M624.637,-175.276C507.589,-167.414 58.1533,-132.02 129,-56 149.241,-34.281 581.059,-17.4406 722.548,-12.4888"/>
<polygon fill="midnightblue" stroke="midnightblue" points="722.741,-15.9843 732.614,-12.1395 722.499,-8.98848 722.741,-15.9843"/>
</g>
<!-- Node27&#45;&gt;Node6 -->
<g id="edge36" class="edge"><title>Node27&#45;&gt;Node6</title>
<path fill="none" stroke="midnightblue" d="M705.961,-224.324C715.127,-216.341 728.937,-204.313 740.028,-194.653"/>
<polygon fill="midnightblue" stroke="midnightblue" points="742.615,-197.041 747.857,-187.834 738.018,-191.762 742.615,-197.041"/>
</g>
<!-- Node27&#45;&gt;Node26 -->
<g id="edge37" class="edge"><title>Node27&#45;&gt;Node26</title>
<path fill="none" stroke="midnightblue" d="M688.734,-224.083C682.455,-216.377 673.212,-205.033 665.569,-195.653"/>
<polygon fill="midnightblue" stroke="midnightblue" points="668.161,-193.293 659.131,-187.751 662.734,-197.714 668.161,-193.293"/>
</g>
<!-- Node28&#45;&gt;Node4 -->
<g id="edge39" class="edge"><title>Node28&#45;&gt;Node4</title>
<path fill="none" stroke="midnightblue" d="M1398.67,-224.429C1358.74,-210.021 1280.14,-177.945 1226,-132 1208.92,-117.5 1192.37,-97.8056 1181.55,-83.9067"/>
<polygon fill="midnightblue" stroke="midnightblue" points="1184.16,-81.5566 1175.31,-75.7229 1178.59,-85.7986 1184.16,-81.5566"/>
</g>
<!-- Node28&#45;&gt;Node5 -->
<g id="edge40" class="edge"><title>Node28&#45;&gt;Node5</title>
<path fill="none" stroke="midnightblue" d="M1471.19,-224.457C1545.28,-208.994 1675.77,-172.262 1628,-112 1608.94,-87.9543 1522.44,-75.5196 1472.28,-70.225"/>
<polygon fill="midnightblue" stroke="midnightblue" points="1472.47,-66.7263 1462.17,-69.202 1471.77,-73.6908 1472.47,-66.7263"/>
</g>
<!-- Node28&#45;&gt;Node26 -->
<g id="edge65" class="edge"><title>Node28&#45;&gt;Node26</title>
<path fill="none" stroke="midnightblue" d="M1359.43,-230.062C1236.14,-224.18 958.753,-209.639 726,-188 713.94,-186.879 700.808,-185.375 689,-183.917"/>
<polygon fill="midnightblue" stroke="midnightblue" points="689.383,-180.438 679.024,-182.659 688.507,-187.383 689.383,-180.438"/>
</g>
<!-- Node29 -->
<g id="node29" class="node"><title>Node29</title>
<g id="a_node29"><a xlink:href="gaussian_8hh.html" target="_top" xlink:title="stats/gaussian.hh">
<polygon fill="none" stroke="black" points="1525,-112.5 1525,-131.5 1619,-131.5 1619,-112.5 1525,-112.5"/>
<text text-anchor="middle" x="1572" y="-119.5" font-family="Helvetica,sans-Serif" font-size="10.00">stats/gaussian.hh</text>
</a>
</g>
</g>
<!-- Node28&#45;&gt;Node29 -->
<g id="edge41" class="edge"><title>Node28&#45;&gt;Node29</title>
<path fill="none" stroke="midnightblue" d="M1437.11,-224.257C1450.35,-215.347 1471.32,-201.026 1489,-188 1511.59,-171.36 1536.88,-151.343 1553.54,-137.959"/>
<polygon fill="midnightblue" stroke="midnightblue" points="1555.82,-140.619 1561.41,-131.618 1551.43,-135.169 1555.82,-140.619"/>
</g>
<!-- Node31 -->
<g id="node31" class="node"><title>Node31</title>
<g id="a_node31"><a xlink:href="skew__normal_8hh.html" target="_top" xlink:title="stats/skew_normal.hh">
<polygon fill="none" stroke="black" points="1367.5,-168.5 1367.5,-187.5 1480.5,-187.5 1480.5,-168.5 1367.5,-168.5"/>
<text text-anchor="middle" x="1424" y="-175.5" font-family="Helvetica,sans-Serif" font-size="10.00">stats/skew_normal.hh</text>
</a>
</g>
</g>
<!-- Node28&#45;&gt;Node31 -->
<g id="edge45" class="edge"><title>Node28&#45;&gt;Node31</title>
<path fill="none" stroke="midnightblue" d="M1424,-224.083C1424,-217.006 1424,-206.861 1424,-197.986"/>
<polygon fill="midnightblue" stroke="midnightblue" points="1427.5,-197.751 1424,-187.751 1420.5,-197.751 1427.5,-197.751"/>
</g>
<!-- Node33 -->
<g id="node33" class="node"><title>Node33</title>
<g id="a_node33"><a xlink:href="gram__charlier_8hh.html" target="_top" xlink:title="stats/gram_charlier.hh">
<polygon fill="none" stroke="black" points="2152.5,-112.5 2152.5,-131.5 2265.5,-131.5 2265.5,-112.5 2152.5,-112.5"/>
<text text-anchor="middle" x="2209" y="-119.5" font-family="Helvetica,sans-Serif" font-size="10.00">stats/gram_charlier.hh</text>
</a>
</g>
</g>
<!-- Node28&#45;&gt;Node33 -->
<g id="edge50" class="edge"><title>Node28&#45;&gt;Node33</title>
<path fill="none" stroke="midnightblue" d="M1488.7,-232.344C1567.04,-230.005 1702.23,-220.983 1813,-188 1832.05,-182.328 1833.98,-173.772 1853,-168 1975.17,-130.923 2011.34,-148.028 2138,-132 2139.46,-131.815 2140.94,-131.627 2142.44,-131.438"/>
<polygon fill="midnightblue" stroke="midnightblue" points="2142.94,-134.903 2152.42,-130.175 2142.06,-127.959 2142.94,-134.903"/>
</g>
<!-- Node35 -->
<g id="node35" class="node"><title>Node35</title>
<g id="a_node35"><a xlink:href="linalg_8hh.html" target="_top" xlink:title="linalg.hh">
<polygon fill="none" stroke="black" points="1751.5,-168.5 1751.5,-187.5 1804.5,-187.5 1804.5,-168.5 1751.5,-168.5"/>
<text text-anchor="middle" x="1778" y="-175.5" font-family="Helvetica,sans-Serif" font-size="10.00">linalg.hh</text>
</a>
</g>
</g>
<!-- Node28&#45;&gt;Node35 -->
<g id="edge56" class="edge"><title>Node28&#45;&gt;Node35</title>
<path fill="none" stroke="midnightblue" d="M1480.09,-224.444C1553.26,-213.283 1679.22,-194.068 1741.27,-184.602"/>
<polygon fill="midnightblue" stroke="midnightblue" points="1742.02,-188.029 1751.38,-183.061 1740.96,-181.109 1742.02,-188.029"/>
</g>
<!-- Node40 -->
<g id="node40" class="node"><title>Node40</title>
<g id="a_node40"><a xlink:href="domain_8hh.html" target="_top" xlink:title="domain.hh">
<polygon fill="none" stroke="black" points="853,-168.5 853,-187.5 915,-187.5 915,-168.5 853,-168.5"/>
<text text-anchor="middle" x="884" y="-175.5" font-family="Helvetica,sans-Serif" font-size="10.00">domain.hh</text>
</a>
</g>
</g>
<!-- Node28&#45;&gt;Node40 -->
<g id="edge66" class="edge"><title>Node28&#45;&gt;Node40</title>
<path fill="none" stroke="midnightblue" d="M1359.4,-226.54C1247.13,-215.313 1019.06,-192.506 925.485,-183.148"/>
<polygon fill="midnightblue" stroke="midnightblue" points="925.578,-179.64 915.279,-182.128 924.881,-186.606 925.578,-179.64"/>
</g>
<!-- Node29&#45;&gt;Node4 -->
<g id="edge42" class="edge"><title>Node29&#45;&gt;Node4</title>
<path fill="none" stroke="midnightblue" d="M1524.74,-113.436C1521.44,-112.94 1518.17,-112.457 1515,-112 1401.36,-95.6416 1266.33,-78.839 1203.88,-71.2169"/>
<polygon fill="midnightblue" stroke="midnightblue" points="1204.13,-67.7224 1193.79,-69.988 1203.29,-74.6711 1204.13,-67.7224"/>
</g>
<!-- Node29&#45;&gt;Node5 -->
<g id="edge43" class="edge"><title>Node29&#45;&gt;Node5</title>
<path fill="none" stroke="midnightblue" d="M1550.45,-112.444C1527.97,-103.517 1492.51,-89.4387 1467.02,-79.3168"/>
<polygon fill="midnightblue" stroke="midnightblue" points="1468.03,-75.9539 1457.45,-75.5164 1465.45,-82.4598 1468.03,-75.9539"/>
</g>
<!-- Node30 -->
<g id="node30" class="node"><title>Node30</title>
<polygon fill="none" stroke="#bfbfbf" points="1536,-56.5 1536,-75.5 1608,-75.5 1608,-56.5 1536,-56.5"/>
<text text-anchor="middle" x="1572" y="-63.5" font-family="Helvetica,sans-Serif" font-size="10.00">gsl/gsl_cdf.h</text>
</g>
<!-- Node29&#45;&gt;Node30 -->
<g id="edge44" class="edge"><title>Node29&#45;&gt;Node30</title>
<path fill="none" stroke="midnightblue" d="M1572,-112.083C1572,-105.006 1572,-94.8611 1572,-85.9865"/>
<polygon fill="midnightblue" stroke="midnightblue" points="1575.5,-85.751 1572,-75.7511 1568.5,-85.7511 1575.5,-85.751"/>
</g>
<!-- Node31&#45;&gt;Node4 -->
<g id="edge46" class="edge"><title>Node31&#45;&gt;Node4</title>
<path fill="none" stroke="midnightblue" d="M1406.62,-168.41C1380.47,-155.592 1329.34,-130.943 1285,-112 1257.19,-100.119 1225.1,-87.7749 1201.74,-79.0271"/>
<polygon fill="midnightblue" stroke="midnightblue" points="1202.89,-75.7206 1192.29,-75.5101 1200.44,-82.2804 1202.89,-75.7206"/>
</g>
<!-- Node31&#45;&gt;Node5 -->
<g id="edge47" class="edge"><title>Node31&#45;&gt;Node5</title>
<path fill="none" stroke="midnightblue" d="M1416.7,-168.202C1407.28,-155.737 1392.91,-132.205 1400,-112 1403.79,-101.209 1411.37,-91.084 1418.6,-83.1808"/>
<polygon fill="midnightblue" stroke="midnightblue" points="1421.33,-85.4005 1425.84,-75.8145 1416.33,-80.4943 1421.33,-85.4005"/>
</g>
<!-- Node31&#45;&gt;Node29 -->
<g id="edge48" class="edge"><title>Node31&#45;&gt;Node29</title>
<path fill="none" stroke="midnightblue" d="M1447.45,-168.444C1472.13,-159.438 1511.19,-145.189 1538.98,-135.049"/>
<polygon fill="midnightblue" stroke="midnightblue" points="1540.46,-138.232 1548.66,-131.516 1538.06,-131.656 1540.46,-138.232"/>
</g>
<!-- Node32 -->
<g id="node32" class="node"><title>Node32</title>
<g id="a_node32"><a xlink:href="owen__t_8hh.html" target="_top" xlink:title="apmath/owen_t.hh">
<polygon fill="none" stroke="black" points="1409.5,-112.5 1409.5,-131.5 1506.5,-131.5 1506.5,-112.5 1409.5,-112.5"/>
<text text-anchor="middle" x="1458" y="-119.5" font-family="Helvetica,sans-Serif" font-size="10.00">apmath/owen_t.hh</text>
</a>
</g>
</g>
<!-- Node31&#45;&gt;Node32 -->
<g id="edge49" class="edge"><title>Node31&#45;&gt;Node32</title>
<path fill="none" stroke="midnightblue" d="M1429.61,-168.083C1434.37,-160.534 1441.32,-149.495 1447.15,-140.23"/>
<polygon fill="midnightblue" stroke="midnightblue" points="1450.12,-142.078 1452.49,-131.751 1444.2,-138.349 1450.12,-142.078"/>
</g>
<!-- Node33&#45;&gt;Node4 -->
<g id="edge51" class="edge"><title>Node33&#45;&gt;Node4</title>
<path fill="none" stroke="midnightblue" d="M2152.36,-115.754C2136.7,-114.411 2119.7,-113.05 2104,-112 1923.86,-99.9489 1352.08,-74.9183 1204.19,-68.5168"/>
<polygon fill="midnightblue" stroke="midnightblue" points="1204.04,-65.0071 1193.9,-68.0717 1203.74,-72.0006 1204.04,-65.0071"/>
</g>
<!-- Node33&#45;&gt;Node5 -->
<g id="edge52" class="edge"><title>Node33&#45;&gt;Node5</title>
<path fill="none" stroke="midnightblue" d="M2152.35,-115.902C2136.69,-114.559 2119.69,-113.162 2104,-112 1847.76,-93.0271 1783.11,-96.6477 1527,-76 1509.09,-74.5558 1489.22,-72.629 1472.63,-70.9288"/>
<polygon fill="midnightblue" stroke="midnightblue" points="1472.57,-67.4032 1462.26,-69.8516 1471.84,-74.3658 1472.57,-67.4032"/>
</g>
<!-- Node33&#45;&gt;Node10 -->
<g id="edge53" class="edge"><title>Node33&#45;&gt;Node10</title>
<path fill="none" stroke="midnightblue" d="M2201.23,-112.368C2184.68,-93.9744 2145.7,-50.6712 2124.45,-27.0519"/>
<polygon fill="midnightblue" stroke="midnightblue" points="2127.02,-24.683 2117.73,-19.5914 2121.82,-29.3658 2127.02,-24.683"/>
</g>
<!-- Node34 -->
<g id="node34" class="node"><title>Node34</title>
<g id="a_node34"><a xlink:href="physical__constants_8hh.html" target="_top" xlink:title="physical_constants.hh">
<polygon fill="none" stroke="black" points="2190,-56.5 2190,-75.5 2304,-75.5 2304,-56.5 2190,-56.5"/>
<text text-anchor="middle" x="2247" y="-63.5" font-family="Helvetica,sans-Serif" font-size="10.00">physical_constants.hh</text>
</a>
</g>
</g>
<!-- Node33&#45;&gt;Node34 -->
<g id="edge54" class="edge"><title>Node33&#45;&gt;Node34</title>
<path fill="none" stroke="midnightblue" d="M2215.27,-112.083C2220.64,-104.455 2228.52,-93.2645 2235.08,-83.9408"/>
<polygon fill="midnightblue" stroke="midnightblue" points="2237.95,-85.9434 2240.84,-75.7511 2232.22,-81.9149 2237.95,-85.9434"/>
</g>
<!-- Node34&#45;&gt;Node10 -->
<g id="edge55" class="edge"><title>Node34&#45;&gt;Node10</title>
<path fill="none" stroke="midnightblue" d="M2225.29,-56.4435C2202.65,-47.5171 2166.93,-33.4387 2141.25,-23.3168"/>
<polygon fill="midnightblue" stroke="midnightblue" points="2142.19,-19.9273 2131.61,-19.5164 2139.63,-26.4397 2142.19,-19.9273"/>
</g>
<!-- Node35&#45;&gt;Node9 -->
<g id="edge58" class="edge"><title>Node35&#45;&gt;Node9</title>
<path fill="none" stroke="midnightblue" d="M1804.65,-168.968C1806.12,-168.618 1807.57,-168.292 1809,-168 1939.74,-141.226 2192.81,-211.609 2104,-112 2016.12,-13.4379 1033.63,-10.2498 811.467,-10.798"/>
<polygon fill="midnightblue" stroke="midnightblue" points="811.161,-7.29879 801.171,-10.8276 811.181,-14.2988 811.161,-7.29879"/>
</g>
<!-- Node36 -->
<g id="node36" class="node"><title>Node36</title>
<polygon fill="none" stroke="#bfbfbf" points="1897.5,-112.5 1897.5,-131.5 1946.5,-131.5 1946.5,-112.5 1897.5,-112.5"/>
<text text-anchor="middle" x="1922" y="-119.5" font-family="Helvetica,sans-Serif" font-size="10.00">cassert</text>
</g>
<!-- Node35&#45;&gt;Node36 -->
<g id="edge57" class="edge"><title>Node35&#45;&gt;Node36</title>
<path fill="none" stroke="midnightblue" d="M1800.82,-168.444C1824.83,-159.438 1862.83,-145.189 1889.87,-135.049"/>
<polygon fill="midnightblue" stroke="midnightblue" points="1891.16,-138.305 1899.29,-131.516 1888.7,-131.751 1891.16,-138.305"/>
</g>
<!-- Node37 -->
<g id="node37" class="node"><title>Node37</title>
<polygon fill="none" stroke="#bfbfbf" points="1675.5,-112.5 1675.5,-131.5 1770.5,-131.5 1770.5,-112.5 1675.5,-112.5"/>
<text text-anchor="middle" x="1723" y="-119.5" font-family="Helvetica,sans-Serif" font-size="10.00">lapacke/lapacke.h</text>
</g>
<!-- Node35&#45;&gt;Node37 -->
<g id="edge59" class="edge"><title>Node35&#45;&gt;Node37</title>
<path fill="none" stroke="midnightblue" d="M1768.92,-168.083C1760.83,-160.141 1748.8,-148.335 1739.09,-138.797"/>
<polygon fill="midnightblue" stroke="midnightblue" points="1741.5,-136.26 1731.91,-131.751 1736.6,-141.254 1741.5,-136.26"/>
</g>
<!-- Node38 -->
<g id="node38" class="node"><title>Node38</title>
<polygon fill="none" stroke="#bfbfbf" points="1789,-112.5 1789,-131.5 1879,-131.5 1879,-112.5 1789,-112.5"/>
<text text-anchor="middle" x="1834" y="-119.5" font-family="Helvetica,sans-Serif" font-size="10.00">openblas/cblas.h</text>
</g>
<!-- Node35&#45;&gt;Node38 -->
<g id="edge60" class="edge"><title>Node35&#45;&gt;Node38</title>
<path fill="none" stroke="midnightblue" d="M1787,-168.324C1795.19,-160.42 1807.51,-148.548 1817.47,-138.938"/>
<polygon fill="midnightblue" stroke="midnightblue" points="1820.07,-141.295 1824.84,-131.834 1815.21,-136.256 1820.07,-141.295"/>
</g>
<!-- Node39 -->
<g id="node39" class="node"><title>Node39</title>
<g id="a_node39"><a xlink:href="closed__interval_8hh.html" target="_top" xlink:title="apmath/closed_interval.hh">
<polygon fill="none" stroke="black" points="1964.5,-112.5 1964.5,-131.5 2095.5,-131.5 2095.5,-112.5 1964.5,-112.5"/>
<text text-anchor="middle" x="2030" y="-119.5" font-family="Helvetica,sans-Serif" font-size="10.00">apmath/closed_interval.hh</text>
</a>
</g>
</g>
<!-- Node35&#45;&gt;Node39 -->
<g id="edge61" class="edge"><title>Node35&#45;&gt;Node39</title>
<path fill="none" stroke="midnightblue" d="M1804.9,-171.071C1809.6,-170.042 1814.44,-168.986 1819,-168 1873.9,-156.119 1936.9,-142.714 1979.66,-133.649"/>
<polygon fill="midnightblue" stroke="midnightblue" points="1980.48,-137.052 1989.53,-131.555 1979.03,-130.205 1980.48,-137.052"/>
</g>
<!-- Node39&#45;&gt;Node4 -->
<g id="edge62" class="edge"><title>Node39&#45;&gt;Node4</title>
<path fill="none" stroke="midnightblue" d="M1964.17,-112.866C1961.07,-112.557 1958,-112.266 1955,-112 1665.45,-86.3637 1314.55,-72.2659 1204.05,-68.2279"/>
<polygon fill="midnightblue" stroke="midnightblue" points="1203.94,-64.7218 1193.82,-67.8579 1203.69,-71.7172 1203.94,-64.7218"/>
</g>
<!-- Node39&#45;&gt;Node5 -->
<g id="edge63" class="edge"><title>Node39&#45;&gt;Node5</title>
<path fill="none" stroke="midnightblue" d="M1964.16,-112.966C1961.07,-112.63 1958,-112.306 1955,-112 1765.09,-92.6249 1717.1,-93.3944 1527,-76 1509.1,-74.3624 1489.24,-72.4132 1472.65,-70.7482"/>
<polygon fill="midnightblue" stroke="midnightblue" points="1472.57,-67.2229 1462.27,-69.7013 1471.87,-74.1876 1472.57,-67.2229"/>
</g>
<!-- Node39&#45;&gt;Node10 -->
<g id="edge64" class="edge"><title>Node39&#45;&gt;Node10</title>
<path fill="none" stroke="midnightblue" d="M2036.28,-112.368C2049.48,-94.2153 2080.33,-51.8015 2097.64,-27.9902"/>
<polygon fill="midnightblue" stroke="midnightblue" points="2100.7,-29.7374 2103.75,-19.5914 2095.04,-25.6202 2100.7,-29.7374"/>
</g>
<!-- Node40&#45;&gt;Node4 -->
<g id="edge67" class="edge"><title>Node40&#45;&gt;Node4</title>
<path fill="none" stroke="midnightblue" d="M877.19,-168.339C867.384,-154.757 851.929,-128.316 866,-112 900.276,-72.2577 1061.8,-67.0479 1133.99,-66.7461"/>
<polygon fill="midnightblue" stroke="midnightblue" points="1134.38,-70.2458 1144.37,-66.7345 1134.37,-63.2458 1134.38,-70.2458"/>
</g>
<!-- Node40&#45;&gt;Node5 -->
<g id="edge68" class="edge"><title>Node40&#45;&gt;Node5</title>
<path fill="none" stroke="midnightblue" d="M892.272,-168.386C906.831,-153.852 938.663,-124.794 972,-112 1050.11,-82.0238 1304.69,-71.1152 1399.76,-68.0273"/>
<polygon fill="midnightblue" stroke="midnightblue" points="1399.88,-71.5255 1409.76,-67.7124 1399.66,-64.529 1399.88,-71.5255"/>
</g>
<!-- Node40&#45;&gt;Node9 -->
<g id="edge70" class="edge"><title>Node40&#45;&gt;Node9</title>
<path fill="none" stroke="midnightblue" d="M877.71,-168.075C858.974,-141.493 803.325,-62.5379 778.815,-27.7633"/>
<polygon fill="midnightblue" stroke="midnightblue" points="781.661,-25.7255 773.039,-19.5681 775.939,-29.7583 781.661,-25.7255"/>
</g>
<!-- Node40&#45;&gt;Node11 -->
<g id="edge71" class="edge"><title>Node40&#45;&gt;Node11</title>
<path fill="none" stroke="midnightblue" d="M852.737,-169.148C815.94,-159.906 754.591,-144.497 713.003,-134.052"/>
<polygon fill="midnightblue" stroke="midnightblue" points="713.695,-130.617 703.143,-131.576 711.99,-137.406 713.695,-130.617"/>
</g>
<!-- Node41 -->
<g id="node41" class="node"><title>Node41</title>
<polygon fill="none" stroke="#bfbfbf" points="875,-112.5 875,-131.5 925,-131.5 925,-112.5 875,-112.5"/>
<text text-anchor="middle" x="900" y="-119.5" font-family="Helvetica,sans-Serif" font-size="10.00">iomanip</text>
</g>
<!-- Node40&#45;&gt;Node41 -->
<g id="edge69" class="edge"><title>Node40&#45;&gt;Node41</title>
<path fill="none" stroke="midnightblue" d="M886.642,-168.083C888.786,-160.849 891.879,-150.409 894.549,-141.397"/>
<polygon fill="midnightblue" stroke="midnightblue" points="897.922,-142.333 897.407,-131.751 891.21,-140.345 897.922,-142.333"/>
</g>
<!-- Node42&#45;&gt;Node15 -->
<g id="edge74" class="edge"><title>Node42&#45;&gt;Node15</title>
<path fill="none" stroke="midnightblue" d="M1688.91,-233.671C1624.94,-234.085 1474.79,-230.041 1358,-188 1325.96,-176.467 1293.58,-153.463 1274.15,-138.149"/>
<polygon fill="midnightblue" stroke="midnightblue" points="1276.16,-135.275 1266.18,-131.722 1271.77,-140.724 1276.16,-135.275"/>
</g>
<!-- Node43 -->
<g id="node43" class="node"><title>Node43</title>
<polygon fill="none" stroke="#bfbfbf" points="1962.5,-168.5 1962.5,-187.5 2021.5,-187.5 2021.5,-168.5 1962.5,-168.5"/>
<text text-anchor="middle" x="1992" y="-175.5" font-family="Helvetica,sans-Serif" font-size="10.00">functional</text>
</g>
<!-- Node42&#45;&gt;Node43 -->
<g id="edge73" class="edge"><title>Node42&#45;&gt;Node43</title>
<path fill="none" stroke="midnightblue" d="M1751.35,-227.316C1794.32,-219.444 1874.16,-204.532 1952.21,-188.105"/>
<polygon fill="midnightblue" stroke="midnightblue" points="1953.15,-191.484 1962.21,-185.99 1951.71,-184.635 1953.15,-191.484"/>
</g>
<!-- Node44 -->
<g id="node44" class="node"><title>Node44</title>
<polygon fill="none" stroke="#bfbfbf" points="1861.5,-168.5 1861.5,-187.5 1944.5,-187.5 1944.5,-168.5 1861.5,-168.5"/>
<text text-anchor="middle" x="1903" y="-175.5" font-family="Helvetica,sans-Serif" font-size="10.00">unordered_map</text>
</g>
<!-- Node42&#45;&gt;Node44 -->
<g id="edge75" class="edge"><title>Node42&#45;&gt;Node44</title>
<path fill="none" stroke="midnightblue" d="M1749,-224.444C1780.18,-215.241 1829.93,-200.562 1864.41,-190.388"/>
<polygon fill="midnightblue" stroke="midnightblue" points="1865.54,-193.704 1874.14,-187.516 1863.56,-186.99 1865.54,-193.704"/>
</g>
</g>
</svg>
