<?xml version="1.0" encoding="UTF-8" standalone="no"?>
<!DOCTYPE svg PUBLIC "-//W3C//DTD SVG 1.1//EN"
 "http://www.w3.org/Graphics/SVG/1.1/DTD/svg11.dtd">
<!-- Generated by graphviz version 2.36.0 (20140111.2315)
 -->
<!-- Title: /home/travis/build/igankevich/arma/src/generator/basic_arma_model.hh Pages: 1 -->
<svg width="467pt" height="386pt"
 viewBox="0.00 0.00 467.20 386.00" xmlns="http://www.w3.org/2000/svg" xmlns:xlink="http://www.w3.org/1999/xlink">
<g id="graph0" class="graph" transform="scale(1 1) rotate(0) translate(4 382)">
<title>/home/travis/build/igankevich/arma/src/generator/basic_arma_model.hh</title>
<!-- Node1 -->
<g id="node1" class="node"><title>Node1</title>
<polygon fill="#bfbfbf" stroke="black" points="205.703,-325 205.703,-377 318.703,-377 318.703,-325 205.703,-325"/>
<text text-anchor="start" x="213.703" y="-365" font-family="Helvetica,sans-Serif" font-size="10.00">/home/travis/build</text>
<text text-anchor="start" x="213.703" y="-354" font-family="Helvetica,sans-Serif" font-size="10.00">/igankevich/arma/src</text>
<text text-anchor="start" x="213.703" y="-343" font-family="Helvetica,sans-Serif" font-size="10.00">/generator/basic_arma</text>
<text text-anchor="middle" x="262.203" y="-332" font-family="Helvetica,sans-Serif" font-size="10.00">_model.hh</text>
</g>
<!-- Node2 -->
<g id="node2" class="node"><title>Node2</title>
<g id="a_node2"><a xlink:href="ar__model_8hh.html" target="_top" xlink:title="/home/travis/build\l/igankevich/arma/src\l/generator/ar_model.hh">
<polygon fill="none" stroke="black" points="65.2025,-240.5 65.2025,-281.5 181.203,-281.5 181.203,-240.5 65.2025,-240.5"/>
<text text-anchor="start" x="73.2025" y="-269.5" font-family="Helvetica,sans-Serif" font-size="10.00">/home/travis/build</text>
<text text-anchor="start" x="73.2025" y="-258.5" font-family="Helvetica,sans-Serif" font-size="10.00">/igankevich/arma/src</text>
<text text-anchor="middle" x="123.203" y="-247.5" font-family="Helvetica,sans-Serif" font-size="10.00">/generator/ar_model.hh</text>
</a>
</g>
</g>
<!-- Node1&#45;&gt;Node2 -->
<g id="edge1" class="edge"><title>Node1&#45;&gt;Node2</title>
<path fill="none" stroke="midnightblue" d="M213.782,-319.345C194.01,-306.828 171.725,-292.719 154.206,-281.628"/>
<polygon fill="midnightblue" stroke="midnightblue" points="212.049,-322.391 222.371,-324.783 215.794,-316.476 212.049,-322.391"/>
</g>
<!-- Node9 -->
<g id="node9" class="node"><title>Node9</title>
<g id="a_node9"><a xlink:href="ma__model_8hh.html" target="_top" xlink:title="/home/travis/build\l/igankevich/arma/src\l/generator/ma_model.hh">
<polygon fill="none" stroke="black" points="201.203,-240.5 201.203,-281.5 323.203,-281.5 323.203,-240.5 201.203,-240.5"/>
<text text-anchor="start" x="209.203" y="-269.5" font-family="Helvetica,sans-Serif" font-size="10.00">/home/travis/build</text>
<text text-anchor="start" x="209.203" y="-258.5" font-family="Helvetica,sans-Serif" font-size="10.00">/igankevich/arma/src</text>
<text text-anchor="middle" x="262.203" y="-247.5" font-family="Helvetica,sans-Serif" font-size="10.00">/generator/ma_model.hh</text>
</a>
</g>
</g>
<!-- Node1&#45;&gt;Node9 -->
<g id="edge9" class="edge"><title>Node1&#45;&gt;Node9</title>
<path fill="none" stroke="midnightblue" d="M262.203,-314.515C262.203,-303.257 262.203,-291.227 262.203,-281.525"/>
<polygon fill="midnightblue" stroke="midnightblue" points="258.703,-314.547 262.203,-324.547 265.703,-314.547 258.703,-314.547"/>
</g>
<!-- Node11 -->
<g id="node11" class="node"><title>Node11</title>
<g id="a_node11"><a xlink:href="basic__arma__model_8cc.html" target="_top" xlink:title="/home/travis/build\l/igankevich/arma/src\l/generator/basic_arma\l_model.cc">
<polygon fill="none" stroke="black" points="341.703,-235 341.703,-287 454.703,-287 454.703,-235 341.703,-235"/>
<text text-anchor="start" x="349.703" y="-275" font-family="Helvetica,sans-Serif" font-size="10.00">/home/travis/build</text>
<text text-anchor="start" x="349.703" y="-264" font-family="Helvetica,sans-Serif" font-size="10.00">/igankevich/arma/src</text>
<text text-anchor="start" x="349.703" y="-253" font-family="Helvetica,sans-Serif" font-size="10.00">/generator/basic_arma</text>
<text text-anchor="middle" x="398.203" y="-242" font-family="Helvetica,sans-Serif" font-size="10.00">_model.cc</text>
</a>
</g>
</g>
<!-- Node1&#45;&gt;Node11 -->
<g id="edge13" class="edge"><title>Node1&#45;&gt;Node11</title>
<path fill="none" stroke="midnightblue" d="M309.935,-319.114C326.06,-308.68 343.859,-297.163 359.225,-287.221"/>
<polygon fill="midnightblue" stroke="midnightblue" points="307.669,-316.412 301.175,-324.783 311.472,-322.289 307.669,-316.412"/>
</g>
<!-- Node3 -->
<g id="node3" class="node"><title>Node3</title>
<g id="a_node3"><a xlink:href="common__main_8hh.html" target="_top" xlink:title="/home/travis/build\l/igankevich/arma/src\l/common_main.hh">
<polygon fill="none" stroke="black" points="208.703,-78.5 208.703,-119.5 315.703,-119.5 315.703,-78.5 208.703,-78.5"/>
<text text-anchor="start" x="216.703" y="-107.5" font-family="Helvetica,sans-Serif" font-size="10.00">/home/travis/build</text>
<text text-anchor="start" x="216.703" y="-96.5" font-family="Helvetica,sans-Serif" font-size="10.00">/igankevich/arma/src</text>
<text text-anchor="middle" x="262.203" y="-85.5" font-family="Helvetica,sans-Serif" font-size="10.00">/common_main.hh</text>
</a>
</g>
</g>
<!-- Node2&#45;&gt;Node3 -->
<g id="edge2" class="edge"><title>Node2&#45;&gt;Node3</title>
<path fill="none" stroke="midnightblue" d="M55.7433,-238.574C37.075,-229.195 18.9929,-216.076 8.2025,-198 -1.36536,-181.972 -3.71189,-170.37 8.2025,-156 63.3386,-89.5009 115.437,-141.108 199.203,-120 202.207,-119.243 205.278,-118.423 208.369,-117.562"/>
<polygon fill="midnightblue" stroke="midnightblue" points="54.3858,-241.804 64.9254,-242.884 57.36,-235.467 54.3858,-241.804"/>
</g>
<!-- Node6 -->
<g id="node6" class="node"><title>Node6</title>
<g id="a_node6"><a xlink:href="arma__model_8hh.html" target="_top" xlink:title="/home/travis/build\l/igankevich/arma/src\l/generator/arma_model.hh">
<polygon fill="none" stroke="black" points="151.203,-156.5 151.203,-197.5 281.203,-197.5 281.203,-156.5 151.203,-156.5"/>
<text text-anchor="start" x="159.203" y="-185.5" font-family="Helvetica,sans-Serif" font-size="10.00">/home/travis/build</text>
<text text-anchor="start" x="159.203" y="-174.5" font-family="Helvetica,sans-Serif" font-size="10.00">/igankevich/arma/src</text>
<text text-anchor="middle" x="216.203" y="-163.5" font-family="Helvetica,sans-Serif" font-size="10.00">/generator/arma_model.hh</text>
</a>
</g>
</g>
<!-- Node2&#45;&gt;Node6 -->
<g id="edge5" class="edge"><title>Node2&#45;&gt;Node6</title>
<path fill="none" stroke="midnightblue" d="M153.225,-233.528C166.446,-221.871 181.709,-208.414 193.897,-197.667"/>
<polygon fill="midnightblue" stroke="midnightblue" points="150.901,-230.911 145.715,-240.15 155.531,-236.162 150.901,-230.911"/>
</g>
<!-- Node8 -->
<g id="node8" class="node"><title>Node8</title>
<g id="a_node8"><a xlink:href="ar__model_8cc.html" target="_top" xlink:title="/home/travis/build\l/igankevich/arma/src\l/generator/ar_model.cc">
<polygon fill="none" stroke="black" points="17.2025,-156.5 17.2025,-197.5 133.203,-197.5 133.203,-156.5 17.2025,-156.5"/>
<text text-anchor="start" x="25.2025" y="-185.5" font-family="Helvetica,sans-Serif" font-size="10.00">/home/travis/build</text>
<text text-anchor="start" x="25.2025" y="-174.5" font-family="Helvetica,sans-Serif" font-size="10.00">/igankevich/arma/src</text>
<text text-anchor="middle" x="75.2025" y="-163.5" font-family="Helvetica,sans-Serif" font-size="10.00">/generator/ar_model.cc</text>
</a>
</g>
</g>
<!-- Node2&#45;&gt;Node8 -->
<g id="edge8" class="edge"><title>Node2&#45;&gt;Node8</title>
<path fill="none" stroke="midnightblue" d="M106.355,-231.219C99.8592,-220.122 92.5942,-207.711 86.715,-197.667"/>
<polygon fill="midnightblue" stroke="midnightblue" points="103.511,-233.288 111.583,-240.15 109.552,-229.752 103.511,-233.288"/>
</g>
<!-- Node4 -->
<g id="node4" class="node"><title>Node4</title>
<g id="a_node4"><a xlink:href="arma__main_8cc.html" target="_top" xlink:title="/home/travis/build\l/igankevich/arma/src\l/arma_main.cc">
<polygon fill="none" stroke="black" points="146.703,-0.5 146.703,-41.5 253.703,-41.5 253.703,-0.5 146.703,-0.5"/>
<text text-anchor="start" x="154.703" y="-29.5" font-family="Helvetica,sans-Serif" font-size="10.00">/home/travis/build</text>
<text text-anchor="start" x="154.703" y="-18.5" font-family="Helvetica,sans-Serif" font-size="10.00">/igankevich/arma/src</text>
<text text-anchor="middle" x="200.203" y="-7.5" font-family="Helvetica,sans-Serif" font-size="10.00">/arma_main.cc</text>
</a>
</g>
</g>
<!-- Node3&#45;&gt;Node4 -->
<g id="edge3" class="edge"><title>Node3&#45;&gt;Node4</title>
<path fill="none" stroke="midnightblue" d="M239.872,-70.627C232.01,-60.9901 223.34,-50.3617 216.115,-41.5056"/>
<polygon fill="midnightblue" stroke="midnightblue" points="237.203,-72.8919 246.236,-78.4281 242.627,-68.467 237.203,-72.8919"/>
</g>
<!-- Node5 -->
<g id="node5" class="node"><title>Node5</title>
<g id="a_node5"><a xlink:href="arma__realtime_8cc.html" target="_top" xlink:title="/home/travis/build\l/igankevich/arma/src\l/arma_realtime.cc">
<polygon fill="none" stroke="black" points="271.703,-0.5 271.703,-41.5 378.703,-41.5 378.703,-0.5 271.703,-0.5"/>
<text text-anchor="start" x="279.703" y="-29.5" font-family="Helvetica,sans-Serif" font-size="10.00">/home/travis/build</text>
<text text-anchor="start" x="279.703" y="-18.5" font-family="Helvetica,sans-Serif" font-size="10.00">/igankevich/arma/src</text>
<text text-anchor="middle" x="325.203" y="-7.5" font-family="Helvetica,sans-Serif" font-size="10.00">/arma_realtime.cc</text>
</a>
</g>
</g>
<!-- Node3&#45;&gt;Node5 -->
<g id="edge4" class="edge"><title>Node3&#45;&gt;Node5</title>
<path fill="none" stroke="midnightblue" d="M284.893,-70.627C292.882,-60.9901 301.692,-50.3617 309.033,-41.5056"/>
<polygon fill="midnightblue" stroke="midnightblue" points="282.114,-68.4956 278.427,-78.4281 287.503,-72.963 282.114,-68.4956"/>
</g>
<!-- Node6&#45;&gt;Node3 -->
<g id="edge6" class="edge"><title>Node6&#45;&gt;Node3</title>
<path fill="none" stroke="midnightblue" d="M233.297,-147.757C238.988,-138.354 245.197,-128.096 250.397,-119.506"/>
<polygon fill="midnightblue" stroke="midnightblue" points="230.232,-146.061 228.049,-156.428 236.221,-149.685 230.232,-146.061"/>
</g>
<!-- Node7 -->
<g id="node7" class="node"><title>Node7</title>
<g id="a_node7"><a xlink:href="arma__model_8cc.html" target="_top" xlink:title="/home/travis/build\l/igankevich/arma/src\l/generator/arma_model.cc">
<polygon fill="none" stroke="black" points="60.2025,-78.5 60.2025,-119.5 190.203,-119.5 190.203,-78.5 60.2025,-78.5"/>
<text text-anchor="start" x="68.2025" y="-107.5" font-family="Helvetica,sans-Serif" font-size="10.00">/home/travis/build</text>
<text text-anchor="start" x="68.2025" y="-96.5" font-family="Helvetica,sans-Serif" font-size="10.00">/igankevich/arma/src</text>
<text text-anchor="middle" x="125.203" y="-85.5" font-family="Helvetica,sans-Serif" font-size="10.00">/generator/arma_model.cc</text>
</a>
</g>
</g>
<!-- Node6&#45;&gt;Node7 -->
<g id="edge7" class="edge"><title>Node6&#45;&gt;Node7</title>
<path fill="none" stroke="midnightblue" d="M184.806,-149.779C172.91,-139.843 159.586,-128.716 148.558,-119.506"/>
<polygon fill="midnightblue" stroke="midnightblue" points="182.849,-152.704 192.768,-156.428 187.336,-147.332 182.849,-152.704"/>
</g>
<!-- Node9&#45;&gt;Node3 -->
<g id="edge10" class="edge"><title>Node9&#45;&gt;Node3</title>
<path fill="none" stroke="midnightblue" d="M278.286,-231.156C283.115,-220.995 287.772,-209.287 290.203,-198 294.132,-179.752 294.491,-174.167 290.203,-156 287.181,-143.199 280.76,-129.989 274.829,-119.615"/>
<polygon fill="midnightblue" stroke="midnightblue" points="275.024,-229.852 273.67,-240.36 281.282,-232.99 275.024,-229.852"/>
</g>
<!-- Node9&#45;&gt;Node6 -->
<g id="edge11" class="edge"><title>Node9&#45;&gt;Node6</title>
<path fill="none" stroke="midnightblue" d="M246.057,-231.219C239.832,-220.122 232.87,-207.711 227.235,-197.667"/>
<polygon fill="midnightblue" stroke="midnightblue" points="243.122,-233.141 251.067,-240.15 249.227,-229.716 243.122,-233.141"/>
</g>
<!-- Node10 -->
<g id="node10" class="node"><title>Node10</title>
<g id="a_node10"><a xlink:href="ma__model_8cc.html" target="_top" xlink:title="/home/travis/build\l/igankevich/arma/src\l/generator/ma_model.cc">
<polygon fill="none" stroke="black" points="337.203,-156.5 337.203,-197.5 459.203,-197.5 459.203,-156.5 337.203,-156.5"/>
<text text-anchor="start" x="345.203" y="-185.5" font-family="Helvetica,sans-Serif" font-size="10.00">/home/travis/build</text>
<text text-anchor="start" x="345.203" y="-174.5" font-family="Helvetica,sans-Serif" font-size="10.00">/igankevich/arma/src</text>
<text text-anchor="middle" x="398.203" y="-163.5" font-family="Helvetica,sans-Serif" font-size="10.00">/generator/ma_model.cc</text>
</a>
</g>
</g>
<!-- Node9&#45;&gt;Node10 -->
<g id="edge12" class="edge"><title>Node9&#45;&gt;Node10</title>
<path fill="none" stroke="midnightblue" d="M303.607,-235.036C323.437,-223.079 346.85,-208.963 365.422,-197.765"/>
<polygon fill="midnightblue" stroke="midnightblue" points="301.534,-232.198 294.778,-240.359 305.149,-238.193 301.534,-232.198"/>
</g>
</g>
</svg>
