<?xml version="1.0" encoding="UTF-8" standalone="no"?>
<!DOCTYPE svg PUBLIC "-//W3C//DTD SVG 1.1//EN"
 "http://www.w3.org/Graphics/SVG/1.1/DTD/svg11.dtd">
<!-- Generated by graphviz version 2.36.0 (20140111.2315)
 -->
<!-- Title: /home/travis/build/igankevich/arma/src/generator/basic_arma_model_verify.cc Pages: 1 -->
<svg width="1508pt" height="298pt"
 viewBox="0.00 0.00 1508.00 298.00" xmlns="http://www.w3.org/2000/svg" xmlns:xlink="http://www.w3.org/1999/xlink">
<g id="graph0" class="graph" transform="scale(1 1) rotate(0) translate(4 294)">
<title>/home/travis/build/igankevich/arma/src/generator/basic_arma_model_verify.cc</title>
<!-- Node1 -->
<g id="node1" class="node"><title>Node1</title>
<polygon fill="#bfbfbf" stroke="black" points="505.5,-237 505.5,-289 618.5,-289 618.5,-237 505.5,-237"/>
<text text-anchor="start" x="513.5" y="-277" font-family="Helvetica,sans-Serif" font-size="10.00">/home/travis/build</text>
<text text-anchor="start" x="513.5" y="-266" font-family="Helvetica,sans-Serif" font-size="10.00">/igankevich/arma/src</text>
<text text-anchor="start" x="513.5" y="-255" font-family="Helvetica,sans-Serif" font-size="10.00">/generator/basic_arma</text>
<text text-anchor="middle" x="562" y="-244" font-family="Helvetica,sans-Serif" font-size="10.00">_model_verify.cc</text>
</g>
<!-- Node2 -->
<g id="node2" class="node"><title>Node2</title>
<g id="a_node2"><a xlink:href="statistics_8hh.html" target="_top" xlink:title="stats/statistics.hh">
<polygon fill="none" stroke="black" points="96.5,-68.5 96.5,-87.5 191.5,-87.5 191.5,-68.5 96.5,-68.5"/>
<text text-anchor="middle" x="144" y="-75.5" font-family="Helvetica,sans-Serif" font-size="10.00">stats/statistics.hh</text>
</a>
</g>
</g>
<!-- Node1&#45;&gt;Node2 -->
<g id="edge1" class="edge"><title>Node1&#45;&gt;Node2</title>
<path fill="none" stroke="midnightblue" d="M505.382,-255.883C443.536,-247.951 342.309,-231.266 260,-200 213.465,-182.323 193.748,-183.148 163,-144 152.571,-130.722 147.864,-111.886 145.74,-97.9067"/>
<polygon fill="midnightblue" stroke="midnightblue" points="149.21,-97.4417 144.532,-87.9355 142.261,-98.2841 149.21,-97.4417"/>
</g>
<!-- Node6 -->
<g id="node6" class="node"><title>Node6</title>
<g id="a_node6"><a xlink:href="distribution_8hh.html" target="_top" xlink:title="stats/distribution.hh">
<polygon fill="none" stroke="black" points="1156,-180.5 1156,-199.5 1258,-199.5 1258,-180.5 1156,-180.5"/>
<text text-anchor="middle" x="1207" y="-187.5" font-family="Helvetica,sans-Serif" font-size="10.00">stats/distribution.hh</text>
</a>
</g>
</g>
<!-- Node1&#45;&gt;Node6 -->
<g id="edge5" class="edge"><title>Node1&#45;&gt;Node6</title>
<path fill="none" stroke="midnightblue" d="M618.674,-255.761C739.321,-242.481 1020.69,-211.508 1145.5,-197.77"/>
<polygon fill="midnightblue" stroke="midnightblue" points="1146.09,-201.226 1155.65,-196.653 1145.32,-194.268 1146.09,-201.226"/>
</g>
<!-- Node17 -->
<g id="node17" class="node"><title>Node17</title>
<g id="a_node17"><a xlink:href="summary_8hh.html" target="_top" xlink:title="stats/summary.hh">
<polygon fill="none" stroke="black" points="269.5,-180.5 269.5,-199.5 364.5,-199.5 364.5,-180.5 269.5,-180.5"/>
<text text-anchor="middle" x="317" y="-187.5" font-family="Helvetica,sans-Serif" font-size="10.00">stats/summary.hh</text>
</a>
</g>
</g>
<!-- Node1&#45;&gt;Node17 -->
<g id="edge25" class="edge"><title>Node1&#45;&gt;Node17</title>
<path fill="none" stroke="midnightblue" d="M505.484,-245.622C459.757,-232.37 396.546,-214.052 356.214,-202.364"/>
<polygon fill="midnightblue" stroke="midnightblue" points="357.056,-198.964 346.477,-199.542 355.108,-205.688 357.056,-198.964"/>
</g>
<!-- Node18 -->
<g id="node18" class="node"><title>Node18</title>
<polygon fill="none" stroke="#bfbfbf" points="345.5,-124.5 345.5,-143.5 386.5,-143.5 386.5,-124.5 345.5,-124.5"/>
<text text-anchor="middle" x="366" y="-131.5" font-family="Helvetica,sans-Serif" font-size="10.00">string</text>
</g>
<!-- Node1&#45;&gt;Node18 -->
<g id="edge51" class="edge"><title>Node1&#45;&gt;Node18</title>
<path fill="none" stroke="midnightblue" d="M523.277,-236.909C482.864,-210.723 420.909,-170.579 388.123,-149.335"/>
<polygon fill="midnightblue" stroke="midnightblue" points="389.611,-146.128 379.315,-143.628 385.804,-152.003 389.611,-146.128"/>
</g>
<!-- Node20 -->
<g id="node20" class="node"><title>Node20</title>
<polygon fill="none" stroke="#bfbfbf" points="456,-6.5 456,-25.5 512,-25.5 512,-6.5 456,-6.5"/>
<text text-anchor="middle" x="484" y="-13.5" font-family="Helvetica,sans-Serif" font-size="10.00">algorithm</text>
</g>
<!-- Node1&#45;&gt;Node20 -->
<g id="edge52" class="edge"><title>Node1&#45;&gt;Node20</title>
<path fill="none" stroke="midnightblue" d="M565.005,-236.789C568.427,-198.129 570.322,-122.92 542,-68 534.236,-52.9443 520.009,-40.3279 507.59,-31.4099"/>
<polygon fill="midnightblue" stroke="midnightblue" points="509.228,-28.2925 498.984,-25.5879 505.306,-34.0903 509.228,-28.2925"/>
</g>
<!-- Node21 -->
<g id="node21" class="node"><title>Node21</title>
<g id="a_node21"><a xlink:href="waves_8hh.html" target="_top" xlink:title="stats/waves.hh">
<polygon fill="none" stroke="black" points="450.5,-124.5 450.5,-143.5 533.5,-143.5 533.5,-124.5 450.5,-124.5"/>
<text text-anchor="middle" x="492" y="-131.5" font-family="Helvetica,sans-Serif" font-size="10.00">stats/waves.hh</text>
</a>
</g>
</g>
<!-- Node1&#45;&gt;Node21 -->
<g id="edge32" class="edge"><title>Node1&#45;&gt;Node21</title>
<path fill="none" stroke="midnightblue" d="M548.17,-236.909C534.418,-211.959 513.682,-174.338 501.627,-152.466"/>
<polygon fill="midnightblue" stroke="midnightblue" points="504.648,-150.696 496.755,-143.628 498.517,-154.075 504.648,-150.696"/>
</g>
<!-- Node23 -->
<g id="node23" class="node"><title>Node23</title>
<polygon fill="none" stroke="#bfbfbf" points="628.5,-68.5 628.5,-87.5 675.5,-87.5 675.5,-68.5 628.5,-68.5"/>
<text text-anchor="middle" x="652" y="-75.5" font-family="Helvetica,sans-Serif" font-size="10.00">iterator</text>
</g>
<!-- Node1&#45;&gt;Node23 -->
<g id="edge53" class="edge"><title>Node1&#45;&gt;Node23</title>
<path fill="none" stroke="midnightblue" d="M574.325,-236.938C592.744,-199.487 627.009,-129.816 643.152,-96.9903"/>
<polygon fill="midnightblue" stroke="midnightblue" points="646.441,-98.233 647.714,-87.7149 640.16,-95.1437 646.441,-98.233"/>
</g>
<!-- Node26 -->
<g id="node26" class="node"><title>Node26</title>
<g id="a_node26"><a xlink:href="grid_8hh.html" target="_top" xlink:title="grid.hh">
<polygon fill="none" stroke="black" points="761,-180.5 761,-199.5 807,-199.5 807,-180.5 761,-180.5"/>
<text text-anchor="middle" x="784" y="-187.5" font-family="Helvetica,sans-Serif" font-size="10.00">grid.hh</text>
</a>
</g>
</g>
<!-- Node1&#45;&gt;Node26 -->
<g id="edge40" class="edge"><title>Node1&#45;&gt;Node26</title>
<path fill="none" stroke="midnightblue" d="M618.594,-243.9C660.569,-230.476 716.334,-212.641 751.193,-201.492"/>
<polygon fill="midnightblue" stroke="midnightblue" points="752.413,-204.777 760.871,-198.397 750.28,-198.11 752.413,-204.777"/>
</g>
<!-- Node30 -->
<g id="node30" class="node"><title>Node30</title>
<polygon fill="none" stroke="#bfbfbf" points="1276,-180.5 1276,-199.5 1326,-199.5 1326,-180.5 1276,-180.5"/>
<text text-anchor="middle" x="1301" y="-187.5" font-family="Helvetica,sans-Serif" font-size="10.00">fstream</text>
</g>
<!-- Node1&#45;&gt;Node30 -->
<g id="edge50" class="edge"><title>Node1&#45;&gt;Node30</title>
<path fill="none" stroke="midnightblue" d="M618.525,-260.163C738.563,-255.576 1027.46,-240.889 1266,-200 1266.1,-199.983 1266.2,-199.965 1266.3,-199.948"/>
<polygon fill="midnightblue" stroke="midnightblue" points="1266.78,-203.423 1275.87,-197.987 1265.37,-196.566 1266.78,-203.423"/>
</g>
<!-- Node3 -->
<g id="node3" class="node"><title>Node3</title>
<polygon fill="none" stroke="#bfbfbf" points="224,-6.5 224,-25.5 292,-25.5 292,-6.5 224,-6.5"/>
<text text-anchor="middle" x="258" y="-13.5" font-family="Helvetica,sans-Serif" font-size="10.00">blitz/array.h</text>
</g>
<!-- Node2&#45;&gt;Node3 -->
<g id="edge2" class="edge"><title>Node2&#45;&gt;Node3</title>
<path fill="none" stroke="midnightblue" d="M160.333,-68.4035C179.211,-58.4678 210.507,-41.9966 232.576,-30.3812"/>
<polygon fill="midnightblue" stroke="midnightblue" points="234.478,-33.3353 241.697,-25.5806 231.218,-27.1409 234.478,-33.3353"/>
</g>
<!-- Node4 -->
<g id="node4" class="node"><title>Node4</title>
<polygon fill="none" stroke="#bfbfbf" points="108,-1 108,-31 198,-31 198,-1 108,-1"/>
<text text-anchor="start" x="116" y="-19" font-family="Helvetica,sans-Serif" font-size="10.00">gsl/gsl_statistics</text>
<text text-anchor="middle" x="153" y="-8" font-family="Helvetica,sans-Serif" font-size="10.00">_float.h</text>
</g>
<!-- Node2&#45;&gt;Node4 -->
<g id="edge3" class="edge"><title>Node2&#45;&gt;Node4</title>
<path fill="none" stroke="midnightblue" d="M145.289,-68.4035C146.36,-61.2646 147.937,-50.7517 149.386,-41.0903"/>
<polygon fill="midnightblue" stroke="midnightblue" points="152.857,-41.5494 150.879,-31.1408 145.934,-40.511 152.857,-41.5494"/>
</g>
<!-- Node5 -->
<g id="node5" class="node"><title>Node5</title>
<polygon fill="none" stroke="#bfbfbf" points="0,-1 0,-31 90,-31 90,-1 0,-1"/>
<text text-anchor="start" x="8" y="-19" font-family="Helvetica,sans-Serif" font-size="10.00">gsl/gsl_statistics</text>
<text text-anchor="middle" x="45" y="-8" font-family="Helvetica,sans-Serif" font-size="10.00">_double.h</text>
</g>
<!-- Node2&#45;&gt;Node5 -->
<g id="edge4" class="edge"><title>Node2&#45;&gt;Node5</title>
<path fill="none" stroke="midnightblue" d="M129.816,-68.4035C116.157,-60.1254 95.0126,-47.3106 77.2532,-36.5474"/>
<polygon fill="midnightblue" stroke="midnightblue" points="78.6984,-33.3307 68.3323,-31.1408 75.0703,-39.3171 78.6984,-33.3307"/>
</g>
<!-- Node7 -->
<g id="node7" class="node"><title>Node7</title>
<g id="a_node7"><a xlink:href="gaussian_8hh.html" target="_top" xlink:title="gaussian.hh">
<polygon fill="none" stroke="black" points="1352.5,-68.5 1352.5,-87.5 1421.5,-87.5 1421.5,-68.5 1352.5,-68.5"/>
<text text-anchor="middle" x="1387" y="-75.5" font-family="Helvetica,sans-Serif" font-size="10.00">gaussian.hh</text>
</a>
</g>
</g>
<!-- Node6&#45;&gt;Node7 -->
<g id="edge6" class="edge"><title>Node6&#45;&gt;Node7</title>
<path fill="none" stroke="midnightblue" d="M1252.27,-180.45C1279.06,-173.768 1312.6,-162.434 1338,-144 1355.1,-131.59 1368.94,-111.507 1377.49,-96.9449"/>
<polygon fill="midnightblue" stroke="midnightblue" points="1380.72,-98.3442 1382.55,-87.908 1374.61,-94.9275 1380.72,-98.3442"/>
</g>
<!-- Node11 -->
<g id="node11" class="node"><title>Node11</title>
<g id="a_node11"><a xlink:href="weibull_8hh.html" target="_top" xlink:title="weibull.hh">
<polygon fill="none" stroke="black" points="1440,-68.5 1440,-87.5 1500,-87.5 1500,-68.5 1440,-68.5"/>
<text text-anchor="middle" x="1470" y="-75.5" font-family="Helvetica,sans-Serif" font-size="10.00">weibull.hh</text>
</a>
</g>
</g>
<!-- Node6&#45;&gt;Node11 -->
<g id="edge10" class="edge"><title>Node6&#45;&gt;Node11</title>
<path fill="none" stroke="midnightblue" d="M1246.84,-180.447C1278.75,-172.889 1324.26,-160.501 1362,-144 1394.14,-129.949 1428.37,-108.012 1449.47,-93.5728"/>
<polygon fill="midnightblue" stroke="midnightblue" points="1451.71,-96.2809 1457.93,-87.7048 1447.72,-90.5296 1451.71,-96.2809"/>
</g>
<!-- Node12 -->
<g id="node12" class="node"><title>Node12</title>
<g id="a_node12"><a xlink:href="gram__charlier_8hh.html" target="_top" xlink:title="gram_charlier.hh">
<polygon fill="none" stroke="black" points="1084.5,-124.5 1084.5,-143.5 1173.5,-143.5 1173.5,-124.5 1084.5,-124.5"/>
<text text-anchor="middle" x="1129" y="-131.5" font-family="Helvetica,sans-Serif" font-size="10.00">gram_charlier.hh</text>
</a>
</g>
</g>
<!-- Node6&#45;&gt;Node12 -->
<g id="edge14" class="edge"><title>Node6&#45;&gt;Node12</title>
<path fill="none" stroke="midnightblue" d="M1194.47,-180.324C1182.41,-171.979 1163.97,-159.212 1149.73,-149.352"/>
<polygon fill="midnightblue" stroke="midnightblue" points="1151.72,-146.469 1141.5,-143.655 1147.73,-152.224 1151.72,-146.469"/>
</g>
<!-- Node15 -->
<g id="node15" class="node"><title>Node15</title>
<g id="a_node15"><a xlink:href="skew__normal_8hh.html" target="_top" xlink:title="skew_normal.hh">
<polygon fill="none" stroke="black" points="1242,-124.5 1242,-143.5 1330,-143.5 1330,-124.5 1242,-124.5"/>
<text text-anchor="middle" x="1286" y="-131.5" font-family="Helvetica,sans-Serif" font-size="10.00">skew_normal.hh</text>
</a>
</g>
</g>
<!-- Node6&#45;&gt;Node15 -->
<g id="edge20" class="edge"><title>Node6&#45;&gt;Node15</title>
<path fill="none" stroke="midnightblue" d="M1219.69,-180.324C1231.9,-171.979 1250.58,-159.212 1265,-149.352"/>
<polygon fill="midnightblue" stroke="midnightblue" points="1267.06,-152.187 1273.34,-143.655 1263.11,-146.408 1267.06,-152.187"/>
</g>
<!-- Node8 -->
<g id="node8" class="node"><title>Node8</title>
<polygon fill="none" stroke="#bfbfbf" points="1261.5,-6.5 1261.5,-25.5 1310.5,-25.5 1310.5,-6.5 1261.5,-6.5"/>
<text text-anchor="middle" x="1286" y="-13.5" font-family="Helvetica,sans-Serif" font-size="10.00">istream</text>
</g>
<!-- Node7&#45;&gt;Node8 -->
<g id="edge7" class="edge"><title>Node7&#45;&gt;Node8</title>
<path fill="none" stroke="midnightblue" d="M1372.53,-68.4035C1355.95,-58.5569 1328.57,-42.2915 1309.05,-30.6949"/>
<polygon fill="midnightblue" stroke="midnightblue" points="1310.83,-27.6789 1300.44,-25.5806 1307.25,-33.6971 1310.83,-27.6789"/>
</g>
<!-- Node9 -->
<g id="node9" class="node"><title>Node9</title>
<polygon fill="none" stroke="#bfbfbf" points="1345,-6.5 1345,-25.5 1397,-25.5 1397,-6.5 1345,-6.5"/>
<text text-anchor="middle" x="1371" y="-13.5" font-family="Helvetica,sans-Serif" font-size="10.00">ostream</text>
</g>
<!-- Node7&#45;&gt;Node9 -->
<g id="edge8" class="edge"><title>Node7&#45;&gt;Node9</title>
<path fill="none" stroke="midnightblue" d="M1384.71,-68.4035C1382.43,-59.849 1378.85,-46.4497 1375.93,-35.4762"/>
<polygon fill="midnightblue" stroke="midnightblue" points="1379.25,-34.3411 1373.29,-25.5806 1372.48,-36.1448 1379.25,-34.3411"/>
</g>
<!-- Node10 -->
<g id="node10" class="node"><title>Node10</title>
<polygon fill="none" stroke="#bfbfbf" points="1424,-6.5 1424,-25.5 1496,-25.5 1496,-6.5 1424,-6.5"/>
<text text-anchor="middle" x="1460" y="-13.5" font-family="Helvetica,sans-Serif" font-size="10.00">gsl/gsl_cdf.h</text>
</g>
<!-- Node7&#45;&gt;Node10 -->
<g id="edge9" class="edge"><title>Node7&#45;&gt;Node10</title>
<path fill="none" stroke="midnightblue" d="M1397.46,-68.4035C1408.95,-58.9579 1427.63,-43.6056 1441.59,-32.1342"/>
<polygon fill="midnightblue" stroke="midnightblue" points="1444.06,-34.6342 1449.56,-25.5806 1439.61,-29.2264 1444.06,-34.6342"/>
</g>
<!-- Node11&#45;&gt;Node8 -->
<g id="edge11" class="edge"><title>Node11&#45;&gt;Node8</title>
<path fill="none" stroke="midnightblue" d="M1443.64,-68.4035C1411.12,-57.8 1355.78,-39.7529 1320.07,-28.1084"/>
<polygon fill="midnightblue" stroke="midnightblue" points="1321.14,-24.7781 1310.55,-25.0053 1318.97,-31.4332 1321.14,-24.7781"/>
</g>
<!-- Node11&#45;&gt;Node9 -->
<g id="edge12" class="edge"><title>Node11&#45;&gt;Node9</title>
<path fill="none" stroke="midnightblue" d="M1455.82,-68.4035C1439.64,-58.6014 1412.97,-42.4385 1393.86,-30.8526"/>
<polygon fill="midnightblue" stroke="midnightblue" points="1395.52,-27.7705 1385.16,-25.5806 1391.9,-33.7569 1395.52,-27.7705"/>
</g>
<!-- Node11&#45;&gt;Node10 -->
<g id="edge13" class="edge"><title>Node11&#45;&gt;Node10</title>
<path fill="none" stroke="midnightblue" d="M1468.57,-68.4035C1467.14,-59.849 1464.91,-46.4497 1463.08,-35.4762"/>
<polygon fill="midnightblue" stroke="midnightblue" points="1466.53,-34.8691 1461.43,-25.5806 1459.62,-36.02 1466.53,-34.8691"/>
</g>
<!-- Node12&#45;&gt;Node8 -->
<g id="edge15" class="edge"><title>Node12&#45;&gt;Node8</title>
<path fill="none" stroke="midnightblue" d="M1123.9,-124.482C1116.63,-111.094 1105.46,-84.9161 1118,-68 1148.58,-26.7566 1211.66,-17.7083 1251.22,-16.3433"/>
<polygon fill="midnightblue" stroke="midnightblue" points="1251.3,-19.8426 1261.22,-16.1439 1251.16,-12.844 1251.3,-19.8426"/>
</g>
<!-- Node12&#45;&gt;Node9 -->
<g id="edge16" class="edge"><title>Node12&#45;&gt;Node9</title>
<path fill="none" stroke="midnightblue" d="M1129.47,-124.377C1130.72,-110.356 1135.28,-82.7064 1152,-68 1209.01,-17.8487 1245.37,-50.5329 1319,-32 1324.16,-30.7003 1329.59,-29.2409 1334.91,-27.7563"/>
<polygon fill="midnightblue" stroke="midnightblue" points="1336.25,-31.0131 1344.91,-24.9054 1334.33,-24.2814 1336.25,-31.0131"/>
</g>
<!-- Node13 -->
<g id="node13" class="node"><title>Node13</title>
<polygon fill="none" stroke="#bfbfbf" points="826,-6.5 826,-25.5 870,-25.5 870,-6.5 826,-6.5"/>
<text text-anchor="middle" x="848" y="-13.5" font-family="Helvetica,sans-Serif" font-size="10.00">cmath</text>
</g>
<!-- Node12&#45;&gt;Node13 -->
<g id="edge17" class="edge"><title>Node12&#45;&gt;Node13</title>
<path fill="none" stroke="midnightblue" d="M1084.1,-132.817C1036.42,-130.704 960.415,-121.693 905,-88 883.748,-75.0785 867.088,-51.2196 857.403,-34.7493"/>
<polygon fill="midnightblue" stroke="midnightblue" points="860.23,-32.6337 852.295,-25.6129 854.12,-36.0494 860.23,-32.6337"/>
</g>
<!-- Node14 -->
<g id="node14" class="node"><title>Node14</title>
<g id="a_node14"><a xlink:href="physical__constants_8hh.html" target="_top" xlink:title="physical_constants.hh">
<polygon fill="none" stroke="black" points="914,-68.5 914,-87.5 1028,-87.5 1028,-68.5 914,-68.5"/>
<text text-anchor="middle" x="971" y="-75.5" font-family="Helvetica,sans-Serif" font-size="10.00">physical_constants.hh</text>
</a>
</g>
</g>
<!-- Node12&#45;&gt;Node14 -->
<g id="edge18" class="edge"><title>Node12&#45;&gt;Node14</title>
<path fill="none" stroke="midnightblue" d="M1103.96,-124.444C1077.38,-115.359 1035.19,-100.939 1005.48,-90.7831"/>
<polygon fill="midnightblue" stroke="midnightblue" points="1006.51,-87.4386 995.918,-87.5164 1004.25,-94.0625 1006.51,-87.4386"/>
</g>
<!-- Node14&#45;&gt;Node13 -->
<g id="edge19" class="edge"><title>Node14&#45;&gt;Node13</title>
<path fill="none" stroke="midnightblue" d="M953.377,-68.4035C932.826,-58.3787 898.636,-41.7006 874.793,-30.0699"/>
<polygon fill="midnightblue" stroke="midnightblue" points="876.112,-26.8192 865.59,-25.5806 873.043,-33.1106 876.112,-26.8192"/>
</g>
<!-- Node15&#45;&gt;Node7 -->
<g id="edge23" class="edge"><title>Node15&#45;&gt;Node7</title>
<path fill="none" stroke="midnightblue" d="M1302.23,-124.324C1318.35,-115.703 1343.3,-102.364 1361.96,-92.3855"/>
<polygon fill="midnightblue" stroke="midnightblue" points="1363.64,-95.456 1370.81,-87.6545 1360.34,-89.283 1363.64,-95.456"/>
</g>
<!-- Node15&#45;&gt;Node8 -->
<g id="edge21" class="edge"><title>Node15&#45;&gt;Node8</title>
<path fill="none" stroke="midnightblue" d="M1286,-124.281C1286,-105.547 1286,-61.098 1286,-35.6822"/>
<polygon fill="midnightblue" stroke="midnightblue" points="1289.5,-35.5047 1286,-25.5048 1282.5,-35.5048 1289.5,-35.5047"/>
</g>
<!-- Node15&#45;&gt;Node9 -->
<g id="edge22" class="edge"><title>Node15&#45;&gt;Node9</title>
<path fill="none" stroke="midnightblue" d="M1292.39,-124.281C1306.49,-105.041 1340.46,-58.6766 1358.79,-33.6641"/>
<polygon fill="midnightblue" stroke="midnightblue" points="1361.68,-35.6398 1364.77,-25.5048 1356.03,-31.5023 1361.68,-35.6398"/>
</g>
<!-- Node16 -->
<g id="node16" class="node"><title>Node16</title>
<g id="a_node16"><a xlink:href="owen__t_8hh.html" target="_top" xlink:title="apmath/owen_t.hh">
<polygon fill="none" stroke="black" points="1160.5,-68.5 1160.5,-87.5 1257.5,-87.5 1257.5,-68.5 1160.5,-68.5"/>
<text text-anchor="middle" x="1209" y="-75.5" font-family="Helvetica,sans-Serif" font-size="10.00">apmath/owen_t.hh</text>
</a>
</g>
</g>
<!-- Node15&#45;&gt;Node16 -->
<g id="edge24" class="edge"><title>Node15&#45;&gt;Node16</title>
<path fill="none" stroke="midnightblue" d="M1273.63,-124.324C1261.84,-116.058 1243.87,-103.453 1229.86,-93.6322"/>
<polygon fill="midnightblue" stroke="midnightblue" points="1231.54,-90.5307 1221.34,-87.6545 1227.52,-96.2619 1231.54,-90.5307"/>
</g>
<!-- Node17&#45;&gt;Node3 -->
<g id="edge27" class="edge"><title>Node17&#45;&gt;Node3</title>
<path fill="none" stroke="midnightblue" d="M313.235,-180.477C305.71,-163.242 288.544,-122.918 277,-88 271.248,-70.6014 265.97,-50.38 262.445,-35.978"/>
<polygon fill="midnightblue" stroke="midnightblue" points="265.75,-34.7508 260.018,-25.8407 258.943,-36.3808 265.75,-34.7508"/>
</g>
<!-- Node17&#45;&gt;Node18 -->
<g id="edge26" class="edge"><title>Node17&#45;&gt;Node18</title>
<path fill="none" stroke="midnightblue" d="M325.091,-180.083C332.155,-172.298 342.588,-160.801 351.149,-151.367"/>
<polygon fill="midnightblue" stroke="midnightblue" points="353.931,-153.509 358.059,-143.751 348.747,-148.805 353.931,-153.509"/>
</g>
<!-- Node19 -->
<g id="node19" class="node"><title>Node19</title>
<g id="a_node19"><a xlink:href="qq__graph_8hh.html" target="_top" xlink:title="qq_graph.hh">
<polygon fill="none" stroke="black" points="172,-124.5 172,-143.5 242,-143.5 242,-124.5 172,-124.5"/>
<text text-anchor="middle" x="207" y="-131.5" font-family="Helvetica,sans-Serif" font-size="10.00">qq_graph.hh</text>
</a>
</g>
</g>
<!-- Node17&#45;&gt;Node19 -->
<g id="edge28" class="edge"><title>Node17&#45;&gt;Node19</title>
<path fill="none" stroke="midnightblue" d="M299.327,-180.324C281.606,-171.625 254.097,-158.12 233.712,-148.113"/>
<polygon fill="midnightblue" stroke="midnightblue" points="235.149,-144.919 224.63,-143.655 232.064,-151.203 235.149,-144.919"/>
</g>
<!-- Node19&#45;&gt;Node2 -->
<g id="edge31" class="edge"><title>Node19&#45;&gt;Node2</title>
<path fill="none" stroke="midnightblue" d="M196.878,-124.324C187.474,-116.263 173.256,-104.077 161.931,-94.3695"/>
<polygon fill="midnightblue" stroke="midnightblue" points="164.177,-91.6844 154.306,-87.8339 159.621,-96.9993 164.177,-91.6844"/>
</g>
<!-- Node19&#45;&gt;Node3 -->
<g id="edge29" class="edge"><title>Node19&#45;&gt;Node3</title>
<path fill="none" stroke="midnightblue" d="M210.833,-124.281C219.181,-105.294 239.142,-59.892 250.235,-34.6624"/>
<polygon fill="midnightblue" stroke="midnightblue" points="253.44,-36.0678 254.261,-25.5048 247.032,-33.2504 253.44,-36.0678"/>
</g>
<!-- Node19&#45;&gt;Node20 -->
<g id="edge30" class="edge"><title>Node19&#45;&gt;Node20</title>
<path fill="none" stroke="midnightblue" d="M239.446,-124.491C268.612,-116.427 312.368,-103.295 349,-88 389.699,-71.0069 434.581,-46.0739 460.977,-30.7242"/>
<polygon fill="midnightblue" stroke="midnightblue" points="462.969,-33.6135 469.824,-25.5351 459.427,-27.5756 462.969,-33.6135"/>
</g>
<!-- Node21&#45;&gt;Node13 -->
<g id="edge36" class="edge"><title>Node21&#45;&gt;Node13</title>
<path fill="none" stroke="midnightblue" d="M505.941,-124.361C528.767,-110.567 575.895,-83.5439 619,-68 686.929,-43.5044 770.6,-28.4772 815.631,-21.5522"/>
<polygon fill="midnightblue" stroke="midnightblue" points="816.318,-24.9882 825.688,-20.0421 815.279,-18.0658 816.318,-24.9882"/>
</g>
<!-- Node21&#45;&gt;Node20 -->
<g id="edge35" class="edge"><title>Node21&#45;&gt;Node20</title>
<path fill="none" stroke="midnightblue" d="M469.212,-124.471C453.674,-117.316 434.293,-105.435 425,-88 413.193,-65.8478 437.919,-44.2251 458.894,-30.776"/>
<polygon fill="midnightblue" stroke="midnightblue" points="460.8,-33.713 467.536,-25.5348 457.17,-27.7277 460.8,-33.713"/>
</g>
<!-- Node22 -->
<g id="node22" class="node"><title>Node22</title>
<g id="a_node22"><a xlink:href="types_8hh.html" target="_top" xlink:title="types.hh">
<polygon fill="none" stroke="black" points="286,-68.5 286,-87.5 340,-87.5 340,-68.5 286,-68.5"/>
<text text-anchor="middle" x="313" y="-75.5" font-family="Helvetica,sans-Serif" font-size="10.00">types.hh</text>
</a>
</g>
</g>
<!-- Node21&#45;&gt;Node22 -->
<g id="edge33" class="edge"><title>Node21&#45;&gt;Node22</title>
<path fill="none" stroke="midnightblue" d="M463.637,-124.444C432.904,-115.172 383.75,-100.343 350,-90.1622"/>
<polygon fill="midnightblue" stroke="midnightblue" points="350.643,-86.7004 340.059,-87.1629 348.622,-93.4021 350.643,-86.7004"/>
</g>
<!-- Node21&#45;&gt;Node23 -->
<g id="edge37" class="edge"><title>Node21&#45;&gt;Node23</title>
<path fill="none" stroke="midnightblue" d="M517.352,-124.444C544.744,-115.199 588.509,-100.428 618.668,-90.2495"/>
<polygon fill="midnightblue" stroke="midnightblue" points="619.975,-93.5024 628.331,-86.9883 617.737,-86.8699 619.975,-93.5024"/>
</g>
<!-- Node24 -->
<g id="node24" class="node"><title>Node24</title>
<polygon fill="none" stroke="#bfbfbf" points="434,-68.5 434,-87.5 472,-87.5 472,-68.5 434,-68.5"/>
<text text-anchor="middle" x="453" y="-75.5" font-family="Helvetica,sans-Serif" font-size="10.00">tuple</text>
</g>
<!-- Node21&#45;&gt;Node24 -->
<g id="edge38" class="edge"><title>Node21&#45;&gt;Node24</title>
<path fill="none" stroke="midnightblue" d="M485.56,-124.083C480.051,-116.455 471.969,-105.264 465.235,-95.9408"/>
<polygon fill="midnightblue" stroke="midnightblue" points="468.013,-93.8087 459.32,-87.7511 462.338,-97.9071 468.013,-93.8087"/>
</g>
<!-- Node25 -->
<g id="node25" class="node"><title>Node25</title>
<polygon fill="none" stroke="#bfbfbf" points="490,-68.5 490,-87.5 534,-87.5 534,-68.5 490,-68.5"/>
<text text-anchor="middle" x="512" y="-75.5" font-family="Helvetica,sans-Serif" font-size="10.00">vector</text>
</g>
<!-- Node21&#45;&gt;Node25 -->
<g id="edge39" class="edge"><title>Node21&#45;&gt;Node25</title>
<path fill="none" stroke="midnightblue" d="M495.303,-124.083C497.982,-116.849 501.849,-106.409 505.186,-97.3968"/>
<polygon fill="midnightblue" stroke="midnightblue" points="508.568,-98.3442 508.759,-87.7511 502.004,-95.9129 508.568,-98.3442"/>
</g>
<!-- Node22&#45;&gt;Node3 -->
<g id="edge34" class="edge"><title>Node22&#45;&gt;Node3</title>
<path fill="none" stroke="midnightblue" d="M305.12,-68.4035C296.706,-59.2252 283.181,-44.4699 272.774,-33.1173"/>
<polygon fill="midnightblue" stroke="midnightblue" points="275.203,-30.5871 265.866,-25.5806 270.043,-35.3172 275.203,-30.5871"/>
</g>
<!-- Node26&#45;&gt;Node8 -->
<g id="edge42" class="edge"><title>Node26&#45;&gt;Node8</title>
<path fill="none" stroke="midnightblue" d="M805.479,-180.357C857.249,-159.666 993.211,-106.175 1109,-68 1158.07,-51.8233 1215.69,-35.7533 1251.54,-26.0976"/>
<polygon fill="midnightblue" stroke="midnightblue" points="1252.73,-29.4009 1261.48,-23.4317 1250.92,-22.6394 1252.73,-29.4009"/>
</g>
<!-- Node26&#45;&gt;Node13 -->
<g id="edge41" class="edge"><title>Node26&#45;&gt;Node13</title>
<path fill="none" stroke="midnightblue" d="M796.091,-180.497C806.612,-172.392 821.341,-159.193 829,-144 846.754,-108.783 849.044,-61.5914 848.764,-35.7927"/>
<polygon fill="midnightblue" stroke="midnightblue" points="852.257,-35.4711 848.501,-25.5644 845.259,-35.6512 852.257,-35.4711"/>
</g>
<!-- Node27 -->
<g id="node27" class="node"><title>Node27</title>
<g id="a_node27"><a xlink:href="blitz_8hh.html" target="_top" xlink:title="blitz.hh">
<polygon fill="none" stroke="black" points="694,-68.5 694,-87.5 742,-87.5 742,-68.5 694,-68.5"/>
<text text-anchor="middle" x="718" y="-75.5" font-family="Helvetica,sans-Serif" font-size="10.00">blitz.hh</text>
</a>
</g>
</g>
<!-- Node26&#45;&gt;Node27 -->
<g id="edge43" class="edge"><title>Node26&#45;&gt;Node27</title>
<path fill="none" stroke="midnightblue" d="M772.882,-180.496C762.736,-172.197 747.993,-158.703 739,-144 730.202,-129.615 724.698,-111.158 721.544,-97.5893"/>
<polygon fill="midnightblue" stroke="midnightblue" points="724.913,-96.6018 719.427,-87.5383 718.064,-98.0451 724.913,-96.6018"/>
</g>
<!-- Node28 -->
<g id="node28" class="node"><title>Node28</title>
<g id="a_node28"><a xlink:href="validators_8hh.html" target="_top" xlink:title="validators.hh">
<polygon fill="none" stroke="black" points="748,-124.5 748,-143.5 820,-143.5 820,-124.5 748,-124.5"/>
<text text-anchor="middle" x="784" y="-131.5" font-family="Helvetica,sans-Serif" font-size="10.00">validators.hh</text>
</a>
</g>
</g>
<!-- Node26&#45;&gt;Node28 -->
<g id="edge47" class="edge"><title>Node26&#45;&gt;Node28</title>
<path fill="none" stroke="midnightblue" d="M784,-180.083C784,-173.006 784,-162.861 784,-153.986"/>
<polygon fill="midnightblue" stroke="midnightblue" points="787.5,-153.751 784,-143.751 780.5,-153.751 787.5,-153.751"/>
</g>
<!-- Node27&#45;&gt;Node3 -->
<g id="edge45" class="edge"><title>Node27&#45;&gt;Node3</title>
<path fill="none" stroke="midnightblue" d="M693.949,-70.1893C690.624,-69.3779 687.239,-68.6194 684,-68 546.173,-41.6417 380.502,-26.4586 302.606,-20.2774"/>
<polygon fill="midnightblue" stroke="midnightblue" points="302.452,-16.7547 292.209,-19.4647 301.906,-23.7334 302.452,-16.7547"/>
</g>
<!-- Node27&#45;&gt;Node13 -->
<g id="edge46" class="edge"><title>Node27&#45;&gt;Node13</title>
<path fill="none" stroke="midnightblue" d="M736.626,-68.4035C758.443,-58.3341 794.804,-41.5522 820.017,-29.9151"/>
<polygon fill="midnightblue" stroke="midnightblue" points="821.796,-32.9491 829.409,-25.5806 818.862,-26.5934 821.796,-32.9491"/>
</g>
<!-- Node27&#45;&gt;Node20 -->
<g id="edge44" class="edge"><title>Node27&#45;&gt;Node20</title>
<path fill="none" stroke="midnightblue" d="M693.861,-70.5813C690.549,-69.7091 687.191,-68.8293 684,-68 627.689,-53.3677 562.355,-36.7808 522.095,-26.6047"/>
<polygon fill="midnightblue" stroke="midnightblue" points="522.727,-23.1544 512.174,-24.0985 521.012,-29.9412 522.727,-23.1544"/>
</g>
<!-- Node28&#45;&gt;Node27 -->
<g id="edge49" class="edge"><title>Node28&#45;&gt;Node27</title>
<path fill="none" stroke="midnightblue" d="M773.396,-124.324C763.544,-116.263 748.649,-104.077 736.785,-94.3695"/>
<polygon fill="midnightblue" stroke="midnightblue" points="738.753,-91.4575 728.797,-87.8339 734.32,-96.8752 738.753,-91.4575"/>
</g>
<!-- Node29 -->
<g id="node29" class="node"><title>Node29</title>
<polygon fill="none" stroke="#bfbfbf" points="760.5,-68.5 760.5,-87.5 819.5,-87.5 819.5,-68.5 760.5,-68.5"/>
<text text-anchor="middle" x="790" y="-75.5" font-family="Helvetica,sans-Serif" font-size="10.00">stdexcept</text>
</g>
<!-- Node28&#45;&gt;Node29 -->
<g id="edge48" class="edge"><title>Node28&#45;&gt;Node29</title>
<path fill="none" stroke="midnightblue" d="M784.991,-124.083C785.786,-116.927 786.929,-106.635 787.923,-97.6911"/>
<polygon fill="midnightblue" stroke="midnightblue" points="791.402,-98.0765 789.028,-87.7511 784.445,-97.3034 791.402,-98.0765"/>
</g>
</g>
</svg>
