<?xml version="1.0" encoding="UTF-8" standalone="no"?>
<!DOCTYPE svg PUBLIC "-//W3C//DTD SVG 1.1//EN"
 "http://www.w3.org/Graphics/SVG/1.1/DTD/svg11.dtd">
<!-- Generated by graphviz version 2.40.1 (20161225.0304)
 -->
<!-- Title: src/generator/basic_arma_model.cc Pages: 1 -->
<svg width="2282pt" height="375pt"
 viewBox="0.00 0.00 2281.50 375.00" xmlns="http://www.w3.org/2000/svg" xmlns:xlink="http://www.w3.org/1999/xlink">
<g id="graph0" class="graph" transform="scale(1 1) rotate(0) translate(4 371)">
<title>src/generator/basic_arma_model.cc</title>
<!-- Node0 -->
<g id="node1" class="node">
<title>Node0</title>
<polygon fill="#bfbfbf" stroke="#000000" points="1348.5,-336.5 1348.5,-366.5 1448.5,-366.5 1448.5,-336.5 1348.5,-336.5"/>
<text text-anchor="start" x="1356.5" y="-354.5" font-family="Helvetica,sans-Serif" font-size="10.00" fill="#000000">src/generator/basic</text>
<text text-anchor="middle" x="1398.5" y="-343.5" font-family="Helvetica,sans-Serif" font-size="10.00" fill="#000000">_arma_model.cc</text>
</g>
<!-- Node1 -->
<g id="node2" class="node">
<title>Node1</title>
<g id="a_node2"><a xlink:href="arma_8hh.html" target="_top" xlink:title="arma.hh">
<polygon fill="none" stroke="#000000" points="341.5,-280.5 341.5,-299.5 393.5,-299.5 393.5,-280.5 341.5,-280.5"/>
<text text-anchor="middle" x="367.5" y="-287.5" font-family="Helvetica,sans-Serif" font-size="10.00" fill="#000000">arma.hh</text>
</a>
</g>
</g>
<!-- Node0&#45;&gt;Node1 -->
<g id="edge1" class="edge">
<title>Node0&#45;&gt;Node1</title>
<path fill="none" stroke="#191970" d="M1348.4243,-348.5129C1168.8463,-337.801 559.608,-301.4594 403.9491,-292.1742"/>
<polygon fill="#191970" stroke="#191970" points="403.7283,-288.6549 393.5376,-291.5532 403.3114,-295.6425 403.7283,-288.6549"/>
</g>
<!-- Node4 -->
<g id="node5" class="node">
<title>Node4</title>
<g id="a_node5"><a xlink:href="basic__arma__model_8hh.html" target="_top" xlink:title="basic_arma_model.hh">
<polygon fill="none" stroke="#000000" points="886.5,-280.5 886.5,-299.5 998.5,-299.5 998.5,-280.5 886.5,-280.5"/>
<text text-anchor="middle" x="942.5" y="-287.5" font-family="Helvetica,sans-Serif" font-size="10.00" fill="#000000">basic_arma_model.hh</text>
</a>
</g>
</g>
<!-- Node0&#45;&gt;Node4 -->
<g id="edge4" class="edge">
<title>Node0&#45;&gt;Node4</title>
<path fill="none" stroke="#191970" d="M1348.3956,-344.7425C1265.7739,-333.5994 1100.9444,-311.3691 1008.779,-298.9389"/>
<polygon fill="#191970" stroke="#191970" points="1009.1065,-295.4515 998.7284,-297.5834 1008.1708,-302.3887 1009.1065,-295.4515"/>
</g>
<!-- Node13 -->
<g id="node14" class="node">
<title>Node13</title>
<g id="a_node14"><a xlink:href="validators_8hh.html" target="_top" xlink:title="validators.hh">
<polygon fill="none" stroke="#000000" points="1406.5,-112.5 1406.5,-131.5 1478.5,-131.5 1478.5,-112.5 1406.5,-112.5"/>
<text text-anchor="middle" x="1442.5" y="-119.5" font-family="Helvetica,sans-Serif" font-size="10.00" fill="#000000">validators.hh</text>
</a>
</g>
</g>
<!-- Node0&#45;&gt;Node13 -->
<g id="edge80" class="edge">
<title>Node0&#45;&gt;Node13</title>
<path fill="none" stroke="#191970" d="M1411.6963,-336.1517C1434.352,-308.6708 1479.8176,-248.2816 1496.5,-188 1498.8708,-179.4331 1500.2266,-176.07 1496.5,-168 1490.6741,-155.384 1479.4931,-144.9528 1468.8095,-137.2314"/>
<polygon fill="#191970" stroke="#191970" points="1470.7142,-134.2946 1460.4599,-131.6299 1466.8144,-140.1076 1470.7142,-134.2946"/>
</g>
<!-- Node29 -->
<g id="node22" class="node">
<title>Node29</title>
<g id="a_node22"><a xlink:href="nit__transform_8hh.html" target="_top" xlink:title="nonlinear/nit_transform.hh">
<polygon fill="none" stroke="#000000" points="320,-224.5 320,-243.5 449,-243.5 449,-224.5 320,-224.5"/>
<text text-anchor="middle" x="384.5" y="-231.5" font-family="Helvetica,sans-Serif" font-size="10.00" fill="#000000">nonlinear/nit_transform.hh</text>
</a>
</g>
</g>
<!-- Node0&#45;&gt;Node29 -->
<g id="edge79" class="edge">
<title>Node0&#45;&gt;Node29</title>
<path fill="none" stroke="#191970" d="M1348.4639,-349.1008C1240.2998,-343.5591 976.7552,-328.1412 757.5,-300 644.1183,-285.4476 512.7404,-260.2286 440.0789,-245.5375"/>
<polygon fill="#191970" stroke="#191970" points="440.7202,-242.0964 430.2238,-243.5366 439.3274,-248.9564 440.7202,-242.0964"/>
</g>
<!-- Node45 -->
<g id="node35" class="node">
<title>Node45</title>
<g id="a_node35"><a xlink:href="acf__wrapper_8hh.html" target="_top" xlink:title="bits/acf_wrapper.hh">
<polygon fill="none" stroke="#000000" points="767,-280.5 767,-299.5 868,-299.5 868,-280.5 767,-280.5"/>
<text text-anchor="middle" x="817.5" y="-287.5" font-family="Helvetica,sans-Serif" font-size="10.00" fill="#000000">bits/acf_wrapper.hh</text>
</a>
</g>
</g>
<!-- Node0&#45;&gt;Node45 -->
<g id="edge65" class="edge">
<title>Node0&#45;&gt;Node45</title>
<path fill="none" stroke="#191970" d="M1348.4422,-347.6684C1257.174,-340.4391 1057.4147,-323.4955 878.337,-300.0322"/>
<polygon fill="#191970" stroke="#191970" points="878.5755,-296.5334 868.2034,-298.6945 877.6593,-303.4732 878.5755,-296.5334"/>
</g>
<!-- Node46 -->
<g id="node36" class="node">
<title>Node46</title>
<g id="a_node36"><a xlink:href="transform__wrapper_8hh.html" target="_top" xlink:title="bits/transform_wrapper.hh">
<polygon fill="none" stroke="#000000" points="1359,-168.5 1359,-187.5 1488,-187.5 1488,-168.5 1359,-168.5"/>
<text text-anchor="middle" x="1423.5" y="-175.5" font-family="Helvetica,sans-Serif" font-size="10.00" fill="#000000">bits/transform_wrapper.hh</text>
</a>
</g>
</g>
<!-- Node0&#45;&gt;Node46 -->
<g id="edge70" class="edge">
<title>Node0&#45;&gt;Node46</title>
<path fill="none" stroke="#191970" d="M1400.6749,-336.4065C1405.1985,-305.0126 1415.6187,-232.6961 1420.6625,-197.6925"/>
<polygon fill="#191970" stroke="#191970" points="1424.1348,-198.135 1422.0968,-187.738 1417.2063,-197.1366 1424.1348,-198.135"/>
</g>
<!-- Node48 -->
<g id="node38" class="node">
<title>Node48</title>
<g id="a_node38"><a xlink:href="write__csv_8hh.html" target="_top" xlink:title="bits/write_csv.hh">
<polygon fill="none" stroke="#000000" points="1560.5,-224.5 1560.5,-243.5 1650.5,-243.5 1650.5,-224.5 1560.5,-224.5"/>
<text text-anchor="middle" x="1605.5" y="-231.5" font-family="Helvetica,sans-Serif" font-size="10.00" fill="#000000">bits/write_csv.hh</text>
</a>
</g>
</g>
<!-- Node0&#45;&gt;Node48 -->
<g id="edge74" class="edge">
<title>Node0&#45;&gt;Node48</title>
<path fill="none" stroke="#191970" d="M1448.6903,-340.7973C1478.7885,-332.7943 1516.8483,-319.7722 1546.5,-300 1565.5608,-287.29 1582.428,-267.0045 1593.1936,-252.2748"/>
<polygon fill="#191970" stroke="#191970" points="1596.1695,-254.128 1599.0734,-243.9388 1590.4493,-250.0932 1596.1695,-254.128"/>
</g>
<!-- Node49 -->
<g id="node39" class="node">
<title>Node49</title>
<g id="a_node39"><a xlink:href="util_8hh.html" target="_top" xlink:title="util.hh">
<polygon fill="none" stroke="#000000" points="2179,-168.5 2179,-187.5 2222,-187.5 2222,-168.5 2179,-168.5"/>
<text text-anchor="middle" x="2200.5" y="-175.5" font-family="Helvetica,sans-Serif" font-size="10.00" fill="#000000">util.hh</text>
</a>
</g>
</g>
<!-- Node0&#45;&gt;Node49 -->
<g id="edge81" class="edge">
<title>Node0&#45;&gt;Node49</title>
<path fill="none" stroke="#191970" d="M1448.5723,-350.3382C1599.7552,-345.9417 2048.3262,-326.1118 2164.5,-244 2180.1097,-232.9671 2189.6413,-212.9572 2194.9405,-197.8524"/>
<polygon fill="#191970" stroke="#191970" points="2198.4035,-198.509 2198.0775,-187.9192 2191.7285,-196.4009 2198.4035,-198.509"/>
</g>
<!-- Node52 -->
<g id="node42" class="node">
<title>Node52</title>
<g id="a_node42"><a xlink:href="profile__counters_8hh.html" target="_top" xlink:title="profile_counters.hh">
<polygon fill="none" stroke="#000000" points="1233,-280.5 1233,-299.5 1332,-299.5 1332,-280.5 1233,-280.5"/>
<text text-anchor="middle" x="1282.5" y="-287.5" font-family="Helvetica,sans-Serif" font-size="10.00" fill="#000000">profile_counters.hh</text>
</a>
</g>
</g>
<!-- Node0&#45;&gt;Node52 -->
<g id="edge86" class="edge">
<title>Node0&#45;&gt;Node52</title>
<path fill="none" stroke="#191970" d="M1370.1232,-336.4554C1351.6172,-326.644 1327.6112,-313.9167 1309.4069,-304.2653"/>
<polygon fill="#191970" stroke="#191970" points="1310.9505,-301.1222 1300.4759,-299.5303 1307.6715,-307.3068 1310.9505,-301.1222"/>
</g>
<!-- Node54 -->
<g id="node44" class="node">
<title>Node54</title>
<g id="a_node44"><a xlink:href="white__noise_8hh.html" target="_top" xlink:title="white_noise.hh">
<polygon fill="none" stroke="#000000" points="1308.5,-224.5 1308.5,-243.5 1390.5,-243.5 1390.5,-224.5 1308.5,-224.5"/>
<text text-anchor="middle" x="1349.5" y="-231.5" font-family="Helvetica,sans-Serif" font-size="10.00" fill="#000000">white_noise.hh</text>
</a>
</g>
</g>
<!-- Node0&#45;&gt;Node54 -->
<g id="edge88" class="edge">
<title>Node0&#45;&gt;Node54</title>
<path fill="none" stroke="#191970" d="M1392.0941,-336.1389C1383.1856,-314.7768 1367.0659,-276.1224 1357.4159,-252.982"/>
<polygon fill="#191970" stroke="#191970" points="1360.5659,-251.4419 1353.4865,-243.5595 1354.1051,-254.1362 1360.5659,-251.4419"/>
</g>
<!-- Node55 -->
<g id="node45" class="node">
<title>Node55</title>
<polygon fill="none" stroke="#bfbfbf" points="1757,-280.5 1757,-299.5 1806,-299.5 1806,-280.5 1757,-280.5"/>
<text text-anchor="middle" x="1781.5" y="-287.5" font-family="Helvetica,sans-Serif" font-size="10.00" fill="#000000">random</text>
</g>
<!-- Node0&#45;&gt;Node55 -->
<g id="edge93" class="edge">
<title>Node0&#45;&gt;Node55</title>
<path fill="none" stroke="#191970" d="M1448.6004,-346.3324C1514.7452,-339.0201 1634.9147,-324.0432 1746.6309,-299.9304"/>
<polygon fill="#191970" stroke="#191970" points="1747.7007,-303.2792 1756.7212,-297.7221 1746.2041,-296.441 1747.7007,-303.2792"/>
</g>
<!-- Node56 -->
<g id="node46" class="node">
<title>Node56</title>
<g id="a_node46"><a xlink:href="basic__arma__model__verify_8cc.html" target="_top" xlink:title="basic_arma_model_verify.cc">
<polygon fill="none" stroke="#000000" points="1598.5,-280.5 1598.5,-299.5 1738.5,-299.5 1738.5,-280.5 1598.5,-280.5"/>
<text text-anchor="middle" x="1668.5" y="-287.5" font-family="Helvetica,sans-Serif" font-size="10.00" fill="#000000">basic_arma_model_verify.cc</text>
</a>
</g>
</g>
<!-- Node0&#45;&gt;Node56 -->
<g id="edge94" class="edge">
<title>Node0&#45;&gt;Node56</title>
<path fill="none" stroke="#191970" d="M1448.6522,-340.0765C1496.4907,-329.1799 1568.234,-312.8384 1616.6336,-301.814"/>
<polygon fill="#191970" stroke="#191970" points="1617.6173,-305.1797 1626.5903,-299.5461 1616.0626,-298.3545 1617.6173,-305.1797"/>
</g>
<!-- Node2 -->
<g id="node3" class="node">
<title>Node2</title>
<g id="a_node3"><a xlink:href="types_8hh.html" target="_top" xlink:title="types.hh">
<polygon fill="none" stroke="#000000" points="261.5,-168.5 261.5,-187.5 315.5,-187.5 315.5,-168.5 261.5,-168.5"/>
<text text-anchor="middle" x="288.5" y="-175.5" font-family="Helvetica,sans-Serif" font-size="10.00" fill="#000000">types.hh</text>
</a>
</g>
</g>
<!-- Node1&#45;&gt;Node2 -->
<g id="edge2" class="edge">
<title>Node1&#45;&gt;Node2</title>
<path fill="none" stroke="#191970" d="M351.0962,-280.4352C338.3713,-272.2442 321.1591,-259.3562 310.5,-244 300.8268,-230.0641 295.1456,-211.5532 291.9878,-197.6822"/>
<polygon fill="#191970" stroke="#191970" points="295.387,-196.8331 289.9683,-187.7288 288.5267,-198.2251 295.387,-196.8331"/>
</g>
<!-- Node3 -->
<g id="node4" class="node">
<title>Node3</title>
<polygon fill="none" stroke="#bfbfbf" points="1027,-.5 1027,-19.5 1094,-19.5 1094,-.5 1027,-.5"/>
<text text-anchor="middle" x="1060.5" y="-7.5" font-family="Helvetica,sans-Serif" font-size="10.00" fill="#000000">blitz/array.h</text>
</g>
<!-- Node2&#45;&gt;Node3 -->
<g id="edge3" class="edge">
<title>Node2&#45;&gt;Node3</title>
<path fill="none" stroke="#191970" d="M286.9202,-168.1889C283.7556,-144.6639 279.5262,-84.8613 312.5,-56 339.1173,-32.7025 860.451,-15.7878 1016.6465,-11.2273"/>
<polygon fill="#191970" stroke="#191970" points="1016.93,-14.7207 1026.8245,-10.9326 1016.7273,-7.7236 1016.93,-14.7207"/>
</g>
<!-- Node5 -->
<g id="node6" class="node">
<title>Node5</title>
<polygon fill="none" stroke="#bfbfbf" points="1830.5,-112.5 1830.5,-131.5 1874.5,-131.5 1874.5,-112.5 1830.5,-112.5"/>
<text text-anchor="middle" x="1852.5" y="-119.5" font-family="Helvetica,sans-Serif" font-size="10.00" fill="#000000">vector</text>
</g>
<!-- Node4&#45;&gt;Node5 -->
<g id="edge5" class="edge">
<title>Node4&#45;&gt;Node5</title>
<path fill="none" stroke="#191970" d="M998.5847,-287.4977C1156.2302,-280.3102 1595.9508,-259.1493 1659.5,-244 1721.093,-229.317 1738.6118,-224.2891 1790.5,-188 1809.7038,-174.5694 1827.5646,-154.4025 1839.1354,-139.8976"/>
<polygon fill="#191970" stroke="#191970" points="1842.1227,-141.7567 1845.4828,-131.7088 1836.5901,-137.4682 1842.1227,-141.7567"/>
</g>
<!-- Node6 -->
<g id="node7" class="node">
<title>Node6</title>
<g id="a_node7"><a xlink:href="basic__model_8hh.html" target="_top" xlink:title="basic_model.hh">
<polygon fill="none" stroke="#000000" points="900,-224.5 900,-243.5 985,-243.5 985,-224.5 900,-224.5"/>
<text text-anchor="middle" x="942.5" y="-231.5" font-family="Helvetica,sans-Serif" font-size="10.00" fill="#000000">basic_model.hh</text>
</a>
</g>
</g>
<!-- Node4&#45;&gt;Node6 -->
<g id="edge6" class="edge">
<title>Node4&#45;&gt;Node6</title>
<path fill="none" stroke="#191970" d="M942.5,-280.2455C942.5,-272.9382 942.5,-262.6944 942.5,-253.7046"/>
<polygon fill="#191970" stroke="#191970" points="946.0001,-253.6426 942.5,-243.6427 939.0001,-253.6427 946.0001,-253.6426"/>
</g>
<!-- Node28 -->
<g id="node21" class="node">
<title>Node28</title>
<g id="a_node21"><a xlink:href="discrete__function_8hh.html" target="_top" xlink:title="discrete_function.hh">
<polygon fill="none" stroke="#000000" points="511.5,-224.5 511.5,-243.5 615.5,-243.5 615.5,-224.5 511.5,-224.5"/>
<text text-anchor="middle" x="563.5" y="-231.5" font-family="Helvetica,sans-Serif" font-size="10.00" fill="#000000">discrete_function.hh</text>
</a>
</g>
</g>
<!-- Node4&#45;&gt;Node28 -->
<g id="edge31" class="edge">
<title>Node4&#45;&gt;Node28</title>
<path fill="none" stroke="#191970" d="M886.3354,-281.4571C883.008,-280.9613 879.7104,-280.4725 876.5,-280 767.7387,-263.9921 737.996,-261.298 625.76,-244.1703"/>
<polygon fill="#191970" stroke="#191970" points="626.1467,-240.6888 615.7322,-242.6352 625.0874,-247.6082 626.1467,-240.6888"/>
</g>
<!-- Node4&#45;&gt;Node29 -->
<g id="edge34" class="edge">
<title>Node4&#45;&gt;Node29</title>
<path fill="none" stroke="#191970" d="M886.3605,-281.2709C883.0268,-280.8219 879.7209,-280.3943 876.5,-280 797.7916,-270.3658 576.2015,-250.6588 459.1271,-240.4502"/>
<polygon fill="#191970" stroke="#191970" points="459.429,-236.9634 449.163,-239.5823 458.8215,-243.937 459.429,-236.9634"/>
</g>
<!-- Node42 -->
<g id="node32" class="node">
<title>Node42</title>
<g id="a_node32"><a xlink:href="params_8hh.html" target="_top" xlink:title="params.hh">
<polygon fill="none" stroke="#000000" points="754.5,-224.5 754.5,-243.5 816.5,-243.5 816.5,-224.5 754.5,-224.5"/>
<text text-anchor="middle" x="785.5" y="-231.5" font-family="Helvetica,sans-Serif" font-size="10.00" fill="#000000">params.hh</text>
</a>
</g>
</g>
<!-- Node4&#45;&gt;Node42 -->
<g id="edge61" class="edge">
<title>Node4&#45;&gt;Node42</title>
<path fill="none" stroke="#191970" d="M915.5107,-280.3733C889.6301,-271.1419 850.3752,-257.1402 821.7711,-246.9375"/>
<polygon fill="#191970" stroke="#191970" points="822.7317,-243.5642 812.1371,-243.5011 820.38,-250.1573 822.7317,-243.5642"/>
</g>
<!-- Node6&#45;&gt;Node2 -->
<g id="edge30" class="edge">
<title>Node6&#45;&gt;Node2</title>
<path fill="none" stroke="#191970" d="M899.9858,-230.3585C877.7885,-228.4592 850.1805,-226.1 825.5,-224 636.6172,-207.9283 589.352,-204.4292 400.5,-188 375.597,-185.8336 347.5856,-183.3325 325.8057,-181.3736"/>
<polygon fill="#191970" stroke="#191970" points="325.9289,-177.8706 315.6552,-180.4594 325.3009,-184.8424 325.9289,-177.8706"/>
</g>
<!-- Node7 -->
<g id="node8" class="node">
<title>Node7</title>
<polygon fill="none" stroke="#bfbfbf" points="903,-56.5 903,-75.5 952,-75.5 952,-56.5 903,-56.5"/>
<text text-anchor="middle" x="927.5" y="-63.5" font-family="Helvetica,sans-Serif" font-size="10.00" fill="#000000">istream</text>
</g>
<!-- Node6&#45;&gt;Node7 -->
<g id="edge7" class="edge">
<title>Node6&#45;&gt;Node7</title>
<path fill="none" stroke="#191970" d="M948.7583,-224.2433C954.1356,-215.2409 961.4843,-201.2951 964.5,-188 966.4663,-179.3313 966.0388,-176.7547 964.5,-168 959.196,-137.8239 945.6962,-104.8185 936.5559,-84.7601"/>
<polygon fill="#191970" stroke="#191970" points="939.6478,-83.1093 932.24,-75.5345 933.3073,-86.0755 939.6478,-83.1093"/>
</g>
<!-- Node8 -->
<g id="node9" class="node">
<title>Node8</title>
<polygon fill="none" stroke="#bfbfbf" points="674.5,-56.5 674.5,-75.5 726.5,-75.5 726.5,-56.5 674.5,-56.5"/>
<text text-anchor="middle" x="700.5" y="-63.5" font-family="Helvetica,sans-Serif" font-size="10.00" fill="#000000">ostream</text>
</g>
<!-- Node6&#45;&gt;Node8 -->
<g id="edge8" class="edge">
<title>Node6&#45;&gt;Node8</title>
<path fill="none" stroke="#191970" d="M924.5749,-224.3383C908.3273,-215.3998 883.8783,-201.4945 863.5,-188 810.1212,-152.6527 750.6822,-106.2535 720.4777,-82.1345"/>
<polygon fill="#191970" stroke="#191970" points="722.4129,-79.2 712.4215,-75.6753 718.0341,-84.6614 722.4129,-79.2"/>
</g>
<!-- Node9 -->
<g id="node10" class="node">
<title>Node9</title>
<g id="a_node10"><a xlink:href="grid_8hh.html" target="_top" xlink:title="grid.hh">
<polygon fill="none" stroke="#000000" points="1582.5,-168.5 1582.5,-187.5 1628.5,-187.5 1628.5,-168.5 1582.5,-168.5"/>
<text text-anchor="middle" x="1605.5" y="-175.5" font-family="Helvetica,sans-Serif" font-size="10.00" fill="#000000">grid.hh</text>
</a>
</g>
</g>
<!-- Node6&#45;&gt;Node9 -->
<g id="edge9" class="edge">
<title>Node6&#45;&gt;Node9</title>
<path fill="none" stroke="#191970" d="M985.2584,-230.5764C1078.2599,-223.1019 1305.8923,-204.6565 1496.5,-188 1521.8793,-185.7822 1550.5697,-183.1448 1572.1431,-181.1355"/>
<polygon fill="#191970" stroke="#191970" points="1572.4851,-184.6189 1582.1164,-180.2042 1571.8342,-177.6492 1572.4851,-184.6189"/>
</g>
<!-- Node15 -->
<g id="node16" class="node">
<title>Node15</title>
<g id="a_node16"><a xlink:href="output__flags_8hh.html" target="_top" xlink:title="output_flags.hh">
<polygon fill="none" stroke="#ff0000" points="873,-168.5 873,-187.5 956,-187.5 956,-168.5 873,-168.5"/>
<text text-anchor="middle" x="914.5" y="-175.5" font-family="Helvetica,sans-Serif" font-size="10.00" fill="#000000">output_flags.hh</text>
</a>
</g>
</g>
<!-- Node6&#45;&gt;Node15 -->
<g id="edge19" class="edge">
<title>Node6&#45;&gt;Node15</title>
<path fill="none" stroke="#191970" d="M937.6228,-224.2455C933.8487,-216.6973 928.5079,-206.0158 923.9099,-196.8197"/>
<polygon fill="#191970" stroke="#191970" points="926.924,-195.0217 919.3213,-187.6427 920.663,-198.1522 926.924,-195.0217"/>
</g>
<!-- Node19 -->
<g id="node18" class="node">
<title>Node19</title>
<g id="a_node18"><a xlink:href="parallel__mt_8hh.html" target="_top" xlink:title="parallel_mt.hh">
<polygon fill="none" stroke="#ff0000" points="1685,-168.5 1685,-187.5 1762,-187.5 1762,-168.5 1685,-168.5"/>
<text text-anchor="middle" x="1723.5" y="-175.5" font-family="Helvetica,sans-Serif" font-size="10.00" fill="#000000">parallel_mt.hh</text>
</a>
</g>
</g>
<!-- Node6&#45;&gt;Node19 -->
<g id="edge23" class="edge">
<title>Node6&#45;&gt;Node19</title>
<path fill="none" stroke="#191970" d="M985.2643,-231.9104C1094.1934,-226.4269 1390.9314,-210.4812 1637.5,-188 1649.5454,-186.9017 1662.5155,-185.5059 1674.6388,-184.108"/>
<polygon fill="#191970" stroke="#191970" points="1675.0609,-187.5826 1684.5843,-182.9398 1674.2442,-180.6304 1675.0609,-187.5826"/>
</g>
<!-- Node9&#45;&gt;Node7 -->
<g id="edge11" class="edge">
<title>Node9&#45;&gt;Node7</title>
<path fill="none" stroke="#191970" d="M1590.2679,-168.3983C1563.4975,-151.7091 1508.8296,-118.5039 1487.5,-112 1388.4943,-81.8111 1068.8196,-70.0631 962.3573,-66.9274"/>
<polygon fill="#191970" stroke="#191970" points="962.2569,-63.4231 952.1604,-66.6344 962.0557,-70.4202 962.2569,-63.4231"/>
</g>
<!-- Node10 -->
<g id="node11" class="node">
<title>Node10</title>
<polygon fill="none" stroke="#bfbfbf" points="1610.5,-.5 1610.5,-19.5 1654.5,-19.5 1654.5,-.5 1610.5,-.5"/>
<text text-anchor="middle" x="1632.5" y="-7.5" font-family="Helvetica,sans-Serif" font-size="10.00" fill="#000000">cmath</text>
</g>
<!-- Node9&#45;&gt;Node10 -->
<g id="edge10" class="edge">
<title>Node9&#45;&gt;Node10</title>
<path fill="none" stroke="#191970" d="M1609.8582,-168.4183C1617.6736,-150.6499 1633.7891,-111.1921 1639.5,-76 1640.9238,-67.2259 1640.1705,-64.8636 1639.5,-56 1638.8464,-47.361 1637.5119,-37.8868 1636.1817,-29.7935"/>
<polygon fill="#191970" stroke="#191970" points="1639.6078,-29.0674 1634.4347,-19.8213 1632.7128,-30.2753 1639.6078,-29.0674"/>
</g>
<!-- Node11 -->
<g id="node12" class="node">
<title>Node11</title>
<g id="a_node12"><a xlink:href="blitz_8hh.html" target="_top" xlink:title="blitz.hh">
<polygon fill="none" stroke="#000000" points="1582.5,-56.5 1582.5,-75.5 1630.5,-75.5 1630.5,-56.5 1582.5,-56.5"/>
<text text-anchor="middle" x="1606.5" y="-63.5" font-family="Helvetica,sans-Serif" font-size="10.00" fill="#000000">blitz.hh</text>
</a>
</g>
</g>
<!-- Node9&#45;&gt;Node11 -->
<g id="edge12" class="edge">
<title>Node9&#45;&gt;Node11</title>
<path fill="none" stroke="#191970" d="M1605.5853,-168.4509C1605.7484,-150.184 1606.1075,-109.9553 1606.3241,-85.6976"/>
<polygon fill="#191970" stroke="#191970" points="1609.8254,-85.5558 1606.415,-75.5249 1602.8257,-85.4932 1609.8254,-85.5558"/>
</g>
<!-- Node9&#45;&gt;Node13 -->
<g id="edge16" class="edge">
<title>Node9&#45;&gt;Node13</title>
<path fill="none" stroke="#191970" d="M1582.4918,-170.0953C1555.8853,-160.9545 1511.7004,-145.7744 1480.0855,-134.9128"/>
<polygon fill="#191970" stroke="#191970" points="1480.8955,-131.4903 1470.3008,-131.5512 1478.621,-138.1105 1480.8955,-131.4903"/>
</g>
<!-- Node11&#45;&gt;Node3 -->
<g id="edge14" class="edge">
<title>Node11&#45;&gt;Node3</title>
<path fill="none" stroke="#191970" d="M1582.3346,-63.5215C1497.6632,-54.8373 1213.6257,-25.7052 1104.0922,-14.471"/>
<polygon fill="#191970" stroke="#191970" points="1104.3545,-10.9796 1094.0495,-13.441 1103.6402,-17.9431 1104.3545,-10.9796"/>
</g>
<!-- Node11&#45;&gt;Node10 -->
<g id="edge15" class="edge">
<title>Node11&#45;&gt;Node10</title>
<path fill="none" stroke="#191970" d="M1611.0289,-56.2455C1614.5334,-48.6973 1619.4927,-38.0158 1623.7623,-28.8197"/>
<polygon fill="#191970" stroke="#191970" points="1626.9864,-30.1867 1628.023,-19.6427 1620.6373,-27.2389 1626.9864,-30.1867"/>
</g>
<!-- Node12 -->
<g id="node13" class="node">
<title>Node12</title>
<polygon fill="none" stroke="#bfbfbf" points="1895.5,-.5 1895.5,-19.5 1951.5,-19.5 1951.5,-.5 1895.5,-.5"/>
<text text-anchor="middle" x="1923.5" y="-7.5" font-family="Helvetica,sans-Serif" font-size="10.00" fill="#000000">algorithm</text>
</g>
<!-- Node11&#45;&gt;Node12 -->
<g id="edge13" class="edge">
<title>Node11&#45;&gt;Node12</title>
<path fill="none" stroke="#191970" d="M1630.5867,-61.7449C1685.3089,-52.0779 1819.3519,-28.3984 1885.4214,-16.7268"/>
<polygon fill="#191970" stroke="#191970" points="1886.1803,-20.147 1895.4189,-14.9607 1884.9625,-13.2538 1886.1803,-20.147"/>
</g>
<!-- Node13&#45;&gt;Node11 -->
<g id="edge18" class="edge">
<title>Node13&#45;&gt;Node11</title>
<path fill="none" stroke="#191970" d="M1470.6926,-112.3733C1498.9972,-102.7083 1542.6156,-87.8142 1572.7463,-77.5256"/>
<polygon fill="#191970" stroke="#191970" points="1574.0734,-80.771 1582.4059,-74.2273 1571.8113,-74.1465 1574.0734,-80.771"/>
</g>
<!-- Node14 -->
<g id="node15" class="node">
<title>Node14</title>
<polygon fill="none" stroke="#bfbfbf" points="1413,-56.5 1413,-75.5 1472,-75.5 1472,-56.5 1413,-56.5"/>
<text text-anchor="middle" x="1442.5" y="-63.5" font-family="Helvetica,sans-Serif" font-size="10.00" fill="#000000">stdexcept</text>
</g>
<!-- Node13&#45;&gt;Node14 -->
<g id="edge17" class="edge">
<title>Node13&#45;&gt;Node14</title>
<path fill="none" stroke="#191970" d="M1442.5,-112.2455C1442.5,-104.9382 1442.5,-94.6944 1442.5,-85.7046"/>
<polygon fill="#191970" stroke="#191970" points="1446.0001,-85.6426 1442.5,-75.6427 1439.0001,-85.6427 1446.0001,-85.6426"/>
</g>
<!-- Node15&#45;&gt;Node7 -->
<g id="edge20" class="edge">
<title>Node15&#45;&gt;Node7</title>
<path fill="none" stroke="#191970" d="M916.4931,-168.1707C918.3084,-158.885 920.9372,-144.5484 922.5,-132 924.4112,-116.654 925.6948,-99.2031 926.4824,-86.1014"/>
<polygon fill="#191970" stroke="#191970" points="929.9907,-86.0482 927.0502,-75.8696 923.0014,-85.6603 929.9907,-86.0482"/>
</g>
<!-- Node15&#45;&gt;Node8 -->
<g id="edge21" class="edge">
<title>Node15&#45;&gt;Node8</title>
<path fill="none" stroke="#191970" d="M896.2545,-168.4509C858.5877,-148.7375 772.0497,-103.4465 727.7359,-80.2543"/>
<polygon fill="#191970" stroke="#191970" points="729.1822,-77.0609 718.6993,-75.5249 725.9363,-83.2629 729.1822,-77.0609"/>
</g>
<!-- Node17 -->
<g id="node17" class="node">
<title>Node17</title>
<polygon fill="none" stroke="#bfbfbf" points="1199,-112.5 1199,-131.5 1240,-131.5 1240,-112.5 1199,-112.5"/>
<text text-anchor="middle" x="1219.5" y="-119.5" font-family="Helvetica,sans-Serif" font-size="10.00" fill="#000000">string</text>
</g>
<!-- Node15&#45;&gt;Node17 -->
<g id="edge22" class="edge">
<title>Node15&#45;&gt;Node17</title>
<path fill="none" stroke="#191970" d="M956.2694,-170.3309C1018.3677,-158.9292 1133.6131,-137.7694 1188.6667,-127.6612"/>
<polygon fill="#191970" stroke="#191970" points="1189.6378,-131.0415 1198.8413,-125.7931 1188.3736,-124.1566 1189.6378,-131.0415"/>
</g>
<!-- Node19&#45;&gt;Node5 -->
<g id="edge27" class="edge">
<title>Node19&#45;&gt;Node5</title>
<path fill="none" stroke="#191970" d="M1745.6759,-168.3733C1766.4766,-159.3435 1797.7917,-145.7494 1821.1458,-135.6111"/>
<polygon fill="#191970" stroke="#191970" points="1822.8343,-138.6938 1830.6135,-131.5011 1820.0468,-132.2727 1822.8343,-138.6938"/>
</g>
<!-- Node19&#45;&gt;Node7 -->
<g id="edge25" class="edge">
<title>Node19&#45;&gt;Node7</title>
<path fill="none" stroke="#191970" d="M1684.684,-169.7715C1650.7248,-161.9662 1600.415,-148.9223 1558.5,-132 1541.1663,-125.0019 1539.4316,-117.2812 1521.5,-112 1415.6352,-80.821 1073.5271,-69.6592 962.5857,-66.8075"/>
<polygon fill="#191970" stroke="#191970" points="962.3735,-63.3011 952.289,-66.5498 962.1983,-70.299 962.3735,-63.3011"/>
</g>
<!-- Node19&#45;&gt;Node12 -->
<g id="edge24" class="edge">
<title>Node19&#45;&gt;Node12</title>
<path fill="none" stroke="#191970" d="M1725.8742,-168.4729C1729.7129,-154.6668 1738.4169,-128.9051 1753.5,-112 1791.2573,-69.6818 1850.8387,-39.5825 1888.5074,-23.5047"/>
<polygon fill="#191970" stroke="#191970" points="1890.1632,-26.6066 1898.0496,-19.5317 1887.4725,-20.1444 1890.1632,-26.6066"/>
</g>
<!-- Node19&#45;&gt;Node14 -->
<g id="edge26" class="edge">
<title>Node19&#45;&gt;Node14</title>
<path fill="none" stroke="#191970" d="M1699.7369,-168.469C1667.6819,-155.6182 1608.8033,-132.0345 1558.5,-112 1530.8506,-100.9879 1499.472,-88.5482 1476.3287,-79.3841"/>
<polygon fill="#191970" stroke="#191970" points="1477.5354,-76.0976 1466.9491,-75.6709 1474.9587,-82.6061 1477.5354,-76.0976"/>
</g>
<!-- Node24 -->
<g id="node19" class="node">
<title>Node24</title>
<polygon fill="none" stroke="#bfbfbf" points="1762.5,-112.5 1762.5,-131.5 1812.5,-131.5 1812.5,-112.5 1762.5,-112.5"/>
<text text-anchor="middle" x="1787.5" y="-119.5" font-family="Helvetica,sans-Serif" font-size="10.00" fill="#000000">fstream</text>
</g>
<!-- Node19&#45;&gt;Node24 -->
<g id="edge28" class="edge">
<title>Node19&#45;&gt;Node24</title>
<path fill="none" stroke="#191970" d="M1734.6479,-168.2455C1744.0087,-160.0549 1757.5858,-148.1749 1768.6349,-138.5069"/>
<polygon fill="#191970" stroke="#191970" points="1771.2588,-140.8618 1776.4798,-131.6427 1766.6492,-135.5937 1771.2588,-140.8618"/>
</g>
<!-- Node25 -->
<g id="node20" class="node">
<title>Node25</title>
<polygon fill="none" stroke="#bfbfbf" points="1931,-112.5 1931,-131.5 1978,-131.5 1978,-112.5 1931,-112.5"/>
<text text-anchor="middle" x="1954.5" y="-119.5" font-family="Helvetica,sans-Serif" font-size="10.00" fill="#000000">iterator</text>
</g>
<!-- Node19&#45;&gt;Node25 -->
<g id="edge29" class="edge">
<title>Node19&#45;&gt;Node25</title>
<path fill="none" stroke="#191970" d="M1762.1642,-168.6269C1806.6596,-157.8401 1878.9982,-140.3035 1921.1295,-130.0898"/>
<polygon fill="#191970" stroke="#191970" points="1922.0085,-133.4782 1930.9023,-127.7206 1920.3592,-126.6752 1922.0085,-133.4782"/>
</g>
<!-- Node28&#45;&gt;Node2 -->
<g id="edge33" class="edge">
<title>Node28&#45;&gt;Node2</title>
<path fill="none" stroke="#191970" d="M511.3143,-224.4395C463.8,-215.5691 391.7691,-201.7069 329.5,-188 328.2523,-187.7253 326.9843,-187.4417 325.7046,-187.1516"/>
<polygon fill="#191970" stroke="#191970" points="326.3409,-183.7061 315.8072,-184.842 324.7502,-190.523 326.3409,-183.7061"/>
</g>
<!-- Node28&#45;&gt;Node9 -->
<g id="edge32" class="edge">
<title>Node28&#45;&gt;Node9</title>
<path fill="none" stroke="#191970" d="M615.6878,-225.0176C618.6644,-224.6384 621.6175,-224.2947 624.5,-224 1010.3746,-184.5524 1109.4684,-213.7266 1496.5,-188 1521.9199,-186.3103 1550.6084,-183.6479 1572.1708,-181.495"/>
<polygon fill="#191970" stroke="#191970" points="1572.5416,-184.9754 1582.138,-180.4855 1571.8362,-178.011 1572.5416,-184.9754"/>
</g>
<!-- Node29&#45;&gt;Node2 -->
<g id="edge53" class="edge">
<title>Node29&#45;&gt;Node2</title>
<path fill="none" stroke="#191970" d="M367.7781,-224.2455C352.9111,-215.5731 330.9534,-202.7645 313.9142,-192.825"/>
<polygon fill="#191970" stroke="#191970" points="315.4317,-189.6582 305.0303,-187.6427 311.9045,-195.7047 315.4317,-189.6582"/>
</g>
<!-- Node29&#45;&gt;Node7 -->
<g id="edge35" class="edge">
<title>Node29&#45;&gt;Node7</title>
<path fill="none" stroke="#191970" d="M449.3687,-227.4704C546.4762,-217.4436 721.2098,-198.3337 748.5,-188 814.0828,-163.1664 879.0951,-109.7821 909.5726,-82.615"/>
<polygon fill="#191970" stroke="#191970" points="912.1566,-84.9972 917.2249,-75.6933 907.4608,-79.8059 912.1566,-84.9972"/>
</g>
<!-- Node29&#45;&gt;Node8 -->
<g id="edge36" class="edge">
<title>Node29&#45;&gt;Node8</title>
<path fill="none" stroke="#191970" d="M319.9747,-227.7864C241.6686,-219.5828 118.3105,-204.2645 104.5,-188 98.7466,-181.2243 100.3721,-175.8723 104.5,-168 124.8245,-129.2396 144.3425,-126.8836 185.5,-112 273.8585,-80.0474 562.0886,-69.5925 664.2188,-66.8429"/>
<polygon fill="#191970" stroke="#191970" points="664.4399,-70.3384 674.3454,-66.5793 664.2577,-63.3408 664.4399,-70.3384"/>
</g>
<!-- Node30 -->
<g id="node23" class="node">
<title>Node30</title>
<g id="a_node23"><a xlink:href="gaussian_8hh.html" target="_top" xlink:title="stats/gaussian.hh">
<polygon fill="none" stroke="#000000" points="310.5,-112.5 310.5,-131.5 404.5,-131.5 404.5,-112.5 310.5,-112.5"/>
<text text-anchor="middle" x="357.5" y="-119.5" font-family="Helvetica,sans-Serif" font-size="10.00" fill="#000000">stats/gaussian.hh</text>
</a>
</g>
</g>
<!-- Node29&#45;&gt;Node30 -->
<g id="edge37" class="edge">
<title>Node29&#45;&gt;Node30</title>
<path fill="none" stroke="#191970" d="M321.322,-224.4368C280.2557,-216.7818 232.089,-204.5787 219.5,-188 194.3098,-154.8265 251.7867,-137.5278 300.0907,-129.1039"/>
<polygon fill="#191970" stroke="#191970" points="300.9258,-132.5137 310.226,-127.4386 299.7908,-125.6064 300.9258,-132.5137"/>
</g>
<!-- Node32 -->
<g id="node25" class="node">
<title>Node32</title>
<g id="a_node25"><a xlink:href="skew__normal_8hh.html" target="_top" xlink:title="stats/skew_normal.hh">
<polygon fill="none" stroke="#000000" points="627,-168.5 627,-187.5 740,-187.5 740,-168.5 627,-168.5"/>
<text text-anchor="middle" x="683.5" y="-175.5" font-family="Helvetica,sans-Serif" font-size="10.00" fill="#000000">stats/skew_normal.hh</text>
</a>
</g>
</g>
<!-- Node29&#45;&gt;Node32 -->
<g id="edge41" class="edge">
<title>Node29&#45;&gt;Node32</title>
<path fill="none" stroke="#191970" d="M435.5602,-224.4369C487.3768,-214.7321 567.595,-199.708 622.6715,-189.3926"/>
<polygon fill="#191970" stroke="#191970" points="623.4656,-192.8048 632.6504,-187.5237 622.177,-185.9245 623.4656,-192.8048"/>
</g>
<!-- Node34 -->
<g id="node27" class="node">
<title>Node34</title>
<g id="a_node27"><a xlink:href="gram__charlier_8hh.html" target="_top" xlink:title="stats/gram_charlier.hh">
<polygon fill="none" stroke="#ff0000" points="423,-112.5 423,-131.5 536,-131.5 536,-112.5 423,-112.5"/>
<text text-anchor="middle" x="479.5" y="-119.5" font-family="Helvetica,sans-Serif" font-size="10.00" fill="#000000">stats/gram_charlier.hh</text>
</a>
</g>
</g>
<!-- Node29&#45;&gt;Node34 -->
<g id="edge46" class="edge">
<title>Node29&#45;&gt;Node34</title>
<path fill="none" stroke="#191970" d="M321.479,-224.4416C276.6894,-214.9458 228.4153,-197.4548 252.5,-168 257.6795,-161.6656 348.0641,-144.7862 413.1951,-133.3345"/>
<polygon fill="#191970" stroke="#191970" points="414.1678,-136.7175 423.4145,-131.5456 412.9607,-129.8223 414.1678,-136.7175"/>
</g>
<!-- Node36 -->
<g id="node28" class="node">
<title>Node36</title>
<g id="a_node28"><a xlink:href="linalg_8hh.html" target="_top" xlink:title="linalg.hh">
<polygon fill="none" stroke="#ff0000" points="114,-168.5 114,-187.5 167,-187.5 167,-168.5 114,-168.5"/>
<text text-anchor="middle" x="140.5" y="-175.5" font-family="Helvetica,sans-Serif" font-size="10.00" fill="#000000">linalg.hh</text>
</a>
</g>
</g>
<!-- Node29&#45;&gt;Node36 -->
<g id="edge50" class="edge">
<title>Node29&#45;&gt;Node36</title>
<path fill="none" stroke="#191970" d="M341.2882,-224.4236C300.1592,-215.2578 236.5511,-200.9499 181.5,-188 180.0736,-187.6645 178.6198,-187.3203 177.1517,-186.9709"/>
<polygon fill="#191970" stroke="#191970" points="177.9321,-183.5589 167.3911,-184.6256 176.2966,-190.3652 177.9321,-183.5589"/>
</g>
<!-- Node40 -->
<g id="node30" class="node">
<title>Node40</title>
<g id="a_node30"><a xlink:href="domain_8hh.html" target="_top" xlink:title="domain.hh">
<polygon fill="none" stroke="#000000" points="1012.5,-168.5 1012.5,-187.5 1074.5,-187.5 1074.5,-168.5 1012.5,-168.5"/>
<text text-anchor="middle" x="1043.5" y="-175.5" font-family="Helvetica,sans-Serif" font-size="10.00" fill="#000000">domain.hh</text>
</a>
</g>
</g>
<!-- Node29&#45;&gt;Node40 -->
<g id="edge54" class="edge">
<title>Node29&#45;&gt;Node40</title>
<path fill="none" stroke="#191970" d="M449.1048,-228.4455C466.4435,-226.9765 485.1844,-225.4083 502.5,-224 707.7779,-207.3041 759.6113,-208.938 964.5,-188 976.8563,-186.7373 990.2699,-185.1292 1002.4767,-183.5737"/>
<polygon fill="#191970" stroke="#191970" points="1002.9297,-187.0443 1012.397,-182.2882 1002.0301,-180.1024 1002.9297,-187.0443"/>
</g>
<!-- Node30&#45;&gt;Node7 -->
<g id="edge38" class="edge">
<title>Node30&#45;&gt;Node7</title>
<path fill="none" stroke="#191970" d="M404.507,-113.2983C407.5459,-112.8309 410.5634,-112.3928 413.5,-112 593.0035,-87.9874 809.5013,-73.2158 892.6545,-68.063"/>
<polygon fill="#191970" stroke="#191970" points="893.0389,-71.5461 902.806,-67.4409 892.6106,-64.5592 893.0389,-71.5461"/>
</g>
<!-- Node30&#45;&gt;Node8 -->
<g id="edge39" class="edge">
<title>Node30&#45;&gt;Node8</title>
<path fill="none" stroke="#191970" d="M404.5432,-113.5369C407.5732,-113.0111 410.5788,-112.4949 413.5,-112 503.5226,-96.7492 609.6618,-80.0773 664.1651,-71.6117"/>
<polygon fill="#191970" stroke="#191970" points="665.0118,-75.0223 674.3571,-70.0308 663.9388,-68.105 665.0118,-75.0223"/>
</g>
<!-- Node31 -->
<g id="node24" class="node">
<title>Node31</title>
<polygon fill="none" stroke="#bfbfbf" points="321.5,-56.5 321.5,-75.5 393.5,-75.5 393.5,-56.5 321.5,-56.5"/>
<text text-anchor="middle" x="357.5" y="-63.5" font-family="Helvetica,sans-Serif" font-size="10.00" fill="#000000">gsl/gsl_cdf.h</text>
</g>
<!-- Node30&#45;&gt;Node31 -->
<g id="edge40" class="edge">
<title>Node30&#45;&gt;Node31</title>
<path fill="none" stroke="#191970" d="M357.5,-112.2455C357.5,-104.9382 357.5,-94.6944 357.5,-85.7046"/>
<polygon fill="#191970" stroke="#191970" points="361.0001,-85.6426 357.5,-75.6427 354.0001,-85.6427 361.0001,-85.6426"/>
</g>
<!-- Node32&#45;&gt;Node7 -->
<g id="edge42" class="edge">
<title>Node32&#45;&gt;Node7</title>
<path fill="none" stroke="#191970" d="M702.126,-168.4874C728.0239,-155.3545 776.47,-131.125 818.5,-112 843.6291,-100.5655 872.4193,-88.457 894.0984,-79.5347"/>
<polygon fill="#191970" stroke="#191970" points="895.5942,-82.7042 903.5199,-75.6733 892.9396,-76.2271 895.5942,-82.7042"/>
</g>
<!-- Node32&#45;&gt;Node8 -->
<g id="edge43" class="edge">
<title>Node32&#45;&gt;Node8</title>
<path fill="none" stroke="#191970" d="M642.9542,-168.4285C607.6924,-158.0546 564.9353,-139.2469 583.5,-112 592.9957,-98.0634 633.6597,-84.1907 664.4033,-75.383"/>
<polygon fill="#191970" stroke="#191970" points="665.6979,-78.6556 674.3898,-72.5974 663.8171,-71.913 665.6979,-78.6556"/>
</g>
<!-- Node32&#45;&gt;Node30 -->
<g id="edge44" class="edge">
<title>Node32&#45;&gt;Node30</title>
<path fill="none" stroke="#191970" d="M626.8503,-168.4833C574.4437,-159.6489 494.0853,-146.0255 414.724,-132.2038"/>
<polygon fill="#191970" stroke="#191970" points="415.0015,-128.6994 404.5489,-130.4296 413.7991,-135.5954 415.0015,-128.6994"/>
</g>
<!-- Node33 -->
<g id="node26" class="node">
<title>Node33</title>
<g id="a_node26"><a xlink:href="owen__t_8hh.html" target="_top" xlink:title="apmath/owen_t.hh">
<polygon fill="none" stroke="#000000" points="593,-112.5 593,-131.5 690,-131.5 690,-112.5 593,-112.5"/>
<text text-anchor="middle" x="641.5" y="-119.5" font-family="Helvetica,sans-Serif" font-size="10.00" fill="#000000">apmath/owen_t.hh</text>
</a>
</g>
</g>
<!-- Node32&#45;&gt;Node33 -->
<g id="edge45" class="edge">
<title>Node32&#45;&gt;Node33</title>
<path fill="none" stroke="#191970" d="M676.1842,-168.2455C670.2821,-160.3761 661.8258,-149.101 654.7406,-139.6542"/>
<polygon fill="#191970" stroke="#191970" points="657.5321,-137.5427 648.732,-131.6427 651.932,-141.7427 657.5321,-137.5427"/>
</g>
<!-- Node34&#45;&gt;Node7 -->
<g id="edge47" class="edge">
<title>Node34&#45;&gt;Node7</title>
<path fill="none" stroke="#191970" d="M536.2395,-114.9076C630.2366,-103.1579 815.5278,-79.9965 892.5948,-70.3631"/>
<polygon fill="#191970" stroke="#191970" points="893.2417,-73.8096 902.7303,-69.0962 892.3734,-66.8637 893.2417,-73.8096"/>
</g>
<!-- Node34&#45;&gt;Node8 -->
<g id="edge48" class="edge">
<title>Node34&#45;&gt;Node8</title>
<path fill="none" stroke="#191970" d="M517.2401,-112.4369C558.4952,-101.9831 624.1082,-85.3572 664.6151,-75.093"/>
<polygon fill="#191970" stroke="#191970" points="665.5085,-78.4773 674.3424,-72.6282 663.789,-71.6918 665.5085,-78.4773"/>
</g>
<!-- Node34&#45;&gt;Node10 -->
<g id="edge49" class="edge">
<title>Node34&#45;&gt;Node10</title>
<path fill="none" stroke="#191970" d="M500.1327,-112.4096C533.8651,-97.2547 603.3032,-68.2364 665.5,-56 850.5171,-19.6002 1454.1031,-11.6696 1600.3635,-10.266"/>
<polygon fill="#191970" stroke="#191970" points="1600.5039,-13.7649 1610.471,-10.1725 1600.4391,-6.7652 1600.5039,-13.7649"/>
</g>
<!-- Node36&#45;&gt;Node3 -->
<g id="edge51" class="edge">
<title>Node36&#45;&gt;Node3</title>
<path fill="none" stroke="#191970" d="M145.0964,-168.3725C152.1438,-154.4414 166.7903,-128.5255 185.5,-112 226.3208,-75.9448 241.97,-70.3848 294.5,-56 432.0802,-18.3249 875.4723,-11.4926 1016.7932,-10.2655"/>
<polygon fill="#191970" stroke="#191970" points="1016.8548,-13.7652 1026.8258,-10.1835 1016.7975,-6.7655 1016.8548,-13.7652"/>
</g>
<!-- Node38 -->
<g id="node29" class="node">
<title>Node38</title>
<polygon fill="none" stroke="#bfbfbf" points="194.5,-112.5 194.5,-131.5 250.5,-131.5 250.5,-112.5 194.5,-112.5"/>
<text text-anchor="middle" x="222.5" y="-119.5" font-family="Helvetica,sans-Serif" font-size="10.00" fill="#000000">config.hh</text>
</g>
<!-- Node36&#45;&gt;Node38 -->
<g id="edge52" class="edge">
<title>Node36&#45;&gt;Node38</title>
<path fill="none" stroke="#191970" d="M154.7833,-168.2455C167.247,-159.7337 185.5451,-147.2375 199.9792,-137.3801"/>
<polygon fill="#191970" stroke="#191970" points="202.0962,-140.1726 208.3804,-131.6427 198.1485,-134.392 202.0962,-140.1726"/>
</g>
<!-- Node40&#45;&gt;Node3 -->
<g id="edge59" class="edge">
<title>Node40&#45;&gt;Node3</title>
<path fill="none" stroke="#191970" d="M1044.4627,-168.4862C1047.15,-141.9293 1054.7761,-66.5651 1058.4594,-30.1655"/>
<polygon fill="#191970" stroke="#191970" points="1061.9809,-30.1295 1059.5055,-19.8279 1055.0164,-29.4247 1061.9809,-30.1295"/>
</g>
<!-- Node40&#45;&gt;Node7 -->
<g id="edge57" class="edge">
<title>Node40&#45;&gt;Node7</title>
<path fill="none" stroke="#191970" d="M1038.4313,-168.1563C1031.0169,-154.4193 1016.1594,-129.2487 998.5,-112 985.7439,-99.5405 969.1184,-88.553 955.1625,-80.4435"/>
<polygon fill="#191970" stroke="#191970" points="956.8768,-77.3921 946.4445,-75.5435 953.447,-83.4943 956.8768,-77.3921"/>
</g>
<!-- Node40&#45;&gt;Node8 -->
<g id="edge58" class="edge">
<title>Node40&#45;&gt;Node8</title>
<path fill="none" stroke="#191970" d="M1014.256,-168.4509C951.6933,-148.0223 805.013,-100.1267 736.6978,-77.8197"/>
<polygon fill="#191970" stroke="#191970" points="737.411,-74.3708 726.8185,-74.5938 735.2382,-81.025 737.411,-74.3708"/>
</g>
<!-- Node40&#45;&gt;Node10 -->
<g id="edge55" class="edge">
<title>Node40&#45;&gt;Node10</title>
<path fill="none" stroke="#191970" d="M1061.983,-168.4212C1089.295,-154.5508 1142.3002,-128.7097 1189.5,-112 1338.7658,-59.1568 1526.1653,-26.4919 1600.2441,-14.8343"/>
<polygon fill="#191970" stroke="#191970" points="1600.9893,-18.2606 1610.3334,-13.2669 1599.9146,-11.3436 1600.9893,-18.2606"/>
</g>
<!-- Node40&#45;&gt;Node13 -->
<g id="edge60" class="edge">
<title>Node40&#45;&gt;Node13</title>
<path fill="none" stroke="#191970" d="M1074.866,-169.7883C1077.7752,-169.1387 1080.6862,-168.5301 1083.5,-168 1194.9489,-147.004 1327.6922,-132.7488 1396.3081,-126.1657"/>
<polygon fill="#191970" stroke="#191970" points="1396.7319,-129.6413 1406.3567,-125.2126 1396.0709,-122.6726 1396.7319,-129.6413"/>
</g>
<!-- Node41 -->
<g id="node31" class="node">
<title>Node41</title>
<polygon fill="none" stroke="#bfbfbf" points="1996.5,-112.5 1996.5,-131.5 2046.5,-131.5 2046.5,-112.5 1996.5,-112.5"/>
<text text-anchor="middle" x="2021.5" y="-119.5" font-family="Helvetica,sans-Serif" font-size="10.00" fill="#000000">iomanip</text>
</g>
<!-- Node40&#45;&gt;Node41 -->
<g id="edge56" class="edge">
<title>Node40&#45;&gt;Node41</title>
<path fill="none" stroke="#191970" d="M1074.8222,-169.5239C1077.7406,-168.9298 1080.6657,-168.4063 1083.5,-168 1478.2229,-111.4123 1588.896,-195.8002 1986.3678,-131.7677"/>
<polygon fill="#191970" stroke="#191970" points="1987.1038,-135.1939 1996.4092,-130.1284 1985.9759,-128.2854 1987.1038,-135.1939"/>
</g>
<!-- Node42&#45;&gt;Node17 -->
<g id="edge63" class="edge">
<title>Node42&#45;&gt;Node17</title>
<path fill="none" stroke="#191970" d="M816.7562,-230.9492C911.43,-221.6513 1189.0549,-193.9405 1196.5,-188 1210.256,-177.024 1215.8076,-157.3014 1218.0358,-142.2654"/>
<polygon fill="#191970" stroke="#191970" points="1221.5612,-142.2255 1219.1728,-131.9034 1214.6029,-141.4619 1221.5612,-142.2255"/>
</g>
<!-- Node43 -->
<g id="node33" class="node">
<title>Node43</title>
<polygon fill="none" stroke="#bfbfbf" points="410,-168.5 410,-187.5 469,-187.5 469,-168.5 410,-168.5"/>
<text text-anchor="middle" x="439.5" y="-175.5" font-family="Helvetica,sans-Serif" font-size="10.00" fill="#000000">functional</text>
</g>
<!-- Node42&#45;&gt;Node43 -->
<g id="edge62" class="edge">
<title>Node42&#45;&gt;Node43</title>
<path fill="none" stroke="#191970" d="M754.2345,-226.0153C750.9578,-225.2861 747.6678,-224.5982 744.5,-224 630.0561,-202.3902 596.7632,-210.7851 479.3919,-188.1911"/>
<polygon fill="#191970" stroke="#191970" points="479.7766,-184.7 469.2901,-186.2108 478.4299,-191.5692 479.7766,-184.7"/>
</g>
<!-- Node44 -->
<g id="node34" class="node">
<title>Node44</title>
<polygon fill="none" stroke="#bfbfbf" points="487,-168.5 487,-187.5 570,-187.5 570,-168.5 487,-168.5"/>
<text text-anchor="middle" x="528.5" y="-175.5" font-family="Helvetica,sans-Serif" font-size="10.00" fill="#000000">unordered_map</text>
</g>
<!-- Node42&#45;&gt;Node44 -->
<g id="edge64" class="edge">
<title>Node42&#45;&gt;Node44</title>
<path fill="none" stroke="#191970" d="M754.1832,-226.2614C750.9165,-225.4842 747.6428,-224.7178 744.5,-224 688.4961,-211.2098 624.0581,-197.6341 580.2422,-188.5736"/>
<polygon fill="#191970" stroke="#191970" points="580.8932,-185.1343 570.3922,-186.541 579.4785,-191.9899 580.8932,-185.1343"/>
</g>
<!-- Node45&#45;&gt;Node2 -->
<g id="edge68" class="edge">
<title>Node45&#45;&gt;Node2</title>
<path fill="none" stroke="#191970" d="M766.9573,-286.883C703.9778,-282.0339 593.5501,-270.3412 502.5,-244 481.4758,-237.9176 478.1189,-231.3398 457.5,-224 412.9766,-208.1508 360.2232,-194.591 325.6438,-186.3827"/>
<polygon fill="#191970" stroke="#191970" points="326.0599,-182.8854 315.525,-184.0105 324.4621,-189.7006 326.0599,-182.8854"/>
</g>
<!-- Node45&#45;&gt;Node7 -->
<g id="edge66" class="edge">
<title>Node45&#45;&gt;Node7</title>
<path fill="none" stroke="#191970" d="M820.4468,-280.2336C826.958,-259.1747 843.5839,-208.1514 863.5,-168 878.7372,-137.2814 900.7221,-104.0538 914.5528,-84.1429"/>
<polygon fill="#191970" stroke="#191970" points="917.5661,-85.9423 920.4512,-75.7478 911.8385,-81.918 917.5661,-85.9423"/>
</g>
<!-- Node45&#45;&gt;Node17 -->
<g id="edge67" class="edge">
<title>Node45&#45;&gt;Node17</title>
<path fill="none" stroke="#191970" d="M868.0868,-280.6681C970.9299,-261.2001 1196.5738,-215.765 1218.5,-188 1228.6872,-175.1 1227.7725,-155.9358 1224.9986,-141.577"/>
<polygon fill="#191970" stroke="#191970" points="1228.3745,-140.6434 1222.6681,-131.7167 1221.5622,-142.2536 1228.3745,-140.6434"/>
</g>
<!-- Node45&#45;&gt;Node28 -->
<g id="edge69" class="edge">
<title>Node45&#45;&gt;Node28</title>
<path fill="none" stroke="#191970" d="M774.1244,-280.4369C730.563,-270.8328 663.3723,-256.0191 616.6366,-245.7152"/>
<polygon fill="#191970" stroke="#191970" points="617.2157,-242.2588 606.6966,-243.5237 615.7085,-249.0947 617.2157,-242.2588"/>
</g>
<!-- Node46&#45;&gt;Node14 -->
<g id="edge73" class="edge">
<title>Node46&#45;&gt;Node14</title>
<path fill="none" stroke="#191970" d="M1414.7155,-168.1307C1404.3277,-155.2019 1389.4085,-131.8424 1397.5,-112 1402.2156,-100.4363 1411.3927,-90.2008 1420.2362,-82.3383"/>
<polygon fill="#191970" stroke="#191970" points="1422.6496,-84.8842 1428.1263,-75.8147 1418.1891,-79.4894 1422.6496,-84.8842"/>
</g>
<!-- Node46&#45;&gt;Node17 -->
<g id="edge71" class="edge">
<title>Node46&#45;&gt;Node17</title>
<path fill="none" stroke="#191970" d="M1384.6027,-168.4669C1351.2831,-160.1336 1301.8272,-147.3704 1249.8363,-131.9649"/>
<polygon fill="#191970" stroke="#191970" points="1250.6857,-128.5659 1240.1023,-129.058 1248.6827,-135.2732 1250.6857,-128.5659"/>
</g>
<!-- Node47 -->
<g id="node37" class="node">
<title>Node47</title>
<polygon fill="none" stroke="#bfbfbf" points="1258.5,-112.5 1258.5,-131.5 1312.5,-131.5 1312.5,-112.5 1258.5,-112.5"/>
<text text-anchor="middle" x="1285.5" y="-119.5" font-family="Helvetica,sans-Serif" font-size="10.00" fill="#000000">iostream</text>
</g>
<!-- Node46&#45;&gt;Node47 -->
<g id="edge72" class="edge">
<title>Node46&#45;&gt;Node47</title>
<path fill="none" stroke="#191970" d="M1399.777,-168.3733C1377.3263,-159.2629 1343.4261,-145.5062 1318.3745,-135.3404"/>
<polygon fill="#191970" stroke="#191970" points="1319.4957,-132.0182 1308.9135,-131.5011 1316.8635,-138.5045 1319.4957,-132.0182"/>
</g>
<!-- Node48&#45;&gt;Node3 -->
<g id="edge76" class="edge">
<title>Node48&#45;&gt;Node3</title>
<path fill="none" stroke="#191970" d="M1591.5445,-224.3156C1571.2812,-210.5447 1532.2243,-185.0836 1496.5,-168 1495.3044,-167.4282 1200.719,-60.7643 1096.5081,-23.0358"/>
<polygon fill="#191970" stroke="#191970" points="1097.6279,-19.719 1087.0337,-19.6057 1095.245,-26.3009 1097.6279,-19.719"/>
</g>
<!-- Node48&#45;&gt;Node9 -->
<g id="edge75" class="edge">
<title>Node48&#45;&gt;Node9</title>
<path fill="none" stroke="#191970" d="M1605.5,-224.2455C1605.5,-216.9382 1605.5,-206.6944 1605.5,-197.7046"/>
<polygon fill="#191970" stroke="#191970" points="1609.0001,-197.6426 1605.5,-187.6427 1602.0001,-197.6427 1609.0001,-197.6426"/>
</g>
<!-- Node48&#45;&gt;Node17 -->
<g id="edge78" class="edge">
<title>Node48&#45;&gt;Node17</title>
<path fill="none" stroke="#191970" d="M1560.1125,-229.886C1508.151,-224.2578 1420.9924,-211.9926 1349.5,-188 1338.9716,-184.4667 1281.782,-154.7596 1246.8561,-136.4259"/>
<polygon fill="#191970" stroke="#191970" points="1248.1329,-133.143 1237.6528,-131.5877 1244.8756,-139.339 1248.1329,-133.143"/>
</g>
<!-- Node48&#45;&gt;Node24 -->
<g id="edge77" class="edge">
<title>Node48&#45;&gt;Node24</title>
<path fill="none" stroke="#191970" d="M1650.5992,-226.7705C1693.7965,-218.9464 1754.8079,-205.2434 1771.5,-188 1783.2625,-175.849 1786.8669,-156.5945 1787.7625,-142.0114"/>
<polygon fill="#191970" stroke="#191970" points="1791.2626,-142.0483 1788.0096,-131.9652 1784.2647,-141.8761 1791.2626,-142.0483"/>
</g>
<!-- Node49&#45;&gt;Node8 -->
<g id="edge82" class="edge">
<title>Node49&#45;&gt;Node8</title>
<path fill="none" stroke="#191970" d="M2184.7258,-168.267C2158.8649,-152.9119 2105.3321,-123.6184 2055.5,-112 1929.7009,-82.6698 1022.5625,-81.3423 893.5,-76 838.9567,-73.7423 775.7849,-70.3151 736.9843,-68.1169"/>
<polygon fill="#191970" stroke="#191970" points="736.8973,-64.6063 726.7143,-67.5314 736.4989,-71.595 736.8973,-64.6063"/>
</g>
<!-- Node49&#45;&gt;Node41 -->
<g id="edge84" class="edge">
<title>Node49&#45;&gt;Node41</title>
<path fill="none" stroke="#191970" d="M2178.9084,-171.2451C2148.4804,-161.7257 2092.648,-144.2586 2056.3141,-132.8916"/>
<polygon fill="#191970" stroke="#191970" points="2057.2093,-129.5044 2046.6204,-129.8589 2055.1192,-136.1851 2057.2093,-129.5044"/>
</g>
<!-- Node50 -->
<g id="node40" class="node">
<title>Node50</title>
<polygon fill="none" stroke="#bfbfbf" points="2182,-112.5 2182,-131.5 2211,-131.5 2211,-112.5 2182,-112.5"/>
<text text-anchor="middle" x="2196.5" y="-119.5" font-family="Helvetica,sans-Serif" font-size="10.00" fill="#000000">ios</text>
</g>
<!-- Node49&#45;&gt;Node50 -->
<g id="edge83" class="edge">
<title>Node49&#45;&gt;Node50</title>
<path fill="none" stroke="#191970" d="M2199.8033,-168.2455C2199.2813,-160.9382 2198.5496,-150.6944 2197.9075,-141.7046"/>
<polygon fill="#191970" stroke="#191970" points="2201.3924,-141.3679 2197.1888,-131.6427 2194.4102,-141.8667 2201.3924,-141.3679"/>
</g>
<!-- Node51 -->
<g id="node41" class="node">
<title>Node51</title>
<polygon fill="none" stroke="#bfbfbf" points="2229.5,-112.5 2229.5,-131.5 2273.5,-131.5 2273.5,-112.5 2229.5,-112.5"/>
<text text-anchor="middle" x="2251.5" y="-119.5" font-family="Helvetica,sans-Serif" font-size="10.00" fill="#000000">mutex</text>
</g>
<!-- Node49&#45;&gt;Node51 -->
<g id="edge85" class="edge">
<title>Node49&#45;&gt;Node51</title>
<path fill="none" stroke="#191970" d="M2209.3835,-168.2455C2216.6966,-160.2155 2227.2391,-148.6394 2235.9467,-139.0781"/>
<polygon fill="#191970" stroke="#191970" points="2238.5727,-141.3928 2242.7183,-131.6427 2233.3972,-136.6795 2238.5727,-141.3928"/>
</g>
<!-- Node53 -->
<g id="node43" class="node">
<title>Node53</title>
<g id="a_node43"><a xlink:href="profile_8hh.html" target="_top" xlink:title="profile.hh">
<polygon fill="none" stroke="#000000" points="1234.5,-224.5 1234.5,-243.5 1290.5,-243.5 1290.5,-224.5 1234.5,-224.5"/>
<text text-anchor="middle" x="1262.5" y="-231.5" font-family="Helvetica,sans-Serif" font-size="10.00" fill="#000000">profile.hh</text>
</a>
</g>
</g>
<!-- Node52&#45;&gt;Node53 -->
<g id="edge87" class="edge">
<title>Node52&#45;&gt;Node53</title>
<path fill="none" stroke="#191970" d="M1279.0163,-280.2455C1276.3492,-272.7776 1272.5867,-262.2427 1269.3263,-253.1137"/>
<polygon fill="#191970" stroke="#191970" points="1272.6033,-251.8829 1265.9438,-243.6427 1266.0111,-254.2373 1272.6033,-251.8829"/>
</g>
<!-- Node54&#45;&gt;Node2 -->
<g id="edge90" class="edge">
<title>Node54&#45;&gt;Node2</title>
<path fill="none" stroke="#191970" d="M1308.3816,-225.2432C1305.3845,-224.7689 1302.4008,-224.346 1299.5,-224 902.4384,-176.6424 799.5433,-213.7886 400.5,-188 375.555,-186.3879 347.5436,-183.8867 325.7742,-181.7891"/>
<polygon fill="#191970" stroke="#191970" points="325.9227,-178.287 315.6296,-180.7974 325.2416,-185.2538 325.9227,-178.287"/>
</g>
<!-- Node54&#45;&gt;Node10 -->
<g id="edge89" class="edge">
<title>Node54&#45;&gt;Node10</title>
<path fill="none" stroke="#191970" d="M1390.7147,-230.1198C1466.178,-222.628 1620.4122,-205.3719 1637.5,-188 1678.9413,-145.8697 1666.0579,-113.7464 1653.5,-56 1651.4575,-46.6079 1647.3211,-36.8357 1643.2553,-28.7264"/>
<polygon fill="#191970" stroke="#191970" points="1646.2809,-26.9622 1638.4765,-19.7968 1640.1091,-30.2651 1646.2809,-26.9622"/>
</g>
<!-- Node54&#45;&gt;Node19 -->
<g id="edge91" class="edge">
<title>Node54&#45;&gt;Node19</title>
<path fill="none" stroke="#191970" d="M1390.6336,-228.6968C1451.7887,-220.6785 1570.2516,-204.632 1670.5,-188 1671.9434,-187.7605 1673.408,-187.5131 1674.8858,-187.2594"/>
<polygon fill="#191970" stroke="#191970" points="1675.5098,-190.7035 1684.7478,-185.516 1674.2912,-183.8103 1675.5098,-190.7035"/>
</g>
<!-- Node54&#45;&gt;Node38 -->
<g id="edge92" class="edge">
<title>Node54&#45;&gt;Node38</title>
<path fill="none" stroke="#191970" d="M1308.3765,-225.2852C1305.3806,-224.801 1302.3985,-224.3644 1299.5,-224 1148.9188,-205.0686 764.0364,-227.4992 617.5,-188 598.6917,-182.9302 597.1028,-173.7785 578.5,-168 574.7124,-166.8235 351.6595,-138.4081 260.5951,-126.8362"/>
<polygon fill="#191970" stroke="#191970" points="261.036,-123.3642 250.6746,-125.5759 260.1537,-130.3084 261.036,-123.3642"/>
</g>
<!-- Node56&#45;&gt;Node9 -->
<g id="edge110" class="edge">
<title>Node56&#45;&gt;Node9</title>
<path fill="none" stroke="#191970" d="M1669.253,-280.3825C1669.8691,-266.9142 1669.3756,-242.0609 1659.5,-224 1652.74,-211.637 1641.2362,-201.1364 1630.5791,-193.303"/>
<polygon fill="#191970" stroke="#191970" points="1632.5401,-190.4038 1622.3207,-187.608 1628.5661,-196.1664 1632.5401,-190.4038"/>
</g>
<!-- Node56&#45;&gt;Node12 -->
<g id="edge113" class="edge">
<title>Node56&#45;&gt;Node12</title>
<path fill="none" stroke="#191970" d="M1738.6804,-281.0418C1826.8275,-269.6386 1969.5014,-250.6232 1993.5,-244 2066.465,-223.863 2150.5,-253.6927 2150.5,-178 2150.5,-178 2150.5,-178 2150.5,-122 2150.5,-80.3903 2026.2878,-39.0546 1961.6287,-20.356"/>
<polygon fill="#191970" stroke="#191970" points="1962.3671,-16.9271 1951.7907,-17.5527 1960.4488,-23.6592 1962.3671,-16.9271"/>
</g>
<!-- Node56&#45;&gt;Node17 -->
<g id="edge112" class="edge">
<title>Node56&#45;&gt;Node17</title>
<path fill="none" stroke="#191970" d="M1639.5879,-280.4727C1598.6172,-267.1115 1521.219,-242.3848 1454.5,-224 1389.2367,-206.0163 1367.6378,-217.067 1306.5,-188 1279.9636,-175.3837 1253.6707,-153.8532 1237.0527,-138.826"/>
<polygon fill="#191970" stroke="#191970" points="1239.0098,-135.8683 1229.2943,-131.6423 1234.2539,-141.0046 1239.0098,-135.8683"/>
</g>
<!-- Node56&#45;&gt;Node24 -->
<g id="edge111" class="edge">
<title>Node56&#45;&gt;Node24</title>
<path fill="none" stroke="#191970" d="M1688.8095,-280.2718C1717.6914,-265.1577 1769.4581,-233.0197 1790.5,-188 1797.2448,-173.5693 1795.7889,-155.3725 1793.0449,-141.7424"/>
<polygon fill="#191970" stroke="#191970" points="1796.4325,-140.8597 1790.7001,-131.9497 1789.625,-142.4898 1796.4325,-140.8597"/>
</g>
<!-- Node56&#45;&gt;Node25 -->
<g id="edge114" class="edge">
<title>Node56&#45;&gt;Node25</title>
<path fill="none" stroke="#191970" d="M1738.7222,-280.5915C1827.864,-268.4842 1970.65,-248.4721 1974.5,-244 1999.5825,-214.8651 1979.7748,-166.7755 1965.615,-140.5183"/>
<polygon fill="#191970" stroke="#191970" points="1968.5432,-138.5862 1960.5701,-131.6091 1962.452,-142.0355 1968.5432,-138.5862"/>
</g>
<!-- Node57 -->
<g id="node47" class="node">
<title>Node57</title>
<g id="a_node47"><a xlink:href="statistics_8hh.html" target="_top" xlink:title="stats/statistics.hh">
<polygon fill="none" stroke="#ff0000" points="0,-56.5 0,-75.5 95,-75.5 95,-56.5 0,-56.5"/>
<text text-anchor="middle" x="47.5" y="-63.5" font-family="Helvetica,sans-Serif" font-size="10.00" fill="#000000">stats/statistics.hh</text>
</a>
</g>
</g>
<!-- Node56&#45;&gt;Node57 -->
<g id="edge95" class="edge">
<title>Node56&#45;&gt;Node57</title>
<path fill="none" stroke="#191970" d="M1598.3266,-287.8347C1324.6719,-279.3642 342.63,-248.7074 310.5,-244 213.6502,-229.8104 171.124,-252.5038 97.5,-188 66.918,-161.2064 54.7033,-112.8604 50.0906,-85.7692"/>
<polygon fill="#191970" stroke="#191970" points="53.5061,-84.9477 48.5477,-75.5848 46.5851,-85.9963 53.5061,-84.9477"/>
</g>
<!-- Node60 -->
<g id="node48" class="node">
<title>Node60</title>
<g id="a_node48"><a xlink:href="distribution_8hh.html" target="_top" xlink:title="stats/distribution.hh">
<polygon fill="none" stroke="#ff0000" points="633.5,-224.5 633.5,-243.5 735.5,-243.5 735.5,-224.5 633.5,-224.5"/>
<text text-anchor="middle" x="684.5" y="-231.5" font-family="Helvetica,sans-Serif" font-size="10.00" fill="#000000">stats/distribution.hh</text>
</a>
</g>
</g>
<!-- Node56&#45;&gt;Node60 -->
<g id="edge97" class="edge">
<title>Node56&#45;&gt;Node60</title>
<path fill="none" stroke="#191970" d="M1598.4839,-287.5351C1416.2418,-280.9582 929.2453,-262.3126 745.7744,-243.8685"/>
<polygon fill="#191970" stroke="#191970" points="746.0061,-240.3738 735.6982,-242.8227 745.2834,-247.3364 746.0061,-240.3738"/>
</g>
<!-- Node62 -->
<g id="node49" class="node">
<title>Node62</title>
<g id="a_node49"><a xlink:href="summary_8hh.html" target="_top" xlink:title="stats/summary.hh">
<polygon fill="none" stroke="#ff0000" points="1093,-168.5 1093,-187.5 1188,-187.5 1188,-168.5 1093,-168.5"/>
<text text-anchor="middle" x="1140.5" y="-175.5" font-family="Helvetica,sans-Serif" font-size="10.00" fill="#000000">stats/summary.hh</text>
</a>
</g>
</g>
<!-- Node56&#45;&gt;Node62 -->
<g id="edge101" class="edge">
<title>Node56&#45;&gt;Node62</title>
<path fill="none" stroke="#191970" d="M1629.2461,-280.4208C1591.209,-271.1325 1531.893,-256.6322 1480.5,-244 1444.4907,-235.149 1435.7748,-231.6909 1399.5,-224 1330.8108,-209.4368 1251.207,-195.7741 1198.5752,-187.1833"/>
<polygon fill="#191970" stroke="#191970" points="1198.8515,-183.6824 1188.4198,-185.534 1197.7293,-190.5919 1198.8515,-183.6824"/>
</g>
<!-- Node64 -->
<g id="node50" class="node">
<title>Node64</title>
<g id="a_node50"><a xlink:href="waves_8hh.html" target="_top" xlink:title="stats/waves.hh">
<polygon fill="none" stroke="#ff0000" points="1882,-224.5 1882,-243.5 1965,-243.5 1965,-224.5 1882,-224.5"/>
<text text-anchor="middle" x="1923.5" y="-231.5" font-family="Helvetica,sans-Serif" font-size="10.00" fill="#000000">stats/waves.hh</text>
</a>
</g>
</g>
<!-- Node56&#45;&gt;Node64 -->
<g id="edge104" class="edge">
<title>Node56&#45;&gt;Node64</title>
<path fill="none" stroke="#191970" d="M1712.0463,-280.4369C1756.3094,-270.7164 1824.8732,-255.6592 1871.8512,-245.3425"/>
<polygon fill="#191970" stroke="#191970" points="1872.8091,-248.7156 1881.8255,-243.152 1871.3075,-241.8785 1872.8091,-248.7156"/>
</g>
<!-- Node57&#45;&gt;Node3 -->
<g id="edge96" class="edge">
<title>Node57&#45;&gt;Node3</title>
<path fill="none" stroke="#191970" d="M95.1559,-57.7636C99.9914,-57.093 104.8371,-56.4873 109.5,-56 457.6461,-19.6185 880.557,-11.9506 1016.314,-10.3869"/>
<polygon fill="#191970" stroke="#191970" points="1016.7435,-13.8825 1026.7044,-10.2729 1016.6665,-6.8829 1016.7435,-13.8825"/>
</g>
<!-- Node60&#45;&gt;Node30 -->
<g id="edge98" class="edge">
<title>Node60&#45;&gt;Node30</title>
<path fill="none" stroke="#191970" d="M633.4437,-225.4483C630.4181,-224.9547 627.4195,-224.4688 624.5,-224 521.0411,-207.3865 476.5254,-249.2408 391.5,-188 376.1827,-176.9675 367.2634,-156.9576 362.4348,-141.8527"/>
<polygon fill="#191970" stroke="#191970" points="365.7117,-140.5799 359.6088,-131.9193 358.9789,-142.4954 365.7117,-140.5799"/>
</g>
<!-- Node60&#45;&gt;Node32 -->
<g id="edge100" class="edge">
<title>Node60&#45;&gt;Node32</title>
<path fill="none" stroke="#191970" d="M684.3258,-224.2455C684.1953,-216.9382 684.0124,-206.6944 683.8519,-197.7046"/>
<polygon fill="#191970" stroke="#191970" points="687.3503,-197.5786 683.6722,-187.6427 680.3514,-197.7036 687.3503,-197.5786"/>
</g>
<!-- Node60&#45;&gt;Node34 -->
<g id="edge99" class="edge">
<title>Node60&#45;&gt;Node34</title>
<path fill="none" stroke="#191970" d="M633.4402,-225.4694C630.4156,-224.9705 627.4181,-224.4777 624.5,-224 574.7456,-215.8558 433.1993,-226.3742 400.5,-188 382.796,-167.2235 414.3374,-147.7454 442.6646,-135.4118"/>
<polygon fill="#191970" stroke="#191970" points="444.1751,-138.5745 452.0722,-131.5114 441.4942,-132.1082 444.1751,-138.5745"/>
</g>
<!-- Node62&#45;&gt;Node3 -->
<g id="edge103" class="edge">
<title>Node62&#45;&gt;Node3</title>
<path fill="none" stroke="#191970" d="M1135.9696,-168.4862C1123.214,-141.6994 1086.8126,-65.2565 1069.6566,-29.2289"/>
<polygon fill="#191970" stroke="#191970" points="1072.6393,-27.3517 1065.1799,-19.8279 1066.3193,-30.3613 1072.6393,-27.3517"/>
</g>
<!-- Node62&#45;&gt;Node17 -->
<g id="edge102" class="edge">
<title>Node62&#45;&gt;Node17</title>
<path fill="none" stroke="#191970" d="M1154.2607,-168.2455C1166.1552,-159.814 1183.565,-147.4729 1197.4085,-137.6598"/>
<polygon fill="#191970" stroke="#191970" points="1199.7628,-140.2811 1205.8969,-131.6427 1195.7146,-134.5704 1199.7628,-140.2811"/>
</g>
<!-- Node64&#45;&gt;Node2 -->
<g id="edge105" class="edge">
<title>Node64&#45;&gt;Node2</title>
<path fill="none" stroke="#191970" d="M1881.895,-232.3047C1829.8816,-230.2129 1738.1171,-226.6129 1659.5,-224 1100.0247,-205.4054 959.3162,-220.9064 400.5,-188 375.5462,-186.5306 347.5348,-184.0293 325.7676,-181.896"/>
<polygon fill="#191970" stroke="#191970" points="325.9222,-178.3941 315.6242,-180.8844 325.2275,-185.3596 325.9222,-178.3941"/>
</g>
<!-- Node64&#45;&gt;Node5 -->
<g id="edge109" class="edge">
<title>Node64&#45;&gt;Node5</title>
<path fill="none" stroke="#191970" d="M1917.4466,-224.4509C1905.6046,-205.7707 1879.2035,-164.1238 1863.959,-140.0761"/>
<polygon fill="#191970" stroke="#191970" points="1866.8483,-138.0969 1858.5381,-131.5249 1860.9362,-141.8448 1866.8483,-138.0969"/>
</g>
<!-- Node64&#45;&gt;Node10 -->
<g id="edge107" class="edge">
<title>Node64&#45;&gt;Node10</title>
<path fill="none" stroke="#191970" d="M1923.0119,-224.3993C1921.364,-201.8476 1914.2181,-144.9197 1883.5,-112 1823.7562,-47.9742 1718.1598,-23.127 1664.9999,-14.3359"/>
<polygon fill="#191970" stroke="#191970" points="1665.2122,-10.8266 1654.7916,-12.7399 1664.131,-17.7426 1665.2122,-10.8266"/>
</g>
<!-- Node64&#45;&gt;Node12 -->
<g id="edge106" class="edge">
<title>Node64&#45;&gt;Node12</title>
<path fill="none" stroke="#191970" d="M1945.9404,-224.4971C1977.2187,-209.8612 2032.6503,-178.5334 2055.5,-132 2079.949,-82.2097 2006.8053,-42.7442 1959.8087,-23.2706"/>
<polygon fill="#191970" stroke="#191970" points="1961.0921,-20.0143 1950.5082,-19.5335 1958.4822,-26.5096 1961.0921,-20.0143"/>
</g>
<!-- Node64&#45;&gt;Node25 -->
<g id="edge108" class="edge">
<title>Node64&#45;&gt;Node25</title>
<path fill="none" stroke="#191970" d="M1933.1492,-224.4346C1941.15,-215.7723 1951.9262,-202.2221 1956.5,-188 1961.3257,-172.9944 1960.3906,-155.068 1958.4909,-141.6873"/>
<polygon fill="#191970" stroke="#191970" points="1961.9146,-140.9444 1956.7735,-131.6805 1955.0155,-142.1285 1961.9146,-140.9444"/>
</g>
</g>
</svg>
