<?xml version="1.0" encoding="UTF-8" standalone="no"?>
<!DOCTYPE svg PUBLIC "-//W3C//DTD SVG 1.1//EN"
 "http://www.w3.org/Graphics/SVG/1.1/DTD/svg11.dtd">
<!-- Generated by graphviz version 2.36.0 (20140111.2315)
 -->
<!-- Title: /home/travis/build/igankevich/arma/src/generator/basic_arma_model_verify.cc Pages: 1 -->
<svg width="1466pt" height="298pt"
 viewBox="0.00 0.00 1466.25 298.00" xmlns="http://www.w3.org/2000/svg" xmlns:xlink="http://www.w3.org/1999/xlink">
<g id="graph0" class="graph" transform="scale(1 1) rotate(0) translate(4 294)">
<title>/home/travis/build/igankevich/arma/src/generator/basic_arma_model_verify.cc</title>
<!-- Node1 -->
<g id="node1" class="node"><title>Node1</title>
<polygon fill="#bfbfbf" stroke="black" points="482.5,-237 482.5,-289 595.5,-289 595.5,-237 482.5,-237"/>
<text text-anchor="start" x="490.5" y="-277" font-family="Helvetica,sans-Serif" font-size="10.00">/home/travis/build</text>
<text text-anchor="start" x="490.5" y="-266" font-family="Helvetica,sans-Serif" font-size="10.00">/igankevich/arma/src</text>
<text text-anchor="start" x="490.5" y="-255" font-family="Helvetica,sans-Serif" font-size="10.00">/generator/basic_arma</text>
<text text-anchor="middle" x="539" y="-244" font-family="Helvetica,sans-Serif" font-size="10.00">_model_verify.cc</text>
</g>
<!-- Node2 -->
<g id="node2" class="node"><title>Node2</title>
<g id="a_node2"><a xlink:href="statistics_8hh.html" target="_top" xlink:title="stats/statistics.hh">
<polygon fill="none" stroke="black" points="77.5,-68.5 77.5,-87.5 172.5,-87.5 172.5,-68.5 77.5,-68.5"/>
<text text-anchor="middle" x="125" y="-75.5" font-family="Helvetica,sans-Serif" font-size="10.00">stats/statistics.hh</text>
</a>
</g>
</g>
<!-- Node1&#45;&gt;Node2 -->
<g id="edge1" class="edge"><title>Node1&#45;&gt;Node2</title>
<path fill="none" stroke="midnightblue" d="M482.417,-256.86C393.63,-248.054 226.309,-228.261 174,-200 144.118,-183.856 134.415,-175.614 122,-144 116.193,-129.213 117.671,-111.058 120.183,-97.697"/>
<polygon fill="midnightblue" stroke="midnightblue" points="123.634,-98.303 122.399,-87.7804 116.802,-96.7766 123.634,-98.303"/>
</g>
<!-- Node6 -->
<g id="node6" class="node"><title>Node6</title>
<g id="a_node6"><a xlink:href="distribution_8hh.html" target="_top" xlink:title="stats/distribution.hh">
<polygon fill="none" stroke="black" points="1058,-180.5 1058,-199.5 1160,-199.5 1160,-180.5 1058,-180.5"/>
<text text-anchor="middle" x="1109" y="-187.5" font-family="Helvetica,sans-Serif" font-size="10.00">stats/distribution.hh</text>
</a>
</g>
</g>
<!-- Node1&#45;&gt;Node6 -->
<g id="edge5" class="edge"><title>Node1&#45;&gt;Node6</title>
<path fill="none" stroke="midnightblue" d="M595.738,-254.933C703.462,-241.514 936.752,-212.455 1047.83,-198.62"/>
<polygon fill="midnightblue" stroke="midnightblue" points="1048.37,-202.079 1057.86,-197.37 1047.51,-195.133 1048.37,-202.079"/>
</g>
<!-- Node17 -->
<g id="node17" class="node"><title>Node17</title>
<g id="a_node17"><a xlink:href="summary_8hh.html" target="_top" xlink:title="stats/summary.hh">
<polygon fill="none" stroke="black" points="207.5,-180.5 207.5,-199.5 302.5,-199.5 302.5,-180.5 207.5,-180.5"/>
<text text-anchor="middle" x="255" y="-187.5" font-family="Helvetica,sans-Serif" font-size="10.00">stats/summary.hh</text>
</a>
</g>
</g>
<!-- Node1&#45;&gt;Node17 -->
<g id="edge25" class="edge"><title>Node1&#45;&gt;Node17</title>
<path fill="none" stroke="midnightblue" d="M482.211,-247.803C428.299,-234.325 348.382,-214.346 299.106,-202.026"/>
<polygon fill="midnightblue" stroke="midnightblue" points="299.927,-198.624 289.376,-199.594 298.229,-205.415 299.927,-198.624"/>
</g>
<!-- Node18 -->
<g id="node18" class="node"><title>Node18</title>
<polygon fill="none" stroke="#bfbfbf" points="131.5,-124.5 131.5,-143.5 172.5,-143.5 172.5,-124.5 131.5,-124.5"/>
<text text-anchor="middle" x="152" y="-131.5" font-family="Helvetica,sans-Serif" font-size="10.00">string</text>
</g>
<!-- Node1&#45;&gt;Node18 -->
<g id="edge51" class="edge"><title>Node1&#45;&gt;Node18</title>
<path fill="none" stroke="midnightblue" d="M482.264,-256.9C397.889,-248.454 244.303,-229.509 198,-200 180.381,-188.772 167.534,-168.148 159.964,-153.135"/>
<polygon fill="midnightblue" stroke="midnightblue" points="163.004,-151.375 155.573,-143.822 156.672,-154.36 163.004,-151.375"/>
</g>
<!-- Node20 -->
<g id="node20" class="node"><title>Node20</title>
<polygon fill="none" stroke="#bfbfbf" points="475,-6.5 475,-25.5 531,-25.5 531,-6.5 475,-6.5"/>
<text text-anchor="middle" x="503" y="-13.5" font-family="Helvetica,sans-Serif" font-size="10.00">algorithm</text>
</g>
<!-- Node1&#45;&gt;Node20 -->
<g id="edge52" class="edge"><title>Node1&#45;&gt;Node20</title>
<path fill="none" stroke="midnightblue" d="M519.958,-236.902C496.711,-204.531 458.681,-145.526 444,-88 441.802,-79.3872 440.303,-76.0834 444,-68 451.093,-52.4939 465.485,-39.9016 478.279,-31.1089"/>
<polygon fill="midnightblue" stroke="midnightblue" points="480.26,-33.9967 486.772,-25.6396 476.469,-28.1115 480.26,-33.9967"/>
</g>
<!-- Node21 -->
<g id="node21" class="node"><title>Node21</title>
<g id="a_node21"><a xlink:href="waves_8hh.html" target="_top" xlink:title="stats/waves.hh">
<polygon fill="none" stroke="black" points="497.5,-124.5 497.5,-143.5 580.5,-143.5 580.5,-124.5 497.5,-124.5"/>
<text text-anchor="middle" x="539" y="-131.5" font-family="Helvetica,sans-Serif" font-size="10.00">stats/waves.hh</text>
</a>
</g>
</g>
<!-- Node1&#45;&gt;Node21 -->
<g id="edge32" class="edge"><title>Node1&#45;&gt;Node21</title>
<path fill="none" stroke="midnightblue" d="M539,-236.909C539,-212.409 539,-175.69 539,-153.664"/>
<polygon fill="midnightblue" stroke="midnightblue" points="542.5,-153.628 539,-143.628 535.5,-153.628 542.5,-153.628"/>
</g>
<!-- Node23 -->
<g id="node23" class="node"><title>Node23</title>
<polygon fill="none" stroke="#bfbfbf" points="609.5,-68.5 609.5,-87.5 656.5,-87.5 656.5,-68.5 609.5,-68.5"/>
<text text-anchor="middle" x="633" y="-75.5" font-family="Helvetica,sans-Serif" font-size="10.00">iterator</text>
</g>
<!-- Node1&#45;&gt;Node23 -->
<g id="edge53" class="edge"><title>Node1&#45;&gt;Node23</title>
<path fill="none" stroke="midnightblue" d="M551.873,-236.938C571.111,-199.487 606.898,-129.816 623.759,-96.9903"/>
<polygon fill="midnightblue" stroke="midnightblue" points="627.068,-98.2092 628.524,-87.7149 620.841,-95.0108 627.068,-98.2092"/>
</g>
<!-- Node26 -->
<g id="node26" class="node"><title>Node26</title>
<g id="a_node26"><a xlink:href="grid_8hh.html" target="_top" xlink:title="grid.hh">
<polygon fill="none" stroke="black" points="676,-180.5 676,-199.5 722,-199.5 722,-180.5 676,-180.5"/>
<text text-anchor="middle" x="699" y="-187.5" font-family="Helvetica,sans-Serif" font-size="10.00">grid.hh</text>
</a>
</g>
</g>
<!-- Node1&#45;&gt;Node26 -->
<g id="edge40" class="edge"><title>Node1&#45;&gt;Node26</title>
<path fill="none" stroke="midnightblue" d="M595.41,-236.968C620.73,-225.732 649.513,-212.96 670.302,-203.735"/>
<polygon fill="midnightblue" stroke="midnightblue" points="671.811,-206.894 679.532,-199.639 668.972,-200.496 671.811,-206.894"/>
</g>
<!-- Node31 -->
<g id="node31" class="node"><title>Node31</title>
<polygon fill="none" stroke="#bfbfbf" points="1178,-180.5 1178,-199.5 1228,-199.5 1228,-180.5 1178,-180.5"/>
<text text-anchor="middle" x="1203" y="-187.5" font-family="Helvetica,sans-Serif" font-size="10.00">fstream</text>
</g>
<!-- Node1&#45;&gt;Node31 -->
<g id="edge50" class="edge"><title>Node1&#45;&gt;Node31</title>
<path fill="none" stroke="midnightblue" d="M595.78,-259.327C706.544,-253.47 958.913,-236.962 1168,-200 1168.1,-199.982 1168.2,-199.964 1168.3,-199.946"/>
<polygon fill="midnightblue" stroke="midnightblue" points="1168.79,-203.42 1177.87,-197.955 1167.36,-196.567 1168.79,-203.42"/>
</g>
<!-- Node3 -->
<g id="node3" class="node"><title>Node3</title>
<polygon fill="none" stroke="#bfbfbf" points="243,-6.5 243,-25.5 311,-25.5 311,-6.5 243,-6.5"/>
<text text-anchor="middle" x="277" y="-13.5" font-family="Helvetica,sans-Serif" font-size="10.00">blitz/array.h</text>
</g>
<!-- Node2&#45;&gt;Node3 -->
<g id="edge2" class="edge"><title>Node2&#45;&gt;Node3</title>
<path fill="none" stroke="midnightblue" d="M146.778,-68.4035C172.738,-58.1559 216.311,-40.9561 245.835,-29.3021"/>
<polygon fill="midnightblue" stroke="midnightblue" points="247.246,-32.5079 255.263,-25.5806 244.676,-25.9968 247.246,-32.5079"/>
</g>
<!-- Node4 -->
<g id="node4" class="node"><title>Node4</title>
<polygon fill="none" stroke="#bfbfbf" points="0,-1 0,-31 90,-31 90,-1 0,-1"/>
<text text-anchor="start" x="8" y="-19" font-family="Helvetica,sans-Serif" font-size="10.00">gsl/gsl_statistics</text>
<text text-anchor="middle" x="45" y="-8" font-family="Helvetica,sans-Serif" font-size="10.00">_float.h</text>
</g>
<!-- Node2&#45;&gt;Node4 -->
<g id="edge3" class="edge"><title>Node2&#45;&gt;Node4</title>
<path fill="none" stroke="midnightblue" d="M113.538,-68.4035C102.703,-60.2773 86.0392,-47.7794 71.8559,-37.1419"/>
<polygon fill="midnightblue" stroke="midnightblue" points="73.9545,-34.3408 63.8544,-31.1408 69.7544,-39.9409 73.9545,-34.3408"/>
</g>
<!-- Node5 -->
<g id="node5" class="node"><title>Node5</title>
<polygon fill="none" stroke="#bfbfbf" points="108,-1 108,-31 198,-31 198,-1 108,-1"/>
<text text-anchor="start" x="116" y="-19" font-family="Helvetica,sans-Serif" font-size="10.00">gsl/gsl_statistics</text>
<text text-anchor="middle" x="153" y="-8" font-family="Helvetica,sans-Serif" font-size="10.00">_double.h</text>
</g>
<!-- Node2&#45;&gt;Node5 -->
<g id="edge4" class="edge"><title>Node2&#45;&gt;Node5</title>
<path fill="none" stroke="midnightblue" d="M129.012,-68.4035C132.414,-61.1127 137.459,-50.3028 142.045,-40.4748"/>
<polygon fill="midnightblue" stroke="midnightblue" points="145.344,-41.6828 146.401,-31.1408 139,-38.7225 145.344,-41.6828"/>
</g>
<!-- Node7 -->
<g id="node7" class="node"><title>Node7</title>
<g id="a_node7"><a xlink:href="gaussian_8hh.html" target="_top" xlink:title="gaussian.hh">
<polygon fill="none" stroke="black" points="1219.5,-68.5 1219.5,-87.5 1288.5,-87.5 1288.5,-68.5 1219.5,-68.5"/>
<text text-anchor="middle" x="1254" y="-75.5" font-family="Helvetica,sans-Serif" font-size="10.00">gaussian.hh</text>
</a>
</g>
</g>
<!-- Node6&#45;&gt;Node7 -->
<g id="edge6" class="edge"><title>Node6&#45;&gt;Node7</title>
<path fill="none" stroke="midnightblue" d="M1120.38,-180.368C1145.05,-161.653 1203.71,-117.151 1234.45,-93.8324"/>
<polygon fill="midnightblue" stroke="midnightblue" points="1236.82,-96.4237 1242.67,-87.5914 1232.59,-90.8469 1236.82,-96.4237"/>
</g>
<!-- Node11 -->
<g id="node11" class="node"><title>Node11</title>
<g id="a_node11"><a xlink:href="weibull_8hh.html" target="_top" xlink:title="weibull.hh">
<polygon fill="none" stroke="black" points="1141,-68.5 1141,-87.5 1201,-87.5 1201,-68.5 1141,-68.5"/>
<text text-anchor="middle" x="1171" y="-75.5" font-family="Helvetica,sans-Serif" font-size="10.00">weibull.hh</text>
</a>
</g>
</g>
<!-- Node6&#45;&gt;Node11 -->
<g id="edge10" class="edge"><title>Node6&#45;&gt;Node11</title>
<path fill="none" stroke="midnightblue" d="M1113.87,-180.368C1124.05,-162.296 1147.79,-120.176 1161.24,-96.3074"/>
<polygon fill="midnightblue" stroke="midnightblue" points="1164.3,-98.0215 1166.16,-87.5914 1158.2,-94.5844 1164.3,-98.0215"/>
</g>
<!-- Node12 -->
<g id="node12" class="node"><title>Node12</title>
<g id="a_node12"><a xlink:href="gram__charlier_8hh.html" target="_top" xlink:title="gram_charlier.hh">
<polygon fill="none" stroke="black" points="1028.5,-124.5 1028.5,-143.5 1117.5,-143.5 1117.5,-124.5 1028.5,-124.5"/>
<text text-anchor="middle" x="1073" y="-131.5" font-family="Helvetica,sans-Serif" font-size="10.00">gram_charlier.hh</text>
</a>
</g>
</g>
<!-- Node6&#45;&gt;Node12 -->
<g id="edge14" class="edge"><title>Node6&#45;&gt;Node12</title>
<path fill="none" stroke="midnightblue" d="M1103.06,-180.083C1098.02,-172.534 1090.66,-161.495 1084.49,-152.23"/>
<polygon fill="midnightblue" stroke="midnightblue" points="1087.29,-150.13 1078.83,-143.751 1081.47,-154.013 1087.29,-150.13"/>
</g>
<!-- Node15 -->
<g id="node15" class="node"><title>Node15</title>
<g id="a_node15"><a xlink:href="skew__normal_8hh.html" target="_top" xlink:title="skew_normal.hh">
<polygon fill="none" stroke="black" points="1212,-124.5 1212,-143.5 1300,-143.5 1300,-124.5 1212,-124.5"/>
<text text-anchor="middle" x="1256" y="-131.5" font-family="Helvetica,sans-Serif" font-size="10.00">skew_normal.hh</text>
</a>
</g>
</g>
<!-- Node6&#45;&gt;Node15 -->
<g id="edge20" class="edge"><title>Node6&#45;&gt;Node15</title>
<path fill="none" stroke="midnightblue" d="M1132.29,-180.444C1156.81,-171.438 1195.6,-157.189 1223.2,-147.049"/>
<polygon fill="midnightblue" stroke="midnightblue" points="1224.64,-150.25 1232.82,-143.516 1222.22,-143.679 1224.64,-150.25"/>
</g>
<!-- Node8 -->
<g id="node8" class="node"><title>Node8</title>
<polygon fill="none" stroke="#bfbfbf" points="1088.5,-6.5 1088.5,-25.5 1137.5,-25.5 1137.5,-6.5 1088.5,-6.5"/>
<text text-anchor="middle" x="1113" y="-13.5" font-family="Helvetica,sans-Serif" font-size="10.00">istream</text>
</g>
<!-- Node7&#45;&gt;Node8 -->
<g id="edge7" class="edge"><title>Node7&#45;&gt;Node8</title>
<path fill="none" stroke="midnightblue" d="M1233.8,-68.4035C1209.93,-58.245 1170,-41.2547 1142.63,-29.6074"/>
<polygon fill="midnightblue" stroke="midnightblue" points="1143.74,-26.2757 1133.16,-25.5806 1141,-32.7167 1143.74,-26.2757"/>
</g>
<!-- Node9 -->
<g id="node9" class="node"><title>Node9</title>
<polygon fill="none" stroke="#bfbfbf" points="1279,-6.5 1279,-25.5 1331,-25.5 1331,-6.5 1279,-6.5"/>
<text text-anchor="middle" x="1305" y="-13.5" font-family="Helvetica,sans-Serif" font-size="10.00">ostream</text>
</g>
<!-- Node7&#45;&gt;Node9 -->
<g id="edge8" class="edge"><title>Node7&#45;&gt;Node9</title>
<path fill="none" stroke="midnightblue" d="M1261.31,-68.4035C1269.03,-59.3143 1281.41,-44.7559 1291.02,-33.4489"/>
<polygon fill="midnightblue" stroke="midnightblue" points="1293.9,-35.4668 1297.71,-25.5806 1288.56,-30.9332 1293.9,-35.4668"/>
</g>
<!-- Node10 -->
<g id="node10" class="node"><title>Node10</title>
<polygon fill="none" stroke="#bfbfbf" points="1178,-6.5 1178,-25.5 1250,-25.5 1250,-6.5 1178,-6.5"/>
<text text-anchor="middle" x="1214" y="-13.5" font-family="Helvetica,sans-Serif" font-size="10.00">gsl/gsl_cdf.h</text>
</g>
<!-- Node7&#45;&gt;Node10 -->
<g id="edge9" class="edge"><title>Node7&#45;&gt;Node10</title>
<path fill="none" stroke="midnightblue" d="M1248.27,-68.4035C1242.33,-59.4925 1232.88,-45.3247 1225.41,-34.1177"/>
<polygon fill="midnightblue" stroke="midnightblue" points="1228.18,-31.9596 1219.72,-25.5806 1222.36,-35.8426 1228.18,-31.9596"/>
</g>
<!-- Node11&#45;&gt;Node8 -->
<g id="edge11" class="edge"><title>Node11&#45;&gt;Node8</title>
<path fill="none" stroke="midnightblue" d="M1162.69,-68.4035C1153.73,-59.1361 1139.28,-44.1828 1128.26,-32.7876"/>
<polygon fill="midnightblue" stroke="midnightblue" points="1130.76,-30.3379 1121.29,-25.5806 1125.73,-35.2031 1130.76,-30.3379"/>
</g>
<!-- Node11&#45;&gt;Node9 -->
<g id="edge12" class="edge"><title>Node11&#45;&gt;Node9</title>
<path fill="none" stroke="midnightblue" d="M1190.2,-68.4035C1212.79,-58.2896 1250.5,-41.4036 1276.5,-29.761"/>
<polygon fill="midnightblue" stroke="midnightblue" points="1278.14,-32.8617 1285.84,-25.5806 1275.28,-26.4729 1278.14,-32.8617"/>
</g>
<!-- Node11&#45;&gt;Node10 -->
<g id="edge13" class="edge"><title>Node11&#45;&gt;Node10</title>
<path fill="none" stroke="midnightblue" d="M1177.16,-68.4035C1183.61,-59.4034 1193.9,-45.0408 1201.97,-33.7824"/>
<polygon fill="midnightblue" stroke="midnightblue" points="1204.87,-35.7476 1207.85,-25.5806 1199.18,-31.6699 1204.87,-35.7476"/>
</g>
<!-- Node12&#45;&gt;Node8 -->
<g id="edge15" class="edge"><title>Node12&#45;&gt;Node8</title>
<path fill="none" stroke="midnightblue" d="M1076.01,-124.281C1082.52,-105.379 1098.07,-60.295 1106.79,-35"/>
<polygon fill="midnightblue" stroke="midnightblue" points="1110.12,-36.0995 1110.07,-25.5048 1103.5,-33.8175 1110.12,-36.0995"/>
</g>
<!-- Node12&#45;&gt;Node9 -->
<g id="edge16" class="edge"><title>Node12&#45;&gt;Node9</title>
<path fill="none" stroke="midnightblue" d="M1117.54,-130.139C1175.82,-125.411 1273.34,-113.794 1297,-88 1309.69,-74.1723 1310.17,-51.8932 1308.45,-35.9802"/>
<polygon fill="midnightblue" stroke="midnightblue" points="1311.86,-35.1159 1306.94,-25.7299 1304.93,-36.1321 1311.86,-35.1159"/>
</g>
<!-- Node13 -->
<g id="node13" class="node"><title>Node13</title>
<polygon fill="none" stroke="#bfbfbf" points="830,-6.5 830,-25.5 874,-25.5 874,-6.5 830,-6.5"/>
<text text-anchor="middle" x="852" y="-13.5" font-family="Helvetica,sans-Serif" font-size="10.00">cmath</text>
</g>
<!-- Node12&#45;&gt;Node13 -->
<g id="edge17" class="edge"><title>Node12&#45;&gt;Node13</title>
<path fill="none" stroke="midnightblue" d="M1068.06,-124.475C1059.58,-110.595 1040.95,-83.1441 1018,-68 976.496,-40.6111 919.565,-27.3444 884.315,-21.3717"/>
<polygon fill="midnightblue" stroke="midnightblue" points="884.539,-17.8633 874.112,-19.7448 883.436,-24.7759 884.539,-17.8633"/>
</g>
<!-- Node14 -->
<g id="node14" class="node"><title>Node14</title>
<g id="a_node14"><a xlink:href="physical__constants_8hh.html" target="_top" xlink:title="physical_constants.hh">
<polygon fill="none" stroke="black" points="895,-68.5 895,-87.5 1009,-87.5 1009,-68.5 895,-68.5"/>
<text text-anchor="middle" x="952" y="-75.5" font-family="Helvetica,sans-Serif" font-size="10.00">physical_constants.hh</text>
</a>
</g>
</g>
<!-- Node12&#45;&gt;Node14 -->
<g id="edge18" class="edge"><title>Node12&#45;&gt;Node14</title>
<path fill="none" stroke="midnightblue" d="M1053.83,-124.444C1034.09,-115.636 1003.11,-101.812 980.507,-91.722"/>
<polygon fill="midnightblue" stroke="midnightblue" points="981.641,-88.3957 971.083,-87.5164 978.789,-94.788 981.641,-88.3957"/>
</g>
<!-- Node14&#45;&gt;Node13 -->
<g id="edge19" class="edge"><title>Node14&#45;&gt;Node13</title>
<path fill="none" stroke="midnightblue" d="M937.672,-68.4035C921.336,-58.6014 894.398,-42.4385 875.088,-30.8526"/>
<polygon fill="midnightblue" stroke="midnightblue" points="876.677,-27.7244 866.301,-25.5806 873.075,-33.7268 876.677,-27.7244"/>
</g>
<!-- Node15&#45;&gt;Node7 -->
<g id="edge23" class="edge"><title>Node15&#45;&gt;Node7</title>
<path fill="none" stroke="midnightblue" d="M1255.67,-124.083C1255.41,-117.006 1255.03,-106.861 1254.7,-97.9865"/>
<polygon fill="midnightblue" stroke="midnightblue" points="1258.19,-97.6147 1254.32,-87.7511 1251.2,-97.8738 1258.19,-97.6147"/>
</g>
<!-- Node15&#45;&gt;Node8 -->
<g id="edge21" class="edge"><title>Node15&#45;&gt;Node8</title>
<path fill="none" stroke="midnightblue" d="M1211.89,-127.366C1185.25,-121.719 1152.58,-110.45 1132,-88 1118.95,-73.7719 1114.69,-51.5657 1113.39,-35.7792"/>
<polygon fill="midnightblue" stroke="midnightblue" points="1116.88,-35.4364 1112.88,-25.6246 1109.88,-35.7876 1116.88,-35.4364"/>
</g>
<!-- Node15&#45;&gt;Node9 -->
<g id="edge22" class="edge"><title>Node15&#45;&gt;Node9</title>
<path fill="none" stroke="midnightblue" d="M1300.1,-129.1C1351.71,-123.516 1432.51,-111.247 1451,-88 1483.16,-47.573 1394.43,-28.6401 1341.43,-21.146"/>
<polygon fill="midnightblue" stroke="midnightblue" points="1341.73,-17.6548 1331.36,-19.7967 1340.8,-24.5929 1341.73,-17.6548"/>
</g>
<!-- Node16 -->
<g id="node16" class="node"><title>Node16</title>
<g id="a_node16"><a xlink:href="owen__t_8hh.html" target="_top" xlink:title="apmath/owen_t.hh">
<polygon fill="none" stroke="black" points="1345.5,-68.5 1345.5,-87.5 1442.5,-87.5 1442.5,-68.5 1345.5,-68.5"/>
<text text-anchor="middle" x="1394" y="-75.5" font-family="Helvetica,sans-Serif" font-size="10.00">apmath/owen_t.hh</text>
</a>
</g>
</g>
<!-- Node15&#45;&gt;Node16 -->
<g id="edge24" class="edge"><title>Node15&#45;&gt;Node16</title>
<path fill="none" stroke="midnightblue" d="M1277.87,-124.444C1300.78,-115.478 1336.98,-101.314 1362.87,-91.1827"/>
<polygon fill="midnightblue" stroke="midnightblue" points="1364.2,-94.4198 1372.24,-87.5164 1361.65,-87.9011 1364.2,-94.4198"/>
</g>
<!-- Node17&#45;&gt;Node3 -->
<g id="edge27" class="edge"><title>Node17&#45;&gt;Node3</title>
<path fill="none" stroke="midnightblue" d="M245.444,-180.45C236.912,-172.12 225.011,-158.604 220,-144 217.115,-135.592 217.846,-132.624 220,-124 228.585,-89.624 250.527,-54.1901 264.547,-33.9541"/>
<polygon fill="midnightblue" stroke="midnightblue" points="267.582,-35.7251 270.527,-25.5478 261.878,-31.6672 267.582,-35.7251"/>
</g>
<!-- Node17&#45;&gt;Node18 -->
<g id="edge26" class="edge"><title>Node17&#45;&gt;Node18</title>
<path fill="none" stroke="midnightblue" d="M238.451,-180.324C222.008,-171.703 196.565,-158.364 177.532,-148.386"/>
<polygon fill="midnightblue" stroke="midnightblue" points="178.989,-145.198 168.508,-143.655 175.739,-151.398 178.989,-145.198"/>
</g>
<!-- Node19 -->
<g id="node19" class="node"><title>Node19</title>
<g id="a_node19"><a xlink:href="qq__graph_8hh.html" target="_top" xlink:title="qq_graph.hh">
<polygon fill="none" stroke="black" points="229,-124.5 229,-143.5 299,-143.5 299,-124.5 229,-124.5"/>
<text text-anchor="middle" x="264" y="-131.5" font-family="Helvetica,sans-Serif" font-size="10.00">qq_graph.hh</text>
</a>
</g>
</g>
<!-- Node17&#45;&gt;Node19 -->
<g id="edge28" class="edge"><title>Node17&#45;&gt;Node19</title>
<path fill="none" stroke="midnightblue" d="M256.486,-180.083C257.679,-172.927 259.394,-162.635 260.885,-153.691"/>
<polygon fill="midnightblue" stroke="midnightblue" points="264.35,-154.19 262.541,-143.751 257.445,-153.04 264.35,-154.19"/>
</g>
<!-- Node19&#45;&gt;Node2 -->
<g id="edge31" class="edge"><title>Node19&#45;&gt;Node2</title>
<path fill="none" stroke="midnightblue" d="M241.975,-124.444C218.896,-115.478 182.438,-101.314 156.359,-91.1827"/>
<polygon fill="midnightblue" stroke="midnightblue" points="157.511,-87.8753 146.922,-87.5164 154.976,-94.4002 157.511,-87.8753"/>
</g>
<!-- Node19&#45;&gt;Node3 -->
<g id="edge29" class="edge"><title>Node19&#45;&gt;Node3</title>
<path fill="none" stroke="midnightblue" d="M263.751,-124.374C263.504,-115.316 263.141,-100.659 263,-88 262.901,-79.1117 261.813,-76.8093 263,-68 264.497,-56.893 267.749,-44.7832 270.742,-35.152"/>
<polygon fill="midnightblue" stroke="midnightblue" points="274.112,-36.1096 273.905,-25.5168 267.461,-33.9267 274.112,-36.1096"/>
</g>
<!-- Node19&#45;&gt;Node20 -->
<g id="edge30" class="edge"><title>Node19&#45;&gt;Node20</title>
<path fill="none" stroke="midnightblue" d="M271.215,-124.07C282.948,-110.119 307.53,-83.1816 334,-68 375.497,-44.2 429.22,-30.4628 464.832,-23.3654"/>
<polygon fill="midnightblue" stroke="midnightblue" points="465.655,-26.7714 474.819,-21.4544 464.34,-19.8961 465.655,-26.7714"/>
</g>
<!-- Node21&#45;&gt;Node13 -->
<g id="edge36" class="edge"><title>Node21&#45;&gt;Node13</title>
<path fill="none" stroke="midnightblue" d="M580.775,-127.042C620.638,-120.486 681.87,-108.12 732,-88 751.764,-80.0676 801.05,-49.4974 829.939,-31.1562"/>
<polygon fill="midnightblue" stroke="midnightblue" points="831.986,-34.0016 838.538,-25.6752 828.224,-28.0987 831.986,-34.0016"/>
</g>
<!-- Node21&#45;&gt;Node20 -->
<g id="edge35" class="edge"><title>Node21&#45;&gt;Node20</title>
<path fill="none" stroke="midnightblue" d="M546.002,-124.381C555.371,-111.736 569.837,-87.5388 561,-68 553.996,-52.5149 539.71,-39.8615 527.069,-31.0318"/>
<polygon fill="midnightblue" stroke="midnightblue" points="528.973,-28.095 518.69,-25.542 525.136,-33.9501 528.973,-28.095"/>
</g>
<!-- Node22 -->
<g id="node22" class="node"><title>Node22</title>
<g id="a_node22"><a xlink:href="types_8hh.html" target="_top" xlink:title="types.hh">
<polygon fill="none" stroke="black" points="343,-68.5 343,-87.5 397,-87.5 397,-68.5 343,-68.5"/>
<text text-anchor="middle" x="370" y="-75.5" font-family="Helvetica,sans-Serif" font-size="10.00">types.hh</text>
</a>
</g>
</g>
<!-- Node21&#45;&gt;Node22 -->
<g id="edge33" class="edge"><title>Node21&#45;&gt;Node22</title>
<path fill="none" stroke="midnightblue" d="M512.221,-124.444C483.667,-115.32 438.267,-100.813 406.463,-90.6509"/>
<polygon fill="midnightblue" stroke="midnightblue" points="407.244,-87.2262 396.653,-87.5164 405.114,-93.8941 407.244,-87.2262"/>
</g>
<!-- Node21&#45;&gt;Node23 -->
<g id="edge37" class="edge"><title>Node21&#45;&gt;Node23</title>
<path fill="none" stroke="midnightblue" d="M554.103,-124.324C568.903,-115.822 591.694,-102.729 608.982,-92.7975"/>
<polygon fill="midnightblue" stroke="midnightblue" points="611.007,-95.6707 617.935,-87.6545 607.52,-89.6009 611.007,-95.6707"/>
</g>
<!-- Node24 -->
<g id="node24" class="node"><title>Node24</title>
<polygon fill="none" stroke="#bfbfbf" points="453,-68.5 453,-87.5 491,-87.5 491,-68.5 453,-68.5"/>
<text text-anchor="middle" x="472" y="-75.5" font-family="Helvetica,sans-Serif" font-size="10.00">tuple</text>
</g>
<!-- Node21&#45;&gt;Node24 -->
<g id="edge38" class="edge"><title>Node21&#45;&gt;Node24</title>
<path fill="none" stroke="midnightblue" d="M528.235,-124.324C518.234,-116.263 503.113,-104.077 491.07,-94.3695"/>
<polygon fill="midnightblue" stroke="midnightblue" points="492.943,-91.3841 482.961,-87.8339 488.55,-96.8343 492.943,-91.3841"/>
</g>
<!-- Node25 -->
<g id="node25" class="node"><title>Node25</title>
<polygon fill="none" stroke="#bfbfbf" points="509,-68.5 509,-87.5 553,-87.5 553,-68.5 509,-68.5"/>
<text text-anchor="middle" x="531" y="-75.5" font-family="Helvetica,sans-Serif" font-size="10.00">vector</text>
</g>
<!-- Node21&#45;&gt;Node25 -->
<g id="edge39" class="edge"><title>Node21&#45;&gt;Node25</title>
<path fill="none" stroke="midnightblue" d="M537.679,-124.083C536.619,-116.927 535.094,-106.635 533.769,-97.6911"/>
<polygon fill="midnightblue" stroke="midnightblue" points="537.224,-97.1302 532.296,-87.7511 530.3,-98.1561 537.224,-97.1302"/>
</g>
<!-- Node22&#45;&gt;Node3 -->
<g id="edge34" class="edge"><title>Node22&#45;&gt;Node3</title>
<path fill="none" stroke="midnightblue" d="M356.675,-68.4035C341.62,-58.6905 316.884,-42.7319 298.963,-31.1697"/>
<polygon fill="midnightblue" stroke="midnightblue" points="300.6,-28.0609 290.3,-25.5806 296.805,-33.9429 300.6,-28.0609"/>
</g>
<!-- Node26&#45;&gt;Node3 -->
<g id="edge43" class="edge"><title>Node26&#45;&gt;Node3</title>
<path fill="none" stroke="midnightblue" d="M675.718,-187.999C614.18,-184.292 444.379,-167.06 334,-88 313.993,-73.6697 297.239,-50.51 287.181,-34.5603"/>
<polygon fill="midnightblue" stroke="midnightblue" points="289.991,-32.4429 281.815,-25.7044 284.004,-36.0706 289.991,-32.4429"/>
</g>
<!-- Node26&#45;&gt;Node8 -->
<g id="edge42" class="edge"><title>Node26&#45;&gt;Node8</title>
<path fill="none" stroke="midnightblue" d="M722.028,-183.227C746.318,-176.427 785.014,-163.521 814,-144 852.593,-118.009 845.545,-90.9863 886,-68 947.741,-32.9187 1031.74,-21.9687 1078.3,-18.5508"/>
<polygon fill="midnightblue" stroke="midnightblue" points="1078.73,-22.0306 1088.48,-17.8814 1078.27,-15.0457 1078.73,-22.0306"/>
</g>
<!-- Node27 -->
<g id="node27" class="node"><title>Node27</title>
<polygon fill="none" stroke="#bfbfbf" points="753,-124.5 753,-143.5 805,-143.5 805,-124.5 753,-124.5"/>
<text text-anchor="middle" x="779" y="-131.5" font-family="Helvetica,sans-Serif" font-size="10.00">stddef.h</text>
</g>
<!-- Node26&#45;&gt;Node27 -->
<g id="edge41" class="edge"><title>Node26&#45;&gt;Node27</title>
<path fill="none" stroke="midnightblue" d="M711.853,-180.324C724.216,-171.979 743.13,-159.212 757.737,-149.352"/>
<polygon fill="midnightblue" stroke="midnightblue" points="759.848,-152.15 766.179,-143.655 755.932,-146.348 759.848,-152.15"/>
</g>
<!-- Node28 -->
<g id="node28" class="node"><title>Node28</title>
<g id="a_node28"><a xlink:href="validators_8hh.html" target="_top" xlink:title="validators.hh">
<polygon fill="none" stroke="black" points="663,-124.5 663,-143.5 735,-143.5 735,-124.5 663,-124.5"/>
<text text-anchor="middle" x="699" y="-131.5" font-family="Helvetica,sans-Serif" font-size="10.00">validators.hh</text>
</a>
</g>
</g>
<!-- Node26&#45;&gt;Node28 -->
<g id="edge44" class="edge"><title>Node26&#45;&gt;Node28</title>
<path fill="none" stroke="midnightblue" d="M699,-180.083C699,-173.006 699,-162.861 699,-153.986"/>
<polygon fill="midnightblue" stroke="midnightblue" points="702.5,-153.751 699,-143.751 695.5,-153.751 702.5,-153.751"/>
</g>
<!-- Node29 -->
<g id="node29" class="node"><title>Node29</title>
<polygon fill="none" stroke="#bfbfbf" points="779.5,-68.5 779.5,-87.5 838.5,-87.5 838.5,-68.5 779.5,-68.5"/>
<text text-anchor="middle" x="809" y="-75.5" font-family="Helvetica,sans-Serif" font-size="10.00">stdexcept</text>
</g>
<!-- Node28&#45;&gt;Node29 -->
<g id="edge45" class="edge"><title>Node28&#45;&gt;Node29</title>
<path fill="none" stroke="midnightblue" d="M716.673,-124.324C734.394,-115.625 761.903,-102.12 782.288,-92.113"/>
<polygon fill="midnightblue" stroke="midnightblue" points="783.936,-95.2031 791.37,-87.6545 780.851,-88.9195 783.936,-95.2031"/>
</g>
<!-- Node30 -->
<g id="node30" class="node"><title>Node30</title>
<g id="a_node30"><a xlink:href="blitz_8hh.html" target="_top" xlink:title="blitz.hh">
<polygon fill="none" stroke="black" points="675,-68.5 675,-87.5 723,-87.5 723,-68.5 675,-68.5"/>
<text text-anchor="middle" x="699" y="-75.5" font-family="Helvetica,sans-Serif" font-size="10.00">blitz.hh</text>
</a>
</g>
</g>
<!-- Node28&#45;&gt;Node30 -->
<g id="edge46" class="edge"><title>Node28&#45;&gt;Node30</title>
<path fill="none" stroke="midnightblue" d="M699,-124.083C699,-117.006 699,-106.861 699,-97.9865"/>
<polygon fill="midnightblue" stroke="midnightblue" points="702.5,-97.751 699,-87.7511 695.5,-97.7511 702.5,-97.751"/>
</g>
<!-- Node30&#45;&gt;Node3 -->
<g id="edge49" class="edge"><title>Node30&#45;&gt;Node3</title>
<path fill="none" stroke="midnightblue" d="M674.943,-70.2242C671.618,-69.4074 668.235,-68.638 665,-68 541.589,-43.6595 393.742,-27.8506 321.354,-20.9642"/>
<polygon fill="midnightblue" stroke="midnightblue" points="321.517,-17.4641 311.234,-20.0129 320.862,-24.4334 321.517,-17.4641"/>
</g>
<!-- Node30&#45;&gt;Node13 -->
<g id="edge47" class="edge"><title>Node30&#45;&gt;Node13</title>
<path fill="none" stroke="midnightblue" d="M720.921,-68.4035C747.052,-58.1559 790.912,-40.9561 820.63,-29.3021"/>
<polygon fill="midnightblue" stroke="midnightblue" points="822.088,-32.4899 830.119,-25.5806 819.532,-25.9731 822.088,-32.4899"/>
</g>
<!-- Node30&#45;&gt;Node20 -->
<g id="edge48" class="edge"><title>Node30&#45;&gt;Node20</title>
<path fill="none" stroke="midnightblue" d="M674.967,-69.6428C641.419,-59.373 580.223,-40.6396 540.607,-28.5123"/>
<polygon fill="midnightblue" stroke="midnightblue" points="541.616,-25.1611 531.03,-25.5806 539.567,-31.8545 541.616,-25.1611"/>
</g>
</g>
</svg>
