<?xml version="1.0" encoding="UTF-8" standalone="no"?>
<!DOCTYPE svg PUBLIC "-//W3C//DTD SVG 1.1//EN"
 "http://www.w3.org/Graphics/SVG/1.1/DTD/svg11.dtd">
<!-- Generated by graphviz version 2.40.1 (20161225.0304)
 -->
<!-- Title: src/generator/basic_arma_model.cc Pages: 1 -->
<svg width="2831pt" height="431pt"
 viewBox="0.00 0.00 2830.50 431.00" xmlns="http://www.w3.org/2000/svg" xmlns:xlink="http://www.w3.org/1999/xlink">
<g id="graph0" class="graph" transform="scale(1 1) rotate(0) translate(4 427)">
<title>src/generator/basic_arma_model.cc</title>
<!-- Node0 -->
<g id="node1" class="node">
<title>Node0</title>
<polygon fill="#bfbfbf" stroke="#000000" points="1931,-392.5 1931,-422.5 2031,-422.5 2031,-392.5 1931,-392.5"/>
<text text-anchor="start" x="1939" y="-410.5" font-family="Helvetica,sans-Serif" font-size="10.00" fill="#000000">src/generator/basic</text>
<text text-anchor="middle" x="1981" y="-399.5" font-family="Helvetica,sans-Serif" font-size="10.00" fill="#000000">_arma_model.cc</text>
</g>
<!-- Node1 -->
<g id="node2" class="node">
<title>Node1</title>
<g id="a_node2"><a xlink:href="basic__arma__model_8hh.html" target="_top" xlink:title="basic_arma_model.hh">
<polygon fill="none" stroke="#000000" points="1093,-336.5 1093,-355.5 1205,-355.5 1205,-336.5 1093,-336.5"/>
<text text-anchor="middle" x="1149" y="-343.5" font-family="Helvetica,sans-Serif" font-size="10.00" fill="#000000">basic_arma_model.hh</text>
</a>
</g>
</g>
<!-- Node0&#45;&gt;Node1 -->
<g id="edge1" class="edge">
<title>Node0&#45;&gt;Node1</title>
<path fill="none" stroke="#191970" d="M1930.8283,-403.7914C1787.6445,-393.2075 1377.0308,-362.8556 1215.4588,-350.9125"/>
<polygon fill="#191970" stroke="#191970" points="1215.4128,-347.3997 1205.182,-350.1529 1214.8968,-354.3806 1215.4128,-347.3997"/>
</g>
<!-- Node12 -->
<g id="node13" class="node">
<title>Node12</title>
<g id="a_node13"><a xlink:href="validators_8hh.html" target="_top" xlink:title="validators.hh">
<polygon fill="none" stroke="#000000" points="1350,-112.5 1350,-131.5 1422,-131.5 1422,-112.5 1350,-112.5"/>
<text text-anchor="middle" x="1386" y="-119.5" font-family="Helvetica,sans-Serif" font-size="10.00" fill="#000000">validators.hh</text>
</a>
</g>
</g>
<!-- Node0&#45;&gt;Node12 -->
<g id="edge95" class="edge">
<title>Node0&#45;&gt;Node12</title>
<path fill="none" stroke="#191970" d="M2031.2041,-401.4007C2185.8082,-381.5662 2640.2123,-314.8906 2571,-224 2514.2986,-149.5389 2460.4266,-182.725 2368,-168 2184.2332,-138.723 1601.0353,-125.9465 1432.2057,-122.8025"/>
<polygon fill="#191970" stroke="#191970" points="1432.2164,-119.3022 1422.1537,-122.6176 1432.0876,-126.301 1432.2164,-119.3022"/>
</g>
<!-- Node34 -->
<g id="node27" class="node">
<title>Node34</title>
<g id="a_node27"><a xlink:href="nit__transform_8hh.html" target="_top" xlink:title="nonlinear/nit_transform.hh">
<polygon fill="none" stroke="#000000" points="651.5,-280.5 651.5,-299.5 780.5,-299.5 780.5,-280.5 651.5,-280.5"/>
<text text-anchor="middle" x="716" y="-287.5" font-family="Helvetica,sans-Serif" font-size="10.00" fill="#000000">nonlinear/nit_transform.hh</text>
</a>
</g>
</g>
<!-- Node0&#45;&gt;Node34 -->
<g id="edge87" class="edge">
<title>Node0&#45;&gt;Node34</title>
<path fill="none" stroke="#191970" d="M1930.7112,-405.75C1761.1994,-399.6957 1211.5704,-378.7609 1036,-356 937.9508,-343.2889 825.0777,-317.292 763.0173,-301.9927"/>
<polygon fill="#191970" stroke="#191970" points="763.685,-298.5523 753.1364,-299.5411 761.9993,-305.3463 763.685,-298.5523"/>
</g>
<!-- Node47 -->
<g id="node34" class="node">
<title>Node47</title>
<g id="a_node34"><a xlink:href="arma_8hh.html" target="_top" xlink:title="arma.hh">
<polygon fill="none" stroke="#000000" points="1757,-336.5 1757,-355.5 1809,-355.5 1809,-336.5 1757,-336.5"/>
<text text-anchor="middle" x="1783" y="-343.5" font-family="Helvetica,sans-Serif" font-size="10.00" fill="#000000">arma.hh</text>
</a>
</g>
</g>
<!-- Node0&#45;&gt;Node47 -->
<g id="edge71" class="edge">
<title>Node0&#45;&gt;Node47</title>
<path fill="none" stroke="#191970" d="M1932.5638,-392.4554C1897.4393,-381.5455 1850.7072,-367.0303 1818.8899,-357.1476"/>
<polygon fill="#191970" stroke="#191970" points="1819.7055,-353.7361 1809.1173,-354.1122 1817.6291,-360.421 1819.7055,-353.7361"/>
</g>
<!-- Node48 -->
<g id="node35" class="node">
<title>Node48</title>
<g id="a_node35"><a xlink:href="acf__wrapper_8hh.html" target="_top" xlink:title="bits/acf_wrapper.hh">
<polygon fill="none" stroke="#000000" points="1542.5,-280.5 1542.5,-299.5 1643.5,-299.5 1643.5,-280.5 1542.5,-280.5"/>
<text text-anchor="middle" x="1593" y="-287.5" font-family="Helvetica,sans-Serif" font-size="10.00" fill="#000000">bits/acf_wrapper.hh</text>
</a>
</g>
</g>
<!-- Node0&#45;&gt;Node48 -->
<g id="edge73" class="edge">
<title>Node0&#45;&gt;Node48</title>
<path fill="none" stroke="#191970" d="M1930.748,-399.1727C1883.0729,-390.6233 1809.7431,-375.7809 1748,-356 1702.509,-341.4258 1651.9743,-318.5842 1621.3475,-303.9562"/>
<polygon fill="#191970" stroke="#191970" points="1622.6628,-300.7049 1612.1348,-299.5164 1619.6238,-307.0108 1622.6628,-300.7049"/>
</g>
<!-- Node49 -->
<g id="node36" class="node">
<title>Node49</title>
<g id="a_node36"><a xlink:href="transform__wrapper_8hh.html" target="_top" xlink:title="bits/transform_wrapper.hh">
<polygon fill="none" stroke="#000000" points="1948.5,-224.5 1948.5,-243.5 2077.5,-243.5 2077.5,-224.5 1948.5,-224.5"/>
<text text-anchor="middle" x="2013" y="-231.5" font-family="Helvetica,sans-Serif" font-size="10.00" fill="#000000">bits/transform_wrapper.hh</text>
</a>
</g>
</g>
<!-- Node0&#45;&gt;Node49 -->
<g id="edge78" class="edge">
<title>Node0&#45;&gt;Node49</title>
<path fill="none" stroke="#191970" d="M1983.7838,-392.4065C1989.574,-361.0126 2002.912,-288.6961 2009.368,-253.6925"/>
<polygon fill="#191970" stroke="#191970" points="2012.832,-254.207 2011.2039,-243.738 2005.9481,-252.9373 2012.832,-254.207"/>
</g>
<!-- Node51 -->
<g id="node38" class="node">
<title>Node51</title>
<g id="a_node38"><a xlink:href="write__csv_8hh.html" target="_top" xlink:title="bits/write_csv.hh">
<polygon fill="none" stroke="#000000" points="2472,-224.5 2472,-243.5 2562,-243.5 2562,-224.5 2472,-224.5"/>
<text text-anchor="middle" x="2517" y="-231.5" font-family="Helvetica,sans-Serif" font-size="10.00" fill="#000000">bits/write_csv.hh</text>
</a>
</g>
</g>
<!-- Node0&#45;&gt;Node51 -->
<g id="edge82" class="edge">
<title>Node0&#45;&gt;Node51</title>
<path fill="none" stroke="#191970" d="M2031.2208,-400.1617C2112.6411,-387.1043 2277.399,-355.823 2407,-300 2439.3944,-286.0467 2473.8075,-264.0977 2495.3431,-249.3864"/>
<polygon fill="#191970" stroke="#191970" points="2497.5136,-252.1407 2503.7409,-243.5691 2493.5275,-246.3864 2497.5136,-252.1407"/>
</g>
<!-- Node52 -->
<g id="node39" class="node">
<title>Node52</title>
<g id="a_node39"><a xlink:href="profile__counters_8hh.html" target="_top" xlink:title="profile_counters.hh">
<polygon fill="none" stroke="#000000" points="2656.5,-336.5 2656.5,-355.5 2755.5,-355.5 2755.5,-336.5 2656.5,-336.5"/>
<text text-anchor="middle" x="2706" y="-343.5" font-family="Helvetica,sans-Serif" font-size="10.00" fill="#000000">profile_counters.hh</text>
</a>
</g>
</g>
<!-- Node0&#45;&gt;Node52 -->
<g id="edge88" class="edge">
<title>Node0&#45;&gt;Node52</title>
<path fill="none" stroke="#191970" d="M2031.2961,-404.9106C2141.9558,-398.9223 2414.7768,-382.5633 2642,-356 2643.466,-355.8286 2644.95,-355.6485 2646.4461,-355.461"/>
<polygon fill="#191970" stroke="#191970" points="2646.9868,-358.92 2656.4375,-354.1311 2646.0631,-351.9812 2646.9868,-358.92"/>
</g>
<!-- Node54 -->
<g id="node41" class="node">
<title>Node54</title>
<g id="a_node41"><a xlink:href="util_8hh.html" target="_top" xlink:title="util.hh">
<polygon fill="none" stroke="#000000" points="2355.5,-280.5 2355.5,-299.5 2398.5,-299.5 2398.5,-280.5 2355.5,-280.5"/>
<text text-anchor="middle" x="2377" y="-287.5" font-family="Helvetica,sans-Serif" font-size="10.00" fill="#000000">util.hh</text>
</a>
</g>
</g>
<!-- Node0&#45;&gt;Node54 -->
<g id="edge90" class="edge">
<title>Node0&#45;&gt;Node54</title>
<path fill="none" stroke="#191970" d="M2031.2111,-393.2731C2067.1247,-383.0437 2116.5889,-368.8458 2160,-356 2226.2776,-336.3878 2303.6845,-312.642 2345.8005,-299.6511"/>
<polygon fill="#191970" stroke="#191970" points="2346.9497,-302.9594 2355.4724,-296.6654 2344.8849,-296.2708 2346.9497,-302.9594"/>
</g>
<!-- Node57 -->
<g id="node44" class="node">
<title>Node57</title>
<g id="a_node44"><a xlink:href="white__noise_8hh.html" target="_top" xlink:title="white_noise.hh">
<polygon fill="none" stroke="#000000" points="935,-280.5 935,-299.5 1017,-299.5 1017,-280.5 935,-280.5"/>
<text text-anchor="middle" x="976" y="-287.5" font-family="Helvetica,sans-Serif" font-size="10.00" fill="#000000">white_noise.hh</text>
</a>
</g>
</g>
<!-- Node0&#45;&gt;Node57 -->
<g id="edge96" class="edge">
<title>Node0&#45;&gt;Node57</title>
<path fill="none" stroke="#191970" d="M1930.8184,-406.0454C1753.8006,-400.7184 1164.8151,-381.2605 1084,-356 1050.0495,-345.388 1015.8524,-321.8074 995.2951,-305.902"/>
<polygon fill="#191970" stroke="#191970" points="997.372,-303.0822 987.3604,-299.6155 993.025,-308.5688 997.372,-303.0822"/>
</g>
<!-- Node58 -->
<g id="node45" class="node">
<title>Node58</title>
<polygon fill="none" stroke="#bfbfbf" points="2773.5,-336.5 2773.5,-355.5 2822.5,-355.5 2822.5,-336.5 2773.5,-336.5"/>
<text text-anchor="middle" x="2798" y="-343.5" font-family="Helvetica,sans-Serif" font-size="10.00" fill="#000000">random</text>
</g>
<!-- Node0&#45;&gt;Node58 -->
<g id="edge101" class="edge">
<title>Node0&#45;&gt;Node58</title>
<path fill="none" stroke="#191970" d="M2031.2334,-405.7025C2177.838,-400.2243 2604.3026,-382.578 2763.2088,-355.9214"/>
<polygon fill="#191970" stroke="#191970" points="2764.0389,-359.3293 2773.283,-354.1526 2762.8283,-352.4348 2764.0389,-359.3293"/>
</g>
<!-- Node59 -->
<g id="node46" class="node">
<title>Node59</title>
<g id="a_node46"><a xlink:href="basic__arma__model__verify_8cc.html" target="_top" xlink:title="basic_arma_model_verify.cc">
<polygon fill="none" stroke="#000000" points="2011,-336.5 2011,-355.5 2151,-355.5 2151,-336.5 2011,-336.5"/>
<text text-anchor="middle" x="2081" y="-343.5" font-family="Helvetica,sans-Serif" font-size="10.00" fill="#000000">basic_arma_model_verify.cc</text>
</a>
</g>
</g>
<!-- Node0&#45;&gt;Node59 -->
<g id="edge102" class="edge">
<title>Node0&#45;&gt;Node59</title>
<path fill="none" stroke="#191970" d="M2005.4628,-392.4554C2021.1235,-382.8241 2041.3532,-370.3828 2056.9356,-360.7996"/>
<polygon fill="#191970" stroke="#191970" points="2058.819,-363.7503 2065.5035,-355.5303 2055.152,-357.7876 2058.819,-363.7503"/>
</g>
<!-- Node2 -->
<g id="node3" class="node">
<title>Node2</title>
<polygon fill="none" stroke="#bfbfbf" points="1676,-168.5 1676,-187.5 1720,-187.5 1720,-168.5 1676,-168.5"/>
<text text-anchor="middle" x="1698" y="-175.5" font-family="Helvetica,sans-Serif" font-size="10.00" fill="#000000">vector</text>
</g>
<!-- Node1&#45;&gt;Node2 -->
<g id="edge2" class="edge">
<title>Node1&#45;&gt;Node2</title>
<path fill="none" stroke="#191970" d="M1205.1126,-341.2945C1288.7729,-333.81 1441.9404,-318.1677 1494,-300 1513.3026,-293.2638 1624.9601,-223.8529 1674.425,-192.8349"/>
<polygon fill="#191970" stroke="#191970" points="1676.2927,-195.795 1682.9011,-187.5137 1672.5708,-189.8664 1676.2927,-195.795"/>
</g>
<!-- Node3 -->
<g id="node4" class="node">
<title>Node3</title>
<g id="a_node4"><a xlink:href="acf__generator_8hh.html" target="_top" xlink:title="acf_generator.hh">
<polygon fill="none" stroke="#000000" points="162.5,-280.5 162.5,-299.5 251.5,-299.5 251.5,-280.5 162.5,-280.5"/>
<text text-anchor="middle" x="207" y="-287.5" font-family="Helvetica,sans-Serif" font-size="10.00" fill="#000000">acf_generator.hh</text>
</a>
</g>
</g>
<!-- Node1&#45;&gt;Node3 -->
<g id="edge3" class="edge">
<title>Node1&#45;&gt;Node3</title>
<path fill="none" stroke="#191970" d="M1092.8946,-342.6646C925.0748,-332.6881 428.3368,-303.158 261.9874,-293.2689"/>
<polygon fill="#191970" stroke="#191970" points="261.7052,-289.746 251.515,-292.6463 261.2897,-296.7337 261.7052,-289.746"/>
</g>
<!-- Node6 -->
<g id="node7" class="node">
<title>Node6</title>
<g id="a_node7"><a xlink:href="discrete__function_8hh.html" target="_top" xlink:title="discrete_function.hh">
<polygon fill="none" stroke="#000000" points="1274,-224.5 1274,-243.5 1378,-243.5 1378,-224.5 1274,-224.5"/>
<text text-anchor="middle" x="1326" y="-231.5" font-family="Helvetica,sans-Serif" font-size="10.00" fill="#000000">discrete_function.hh</text>
</a>
</g>
</g>
<!-- Node1&#45;&gt;Node6 -->
<g id="edge48" class="edge">
<title>Node1&#45;&gt;Node6</title>
<path fill="none" stroke="#191970" d="M1164.0909,-336.4509C1194.9187,-316.9441 1265.325,-272.3932 1302.3091,-248.9909"/>
<polygon fill="#191970" stroke="#191970" points="1304.3684,-251.8297 1310.9473,-243.5249 1300.6254,-245.9144 1304.3684,-251.8297"/>
</g>
<!-- Node20 -->
<g id="node21" class="node">
<title>Node20</title>
<g id="a_node21"><a xlink:href="basic__model_8hh.html" target="_top" xlink:title="basic_model.hh">
<polygon fill="none" stroke="#000000" points="1035.5,-280.5 1035.5,-299.5 1120.5,-299.5 1120.5,-280.5 1035.5,-280.5"/>
<text text-anchor="middle" x="1078" y="-287.5" font-family="Helvetica,sans-Serif" font-size="10.00" fill="#000000">basic_model.hh</text>
</a>
</g>
</g>
<!-- Node1&#45;&gt;Node20 -->
<g id="edge32" class="edge">
<title>Node1&#45;&gt;Node20</title>
<path fill="none" stroke="#191970" d="M1136.6327,-336.2455C1126.0446,-327.8943 1110.5936,-315.7076 1098.2107,-305.9408"/>
<polygon fill="#191970" stroke="#191970" points="1100.2447,-303.0875 1090.2255,-299.6427 1095.9097,-308.5837 1100.2447,-303.0875"/>
</g>
<!-- Node1&#45;&gt;Node34 -->
<g id="edge49" class="edge">
<title>Node1&#45;&gt;Node34</title>
<path fill="none" stroke="#191970" d="M1092.8367,-338.7364C1015.5776,-328.7444 876.3433,-310.7372 790.468,-299.631"/>
<polygon fill="#191970" stroke="#191970" points="790.8921,-296.1567 780.5257,-298.3451 789.9942,-303.0989 790.8921,-296.1567"/>
</g>
<!-- Node44 -->
<g id="node33" class="node">
<title>Node44</title>
<g id="a_node33"><a xlink:href="params_8hh.html" target="_top" xlink:title="params.hh">
<polygon fill="none" stroke="#ff0000" points="1765,-280.5 1765,-299.5 1827,-299.5 1827,-280.5 1765,-280.5"/>
<text text-anchor="middle" x="1796" y="-287.5" font-family="Helvetica,sans-Serif" font-size="10.00" fill="#000000">params.hh</text>
</a>
</g>
</g>
<!-- Node1&#45;&gt;Node44 -->
<g id="edge69" class="edge">
<title>Node1&#45;&gt;Node44</title>
<path fill="none" stroke="#191970" d="M1205.0037,-341.1527C1332.584,-330.1102 1642.437,-303.2914 1754.6003,-293.5833"/>
<polygon fill="#191970" stroke="#191970" points="1755.1641,-297.0477 1764.825,-292.6983 1754.5604,-290.0737 1755.1641,-297.0477"/>
</g>
<!-- Node4 -->
<g id="node5" class="node">
<title>Node4</title>
<polygon fill="none" stroke="#bfbfbf" points="364,-.5 364,-19.5 408,-19.5 408,-.5 364,-.5"/>
<text text-anchor="middle" x="386" y="-7.5" font-family="Helvetica,sans-Serif" font-size="10.00" fill="#000000">cmath</text>
</g>
<!-- Node3&#45;&gt;Node4 -->
<g id="edge4" class="edge">
<title>Node3&#45;&gt;Node4</title>
<path fill="none" stroke="#191970" d="M162.3389,-285.5853C101.4866,-276.8276 0,-251.2427 0,-178 0,-178 0,-178 0,-122 0,-48.5872 260.7811,-20.1904 353.6462,-12.4055"/>
<polygon fill="#191970" stroke="#191970" points="354.1766,-15.8741 363.8606,-11.5762 353.6101,-8.897 354.1766,-15.8741"/>
</g>
<!-- Node5 -->
<g id="node6" class="node">
<title>Node5</title>
<polygon fill="none" stroke="#bfbfbf" points="104.5,-168.5 104.5,-187.5 149.5,-187.5 149.5,-168.5 104.5,-168.5"/>
<text text-anchor="middle" x="127" y="-175.5" font-family="Helvetica,sans-Serif" font-size="10.00" fill="#000000">iosfwd</text>
</g>
<!-- Node3&#45;&gt;Node5 -->
<g id="edge5" class="edge">
<title>Node3&#45;&gt;Node5</title>
<path fill="none" stroke="#191970" d="M206.133,-280.2227C204.5151,-266.5646 200.0276,-241.4872 188,-224 179.3148,-211.3724 166.0428,-200.7727 154.0939,-192.9428"/>
<polygon fill="#191970" stroke="#191970" points="155.6574,-189.7944 145.3124,-187.5074 151.9733,-195.7465 155.6574,-189.7944"/>
</g>
<!-- Node3&#45;&gt;Node6 -->
<g id="edge6" class="edge">
<title>Node3&#45;&gt;Node6</title>
<path fill="none" stroke="#191970" d="M251.5567,-287.7702C425.7555,-279.0525 1061.0809,-247.2578 1263.5572,-237.1249"/>
<polygon fill="#191970" stroke="#191970" points="1263.9088,-240.6118 1273.7213,-236.6163 1263.5588,-233.6206 1263.9088,-240.6118"/>
</g>
<!-- Node15 -->
<g id="node16" class="node">
<title>Node15</title>
<g id="a_node16"><a xlink:href="domain_8hh.html" target="_top" xlink:title="domain.hh">
<polygon fill="none" stroke="#000000" points="826,-224.5 826,-243.5 888,-243.5 888,-224.5 826,-224.5"/>
<text text-anchor="middle" x="857" y="-231.5" font-family="Helvetica,sans-Serif" font-size="10.00" fill="#000000">domain.hh</text>
</a>
</g>
</g>
<!-- Node3&#45;&gt;Node15 -->
<g id="edge19" class="edge">
<title>Node3&#45;&gt;Node15</title>
<path fill="none" stroke="#191970" d="M251.8508,-287.0843C348.2628,-280.6635 582.3768,-264.2503 778,-244 790.3546,-242.7211 803.7677,-241.1082 815.9746,-239.5532"/>
<polygon fill="#191970" stroke="#191970" points="816.427,-243.0239 825.895,-238.2693 815.5285,-236.0818 816.427,-243.0239"/>
</g>
<!-- Node18 -->
<g id="node19" class="node">
<title>Node18</title>
<g id="a_node19"><a xlink:href="physical__constants_8hh.html" target="_top" xlink:title="physical_constants.hh">
<polygon fill="none" stroke="#000000" points="206,-112.5 206,-131.5 320,-131.5 320,-112.5 206,-112.5"/>
<text text-anchor="middle" x="263" y="-119.5" font-family="Helvetica,sans-Serif" font-size="10.00" fill="#000000">physical_constants.hh</text>
</a>
</g>
</g>
<!-- Node3&#45;&gt;Node18 -->
<g id="edge27" class="edge">
<title>Node3&#45;&gt;Node18</title>
<path fill="none" stroke="#191970" d="M162.1418,-281.9676C123.5729,-274.0405 72.2726,-260.6998 60,-244 54.7362,-236.8373 58.0833,-232.6798 60,-224 65.917,-197.2049 64.9275,-185.5767 86,-168 102.8162,-153.9735 152.9006,-141.7072 195.5188,-133.3766"/>
<polygon fill="#191970" stroke="#191970" points="196.4381,-136.7644 205.6037,-131.4501 195.1246,-129.8887 196.4381,-136.7644"/>
</g>
<!-- Node19 -->
<g id="node20" class="node">
<title>Node19</title>
<g id="a_node20"><a xlink:href="plain__wave__profile_8hh.html" target="_top" xlink:title="plain_wave_profile.hh">
<polygon fill="none" stroke="#000000" points="69,-224.5 69,-243.5 179,-243.5 179,-224.5 69,-224.5"/>
<text text-anchor="middle" x="124" y="-231.5" font-family="Helvetica,sans-Serif" font-size="10.00" fill="#000000">plain_wave_profile.hh</text>
</a>
</g>
</g>
<!-- Node3&#45;&gt;Node19 -->
<g id="edge29" class="edge">
<title>Node3&#45;&gt;Node19</title>
<path fill="none" stroke="#191970" d="M192.5425,-280.2455C179.9268,-271.7337 161.4056,-259.2375 146.7955,-249.3801"/>
<polygon fill="#191970" stroke="#191970" points="148.5391,-246.3343 138.2918,-243.6427 144.6239,-252.1371 148.5391,-246.3343"/>
</g>
<!-- Node7 -->
<g id="node8" class="node">
<title>Node7</title>
<g id="a_node8"><a xlink:href="grid_8hh.html" target="_top" xlink:title="grid.hh">
<polygon fill="none" stroke="#000000" points="1286,-168.5 1286,-187.5 1332,-187.5 1332,-168.5 1286,-168.5"/>
<text text-anchor="middle" x="1309" y="-175.5" font-family="Helvetica,sans-Serif" font-size="10.00" fill="#000000">grid.hh</text>
</a>
</g>
</g>
<!-- Node6&#45;&gt;Node7 -->
<g id="edge7" class="edge">
<title>Node6&#45;&gt;Node7</title>
<path fill="none" stroke="#191970" d="M1323.0388,-224.2455C1320.7962,-216.8579 1317.6423,-206.4689 1314.8919,-197.4087"/>
<polygon fill="#191970" stroke="#191970" points="1318.1812,-196.1948 1311.9272,-187.6427 1311.483,-198.2282 1318.1812,-196.1948"/>
</g>
<!-- Node14 -->
<g id="node15" class="node">
<title>Node14</title>
<g id="a_node15"><a xlink:href="types_8hh.html" target="_top" xlink:title="types.hh">
<polygon fill="none" stroke="#000000" points="1389,-168.5 1389,-187.5 1443,-187.5 1443,-168.5 1389,-168.5"/>
<text text-anchor="middle" x="1416" y="-175.5" font-family="Helvetica,sans-Serif" font-size="10.00" fill="#000000">types.hh</text>
</a>
</g>
</g>
<!-- Node6&#45;&gt;Node14 -->
<g id="edge17" class="edge">
<title>Node6&#45;&gt;Node14</title>
<path fill="none" stroke="#191970" d="M1341.6768,-224.2455C1355.4856,-215.6534 1375.8193,-203.0014 1391.7292,-193.1018"/>
<polygon fill="#191970" stroke="#191970" points="1393.8613,-195.8974 1400.5028,-187.6427 1390.1632,-189.954 1393.8613,-195.8974"/>
</g>
<!-- Node7&#45;&gt;Node4 -->
<g id="edge8" class="edge">
<title>Node7&#45;&gt;Node4</title>
<path fill="none" stroke="#191970" d="M1308.4445,-168.2961C1306.503,-144.4735 1297.877,-83.0825 1260,-56 1225.1466,-31.0794 573.0533,-14.3594 418.6015,-10.7383"/>
<polygon fill="#191970" stroke="#191970" points="418.4349,-7.2336 408.3563,-10.5003 418.2723,-14.2317 418.4349,-7.2336"/>
</g>
<!-- Node8 -->
<g id="node9" class="node">
<title>Node8</title>
<polygon fill="none" stroke="#bfbfbf" points="935.5,-112.5 935.5,-131.5 984.5,-131.5 984.5,-112.5 935.5,-112.5"/>
<text text-anchor="middle" x="960" y="-119.5" font-family="Helvetica,sans-Serif" font-size="10.00" fill="#000000">istream</text>
</g>
<!-- Node7&#45;&gt;Node8 -->
<g id="edge9" class="edge">
<title>Node7&#45;&gt;Node8</title>
<path fill="none" stroke="#191970" d="M1285.8309,-174.2823C1226.0252,-164.686 1066.1822,-139.0378 995.0162,-127.6186"/>
<polygon fill="#191970" stroke="#191970" points="995.2112,-124.1052 984.7829,-125.9766 994.1021,-131.0168 995.2112,-124.1052"/>
</g>
<!-- Node9 -->
<g id="node10" class="node">
<title>Node9</title>
<g id="a_node10"><a xlink:href="blitz_8hh.html" target="_top" xlink:title="blitz.hh">
<polygon fill="none" stroke="#000000" points="1362,-56.5 1362,-75.5 1410,-75.5 1410,-56.5 1362,-56.5"/>
<text text-anchor="middle" x="1386" y="-63.5" font-family="Helvetica,sans-Serif" font-size="10.00" fill="#000000">blitz.hh</text>
</a>
</g>
</g>
<!-- Node7&#45;&gt;Node9 -->
<g id="edge10" class="edge">
<title>Node7&#45;&gt;Node9</title>
<path fill="none" stroke="#191970" d="M1312.6447,-168.0632C1317.8169,-154.653 1328.1071,-130.3323 1341,-112 1348.4793,-101.3653 1358.4579,-90.8935 1367.1179,-82.6341"/>
<polygon fill="#191970" stroke="#191970" points="1369.6209,-85.0867 1374.5907,-75.7298 1364.8706,-79.9452 1369.6209,-85.0867"/>
</g>
<!-- Node7&#45;&gt;Node12 -->
<g id="edge14" class="edge">
<title>Node7&#45;&gt;Node12</title>
<path fill="none" stroke="#191970" d="M1322.4124,-168.2455C1334.0057,-159.814 1350.9748,-147.4729 1364.4678,-137.6598"/>
<polygon fill="#191970" stroke="#191970" points="1366.7126,-140.355 1372.7413,-131.6427 1362.5953,-134.6938 1366.7126,-140.355"/>
</g>
<!-- Node9&#45;&gt;Node4 -->
<g id="edge13" class="edge">
<title>Node9&#45;&gt;Node4</title>
<path fill="none" stroke="#191970" d="M1361.7613,-62.8312C1344.109,-60.6246 1319.6079,-57.7709 1298,-56 954.4008,-27.8399 536.468,-14.3288 418.4219,-10.899"/>
<polygon fill="#191970" stroke="#191970" points="418.3508,-7.3956 408.2545,-10.6072 418.1499,-14.3928 418.3508,-7.3956"/>
</g>
<!-- Node10 -->
<g id="node11" class="node">
<title>Node10</title>
<polygon fill="none" stroke="#bfbfbf" points="2236,-.5 2236,-19.5 2292,-19.5 2292,-.5 2236,-.5"/>
<text text-anchor="middle" x="2264" y="-7.5" font-family="Helvetica,sans-Serif" font-size="10.00" fill="#000000">algorithm</text>
</g>
<!-- Node9&#45;&gt;Node10 -->
<g id="edge11" class="edge">
<title>Node9&#45;&gt;Node10</title>
<path fill="none" stroke="#191970" d="M1410.3991,-64.4438C1532.3804,-56.6637 2076.1394,-21.982 2225.7754,-12.438"/>
<polygon fill="#191970" stroke="#191970" points="2226.1,-15.9245 2235.8569,-11.795 2225.6543,-8.9387 2226.1,-15.9245"/>
</g>
<!-- Node11 -->
<g id="node12" class="node">
<title>Node11</title>
<polygon fill="none" stroke="#bfbfbf" points="1416.5,-.5 1416.5,-19.5 1483.5,-19.5 1483.5,-.5 1416.5,-.5"/>
<text text-anchor="middle" x="1450" y="-7.5" font-family="Helvetica,sans-Serif" font-size="10.00" fill="#000000">blitz/array.h</text>
</g>
<!-- Node9&#45;&gt;Node11 -->
<g id="edge12" class="edge">
<title>Node9&#45;&gt;Node11</title>
<path fill="none" stroke="#191970" d="M1397.1479,-56.2455C1406.5087,-48.0549 1420.0858,-36.1749 1431.1349,-26.5069"/>
<polygon fill="#191970" stroke="#191970" points="1433.7588,-28.8618 1438.9798,-19.6427 1429.1492,-23.5937 1433.7588,-28.8618"/>
</g>
<!-- Node12&#45;&gt;Node9 -->
<g id="edge16" class="edge">
<title>Node12&#45;&gt;Node9</title>
<path fill="none" stroke="#191970" d="M1386,-112.2455C1386,-104.9382 1386,-94.6944 1386,-85.7046"/>
<polygon fill="#191970" stroke="#191970" points="1389.5001,-85.6426 1386,-75.6427 1382.5001,-85.6427 1389.5001,-85.6426"/>
</g>
<!-- Node13 -->
<g id="node14" class="node">
<title>Node13</title>
<polygon fill="none" stroke="#bfbfbf" points="1774.5,-56.5 1774.5,-75.5 1833.5,-75.5 1833.5,-56.5 1774.5,-56.5"/>
<text text-anchor="middle" x="1804" y="-63.5" font-family="Helvetica,sans-Serif" font-size="10.00" fill="#000000">stdexcept</text>
</g>
<!-- Node12&#45;&gt;Node13 -->
<g id="edge15" class="edge">
<title>Node12&#45;&gt;Node13</title>
<path fill="none" stroke="#191970" d="M1422.0002,-117.177C1499.7988,-106.7542 1683.1129,-82.1954 1764.2122,-71.3304"/>
<polygon fill="#191970" stroke="#191970" points="1765.0521,-74.7493 1774.4988,-69.9523 1764.1226,-67.8112 1765.0521,-74.7493"/>
</g>
<!-- Node14&#45;&gt;Node11 -->
<g id="edge18" class="edge">
<title>Node14&#45;&gt;Node11</title>
<path fill="none" stroke="#191970" d="M1419.6824,-168.2603C1423.0476,-159.038 1427.9507,-144.7442 1431,-132 1439.5263,-96.3656 1445.1372,-53.9275 1447.9247,-29.6576"/>
<polygon fill="#191970" stroke="#191970" points="1451.4173,-29.9169 1449.037,-19.5929 1444.4596,-29.1479 1451.4173,-29.9169"/>
</g>
<!-- Node15&#45;&gt;Node4 -->
<g id="edge20" class="edge">
<title>Node15&#45;&gt;Node4</title>
<path fill="none" stroke="#191970" d="M825.9082,-229.5975C811.378,-227.66 793.8284,-225.4906 778,-224 713.6056,-217.9357 241.2984,-235.1282 197,-188 173.8658,-163.388 179.6929,-141.007 197,-112 231.1353,-54.7886 309.69,-27.7508 354.0302,-16.637"/>
<polygon fill="#191970" stroke="#191970" points="355.0772,-19.9856 363.9941,-14.2638 353.4552,-13.1761 355.0772,-19.9856"/>
</g>
<!-- Node15&#45;&gt;Node7 -->
<g id="edge25" class="edge">
<title>Node15&#45;&gt;Node7</title>
<path fill="none" stroke="#191970" d="M888.3881,-226.579C892.9398,-225.6329 897.5796,-224.7388 902,-224 1039.8104,-200.9667 1205.839,-186.1921 1275.5842,-180.5677"/>
<polygon fill="#191970" stroke="#191970" points="1276.2415,-184.0265 1285.9321,-179.7437 1275.6858,-177.0486 1276.2415,-184.0265"/>
</g>
<!-- Node15&#45;&gt;Node8 -->
<g id="edge22" class="edge">
<title>Node15&#45;&gt;Node8</title>
<path fill="none" stroke="#191970" d="M865.7817,-224.4509C883.1889,-205.5227 922.2817,-163.014 944.2485,-139.1279"/>
<polygon fill="#191970" stroke="#191970" points="947.0476,-141.2547 951.2405,-131.5249 941.8951,-136.5163 947.0476,-141.2547"/>
</g>
<!-- Node15&#45;&gt;Node11 -->
<g id="edge24" class="edge">
<title>Node15&#45;&gt;Node11</title>
<path fill="none" stroke="#191970" d="M859.4937,-224.1898C866.0159,-200.6669 885.9168,-140.8685 926,-112 1003.3174,-56.315 1294.475,-24.2795 1406.0844,-13.8267"/>
<polygon fill="#191970" stroke="#191970" points="1406.6758,-17.2871 1416.3116,-12.8824 1406.0322,-10.3167 1406.6758,-17.2871"/>
</g>
<!-- Node15&#45;&gt;Node12 -->
<g id="edge26" class="edge">
<title>Node15&#45;&gt;Node12</title>
<path fill="none" stroke="#191970" d="M874.6374,-224.3308C902.3545,-209.6055 958.1975,-181.8159 1009,-168 1125.4355,-136.3351 1268.0522,-126.435 1339.9205,-123.3637"/>
<polygon fill="#191970" stroke="#191970" points="1340.1479,-126.8575 1349.9991,-122.9583 1339.8665,-119.8631 1340.1479,-126.8575"/>
</g>
<!-- Node16 -->
<g id="node17" class="node">
<title>Node16</title>
<polygon fill="none" stroke="#bfbfbf" points="1018,-168.5 1018,-187.5 1068,-187.5 1068,-168.5 1018,-168.5"/>
<text text-anchor="middle" x="1043" y="-175.5" font-family="Helvetica,sans-Serif" font-size="10.00" fill="#000000">iomanip</text>
</g>
<!-- Node15&#45;&gt;Node16 -->
<g id="edge21" class="edge">
<title>Node15&#45;&gt;Node16</title>
<path fill="none" stroke="#191970" d="M888.1322,-224.6269C921.2645,-214.6515 973.57,-198.9037 1008.0815,-188.5131"/>
<polygon fill="#191970" stroke="#191970" points="1009.1795,-191.8378 1017.7459,-185.6034 1007.1614,-185.135 1009.1795,-191.8378"/>
</g>
<!-- Node17 -->
<g id="node18" class="node">
<title>Node17</title>
<polygon fill="none" stroke="#bfbfbf" points="436,-112.5 436,-131.5 488,-131.5 488,-112.5 436,-112.5"/>
<text text-anchor="middle" x="462" y="-119.5" font-family="Helvetica,sans-Serif" font-size="10.00" fill="#000000">ostream</text>
</g>
<!-- Node15&#45;&gt;Node17 -->
<g id="edge23" class="edge">
<title>Node15&#45;&gt;Node17</title>
<path fill="none" stroke="#191970" d="M849.2849,-224.4496C836.7085,-209.6217 810.2388,-181.3795 781,-168 731.1707,-145.1983 570.8522,-130.3602 498.2859,-124.6476"/>
<polygon fill="#191970" stroke="#191970" points="498.4797,-121.1522 488.2397,-123.8711 497.9402,-128.1314 498.4797,-121.1522"/>
</g>
<!-- Node18&#45;&gt;Node4 -->
<g id="edge28" class="edge">
<title>Node18&#45;&gt;Node4</title>
<path fill="none" stroke="#191970" d="M273.5103,-112.0781C287.3032,-99.0924 312.3078,-75.6715 334,-56 344.8817,-46.132 357.1881,-35.234 367.0963,-26.5233"/>
<polygon fill="#191970" stroke="#191970" points="369.5613,-29.0168 374.7712,-19.7914 364.9454,-23.7543 369.5613,-29.0168"/>
</g>
<!-- Node19&#45;&gt;Node5 -->
<g id="edge30" class="edge">
<title>Node19&#45;&gt;Node5</title>
<path fill="none" stroke="#191970" d="M124.5226,-224.2455C124.914,-216.9382 125.4628,-206.6944 125.9444,-197.7046"/>
<polygon fill="#191970" stroke="#191970" points="129.4434,-197.8156 126.4834,-187.6427 122.4534,-197.4411 129.4434,-197.8156"/>
</g>
<!-- Node19&#45;&gt;Node17 -->
<g id="edge31" class="edge">
<title>Node19&#45;&gt;Node17</title>
<path fill="none" stroke="#191970" d="M113.9085,-224.4693C100.4865,-210.6587 80.0936,-184.8914 95,-168 105.9073,-155.6402 335.5006,-133.5073 425.8913,-125.2359"/>
<polygon fill="#191970" stroke="#191970" points="426.3097,-128.7124 435.9512,-124.3201 425.675,-121.7412 426.3097,-128.7124"/>
</g>
<!-- Node20&#45;&gt;Node7 -->
<g id="edge35" class="edge">
<title>Node20&#45;&gt;Node7</title>
<path fill="none" stroke="#191970" d="M1087.1214,-280.0295C1100.7746,-265.6712 1127.9353,-239.2284 1156,-224 1194.4402,-203.1417 1243.57,-190.527 1275.6389,-183.9139"/>
<polygon fill="#191970" stroke="#191970" points="1276.6906,-187.2737 1285.8203,-181.8981 1275.3309,-180.407 1276.6906,-187.2737"/>
</g>
<!-- Node20&#45;&gt;Node8 -->
<g id="edge33" class="edge">
<title>Node20&#45;&gt;Node8</title>
<path fill="none" stroke="#191970" d="M1081.2208,-280.3843C1087.979,-258.2851 1101.1164,-203.0852 1077,-168 1067.3084,-153.9005 1025.6067,-139.8182 994.7364,-131.02"/>
<polygon fill="#191970" stroke="#191970" points="995.3163,-127.5487 984.7445,-128.2464 993.444,-134.2937 995.3163,-127.5487"/>
</g>
<!-- Node20&#45;&gt;Node14 -->
<g id="edge47" class="edge">
<title>Node20&#45;&gt;Node14</title>
<path fill="none" stroke="#191970" d="M1103.894,-280.4586C1139.8759,-267.2923 1207.1081,-243.0242 1265,-224 1303.7118,-211.2787 1348.3952,-197.8166 1379.0534,-188.7659"/>
<polygon fill="#191970" stroke="#191970" points="1380.2788,-192.0538 1388.884,-185.8731 1378.3027,-185.3385 1380.2788,-192.0538"/>
</g>
<!-- Node20&#45;&gt;Node17 -->
<g id="edge34" class="edge">
<title>Node20&#45;&gt;Node17</title>
<path fill="none" stroke="#191970" d="M1035.2181,-281.3447C1032.1055,-280.8466 1029.0085,-280.3906 1026,-280 909.5928,-264.8882 598.4587,-306.3456 499,-244 465.0609,-222.7253 460.6163,-170.5593 460.9261,-141.8109"/>
<polygon fill="#191970" stroke="#191970" points="464.4271,-141.8323 461.2429,-131.7273 457.4305,-141.6124 464.4271,-141.8323"/>
</g>
<!-- Node21 -->
<g id="node22" class="node">
<title>Node21</title>
<g id="a_node22"><a xlink:href="output__flags_8hh.html" target="_top" xlink:title="output_flags.hh">
<polygon fill="none" stroke="#ff0000" points="944.5,-224.5 944.5,-243.5 1027.5,-243.5 1027.5,-224.5 944.5,-224.5"/>
<text text-anchor="middle" x="986" y="-231.5" font-family="Helvetica,sans-Serif" font-size="10.00" fill="#000000">output_flags.hh</text>
</a>
</g>
</g>
<!-- Node20&#45;&gt;Node21 -->
<g id="edge36" class="edge">
<title>Node20&#45;&gt;Node21</title>
<path fill="none" stroke="#191970" d="M1061.9748,-280.2455C1047.8592,-271.6534 1027.0737,-259.0014 1010.8101,-249.1018"/>
<polygon fill="#191970" stroke="#191970" points="1012.2034,-245.8525 1001.8415,-243.6427 1008.5637,-251.8319 1012.2034,-245.8525"/>
</g>
<!-- Node25 -->
<g id="node24" class="node">
<title>Node25</title>
<g id="a_node24"><a xlink:href="parallel__mt_8hh.html" target="_top" xlink:title="parallel_mt.hh">
<polygon fill="none" stroke="#ff0000" points="1776.5,-224.5 1776.5,-243.5 1853.5,-243.5 1853.5,-224.5 1776.5,-224.5"/>
<text text-anchor="middle" x="1815" y="-231.5" font-family="Helvetica,sans-Serif" font-size="10.00" fill="#000000">parallel_mt.hh</text>
</a>
</g>
</g>
<!-- Node20&#45;&gt;Node25 -->
<g id="edge40" class="edge">
<title>Node20&#45;&gt;Node25</title>
<path fill="none" stroke="#191970" d="M1120.5402,-286.7676C1248.5579,-277.0404 1629.7665,-248.0747 1765.9572,-237.7265"/>
<polygon fill="#191970" stroke="#191970" points="1766.3876,-241.2039 1776.0937,-236.9562 1765.8572,-234.2241 1766.3876,-241.2039"/>
</g>
<!-- Node21&#45;&gt;Node8 -->
<g id="edge37" class="edge">
<title>Node21&#45;&gt;Node8</title>
<path fill="none" stroke="#191970" d="M983.7833,-224.4509C979.5235,-206.1013 970.1193,-165.5908 964.4965,-141.3693"/>
<polygon fill="#191970" stroke="#191970" points="967.8818,-140.4744 962.2111,-131.5249 961.0632,-142.0573 967.8818,-140.4744"/>
</g>
<!-- Node21&#45;&gt;Node17 -->
<g id="edge38" class="edge">
<title>Node21&#45;&gt;Node17</title>
<path fill="none" stroke="#191970" d="M965.4852,-224.4884C933.2952,-209.974 868.6349,-182.462 811,-168 698.9792,-139.8912 562.1618,-128.215 498.2023,-124.0279"/>
<polygon fill="#191970" stroke="#191970" points="498.4155,-120.5345 488.2146,-123.3967 497.9739,-127.5206 498.4155,-120.5345"/>
</g>
<!-- Node23 -->
<g id="node23" class="node">
<title>Node23</title>
<polygon fill="none" stroke="#bfbfbf" points="2123.5,-168.5 2123.5,-187.5 2164.5,-187.5 2164.5,-168.5 2123.5,-168.5"/>
<text text-anchor="middle" x="2144" y="-175.5" font-family="Helvetica,sans-Serif" font-size="10.00" fill="#000000">string</text>
</g>
<!-- Node21&#45;&gt;Node23 -->
<g id="edge39" class="edge">
<title>Node21&#45;&gt;Node23</title>
<path fill="none" stroke="#191970" d="M1027.7671,-232.3834C1212.6966,-225.2018 1953.2174,-196.1827 2057,-188 2075.6497,-186.5296 2096.4706,-184.1624 2113.0671,-182.1002"/>
<polygon fill="#191970" stroke="#191970" points="2113.8183,-185.5331 2123.2979,-180.8017 2112.9368,-178.5888 2113.8183,-185.5331"/>
</g>
<!-- Node25&#45;&gt;Node2 -->
<g id="edge44" class="edge">
<title>Node25&#45;&gt;Node2</title>
<path fill="none" stroke="#191970" d="M1794.887,-224.3733C1776.1897,-215.4241 1748.1256,-201.9917 1727.0066,-191.8835"/>
<polygon fill="#191970" stroke="#191970" points="1728.3817,-188.6614 1717.8506,-187.5011 1725.3595,-194.9755 1728.3817,-188.6614"/>
</g>
<!-- Node25&#45;&gt;Node8 -->
<g id="edge42" class="edge">
<title>Node25&#45;&gt;Node8</title>
<path fill="none" stroke="#191970" d="M1810.4852,-224.2134C1802.9007,-209.0619 1786.037,-180.3844 1762,-168 1727.4535,-150.2009 1144.9402,-128.5198 994.98,-123.2141"/>
<polygon fill="#191970" stroke="#191970" points="994.6668,-119.7009 984.5498,-122.8468 994.4204,-126.6966 994.6668,-119.7009"/>
</g>
<!-- Node25&#45;&gt;Node10 -->
<g id="edge41" class="edge">
<title>Node25&#45;&gt;Node10</title>
<path fill="none" stroke="#191970" d="M1822.5814,-224.2832C1833.9638,-210.2407 1856.7359,-184.1875 1881,-168 1995.9166,-91.3345 2153.9694,-40.7744 2225.7583,-20.2993"/>
<polygon fill="#191970" stroke="#191970" points="2227.0319,-23.5769 2235.7088,-17.4972 2225.1344,-16.8389 2227.0319,-23.5769"/>
</g>
<!-- Node25&#45;&gt;Node13 -->
<g id="edge43" class="edge">
<title>Node25&#45;&gt;Node13</title>
<path fill="none" stroke="#191970" d="M1814.3771,-224.4862C1812.6382,-197.9293 1807.7037,-122.5651 1805.3204,-86.1655"/>
<polygon fill="#191970" stroke="#191970" points="1808.7895,-85.5778 1804.6435,-75.8279 1801.8044,-86.0352 1808.7895,-85.5778"/>
</g>
<!-- Node30 -->
<g id="node25" class="node">
<title>Node30</title>
<polygon fill="none" stroke="#bfbfbf" points="2309,-168.5 2309,-187.5 2359,-187.5 2359,-168.5 2309,-168.5"/>
<text text-anchor="middle" x="2334" y="-175.5" font-family="Helvetica,sans-Serif" font-size="10.00" fill="#000000">fstream</text>
</g>
<!-- Node25&#45;&gt;Node30 -->
<g id="edge45" class="edge">
<title>Node25&#45;&gt;Node30</title>
<path fill="none" stroke="#191970" d="M1853.5853,-229.8366C1950.8527,-219.3415 2204.9759,-191.9217 2298.6544,-181.8138"/>
<polygon fill="#191970" stroke="#191970" points="2299.1856,-185.2769 2308.7523,-180.7242 2298.4346,-178.3173 2299.1856,-185.2769"/>
</g>
<!-- Node31 -->
<g id="node26" class="node">
<title>Node31</title>
<polygon fill="none" stroke="#bfbfbf" points="1890.5,-168.5 1890.5,-187.5 1937.5,-187.5 1937.5,-168.5 1890.5,-168.5"/>
<text text-anchor="middle" x="1914" y="-175.5" font-family="Helvetica,sans-Serif" font-size="10.00" fill="#000000">iterator</text>
</g>
<!-- Node25&#45;&gt;Node31 -->
<g id="edge46" class="edge">
<title>Node25&#45;&gt;Node31</title>
<path fill="none" stroke="#191970" d="M1832.2445,-224.2455C1847.5761,-215.5731 1870.2199,-202.7645 1887.7916,-192.825"/>
<polygon fill="#191970" stroke="#191970" points="1889.9724,-195.6126 1896.9531,-187.6427 1886.5259,-189.5198 1889.9724,-195.6126"/>
</g>
<!-- Node34&#45;&gt;Node8 -->
<g id="edge50" class="edge">
<title>Node34&#45;&gt;Node8</title>
<path fill="none" stroke="#191970" d="M711.2983,-280.4016C701.0068,-257.855 679.5113,-200.9373 707,-168 734.379,-135.1941 862.2749,-125.7294 925.0545,-123.0419"/>
<polygon fill="#191970" stroke="#191970" points="925.4096,-126.5308 935.2643,-122.6404 925.1344,-119.5362 925.4096,-126.5308"/>
</g>
<!-- Node34&#45;&gt;Node14 -->
<g id="edge67" class="edge">
<title>Node34&#45;&gt;Node14</title>
<path fill="none" stroke="#191970" d="M766.5329,-280.4962C803.3906,-272.7669 854.1719,-260.4479 897,-244 914.8165,-237.1577 916.6925,-229.3927 935,-224 1108.7706,-172.8142 1160.9523,-207.9757 1341,-188 1353.3195,-186.6332 1366.7468,-184.9154 1378.7914,-183.291"/>
<polygon fill="#191970" stroke="#191970" points="1379.525,-186.7233 1388.9576,-181.8987 1378.5752,-179.788 1379.525,-186.7233"/>
</g>
<!-- Node34&#45;&gt;Node15 -->
<g id="edge68" class="edge">
<title>Node34&#45;&gt;Node15</title>
<path fill="none" stroke="#191970" d="M740.2388,-280.3733C763.2789,-271.2226 798.1214,-257.3844 823.7501,-247.2057"/>
<polygon fill="#191970" stroke="#191970" points="825.0756,-250.4452 833.0775,-243.5011 822.4918,-243.9395 825.0756,-250.4452"/>
</g>
<!-- Node34&#45;&gt;Node17 -->
<g id="edge51" class="edge">
<title>Node34&#45;&gt;Node17</title>
<path fill="none" stroke="#191970" d="M651.3241,-285.3784C561.1855,-278.2703 406.8692,-263.4166 390,-244 360.5123,-210.0594 409.8564,-162.379 440.4803,-137.8905"/>
<polygon fill="#191970" stroke="#191970" points="442.7904,-140.528 448.5403,-131.6292 438.496,-135 442.7904,-140.528"/>
</g>
<!-- Node35 -->
<g id="node28" class="node">
<title>Node35</title>
<g id="a_node28"><a xlink:href="gaussian_8hh.html" target="_top" xlink:title="stats/gaussian.hh">
<polygon fill="none" stroke="#ff0000" points="490,-168.5 490,-187.5 584,-187.5 584,-168.5 490,-168.5"/>
<text text-anchor="middle" x="537" y="-175.5" font-family="Helvetica,sans-Serif" font-size="10.00" fill="#000000">stats/gaussian.hh</text>
</a>
</g>
</g>
<!-- Node34&#45;&gt;Node35 -->
<g id="edge52" class="edge">
<title>Node34&#45;&gt;Node35</title>
<path fill="none" stroke="#191970" d="M704.8338,-280.2844C688.9067,-266.6995 658.4377,-241.7086 630,-224 610.3384,-211.7564 586.9651,-200.207 568.5692,-191.7433"/>
<polygon fill="#191970" stroke="#191970" points="570.0023,-188.5501 559.4491,-187.6113 567.1134,-194.9262 570.0023,-188.5501"/>
</g>
<!-- Node37 -->
<g id="node29" class="node">
<title>Node37</title>
<g id="a_node29"><a xlink:href="skew__normal_8hh.html" target="_top" xlink:title="stats/skew_normal.hh">
<polygon fill="none" stroke="#ff0000" points="508.5,-224.5 508.5,-243.5 621.5,-243.5 621.5,-224.5 508.5,-224.5"/>
<text text-anchor="middle" x="565" y="-231.5" font-family="Helvetica,sans-Serif" font-size="10.00" fill="#000000">stats/skew_normal.hh</text>
</a>
</g>
</g>
<!-- Node34&#45;&gt;Node37 -->
<g id="edge55" class="edge">
<title>Node34&#45;&gt;Node37</title>
<path fill="none" stroke="#191970" d="M690.0422,-280.3733C665.2593,-271.1822 627.7254,-257.2624 600.246,-247.0713"/>
<polygon fill="#191970" stroke="#191970" points="601.2121,-243.6968 590.6191,-243.5011 598.7781,-250.26 601.2121,-243.6968"/>
</g>
<!-- Node39 -->
<g id="node30" class="node">
<title>Node39</title>
<g id="a_node30"><a xlink:href="gram__charlier_8hh.html" target="_top" xlink:title="stats/gram_charlier.hh">
<polygon fill="none" stroke="#000000" points="206.5,-168.5 206.5,-187.5 319.5,-187.5 319.5,-168.5 206.5,-168.5"/>
<text text-anchor="middle" x="263" y="-175.5" font-family="Helvetica,sans-Serif" font-size="10.00" fill="#000000">stats/gram_charlier.hh</text>
</a>
</g>
</g>
<!-- Node34&#45;&gt;Node39 -->
<g id="edge59" class="edge">
<title>Node34&#45;&gt;Node39</title>
<path fill="none" stroke="#191970" d="M651.2168,-285.3559C544.9994,-277.3314 342.6829,-260.1731 314,-244 294.9612,-233.2649 280.644,-212.2452 272.099,-196.8003"/>
<polygon fill="#191970" stroke="#191970" points="275.0442,-194.8777 267.3257,-187.6199 268.8336,-198.1069 275.0442,-194.8777"/>
</g>
<!-- Node40 -->
<g id="node31" class="node">
<title>Node40</title>
<g id="a_node31"><a xlink:href="linalg_8hh.html" target="_top" xlink:title="linalg.hh">
<polygon fill="none" stroke="#ff0000" points="716.5,-224.5 716.5,-243.5 769.5,-243.5 769.5,-224.5 716.5,-224.5"/>
<text text-anchor="middle" x="743" y="-231.5" font-family="Helvetica,sans-Serif" font-size="10.00" fill="#000000">linalg.hh</text>
</a>
</g>
</g>
<!-- Node34&#45;&gt;Node40 -->
<g id="edge64" class="edge">
<title>Node34&#45;&gt;Node40</title>
<path fill="none" stroke="#191970" d="M720.703,-280.2455C724.3424,-272.6973 729.4924,-262.0158 733.9262,-252.8197"/>
<polygon fill="#191970" stroke="#191970" points="737.1605,-254.1704 738.3509,-243.6427 730.8551,-251.1303 737.1605,-254.1704"/>
</g>
<!-- Node35&#45;&gt;Node8 -->
<g id="edge53" class="edge">
<title>Node35&#45;&gt;Node8</title>
<path fill="none" stroke="#191970" d="M584.2625,-170.0793C588.9009,-169.3538 593.5396,-168.6488 598,-168 717.9613,-150.5511 860.8357,-133.4871 925.3498,-125.9811"/>
<polygon fill="#191970" stroke="#191970" points="925.8482,-129.4469 935.3783,-124.818 925.0417,-122.4935 925.8482,-129.4469"/>
</g>
<!-- Node35&#45;&gt;Node17 -->
<g id="edge54" class="edge">
<title>Node35&#45;&gt;Node17</title>
<path fill="none" stroke="#191970" d="M523.936,-168.2455C512.6438,-159.814 496.1155,-147.4729 482.9729,-137.6598"/>
<polygon fill="#191970" stroke="#191970" points="485.0211,-134.8211 474.9143,-131.6427 480.8331,-140.4301 485.0211,-134.8211"/>
</g>
<!-- Node37&#45;&gt;Node8 -->
<g id="edge56" class="edge">
<title>Node37&#45;&gt;Node8</title>
<path fill="none" stroke="#191970" d="M577.2646,-224.3651C596.6278,-209.6857 635.998,-181.9565 674,-168 760.7446,-136.1424 870.3101,-126.3188 925.2453,-123.3113"/>
<polygon fill="#191970" stroke="#191970" points="925.6696,-126.7944 935.481,-122.7961 925.3177,-119.8033 925.6696,-126.7944"/>
</g>
<!-- Node37&#45;&gt;Node17 -->
<g id="edge57" class="edge">
<title>Node37&#45;&gt;Node17</title>
<path fill="none" stroke="#191970" d="M535.4375,-224.4668C517.2856,-217.1816 494.9234,-205.3935 481,-188 470.4166,-174.7789 465.7283,-155.9125 463.6515,-141.7345"/>
<polygon fill="#191970" stroke="#191970" points="467.1019,-141.1017 462.4831,-131.5667 460.1476,-141.9009 467.1019,-141.1017"/>
</g>
<!-- Node37&#45;&gt;Node35 -->
<g id="edge58" class="edge">
<title>Node37&#45;&gt;Node35</title>
<path fill="none" stroke="#191970" d="M560.1228,-224.2455C556.3487,-216.6973 551.0079,-206.0158 546.4099,-196.8197"/>
<polygon fill="#191970" stroke="#191970" points="549.424,-195.0217 541.8213,-187.6427 543.163,-198.1522 549.424,-195.0217"/>
</g>
<!-- Node39&#45;&gt;Node4 -->
<g id="edge62" class="edge">
<title>Node39&#45;&gt;Node4</title>
<path fill="none" stroke="#191970" d="M281.8122,-168.4612C296.2493,-160.3695 315.8698,-147.6017 329,-132 355.3434,-100.698 372.3066,-55.1811 380.4037,-29.5111"/>
<polygon fill="#191970" stroke="#191970" points="383.7886,-30.4091 383.3326,-19.8241 377.0882,-28.3832 383.7886,-30.4091"/>
</g>
<!-- Node39&#45;&gt;Node8 -->
<g id="edge60" class="edge">
<title>Node39&#45;&gt;Node8</title>
<path fill="none" stroke="#191970" d="M319.7429,-173.441C458.7352,-162.2738 813.0463,-133.8069 925.3206,-124.7863"/>
<polygon fill="#191970" stroke="#191970" points="925.7273,-128.265 935.4149,-123.9753 925.1667,-121.2875 925.7273,-128.265"/>
</g>
<!-- Node39&#45;&gt;Node17 -->
<g id="edge61" class="edge">
<title>Node39&#45;&gt;Node17</title>
<path fill="none" stroke="#191970" d="M297.2093,-168.3733C333.1676,-158.2543 389.4944,-142.4036 426.0823,-132.1075"/>
<polygon fill="#191970" stroke="#191970" points="427.1672,-135.4382 435.8452,-129.3601 425.271,-128.6999 427.1672,-135.4382"/>
</g>
<!-- Node39&#45;&gt;Node18 -->
<g id="edge63" class="edge">
<title>Node39&#45;&gt;Node18</title>
<path fill="none" stroke="#191970" d="M263,-168.2455C263,-160.9382 263,-150.6944 263,-141.7046"/>
<polygon fill="#191970" stroke="#191970" points="266.5001,-141.6426 263,-131.6427 259.5001,-141.6427 266.5001,-141.6426"/>
</g>
<!-- Node40&#45;&gt;Node11 -->
<g id="edge65" class="edge">
<title>Node40&#45;&gt;Node11</title>
<path fill="none" stroke="#191970" d="M731.0474,-224.4314C716.0357,-211.2336 693.7563,-186.9291 707,-168 790.2621,-48.9944 872.5004,-88.7532 1014,-56 1155.0481,-23.3513 1327.1949,-13.8243 1406.3602,-11.0838"/>
<polygon fill="#191970" stroke="#191970" points="1406.5693,-14.579 1416.4497,-10.7543 1406.3408,-7.5827 1406.5693,-14.579"/>
</g>
<!-- Node42 -->
<g id="node32" class="node">
<title>Node42</title>
<polygon fill="none" stroke="#bfbfbf" points="716,-168.5 716,-187.5 772,-187.5 772,-168.5 716,-168.5"/>
<text text-anchor="middle" x="744" y="-175.5" font-family="Helvetica,sans-Serif" font-size="10.00" fill="#000000">config.hh</text>
</g>
<!-- Node40&#45;&gt;Node42 -->
<g id="edge66" class="edge">
<title>Node40&#45;&gt;Node42</title>
<path fill="none" stroke="#191970" d="M743.1742,-224.2455C743.3047,-216.9382 743.4876,-206.6944 743.6481,-197.7046"/>
<polygon fill="#191970" stroke="#191970" points="747.1486,-197.7036 743.8278,-187.6427 740.1497,-197.5786 747.1486,-197.7036"/>
</g>
<!-- Node44&#45;&gt;Node23 -->
<g id="edge70" class="edge">
<title>Node44&#45;&gt;Node23</title>
<path fill="none" stroke="#191970" d="M1827.2184,-289.5486C1899.471,-287.8912 2075.4364,-280.1497 2120,-244 2133.7326,-232.8602 2139.6083,-213.1594 2142.1219,-198.1731"/>
<polygon fill="#191970" stroke="#191970" points="2145.6452,-198.2195 2143.4631,-187.8519 2138.7036,-197.3174 2145.6452,-198.2195"/>
</g>
<!-- Node47&#45;&gt;Node14 -->
<g id="edge72" class="edge">
<title>Node47&#45;&gt;Node14</title>
<path fill="none" stroke="#191970" d="M1764.9398,-336.4775C1739.8255,-323.3332 1692.8334,-299.0904 1652,-280 1580.2378,-246.4499 1494.5494,-210.3946 1448.7348,-191.4328"/>
<polygon fill="#191970" stroke="#191970" points="1449.8939,-188.1248 1439.3151,-187.5426 1447.2219,-194.5948 1449.8939,-188.1248"/>
</g>
<!-- Node48&#45;&gt;Node6 -->
<g id="edge77" class="edge">
<title>Node48&#45;&gt;Node6</title>
<path fill="none" stroke="#191970" d="M1547.4044,-280.4369C1501.4215,-270.7925 1430.3912,-255.8948 1381.2394,-245.5858"/>
<polygon fill="#191970" stroke="#191970" points="1381.913,-242.151 1371.4075,-243.5237 1380.4761,-249.0019 1381.913,-242.151"/>
</g>
<!-- Node48&#45;&gt;Node8 -->
<g id="edge74" class="edge">
<title>Node48&#45;&gt;Node8</title>
<path fill="none" stroke="#191970" d="M1585.7351,-280.4417C1566.8233,-256.4 1513.2568,-193.5182 1452,-168 1369.1808,-133.4994 1093.2657,-124.6681 995.0689,-122.5914"/>
<polygon fill="#191970" stroke="#191970" points="994.8625,-119.0866 984.7943,-122.3853 994.7221,-126.0852 994.8625,-119.0866"/>
</g>
<!-- Node48&#45;&gt;Node14 -->
<g id="edge76" class="edge">
<title>Node48&#45;&gt;Node14</title>
<path fill="none" stroke="#191970" d="M1577.9091,-280.4509C1547.0813,-260.9441 1476.675,-216.3932 1439.6909,-192.9909"/>
<polygon fill="#191970" stroke="#191970" points="1441.3746,-189.9144 1431.0527,-187.5249 1437.6316,-195.8297 1441.3746,-189.9144"/>
</g>
<!-- Node48&#45;&gt;Node23 -->
<g id="edge75" class="edge">
<title>Node48&#45;&gt;Node23</title>
<path fill="none" stroke="#191970" d="M1643.7904,-286.2761C1765.7449,-277.1977 2066.4947,-253.9432 2086,-244 2106.708,-233.4437 2123.3129,-212.0714 2133.3626,-196.4987"/>
<polygon fill="#191970" stroke="#191970" points="2136.513,-198.0563 2138.751,-187.7005 2130.5435,-194.4003 2136.513,-198.0563"/>
</g>
<!-- Node49&#45;&gt;Node13 -->
<g id="edge81" class="edge">
<title>Node49&#45;&gt;Node13</title>
<path fill="none" stroke="#191970" d="M2003.8975,-224.1186C1991.4004,-210.7712 1967.9719,-186.5214 1946,-168 1906.4203,-134.6358 1856.5556,-100.4573 1827.6748,-81.3565"/>
<polygon fill="#191970" stroke="#191970" points="1829.3541,-78.272 1819.0749,-75.7049 1825.5097,-84.1218 1829.3541,-78.272"/>
</g>
<!-- Node49&#45;&gt;Node23 -->
<g id="edge79" class="edge">
<title>Node49&#45;&gt;Node23</title>
<path fill="none" stroke="#191970" d="M2035.5197,-224.3733C2057.2516,-215.0833 2090.285,-200.9621 2114.1893,-190.7435"/>
<polygon fill="#191970" stroke="#191970" points="2115.6771,-193.914 2123.4964,-186.7649 2112.9255,-187.4774 2115.6771,-193.914"/>
</g>
<!-- Node50 -->
<g id="node37" class="node">
<title>Node50</title>
<polygon fill="none" stroke="#bfbfbf" points="1994,-168.5 1994,-187.5 2048,-187.5 2048,-168.5 1994,-168.5"/>
<text text-anchor="middle" x="2021" y="-175.5" font-family="Helvetica,sans-Serif" font-size="10.00" fill="#000000">iostream</text>
</g>
<!-- Node49&#45;&gt;Node50 -->
<g id="edge80" class="edge">
<title>Node49&#45;&gt;Node50</title>
<path fill="none" stroke="#191970" d="M2014.3935,-224.2455C2015.4374,-216.9382 2016.9008,-206.6944 2018.1851,-197.7046"/>
<polygon fill="#191970" stroke="#191970" points="2021.673,-198.0372 2019.6225,-187.6427 2014.7434,-197.0472 2021.673,-198.0372"/>
</g>
<!-- Node51&#45;&gt;Node7 -->
<g id="edge83" class="edge">
<title>Node51&#45;&gt;Node7</title>
<path fill="none" stroke="#191970" d="M2471.9932,-225.1439C2468.957,-224.7075 2465.9384,-224.3191 2463,-224 1984.2156,-172.007 1859.7954,-229.6432 1380,-188 1367.6267,-186.9261 1354.1134,-185.1703 1342.2282,-183.4272"/>
<polygon fill="#191970" stroke="#191970" points="1342.6844,-179.9565 1332.2724,-181.9162 1341.6339,-186.8772 1342.6844,-179.9565"/>
</g>
<!-- Node51&#45;&gt;Node11 -->
<g id="edge84" class="edge">
<title>Node51&#45;&gt;Node11</title>
<path fill="none" stroke="#191970" d="M2506.3809,-224.2568C2471.3462,-192.8114 2354.9778,-93.8713 2238,-56 2167.1868,-33.0744 1649.0248,-15.9304 1493.8137,-11.2665"/>
<polygon fill="#191970" stroke="#191970" points="1493.7995,-7.7646 1483.6996,-10.9649 1493.5908,-14.7615 1493.7995,-7.7646"/>
</g>
<!-- Node51&#45;&gt;Node23 -->
<g id="edge86" class="edge">
<title>Node51&#45;&gt;Node23</title>
<path fill="none" stroke="#191970" d="M2471.9423,-225.517C2468.9183,-224.9906 2465.9164,-224.4801 2463,-224 2357.4471,-206.6233 2231.6406,-189.546 2174.6976,-182.0119"/>
<polygon fill="#191970" stroke="#191970" points="2174.9415,-178.5139 2164.5698,-180.6766 2174.0265,-185.4538 2174.9415,-178.5139"/>
</g>
<!-- Node51&#45;&gt;Node30 -->
<g id="edge85" class="edge">
<title>Node51&#45;&gt;Node30</title>
<path fill="none" stroke="#191970" d="M2485.5412,-224.3733C2453.1271,-214.4542 2402.7147,-199.0275 2369.0443,-188.7239"/>
<polygon fill="#191970" stroke="#191970" points="2369.7573,-185.282 2359.1708,-185.7026 2367.709,-191.9756 2369.7573,-185.282"/>
</g>
<!-- Node53 -->
<g id="node40" class="node">
<title>Node53</title>
<g id="a_node40"><a xlink:href="profile_8hh.html" target="_top" xlink:title="profile.hh">
<polygon fill="none" stroke="#000000" points="2732,-280.5 2732,-299.5 2788,-299.5 2788,-280.5 2732,-280.5"/>
<text text-anchor="middle" x="2760" y="-287.5" font-family="Helvetica,sans-Serif" font-size="10.00" fill="#000000">profile.hh</text>
</a>
</g>
</g>
<!-- Node52&#45;&gt;Node53 -->
<g id="edge89" class="edge">
<title>Node52&#45;&gt;Node53</title>
<path fill="none" stroke="#191970" d="M2715.4061,-336.2455C2723.1493,-328.2155 2734.312,-316.6394 2743.5318,-307.0781"/>
<polygon fill="#191970" stroke="#191970" points="2746.2798,-309.2706 2750.7017,-299.6427 2741.2409,-304.4117 2746.2798,-309.2706"/>
</g>
<!-- Node54&#45;&gt;Node16 -->
<g id="edge93" class="edge">
<title>Node54&#45;&gt;Node16</title>
<path fill="none" stroke="#191970" d="M2355.3374,-288.6381C2273.8122,-283.4729 1977.6908,-264.3518 1734,-244 1482.3051,-222.9798 1179.5894,-192.1413 1078.0893,-181.6494"/>
<polygon fill="#191970" stroke="#191970" points="1078.3878,-178.1617 1068.0805,-180.6132 1077.6669,-185.1244 1078.3878,-178.1617"/>
</g>
<!-- Node54&#45;&gt;Node17 -->
<g id="edge91" class="edge">
<title>Node54&#45;&gt;Node17</title>
<path fill="none" stroke="#191970" d="M2355.2041,-289.6178C2252.152,-287.6436 1816.71,-277.3706 1767,-244 1735.6452,-222.9513 1760.7591,-188.4337 1729,-168 1702.4183,-150.8974 702.9403,-127.4399 498.3571,-122.8115"/>
<polygon fill="#191970" stroke="#191970" points="498.2255,-119.3077 488.1491,-122.5813 498.0676,-126.306 498.2255,-119.3077"/>
</g>
<!-- Node55 -->
<g id="node42" class="node">
<title>Node55</title>
<polygon fill="none" stroke="#bfbfbf" points="2362.5,-224.5 2362.5,-243.5 2391.5,-243.5 2391.5,-224.5 2362.5,-224.5"/>
<text text-anchor="middle" x="2377" y="-231.5" font-family="Helvetica,sans-Serif" font-size="10.00" fill="#000000">ios</text>
</g>
<!-- Node54&#45;&gt;Node55 -->
<g id="edge92" class="edge">
<title>Node54&#45;&gt;Node55</title>
<path fill="none" stroke="#191970" d="M2377,-280.2455C2377,-272.9382 2377,-262.6944 2377,-253.7046"/>
<polygon fill="#191970" stroke="#191970" points="2380.5001,-253.6426 2377,-243.6427 2373.5001,-253.6427 2380.5001,-253.6426"/>
</g>
<!-- Node56 -->
<g id="node43" class="node">
<title>Node56</title>
<polygon fill="none" stroke="#bfbfbf" points="2410,-224.5 2410,-243.5 2454,-243.5 2454,-224.5 2410,-224.5"/>
<text text-anchor="middle" x="2432" y="-231.5" font-family="Helvetica,sans-Serif" font-size="10.00" fill="#000000">mutex</text>
</g>
<!-- Node54&#45;&gt;Node56 -->
<g id="edge94" class="edge">
<title>Node54&#45;&gt;Node56</title>
<path fill="none" stroke="#191970" d="M2386.5803,-280.2455C2394.5458,-272.1352 2406.0641,-260.4075 2415.5079,-250.7919"/>
<polygon fill="#191970" stroke="#191970" points="2418.0195,-253.2297 2422.5295,-243.6427 2413.0253,-248.3247 2418.0195,-253.2297"/>
</g>
<!-- Node57&#45;&gt;Node4 -->
<g id="edge97" class="edge">
<title>Node57&#45;&gt;Node4</title>
<path fill="none" stroke="#191970" d="M934.8396,-287.3386C818.6855,-279.6787 495.5458,-257.2798 477,-244 405.2866,-192.6492 390.0871,-76.2769 386.866,-29.7571"/>
<polygon fill="#191970" stroke="#191970" points="390.3456,-29.3 386.2781,-19.5171 383.3571,-29.7013 390.3456,-29.3"/>
</g>
<!-- Node57&#45;&gt;Node14 -->
<g id="edge98" class="edge">
<title>Node57&#45;&gt;Node14</title>
<path fill="none" stroke="#191970" d="M1006.5685,-280.4931C1050.3122,-267.0481 1133.3981,-242.1022 1205,-224 1265.6118,-208.6763 1336.7861,-193.7984 1379.0459,-185.2871"/>
<polygon fill="#191970" stroke="#191970" points="1379.7701,-188.7116 1388.8874,-183.3149 1378.3946,-181.8481 1379.7701,-188.7116"/>
</g>
<!-- Node57&#45;&gt;Node25 -->
<g id="edge99" class="edge">
<title>Node57&#45;&gt;Node25</title>
<path fill="none" stroke="#191970" d="M1017.1258,-281.3033C1020.1212,-280.8149 1023.1025,-280.3724 1026,-280 1304.3616,-244.226 1641.5848,-236.2524 1765.9144,-234.4924"/>
<polygon fill="#191970" stroke="#191970" points="1766.2841,-237.9878 1776.2362,-234.3538 1766.19,-230.9884 1766.2841,-237.9878"/>
</g>
<!-- Node57&#45;&gt;Node42 -->
<g id="edge100" class="edge">
<title>Node57&#45;&gt;Node42</title>
<path fill="none" stroke="#191970" d="M934.8178,-283.3996C901.489,-276.8407 854.1516,-264.7007 817,-244 794.0808,-231.2295 772.3907,-210.0315 758.7021,-195.1116"/>
<polygon fill="#191970" stroke="#191970" points="761.2337,-192.6918 751.9635,-187.5621 756.0114,-197.3532 761.2337,-192.6918"/>
</g>
<!-- Node59&#45;&gt;Node2 -->
<g id="edge107" class="edge">
<title>Node59&#45;&gt;Node2</title>
<path fill="none" stroke="#191970" d="M2010.6537,-343.7146C1927.4659,-339.7173 1795.3173,-328.8968 1756,-300 1722.1177,-275.0977 1707.2455,-225.2328 1701.3752,-197.5872"/>
<polygon fill="#191970" stroke="#191970" points="1704.7692,-196.7033 1699.4353,-187.5491 1697.8964,-198.0315 1704.7692,-196.7033"/>
</g>
<!-- Node59&#45;&gt;Node7 -->
<g id="edge108" class="edge">
<title>Node59&#45;&gt;Node7</title>
<path fill="none" stroke="#191970" d="M2010.8266,-342.6823C1847.6034,-334.7682 1451.8364,-314.3724 1393,-300 1332.6786,-285.2648 1298.9877,-295.9677 1265,-244 1253.7671,-226.8248 1270.5222,-207.2805 1286.4869,-193.9455"/>
<polygon fill="#191970" stroke="#191970" points="1288.8956,-196.5047 1294.6109,-187.5835 1284.5798,-190.9935 1288.8956,-196.5047"/>
</g>
<!-- Node59&#45;&gt;Node10 -->
<g id="edge103" class="edge">
<title>Node59&#45;&gt;Node10</title>
<path fill="none" stroke="#191970" d="M2151.255,-340.6592C2314.1853,-327.3322 2704,-289.6337 2704,-234 2704,-234 2704,-234 2704,-122 2704,-88.3717 2695.0038,-74.6186 2667,-56 2636.9723,-36.0359 2397.0192,-18.5715 2302.2788,-12.3866"/>
<polygon fill="#191970" stroke="#191970" points="2302.4599,-8.8911 2292.2551,-11.739 2302.0086,-15.8765 2302.4599,-8.8911"/>
</g>
<!-- Node59&#45;&gt;Node23 -->
<g id="edge106" class="edge">
<title>Node59&#45;&gt;Node23</title>
<path fill="none" stroke="#191970" d="M2089.0976,-336.3882C2103.0194,-319.1873 2131.0493,-281.4281 2142,-244 2146.4262,-228.8718 2146.6747,-210.9545 2145.9563,-197.6084"/>
<polygon fill="#191970" stroke="#191970" points="2149.4461,-197.3395 2145.196,-187.6345 2142.4663,-197.8717 2149.4461,-197.3395"/>
</g>
<!-- Node59&#45;&gt;Node30 -->
<g id="edge104" class="edge">
<title>Node59&#45;&gt;Node30</title>
<path fill="none" stroke="#191970" d="M2140.3122,-336.4531C2194.2716,-324.5037 2271.7451,-298.5438 2314,-244 2324.2987,-230.7062 2329.3169,-212.1328 2331.7489,-198.0747"/>
<polygon fill="#191970" stroke="#191970" points="2335.245,-198.3503 2333.1963,-187.9554 2328.3156,-197.3591 2335.245,-198.3503"/>
</g>
<!-- Node59&#45;&gt;Node31 -->
<g id="edge105" class="edge">
<title>Node59&#45;&gt;Node31</title>
<path fill="none" stroke="#191970" d="M2060.6997,-336.341C2030.2262,-320.8825 1972.6516,-287.8113 1939,-244 1928.5169,-230.3519 1922.0115,-211.813 1918.2747,-197.8581"/>
<polygon fill="#191970" stroke="#191970" points="1921.602,-196.7267 1915.8482,-187.8304 1914.7983,-198.3731 1921.602,-196.7267"/>
</g>
<!-- Node59&#45;&gt;Node54 -->
<g id="edge128" class="edge">
<title>Node59&#45;&gt;Node54</title>
<path fill="none" stroke="#191970" d="M2144.6514,-336.4851C2197.4996,-328.1677 2274.502,-315.0819 2341,-300 2342.4629,-299.6682 2343.9552,-299.3148 2345.4598,-298.9463"/>
<polygon fill="#191970" stroke="#191970" points="2346.5856,-302.27 2355.3833,-296.3665 2344.8243,-295.4952 2346.5856,-302.27"/>
</g>
<!-- Node60 -->
<g id="node47" class="node">
<title>Node60</title>
<g id="a_node47"><a xlink:href="distribution_8hh.html" target="_top" xlink:title="stats/distribution.hh">
<polygon fill="none" stroke="#ff0000" points="471,-280.5 471,-299.5 573,-299.5 573,-280.5 471,-280.5"/>
<text text-anchor="middle" x="522" y="-287.5" font-family="Helvetica,sans-Serif" font-size="10.00" fill="#000000">stats/distribution.hh</text>
</a>
</g>
</g>
<!-- Node59&#45;&gt;Node60 -->
<g id="edge109" class="edge">
<title>Node59&#45;&gt;Node60</title>
<path fill="none" stroke="#191970" d="M2010.9573,-343.1957C1957.9728,-341.1086 1883.4163,-338.2449 1818,-336 1295.3961,-318.0658 1164.0661,-329.723 642,-300 622.8041,-298.9071 601.9127,-297.3088 583.0216,-295.7093"/>
<polygon fill="#191970" stroke="#191970" points="583.3151,-292.2217 573.0514,-294.8497 582.7137,-299.1958 583.3151,-292.2217"/>
</g>
<!-- Node62 -->
<g id="node48" class="node">
<title>Node62</title>
<g id="a_node48"><a xlink:href="statistics_8hh.html" target="_top" xlink:title="stats/statistics.hh">
<polygon fill="none" stroke="#ff0000" points="2542.5,-56.5 2542.5,-75.5 2637.5,-75.5 2637.5,-56.5 2542.5,-56.5"/>
<text text-anchor="middle" x="2590" y="-63.5" font-family="Helvetica,sans-Serif" font-size="10.00" fill="#000000">stats/statistics.hh</text>
</a>
</g>
</g>
<!-- Node59&#45;&gt;Node62 -->
<g id="edge113" class="edge">
<title>Node59&#45;&gt;Node62</title>
<path fill="none" stroke="#191970" d="M2151.1554,-342.051C2273.876,-333.5069 2519.4097,-308.5803 2571,-244 2607.9318,-197.7691 2600.4387,-121.8471 2594.1726,-85.9701"/>
<polygon fill="#191970" stroke="#191970" points="2597.5481,-84.9859 2592.2391,-75.8172 2590.6717,-86.2955 2597.5481,-84.9859"/>
</g>
<!-- Node65 -->
<g id="node49" class="node">
<title>Node65</title>
<g id="a_node49"><a xlink:href="summary_8hh.html" target="_top" xlink:title="stats/summary.hh">
<polygon fill="none" stroke="#ff0000" points="2210.5,-224.5 2210.5,-243.5 2305.5,-243.5 2305.5,-224.5 2210.5,-224.5"/>
<text text-anchor="middle" x="2258" y="-231.5" font-family="Helvetica,sans-Serif" font-size="10.00" fill="#000000">stats/summary.hh</text>
</a>
</g>
</g>
<!-- Node59&#45;&gt;Node65 -->
<g id="edge115" class="edge">
<title>Node59&#45;&gt;Node65</title>
<path fill="none" stroke="#191970" d="M2115.8909,-336.4294C2139.7539,-328.8686 2171.3959,-316.7811 2196,-300 2215.3601,-286.7956 2233.1951,-266.5915 2244.7172,-252.016"/>
<polygon fill="#191970" stroke="#191970" points="2247.7244,-253.8461 2251.0327,-243.781 2242.1698,-249.5862 2247.7244,-253.8461"/>
</g>
<!-- Node67 -->
<g id="node50" class="node">
<title>Node67</title>
<g id="a_node50"><a xlink:href="waves_8hh.html" target="_top" xlink:title="stats/waves.hh">
<polygon fill="none" stroke="#ff0000" points="1402.5,-280.5 1402.5,-299.5 1485.5,-299.5 1485.5,-280.5 1402.5,-280.5"/>
<text text-anchor="middle" x="1444" y="-287.5" font-family="Helvetica,sans-Serif" font-size="10.00" fill="#000000">stats/waves.hh</text>
</a>
</g>
</g>
<!-- Node59&#45;&gt;Node67 -->
<g id="edge119" class="edge">
<title>Node59&#45;&gt;Node67</title>
<path fill="none" stroke="#191970" d="M2010.8734,-340.7485C1906.5917,-332.7953 1704.5058,-316.83 1533,-300 1520.9107,-298.8137 1507.9114,-297.4201 1495.6833,-296.0562"/>
<polygon fill="#191970" stroke="#191970" points="1495.9593,-292.5653 1485.6301,-294.9228 1495.175,-299.5212 1495.9593,-292.5653"/>
</g>
<!-- Node60&#45;&gt;Node35 -->
<g id="edge110" class="edge">
<title>Node60&#45;&gt;Node35</title>
<path fill="none" stroke="#191970" d="M514.2331,-280.1385C505.0482,-267.2181 491.8551,-243.8677 499,-224 502.9436,-213.0341 510.7597,-202.8227 518.2831,-194.8204"/>
<polygon fill="#191970" stroke="#191970" points="520.9193,-197.1354 525.5547,-187.6084 515.9899,-192.1653 520.9193,-197.1354"/>
</g>
<!-- Node60&#45;&gt;Node37 -->
<g id="edge112" class="edge">
<title>Node60&#45;&gt;Node37</title>
<path fill="none" stroke="#191970" d="M529.49,-280.2455C535.5326,-272.3761 544.1903,-261.101 551.4441,-251.6542"/>
<polygon fill="#191970" stroke="#191970" points="554.2815,-253.7058 557.5958,-243.6427 548.7295,-249.4426 554.2815,-253.7058"/>
</g>
<!-- Node60&#45;&gt;Node39 -->
<g id="edge111" class="edge">
<title>Node60&#45;&gt;Node39</title>
<path fill="none" stroke="#191970" d="M470.9919,-287.0726C407.1502,-282.325 302.8957,-270.6381 276,-244 263.9659,-232.0812 261.3947,-212.4841 261.4268,-197.734"/>
<polygon fill="#191970" stroke="#191970" points="264.9294,-197.7428 261.8452,-187.6068 257.9353,-197.4538 264.9294,-197.7428"/>
</g>
<!-- Node62&#45;&gt;Node11 -->
<g id="edge114" class="edge">
<title>Node62&#45;&gt;Node11</title>
<path fill="none" stroke="#191970" d="M2542.347,-57.7361C2537.5109,-57.0709 2532.6643,-56.474 2528,-56 2322.1963,-35.0848 1669.1161,-16.0194 1493.718,-11.1798"/>
<polygon fill="#191970" stroke="#191970" points="1493.667,-7.6772 1483.5746,-10.9011 1493.4747,-14.6745 1493.667,-7.6772"/>
</g>
<!-- Node65&#45;&gt;Node4 -->
<g id="edge116" class="edge">
<title>Node65&#45;&gt;Node4</title>
<path fill="none" stroke="#191970" d="M2248.0575,-224.4477C2232.9434,-210.3749 2202.7855,-184.0119 2173,-168 2036.2081,-94.4644 1994.8251,-83.6405 1842,-56 1697.6689,-29.8958 619.308,-13.3284 418.2326,-10.4494"/>
<polygon fill="#191970" stroke="#191970" points="418.0849,-6.9471 408.0361,-10.3044 417.9853,-13.9463 418.0849,-6.9471"/>
</g>
<!-- Node65&#45;&gt;Node11 -->
<g id="edge118" class="edge">
<title>Node65&#45;&gt;Node11</title>
<path fill="none" stroke="#191970" d="M2259.1033,-224.2931C2261.965,-193.7995 2266.1076,-99.3843 2214,-56 2186.2052,-32.8583 1652.9583,-15.8042 1494.2165,-11.2242"/>
<polygon fill="#191970" stroke="#191970" points="1493.9741,-7.7159 1483.8781,-10.9283 1493.7738,-14.7131 1493.9741,-7.7159"/>
</g>
<!-- Node65&#45;&gt;Node23 -->
<g id="edge117" class="edge">
<title>Node65&#45;&gt;Node23</title>
<path fill="none" stroke="#191970" d="M2238.4027,-224.3733C2220.2669,-215.4644 2193.0865,-202.1127 2172.5413,-192.0203"/>
<polygon fill="#191970" stroke="#191970" points="2173.8603,-188.7688 2163.3416,-187.5011 2170.7739,-195.0517 2173.8603,-188.7688"/>
</g>
<!-- Node67&#45;&gt;Node2 -->
<g id="edge127" class="edge">
<title>Node67&#45;&gt;Node2</title>
<path fill="none" stroke="#191970" d="M1463.0078,-280.399C1489.4438,-267.1636 1538.9234,-242.8156 1582,-224 1610.142,-211.7077 1642.6841,-198.9248 1666.1252,-189.9633"/>
<polygon fill="#191970" stroke="#191970" points="1667.4724,-193.1956 1675.5749,-186.3692 1664.9838,-186.6529 1667.4724,-193.1956"/>
</g>
<!-- Node67&#45;&gt;Node4 -->
<g id="edge124" class="edge">
<title>Node67&#45;&gt;Node4</title>
<path fill="none" stroke="#191970" d="M1402.355,-284.154C1355.8018,-276.8062 1284.3878,-262.8381 1265,-244 1243.1077,-222.7284 1246,-208.5246 1246,-178 1246,-178 1246,-178 1246,-122 1246,-36.9021 575.3119,-14.7591 418.5083,-10.745"/>
<polygon fill="#191970" stroke="#191970" points="418.2067,-7.2365 408.1228,-10.4867 418.0326,-14.2344 418.2067,-7.2365"/>
</g>
<!-- Node67&#45;&gt;Node5 -->
<g id="edge125" class="edge">
<title>Node67&#45;&gt;Node5</title>
<path fill="none" stroke="#191970" d="M1402.2364,-288.6187C1243.5585,-283.2691 678.034,-263.2547 499,-244 348.9107,-227.8583 311.4858,-220.1761 164,-188 162.5372,-187.6809 161.0458,-187.3406 159.542,-186.9854"/>
<polygon fill="#191970" stroke="#191970" points="160.1632,-183.5327 149.6116,-184.4893 158.4567,-190.3215 160.1632,-183.5327"/>
</g>
<!-- Node67&#45;&gt;Node7 -->
<g id="edge121" class="edge">
<title>Node67&#45;&gt;Node7</title>
<path fill="none" stroke="#191970" d="M1437.1114,-280.1625C1427.1636,-266.433 1407.6874,-241.2712 1387,-224 1372.1089,-211.568 1353.4518,-200.4336 1338.1186,-192.2342"/>
<polygon fill="#191970" stroke="#191970" points="1339.5509,-189.034 1329.0644,-187.5228 1336.3197,-195.2437 1339.5509,-189.034"/>
</g>
<!-- Node67&#45;&gt;Node10 -->
<g id="edge123" class="edge">
<title>Node67&#45;&gt;Node10</title>
<path fill="none" stroke="#191970" d="M1485.5938,-284.6537C1500.5207,-282.9133 1517.4931,-281.1384 1533,-280 1590.5465,-275.7755 2523.0638,-276.1179 2571,-244 2645.8725,-193.8344 2706.8075,-123.4205 2647,-56 2624.3463,-30.4627 2394.8263,-16.4244 2302.3289,-11.7675"/>
<polygon fill="#191970" stroke="#191970" points="2302.4251,-8.2681 2292.2647,-11.2708 2302.08,-15.2596 2302.4251,-8.2681"/>
</g>
<!-- Node67&#45;&gt;Node14 -->
<g id="edge122" class="edge">
<title>Node67&#45;&gt;Node14</title>
<path fill="none" stroke="#191970" d="M1441.6127,-280.4509C1437.0253,-262.1013 1426.8977,-221.5908 1420.8423,-197.3693"/>
<polygon fill="#191970" stroke="#191970" points="1424.2022,-196.3774 1418.3812,-187.5249 1417.4112,-198.0752 1424.2022,-196.3774"/>
</g>
<!-- Node67&#45;&gt;Node15 -->
<g id="edge120" class="edge">
<title>Node67&#45;&gt;Node15</title>
<path fill="none" stroke="#191970" d="M1402.3811,-286.769C1315.4572,-279.904 1108.3196,-262.9353 935,-244 923.0335,-242.6927 910.0572,-241.0996 898.1863,-239.5727"/>
<polygon fill="#191970" stroke="#191970" points="898.4605,-236.079 888.0919,-238.2568 897.5556,-243.0202 898.4605,-236.079"/>
</g>
<!-- Node67&#45;&gt;Node31 -->
<g id="edge126" class="edge">
<title>Node67&#45;&gt;Node31</title>
<path fill="none" stroke="#191970" d="M1485.6528,-285.2946C1500.5852,-283.6144 1517.5461,-281.7137 1533,-280 1606.0994,-271.8939 1797.6773,-279.6626 1862,-244 1881.2563,-233.3237 1895.8823,-212.2934 1904.6439,-196.83"/>
<polygon fill="#191970" stroke="#191970" points="1907.9289,-198.1079 1909.5445,-187.637 1901.7517,-194.815 1907.9289,-198.1079"/>
</g>
</g>
</svg>
