<?xml version="1.0" encoding="UTF-8" standalone="no"?>
<!DOCTYPE svg PUBLIC "-//W3C//DTD SVG 1.1//EN"
 "http://www.w3.org/Graphics/SVG/1.1/DTD/svg11.dtd">
<!-- Generated by graphviz version 2.36.0 (20140111.2315)
 -->
<!-- Title: /home/travis/build/igankevich/arma/src/generator/basic_arma_model.hh Pages: 1 -->
<svg width="2250pt" height="342pt"
 viewBox="0.00 0.00 2250.00 342.00" xmlns="http://www.w3.org/2000/svg" xmlns:xlink="http://www.w3.org/1999/xlink">
<g id="graph0" class="graph" transform="scale(1 1) rotate(0) translate(4 338)">
<title>/home/travis/build/igankevich/arma/src/generator/basic_arma_model.hh</title>
<!-- Node1 -->
<g id="node1" class="node"><title>Node1</title>
<polygon fill="#bfbfbf" stroke="black" points="1009.5,-281 1009.5,-333 1122.5,-333 1122.5,-281 1009.5,-281"/>
<text text-anchor="start" x="1017.5" y="-321" font-family="Helvetica,sans-Serif" font-size="10.00">/home/travis/build</text>
<text text-anchor="start" x="1017.5" y="-310" font-family="Helvetica,sans-Serif" font-size="10.00">/igankevich/arma/src</text>
<text text-anchor="start" x="1017.5" y="-299" font-family="Helvetica,sans-Serif" font-size="10.00">/generator/basic_arma</text>
<text text-anchor="middle" x="1066" y="-288" font-family="Helvetica,sans-Serif" font-size="10.00">_model.hh</text>
</g>
<!-- Node2 -->
<g id="node2" class="node"><title>Node2</title>
<g id="a_node2"><a xlink:href="basic__model_8hh.html" target="_top" xlink:title="basic_model.hh">
<polygon fill="none" stroke="black" points="684.5,-224.5 684.5,-243.5 769.5,-243.5 769.5,-224.5 684.5,-224.5"/>
<text text-anchor="middle" x="727" y="-231.5" font-family="Helvetica,sans-Serif" font-size="10.00">basic_model.hh</text>
</a>
</g>
</g>
<!-- Node1&#45;&gt;Node2 -->
<g id="edge1" class="edge"><title>Node1&#45;&gt;Node2</title>
<path fill="none" stroke="midnightblue" d="M1009.26,-294.116C944.625,-280.579 839.958,-258.658 777.874,-245.655"/>
<polygon fill="midnightblue" stroke="midnightblue" points="778.42,-242.194 767.915,-243.569 776.985,-249.045 778.42,-242.194"/>
</g>
<!-- Node28 -->
<g id="node28" class="node"><title>Node28</title>
<g id="a_node28"><a xlink:href="discrete__function_8hh.html" target="_top" xlink:title="discrete_function.hh">
<polygon fill="none" stroke="black" points="562,-224.5 562,-243.5 666,-243.5 666,-224.5 562,-224.5"/>
<text text-anchor="middle" x="614" y="-231.5" font-family="Helvetica,sans-Serif" font-size="10.00">discrete_function.hh</text>
</a>
</g>
</g>
<!-- Node1&#45;&gt;Node28 -->
<g id="edge35" class="edge"><title>Node1&#45;&gt;Node28</title>
<path fill="none" stroke="midnightblue" d="M1009.21,-297.08C924.14,-283.717 764.22,-258.596 676.131,-244.76"/>
<polygon fill="midnightblue" stroke="midnightblue" points="676.437,-241.265 666.015,-243.17 675.35,-248.18 676.437,-241.265"/>
</g>
<!-- Node29 -->
<g id="node29" class="node"><title>Node29</title>
<g id="a_node29"><a xlink:href="nit__transform_8hh.html" target="_top" xlink:title="nonlinear/nit_transform.hh">
<polygon fill="none" stroke="black" points="1369.5,-224.5 1369.5,-243.5 1498.5,-243.5 1498.5,-224.5 1369.5,-224.5"/>
<text text-anchor="middle" x="1434" y="-231.5" font-family="Helvetica,sans-Serif" font-size="10.00">nonlinear/nit_transform.hh</text>
</a>
</g>
</g>
<!-- Node1&#45;&gt;Node29 -->
<g id="edge38" class="edge"><title>Node1&#45;&gt;Node29</title>
<path fill="none" stroke="midnightblue" d="M1122.69,-295.062C1192.59,-281.576 1310.57,-258.813 1379.47,-245.522"/>
<polygon fill="midnightblue" stroke="midnightblue" points="1380.52,-248.883 1389.67,-243.552 1379.19,-242.01 1380.52,-248.883"/>
</g>
<!-- Node44 -->
<g id="node44" class="node"><title>Node44</title>
<g id="a_node44"><a xlink:href="params_8hh.html" target="_top" xlink:title="params.hh">
<polygon fill="none" stroke="black" points="1673,-224.5 1673,-243.5 1735,-243.5 1735,-224.5 1673,-224.5"/>
<text text-anchor="middle" x="1704" y="-231.5" font-family="Helvetica,sans-Serif" font-size="10.00">params.hh</text>
</a>
</g>
</g>
<!-- Node1&#45;&gt;Node44 -->
<g id="edge73" class="edge"><title>Node1&#45;&gt;Node44</title>
<path fill="none" stroke="midnightblue" d="M1122.62,-299.699C1249.06,-285.628 1551.98,-251.917 1662.63,-239.604"/>
<polygon fill="midnightblue" stroke="midnightblue" points="1663.18,-243.065 1672.73,-238.48 1662.4,-236.108 1663.18,-243.065"/>
</g>
<!-- Node3 -->
<g id="node3" class="node"><title>Node3</title>
<g id="a_node3"><a xlink:href="types_8hh.html" target="_top" xlink:title="types.hh">
<polygon fill="none" stroke="black" points="616,-168.5 616,-187.5 670,-187.5 670,-168.5 616,-168.5"/>
<text text-anchor="middle" x="643" y="-175.5" font-family="Helvetica,sans-Serif" font-size="10.00">types.hh</text>
</a>
</g>
</g>
<!-- Node2&#45;&gt;Node3 -->
<g id="edge2" class="edge"><title>Node2&#45;&gt;Node3</title>
<path fill="none" stroke="midnightblue" d="M713.504,-224.324C700.4,-215.9 680.288,-202.971 664.893,-193.074"/>
<polygon fill="midnightblue" stroke="midnightblue" points="666.767,-190.118 656.463,-187.655 662.982,-196.006 666.767,-190.118"/>
</g>
<!-- Node5 -->
<g id="node5" class="node"><title>Node5</title>
<g id="a_node5"><a xlink:href="grid_8hh.html" target="_top" xlink:title="grid.hh">
<polygon fill="none" stroke="black" points="514,-168.5 514,-187.5 560,-187.5 560,-168.5 514,-168.5"/>
<text text-anchor="middle" x="537" y="-175.5" font-family="Helvetica,sans-Serif" font-size="10.00">grid.hh</text>
</a>
</g>
</g>
<!-- Node2&#45;&gt;Node5 -->
<g id="edge4" class="edge"><title>Node2&#45;&gt;Node5</title>
<path fill="none" stroke="midnightblue" d="M696.894,-224.444C662.323,-214.618 605.789,-198.551 570.033,-188.388"/>
<polygon fill="midnightblue" stroke="midnightblue" points="570.668,-184.93 560.092,-185.563 568.754,-191.664 570.668,-184.93"/>
</g>
<!-- Node7 -->
<g id="node7" class="node"><title>Node7</title>
<polygon fill="none" stroke="#bfbfbf" points="912.5,-56.5 912.5,-75.5 961.5,-75.5 961.5,-56.5 912.5,-56.5"/>
<text text-anchor="middle" x="937" y="-63.5" font-family="Helvetica,sans-Serif" font-size="10.00">istream</text>
</g>
<!-- Node2&#45;&gt;Node7 -->
<g id="edge33" class="edge"><title>Node2&#45;&gt;Node7</title>
<path fill="none" stroke="midnightblue" d="M720.644,-224.237C705.769,-202.575 671.997,-145.82 700,-112 706.452,-104.208 838.206,-82.5385 902.417,-72.3823"/>
<polygon fill="midnightblue" stroke="midnightblue" points="903.146,-75.8108 912.48,-70.7976 902.057,-68.896 903.146,-75.8108"/>
</g>
<!-- Node13 -->
<g id="node13" class="node"><title>Node13</title>
<g id="a_node13"><a xlink:href="output__flags_8hh.html" target="_top" xlink:title="output_flags.hh">
<polygon fill="none" stroke="black" points="772.5,-168.5 772.5,-187.5 855.5,-187.5 855.5,-168.5 772.5,-168.5"/>
<text text-anchor="middle" x="814" y="-175.5" font-family="Helvetica,sans-Serif" font-size="10.00">output_flags.hh</text>
</a>
</g>
</g>
<!-- Node2&#45;&gt;Node13 -->
<g id="edge14" class="edge"><title>Node2&#45;&gt;Node13</title>
<path fill="none" stroke="midnightblue" d="M740.978,-224.324C754.55,-215.9 775.38,-202.971 791.325,-193.074"/>
<polygon fill="midnightblue" stroke="midnightblue" points="793.406,-195.902 800.057,-187.655 789.714,-189.954 793.406,-195.902"/>
</g>
<!-- Node14 -->
<g id="node14" class="node"><title>Node14</title>
<polygon fill="none" stroke="#bfbfbf" points="1448,-56.5 1448,-75.5 1500,-75.5 1500,-56.5 1448,-56.5"/>
<text text-anchor="middle" x="1474" y="-63.5" font-family="Helvetica,sans-Serif" font-size="10.00">ostream</text>
</g>
<!-- Node2&#45;&gt;Node14 -->
<g id="edge34" class="edge"><title>Node2&#45;&gt;Node14</title>
<path fill="none" stroke="midnightblue" d="M769.74,-232.805C848.568,-231.52 1021.62,-224.372 1162,-188 1223.29,-172.118 1234.85,-157.068 1293,-132 1313.47,-123.174 1318.18,-119.977 1339,-112 1372.28,-99.2452 1410.93,-86.5737 1438.33,-77.943"/>
<polygon fill="midnightblue" stroke="midnightblue" points="1439.38,-81.2805 1447.88,-74.9534 1437.29,-74.6001 1439.38,-81.2805"/>
</g>
<!-- Node18 -->
<g id="node18" class="node"><title>Node18</title>
<g id="a_node18"><a xlink:href="parallel__mt_8hh.html" target="_top" xlink:title="parallel_mt.hh">
<polygon fill="none" stroke="black" points="409.5,-112.5 409.5,-131.5 486.5,-131.5 486.5,-112.5 409.5,-112.5"/>
<text text-anchor="middle" x="448" y="-119.5" font-family="Helvetica,sans-Serif" font-size="10.00">parallel_mt.hh</text>
</a>
</g>
</g>
<!-- Node2&#45;&gt;Node18 -->
<g id="edge20" class="edge"><title>Node2&#45;&gt;Node18</title>
<path fill="none" stroke="midnightblue" d="M701.342,-224.43C676.786,-215.982 638.873,-202.296 607,-188 589.586,-180.189 586.424,-175.787 569,-168 540.764,-155.382 507.812,-143.292 483.432,-134.827"/>
<polygon fill="midnightblue" stroke="midnightblue" points="484.473,-131.484 473.878,-131.543 482.197,-138.104 484.473,-131.484"/>
</g>
<!-- Node4 -->
<g id="node4" class="node"><title>Node4</title>
<polygon fill="none" stroke="#bfbfbf" points="829,-0.5 829,-19.5 897,-19.5 897,-0.5 829,-0.5"/>
<text text-anchor="middle" x="863" y="-7.5" font-family="Helvetica,sans-Serif" font-size="10.00">blitz/array.h</text>
</g>
<!-- Node3&#45;&gt;Node4 -->
<g id="edge3" class="edge"><title>Node3&#45;&gt;Node4</title>
<path fill="none" stroke="midnightblue" d="M646.38,-168.291C652.337,-154.146 666.089,-126.323 687,-112 746.062,-71.5446 791.909,-125.106 844,-76 856.556,-64.1638 860.96,-44.5351 862.432,-29.9391"/>
<polygon fill="midnightblue" stroke="midnightblue" points="865.95,-29.7571 863.084,-19.5574 858.964,-29.3183 865.95,-29.7571"/>
</g>
<!-- Node5&#45;&gt;Node4 -->
<g id="edge7" class="edge"><title>Node5&#45;&gt;Node4</title>
<path fill="none" stroke="midnightblue" d="M513.927,-177.358C413.686,-178.228 25.943,-174.154 137,-56 160.435,-31.067 664.72,-16.0936 818.728,-12.0899"/>
<polygon fill="midnightblue" stroke="midnightblue" points="818.873,-15.5874 828.779,-11.8313 818.693,-8.58973 818.873,-15.5874"/>
</g>
<!-- Node6 -->
<g id="node6" class="node"><title>Node6</title>
<polygon fill="none" stroke="#bfbfbf" points="0,-112.5 0,-131.5 52,-131.5 52,-112.5 0,-112.5"/>
<text text-anchor="middle" x="26" y="-119.5" font-family="Helvetica,sans-Serif" font-size="10.00">stddef.h</text>
</g>
<!-- Node5&#45;&gt;Node6 -->
<g id="edge5" class="edge"><title>Node5&#45;&gt;Node6</title>
<path fill="none" stroke="midnightblue" d="M513.835,-175.824C445.149,-172.114 236.75,-159.255 66,-132 64.7348,-131.798 63.4497,-131.58 62.1539,-131.349"/>
<polygon fill="midnightblue" stroke="midnightblue" points="62.6463,-127.879 52.1586,-129.382 61.2945,-134.747 62.6463,-127.879"/>
</g>
<!-- Node5&#45;&gt;Node7 -->
<g id="edge6" class="edge"><title>Node5&#45;&gt;Node7</title>
<path fill="none" stroke="midnightblue" d="M550.833,-168.334C573.965,-154.25 622.366,-126.514 667,-112 710.148,-97.969 839.15,-79.8325 901.921,-71.5218"/>
<polygon fill="midnightblue" stroke="midnightblue" points="902.662,-74.9546 912.12,-70.1808 901.749,-68.0143 902.662,-74.9546"/>
</g>
<!-- Node8 -->
<g id="node8" class="node"><title>Node8</title>
<g id="a_node8"><a xlink:href="validators_8hh.html" target="_top" xlink:title="validators.hh">
<polygon fill="none" stroke="black" points="505,-112.5 505,-131.5 577,-131.5 577,-112.5 505,-112.5"/>
<text text-anchor="middle" x="541" y="-119.5" font-family="Helvetica,sans-Serif" font-size="10.00">validators.hh</text>
</a>
</g>
</g>
<!-- Node5&#45;&gt;Node8 -->
<g id="edge8" class="edge"><title>Node5&#45;&gt;Node8</title>
<path fill="none" stroke="midnightblue" d="M537.661,-168.083C538.185,-161.006 538.936,-150.861 539.594,-141.986"/>
<polygon fill="midnightblue" stroke="midnightblue" points="543.103,-141.982 540.352,-131.751 536.123,-141.465 543.103,-141.982"/>
</g>
<!-- Node9 -->
<g id="node9" class="node"><title>Node9</title>
<polygon fill="none" stroke="#bfbfbf" points="709.5,-56.5 709.5,-75.5 768.5,-75.5 768.5,-56.5 709.5,-56.5"/>
<text text-anchor="middle" x="739" y="-63.5" font-family="Helvetica,sans-Serif" font-size="10.00">stdexcept</text>
</g>
<!-- Node8&#45;&gt;Node9 -->
<g id="edge9" class="edge"><title>Node8&#45;&gt;Node9</title>
<path fill="none" stroke="midnightblue" d="M572.374,-112.444C606.761,-103.065 662,-88.0001 699.359,-77.8112"/>
<polygon fill="midnightblue" stroke="midnightblue" points="700.663,-81.0834 709.39,-75.0755 698.821,-74.33 700.663,-81.0834"/>
</g>
<!-- Node10 -->
<g id="node10" class="node"><title>Node10</title>
<g id="a_node10"><a xlink:href="blitz_8hh.html" target="_top" xlink:title="blitz.hh">
<polygon fill="none" stroke="black" points="787,-56.5 787,-75.5 835,-75.5 835,-56.5 787,-56.5"/>
<text text-anchor="middle" x="811" y="-63.5" font-family="Helvetica,sans-Serif" font-size="10.00">blitz.hh</text>
</a>
</g>
</g>
<!-- Node8&#45;&gt;Node10 -->
<g id="edge10" class="edge"><title>Node8&#45;&gt;Node10</title>
<path fill="none" stroke="midnightblue" d="M577.165,-114.427C633.46,-104.139 739.48,-84.5319 777,-76 777.1,-75.9772 777.201,-75.9542 777.302,-75.9312"/>
<polygon fill="midnightblue" stroke="midnightblue" points="778.012,-79.3604 786.906,-73.602 776.363,-72.5576 778.012,-79.3604"/>
</g>
<!-- Node10&#45;&gt;Node4 -->
<g id="edge13" class="edge"><title>Node10&#45;&gt;Node4</title>
<path fill="none" stroke="midnightblue" d="M819.587,-56.083C827.159,-48.2195 838.378,-36.5688 847.514,-27.0813"/>
<polygon fill="midnightblue" stroke="midnightblue" points="850.158,-29.3821 854.573,-19.7511 845.115,-24.5266 850.158,-29.3821"/>
</g>
<!-- Node11 -->
<g id="node11" class="node"><title>Node11</title>
<polygon fill="none" stroke="#bfbfbf" points="1850,-0.5 1850,-19.5 1894,-19.5 1894,-0.5 1850,-0.5"/>
<text text-anchor="middle" x="1872" y="-7.5" font-family="Helvetica,sans-Serif" font-size="10.00">cmath</text>
</g>
<!-- Node10&#45;&gt;Node11 -->
<g id="edge11" class="edge"><title>Node10&#45;&gt;Node11</title>
<path fill="none" stroke="midnightblue" d="M835.184,-62.2935C853.722,-60.3015 879.95,-57.6616 903,-56 1270.28,-29.5246 1717.05,-15.4474 1839.59,-11.9034"/>
<polygon fill="midnightblue" stroke="midnightblue" points="1839.9,-15.3963 1849.79,-11.6113 1839.7,-8.39914 1839.9,-15.3963"/>
</g>
<!-- Node12 -->
<g id="node12" class="node"><title>Node12</title>
<polygon fill="none" stroke="#bfbfbf" points="423,-0.5 423,-19.5 479,-19.5 479,-0.5 423,-0.5"/>
<text text-anchor="middle" x="451" y="-7.5" font-family="Helvetica,sans-Serif" font-size="10.00">algorithm</text>
</g>
<!-- Node10&#45;&gt;Node12 -->
<g id="edge12" class="edge"><title>Node10&#45;&gt;Node12</title>
<path fill="none" stroke="midnightblue" d="M786.939,-58.2437C783.615,-57.4239 780.233,-56.6485 777,-56 673.739,-35.286 550.159,-21.0707 489.062,-14.7352"/>
<polygon fill="midnightblue" stroke="midnightblue" points="489.406,-11.2522 479.101,-13.715 488.693,-18.2158 489.406,-11.2522"/>
</g>
<!-- Node13&#45;&gt;Node7 -->
<g id="edge15" class="edge"><title>Node13&#45;&gt;Node7</title>
<path fill="none" stroke="midnightblue" d="M822.771,-168.41C835.724,-155.801 860.83,-131.648 883,-112 894.416,-101.883 907.559,-90.9166 918.019,-82.343"/>
<polygon fill="midnightblue" stroke="midnightblue" points="920.538,-84.8054 926.079,-75.7749 916.116,-79.3791 920.538,-84.8054"/>
</g>
<!-- Node13&#45;&gt;Node14 -->
<g id="edge16" class="edge"><title>Node13&#45;&gt;Node14</title>
<path fill="none" stroke="midnightblue" d="M836.964,-168.498C876.03,-154.396 958.18,-126.309 1030,-112 1179.5,-82.2155 1361.46,-71.6327 1437.68,-68.3294"/>
<polygon fill="midnightblue" stroke="midnightblue" points="1437.87,-71.8245 1447.72,-67.9104 1437.58,-64.8306 1437.87,-71.8245"/>
</g>
<!-- Node15 -->
<g id="node15" class="node"><title>Node15</title>
<polygon fill="none" stroke="#bfbfbf" points="709.5,-112.5 709.5,-131.5 750.5,-131.5 750.5,-112.5 709.5,-112.5"/>
<text text-anchor="middle" x="730" y="-119.5" font-family="Helvetica,sans-Serif" font-size="10.00">bitset</text>
</g>
<!-- Node13&#45;&gt;Node15 -->
<g id="edge17" class="edge"><title>Node13&#45;&gt;Node15</title>
<path fill="none" stroke="midnightblue" d="M800.504,-168.324C787.4,-159.9 767.288,-146.971 751.893,-137.074"/>
<polygon fill="midnightblue" stroke="midnightblue" points="753.767,-134.118 743.463,-131.655 749.982,-140.006 753.767,-134.118"/>
</g>
<!-- Node16 -->
<g id="node16" class="node"><title>Node16</title>
<polygon fill="none" stroke="#bfbfbf" points="769,-112.5 769,-131.5 831,-131.5 831,-112.5 769,-112.5"/>
<text text-anchor="middle" x="800" y="-119.5" font-family="Helvetica,sans-Serif" font-size="10.00">type_traits</text>
</g>
<!-- Node13&#45;&gt;Node16 -->
<g id="edge18" class="edge"><title>Node13&#45;&gt;Node16</title>
<path fill="none" stroke="midnightblue" d="M811.688,-168.083C809.833,-160.927 807.165,-150.635 804.846,-141.691"/>
<polygon fill="midnightblue" stroke="midnightblue" points="808.166,-140.553 802.269,-131.751 801.391,-142.309 808.166,-140.553"/>
</g>
<!-- Node17 -->
<g id="node17" class="node"><title>Node17</title>
<polygon fill="none" stroke="#bfbfbf" points="1039.5,-112.5 1039.5,-131.5 1080.5,-131.5 1080.5,-112.5 1039.5,-112.5"/>
<text text-anchor="middle" x="1060" y="-119.5" font-family="Helvetica,sans-Serif" font-size="10.00">string</text>
</g>
<!-- Node13&#45;&gt;Node17 -->
<g id="edge19" class="edge"><title>Node13&#45;&gt;Node17</title>
<path fill="none" stroke="midnightblue" d="M852.979,-168.444C901.895,-157.706 984.77,-139.514 1029.38,-129.721"/>
<polygon fill="midnightblue" stroke="midnightblue" points="1030.32,-133.098 1039.34,-127.535 1028.82,-126.261 1030.32,-133.098"/>
</g>
<!-- Node18&#45;&gt;Node7 -->
<g id="edge25" class="edge"><title>Node18&#45;&gt;Node7</title>
<path fill="none" stroke="midnightblue" d="M486.726,-113.451C489.859,-112.928 492.979,-112.437 496,-112 535.829,-106.244 804.958,-79.8547 902.111,-70.3902"/>
<polygon fill="midnightblue" stroke="midnightblue" points="902.677,-73.8518 912.291,-69.3992 901.998,-66.8847 902.677,-73.8518"/>
</g>
<!-- Node18&#45;&gt;Node9 -->
<g id="edge27" class="edge"><title>Node18&#45;&gt;Node9</title>
<path fill="none" stroke="midnightblue" d="M486.506,-113.743C489.717,-113.149 492.914,-112.562 496,-112 583.484,-96.0797 608.116,-94.4545 699.289,-76.0572"/>
<polygon fill="midnightblue" stroke="midnightblue" points="700.121,-79.4597 709.224,-74.0396 698.728,-72.5998 700.121,-79.4597"/>
</g>
<!-- Node18&#45;&gt;Node12 -->
<g id="edge22" class="edge"><title>Node18&#45;&gt;Node12</title>
<path fill="none" stroke="midnightblue" d="M409.371,-121.403C334.039,-121.275 171.815,-116.215 137,-76 131.182,-69.2796 131.177,-62.7164 137,-56 172.314,-15.2642 337.28,-10.5166 412.924,-10.5368"/>
<polygon fill="midnightblue" stroke="midnightblue" points="412.971,-14.0368 422.982,-10.568 412.993,-7.03685 412.971,-14.0368"/>
</g>
<!-- Node19 -->
<g id="node19" class="node"><title>Node19</title>
<polygon fill="none" stroke="#bfbfbf" points="329.5,-56.5 329.5,-75.5 374.5,-75.5 374.5,-56.5 329.5,-56.5"/>
<text text-anchor="middle" x="352" y="-63.5" font-family="Helvetica,sans-Serif" font-size="10.00">cstdlib</text>
</g>
<!-- Node18&#45;&gt;Node19 -->
<g id="edge21" class="edge"><title>Node18&#45;&gt;Node19</title>
<path fill="none" stroke="midnightblue" d="M432.576,-112.324C417.46,-103.822 394.185,-90.7288 376.529,-80.7975"/>
<polygon fill="midnightblue" stroke="midnightblue" points="377.817,-77.5066 367.386,-75.6545 374.386,-83.6077 377.817,-77.5066"/>
</g>
<!-- Node20 -->
<g id="node20" class="node"><title>Node20</title>
<polygon fill="none" stroke="#bfbfbf" points="393,-56.5 393,-75.5 439,-75.5 439,-56.5 393,-56.5"/>
<text text-anchor="middle" x="416" y="-63.5" font-family="Helvetica,sans-Serif" font-size="10.00">cstdint</text>
</g>
<!-- Node18&#45;&gt;Node20 -->
<g id="edge23" class="edge"><title>Node18&#45;&gt;Node20</title>
<path fill="none" stroke="midnightblue" d="M442.716,-112.083C438.289,-104.613 431.837,-93.7244 426.382,-84.5199"/>
<polygon fill="midnightblue" stroke="midnightblue" points="429.295,-82.5697 421.186,-75.7511 423.273,-86.1383 429.295,-82.5697"/>
</g>
<!-- Node21 -->
<g id="node21" class="node"><title>Node21</title>
<polygon fill="none" stroke="#bfbfbf" points="457,-56.5 457,-75.5 503,-75.5 503,-56.5 457,-56.5"/>
<text text-anchor="middle" x="480" y="-63.5" font-family="Helvetica,sans-Serif" font-size="10.00">cstring</text>
</g>
<!-- Node18&#45;&gt;Node21 -->
<g id="edge24" class="edge"><title>Node18&#45;&gt;Node21</title>
<path fill="none" stroke="midnightblue" d="M453.284,-112.083C457.711,-104.613 464.163,-93.7244 469.618,-84.5199"/>
<polygon fill="midnightblue" stroke="midnightblue" points="472.727,-86.1383 474.814,-75.7511 466.705,-82.5697 472.727,-86.1383"/>
</g>
<!-- Node22 -->
<g id="node22" class="node"><title>Node22</title>
<polygon fill="none" stroke="#bfbfbf" points="521,-56.5 521,-75.5 561,-75.5 561,-56.5 521,-56.5"/>
<text text-anchor="middle" x="541" y="-63.5" font-family="Helvetica,sans-Serif" font-size="10.00">limits</text>
</g>
<!-- Node18&#45;&gt;Node22 -->
<g id="edge26" class="edge"><title>Node18&#45;&gt;Node22</title>
<path fill="none" stroke="midnightblue" d="M462.942,-112.324C477.585,-103.822 500.134,-90.7288 517.238,-80.7975"/>
<polygon fill="midnightblue" stroke="midnightblue" points="519.205,-83.7027 526.095,-75.6545 515.69,-77.6491 519.205,-83.7027"/>
</g>
<!-- Node23 -->
<g id="node23" class="node"><title>Node23</title>
<polygon fill="none" stroke="#bfbfbf" points="579,-56.5 579,-75.5 623,-75.5 623,-56.5 579,-56.5"/>
<text text-anchor="middle" x="601" y="-63.5" font-family="Helvetica,sans-Serif" font-size="10.00">vector</text>
</g>
<!-- Node18&#45;&gt;Node23 -->
<g id="edge28" class="edge"><title>Node18&#45;&gt;Node23</title>
<path fill="none" stroke="midnightblue" d="M472.243,-112.444C498.474,-103.186 540.405,-88.3866 569.248,-78.2066"/>
<polygon fill="midnightblue" stroke="midnightblue" points="570.592,-81.4438 578.857,-74.8151 568.262,-74.8429 570.592,-81.4438"/>
</g>
<!-- Node24 -->
<g id="node24" class="node"><title>Node24</title>
<polygon fill="none" stroke="#bfbfbf" points="641,-56.5 641,-75.5 691,-75.5 691,-56.5 641,-56.5"/>
<text text-anchor="middle" x="666" y="-63.5" font-family="Helvetica,sans-Serif" font-size="10.00">fstream</text>
</g>
<!-- Node18&#45;&gt;Node24 -->
<g id="edge29" class="edge"><title>Node18&#45;&gt;Node24</title>
<path fill="none" stroke="midnightblue" d="M483.11,-112.483C519.97,-103.514 579.599,-88.9281 631,-76 631.099,-75.9751 631.198,-75.9502 631.297,-75.9253"/>
<polygon fill="midnightblue" stroke="midnightblue" points="631.941,-79.3729 640.773,-73.5208 630.219,-72.5879 631.941,-79.3729"/>
</g>
<!-- Node25 -->
<g id="node25" class="node"><title>Node25</title>
<polygon fill="none" stroke="#bfbfbf" points="146.5,-56.5 146.5,-75.5 193.5,-75.5 193.5,-56.5 146.5,-56.5"/>
<text text-anchor="middle" x="170" y="-63.5" font-family="Helvetica,sans-Serif" font-size="10.00">iterator</text>
</g>
<!-- Node18&#45;&gt;Node25 -->
<g id="edge30" class="edge"><title>Node18&#45;&gt;Node25</title>
<path fill="none" stroke="midnightblue" d="M409.179,-114.912C362.683,-107.391 282.257,-93.6574 203.787,-76.0153"/>
<polygon fill="midnightblue" stroke="midnightblue" points="204.26,-72.5335 193.733,-73.7304 202.708,-79.3594 204.26,-72.5335"/>
</g>
<!-- Node26 -->
<g id="node26" class="node"><title>Node26</title>
<polygon fill="none" stroke="#bfbfbf" points="212,-56.5 212,-75.5 258,-75.5 258,-56.5 212,-56.5"/>
<text text-anchor="middle" x="235" y="-63.5" font-family="Helvetica,sans-Serif" font-size="10.00">chrono</text>
</g>
<!-- Node18&#45;&gt;Node26 -->
<g id="edge31" class="edge"><title>Node18&#45;&gt;Node26</title>
<path fill="none" stroke="midnightblue" d="M412.201,-112.441C377.628,-104.099 323.559,-90.8551 267.749,-76.1409"/>
<polygon fill="midnightblue" stroke="midnightblue" points="268.612,-72.7488 258.049,-73.5731 266.82,-79.5157 268.612,-72.7488"/>
</g>
<!-- Node27 -->
<g id="node27" class="node"><title>Node27</title>
<polygon fill="none" stroke="#bfbfbf" points="276.5,-56.5 276.5,-75.5 311.5,-75.5 311.5,-56.5 276.5,-56.5"/>
<text text-anchor="middle" x="294" y="-63.5" font-family="Helvetica,sans-Serif" font-size="10.00">dc.h</text>
</g>
<!-- Node18&#45;&gt;Node27 -->
<g id="edge32" class="edge"><title>Node18&#45;&gt;Node27</title>
<path fill="none" stroke="midnightblue" d="M423.598,-112.444C395.679,-102.654 350.088,-86.6672 321.09,-76.4991"/>
<polygon fill="midnightblue" stroke="midnightblue" points="322.176,-73.1711 311.581,-73.1649 319.86,-79.7768 322.176,-73.1711"/>
</g>
<!-- Node28&#45;&gt;Node3 -->
<g id="edge36" class="edge"><title>Node28&#45;&gt;Node3</title>
<path fill="none" stroke="midnightblue" d="M618.789,-224.083C622.758,-216.691 628.525,-205.953 633.435,-196.811"/>
<polygon fill="midnightblue" stroke="midnightblue" points="636.653,-198.217 638.3,-187.751 630.486,-194.905 636.653,-198.217"/>
</g>
<!-- Node28&#45;&gt;Node5 -->
<g id="edge37" class="edge"><title>Node28&#45;&gt;Node5</title>
<path fill="none" stroke="midnightblue" d="M601.629,-224.324C589.842,-216.058 571.868,-203.453 557.864,-193.632"/>
<polygon fill="midnightblue" stroke="midnightblue" points="559.538,-190.531 549.341,-187.655 555.518,-196.262 559.538,-190.531"/>
</g>
<!-- Node29&#45;&gt;Node3 -->
<g id="edge65" class="edge"><title>Node29&#45;&gt;Node3</title>
<path fill="none" stroke="midnightblue" d="M1369.21,-228.826C1249.47,-221.073 985.441,-203.8 763,-188 735.226,-186.027 703.846,-183.669 680.143,-181.862"/>
<polygon fill="midnightblue" stroke="midnightblue" points="680.399,-178.371 670.161,-181.099 679.865,-185.351 680.399,-178.371"/>
</g>
<!-- Node29&#45;&gt;Node7 -->
<g id="edge39" class="edge"><title>Node29&#45;&gt;Node7</title>
<path fill="none" stroke="midnightblue" d="M1369.24,-231.178C1297.75,-227.687 1179.97,-217.528 1083,-188 1029.76,-171.789 1010.71,-170.991 971,-132 957.676,-118.917 948.461,-99.498 943.019,-85.2923"/>
<polygon fill="midnightblue" stroke="midnightblue" points="946.234,-83.8873 939.588,-75.6367 939.639,-86.2315 946.234,-83.8873"/>
</g>
<!-- Node29&#45;&gt;Node14 -->
<g id="edge40" class="edge"><title>Node29&#45;&gt;Node14</title>
<path fill="none" stroke="midnightblue" d="M1468.21,-224.452C1509.64,-212.008 1577.31,-184.443 1605,-132 1609.15,-124.14 1610.16,-119.235 1605,-112 1599.25,-103.949 1546.78,-87.6591 1510.02,-77.0459"/>
<polygon fill="midnightblue" stroke="midnightblue" points="1510.7,-73.5992 1500.12,-74.2146 1508.77,-80.3294 1510.7,-73.5992"/>
</g>
<!-- Node30 -->
<g id="node30" class="node"><title>Node30</title>
<g id="a_node30"><a xlink:href="gaussian_8hh.html" target="_top" xlink:title="stats/gaussian.hh">
<polygon fill="none" stroke="black" points="1502,-112.5 1502,-131.5 1596,-131.5 1596,-112.5 1502,-112.5"/>
<text text-anchor="middle" x="1549" y="-119.5" font-family="Helvetica,sans-Serif" font-size="10.00">stats/gaussian.hh</text>
</a>
</g>
</g>
<!-- Node29&#45;&gt;Node30 -->
<g id="edge41" class="edge"><title>Node29&#45;&gt;Node30</title>
<path fill="none" stroke="midnightblue" d="M1449.17,-224.36C1463.01,-216.065 1483.58,-202.661 1499,-188 1514.26,-173.491 1528.57,-154.056 1537.94,-140.226"/>
<polygon fill="midnightblue" stroke="midnightblue" points="1541,-141.95 1543.59,-131.677 1535.16,-138.092 1541,-141.95"/>
</g>
<!-- Node32 -->
<g id="node32" class="node"><title>Node32</title>
<g id="a_node32"><a xlink:href="skew__normal_8hh.html" target="_top" xlink:title="stats/skew_normal.hh">
<polygon fill="none" stroke="black" points="1377.5,-168.5 1377.5,-187.5 1490.5,-187.5 1490.5,-168.5 1377.5,-168.5"/>
<text text-anchor="middle" x="1434" y="-175.5" font-family="Helvetica,sans-Serif" font-size="10.00">stats/skew_normal.hh</text>
</a>
</g>
</g>
<!-- Node29&#45;&gt;Node32 -->
<g id="edge45" class="edge"><title>Node29&#45;&gt;Node32</title>
<path fill="none" stroke="midnightblue" d="M1434,-224.083C1434,-217.006 1434,-206.861 1434,-197.986"/>
<polygon fill="midnightblue" stroke="midnightblue" points="1437.5,-197.751 1434,-187.751 1430.5,-197.751 1437.5,-197.751"/>
</g>
<!-- Node34 -->
<g id="node34" class="node"><title>Node34</title>
<g id="a_node34"><a xlink:href="gram__charlier_8hh.html" target="_top" xlink:title="stats/gram_charlier.hh">
<polygon fill="none" stroke="black" points="2129.5,-112.5 2129.5,-131.5 2242.5,-131.5 2242.5,-112.5 2129.5,-112.5"/>
<text text-anchor="middle" x="2186" y="-119.5" font-family="Helvetica,sans-Serif" font-size="10.00">stats/gram_charlier.hh</text>
</a>
</g>
</g>
<!-- Node29&#45;&gt;Node34 -->
<g id="edge50" class="edge"><title>Node29&#45;&gt;Node34</title>
<path fill="none" stroke="midnightblue" d="M1498.56,-231.863C1572.81,-229.012 1697.65,-219.447 1800,-188 1818.62,-182.279 1820.39,-173.768 1839,-168 1956.21,-131.661 1993.3,-147.638 2119.44,-132.024"/>
<polygon fill="midnightblue" stroke="midnightblue" points="2120,-135.48 2129.48,-130.738 2119.11,-128.537 2120,-135.48"/>
</g>
<!-- Node36 -->
<g id="node36" class="node"><title>Node36</title>
<g id="a_node36"><a xlink:href="linalg_8hh.html" target="_top" xlink:title="linalg.hh">
<polygon fill="none" stroke="black" points="1738.5,-168.5 1738.5,-187.5 1791.5,-187.5 1791.5,-168.5 1738.5,-168.5"/>
<text text-anchor="middle" x="1765" y="-175.5" font-family="Helvetica,sans-Serif" font-size="10.00">linalg.hh</text>
</a>
</g>
</g>
<!-- Node29&#45;&gt;Node36 -->
<g id="edge56" class="edge"><title>Node29&#45;&gt;Node36</title>
<path fill="none" stroke="midnightblue" d="M1486.45,-224.444C1554.03,-213.418 1669.79,-194.533 1728.52,-184.951"/>
<polygon fill="midnightblue" stroke="midnightblue" points="1729.16,-188.394 1738.46,-183.329 1728.03,-181.485 1729.16,-188.394"/>
</g>
<!-- Node41 -->
<g id="node41" class="node"><title>Node41</title>
<g id="a_node41"><a xlink:href="domain_8hh.html" target="_top" xlink:title="domain.hh">
<polygon fill="none" stroke="black" points="1092,-168.5 1092,-187.5 1154,-187.5 1154,-168.5 1092,-168.5"/>
<text text-anchor="middle" x="1123" y="-175.5" font-family="Helvetica,sans-Serif" font-size="10.00">domain.hh</text>
</a>
</g>
</g>
<!-- Node29&#45;&gt;Node41 -->
<g id="edge66" class="edge"><title>Node29&#45;&gt;Node41</title>
<path fill="none" stroke="midnightblue" d="M1384.72,-224.444C1323.77,-213.861 1221.12,-196.037 1164.17,-186.149"/>
<polygon fill="midnightblue" stroke="midnightblue" points="1164.54,-182.661 1154.09,-184.399 1163.35,-189.558 1164.54,-182.661"/>
</g>
<!-- Node30&#45;&gt;Node7 -->
<g id="edge42" class="edge"><title>Node30&#45;&gt;Node7</title>
<path fill="none" stroke="midnightblue" d="M1501.65,-116.443C1486.44,-114.997 1469.51,-113.41 1454,-112 1272.63,-95.5155 1055.34,-77.007 971.94,-69.9485"/>
<polygon fill="midnightblue" stroke="midnightblue" points="972.018,-66.4427 961.759,-69.0875 971.428,-73.4178 972.018,-66.4427"/>
</g>
<!-- Node30&#45;&gt;Node14 -->
<g id="edge43" class="edge"><title>Node30&#45;&gt;Node14</title>
<path fill="none" stroke="midnightblue" d="M1536.95,-112.324C1525.54,-104.107 1508.17,-91.6017 1494.57,-81.8069"/>
<polygon fill="midnightblue" stroke="midnightblue" points="1496.43,-78.8366 1486.27,-75.8339 1492.34,-84.5174 1496.43,-78.8366"/>
</g>
<!-- Node31 -->
<g id="node31" class="node"><title>Node31</title>
<polygon fill="none" stroke="#bfbfbf" points="1518,-56.5 1518,-75.5 1590,-75.5 1590,-56.5 1518,-56.5"/>
<text text-anchor="middle" x="1554" y="-63.5" font-family="Helvetica,sans-Serif" font-size="10.00">gsl/gsl_cdf.h</text>
</g>
<!-- Node30&#45;&gt;Node31 -->
<g id="edge44" class="edge"><title>Node30&#45;&gt;Node31</title>
<path fill="none" stroke="midnightblue" d="M1549.83,-112.083C1550.48,-105.006 1551.42,-94.8611 1552.24,-85.9865"/>
<polygon fill="midnightblue" stroke="midnightblue" points="1555.75,-86.0312 1553.19,-75.7511 1548.78,-85.3858 1555.75,-86.0312"/>
</g>
<!-- Node32&#45;&gt;Node7 -->
<g id="edge46" class="edge"><title>Node32&#45;&gt;Node7</title>
<path fill="none" stroke="midnightblue" d="M1410.49,-168.445C1372.13,-154.769 1293.47,-127.907 1225,-112 1134.65,-91.0117 1026.05,-77.0104 971.643,-70.7496"/>
<polygon fill="midnightblue" stroke="midnightblue" points="971.836,-67.2491 961.505,-69.6009 971.048,-74.2046 971.836,-67.2491"/>
</g>
<!-- Node32&#45;&gt;Node14 -->
<g id="edge47" class="edge"><title>Node32&#45;&gt;Node14</title>
<path fill="none" stroke="midnightblue" d="M1438.3,-168.166C1442.59,-159.186 1449.2,-144.81 1454,-132 1459.82,-116.451 1465.28,-98.3714 1469.02,-85.2328"/>
<polygon fill="midnightblue" stroke="midnightblue" points="1472.42,-86.0952 1471.73,-75.5226 1465.67,-84.2158 1472.42,-86.0952"/>
</g>
<!-- Node32&#45;&gt;Node30 -->
<g id="edge48" class="edge"><title>Node32&#45;&gt;Node30</title>
<path fill="none" stroke="midnightblue" d="M1452.22,-168.444C1470.9,-159.675 1500.16,-145.935 1521.62,-135.858"/>
<polygon fill="midnightblue" stroke="midnightblue" points="1523.3,-138.935 1530.86,-131.516 1520.32,-132.599 1523.3,-138.935"/>
</g>
<!-- Node33 -->
<g id="node33" class="node"><title>Node33</title>
<g id="a_node33"><a xlink:href="owen__t_8hh.html" target="_top" xlink:title="apmath/owen_t.hh">
<polygon fill="none" stroke="black" points="1348.5,-112.5 1348.5,-131.5 1445.5,-131.5 1445.5,-112.5 1348.5,-112.5"/>
<text text-anchor="middle" x="1397" y="-119.5" font-family="Helvetica,sans-Serif" font-size="10.00">apmath/owen_t.hh</text>
</a>
</g>
</g>
<!-- Node32&#45;&gt;Node33 -->
<g id="edge49" class="edge"><title>Node32&#45;&gt;Node33</title>
<path fill="none" stroke="midnightblue" d="M1427.89,-168.083C1422.72,-160.534 1415.15,-149.495 1408.81,-140.23"/>
<polygon fill="midnightblue" stroke="midnightblue" points="1411.54,-138.022 1403,-131.751 1405.76,-141.979 1411.54,-138.022"/>
</g>
<!-- Node34&#45;&gt;Node7 -->
<g id="edge51" class="edge"><title>Node34&#45;&gt;Node7</title>
<path fill="none" stroke="midnightblue" d="M2129.16,-112.891C2126.06,-112.561 2123,-112.261 2120,-112 1888.47,-91.8587 1142.8,-72.1853 972.058,-67.8713"/>
<polygon fill="midnightblue" stroke="midnightblue" points="971.961,-64.3678 961.876,-67.615 971.785,-71.3656 971.961,-64.3678"/>
</g>
<!-- Node34&#45;&gt;Node11 -->
<g id="edge53" class="edge"><title>Node34&#45;&gt;Node11</title>
<path fill="none" stroke="midnightblue" d="M2172.76,-112.37C2151.08,-98.5885 2106.27,-71.5824 2065,-56 2010.42,-35.3939 1943.48,-22.3431 1904.49,-15.879"/>
<polygon fill="midnightblue" stroke="midnightblue" points="1904.69,-12.3673 1894.26,-14.2296 1903.58,-19.2779 1904.69,-12.3673"/>
</g>
<!-- Node34&#45;&gt;Node14 -->
<g id="edge52" class="edge"><title>Node34&#45;&gt;Node14</title>
<path fill="none" stroke="midnightblue" d="M2129.15,-112.966C2126.06,-112.617 2122.99,-112.292 2120,-112 1852.56,-85.9256 1779.53,-117.284 1510.33,-75.8995"/>
<polygon fill="midnightblue" stroke="midnightblue" points="1510.68,-72.4117 1500.26,-74.3317 1509.6,-79.3284 1510.68,-72.4117"/>
</g>
<!-- Node35 -->
<g id="node35" class="node"><title>Node35</title>
<g id="a_node35"><a xlink:href="physical__constants_8hh.html" target="_top" xlink:title="physical_constants.hh">
<polygon fill="none" stroke="black" points="1942,-56.5 1942,-75.5 2056,-75.5 2056,-56.5 1942,-56.5"/>
<text text-anchor="middle" x="1999" y="-63.5" font-family="Helvetica,sans-Serif" font-size="10.00">physical_constants.hh</text>
</a>
</g>
</g>
<!-- Node34&#45;&gt;Node35 -->
<g id="edge54" class="edge"><title>Node34&#45;&gt;Node35</title>
<path fill="none" stroke="midnightblue" d="M2156.37,-112.444C2124.5,-103.241 2073.67,-88.5617 2038.44,-78.3879"/>
<polygon fill="midnightblue" stroke="midnightblue" points="2039.07,-74.9282 2028.49,-75.5164 2037.13,-81.6534 2039.07,-74.9282"/>
</g>
<!-- Node35&#45;&gt;Node11 -->
<g id="edge55" class="edge"><title>Node35&#45;&gt;Node11</title>
<path fill="none" stroke="midnightblue" d="M1978.88,-56.4435C1957.98,-47.5566 1925.07,-33.5632 1901.28,-23.4514"/>
<polygon fill="midnightblue" stroke="midnightblue" points="1902.6,-20.2085 1892.03,-19.5164 1899.86,-26.6504 1902.6,-20.2085"/>
</g>
<!-- Node36&#45;&gt;Node4 -->
<g id="edge58" class="edge"><title>Node36&#45;&gt;Node4</title>
<path fill="none" stroke="midnightblue" d="M1773.81,-168.304C1786.07,-155.134 1805.36,-129.782 1792,-112 1738.36,-40.5848 1687,-71.2632 1599,-56 1339.69,-11.0254 1022.22,-9.26455 907.224,-10.3154"/>
<polygon fill="midnightblue" stroke="midnightblue" points="907.018,-6.8173 897.055,-10.4209 907.09,-13.8169 907.018,-6.8173"/>
</g>
<!-- Node37 -->
<g id="node37" class="node"><title>Node37</title>
<polygon fill="none" stroke="#bfbfbf" points="1840.5,-112.5 1840.5,-131.5 1889.5,-131.5 1889.5,-112.5 1840.5,-112.5"/>
<text text-anchor="middle" x="1865" y="-119.5" font-family="Helvetica,sans-Serif" font-size="10.00">cassert</text>
</g>
<!-- Node36&#45;&gt;Node37 -->
<g id="edge57" class="edge"><title>Node36&#45;&gt;Node37</title>
<path fill="none" stroke="midnightblue" d="M1781.07,-168.324C1796.96,-159.743 1821.51,-146.486 1839.96,-136.522"/>
<polygon fill="midnightblue" stroke="midnightblue" points="1841.84,-139.486 1848.97,-131.655 1838.51,-133.326 1841.84,-139.486"/>
</g>
<!-- Node38 -->
<g id="node38" class="node"><title>Node38</title>
<polygon fill="none" stroke="#bfbfbf" points="1907.5,-112.5 1907.5,-131.5 2002.5,-131.5 2002.5,-112.5 1907.5,-112.5"/>
<text text-anchor="middle" x="1955" y="-119.5" font-family="Helvetica,sans-Serif" font-size="10.00">lapacke/lapacke.h</text>
</g>
<!-- Node36&#45;&gt;Node38 -->
<g id="edge59" class="edge"><title>Node36&#45;&gt;Node38</title>
<path fill="none" stroke="midnightblue" d="M1791.82,-169.378C1823.89,-160.263 1877.87,-144.92 1914.91,-134.395"/>
<polygon fill="midnightblue" stroke="midnightblue" points="1916.21,-137.664 1924.87,-131.564 1914.29,-130.931 1916.21,-137.664"/>
</g>
<!-- Node39 -->
<g id="node39" class="node"><title>Node39</title>
<polygon fill="none" stroke="#bfbfbf" points="2021,-112.5 2021,-131.5 2111,-131.5 2111,-112.5 2021,-112.5"/>
<text text-anchor="middle" x="2066" y="-119.5" font-family="Helvetica,sans-Serif" font-size="10.00">openblas/cblas.h</text>
</g>
<!-- Node36&#45;&gt;Node39 -->
<g id="edge60" class="edge"><title>Node36&#45;&gt;Node39</title>
<path fill="none" stroke="midnightblue" d="M1791.87,-170.922C1796.57,-169.909 1801.42,-168.898 1806,-168 1844.24,-160.497 1946.5,-143.089 2010.79,-132.257"/>
<polygon fill="midnightblue" stroke="midnightblue" points="2011.49,-135.689 2020.77,-130.578 2010.33,-128.786 2011.49,-135.689"/>
</g>
<!-- Node40 -->
<g id="node40" class="node"><title>Node40</title>
<g id="a_node40"><a xlink:href="closed__interval_8hh.html" target="_top" xlink:title="apmath/closed_interval.hh">
<polygon fill="none" stroke="black" points="1652.5,-112.5 1652.5,-131.5 1783.5,-131.5 1783.5,-112.5 1652.5,-112.5"/>
<text text-anchor="middle" x="1718" y="-119.5" font-family="Helvetica,sans-Serif" font-size="10.00">apmath/closed_interval.hh</text>
</a>
</g>
</g>
<!-- Node36&#45;&gt;Node40 -->
<g id="edge61" class="edge"><title>Node36&#45;&gt;Node40</title>
<path fill="none" stroke="midnightblue" d="M1757.24,-168.083C1750.46,-160.298 1740.46,-148.801 1732.24,-139.367"/>
<polygon fill="midnightblue" stroke="midnightblue" points="1734.82,-136.996 1725.62,-131.751 1729.54,-141.592 1734.82,-136.996"/>
</g>
<!-- Node40&#45;&gt;Node7 -->
<g id="edge62" class="edge"><title>Node40&#45;&gt;Node7</title>
<path fill="none" stroke="midnightblue" d="M1652.28,-115.629C1636.78,-114.4 1620.31,-113.125 1605,-112 1362.57,-94.1808 1070.44,-75.4444 971.597,-69.181"/>
<polygon fill="midnightblue" stroke="midnightblue" points="971.775,-65.6854 961.574,-68.5467 971.333,-72.6714 971.775,-65.6854"/>
</g>
<!-- Node40&#45;&gt;Node11 -->
<g id="edge64" class="edge"><title>Node40&#45;&gt;Node11</title>
<path fill="none" stroke="midnightblue" d="M1730.08,-112.368C1756.4,-93.5728 1819.12,-48.7684 1851.65,-25.5334"/>
<polygon fill="midnightblue" stroke="midnightblue" points="1853.87,-28.2519 1859.97,-19.5914 1849.8,-22.5558 1853.87,-28.2519"/>
</g>
<!-- Node40&#45;&gt;Node14 -->
<g id="edge63" class="edge"><title>Node40&#45;&gt;Node14</title>
<path fill="none" stroke="midnightblue" d="M1675.86,-112.437C1635.72,-104.168 1573.35,-91.025 1510.44,-76.2744"/>
<polygon fill="midnightblue" stroke="midnightblue" points="1510.88,-72.7819 1500.35,-73.8937 1509.28,-79.5951 1510.88,-72.7819"/>
</g>
<!-- Node41&#45;&gt;Node4 -->
<g id="edge71" class="edge"><title>Node41&#45;&gt;Node4</title>
<path fill="none" stroke="midnightblue" d="M1097.96,-168.452C1078.17,-160.896 1050.56,-148.509 1030,-132 996.445,-105.054 1004.25,-82.0549 970,-56 950.338,-41.0435 924.972,-30.0924 903.872,-22.7403"/>
<polygon fill="midnightblue" stroke="midnightblue" points="904.802,-19.3609 894.208,-19.5164 902.587,-26.0012 904.802,-19.3609"/>
</g>
<!-- Node41&#45;&gt;Node7 -->
<g id="edge68" class="edge"><title>Node41&#45;&gt;Node7</title>
<path fill="none" stroke="midnightblue" d="M1091.83,-170.329C1065.09,-163.606 1026.35,-151.409 997,-132 977.48,-119.094 959.94,-98.5231 948.939,-83.9846"/>
<polygon fill="midnightblue" stroke="midnightblue" points="951.705,-81.8375 942.975,-75.8342 946.056,-85.9713 951.705,-81.8375"/>
</g>
<!-- Node41&#45;&gt;Node8 -->
<g id="edge72" class="edge"><title>Node41&#45;&gt;Node8</title>
<path fill="none" stroke="midnightblue" d="M1091.71,-174.097C995.202,-165.142 701.807,-137.92 587.389,-127.304"/>
<polygon fill="midnightblue" stroke="midnightblue" points="587.488,-123.798 577.207,-126.359 586.841,-130.768 587.488,-123.798"/>
</g>
<!-- Node41&#45;&gt;Node14 -->
<g id="edge69" class="edge"><title>Node41&#45;&gt;Node14</title>
<path fill="none" stroke="midnightblue" d="M1145.34,-168.414C1179.63,-155.388 1247.41,-130.222 1306,-112 1351.07,-97.9828 1403.75,-84.3044 1437.93,-75.7781"/>
<polygon fill="midnightblue" stroke="midnightblue" points="1439.05,-79.106 1447.91,-73.3027 1437.37,-72.3117 1439.05,-79.106"/>
</g>
<!-- Node42 -->
<g id="node42" class="node"><title>Node42</title>
<polygon fill="none" stroke="#bfbfbf" points="1098.5,-112.5 1098.5,-131.5 1147.5,-131.5 1147.5,-112.5 1098.5,-112.5"/>
<text text-anchor="middle" x="1123" y="-119.5" font-family="Helvetica,sans-Serif" font-size="10.00">cstddef</text>
</g>
<!-- Node41&#45;&gt;Node42 -->
<g id="edge67" class="edge"><title>Node41&#45;&gt;Node42</title>
<path fill="none" stroke="midnightblue" d="M1123,-168.083C1123,-161.006 1123,-150.861 1123,-141.986"/>
<polygon fill="midnightblue" stroke="midnightblue" points="1126.5,-141.751 1123,-131.751 1119.5,-141.751 1126.5,-141.751"/>
</g>
<!-- Node43 -->
<g id="node43" class="node"><title>Node43</title>
<polygon fill="none" stroke="#bfbfbf" points="1166,-112.5 1166,-131.5 1216,-131.5 1216,-112.5 1166,-112.5"/>
<text text-anchor="middle" x="1191" y="-119.5" font-family="Helvetica,sans-Serif" font-size="10.00">iomanip</text>
</g>
<!-- Node41&#45;&gt;Node43 -->
<g id="edge70" class="edge"><title>Node41&#45;&gt;Node43</title>
<path fill="none" stroke="midnightblue" d="M1133.93,-168.324C1144.17,-160.185 1159.72,-147.839 1172,-138.087"/>
<polygon fill="midnightblue" stroke="midnightblue" points="1174.22,-140.794 1179.88,-131.834 1169.87,-135.312 1174.22,-140.794"/>
</g>
<!-- Node44&#45;&gt;Node17 -->
<g id="edge75" class="edge"><title>Node44&#45;&gt;Node17</title>
<path fill="none" stroke="midnightblue" d="M1672.89,-229.823C1583.26,-220.265 1316.88,-189.009 1090.26,-132.122"/>
<polygon fill="midnightblue" stroke="midnightblue" points="1091.07,-128.717 1080.52,-129.655 1089.36,-135.503 1091.07,-128.717"/>
</g>
<!-- Node45 -->
<g id="node45" class="node"><title>Node45</title>
<polygon fill="none" stroke="#bfbfbf" points="1848.5,-168.5 1848.5,-187.5 1907.5,-187.5 1907.5,-168.5 1848.5,-168.5"/>
<text text-anchor="middle" x="1878" y="-175.5" font-family="Helvetica,sans-Serif" font-size="10.00">functional</text>
</g>
<!-- Node44&#45;&gt;Node45 -->
<g id="edge74" class="edge"><title>Node44&#45;&gt;Node45</title>
<path fill="none" stroke="midnightblue" d="M1731.57,-224.444C1761.1,-215.28 1808.12,-200.688 1840.88,-190.519"/>
<polygon fill="midnightblue" stroke="midnightblue" points="1842.04,-193.823 1850.56,-187.516 1839.97,-187.138 1842.04,-193.823"/>
</g>
<!-- Node46 -->
<g id="node46" class="node"><title>Node46</title>
<polygon fill="none" stroke="#bfbfbf" points="1925.5,-168.5 1925.5,-187.5 2008.5,-187.5 2008.5,-168.5 1925.5,-168.5"/>
<text text-anchor="middle" x="1967" y="-175.5" font-family="Helvetica,sans-Serif" font-size="10.00">unordered_map</text>
</g>
<!-- Node44&#45;&gt;Node46 -->
<g id="edge76" class="edge"><title>Node44&#45;&gt;Node46</title>
<path fill="none" stroke="midnightblue" d="M1735.2,-226.593C1779.69,-217.46 1861.87,-200.585 1915.47,-189.58"/>
<polygon fill="midnightblue" stroke="midnightblue" points="1916.37,-192.968 1925.46,-187.529 1914.96,-186.111 1916.37,-192.968"/>
</g>
</g>
</svg>
