<?xml version="1.0" encoding="UTF-8" standalone="no"?>
<!DOCTYPE svg PUBLIC "-//W3C//DTD SVG 1.1//EN"
 "http://www.w3.org/Graphics/SVG/1.1/DTD/svg11.dtd">
<!-- Generated by graphviz version 2.36.0 (20140111.2315)
 -->
<!-- Title: /home/travis/build/igankevich/arma/src/generator/basic_model.cc Pages: 1 -->
<svg width="1212pt" height="330pt"
 viewBox="0.00 0.00 1211.92 330.00" xmlns="http://www.w3.org/2000/svg" xmlns:xlink="http://www.w3.org/1999/xlink">
<g id="graph0" class="graph" transform="scale(1 1) rotate(0) translate(4 326)">
<title>/home/travis/build/igankevich/arma/src/generator/basic_model.cc</title>
<!-- Node1 -->
<g id="node1" class="node"><title>Node1</title>
<polygon fill="#bfbfbf" stroke="black" points="888.5,-280.5 888.5,-321.5 1019.5,-321.5 1019.5,-280.5 888.5,-280.5"/>
<text text-anchor="start" x="896.5" y="-309.5" font-family="Helvetica,sans-Serif" font-size="10.00">/home/travis/build</text>
<text text-anchor="start" x="896.5" y="-298.5" font-family="Helvetica,sans-Serif" font-size="10.00">/igankevich/arma/src</text>
<text text-anchor="middle" x="954" y="-287.5" font-family="Helvetica,sans-Serif" font-size="10.00">/generator/basic_model.cc</text>
</g>
<!-- Node2 -->
<g id="node2" class="node"><title>Node2</title>
<g id="a_node2"><a xlink:href="basic__model_8hh.html" target="_top" xlink:title="basic_model.hh">
<polygon fill="none" stroke="black" points="822.5,-224.5 822.5,-243.5 907.5,-243.5 907.5,-224.5 822.5,-224.5"/>
<text text-anchor="middle" x="865" y="-231.5" font-family="Helvetica,sans-Serif" font-size="10.00">basic_model.hh</text>
</a>
</g>
</g>
<!-- Node1&#45;&gt;Node2 -->
<g id="edge1" class="edge"><title>Node1&#45;&gt;Node2</title>
<path fill="none" stroke="midnightblue" d="M927.297,-280.498C913.783,-270.628 897.647,-258.843 885.183,-249.741"/>
<polygon fill="midnightblue" stroke="midnightblue" points="886.987,-246.724 876.847,-243.652 882.859,-252.377 886.987,-246.724"/>
</g>
<!-- Node27 -->
<g id="node27" class="node"><title>Node27</title>
<polygon fill="none" stroke="#bfbfbf" points="926,-224.5 926,-243.5 982,-243.5 982,-224.5 926,-224.5"/>
<text text-anchor="middle" x="954" y="-231.5" font-family="Helvetica,sans-Serif" font-size="10.00">config.hh</text>
</g>
<!-- Node1&#45;&gt;Node27 -->
<g id="edge34" class="edge"><title>Node1&#45;&gt;Node27</title>
<path fill="none" stroke="midnightblue" d="M954,-280.498C954,-272.065 954,-262.235 954,-253.874"/>
<polygon fill="midnightblue" stroke="midnightblue" points="957.5,-253.652 954,-243.652 950.5,-253.653 957.5,-253.652"/>
</g>
<!-- Node28 -->
<g id="node28" class="node"><title>Node28</title>
<g id="a_node28"><a xlink:href="bscheduler__io_8hh.html" target="_top" xlink:title="bits/bscheduler_io.hh">
<polygon fill="none" stroke="black" points="1000.5,-224.5 1000.5,-243.5 1109.5,-243.5 1109.5,-224.5 1000.5,-224.5"/>
<text text-anchor="middle" x="1055" y="-231.5" font-family="Helvetica,sans-Serif" font-size="10.00">bits/bscheduler_io.hh</text>
</a>
</g>
</g>
<!-- Node1&#45;&gt;Node28 -->
<g id="edge35" class="edge"><title>Node1&#45;&gt;Node28</title>
<path fill="none" stroke="midnightblue" d="M984.303,-280.498C999.937,-270.436 1018.66,-258.385 1032.91,-249.214"/>
<polygon fill="midnightblue" stroke="midnightblue" points="1035.04,-252.008 1041.56,-243.652 1031.25,-246.121 1035.04,-252.008"/>
</g>
<!-- Node3 -->
<g id="node3" class="node"><title>Node3</title>
<polygon fill="none" stroke="#bfbfbf" points="838.5,-112.5 838.5,-131.5 887.5,-131.5 887.5,-112.5 838.5,-112.5"/>
<text text-anchor="middle" x="863" y="-119.5" font-family="Helvetica,sans-Serif" font-size="10.00">istream</text>
</g>
<!-- Node2&#45;&gt;Node3 -->
<g id="edge2" class="edge"><title>Node2&#45;&gt;Node3</title>
<path fill="none" stroke="midnightblue" d="M864.843,-224.368C864.52,-206.617 863.776,-165.666 863.338,-141.597"/>
<polygon fill="midnightblue" stroke="midnightblue" points="866.838,-141.526 863.156,-131.591 859.839,-141.653 866.838,-141.526"/>
</g>
<!-- Node4 -->
<g id="node4" class="node"><title>Node4</title>
<polygon fill="none" stroke="#bfbfbf" points="906,-112.5 906,-131.5 958,-131.5 958,-112.5 906,-112.5"/>
<text text-anchor="middle" x="932" y="-119.5" font-family="Helvetica,sans-Serif" font-size="10.00">ostream</text>
</g>
<!-- Node2&#45;&gt;Node4 -->
<g id="edge3" class="edge"><title>Node2&#45;&gt;Node4</title>
<path fill="none" stroke="midnightblue" d="M870.257,-224.368C881.265,-206.296 906.92,-164.176 921.458,-140.307"/>
<polygon fill="midnightblue" stroke="midnightblue" points="924.554,-141.953 926.767,-131.591 918.576,-138.311 924.554,-141.953"/>
</g>
<!-- Node5 -->
<g id="node5" class="node"><title>Node5</title>
<g id="a_node5"><a xlink:href="grid_8hh.html" target="_top" xlink:title="grid.hh">
<polygon fill="none" stroke="black" points="959,-168.5 959,-187.5 1005,-187.5 1005,-168.5 959,-168.5"/>
<text text-anchor="middle" x="982" y="-175.5" font-family="Helvetica,sans-Serif" font-size="10.00">grid.hh</text>
</a>
</g>
</g>
<!-- Node2&#45;&gt;Node5 -->
<g id="edge4" class="edge"><title>Node2&#45;&gt;Node5</title>
<path fill="none" stroke="midnightblue" d="M883.539,-224.444C902.623,-215.636 932.575,-201.812 954.436,-191.722"/>
<polygon fill="midnightblue" stroke="midnightblue" points="955.935,-194.885 963.548,-187.516 953.001,-188.529 955.935,-194.885"/>
</g>
<!-- Node12 -->
<g id="node12" class="node"><title>Node12</title>
<g id="a_node12"><a xlink:href="output__flags_8hh.html" target="_top" xlink:title="output_flags.hh">
<polygon fill="none" stroke="black" points="755.5,-168.5 755.5,-187.5 838.5,-187.5 838.5,-168.5 755.5,-168.5"/>
<text text-anchor="middle" x="797" y="-175.5" font-family="Helvetica,sans-Serif" font-size="10.00">output_flags.hh</text>
</a>
</g>
</g>
<!-- Node2&#45;&gt;Node12 -->
<g id="edge13" class="edge"><title>Node2&#45;&gt;Node12</title>
<path fill="none" stroke="midnightblue" d="M854.075,-224.324C843.825,-216.185 828.279,-203.839 815.999,-194.087"/>
<polygon fill="midnightblue" stroke="midnightblue" points="818.132,-191.312 808.124,-187.834 813.779,-196.794 818.132,-191.312"/>
</g>
<!-- Node16 -->
<g id="node16" class="node"><title>Node16</title>
<g id="a_node16"><a xlink:href="parallel__mt_8hh.html" target="_top" xlink:title="parallel_mt.hh">
<polygon fill="none" stroke="black" points="312.5,-168.5 312.5,-187.5 389.5,-187.5 389.5,-168.5 312.5,-168.5"/>
<text text-anchor="middle" x="351" y="-175.5" font-family="Helvetica,sans-Serif" font-size="10.00">parallel_mt.hh</text>
</a>
</g>
</g>
<!-- Node2&#45;&gt;Node16 -->
<g id="edge19" class="edge"><title>Node2&#45;&gt;Node16</title>
<path fill="none" stroke="midnightblue" d="M822.5,-228.535C727.837,-218.59 500.102,-194.664 399.815,-184.128"/>
<polygon fill="midnightblue" stroke="midnightblue" points="399.969,-180.625 389.658,-183.061 399.237,-187.587 399.969,-180.625"/>
</g>
<!-- Node26 -->
<g id="node26" class="node"><title>Node26</title>
<g id="a_node26"><a xlink:href="types_8hh.html" target="_top" xlink:title="types.hh">
<polygon fill="none" stroke="black" points="1103,-168.5 1103,-187.5 1157,-187.5 1157,-168.5 1103,-168.5"/>
<text text-anchor="middle" x="1130" y="-175.5" font-family="Helvetica,sans-Serif" font-size="10.00">types.hh</text>
</a>
</g>
</g>
<!-- Node2&#45;&gt;Node26 -->
<g id="edge32" class="edge"><title>Node2&#45;&gt;Node26</title>
<path fill="none" stroke="midnightblue" d="M907.557,-225.177C953.442,-216.607 1028.58,-202.186 1093,-188 1093.1,-187.978 1093.2,-187.956 1093.3,-187.933"/>
<polygon fill="midnightblue" stroke="midnightblue" points="1093.99,-191.367 1102.95,-185.723 1092.42,-184.544 1093.99,-191.367"/>
</g>
<!-- Node5&#45;&gt;Node3 -->
<g id="edge5" class="edge"><title>Node5&#45;&gt;Node3</title>
<path fill="none" stroke="midnightblue" d="M963.144,-168.444C943.734,-159.636 913.27,-145.812 891.035,-135.722"/>
<polygon fill="midnightblue" stroke="midnightblue" points="892.32,-132.462 881.768,-131.516 889.428,-138.836 892.32,-132.462"/>
</g>
<!-- Node6 -->
<g id="node6" class="node"><title>Node6</title>
<g id="a_node6"><a xlink:href="blitz_8hh.html" target="_top" xlink:title="blitz.hh">
<polygon fill="none" stroke="black" points="989,-56.5 989,-75.5 1037,-75.5 1037,-56.5 989,-56.5"/>
<text text-anchor="middle" x="1013" y="-63.5" font-family="Helvetica,sans-Serif" font-size="10.00">blitz.hh</text>
</a>
</g>
</g>
<!-- Node5&#45;&gt;Node6 -->
<g id="edge6" class="edge"><title>Node5&#45;&gt;Node6</title>
<path fill="none" stroke="midnightblue" d="M984.433,-168.368C989.458,-150.537 1001.08,-109.295 1007.85,-85.2717"/>
<polygon fill="midnightblue" stroke="midnightblue" points="1011.23,-86.1659 1010.58,-75.5914 1004.5,-84.2671 1011.23,-86.1659"/>
</g>
<!-- Node10 -->
<g id="node10" class="node"><title>Node10</title>
<g id="a_node10"><a xlink:href="validators_8hh.html" target="_top" xlink:title="validators.hh">
<polygon fill="none" stroke="black" points="1014,-112.5 1014,-131.5 1086,-131.5 1086,-112.5 1014,-112.5"/>
<text text-anchor="middle" x="1050" y="-119.5" font-family="Helvetica,sans-Serif" font-size="10.00">validators.hh</text>
</a>
</g>
</g>
<!-- Node5&#45;&gt;Node10 -->
<g id="edge10" class="edge"><title>Node5&#45;&gt;Node10</title>
<path fill="none" stroke="midnightblue" d="M992.925,-168.324C1003.17,-160.185 1018.72,-147.839 1031,-138.087"/>
<polygon fill="midnightblue" stroke="midnightblue" points="1033.22,-140.794 1038.88,-131.834 1028.87,-135.312 1033.22,-140.794"/>
</g>
<!-- Node7 -->
<g id="node7" class="node"><title>Node7</title>
<polygon fill="none" stroke="#bfbfbf" points="562,-0.5 562,-19.5 618,-19.5 618,-0.5 562,-0.5"/>
<text text-anchor="middle" x="590" y="-7.5" font-family="Helvetica,sans-Serif" font-size="10.00">algorithm</text>
</g>
<!-- Node6&#45;&gt;Node7 -->
<g id="edge7" class="edge"><title>Node6&#45;&gt;Node7</title>
<path fill="none" stroke="midnightblue" d="M988.738,-61.9028C918.38,-52.9209 713.847,-26.8103 628.31,-15.8906"/>
<polygon fill="midnightblue" stroke="midnightblue" points="628.609,-12.4004 618.246,-14.6059 627.722,-19.3441 628.609,-12.4004"/>
</g>
<!-- Node8 -->
<g id="node8" class="node"><title>Node8</title>
<polygon fill="none" stroke="#bfbfbf" points="1080,-0.5 1080,-19.5 1148,-19.5 1148,-0.5 1080,-0.5"/>
<text text-anchor="middle" x="1114" y="-7.5" font-family="Helvetica,sans-Serif" font-size="10.00">blitz/array.h</text>
</g>
<!-- Node6&#45;&gt;Node8 -->
<g id="edge8" class="edge"><title>Node6&#45;&gt;Node8</title>
<path fill="none" stroke="midnightblue" d="M1029.23,-56.324C1045.35,-47.7034 1070.3,-34.3643 1088.96,-24.3855"/>
<polygon fill="midnightblue" stroke="midnightblue" points="1090.64,-27.456 1097.81,-19.6545 1087.34,-21.283 1090.64,-27.456"/>
</g>
<!-- Node9 -->
<g id="node9" class="node"><title>Node9</title>
<polygon fill="none" stroke="#bfbfbf" points="991,-0.5 991,-19.5 1035,-19.5 1035,-0.5 991,-0.5"/>
<text text-anchor="middle" x="1013" y="-7.5" font-family="Helvetica,sans-Serif" font-size="10.00">cmath</text>
</g>
<!-- Node6&#45;&gt;Node9 -->
<g id="edge9" class="edge"><title>Node6&#45;&gt;Node9</title>
<path fill="none" stroke="midnightblue" d="M1013,-56.083C1013,-49.0059 1013,-38.8611 1013,-29.9865"/>
<polygon fill="midnightblue" stroke="midnightblue" points="1016.5,-29.751 1013,-19.7511 1009.5,-29.7511 1016.5,-29.751"/>
</g>
<!-- Node10&#45;&gt;Node6 -->
<g id="edge12" class="edge"><title>Node10&#45;&gt;Node6</title>
<path fill="none" stroke="midnightblue" d="M1043.89,-112.083C1038.72,-104.534 1031.15,-93.4948 1024.81,-84.2298"/>
<polygon fill="midnightblue" stroke="midnightblue" points="1027.54,-82.0221 1019,-75.7511 1021.76,-85.9787 1027.54,-82.0221"/>
</g>
<!-- Node11 -->
<g id="node11" class="node"><title>Node11</title>
<polygon fill="none" stroke="#bfbfbf" points="587.5,-56.5 587.5,-75.5 646.5,-75.5 646.5,-56.5 587.5,-56.5"/>
<text text-anchor="middle" x="617" y="-63.5" font-family="Helvetica,sans-Serif" font-size="10.00">stdexcept</text>
</g>
<!-- Node10&#45;&gt;Node11 -->
<g id="edge11" class="edge"><title>Node10&#45;&gt;Node11</title>
<path fill="none" stroke="midnightblue" d="M1013.83,-116.489C933.423,-106.462 740.38,-82.3869 656.749,-71.9571"/>
<polygon fill="midnightblue" stroke="midnightblue" points="656.992,-68.4605 646.636,-70.6959 656.126,-75.4067 656.992,-68.4605"/>
</g>
<!-- Node12&#45;&gt;Node3 -->
<g id="edge14" class="edge"><title>Node12&#45;&gt;Node3</title>
<path fill="none" stroke="midnightblue" d="M807.604,-168.324C817.456,-160.263 832.351,-148.077 844.215,-138.369"/>
<polygon fill="midnightblue" stroke="midnightblue" points="846.68,-140.875 852.203,-131.834 842.247,-135.457 846.68,-140.875"/>
</g>
<!-- Node12&#45;&gt;Node4 -->
<g id="edge15" class="edge"><title>Node12&#45;&gt;Node4</title>
<path fill="none" stroke="midnightblue" d="M818.391,-168.444C840.707,-159.517 875.903,-145.439 901.208,-135.317"/>
<polygon fill="midnightblue" stroke="midnightblue" points="902.724,-138.48 910.709,-131.516 900.124,-131.981 902.724,-138.48"/>
</g>
<!-- Node13 -->
<g id="node13" class="node"><title>Node13</title>
<polygon fill="none" stroke="#bfbfbf" points="779.5,-112.5 779.5,-131.5 820.5,-131.5 820.5,-112.5 779.5,-112.5"/>
<text text-anchor="middle" x="800" y="-119.5" font-family="Helvetica,sans-Serif" font-size="10.00">bitset</text>
</g>
<!-- Node12&#45;&gt;Node13 -->
<g id="edge16" class="edge"><title>Node12&#45;&gt;Node13</title>
<path fill="none" stroke="midnightblue" d="M797.495,-168.083C797.889,-161.006 798.452,-150.861 798.945,-141.986"/>
<polygon fill="midnightblue" stroke="midnightblue" points="802.454,-141.93 799.514,-131.751 795.464,-141.542 802.454,-141.93"/>
</g>
<!-- Node14 -->
<g id="node14" class="node"><title>Node14</title>
<polygon fill="none" stroke="#bfbfbf" points="640,-112.5 640,-131.5 702,-131.5 702,-112.5 640,-112.5"/>
<text text-anchor="middle" x="671" y="-119.5" font-family="Helvetica,sans-Serif" font-size="10.00">type_traits</text>
</g>
<!-- Node12&#45;&gt;Node14 -->
<g id="edge17" class="edge"><title>Node12&#45;&gt;Node14</title>
<path fill="none" stroke="midnightblue" d="M777.035,-168.444C756.391,-159.596 723.937,-145.687 700.368,-135.586"/>
<polygon fill="midnightblue" stroke="midnightblue" points="701.442,-132.239 690.872,-131.516 698.684,-138.673 701.442,-132.239"/>
</g>
<!-- Node15 -->
<g id="node15" class="node"><title>Node15</title>
<polygon fill="none" stroke="#bfbfbf" points="720.5,-112.5 720.5,-131.5 761.5,-131.5 761.5,-112.5 720.5,-112.5"/>
<text text-anchor="middle" x="741" y="-119.5" font-family="Helvetica,sans-Serif" font-size="10.00">string</text>
</g>
<!-- Node12&#45;&gt;Node15 -->
<g id="edge18" class="edge"><title>Node12&#45;&gt;Node15</title>
<path fill="none" stroke="midnightblue" d="M788.003,-168.324C779.806,-160.42 767.494,-148.548 757.528,-138.938"/>
<polygon fill="midnightblue" stroke="midnightblue" points="759.789,-136.256 750.161,-131.834 754.93,-141.295 759.789,-136.256"/>
</g>
<!-- Node16&#45;&gt;Node3 -->
<g id="edge24" class="edge"><title>Node16&#45;&gt;Node3</title>
<path fill="none" stroke="midnightblue" d="M389.705,-175.521C469.828,-171.994 659.731,-161.234 828.183,-131.843"/>
<polygon fill="midnightblue" stroke="midnightblue" points="828.987,-135.255 838.223,-130.064 827.766,-128.362 828.987,-135.255"/>
</g>
<!-- Node16&#45;&gt;Node7 -->
<g id="edge21" class="edge"><title>Node16&#45;&gt;Node7</title>
<path fill="none" stroke="midnightblue" d="M338.895,-168.378C322.643,-155.728 297.303,-131.525 311,-112 366.093,-33.4647 488.672,-15.7429 551.399,-11.9166"/>
<polygon fill="midnightblue" stroke="midnightblue" points="551.855,-15.3977 561.66,-11.3829 551.491,-8.40713 551.855,-15.3977"/>
</g>
<!-- Node16&#45;&gt;Node11 -->
<g id="edge26" class="edge"><title>Node16&#45;&gt;Node11</title>
<path fill="none" stroke="midnightblue" d="M340.782,-168.196C326.542,-154.886 304.07,-129.354 319,-112 351.85,-73.8174 503.842,-67.6144 577.189,-66.8856"/>
<polygon fill="midnightblue" stroke="midnightblue" points="577.441,-70.384 587.416,-66.8147 577.392,-63.3842 577.441,-70.384"/>
</g>
<!-- Node17 -->
<g id="node17" class="node"><title>Node17</title>
<polygon fill="none" stroke="#bfbfbf" points="328.5,-112.5 328.5,-131.5 373.5,-131.5 373.5,-112.5 328.5,-112.5"/>
<text text-anchor="middle" x="351" y="-119.5" font-family="Helvetica,sans-Serif" font-size="10.00">cstdlib</text>
</g>
<!-- Node16&#45;&gt;Node17 -->
<g id="edge20" class="edge"><title>Node16&#45;&gt;Node17</title>
<path fill="none" stroke="midnightblue" d="M351,-168.083C351,-161.006 351,-150.861 351,-141.986"/>
<polygon fill="midnightblue" stroke="midnightblue" points="354.5,-141.751 351,-131.751 347.5,-141.751 354.5,-141.751"/>
</g>
<!-- Node18 -->
<g id="node18" class="node"><title>Node18</title>
<polygon fill="none" stroke="#bfbfbf" points="392,-112.5 392,-131.5 438,-131.5 438,-112.5 392,-112.5"/>
<text text-anchor="middle" x="415" y="-119.5" font-family="Helvetica,sans-Serif" font-size="10.00">cstdint</text>
</g>
<!-- Node16&#45;&gt;Node18 -->
<g id="edge22" class="edge"><title>Node16&#45;&gt;Node18</title>
<path fill="none" stroke="midnightblue" d="M361.283,-168.324C370.836,-160.263 385.28,-148.077 396.784,-138.369"/>
<polygon fill="midnightblue" stroke="midnightblue" points="399.144,-140.958 404.53,-131.834 394.63,-135.608 399.144,-140.958"/>
</g>
<!-- Node19 -->
<g id="node19" class="node"><title>Node19</title>
<polygon fill="none" stroke="#bfbfbf" points="456,-112.5 456,-131.5 502,-131.5 502,-112.5 456,-112.5"/>
<text text-anchor="middle" x="479" y="-119.5" font-family="Helvetica,sans-Serif" font-size="10.00">cstring</text>
</g>
<!-- Node16&#45;&gt;Node19 -->
<g id="edge23" class="edge"><title>Node16&#45;&gt;Node19</title>
<path fill="none" stroke="midnightblue" d="M371.282,-168.444C392.347,-159.557 425.517,-145.563 449.486,-135.451"/>
<polygon fill="midnightblue" stroke="midnightblue" points="450.96,-138.628 458.813,-131.516 448.239,-132.179 450.96,-138.628"/>
</g>
<!-- Node20 -->
<g id="node20" class="node"><title>Node20</title>
<polygon fill="none" stroke="#bfbfbf" points="520,-112.5 520,-131.5 560,-131.5 560,-112.5 520,-112.5"/>
<text text-anchor="middle" x="540" y="-119.5" font-family="Helvetica,sans-Serif" font-size="10.00">limits</text>
</g>
<!-- Node16&#45;&gt;Node20 -->
<g id="edge25" class="edge"><title>Node16&#45;&gt;Node20</title>
<path fill="none" stroke="midnightblue" d="M382.343,-168.451C412.696,-160.114 460.249,-146.899 510.08,-132.219"/>
<polygon fill="midnightblue" stroke="midnightblue" points="511.142,-135.555 519.739,-129.363 509.157,-128.842 511.142,-135.555"/>
</g>
<!-- Node21 -->
<g id="node21" class="node"><title>Node21</title>
<polygon fill="none" stroke="#bfbfbf" points="578,-112.5 578,-131.5 622,-131.5 622,-112.5 578,-112.5"/>
<text text-anchor="middle" x="600" y="-119.5" font-family="Helvetica,sans-Serif" font-size="10.00">vector</text>
</g>
<!-- Node16&#45;&gt;Node21 -->
<g id="edge27" class="edge"><title>Node16&#45;&gt;Node21</title>
<path fill="none" stroke="midnightblue" d="M389.8,-169.95C431.506,-162.16 499.939,-148.77 567.714,-132.173"/>
<polygon fill="midnightblue" stroke="midnightblue" points="568.839,-135.5 577.706,-129.701 567.158,-128.705 568.839,-135.5"/>
</g>
<!-- Node22 -->
<g id="node22" class="node"><title>Node22</title>
<polygon fill="none" stroke="#bfbfbf" points="0,-112.5 0,-131.5 50,-131.5 50,-112.5 0,-112.5"/>
<text text-anchor="middle" x="25" y="-119.5" font-family="Helvetica,sans-Serif" font-size="10.00">fstream</text>
</g>
<!-- Node16&#45;&gt;Node22 -->
<g id="edge28" class="edge"><title>Node16&#45;&gt;Node22</title>
<path fill="none" stroke="midnightblue" d="M312.033,-172.329C257.693,-165.523 155.922,-151.722 60.0364,-132.032"/>
<polygon fill="midnightblue" stroke="midnightblue" points="60.6834,-128.592 50.1802,-129.983 59.2583,-135.446 60.6834,-128.592"/>
</g>
<!-- Node23 -->
<g id="node23" class="node"><title>Node23</title>
<polygon fill="none" stroke="#bfbfbf" points="68.5,-112.5 68.5,-131.5 115.5,-131.5 115.5,-112.5 68.5,-112.5"/>
<text text-anchor="middle" x="92" y="-119.5" font-family="Helvetica,sans-Serif" font-size="10.00">iterator</text>
</g>
<!-- Node16&#45;&gt;Node23 -->
<g id="edge29" class="edge"><title>Node16&#45;&gt;Node23</title>
<path fill="none" stroke="midnightblue" d="M312.435,-170.168C269.333,-162.345 197.263,-148.71 125.817,-132.057"/>
<polygon fill="midnightblue" stroke="midnightblue" points="126.278,-128.57 115.743,-129.688 124.676,-135.384 126.278,-128.57"/>
</g>
<!-- Node24 -->
<g id="node24" class="node"><title>Node24</title>
<polygon fill="none" stroke="#bfbfbf" points="134,-112.5 134,-131.5 180,-131.5 180,-112.5 134,-112.5"/>
<text text-anchor="middle" x="157" y="-119.5" font-family="Helvetica,sans-Serif" font-size="10.00">chrono</text>
</g>
<!-- Node16&#45;&gt;Node24 -->
<g id="edge30" class="edge"><title>Node16&#45;&gt;Node24</title>
<path fill="none" stroke="midnightblue" d="M320.237,-168.486C289.617,-160.006 241.021,-146.527 189.967,-132.264"/>
<polygon fill="midnightblue" stroke="midnightblue" points="190.643,-128.819 180.07,-129.498 188.758,-135.561 190.643,-128.819"/>
</g>
<!-- Node25 -->
<g id="node25" class="node"><title>Node25</title>
<polygon fill="none" stroke="#bfbfbf" points="198.5,-112.5 198.5,-131.5 233.5,-131.5 233.5,-112.5 198.5,-112.5"/>
<text text-anchor="middle" x="216" y="-119.5" font-family="Helvetica,sans-Serif" font-size="10.00">dc.h</text>
</g>
<!-- Node16&#45;&gt;Node25 -->
<g id="edge31" class="edge"><title>Node16&#45;&gt;Node25</title>
<path fill="none" stroke="midnightblue" d="M329.609,-168.444C306.243,-159.097 268.756,-144.102 243.288,-133.915"/>
<polygon fill="midnightblue" stroke="midnightblue" points="244.427,-130.601 233.842,-130.137 241.827,-137.1 244.427,-130.601"/>
</g>
<!-- Node26&#45;&gt;Node8 -->
<g id="edge33" class="edge"><title>Node26&#45;&gt;Node8</title>
<path fill="none" stroke="midnightblue" d="M1155.16,-168.378C1171.42,-161.343 1191.29,-149.645 1201,-132 1205.28,-124.212 1204.09,-120.333 1201,-112 1187.56,-75.8003 1154.68,-43.8835 1133.41,-26.0442"/>
<polygon fill="midnightblue" stroke="midnightblue" points="1135.59,-23.3068 1125.63,-19.7072 1131.17,-28.7352 1135.59,-23.3068"/>
</g>
<!-- Node28&#45;&gt;Node5 -->
<g id="edge43" class="edge"><title>Node28&#45;&gt;Node5</title>
<path fill="none" stroke="midnightblue" d="M1043.27,-224.324C1032.16,-216.107 1015.26,-203.602 1002.02,-193.807"/>
<polygon fill="midnightblue" stroke="midnightblue" points="1004.06,-190.967 993.942,-187.834 999.9,-196.595 1004.06,-190.967"/>
</g>
<!-- Node28&#45;&gt;Node21 -->
<g id="edge36" class="edge"><title>Node28&#45;&gt;Node21</title>
<path fill="none" stroke="midnightblue" d="M1000.35,-225.436C914.894,-213.553 758.075,-191.495 746,-188 701.656,-175.165 653.281,-151.557 624.846,-136.601"/>
<polygon fill="midnightblue" stroke="midnightblue" points="626.13,-133.319 615.659,-131.704 622.837,-139.497 626.13,-133.319"/>
</g>
<!-- Node28&#45;&gt;Node26 -->
<g id="edge44" class="edge"><title>Node28&#45;&gt;Node26</title>
<path fill="none" stroke="midnightblue" d="M1067.05,-224.324C1078.46,-216.107 1095.83,-203.602 1109.43,-193.807"/>
<polygon fill="midnightblue" stroke="midnightblue" points="1111.66,-196.517 1117.73,-187.834 1107.57,-190.837 1111.66,-196.517"/>
</g>
<!-- Node29 -->
<g id="node29" class="node"><title>Node29</title>
<g id="a_node29"><a xlink:href="domain_8hh.html" target="_top" xlink:title="domain.hh">
<polygon fill="none" stroke="black" points="1023,-168.5 1023,-187.5 1085,-187.5 1085,-168.5 1023,-168.5"/>
<text text-anchor="middle" x="1054" y="-175.5" font-family="Helvetica,sans-Serif" font-size="10.00">domain.hh</text>
</a>
</g>
</g>
<!-- Node28&#45;&gt;Node29 -->
<g id="edge37" class="edge"><title>Node28&#45;&gt;Node29</title>
<path fill="none" stroke="midnightblue" d="M1054.83,-224.083C1054.7,-217.006 1054.52,-206.861 1054.35,-197.986"/>
<polygon fill="midnightblue" stroke="midnightblue" points="1057.85,-197.685 1054.16,-187.751 1050.85,-197.814 1057.85,-197.685"/>
</g>
<!-- Node29&#45;&gt;Node3 -->
<g id="edge38" class="edge"><title>Node29&#45;&gt;Node3</title>
<path fill="none" stroke="midnightblue" d="M1023.74,-168.444C989.461,-158.753 933.713,-142.992 897.704,-132.811"/>
<polygon fill="midnightblue" stroke="midnightblue" points="898.232,-129.324 887.657,-129.971 896.327,-136.06 898.232,-129.324"/>
</g>
<!-- Node29&#45;&gt;Node4 -->
<g id="edge39" class="edge"><title>Node29&#45;&gt;Node4</title>
<path fill="none" stroke="midnightblue" d="M1034.67,-168.444C1014.68,-159.596 983.257,-145.687 960.436,-135.586"/>
<polygon fill="midnightblue" stroke="midnightblue" points="961.802,-132.363 951.241,-131.516 958.968,-138.764 961.802,-132.363"/>
</g>
<!-- Node29&#45;&gt;Node8 -->
<g id="edge41" class="edge"><title>Node29&#45;&gt;Node8</title>
<path fill="none" stroke="midnightblue" d="M1064.99,-168.25C1074.55,-159.978 1087.96,-146.675 1095,-132 1111.04,-98.5673 1114.04,-54.537 1114.33,-29.8599"/>
<polygon fill="midnightblue" stroke="midnightblue" points="1117.83,-29.7009 1114.3,-19.7108 1110.83,-29.7205 1117.83,-29.7009"/>
</g>
<!-- Node29&#45;&gt;Node10 -->
<g id="edge42" class="edge"><title>Node29&#45;&gt;Node10</title>
<path fill="none" stroke="midnightblue" d="M1053.34,-168.083C1052.82,-161.006 1052.06,-150.861 1051.41,-141.986"/>
<polygon fill="midnightblue" stroke="midnightblue" points="1054.88,-141.465 1050.65,-131.751 1047.9,-141.982 1054.88,-141.465"/>
</g>
<!-- Node30 -->
<g id="node30" class="node"><title>Node30</title>
<polygon fill="none" stroke="#bfbfbf" points="1142,-112.5 1142,-131.5 1192,-131.5 1192,-112.5 1142,-112.5"/>
<text text-anchor="middle" x="1167" y="-119.5" font-family="Helvetica,sans-Serif" font-size="10.00">iomanip</text>
</g>
<!-- Node29&#45;&gt;Node30 -->
<g id="edge40" class="edge"><title>Node29&#45;&gt;Node30</title>
<path fill="none" stroke="midnightblue" d="M1071.91,-168.444C1090.25,-159.675 1119.01,-145.935 1140.09,-135.858"/>
<polygon fill="midnightblue" stroke="midnightblue" points="1141.67,-138.986 1149.18,-131.516 1138.65,-132.67 1141.67,-138.986"/>
</g>
</g>
</svg>
