<?xml version="1.0" encoding="UTF-8" standalone="no"?>
<!DOCTYPE svg PUBLIC "-//W3C//DTD SVG 1.1//EN"
 "http://www.w3.org/Graphics/SVG/1.1/DTD/svg11.dtd">
<!-- Generated by graphviz version 2.36.0 (20140111.2315)
 -->
<!-- Title: /home/travis/build/igankevich/arma/src/io/binary_stream.hh Pages: 1 -->
<svg width="382pt" height="162pt"
 viewBox="0.00 0.00 382.00 162.00" xmlns="http://www.w3.org/2000/svg" xmlns:xlink="http://www.w3.org/1999/xlink">
<g id="graph0" class="graph" transform="scale(1 1) rotate(0) translate(4 158)">
<title>/home/travis/build/igankevich/arma/src/io/binary_stream.hh</title>
<!-- Node1 -->
<g id="node1" class="node"><title>Node1</title>
<polygon fill="#bfbfbf" stroke="black" points="113.5,-112.5 113.5,-153.5 220.5,-153.5 220.5,-112.5 113.5,-112.5"/>
<text text-anchor="start" x="121.5" y="-141.5" font-family="Helvetica,sans-Serif" font-size="10.00">/home/travis/build</text>
<text text-anchor="start" x="121.5" y="-130.5" font-family="Helvetica,sans-Serif" font-size="10.00">/igankevich/arma/src</text>
<text text-anchor="middle" x="167" y="-119.5" font-family="Helvetica,sans-Serif" font-size="10.00">/io/binary_stream.hh</text>
</g>
<!-- Node2 -->
<g id="node2" class="node"><title>Node2</title>
<polygon fill="none" stroke="#bfbfbf" points="0,-56.5 0,-75.5 60,-75.5 60,-56.5 0,-56.5"/>
<text text-anchor="middle" x="30" y="-63.5" font-family="Helvetica,sans-Serif" font-size="10.00">streambuf</text>
</g>
<!-- Node1&#45;&gt;Node2 -->
<g id="edge1" class="edge"><title>Node1&#45;&gt;Node2</title>
<path fill="none" stroke="midnightblue" d="M125.895,-112.498C103.78,-102.005 77.1032,-89.3482 57.5068,-80.0507"/>
<polygon fill="midnightblue" stroke="midnightblue" points="58.7718,-76.7769 48.2368,-75.6525 55.7712,-83.1012 58.7718,-76.7769"/>
</g>
<!-- Node3 -->
<g id="node3" class="node"><title>Node3</title>
<polygon fill="none" stroke="#bfbfbf" points="78,-56.5 78,-75.5 128,-75.5 128,-56.5 78,-56.5"/>
<text text-anchor="middle" x="103" y="-63.5" font-family="Helvetica,sans-Serif" font-size="10.00">fstream</text>
</g>
<!-- Node1&#45;&gt;Node3 -->
<g id="edge2" class="edge"><title>Node1&#45;&gt;Node3</title>
<path fill="none" stroke="midnightblue" d="M147.798,-112.498C138.457,-103.011 127.375,-91.7557 118.57,-82.8131"/>
<polygon fill="midnightblue" stroke="midnightblue" points="121.029,-80.3226 111.519,-75.6525 116.041,-85.2338 121.029,-80.3226"/>
</g>
<!-- Node4 -->
<g id="node4" class="node"><title>Node4</title>
<polygon fill="none" stroke="#bfbfbf" points="146.5,-56.5 146.5,-75.5 187.5,-75.5 187.5,-56.5 146.5,-56.5"/>
<text text-anchor="middle" x="167" y="-63.5" font-family="Helvetica,sans-Serif" font-size="10.00">string</text>
</g>
<!-- Node1&#45;&gt;Node4 -->
<g id="edge3" class="edge"><title>Node1&#45;&gt;Node4</title>
<path fill="none" stroke="midnightblue" d="M167,-112.498C167,-104.065 167,-94.2351 167,-85.874"/>
<polygon fill="midnightblue" stroke="midnightblue" points="170.5,-85.6525 167,-75.6525 163.5,-85.6525 170.5,-85.6525"/>
</g>
<!-- Node5 -->
<g id="node5" class="node"><title>Node5</title>
<g id="a_node5"><a xlink:href="types_8hh.html" target="_top" xlink:title="types.hh">
<polygon fill="none" stroke="black" points="206,-56.5 206,-75.5 260,-75.5 260,-56.5 206,-56.5"/>
<text text-anchor="middle" x="233" y="-63.5" font-family="Helvetica,sans-Serif" font-size="10.00">types.hh</text>
</a>
</g>
</g>
<!-- Node1&#45;&gt;Node5 -->
<g id="edge4" class="edge"><title>Node1&#45;&gt;Node5</title>
<path fill="none" stroke="midnightblue" d="M186.802,-112.498C196.435,-103.011 207.863,-91.7557 216.944,-82.8131"/>
<polygon fill="midnightblue" stroke="midnightblue" points="219.545,-85.1631 224.214,-75.6525 214.634,-80.1757 219.545,-85.1631"/>
</g>
<!-- Node7 -->
<g id="node7" class="node"><title>Node7</title>
<g id="a_node7"><a xlink:href="byte__swap_8hh.html" target="_top" xlink:title="bits/byte_swap.hh">
<polygon fill="none" stroke="black" points="278,-56.5 278,-75.5 374,-75.5 374,-56.5 278,-56.5"/>
<text text-anchor="middle" x="326" y="-63.5" font-family="Helvetica,sans-Serif" font-size="10.00">bits/byte_swap.hh</text>
</a>
</g>
</g>
<!-- Node1&#45;&gt;Node7 -->
<g id="edge6" class="edge"><title>Node1&#45;&gt;Node7</title>
<path fill="none" stroke="midnightblue" d="M214.705,-112.498C240.841,-101.813 272.466,-88.8851 295.314,-79.5446"/>
<polygon fill="midnightblue" stroke="midnightblue" points="296.903,-82.6764 304.835,-75.6525 294.254,-76.1969 296.903,-82.6764"/>
</g>
<!-- Node6 -->
<g id="node6" class="node"><title>Node6</title>
<polygon fill="none" stroke="#bfbfbf" points="199,-0.5 199,-19.5 267,-19.5 267,-0.5 199,-0.5"/>
<text text-anchor="middle" x="233" y="-7.5" font-family="Helvetica,sans-Serif" font-size="10.00">blitz/array.h</text>
</g>
<!-- Node5&#45;&gt;Node6 -->
<g id="edge5" class="edge"><title>Node5&#45;&gt;Node6</title>
<path fill="none" stroke="midnightblue" d="M233,-56.083C233,-49.0059 233,-38.8611 233,-29.9865"/>
<polygon fill="midnightblue" stroke="midnightblue" points="236.5,-29.751 233,-19.7511 229.5,-29.7511 236.5,-29.751"/>
</g>
<!-- Node8 -->
<g id="node8" class="node"><title>Node8</title>
<polygon fill="none" stroke="#bfbfbf" points="298,-0.5 298,-19.5 354,-19.5 354,-0.5 298,-0.5"/>
<text text-anchor="middle" x="326" y="-7.5" font-family="Helvetica,sans-Serif" font-size="10.00">algorithm</text>
</g>
<!-- Node7&#45;&gt;Node8 -->
<g id="edge7" class="edge"><title>Node7&#45;&gt;Node8</title>
<path fill="none" stroke="midnightblue" d="M326,-56.083C326,-49.0059 326,-38.8611 326,-29.9865"/>
<polygon fill="midnightblue" stroke="midnightblue" points="329.5,-29.751 326,-19.7511 322.5,-29.7511 329.5,-29.751"/>
</g>
</g>
</svg>
