<?xml version="1.0" encoding="UTF-8" standalone="no"?>
<!DOCTYPE svg PUBLIC "-//W3C//DTD SVG 1.1//EN"
 "http://www.w3.org/Graphics/SVG/1.1/DTD/svg11.dtd">
<!-- Generated by graphviz version 2.36.0 (20140111.2315)
 -->
<!-- Title: /home/travis/build/igankevich/arma/src/bits/fourier_gsl.hh Pages: 1 -->
<svg width="1111pt" height="710pt"
 viewBox="0.00 0.00 1111.00 710.00" xmlns="http://www.w3.org/2000/svg" xmlns:xlink="http://www.w3.org/1999/xlink">
<g id="graph0" class="graph" transform="scale(1 1) rotate(0) translate(4 706)">
<title>/home/travis/build/igankevich/arma/src/bits/fourier_gsl.hh</title>
<!-- Node1 -->
<g id="node1" class="node"><title>Node1</title>
<polygon fill="#bfbfbf" stroke="black" points="520.5,-660.5 520.5,-701.5 627.5,-701.5 627.5,-660.5 520.5,-660.5"/>
<text text-anchor="start" x="528.5" y="-689.5" font-family="Helvetica,sans-Serif" font-size="10.00">/home/travis/build</text>
<text text-anchor="start" x="528.5" y="-678.5" font-family="Helvetica,sans-Serif" font-size="10.00">/igankevich/arma/src</text>
<text text-anchor="middle" x="574" y="-667.5" font-family="Helvetica,sans-Serif" font-size="10.00">/bits/fourier_gsl.hh</text>
</g>
<!-- Node2 -->
<g id="node2" class="node"><title>Node2</title>
<g id="a_node2"><a xlink:href="apmath_2fourier__gsl_8hh.html" target="_top" xlink:title="/home/travis/build\l/igankevich/arma/src\l/apmath/fourier_gsl.hh">
<polygon fill="none" stroke="black" points="517.5,-582.5 517.5,-623.5 630.5,-623.5 630.5,-582.5 517.5,-582.5"/>
<text text-anchor="start" x="525.5" y="-611.5" font-family="Helvetica,sans-Serif" font-size="10.00">/home/travis/build</text>
<text text-anchor="start" x="525.5" y="-600.5" font-family="Helvetica,sans-Serif" font-size="10.00">/igankevich/arma/src</text>
<text text-anchor="middle" x="574" y="-589.5" font-family="Helvetica,sans-Serif" font-size="10.00">/apmath/fourier_gsl.hh</text>
</a>
</g>
</g>
<!-- Node1&#45;&gt;Node2 -->
<g id="edge1" class="edge"><title>Node1&#45;&gt;Node2</title>
<path fill="none" stroke="midnightblue" d="M574,-650.297C574,-641.301 574,-631.653 574,-623.506"/>
<polygon fill="midnightblue" stroke="midnightblue" points="570.5,-650.428 574,-660.428 577.5,-650.428 570.5,-650.428"/>
</g>
<!-- Node3 -->
<g id="node3" class="node"><title>Node3</title>
<g id="a_node3"><a xlink:href="fourier_8hh.html" target="_top" xlink:title="/home/travis/build\l/igankevich/arma/src\l/fourier.hh">
<polygon fill="none" stroke="black" points="520.5,-504.5 520.5,-545.5 627.5,-545.5 627.5,-504.5 520.5,-504.5"/>
<text text-anchor="start" x="528.5" y="-533.5" font-family="Helvetica,sans-Serif" font-size="10.00">/home/travis/build</text>
<text text-anchor="start" x="528.5" y="-522.5" font-family="Helvetica,sans-Serif" font-size="10.00">/igankevich/arma/src</text>
<text text-anchor="middle" x="574" y="-511.5" font-family="Helvetica,sans-Serif" font-size="10.00">/fourier.hh</text>
</a>
</g>
</g>
<!-- Node2&#45;&gt;Node3 -->
<g id="edge2" class="edge"><title>Node2&#45;&gt;Node3</title>
<path fill="none" stroke="midnightblue" d="M574,-572.297C574,-563.301 574,-553.653 574,-545.506"/>
<polygon fill="midnightblue" stroke="midnightblue" points="570.5,-572.428 574,-582.428 577.5,-572.428 570.5,-572.428"/>
</g>
<!-- Node4 -->
<g id="node4" class="node"><title>Node4</title>
<g id="a_node4"><a xlink:href="convolution_8hh.html" target="_top" xlink:title="/home/travis/build\l/igankevich/arma/src\l/apmath/convolution.hh">
<polygon fill="none" stroke="black" points="515,-426.5 515,-467.5 633,-467.5 633,-426.5 515,-426.5"/>
<text text-anchor="start" x="523" y="-455.5" font-family="Helvetica,sans-Serif" font-size="10.00">/home/travis/build</text>
<text text-anchor="start" x="523" y="-444.5" font-family="Helvetica,sans-Serif" font-size="10.00">/igankevich/arma/src</text>
<text text-anchor="middle" x="574" y="-433.5" font-family="Helvetica,sans-Serif" font-size="10.00">/apmath/convolution.hh</text>
</a>
</g>
</g>
<!-- Node3&#45;&gt;Node4 -->
<g id="edge3" class="edge"><title>Node3&#45;&gt;Node4</title>
<path fill="none" stroke="midnightblue" d="M574,-494.297C574,-485.301 574,-475.653 574,-467.506"/>
<polygon fill="midnightblue" stroke="midnightblue" points="570.5,-494.428 574,-504.428 577.5,-494.428 570.5,-494.428"/>
</g>
<!-- Node6 -->
<g id="node6" class="node"><title>Node6</title>
<g id="a_node6"><a xlink:href="arma_8hh.html" target="_top" xlink:title="/home/travis/build\l/igankevich/arma/src\l/arma.hh">
<polygon fill="none" stroke="black" points="294.5,-426.5 294.5,-467.5 401.5,-467.5 401.5,-426.5 294.5,-426.5"/>
<text text-anchor="start" x="302.5" y="-455.5" font-family="Helvetica,sans-Serif" font-size="10.00">/home/travis/build</text>
<text text-anchor="start" x="302.5" y="-444.5" font-family="Helvetica,sans-Serif" font-size="10.00">/igankevich/arma/src</text>
<text text-anchor="middle" x="348" y="-433.5" font-family="Helvetica,sans-Serif" font-size="10.00">/arma.hh</text>
</a>
</g>
</g>
<!-- Node3&#45;&gt;Node6 -->
<g id="edge5" class="edge"><title>Node3&#45;&gt;Node6</title>
<path fill="none" stroke="midnightblue" d="M510.953,-502.798C476.536,-491.224 434.378,-477.047 401.566,-466.013"/>
<polygon fill="midnightblue" stroke="midnightblue" points="509.847,-506.119 520.441,-505.989 512.078,-499.484 509.847,-506.119"/>
</g>
<!-- Node25 -->
<g id="node25" class="node"><title>Node25</title>
<g id="a_node25"><a xlink:href="linear__solver_8hh.html" target="_top" xlink:title="/home/travis/build\l/igankevich/arma/src\l/velocity/linear_solver.hh">
<polygon fill="none" stroke="black" points="792.5,-342.5 792.5,-383.5 917.5,-383.5 917.5,-342.5 792.5,-342.5"/>
<text text-anchor="start" x="800.5" y="-371.5" font-family="Helvetica,sans-Serif" font-size="10.00">/home/travis/build</text>
<text text-anchor="start" x="800.5" y="-360.5" font-family="Helvetica,sans-Serif" font-size="10.00">/igankevich/arma/src</text>
<text text-anchor="middle" x="855" y="-349.5" font-family="Helvetica,sans-Serif" font-size="10.00">/velocity/linear_solver.hh</text>
</a>
</g>
</g>
<!-- Node3&#45;&gt;Node25 -->
<g id="edge32" class="edge"><title>Node3&#45;&gt;Node25</title>
<path fill="none" stroke="midnightblue" d="M617.415,-499.28C673.383,-467.412 769.568,-412.644 820.702,-383.529"/>
<polygon fill="midnightblue" stroke="midnightblue" points="615.414,-496.391 608.456,-504.381 618.878,-502.474 615.414,-496.391"/>
</g>
<!-- Node5 -->
<g id="node5" class="node"><title>Node5</title>
<g id="a_node5"><a xlink:href="ma__model_8cc.html" target="_top" xlink:title="/home/travis/build\l/igankevich/arma/src\l/generator/ma_model.cc">
<polygon fill="none" stroke="black" points="513,-252.5 513,-293.5 635,-293.5 635,-252.5 513,-252.5"/>
<text text-anchor="start" x="521" y="-281.5" font-family="Helvetica,sans-Serif" font-size="10.00">/home/travis/build</text>
<text text-anchor="start" x="521" y="-270.5" font-family="Helvetica,sans-Serif" font-size="10.00">/igankevich/arma/src</text>
<text text-anchor="middle" x="574" y="-259.5" font-family="Helvetica,sans-Serif" font-size="10.00">/generator/ma_model.cc</text>
</a>
</g>
</g>
<!-- Node4&#45;&gt;Node5 -->
<g id="edge4" class="edge"><title>Node4&#45;&gt;Node5</title>
<path fill="none" stroke="midnightblue" d="M574,-416.113C574,-380.905 574,-323.428 574,-293.5"/>
<polygon fill="midnightblue" stroke="midnightblue" points="570.5,-416.269 574,-426.269 577.5,-416.269 570.5,-416.269"/>
</g>
<!-- Node7 -->
<g id="node7" class="node"><title>Node7</title>
<g id="a_node7"><a xlink:href="arma_8cc.html" target="_top" xlink:title="/home/travis/build\l/igankevich/arma/src\l/arma.cc">
<polygon fill="none" stroke="black" points="33.5,-342.5 33.5,-383.5 140.5,-383.5 140.5,-342.5 33.5,-342.5"/>
<text text-anchor="start" x="41.5" y="-371.5" font-family="Helvetica,sans-Serif" font-size="10.00">/home/travis/build</text>
<text text-anchor="start" x="41.5" y="-360.5" font-family="Helvetica,sans-Serif" font-size="10.00">/igankevich/arma/src</text>
<text text-anchor="middle" x="87" y="-349.5" font-family="Helvetica,sans-Serif" font-size="10.00">/arma.cc</text>
</a>
</g>
</g>
<!-- Node6&#45;&gt;Node7 -->
<g id="edge6" class="edge"><title>Node6&#45;&gt;Node7</title>
<path fill="none" stroke="midnightblue" d="M284.493,-430.257C245.107,-419.97 193.673,-405.586 149,-390 143.38,-388.039 137.538,-385.827 131.786,-383.543"/>
<polygon fill="midnightblue" stroke="midnightblue" points="283.677,-433.661 294.235,-432.782 285.433,-426.885 283.677,-433.661"/>
</g>
<!-- Node8 -->
<g id="node8" class="node"><title>Node8</title>
<g id="a_node8"><a xlink:href="arma__driver_8hh.html" target="_top" xlink:title="/home/travis/build\l/igankevich/arma/src\l/arma_driver.hh">
<polygon fill="none" stroke="black" points="142.5,-162.5 142.5,-203.5 249.5,-203.5 249.5,-162.5 142.5,-162.5"/>
<text text-anchor="start" x="150.5" y="-191.5" font-family="Helvetica,sans-Serif" font-size="10.00">/home/travis/build</text>
<text text-anchor="start" x="150.5" y="-180.5" font-family="Helvetica,sans-Serif" font-size="10.00">/igankevich/arma/src</text>
<text text-anchor="middle" x="196" y="-169.5" font-family="Helvetica,sans-Serif" font-size="10.00">/arma_driver.hh</text>
</a>
</g>
</g>
<!-- Node6&#45;&gt;Node8 -->
<g id="edge7" class="edge"><title>Node6&#45;&gt;Node8</title>
<path fill="none" stroke="midnightblue" d="M284.196,-444.352C199.44,-440.661 56.5925,-428.709 24,-390 -33.5415,-321.66 91.6151,-240.123 158.062,-203.5"/>
<polygon fill="midnightblue" stroke="midnightblue" points="284.098,-447.85 294.233,-444.762 284.384,-440.856 284.098,-447.85"/>
</g>
<!-- Node15 -->
<g id="node15" class="node"><title>Node15</title>
<g id="a_node15"><a xlink:href="ar__model_8hh.html" target="_top" xlink:title="/home/travis/build\l/igankevich/arma/src\l/generator/ar_model.hh">
<polygon fill="none" stroke="black" points="290,-342.5 290,-383.5 406,-383.5 406,-342.5 290,-342.5"/>
<text text-anchor="start" x="298" y="-371.5" font-family="Helvetica,sans-Serif" font-size="10.00">/home/travis/build</text>
<text text-anchor="start" x="298" y="-360.5" font-family="Helvetica,sans-Serif" font-size="10.00">/igankevich/arma/src</text>
<text text-anchor="middle" x="348" y="-349.5" font-family="Helvetica,sans-Serif" font-size="10.00">/generator/ar_model.hh</text>
</a>
</g>
</g>
<!-- Node6&#45;&gt;Node15 -->
<g id="edge14" class="edge"><title>Node6&#45;&gt;Node15</title>
<path fill="none" stroke="midnightblue" d="M348,-415.881C348,-405.133 348,-393.309 348,-383.667"/>
<polygon fill="midnightblue" stroke="midnightblue" points="344.5,-416.15 348,-426.15 351.5,-416.15 344.5,-416.15"/>
</g>
<!-- Node21 -->
<g id="node21" class="node"><title>Node21</title>
<g id="a_node21"><a xlink:href="ma__model_8hh.html" target="_top" xlink:title="/home/travis/build\l/igankevich/arma/src\l/generator/ma_model.hh">
<polygon fill="none" stroke="black" points="424,-342.5 424,-383.5 546,-383.5 546,-342.5 424,-342.5"/>
<text text-anchor="start" x="432" y="-371.5" font-family="Helvetica,sans-Serif" font-size="10.00">/home/travis/build</text>
<text text-anchor="start" x="432" y="-360.5" font-family="Helvetica,sans-Serif" font-size="10.00">/igankevich/arma/src</text>
<text text-anchor="middle" x="485" y="-349.5" font-family="Helvetica,sans-Serif" font-size="10.00">/generator/ma_model.hh</text>
</a>
</g>
</g>
<!-- Node6&#45;&gt;Node21 -->
<g id="edge24" class="edge"><title>Node6&#45;&gt;Node21</title>
<path fill="none" stroke="midnightblue" d="M389.439,-421.197C409.473,-409.206 433.186,-395.013 451.978,-383.765"/>
<polygon fill="midnightblue" stroke="midnightblue" points="387.598,-418.22 380.815,-426.359 391.193,-424.226 387.598,-418.22"/>
</g>
<!-- Node22 -->
<g id="node22" class="node"><title>Node22</title>
<g id="a_node22"><a xlink:href="basic__arma__model_8cc.html" target="_top" xlink:title="/home/travis/build\l/igankevich/arma/src\l/generator/basic_arma\l_model.cc">
<polygon fill="none" stroke="black" points="158.5,-337 158.5,-389 271.5,-389 271.5,-337 158.5,-337"/>
<text text-anchor="start" x="166.5" y="-377" font-family="Helvetica,sans-Serif" font-size="10.00">/home/travis/build</text>
<text text-anchor="start" x="166.5" y="-366" font-family="Helvetica,sans-Serif" font-size="10.00">/igankevich/arma/src</text>
<text text-anchor="start" x="166.5" y="-355" font-family="Helvetica,sans-Serif" font-size="10.00">/generator/basic_arma</text>
<text text-anchor="middle" x="215" y="-344" font-family="Helvetica,sans-Serif" font-size="10.00">_model.cc</text>
</a>
</g>
</g>
<!-- Node6&#45;&gt;Node22 -->
<g id="edge28" class="edge"><title>Node6&#45;&gt;Node22</title>
<path fill="none" stroke="midnightblue" d="M307.324,-420.921C290.934,-410.816 272.065,-399.183 255.675,-389.078"/>
<polygon fill="midnightblue" stroke="midnightblue" points="305.794,-424.09 316.143,-426.359 309.468,-418.132 305.794,-424.09"/>
</g>
<!-- Node23 -->
<g id="node23" class="node"><title>Node23</title>
<g id="a_node23"><a xlink:href="ma__coefficient__solver_8hh.html" target="_top" xlink:title="/home/travis/build\l/igankevich/arma/src\l/generator/ma_coefficient\l_solver.hh">
<polygon fill="none" stroke="black" points="602.5,-337 602.5,-389 729.5,-389 729.5,-337 602.5,-337"/>
<text text-anchor="start" x="610.5" y="-377" font-family="Helvetica,sans-Serif" font-size="10.00">/home/travis/build</text>
<text text-anchor="start" x="610.5" y="-366" font-family="Helvetica,sans-Serif" font-size="10.00">/igankevich/arma/src</text>
<text text-anchor="start" x="610.5" y="-355" font-family="Helvetica,sans-Serif" font-size="10.00">/generator/ma_coefficient</text>
<text text-anchor="middle" x="666" y="-344" font-family="Helvetica,sans-Serif" font-size="10.00">_solver.hh</text>
</a>
</g>
</g>
<!-- Node6&#45;&gt;Node23 -->
<g id="edge29" class="edge"><title>Node6&#45;&gt;Node23</title>
<path fill="none" stroke="midnightblue" d="M411.287,-429.681C466.696,-415.393 546.804,-394.736 602.327,-380.419"/>
<polygon fill="midnightblue" stroke="midnightblue" points="410.394,-426.296 401.585,-432.183 412.142,-433.075 410.394,-426.296"/>
</g>
<!-- Node9 -->
<g id="node9" class="node"><title>Node9</title>
<g id="a_node9"><a xlink:href="arma__driver_8cc.html" target="_top" xlink:title="/home/travis/build\l/igankevich/arma/src\l/arma_driver.cc">
<polygon fill="none" stroke="black" points="142.5,-78.5 142.5,-119.5 249.5,-119.5 249.5,-78.5 142.5,-78.5"/>
<text text-anchor="start" x="150.5" y="-107.5" font-family="Helvetica,sans-Serif" font-size="10.00">/home/travis/build</text>
<text text-anchor="start" x="150.5" y="-96.5" font-family="Helvetica,sans-Serif" font-size="10.00">/igankevich/arma/src</text>
<text text-anchor="middle" x="196" y="-85.5" font-family="Helvetica,sans-Serif" font-size="10.00">/arma_driver.cc</text>
</a>
</g>
</g>
<!-- Node8&#45;&gt;Node9 -->
<g id="edge8" class="edge"><title>Node8&#45;&gt;Node9</title>
<path fill="none" stroke="midnightblue" d="M196,-151.881C196,-141.133 196,-129.309 196,-119.667"/>
<polygon fill="midnightblue" stroke="midnightblue" points="192.5,-152.15 196,-162.15 199.5,-152.15 192.5,-152.15"/>
</g>
<!-- Node10 -->
<g id="node10" class="node"><title>Node10</title>
<g id="a_node10"><a xlink:href="arma__main_8cc.html" target="_top" xlink:title="/home/travis/build\l/igankevich/arma/src\l/arma_main.cc">
<polygon fill="none" stroke="black" points="390.5,-0.5 390.5,-41.5 497.5,-41.5 497.5,-0.5 390.5,-0.5"/>
<text text-anchor="start" x="398.5" y="-29.5" font-family="Helvetica,sans-Serif" font-size="10.00">/home/travis/build</text>
<text text-anchor="start" x="398.5" y="-18.5" font-family="Helvetica,sans-Serif" font-size="10.00">/igankevich/arma/src</text>
<text text-anchor="middle" x="444" y="-7.5" font-family="Helvetica,sans-Serif" font-size="10.00">/arma_main.cc</text>
</a>
</g>
</g>
<!-- Node8&#45;&gt;Node10 -->
<g id="edge9" class="edge"><title>Node8&#45;&gt;Node10</title>
<path fill="none" stroke="midnightblue" d="M223.247,-155.187C234.146,-144.35 246.757,-131.667 258,-120 275.676,-101.657 275.879,-92.24 297,-78 325.305,-58.9166 361.016,-45.1179 390.152,-35.9929"/>
<polygon fill="midnightblue" stroke="midnightblue" points="220.65,-152.834 216.013,-162.36 225.578,-157.804 220.65,-152.834"/>
</g>
<!-- Node11 -->
<g id="node11" class="node"><title>Node11</title>
<g id="a_node11"><a xlink:href="arma__realtime__driver_8hh.html" target="_top" xlink:title="/home/travis/build\l/igankevich/arma/src\l/arma_realtime_driver.hh">
<polygon fill="none" stroke="black" points="0,-78.5 0,-119.5 124,-119.5 124,-78.5 0,-78.5"/>
<text text-anchor="start" x="8" y="-107.5" font-family="Helvetica,sans-Serif" font-size="10.00">/home/travis/build</text>
<text text-anchor="start" x="8" y="-96.5" font-family="Helvetica,sans-Serif" font-size="10.00">/igankevich/arma/src</text>
<text text-anchor="middle" x="62" y="-85.5" font-family="Helvetica,sans-Serif" font-size="10.00">/arma_realtime_driver.hh</text>
</a>
</g>
</g>
<!-- Node8&#45;&gt;Node11 -->
<g id="edge10" class="edge"><title>Node8&#45;&gt;Node11</title>
<path fill="none" stroke="midnightblue" d="M155.205,-157.036C135.666,-145.079 112.597,-130.963 94.2989,-119.765"/>
<polygon fill="midnightblue" stroke="midnightblue" points="153.547,-160.125 163.904,-162.359 157.201,-154.154 153.547,-160.125"/>
</g>
<!-- Node14 -->
<g id="node14" class="node"><title>Node14</title>
<g id="a_node14"><a xlink:href="visual_8cc.html" target="_top" xlink:title="/home/travis/build\l/igankevich/arma/src\l/visual.cc">
<polygon fill="none" stroke="black" points="306.5,-78.5 306.5,-119.5 413.5,-119.5 413.5,-78.5 306.5,-78.5"/>
<text text-anchor="start" x="314.5" y="-107.5" font-family="Helvetica,sans-Serif" font-size="10.00">/home/travis/build</text>
<text text-anchor="start" x="314.5" y="-96.5" font-family="Helvetica,sans-Serif" font-size="10.00">/igankevich/arma/src</text>
<text text-anchor="middle" x="360" y="-85.5" font-family="Helvetica,sans-Serif" font-size="10.00">/visual.cc</text>
</a>
</g>
</g>
<!-- Node8&#45;&gt;Node14 -->
<g id="edge13" class="edge"><title>Node8&#45;&gt;Node14</title>
<path fill="none" stroke="midnightblue" d="M244.354,-157.823C268.695,-145.652 297.822,-131.089 320.755,-119.623"/>
<polygon fill="midnightblue" stroke="midnightblue" points="242.661,-154.756 235.282,-162.359 245.792,-161.017 242.661,-154.756"/>
</g>
<!-- Node12 -->
<g id="node12" class="node"><title>Node12</title>
<g id="a_node12"><a xlink:href="arma__realtime_8cc.html" target="_top" xlink:title="/home/travis/build\l/igankevich/arma/src\l/arma_realtime.cc">
<polygon fill="none" stroke="black" points="224.5,-0.5 224.5,-41.5 331.5,-41.5 331.5,-0.5 224.5,-0.5"/>
<text text-anchor="start" x="232.5" y="-29.5" font-family="Helvetica,sans-Serif" font-size="10.00">/home/travis/build</text>
<text text-anchor="start" x="232.5" y="-18.5" font-family="Helvetica,sans-Serif" font-size="10.00">/igankevich/arma/src</text>
<text text-anchor="middle" x="278" y="-7.5" font-family="Helvetica,sans-Serif" font-size="10.00">/arma_realtime.cc</text>
</a>
</g>
</g>
<!-- Node11&#45;&gt;Node12 -->
<g id="edge11" class="edge"><title>Node11&#45;&gt;Node12</title>
<path fill="none" stroke="midnightblue" d="M127.082,-75.1007C158.187,-64.1563 194.965,-51.216 224.427,-40.8498"/>
<polygon fill="midnightblue" stroke="midnightblue" points="125.897,-71.8074 117.625,-78.4281 128.22,-78.4106 125.897,-71.8074"/>
</g>
<!-- Node13 -->
<g id="node13" class="node"><title>Node13</title>
<g id="a_node13"><a xlink:href="arma__realtime__driver_8cc.html" target="_top" xlink:title="/home/travis/build\l/igankevich/arma/src\l/arma_realtime_driver.cc">
<polygon fill="none" stroke="black" points="0,-0.5 0,-41.5 124,-41.5 124,-0.5 0,-0.5"/>
<text text-anchor="start" x="8" y="-29.5" font-family="Helvetica,sans-Serif" font-size="10.00">/home/travis/build</text>
<text text-anchor="start" x="8" y="-18.5" font-family="Helvetica,sans-Serif" font-size="10.00">/igankevich/arma/src</text>
<text text-anchor="middle" x="62" y="-7.5" font-family="Helvetica,sans-Serif" font-size="10.00">/arma_realtime_driver.cc</text>
</a>
</g>
</g>
<!-- Node11&#45;&gt;Node13 -->
<g id="edge12" class="edge"><title>Node11&#45;&gt;Node13</title>
<path fill="none" stroke="midnightblue" d="M62,-68.2965C62,-59.3009 62,-49.6532 62,-41.5056"/>
<polygon fill="midnightblue" stroke="midnightblue" points="58.5001,-68.4281 62,-78.4281 65.5001,-68.4281 58.5001,-68.4281"/>
</g>
<!-- Node16 -->
<g id="node16" class="node"><title>Node16</title>
<g id="a_node16"><a xlink:href="register__all_8hh.html" target="_top" xlink:title="/home/travis/build\l/igankevich/arma/src\l/register_all.hh">
<polygon fill="none" stroke="black" points="431.5,-162.5 431.5,-203.5 538.5,-203.5 538.5,-162.5 431.5,-162.5"/>
<text text-anchor="start" x="439.5" y="-191.5" font-family="Helvetica,sans-Serif" font-size="10.00">/home/travis/build</text>
<text text-anchor="start" x="439.5" y="-180.5" font-family="Helvetica,sans-Serif" font-size="10.00">/igankevich/arma/src</text>
<text text-anchor="middle" x="485" y="-169.5" font-family="Helvetica,sans-Serif" font-size="10.00">/register_all.hh</text>
</a>
</g>
</g>
<!-- Node15&#45;&gt;Node16 -->
<g id="edge15" class="edge"><title>Node15&#45;&gt;Node16</title>
<path fill="none" stroke="midnightblue" d="M328.427,-333.459C313.896,-308.385 299.517,-271.957 318,-246 346.371,-206.156 376.263,-227.337 422,-210 427.311,-207.987 432.845,-205.815 438.332,-203.614"/>
<polygon fill="midnightblue" stroke="midnightblue" points="325.529,-335.43 333.727,-342.142 331.504,-331.783 325.529,-335.43"/>
</g>
<!-- Node18 -->
<g id="node18" class="node"><title>Node18</title>
<g id="a_node18"><a xlink:href="arma__model_8hh.html" target="_top" xlink:title="/home/travis/build\l/igankevich/arma/src\l/generator/arma_model.hh">
<polygon fill="none" stroke="black" points="327,-252.5 327,-293.5 457,-293.5 457,-252.5 327,-252.5"/>
<text text-anchor="start" x="335" y="-281.5" font-family="Helvetica,sans-Serif" font-size="10.00">/home/travis/build</text>
<text text-anchor="start" x="335" y="-270.5" font-family="Helvetica,sans-Serif" font-size="10.00">/igankevich/arma/src</text>
<text text-anchor="middle" x="392" y="-259.5" font-family="Helvetica,sans-Serif" font-size="10.00">/generator/arma_model.hh</text>
</a>
</g>
</g>
<!-- Node15&#45;&gt;Node18 -->
<g id="edge20" class="edge"><title>Node15&#45;&gt;Node18</title>
<path fill="none" stroke="midnightblue" d="M362.266,-333.468C368.749,-320.501 376.26,-305.481 382.11,-293.78"/>
<polygon fill="midnightblue" stroke="midnightblue" points="359.107,-331.96 357.765,-342.47 365.368,-335.091 359.107,-331.96"/>
</g>
<!-- Node20 -->
<g id="node20" class="node"><title>Node20</title>
<g id="a_node20"><a xlink:href="ar__model_8cc.html" target="_top" xlink:title="/home/travis/build\l/igankevich/arma/src\l/generator/ar_model.cc">
<polygon fill="none" stroke="black" points="155,-252.5 155,-293.5 271,-293.5 271,-252.5 155,-252.5"/>
<text text-anchor="start" x="163" y="-281.5" font-family="Helvetica,sans-Serif" font-size="10.00">/home/travis/build</text>
<text text-anchor="start" x="163" y="-270.5" font-family="Helvetica,sans-Serif" font-size="10.00">/igankevich/arma/src</text>
<text text-anchor="middle" x="213" y="-259.5" font-family="Helvetica,sans-Serif" font-size="10.00">/generator/ar_model.cc</text>
</a>
</g>
</g>
<!-- Node15&#45;&gt;Node20 -->
<g id="edge23" class="edge"><title>Node15&#45;&gt;Node20</title>
<path fill="none" stroke="midnightblue" d="M309.646,-336.999C288.631,-323.3 262.95,-306.56 243.344,-293.78"/>
<polygon fill="midnightblue" stroke="midnightblue" points="307.75,-339.941 318.039,-342.47 311.573,-334.077 307.75,-339.941"/>
</g>
<!-- Node16&#45;&gt;Node14 -->
<g id="edge19" class="edge"><title>Node16&#45;&gt;Node14</title>
<path fill="none" stroke="midnightblue" d="M446.451,-156.712C428.331,-144.825 407.045,-130.862 390.13,-119.765"/>
<polygon fill="midnightblue" stroke="midnightblue" points="444.778,-159.8 455.059,-162.359 448.618,-153.947 444.778,-159.8"/>
</g>
<!-- Node17 -->
<g id="node17" class="node"><title>Node17</title>
<g id="a_node17"><a xlink:href="common__main_8hh.html" target="_top" xlink:title="/home/travis/build\l/igankevich/arma/src\l/common_main.hh">
<polygon fill="none" stroke="black" points="431.5,-78.5 431.5,-119.5 538.5,-119.5 538.5,-78.5 431.5,-78.5"/>
<text text-anchor="start" x="439.5" y="-107.5" font-family="Helvetica,sans-Serif" font-size="10.00">/home/travis/build</text>
<text text-anchor="start" x="439.5" y="-96.5" font-family="Helvetica,sans-Serif" font-size="10.00">/igankevich/arma/src</text>
<text text-anchor="middle" x="485" y="-85.5" font-family="Helvetica,sans-Serif" font-size="10.00">/common_main.hh</text>
</a>
</g>
</g>
<!-- Node16&#45;&gt;Node17 -->
<g id="edge16" class="edge"><title>Node16&#45;&gt;Node17</title>
<path fill="none" stroke="midnightblue" d="M485,-151.881C485,-141.133 485,-129.309 485,-119.667"/>
<polygon fill="midnightblue" stroke="midnightblue" points="481.5,-152.15 485,-162.15 488.5,-152.15 481.5,-152.15"/>
</g>
<!-- Node17&#45;&gt;Node10 -->
<g id="edge17" class="edge"><title>Node17&#45;&gt;Node10</title>
<path fill="none" stroke="midnightblue" d="M469.607,-69.466C464.577,-60.1427 459.109,-50.0074 454.523,-41.5056"/>
<polygon fill="midnightblue" stroke="midnightblue" points="466.613,-71.2889 474.441,-78.4281 472.774,-67.9653 466.613,-71.2889"/>
</g>
<!-- Node17&#45;&gt;Node12 -->
<g id="edge18" class="edge"><title>Node17&#45;&gt;Node12</title>
<path fill="none" stroke="midnightblue" d="M422.048,-74.8874C392.99,-64.2185 358.866,-51.6901 331.127,-41.5056"/>
<polygon fill="midnightblue" stroke="midnightblue" points="421.099,-78.2671 431.692,-78.4281 423.511,-71.6959 421.099,-78.2671"/>
</g>
<!-- Node18&#45;&gt;Node16 -->
<g id="edge21" class="edge"><title>Node18&#45;&gt;Node16</title>
<path fill="none" stroke="midnightblue" d="M420.174,-245.341C434.307,-231.967 451.13,-216.049 464.096,-203.78"/>
<polygon fill="midnightblue" stroke="midnightblue" points="417.498,-243.055 412.64,-252.47 422.309,-248.139 417.498,-243.055"/>
</g>
<!-- Node19 -->
<g id="node19" class="node"><title>Node19</title>
<g id="a_node19"><a xlink:href="arma__model_8cc.html" target="_top" xlink:title="/home/travis/build\l/igankevich/arma/src\l/generator/arma_model.cc">
<polygon fill="none" stroke="black" points="283,-162.5 283,-203.5 413,-203.5 413,-162.5 283,-162.5"/>
<text text-anchor="start" x="291" y="-191.5" font-family="Helvetica,sans-Serif" font-size="10.00">/home/travis/build</text>
<text text-anchor="start" x="291" y="-180.5" font-family="Helvetica,sans-Serif" font-size="10.00">/igankevich/arma/src</text>
<text text-anchor="middle" x="348" y="-169.5" font-family="Helvetica,sans-Serif" font-size="10.00">/generator/arma_model.cc</text>
</a>
</g>
</g>
<!-- Node18&#45;&gt;Node19 -->
<g id="edge22" class="edge"><title>Node18&#45;&gt;Node19</title>
<path fill="none" stroke="midnightblue" d="M377.734,-243.468C371.251,-230.501 363.74,-215.481 357.89,-203.78"/>
<polygon fill="midnightblue" stroke="midnightblue" points="374.632,-245.091 382.235,-252.47 380.893,-241.96 374.632,-245.091"/>
</g>
<!-- Node21&#45;&gt;Node5 -->
<g id="edge27" class="edge"><title>Node21&#45;&gt;Node5</title>
<path fill="none" stroke="midnightblue" d="M511.962,-335.341C525.488,-321.967 541.587,-306.049 553.995,-293.78"/>
<polygon fill="midnightblue" stroke="midnightblue" points="509.402,-332.95 504.752,-342.47 514.324,-337.928 509.402,-332.95"/>
</g>
<!-- Node21&#45;&gt;Node16 -->
<g id="edge25" class="edge"><title>Node21&#45;&gt;Node16</title>
<path fill="none" stroke="midnightblue" d="M485,-332.206C485,-295.635 485,-234.653 485,-203.546"/>
<polygon fill="midnightblue" stroke="midnightblue" points="481.5,-332.271 485,-342.271 488.5,-332.271 481.5,-332.271"/>
</g>
<!-- Node21&#45;&gt;Node18 -->
<g id="edge26" class="edge"><title>Node21&#45;&gt;Node18</title>
<path fill="none" stroke="midnightblue" d="M456.826,-335.341C442.693,-321.967 425.87,-306.049 412.904,-293.78"/>
<polygon fill="midnightblue" stroke="midnightblue" points="454.691,-338.139 464.36,-342.47 459.502,-333.055 454.691,-338.139"/>
</g>
<!-- Node23&#45;&gt;Node5 -->
<g id="edge31" class="edge"><title>Node23&#45;&gt;Node5</title>
<path fill="none" stroke="midnightblue" d="M632.121,-329.594C619.463,-317.487 605.487,-304.118 594.412,-293.525"/>
<polygon fill="midnightblue" stroke="midnightblue" points="629.744,-332.164 639.39,-336.547 634.583,-327.105 629.744,-332.164"/>
</g>
<!-- Node24 -->
<g id="node24" class="node"><title>Node24</title>
<g id="a_node24"><a xlink:href="ma__coefficient__solver_8cc.html" target="_top" xlink:title="/home/travis/build\l/igankevich/arma/src\l/generator/ma_coefficient\l_solver.cc">
<polygon fill="none" stroke="black" points="653.5,-247 653.5,-299 780.5,-299 780.5,-247 653.5,-247"/>
<text text-anchor="start" x="661.5" y="-287" font-family="Helvetica,sans-Serif" font-size="10.00">/home/travis/build</text>
<text text-anchor="start" x="661.5" y="-276" font-family="Helvetica,sans-Serif" font-size="10.00">/igankevich/arma/src</text>
<text text-anchor="start" x="661.5" y="-265" font-family="Helvetica,sans-Serif" font-size="10.00">/generator/ma_coefficient</text>
<text text-anchor="middle" x="717" y="-254" font-family="Helvetica,sans-Serif" font-size="10.00">_solver.cc</text>
</a>
</g>
</g>
<!-- Node23&#45;&gt;Node24 -->
<g id="edge30" class="edge"><title>Node23&#45;&gt;Node24</title>
<path fill="none" stroke="midnightblue" d="M685.895,-327.671C691.416,-318.145 697.306,-307.983 702.458,-299.092"/>
<polygon fill="midnightblue" stroke="midnightblue" points="682.737,-326.14 680.751,-336.547 688.794,-329.65 682.737,-326.14"/>
</g>
<!-- Node25&#45;&gt;Node16 -->
<g id="edge36" class="edge"><title>Node25&#45;&gt;Node16</title>
<path fill="none" stroke="midnightblue" d="M841.81,-332.773C827.456,-302.236 804.488,-257.23 789,-246 749.699,-217.504 615.031,-198.399 538.776,-189.588"/>
<polygon fill="midnightblue" stroke="midnightblue" points="838.763,-334.521 846.148,-342.118 845.112,-331.574 838.763,-334.521"/>
</g>
<!-- Node26 -->
<g id="node26" class="node"><title>Node26</title>
<g id="a_node26"><a xlink:href="high__amplitude__solver_8hh.html" target="_top" xlink:title="/home/travis/build\l/igankevich/arma/src\l/velocity/high_amplitude\l_solver.hh">
<polygon fill="none" stroke="black" points="981,-247 981,-299 1103,-299 1103,-247 981,-247"/>
<text text-anchor="start" x="989" y="-287" font-family="Helvetica,sans-Serif" font-size="10.00">/home/travis/build</text>
<text text-anchor="start" x="989" y="-276" font-family="Helvetica,sans-Serif" font-size="10.00">/igankevich/arma/src</text>
<text text-anchor="start" x="989" y="-265" font-family="Helvetica,sans-Serif" font-size="10.00">/velocity/high_amplitude</text>
<text text-anchor="middle" x="1042" y="-254" font-family="Helvetica,sans-Serif" font-size="10.00">_solver.hh</text>
</a>
</g>
</g>
<!-- Node25&#45;&gt;Node26 -->
<g id="edge33" class="edge"><title>Node25&#45;&gt;Node26</title>
<path fill="none" stroke="midnightblue" d="M905.724,-338.13C931.487,-326.006 962.775,-311.282 988.871,-299.002"/>
<polygon fill="midnightblue" stroke="midnightblue" points="904.059,-335.045 896.501,-342.47 907.04,-341.379 904.059,-335.045"/>
</g>
<!-- Node28 -->
<g id="node28" class="node"><title>Node28</title>
<g id="a_node28"><a xlink:href="linear__solver_8cc.html" target="_top" xlink:title="/home/travis/build\l/igankevich/arma/src\l/velocity/linear_solver.cc">
<polygon fill="none" stroke="black" points="837.5,-252.5 837.5,-293.5 962.5,-293.5 962.5,-252.5 837.5,-252.5"/>
<text text-anchor="start" x="845.5" y="-281.5" font-family="Helvetica,sans-Serif" font-size="10.00">/home/travis/build</text>
<text text-anchor="start" x="845.5" y="-270.5" font-family="Helvetica,sans-Serif" font-size="10.00">/igankevich/arma/src</text>
<text text-anchor="middle" x="900" y="-259.5" font-family="Helvetica,sans-Serif" font-size="10.00">/velocity/linear_solver.cc</text>
</a>
</g>
</g>
<!-- Node25&#45;&gt;Node28 -->
<g id="edge37" class="edge"><title>Node25&#45;&gt;Node28</title>
<path fill="none" stroke="midnightblue" d="M869.59,-333.468C876.221,-320.501 883.902,-305.481 889.885,-293.78"/>
<polygon fill="midnightblue" stroke="midnightblue" points="866.424,-331.973 864.987,-342.47 872.656,-335.16 866.424,-331.973"/>
</g>
<!-- Node26&#45;&gt;Node16 -->
<g id="edge34" class="edge"><title>Node26&#45;&gt;Node16</title>
<path fill="none" stroke="midnightblue" d="M971.299,-246.073C971.199,-246.049 971.1,-246.024 971,-246 816.666,-208.402 628.874,-192.665 538.568,-186.902"/>
<polygon fill="midnightblue" stroke="midnightblue" points="970.122,-249.381 980.687,-248.593 971.937,-242.62 970.122,-249.381"/>
</g>
<!-- Node27 -->
<g id="node27" class="node"><title>Node27</title>
<g id="a_node27"><a xlink:href="high__amplitude__solver_8cc.html" target="_top" xlink:title="/home/travis/build\l/igankevich/arma/src\l/velocity/high_amplitude\l_solver.cc">
<polygon fill="none" stroke="black" points="981,-157 981,-209 1103,-209 1103,-157 981,-157"/>
<text text-anchor="start" x="989" y="-197" font-family="Helvetica,sans-Serif" font-size="10.00">/home/travis/build</text>
<text text-anchor="start" x="989" y="-186" font-family="Helvetica,sans-Serif" font-size="10.00">/igankevich/arma/src</text>
<text text-anchor="start" x="989" y="-175" font-family="Helvetica,sans-Serif" font-size="10.00">/velocity/high_amplitude</text>
<text text-anchor="middle" x="1042" y="-164" font-family="Helvetica,sans-Serif" font-size="10.00">_solver.cc</text>
</a>
</g>
</g>
<!-- Node26&#45;&gt;Node27 -->
<g id="edge35" class="edge"><title>Node26&#45;&gt;Node27</title>
<path fill="none" stroke="midnightblue" d="M1042,-236.489C1042,-227.309 1042,-217.616 1042,-209.092"/>
<polygon fill="midnightblue" stroke="midnightblue" points="1038.5,-236.547 1042,-246.547 1045.5,-236.547 1038.5,-236.547"/>
</g>
</g>
</svg>
