<?xml version="1.0" encoding="UTF-8" standalone="no"?>
<!DOCTYPE svg PUBLIC "-//W3C//DTD SVG 1.1//EN"
 "http://www.w3.org/Graphics/SVG/1.1/DTD/svg11.dtd">
<!-- Generated by graphviz version 2.40.1 (20161225.0304)
 -->
<!-- Title: src/bits/fourier_gsl.hh Pages: 1 -->
<svg width="317pt" height="95pt"
 viewBox="0.00 0.00 316.50 95.00" xmlns="http://www.w3.org/2000/svg" xmlns:xlink="http://www.w3.org/1999/xlink">
<g id="graph0" class="graph" transform="scale(1 1) rotate(0) translate(4 91)">
<title>src/bits/fourier_gsl.hh</title>
<!-- Node0 -->
<g id="node1" class="node">
<title>Node0</title>
<polygon fill="#bfbfbf" stroke="#000000" points="122.5,-67.5 122.5,-86.5 232.5,-86.5 232.5,-67.5 122.5,-67.5"/>
<text text-anchor="middle" x="177.5" y="-74.5" font-family="Helvetica,sans-Serif" font-size="10.00" fill="#000000">src/bits/fourier_gsl.hh</text>
</g>
<!-- Node1 -->
<g id="node2" class="node">
<title>Node1</title>
<polygon fill="none" stroke="#bfbfbf" points="0,-6 0,-25 109,-25 109,-6 0,-6"/>
<text text-anchor="middle" x="54.5" y="-13" font-family="Helvetica,sans-Serif" font-size="10.00" fill="#000000">gsl/gsl_fft_complex.h</text>
</g>
<!-- Node0&#45;&gt;Node1 -->
<g id="edge1" class="edge">
<title>Node0&#45;&gt;Node1</title>
<path fill="none" stroke="#191970" d="M158.2813,-67.3906C137.9719,-57.2359 105.7393,-41.1196 82.5832,-29.5416"/>
<polygon fill="#191970" stroke="#191970" points="84.0933,-26.3836 73.5838,-25.0419 80.9628,-32.6446 84.0933,-26.3836"/>
</g>
<!-- Node2 -->
<g id="node3" class="node">
<title>Node2</title>
<polygon fill="none" stroke="#bfbfbf" points="127,-.5 127,-30.5 228,-30.5 228,-.5 127,-.5"/>
<text text-anchor="start" x="135" y="-18.5" font-family="Helvetica,sans-Serif" font-size="10.00" fill="#000000">gsl/gsl_fft_complex</text>
<text text-anchor="middle" x="177.5" y="-7.5" font-family="Helvetica,sans-Serif" font-size="10.00" fill="#000000">_float.h</text>
</g>
<!-- Node0&#45;&gt;Node2 -->
<g id="edge2" class="edge">
<title>Node0&#45;&gt;Node2</title>
<path fill="none" stroke="#191970" d="M177.5,-67.3906C177.5,-60.2234 177.5,-50.0862 177.5,-40.671"/>
<polygon fill="#191970" stroke="#191970" points="181.0001,-40.5446 177.5,-30.5446 174.0001,-40.5446 181.0001,-40.5446"/>
</g>
<!-- Node3 -->
<g id="node4" class="node">
<title>Node3</title>
<polygon fill="none" stroke="#bfbfbf" points="246.5,-6 246.5,-25 308.5,-25 308.5,-6 246.5,-6"/>
<text text-anchor="middle" x="277.5" y="-13" font-family="Helvetica,sans-Serif" font-size="10.00" fill="#000000">type_traits</text>
</g>
<!-- Node0&#45;&gt;Node3 -->
<g id="edge3" class="edge">
<title>Node0&#45;&gt;Node3</title>
<path fill="none" stroke="#191970" d="M193.125,-67.3906C209.2698,-57.4616 234.6822,-41.833 253.4023,-30.3201"/>
<polygon fill="#191970" stroke="#191970" points="255.3002,-33.2619 261.9847,-25.0419 251.6331,-27.2992 255.3002,-33.2619"/>
</g>
</g>
</svg>
