<?xml version="1.0" encoding="UTF-8" standalone="no"?>
<!DOCTYPE svg PUBLIC "-//W3C//DTD SVG 1.1//EN"
 "http://www.w3.org/Graphics/SVG/1.1/DTD/svg11.dtd">
<!-- Generated by graphviz version 2.36.0 (20140111.2315)
 -->
<!-- Title: /home/travis/build/igankevich/arma/src/blitz.hh Pages: 1 -->
<svg width="212pt" height="106pt"
 viewBox="0.00 0.00 212.00 106.00" xmlns="http://www.w3.org/2000/svg" xmlns:xlink="http://www.w3.org/1999/xlink">
<g id="graph0" class="graph" transform="scale(1 1) rotate(0) translate(4 102)">
<title>/home/travis/build/igankevich/arma/src/blitz.hh</title>
<!-- Node1 -->
<g id="node1" class="node"><title>Node1</title>
<polygon fill="#bfbfbf" stroke="black" points="36.5,-56.5 36.5,-97.5 143.5,-97.5 143.5,-56.5 36.5,-56.5"/>
<text text-anchor="start" x="44.5" y="-85.5" font-family="Helvetica,sans-Serif" font-size="10.00">/home/travis/build</text>
<text text-anchor="start" x="44.5" y="-74.5" font-family="Helvetica,sans-Serif" font-size="10.00">/igankevich/arma/src</text>
<text text-anchor="middle" x="90" y="-63.5" font-family="Helvetica,sans-Serif" font-size="10.00">/blitz.hh</text>
</g>
<!-- Node2 -->
<g id="node2" class="node"><title>Node2</title>
<polygon fill="none" stroke="#bfbfbf" points="0,-0.5 0,-19.5 44,-19.5 44,-0.5 0,-0.5"/>
<text text-anchor="middle" x="22" y="-7.5" font-family="Helvetica,sans-Serif" font-size="10.00">cmath</text>
</g>
<!-- Node1&#45;&gt;Node2 -->
<g id="edge1" class="edge"><title>Node1&#45;&gt;Node2</title>
<path fill="none" stroke="midnightblue" d="M69.5978,-56.4979C59.6733,-47.0113 47.8982,-35.7557 38.5429,-26.8131"/>
<polygon fill="midnightblue" stroke="midnightblue" points="40.699,-24.0323 31.0518,-19.6525 35.8621,-29.0924 40.699,-24.0323"/>
</g>
<!-- Node3 -->
<g id="node3" class="node"><title>Node3</title>
<polygon fill="none" stroke="#bfbfbf" points="62,-0.5 62,-19.5 118,-19.5 118,-0.5 62,-0.5"/>
<text text-anchor="middle" x="90" y="-7.5" font-family="Helvetica,sans-Serif" font-size="10.00">algorithm</text>
</g>
<!-- Node1&#45;&gt;Node3 -->
<g id="edge2" class="edge"><title>Node1&#45;&gt;Node3</title>
<path fill="none" stroke="midnightblue" d="M90,-56.4979C90,-48.0653 90,-38.2351 90,-29.874"/>
<polygon fill="midnightblue" stroke="midnightblue" points="93.5001,-29.6525 90,-19.6525 86.5001,-29.6525 93.5001,-29.6525"/>
</g>
<!-- Node4 -->
<g id="node4" class="node"><title>Node4</title>
<polygon fill="none" stroke="#bfbfbf" points="136,-0.5 136,-19.5 204,-19.5 204,-0.5 136,-0.5"/>
<text text-anchor="middle" x="170" y="-7.5" font-family="Helvetica,sans-Serif" font-size="10.00">blitz/array.h</text>
</g>
<!-- Node1&#45;&gt;Node4 -->
<g id="edge3" class="edge"><title>Node1&#45;&gt;Node4</title>
<path fill="none" stroke="midnightblue" d="M114.003,-56.4979C126.032,-46.7238 140.373,-35.0719 151.53,-26.0066"/>
<polygon fill="midnightblue" stroke="midnightblue" points="153.797,-28.6749 159.351,-19.6525 149.383,-23.242 153.797,-28.6749"/>
</g>
</g>
</svg>
