<?xml version="1.0" encoding="UTF-8" standalone="no"?>
<!DOCTYPE svg PUBLIC "-//W3C//DTD SVG 1.1//EN"
 "http://www.w3.org/Graphics/SVG/1.1/DTD/svg11.dtd">
<!-- Generated by graphviz version 2.36.0 (20140111.2315)
 -->
<!-- Title: /home/travis/build/igankevich/arma/src/bits/bscheduler_io.hh Pages: 1 -->
<svg width="461pt" height="274pt"
 viewBox="0.00 0.00 461.00 274.00" xmlns="http://www.w3.org/2000/svg" xmlns:xlink="http://www.w3.org/1999/xlink">
<g id="graph0" class="graph" transform="scale(1 1) rotate(0) translate(4 270)">
<title>/home/travis/build/igankevich/arma/src/bits/bscheduler_io.hh</title>
<!-- Node1 -->
<g id="node1" class="node"><title>Node1</title>
<polygon fill="#bfbfbf" stroke="black" points="85,-224.5 85,-265.5 197,-265.5 197,-224.5 85,-224.5"/>
<text text-anchor="start" x="93" y="-253.5" font-family="Helvetica,sans-Serif" font-size="10.00">/home/travis/build</text>
<text text-anchor="start" x="93" y="-242.5" font-family="Helvetica,sans-Serif" font-size="10.00">/igankevich/arma/src</text>
<text text-anchor="middle" x="141" y="-231.5" font-family="Helvetica,sans-Serif" font-size="10.00">/bits/bscheduler_io.hh</text>
</g>
<!-- Node2 -->
<g id="node2" class="node"><title>Node2</title>
<polygon fill="none" stroke="#bfbfbf" points="3,-168.5 3,-187.5 47,-187.5 47,-168.5 3,-168.5"/>
<text text-anchor="middle" x="25" y="-175.5" font-family="Helvetica,sans-Serif" font-size="10.00">vector</text>
</g>
<!-- Node1&#45;&gt;Node2 -->
<g id="edge1" class="edge"><title>Node1&#45;&gt;Node2</title>
<path fill="none" stroke="midnightblue" d="M106.196,-224.498C87.8982,-214.245 65.9124,-201.925 49.4361,-192.693"/>
<polygon fill="midnightblue" stroke="midnightblue" points="50.8761,-189.488 40.4414,-187.652 47.4542,-195.594 50.8761,-189.488"/>
</g>
<!-- Node3 -->
<g id="node3" class="node"><title>Node3</title>
<g id="a_node3"><a xlink:href="domain_8hh.html" target="_top" xlink:title="domain.hh">
<polygon fill="none" stroke="black" points="164,-168.5 164,-187.5 226,-187.5 226,-168.5 164,-168.5"/>
<text text-anchor="middle" x="195" y="-175.5" font-family="Helvetica,sans-Serif" font-size="10.00">domain.hh</text>
</a>
</g>
</g>
<!-- Node1&#45;&gt;Node3 -->
<g id="edge2" class="edge"><title>Node1&#45;&gt;Node3</title>
<path fill="none" stroke="midnightblue" d="M157.202,-224.498C164.924,-215.203 174.057,-204.21 181.41,-195.358"/>
<polygon fill="midnightblue" stroke="midnightblue" points="184.114,-197.581 187.812,-187.652 178.729,-193.108 184.114,-197.581"/>
</g>
<!-- Node13 -->
<g id="node13" class="node"><title>Node13</title>
<g id="a_node13"><a xlink:href="grid_8hh.html" target="_top" xlink:title="grid.hh">
<polygon fill="none" stroke="black" points="65,-168.5 65,-187.5 111,-187.5 111,-168.5 65,-168.5"/>
<text text-anchor="middle" x="88" y="-175.5" font-family="Helvetica,sans-Serif" font-size="10.00">grid.hh</text>
</a>
</g>
</g>
<!-- Node1&#45;&gt;Node13 -->
<g id="edge14" class="edge"><title>Node1&#45;&gt;Node13</title>
<path fill="none" stroke="midnightblue" d="M125.098,-224.498C117.597,-215.299 108.74,-204.436 101.562,-195.632"/>
<polygon fill="midnightblue" stroke="midnightblue" points="104.087,-193.191 95.0551,-187.652 98.662,-197.614 104.087,-193.191"/>
</g>
<!-- Node14 -->
<g id="node14" class="node"><title>Node14</title>
<g id="a_node14"><a xlink:href="types_8hh.html" target="_top" xlink:title="types.hh">
<polygon fill="none" stroke="black" points="399,-56.5 399,-75.5 453,-75.5 453,-56.5 399,-56.5"/>
<text text-anchor="middle" x="426" y="-63.5" font-family="Helvetica,sans-Serif" font-size="10.00">types.hh</text>
</a>
</g>
</g>
<!-- Node1&#45;&gt;Node14 -->
<g id="edge19" class="edge"><title>Node1&#45;&gt;Node14</title>
<path fill="none" stroke="midnightblue" d="M197.023,-224.62C246.292,-205.844 318.319,-174.052 372,-132 389.432,-118.344 405.08,-98.1957 414.988,-83.9576"/>
<polygon fill="midnightblue" stroke="midnightblue" points="417.946,-85.8312 420.631,-75.5823 412.141,-81.9198 417.946,-85.8312"/>
</g>
<!-- Node4 -->
<g id="node4" class="node"><title>Node4</title>
<polygon fill="none" stroke="#bfbfbf" points="74,-0.5 74,-19.5 118,-19.5 118,-0.5 74,-0.5"/>
<text text-anchor="middle" x="96" y="-7.5" font-family="Helvetica,sans-Serif" font-size="10.00">cmath</text>
</g>
<!-- Node3&#45;&gt;Node4 -->
<g id="edge3" class="edge"><title>Node3&#45;&gt;Node4</title>
<path fill="none" stroke="midnightblue" d="M195.641,-168.47C196.786,-147.341 197.062,-91.7037 172,-56 161.203,-40.6177 143.324,-29.6497 127.619,-22.3951"/>
<polygon fill="midnightblue" stroke="midnightblue" points="128.774,-19.082 118.205,-18.3517 126.012,-25.5139 128.774,-19.082"/>
</g>
<!-- Node5 -->
<g id="node5" class="node"><title>Node5</title>
<polygon fill="none" stroke="#bfbfbf" points="223,-112.5 223,-131.5 273,-131.5 273,-112.5 223,-112.5"/>
<text text-anchor="middle" x="248" y="-119.5" font-family="Helvetica,sans-Serif" font-size="10.00">iomanip</text>
</g>
<!-- Node3&#45;&gt;Node5 -->
<g id="edge4" class="edge"><title>Node3&#45;&gt;Node5</title>
<path fill="none" stroke="midnightblue" d="M203.752,-168.083C211.47,-160.22 222.905,-148.569 232.217,-139.081"/>
<polygon fill="midnightblue" stroke="midnightblue" points="234.904,-141.34 239.411,-131.751 229.908,-136.436 234.904,-141.34"/>
</g>
<!-- Node6 -->
<g id="node6" class="node"><title>Node6</title>
<polygon fill="none" stroke="#bfbfbf" points="27.5,-112.5 27.5,-131.5 76.5,-131.5 76.5,-112.5 27.5,-112.5"/>
<text text-anchor="middle" x="52" y="-119.5" font-family="Helvetica,sans-Serif" font-size="10.00">istream</text>
</g>
<!-- Node3&#45;&gt;Node6 -->
<g id="edge5" class="edge"><title>Node3&#45;&gt;Node6</title>
<path fill="none" stroke="midnightblue" d="M172.341,-168.444C148.598,-159.478 111.091,-145.314 84.2616,-135.183"/>
<polygon fill="midnightblue" stroke="midnightblue" points="85.1445,-131.775 74.5528,-131.516 82.6715,-138.324 85.1445,-131.775"/>
</g>
<!-- Node7 -->
<g id="node7" class="node"><title>Node7</title>
<polygon fill="none" stroke="#bfbfbf" points="291,-112.5 291,-131.5 343,-131.5 343,-112.5 291,-112.5"/>
<text text-anchor="middle" x="317" y="-119.5" font-family="Helvetica,sans-Serif" font-size="10.00">ostream</text>
</g>
<!-- Node3&#45;&gt;Node7 -->
<g id="edge6" class="edge"><title>Node3&#45;&gt;Node7</title>
<path fill="none" stroke="midnightblue" d="M214.331,-168.444C234.32,-159.596 265.743,-145.687 288.564,-135.586"/>
<polygon fill="midnightblue" stroke="midnightblue" points="290.032,-138.764 297.759,-131.516 287.198,-132.363 290.032,-138.764"/>
</g>
<!-- Node8 -->
<g id="node8" class="node"><title>Node8</title>
<polygon fill="none" stroke="#bfbfbf" points="337,-0.5 337,-19.5 405,-19.5 405,-0.5 337,-0.5"/>
<text text-anchor="middle" x="371" y="-7.5" font-family="Helvetica,sans-Serif" font-size="10.00">blitz/array.h</text>
</g>
<!-- Node3&#45;&gt;Node8 -->
<g id="edge7" class="edge"><title>Node3&#45;&gt;Node8</title>
<path fill="none" stroke="midnightblue" d="M226.079,-177.382C262.012,-176.018 320.27,-167.909 352,-132 377.144,-103.545 376.455,-55.9112 373.737,-29.701"/>
<polygon fill="midnightblue" stroke="midnightblue" points="377.189,-29.0926 372.475,-19.604 370.243,-29.961 377.189,-29.0926"/>
</g>
<!-- Node9 -->
<g id="node9" class="node"><title>Node9</title>
<g id="a_node9"><a xlink:href="validators_8hh.html" target="_top" xlink:title="validators.hh">
<polygon fill="none" stroke="black" points="95,-112.5 95,-131.5 167,-131.5 167,-112.5 95,-112.5"/>
<text text-anchor="middle" x="131" y="-119.5" font-family="Helvetica,sans-Serif" font-size="10.00">validators.hh</text>
</a>
</g>
</g>
<!-- Node3&#45;&gt;Node9 -->
<g id="edge8" class="edge"><title>Node3&#45;&gt;Node9</title>
<path fill="none" stroke="midnightblue" d="M184.717,-168.324C175.164,-160.263 160.72,-148.077 149.216,-138.369"/>
<polygon fill="midnightblue" stroke="midnightblue" points="151.37,-135.608 141.47,-131.834 146.856,-140.958 151.37,-135.608"/>
</g>
<!-- Node10 -->
<g id="node10" class="node"><title>Node10</title>
<polygon fill="none" stroke="#bfbfbf" points="104.5,-56.5 104.5,-75.5 163.5,-75.5 163.5,-56.5 104.5,-56.5"/>
<text text-anchor="middle" x="134" y="-63.5" font-family="Helvetica,sans-Serif" font-size="10.00">stdexcept</text>
</g>
<!-- Node9&#45;&gt;Node10 -->
<g id="edge9" class="edge"><title>Node9&#45;&gt;Node10</title>
<path fill="none" stroke="midnightblue" d="M131.495,-112.083C131.889,-105.006 132.452,-94.8611 132.945,-85.9865"/>
<polygon fill="midnightblue" stroke="midnightblue" points="136.454,-85.9299 133.514,-75.7511 129.464,-85.5415 136.454,-85.9299"/>
</g>
<!-- Node11 -->
<g id="node11" class="node"><title>Node11</title>
<g id="a_node11"><a xlink:href="blitz_8hh.html" target="_top" xlink:title="blitz.hh">
<polygon fill="none" stroke="black" points="38,-56.5 38,-75.5 86,-75.5 86,-56.5 38,-56.5"/>
<text text-anchor="middle" x="62" y="-63.5" font-family="Helvetica,sans-Serif" font-size="10.00">blitz.hh</text>
</a>
</g>
</g>
<!-- Node9&#45;&gt;Node11 -->
<g id="edge10" class="edge"><title>Node9&#45;&gt;Node11</title>
<path fill="none" stroke="midnightblue" d="M119.914,-112.324C109.514,-104.185 93.7394,-91.8395 81.2784,-82.0874"/>
<polygon fill="midnightblue" stroke="midnightblue" points="83.3199,-79.2407 73.2878,-75.8339 79.0057,-84.7533 83.3199,-79.2407"/>
</g>
<!-- Node11&#45;&gt;Node4 -->
<g id="edge13" class="edge"><title>Node11&#45;&gt;Node4</title>
<path fill="none" stroke="midnightblue" d="M67.6144,-56.083C72.3674,-48.5341 79.3181,-37.4948 85.1516,-28.2298"/>
<polygon fill="midnightblue" stroke="midnightblue" points="88.1237,-30.0783 90.4901,-19.7511 82.2001,-26.3486 88.1237,-30.0783"/>
</g>
<!-- Node11&#45;&gt;Node8 -->
<g id="edge12" class="edge"><title>Node11&#45;&gt;Node8</title>
<path fill="none" stroke="midnightblue" d="M86.0788,-58.1204C89.0715,-57.3579 92.0985,-56.6304 95,-56 176.118,-38.3763 271.998,-24.2204 326.736,-16.7617"/>
<polygon fill="midnightblue" stroke="midnightblue" points="327.35,-20.2107 336.792,-15.4039 326.413,-13.2736 327.35,-20.2107"/>
</g>
<!-- Node12 -->
<g id="node12" class="node"><title>Node12</title>
<polygon fill="none" stroke="#bfbfbf" points="0,-0.5 0,-19.5 56,-19.5 56,-0.5 0,-0.5"/>
<text text-anchor="middle" x="28" y="-7.5" font-family="Helvetica,sans-Serif" font-size="10.00">algorithm</text>
</g>
<!-- Node11&#45;&gt;Node12 -->
<g id="edge11" class="edge"><title>Node11&#45;&gt;Node12</title>
<path fill="none" stroke="midnightblue" d="M56.3856,-56.083C51.6326,-48.5341 44.6819,-37.4948 38.8484,-28.2298"/>
<polygon fill="midnightblue" stroke="midnightblue" points="41.7999,-26.3486 33.5099,-19.7511 35.8763,-30.0783 41.7999,-26.3486"/>
</g>
<!-- Node13&#45;&gt;Node4 -->
<g id="edge15" class="edge"><title>Node13&#45;&gt;Node4</title>
<path fill="none" stroke="midnightblue" d="M64.8346,-170.257C46.8842,-163.676 23.2389,-151.716 12,-132 7.59794,-124.278 10.6948,-120.793 12,-112 15.8192,-86.2715 13.5284,-76.9087 29,-56 38.9547,-42.5469 54.2046,-31.8518 67.6419,-24.2695"/>
<polygon fill="midnightblue" stroke="midnightblue" points="69.3825,-27.308 76.5677,-19.5219 66.0952,-21.1278 69.3825,-27.308"/>
</g>
<!-- Node13&#45;&gt;Node6 -->
<g id="edge16" class="edge"><title>Node13&#45;&gt;Node6</title>
<path fill="none" stroke="midnightblue" d="M82.0553,-168.083C77.0227,-160.534 69.6632,-149.495 63.4865,-140.23"/>
<polygon fill="midnightblue" stroke="midnightblue" points="66.2933,-138.13 57.8341,-131.751 60.4689,-142.013 66.2933,-138.13"/>
</g>
<!-- Node13&#45;&gt;Node9 -->
<g id="edge18" class="edge"><title>Node13&#45;&gt;Node9</title>
<path fill="none" stroke="midnightblue" d="M95.1006,-168.083C101.237,-160.377 110.27,-149.033 117.739,-139.653"/>
<polygon fill="midnightblue" stroke="midnightblue" points="120.54,-141.754 124.032,-131.751 115.064,-137.394 120.54,-141.754"/>
</g>
<!-- Node13&#45;&gt;Node11 -->
<g id="edge17" class="edge"><title>Node13&#45;&gt;Node11</title>
<path fill="none" stroke="midnightblue" d="M64.9108,-169.036C48.5816,-162.049 27.8999,-150.133 18,-132 8.24794,-114.137 24.8484,-94.9949 40.3735,-82.1448"/>
<polygon fill="midnightblue" stroke="midnightblue" points="42.9401,-84.5848 48.7137,-75.7013 38.6604,-79.0454 42.9401,-84.5848"/>
</g>
<!-- Node14&#45;&gt;Node8 -->
<g id="edge20" class="edge"><title>Node14&#45;&gt;Node8</title>
<path fill="none" stroke="midnightblue" d="M416.918,-56.083C408.829,-48.1409 396.805,-36.3354 387.09,-26.7973"/>
<polygon fill="midnightblue" stroke="midnightblue" points="389.501,-24.2595 379.913,-19.7511 384.597,-29.2545 389.501,-24.2595"/>
</g>
</g>
</svg>
