<?xml version="1.0" encoding="UTF-8" standalone="no"?>
<!DOCTYPE svg PUBLIC "-//W3C//DTD SVG 1.1//EN"
 "http://www.w3.org/Graphics/SVG/1.1/DTD/svg11.dtd">
<!-- Generated by graphviz version 2.40.1 (20161225.0304)
 -->
<!-- Title: src/bits/bscheduler_io.hh Pages: 1 -->
<svg width="406pt" height="319pt"
 viewBox="0.00 0.00 405.99 319.00" xmlns="http://www.w3.org/2000/svg" xmlns:xlink="http://www.w3.org/1999/xlink">
<g id="graph0" class="graph" transform="scale(1 1) rotate(0) translate(4 315)">
<title>src/bits/bscheduler_io.hh</title>
<!-- Node0 -->
<g id="node1" class="node">
<title>Node0</title>
<polygon fill="#bfbfbf" stroke="#000000" points="75.4903,-280.5 75.4903,-310.5 174.4903,-310.5 174.4903,-280.5 75.4903,-280.5"/>
<text text-anchor="start" x="83.4903" y="-298.5" font-family="Helvetica,sans-Serif" font-size="10.00" fill="#000000">src/bits/bscheduler</text>
<text text-anchor="middle" x="124.9903" y="-287.5" font-family="Helvetica,sans-Serif" font-size="10.00" fill="#000000">_io.hh</text>
</g>
<!-- Node1 -->
<g id="node2" class="node">
<title>Node1</title>
<polygon fill="none" stroke="#bfbfbf" points="23.9903,-224.5 23.9903,-243.5 67.9903,-243.5 67.9903,-224.5 23.9903,-224.5"/>
<text text-anchor="middle" x="45.9903" y="-231.5" font-family="Helvetica,sans-Serif" font-size="10.00" fill="#000000">vector</text>
</g>
<!-- Node0&#45;&gt;Node1 -->
<g id="edge1" class="edge">
<title>Node0&#45;&gt;Node1</title>
<path fill="none" stroke="#191970" d="M105.4622,-280.2977C93.6966,-271.1384 78.7228,-259.4816 66.7438,-250.1562"/>
<polygon fill="#191970" stroke="#191970" points="68.6801,-247.228 58.6392,-243.8469 64.3801,-252.7516 68.6801,-247.228"/>
</g>
<!-- Node2 -->
<g id="node3" class="node">
<title>Node2</title>
<g id="a_node3"><a xlink:href="domain_8hh.html" target="_top" xlink:title="domain.hh">
<polygon fill="none" stroke="#000000" points="123.9903,-224.5 123.9903,-243.5 185.9903,-243.5 185.9903,-224.5 123.9903,-224.5"/>
<text text-anchor="middle" x="154.9903" y="-231.5" font-family="Helvetica,sans-Serif" font-size="10.00" fill="#000000">domain.hh</text>
</a>
</g>
</g>
<!-- Node0&#45;&gt;Node2 -->
<g id="edge2" class="edge">
<title>Node0&#45;&gt;Node2</title>
<path fill="none" stroke="#191970" d="M132.4061,-280.2977C136.4402,-272.0277 141.4676,-261.7215 145.7543,-252.9339"/>
<polygon fill="#191970" stroke="#191970" points="148.9483,-254.3691 150.1869,-243.8469 142.657,-251.3001 148.9483,-254.3691"/>
</g>
<!-- Node8 -->
<g id="node9" class="node">
<title>Node8</title>
<g id="a_node9"><a xlink:href="grid_8hh.html" target="_top" xlink:title="grid.hh">
<polygon fill="none" stroke="#000000" points="27.9903,-168.5 27.9903,-187.5 73.9903,-187.5 73.9903,-168.5 27.9903,-168.5"/>
<text text-anchor="middle" x="50.9903" y="-175.5" font-family="Helvetica,sans-Serif" font-size="10.00" fill="#000000">grid.hh</text>
</a>
</g>
</g>
<!-- Node0&#45;&gt;Node8 -->
<g id="edge19" class="edge">
<title>Node0&#45;&gt;Node8</title>
<path fill="none" stroke="#191970" d="M115.3161,-280.1389C101.6807,-258.4881 76.8585,-219.0745 62.3595,-196.0525"/>
<polygon fill="#191970" stroke="#191970" points="65.3015,-194.156 57.0108,-187.5595 59.3783,-197.8864 65.3015,-194.156"/>
</g>
<!-- Node13 -->
<g id="node14" class="node">
<title>Node13</title>
<g id="a_node14"><a xlink:href="types_8hh.html" target="_top" xlink:title="types.hh">
<polygon fill="none" stroke="#000000" points="343.9903,-112.5 343.9903,-131.5 397.9903,-131.5 397.9903,-112.5 343.9903,-112.5"/>
<text text-anchor="middle" x="370.9903" y="-119.5" font-family="Helvetica,sans-Serif" font-size="10.00" fill="#000000">types.hh</text>
</a>
</g>
</g>
<!-- Node0&#45;&gt;Node13 -->
<g id="edge20" class="edge">
<title>Node0&#45;&gt;Node13</title>
<path fill="none" stroke="#191970" d="M168.738,-280.4337C213.3099,-263.4075 282.4559,-232.1895 329.9903,-188 344.3003,-174.697 355.5424,-155.3193 362.6071,-140.9996"/>
<polygon fill="#191970" stroke="#191970" points="365.9255,-142.1663 366.9973,-131.6258 359.5863,-139.1974 365.9255,-142.1663"/>
</g>
<!-- Node3 -->
<g id="node4" class="node">
<title>Node3</title>
<polygon fill="none" stroke="#bfbfbf" points="3.9903,-.5 3.9903,-19.5 47.9903,-19.5 47.9903,-.5 3.9903,-.5"/>
<text text-anchor="middle" x="25.9903" y="-7.5" font-family="Helvetica,sans-Serif" font-size="10.00" fill="#000000">cmath</text>
</g>
<!-- Node2&#45;&gt;Node3 -->
<g id="edge3" class="edge">
<title>Node2&#45;&gt;Node3</title>
<path fill="none" stroke="#191970" d="M123.7579,-227.8117C87.5904,-219.9371 31.3766,-205.2652 18.9903,-188 -15.4823,-139.9491 5.4491,-64.3694 18.2501,-29.1952"/>
<polygon fill="#191970" stroke="#191970" points="21.5966,-30.2423 21.8914,-19.6515 15.0565,-27.7469 21.5966,-30.2423"/>
</g>
<!-- Node4 -->
<g id="node5" class="node">
<title>Node4</title>
<polygon fill="none" stroke="#bfbfbf" points="129.9903,-168.5 129.9903,-187.5 179.9903,-187.5 179.9903,-168.5 129.9903,-168.5"/>
<text text-anchor="middle" x="154.9903" y="-175.5" font-family="Helvetica,sans-Serif" font-size="10.00" fill="#000000">iomanip</text>
</g>
<!-- Node2&#45;&gt;Node4 -->
<g id="edge4" class="edge">
<title>Node2&#45;&gt;Node4</title>
<path fill="none" stroke="#191970" d="M154.9903,-224.2455C154.9903,-216.9382 154.9903,-206.6944 154.9903,-197.7046"/>
<polygon fill="#191970" stroke="#191970" points="158.4904,-197.6426 154.9903,-187.6427 151.4904,-197.6427 158.4904,-197.6426"/>
</g>
<!-- Node5 -->
<g id="node6" class="node">
<title>Node5</title>
<polygon fill="none" stroke="#bfbfbf" points="92.4903,-112.5 92.4903,-131.5 141.4903,-131.5 141.4903,-112.5 92.4903,-112.5"/>
<text text-anchor="middle" x="116.9903" y="-119.5" font-family="Helvetica,sans-Serif" font-size="10.00" fill="#000000">istream</text>
</g>
<!-- Node2&#45;&gt;Node5 -->
<g id="edge5" class="edge">
<title>Node2&#45;&gt;Node5</title>
<path fill="none" stroke="#191970" d="M145.2679,-224.4173C137.1651,-215.744 126.1453,-202.1873 120.9903,-188 115.5999,-173.1648 114.8461,-155.2258 115.3031,-141.7968"/>
<polygon fill="#191970" stroke="#191970" points="118.8011,-141.9334 115.8967,-131.7444 111.8132,-141.5207 118.8011,-141.9334"/>
</g>
<!-- Node6 -->
<g id="node7" class="node">
<title>Node6</title>
<polygon fill="none" stroke="#bfbfbf" points="197.9903,-168.5 197.9903,-187.5 249.9903,-187.5 249.9903,-168.5 197.9903,-168.5"/>
<text text-anchor="middle" x="223.9903" y="-175.5" font-family="Helvetica,sans-Serif" font-size="10.00" fill="#000000">ostream</text>
</g>
<!-- Node2&#45;&gt;Node6 -->
<g id="edge6" class="edge">
<title>Node2&#45;&gt;Node6</title>
<path fill="none" stroke="#191970" d="M167.0092,-224.2455C177.2002,-215.9746 192.0265,-203.9416 204.001,-194.2232"/>
<polygon fill="#191970" stroke="#191970" points="206.5502,-196.662 212.1092,-187.6427 202.139,-191.2268 206.5502,-196.662"/>
</g>
<!-- Node7 -->
<g id="node8" class="node">
<title>Node7</title>
<polygon fill="none" stroke="#bfbfbf" points="282.4903,-.5 282.4903,-19.5 349.4903,-19.5 349.4903,-.5 282.4903,-.5"/>
<text text-anchor="middle" x="315.9903" y="-7.5" font-family="Helvetica,sans-Serif" font-size="10.00" fill="#000000">blitz/array.h</text>
</g>
<!-- Node2&#45;&gt;Node7 -->
<g id="edge7" class="edge">
<title>Node2&#45;&gt;Node7</title>
<path fill="none" stroke="#191970" d="M186.2023,-230.1096C213.3186,-225.0641 251.6528,-213.6321 273.9903,-188 313.7076,-142.4249 317.5787,-66.1832 316.9543,-30.0993"/>
<polygon fill="#191970" stroke="#191970" points="320.4458,-29.7697 316.6334,-19.8846 313.4493,-29.9896 320.4458,-29.7697"/>
</g>
<!-- Node2&#45;&gt;Node8 -->
<g id="edge8" class="edge">
<title>Node2&#45;&gt;Node8</title>
<path fill="none" stroke="#191970" d="M136.8749,-224.2455C120.5453,-215.4527 96.3193,-202.4079 77.7564,-192.4125"/>
<polygon fill="#191970" stroke="#191970" points="79.3622,-189.3021 68.8981,-187.6427 76.0435,-195.4654 79.3622,-189.3021"/>
</g>
<!-- Node11 -->
<g id="node12" class="node">
<title>Node11</title>
<g id="a_node12"><a xlink:href="validators_8hh.html" target="_top" xlink:title="validators.hh">
<polygon fill="none" stroke="#000000" points="159.9903,-112.5 159.9903,-131.5 231.9903,-131.5 231.9903,-112.5 159.9903,-112.5"/>
<text text-anchor="middle" x="195.9903" y="-119.5" font-family="Helvetica,sans-Serif" font-size="10.00" fill="#000000">validators.hh</text>
</a>
</g>
</g>
<!-- Node2&#45;&gt;Node11 -->
<g id="edge18" class="edge">
<title>Node2&#45;&gt;Node11</title>
<path fill="none" stroke="#191970" d="M186.389,-229.4207C210.7779,-224.0346 243.0464,-212.4861 258.9903,-188 271.905,-168.1661 248.2838,-149.0016 226.3755,-136.4815"/>
<polygon fill="#191970" stroke="#191970" points="227.9801,-133.3704 217.5177,-131.7005 224.6553,-139.5304 227.9801,-133.3704"/>
</g>
<!-- Node8&#45;&gt;Node3 -->
<g id="edge9" class="edge">
<title>Node8&#45;&gt;Node3</title>
<path fill="none" stroke="#191970" d="M49.5746,-168.4862C45.6227,-141.9293 34.4078,-66.5651 28.9911,-30.1655"/>
<polygon fill="#191970" stroke="#191970" points="32.3867,-29.2038 27.4528,-19.8279 25.4629,-30.2342 32.3867,-29.2038"/>
</g>
<!-- Node8&#45;&gt;Node5 -->
<g id="edge10" class="edge">
<title>Node8&#45;&gt;Node5</title>
<path fill="none" stroke="#191970" d="M62.4866,-168.2455C72.2345,-159.9746 86.4163,-147.9416 97.8701,-138.2232"/>
<polygon fill="#191970" stroke="#191970" points="100.2651,-140.7813 105.6257,-131.6427 95.7362,-135.4437 100.2651,-140.7813"/>
</g>
<!-- Node9 -->
<g id="node10" class="node">
<title>Node9</title>
<g id="a_node10"><a xlink:href="blitz_8hh.html" target="_top" xlink:title="blitz.hh">
<polygon fill="none" stroke="#000000" points="84.9903,-56.5 84.9903,-75.5 132.9903,-75.5 132.9903,-56.5 84.9903,-56.5"/>
<text text-anchor="middle" x="108.9903" y="-63.5" font-family="Helvetica,sans-Serif" font-size="10.00" fill="#000000">blitz.hh</text>
</a>
</g>
</g>
<!-- Node8&#45;&gt;Node9 -->
<g id="edge11" class="edge">
<title>Node8&#45;&gt;Node9</title>
<path fill="none" stroke="#191970" d="M55.5694,-168.0633C61.6152,-155.0614 72.7005,-131.6232 82.9903,-112 87.767,-102.8906 93.3471,-92.9365 98.1105,-84.6251"/>
<polygon fill="#191970" stroke="#191970" points="101.2539,-86.1808 103.2301,-75.7718 95.1942,-82.6765 101.2539,-86.1808"/>
</g>
<!-- Node8&#45;&gt;Node11 -->
<g id="edge15" class="edge">
<title>Node8&#45;&gt;Node11</title>
<path fill="none" stroke="#191970" d="M74.2871,-169.0026C97.9583,-159.8606 134.8794,-145.6014 161.8515,-135.1846"/>
<polygon fill="#191970" stroke="#191970" points="163.228,-138.4051 171.2955,-131.5373 160.7061,-131.8751 163.228,-138.4051"/>
</g>
<!-- Node9&#45;&gt;Node3 -->
<g id="edge14" class="edge">
<title>Node9&#45;&gt;Node3</title>
<path fill="none" stroke="#191970" d="M94.5328,-56.2455C81.9171,-47.7337 63.3959,-35.2375 48.7858,-25.3801"/>
<polygon fill="#191970" stroke="#191970" points="50.5294,-22.3343 40.2821,-19.6427 46.6142,-28.1371 50.5294,-22.3343"/>
</g>
<!-- Node9&#45;&gt;Node7 -->
<g id="edge13" class="edge">
<title>Node9&#45;&gt;Node7</title>
<path fill="none" stroke="#191970" d="M133.141,-59.4665C167.3028,-50.2246 230.2882,-33.1851 272.6604,-21.7221"/>
<polygon fill="#191970" stroke="#191970" points="273.6893,-25.0696 282.4283,-19.0796 271.8613,-18.3125 273.6893,-25.0696"/>
</g>
<!-- Node10 -->
<g id="node11" class="node">
<title>Node10</title>
<polygon fill="none" stroke="#bfbfbf" points="80.9903,-.5 80.9903,-19.5 136.9903,-19.5 136.9903,-.5 80.9903,-.5"/>
<text text-anchor="middle" x="108.9903" y="-7.5" font-family="Helvetica,sans-Serif" font-size="10.00" fill="#000000">algorithm</text>
</g>
<!-- Node9&#45;&gt;Node10 -->
<g id="edge12" class="edge">
<title>Node9&#45;&gt;Node10</title>
<path fill="none" stroke="#191970" d="M108.9903,-56.2455C108.9903,-48.9382 108.9903,-38.6944 108.9903,-29.7046"/>
<polygon fill="#191970" stroke="#191970" points="112.4904,-29.6426 108.9903,-19.6427 105.4904,-29.6427 112.4904,-29.6426"/>
</g>
<!-- Node11&#45;&gt;Node9 -->
<g id="edge17" class="edge">
<title>Node11&#45;&gt;Node9</title>
<path fill="none" stroke="#191970" d="M180.8361,-112.2455C167.4876,-103.6534 147.8317,-91.0014 132.4521,-81.1018"/>
<polygon fill="#191970" stroke="#191970" points="134.2739,-78.1121 123.9709,-75.6427 130.4852,-83.9982 134.2739,-78.1121"/>
</g>
<!-- Node12 -->
<g id="node13" class="node">
<title>Node12</title>
<polygon fill="none" stroke="#bfbfbf" points="166.4903,-56.5 166.4903,-75.5 225.4903,-75.5 225.4903,-56.5 166.4903,-56.5"/>
<text text-anchor="middle" x="195.9903" y="-63.5" font-family="Helvetica,sans-Serif" font-size="10.00" fill="#000000">stdexcept</text>
</g>
<!-- Node11&#45;&gt;Node12 -->
<g id="edge16" class="edge">
<title>Node11&#45;&gt;Node12</title>
<path fill="none" stroke="#191970" d="M195.9903,-112.2455C195.9903,-104.9382 195.9903,-94.6944 195.9903,-85.7046"/>
<polygon fill="#191970" stroke="#191970" points="199.4904,-85.6426 195.9903,-75.6427 192.4904,-85.6427 199.4904,-85.6426"/>
</g>
<!-- Node13&#45;&gt;Node7 -->
<g id="edge21" class="edge">
<title>Node13&#45;&gt;Node7</title>
<path fill="none" stroke="#191970" d="M366.3011,-112.4509C357.2089,-93.936 337.0372,-52.8591 325.1825,-28.7187"/>
<polygon fill="#191970" stroke="#191970" points="328.2173,-26.9582 320.6677,-19.5249 321.934,-30.0438 328.2173,-26.9582"/>
</g>
</g>
</svg>
