<?xml version="1.0" encoding="UTF-8" standalone="no"?>
<!DOCTYPE svg PUBLIC "-//W3C//DTD SVG 1.1//EN"
 "http://www.w3.org/Graphics/SVG/1.1/DTD/svg11.dtd">
<!-- Generated by graphviz version 2.36.0 (20140111.2315)
 -->
<!-- Title: /home/travis/build/igankevich/arma/src/bits/bscheduler_io.hh Pages: 1 -->
<svg width="367pt" height="274pt"
 viewBox="0.00 0.00 367.39 274.00" xmlns="http://www.w3.org/2000/svg" xmlns:xlink="http://www.w3.org/1999/xlink">
<g id="graph0" class="graph" transform="scale(1 1) rotate(0) translate(4 270)">
<title>/home/travis/build/igankevich/arma/src/bits/bscheduler_io.hh</title>
<!-- Node1 -->
<g id="node1" class="node"><title>Node1</title>
<polygon fill="#bfbfbf" stroke="black" points="107,-224.5 107,-265.5 219,-265.5 219,-224.5 107,-224.5"/>
<text text-anchor="start" x="115" y="-253.5" font-family="Helvetica,sans-Serif" font-size="10.00">/home/travis/build</text>
<text text-anchor="start" x="115" y="-242.5" font-family="Helvetica,sans-Serif" font-size="10.00">/igankevich/arma/src</text>
<text text-anchor="middle" x="163" y="-231.5" font-family="Helvetica,sans-Serif" font-size="10.00">/bits/bscheduler_io.hh</text>
</g>
<!-- Node2 -->
<g id="node2" class="node"><title>Node2</title>
<polygon fill="none" stroke="#bfbfbf" points="42,-168.5 42,-187.5 86,-187.5 86,-168.5 42,-168.5"/>
<text text-anchor="middle" x="64" y="-175.5" font-family="Helvetica,sans-Serif" font-size="10.00">vector</text>
</g>
<!-- Node1&#45;&gt;Node2 -->
<g id="edge1" class="edge"><title>Node1&#45;&gt;Node2</title>
<path fill="none" stroke="midnightblue" d="M133.297,-224.498C117.972,-214.436 99.6169,-202.385 85.6484,-193.214"/>
<polygon fill="midnightblue" stroke="midnightblue" points="87.4587,-190.215 77.1784,-187.652 83.6167,-196.067 87.4587,-190.215"/>
</g>
<!-- Node3 -->
<g id="node3" class="node"><title>Node3</title>
<g id="a_node3"><a xlink:href="domain_8hh.html" target="_top" xlink:title="domain.hh">
<polygon fill="none" stroke="black" points="168,-168.5 168,-187.5 230,-187.5 230,-168.5 168,-168.5"/>
<text text-anchor="middle" x="199" y="-175.5" font-family="Helvetica,sans-Serif" font-size="10.00">domain.hh</text>
</a>
</g>
</g>
<!-- Node1&#45;&gt;Node3 -->
<g id="edge2" class="edge"><title>Node1&#45;&gt;Node3</title>
<path fill="none" stroke="midnightblue" d="M173.801,-224.498C178.737,-215.586 184.537,-205.113 189.328,-196.464"/>
<polygon fill="midnightblue" stroke="midnightblue" points="192.425,-198.096 194.208,-187.652 186.301,-194.705 192.425,-198.096"/>
</g>
<!-- Node13 -->
<g id="node13" class="node"><title>Node13</title>
<g id="a_node13"><a xlink:href="grid_8hh.html" target="_top" xlink:title="grid.hh">
<polygon fill="none" stroke="black" points="104,-168.5 104,-187.5 150,-187.5 150,-168.5 104,-168.5"/>
<text text-anchor="middle" x="127" y="-175.5" font-family="Helvetica,sans-Serif" font-size="10.00">grid.hh</text>
</a>
</g>
</g>
<!-- Node1&#45;&gt;Node13 -->
<g id="edge13" class="edge"><title>Node1&#45;&gt;Node13</title>
<path fill="none" stroke="midnightblue" d="M152.199,-224.498C147.263,-215.586 141.463,-205.113 136.672,-196.464"/>
<polygon fill="midnightblue" stroke="midnightblue" points="139.699,-194.705 131.792,-187.652 133.575,-198.096 139.699,-194.705"/>
</g>
<!-- Node14 -->
<g id="node14" class="node"><title>Node14</title>
<g id="a_node14"><a xlink:href="types_8hh.html" target="_top" xlink:title="types.hh">
<polygon fill="none" stroke="black" points="287,-56.5 287,-75.5 341,-75.5 341,-56.5 287,-56.5"/>
<text text-anchor="middle" x="314" y="-63.5" font-family="Helvetica,sans-Serif" font-size="10.00">types.hh</text>
</a>
</g>
</g>
<!-- Node1&#45;&gt;Node14 -->
<g id="edge17" class="edge"><title>Node1&#45;&gt;Node14</title>
<path fill="none" stroke="midnightblue" d="M219.037,-228.515C264.905,-212.551 326.807,-182.693 356,-132 366.07,-114.514 349.869,-95.173 334.756,-82.1722"/>
<polygon fill="midnightblue" stroke="midnightblue" points="336.632,-79.1902 326.645,-75.6538 332.247,-84.6464 336.632,-79.1902"/>
</g>
<!-- Node4 -->
<g id="node4" class="node"><title>Node4</title>
<polygon fill="none" stroke="#bfbfbf" points="121.5,-112.5 121.5,-131.5 170.5,-131.5 170.5,-112.5 121.5,-112.5"/>
<text text-anchor="middle" x="146" y="-119.5" font-family="Helvetica,sans-Serif" font-size="10.00">istream</text>
</g>
<!-- Node3&#45;&gt;Node4 -->
<g id="edge3" class="edge"><title>Node3&#45;&gt;Node4</title>
<path fill="none" stroke="midnightblue" d="M190.248,-168.083C182.53,-160.22 171.095,-148.569 161.783,-139.081"/>
<polygon fill="midnightblue" stroke="midnightblue" points="164.092,-136.436 154.589,-131.751 159.096,-141.34 164.092,-136.436"/>
</g>
<!-- Node5 -->
<g id="node5" class="node"><title>Node5</title>
<polygon fill="none" stroke="#bfbfbf" points="227,-112.5 227,-131.5 279,-131.5 279,-112.5 227,-112.5"/>
<text text-anchor="middle" x="253" y="-119.5" font-family="Helvetica,sans-Serif" font-size="10.00">ostream</text>
</g>
<!-- Node3&#45;&gt;Node5 -->
<g id="edge4" class="edge"><title>Node3&#45;&gt;Node5</title>
<path fill="none" stroke="midnightblue" d="M207.917,-168.083C215.78,-160.22 227.431,-148.569 236.919,-139.081"/>
<polygon fill="midnightblue" stroke="midnightblue" points="239.653,-141.297 244.249,-131.751 234.703,-136.347 239.653,-141.297"/>
</g>
<!-- Node6 -->
<g id="node6" class="node"><title>Node6</title>
<polygon fill="none" stroke="#bfbfbf" points="297,-112.5 297,-131.5 347,-131.5 347,-112.5 297,-112.5"/>
<text text-anchor="middle" x="322" y="-119.5" font-family="Helvetica,sans-Serif" font-size="10.00">iomanip</text>
</g>
<!-- Node3&#45;&gt;Node6 -->
<g id="edge5" class="edge"><title>Node3&#45;&gt;Node6</title>
<path fill="none" stroke="midnightblue" d="M218.49,-168.444C238.642,-159.596 270.323,-145.687 293.331,-135.586"/>
<polygon fill="midnightblue" stroke="midnightblue" points="294.852,-138.741 302.601,-131.516 292.038,-132.332 294.852,-138.741"/>
</g>
<!-- Node7 -->
<g id="node7" class="node"><title>Node7</title>
<polygon fill="none" stroke="#bfbfbf" points="165,-0.5 165,-19.5 233,-19.5 233,-0.5 165,-0.5"/>
<text text-anchor="middle" x="199" y="-7.5" font-family="Helvetica,sans-Serif" font-size="10.00">blitz/array.h</text>
</g>
<!-- Node3&#45;&gt;Node7 -->
<g id="edge6" class="edge"><title>Node3&#45;&gt;Node7</title>
<path fill="none" stroke="midnightblue" d="M199,-168.075C199,-141.945 199,-65.2106 199,-29.577"/>
<polygon fill="midnightblue" stroke="midnightblue" points="202.5,-29.5681 199,-19.5681 195.5,-29.5681 202.5,-29.5681"/>
</g>
<!-- Node8 -->
<g id="node8" class="node"><title>Node8</title>
<g id="a_node8"><a xlink:href="validators_8hh.html" target="_top" xlink:title="validators.hh">
<polygon fill="none" stroke="black" points="31,-112.5 31,-131.5 103,-131.5 103,-112.5 31,-112.5"/>
<text text-anchor="middle" x="67" y="-119.5" font-family="Helvetica,sans-Serif" font-size="10.00">validators.hh</text>
</a>
</g>
</g>
<!-- Node3&#45;&gt;Node8 -->
<g id="edge7" class="edge"><title>Node3&#45;&gt;Node8</title>
<path fill="none" stroke="midnightblue" d="M178.084,-168.444C156.264,-159.517 121.85,-145.439 97.1078,-135.317"/>
<polygon fill="midnightblue" stroke="midnightblue" points="98.3987,-132.063 87.8179,-131.516 95.7482,-138.542 98.3987,-132.063"/>
</g>
<!-- Node9 -->
<g id="node9" class="node"><title>Node9</title>
<polygon fill="none" stroke="#bfbfbf" points="75.5,-56.5 75.5,-75.5 134.5,-75.5 134.5,-56.5 75.5,-56.5"/>
<text text-anchor="middle" x="105" y="-63.5" font-family="Helvetica,sans-Serif" font-size="10.00">stdexcept</text>
</g>
<!-- Node8&#45;&gt;Node9 -->
<g id="edge8" class="edge"><title>Node8&#45;&gt;Node9</title>
<path fill="none" stroke="midnightblue" d="M73.2749,-112.083C78.6425,-104.455 86.5176,-93.2645 93.0787,-83.9408"/>
<polygon fill="midnightblue" stroke="midnightblue" points="95.9492,-85.9434 98.8418,-75.7511 90.2245,-81.9149 95.9492,-85.9434"/>
</g>
<!-- Node10 -->
<g id="node10" class="node"><title>Node10</title>
<g id="a_node10"><a xlink:href="blitz_8hh.html" target="_top" xlink:title="blitz.hh">
<polygon fill="none" stroke="black" points="9,-56.5 9,-75.5 57,-75.5 57,-56.5 9,-56.5"/>
<text text-anchor="middle" x="33" y="-63.5" font-family="Helvetica,sans-Serif" font-size="10.00">blitz.hh</text>
</a>
</g>
</g>
<!-- Node8&#45;&gt;Node10 -->
<g id="edge9" class="edge"><title>Node8&#45;&gt;Node10</title>
<path fill="none" stroke="midnightblue" d="M61.3856,-112.083C56.6326,-104.534 49.6819,-93.4948 43.8484,-84.2298"/>
<polygon fill="midnightblue" stroke="midnightblue" points="46.7999,-82.3486 38.5099,-75.7511 40.8763,-86.0783 46.7999,-82.3486"/>
</g>
<!-- Node10&#45;&gt;Node7 -->
<g id="edge11" class="edge"><title>Node10&#45;&gt;Node7</title>
<path fill="none" stroke="midnightblue" d="M57.1378,-57.1479C84.8877,-48.1209 130.723,-33.2105 162.761,-22.7885"/>
<polygon fill="midnightblue" stroke="midnightblue" points="164.211,-25.9974 172.638,-19.5756 162.046,-19.3408 164.211,-25.9974"/>
</g>
<!-- Node11 -->
<g id="node11" class="node"><title>Node11</title>
<polygon fill="none" stroke="#bfbfbf" points="0,-0.5 0,-19.5 56,-19.5 56,-0.5 0,-0.5"/>
<text text-anchor="middle" x="28" y="-7.5" font-family="Helvetica,sans-Serif" font-size="10.00">algorithm</text>
</g>
<!-- Node10&#45;&gt;Node11 -->
<g id="edge10" class="edge"><title>Node10&#45;&gt;Node11</title>
<path fill="none" stroke="midnightblue" d="M32.1744,-56.083C31.5191,-49.0059 30.5797,-38.8611 29.758,-29.9865"/>
<polygon fill="midnightblue" stroke="midnightblue" points="33.2174,-29.3858 28.8103,-19.7511 26.2473,-30.0312 33.2174,-29.3858"/>
</g>
<!-- Node12 -->
<g id="node12" class="node"><title>Node12</title>
<polygon fill="none" stroke="#bfbfbf" points="74,-0.5 74,-19.5 118,-19.5 118,-0.5 74,-0.5"/>
<text text-anchor="middle" x="96" y="-7.5" font-family="Helvetica,sans-Serif" font-size="10.00">cmath</text>
</g>
<!-- Node10&#45;&gt;Node12 -->
<g id="edge12" class="edge"><title>Node10&#45;&gt;Node12</title>
<path fill="none" stroke="midnightblue" d="M43.122,-56.324C52.5264,-48.2631 66.7441,-36.0765 78.069,-26.3695"/>
<polygon fill="midnightblue" stroke="midnightblue" points="80.379,-28.9993 85.6938,-19.8339 75.8234,-23.6844 80.379,-28.9993"/>
</g>
<!-- Node13&#45;&gt;Node4 -->
<g id="edge14" class="edge"><title>Node13&#45;&gt;Node4</title>
<path fill="none" stroke="midnightblue" d="M130.137,-168.083C132.683,-160.849 136.356,-150.409 139.527,-141.397"/>
<polygon fill="midnightblue" stroke="midnightblue" points="142.903,-142.346 142.921,-131.751 136.3,-140.023 142.903,-142.346"/>
</g>
<!-- Node13&#45;&gt;Node8 -->
<g id="edge16" class="edge"><title>Node13&#45;&gt;Node8</title>
<path fill="none" stroke="midnightblue" d="M117.36,-168.324C108.49,-160.341 95.1253,-148.313 84.3921,-138.653"/>
<polygon fill="midnightblue" stroke="midnightblue" points="86.5898,-135.922 76.8154,-131.834 81.907,-141.125 86.5898,-135.922"/>
</g>
<!-- Node13&#45;&gt;Node10 -->
<g id="edge15" class="edge"><title>Node13&#45;&gt;Node10</title>
<path fill="none" stroke="midnightblue" d="M103.537,-170.244C75.5604,-161.658 31.3893,-146.239 22,-132 12.7728,-118.007 17.7031,-98.7508 23.6122,-84.8335"/>
<polygon fill="midnightblue" stroke="midnightblue" points="26.7763,-86.3297 27.8996,-75.7946 20.4517,-83.3298 26.7763,-86.3297"/>
</g>
<!-- Node14&#45;&gt;Node7 -->
<g id="edge18" class="edge"><title>Node14&#45;&gt;Node7</title>
<path fill="none" stroke="midnightblue" d="M295.778,-56.4435C277.104,-47.6751 247.844,-33.9355 226.383,-23.8579"/>
<polygon fill="midnightblue" stroke="midnightblue" points="227.676,-20.5988 217.137,-19.5164 224.701,-26.935 227.676,-20.5988"/>
</g>
</g>
</svg>
