<?xml version="1.0" encoding="UTF-8" standalone="no"?>
<!DOCTYPE svg PUBLIC "-//W3C//DTD SVG 1.1//EN"
 "http://www.w3.org/Graphics/SVG/1.1/DTD/svg11.dtd">
<!-- Generated by graphviz version 2.36.0 (20140111.2315)
 -->
<!-- Title: /home/travis/build/igankevich/arma/src/opencl/cl.hh Pages: 1 -->
<svg width="749pt" height="284pt"
 viewBox="0.00 0.00 749.00 284.00" xmlns="http://www.w3.org/2000/svg" xmlns:xlink="http://www.w3.org/1999/xlink">
<g id="graph0" class="graph" transform="scale(1 1) rotate(0) translate(4 280)">
<title>/home/travis/build/igankevich/arma/src/opencl/cl.hh</title>
<!-- Node1 -->
<g id="node1" class="node"><title>Node1</title>
<polygon fill="#bfbfbf" stroke="black" points="361.5,-234.5 361.5,-275.5 468.5,-275.5 468.5,-234.5 361.5,-234.5"/>
<text text-anchor="start" x="369.5" y="-263.5" font-family="Helvetica,sans-Serif" font-size="10.00">/home/travis/build</text>
<text text-anchor="start" x="369.5" y="-252.5" font-family="Helvetica,sans-Serif" font-size="10.00">/igankevich/arma/src</text>
<text text-anchor="middle" x="415" y="-241.5" font-family="Helvetica,sans-Serif" font-size="10.00">/opencl/cl.hh</text>
</g>
<!-- Node2 -->
<g id="node2" class="node"><title>Node2</title>
<g id="a_node2"><a xlink:href="opencl_8hh.html" target="_top" xlink:title="/home/travis/build\l/igankevich/arma/src\l/opencl/opencl.hh">
<polygon fill="none" stroke="black" points="223.5,-156.5 223.5,-197.5 330.5,-197.5 330.5,-156.5 223.5,-156.5"/>
<text text-anchor="start" x="231.5" y="-185.5" font-family="Helvetica,sans-Serif" font-size="10.00">/home/travis/build</text>
<text text-anchor="start" x="231.5" y="-174.5" font-family="Helvetica,sans-Serif" font-size="10.00">/igankevich/arma/src</text>
<text text-anchor="middle" x="277" y="-163.5" font-family="Helvetica,sans-Serif" font-size="10.00">/opencl/opencl.hh</text>
</a>
</g>
</g>
<!-- Node1&#45;&gt;Node2 -->
<g id="edge1" class="edge"><title>Node1&#45;&gt;Node2</title>
<path fill="none" stroke="midnightblue" d="M370.487,-229.486C351.69,-219.134 330.107,-207.247 312.418,-197.506"/>
<polygon fill="midnightblue" stroke="midnightblue" points="369.014,-232.67 379.462,-234.428 372.391,-226.538 369.014,-232.67"/>
</g>
<!-- Node10 -->
<g id="node10" class="node"><title>Node10</title>
<g id="a_node10"><a xlink:href="device__type_8hh.html" target="_top" xlink:title="/home/travis/build\l/igankevich/arma/src\l/opencl/device_type.hh">
<polygon fill="none" stroke="black" points="494.5,-156.5 494.5,-197.5 611.5,-197.5 611.5,-156.5 494.5,-156.5"/>
<text text-anchor="start" x="502.5" y="-185.5" font-family="Helvetica,sans-Serif" font-size="10.00">/home/travis/build</text>
<text text-anchor="start" x="502.5" y="-174.5" font-family="Helvetica,sans-Serif" font-size="10.00">/igankevich/arma/src</text>
<text text-anchor="middle" x="553" y="-163.5" font-family="Helvetica,sans-Serif" font-size="10.00">/opencl/device_type.hh</text>
</a>
</g>
</g>
<!-- Node1&#45;&gt;Node10 -->
<g id="edge11" class="edge"><title>Node1&#45;&gt;Node10</title>
<path fill="none" stroke="midnightblue" d="M459.513,-229.486C478.31,-219.134 499.893,-207.247 517.582,-197.506"/>
<polygon fill="midnightblue" stroke="midnightblue" points="457.609,-226.538 450.538,-234.428 460.986,-232.67 457.609,-226.538"/>
</g>
<!-- Node3 -->
<g id="node3" class="node"><title>Node3</title>
<g id="a_node3"><a xlink:href="fourier__opencl_8hh.html" target="_top" xlink:title="/home/travis/build\l/igankevich/arma/src\l/apmath/fourier_opencl.hh">
<polygon fill="none" stroke="black" points="-0.5,-78.5 -0.5,-119.5 128.5,-119.5 128.5,-78.5 -0.5,-78.5"/>
<text text-anchor="start" x="7.5" y="-107.5" font-family="Helvetica,sans-Serif" font-size="10.00">/home/travis/build</text>
<text text-anchor="start" x="7.5" y="-96.5" font-family="Helvetica,sans-Serif" font-size="10.00">/igankevich/arma/src</text>
<text text-anchor="middle" x="64" y="-85.5" font-family="Helvetica,sans-Serif" font-size="10.00">/apmath/fourier_opencl.hh</text>
</a>
</g>
</g>
<!-- Node2&#45;&gt;Node3 -->
<g id="edge2" class="edge"><title>Node2&#45;&gt;Node3</title>
<path fill="none" stroke="midnightblue" d="M213.673,-153.405C183.524,-142.647 147.819,-129.907 118.844,-119.569"/>
<polygon fill="midnightblue" stroke="midnightblue" points="212.656,-156.758 223.251,-156.822 215.009,-150.165 212.656,-156.758"/>
</g>
<!-- Node4 -->
<g id="node4" class="node"><title>Node4</title>
<g id="a_node4"><a xlink:href="fourier__opencl_8cc.html" target="_top" xlink:title="/home/travis/build\l/igankevich/arma/src\l/apmath/fourier_opencl.cc">
<polygon fill="none" stroke="black" points="8.5,-0.5 8.5,-41.5 137.5,-41.5 137.5,-0.5 8.5,-0.5"/>
<text text-anchor="start" x="16.5" y="-29.5" font-family="Helvetica,sans-Serif" font-size="10.00">/home/travis/build</text>
<text text-anchor="start" x="16.5" y="-18.5" font-family="Helvetica,sans-Serif" font-size="10.00">/igankevich/arma/src</text>
<text text-anchor="middle" x="73" y="-7.5" font-family="Helvetica,sans-Serif" font-size="10.00">/apmath/fourier_opencl.cc</text>
</a>
</g>
</g>
<!-- Node2&#45;&gt;Node4 -->
<g id="edge4" class="edge"><title>Node2&#45;&gt;Node4</title>
<path fill="none" stroke="midnightblue" d="M243.182,-150.471C202.65,-119.873 135.621,-69.2726 98.9484,-41.5885"/>
<polygon fill="midnightblue" stroke="midnightblue" points="241.073,-153.264 251.163,-156.496 245.291,-147.677 241.073,-153.264"/>
</g>
<!-- Node5 -->
<g id="node5" class="node"><title>Node5</title>
<g id="a_node5"><a xlink:href="ar__model__opencl_8cc.html" target="_top" xlink:title="/home/travis/build\l/igankevich/arma/src\l/generator/ar_model_opencl.cc">
<polygon fill="none" stroke="black" points="172,-0.5 172,-41.5 322,-41.5 322,-0.5 172,-0.5"/>
<text text-anchor="start" x="180" y="-29.5" font-family="Helvetica,sans-Serif" font-size="10.00">/home/travis/build</text>
<text text-anchor="start" x="180" y="-18.5" font-family="Helvetica,sans-Serif" font-size="10.00">/igankevich/arma/src</text>
<text text-anchor="middle" x="247" y="-7.5" font-family="Helvetica,sans-Serif" font-size="10.00">/generator/ar_model_opencl.cc</text>
</a>
</g>
</g>
<!-- Node2&#45;&gt;Node5 -->
<g id="edge5" class="edge"><title>Node2&#45;&gt;Node5</title>
<path fill="none" stroke="midnightblue" d="M237.352,-149.883C227.944,-141.553 219.152,-131.472 214,-120 202.159,-93.6329 218.264,-61.6694 231.848,-41.5775"/>
<polygon fill="midnightblue" stroke="midnightblue" points="235.391,-152.802 245.334,-156.461 239.843,-147.4 235.391,-152.802"/>
</g>
<!-- Node6 -->
<g id="node6" class="node"><title>Node6</title>
<g id="a_node6"><a xlink:href="array_8hh.html" target="_top" xlink:title="/home/travis/build\l/igankevich/arma/src\l/opencl/array.hh">
<polygon fill="none" stroke="black" points="223.5,-78.5 223.5,-119.5 330.5,-119.5 330.5,-78.5 223.5,-78.5"/>
<text text-anchor="start" x="231.5" y="-107.5" font-family="Helvetica,sans-Serif" font-size="10.00">/home/travis/build</text>
<text text-anchor="start" x="231.5" y="-96.5" font-family="Helvetica,sans-Serif" font-size="10.00">/igankevich/arma/src</text>
<text text-anchor="middle" x="277" y="-85.5" font-family="Helvetica,sans-Serif" font-size="10.00">/opencl/array.hh</text>
</a>
</g>
</g>
<!-- Node2&#45;&gt;Node6 -->
<g id="edge6" class="edge"><title>Node2&#45;&gt;Node6</title>
<path fill="none" stroke="midnightblue" d="M277,-146.297C277,-137.301 277,-127.653 277,-119.506"/>
<polygon fill="midnightblue" stroke="midnightblue" points="273.5,-146.428 277,-156.428 280.5,-146.428 273.5,-146.428"/>
</g>
<!-- Node7 -->
<g id="node7" class="node"><title>Node7</title>
<g id="a_node7"><a xlink:href="gl__object__guard_8hh.html" target="_top" xlink:title="/home/travis/build\l/igankevich/arma/src\l/opencl/gl_object_guard.hh">
<polygon fill="none" stroke="black" points="348.5,-78.5 348.5,-119.5 481.5,-119.5 481.5,-78.5 348.5,-78.5"/>
<text text-anchor="start" x="356.5" y="-107.5" font-family="Helvetica,sans-Serif" font-size="10.00">/home/travis/build</text>
<text text-anchor="start" x="356.5" y="-96.5" font-family="Helvetica,sans-Serif" font-size="10.00">/igankevich/arma/src</text>
<text text-anchor="middle" x="415" y="-85.5" font-family="Helvetica,sans-Serif" font-size="10.00">/opencl/gl_object_guard.hh</text>
</a>
</g>
</g>
<!-- Node2&#45;&gt;Node7 -->
<g id="edge8" class="edge"><title>Node2&#45;&gt;Node7</title>
<path fill="none" stroke="midnightblue" d="M321.513,-151.486C340.31,-141.134 361.893,-129.247 379.582,-119.506"/>
<polygon fill="midnightblue" stroke="midnightblue" points="319.609,-148.538 312.538,-156.428 322.986,-154.67 319.609,-148.538"/>
</g>
<!-- Node9 -->
<g id="node9" class="node"><title>Node9</title>
<g id="a_node9"><a xlink:href="opencl_8cc.html" target="_top" xlink:title="/home/travis/build\l/igankevich/arma/src\l/opencl/opencl.cc">
<polygon fill="none" stroke="black" points="499.5,-78.5 499.5,-119.5 606.5,-119.5 606.5,-78.5 499.5,-78.5"/>
<text text-anchor="start" x="507.5" y="-107.5" font-family="Helvetica,sans-Serif" font-size="10.00">/home/travis/build</text>
<text text-anchor="start" x="507.5" y="-96.5" font-family="Helvetica,sans-Serif" font-size="10.00">/igankevich/arma/src</text>
<text text-anchor="middle" x="553" y="-85.5" font-family="Helvetica,sans-Serif" font-size="10.00">/opencl/opencl.cc</text>
</a>
</g>
</g>
<!-- Node2&#45;&gt;Node9 -->
<g id="edge10" class="edge"><title>Node2&#45;&gt;Node9</title>
<path fill="none" stroke="midnightblue" d="M340.523,-160.19C382.989,-149.402 440.024,-134.492 490,-120 493.086,-119.105 496.251,-118.167 499.44,-117.205"/>
<polygon fill="midnightblue" stroke="midnightblue" points="339.436,-156.854 330.602,-162.702 341.155,-163.64 339.436,-156.854"/>
</g>
<!-- Node3&#45;&gt;Node4 -->
<g id="edge3" class="edge"><title>Node3&#45;&gt;Node4</title>
<path fill="none" stroke="midnightblue" d="M67.5175,-68.2965C68.5828,-59.3009 69.7253,-49.6532 70.6901,-41.5056"/>
<polygon fill="midnightblue" stroke="midnightblue" points="64.0181,-68.0859 66.3177,-78.4281 70.9695,-68.9091 64.0181,-68.0859"/>
</g>
<!-- Node6&#45;&gt;Node5 -->
<g id="edge7" class="edge"><title>Node6&#45;&gt;Node5</title>
<path fill="none" stroke="midnightblue" d="M265.506,-68.8823C261.89,-59.7211 257.986,-49.8303 254.7,-41.5056"/>
<polygon fill="midnightblue" stroke="midnightblue" points="262.347,-70.4117 269.274,-78.4281 268.858,-67.8414 262.347,-70.4117"/>
</g>
<!-- Node8 -->
<g id="node8" class="node"><title>Node8</title>
<g id="a_node8"><a xlink:href="gl__object__guard_8cc.html" target="_top" xlink:title="/home/travis/build\l/igankevich/arma/src\l/opencl/gl_object_guard.cc">
<polygon fill="none" stroke="black" points="348.5,-0.5 348.5,-41.5 481.5,-41.5 481.5,-0.5 348.5,-0.5"/>
<text text-anchor="start" x="356.5" y="-29.5" font-family="Helvetica,sans-Serif" font-size="10.00">/home/travis/build</text>
<text text-anchor="start" x="356.5" y="-18.5" font-family="Helvetica,sans-Serif" font-size="10.00">/igankevich/arma/src</text>
<text text-anchor="middle" x="415" y="-7.5" font-family="Helvetica,sans-Serif" font-size="10.00">/opencl/gl_object_guard.cc</text>
</a>
</g>
</g>
<!-- Node7&#45;&gt;Node8 -->
<g id="edge9" class="edge"><title>Node7&#45;&gt;Node8</title>
<path fill="none" stroke="midnightblue" d="M415,-68.2965C415,-59.3009 415,-49.6532 415,-41.5056"/>
<polygon fill="midnightblue" stroke="midnightblue" points="411.5,-68.4281 415,-78.4281 418.5,-68.4281 411.5,-68.4281"/>
</g>
<!-- Node10&#45;&gt;Node9 -->
<g id="edge13" class="edge"><title>Node10&#45;&gt;Node9</title>
<path fill="none" stroke="midnightblue" d="M553,-146.297C553,-137.301 553,-127.653 553,-119.506"/>
<polygon fill="midnightblue" stroke="midnightblue" points="549.5,-146.428 553,-156.428 556.5,-146.428 549.5,-146.428"/>
</g>
<!-- Node11 -->
<g id="node11" class="node"><title>Node11</title>
<g id="a_node11"><a xlink:href="device__type_8cc.html" target="_top" xlink:title="/home/travis/build\l/igankevich/arma/src\l/opencl/device_type.cc">
<polygon fill="none" stroke="black" points="624.5,-78.5 624.5,-119.5 741.5,-119.5 741.5,-78.5 624.5,-78.5"/>
<text text-anchor="start" x="632.5" y="-107.5" font-family="Helvetica,sans-Serif" font-size="10.00">/home/travis/build</text>
<text text-anchor="start" x="632.5" y="-96.5" font-family="Helvetica,sans-Serif" font-size="10.00">/igankevich/arma/src</text>
<text text-anchor="middle" x="683" y="-85.5" font-family="Helvetica,sans-Serif" font-size="10.00">/opencl/device_type.cc</text>
</a>
</g>
</g>
<!-- Node10&#45;&gt;Node11 -->
<g id="edge12" class="edge"><title>Node10&#45;&gt;Node11</title>
<path fill="none" stroke="midnightblue" d="M595.416,-151.203C613.009,-140.918 633.123,-129.159 649.635,-119.506"/>
<polygon fill="midnightblue" stroke="midnightblue" points="593.345,-148.36 586.478,-156.428 596.878,-154.403 593.345,-148.36"/>
</g>
</g>
</svg>
