<?xml version="1.0" encoding="UTF-8" standalone="no"?>
<!DOCTYPE svg PUBLIC "-//W3C//DTD SVG 1.1//EN"
 "http://www.w3.org/Graphics/SVG/1.1/DTD/svg11.dtd">
<!-- Generated by graphviz version 2.40.1 (20161225.0304)
 -->
<!-- Title: arma::Discrete_function&lt; T, N &gt; Pages: 1 -->
<svg width="129pt" height="215pt"
 viewBox="0.00 0.00 129.00 215.00" xmlns="http://www.w3.org/2000/svg" xmlns:xlink="http://www.w3.org/1999/xlink">
<g id="graph0" class="graph" transform="scale(1 1) rotate(0) translate(4 211)">
<title>arma::Discrete_function&lt; T, N &gt;</title>
<!-- Node2 -->
<g id="node1" class="node">
<title>Node2</title>
<polygon fill="#bfbfbf" stroke="#000000" points="0,-.5 0,-112.5 121,-112.5 121,-.5 0,-.5"/>
<text text-anchor="start" x="8" y="-100.5" font-family="Helvetica,sans-Serif" font-size="10.00" fill="#000000">arma::Discrete_function</text>
<text text-anchor="middle" x="60.5" y="-89.5" font-family="Helvetica,sans-Serif" font-size="10.00" fill="#000000">&lt; T, N &gt;</text>
<polyline fill="none" stroke="#000000" points="0,-82.5 121,-82.5 "/>
<text text-anchor="start" x="8" y="-70.5" font-family="Helvetica,sans-Serif" font-size="10.00" fill="#000000">&#45; _grid</text>
<polyline fill="none" stroke="#000000" points="0,-63.5 121,-63.5 "/>
<text text-anchor="start" x="8" y="-51.5" font-family="Helvetica,sans-Serif" font-size="10.00" fill="#000000">+ grid()</text>
<text text-anchor="start" x="8" y="-40.5" font-family="Helvetica,sans-Serif" font-size="10.00" fill="#000000">+ setgrid()</text>
<text text-anchor="start" x="8" y="-29.5" font-family="Helvetica,sans-Serif" font-size="10.00" fill="#000000">+ operator=()</text>
<text text-anchor="start" x="8" y="-18.5" font-family="Helvetica,sans-Serif" font-size="10.00" fill="#000000">+ reference()</text>
<text text-anchor="start" x="8" y="-7.5" font-family="Helvetica,sans-Serif" font-size="10.00" fill="#000000">+ reference()</text>
</g>
<!-- Node3 -->
<g id="node2" class="node">
<title>Node3</title>
<polygon fill="none" stroke="#bfbfbf" points="8.5,-149.5 8.5,-206.5 112.5,-206.5 112.5,-149.5 8.5,-149.5"/>
<text text-anchor="middle" x="60.5" y="-194.5" font-family="Helvetica,sans-Serif" font-size="10.00" fill="#000000">arma::Array&lt; T, N &gt;</text>
<polyline fill="none" stroke="#bfbfbf" points="8.5,-187.5 112.5,-187.5 "/>
<text text-anchor="middle" x="60.5" y="-175.5" font-family="Helvetica,sans-Serif" font-size="10.00" fill="#000000"> </text>
<polyline fill="none" stroke="#bfbfbf" points="8.5,-168.5 112.5,-168.5 "/>
<text text-anchor="middle" x="60.5" y="-156.5" font-family="Helvetica,sans-Serif" font-size="10.00" fill="#000000"> </text>
</g>
<!-- Node3&#45;&gt;Node2 -->
<g id="edge1" class="edge">
<title>Node3&#45;&gt;Node2</title>
<path fill="none" stroke="#191970" d="M60.5,-139.0021C60.5,-130.6329 60.5,-121.6292 60.5,-112.7541"/>
<polygon fill="none" stroke="#191970" points="57.0001,-139.2062 60.5,-149.2062 64.0001,-139.2062 57.0001,-139.2062"/>
</g>
</g>
</svg>
