<?xml version="1.0" encoding="UTF-8" standalone="no"?>
<!DOCTYPE svg PUBLIC "-//W3C//DTD SVG 1.1//EN"
 "http://www.w3.org/Graphics/SVG/1.1/DTD/svg11.dtd">
<!-- Generated by graphviz version 2.36.0 (20140111.2315)
 -->
<!-- Title: arma::ARMA_realtime_driver&lt; T &gt; Pages: 1 -->
<svg width="480pt" height="958pt"
 viewBox="0.00 0.00 480.00 958.00" xmlns="http://www.w3.org/2000/svg" xmlns:xlink="http://www.w3.org/1999/xlink">
<g id="graph0" class="graph" transform="scale(1 1) rotate(0) translate(4 954)">
<title>arma::ARMA_realtime_driver&lt; T &gt;</title>
<!-- Node1 -->
<g id="node1" class="node"><title>Node1</title>
<polygon fill="#bfbfbf" stroke="black" points="189,-0.5 189,-167.5 325,-167.5 325,-0.5 189,-0.5"/>
<text text-anchor="start" x="197" y="-155.5" font-family="Helvetica,sans-Serif" font-size="10.00">arma::ARMA_realtime</text>
<text text-anchor="middle" x="257" y="-144.5" font-family="Helvetica,sans-Serif" font-size="10.00">_driver&lt; T &gt;</text>
<polyline fill="none" stroke="black" points="189,-137.5 325,-137.5 "/>
<text text-anchor="start" x="197" y="-125.5" font-family="Helvetica,sans-Serif" font-size="10.00">&#45; _vao_phi</text>
<text text-anchor="start" x="197" y="-114.5" font-family="Helvetica,sans-Serif" font-size="10.00">&#45; _vbo_phi</text>
<text text-anchor="start" x="197" y="-103.5" font-family="Helvetica,sans-Serif" font-size="10.00">&#45; _ibo_phi</text>
<text text-anchor="start" x="197" y="-92.5" font-family="Helvetica,sans-Serif" font-size="10.00">&#45; _indices</text>
<polyline fill="none" stroke="black" points="189,-85.5 325,-85.5 "/>
<text text-anchor="start" x="197" y="-73.5" font-family="Helvetica,sans-Serif" font-size="10.00">+ ARMA_realtime_driver()</text>
<text text-anchor="start" x="197" y="-62.5" font-family="Helvetica,sans-Serif" font-size="10.00">+ ~ARMA_realtime_driver()</text>
<text text-anchor="start" x="197" y="-51.5" font-family="Helvetica,sans-Serif" font-size="10.00">+ on_display()</text>
<text text-anchor="start" x="197" y="-40.5" font-family="Helvetica,sans-Serif" font-size="10.00">+ read()</text>
<text text-anchor="start" x="197" y="-29.5" font-family="Helvetica,sans-Serif" font-size="10.00">&#45; init_buffers()</text>
<text text-anchor="start" x="197" y="-18.5" font-family="Helvetica,sans-Serif" font-size="10.00">&#45; delete_buffers()</text>
<text text-anchor="start" x="197" y="-7.5" font-family="Helvetica,sans-Serif" font-size="10.00">&#45; init_indices()</text>
</g>
<!-- Node2 -->
<g id="node2" class="node"><title>Node2</title>
<g id="a_node2"><a xlink:href="structarma_1_1ARMA__driver.html" target="_top" xlink:title="Control class that generates wavy surface and computes velocity potential field. ">
<polygon fill="none" stroke="black" points="193,-207 193,-429 321,-429 321,-207 193,-207"/>
<text text-anchor="middle" x="257" y="-417" font-family="Helvetica,sans-Serif" font-size="10.00">arma::ARMA_driver&lt; T &gt;</text>
<polyline fill="none" stroke="black" points="193,-410 321,-410 "/>
<text text-anchor="start" x="201" y="-398" font-family="Helvetica,sans-Serif" font-size="10.00">&#45; _vpotentials</text>
<text text-anchor="start" x="201" y="-387" font-family="Helvetica,sans-Serif" font-size="10.00">&#45; _solvers</text>
<text text-anchor="start" x="201" y="-376" font-family="Helvetica,sans-Serif" font-size="10.00">&#45; _models</text>
<polyline fill="none" stroke="black" points="193,-369 321,-369 "/>
<text text-anchor="start" x="201" y="-357" font-family="Helvetica,sans-Serif" font-size="10.00">+ ARMA_driver()</text>
<text text-anchor="start" x="201" y="-346" font-family="Helvetica,sans-Serif" font-size="10.00">+ ~ARMA_driver()</text>
<text text-anchor="start" x="201" y="-335" font-family="Helvetica,sans-Serif" font-size="10.00">+ open()</text>
<text text-anchor="start" x="201" y="-324" font-family="Helvetica,sans-Serif" font-size="10.00">+ wavy_surface()</text>
<text text-anchor="start" x="201" y="-313" font-family="Helvetica,sans-Serif" font-size="10.00">+ wavy_surface_grid()</text>
<text text-anchor="start" x="201" y="-302" font-family="Helvetica,sans-Serif" font-size="10.00">+ velocity_potentials()</text>
<text text-anchor="start" x="201" y="-291" font-family="Helvetica,sans-Serif" font-size="10.00">+ velocity_potential</text>
<text text-anchor="start" x="201" y="-280" font-family="Helvetica,sans-Serif" font-size="10.00">_solver()</text>
<text text-anchor="start" x="201" y="-269" font-family="Helvetica,sans-Serif" font-size="10.00">+ velocity_potential</text>
<text text-anchor="start" x="201" y="-258" font-family="Helvetica,sans-Serif" font-size="10.00">_solver()</text>
<text text-anchor="start" x="201" y="-247" font-family="Helvetica,sans-Serif" font-size="10.00">+ oflags()</text>
<text text-anchor="start" x="201" y="-236" font-family="Helvetica,sans-Serif" font-size="10.00">+ velocity_potential_grid()</text>
<text text-anchor="start" x="201" y="-225" font-family="Helvetica,sans-Serif" font-size="10.00">and 8 more...</text>
<text text-anchor="start" x="201" y="-214" font-family="Helvetica,sans-Serif" font-size="10.00">&#45; echo_parameters()</text>
</a>
</g>
</g>
<!-- Node2&#45;&gt;Node1 -->
<g id="edge1" class="edge"><title>Node2&#45;&gt;Node1</title>
<path fill="none" stroke="midnightblue" d="M257,-196.549C257,-186.739 257,-176.972 257,-167.529"/>
<polygon fill="none" stroke="midnightblue" points="253.5,-196.775 257,-206.775 260.5,-196.775 253.5,-196.775"/>
</g>
<!-- Node3 -->
<g id="node3" class="node"><title>Node3</title>
<g id="a_node3"><a xlink:href="classarma_1_1velocity_1_1Velocity__potential__solver.html" target="_top" xlink:title="Base class for all velocity potential field solvers. ">
<polygon fill="none" stroke="black" points="0,-479 0,-701 146,-701 146,-479 0,-479"/>
<text text-anchor="start" x="8" y="-689" font-family="Helvetica,sans-Serif" font-size="10.00">arma::velocity::Velocity</text>
<text text-anchor="middle" x="73" y="-678" font-family="Helvetica,sans-Serif" font-size="10.00">_potential_solver&lt; T &gt;</text>
<polyline fill="none" stroke="black" points="0,-671 146,-671 "/>
<text text-anchor="start" x="8" y="-659" font-family="Helvetica,sans-Serif" font-size="10.00"># _depth</text>
<polyline fill="none" stroke="black" points="0,-652 146,-652 "/>
<text text-anchor="start" x="8" y="-640" font-family="Helvetica,sans-Serif" font-size="10.00">+ Velocity_potential</text>
<text text-anchor="start" x="8" y="-629" font-family="Helvetica,sans-Serif" font-size="10.00">_solver()</text>
<text text-anchor="start" x="8" y="-618" font-family="Helvetica,sans-Serif" font-size="10.00">+ Velocity_potential</text>
<text text-anchor="start" x="8" y="-607" font-family="Helvetica,sans-Serif" font-size="10.00">_solver()</text>
<text text-anchor="start" x="8" y="-596" font-family="Helvetica,sans-Serif" font-size="10.00">+ Velocity_potential</text>
<text text-anchor="start" x="8" y="-585" font-family="Helvetica,sans-Serif" font-size="10.00">_solver()</text>
<text text-anchor="start" x="8" y="-574" font-family="Helvetica,sans-Serif" font-size="10.00">+ ~Velocity_potential</text>
<text text-anchor="start" x="8" y="-563" font-family="Helvetica,sans-Serif" font-size="10.00">_solver()</text>
<text text-anchor="start" x="8" y="-552" font-family="Helvetica,sans-Serif" font-size="10.00">+ operator()()</text>
<text text-anchor="start" x="8" y="-541" font-family="Helvetica,sans-Serif" font-size="10.00">+ domain()</text>
<text text-anchor="start" x="8" y="-530" font-family="Helvetica,sans-Serif" font-size="10.00"># precompute()</text>
<text text-anchor="start" x="8" y="-519" font-family="Helvetica,sans-Serif" font-size="10.00"># precompute()</text>
<text text-anchor="start" x="8" y="-508" font-family="Helvetica,sans-Serif" font-size="10.00"># compute_velocity_field_2d()</text>
<text text-anchor="start" x="8" y="-497" font-family="Helvetica,sans-Serif" font-size="10.00"># write()</text>
<text text-anchor="start" x="8" y="-486" font-family="Helvetica,sans-Serif" font-size="10.00"># read()</text>
</a>
</g>
</g>
<!-- Node3&#45;&gt;Node2 -->
<g id="edge2" class="edge"><title>Node3&#45;&gt;Node2</title>
<path fill="none" stroke="#404040" d="M146.25,-481.513C159.393,-462.228 173.069,-442.16 186.142,-422.976"/>
<polygon fill="none" stroke="#404040" points="186.16,-422.949 186.234,-415.739 192.918,-413.033 192.845,-420.244 186.16,-422.949"/>
<text text-anchor="middle" x="184" y="-451.5" font-family="Helvetica,sans-Serif" font-size="10.00"> &#45;_solver</text>
</g>
<!-- Node4 -->
<g id="node4" class="node"><title>Node4</title>
<g id="a_node4"><a xlink:href="structarma_1_1Domain.html" target="_top" xlink:title="{arma::Domain\&lt; T \&gt;\n|&#45; _lbound\l&#45; _ubound\l&#45; _npoints\l|+ Domain()\l+ Domain()\l+ Domain()\l+ Domain()\l+ Domain()\l+ Domain()\l+ Domain()\l+ ~Domain()\l+ num_points()\l+ num_points()\land 15 more...\l}">
<polygon fill="none" stroke="black" points="13,-760.5 13,-949.5 115,-949.5 115,-760.5 13,-760.5"/>
<text text-anchor="middle" x="64" y="-937.5" font-family="Helvetica,sans-Serif" font-size="10.00">arma::Domain&lt; T &gt;</text>
<polyline fill="none" stroke="black" points="13,-930.5 115,-930.5 "/>
<text text-anchor="start" x="21" y="-918.5" font-family="Helvetica,sans-Serif" font-size="10.00">&#45; _lbound</text>
<text text-anchor="start" x="21" y="-907.5" font-family="Helvetica,sans-Serif" font-size="10.00">&#45; _ubound</text>
<text text-anchor="start" x="21" y="-896.5" font-family="Helvetica,sans-Serif" font-size="10.00">&#45; _npoints</text>
<polyline fill="none" stroke="black" points="13,-889.5 115,-889.5 "/>
<text text-anchor="start" x="21" y="-877.5" font-family="Helvetica,sans-Serif" font-size="10.00">+ Domain()</text>
<text text-anchor="start" x="21" y="-866.5" font-family="Helvetica,sans-Serif" font-size="10.00">+ Domain()</text>
<text text-anchor="start" x="21" y="-855.5" font-family="Helvetica,sans-Serif" font-size="10.00">+ Domain()</text>
<text text-anchor="start" x="21" y="-844.5" font-family="Helvetica,sans-Serif" font-size="10.00">+ Domain()</text>
<text text-anchor="start" x="21" y="-833.5" font-family="Helvetica,sans-Serif" font-size="10.00">+ Domain()</text>
<text text-anchor="start" x="21" y="-822.5" font-family="Helvetica,sans-Serif" font-size="10.00">+ Domain()</text>
<text text-anchor="start" x="21" y="-811.5" font-family="Helvetica,sans-Serif" font-size="10.00">+ Domain()</text>
<text text-anchor="start" x="21" y="-800.5" font-family="Helvetica,sans-Serif" font-size="10.00">+ ~Domain()</text>
<text text-anchor="start" x="21" y="-789.5" font-family="Helvetica,sans-Serif" font-size="10.00">+ num_points()</text>
<text text-anchor="start" x="21" y="-778.5" font-family="Helvetica,sans-Serif" font-size="10.00">+ num_points()</text>
<text text-anchor="start" x="21" y="-767.5" font-family="Helvetica,sans-Serif" font-size="10.00">and 15 more...</text>
</a>
</g>
</g>
<!-- Node4&#45;&gt;Node3 -->
<g id="edge3" class="edge"><title>Node4&#45;&gt;Node3</title>
<path fill="none" stroke="#404040" d="M67.2111,-760.165C67.7249,-745.149 68.2633,-729.418 68.7961,-713.849"/>
<polygon fill="none" stroke="#404040" points="68.8111,-713.407 65.0187,-707.274 69.2216,-701.414 73.014,-707.547 68.8111,-713.407"/>
<text text-anchor="middle" x="92" y="-734" font-family="Helvetica,sans-Serif" font-size="10.00"> #_domain</text>
<text text-anchor="middle" x="92" y="-723" font-family="Helvetica,sans-Serif" font-size="10.00">#_wnmax</text>
</g>
<!-- Node5 -->
<g id="node5" class="node"><title>Node5</title>
<g id="a_node5"><a xlink:href="classarma_1_1generator_1_1Basic__model.html" target="_top" xlink:title="A base class for all generators. ">
<polygon fill="none" stroke="black" points="199,-484.5 199,-695.5 315,-695.5 315,-484.5 199,-484.5"/>
<text text-anchor="start" x="207" y="-683.5" font-family="Helvetica,sans-Serif" font-size="10.00">arma::generator::Basic</text>
<text text-anchor="middle" x="257" y="-672.5" font-family="Helvetica,sans-Serif" font-size="10.00">_model&lt; T &gt;</text>
<polyline fill="none" stroke="black" points="199,-665.5 315,-665.5 "/>
<text text-anchor="start" x="207" y="-653.5" font-family="Helvetica,sans-Serif" font-size="10.00"># _noseed</text>
<polyline fill="none" stroke="black" points="199,-646.5 315,-646.5 "/>
<text text-anchor="start" x="207" y="-634.5" font-family="Helvetica,sans-Serif" font-size="10.00">+ Basic_model()</text>
<text text-anchor="start" x="207" y="-623.5" font-family="Helvetica,sans-Serif" font-size="10.00">+ Basic_model()</text>
<text text-anchor="start" x="207" y="-612.5" font-family="Helvetica,sans-Serif" font-size="10.00">+ Basic_model()</text>
<text text-anchor="start" x="207" y="-601.5" font-family="Helvetica,sans-Serif" font-size="10.00">+ ~Basic_model()</text>
<text text-anchor="start" x="207" y="-590.5" font-family="Helvetica,sans-Serif" font-size="10.00">+ setgrid()</text>
<text text-anchor="start" x="207" y="-579.5" font-family="Helvetica,sans-Serif" font-size="10.00">+ grid()</text>
<text text-anchor="start" x="207" y="-568.5" font-family="Helvetica,sans-Serif" font-size="10.00">+ oflags()</text>
<text text-anchor="start" x="207" y="-557.5" font-family="Helvetica,sans-Serif" font-size="10.00">+ writes_in_parallel()</text>
<text text-anchor="start" x="207" y="-546.5" font-family="Helvetica,sans-Serif" font-size="10.00">+ validate()</text>
<text text-anchor="start" x="207" y="-535.5" font-family="Helvetica,sans-Serif" font-size="10.00">+ generate()</text>
<text text-anchor="start" x="207" y="-524.5" font-family="Helvetica,sans-Serif" font-size="10.00">+ verify()</text>
<text text-anchor="start" x="207" y="-513.5" font-family="Helvetica,sans-Serif" font-size="10.00"># write()</text>
<text text-anchor="start" x="207" y="-502.5" font-family="Helvetica,sans-Serif" font-size="10.00"># read()</text>
<text text-anchor="start" x="207" y="-491.5" font-family="Helvetica,sans-Serif" font-size="10.00"># newseed()</text>
</a>
</g>
</g>
<!-- Node5&#45;&gt;Node2 -->
<g id="edge4" class="edge"><title>Node5&#45;&gt;Node2</title>
<path fill="none" stroke="#404040" d="M257,-484.225C257,-470.096 257,-455.502 257,-441.106"/>
<polygon fill="none" stroke="#404040" points="257,-441.073 253,-435.073 257,-429.073 261,-435.073 257,-441.073"/>
<text text-anchor="middle" x="276" y="-451.5" font-family="Helvetica,sans-Serif" font-size="10.00"> &#45;_model</text>
</g>
<!-- Node6 -->
<g id="node6" class="node"><title>Node6</title>
<g id="a_node6"><a xlink:href="structarma_1_1Grid.html" target="_top" xlink:title="{arma::Grid\&lt; T, 3 \&gt;\n|&#45; _npoints\l&#45; _length\l|+ Grid()\l+ Grid()\l+ Grid()\l+ Grid()\l+ ~Grid()\l+ num_points()\l+ num_points()\l+ size()\l+ num_patches()\l+ num_patches()\land 12 more...\l}">
<polygon fill="none" stroke="black" points="133,-766 133,-944 231,-944 231,-766 133,-766"/>
<text text-anchor="middle" x="182" y="-932" font-family="Helvetica,sans-Serif" font-size="10.00">arma::Grid&lt; T, 3 &gt;</text>
<polyline fill="none" stroke="black" points="133,-925 231,-925 "/>
<text text-anchor="start" x="141" y="-913" font-family="Helvetica,sans-Serif" font-size="10.00">&#45; _npoints</text>
<text text-anchor="start" x="141" y="-902" font-family="Helvetica,sans-Serif" font-size="10.00">&#45; _length</text>
<polyline fill="none" stroke="black" points="133,-895 231,-895 "/>
<text text-anchor="start" x="141" y="-883" font-family="Helvetica,sans-Serif" font-size="10.00">+ Grid()</text>
<text text-anchor="start" x="141" y="-872" font-family="Helvetica,sans-Serif" font-size="10.00">+ Grid()</text>
<text text-anchor="start" x="141" y="-861" font-family="Helvetica,sans-Serif" font-size="10.00">+ Grid()</text>
<text text-anchor="start" x="141" y="-850" font-family="Helvetica,sans-Serif" font-size="10.00">+ Grid()</text>
<text text-anchor="start" x="141" y="-839" font-family="Helvetica,sans-Serif" font-size="10.00">+ ~Grid()</text>
<text text-anchor="start" x="141" y="-828" font-family="Helvetica,sans-Serif" font-size="10.00">+ num_points()</text>
<text text-anchor="start" x="141" y="-817" font-family="Helvetica,sans-Serif" font-size="10.00">+ num_points()</text>
<text text-anchor="start" x="141" y="-806" font-family="Helvetica,sans-Serif" font-size="10.00">+ size()</text>
<text text-anchor="start" x="141" y="-795" font-family="Helvetica,sans-Serif" font-size="10.00">+ num_patches()</text>
<text text-anchor="start" x="141" y="-784" font-family="Helvetica,sans-Serif" font-size="10.00">+ num_patches()</text>
<text text-anchor="start" x="141" y="-773" font-family="Helvetica,sans-Serif" font-size="10.00">and 12 more...</text>
</a>
</g>
</g>
<!-- Node6&#45;&gt;Node5 -->
<g id="edge5" class="edge"><title>Node6&#45;&gt;Node5</title>
<path fill="none" stroke="#404040" d="M207.183,-765.693C212.494,-747.069 218.176,-727.144 223.732,-707.66"/>
<polygon fill="none" stroke="#404040" points="223.787,-707.468 221.586,-700.601 227.078,-695.928 229.279,-702.795 223.787,-707.468"/>
<text text-anchor="middle" x="241.5" y="-728.5" font-family="Helvetica,sans-Serif" font-size="10.00"> #_outgrid</text>
</g>
<!-- Node7 -->
<g id="node7" class="node"><title>Node7</title>
<g id="a_node7"><a xlink:href="classarma_1_1Output__flags.html" target="_top" xlink:title="Flags that determine what and how is written to disk. ">
<polygon fill="none" stroke="black" points="249,-804.5 249,-905.5 349,-905.5 349,-804.5 249,-804.5"/>
<text text-anchor="middle" x="299" y="-893.5" font-family="Helvetica,sans-Serif" font-size="10.00">arma::Output_flags</text>
<polyline fill="none" stroke="black" points="249,-886.5 349,-886.5 "/>
<text text-anchor="start" x="257" y="-874.5" font-family="Helvetica,sans-Serif" font-size="10.00">&#45; _flags</text>
<polyline fill="none" stroke="black" points="249,-867.5 349,-867.5 "/>
<text text-anchor="start" x="257" y="-855.5" font-family="Helvetica,sans-Serif" font-size="10.00">+ setf()</text>
<text text-anchor="start" x="257" y="-844.5" font-family="Helvetica,sans-Serif" font-size="10.00">+ isset()</text>
<text text-anchor="start" x="257" y="-833.5" font-family="Helvetica,sans-Serif" font-size="10.00">+ operator==()</text>
<text text-anchor="start" x="257" y="-822.5" font-family="Helvetica,sans-Serif" font-size="10.00">+ operator!=()</text>
<text text-anchor="start" x="257" y="-811.5" font-family="Helvetica,sans-Serif" font-size="10.00">&#45; prune()</text>
</a>
</g>
</g>
<!-- Node7&#45;&gt;Node5 -->
<g id="edge6" class="edge"><title>Node7&#45;&gt;Node5</title>
<path fill="none" stroke="#404040" d="M291.051,-804.223C286.668,-776.781 281.03,-741.472 275.607,-707.515"/>
<polygon fill="none" stroke="#404040" points="275.593,-707.425 270.696,-702.13 273.7,-695.575 278.596,-700.869 275.593,-707.425"/>
<text text-anchor="middle" x="301" y="-728.5" font-family="Helvetica,sans-Serif" font-size="10.00"> #_oflags</text>
</g>
<!-- Node8 -->
<g id="node8" class="node"><title>Node8</title>
<g id="a_node8"><a xlink:href="classarma_1_1Discrete__function.html" target="_top" xlink:title="{arma::Discrete_function\l\&lt; T, 3 \&gt;\n|&#45; _grid\l|+ grid()\l+ setgrid()\l+ operator=()\l}">
<polygon fill="none" stroke="black" points="350.5,-545 350.5,-635 471.5,-635 471.5,-545 350.5,-545"/>
<text text-anchor="start" x="358.5" y="-623" font-family="Helvetica,sans-Serif" font-size="10.00">arma::Discrete_function</text>
<text text-anchor="middle" x="411" y="-612" font-family="Helvetica,sans-Serif" font-size="10.00">&lt; T, 3 &gt;</text>
<polyline fill="none" stroke="black" points="350.5,-605 471.5,-605 "/>
<text text-anchor="start" x="358.5" y="-593" font-family="Helvetica,sans-Serif" font-size="10.00">&#45; _grid</text>
<polyline fill="none" stroke="black" points="350.5,-586 471.5,-586 "/>
<text text-anchor="start" x="358.5" y="-574" font-family="Helvetica,sans-Serif" font-size="10.00">+ grid()</text>
<text text-anchor="start" x="358.5" y="-563" font-family="Helvetica,sans-Serif" font-size="10.00">+ setgrid()</text>
<text text-anchor="start" x="358.5" y="-552" font-family="Helvetica,sans-Serif" font-size="10.00">+ operator=()</text>
</a>
</g>
</g>
<!-- Node8&#45;&gt;Node2 -->
<g id="edge7" class="edge"><title>Node8&#45;&gt;Node2</title>
<path fill="none" stroke="#404040" d="M385.742,-544.717C369.363,-516 347.17,-477.089 325.824,-439.665"/>
<polygon fill="none" stroke="#404040" points="325.777,-439.582 319.329,-436.352 319.831,-429.159 326.278,-432.389 325.777,-439.582"/>
<text text-anchor="middle" x="349.5" y="-451.5" font-family="Helvetica,sans-Serif" font-size="10.00"> &#45;_zeta</text>
</g>
<!-- Node9 -->
<g id="node9" class="node"><title>Node9</title>
<polygon fill="none" stroke="#bfbfbf" points="367.5,-826.5 367.5,-883.5 472.5,-883.5 472.5,-826.5 367.5,-826.5"/>
<text text-anchor="middle" x="420" y="-871.5" font-family="Helvetica,sans-Serif" font-size="10.00">arma::Array&lt; T, N &gt;</text>
<polyline fill="none" stroke="#bfbfbf" points="367.5,-864.5 472.5,-864.5 "/>
<text text-anchor="middle" x="420" y="-852.5" font-family="Helvetica,sans-Serif" font-size="10.00"> </text>
<polyline fill="none" stroke="#bfbfbf" points="367.5,-845.5 472.5,-845.5 "/>
<text text-anchor="middle" x="420" y="-833.5" font-family="Helvetica,sans-Serif" font-size="10.00"> </text>
</g>
<!-- Node9&#45;&gt;Node8 -->
<g id="edge8" class="edge"><title>Node9&#45;&gt;Node8</title>
<path fill="none" stroke="midnightblue" d="M418.703,-816.107C417.065,-768.229 414.25,-685.974 412.515,-635.26"/>
<polygon fill="none" stroke="midnightblue" points="415.214,-816.477 419.054,-826.351 422.21,-816.238 415.214,-816.477"/>
</g>
</g>
</svg>
