<?xml version="1.0" encoding="UTF-8" standalone="no"?>
<!DOCTYPE svg PUBLIC "-//W3C//DTD SVG 1.1//EN"
 "http://www.w3.org/Graphics/SVG/1.1/DTD/svg11.dtd">
<!-- Generated by graphviz version 2.36.0 (20140111.2315)
 -->
<!-- Title: anonymous_namespace{ar_model_bscheduler.cc}::ar_partition_kernel&lt; T &gt; Pages: 1 -->
<svg width="196pt" height="694pt"
 viewBox="0.00 0.00 196.00 694.00" xmlns="http://www.w3.org/2000/svg" xmlns:xlink="http://www.w3.org/1999/xlink">
<g id="graph0" class="graph" transform="scale(1 1) rotate(0) translate(4 690)">
<title>anonymous_namespace{ar_model_bscheduler.cc}::ar_partition_kernel&lt; T &gt;</title>
<!-- Node1 -->
<g id="node1" class="node"><title>Node1</title>
<polygon fill="#bfbfbf" stroke="black" points="0,-0.5 0,-233.5 128,-233.5 128,-0.5 0,-0.5"/>
<text text-anchor="start" x="8" y="-221.5" font-family="Helvetica,sans-Serif" font-size="10.00">anonymous_namespace</text>
<text text-anchor="start" x="8" y="-210.5" font-family="Helvetica,sans-Serif" font-size="10.00">{ar_model_bscheduler.cc}</text>
<text text-anchor="middle" x="64" y="-199.5" font-family="Helvetica,sans-Serif" font-size="10.00">::ar_partition_kernel&lt; T &gt;</text>
<polyline fill="none" stroke="black" points="0,-192.5 128,-192.5 "/>
<text text-anchor="start" x="8" y="-180.5" font-family="Helvetica,sans-Serif" font-size="10.00">&#45; _lower</text>
<text text-anchor="start" x="8" y="-169.5" font-family="Helvetica,sans-Serif" font-size="10.00">&#45; _upper</text>
<text text-anchor="start" x="8" y="-158.5" font-family="Helvetica,sans-Serif" font-size="10.00">&#45; _part</text>
<text text-anchor="start" x="8" y="-147.5" font-family="Helvetica,sans-Serif" font-size="10.00">&#45; _varwn</text>
<text text-anchor="start" x="8" y="-136.5" font-family="Helvetica,sans-Serif" font-size="10.00">&#45; _zeta</text>
<text text-anchor="start" x="8" y="-125.5" font-family="Helvetica,sans-Serif" font-size="10.00">&#45; _phi</text>
<polyline fill="none" stroke="black" points="0,-118.5 128,-118.5 "/>
<text text-anchor="start" x="8" y="-106.5" font-family="Helvetica,sans-Serif" font-size="10.00">+ ar_partition_kernel()</text>
<text text-anchor="start" x="8" y="-95.5" font-family="Helvetica,sans-Serif" font-size="10.00">+ ar_partition_kernel()</text>
<text text-anchor="start" x="8" y="-84.5" font-family="Helvetica,sans-Serif" font-size="10.00">+ act()</text>
<text text-anchor="start" x="8" y="-73.5" font-family="Helvetica,sans-Serif" font-size="10.00">+ get_part_index()</text>
<text text-anchor="start" x="8" y="-62.5" font-family="Helvetica,sans-Serif" font-size="10.00">+ zeta()</text>
<text text-anchor="start" x="8" y="-51.5" font-family="Helvetica,sans-Serif" font-size="10.00">+ bounds()</text>
<text text-anchor="start" x="8" y="-40.5" font-family="Helvetica,sans-Serif" font-size="10.00">+ part_bounds()</text>
<text text-anchor="start" x="8" y="-29.5" font-family="Helvetica,sans-Serif" font-size="10.00">+ write()</text>
<text text-anchor="start" x="8" y="-18.5" font-family="Helvetica,sans-Serif" font-size="10.00">+ read()</text>
<text text-anchor="start" x="8" y="-7.5" font-family="Helvetica,sans-Serif" font-size="10.00">&#45; get_part_shape()</text>
</g>
<!-- Node2 -->
<g id="node2" class="node"><title>Node2</title>
<polygon fill="none" stroke="#bfbfbf" points="10.5,-326.5 10.5,-383.5 53.5,-383.5 53.5,-326.5 10.5,-326.5"/>
<text text-anchor="middle" x="32" y="-371.5" font-family="Helvetica,sans-Serif" font-size="10.00">kernel</text>
<polyline fill="none" stroke="#bfbfbf" points="10.5,-364.5 53.5,-364.5 "/>
<text text-anchor="middle" x="32" y="-352.5" font-family="Helvetica,sans-Serif" font-size="10.00"> </text>
<polyline fill="none" stroke="#bfbfbf" points="10.5,-345.5 53.5,-345.5 "/>
<text text-anchor="middle" x="32" y="-333.5" font-family="Helvetica,sans-Serif" font-size="10.00"> </text>
</g>
<!-- Node2&#45;&gt;Node1 -->
<g id="edge1" class="edge"><title>Node2&#45;&gt;Node1</title>
<path fill="none" stroke="midnightblue" d="M37.1097,-316.316C40.176,-293.702 44.2579,-263.598 48.3129,-233.692"/>
<polygon fill="none" stroke="midnightblue" points="33.6089,-316.086 35.7334,-326.466 40.5454,-317.027 33.6089,-316.086"/>
</g>
<!-- Node3 -->
<g id="node3" class="node"><title>Node3</title>
<g id="a_node3"><a xlink:href="structarma_1_1prng_1_1parallel__mt.html" target="_top" xlink:title="A version of Mersenne Twister which is able to produce uncorrelated pseudo&#45;random number sequences us...">
<polygon fill="none" stroke="black" points="72,-282.5 72,-427.5 188,-427.5 188,-282.5 72,-282.5"/>
<text text-anchor="middle" x="130" y="-415.5" font-family="Helvetica,sans-Serif" font-size="10.00">arma::prng::parallel_mt</text>
<polyline fill="none" stroke="black" points="72,-408.5 188,-408.5 "/>
<text text-anchor="middle" x="130" y="-396.5" font-family="Helvetica,sans-Serif" font-size="10.00"> </text>
<polyline fill="none" stroke="black" points="72,-389.5 188,-389.5 "/>
<text text-anchor="start" x="80" y="-377.5" font-family="Helvetica,sans-Serif" font-size="10.00">+ parallel_mt()</text>
<text text-anchor="start" x="80" y="-366.5" font-family="Helvetica,sans-Serif" font-size="10.00">+ parallel_mt()</text>
<text text-anchor="start" x="80" y="-355.5" font-family="Helvetica,sans-Serif" font-size="10.00">+ parallel_mt()</text>
<text text-anchor="start" x="80" y="-344.5" font-family="Helvetica,sans-Serif" font-size="10.00">+ operator=()</text>
<text text-anchor="start" x="80" y="-333.5" font-family="Helvetica,sans-Serif" font-size="10.00">+ operator()()</text>
<text text-anchor="start" x="80" y="-322.5" font-family="Helvetica,sans-Serif" font-size="10.00">+ min()</text>
<text text-anchor="start" x="80" y="-311.5" font-family="Helvetica,sans-Serif" font-size="10.00">+ max()</text>
<text text-anchor="start" x="80" y="-300.5" font-family="Helvetica,sans-Serif" font-size="10.00">+ seed()</text>
<text text-anchor="start" x="80" y="-289.5" font-family="Helvetica,sans-Serif" font-size="10.00">&#45; init()</text>
</a>
</g>
</g>
<!-- Node3&#45;&gt;Node1 -->
<g id="edge2" class="edge"><title>Node3&#45;&gt;Node1</title>
<path fill="none" stroke="#404040" d="M109.929,-282.231C106.648,-270.499 103.164,-258.042 99.6402,-245.441"/>
<polygon fill="none" stroke="#404040" points="99.6291,-245.401 94.1609,-240.7 96.3971,-233.844 101.865,-238.545 99.6291,-245.401"/>
<text text-anchor="middle" x="128" y="-255.5" font-family="Helvetica,sans-Serif" font-size="10.00"> &#45;_generator</text>
</g>
<!-- Node4 -->
<g id="node4" class="node"><title>Node4</title>
<g id="a_node4"><a xlink:href="structarma_1_1prng_1_1mt__config.html" target="_top" xlink:title="A set of parameters for parallel_mt generator. ">
<polygon fill="none" stroke="black" points="74,-477 74,-589 186,-589 186,-477 74,-477"/>
<text text-anchor="middle" x="130" y="-577" font-family="Helvetica,sans-Serif" font-size="10.00">arma::prng::mt_config</text>
<polyline fill="none" stroke="black" points="74,-570 186,-570 "/>
<text text-anchor="middle" x="130" y="-558" font-family="Helvetica,sans-Serif" font-size="10.00"> </text>
<polyline fill="none" stroke="black" points="74,-551 186,-551 "/>
<text text-anchor="start" x="82" y="-539" font-family="Helvetica,sans-Serif" font-size="10.00">+ mt_config()</text>
<text text-anchor="start" x="82" y="-528" font-family="Helvetica,sans-Serif" font-size="10.00">+ ~mt_config()</text>
<text text-anchor="start" x="82" y="-517" font-family="Helvetica,sans-Serif" font-size="10.00">+ mt_config()</text>
<text text-anchor="start" x="82" y="-506" font-family="Helvetica,sans-Serif" font-size="10.00">+ operator=()</text>
<text text-anchor="start" x="82" y="-495" font-family="Helvetica,sans-Serif" font-size="10.00">&#45; init_state()</text>
<text text-anchor="start" x="82" y="-484" font-family="Helvetica,sans-Serif" font-size="10.00">&#45; free_state()</text>
</a>
</g>
</g>
<!-- Node4&#45;&gt;Node3 -->
<g id="edge3" class="edge"><title>Node4&#45;&gt;Node3</title>
<path fill="none" stroke="#404040" d="M130,-476.795C130,-465.152 130,-452.614 130,-440.179"/>
<polygon fill="none" stroke="#404040" points="130,-439.814 126,-433.814 130,-427.814 134,-433.814 130,-439.814"/>
<text text-anchor="middle" x="149" y="-449.5" font-family="Helvetica,sans-Serif" font-size="10.00"> &#45;_config</text>
</g>
<!-- Node5 -->
<g id="node5" class="node"><title>Node5</title>
<polygon fill="none" stroke="#bfbfbf" points="101,-628.5 101,-685.5 159,-685.5 159,-628.5 101,-628.5"/>
<text text-anchor="middle" x="130" y="-673.5" font-family="Helvetica,sans-Serif" font-size="10.00">mt_struct</text>
<polyline fill="none" stroke="#bfbfbf" points="101,-666.5 159,-666.5 "/>
<text text-anchor="middle" x="130" y="-654.5" font-family="Helvetica,sans-Serif" font-size="10.00"> </text>
<polyline fill="none" stroke="#bfbfbf" points="101,-647.5 159,-647.5 "/>
<text text-anchor="middle" x="130" y="-635.5" font-family="Helvetica,sans-Serif" font-size="10.00"> </text>
</g>
<!-- Node5&#45;&gt;Node4 -->
<g id="edge4" class="edge"><title>Node5&#45;&gt;Node4</title>
<path fill="none" stroke="midnightblue" d="M130,-618.273C130,-609.01 130,-598.906 130,-589.013"/>
<polygon fill="none" stroke="midnightblue" points="126.5,-618.316 130,-628.316 133.5,-618.316 126.5,-618.316"/>
</g>
</g>
</svg>
