<?xml version="1.0" encoding="UTF-8" standalone="no"?>
<!DOCTYPE svg PUBLIC "-//W3C//DTD SVG 1.1//EN"
 "http://www.w3.org/Graphics/SVG/1.1/DTD/svg11.dtd">
<!-- Generated by graphviz version 2.40.1 (20161225.0304)
 -->
<!-- Title: anonymous_namespace{ar_model_bscheduler.cc}::ar_partition_kernel&lt; T &gt; Pages: 1 -->
<svg width="212pt" height="690pt"
 viewBox="0.00 0.00 212.00 690.00" xmlns="http://www.w3.org/2000/svg" xmlns:xlink="http://www.w3.org/1999/xlink">
<g id="graph0" class="graph" transform="scale(1 1) rotate(0) translate(4 686)">
<title>anonymous_namespace{ar_model_bscheduler.cc}::ar_partition_kernel&lt; T &gt;</title>
<!-- Node2 -->
<g id="node1" class="node">
<title>Node2</title>
<polygon fill="#bfbfbf" stroke="#000000" points="0,-.5 0,-233.5 128,-233.5 128,-.5 0,-.5"/>
<text text-anchor="start" x="8" y="-221.5" font-family="Helvetica,sans-Serif" font-size="10.00" fill="#000000">anonymous_namespace</text>
<text text-anchor="start" x="8" y="-210.5" font-family="Helvetica,sans-Serif" font-size="10.00" fill="#000000">{ar_model_bscheduler.cc}</text>
<text text-anchor="middle" x="64" y="-199.5" font-family="Helvetica,sans-Serif" font-size="10.00" fill="#000000">::ar_partition_kernel&lt; T &gt;</text>
<polyline fill="none" stroke="#000000" points="0,-192.5 128,-192.5 "/>
<text text-anchor="start" x="8" y="-180.5" font-family="Helvetica,sans-Serif" font-size="10.00" fill="#000000">&#45; _lower</text>
<text text-anchor="start" x="8" y="-169.5" font-family="Helvetica,sans-Serif" font-size="10.00" fill="#000000">&#45; _upper</text>
<text text-anchor="start" x="8" y="-158.5" font-family="Helvetica,sans-Serif" font-size="10.00" fill="#000000">&#45; _part</text>
<text text-anchor="start" x="8" y="-147.5" font-family="Helvetica,sans-Serif" font-size="10.00" fill="#000000">&#45; _varwn</text>
<text text-anchor="start" x="8" y="-136.5" font-family="Helvetica,sans-Serif" font-size="10.00" fill="#000000">&#45; _zeta</text>
<text text-anchor="start" x="8" y="-125.5" font-family="Helvetica,sans-Serif" font-size="10.00" fill="#000000">&#45; _phi</text>
<polyline fill="none" stroke="#000000" points="0,-118.5 128,-118.5 "/>
<text text-anchor="start" x="8" y="-106.5" font-family="Helvetica,sans-Serif" font-size="10.00" fill="#000000">+ ar_partition_kernel()</text>
<text text-anchor="start" x="8" y="-95.5" font-family="Helvetica,sans-Serif" font-size="10.00" fill="#000000">+ ar_partition_kernel()</text>
<text text-anchor="start" x="8" y="-84.5" font-family="Helvetica,sans-Serif" font-size="10.00" fill="#000000">+ act()</text>
<text text-anchor="start" x="8" y="-73.5" font-family="Helvetica,sans-Serif" font-size="10.00" fill="#000000">+ get_part_index()</text>
<text text-anchor="start" x="8" y="-62.5" font-family="Helvetica,sans-Serif" font-size="10.00" fill="#000000">+ zeta()</text>
<text text-anchor="start" x="8" y="-51.5" font-family="Helvetica,sans-Serif" font-size="10.00" fill="#000000">+ bounds()</text>
<text text-anchor="start" x="8" y="-40.5" font-family="Helvetica,sans-Serif" font-size="10.00" fill="#000000">+ part_bounds()</text>
<text text-anchor="start" x="8" y="-29.5" font-family="Helvetica,sans-Serif" font-size="10.00" fill="#000000">+ write()</text>
<text text-anchor="start" x="8" y="-18.5" font-family="Helvetica,sans-Serif" font-size="10.00" fill="#000000">+ read()</text>
<text text-anchor="start" x="8" y="-7.5" font-family="Helvetica,sans-Serif" font-size="10.00" fill="#000000">&#45; get_part_shape()</text>
</g>
<!-- Node3 -->
<g id="node2" class="node">
<title>Node3</title>
<polygon fill="none" stroke="#bfbfbf" points="26.5,-325.5 26.5,-382.5 69.5,-382.5 69.5,-325.5 26.5,-325.5"/>
<text text-anchor="middle" x="48" y="-370.5" font-family="Helvetica,sans-Serif" font-size="10.00" fill="#000000">kernel</text>
<polyline fill="none" stroke="#bfbfbf" points="26.5,-363.5 69.5,-363.5 "/>
<text text-anchor="middle" x="48" y="-351.5" font-family="Helvetica,sans-Serif" font-size="10.00" fill="#000000"> </text>
<polyline fill="none" stroke="#bfbfbf" points="26.5,-344.5 69.5,-344.5 "/>
<text text-anchor="middle" x="48" y="-332.5" font-family="Helvetica,sans-Serif" font-size="10.00" fill="#000000"> </text>
</g>
<!-- Node3&#45;&gt;Node2 -->
<g id="edge1" class="edge">
<title>Node3&#45;&gt;Node2</title>
<path fill="none" stroke="#191970" d="M50.6129,-315.2969C52.1309,-292.8113 54.1323,-263.1658 56.1235,-233.6713"/>
<polygon fill="none" stroke="#191970" points="47.1116,-315.1992 49.93,-325.4123 54.0957,-315.6708 47.1116,-315.1992"/>
</g>
<!-- Node4 -->
<g id="node3" class="node">
<title>Node4</title>
<g id="a_node3"><a xlink:href="structarma_1_1prng_1_1parallel__mt.html" target="_top" xlink:title="A version of Mersenne Twister which is able to produce uncorrelated pseudo&#45;random number sequences us...">
<polygon fill="none" stroke="#000000" points="88,-281.5 88,-426.5 204,-426.5 204,-281.5 88,-281.5"/>
<text text-anchor="middle" x="146" y="-414.5" font-family="Helvetica,sans-Serif" font-size="10.00" fill="#000000">arma::prng::parallel_mt</text>
<polyline fill="none" stroke="#000000" points="88,-407.5 204,-407.5 "/>
<text text-anchor="middle" x="146" y="-395.5" font-family="Helvetica,sans-Serif" font-size="10.00" fill="#000000"> </text>
<polyline fill="none" stroke="#000000" points="88,-388.5 204,-388.5 "/>
<text text-anchor="start" x="96" y="-376.5" font-family="Helvetica,sans-Serif" font-size="10.00" fill="#000000">+ parallel_mt()</text>
<text text-anchor="start" x="96" y="-365.5" font-family="Helvetica,sans-Serif" font-size="10.00" fill="#000000">+ parallel_mt()</text>
<text text-anchor="start" x="96" y="-354.5" font-family="Helvetica,sans-Serif" font-size="10.00" fill="#000000">+ parallel_mt()</text>
<text text-anchor="start" x="96" y="-343.5" font-family="Helvetica,sans-Serif" font-size="10.00" fill="#000000">+ operator=()</text>
<text text-anchor="start" x="96" y="-332.5" font-family="Helvetica,sans-Serif" font-size="10.00" fill="#000000">+ operator()()</text>
<text text-anchor="start" x="96" y="-321.5" font-family="Helvetica,sans-Serif" font-size="10.00" fill="#000000">+ min()</text>
<text text-anchor="start" x="96" y="-310.5" font-family="Helvetica,sans-Serif" font-size="10.00" fill="#000000">+ max()</text>
<text text-anchor="start" x="96" y="-299.5" font-family="Helvetica,sans-Serif" font-size="10.00" fill="#000000">+ seed()</text>
<text text-anchor="start" x="96" y="-288.5" font-family="Helvetica,sans-Serif" font-size="10.00" fill="#000000">&#45; init()</text>
</a>
</g>
</g>
<!-- Node4&#45;&gt;Node2 -->
<g id="edge2" class="edge">
<title>Node4&#45;&gt;Node2</title>
<path fill="none" stroke="#404040" d="M120.84,-281.2816C116.8391,-269.7178 112.6003,-257.4668 108.3129,-245.0752"/>
<polygon fill="none" stroke="#404040" points="108.291,-245.0117 102.549,-240.6495 104.3673,-233.6713 110.1093,-238.0336 108.291,-245.0117"/>
<text text-anchor="middle" x="138" y="-255" font-family="Helvetica,sans-Serif" font-size="10.00" fill="#000000"> &#45;_generator</text>
</g>
<!-- Node5 -->
<g id="node4" class="node">
<title>Node5</title>
<g id="a_node4"><a xlink:href="structarma_1_1prng_1_1mt__config.html" target="_top" xlink:title="A set of parameters for parallel_mt generator. ">
<polygon fill="none" stroke="#000000" points="90,-474.5 90,-586.5 202,-586.5 202,-474.5 90,-474.5"/>
<text text-anchor="middle" x="146" y="-574.5" font-family="Helvetica,sans-Serif" font-size="10.00" fill="#000000">arma::prng::mt_config</text>
<polyline fill="none" stroke="#000000" points="90,-567.5 202,-567.5 "/>
<text text-anchor="middle" x="146" y="-555.5" font-family="Helvetica,sans-Serif" font-size="10.00" fill="#000000"> </text>
<polyline fill="none" stroke="#000000" points="90,-548.5 202,-548.5 "/>
<text text-anchor="start" x="98" y="-536.5" font-family="Helvetica,sans-Serif" font-size="10.00" fill="#000000">+ mt_config()</text>
<text text-anchor="start" x="98" y="-525.5" font-family="Helvetica,sans-Serif" font-size="10.00" fill="#000000">+ ~mt_config()</text>
<text text-anchor="start" x="98" y="-514.5" font-family="Helvetica,sans-Serif" font-size="10.00" fill="#000000">+ mt_config()</text>
<text text-anchor="start" x="98" y="-503.5" font-family="Helvetica,sans-Serif" font-size="10.00" fill="#000000">+ operator=()</text>
<text text-anchor="start" x="98" y="-492.5" font-family="Helvetica,sans-Serif" font-size="10.00" fill="#000000">&#45; init_state()</text>
<text text-anchor="start" x="98" y="-481.5" font-family="Helvetica,sans-Serif" font-size="10.00" fill="#000000">&#45; free_state()</text>
</a>
</g>
</g>
<!-- Node5&#45;&gt;Node4 -->
<g id="edge3" class="edge">
<title>Node5&#45;&gt;Node4</title>
<path fill="none" stroke="#404040" d="M146,-474.169C146,-462.8193 146,-450.6555 146,-438.5833"/>
<polygon fill="none" stroke="#404040" points="146.0001,-438.5753 142,-432.5753 146,-426.5753 150,-432.5753 146.0001,-438.5753"/>
<text text-anchor="middle" x="165" y="-448" font-family="Helvetica,sans-Serif" font-size="10.00" fill="#000000"> &#45;_config</text>
</g>
<!-- Node6 -->
<g id="node5" class="node">
<title>Node6</title>
<polygon fill="none" stroke="#bfbfbf" points="117,-624.5 117,-681.5 175,-681.5 175,-624.5 117,-624.5"/>
<text text-anchor="middle" x="146" y="-669.5" font-family="Helvetica,sans-Serif" font-size="10.00" fill="#000000">mt_struct</text>
<polyline fill="none" stroke="#bfbfbf" points="117,-662.5 175,-662.5 "/>
<text text-anchor="middle" x="146" y="-650.5" font-family="Helvetica,sans-Serif" font-size="10.00" fill="#000000"> </text>
<polyline fill="none" stroke="#bfbfbf" points="117,-643.5 175,-643.5 "/>
<text text-anchor="middle" x="146" y="-631.5" font-family="Helvetica,sans-Serif" font-size="10.00" fill="#000000"> </text>
</g>
<!-- Node6&#45;&gt;Node5 -->
<g id="edge4" class="edge">
<title>Node6&#45;&gt;Node5</title>
<path fill="none" stroke="#191970" d="M146,-614.1358C146,-605.4939 146,-596.1625 146,-586.9752"/>
<polygon fill="none" stroke="#191970" points="142.5001,-614.2792 146,-624.2792 149.5001,-614.2792 142.5001,-614.2792"/>
</g>
</g>
</svg>
