<?xml version="1.0" encoding="UTF-8" standalone="no"?>
<!DOCTYPE svg PUBLIC "-//W3C//DTD SVG 1.1//EN"
 "http://www.w3.org/Graphics/SVG/1.1/DTD/svg11.dtd">
<!-- Generated by graphviz version 2.36.0 (20140111.2315)
 -->
<!-- Title: arma::generator::AR_model&lt; T &gt; Pages: 1 -->
<svg width="363pt" height="1014pt"
 viewBox="0.00 0.00 363.00 1014.00" xmlns="http://www.w3.org/2000/svg" xmlns:xlink="http://www.w3.org/1999/xlink">
<g id="graph0" class="graph" transform="scale(1 1) rotate(0) translate(4 1010)">
<title>arma::generator::AR_model&lt; T &gt;</title>
<!-- Node1 -->
<g id="node1" class="node"><title>Node1</title>
<polygon fill="#bfbfbf" stroke="black" points="164,-1 164,-245 314,-245 314,-1 164,-1"/>
<text text-anchor="start" x="172" y="-233" font-family="Helvetica,sans-Serif" font-size="10.00">arma::generator::AR</text>
<text text-anchor="middle" x="239" y="-222" font-family="Helvetica,sans-Serif" font-size="10.00">_model&lt; T &gt;</text>
<polyline fill="none" stroke="black" points="164,-215 314,-215 "/>
<text text-anchor="start" x="172" y="-203" font-family="Helvetica,sans-Serif" font-size="10.00">&#45; _partition</text>
<text text-anchor="start" x="172" y="-192" font-family="Helvetica,sans-Serif" font-size="10.00">&#45; _phi</text>
<text text-anchor="start" x="172" y="-181" font-family="Helvetica,sans-Serif" font-size="10.00">&#45; _algorithm</text>
<polyline fill="none" stroke="black" points="164,-174 314,-174 "/>
<text text-anchor="start" x="172" y="-162" font-family="Helvetica,sans-Serif" font-size="10.00">+ AR_model()</text>
<text text-anchor="start" x="172" y="-151" font-family="Helvetica,sans-Serif" font-size="10.00">+ AR_model()</text>
<text text-anchor="start" x="172" y="-140" font-family="Helvetica,sans-Serif" font-size="10.00">+ coefficients()</text>
<text text-anchor="start" x="172" y="-129" font-family="Helvetica,sans-Serif" font-size="10.00">+ white_noise_variance()</text>
<text text-anchor="start" x="172" y="-118" font-family="Helvetica,sans-Serif" font-size="10.00">+ writes_in_parallel()</text>
<text text-anchor="start" x="172" y="-107" font-family="Helvetica,sans-Serif" font-size="10.00">+ validate()</text>
<text text-anchor="start" x="172" y="-96" font-family="Helvetica,sans-Serif" font-size="10.00">+ do_generate()</text>
<text text-anchor="start" x="172" y="-85" font-family="Helvetica,sans-Serif" font-size="10.00">+ determine_coefficients()</text>
<text text-anchor="start" x="172" y="-74" font-family="Helvetica,sans-Serif" font-size="10.00"># generate_surface()</text>
<text text-anchor="start" x="172" y="-63" font-family="Helvetica,sans-Serif" font-size="10.00"># white_noise_variance()</text>
<text text-anchor="start" x="172" y="-52" font-family="Helvetica,sans-Serif" font-size="10.00"># write()</text>
<text text-anchor="start" x="172" y="-41" font-family="Helvetica,sans-Serif" font-size="10.00"># read()</text>
<text text-anchor="start" x="172" y="-30" font-family="Helvetica,sans-Serif" font-size="10.00">&#45; determine_coefficients</text>
<text text-anchor="start" x="172" y="-19" font-family="Helvetica,sans-Serif" font-size="10.00">_gauss()</text>
<text text-anchor="start" x="172" y="-8" font-family="Helvetica,sans-Serif" font-size="10.00">&#45; determine_coefficients_choi()</text>
</g>
<!-- Node2 -->
<g id="node2" class="node"><title>Node2</title>
<g id="a_node2"><a xlink:href="classarma_1_1generator_1_1Basic__ARMA__model.html" target="_top" xlink:title="Base class for AR, MA and ARMA models. ">
<polygon fill="none" stroke="black" points="174,-284.5 174,-517.5 304,-517.5 304,-284.5 174,-284.5"/>
<text text-anchor="start" x="182" y="-505.5" font-family="Helvetica,sans-Serif" font-size="10.00">arma::generator::Basic</text>
<text text-anchor="middle" x="239" y="-494.5" font-family="Helvetica,sans-Serif" font-size="10.00">_ARMA_model&lt; T &gt;</text>
<polyline fill="none" stroke="black" points="174,-487.5 304,-487.5 "/>
<text text-anchor="start" x="182" y="-475.5" font-family="Helvetica,sans-Serif" font-size="10.00"># _order</text>
<text text-anchor="start" x="182" y="-464.5" font-family="Helvetica,sans-Serif" font-size="10.00"># _nittransform</text>
<text text-anchor="start" x="182" y="-453.5" font-family="Helvetica,sans-Serif" font-size="10.00"># _linear</text>
<text text-anchor="start" x="182" y="-442.5" font-family="Helvetica,sans-Serif" font-size="10.00"># _validate</text>
<polyline fill="none" stroke="black" points="174,-435.5 304,-435.5 "/>
<text text-anchor="start" x="182" y="-423.5" font-family="Helvetica,sans-Serif" font-size="10.00">+ Basic_ARMA_model()</text>
<text text-anchor="start" x="182" y="-412.5" font-family="Helvetica,sans-Serif" font-size="10.00">+ Basic_ARMA_model()</text>
<text text-anchor="start" x="182" y="-401.5" font-family="Helvetica,sans-Serif" font-size="10.00">+ order()</text>
<text text-anchor="start" x="182" y="-390.5" font-family="Helvetica,sans-Serif" font-size="10.00">+ acf()</text>
<text text-anchor="start" x="182" y="-379.5" font-family="Helvetica,sans-Serif" font-size="10.00">+ acf_variance()</text>
<text text-anchor="start" x="182" y="-368.5" font-family="Helvetica,sans-Serif" font-size="10.00">+ setacf()</text>
<text text-anchor="start" x="182" y="-357.5" font-family="Helvetica,sans-Serif" font-size="10.00">+ white_noise_variance()</text>
<text text-anchor="start" x="182" y="-346.5" font-family="Helvetica,sans-Serif" font-size="10.00">+ determine_coefficients()</text>
<text text-anchor="start" x="182" y="-335.5" font-family="Helvetica,sans-Serif" font-size="10.00">+ verify()</text>
<text text-anchor="start" x="182" y="-324.5" font-family="Helvetica,sans-Serif" font-size="10.00">+ parameters()</text>
<text text-anchor="start" x="182" y="-313.5" font-family="Helvetica,sans-Serif" font-size="10.00">+ generate()</text>
<text text-anchor="start" x="182" y="-302.5" font-family="Helvetica,sans-Serif" font-size="10.00"># do_generate()</text>
<text text-anchor="start" x="182" y="-291.5" font-family="Helvetica,sans-Serif" font-size="10.00"># generate_white_noise()</text>
</a>
</g>
</g>
<!-- Node2&#45;&gt;Node1 -->
<g id="edge1" class="edge"><title>Node2&#45;&gt;Node1</title>
<path fill="none" stroke="midnightblue" d="M239,-273.877C239,-264.373 239,-254.793 239,-245.32"/>
<polygon fill="none" stroke="midnightblue" points="235.5,-274.151 239,-284.151 242.5,-274.151 235.5,-274.151"/>
</g>
<!-- Node3 -->
<g id="node3" class="node"><title>Node3</title>
<g id="a_node3"><a xlink:href="classarma_1_1generator_1_1Basic__model.html" target="_top" xlink:title="A base class for all generators. ">
<polygon fill="none" stroke="black" points="100,-566.5 100,-777.5 216,-777.5 216,-566.5 100,-566.5"/>
<text text-anchor="start" x="108" y="-765.5" font-family="Helvetica,sans-Serif" font-size="10.00">arma::generator::Basic</text>
<text text-anchor="middle" x="158" y="-754.5" font-family="Helvetica,sans-Serif" font-size="10.00">_model&lt; T &gt;</text>
<polyline fill="none" stroke="black" points="100,-747.5 216,-747.5 "/>
<text text-anchor="start" x="108" y="-735.5" font-family="Helvetica,sans-Serif" font-size="10.00"># _noseed</text>
<polyline fill="none" stroke="black" points="100,-728.5 216,-728.5 "/>
<text text-anchor="start" x="108" y="-716.5" font-family="Helvetica,sans-Serif" font-size="10.00">+ Basic_model()</text>
<text text-anchor="start" x="108" y="-705.5" font-family="Helvetica,sans-Serif" font-size="10.00">+ Basic_model()</text>
<text text-anchor="start" x="108" y="-694.5" font-family="Helvetica,sans-Serif" font-size="10.00">+ Basic_model()</text>
<text text-anchor="start" x="108" y="-683.5" font-family="Helvetica,sans-Serif" font-size="10.00">+ ~Basic_model()</text>
<text text-anchor="start" x="108" y="-672.5" font-family="Helvetica,sans-Serif" font-size="10.00">+ setgrid()</text>
<text text-anchor="start" x="108" y="-661.5" font-family="Helvetica,sans-Serif" font-size="10.00">+ grid()</text>
<text text-anchor="start" x="108" y="-650.5" font-family="Helvetica,sans-Serif" font-size="10.00">+ oflags()</text>
<text text-anchor="start" x="108" y="-639.5" font-family="Helvetica,sans-Serif" font-size="10.00">+ writes_in_parallel()</text>
<text text-anchor="start" x="108" y="-628.5" font-family="Helvetica,sans-Serif" font-size="10.00">+ validate()</text>
<text text-anchor="start" x="108" y="-617.5" font-family="Helvetica,sans-Serif" font-size="10.00">+ generate()</text>
<text text-anchor="start" x="108" y="-606.5" font-family="Helvetica,sans-Serif" font-size="10.00">+ verify()</text>
<text text-anchor="start" x="108" y="-595.5" font-family="Helvetica,sans-Serif" font-size="10.00"># write()</text>
<text text-anchor="start" x="108" y="-584.5" font-family="Helvetica,sans-Serif" font-size="10.00"># read()</text>
<text text-anchor="start" x="108" y="-573.5" font-family="Helvetica,sans-Serif" font-size="10.00"># newseed()</text>
</a>
</g>
</g>
<!-- Node3&#45;&gt;Node2 -->
<g id="edge2" class="edge"><title>Node3&#45;&gt;Node2</title>
<path fill="none" stroke="midnightblue" d="M192.492,-556.454C196.362,-543.6 200.308,-530.497 204.182,-517.629"/>
<polygon fill="none" stroke="midnightblue" points="189.081,-555.643 189.549,-566.227 195.783,-557.661 189.081,-555.643"/>
</g>
<!-- Node4 -->
<g id="node4" class="node"><title>Node4</title>
<g id="a_node4"><a xlink:href="structarma_1_1Grid.html" target="_top" xlink:title="{arma::Grid\&lt; T, 3 \&gt;\n|&#45; _npoints\l&#45; _length\l|+ Grid()\l+ Grid()\l+ Grid()\l+ Grid()\l+ ~Grid()\l+ num_points()\l+ num_points()\l+ size()\l+ num_patches()\l+ num_patches()\land 12 more...\l}">
<polygon fill="none" stroke="black" points="0,-827 0,-1005 98,-1005 98,-827 0,-827"/>
<text text-anchor="middle" x="49" y="-993" font-family="Helvetica,sans-Serif" font-size="10.00">arma::Grid&lt; T, 3 &gt;</text>
<polyline fill="none" stroke="black" points="0,-986 98,-986 "/>
<text text-anchor="start" x="8" y="-974" font-family="Helvetica,sans-Serif" font-size="10.00">&#45; _npoints</text>
<text text-anchor="start" x="8" y="-963" font-family="Helvetica,sans-Serif" font-size="10.00">&#45; _length</text>
<polyline fill="none" stroke="black" points="0,-956 98,-956 "/>
<text text-anchor="start" x="8" y="-944" font-family="Helvetica,sans-Serif" font-size="10.00">+ Grid()</text>
<text text-anchor="start" x="8" y="-933" font-family="Helvetica,sans-Serif" font-size="10.00">+ Grid()</text>
<text text-anchor="start" x="8" y="-922" font-family="Helvetica,sans-Serif" font-size="10.00">+ Grid()</text>
<text text-anchor="start" x="8" y="-911" font-family="Helvetica,sans-Serif" font-size="10.00">+ Grid()</text>
<text text-anchor="start" x="8" y="-900" font-family="Helvetica,sans-Serif" font-size="10.00">+ ~Grid()</text>
<text text-anchor="start" x="8" y="-889" font-family="Helvetica,sans-Serif" font-size="10.00">+ num_points()</text>
<text text-anchor="start" x="8" y="-878" font-family="Helvetica,sans-Serif" font-size="10.00">+ num_points()</text>
<text text-anchor="start" x="8" y="-867" font-family="Helvetica,sans-Serif" font-size="10.00">+ size()</text>
<text text-anchor="start" x="8" y="-856" font-family="Helvetica,sans-Serif" font-size="10.00">+ num_patches()</text>
<text text-anchor="start" x="8" y="-845" font-family="Helvetica,sans-Serif" font-size="10.00">+ num_patches()</text>
<text text-anchor="start" x="8" y="-834" font-family="Helvetica,sans-Serif" font-size="10.00">and 12 more...</text>
</a>
</g>
</g>
<!-- Node4&#45;&gt;Node3 -->
<g id="edge3" class="edge"><title>Node4&#45;&gt;Node3</title>
<path fill="none" stroke="#404040" d="M88.6598,-826.948C94.2152,-814.614 99.9933,-801.785 105.738,-789.031"/>
<polygon fill="none" stroke="#404040" points="105.844,-788.797 104.661,-781.683 110.772,-777.855 111.955,-784.969 105.844,-788.797"/>
<text text-anchor="middle" x="122.5" y="-799.5" font-family="Helvetica,sans-Serif" font-size="10.00"> #_outgrid</text>
</g>
<!-- Node5 -->
<g id="node5" class="node"><title>Node5</title>
<g id="a_node5"><a xlink:href="classarma_1_1Output__flags.html" target="_top" xlink:title="Flags that determine what and how is written to disk. ">
<polygon fill="none" stroke="black" points="116,-865.5 116,-966.5 216,-966.5 216,-865.5 116,-865.5"/>
<text text-anchor="middle" x="166" y="-954.5" font-family="Helvetica,sans-Serif" font-size="10.00">arma::Output_flags</text>
<polyline fill="none" stroke="black" points="116,-947.5 216,-947.5 "/>
<text text-anchor="start" x="124" y="-935.5" font-family="Helvetica,sans-Serif" font-size="10.00">&#45; _flags</text>
<polyline fill="none" stroke="black" points="116,-928.5 216,-928.5 "/>
<text text-anchor="start" x="124" y="-916.5" font-family="Helvetica,sans-Serif" font-size="10.00">+ setf()</text>
<text text-anchor="start" x="124" y="-905.5" font-family="Helvetica,sans-Serif" font-size="10.00">+ isset()</text>
<text text-anchor="start" x="124" y="-894.5" font-family="Helvetica,sans-Serif" font-size="10.00">+ operator==()</text>
<text text-anchor="start" x="124" y="-883.5" font-family="Helvetica,sans-Serif" font-size="10.00">+ operator!=()</text>
<text text-anchor="start" x="124" y="-872.5" font-family="Helvetica,sans-Serif" font-size="10.00">&#45; prune()</text>
</a>
</g>
</g>
<!-- Node5&#45;&gt;Node3 -->
<g id="edge4" class="edge"><title>Node5&#45;&gt;Node3</title>
<path fill="none" stroke="#404040" d="M164.362,-865.444C163.636,-843.499 162.749,-816.67 161.871,-790.092"/>
<polygon fill="none" stroke="#404040" points="161.865,-789.911 157.669,-784.046 161.468,-777.917 165.664,-783.782 161.865,-789.911"/>
<text text-anchor="middle" x="183" y="-799.5" font-family="Helvetica,sans-Serif" font-size="10.00"> #_oflags</text>
</g>
<!-- Node6 -->
<g id="node6" class="node"><title>Node6</title>
<g id="a_node6"><a xlink:href="classarma_1_1Discrete__function.html" target="_top" xlink:title="{arma::Discrete_function\l\&lt; T, 3 \&gt;\n|&#45; _grid\l|+ grid()\l+ setgrid()\l+ operator=()\l}">
<polygon fill="none" stroke="black" points="234.5,-627 234.5,-717 355.5,-717 355.5,-627 234.5,-627"/>
<text text-anchor="start" x="242.5" y="-705" font-family="Helvetica,sans-Serif" font-size="10.00">arma::Discrete_function</text>
<text text-anchor="middle" x="295" y="-694" font-family="Helvetica,sans-Serif" font-size="10.00">&lt; T, 3 &gt;</text>
<polyline fill="none" stroke="black" points="234.5,-687 355.5,-687 "/>
<text text-anchor="start" x="242.5" y="-675" font-family="Helvetica,sans-Serif" font-size="10.00">&#45; _grid</text>
<polyline fill="none" stroke="black" points="234.5,-668 355.5,-668 "/>
<text text-anchor="start" x="242.5" y="-656" font-family="Helvetica,sans-Serif" font-size="10.00">+ grid()</text>
<text text-anchor="start" x="242.5" y="-645" font-family="Helvetica,sans-Serif" font-size="10.00">+ setgrid()</text>
<text text-anchor="start" x="242.5" y="-634" font-family="Helvetica,sans-Serif" font-size="10.00">+ operator=()</text>
</a>
</g>
</g>
<!-- Node6&#45;&gt;Node2 -->
<g id="edge5" class="edge"><title>Node6&#45;&gt;Node2</title>
<path fill="none" stroke="#404040" d="M285.815,-626.881C280.24,-600.099 272.812,-564.417 265.518,-529.381"/>
<polygon fill="none" stroke="#404040" points="265.498,-529.286 260.359,-524.227 263.052,-517.538 268.191,-522.596 265.498,-529.286"/>
<text text-anchor="middle" x="283" y="-539.5" font-family="Helvetica,sans-Serif" font-size="10.00"> #_acf</text>
</g>
<!-- Node7 -->
<g id="node7" class="node"><title>Node7</title>
<polygon fill="none" stroke="#bfbfbf" points="242.5,-887.5 242.5,-944.5 347.5,-944.5 347.5,-887.5 242.5,-887.5"/>
<text text-anchor="middle" x="295" y="-932.5" font-family="Helvetica,sans-Serif" font-size="10.00">arma::Array&lt; T, N &gt;</text>
<polyline fill="none" stroke="#bfbfbf" points="242.5,-925.5 347.5,-925.5 "/>
<text text-anchor="middle" x="295" y="-913.5" font-family="Helvetica,sans-Serif" font-size="10.00"> </text>
<polyline fill="none" stroke="#bfbfbf" points="242.5,-906.5 347.5,-906.5 "/>
<text text-anchor="middle" x="295" y="-894.5" font-family="Helvetica,sans-Serif" font-size="10.00"> </text>
</g>
<!-- Node7&#45;&gt;Node6 -->
<g id="edge6" class="edge"><title>Node7&#45;&gt;Node6</title>
<path fill="none" stroke="midnightblue" d="M295,-877.116C295,-833.802 295,-762.991 295,-717.197"/>
<polygon fill="none" stroke="midnightblue" points="291.5,-877.239 295,-887.24 298.5,-877.24 291.5,-877.239"/>
</g>
</g>
</svg>
