<?xml version="1.0" encoding="UTF-8" standalone="no"?>
<!DOCTYPE svg PUBLIC "-//W3C//DTD SVG 1.1//EN"
 "http://www.w3.org/Graphics/SVG/1.1/DTD/svg11.dtd">
<!-- Generated by graphviz version 2.36.0 (20140111.2315)
 -->
<!-- Title: arma::generator::Basic_ARMA_model&lt; T &gt; Pages: 1 -->
<svg width="363pt" height="730pt"
 viewBox="0.00 0.00 363.00 730.00" xmlns="http://www.w3.org/2000/svg" xmlns:xlink="http://www.w3.org/1999/xlink">
<g id="graph0" class="graph" transform="scale(1 1) rotate(0) translate(4 726)">
<title>arma::generator::Basic_ARMA_model&lt; T &gt;</title>
<!-- Node1 -->
<g id="node1" class="node"><title>Node1</title>
<polygon fill="#bfbfbf" stroke="black" points="174,-0.5 174,-233.5 304,-233.5 304,-0.5 174,-0.5"/>
<text text-anchor="start" x="182" y="-221.5" font-family="Helvetica,sans-Serif" font-size="10.00">arma::generator::Basic</text>
<text text-anchor="middle" x="239" y="-210.5" font-family="Helvetica,sans-Serif" font-size="10.00">_ARMA_model&lt; T &gt;</text>
<polyline fill="none" stroke="black" points="174,-203.5 304,-203.5 "/>
<text text-anchor="start" x="182" y="-191.5" font-family="Helvetica,sans-Serif" font-size="10.00"># _order</text>
<text text-anchor="start" x="182" y="-180.5" font-family="Helvetica,sans-Serif" font-size="10.00"># _nittransform</text>
<text text-anchor="start" x="182" y="-169.5" font-family="Helvetica,sans-Serif" font-size="10.00"># _linear</text>
<text text-anchor="start" x="182" y="-158.5" font-family="Helvetica,sans-Serif" font-size="10.00"># _validate</text>
<polyline fill="none" stroke="black" points="174,-151.5 304,-151.5 "/>
<text text-anchor="start" x="182" y="-139.5" font-family="Helvetica,sans-Serif" font-size="10.00">+ Basic_ARMA_model()</text>
<text text-anchor="start" x="182" y="-128.5" font-family="Helvetica,sans-Serif" font-size="10.00">+ Basic_ARMA_model()</text>
<text text-anchor="start" x="182" y="-117.5" font-family="Helvetica,sans-Serif" font-size="10.00">+ order()</text>
<text text-anchor="start" x="182" y="-106.5" font-family="Helvetica,sans-Serif" font-size="10.00">+ acf()</text>
<text text-anchor="start" x="182" y="-95.5" font-family="Helvetica,sans-Serif" font-size="10.00">+ acf_variance()</text>
<text text-anchor="start" x="182" y="-84.5" font-family="Helvetica,sans-Serif" font-size="10.00">+ setacf()</text>
<text text-anchor="start" x="182" y="-73.5" font-family="Helvetica,sans-Serif" font-size="10.00">+ white_noise_variance()</text>
<text text-anchor="start" x="182" y="-62.5" font-family="Helvetica,sans-Serif" font-size="10.00">+ determine_coefficients()</text>
<text text-anchor="start" x="182" y="-51.5" font-family="Helvetica,sans-Serif" font-size="10.00">+ verify()</text>
<text text-anchor="start" x="182" y="-40.5" font-family="Helvetica,sans-Serif" font-size="10.00">+ parameters()</text>
<text text-anchor="start" x="182" y="-29.5" font-family="Helvetica,sans-Serif" font-size="10.00">+ generate()</text>
<text text-anchor="start" x="182" y="-18.5" font-family="Helvetica,sans-Serif" font-size="10.00"># do_generate()</text>
<text text-anchor="start" x="182" y="-7.5" font-family="Helvetica,sans-Serif" font-size="10.00"># generate_white_noise()</text>
</g>
<!-- Node2 -->
<g id="node2" class="node"><title>Node2</title>
<g id="a_node2"><a xlink:href="classarma_1_1generator_1_1Basic__model.html" target="_top" xlink:title="A base class for all generators. ">
<polygon fill="none" stroke="black" points="100,-282.5 100,-493.5 216,-493.5 216,-282.5 100,-282.5"/>
<text text-anchor="start" x="108" y="-481.5" font-family="Helvetica,sans-Serif" font-size="10.00">arma::generator::Basic</text>
<text text-anchor="middle" x="158" y="-470.5" font-family="Helvetica,sans-Serif" font-size="10.00">_model&lt; T &gt;</text>
<polyline fill="none" stroke="black" points="100,-463.5 216,-463.5 "/>
<text text-anchor="start" x="108" y="-451.5" font-family="Helvetica,sans-Serif" font-size="10.00"># _noseed</text>
<polyline fill="none" stroke="black" points="100,-444.5 216,-444.5 "/>
<text text-anchor="start" x="108" y="-432.5" font-family="Helvetica,sans-Serif" font-size="10.00">+ Basic_model()</text>
<text text-anchor="start" x="108" y="-421.5" font-family="Helvetica,sans-Serif" font-size="10.00">+ Basic_model()</text>
<text text-anchor="start" x="108" y="-410.5" font-family="Helvetica,sans-Serif" font-size="10.00">+ Basic_model()</text>
<text text-anchor="start" x="108" y="-399.5" font-family="Helvetica,sans-Serif" font-size="10.00">+ ~Basic_model()</text>
<text text-anchor="start" x="108" y="-388.5" font-family="Helvetica,sans-Serif" font-size="10.00">+ setgrid()</text>
<text text-anchor="start" x="108" y="-377.5" font-family="Helvetica,sans-Serif" font-size="10.00">+ grid()</text>
<text text-anchor="start" x="108" y="-366.5" font-family="Helvetica,sans-Serif" font-size="10.00">+ oflags()</text>
<text text-anchor="start" x="108" y="-355.5" font-family="Helvetica,sans-Serif" font-size="10.00">+ writes_in_parallel()</text>
<text text-anchor="start" x="108" y="-344.5" font-family="Helvetica,sans-Serif" font-size="10.00">+ validate()</text>
<text text-anchor="start" x="108" y="-333.5" font-family="Helvetica,sans-Serif" font-size="10.00">+ generate()</text>
<text text-anchor="start" x="108" y="-322.5" font-family="Helvetica,sans-Serif" font-size="10.00">+ verify()</text>
<text text-anchor="start" x="108" y="-311.5" font-family="Helvetica,sans-Serif" font-size="10.00"># write()</text>
<text text-anchor="start" x="108" y="-300.5" font-family="Helvetica,sans-Serif" font-size="10.00"># read()</text>
<text text-anchor="start" x="108" y="-289.5" font-family="Helvetica,sans-Serif" font-size="10.00"># newseed()</text>
</a>
</g>
</g>
<!-- Node2&#45;&gt;Node1 -->
<g id="edge1" class="edge"><title>Node2&#45;&gt;Node1</title>
<path fill="none" stroke="midnightblue" d="M192.492,-272.454C196.362,-259.6 200.308,-246.497 204.182,-233.629"/>
<polygon fill="none" stroke="midnightblue" points="189.081,-271.643 189.549,-282.227 195.783,-273.661 189.081,-271.643"/>
</g>
<!-- Node3 -->
<g id="node3" class="node"><title>Node3</title>
<g id="a_node3"><a xlink:href="structarma_1_1Grid.html" target="_top" xlink:title="{arma::Grid\&lt; T, 3 \&gt;\n|&#45; _npoints\l&#45; _length\l|+ Grid()\l+ Grid()\l+ Grid()\l+ Grid()\l+ ~Grid()\l+ num_points()\l+ num_points()\l+ size()\l+ num_patches()\l+ num_patches()\land 12 more...\l}">
<polygon fill="none" stroke="black" points="0,-543 0,-721 98,-721 98,-543 0,-543"/>
<text text-anchor="middle" x="49" y="-709" font-family="Helvetica,sans-Serif" font-size="10.00">arma::Grid&lt; T, 3 &gt;</text>
<polyline fill="none" stroke="black" points="0,-702 98,-702 "/>
<text text-anchor="start" x="8" y="-690" font-family="Helvetica,sans-Serif" font-size="10.00">&#45; _npoints</text>
<text text-anchor="start" x="8" y="-679" font-family="Helvetica,sans-Serif" font-size="10.00">&#45; _length</text>
<polyline fill="none" stroke="black" points="0,-672 98,-672 "/>
<text text-anchor="start" x="8" y="-660" font-family="Helvetica,sans-Serif" font-size="10.00">+ Grid()</text>
<text text-anchor="start" x="8" y="-649" font-family="Helvetica,sans-Serif" font-size="10.00">+ Grid()</text>
<text text-anchor="start" x="8" y="-638" font-family="Helvetica,sans-Serif" font-size="10.00">+ Grid()</text>
<text text-anchor="start" x="8" y="-627" font-family="Helvetica,sans-Serif" font-size="10.00">+ Grid()</text>
<text text-anchor="start" x="8" y="-616" font-family="Helvetica,sans-Serif" font-size="10.00">+ ~Grid()</text>
<text text-anchor="start" x="8" y="-605" font-family="Helvetica,sans-Serif" font-size="10.00">+ num_points()</text>
<text text-anchor="start" x="8" y="-594" font-family="Helvetica,sans-Serif" font-size="10.00">+ num_points()</text>
<text text-anchor="start" x="8" y="-583" font-family="Helvetica,sans-Serif" font-size="10.00">+ size()</text>
<text text-anchor="start" x="8" y="-572" font-family="Helvetica,sans-Serif" font-size="10.00">+ num_patches()</text>
<text text-anchor="start" x="8" y="-561" font-family="Helvetica,sans-Serif" font-size="10.00">+ num_patches()</text>
<text text-anchor="start" x="8" y="-550" font-family="Helvetica,sans-Serif" font-size="10.00">and 12 more...</text>
</a>
</g>
</g>
<!-- Node3&#45;&gt;Node2 -->
<g id="edge2" class="edge"><title>Node3&#45;&gt;Node2</title>
<path fill="none" stroke="#404040" d="M88.6598,-542.948C94.2152,-530.614 99.9933,-517.785 105.738,-505.031"/>
<polygon fill="none" stroke="#404040" points="105.844,-504.797 104.661,-497.683 110.772,-493.855 111.955,-500.969 105.844,-504.797"/>
<text text-anchor="middle" x="122.5" y="-515.5" font-family="Helvetica,sans-Serif" font-size="10.00"> #_outgrid</text>
</g>
<!-- Node4 -->
<g id="node4" class="node"><title>Node4</title>
<g id="a_node4"><a xlink:href="classarma_1_1Output__flags.html" target="_top" xlink:title="Flags that determine what and how is written to disk. ">
<polygon fill="none" stroke="black" points="116,-581.5 116,-682.5 216,-682.5 216,-581.5 116,-581.5"/>
<text text-anchor="middle" x="166" y="-670.5" font-family="Helvetica,sans-Serif" font-size="10.00">arma::Output_flags</text>
<polyline fill="none" stroke="black" points="116,-663.5 216,-663.5 "/>
<text text-anchor="start" x="124" y="-651.5" font-family="Helvetica,sans-Serif" font-size="10.00">&#45; _flags</text>
<polyline fill="none" stroke="black" points="116,-644.5 216,-644.5 "/>
<text text-anchor="start" x="124" y="-632.5" font-family="Helvetica,sans-Serif" font-size="10.00">+ setf()</text>
<text text-anchor="start" x="124" y="-621.5" font-family="Helvetica,sans-Serif" font-size="10.00">+ isset()</text>
<text text-anchor="start" x="124" y="-610.5" font-family="Helvetica,sans-Serif" font-size="10.00">+ operator==()</text>
<text text-anchor="start" x="124" y="-599.5" font-family="Helvetica,sans-Serif" font-size="10.00">+ operator!=()</text>
<text text-anchor="start" x="124" y="-588.5" font-family="Helvetica,sans-Serif" font-size="10.00">&#45; prune()</text>
</a>
</g>
</g>
<!-- Node4&#45;&gt;Node2 -->
<g id="edge3" class="edge"><title>Node4&#45;&gt;Node2</title>
<path fill="none" stroke="#404040" d="M164.362,-581.444C163.636,-559.499 162.749,-532.67 161.871,-506.092"/>
<polygon fill="none" stroke="#404040" points="161.865,-505.911 157.669,-500.046 161.468,-493.917 165.664,-499.782 161.865,-505.911"/>
<text text-anchor="middle" x="183" y="-515.5" font-family="Helvetica,sans-Serif" font-size="10.00"> #_oflags</text>
</g>
<!-- Node5 -->
<g id="node5" class="node"><title>Node5</title>
<g id="a_node5"><a xlink:href="classarma_1_1Discrete__function.html" target="_top" xlink:title="{arma::Discrete_function\l\&lt; T, 3 \&gt;\n|&#45; _grid\l|+ grid()\l+ setgrid()\l+ operator=()\l}">
<polygon fill="none" stroke="black" points="234.5,-343 234.5,-433 355.5,-433 355.5,-343 234.5,-343"/>
<text text-anchor="start" x="242.5" y="-421" font-family="Helvetica,sans-Serif" font-size="10.00">arma::Discrete_function</text>
<text text-anchor="middle" x="295" y="-410" font-family="Helvetica,sans-Serif" font-size="10.00">&lt; T, 3 &gt;</text>
<polyline fill="none" stroke="black" points="234.5,-403 355.5,-403 "/>
<text text-anchor="start" x="242.5" y="-391" font-family="Helvetica,sans-Serif" font-size="10.00">&#45; _grid</text>
<polyline fill="none" stroke="black" points="234.5,-384 355.5,-384 "/>
<text text-anchor="start" x="242.5" y="-372" font-family="Helvetica,sans-Serif" font-size="10.00">+ grid()</text>
<text text-anchor="start" x="242.5" y="-361" font-family="Helvetica,sans-Serif" font-size="10.00">+ setgrid()</text>
<text text-anchor="start" x="242.5" y="-350" font-family="Helvetica,sans-Serif" font-size="10.00">+ operator=()</text>
</a>
</g>
</g>
<!-- Node5&#45;&gt;Node1 -->
<g id="edge4" class="edge"><title>Node5&#45;&gt;Node1</title>
<path fill="none" stroke="#404040" d="M285.815,-342.881C280.24,-316.099 272.812,-280.417 265.518,-245.381"/>
<polygon fill="none" stroke="#404040" points="265.498,-245.286 260.359,-240.227 263.052,-233.538 268.191,-238.596 265.498,-245.286"/>
<text text-anchor="middle" x="283" y="-255.5" font-family="Helvetica,sans-Serif" font-size="10.00"> #_acf</text>
</g>
<!-- Node6 -->
<g id="node6" class="node"><title>Node6</title>
<polygon fill="none" stroke="#bfbfbf" points="242.5,-603.5 242.5,-660.5 347.5,-660.5 347.5,-603.5 242.5,-603.5"/>
<text text-anchor="middle" x="295" y="-648.5" font-family="Helvetica,sans-Serif" font-size="10.00">arma::Array&lt; T, N &gt;</text>
<polyline fill="none" stroke="#bfbfbf" points="242.5,-641.5 347.5,-641.5 "/>
<text text-anchor="middle" x="295" y="-629.5" font-family="Helvetica,sans-Serif" font-size="10.00"> </text>
<polyline fill="none" stroke="#bfbfbf" points="242.5,-622.5 347.5,-622.5 "/>
<text text-anchor="middle" x="295" y="-610.5" font-family="Helvetica,sans-Serif" font-size="10.00"> </text>
</g>
<!-- Node6&#45;&gt;Node5 -->
<g id="edge5" class="edge"><title>Node6&#45;&gt;Node5</title>
<path fill="none" stroke="midnightblue" d="M295,-593.116C295,-549.802 295,-478.991 295,-433.197"/>
<polygon fill="none" stroke="midnightblue" points="291.5,-593.239 295,-603.24 298.5,-593.24 291.5,-593.239"/>
</g>
</g>
</svg>
