<?xml version="1.0" encoding="UTF-8" standalone="no"?>
<!DOCTYPE svg PUBLIC "-//W3C//DTD SVG 1.1//EN"
 "http://www.w3.org/Graphics/SVG/1.1/DTD/svg11.dtd">
<!-- Generated by graphviz version 2.36.0 (20140111.2315)
 -->
<!-- Title: arma::velocity::Velocity_potential_solver&lt; T &gt; Pages: 1 -->
<svg width="659pt" height="652pt"
 viewBox="0.00 0.00 659.00 652.00" xmlns="http://www.w3.org/2000/svg" xmlns:xlink="http://www.w3.org/1999/xlink">
<g id="graph0" class="graph" transform="scale(1 1) rotate(0) translate(4 648)">
<title>arma::velocity::Velocity_potential_solver&lt; T &gt;</title>
<!-- Node1 -->
<g id="node1" class="node"><title>Node1</title>
<polygon fill="#bfbfbf" stroke="black" points="259,-399 259,-643 405,-643 405,-399 259,-399"/>
<text text-anchor="start" x="267" y="-631" font-family="Helvetica,sans-Serif" font-size="10.00">arma::velocity::Velocity</text>
<text text-anchor="middle" x="332" y="-620" font-family="Helvetica,sans-Serif" font-size="10.00">_potential_solver&lt; T &gt;</text>
<polyline fill="none" stroke="black" points="259,-613 405,-613 "/>
<text text-anchor="start" x="267" y="-601" font-family="Helvetica,sans-Serif" font-size="10.00"># _wnmax</text>
<text text-anchor="start" x="267" y="-590" font-family="Helvetica,sans-Serif" font-size="10.00"># _depth</text>
<text text-anchor="start" x="267" y="-579" font-family="Helvetica,sans-Serif" font-size="10.00"># _domain</text>
<polyline fill="none" stroke="black" points="259,-572 405,-572 "/>
<text text-anchor="start" x="267" y="-560" font-family="Helvetica,sans-Serif" font-size="10.00">+ Velocity_potential</text>
<text text-anchor="start" x="267" y="-549" font-family="Helvetica,sans-Serif" font-size="10.00">_solver()</text>
<text text-anchor="start" x="267" y="-538" font-family="Helvetica,sans-Serif" font-size="10.00">+ Velocity_potential</text>
<text text-anchor="start" x="267" y="-527" font-family="Helvetica,sans-Serif" font-size="10.00">_solver()</text>
<text text-anchor="start" x="267" y="-516" font-family="Helvetica,sans-Serif" font-size="10.00">+ Velocity_potential</text>
<text text-anchor="start" x="267" y="-505" font-family="Helvetica,sans-Serif" font-size="10.00">_solver()</text>
<text text-anchor="start" x="267" y="-494" font-family="Helvetica,sans-Serif" font-size="10.00">+ ~Velocity_potential</text>
<text text-anchor="start" x="267" y="-483" font-family="Helvetica,sans-Serif" font-size="10.00">_solver()</text>
<text text-anchor="start" x="267" y="-472" font-family="Helvetica,sans-Serif" font-size="10.00">+ operator()()</text>
<text text-anchor="start" x="267" y="-461" font-family="Helvetica,sans-Serif" font-size="10.00">+ domain()</text>
<text text-anchor="start" x="267" y="-450" font-family="Helvetica,sans-Serif" font-size="10.00"># precompute()</text>
<text text-anchor="start" x="267" y="-439" font-family="Helvetica,sans-Serif" font-size="10.00"># precompute()</text>
<text text-anchor="start" x="267" y="-428" font-family="Helvetica,sans-Serif" font-size="10.00"># compute_velocity_field_2d()</text>
<text text-anchor="start" x="267" y="-417" font-family="Helvetica,sans-Serif" font-size="10.00"># write()</text>
<text text-anchor="start" x="267" y="-406" font-family="Helvetica,sans-Serif" font-size="10.00"># read()</text>
</g>
<!-- Node2 -->
<g id="node2" class="node"><title>Node2</title>
<g id="a_node2"><a xlink:href="classarma_1_1velocity_1_1High__amplitude__realtime__solver.html" target="_top" xlink:title="A version of High_amplitude_solver with shared OpenCL/OpenGL buffers for real&#45;time rendering...">
<polygon fill="none" stroke="black" points="-0.5,-106.5 -0.5,-361.5 158.5,-361.5 158.5,-106.5 -0.5,-106.5"/>
<text text-anchor="start" x="7.5" y="-349.5" font-family="Helvetica,sans-Serif" font-size="10.00">arma::velocity::High</text>
<text text-anchor="middle" x="79" y="-338.5" font-family="Helvetica,sans-Serif" font-size="10.00">_amplitude_realtime_solver&lt; T &gt;</text>
<polyline fill="none" stroke="black" points="-0.5,-331.5 158.5,-331.5 "/>
<text text-anchor="start" x="7.5" y="-319.5" font-family="Helvetica,sans-Serif" font-size="10.00">&#45; _phi</text>
<text text-anchor="start" x="7.5" y="-308.5" font-family="Helvetica,sans-Serif" font-size="10.00">&#45; _wfunc</text>
<text text-anchor="start" x="7.5" y="-297.5" font-family="Helvetica,sans-Serif" font-size="10.00">&#45; _vphi</text>
<text text-anchor="start" x="7.5" y="-286.5" font-family="Helvetica,sans-Serif" font-size="10.00">&#45; _glphi</text>
<text text-anchor="start" x="7.5" y="-275.5" font-family="Helvetica,sans-Serif" font-size="10.00">&#45; _fft</text>
<text text-anchor="start" x="7.5" y="-264.5" font-family="Helvetica,sans-Serif" font-size="10.00">&#45; _fftplan</text>
<polyline fill="none" stroke="black" points="-0.5,-257.5 158.5,-257.5 "/>
<text text-anchor="start" x="7.5" y="-245.5" font-family="Helvetica,sans-Serif" font-size="10.00">+ High_amplitude_realtime</text>
<text text-anchor="start" x="7.5" y="-234.5" font-family="Helvetica,sans-Serif" font-size="10.00">_solver()</text>
<text text-anchor="start" x="7.5" y="-223.5" font-family="Helvetica,sans-Serif" font-size="10.00">+ ~High_amplitude_realtime</text>
<text text-anchor="start" x="7.5" y="-212.5" font-family="Helvetica,sans-Serif" font-size="10.00">_solver()</text>
<text text-anchor="start" x="7.5" y="-201.5" font-family="Helvetica,sans-Serif" font-size="10.00">+ operator()()</text>
<text text-anchor="start" x="7.5" y="-190.5" font-family="Helvetica,sans-Serif" font-size="10.00">&#45; setup()</text>
<text text-anchor="start" x="7.5" y="-179.5" font-family="Helvetica,sans-Serif" font-size="10.00">&#45; compute_window_function()</text>
<text text-anchor="start" x="7.5" y="-168.5" font-family="Helvetica,sans-Serif" font-size="10.00">&#45; interpolate_window</text>
<text text-anchor="start" x="7.5" y="-157.5" font-family="Helvetica,sans-Serif" font-size="10.00">_function()</text>
<text text-anchor="start" x="7.5" y="-146.5" font-family="Helvetica,sans-Serif" font-size="10.00">&#45; compute_second_function()</text>
<text text-anchor="start" x="7.5" y="-135.5" font-family="Helvetica,sans-Serif" font-size="10.00">&#45; multiply_functions()</text>
<text text-anchor="start" x="7.5" y="-124.5" font-family="Helvetica,sans-Serif" font-size="10.00">&#45; fft()</text>
<text text-anchor="start" x="7.5" y="-113.5" font-family="Helvetica,sans-Serif" font-size="10.00">&#45; create_vector_field()</text>
</a>
</g>
</g>
<!-- Node1&#45;&gt;Node2 -->
<g id="edge1" class="edge"><title>Node1&#45;&gt;Node2</title>
<path fill="none" stroke="midnightblue" d="M251.436,-448.283C223.82,-422.197 193.479,-391.785 168,-362 164.85,-358.317 161.702,-354.525 158.573,-350.656"/>
<polygon fill="none" stroke="midnightblue" points="249.083,-450.875 258.768,-455.169 253.875,-445.772 249.083,-450.875"/>
</g>
<!-- Node3 -->
<g id="node3" class="node"><title>Node3</title>
<g id="a_node3"><a xlink:href="classarma_1_1velocity_1_1Linear__solver.html" target="_top" xlink:title="Uses linear wave theory formula, small&#45;amplitude waves. ">
<polygon fill="none" stroke="black" points="177,-167 177,-301 323,-301 323,-167 177,-167"/>
<text text-anchor="start" x="185" y="-289" font-family="Helvetica,sans-Serif" font-size="10.00">arma::velocity::Linear</text>
<text text-anchor="middle" x="250" y="-278" font-family="Helvetica,sans-Serif" font-size="10.00">_solver&lt; T &gt;</text>
<polyline fill="none" stroke="black" points="177,-271 323,-271 "/>
<text text-anchor="start" x="185" y="-259" font-family="Helvetica,sans-Serif" font-size="10.00"># _fft</text>
<text text-anchor="start" x="185" y="-248" font-family="Helvetica,sans-Serif" font-size="10.00"># _zeta_t</text>
<polyline fill="none" stroke="black" points="177,-241 323,-241 "/>
<text text-anchor="start" x="185" y="-229" font-family="Helvetica,sans-Serif" font-size="10.00">+ Linear_solver()</text>
<text text-anchor="start" x="185" y="-218" font-family="Helvetica,sans-Serif" font-size="10.00"># precompute()</text>
<text text-anchor="start" x="185" y="-207" font-family="Helvetica,sans-Serif" font-size="10.00"># precompute()</text>
<text text-anchor="start" x="185" y="-196" font-family="Helvetica,sans-Serif" font-size="10.00"># compute_velocity_field_2d()</text>
<text text-anchor="start" x="185" y="-185" font-family="Helvetica,sans-Serif" font-size="10.00">&#45; low_amp_window_function()</text>
<text text-anchor="start" x="185" y="-174" font-family="Helvetica,sans-Serif" font-size="10.00">&#45; wave_number_range()</text>
</a>
</g>
</g>
<!-- Node1&#45;&gt;Node3 -->
<g id="edge2" class="edge"><title>Node1&#45;&gt;Node3</title>
<path fill="none" stroke="midnightblue" d="M294.272,-388.873C285.517,-358.444 276.562,-327.32 269.017,-301.096"/>
<polygon fill="none" stroke="midnightblue" points="290.977,-390.079 297.106,-398.721 297.704,-388.143 290.977,-390.079"/>
</g>
<!-- Node5 -->
<g id="node5" class="node"><title>Node5</title>
<g id="a_node5"><a xlink:href="classarma_1_1velocity_1_1Plain__wave__solver.html" target="_top" xlink:title="Uses analytic formulae from linear wave theory, sine and cosine waves. ">
<polygon fill="none" stroke="black" points="341,-189 341,-279 487,-279 487,-189 341,-189"/>
<text text-anchor="start" x="349" y="-267" font-family="Helvetica,sans-Serif" font-size="10.00">arma::velocity::Plain</text>
<text text-anchor="middle" x="414" y="-256" font-family="Helvetica,sans-Serif" font-size="10.00">_wave_solver&lt; T &gt;</text>
<polyline fill="none" stroke="black" points="341,-249 487,-249 "/>
<text text-anchor="start" x="349" y="-237" font-family="Helvetica,sans-Serif" font-size="10.00">&#45; _waves</text>
<polyline fill="none" stroke="black" points="341,-230 487,-230 "/>
<text text-anchor="start" x="349" y="-218" font-family="Helvetica,sans-Serif" font-size="10.00"># compute_velocity_field_2d()</text>
<text text-anchor="start" x="349" y="-207" font-family="Helvetica,sans-Serif" font-size="10.00"># write()</text>
<text text-anchor="start" x="349" y="-196" font-family="Helvetica,sans-Serif" font-size="10.00"># read()</text>
</a>
</g>
</g>
<!-- Node1&#45;&gt;Node5 -->
<g id="edge4" class="edge"><title>Node1&#45;&gt;Node5</title>
<path fill="none" stroke="midnightblue" d="M369.694,-388.989C381.05,-349.522 392.746,-308.871 401.268,-279.253"/>
<polygon fill="none" stroke="midnightblue" points="366.296,-388.143 366.894,-398.721 373.023,-390.079 366.296,-388.143"/>
</g>
<!-- Node6 -->
<g id="node6" class="node"><title>Node6</title>
<g id="a_node6"><a xlink:href="classarma_1_1velocity_1_1Small__amplitude__solver.html" target="_top" xlink:title="Uses analytic formulae for small&#45;amplitude waves (WIP). ">
<polygon fill="none" stroke="black" points="505,-189 505,-279 651,-279 651,-189 505,-189"/>
<text text-anchor="start" x="513" y="-267" font-family="Helvetica,sans-Serif" font-size="10.00">arma::velocity::Small</text>
<text text-anchor="middle" x="578" y="-256" font-family="Helvetica,sans-Serif" font-size="10.00">_amplitude_solver&lt; T &gt;</text>
<polyline fill="none" stroke="black" points="505,-249 651,-249 "/>
<text text-anchor="middle" x="578" y="-237" font-family="Helvetica,sans-Serif" font-size="10.00"> </text>
<polyline fill="none" stroke="black" points="505,-230 651,-230 "/>
<text text-anchor="start" x="513" y="-218" font-family="Helvetica,sans-Serif" font-size="10.00"># compute_velocity_field_2d()</text>
<text text-anchor="start" x="513" y="-207" font-family="Helvetica,sans-Serif" font-size="10.00"># precompute()</text>
<text text-anchor="start" x="513" y="-196" font-family="Helvetica,sans-Serif" font-size="10.00"># precompute()</text>
</a>
</g>
</g>
<!-- Node1&#45;&gt;Node6 -->
<g id="edge5" class="edge"><title>Node1&#45;&gt;Node6</title>
<path fill="none" stroke="midnightblue" d="M412.438,-449.543C440.318,-423.348 470.859,-392.543 496,-362 517.349,-336.063 537.849,-304.313 553.012,-279.047"/>
<polygon fill="none" stroke="midnightblue" points="409.957,-447.071 405.033,-456.452 414.732,-452.189 409.957,-447.071"/>
</g>
<!-- Node4 -->
<g id="node4" class="node"><title>Node4</title>
<g id="a_node4"><a xlink:href="classarma_1_1velocity_1_1High__amplitude__solver.html" target="_top" xlink:title="Uses analytic formula based on Fourier transforms, arbitrary amplitude waves. ">
<polygon fill="none" stroke="black" points="190.5,-1 190.5,-69 309.5,-69 309.5,-1 190.5,-1"/>
<text text-anchor="start" x="198.5" y="-57" font-family="Helvetica,sans-Serif" font-size="10.00">arma::velocity::High</text>
<text text-anchor="middle" x="250" y="-46" font-family="Helvetica,sans-Serif" font-size="10.00">_amplitude_solver&lt; T &gt;</text>
<polyline fill="none" stroke="black" points="190.5,-39 309.5,-39 "/>
<text text-anchor="middle" x="250" y="-27" font-family="Helvetica,sans-Serif" font-size="10.00"> </text>
<polyline fill="none" stroke="black" points="190.5,-20 309.5,-20 "/>
<text text-anchor="start" x="198.5" y="-8" font-family="Helvetica,sans-Serif" font-size="10.00"># precompute()</text>
</a>
</g>
</g>
<!-- Node3&#45;&gt;Node4 -->
<g id="edge3" class="edge"><title>Node3&#45;&gt;Node4</title>
<path fill="none" stroke="midnightblue" d="M250,-156.692C250,-126.338 250,-93.0184 250,-69.0931"/>
<polygon fill="none" stroke="midnightblue" points="246.5,-156.854 250,-166.854 253.5,-156.854 246.5,-156.854"/>
</g>
</g>
</svg>
