<?xml version="1.0" encoding="UTF-8" standalone="no"?>
<!DOCTYPE svg PUBLIC "-//W3C//DTD SVG 1.1//EN"
 "http://www.w3.org/Graphics/SVG/1.1/DTD/svg11.dtd">
<!-- Generated by graphviz version 2.36.0 (20140111.2315)
 -->
<!-- Title: arma::ARMA_realtime_driver&lt; T &gt; Pages: 1 -->
<svg width="480pt" height="990pt"
 viewBox="0.00 0.00 480.00 990.00" xmlns="http://www.w3.org/2000/svg" xmlns:xlink="http://www.w3.org/1999/xlink">
<g id="graph0" class="graph" transform="scale(1 1) rotate(0) translate(4 986)">
<title>arma::ARMA_realtime_driver&lt; T &gt;</title>
<!-- Node1 -->
<g id="node1" class="node"><title>Node1</title>
<polygon fill="#bfbfbf" stroke="black" points="189,-0.5 189,-167.5 325,-167.5 325,-0.5 189,-0.5"/>
<text text-anchor="start" x="197" y="-155.5" font-family="Helvetica,sans-Serif" font-size="10.00">arma::ARMA_realtime</text>
<text text-anchor="middle" x="257" y="-144.5" font-family="Helvetica,sans-Serif" font-size="10.00">_driver&lt; T &gt;</text>
<polyline fill="none" stroke="black" points="189,-137.5 325,-137.5 "/>
<text text-anchor="start" x="197" y="-125.5" font-family="Helvetica,sans-Serif" font-size="10.00">&#45; _vao_phi</text>
<text text-anchor="start" x="197" y="-114.5" font-family="Helvetica,sans-Serif" font-size="10.00">&#45; _vbo_phi</text>
<text text-anchor="start" x="197" y="-103.5" font-family="Helvetica,sans-Serif" font-size="10.00">&#45; _ibo_phi</text>
<text text-anchor="start" x="197" y="-92.5" font-family="Helvetica,sans-Serif" font-size="10.00">&#45; _indices</text>
<polyline fill="none" stroke="black" points="189,-85.5 325,-85.5 "/>
<text text-anchor="start" x="197" y="-73.5" font-family="Helvetica,sans-Serif" font-size="10.00">+ ARMA_realtime_driver()</text>
<text text-anchor="start" x="197" y="-62.5" font-family="Helvetica,sans-Serif" font-size="10.00">+ ~ARMA_realtime_driver()</text>
<text text-anchor="start" x="197" y="-51.5" font-family="Helvetica,sans-Serif" font-size="10.00">+ on_display()</text>
<text text-anchor="start" x="197" y="-40.5" font-family="Helvetica,sans-Serif" font-size="10.00">+ read()</text>
<text text-anchor="start" x="197" y="-29.5" font-family="Helvetica,sans-Serif" font-size="10.00">&#45; init_buffers()</text>
<text text-anchor="start" x="197" y="-18.5" font-family="Helvetica,sans-Serif" font-size="10.00">&#45; delete_buffers()</text>
<text text-anchor="start" x="197" y="-7.5" font-family="Helvetica,sans-Serif" font-size="10.00">&#45; init_indices()</text>
</g>
<!-- Node2 -->
<g id="node2" class="node"><title>Node2</title>
<g id="a_node2"><a xlink:href="structarma_1_1ARMA__driver.html" target="_top" xlink:title="Control class that generates wavy surface and computes velocity potential field. ">
<polygon fill="none" stroke="black" points="193,-206.5 193,-439.5 321,-439.5 321,-206.5 193,-206.5"/>
<text text-anchor="middle" x="257" y="-427.5" font-family="Helvetica,sans-Serif" font-size="10.00">arma::ARMA_driver&lt; T &gt;</text>
<polyline fill="none" stroke="black" points="193,-420.5 321,-420.5 "/>
<text text-anchor="start" x="201" y="-408.5" font-family="Helvetica,sans-Serif" font-size="10.00"># _vpotentials</text>
<text text-anchor="start" x="201" y="-397.5" font-family="Helvetica,sans-Serif" font-size="10.00"># _solvers</text>
<text text-anchor="start" x="201" y="-386.5" font-family="Helvetica,sans-Serif" font-size="10.00"># _models</text>
<text text-anchor="start" x="201" y="-375.5" font-family="Helvetica,sans-Serif" font-size="10.00"># _solvername</text>
<polyline fill="none" stroke="black" points="193,-368.5 321,-368.5 "/>
<text text-anchor="start" x="201" y="-356.5" font-family="Helvetica,sans-Serif" font-size="10.00">+ ARMA_driver()</text>
<text text-anchor="start" x="201" y="-345.5" font-family="Helvetica,sans-Serif" font-size="10.00">+ ~ARMA_driver()</text>
<text text-anchor="start" x="201" y="-334.5" font-family="Helvetica,sans-Serif" font-size="10.00">+ open()</text>
<text text-anchor="start" x="201" y="-323.5" font-family="Helvetica,sans-Serif" font-size="10.00">+ wavy_surface()</text>
<text text-anchor="start" x="201" y="-312.5" font-family="Helvetica,sans-Serif" font-size="10.00">+ wavy_surface_grid()</text>
<text text-anchor="start" x="201" y="-301.5" font-family="Helvetica,sans-Serif" font-size="10.00">+ velocity_potentials()</text>
<text text-anchor="start" x="201" y="-290.5" font-family="Helvetica,sans-Serif" font-size="10.00">+ velocity_potential</text>
<text text-anchor="start" x="201" y="-279.5" font-family="Helvetica,sans-Serif" font-size="10.00">_solver()</text>
<text text-anchor="start" x="201" y="-268.5" font-family="Helvetica,sans-Serif" font-size="10.00">+ velocity_potential</text>
<text text-anchor="start" x="201" y="-257.5" font-family="Helvetica,sans-Serif" font-size="10.00">_solver()</text>
<text text-anchor="start" x="201" y="-246.5" font-family="Helvetica,sans-Serif" font-size="10.00">+ oflags()</text>
<text text-anchor="start" x="201" y="-235.5" font-family="Helvetica,sans-Serif" font-size="10.00">+ velocity_potential_grid()</text>
<text text-anchor="start" x="201" y="-224.5" font-family="Helvetica,sans-Serif" font-size="10.00">and 8 more...</text>
<text text-anchor="start" x="201" y="-213.5" font-family="Helvetica,sans-Serif" font-size="10.00"># echo_parameters()</text>
</a>
</g>
</g>
<!-- Node2&#45;&gt;Node1 -->
<g id="edge1" class="edge"><title>Node2&#45;&gt;Node1</title>
<path fill="none" stroke="midnightblue" d="M257,-196.191C257,-186.525 257,-176.924 257,-167.647"/>
<polygon fill="none" stroke="midnightblue" points="253.5,-196.277 257,-206.277 260.5,-196.277 253.5,-196.277"/>
</g>
<!-- Node3 -->
<g id="node3" class="node"><title>Node3</title>
<g id="a_node3"><a xlink:href="classarma_1_1velocity_1_1Velocity__potential__solver.html" target="_top" xlink:title="Base class for all velocity potential field solvers. ">
<polygon fill="none" stroke="black" points="0,-489 0,-733 146,-733 146,-489 0,-489"/>
<text text-anchor="start" x="8" y="-721" font-family="Helvetica,sans-Serif" font-size="10.00">arma::velocity::Velocity</text>
<text text-anchor="middle" x="73" y="-710" font-family="Helvetica,sans-Serif" font-size="10.00">_potential_solver&lt; T &gt;</text>
<polyline fill="none" stroke="black" points="0,-703 146,-703 "/>
<text text-anchor="start" x="8" y="-691" font-family="Helvetica,sans-Serif" font-size="10.00"># _depth</text>
<polyline fill="none" stroke="black" points="0,-684 146,-684 "/>
<text text-anchor="start" x="8" y="-672" font-family="Helvetica,sans-Serif" font-size="10.00">+ Velocity_potential</text>
<text text-anchor="start" x="8" y="-661" font-family="Helvetica,sans-Serif" font-size="10.00">_solver()</text>
<text text-anchor="start" x="8" y="-650" font-family="Helvetica,sans-Serif" font-size="10.00">+ Velocity_potential</text>
<text text-anchor="start" x="8" y="-639" font-family="Helvetica,sans-Serif" font-size="10.00">_solver()</text>
<text text-anchor="start" x="8" y="-628" font-family="Helvetica,sans-Serif" font-size="10.00">+ Velocity_potential</text>
<text text-anchor="start" x="8" y="-617" font-family="Helvetica,sans-Serif" font-size="10.00">_solver()</text>
<text text-anchor="start" x="8" y="-606" font-family="Helvetica,sans-Serif" font-size="10.00">+ ~Velocity_potential</text>
<text text-anchor="start" x="8" y="-595" font-family="Helvetica,sans-Serif" font-size="10.00">_solver()</text>
<text text-anchor="start" x="8" y="-584" font-family="Helvetica,sans-Serif" font-size="10.00">+ operator()()</text>
<text text-anchor="start" x="8" y="-573" font-family="Helvetica,sans-Serif" font-size="10.00">+ domain()</text>
<text text-anchor="start" x="8" y="-562" font-family="Helvetica,sans-Serif" font-size="10.00"># precompute()</text>
<text text-anchor="start" x="8" y="-551" font-family="Helvetica,sans-Serif" font-size="10.00"># precompute()</text>
<text text-anchor="start" x="8" y="-540" font-family="Helvetica,sans-Serif" font-size="10.00"># compute_velocity_field_2d()</text>
<text text-anchor="start" x="8" y="-529" font-family="Helvetica,sans-Serif" font-size="10.00"># write()</text>
<text text-anchor="start" x="8" y="-518" font-family="Helvetica,sans-Serif" font-size="10.00"># read()</text>
<text text-anchor="start" x="8" y="-507" font-family="Helvetica,sans-Serif" font-size="10.00"># compute_wave_number</text>
<text text-anchor="start" x="8" y="-496" font-family="Helvetica,sans-Serif" font-size="10.00">_range_from_surface()</text>
</a>
</g>
</g>
<!-- Node3&#45;&gt;Node2 -->
<g id="edge2" class="edge"><title>Node3&#45;&gt;Node2</title>
<path fill="none" stroke="#404040" d="M146.25,-496.143C159.453,-475.621 173.194,-454.263 186.322,-433.858"/>
<polygon fill="none" stroke="#404040" points="186.425,-433.697 186.308,-426.487 192.918,-423.605 193.036,-430.816 186.425,-433.697"/>
<text text-anchor="middle" x="191" y="-461.5" font-family="Helvetica,sans-Serif" font-size="10.00"> #_solver</text>
</g>
<!-- Node4 -->
<g id="node4" class="node"><title>Node4</title>
<g id="a_node4"><a xlink:href="structarma_1_1Domain.html" target="_top" xlink:title="{arma::Domain\&lt; T \&gt;\n|&#45; _lbound\l&#45; _ubound\l&#45; _npoints\l|+ Domain()\l+ Domain()\l+ Domain()\l+ Domain()\l+ Domain()\l+ Domain()\l+ Domain()\l+ ~Domain()\l+ operator=()\l+ num_points()\land 16 more...\l}">
<polygon fill="none" stroke="black" points="13,-792.5 13,-981.5 115,-981.5 115,-792.5 13,-792.5"/>
<text text-anchor="middle" x="64" y="-969.5" font-family="Helvetica,sans-Serif" font-size="10.00">arma::Domain&lt; T &gt;</text>
<polyline fill="none" stroke="black" points="13,-962.5 115,-962.5 "/>
<text text-anchor="start" x="21" y="-950.5" font-family="Helvetica,sans-Serif" font-size="10.00">&#45; _lbound</text>
<text text-anchor="start" x="21" y="-939.5" font-family="Helvetica,sans-Serif" font-size="10.00">&#45; _ubound</text>
<text text-anchor="start" x="21" y="-928.5" font-family="Helvetica,sans-Serif" font-size="10.00">&#45; _npoints</text>
<polyline fill="none" stroke="black" points="13,-921.5 115,-921.5 "/>
<text text-anchor="start" x="21" y="-909.5" font-family="Helvetica,sans-Serif" font-size="10.00">+ Domain()</text>
<text text-anchor="start" x="21" y="-898.5" font-family="Helvetica,sans-Serif" font-size="10.00">+ Domain()</text>
<text text-anchor="start" x="21" y="-887.5" font-family="Helvetica,sans-Serif" font-size="10.00">+ Domain()</text>
<text text-anchor="start" x="21" y="-876.5" font-family="Helvetica,sans-Serif" font-size="10.00">+ Domain()</text>
<text text-anchor="start" x="21" y="-865.5" font-family="Helvetica,sans-Serif" font-size="10.00">+ Domain()</text>
<text text-anchor="start" x="21" y="-854.5" font-family="Helvetica,sans-Serif" font-size="10.00">+ Domain()</text>
<text text-anchor="start" x="21" y="-843.5" font-family="Helvetica,sans-Serif" font-size="10.00">+ Domain()</text>
<text text-anchor="start" x="21" y="-832.5" font-family="Helvetica,sans-Serif" font-size="10.00">+ ~Domain()</text>
<text text-anchor="start" x="21" y="-821.5" font-family="Helvetica,sans-Serif" font-size="10.00">+ operator=()</text>
<text text-anchor="start" x="21" y="-810.5" font-family="Helvetica,sans-Serif" font-size="10.00">+ num_points()</text>
<text text-anchor="start" x="21" y="-799.5" font-family="Helvetica,sans-Serif" font-size="10.00">and 16 more...</text>
</a>
</g>
</g>
<!-- Node4&#45;&gt;Node3 -->
<g id="edge3" class="edge"><title>Node4&#45;&gt;Node3</title>
<path fill="none" stroke="#404040" d="M67.0721,-792.471C67.5712,-777.276 68.0965,-761.284 68.6196,-745.359"/>
<polygon fill="none" stroke="#404040" points="68.6247,-745.201 64.8239,-739.072 69.0187,-733.207 72.8196,-739.335 68.6247,-745.201"/>
<text text-anchor="middle" x="92" y="-766" font-family="Helvetica,sans-Serif" font-size="10.00"> #_domain</text>
<text text-anchor="middle" x="92" y="-755" font-family="Helvetica,sans-Serif" font-size="10.00">#_wnmax</text>
</g>
<!-- Node5 -->
<g id="node5" class="node"><title>Node5</title>
<g id="a_node5"><a xlink:href="classarma_1_1generator_1_1Basic__model.html" target="_top" xlink:title="A base class for all generators. ">
<polygon fill="none" stroke="black" points="199,-505.5 199,-716.5 315,-716.5 315,-505.5 199,-505.5"/>
<text text-anchor="start" x="207" y="-704.5" font-family="Helvetica,sans-Serif" font-size="10.00">arma::generator::Basic</text>
<text text-anchor="middle" x="257" y="-693.5" font-family="Helvetica,sans-Serif" font-size="10.00">_model&lt; T &gt;</text>
<polyline fill="none" stroke="black" points="199,-686.5 315,-686.5 "/>
<text text-anchor="start" x="207" y="-674.5" font-family="Helvetica,sans-Serif" font-size="10.00"># _noseed</text>
<polyline fill="none" stroke="black" points="199,-667.5 315,-667.5 "/>
<text text-anchor="start" x="207" y="-655.5" font-family="Helvetica,sans-Serif" font-size="10.00">+ Basic_model()</text>
<text text-anchor="start" x="207" y="-644.5" font-family="Helvetica,sans-Serif" font-size="10.00">+ Basic_model()</text>
<text text-anchor="start" x="207" y="-633.5" font-family="Helvetica,sans-Serif" font-size="10.00">+ Basic_model()</text>
<text text-anchor="start" x="207" y="-622.5" font-family="Helvetica,sans-Serif" font-size="10.00">+ ~Basic_model()</text>
<text text-anchor="start" x="207" y="-611.5" font-family="Helvetica,sans-Serif" font-size="10.00">+ setgrid()</text>
<text text-anchor="start" x="207" y="-600.5" font-family="Helvetica,sans-Serif" font-size="10.00">+ grid()</text>
<text text-anchor="start" x="207" y="-589.5" font-family="Helvetica,sans-Serif" font-size="10.00">+ oflags()</text>
<text text-anchor="start" x="207" y="-578.5" font-family="Helvetica,sans-Serif" font-size="10.00">+ writes_in_parallel()</text>
<text text-anchor="start" x="207" y="-567.5" font-family="Helvetica,sans-Serif" font-size="10.00">+ validate()</text>
<text text-anchor="start" x="207" y="-556.5" font-family="Helvetica,sans-Serif" font-size="10.00">+ generate()</text>
<text text-anchor="start" x="207" y="-545.5" font-family="Helvetica,sans-Serif" font-size="10.00">+ verify()</text>
<text text-anchor="start" x="207" y="-534.5" font-family="Helvetica,sans-Serif" font-size="10.00"># write()</text>
<text text-anchor="start" x="207" y="-523.5" font-family="Helvetica,sans-Serif" font-size="10.00"># read()</text>
<text text-anchor="start" x="207" y="-512.5" font-family="Helvetica,sans-Serif" font-size="10.00"># newseed()</text>
</a>
</g>
</g>
<!-- Node5&#45;&gt;Node2 -->
<g id="edge4" class="edge"><title>Node5&#45;&gt;Node2</title>
<path fill="none" stroke="#404040" d="M257,-505.128C257,-487.901 257,-469.877 257,-452.16"/>
<polygon fill="none" stroke="#404040" points="257,-451.957 253,-445.957 257,-439.957 261,-445.957 257,-451.957"/>
<text text-anchor="middle" x="277" y="-461.5" font-family="Helvetica,sans-Serif" font-size="10.00"> #_model</text>
</g>
<!-- Node6 -->
<g id="node6" class="node"><title>Node6</title>
<g id="a_node6"><a xlink:href="structarma_1_1Grid.html" target="_top" xlink:title="{arma::Grid\&lt; T, 3 \&gt;\n|&#45; _npoints\l&#45; _length\l|+ Grid()\l+ Grid()\l+ Grid()\l+ Grid()\l+ ~Grid()\l+ num_points()\l+ num_points()\l+ size()\l+ num_patches()\l+ num_patches()\land 12 more...\l}">
<polygon fill="none" stroke="black" points="133,-798 133,-976 231,-976 231,-798 133,-798"/>
<text text-anchor="middle" x="182" y="-964" font-family="Helvetica,sans-Serif" font-size="10.00">arma::Grid&lt; T, 3 &gt;</text>
<polyline fill="none" stroke="black" points="133,-957 231,-957 "/>
<text text-anchor="start" x="141" y="-945" font-family="Helvetica,sans-Serif" font-size="10.00">&#45; _npoints</text>
<text text-anchor="start" x="141" y="-934" font-family="Helvetica,sans-Serif" font-size="10.00">&#45; _length</text>
<polyline fill="none" stroke="black" points="133,-927 231,-927 "/>
<text text-anchor="start" x="141" y="-915" font-family="Helvetica,sans-Serif" font-size="10.00">+ Grid()</text>
<text text-anchor="start" x="141" y="-904" font-family="Helvetica,sans-Serif" font-size="10.00">+ Grid()</text>
<text text-anchor="start" x="141" y="-893" font-family="Helvetica,sans-Serif" font-size="10.00">+ Grid()</text>
<text text-anchor="start" x="141" y="-882" font-family="Helvetica,sans-Serif" font-size="10.00">+ Grid()</text>
<text text-anchor="start" x="141" y="-871" font-family="Helvetica,sans-Serif" font-size="10.00">+ ~Grid()</text>
<text text-anchor="start" x="141" y="-860" font-family="Helvetica,sans-Serif" font-size="10.00">+ num_points()</text>
<text text-anchor="start" x="141" y="-849" font-family="Helvetica,sans-Serif" font-size="10.00">+ num_points()</text>
<text text-anchor="start" x="141" y="-838" font-family="Helvetica,sans-Serif" font-size="10.00">+ size()</text>
<text text-anchor="start" x="141" y="-827" font-family="Helvetica,sans-Serif" font-size="10.00">+ num_patches()</text>
<text text-anchor="start" x="141" y="-816" font-family="Helvetica,sans-Serif" font-size="10.00">+ num_patches()</text>
<text text-anchor="start" x="141" y="-805" font-family="Helvetica,sans-Serif" font-size="10.00">and 12 more...</text>
</a>
</g>
</g>
<!-- Node6&#45;&gt;Node5 -->
<g id="edge5" class="edge"><title>Node6&#45;&gt;Node5</title>
<path fill="none" stroke="#404040" d="M206.143,-797.796C212.188,-775.714 218.765,-751.686 225.121,-728.464"/>
<polygon fill="none" stroke="#404040" points="225.152,-728.35 222.878,-721.507 228.321,-716.776 230.594,-723.619 225.152,-728.35"/>
<text text-anchor="middle" x="239.5" y="-760.5" font-family="Helvetica,sans-Serif" font-size="10.00"> #_outgrid</text>
</g>
<!-- Node7 -->
<g id="node7" class="node"><title>Node7</title>
<g id="a_node7"><a xlink:href="classarma_1_1Output__flags.html" target="_top" xlink:title="Flags that determine what and how is written to disk. ">
<polygon fill="none" stroke="black" points="249,-836.5 249,-937.5 349,-937.5 349,-836.5 249,-836.5"/>
<text text-anchor="middle" x="299" y="-925.5" font-family="Helvetica,sans-Serif" font-size="10.00">arma::Output_flags</text>
<polyline fill="none" stroke="black" points="249,-918.5 349,-918.5 "/>
<text text-anchor="start" x="257" y="-906.5" font-family="Helvetica,sans-Serif" font-size="10.00">&#45; _flags</text>
<polyline fill="none" stroke="black" points="249,-899.5 349,-899.5 "/>
<text text-anchor="start" x="257" y="-887.5" font-family="Helvetica,sans-Serif" font-size="10.00">+ setf()</text>
<text text-anchor="start" x="257" y="-876.5" font-family="Helvetica,sans-Serif" font-size="10.00">+ isset()</text>
<text text-anchor="start" x="257" y="-865.5" font-family="Helvetica,sans-Serif" font-size="10.00">+ operator==()</text>
<text text-anchor="start" x="257" y="-854.5" font-family="Helvetica,sans-Serif" font-size="10.00">+ operator!=()</text>
<text text-anchor="start" x="257" y="-843.5" font-family="Helvetica,sans-Serif" font-size="10.00">&#45; prune()</text>
</a>
</g>
</g>
<!-- Node7&#45;&gt;Node5 -->
<g id="edge6" class="edge"><title>Node7&#45;&gt;Node5</title>
<path fill="none" stroke="#404040" d="M291.394,-836.381C286.776,-806.253 280.675,-766.45 274.894,-728.74"/>
<polygon fill="none" stroke="#404040" points="274.85,-728.447 269.987,-723.122 273.031,-716.585 277.894,-721.91 274.85,-728.447"/>
<text text-anchor="middle" x="302" y="-760.5" font-family="Helvetica,sans-Serif" font-size="10.00"> #_oflags</text>
</g>
<!-- Node8 -->
<g id="node8" class="node"><title>Node8</title>
<g id="a_node8"><a xlink:href="classarma_1_1Discrete__function.html" target="_top" xlink:title="{arma::Discrete_function\l\&lt; T, 3 \&gt;\n|&#45; _grid\l|+ grid()\l+ setgrid()\l+ operator=()\l}">
<polygon fill="none" stroke="black" points="350.5,-566 350.5,-656 471.5,-656 471.5,-566 350.5,-566"/>
<text text-anchor="start" x="358.5" y="-644" font-family="Helvetica,sans-Serif" font-size="10.00">arma::Discrete_function</text>
<text text-anchor="middle" x="411" y="-633" font-family="Helvetica,sans-Serif" font-size="10.00">&lt; T, 3 &gt;</text>
<polyline fill="none" stroke="black" points="350.5,-626 471.5,-626 "/>
<text text-anchor="start" x="358.5" y="-614" font-family="Helvetica,sans-Serif" font-size="10.00">&#45; _grid</text>
<polyline fill="none" stroke="black" points="350.5,-607 471.5,-607 "/>
<text text-anchor="start" x="358.5" y="-595" font-family="Helvetica,sans-Serif" font-size="10.00">+ grid()</text>
<text text-anchor="start" x="358.5" y="-584" font-family="Helvetica,sans-Serif" font-size="10.00">+ setgrid()</text>
<text text-anchor="start" x="358.5" y="-573" font-family="Helvetica,sans-Serif" font-size="10.00">+ operator=()</text>
</a>
</g>
</g>
<!-- Node8&#45;&gt;Node2 -->
<g id="edge7" class="edge"><title>Node8&#45;&gt;Node2</title>
<path fill="none" stroke="#404040" d="M387.275,-565.939C370.588,-534.949 347.353,-491.798 325.119,-450.506"/>
<polygon fill="none" stroke="#404040" points="325.03,-450.34 318.663,-446.954 319.34,-439.775 325.707,-443.161 325.03,-450.34"/>
<text text-anchor="middle" x="350.5" y="-461.5" font-family="Helvetica,sans-Serif" font-size="10.00"> #_zeta</text>
</g>
<!-- Node9 -->
<g id="node9" class="node"><title>Node9</title>
<polygon fill="none" stroke="#bfbfbf" points="367.5,-858.5 367.5,-915.5 472.5,-915.5 472.5,-858.5 367.5,-858.5"/>
<text text-anchor="middle" x="420" y="-903.5" font-family="Helvetica,sans-Serif" font-size="10.00">arma::Array&lt; T, N &gt;</text>
<polyline fill="none" stroke="#bfbfbf" points="367.5,-896.5 472.5,-896.5 "/>
<text text-anchor="middle" x="420" y="-884.5" font-family="Helvetica,sans-Serif" font-size="10.00"> </text>
<polyline fill="none" stroke="#bfbfbf" points="367.5,-877.5 472.5,-877.5 "/>
<text text-anchor="middle" x="420" y="-865.5" font-family="Helvetica,sans-Serif" font-size="10.00"> </text>
</g>
<!-- Node9&#45;&gt;Node8 -->
<g id="edge8" class="edge"><title>Node9&#45;&gt;Node8</title>
<path fill="none" stroke="midnightblue" d="M418.764,-848.373C417.115,-798.174 414.201,-709.448 412.45,-656.145"/>
<polygon fill="none" stroke="midnightblue" points="415.269,-848.594 419.096,-858.473 422.266,-848.364 415.269,-848.594"/>
</g>
</g>
</svg>
