<?xml version="1.0" encoding="UTF-8" standalone="no"?>
<!DOCTYPE svg PUBLIC "-//W3C//DTD SVG 1.1//EN"
 "http://www.w3.org/Graphics/SVG/1.1/DTD/svg11.dtd">
<!-- Generated by graphviz version 2.36.0 (20140111.2315)
 -->
<!-- Title: /home/travis/build/igankevich/arma/src/apmath/closed_interval.cc Pages: 1 -->
<svg width="290pt" height="162pt"
 viewBox="0.00 0.00 290.00 162.00" xmlns="http://www.w3.org/2000/svg" xmlns:xlink="http://www.w3.org/1999/xlink">
<g id="graph0" class="graph" transform="scale(1 1) rotate(0) translate(4 158)">
<title>/home/travis/build/igankevich/arma/src/apmath/closed_interval.cc</title>
<!-- Node1 -->
<g id="node1" class="node"><title>Node1</title>
<polygon fill="#bfbfbf" stroke="black" points="95,-112.5 95,-153.5 229,-153.5 229,-112.5 95,-112.5"/>
<text text-anchor="start" x="103" y="-141.5" font-family="Helvetica,sans-Serif" font-size="10.00">/home/travis/build</text>
<text text-anchor="start" x="103" y="-130.5" font-family="Helvetica,sans-Serif" font-size="10.00">/igankevich/arma/src</text>
<text text-anchor="middle" x="162" y="-119.5" font-family="Helvetica,sans-Serif" font-size="10.00">/apmath/closed_interval.cc</text>
</g>
<!-- Node2 -->
<g id="node2" class="node"><title>Node2</title>
<g id="a_node2"><a xlink:href="closed__interval_8hh.html" target="_top" xlink:title="closed_interval.hh">
<polygon fill="none" stroke="black" points="114.5,-56.5 114.5,-75.5 209.5,-75.5 209.5,-56.5 114.5,-56.5"/>
<text text-anchor="middle" x="162" y="-63.5" font-family="Helvetica,sans-Serif" font-size="10.00">closed_interval.hh</text>
</a>
</g>
</g>
<!-- Node1&#45;&gt;Node2 -->
<g id="edge1" class="edge"><title>Node1&#45;&gt;Node2</title>
<path fill="none" stroke="midnightblue" d="M162,-112.498C162,-104.065 162,-94.2351 162,-85.874"/>
<polygon fill="midnightblue" stroke="midnightblue" points="165.5,-85.6525 162,-75.6525 158.5,-85.6525 165.5,-85.6525"/>
</g>
<!-- Node6 -->
<g id="node6" class="node"><title>Node6</title>
<g id="a_node6"><a xlink:href="const__char_8hh.html" target="_top" xlink:title="bits/const_char.hh">
<polygon fill="none" stroke="black" points="-0.5,-56.5 -0.5,-75.5 96.5,-75.5 96.5,-56.5 -0.5,-56.5"/>
<text text-anchor="middle" x="48" y="-63.5" font-family="Helvetica,sans-Serif" font-size="10.00">bits/const_char.hh</text>
</a>
</g>
</g>
<!-- Node1&#45;&gt;Node6 -->
<g id="edge5" class="edge"><title>Node1&#45;&gt;Node6</title>
<path fill="none" stroke="midnightblue" d="M127.796,-112.498C109.814,-102.245 88.207,-89.925 72.0148,-80.6927"/>
<polygon fill="midnightblue" stroke="midnightblue" points="73.5959,-77.5652 63.1751,-75.6525 70.1286,-83.6462 73.5959,-77.5652"/>
</g>
<!-- Node7 -->
<g id="node7" class="node"><title>Node7</title>
<polygon fill="none" stroke="#bfbfbf" points="228,-56.5 228,-75.5 282,-75.5 282,-56.5 228,-56.5"/>
<text text-anchor="middle" x="255" y="-63.5" font-family="Helvetica,sans-Serif" font-size="10.00">iostream</text>
</g>
<!-- Node1&#45;&gt;Node7 -->
<g id="edge7" class="edge"><title>Node1&#45;&gt;Node7</title>
<path fill="none" stroke="midnightblue" d="M189.903,-112.498C204.162,-102.532 221.213,-90.6142 234.288,-81.4764"/>
<polygon fill="midnightblue" stroke="midnightblue" points="236.429,-84.25 242.62,-75.6525 232.419,-78.5125 236.429,-84.25"/>
</g>
<!-- Node3 -->
<g id="node3" class="node"><title>Node3</title>
<polygon fill="none" stroke="#bfbfbf" points="45.5,-0.5 45.5,-19.5 94.5,-19.5 94.5,-0.5 45.5,-0.5"/>
<text text-anchor="middle" x="70" y="-7.5" font-family="Helvetica,sans-Serif" font-size="10.00">istream</text>
</g>
<!-- Node2&#45;&gt;Node3 -->
<g id="edge2" class="edge"><title>Node2&#45;&gt;Node3</title>
<path fill="none" stroke="midnightblue" d="M147.219,-56.324C132.733,-47.8215 110.427,-34.7288 93.5068,-24.7975"/>
<polygon fill="midnightblue" stroke="midnightblue" points="95.1406,-21.6981 84.7447,-19.6545 91.5972,-27.735 95.1406,-21.6981"/>
</g>
<!-- Node4 -->
<g id="node4" class="node"><title>Node4</title>
<polygon fill="none" stroke="#bfbfbf" points="124,-0.5 124,-19.5 176,-19.5 176,-0.5 124,-0.5"/>
<text text-anchor="middle" x="150" y="-7.5" font-family="Helvetica,sans-Serif" font-size="10.00">ostream</text>
</g>
<!-- Node2&#45;&gt;Node4 -->
<g id="edge3" class="edge"><title>Node2&#45;&gt;Node4</title>
<path fill="none" stroke="midnightblue" d="M160.018,-56.083C158.428,-48.9272 156.141,-38.6353 154.154,-29.6911"/>
<polygon fill="midnightblue" stroke="midnightblue" points="157.531,-28.7537 151.945,-19.7511 150.697,-30.2722 157.531,-28.7537"/>
</g>
<!-- Node5 -->
<g id="node5" class="node"><title>Node5</title>
<polygon fill="none" stroke="#bfbfbf" points="194,-0.5 194,-19.5 238,-19.5 238,-0.5 194,-0.5"/>
<text text-anchor="middle" x="216" y="-7.5" font-family="Helvetica,sans-Serif" font-size="10.00">cmath</text>
</g>
<!-- Node2&#45;&gt;Node5 -->
<g id="edge4" class="edge"><title>Node2&#45;&gt;Node5</title>
<path fill="none" stroke="midnightblue" d="M170.917,-56.083C178.78,-48.2195 190.431,-36.5688 199.919,-27.0813"/>
<polygon fill="midnightblue" stroke="midnightblue" points="202.653,-29.2971 207.249,-19.7511 197.703,-24.3473 202.653,-29.2971"/>
</g>
<!-- Node6&#45;&gt;Node3 -->
<g id="edge6" class="edge"><title>Node6&#45;&gt;Node3</title>
<path fill="none" stroke="midnightblue" d="M51.6329,-56.083C54.6122,-48.77 58.9261,-38.1814 62.6245,-29.1034"/>
<polygon fill="midnightblue" stroke="midnightblue" points="65.903,-30.3326 66.4347,-19.7511 59.4204,-27.6914 65.903,-30.3326"/>
</g>
</g>
</svg>
