<?xml version="1.0" encoding="UTF-8" standalone="no"?>
<!DOCTYPE svg PUBLIC "-//W3C//DTD SVG 1.1//EN"
 "http://www.w3.org/Graphics/SVG/1.1/DTD/svg11.dtd">
<!-- Generated by graphviz version 2.40.1 (20161225.0304)
 -->
<!-- Title: src/apmath/convolution.hh Pages: 1 -->
<svg width="756pt" height="263pt"
 viewBox="0.00 0.00 755.50 263.00" xmlns="http://www.w3.org/2000/svg" xmlns:xlink="http://www.w3.org/1999/xlink">
<g id="graph0" class="graph" transform="scale(1 1) rotate(0) translate(4 259)">
<title>src/apmath/convolution.hh</title>
<!-- Node0 -->
<g id="node1" class="node">
<title>Node0</title>
<polygon fill="#bfbfbf" stroke="#000000" points="522,-235.5 522,-254.5 653,-254.5 653,-235.5 522,-235.5"/>
<text text-anchor="middle" x="587.5" y="-242.5" font-family="Helvetica,sans-Serif" font-size="10.00" fill="#000000">src/apmath/convolution.hh</text>
</g>
<!-- Node1 -->
<g id="node2" class="node">
<title>Node1</title>
<g id="a_node2"><a xlink:href="fourier_8hh.html" target="_top" xlink:title="fourier.hh">
<polygon fill="none" stroke="#000000" points="371.5,-179.5 371.5,-198.5 427.5,-198.5 427.5,-179.5 371.5,-179.5"/>
<text text-anchor="middle" x="399.5" y="-186.5" font-family="Helvetica,sans-Serif" font-size="10.00" fill="#000000">fourier.hh</text>
</a>
</g>
</g>
<!-- Node0&#45;&gt;Node1 -->
<g id="edge1" class="edge">
<title>Node0&#45;&gt;Node1</title>
<path fill="none" stroke="#191970" d="M555.1816,-235.3733C522.5028,-225.6391 472.017,-210.6008 437.4544,-200.3056"/>
<polygon fill="#191970" stroke="#191970" points="438.3001,-196.9055 427.717,-197.4051 436.3017,-203.6143 438.3001,-196.9055"/>
</g>
<!-- Node12 -->
<g id="node13" class="node">
<title>Node12</title>
<g id="a_node13"><a xlink:href="blitz_8hh.html" target="_top" xlink:title="blitz.hh">
<polygon fill="none" stroke="#000000" points="511.5,-179.5 511.5,-198.5 559.5,-198.5 559.5,-179.5 511.5,-179.5"/>
<text text-anchor="middle" x="535.5" y="-186.5" font-family="Helvetica,sans-Serif" font-size="10.00" fill="#000000">blitz.hh</text>
</a>
</g>
</g>
<!-- Node0&#45;&gt;Node12 -->
<g id="edge12" class="edge">
<title>Node0&#45;&gt;Node12</title>
<path fill="none" stroke="#191970" d="M578.4423,-235.2455C570.9858,-227.2155 560.2366,-215.6394 551.3583,-206.0781"/>
<polygon fill="#191970" stroke="#191970" points="553.8232,-203.589 544.4539,-198.6427 548.6937,-208.3522 553.8232,-203.589"/>
</g>
<!-- Node15 -->
<g id="node16" class="node">
<title>Node15</title>
<g id="a_node16"><a xlink:href="index_8hh.html" target="_top" xlink:title="bits/index.hh">
<polygon fill="none" stroke="#000000" points="643.5,-123.5 643.5,-142.5 715.5,-142.5 715.5,-123.5 643.5,-123.5"/>
<text text-anchor="middle" x="679.5" y="-130.5" font-family="Helvetica,sans-Serif" font-size="10.00" fill="#000000">bits/index.hh</text>
</a>
</g>
</g>
<!-- Node0&#45;&gt;Node15 -->
<g id="edge16" class="edge">
<title>Node0&#45;&gt;Node15</title>
<path fill="none" stroke="#191970" d="M588.1658,-235.0781C589.5448,-221.2481 593.7502,-195.9678 606.5,-179 612.822,-170.5865 634.1952,-157.5514 652.1931,-147.5023"/>
<polygon fill="#191970" stroke="#191970" points="654.1167,-150.4391 661.1996,-142.5598 650.7491,-144.3024 654.1167,-150.4391"/>
</g>
<!-- Node16 -->
<g id="node17" class="node">
<title>Node16</title>
<polygon fill="none" stroke="#bfbfbf" points="616,-179.5 616,-198.5 675,-198.5 675,-179.5 616,-179.5"/>
<text text-anchor="middle" x="645.5" y="-186.5" font-family="Helvetica,sans-Serif" font-size="10.00" fill="#000000">stdexcept</text>
</g>
<!-- Node0&#45;&gt;Node16 -->
<g id="edge18" class="edge">
<title>Node0&#45;&gt;Node16</title>
<path fill="none" stroke="#191970" d="M597.6028,-235.2455C606.0028,-227.1352 618.1494,-215.4075 628.1084,-205.7919"/>
<polygon fill="#191970" stroke="#191970" points="630.75,-208.1066 635.5129,-198.6427 625.8878,-203.0707 630.75,-208.1066"/>
</g>
<!-- Node17 -->
<g id="node18" class="node">
<title>Node17</title>
<polygon fill="none" stroke="#bfbfbf" points="693.5,-179.5 693.5,-198.5 747.5,-198.5 747.5,-179.5 693.5,-179.5"/>
<text text-anchor="middle" x="720.5" y="-186.5" font-family="Helvetica,sans-Serif" font-size="10.00" fill="#000000">iostream</text>
</g>
<!-- Node0&#45;&gt;Node17 -->
<g id="edge19" class="edge">
<title>Node0&#45;&gt;Node17</title>
<path fill="none" stroke="#191970" d="M610.3635,-235.3733C631.905,-226.3032 664.3838,-212.6279 688.4956,-202.4755"/>
<polygon fill="#191970" stroke="#191970" points="690.0767,-205.6075 697.9348,-198.5011 687.3603,-199.156 690.0767,-205.6075"/>
</g>
<!-- Node2 -->
<g id="node3" class="node">
<title>Node2</title>
<g id="a_node3"><a xlink:href="apmath_2fourier__gsl_8hh.html" target="_top" xlink:title="apmath/fourier_gsl.hh">
<polygon fill="none" stroke="#000000" points="211.5,-123.5 211.5,-142.5 321.5,-142.5 321.5,-123.5 211.5,-123.5"/>
<text text-anchor="middle" x="266.5" y="-130.5" font-family="Helvetica,sans-Serif" font-size="10.00" fill="#000000">apmath/fourier_gsl.hh</text>
</a>
</g>
</g>
<!-- Node1&#45;&gt;Node2 -->
<g id="edge2" class="edge">
<title>Node1&#45;&gt;Node2</title>
<path fill="none" stroke="#191970" d="M376.6365,-179.3733C355.095,-170.3032 322.6162,-156.6279 298.5044,-146.4755"/>
<polygon fill="#191970" stroke="#191970" points="299.6397,-143.156 289.0652,-142.5011 296.9233,-149.6075 299.6397,-143.156"/>
</g>
<!-- Node3 -->
<g id="node4" class="node">
<title>Node3</title>
<polygon fill="none" stroke="#bfbfbf" points="0,-67.5 0,-86.5 53,-86.5 53,-67.5 0,-67.5"/>
<text text-anchor="middle" x="26.5" y="-74.5" font-family="Helvetica,sans-Serif" font-size="10.00" fill="#000000">complex</text>
</g>
<!-- Node2&#45;&gt;Node3 -->
<g id="edge3" class="edge">
<title>Node2&#45;&gt;Node3</title>
<path fill="none" stroke="#191970" d="M221.3777,-123.4919C182.125,-115.0711 123.4877,-102.1342 63.2667,-87.1028"/>
<polygon fill="#191970" stroke="#191970" points="63.749,-83.6152 53.1976,-84.5733 62.0435,-90.4043 63.749,-83.6152"/>
</g>
<!-- Node4 -->
<g id="node5" class="node">
<title>Node4</title>
<polygon fill="none" stroke="#bfbfbf" points="71.5,-67.5 71.5,-86.5 115.5,-86.5 115.5,-67.5 71.5,-67.5"/>
<text text-anchor="middle" x="93.5" y="-74.5" font-family="Helvetica,sans-Serif" font-size="10.00" fill="#000000">vector</text>
</g>
<!-- Node2&#45;&gt;Node4 -->
<g id="edge4" class="edge">
<title>Node2&#45;&gt;Node4</title>
<path fill="none" stroke="#191970" d="M236.7602,-123.3733C205.7265,-113.3276 157.2409,-97.6329 125.4188,-87.3321"/>
<polygon fill="#191970" stroke="#191970" points="126.3076,-83.941 115.7157,-84.1912 124.1518,-90.6008 126.3076,-83.941"/>
</g>
<!-- Node5 -->
<g id="node6" class="node">
<title>Node5</title>
<g id="a_node6"><a xlink:href="fourier__direction_8hh.html" target="_top" xlink:title="apmath/fourier_direction.hh">
<polygon fill="none" stroke="#000000" points="133.5,-67.5 133.5,-86.5 267.5,-86.5 267.5,-67.5 133.5,-67.5"/>
<text text-anchor="middle" x="200.5" y="-74.5" font-family="Helvetica,sans-Serif" font-size="10.00" fill="#000000">apmath/fourier_direction.hh</text>
</a>
</g>
</g>
<!-- Node2&#45;&gt;Node5 -->
<g id="edge5" class="edge">
<title>Node2&#45;&gt;Node5</title>
<path fill="none" stroke="#191970" d="M255.0037,-123.2455C245.2558,-114.9746 231.0741,-102.9416 219.6202,-93.2232"/>
<polygon fill="#191970" stroke="#191970" points="221.7541,-90.4437 211.8646,-86.6427 217.2253,-95.7813 221.7541,-90.4437"/>
</g>
<!-- Node6 -->
<g id="node7" class="node">
<title>Node6</title>
<g id="a_node7"><a xlink:href="bits_2fourier__gsl_8hh.html" target="_top" xlink:title="bits/fourier_gsl.hh">
<polygon fill="none" stroke="#000000" points="285.5,-67.5 285.5,-86.5 379.5,-86.5 379.5,-67.5 285.5,-67.5"/>
<text text-anchor="middle" x="332.5" y="-74.5" font-family="Helvetica,sans-Serif" font-size="10.00" fill="#000000">bits/fourier_gsl.hh</text>
</a>
</g>
</g>
<!-- Node2&#45;&gt;Node6 -->
<g id="edge6" class="edge">
<title>Node2&#45;&gt;Node6</title>
<path fill="none" stroke="#191970" d="M277.9963,-123.2455C287.7442,-114.9746 301.9259,-102.9416 313.3798,-93.2232"/>
<polygon fill="#191970" stroke="#191970" points="315.7747,-95.7813 321.1354,-86.6427 311.2459,-90.4437 315.7747,-95.7813"/>
</g>
<!-- Node10 -->
<g id="node11" class="node">
<title>Node10</title>
<g id="a_node11"><a xlink:href="types_8hh.html" target="_top" xlink:title="types.hh">
<polygon fill="none" stroke="#000000" points="397.5,-67.5 397.5,-86.5 451.5,-86.5 451.5,-67.5 397.5,-67.5"/>
<text text-anchor="middle" x="424.5" y="-74.5" font-family="Helvetica,sans-Serif" font-size="10.00" fill="#000000">types.hh</text>
</a>
</g>
</g>
<!-- Node2&#45;&gt;Node10 -->
<g id="edge10" class="edge">
<title>Node2&#45;&gt;Node10</title>
<path fill="none" stroke="#191970" d="M293.6612,-123.3733C319.7067,-114.1419 359.2116,-100.1402 387.9979,-89.9375"/>
<polygon fill="#191970" stroke="#191970" points="389.437,-93.1408 397.6933,-86.5011 387.0985,-86.5429 389.437,-93.1408"/>
</g>
<!-- Node7 -->
<g id="node8" class="node">
<title>Node7</title>
<polygon fill="none" stroke="#bfbfbf" points="137,-6 137,-25 246,-25 246,-6 137,-6"/>
<text text-anchor="middle" x="191.5" y="-13" font-family="Helvetica,sans-Serif" font-size="10.00" fill="#000000">gsl/gsl_fft_complex.h</text>
</g>
<!-- Node6&#45;&gt;Node7 -->
<g id="edge7" class="edge">
<title>Node6&#45;&gt;Node7</title>
<path fill="none" stroke="#191970" d="M310.4688,-67.3906C286.8769,-57.1005 249.2499,-40.6888 222.6367,-29.0809"/>
<polygon fill="#191970" stroke="#191970" points="223.9419,-25.8318 213.3765,-25.0419 221.1433,-32.248 223.9419,-25.8318"/>
</g>
<!-- Node8 -->
<g id="node9" class="node">
<title>Node8</title>
<polygon fill="none" stroke="#bfbfbf" points="264,-.5 264,-30.5 365,-30.5 365,-.5 264,-.5"/>
<text text-anchor="start" x="272" y="-18.5" font-family="Helvetica,sans-Serif" font-size="10.00" fill="#000000">gsl/gsl_fft_complex</text>
<text text-anchor="middle" x="314.5" y="-7.5" font-family="Helvetica,sans-Serif" font-size="10.00" fill="#000000">_float.h</text>
</g>
<!-- Node6&#45;&gt;Node8 -->
<g id="edge8" class="edge">
<title>Node6&#45;&gt;Node8</title>
<path fill="none" stroke="#191970" d="M329.6875,-67.3906C327.5672,-60.1463 324.5589,-49.8679 321.7783,-40.3676"/>
<polygon fill="#191970" stroke="#191970" points="325.0714,-39.1588 318.9033,-30.5446 318.3533,-41.1251 325.0714,-39.1588"/>
</g>
<!-- Node9 -->
<g id="node10" class="node">
<title>Node9</title>
<polygon fill="none" stroke="#bfbfbf" points="383.5,-6 383.5,-25 445.5,-25 445.5,-6 383.5,-6"/>
<text text-anchor="middle" x="414.5" y="-13" font-family="Helvetica,sans-Serif" font-size="10.00" fill="#000000">type_traits</text>
</g>
<!-- Node6&#45;&gt;Node9 -->
<g id="edge9" class="edge">
<title>Node6&#45;&gt;Node9</title>
<path fill="none" stroke="#191970" d="M345.3125,-67.3906C358.1901,-57.7324 378.2584,-42.6812 393.472,-31.271"/>
<polygon fill="#191970" stroke="#191970" points="395.8775,-33.8419 401.7775,-25.0419 391.6774,-28.2419 395.8775,-33.8419"/>
</g>
<!-- Node11 -->
<g id="node12" class="node">
<title>Node11</title>
<polygon fill="none" stroke="#bfbfbf" points="464,-6 464,-25 531,-25 531,-6 464,-6"/>
<text text-anchor="middle" x="497.5" y="-13" font-family="Helvetica,sans-Serif" font-size="10.00" fill="#000000">blitz/array.h</text>
</g>
<!-- Node10&#45;&gt;Node11 -->
<g id="edge11" class="edge">
<title>Node10&#45;&gt;Node11</title>
<path fill="none" stroke="#191970" d="M435.9063,-67.3906C447.1969,-57.8786 464.6967,-43.1357 478.1619,-31.7917"/>
<polygon fill="#191970" stroke="#191970" points="480.5402,-34.3646 485.9329,-25.2449 476.0301,-29.0111 480.5402,-34.3646"/>
</g>
<!-- Node12&#45;&gt;Node11 -->
<g id="edge14" class="edge">
<title>Node12&#45;&gt;Node11</title>
<path fill="none" stroke="#191970" d="M524.379,-179.3189C515.48,-170.784 503.6647,-157.4799 498.5,-143 485.544,-106.6762 489.759,-60.7421 493.7743,-35.1011"/>
<polygon fill="#191970" stroke="#191970" points="497.2404,-35.5967 495.4875,-25.1479 490.3419,-34.4093 497.2404,-35.5967"/>
</g>
<!-- Node13 -->
<g id="node14" class="node">
<title>Node13</title>
<polygon fill="none" stroke="#bfbfbf" points="507.5,-123.5 507.5,-142.5 563.5,-142.5 563.5,-123.5 507.5,-123.5"/>
<text text-anchor="middle" x="535.5" y="-130.5" font-family="Helvetica,sans-Serif" font-size="10.00" fill="#000000">algorithm</text>
</g>
<!-- Node12&#45;&gt;Node13 -->
<g id="edge13" class="edge">
<title>Node12&#45;&gt;Node13</title>
<path fill="none" stroke="#191970" d="M535.5,-179.2455C535.5,-171.9382 535.5,-161.6944 535.5,-152.7046"/>
<polygon fill="#191970" stroke="#191970" points="539.0001,-152.6426 535.5,-142.6427 532.0001,-152.6427 539.0001,-152.6426"/>
</g>
<!-- Node14 -->
<g id="node15" class="node">
<title>Node14</title>
<polygon fill="none" stroke="#bfbfbf" points="581.5,-123.5 581.5,-142.5 625.5,-142.5 625.5,-123.5 581.5,-123.5"/>
<text text-anchor="middle" x="603.5" y="-130.5" font-family="Helvetica,sans-Serif" font-size="10.00" fill="#000000">cmath</text>
</g>
<!-- Node12&#45;&gt;Node14 -->
<g id="edge15" class="edge">
<title>Node12&#45;&gt;Node14</title>
<path fill="none" stroke="#191970" d="M547.3447,-179.2455C557.388,-170.9746 571.9995,-158.9416 583.8004,-149.2232"/>
<polygon fill="#191970" stroke="#191970" points="586.2967,-151.7015 591.791,-142.6427 581.8467,-146.298 586.2967,-151.7015"/>
</g>
<!-- Node15&#45;&gt;Node11 -->
<g id="edge17" class="edge">
<title>Node15&#45;&gt;Node11</title>
<path fill="none" stroke="#191970" d="M664.6062,-123.3845C633.0659,-103.0219 559.3133,-55.4069 521.2148,-30.8104"/>
<polygon fill="#191970" stroke="#191970" points="522.644,-27.5671 512.3444,-25.0836 518.8473,-33.448 522.644,-27.5671"/>
</g>
</g>
</svg>
