<?xml version="1.0" encoding="UTF-8" standalone="no"?>
<!DOCTYPE svg PUBLIC "-//W3C//DTD SVG 1.1//EN"
 "http://www.w3.org/Graphics/SVG/1.1/DTD/svg11.dtd">
<!-- Generated by graphviz version 2.36.0 (20140111.2315)
 -->
<!-- Title: /home/travis/build/igankevich/arma/src/velocity/delaunay_interpolation.hh Pages: 1 -->
<svg width="865pt" height="128pt"
 viewBox="0.00 0.00 865.00 128.00" xmlns="http://www.w3.org/2000/svg" xmlns:xlink="http://www.w3.org/1999/xlink">
<g id="graph0" class="graph" transform="scale(1 1) rotate(0) translate(4 124)">
<title>/home/travis/build/igankevich/arma/src/velocity/delaunay_interpolation.hh</title>
<!-- Node1 -->
<g id="node1" class="node"><title>Node1</title>
<polygon fill="#bfbfbf" stroke="black" points="340.5,-78.5 340.5,-119.5 507.5,-119.5 507.5,-78.5 340.5,-78.5"/>
<text text-anchor="start" x="348.5" y="-107.5" font-family="Helvetica,sans-Serif" font-size="10.00">/home/travis/build</text>
<text text-anchor="start" x="348.5" y="-96.5" font-family="Helvetica,sans-Serif" font-size="10.00">/igankevich/arma/src</text>
<text text-anchor="middle" x="424" y="-85.5" font-family="Helvetica,sans-Serif" font-size="10.00">/velocity/delaunay_interpolation.hh</text>
</g>
<!-- Node2 -->
<g id="node2" class="node"><title>Node2</title>
<polygon fill="none" stroke="#bfbfbf" points="-0.5,-11.5 -0.5,-30.5 34.5,-30.5 34.5,-11.5 -0.5,-11.5"/>
<text text-anchor="middle" x="17" y="-18.5" font-family="Helvetica,sans-Serif" font-size="10.00">map</text>
</g>
<!-- Node1&#45;&gt;Node2 -->
<g id="edge1" class="edge"><title>Node1&#45;&gt;Node2</title>
<path fill="none" stroke="midnightblue" d="M340.497,-97.279C261.373,-93.9545 140.602,-81.9272 44,-42 40.7653,-40.6631 37.5638,-38.8542 34.5575,-36.868"/>
<polygon fill="midnightblue" stroke="midnightblue" points="36.3884,-33.8665 26.2865,-30.6724 32.1917,-39.469 36.3884,-33.8665"/>
</g>
<!-- Node3 -->
<g id="node3" class="node"><title>Node3</title>
<polygon fill="none" stroke="#bfbfbf" points="53,-11.5 53,-30.5 163,-30.5 163,-11.5 53,-11.5"/>
<text text-anchor="middle" x="108" y="-18.5" font-family="Helvetica,sans-Serif" font-size="10.00">CGAL/number_utils.h</text>
</g>
<!-- Node1&#45;&gt;Node3 -->
<g id="edge2" class="edge"><title>Node1&#45;&gt;Node3</title>
<path fill="none" stroke="midnightblue" d="M340.432,-81.2738C291.165,-70.9548 227.751,-56.8774 172,-42 162.666,-39.5093 152.659,-36.5318 143.395,-33.6448"/>
<polygon fill="midnightblue" stroke="midnightblue" points="144.292,-30.2576 133.702,-30.575 142.179,-36.9309 144.292,-30.2576"/>
</g>
<!-- Node4 -->
<g id="node4" class="node"><title>Node4</title>
<polygon fill="none" stroke="#bfbfbf" points="181,-11.5 181,-30.5 345,-30.5 345,-11.5 181,-11.5"/>
<text text-anchor="middle" x="263" y="-18.5" font-family="Helvetica,sans-Serif" font-size="10.00">CGAL/Delaunay_triangulation_2.h</text>
</g>
<!-- Node1&#45;&gt;Node4 -->
<g id="edge3" class="edge"><title>Node1&#45;&gt;Node4</title>
<path fill="none" stroke="midnightblue" d="M382.538,-78.4281C353.586,-64.761 315.744,-46.8976 290.468,-34.9662"/>
<polygon fill="midnightblue" stroke="midnightblue" points="291.654,-31.6558 281.117,-30.552 288.666,-37.986 291.654,-31.6558"/>
</g>
<!-- Node5 -->
<g id="node5" class="node"><title>Node5</title>
<polygon fill="none" stroke="#bfbfbf" points="363,-0.5 363,-41.5 485,-41.5 485,-0.5 363,-0.5"/>
<text text-anchor="start" x="371" y="-29.5" font-family="Helvetica,sans-Serif" font-size="10.00">CGAL/Exact_predicates</text>
<text text-anchor="start" x="371" y="-18.5" font-family="Helvetica,sans-Serif" font-size="10.00">_inexact_constructions</text>
<text text-anchor="middle" x="424" y="-7.5" font-family="Helvetica,sans-Serif" font-size="10.00">_kernel.h</text>
</g>
<!-- Node1&#45;&gt;Node5 -->
<g id="edge4" class="edge"><title>Node1&#45;&gt;Node5</title>
<path fill="none" stroke="midnightblue" d="M424,-78.4281C424,-70.2724 424,-60.6224 424,-51.6303"/>
<polygon fill="midnightblue" stroke="midnightblue" points="427.5,-51.5055 424,-41.5056 420.5,-51.5056 427.5,-51.5055"/>
</g>
<!-- Node6 -->
<g id="node6" class="node"><title>Node6</title>
<polygon fill="none" stroke="#bfbfbf" points="503,-6 503,-36 603,-36 603,-6 503,-6"/>
<text text-anchor="start" x="511" y="-24" font-family="Helvetica,sans-Serif" font-size="10.00">CGAL/Interpolation</text>
<text text-anchor="middle" x="553" y="-13" font-family="Helvetica,sans-Serif" font-size="10.00">_traits_2.h</text>
</g>
<!-- Node1&#45;&gt;Node6 -->
<g id="edge5" class="edge"><title>Node1&#45;&gt;Node6</title>
<path fill="none" stroke="midnightblue" d="M457.221,-78.4281C476.554,-67.0377 500.835,-52.7327 520.112,-41.3759"/>
<polygon fill="midnightblue" stroke="midnightblue" points="522.015,-44.317 528.854,-36.2254 518.462,-38.2859 522.015,-44.317"/>
</g>
<!-- Node7 -->
<g id="node7" class="node"><title>Node7</title>
<polygon fill="none" stroke="#bfbfbf" points="621.5,-6 621.5,-36 720.5,-36 720.5,-6 621.5,-6"/>
<text text-anchor="start" x="629.5" y="-24" font-family="Helvetica,sans-Serif" font-size="10.00">CGAL/interpolation</text>
<text text-anchor="middle" x="671" y="-13" font-family="Helvetica,sans-Serif" font-size="10.00">_functions.h</text>
</g>
<!-- Node1&#45;&gt;Node7 -->
<g id="edge6" class="edge"><title>Node1&#45;&gt;Node7</title>
<path fill="none" stroke="midnightblue" d="M492.062,-78.3911C527.856,-67.9111 572.409,-54.6021 612,-42 614.754,-41.1235 617.575,-40.2121 620.42,-39.2826"/>
<polygon fill="midnightblue" stroke="midnightblue" points="621.724,-42.5379 630.122,-36.0773 619.528,-35.8913 621.724,-42.5379"/>
</g>
<!-- Node8 -->
<g id="node8" class="node"><title>Node8</title>
<polygon fill="none" stroke="#bfbfbf" points="739,-6 739,-36 857,-36 857,-6 739,-6"/>
<text text-anchor="start" x="747" y="-24" font-family="Helvetica,sans-Serif" font-size="10.00">CGAL/natural_neighbor</text>
<text text-anchor="middle" x="798" y="-13" font-family="Helvetica,sans-Serif" font-size="10.00">_coordinates_2.h</text>
</g>
<!-- Node1&#45;&gt;Node8 -->
<g id="edge7" class="edge"><title>Node1&#45;&gt;Node8</title>
<path fill="none" stroke="midnightblue" d="M507.643,-84.9722C569.195,-74.8211 654.729,-59.5354 729,-42 733.281,-40.9893 737.691,-39.8776 742.115,-38.7118"/>
<polygon fill="midnightblue" stroke="midnightblue" points="743.04,-42.0875 751.775,-36.0915 741.207,-35.3317 743.04,-42.0875"/>
</g>
</g>
</svg>
