<?xml version="1.0" encoding="UTF-8" standalone="no"?>
<!DOCTYPE svg PUBLIC "-//W3C//DTD SVG 1.1//EN"
 "http://www.w3.org/Graphics/SVG/1.1/DTD/svg11.dtd">
<!-- Generated by graphviz version 2.36.0 (20140111.2315)
 -->
<!-- Title: /home/travis/build/igankevich/arma/src/apmath/delaunay_interpolation.hh Pages: 1 -->
<svg width="317pt" height="230pt"
 viewBox="0.00 0.00 317.00 230.00" xmlns="http://www.w3.org/2000/svg" xmlns:xlink="http://www.w3.org/1999/xlink">
<g id="graph0" class="graph" transform="scale(1 1) rotate(0) translate(4 226)">
<title>/home/travis/build/igankevich/arma/src/apmath/delaunay_interpolation.hh</title>
<!-- Node1 -->
<g id="node1" class="node"><title>Node1</title>
<polygon fill="#bfbfbf" stroke="black" points="81.5,-180.5 81.5,-221.5 246.5,-221.5 246.5,-180.5 81.5,-180.5"/>
<text text-anchor="start" x="89.5" y="-209.5" font-family="Helvetica,sans-Serif" font-size="10.00">/home/travis/build</text>
<text text-anchor="start" x="89.5" y="-198.5" font-family="Helvetica,sans-Serif" font-size="10.00">/igankevich/arma/src</text>
<text text-anchor="middle" x="164" y="-187.5" font-family="Helvetica,sans-Serif" font-size="10.00">/apmath/delaunay_interpolation.hh</text>
</g>
<!-- Node2 -->
<g id="node2" class="node"><title>Node2</title>
<g id="a_node2"><a xlink:href="delaunay__interpolation_8cc.html" target="_top" xlink:title="/home/travis/build\l/igankevich/arma/src\l/apmath/delaunay_interpolation.cc">
<polygon fill="none" stroke="black" points="-0.5,-96.5 -0.5,-137.5 164.5,-137.5 164.5,-96.5 -0.5,-96.5"/>
<text text-anchor="start" x="7.5" y="-125.5" font-family="Helvetica,sans-Serif" font-size="10.00">/home/travis/build</text>
<text text-anchor="start" x="7.5" y="-114.5" font-family="Helvetica,sans-Serif" font-size="10.00">/igankevich/arma/src</text>
<text text-anchor="middle" x="82" y="-103.5" font-family="Helvetica,sans-Serif" font-size="10.00">/apmath/delaunay_interpolation.cc</text>
</a>
</g>
</g>
<!-- Node1&#45;&gt;Node2 -->
<g id="edge1" class="edge"><title>Node1&#45;&gt;Node2</title>
<path fill="none" stroke="midnightblue" d="M136.873,-172.873C125.369,-161.369 112.213,-148.213 101.667,-137.667"/>
<polygon fill="midnightblue" stroke="midnightblue" points="134.604,-175.554 144.15,-180.15 139.554,-170.604 134.604,-175.554"/>
</g>
<!-- Node3 -->
<g id="node3" class="node"><title>Node3</title>
<g id="a_node3"><a xlink:href="integrals_8hh.html" target="_top" xlink:title="/home/travis/build\l/igankevich/arma/src\l/velocity/small_amplitude\l_solver/integrals.hh">
<polygon fill="none" stroke="black" points="182.5,-91 182.5,-143 309.5,-143 309.5,-91 182.5,-91"/>
<text text-anchor="start" x="190.5" y="-131" font-family="Helvetica,sans-Serif" font-size="10.00">/home/travis/build</text>
<text text-anchor="start" x="190.5" y="-120" font-family="Helvetica,sans-Serif" font-size="10.00">/igankevich/arma/src</text>
<text text-anchor="start" x="190.5" y="-109" font-family="Helvetica,sans-Serif" font-size="10.00">/velocity/small_amplitude</text>
<text text-anchor="middle" x="246" y="-98" font-family="Helvetica,sans-Serif" font-size="10.00">_solver/integrals.hh</text>
</a>
</g>
</g>
<!-- Node1&#45;&gt;Node3 -->
<g id="edge2" class="edge"><title>Node1&#45;&gt;Node3</title>
<path fill="none" stroke="midnightblue" d="M191.202,-172.798C200.728,-163.272 211.378,-152.622 220.739,-143.261"/>
<polygon fill="midnightblue" stroke="midnightblue" points="188.446,-170.604 183.85,-180.15 193.396,-175.554 188.446,-170.604"/>
</g>
<!-- Node4 -->
<g id="node4" class="node"><title>Node4</title>
<g id="a_node4"><a xlink:href="small__amplitude__solver_8cc.html" target="_top" xlink:title="/home/travis/build\l/igankevich/arma/src\l/velocity/small_amplitude\l_solver.cc">
<polygon fill="none" stroke="black" points="182.5,-1 182.5,-53 309.5,-53 309.5,-1 182.5,-1"/>
<text text-anchor="start" x="190.5" y="-41" font-family="Helvetica,sans-Serif" font-size="10.00">/home/travis/build</text>
<text text-anchor="start" x="190.5" y="-30" font-family="Helvetica,sans-Serif" font-size="10.00">/igankevich/arma/src</text>
<text text-anchor="start" x="190.5" y="-19" font-family="Helvetica,sans-Serif" font-size="10.00">/velocity/small_amplitude</text>
<text text-anchor="middle" x="246" y="-8" font-family="Helvetica,sans-Serif" font-size="10.00">_solver.cc</text>
</a>
</g>
</g>
<!-- Node3&#45;&gt;Node4 -->
<g id="edge3" class="edge"><title>Node3&#45;&gt;Node4</title>
<path fill="none" stroke="midnightblue" d="M246,-80.4892C246,-71.3088 246,-61.616 246,-53.0921"/>
<polygon fill="midnightblue" stroke="midnightblue" points="242.5,-80.5467 246,-90.5468 249.5,-80.5468 242.5,-80.5467"/>
</g>
</g>
</svg>
