<?xml version="1.0" encoding="UTF-8" standalone="no"?>
<!DOCTYPE svg PUBLIC "-//W3C//DTD SVG 1.1//EN"
 "http://www.w3.org/Graphics/SVG/1.1/DTD/svg11.dtd">
<!-- Generated by graphviz version 2.40.1 (20161225.0304)
 -->
<!-- Title: src/velocity/delaunay_interpolation.hh Pages: 1 -->
<svg width="866pt" height="117pt"
 viewBox="0.00 0.00 865.50 117.00" xmlns="http://www.w3.org/2000/svg" xmlns:xlink="http://www.w3.org/1999/xlink">
<g id="graph0" class="graph" transform="scale(1 1) rotate(0) translate(4 113)">
<title>src/velocity/delaunay_interpolation.hh</title>
<!-- Node0 -->
<g id="node1" class="node">
<title>Node0</title>
<polygon fill="#bfbfbf" stroke="#000000" points="370,-78.5 370,-108.5 479,-108.5 479,-78.5 370,-78.5"/>
<text text-anchor="start" x="378" y="-96.5" font-family="Helvetica,sans-Serif" font-size="10.00" fill="#000000">src/velocity/delaunay</text>
<text text-anchor="middle" x="424.5" y="-85.5" font-family="Helvetica,sans-Serif" font-size="10.00" fill="#000000">_interpolation.hh</text>
</g>
<!-- Node1 -->
<g id="node2" class="node">
<title>Node1</title>
<polygon fill="none" stroke="#bfbfbf" points="0,-11.5 0,-30.5 35,-30.5 35,-11.5 0,-11.5"/>
<text text-anchor="middle" x="17.5" y="-18.5" font-family="Helvetica,sans-Serif" font-size="10.00" fill="#000000">map</text>
</g>
<!-- Node0&#45;&gt;Node1 -->
<g id="edge1" class="edge">
<title>Node0&#45;&gt;Node1</title>
<path fill="none" stroke="#191970" d="M369.7974,-89.6058C279.1402,-82.5685 102.039,-66.1831 44.5,-42 41.3248,-40.6655 38.2024,-38.8577 35.2719,-36.8597"/>
<polygon fill="#191970" stroke="#191970" points="37.2374,-33.9544 27.1951,-30.5775 32.9397,-39.4798 37.2374,-33.9544"/>
</g>
<!-- Node2 -->
<g id="node3" class="node">
<title>Node2</title>
<polygon fill="none" stroke="#bfbfbf" points="53.5,-11.5 53.5,-30.5 163.5,-30.5 163.5,-11.5 53.5,-11.5"/>
<text text-anchor="middle" x="108.5" y="-18.5" font-family="Helvetica,sans-Serif" font-size="10.00" fill="#000000">CGAL/number_utils.h</text>
</g>
<!-- Node0&#45;&gt;Node2 -->
<g id="edge2" class="edge">
<title>Node0&#45;&gt;Node2</title>
<path fill="none" stroke="#191970" d="M369.5118,-84.1531C318.1745,-74.9816 239.6157,-59.8055 172.5,-42 163.5486,-39.6252 154.0106,-36.71 145.1057,-33.816"/>
<polygon fill="#191970" stroke="#191970" points="145.9792,-30.4182 135.3857,-30.5876 143.7727,-37.0614 145.9792,-30.4182"/>
</g>
<!-- Node3 -->
<g id="node4" class="node">
<title>Node3</title>
<polygon fill="none" stroke="#bfbfbf" points="181.5,-11.5 181.5,-30.5 345.5,-30.5 345.5,-11.5 181.5,-11.5"/>
<text text-anchor="middle" x="263.5" y="-18.5" font-family="Helvetica,sans-Serif" font-size="10.00" fill="#000000">CGAL/Delaunay_triangulation_2.h</text>
</g>
<!-- Node0&#45;&gt;Node3 -->
<g id="edge3" class="edge">
<title>Node0&#45;&gt;Node3</title>
<path fill="none" stroke="#191970" d="M391.1407,-78.478C362.6334,-65.6408 321.9482,-47.3198 294.2258,-34.8361"/>
<polygon fill="#191970" stroke="#191970" points="295.5571,-31.5972 285.0018,-30.6825 292.6829,-37.9799 295.5571,-31.5972"/>
</g>
<!-- Node4 -->
<g id="node5" class="node">
<title>Node4</title>
<polygon fill="none" stroke="#bfbfbf" points="363.5,-.5 363.5,-41.5 485.5,-41.5 485.5,-.5 363.5,-.5"/>
<text text-anchor="start" x="371.5" y="-29.5" font-family="Helvetica,sans-Serif" font-size="10.00" fill="#000000">CGAL/Exact_predicates</text>
<text text-anchor="start" x="371.5" y="-18.5" font-family="Helvetica,sans-Serif" font-size="10.00" fill="#000000">_inexact_constructions</text>
<text text-anchor="middle" x="424.5" y="-7.5" font-family="Helvetica,sans-Serif" font-size="10.00" fill="#000000">_kernel.h</text>
</g>
<!-- Node0&#45;&gt;Node4 -->
<g id="edge4" class="edge">
<title>Node0&#45;&gt;Node4</title>
<path fill="none" stroke="#191970" d="M424.5,-78.478C424.5,-70.7032 424.5,-60.9168 424.5,-51.634"/>
<polygon fill="#191970" stroke="#191970" points="428.0001,-51.5015 424.5,-41.5015 421.0001,-51.5015 428.0001,-51.5015"/>
</g>
<!-- Node5 -->
<g id="node6" class="node">
<title>Node5</title>
<polygon fill="none" stroke="#bfbfbf" points="503.5,-6 503.5,-36 603.5,-36 603.5,-6 503.5,-6"/>
<text text-anchor="start" x="511.5" y="-24" font-family="Helvetica,sans-Serif" font-size="10.00" fill="#000000">CGAL/Interpolation</text>
<text text-anchor="middle" x="553.5" y="-13" font-family="Helvetica,sans-Serif" font-size="10.00" fill="#000000">_traits_2.h</text>
</g>
<!-- Node0&#45;&gt;Node5 -->
<g id="edge5" class="edge">
<title>Node0&#45;&gt;Node5</title>
<path fill="none" stroke="#191970" d="M451.2289,-78.478C470.5145,-67.6391 496.7563,-52.8908 517.8291,-41.0476"/>
<polygon fill="#191970" stroke="#191970" points="519.8026,-43.9534 526.8054,-36.0028 516.373,-37.8511 519.8026,-43.9534"/>
</g>
<!-- Node6 -->
<g id="node7" class="node">
<title>Node6</title>
<polygon fill="none" stroke="#bfbfbf" points="622,-6 622,-36 721,-36 721,-6 622,-6"/>
<text text-anchor="start" x="630" y="-24" font-family="Helvetica,sans-Serif" font-size="10.00" fill="#000000">CGAL/interpolation</text>
<text text-anchor="middle" x="671.5" y="-13" font-family="Helvetica,sans-Serif" font-size="10.00" fill="#000000">_functions.h</text>
</g>
<!-- Node0&#45;&gt;Node6 -->
<g id="edge6" class="edge">
<title>Node0&#45;&gt;Node6</title>
<path fill="none" stroke="#191970" d="M479.1108,-79.6907C516.7995,-69.8799 567.9496,-56.009 612.5,-42 615.2226,-41.1439 618.0072,-40.2425 620.8125,-39.3142"/>
<polygon fill="#191970" stroke="#191970" points="622.0189,-42.601 630.3698,-36.0807 619.7755,-35.9702 622.0189,-42.601"/>
</g>
<!-- Node7 -->
<g id="node8" class="node">
<title>Node7</title>
<polygon fill="none" stroke="#bfbfbf" points="739.5,-6 739.5,-36 857.5,-36 857.5,-6 739.5,-6"/>
<text text-anchor="start" x="747.5" y="-24" font-family="Helvetica,sans-Serif" font-size="10.00" fill="#000000">CGAL/natural_neighbor</text>
<text text-anchor="middle" x="798.5" y="-13" font-family="Helvetica,sans-Serif" font-size="10.00" fill="#000000">_coordinates_2.h</text>
</g>
<!-- Node0&#45;&gt;Node7 -->
<g id="edge7" class="edge">
<title>Node0&#45;&gt;Node7</title>
<path fill="none" stroke="#191970" d="M479.1071,-86.5406C540.658,-78.1811 643.4916,-62.6604 730.5,-42 734.5572,-41.0366 738.7266,-39.9622 742.908,-38.8229"/>
<polygon fill="#191970" stroke="#191970" points="743.9707,-42.1597 752.6393,-36.0682 742.064,-35.4243 743.9707,-42.1597"/>
</g>
</g>
</svg>
