<?xml version="1.0" encoding="UTF-8" standalone="no"?>
<!DOCTYPE svg PUBLIC "-//W3C//DTD SVG 1.1//EN"
 "http://www.w3.org/Graphics/SVG/1.1/DTD/svg11.dtd">
<!-- Generated by graphviz version 2.40.1 (20161225.0304)
 -->
<!-- Title: src/derivative.hh Pages: 1 -->
<svg width="534pt" height="95pt"
 viewBox="0.00 0.00 533.50 95.00" xmlns="http://www.w3.org/2000/svg" xmlns:xlink="http://www.w3.org/1999/xlink">
<g id="graph0" class="graph" transform="scale(1 1) rotate(0) translate(4 91)">
<title>src/derivative.hh</title>
<!-- Node3 -->
<g id="node1" class="node">
<title>Node3</title>
<polygon fill="#bfbfbf" stroke="#000000" points="242,-67.5 242,-86.5 331,-86.5 331,-67.5 242,-67.5"/>
<text text-anchor="middle" x="286.5" y="-74.5" font-family="Helvetica,sans-Serif" font-size="10.00" fill="#000000">src/derivative.hh</text>
</g>
<!-- Node4 -->
<g id="node2" class="node">
<title>Node4</title>
<g id="a_node2"><a xlink:href="high__amplitude__realtime__solver_8cc.html" target="_top" xlink:title="src/velocity/high_amplitude\l_realtime_solver.cc">
<polygon fill="none" stroke="#000000" points="0,-.5 0,-30.5 135,-30.5 135,-.5 0,-.5"/>
<text text-anchor="start" x="8" y="-18.5" font-family="Helvetica,sans-Serif" font-size="10.00" fill="#000000">src/velocity/high_amplitude</text>
<text text-anchor="middle" x="67.5" y="-7.5" font-family="Helvetica,sans-Serif" font-size="10.00" fill="#000000">_realtime_solver.cc</text>
</a>
</g>
</g>
<!-- Node3&#45;&gt;Node4 -->
<g id="edge1" class="edge">
<title>Node3&#45;&gt;Node4</title>
<path fill="none" stroke="#191970" d="M242.353,-64.6025C207.3567,-54.7748 158.3158,-41.0031 121.0734,-30.5446"/>
<polygon fill="#191970" stroke="#191970" points="241.7074,-68.0566 252.2813,-67.3906 243.6,-61.3173 241.7074,-68.0566"/>
</g>
<!-- Node5 -->
<g id="node3" class="node">
<title>Node5</title>
<g id="a_node3"><a xlink:href="high__amplitude__solver_8cc.html" target="_top" xlink:title="src/velocity/high_amplitude\l_solver.cc">
<polygon fill="none" stroke="#000000" points="153,-.5 153,-30.5 288,-30.5 288,-.5 153,-.5"/>
<text text-anchor="start" x="161" y="-18.5" font-family="Helvetica,sans-Serif" font-size="10.00" fill="#000000">src/velocity/high_amplitude</text>
<text text-anchor="middle" x="220.5" y="-7.5" font-family="Helvetica,sans-Serif" font-size="10.00" fill="#000000">_solver.cc</text>
</a>
</g>
</g>
<!-- Node3&#45;&gt;Node5 -->
<g id="edge2" class="edge">
<title>Node3&#45;&gt;Node5</title>
<path fill="none" stroke="#191970" d="M268.7793,-60.4875C258.7788,-51.1689 246.3759,-39.6116 236.6454,-30.5446"/>
<polygon fill="#191970" stroke="#191970" points="266.4853,-63.134 276.1875,-67.3906 271.2574,-58.0127 266.4853,-63.134"/>
</g>
<!-- Node6 -->
<g id="node4" class="node">
<title>Node6</title>
<g id="a_node4"><a xlink:href="linear__solver_8cc.html" target="_top" xlink:title="src/velocity/linear\l_solver.cc">
<polygon fill="none" stroke="#000000" points="306,-.5 306,-30.5 399,-30.5 399,-.5 306,-.5"/>
<text text-anchor="start" x="314" y="-18.5" font-family="Helvetica,sans-Serif" font-size="10.00" fill="#000000">src/velocity/linear</text>
<text text-anchor="middle" x="352.5" y="-7.5" font-family="Helvetica,sans-Serif" font-size="10.00" fill="#000000">_solver.cc</text>
</a>
</g>
</g>
<!-- Node3&#45;&gt;Node6 -->
<g id="edge3" class="edge">
<title>Node3&#45;&gt;Node6</title>
<path fill="none" stroke="#191970" d="M304.2207,-60.4875C314.2212,-51.1689 326.6241,-39.6116 336.3546,-30.5446"/>
<polygon fill="#191970" stroke="#191970" points="301.7426,-58.0127 296.8125,-67.3906 306.5147,-63.134 301.7426,-58.0127"/>
</g>
<!-- Node7 -->
<g id="node5" class="node">
<title>Node7</title>
<g id="a_node5"><a xlink:href="small__amplitude__solver_8cc.html" target="_top" xlink:title="src/velocity/small\l_amplitude_solver.cc">
<polygon fill="none" stroke="#000000" points="417.5,-.5 417.5,-30.5 525.5,-30.5 525.5,-.5 417.5,-.5"/>
<text text-anchor="start" x="425.5" y="-18.5" font-family="Helvetica,sans-Serif" font-size="10.00" fill="#000000">src/velocity/small</text>
<text text-anchor="middle" x="471.5" y="-7.5" font-family="Helvetica,sans-Serif" font-size="10.00" fill="#000000">_amplitude_solver.cc</text>
</a>
</g>
</g>
<!-- Node3&#45;&gt;Node7 -->
<g id="edge4" class="edge">
<title>Node3&#45;&gt;Node7</title>
<path fill="none" stroke="#191970" d="M324.9409,-64.221C354.4213,-54.4207 395.1885,-40.8684 426.2439,-30.5446"/>
<polygon fill="#191970" stroke="#191970" points="323.7915,-60.9147 315.4063,-67.3906 325.9998,-67.5573 323.7915,-60.9147"/>
</g>
</g>
</svg>
