<?xml version="1.0" encoding="UTF-8" standalone="no"?>
<!DOCTYPE svg PUBLIC "-//W3C//DTD SVG 1.1//EN"
 "http://www.w3.org/Graphics/SVG/1.1/DTD/svg11.dtd">
<!-- Generated by graphviz version 2.36.0 (20140111.2315)
 -->
<!-- Title: /home/travis/build/igankevich/arma/src/opencl/device_type.cc Pages: 1 -->
<svg width="419pt" height="218pt"
 viewBox="0.00 0.00 419.00 218.00" xmlns="http://www.w3.org/2000/svg" xmlns:xlink="http://www.w3.org/1999/xlink">
<g id="graph0" class="graph" transform="scale(1 1) rotate(0) translate(4 214)">
<title>/home/travis/build/igankevich/arma/src/opencl/device_type.cc</title>
<!-- Node1 -->
<g id="node1" class="node"><title>Node1</title>
<polygon fill="#bfbfbf" stroke="black" points="178.5,-168.5 178.5,-209.5 295.5,-209.5 295.5,-168.5 178.5,-168.5"/>
<text text-anchor="start" x="186.5" y="-197.5" font-family="Helvetica,sans-Serif" font-size="10.00">/home/travis/build</text>
<text text-anchor="start" x="186.5" y="-186.5" font-family="Helvetica,sans-Serif" font-size="10.00">/igankevich/arma/src</text>
<text text-anchor="middle" x="237" y="-175.5" font-family="Helvetica,sans-Serif" font-size="10.00">/opencl/device_type.cc</text>
</g>
<!-- Node2 -->
<g id="node2" class="node"><title>Node2</title>
<g id="a_node2"><a xlink:href="device__type_8hh.html" target="_top" xlink:title="device_type.hh">
<polygon fill="none" stroke="black" points="51.5,-112.5 51.5,-131.5 134.5,-131.5 134.5,-112.5 51.5,-112.5"/>
<text text-anchor="middle" x="93" y="-119.5" font-family="Helvetica,sans-Serif" font-size="10.00">device_type.hh</text>
</a>
</g>
</g>
<!-- Node1&#45;&gt;Node2 -->
<g id="edge1" class="edge"><title>Node1&#45;&gt;Node2</title>
<path fill="none" stroke="midnightblue" d="M193.795,-168.498C170.337,-157.909 141.997,-145.117 121.35,-135.797"/>
<polygon fill="midnightblue" stroke="midnightblue" points="122.723,-132.577 112.169,-131.652 119.843,-138.957 122.723,-132.577"/>
</g>
<!-- Node7 -->
<g id="node7" class="node"><title>Node7</title>
<polygon fill="none" stroke="#bfbfbf" points="152.5,-112.5 152.5,-131.5 193.5,-131.5 193.5,-112.5 152.5,-112.5"/>
<text text-anchor="middle" x="173" y="-119.5" font-family="Helvetica,sans-Serif" font-size="10.00">string</text>
</g>
<!-- Node1&#45;&gt;Node7 -->
<g id="edge6" class="edge"><title>Node1&#45;&gt;Node7</title>
<path fill="none" stroke="midnightblue" d="M217.798,-168.498C208.457,-159.011 197.375,-147.756 188.57,-138.813"/>
<polygon fill="midnightblue" stroke="midnightblue" points="191.029,-136.323 181.519,-131.652 186.041,-141.234 191.029,-136.323"/>
</g>
<!-- Node8 -->
<g id="node8" class="node"><title>Node8</title>
<polygon fill="none" stroke="#bfbfbf" points="212,-112.5 212,-131.5 262,-131.5 262,-112.5 212,-112.5"/>
<text text-anchor="middle" x="237" y="-119.5" font-family="Helvetica,sans-Serif" font-size="10.00">iomanip</text>
</g>
<!-- Node1&#45;&gt;Node8 -->
<g id="edge7" class="edge"><title>Node1&#45;&gt;Node8</title>
<path fill="none" stroke="midnightblue" d="M237,-168.498C237,-160.065 237,-150.235 237,-141.874"/>
<polygon fill="midnightblue" stroke="midnightblue" points="240.5,-141.652 237,-131.652 233.5,-141.653 240.5,-141.652"/>
</g>
<!-- Node9 -->
<g id="node9" class="node"><title>Node9</title>
<polygon fill="none" stroke="#bfbfbf" points="280,-112.5 280,-131.5 334,-131.5 334,-112.5 280,-112.5"/>
<text text-anchor="middle" x="307" y="-119.5" font-family="Helvetica,sans-Serif" font-size="10.00">iostream</text>
</g>
<!-- Node1&#45;&gt;Node9 -->
<g id="edge8" class="edge"><title>Node1&#45;&gt;Node9</title>
<path fill="none" stroke="midnightblue" d="M258.002,-168.498C268.322,-158.915 280.585,-147.528 290.262,-138.543"/>
<polygon fill="midnightblue" stroke="midnightblue" points="292.736,-141.022 297.682,-131.652 287.972,-135.892 292.736,-141.022"/>
</g>
<!-- Node10 -->
<g id="node10" class="node"><title>Node10</title>
<polygon fill="none" stroke="#bfbfbf" points="352.5,-112.5 352.5,-131.5 411.5,-131.5 411.5,-112.5 352.5,-112.5"/>
<text text-anchor="middle" x="382" y="-119.5" font-family="Helvetica,sans-Serif" font-size="10.00">stdexcept</text>
</g>
<!-- Node1&#45;&gt;Node10 -->
<g id="edge9" class="edge"><title>Node1&#45;&gt;Node10</title>
<path fill="none" stroke="midnightblue" d="M280.505,-168.498C304.125,-157.909 332.662,-145.117 353.453,-135.797"/>
<polygon fill="midnightblue" stroke="midnightblue" points="355.005,-138.937 362.698,-131.652 352.141,-132.549 355.005,-138.937"/>
</g>
<!-- Node3 -->
<g id="node3" class="node"><title>Node3</title>
<polygon fill="none" stroke="#bfbfbf" points="-0.5,-56.5 -0.5,-75.5 48.5,-75.5 48.5,-56.5 -0.5,-56.5"/>
<text text-anchor="middle" x="24" y="-63.5" font-family="Helvetica,sans-Serif" font-size="10.00">istream</text>
</g>
<!-- Node2&#45;&gt;Node3 -->
<g id="edge2" class="edge"><title>Node2&#45;&gt;Node3</title>
<path fill="none" stroke="midnightblue" d="M81.914,-112.324C71.514,-104.185 55.7394,-91.8395 43.2784,-82.0874"/>
<polygon fill="midnightblue" stroke="midnightblue" points="45.3199,-79.2407 35.2878,-75.8339 41.0057,-84.7533 45.3199,-79.2407"/>
</g>
<!-- Node4 -->
<g id="node4" class="node"><title>Node4</title>
<polygon fill="none" stroke="#bfbfbf" points="67,-56.5 67,-75.5 119,-75.5 119,-56.5 67,-56.5"/>
<text text-anchor="middle" x="93" y="-63.5" font-family="Helvetica,sans-Serif" font-size="10.00">ostream</text>
</g>
<!-- Node2&#45;&gt;Node4 -->
<g id="edge3" class="edge"><title>Node2&#45;&gt;Node4</title>
<path fill="none" stroke="midnightblue" d="M93,-112.083C93,-105.006 93,-94.8611 93,-85.9865"/>
<polygon fill="midnightblue" stroke="midnightblue" points="96.5001,-85.751 93,-75.7511 89.5001,-85.7511 96.5001,-85.751"/>
</g>
<!-- Node5 -->
<g id="node5" class="node"><title>Node5</title>
<g id="a_node5"><a xlink:href="cl_8hh_source.html" target="_top" xlink:title="cl.hh">
<polygon fill="none" stroke="black" points="137,-56.5 137,-75.5 175,-75.5 175,-56.5 137,-56.5"/>
<text text-anchor="middle" x="156" y="-63.5" font-family="Helvetica,sans-Serif" font-size="10.00">cl.hh</text>
</a>
</g>
</g>
<!-- Node2&#45;&gt;Node5 -->
<g id="edge4" class="edge"><title>Node2&#45;&gt;Node5</title>
<path fill="none" stroke="midnightblue" d="M103.122,-112.324C112.526,-104.263 126.744,-92.0765 138.069,-82.3695"/>
<polygon fill="midnightblue" stroke="midnightblue" points="140.379,-84.9993 145.694,-75.8339 135.823,-79.6844 140.379,-84.9993"/>
</g>
<!-- Node6 -->
<g id="node6" class="node"><title>Node6</title>
<polygon fill="none" stroke="#bfbfbf" points="126.5,-0.5 126.5,-19.5 185.5,-19.5 185.5,-0.5 126.5,-0.5"/>
<text text-anchor="middle" x="156" y="-7.5" font-family="Helvetica,sans-Serif" font-size="10.00">CL/cl.hpp</text>
</g>
<!-- Node5&#45;&gt;Node6 -->
<g id="edge5" class="edge"><title>Node5&#45;&gt;Node6</title>
<path fill="none" stroke="midnightblue" d="M156,-56.083C156,-49.0059 156,-38.8611 156,-29.9865"/>
<polygon fill="midnightblue" stroke="midnightblue" points="159.5,-29.751 156,-19.7511 152.5,-29.7511 159.5,-29.751"/>
</g>
</g>
</svg>
