<?xml version="1.0" encoding="UTF-8" standalone="no"?>
<!DOCTYPE svg PUBLIC "-//W3C//DTD SVG 1.1//EN"
 "http://www.w3.org/Graphics/SVG/1.1/DTD/svg11.dtd">
<!-- Generated by graphviz version 2.36.0 (20140111.2315)
 -->
<!-- Title: /home/travis/build/igankevich/arma/src/generator Pages: 1 -->
<svg width="266pt" height="367pt"
 viewBox="0.00 0.00 266.00 367.00" xmlns="http://www.w3.org/2000/svg" xmlns:xlink="http://www.w3.org/1999/xlink">
<g id="graph0" class="graph" transform="scale(1 1) rotate(0) translate(4 363)">
<title>/home/travis/build/igankevich/arma/src/generator</title>
<g id="clust1" class="cluster"><title>clusterdir_68267d1309a1af8e8297ef4c3efbcdba</title>
<g id="a_clust1"><a xlink:href="dir_68267d1309a1af8e8297ef4c3efbcdba.html" target="_top" xlink:title="src">
<polygon fill="#ddddee" stroke="black" points="111,-280 111,-351 185,-351 185,-280 111,-280"/>
<text text-anchor="middle" x="148" y="-339" font-family="Helvetica,sans-Serif" font-size="10.00">src</text>
</a>
</g>
</g>
<!-- dir_0cecdb4f206ce84e50dfb37a6ecc3667 -->
<g id="node1" class="node"><title>dir_0cecdb4f206ce84e50dfb37a6ecc3667</title>
<g id="a_node1"><a xlink:href="dir_0cecdb4f206ce84e50dfb37a6ecc3667.html" target="_top" xlink:title="generator">
<polygon fill="#eeeeff" stroke="black" points="176.25,-324 119.75,-324 119.75,-288 176.25,-288 176.25,-324"/>
<text text-anchor="middle" x="148" y="-303.5" font-family="Helvetica,sans-Serif" font-size="10.00">generator</text>
</a>
</g>
</g>
<!-- dir_ffbd8fa4f0d2c39e05d0b979611bf178 -->
<g id="node2" class="node"><title>dir_ffbd8fa4f0d2c39e05d0b979611bf178</title>
<g id="a_node2"><a xlink:href="dir_ffbd8fa4f0d2c39e05d0b979611bf178.html" target="_top" xlink:title="bits">
<polygon fill="none" stroke="black" points="109,-36 55,-36 55,-0 109,-0 109,-36"/>
<text text-anchor="middle" x="82" y="-15.5" font-family="Helvetica,sans-Serif" font-size="10.00">bits</text>
</a>
</g>
</g>
<!-- dir_0cecdb4f206ce84e50dfb37a6ecc3667&#45;&gt;dir_ffbd8fa4f0d2c39e05d0b979611bf178 -->
<g id="edge1" class="edge"><title>dir_0cecdb4f206ce84e50dfb37a6ecc3667&#45;&gt;dir_ffbd8fa4f0d2c39e05d0b979611bf178</title>
<path fill="none" stroke="black" d="M140.32,-287.999C129.948,-264.304 111.654,-219.775 102,-180 90.779,-133.768 85.6585,-78.4556 83.4732,-46.1713"/>
<polygon fill="black" stroke="black" points="86.9639,-45.9112 82.8401,-36.1518 79.9778,-46.3527 86.9639,-45.9112"/>
<g id="a_edge1&#45;headlabel"><a xlink:href="dir_000004_000002.html" target="_top" xlink:title="6">
<text text-anchor="middle" x="90.0241" y="-46.8196" font-family="Helvetica,sans-Serif" font-size="10.00">6</text>
</a>
</g>
</g>
<!-- dir_0f3b9fbb4618702e0c3f1f6fecbfd9bc -->
<g id="node3" class="node"><title>dir_0f3b9fbb4618702e0c3f1f6fecbfd9bc</title>
<g id="a_node3"><a xlink:href="dir_0f3b9fbb4618702e0c3f1f6fecbfd9bc.html" target="_top" xlink:title="opencl">
<polygon fill="none" stroke="black" points="258,-36 204,-36 204,-0 258,-0 258,-36"/>
<text text-anchor="middle" x="231" y="-15.5" font-family="Helvetica,sans-Serif" font-size="10.00">opencl</text>
</a>
</g>
</g>
<!-- dir_0cecdb4f206ce84e50dfb37a6ecc3667&#45;&gt;dir_0f3b9fbb4618702e0c3f1f6fecbfd9bc -->
<g id="edge2" class="edge"><title>dir_0cecdb4f206ce84e50dfb37a6ecc3667&#45;&gt;dir_0f3b9fbb4618702e0c3f1f6fecbfd9bc</title>
<path fill="none" stroke="black" d="M176.596,-295.146C195.754,-286.874 219.498,-272.991 231,-252 267.427,-185.519 250.522,-91.5107 238.847,-45.9034"/>
<polygon fill="black" stroke="black" points="242.206,-44.9186 236.241,-36.1627 235.444,-46.7275 242.206,-44.9186"/>
<g id="a_edge2&#45;headlabel"><a xlink:href="dir_000004_000008.html" target="_top" xlink:title="3">
<text text-anchor="middle" x="245.878" y="-45.1575" font-family="Helvetica,sans-Serif" font-size="10.00">3</text>
</a>
</g>
</g>
<!-- dir_c184e51c84f2c3f0345bbc8a0d75d3e1 -->
<g id="node4" class="node"><title>dir_c184e51c84f2c3f0345bbc8a0d75d3e1</title>
<g id="a_node4"><a xlink:href="dir_c184e51c84f2c3f0345bbc8a0d75d3e1.html" target="_top" xlink:title="io">
<polygon fill="none" stroke="black" points="54,-252 0,-252 0,-216 54,-216 54,-252"/>
<text text-anchor="middle" x="27" y="-231.5" font-family="Helvetica,sans-Serif" font-size="10.00">io</text>
</a>
</g>
</g>
<!-- dir_0cecdb4f206ce84e50dfb37a6ecc3667&#45;&gt;dir_c184e51c84f2c3f0345bbc8a0d75d3e1 -->
<g id="edge3" class="edge"><title>dir_0cecdb4f206ce84e50dfb37a6ecc3667&#45;&gt;dir_c184e51c84f2c3f0345bbc8a0d75d3e1</title>
<path fill="none" stroke="black" d="M119.631,-288.588C102.857,-278.884 81.4402,-266.494 63.4262,-256.073"/>
<polygon fill="black" stroke="black" points="64.7673,-252.805 54.3587,-250.827 61.262,-258.865 64.7673,-252.805"/>
<g id="a_edge3&#45;headlabel"><a xlink:href="dir_000004_000005.html" target="_top" xlink:title="1">
<text text-anchor="middle" x="69.3005" y="-249.648" font-family="Helvetica,sans-Serif" font-size="10.00">1</text>
</a>
</g>
</g>
<!-- dir_73e8587a7ad8ab5f86b891b53dea6f6f -->
<g id="node5" class="node"><title>dir_73e8587a7ad8ab5f86b891b53dea6f6f</title>
<g id="a_node5"><a xlink:href="dir_73e8587a7ad8ab5f86b891b53dea6f6f.html" target="_top" xlink:title="apmath">
<polygon fill="none" stroke="black" points="220,-108 166,-108 166,-72 220,-72 220,-108"/>
<text text-anchor="middle" x="193" y="-87.5" font-family="Helvetica,sans-Serif" font-size="10.00">apmath</text>
</a>
</g>
</g>
<!-- dir_0cecdb4f206ce84e50dfb37a6ecc3667&#45;&gt;dir_73e8587a7ad8ab5f86b891b53dea6f6f -->
<g id="edge4" class="edge"><title>dir_0cecdb4f206ce84e50dfb37a6ecc3667&#45;&gt;dir_73e8587a7ad8ab5f86b891b53dea6f6f</title>
<path fill="none" stroke="black" d="M176.425,-289.507C189.868,-280.501 204.572,-267.797 212,-252 232.515,-208.375 217.073,-151.054 204.605,-117.893"/>
<polygon fill="black" stroke="black" points="207.795,-116.442 200.875,-108.42 201.282,-119.007 207.795,-116.442"/>
<g id="a_edge4&#45;headlabel"><a xlink:href="dir_000004_000001.html" target="_top" xlink:title="1">
<text text-anchor="middle" x="211.754" y="-116.246" font-family="Helvetica,sans-Serif" font-size="10.00">1</text>
</a>
</g>
</g>
<!-- dir_cd0de1d85df50188a13bee742e22c6d7 -->
<g id="node6" class="node"><title>dir_cd0de1d85df50188a13bee742e22c6d7</title>
<g id="a_node6"><a xlink:href="dir_cd0de1d85df50188a13bee742e22c6d7.html" target="_top" xlink:title="nonlinear">
<polygon fill="none" stroke="black" points="203.5,-252 148.5,-252 148.5,-216 203.5,-216 203.5,-252"/>
<text text-anchor="middle" x="176" y="-231.5" font-family="Helvetica,sans-Serif" font-size="10.00">nonlinear</text>
</a>
</g>
</g>
<!-- dir_0cecdb4f206ce84e50dfb37a6ecc3667&#45;&gt;dir_cd0de1d85df50188a13bee742e22c6d7 -->
<g id="edge5" class="edge"><title>dir_0cecdb4f206ce84e50dfb37a6ecc3667&#45;&gt;dir_cd0de1d85df50188a13bee742e22c6d7</title>
<path fill="none" stroke="black" d="M154.921,-287.697C158.075,-279.813 161.878,-270.304 165.381,-261.546"/>
<polygon fill="black" stroke="black" points="168.694,-262.689 169.158,-252.104 162.195,-260.089 168.694,-262.689"/>
<g id="a_edge5&#45;headlabel"><a xlink:href="dir_000004_000007.html" target="_top" xlink:title="2">
<text text-anchor="middle" x="169.995" y="-264.581" font-family="Helvetica,sans-Serif" font-size="10.00">2</text>
</a>
</g>
</g>
<!-- dir_3de45fbf08d2e79aacff2f4de113ab26 -->
<g id="node7" class="node"><title>dir_3de45fbf08d2e79aacff2f4de113ab26</title>
<g id="a_node7"><a xlink:href="dir_3de45fbf08d2e79aacff2f4de113ab26.html" target="_top" xlink:title="stats">
<polygon fill="none" stroke="black" points="165,-180 111,-180 111,-144 165,-144 165,-180"/>
<text text-anchor="middle" x="138" y="-159.5" font-family="Helvetica,sans-Serif" font-size="10.00">stats</text>
</a>
</g>
</g>
<!-- dir_0cecdb4f206ce84e50dfb37a6ecc3667&#45;&gt;dir_3de45fbf08d2e79aacff2f4de113ab26 -->
<g id="edge6" class="edge"><title>dir_0cecdb4f206ce84e50dfb37a6ecc3667&#45;&gt;dir_3de45fbf08d2e79aacff2f4de113ab26</title>
<path fill="none" stroke="black" d="M144.396,-287.903C142.391,-277.563 140.087,-264.084 139,-252 137.143,-231.353 136.957,-207.904 137.202,-190.261"/>
<polygon fill="black" stroke="black" points="140.704,-190.168 137.398,-180.102 133.705,-190.032 140.704,-190.168"/>
<g id="a_edge6&#45;headlabel"><a xlink:href="dir_000004_000009.html" target="_top" xlink:title="4">
<text text-anchor="middle" x="143.473" y="-191.317" font-family="Helvetica,sans-Serif" font-size="10.00">4</text>
</a>
</g>
</g>
<!-- dir_c184e51c84f2c3f0345bbc8a0d75d3e1&#45;&gt;dir_ffbd8fa4f0d2c39e05d0b979611bf178 -->
<g id="edge7" class="edge"><title>dir_c184e51c84f2c3f0345bbc8a0d75d3e1&#45;&gt;dir_ffbd8fa4f0d2c39e05d0b979611bf178</title>
<path fill="none" stroke="black" d="M31.3784,-215.595C38.8225,-186.051 54.4569,-124.209 68,-72 70.1843,-63.5796 72.5936,-54.4153 74.7887,-46.112"/>
<polygon fill="black" stroke="black" points="78.2434,-46.7386 77.4217,-36.1756 71.4769,-44.9455 78.2434,-46.7386"/>
<g id="a_edge7&#45;headlabel"><a xlink:href="dir_000005_000002.html" target="_top" xlink:title="1">
<text text-anchor="middle" x="80.0673" y="-48.4405" font-family="Helvetica,sans-Serif" font-size="10.00">1</text>
</a>
</g>
</g>
<!-- dir_73e8587a7ad8ab5f86b891b53dea6f6f&#45;&gt;dir_ffbd8fa4f0d2c39e05d0b979611bf178 -->
<g id="edge8" class="edge"><title>dir_73e8587a7ad8ab5f86b891b53dea6f6f&#45;&gt;dir_ffbd8fa4f0d2c39e05d0b979611bf178</title>
<path fill="none" stroke="black" d="M165.846,-71.8761C151.467,-62.8083 133.619,-51.5523 118.09,-41.7592"/>
<polygon fill="black" stroke="black" points="119.584,-38.5635 109.258,-36.1898 115.85,-44.4845 119.584,-38.5635"/>
<g id="a_edge8&#45;headlabel"><a xlink:href="dir_000001_000002.html" target="_top" xlink:title="3">
<text text-anchor="middle" x="124.139" y="-35.5793" font-family="Helvetica,sans-Serif" font-size="10.00">3</text>
</a>
</g>
</g>
<!-- dir_73e8587a7ad8ab5f86b891b53dea6f6f&#45;&gt;dir_0f3b9fbb4618702e0c3f1f6fecbfd9bc -->
<g id="edge9" class="edge"><title>dir_73e8587a7ad8ab5f86b891b53dea6f6f&#45;&gt;dir_0f3b9fbb4618702e0c3f1f6fecbfd9bc</title>
<path fill="none" stroke="black" d="M202.393,-71.6966C206.765,-63.6436 212.057,-53.8945 216.895,-44.9824"/>
<polygon fill="black" stroke="black" points="220.02,-46.5627 221.715,-36.1043 213.868,-43.223 220.02,-46.5627"/>
<g id="a_edge9&#45;headlabel"><a xlink:href="dir_000001_000008.html" target="_top" xlink:title="3">
<text text-anchor="middle" x="220.8" y="-48.5764" font-family="Helvetica,sans-Serif" font-size="10.00">3</text>
</a>
</g>
</g>
<!-- dir_cd0de1d85df50188a13bee742e22c6d7&#45;&gt;dir_73e8587a7ad8ab5f86b891b53dea6f6f -->
<g id="edge10" class="edge"><title>dir_cd0de1d85df50188a13bee742e22c6d7&#45;&gt;dir_73e8587a7ad8ab5f86b891b53dea6f6f</title>
<path fill="none" stroke="black" d="M178.051,-215.871C180.948,-191.67 186.271,-147.211 189.721,-118.393"/>
<polygon fill="black" stroke="black" points="193.229,-118.534 190.942,-108.189 186.278,-117.702 193.229,-118.534"/>
<g id="a_edge10&#45;headlabel"><a xlink:href="dir_000007_000001.html" target="_top" xlink:title="3">
<text text-anchor="middle" x="195.62" y="-119.941" font-family="Helvetica,sans-Serif" font-size="10.00">3</text>
</a>
</g>
</g>
<!-- dir_cd0de1d85df50188a13bee742e22c6d7&#45;&gt;dir_3de45fbf08d2e79aacff2f4de113ab26 -->
<g id="edge11" class="edge"><title>dir_cd0de1d85df50188a13bee742e22c6d7&#45;&gt;dir_3de45fbf08d2e79aacff2f4de113ab26</title>
<path fill="none" stroke="black" d="M166.607,-215.697C162.235,-207.644 156.943,-197.894 152.105,-188.982"/>
<polygon fill="black" stroke="black" points="155.132,-187.223 147.285,-180.104 148.98,-190.563 155.132,-187.223"/>
<g id="a_edge11&#45;headlabel"><a xlink:href="dir_000007_000009.html" target="_top" xlink:title="3">
<text text-anchor="middle" x="159.342" y="-186.528" font-family="Helvetica,sans-Serif" font-size="10.00">3</text>
</a>
</g>
</g>
<!-- dir_3de45fbf08d2e79aacff2f4de113ab26&#45;&gt;dir_73e8587a7ad8ab5f86b891b53dea6f6f -->
<g id="edge12" class="edge"><title>dir_3de45fbf08d2e79aacff2f4de113ab26&#45;&gt;dir_73e8587a7ad8ab5f86b891b53dea6f6f</title>
<path fill="none" stroke="black" d="M151.596,-143.697C158.123,-135.389 166.068,-125.277 173.247,-116.141"/>
<polygon fill="black" stroke="black" points="176.135,-118.13 179.561,-108.104 170.631,-113.805 176.135,-118.13"/>
<g id="a_edge12&#45;headlabel"><a xlink:href="dir_000009_000001.html" target="_top" xlink:title="1">
<text text-anchor="middle" x="176.147" y="-120.211" font-family="Helvetica,sans-Serif" font-size="10.00">1</text>
</a>
</g>
</g>
</g>
</svg>
