<?xml version="1.0" encoding="UTF-8" standalone="no"?>
<!DOCTYPE svg PUBLIC "-//W3C//DTD SVG 1.1//EN"
 "http://www.w3.org/Graphics/SVG/1.1/DTD/svg11.dtd">
<!-- Generated by graphviz version 2.36.0 (20140111.2315)
 -->
<!-- Title: /home/travis/build/igankevich/arma/src/nonlinear Pages: 1 -->
<svg width="107pt" height="223pt"
 viewBox="0.00 0.00 107.00 223.00" xmlns="http://www.w3.org/2000/svg" xmlns:xlink="http://www.w3.org/1999/xlink">
<g id="graph0" class="graph" transform="scale(1 1) rotate(0) translate(4 219)">
<title>/home/travis/build/igankevich/arma/src/nonlinear</title>
<g id="clust1" class="cluster"><title>clusterdir_68267d1309a1af8e8297ef4c3efbcdba</title>
<g id="a_clust1"><a xlink:href="dir_68267d1309a1af8e8297ef4c3efbcdba.html" target="_top" xlink:title="src">
<polygon fill="#ddddee" stroke="black" points="8,-136 8,-207 80,-207 80,-136 8,-136"/>
<text text-anchor="middle" x="44" y="-195" font-family="Helvetica,sans-Serif" font-size="10.00">src</text>
</a>
</g>
</g>
<!-- dir_cd0de1d85df50188a13bee742e22c6d7 -->
<g id="node1" class="node"><title>dir_cd0de1d85df50188a13bee742e22c6d7</title>
<g id="a_node1"><a xlink:href="dir_cd0de1d85df50188a13bee742e22c6d7.html" target="_top" xlink:title="nonlinear">
<polygon fill="#eeeeff" stroke="black" points="71.5,-180 16.5,-180 16.5,-144 71.5,-144 71.5,-180"/>
<text text-anchor="middle" x="44" y="-159.5" font-family="Helvetica,sans-Serif" font-size="10.00">nonlinear</text>
</a>
</g>
</g>
<!-- dir_73e8587a7ad8ab5f86b891b53dea6f6f -->
<g id="node2" class="node"><title>dir_73e8587a7ad8ab5f86b891b53dea6f6f</title>
<g id="a_node2"><a xlink:href="dir_73e8587a7ad8ab5f86b891b53dea6f6f.html" target="_top" xlink:title="apmath">
<polygon fill="none" stroke="black" points="71,-36 17,-36 17,-0 71,-0 71,-36"/>
<text text-anchor="middle" x="44" y="-15.5" font-family="Helvetica,sans-Serif" font-size="10.00">apmath</text>
</a>
</g>
</g>
<!-- dir_cd0de1d85df50188a13bee742e22c6d7&#45;&gt;dir_73e8587a7ad8ab5f86b891b53dea6f6f -->
<g id="edge1" class="edge"><title>dir_cd0de1d85df50188a13bee742e22c6d7&#45;&gt;dir_73e8587a7ad8ab5f86b891b53dea6f6f</title>
<path fill="none" stroke="black" d="M40.7517,-143.888C38.9542,-133.542 36.9053,-120.063 36,-108 34.8026,-92.0449 34.8026,-87.9551 36,-72 36.6366,-63.5179 37.8384,-54.3361 39.1208,-46.0356"/>
<polygon fill="black" stroke="black" points="42.5836,-46.5472 40.7517,-36.1119 35.6763,-45.412 42.5836,-46.5472"/>
<g id="a_edge1&#45;headlabel"><a xlink:href="dir_000007_000001.html" target="_top" xlink:title="3">
<text text-anchor="middle" x="44.8024" y="-48.0546" font-family="Helvetica,sans-Serif" font-size="10.00">3</text>
</a>
</g>
</g>
<!-- dir_3de45fbf08d2e79aacff2f4de113ab26 -->
<g id="node3" class="node"><title>dir_3de45fbf08d2e79aacff2f4de113ab26</title>
<g id="a_node3"><a xlink:href="dir_3de45fbf08d2e79aacff2f4de113ab26.html" target="_top" xlink:title="stats">
<polygon fill="none" stroke="black" points="99,-108 45,-108 45,-72 99,-72 99,-108"/>
<text text-anchor="middle" x="72" y="-87.5" font-family="Helvetica,sans-Serif" font-size="10.00">stats</text>
</a>
</g>
</g>
<!-- dir_cd0de1d85df50188a13bee742e22c6d7&#45;&gt;dir_3de45fbf08d2e79aacff2f4de113ab26 -->
<g id="edge2" class="edge"><title>dir_cd0de1d85df50188a13bee742e22c6d7&#45;&gt;dir_3de45fbf08d2e79aacff2f4de113ab26</title>
<path fill="none" stroke="black" d="M50.9214,-143.697C54.0747,-135.813 57.8783,-126.304 61.3814,-117.546"/>
<polygon fill="black" stroke="black" points="64.694,-118.689 65.1583,-108.104 58.1946,-116.089 64.694,-118.689"/>
<g id="a_edge2&#45;headlabel"><a xlink:href="dir_000007_000009.html" target="_top" xlink:title="3">
<text text-anchor="middle" x="65.9952" y="-120.581" font-family="Helvetica,sans-Serif" font-size="10.00">3</text>
</a>
</g>
</g>
<!-- dir_3de45fbf08d2e79aacff2f4de113ab26&#45;&gt;dir_73e8587a7ad8ab5f86b891b53dea6f6f -->
<g id="edge3" class="edge"><title>dir_3de45fbf08d2e79aacff2f4de113ab26&#45;&gt;dir_73e8587a7ad8ab5f86b891b53dea6f6f</title>
<path fill="none" stroke="black" d="M65.0786,-71.6966C61.9253,-63.8132 58.1217,-54.3042 54.6186,-45.5464"/>
<polygon fill="black" stroke="black" points="57.8054,-44.0892 50.8417,-36.1043 51.306,-46.689 57.8054,-44.0892"/>
<g id="a_edge3&#45;headlabel"><a xlink:href="dir_000009_000001.html" target="_top" xlink:title="1">
<text text-anchor="middle" x="61.7765" y="-43.8723" font-family="Helvetica,sans-Serif" font-size="10.00">1</text>
</a>
</g>
</g>
</g>
</svg>
