<?xml version="1.0" encoding="UTF-8" standalone="no"?>
<!DOCTYPE svg PUBLIC "-//W3C//DTD SVG 1.1//EN"
 "http://www.w3.org/Graphics/SVG/1.1/DTD/svg11.dtd">
<!-- Generated by graphviz version 2.36.0 (20140111.2315)
 -->
<!-- Title: /home/travis/build/igankevich/arma/src Pages: 1 -->
<svg width="266pt" height="508pt"
 viewBox="0.00 0.00 266.00 508.00" xmlns="http://www.w3.org/2000/svg" xmlns:xlink="http://www.w3.org/1999/xlink">
<g id="graph0" class="graph" transform="scale(1 1) rotate(0) translate(4 504)">
<title>/home/travis/build/igankevich/arma/src</title>
<g id="clust1" class="cluster"><title>clusterdir_68267d1309a1af8e8297ef4c3efbcdba</title>
<g id="a_clust1"><a xlink:href="dir_68267d1309a1af8e8297ef4c3efbcdba.html" target="_top">
<polygon fill="#eeeeff" stroke="black" points="8,-8 8,-492 250,-492 250,-8 8,-8"/>
</a>
</g>
</g>
<!-- dir_68267d1309a1af8e8297ef4c3efbcdba -->
<g id="node1" class="node"><title>dir_68267d1309a1af8e8297ef4c3efbcdba</title>
<text text-anchor="middle" x="147" y="-463.5" font-family="Helvetica,sans-Serif" font-size="10.00">src</text>
</g>
<!-- dir_0cecdb4f206ce84e50dfb37a6ecc3667 -->
<g id="node4" class="node"><title>dir_0cecdb4f206ce84e50dfb37a6ecc3667</title>
<g id="a_node4"><a xlink:href="dir_0cecdb4f206ce84e50dfb37a6ecc3667.html" target="_top" xlink:title="generator">
<polygon fill="white" stroke="black" points="134.25,-340 77.75,-340 77.75,-304 134.25,-304 134.25,-340"/>
<text text-anchor="middle" x="106" y="-319.5" font-family="Helvetica,sans-Serif" font-size="10.00">generator</text>
</a>
</g>
</g>
<!-- dir_68267d1309a1af8e8297ef4c3efbcdba&#45;&gt;dir_0cecdb4f206ce84e50dfb37a6ecc3667 -->
<g id="edge7" class="edge"><title>dir_68267d1309a1af8e8297ef4c3efbcdba&#45;&gt;dir_0cecdb4f206ce84e50dfb37a6ecc3667</title>
<path fill="none" stroke="black" d="M132.998,-447.979C125.696,-438.099 117.391,-425.056 113,-412 106.299,-392.077 104.734,-368.284 104.743,-350.314"/>
<polygon fill="black" stroke="black" points="108.244,-350.28 104.912,-340.222 101.245,-350.162 108.244,-350.28"/>
<g id="a_edge7&#45;headlabel"><a xlink:href="dir_000000_000004.html" target="_top" xlink:title="7">
<text text-anchor="middle" x="111.023" y="-351.421" font-family="Helvetica,sans-Serif" font-size="10.00">7</text>
</a>
</g>
</g>
<!-- dir_c48fbb18bd75afff4be030191c91476e -->
<g id="node11" class="node"><title>dir_c48fbb18bd75afff4be030191c91476e</title>
<g id="a_node11"><a xlink:href="dir_c48fbb18bd75afff4be030191c91476e.html" target="_top" xlink:title="velocity">
<polygon fill="white" stroke="red" points="176,-412 122,-412 122,-376 176,-376 176,-412"/>
<text text-anchor="middle" x="149" y="-391.5" font-family="Helvetica,sans-Serif" font-size="10.00">velocity</text>
</a>
</g>
</g>
<!-- dir_68267d1309a1af8e8297ef4c3efbcdba&#45;&gt;dir_c48fbb18bd75afff4be030191c91476e -->
<g id="edge8" class="edge"><title>dir_68267d1309a1af8e8297ef4c3efbcdba&#45;&gt;dir_c48fbb18bd75afff4be030191c91476e</title>
<path fill="none" stroke="black" d="M147.494,-447.697C147.715,-439.983 147.98,-430.712 148.225,-422.112"/>
<polygon fill="black" stroke="black" points="151.724,-422.2 148.511,-412.104 144.727,-422 151.724,-422.2"/>
<g id="a_edge8&#45;headlabel"><a xlink:href="dir_000000_000010.html" target="_top" xlink:title="7">
<text text-anchor="middle" x="154.46" y="-423.374" font-family="Helvetica,sans-Serif" font-size="10.00">7</text>
</a>
</g>
</g>
<!-- dir_73e8587a7ad8ab5f86b891b53dea6f6f -->
<g id="node2" class="node"><title>dir_73e8587a7ad8ab5f86b891b53dea6f6f</title>
<g id="a_node2"><a xlink:href="dir_73e8587a7ad8ab5f86b891b53dea6f6f.html" target="_top" xlink:title="apmath">
<polygon fill="white" stroke="black" points="202,-124 148,-124 148,-88 202,-88 202,-124"/>
<text text-anchor="middle" x="175" y="-103.5" font-family="Helvetica,sans-Serif" font-size="10.00">apmath</text>
</a>
</g>
</g>
<!-- dir_ffbd8fa4f0d2c39e05d0b979611bf178 -->
<g id="node3" class="node"><title>dir_ffbd8fa4f0d2c39e05d0b979611bf178</title>
<g id="a_node3"><a xlink:href="dir_ffbd8fa4f0d2c39e05d0b979611bf178.html" target="_top" xlink:title="bits">
<polygon fill="white" stroke="black" points="90,-52 36,-52 36,-16 90,-16 90,-52"/>
<text text-anchor="middle" x="63" y="-31.5" font-family="Helvetica,sans-Serif" font-size="10.00">bits</text>
</a>
</g>
</g>
<!-- dir_73e8587a7ad8ab5f86b891b53dea6f6f&#45;&gt;dir_ffbd8fa4f0d2c39e05d0b979611bf178 -->
<g id="edge11" class="edge"><title>dir_73e8587a7ad8ab5f86b891b53dea6f6f&#45;&gt;dir_ffbd8fa4f0d2c39e05d0b979611bf178</title>
<path fill="none" stroke="black" d="M147.888,-88.055C133.139,-78.8371 114.71,-67.3185 98.7944,-57.3715"/>
<polygon fill="black" stroke="black" points="100.586,-54.3637 90.2506,-52.0316 96.8756,-60.2997 100.586,-54.3637"/>
<g id="a_edge11&#45;headlabel"><a xlink:href="dir_000001_000002.html" target="_top" xlink:title="3">
<text text-anchor="middle" x="105.139" y="-51.3611" font-family="Helvetica,sans-Serif" font-size="10.00">3</text>
</a>
</g>
</g>
<!-- dir_0f3b9fbb4618702e0c3f1f6fecbfd9bc -->
<g id="node8" class="node"><title>dir_0f3b9fbb4618702e0c3f1f6fecbfd9bc</title>
<g id="a_node8"><a xlink:href="dir_0f3b9fbb4618702e0c3f1f6fecbfd9bc.html" target="_top" xlink:title="opencl">
<polygon fill="white" stroke="black" points="222,-52 168,-52 168,-16 222,-16 222,-52"/>
<text text-anchor="middle" x="195" y="-31.5" font-family="Helvetica,sans-Serif" font-size="10.00">opencl</text>
</a>
</g>
</g>
<!-- dir_73e8587a7ad8ab5f86b891b53dea6f6f&#45;&gt;dir_0f3b9fbb4618702e0c3f1f6fecbfd9bc -->
<g id="edge12" class="edge"><title>dir_73e8587a7ad8ab5f86b891b53dea6f6f&#45;&gt;dir_0f3b9fbb4618702e0c3f1f6fecbfd9bc</title>
<path fill="none" stroke="black" d="M179.944,-87.6966C182.172,-79.8979 184.855,-70.5085 187.335,-61.8292"/>
<polygon fill="black" stroke="black" points="190.731,-62.6811 190.113,-52.1043 184,-60.758 190.731,-62.6811"/>
<g id="a_edge12&#45;headlabel"><a xlink:href="dir_000001_000008.html" target="_top" xlink:title="3">
<text text-anchor="middle" x="192.474" y="-64.4174" font-family="Helvetica,sans-Serif" font-size="10.00">3</text>
</a>
</g>
</g>
<!-- dir_0cecdb4f206ce84e50dfb37a6ecc3667&#45;&gt;dir_73e8587a7ad8ab5f86b891b53dea6f6f -->
<g id="edge4" class="edge"><title>dir_0cecdb4f206ce84e50dfb37a6ecc3667&#45;&gt;dir_73e8587a7ad8ab5f86b891b53dea6f6f</title>
<path fill="none" stroke="black" d="M129.866,-303.877C141.876,-294.352 155.973,-281.674 166,-268 186.708,-239.761 190.731,-230.255 198,-196 201.321,-180.349 201.253,-175.666 198,-160 196.124,-150.965 192.626,-141.579 188.914,-133.261"/>
<polygon fill="black" stroke="black" points="191.999,-131.598 184.542,-124.072 185.678,-134.606 191.999,-131.598"/>
<g id="a_edge4&#45;headlabel"><a xlink:href="dir_000004_000001.html" target="_top" xlink:title="1">
<text text-anchor="middle" x="196.107" y="-131.125" font-family="Helvetica,sans-Serif" font-size="10.00">1</text>
</a>
</g>
</g>
<!-- dir_0cecdb4f206ce84e50dfb37a6ecc3667&#45;&gt;dir_ffbd8fa4f0d2c39e05d0b979611bf178 -->
<g id="edge1" class="edge"><title>dir_0cecdb4f206ce84e50dfb37a6ecc3667&#45;&gt;dir_ffbd8fa4f0d2c39e05d0b979611bf178</title>
<path fill="none" stroke="black" d="M84.3527,-303.767C73.9059,-294.302 62.1228,-281.711 55,-268 24.9442,-210.142 33.251,-188.898 27,-124 25.466,-108.074 22.2972,-103.293 27,-88 30.0089,-78.2153 35.507,-68.6161 41.3157,-60.3336"/>
<polygon fill="black" stroke="black" points="44.1948,-62.3279 47.3901,-52.2264 38.5928,-58.1306 44.1948,-62.3279"/>
<g id="a_edge1&#45;headlabel"><a xlink:href="dir_000004_000002.html" target="_top" xlink:title="4">
<text text-anchor="middle" x="44.3117" y="-64.4071" font-family="Helvetica,sans-Serif" font-size="10.00">4</text>
</a>
</g>
</g>
<!-- dir_c184e51c84f2c3f0345bbc8a0d75d3e1 -->
<g id="node5" class="node"><title>dir_c184e51c84f2c3f0345bbc8a0d75d3e1</title>
<g id="a_node5"><a xlink:href="dir_c184e51c84f2c3f0345bbc8a0d75d3e1.html" target="_top" xlink:title="io">
<polygon fill="white" stroke="black" points="90,-124 36,-124 36,-88 90,-88 90,-124"/>
<text text-anchor="middle" x="63" y="-103.5" font-family="Helvetica,sans-Serif" font-size="10.00">io</text>
</a>
</g>
</g>
<!-- dir_0cecdb4f206ce84e50dfb37a6ecc3667&#45;&gt;dir_c184e51c84f2c3f0345bbc8a0d75d3e1 -->
<g id="edge3" class="edge"><title>dir_0cecdb4f206ce84e50dfb37a6ecc3667&#45;&gt;dir_c184e51c84f2c3f0345bbc8a0d75d3e1</title>
<path fill="none" stroke="black" d="M94.7765,-303.684C80.3831,-280.344 56.1851,-236.979 47,-196 42.3501,-175.255 47.097,-151.553 52.6003,-133.827"/>
<polygon fill="black" stroke="black" points="55.985,-134.743 55.8626,-124.149 49.3517,-132.507 55.985,-134.743"/>
<g id="a_edge3&#45;headlabel"><a xlink:href="dir_000004_000005.html" target="_top" xlink:title="1">
<text text-anchor="middle" x="57.5275" y="-136.556" font-family="Helvetica,sans-Serif" font-size="10.00">1</text>
</a>
</g>
</g>
<!-- dir_cd0de1d85df50188a13bee742e22c6d7 -->
<g id="node7" class="node"><title>dir_cd0de1d85df50188a13bee742e22c6d7</title>
<g id="a_node7"><a xlink:href="dir_cd0de1d85df50188a13bee742e22c6d7.html" target="_top" xlink:title="nonlinear">
<polygon fill="white" stroke="black" points="157.5,-268 102.5,-268 102.5,-232 157.5,-232 157.5,-268"/>
<text text-anchor="middle" x="130" y="-247.5" font-family="Helvetica,sans-Serif" font-size="10.00">nonlinear</text>
</a>
</g>
</g>
<!-- dir_0cecdb4f206ce84e50dfb37a6ecc3667&#45;&gt;dir_cd0de1d85df50188a13bee742e22c6d7 -->
<g id="edge5" class="edge"><title>dir_0cecdb4f206ce84e50dfb37a6ecc3667&#45;&gt;dir_cd0de1d85df50188a13bee742e22c6d7</title>
<path fill="none" stroke="black" d="M111.933,-303.697C114.606,-295.898 117.826,-286.509 120.801,-277.829"/>
<polygon fill="black" stroke="black" points="124.203,-278.699 124.136,-268.104 117.582,-276.429 124.203,-278.699"/>
<g id="a_edge5&#45;headlabel"><a xlink:href="dir_000004_000007.html" target="_top" xlink:title="2">
<text text-anchor="middle" x="125.723" y="-280.52" font-family="Helvetica,sans-Serif" font-size="10.00">2</text>
</a>
</g>
</g>
<!-- dir_0cecdb4f206ce84e50dfb37a6ecc3667&#45;&gt;dir_0f3b9fbb4618702e0c3f1f6fecbfd9bc -->
<g id="edge2" class="edge"><title>dir_0cecdb4f206ce84e50dfb37a6ecc3667&#45;&gt;dir_0f3b9fbb4618702e0c3f1f6fecbfd9bc</title>
<path fill="none" stroke="black" d="M134.538,-307.198C150.586,-298.104 169.788,-284.777 182,-268 229.686,-202.486 222.836,-168.163 211,-88 209.722,-79.3473 207.331,-70.1492 204.78,-61.8867"/>
<polygon fill="black" stroke="black" points="208.1,-60.7788 201.652,-52.3719 201.45,-62.9648 208.1,-60.7788"/>
<g id="a_edge2&#45;headlabel"><a xlink:href="dir_000004_000008.html" target="_top" xlink:title="3">
<text text-anchor="middle" x="211.92" y="-60.807" font-family="Helvetica,sans-Serif" font-size="10.00">3</text>
</a>
</g>
</g>
<!-- dir_3de45fbf08d2e79aacff2f4de113ab26 -->
<g id="node9" class="node"><title>dir_3de45fbf08d2e79aacff2f4de113ab26</title>
<g id="a_node9"><a xlink:href="dir_3de45fbf08d2e79aacff2f4de113ab26.html" target="_top" xlink:title="stats">
<polygon fill="white" stroke="black" points="110,-196 56,-196 56,-160 110,-160 110,-196"/>
<text text-anchor="middle" x="83" y="-175.5" font-family="Helvetica,sans-Serif" font-size="10.00">stats</text>
</a>
</g>
</g>
<!-- dir_0cecdb4f206ce84e50dfb37a6ecc3667&#45;&gt;dir_3de45fbf08d2e79aacff2f4de113ab26 -->
<g id="edge6" class="edge"><title>dir_0cecdb4f206ce84e50dfb37a6ecc3667&#45;&gt;dir_3de45fbf08d2e79aacff2f4de113ab26</title>
<path fill="none" stroke="black" d="M101.221,-303.933C98.4777,-293.603 95.1591,-280.126 93,-268 89.3433,-247.464 86.7729,-224.01 85.1545,-206.336"/>
<polygon fill="black" stroke="black" points="88.6225,-205.815 84.2686,-196.156 81.6488,-206.422 88.6225,-205.815"/>
<g id="a_edge6&#45;headlabel"><a xlink:href="dir_000004_000009.html" target="_top" xlink:title="4">
<text text-anchor="middle" x="91.7626" y="-206.65" font-family="Helvetica,sans-Serif" font-size="10.00">4</text>
</a>
</g>
</g>
<!-- dir_c184e51c84f2c3f0345bbc8a0d75d3e1&#45;&gt;dir_ffbd8fa4f0d2c39e05d0b979611bf178 -->
<g id="edge10" class="edge"><title>dir_c184e51c84f2c3f0345bbc8a0d75d3e1&#45;&gt;dir_ffbd8fa4f0d2c39e05d0b979611bf178</title>
<path fill="none" stroke="black" d="M63,-87.6966C63,-79.9827 63,-70.7125 63,-62.1124"/>
<polygon fill="black" stroke="black" points="66.5001,-62.1043 63,-52.1043 59.5001,-62.1044 66.5001,-62.1043"/>
<g id="a_edge10&#45;headlabel"><a xlink:href="dir_000005_000002.html" target="_top" xlink:title="1">
<text text-anchor="middle" x="69.3393" y="-63.199" font-family="Helvetica,sans-Serif" font-size="10.00">1</text>
</a>
</g>
</g>
<!-- dir_40856f0cdd4bcafd28810d9265a200f7 -->
<g id="node6" class="node"><title>dir_40856f0cdd4bcafd28810d9265a200f7</title>
<g id="a_node6"><a xlink:href="dir_40856f0cdd4bcafd28810d9265a200f7.html" target="_top" xlink:title="kernels">
<polygon fill="white" stroke="black" points="95,-484 41,-484 41,-448 95,-448 95,-484"/>
<text text-anchor="middle" x="68" y="-463.5" font-family="Helvetica,sans-Serif" font-size="10.00">kernels</text>
</a>
</g>
</g>
<!-- dir_cd0de1d85df50188a13bee742e22c6d7&#45;&gt;dir_73e8587a7ad8ab5f86b891b53dea6f6f -->
<g id="edge13" class="edge"><title>dir_cd0de1d85df50188a13bee742e22c6d7&#45;&gt;dir_73e8587a7ad8ab5f86b891b53dea6f6f</title>
<path fill="none" stroke="black" d="M157.762,-232.761C170.407,-223.711 184.075,-211.191 191,-196 200.011,-176.233 194.606,-151.833 187.737,-133.582"/>
<polygon fill="black" stroke="black" points="190.895,-132.06 183.852,-124.145 184.422,-134.724 190.895,-132.06"/>
<g id="a_edge13&#45;headlabel"><a xlink:href="dir_000007_000001.html" target="_top" xlink:title="3">
<text text-anchor="middle" x="194.889" y="-131.803" font-family="Helvetica,sans-Serif" font-size="10.00">3</text>
</a>
</g>
</g>
<!-- dir_cd0de1d85df50188a13bee742e22c6d7&#45;&gt;dir_3de45fbf08d2e79aacff2f4de113ab26 -->
<g id="edge14" class="edge"><title>dir_cd0de1d85df50188a13bee742e22c6d7&#45;&gt;dir_3de45fbf08d2e79aacff2f4de113ab26</title>
<path fill="none" stroke="black" d="M118.382,-231.697C112.861,-223.474 106.153,-213.483 100.068,-204.421"/>
<polygon fill="black" stroke="black" points="102.965,-202.456 94.4843,-196.104 97.1529,-206.358 102.965,-202.456"/>
<g id="a_edge14&#45;headlabel"><a xlink:href="dir_000007_000009.html" target="_top" xlink:title="3">
<text text-anchor="middle" x="107.325" y="-201.357" font-family="Helvetica,sans-Serif" font-size="10.00">3</text>
</a>
</g>
</g>
<!-- dir_3de45fbf08d2e79aacff2f4de113ab26&#45;&gt;dir_73e8587a7ad8ab5f86b891b53dea6f6f -->
<g id="edge16" class="edge"><title>dir_3de45fbf08d2e79aacff2f4de113ab26&#45;&gt;dir_73e8587a7ad8ab5f86b891b53dea6f6f</title>
<path fill="none" stroke="black" d="M105.742,-159.697C117.44,-150.796 131.861,-139.823 144.51,-130.199"/>
<polygon fill="black" stroke="black" points="146.681,-132.945 152.52,-124.104 142.442,-127.374 146.681,-132.945"/>
<g id="a_edge16&#45;headlabel"><a xlink:href="dir_000009_000001.html" target="_top" xlink:title="1">
<text text-anchor="middle" x="145.54" y="-134.881" font-family="Helvetica,sans-Serif" font-size="10.00">1</text>
</a>
</g>
</g>
<!-- dir_120ed4da3e3217b1e7fc0b4f48568e79 -->
<g id="node10" class="node"><title>dir_120ed4da3e3217b1e7fc0b4f48568e79</title>
<g id="a_node10"><a xlink:href="dir_120ed4da3e3217b1e7fc0b4f48568e79.html" target="_top" xlink:title="test">
<polygon fill="white" stroke="black" points="182,-196 128,-196 128,-160 182,-160 182,-196"/>
<text text-anchor="middle" x="155" y="-175.5" font-family="Helvetica,sans-Serif" font-size="10.00">test</text>
</a>
</g>
</g>
<!-- dir_120ed4da3e3217b1e7fc0b4f48568e79&#45;&gt;dir_73e8587a7ad8ab5f86b891b53dea6f6f -->
<g id="edge9" class="edge"><title>dir_120ed4da3e3217b1e7fc0b4f48568e79&#45;&gt;dir_73e8587a7ad8ab5f86b891b53dea6f6f</title>
<path fill="none" stroke="black" d="M159.944,-159.697C162.172,-151.898 164.855,-142.509 167.335,-133.829"/>
<polygon fill="black" stroke="black" points="170.731,-134.681 170.113,-124.104 164,-132.758 170.731,-134.681"/>
<g id="a_edge9&#45;headlabel"><a xlink:href="dir_000003_000001.html" target="_top" xlink:title="1">
<text text-anchor="middle" x="172.474" y="-136.417" font-family="Helvetica,sans-Serif" font-size="10.00">1</text>
</a>
</g>
</g>
<!-- dir_c48fbb18bd75afff4be030191c91476e&#45;&gt;dir_0cecdb4f206ce84e50dfb37a6ecc3667 -->
<g id="edge15" class="edge"><title>dir_c48fbb18bd75afff4be030191c91476e&#45;&gt;dir_0cecdb4f206ce84e50dfb37a6ecc3667</title>
<path fill="none" stroke="black" d="M138.371,-375.697C133.372,-367.559 127.309,-357.689 121.788,-348.701"/>
<polygon fill="black" stroke="black" points="124.723,-346.793 116.507,-340.104 118.759,-350.457 124.723,-346.793"/>
<g id="a_edge15&#45;headlabel"><a xlink:href="dir_000010_000004.html" target="_top" xlink:title="1">
<text text-anchor="middle" x="129.024" y="-345.87" font-family="Helvetica,sans-Serif" font-size="10.00">1</text>
</a>
</g>
</g>
</g>
</svg>
