<?xml version="1.0" encoding="UTF-8" standalone="no"?>
<!DOCTYPE svg PUBLIC "-//W3C//DTD SVG 1.1//EN"
 "http://www.w3.org/Graphics/SVG/1.1/DTD/svg11.dtd">
<!-- Generated by graphviz version 2.36.0 (20140111.2315)
 -->
<!-- Title: /home/travis/build/igankevich/arma/src/discrete_function.hh Pages: 1 -->
<svg width="325pt" height="274pt"
 viewBox="0.00 0.00 325.00 274.00" xmlns="http://www.w3.org/2000/svg" xmlns:xlink="http://www.w3.org/1999/xlink">
<g id="graph0" class="graph" transform="scale(1 1) rotate(0) translate(4 270)">
<title>/home/travis/build/igankevich/arma/src/discrete_function.hh</title>
<!-- Node1 -->
<g id="node1" class="node"><title>Node1</title>
<polygon fill="#bfbfbf" stroke="black" points="13.5,-224.5 13.5,-265.5 120.5,-265.5 120.5,-224.5 13.5,-224.5"/>
<text text-anchor="start" x="21.5" y="-253.5" font-family="Helvetica,sans-Serif" font-size="10.00">/home/travis/build</text>
<text text-anchor="start" x="21.5" y="-242.5" font-family="Helvetica,sans-Serif" font-size="10.00">/igankevich/arma/src</text>
<text text-anchor="middle" x="67" y="-231.5" font-family="Helvetica,sans-Serif" font-size="10.00">/discrete_function.hh</text>
</g>
<!-- Node2 -->
<g id="node2" class="node"><title>Node2</title>
<g id="a_node2"><a xlink:href="types_8hh.html" target="_top" xlink:title="types.hh">
<polygon fill="none" stroke="black" points="0,-168.5 0,-187.5 54,-187.5 54,-168.5 0,-168.5"/>
<text text-anchor="middle" x="27" y="-175.5" font-family="Helvetica,sans-Serif" font-size="10.00">types.hh</text>
</a>
</g>
</g>
<!-- Node1&#45;&gt;Node2 -->
<g id="edge1" class="edge"><title>Node1&#45;&gt;Node2</title>
<path fill="none" stroke="midnightblue" d="M54.9987,-224.498C49.4556,-215.49 42.9311,-204.888 37.5755,-196.185"/>
<polygon fill="midnightblue" stroke="midnightblue" points="40.5464,-194.335 32.3246,-187.652 34.5848,-198.003 40.5464,-194.335"/>
</g>
<!-- Node4 -->
<g id="node4" class="node"><title>Node4</title>
<g id="a_node4"><a xlink:href="grid_8hh.html" target="_top" xlink:title="grid.hh">
<polygon fill="none" stroke="black" points="84,-168.5 84,-187.5 130,-187.5 130,-168.5 84,-168.5"/>
<text text-anchor="middle" x="107" y="-175.5" font-family="Helvetica,sans-Serif" font-size="10.00">grid.hh</text>
</a>
</g>
</g>
<!-- Node1&#45;&gt;Node4 -->
<g id="edge3" class="edge"><title>Node1&#45;&gt;Node4</title>
<path fill="none" stroke="midnightblue" d="M79.0013,-224.498C84.5444,-215.49 91.0689,-204.888 96.4245,-196.185"/>
<polygon fill="midnightblue" stroke="midnightblue" points="99.4152,-198.003 101.675,-187.652 93.4536,-194.335 99.4152,-198.003"/>
</g>
<!-- Node3 -->
<g id="node3" class="node"><title>Node3</title>
<polygon fill="none" stroke="#bfbfbf" points="19,-0.5 19,-19.5 87,-19.5 87,-0.5 19,-0.5"/>
<text text-anchor="middle" x="53" y="-7.5" font-family="Helvetica,sans-Serif" font-size="10.00">blitz/array.h</text>
</g>
<!-- Node2&#45;&gt;Node3 -->
<g id="edge2" class="edge"><title>Node2&#45;&gt;Node3</title>
<path fill="none" stroke="midnightblue" d="M27.255,-168.403C27.976,-148.461 30.5605,-97.5833 39,-56 40.8104,-47.0796 43.6913,-37.4139 46.3703,-29.3354"/>
<polygon fill="midnightblue" stroke="midnightblue" points="49.6984,-30.4207 49.6688,-19.8259 43.0849,-28.1267 49.6984,-30.4207"/>
</g>
<!-- Node4&#45;&gt;Node3 -->
<g id="edge6" class="edge"><title>Node4&#45;&gt;Node3</title>
<path fill="none" stroke="midnightblue" d="M97.9575,-168.252C89.7873,-159.781 78.1318,-146.17 72,-132 57.2735,-97.9683 53.7937,-54.155 53.0717,-29.6773"/>
<polygon fill="midnightblue" stroke="midnightblue" points="56.5703,-29.5578 52.9025,-19.6181 49.5713,-29.6756 56.5703,-29.5578"/>
</g>
<!-- Node5 -->
<g id="node5" class="node"><title>Node5</title>
<polygon fill="none" stroke="#bfbfbf" points="81,-112.5 81,-131.5 133,-131.5 133,-112.5 81,-112.5"/>
<text text-anchor="middle" x="107" y="-119.5" font-family="Helvetica,sans-Serif" font-size="10.00">stddef.h</text>
</g>
<!-- Node4&#45;&gt;Node5 -->
<g id="edge4" class="edge"><title>Node4&#45;&gt;Node5</title>
<path fill="none" stroke="midnightblue" d="M107,-168.083C107,-161.006 107,-150.861 107,-141.986"/>
<polygon fill="midnightblue" stroke="midnightblue" points="110.5,-141.751 107,-131.751 103.5,-141.751 110.5,-141.751"/>
</g>
<!-- Node6 -->
<g id="node6" class="node"><title>Node6</title>
<polygon fill="none" stroke="#bfbfbf" points="151.5,-112.5 151.5,-131.5 200.5,-131.5 200.5,-112.5 151.5,-112.5"/>
<text text-anchor="middle" x="176" y="-119.5" font-family="Helvetica,sans-Serif" font-size="10.00">istream</text>
</g>
<!-- Node4&#45;&gt;Node6 -->
<g id="edge5" class="edge"><title>Node4&#45;&gt;Node6</title>
<path fill="none" stroke="midnightblue" d="M118.086,-168.324C128.486,-160.185 144.261,-147.839 156.722,-138.087"/>
<polygon fill="midnightblue" stroke="midnightblue" points="158.994,-140.753 164.712,-131.834 154.68,-135.241 158.994,-140.753"/>
</g>
<!-- Node7 -->
<g id="node7" class="node"><title>Node7</title>
<g id="a_node7"><a xlink:href="validators_8hh.html" target="_top" xlink:title="validators.hh">
<polygon fill="none" stroke="black" points="219,-112.5 219,-131.5 291,-131.5 291,-112.5 219,-112.5"/>
<text text-anchor="middle" x="255" y="-119.5" font-family="Helvetica,sans-Serif" font-size="10.00">validators.hh</text>
</a>
</g>
</g>
<!-- Node4&#45;&gt;Node7 -->
<g id="edge7" class="edge"><title>Node4&#45;&gt;Node7</title>
<path fill="none" stroke="midnightblue" d="M130.125,-168.562C154.743,-159.58 193.922,-145.285 221.826,-135.104"/>
<polygon fill="midnightblue" stroke="midnightblue" points="223.354,-138.272 231.549,-131.556 220.955,-131.696 223.354,-138.272"/>
</g>
<!-- Node8 -->
<g id="node8" class="node"><title>Node8</title>
<polygon fill="none" stroke="#bfbfbf" points="153.5,-56.5 153.5,-75.5 212.5,-75.5 212.5,-56.5 153.5,-56.5"/>
<text text-anchor="middle" x="183" y="-63.5" font-family="Helvetica,sans-Serif" font-size="10.00">stdexcept</text>
</g>
<!-- Node7&#45;&gt;Node8 -->
<g id="edge8" class="edge"><title>Node7&#45;&gt;Node8</title>
<path fill="none" stroke="midnightblue" d="M243.432,-112.324C232.58,-104.185 216.119,-91.8395 203.117,-82.0874"/>
<polygon fill="midnightblue" stroke="midnightblue" points="204.879,-79.0339 194.779,-75.8339 200.679,-84.6339 204.879,-79.0339"/>
</g>
<!-- Node9 -->
<g id="node9" class="node"><title>Node9</title>
<g id="a_node9"><a xlink:href="blitz_8hh.html" target="_top" xlink:title="blitz.hh">
<polygon fill="none" stroke="black" points="231,-56.5 231,-75.5 279,-75.5 279,-56.5 231,-56.5"/>
<text text-anchor="middle" x="255" y="-63.5" font-family="Helvetica,sans-Serif" font-size="10.00">blitz.hh</text>
</a>
</g>
</g>
<!-- Node7&#45;&gt;Node9 -->
<g id="edge9" class="edge"><title>Node7&#45;&gt;Node9</title>
<path fill="none" stroke="midnightblue" d="M255,-112.083C255,-105.006 255,-94.8611 255,-85.9865"/>
<polygon fill="midnightblue" stroke="midnightblue" points="258.5,-85.751 255,-75.7511 251.5,-85.7511 258.5,-85.751"/>
</g>
<!-- Node9&#45;&gt;Node3 -->
<g id="edge12" class="edge"><title>Node9&#45;&gt;Node3</title>
<path fill="none" stroke="midnightblue" d="M230.634,-58.4863C196.996,-49.4939 135.845,-33.1467 94.8201,-22.1796"/>
<polygon fill="midnightblue" stroke="midnightblue" points="95.6742,-18.7851 85.1095,-19.5837 93.8663,-25.5477 95.6742,-18.7851"/>
</g>
<!-- Node10 -->
<g id="node10" class="node"><title>Node10</title>
<polygon fill="none" stroke="#bfbfbf" points="199,-0.5 199,-19.5 243,-19.5 243,-0.5 199,-0.5"/>
<text text-anchor="middle" x="221" y="-7.5" font-family="Helvetica,sans-Serif" font-size="10.00">cmath</text>
</g>
<!-- Node9&#45;&gt;Node10 -->
<g id="edge10" class="edge"><title>Node9&#45;&gt;Node10</title>
<path fill="none" stroke="midnightblue" d="M249.386,-56.083C244.633,-48.5341 237.682,-37.4948 231.848,-28.2298"/>
<polygon fill="midnightblue" stroke="midnightblue" points="234.8,-26.3486 226.51,-19.7511 228.876,-30.0783 234.8,-26.3486"/>
</g>
<!-- Node11 -->
<g id="node11" class="node"><title>Node11</title>
<polygon fill="none" stroke="#bfbfbf" points="261,-0.5 261,-19.5 317,-19.5 317,-0.5 261,-0.5"/>
<text text-anchor="middle" x="289" y="-7.5" font-family="Helvetica,sans-Serif" font-size="10.00">algorithm</text>
</g>
<!-- Node9&#45;&gt;Node11 -->
<g id="edge11" class="edge"><title>Node9&#45;&gt;Node11</title>
<path fill="none" stroke="midnightblue" d="M260.614,-56.083C265.367,-48.5341 272.318,-37.4948 278.152,-28.2298"/>
<polygon fill="midnightblue" stroke="midnightblue" points="281.124,-30.0783 283.49,-19.7511 275.2,-26.3486 281.124,-30.0783"/>
</g>
</g>
</svg>
