<?xml version="1.0" encoding="UTF-8" standalone="no"?>
<!DOCTYPE svg PUBLIC "-//W3C//DTD SVG 1.1//EN"
 "http://www.w3.org/Graphics/SVG/1.1/DTD/svg11.dtd">
<!-- Generated by graphviz version 2.40.1 (20161225.0304)
 -->
<!-- Title: src/discrete_function.hh Pages: 1 -->
<svg width="255pt" height="252pt"
 viewBox="0.00 0.00 254.50 252.00" xmlns="http://www.w3.org/2000/svg" xmlns:xlink="http://www.w3.org/1999/xlink">
<g id="graph0" class="graph" transform="scale(1 1) rotate(0) translate(4 248)">
<title>src/discrete_function.hh</title>
<!-- Node0 -->
<g id="node1" class="node">
<title>Node0</title>
<polygon fill="#bfbfbf" stroke="#000000" points="83.5,-224.5 83.5,-243.5 204.5,-243.5 204.5,-224.5 83.5,-224.5"/>
<text text-anchor="middle" x="144" y="-231.5" font-family="Helvetica,sans-Serif" font-size="10.00" fill="#000000">src/discrete_function.hh</text>
</g>
<!-- Node1 -->
<g id="node2" class="node">
<title>Node1</title>
<g id="a_node2"><a xlink:href="grid_8hh.html" target="_top" xlink:title="grid.hh">
<polygon fill="none" stroke="#000000" points="87,-168.5 87,-187.5 133,-187.5 133,-168.5 87,-168.5"/>
<text text-anchor="middle" x="110" y="-175.5" font-family="Helvetica,sans-Serif" font-size="10.00" fill="#000000">grid.hh</text>
</a>
</g>
</g>
<!-- Node0&#45;&gt;Node1 -->
<g id="edge1" class="edge">
<title>Node0&#45;&gt;Node1</title>
<path fill="none" stroke="#191970" d="M138.0777,-224.2455C133.3973,-216.5367 126.7327,-205.5598 121.0711,-196.2348"/>
<polygon fill="#191970" stroke="#191970" points="124.0361,-194.3741 115.8545,-187.6427 118.0525,-198.007 124.0361,-194.3741"/>
</g>
<!-- Node9 -->
<g id="node10" class="node">
<title>Node9</title>
<g id="a_node10"><a xlink:href="types_8hh.html" target="_top" xlink:title="types.hh">
<polygon fill="none" stroke="#000000" points="181,-168.5 181,-187.5 235,-187.5 235,-168.5 181,-168.5"/>
<text text-anchor="middle" x="208" y="-175.5" font-family="Helvetica,sans-Serif" font-size="10.00" fill="#000000">types.hh</text>
</a>
</g>
</g>
<!-- Node0&#45;&gt;Node9 -->
<g id="edge11" class="edge">
<title>Node0&#45;&gt;Node9</title>
<path fill="none" stroke="#191970" d="M155.1479,-224.2455C164.5087,-216.0549 178.0858,-204.1749 189.1349,-194.5069"/>
<polygon fill="#191970" stroke="#191970" points="191.7588,-196.8618 196.9798,-187.6427 187.1492,-191.5937 191.7588,-196.8618"/>
</g>
<!-- Node2 -->
<g id="node3" class="node">
<title>Node2</title>
<polygon fill="none" stroke="#bfbfbf" points="0,-.5 0,-19.5 44,-19.5 44,-.5 0,-.5"/>
<text text-anchor="middle" x="22" y="-7.5" font-family="Helvetica,sans-Serif" font-size="10.00" fill="#000000">cmath</text>
</g>
<!-- Node1&#45;&gt;Node2 -->
<g id="edge2" class="edge">
<title>Node1&#45;&gt;Node2</title>
<path fill="none" stroke="#191970" d="M86.8846,-172.8516C66.1247,-166.8736 36.8475,-154.7739 23,-132 3.8281,-100.4694 10.2876,-55.3518 16.3713,-29.7433"/>
<polygon fill="#191970" stroke="#191970" points="19.837,-30.3221 18.9631,-19.7634 13.0618,-28.5625 19.837,-30.3221"/>
</g>
<!-- Node3 -->
<g id="node4" class="node">
<title>Node3</title>
<polygon fill="none" stroke="#bfbfbf" points="32.5,-112.5 32.5,-131.5 81.5,-131.5 81.5,-112.5 32.5,-112.5"/>
<text text-anchor="middle" x="57" y="-119.5" font-family="Helvetica,sans-Serif" font-size="10.00" fill="#000000">istream</text>
</g>
<!-- Node1&#45;&gt;Node3 -->
<g id="edge3" class="edge">
<title>Node1&#45;&gt;Node3</title>
<path fill="none" stroke="#191970" d="M100.7681,-168.2455C93.1683,-160.2155 82.2123,-148.6394 73.1632,-139.0781"/>
<polygon fill="#191970" stroke="#191970" points="75.542,-136.4998 66.1261,-131.6427 70.4579,-141.3115 75.542,-136.4998"/>
</g>
<!-- Node4 -->
<g id="node5" class="node">
<title>Node4</title>
<g id="a_node5"><a xlink:href="blitz_8hh.html" target="_top" xlink:title="blitz.hh">
<polygon fill="none" stroke="#000000" points="84,-56.5 84,-75.5 132,-75.5 132,-56.5 84,-56.5"/>
<text text-anchor="middle" x="108" y="-63.5" font-family="Helvetica,sans-Serif" font-size="10.00" fill="#000000">blitz.hh</text>
</a>
</g>
</g>
<!-- Node1&#45;&gt;Node4 -->
<g id="edge4" class="edge">
<title>Node1&#45;&gt;Node4</title>
<path fill="none" stroke="#191970" d="M109.8295,-168.4509C109.5033,-150.184 108.7849,-109.9553 108.3517,-85.6976"/>
<polygon fill="#191970" stroke="#191970" points="111.8482,-85.4608 108.1701,-75.5249 104.8493,-85.5858 111.8482,-85.4608"/>
</g>
<!-- Node7 -->
<g id="node8" class="node">
<title>Node7</title>
<g id="a_node8"><a xlink:href="validators_8hh.html" target="_top" xlink:title="validators.hh">
<polygon fill="none" stroke="#000000" points="138,-112.5 138,-131.5 210,-131.5 210,-112.5 138,-112.5"/>
<text text-anchor="middle" x="174" y="-119.5" font-family="Helvetica,sans-Serif" font-size="10.00" fill="#000000">validators.hh</text>
</a>
</g>
</g>
<!-- Node1&#45;&gt;Node7 -->
<g id="edge8" class="edge">
<title>Node1&#45;&gt;Node7</title>
<path fill="none" stroke="#191970" d="M121.1479,-168.2455C130.5087,-160.0549 144.0858,-148.1749 155.1349,-138.5069"/>
<polygon fill="#191970" stroke="#191970" points="157.7588,-140.8618 162.9798,-131.6427 153.1492,-135.5937 157.7588,-140.8618"/>
</g>
<!-- Node4&#45;&gt;Node2 -->
<g id="edge7" class="edge">
<title>Node4&#45;&gt;Node2</title>
<path fill="none" stroke="#191970" d="M93.0199,-56.2455C79.8249,-47.6534 60.3949,-35.0014 45.1921,-25.1018"/>
<polygon fill="#191970" stroke="#191970" points="47.0983,-22.1665 36.8084,-19.6427 43.2785,-28.0325 47.0983,-22.1665"/>
</g>
<!-- Node5 -->
<g id="node6" class="node">
<title>Node5</title>
<polygon fill="none" stroke="#bfbfbf" points="80,-.5 80,-19.5 136,-19.5 136,-.5 80,-.5"/>
<text text-anchor="middle" x="108" y="-7.5" font-family="Helvetica,sans-Serif" font-size="10.00" fill="#000000">algorithm</text>
</g>
<!-- Node4&#45;&gt;Node5 -->
<g id="edge5" class="edge">
<title>Node4&#45;&gt;Node5</title>
<path fill="none" stroke="#191970" d="M108,-56.2455C108,-48.9382 108,-38.6944 108,-29.7046"/>
<polygon fill="#191970" stroke="#191970" points="111.5001,-29.6426 108,-19.6427 104.5001,-29.6427 111.5001,-29.6426"/>
</g>
<!-- Node6 -->
<g id="node7" class="node">
<title>Node6</title>
<polygon fill="none" stroke="#bfbfbf" points="179.5,-.5 179.5,-19.5 246.5,-19.5 246.5,-.5 179.5,-.5"/>
<text text-anchor="middle" x="213" y="-7.5" font-family="Helvetica,sans-Serif" font-size="10.00" fill="#000000">blitz/array.h</text>
</g>
<!-- Node4&#45;&gt;Node6 -->
<g id="edge6" class="edge">
<title>Node4&#45;&gt;Node6</title>
<path fill="none" stroke="#191970" d="M126.2896,-56.2455C142.7762,-47.4527 167.2352,-34.4079 185.9765,-24.4125"/>
<polygon fill="#191970" stroke="#191970" points="187.7435,-27.4368 194.92,-19.6427 184.4494,-21.2604 187.7435,-27.4368"/>
</g>
<!-- Node7&#45;&gt;Node4 -->
<g id="edge10" class="edge">
<title>Node7&#45;&gt;Node4</title>
<path fill="none" stroke="#191970" d="M162.5037,-112.2455C152.7558,-103.9746 138.5741,-91.9416 127.1202,-82.2232"/>
<polygon fill="#191970" stroke="#191970" points="129.2541,-79.4437 119.3646,-75.6427 124.7253,-84.7813 129.2541,-79.4437"/>
</g>
<!-- Node8 -->
<g id="node9" class="node">
<title>Node8</title>
<polygon fill="none" stroke="#bfbfbf" points="150.5,-56.5 150.5,-75.5 209.5,-75.5 209.5,-56.5 150.5,-56.5"/>
<text text-anchor="middle" x="180" y="-63.5" font-family="Helvetica,sans-Serif" font-size="10.00" fill="#000000">stdexcept</text>
</g>
<!-- Node7&#45;&gt;Node8 -->
<g id="edge9" class="edge">
<title>Node7&#45;&gt;Node8</title>
<path fill="none" stroke="#191970" d="M175.0451,-112.2455C175.828,-104.9382 176.9256,-94.6944 177.8888,-85.7046"/>
<polygon fill="#191970" stroke="#191970" points="181.3815,-85.9587 178.9669,-75.6427 174.4214,-85.2129 181.3815,-85.9587"/>
</g>
<!-- Node9&#45;&gt;Node6 -->
<g id="edge12" class="edge">
<title>Node9&#45;&gt;Node6</title>
<path fill="none" stroke="#191970" d="M211.0375,-168.2499C213.7435,-159.0202 217.5001,-144.7215 219,-132 222.9551,-98.4546 221.189,-89.7068 219,-56 218.4402,-47.3805 217.2964,-37.9095 216.1561,-29.8133"/>
<polygon fill="#191970" stroke="#191970" points="219.604,-29.2041 214.6586,-19.8343 212.6815,-30.243 219.604,-29.2041"/>
</g>
</g>
</svg>
