<?xml version="1.0" encoding="UTF-8" standalone="no"?>
<!DOCTYPE svg PUBLIC "-//W3C//DTD SVG 1.1//EN"
 "http://www.w3.org/Graphics/SVG/1.1/DTD/svg11.dtd">
<!-- Generated by graphviz version 2.36.0 (20140111.2315)
 -->
<!-- Title: /home/travis/build/igankevich/arma/src/stats/distribution.hh Pages: 1 -->
<svg width="509pt" height="274pt"
 viewBox="0.00 0.00 509.00 274.00" xmlns="http://www.w3.org/2000/svg" xmlns:xlink="http://www.w3.org/1999/xlink">
<g id="graph0" class="graph" transform="scale(1 1) rotate(0) translate(4 270)">
<title>/home/travis/build/igankevich/arma/src/stats/distribution.hh</title>
<!-- Node1 -->
<g id="node1" class="node"><title>Node1</title>
<polygon fill="#bfbfbf" stroke="black" points="95.5,-224.5 95.5,-265.5 202.5,-265.5 202.5,-224.5 95.5,-224.5"/>
<text text-anchor="start" x="103.5" y="-253.5" font-family="Helvetica,sans-Serif" font-size="10.00">/home/travis/build</text>
<text text-anchor="start" x="103.5" y="-242.5" font-family="Helvetica,sans-Serif" font-size="10.00">/igankevich/arma/src</text>
<text text-anchor="middle" x="149" y="-231.5" font-family="Helvetica,sans-Serif" font-size="10.00">/stats/distribution.hh</text>
</g>
<!-- Node2 -->
<g id="node2" class="node"><title>Node2</title>
<g id="a_node2"><a xlink:href="gaussian_8hh.html" target="_top" xlink:title="gaussian.hh">
<polygon fill="none" stroke="black" points="78.5,-112.5 78.5,-131.5 147.5,-131.5 147.5,-112.5 78.5,-112.5"/>
<text text-anchor="middle" x="113" y="-119.5" font-family="Helvetica,sans-Serif" font-size="10.00">gaussian.hh</text>
</a>
</g>
</g>
<!-- Node1&#45;&gt;Node2 -->
<g id="edge1" class="edge"><title>Node1&#45;&gt;Node2</title>
<path fill="none" stroke="midnightblue" d="M142.971,-224.318C139.698,-213.59 135.597,-200.074 132,-188 127.332,-172.331 122.129,-154.505 118.349,-141.489"/>
<polygon fill="midnightblue" stroke="midnightblue" points="121.698,-140.47 115.553,-131.84 114.975,-142.419 121.698,-140.47"/>
</g>
<!-- Node6 -->
<g id="node6" class="node"><title>Node6</title>
<g id="a_node6"><a xlink:href="weibull_8hh.html" target="_top" xlink:title="weibull.hh">
<polygon fill="none" stroke="black" points="0,-112.5 0,-131.5 60,-131.5 60,-112.5 0,-112.5"/>
<text text-anchor="middle" x="30" y="-119.5" font-family="Helvetica,sans-Serif" font-size="10.00">weibull.hh</text>
</a>
</g>
</g>
<!-- Node1&#45;&gt;Node6 -->
<g id="edge5" class="edge"><title>Node1&#45;&gt;Node6</title>
<path fill="none" stroke="midnightblue" d="M129.616,-224.29C106.153,-200.433 67.1134,-160.737 45.5327,-138.794"/>
<polygon fill="midnightblue" stroke="midnightblue" points="47.9404,-136.25 38.4331,-131.575 42.9496,-141.159 47.9404,-136.25"/>
</g>
<!-- Node7 -->
<g id="node7" class="node"><title>Node7</title>
<g id="a_node7"><a xlink:href="gram__charlier_8hh.html" target="_top" xlink:title="gram_charlier.hh">
<polygon fill="none" stroke="black" points="357.5,-112.5 357.5,-131.5 446.5,-131.5 446.5,-112.5 357.5,-112.5"/>
<text text-anchor="middle" x="402" y="-119.5" font-family="Helvetica,sans-Serif" font-size="10.00">gram_charlier.hh</text>
</a>
</g>
</g>
<!-- Node1&#45;&gt;Node7 -->
<g id="edge9" class="edge"><title>Node1&#45;&gt;Node7</title>
<path fill="none" stroke="midnightblue" d="M189.93,-224.425C241.938,-199.552 330.272,-157.305 374.728,-136.043"/>
<polygon fill="midnightblue" stroke="midnightblue" points="376.515,-139.068 384.027,-131.596 373.495,-132.753 376.515,-139.068"/>
</g>
<!-- Node10 -->
<g id="node10" class="node"><title>Node10</title>
<g id="a_node10"><a xlink:href="skew__normal_8hh.html" target="_top" xlink:title="skew_normal.hh">
<polygon fill="none" stroke="black" points="141,-168.5 141,-187.5 229,-187.5 229,-168.5 141,-168.5"/>
<text text-anchor="middle" x="185" y="-175.5" font-family="Helvetica,sans-Serif" font-size="10.00">skew_normal.hh</text>
</a>
</g>
</g>
<!-- Node1&#45;&gt;Node10 -->
<g id="edge15" class="edge"><title>Node1&#45;&gt;Node10</title>
<path fill="none" stroke="midnightblue" d="M159.801,-224.498C164.737,-215.586 170.537,-205.113 175.328,-196.464"/>
<polygon fill="midnightblue" stroke="midnightblue" points="178.425,-198.096 180.208,-187.652 172.301,-194.705 178.425,-198.096"/>
</g>
<!-- Node3 -->
<g id="node3" class="node"><title>Node3</title>
<polygon fill="none" stroke="#bfbfbf" points="173.5,-56.5 173.5,-75.5 222.5,-75.5 222.5,-56.5 173.5,-56.5"/>
<text text-anchor="middle" x="198" y="-63.5" font-family="Helvetica,sans-Serif" font-size="10.00">istream</text>
</g>
<!-- Node2&#45;&gt;Node3 -->
<g id="edge2" class="edge"><title>Node2&#45;&gt;Node3</title>
<path fill="none" stroke="midnightblue" d="M126.657,-112.324C139.916,-103.9 160.268,-90.9709 175.846,-81.0741"/>
<polygon fill="midnightblue" stroke="midnightblue" points="177.813,-83.9711 184.377,-75.6545 174.06,-78.0626 177.813,-83.9711"/>
</g>
<!-- Node4 -->
<g id="node4" class="node"><title>Node4</title>
<polygon fill="none" stroke="#bfbfbf" points="95,-56.5 95,-75.5 147,-75.5 147,-56.5 95,-56.5"/>
<text text-anchor="middle" x="121" y="-63.5" font-family="Helvetica,sans-Serif" font-size="10.00">ostream</text>
</g>
<!-- Node2&#45;&gt;Node4 -->
<g id="edge3" class="edge"><title>Node2&#45;&gt;Node4</title>
<path fill="none" stroke="midnightblue" d="M114.321,-112.083C115.381,-104.927 116.906,-94.6353 118.231,-85.6911"/>
<polygon fill="midnightblue" stroke="midnightblue" points="121.7,-86.1561 119.704,-75.7511 114.776,-85.1302 121.7,-86.1561"/>
</g>
<!-- Node5 -->
<g id="node5" class="node"><title>Node5</title>
<polygon fill="none" stroke="#bfbfbf" points="4,-56.5 4,-75.5 76,-75.5 76,-56.5 4,-56.5"/>
<text text-anchor="middle" x="40" y="-63.5" font-family="Helvetica,sans-Serif" font-size="10.00">gsl/gsl_cdf.h</text>
</g>
<!-- Node2&#45;&gt;Node5 -->
<g id="edge4" class="edge"><title>Node2&#45;&gt;Node5</title>
<path fill="none" stroke="midnightblue" d="M101.271,-112.324C90.1626,-104.107 73.2578,-91.6017 60.0167,-81.8069"/>
<polygon fill="midnightblue" stroke="midnightblue" points="62.0631,-78.9671 51.9421,-75.8339 57.9001,-84.5948 62.0631,-78.9671"/>
</g>
<!-- Node6&#45;&gt;Node3 -->
<g id="edge6" class="edge"><title>Node6&#45;&gt;Node3</title>
<path fill="none" stroke="midnightblue" d="M56.6201,-112.444C85.5901,-103.132 132.002,-88.2137 163.688,-78.0289"/>
<polygon fill="midnightblue" stroke="midnightblue" points="164.968,-81.2938 173.417,-74.9015 162.826,-74.6296 164.968,-81.2938"/>
</g>
<!-- Node6&#45;&gt;Node4 -->
<g id="edge7" class="edge"><title>Node6&#45;&gt;Node4</title>
<path fill="none" stroke="midnightblue" d="M44.6207,-112.324C58.9489,-103.822 81.0125,-90.7288 97.7487,-80.7975"/>
<polygon fill="midnightblue" stroke="midnightblue" points="99.6018,-83.7677 106.416,-75.6545 96.0296,-77.7478 99.6018,-83.7677"/>
</g>
<!-- Node6&#45;&gt;Node5 -->
<g id="edge8" class="edge"><title>Node6&#45;&gt;Node5</title>
<path fill="none" stroke="midnightblue" d="M31.6513,-112.083C32.9764,-104.927 34.8824,-94.6353 36.5387,-85.6911"/>
<polygon fill="midnightblue" stroke="midnightblue" points="39.9999,-86.2212 38.3794,-75.7511 33.117,-84.9466 39.9999,-86.2212"/>
</g>
<!-- Node7&#45;&gt;Node3 -->
<g id="edge10" class="edge"><title>Node7&#45;&gt;Node3</title>
<path fill="none" stroke="midnightblue" d="M369.676,-112.444C332.239,-102.534 270.814,-86.2743 232.483,-76.1278"/>
<polygon fill="midnightblue" stroke="midnightblue" points="233.356,-72.7386 222.794,-73.5631 231.565,-79.5055 233.356,-72.7386"/>
</g>
<!-- Node7&#45;&gt;Node4 -->
<g id="edge11" class="edge"><title>Node7&#45;&gt;Node4</title>
<path fill="none" stroke="midnightblue" d="M357.207,-112.799C309.33,-103.971 231.224,-89.3889 164,-76 161.812,-75.5642 159.563,-75.1105 157.295,-74.6487"/>
<polygon fill="midnightblue" stroke="midnightblue" points="157.863,-71.1924 147.362,-72.6023 156.45,-78.0484 157.863,-71.1924"/>
</g>
<!-- Node8 -->
<g id="node8" class="node"><title>Node8</title>
<polygon fill="none" stroke="#bfbfbf" points="379,-0.5 379,-19.5 423,-19.5 423,-0.5 379,-0.5"/>
<text text-anchor="middle" x="401" y="-7.5" font-family="Helvetica,sans-Serif" font-size="10.00">cmath</text>
</g>
<!-- Node7&#45;&gt;Node8 -->
<g id="edge12" class="edge"><title>Node7&#45;&gt;Node8</title>
<path fill="none" stroke="midnightblue" d="M395.633,-112.232C389.74,-103.532 381.393,-89.5719 378,-76 373.882,-59.5278 381.388,-41.3542 388.902,-28.4217"/>
<polygon fill="midnightblue" stroke="midnightblue" points="392.053,-29.9874 394.456,-19.6686 386.143,-26.2367 392.053,-29.9874"/>
</g>
<!-- Node9 -->
<g id="node9" class="node"><title>Node9</title>
<g id="a_node9"><a xlink:href="physical__constants_8hh.html" target="_top" xlink:title="physical_constants.hh">
<polygon fill="none" stroke="black" points="387,-56.5 387,-75.5 501,-75.5 501,-56.5 387,-56.5"/>
<text text-anchor="middle" x="444" y="-63.5" font-family="Helvetica,sans-Serif" font-size="10.00">physical_constants.hh</text>
</a>
</g>
</g>
<!-- Node7&#45;&gt;Node9 -->
<g id="edge13" class="edge"><title>Node7&#45;&gt;Node9</title>
<path fill="none" stroke="midnightblue" d="M408.935,-112.083C414.929,-104.377 423.752,-93.0333 431.048,-83.6531"/>
<polygon fill="midnightblue" stroke="midnightblue" points="433.817,-85.7934 437.194,-75.7511 428.291,-81.4958 433.817,-85.7934"/>
</g>
<!-- Node9&#45;&gt;Node8 -->
<g id="edge14" class="edge"><title>Node9&#45;&gt;Node8</title>
<path fill="none" stroke="midnightblue" d="M436.899,-56.083C430.763,-48.3768 421.73,-37.0333 414.261,-27.6531"/>
<polygon fill="midnightblue" stroke="midnightblue" points="416.936,-25.3936 407.968,-19.7511 411.46,-29.7542 416.936,-25.3936"/>
</g>
<!-- Node10&#45;&gt;Node2 -->
<g id="edge18" class="edge"><title>Node10&#45;&gt;Node2</title>
<path fill="none" stroke="midnightblue" d="M173.432,-168.324C162.58,-160.185 146.119,-147.839 133.117,-138.087"/>
<polygon fill="midnightblue" stroke="midnightblue" points="134.879,-135.034 124.779,-131.834 130.679,-140.634 134.879,-135.034"/>
</g>
<!-- Node10&#45;&gt;Node3 -->
<g id="edge16" class="edge"><title>Node10&#45;&gt;Node3</title>
<path fill="none" stroke="midnightblue" d="M186.02,-168.368C188.118,-150.617 192.958,-109.666 195.802,-85.5974"/>
<polygon fill="midnightblue" stroke="midnightblue" points="199.287,-85.9331 196.985,-75.5914 192.335,-85.1115 199.287,-85.9331"/>
</g>
<!-- Node10&#45;&gt;Node4 -->
<g id="edge17" class="edge"><title>Node10&#45;&gt;Node4</title>
<path fill="none" stroke="midnightblue" d="M181.875,-168.258C177.131,-155.46 167.442,-131.074 156,-112 149.954,-101.921 141.986,-91.5102 135.18,-83.2437"/>
<polygon fill="midnightblue" stroke="midnightblue" points="137.768,-80.8838 128.637,-75.5094 132.424,-85.4046 137.768,-80.8838"/>
</g>
<!-- Node11 -->
<g id="node11" class="node"><title>Node11</title>
<g id="a_node11"><a xlink:href="owen__t_8hh.html" target="_top" xlink:title="apmath/owen_t.hh">
<polygon fill="none" stroke="black" points="242.5,-112.5 242.5,-131.5 339.5,-131.5 339.5,-112.5 242.5,-112.5"/>
<text text-anchor="middle" x="291" y="-119.5" font-family="Helvetica,sans-Serif" font-size="10.00">apmath/owen_t.hh</text>
</a>
</g>
</g>
<!-- Node10&#45;&gt;Node11 -->
<g id="edge19" class="edge"><title>Node10&#45;&gt;Node11</title>
<path fill="none" stroke="midnightblue" d="M202.031,-168.324C219.03,-159.664 245.376,-146.242 264.993,-136.249"/>
<polygon fill="midnightblue" stroke="midnightblue" points="266.69,-139.312 274.012,-131.655 263.512,-133.075 266.69,-139.312"/>
</g>
</g>
</svg>
