<?xml version="1.0" encoding="UTF-8" standalone="no"?>
<!DOCTYPE svg PUBLIC "-//W3C//DTD SVG 1.1//EN"
 "http://www.w3.org/Graphics/SVG/1.1/DTD/svg11.dtd">
<!-- Generated by graphviz version 2.36.0 (20140111.2315)
 -->
<!-- Title: /home/travis/build/igankevich/arma/src/domain.hh Pages: 1 -->
<svg width="502pt" height="218pt"
 viewBox="0.00 0.00 502.00 218.00" xmlns="http://www.w3.org/2000/svg" xmlns:xlink="http://www.w3.org/1999/xlink">
<g id="graph0" class="graph" transform="scale(1 1) rotate(0) translate(4 214)">
<title>/home/travis/build/igankevich/arma/src/domain.hh</title>
<!-- Node1 -->
<g id="node1" class="node"><title>Node1</title>
<polygon fill="#bfbfbf" stroke="black" points="140.5,-168.5 140.5,-209.5 247.5,-209.5 247.5,-168.5 140.5,-168.5"/>
<text text-anchor="start" x="148.5" y="-197.5" font-family="Helvetica,sans-Serif" font-size="10.00">/home/travis/build</text>
<text text-anchor="start" x="148.5" y="-186.5" font-family="Helvetica,sans-Serif" font-size="10.00">/igankevich/arma/src</text>
<text text-anchor="middle" x="194" y="-175.5" font-family="Helvetica,sans-Serif" font-size="10.00">/domain.hh</text>
</g>
<!-- Node2 -->
<g id="node2" class="node"><title>Node2</title>
<polygon fill="none" stroke="#bfbfbf" points="-0.5,-112.5 -0.5,-131.5 48.5,-131.5 48.5,-112.5 -0.5,-112.5"/>
<text text-anchor="middle" x="24" y="-119.5" font-family="Helvetica,sans-Serif" font-size="10.00">cstddef</text>
</g>
<!-- Node1&#45;&gt;Node2 -->
<g id="edge1" class="edge"><title>Node1&#45;&gt;Node2</title>
<path fill="none" stroke="midnightblue" d="M142.994,-168.498C114.8,-157.718 80.6311,-144.653 56.1539,-135.294"/>
<polygon fill="midnightblue" stroke="midnightblue" points="57.2201,-131.955 46.6296,-131.652 54.7201,-138.493 57.2201,-131.955"/>
</g>
<!-- Node3 -->
<g id="node3" class="node"><title>Node3</title>
<polygon fill="none" stroke="#bfbfbf" points="66.5,-112.5 66.5,-131.5 115.5,-131.5 115.5,-112.5 66.5,-112.5"/>
<text text-anchor="middle" x="91" y="-119.5" font-family="Helvetica,sans-Serif" font-size="10.00">istream</text>
</g>
<!-- Node1&#45;&gt;Node3 -->
<g id="edge2" class="edge"><title>Node1&#45;&gt;Node3</title>
<path fill="none" stroke="midnightblue" d="M163.097,-168.498C147.153,-158.436 128.056,-146.385 113.523,-137.214"/>
<polygon fill="midnightblue" stroke="midnightblue" points="115.036,-134.029 104.711,-131.652 111.3,-139.949 115.036,-134.029"/>
</g>
<!-- Node4 -->
<g id="node4" class="node"><title>Node4</title>
<polygon fill="none" stroke="#bfbfbf" points="134,-112.5 134,-131.5 186,-131.5 186,-112.5 134,-112.5"/>
<text text-anchor="middle" x="160" y="-119.5" font-family="Helvetica,sans-Serif" font-size="10.00">ostream</text>
</g>
<!-- Node1&#45;&gt;Node4 -->
<g id="edge3" class="edge"><title>Node1&#45;&gt;Node4</title>
<path fill="none" stroke="midnightblue" d="M183.799,-168.498C179.188,-159.682 173.777,-149.339 169.281,-140.743"/>
<polygon fill="midnightblue" stroke="midnightblue" points="172.262,-138.891 164.526,-131.652 166.06,-142.136 172.262,-138.891"/>
</g>
<!-- Node5 -->
<g id="node5" class="node"><title>Node5</title>
<polygon fill="none" stroke="#bfbfbf" points="204,-112.5 204,-131.5 254,-131.5 254,-112.5 204,-112.5"/>
<text text-anchor="middle" x="229" y="-119.5" font-family="Helvetica,sans-Serif" font-size="10.00">iomanip</text>
</g>
<!-- Node1&#45;&gt;Node5 -->
<g id="edge4" class="edge"><title>Node1&#45;&gt;Node5</title>
<path fill="none" stroke="midnightblue" d="M204.501,-168.498C209.3,-159.586 214.939,-149.113 219.597,-140.464"/>
<polygon fill="midnightblue" stroke="midnightblue" points="222.682,-142.117 224.341,-131.652 216.518,-138.798 222.682,-142.117"/>
</g>
<!-- Node6 -->
<g id="node6" class="node"><title>Node6</title>
<polygon fill="none" stroke="#bfbfbf" points="276,-0.5 276,-19.5 344,-19.5 344,-0.5 276,-0.5"/>
<text text-anchor="middle" x="310" y="-7.5" font-family="Helvetica,sans-Serif" font-size="10.00">blitz/array.h</text>
</g>
<!-- Node1&#45;&gt;Node6 -->
<g id="edge5" class="edge"><title>Node1&#45;&gt;Node6</title>
<path fill="none" stroke="midnightblue" d="M224.925,-168.289C238.085,-158.651 252.732,-146.089 263,-132 286.365,-99.9381 299.821,-54.7543 305.947,-29.6562"/>
<polygon fill="midnightblue" stroke="midnightblue" points="309.416,-30.1884 308.255,-19.6573 302.595,-28.6138 309.416,-30.1884"/>
</g>
<!-- Node7 -->
<g id="node7" class="node"><title>Node7</title>
<g id="a_node7"><a xlink:href="validators_8hh.html" target="_top" xlink:title="validators.hh">
<polygon fill="none" stroke="black" points="310,-112.5 310,-131.5 382,-131.5 382,-112.5 310,-112.5"/>
<text text-anchor="middle" x="346" y="-119.5" font-family="Helvetica,sans-Serif" font-size="10.00">validators.hh</text>
</a>
</g>
</g>
<!-- Node1&#45;&gt;Node7 -->
<g id="edge6" class="edge"><title>Node1&#45;&gt;Node7</title>
<path fill="none" stroke="midnightblue" d="M239.605,-168.498C264.478,-157.861 294.551,-145.001 316.371,-135.67"/>
<polygon fill="midnightblue" stroke="midnightblue" points="317.948,-138.803 325.766,-131.652 315.196,-132.366 317.948,-138.803"/>
</g>
<!-- Node8 -->
<g id="node8" class="node"><title>Node8</title>
<polygon fill="none" stroke="#bfbfbf" points="310.5,-56.5 310.5,-75.5 369.5,-75.5 369.5,-56.5 310.5,-56.5"/>
<text text-anchor="middle" x="340" y="-63.5" font-family="Helvetica,sans-Serif" font-size="10.00">stdexcept</text>
</g>
<!-- Node7&#45;&gt;Node8 -->
<g id="edge7" class="edge"><title>Node7&#45;&gt;Node8</title>
<path fill="none" stroke="midnightblue" d="M345.009,-112.083C344.214,-104.927 343.071,-94.6353 342.077,-85.6911"/>
<polygon fill="midnightblue" stroke="midnightblue" points="345.555,-85.3034 340.972,-75.7511 338.598,-86.0765 345.555,-85.3034"/>
</g>
<!-- Node9 -->
<g id="node9" class="node"><title>Node9</title>
<g id="a_node9"><a xlink:href="blitz_8hh.html" target="_top" xlink:title="blitz.hh">
<polygon fill="none" stroke="black" points="388,-56.5 388,-75.5 436,-75.5 436,-56.5 388,-56.5"/>
<text text-anchor="middle" x="412" y="-63.5" font-family="Helvetica,sans-Serif" font-size="10.00">blitz.hh</text>
</a>
</g>
</g>
<!-- Node7&#45;&gt;Node9 -->
<g id="edge8" class="edge"><title>Node7&#45;&gt;Node9</title>
<path fill="none" stroke="midnightblue" d="M356.604,-112.324C366.456,-104.263 381.351,-92.0765 393.215,-82.3695"/>
<polygon fill="midnightblue" stroke="midnightblue" points="395.68,-84.8752 401.203,-75.8339 391.247,-79.4575 395.68,-84.8752"/>
</g>
<!-- Node9&#45;&gt;Node6 -->
<g id="edge11" class="edge"><title>Node9&#45;&gt;Node6</title>
<path fill="none" stroke="midnightblue" d="M395.612,-56.324C379.329,-47.7034 354.133,-34.3643 335.284,-24.3855"/>
<polygon fill="midnightblue" stroke="midnightblue" points="336.823,-21.2402 326.347,-19.6545 333.548,-27.4267 336.823,-21.2402"/>
</g>
<!-- Node10 -->
<g id="node10" class="node"><title>Node10</title>
<polygon fill="none" stroke="#bfbfbf" points="376,-0.5 376,-19.5 420,-19.5 420,-0.5 376,-0.5"/>
<text text-anchor="middle" x="398" y="-7.5" font-family="Helvetica,sans-Serif" font-size="10.00">cmath</text>
</g>
<!-- Node9&#45;&gt;Node10 -->
<g id="edge9" class="edge"><title>Node9&#45;&gt;Node10</title>
<path fill="none" stroke="midnightblue" d="M409.688,-56.083C407.833,-48.9272 405.165,-38.6353 402.846,-29.6911"/>
<polygon fill="midnightblue" stroke="midnightblue" points="406.166,-28.5527 400.269,-19.7511 399.391,-30.3094 406.166,-28.5527"/>
</g>
<!-- Node11 -->
<g id="node11" class="node"><title>Node11</title>
<polygon fill="none" stroke="#bfbfbf" points="438,-0.5 438,-19.5 494,-19.5 494,-0.5 438,-0.5"/>
<text text-anchor="middle" x="466" y="-7.5" font-family="Helvetica,sans-Serif" font-size="10.00">algorithm</text>
</g>
<!-- Node9&#45;&gt;Node11 -->
<g id="edge10" class="edge"><title>Node9&#45;&gt;Node11</title>
<path fill="none" stroke="midnightblue" d="M420.917,-56.083C428.78,-48.2195 440.431,-36.5688 449.919,-27.0813"/>
<polygon fill="midnightblue" stroke="midnightblue" points="452.653,-29.2971 457.249,-19.7511 447.703,-24.3473 452.653,-29.2971"/>
</g>
</g>
</svg>
