<?xml version="1.0" encoding="UTF-8" standalone="no"?>
<!DOCTYPE svg PUBLIC "-//W3C//DTD SVG 1.1//EN"
 "http://www.w3.org/Graphics/SVG/1.1/DTD/svg11.dtd">
<!-- Generated by graphviz version 2.40.1 (20161225.0304)
 -->
<!-- Title: src/domain.hh Pages: 1 -->
<svg width="358pt" height="252pt"
 viewBox="0.00 0.00 358.07 252.00" xmlns="http://www.w3.org/2000/svg" xmlns:xlink="http://www.w3.org/1999/xlink">
<g id="graph0" class="graph" transform="scale(1 1) rotate(0) translate(4 248)">
<title>src/domain.hh</title>
<!-- Node0 -->
<g id="node1" class="node">
<title>Node0</title>
<polygon fill="#bfbfbf" stroke="#000000" points="113.5656,-224.5 113.5656,-243.5 191.5656,-243.5 191.5656,-224.5 113.5656,-224.5"/>
<text text-anchor="middle" x="152.5656" y="-231.5" font-family="Helvetica,sans-Serif" font-size="10.00" fill="#000000">src/domain.hh</text>
</g>
<!-- Node1 -->
<g id="node2" class="node">
<title>Node1</title>
<polygon fill="none" stroke="#bfbfbf" points="121.5656,-.5 121.5656,-19.5 165.5656,-19.5 165.5656,-.5 121.5656,-.5"/>
<text text-anchor="middle" x="143.5656" y="-7.5" font-family="Helvetica,sans-Serif" font-size="10.00" fill="#000000">cmath</text>
</g>
<!-- Node0&#45;&gt;Node1 -->
<g id="edge1" class="edge">
<title>Node0&#45;&gt;Node1</title>
<path fill="none" stroke="#191970" d="M113.4058,-226.5538C76.0429,-218.5592 23.7014,-204.7244 11.5656,-188 -32.6785,-127.0266 67.9894,-55.1886 117.7706,-24.7797"/>
<polygon fill="#191970" stroke="#191970" points="119.6461,-27.7362 126.4272,-19.5957 116.0497,-21.7306 119.6461,-27.7362"/>
</g>
<!-- Node2 -->
<g id="node3" class="node">
<title>Node2</title>
<polygon fill="none" stroke="#bfbfbf" points="20.5656,-168.5 20.5656,-187.5 70.5656,-187.5 70.5656,-168.5 20.5656,-168.5"/>
<text text-anchor="middle" x="45.5656" y="-175.5" font-family="Helvetica,sans-Serif" font-size="10.00" fill="#000000">iomanip</text>
</g>
<!-- Node0&#45;&gt;Node2 -->
<g id="edge2" class="edge">
<title>Node0&#45;&gt;Node2</title>
<path fill="none" stroke="#191970" d="M133.9277,-224.2455C117.127,-215.4527 92.2022,-202.4079 73.1038,-192.4125"/>
<polygon fill="#191970" stroke="#191970" points="74.4729,-189.1787 63.99,-187.6427 71.227,-195.3807 74.4729,-189.1787"/>
</g>
<!-- Node3 -->
<g id="node4" class="node">
<title>Node3</title>
<polygon fill="none" stroke="#bfbfbf" points="74.0656,-112.5 74.0656,-131.5 123.0656,-131.5 123.0656,-112.5 74.0656,-112.5"/>
<text text-anchor="middle" x="98.5656" y="-119.5" font-family="Helvetica,sans-Serif" font-size="10.00" fill="#000000">istream</text>
</g>
<!-- Node0&#45;&gt;Node3 -->
<g id="edge3" class="edge">
<title>Node0&#45;&gt;Node3</title>
<path fill="none" stroke="#191970" d="M143.6271,-224.4888C135.7575,-215.6516 124.5005,-201.8105 117.5656,-188 110.2084,-173.3484 105.2732,-155.3957 102.2807,-141.9148"/>
<polygon fill="#191970" stroke="#191970" points="105.6474,-140.9084 100.2134,-131.8133 98.7895,-142.312 105.6474,-140.9084"/>
</g>
<!-- Node4 -->
<g id="node5" class="node">
<title>Node4</title>
<polygon fill="none" stroke="#bfbfbf" points="126.5656,-168.5 126.5656,-187.5 178.5656,-187.5 178.5656,-168.5 126.5656,-168.5"/>
<text text-anchor="middle" x="152.5656" y="-175.5" font-family="Helvetica,sans-Serif" font-size="10.00" fill="#000000">ostream</text>
</g>
<!-- Node0&#45;&gt;Node4 -->
<g id="edge4" class="edge">
<title>Node0&#45;&gt;Node4</title>
<path fill="none" stroke="#191970" d="M152.5656,-224.2455C152.5656,-216.9382 152.5656,-206.6944 152.5656,-197.7046"/>
<polygon fill="#191970" stroke="#191970" points="156.0657,-197.6426 152.5656,-187.6427 149.0657,-197.6427 156.0657,-197.6426"/>
</g>
<!-- Node5 -->
<g id="node6" class="node">
<title>Node5</title>
<polygon fill="none" stroke="#bfbfbf" points="283.0656,-.5 283.0656,-19.5 350.0656,-19.5 350.0656,-.5 283.0656,-.5"/>
<text text-anchor="middle" x="316.5656" y="-7.5" font-family="Helvetica,sans-Serif" font-size="10.00" fill="#000000">blitz/array.h</text>
</g>
<!-- Node0&#45;&gt;Node5 -->
<g id="edge5" class="edge">
<title>Node0&#45;&gt;Node5</title>
<path fill="none" stroke="#191970" d="M191.571,-224.4953C215.9143,-217.247 246.9909,-205.489 270.5656,-188 295.9866,-169.1413 303.9747,-161.828 314.5656,-132 326.7974,-97.5508 323.447,-54.1076 319.9642,-29.4504"/>
<polygon fill="#191970" stroke="#191970" points="323.4176,-28.88 318.4101,-19.5432 316.5022,-29.9648 323.4176,-28.88"/>
</g>
<!-- Node6 -->
<g id="node7" class="node">
<title>Node6</title>
<g id="a_node7"><a xlink:href="grid_8hh.html" target="_top" xlink:title="grid.hh">
<polygon fill="none" stroke="#000000" points="196.5656,-168.5 196.5656,-187.5 242.5656,-187.5 242.5656,-168.5 196.5656,-168.5"/>
<text text-anchor="middle" x="219.5656" y="-175.5" font-family="Helvetica,sans-Serif" font-size="10.00" fill="#000000">grid.hh</text>
</a>
</g>
</g>
<!-- Node0&#45;&gt;Node6 -->
<g id="edge6" class="edge">
<title>Node0&#45;&gt;Node6</title>
<path fill="none" stroke="#191970" d="M164.2362,-224.2455C174.1317,-215.9746 188.5283,-203.9416 200.1557,-194.2232"/>
<polygon fill="#191970" stroke="#191970" points="202.6006,-196.7413 208.0289,-187.6427 198.1114,-191.3703 202.6006,-196.7413"/>
</g>
<!-- Node9 -->
<g id="node10" class="node">
<title>Node9</title>
<g id="a_node10"><a xlink:href="validators_8hh.html" target="_top" xlink:title="validators.hh">
<polygon fill="none" stroke="#000000" points="233.5656,-112.5 233.5656,-131.5 305.5656,-131.5 305.5656,-112.5 233.5656,-112.5"/>
<text text-anchor="middle" x="269.5656" y="-119.5" font-family="Helvetica,sans-Serif" font-size="10.00" fill="#000000">validators.hh</text>
</a>
</g>
</g>
<!-- Node0&#45;&gt;Node9 -->
<g id="edge16" class="edge">
<title>Node0&#45;&gt;Node9</title>
<path fill="none" stroke="#191970" d="M191.8016,-224.4131C212.3235,-217.495 236.2851,-206.1035 251.5656,-188 262.4462,-175.1093 266.7942,-156.2067 268.509,-141.931"/>
<polygon fill="#191970" stroke="#191970" points="272.021,-141.9414 269.3943,-131.6774 265.047,-141.3393 272.021,-141.9414"/>
</g>
<!-- Node6&#45;&gt;Node1 -->
<g id="edge7" class="edge">
<title>Node6&#45;&gt;Node1</title>
<path fill="none" stroke="#191970" d="M214.6394,-168.2441C205.5781,-150.1925 185.8003,-110.2914 170.5656,-76 163.6646,-60.4665 156.3997,-42.6109 151.1462,-29.3918"/>
<polygon fill="#191970" stroke="#191970" points="154.3345,-27.936 147.4096,-19.9174 147.8226,-30.5042 154.3345,-27.936"/>
</g>
<!-- Node6&#45;&gt;Node3 -->
<g id="edge8" class="edge">
<title>Node6&#45;&gt;Node3</title>
<path fill="none" stroke="#191970" d="M198.765,-168.3733C179.3414,-159.3838 150.1433,-145.8706 128.2692,-135.7471"/>
<polygon fill="#191970" stroke="#191970" points="129.6401,-132.5249 119.0949,-131.5011 126.7,-138.8776 129.6401,-132.5249"/>
</g>
<!-- Node7 -->
<g id="node8" class="node">
<title>Node7</title>
<g id="a_node8"><a xlink:href="blitz_8hh.html" target="_top" xlink:title="blitz.hh">
<polygon fill="none" stroke="#000000" points="179.5656,-56.5 179.5656,-75.5 227.5656,-75.5 227.5656,-56.5 179.5656,-56.5"/>
<text text-anchor="middle" x="203.5656" y="-63.5" font-family="Helvetica,sans-Serif" font-size="10.00" fill="#000000">blitz.hh</text>
</a>
</g>
</g>
<!-- Node6&#45;&gt;Node7 -->
<g id="edge9" class="edge">
<title>Node6&#45;&gt;Node7</title>
<path fill="none" stroke="#191970" d="M218.2015,-168.4509C215.5919,-150.184 209.845,-109.9553 206.3796,-85.6976"/>
<polygon fill="#191970" stroke="#191970" points="209.8055,-84.9294 204.9263,-75.5249 202.8758,-85.9194 209.8055,-84.9294"/>
</g>
<!-- Node6&#45;&gt;Node9 -->
<g id="edge13" class="edge">
<title>Node6&#45;&gt;Node9</title>
<path fill="none" stroke="#191970" d="M228.275,-168.2455C235.3729,-160.2958 245.5741,-148.8706 254.0607,-139.3656"/>
<polygon fill="#191970" stroke="#191970" points="256.9067,-141.4331 260.9561,-131.6427 251.6851,-136.771 256.9067,-141.4331"/>
</g>
<!-- Node7&#45;&gt;Node1 -->
<g id="edge12" class="edge">
<title>Node7&#45;&gt;Node1</title>
<path fill="none" stroke="#191970" d="M193.1144,-56.2455C184.3388,-48.0549 171.6102,-36.1749 161.2516,-26.5069"/>
<polygon fill="#191970" stroke="#191970" points="163.5958,-23.9072 153.8971,-19.6427 158.8195,-29.0246 163.5958,-23.9072"/>
</g>
<!-- Node7&#45;&gt;Node5 -->
<g id="edge11" class="edge">
<title>Node7&#45;&gt;Node5</title>
<path fill="none" stroke="#191970" d="M222.991,-56.3733C240.9678,-47.4644 267.9097,-34.1127 288.2747,-24.0203"/>
<polygon fill="#191970" stroke="#191970" points="289.9878,-27.0776 297.3937,-19.5011 286.8795,-20.8055 289.9878,-27.0776"/>
</g>
<!-- Node8 -->
<g id="node9" class="node">
<title>Node8</title>
<polygon fill="none" stroke="#bfbfbf" points="183.5656,-.5 183.5656,-19.5 239.5656,-19.5 239.5656,-.5 183.5656,-.5"/>
<text text-anchor="middle" x="211.5656" y="-7.5" font-family="Helvetica,sans-Serif" font-size="10.00" fill="#000000">algorithm</text>
</g>
<!-- Node7&#45;&gt;Node8 -->
<g id="edge10" class="edge">
<title>Node7&#45;&gt;Node8</title>
<path fill="none" stroke="#191970" d="M204.9591,-56.2455C206.003,-48.9382 207.4664,-38.6944 208.7507,-29.7046"/>
<polygon fill="#191970" stroke="#191970" points="212.2386,-30.0372 210.1881,-19.6427 205.309,-29.0472 212.2386,-30.0372"/>
</g>
<!-- Node9&#45;&gt;Node7 -->
<g id="edge15" class="edge">
<title>Node9&#45;&gt;Node7</title>
<path fill="none" stroke="#191970" d="M258.0693,-112.2455C248.3214,-103.9746 234.1397,-91.9416 222.6859,-82.2232"/>
<polygon fill="#191970" stroke="#191970" points="224.8198,-79.4437 214.9302,-75.6427 220.2909,-84.7813 224.8198,-79.4437"/>
</g>
<!-- Node10 -->
<g id="node11" class="node">
<title>Node10</title>
<polygon fill="none" stroke="#bfbfbf" points="246.0656,-56.5 246.0656,-75.5 305.0656,-75.5 305.0656,-56.5 246.0656,-56.5"/>
<text text-anchor="middle" x="275.5656" y="-63.5" font-family="Helvetica,sans-Serif" font-size="10.00" fill="#000000">stdexcept</text>
</g>
<!-- Node9&#45;&gt;Node10 -->
<g id="edge14" class="edge">
<title>Node9&#45;&gt;Node10</title>
<path fill="none" stroke="#191970" d="M270.6108,-112.2455C271.3937,-104.9382 272.4912,-94.6944 273.4544,-85.7046"/>
<polygon fill="#191970" stroke="#191970" points="276.9472,-85.9587 274.5325,-75.6427 269.987,-85.2129 276.9472,-85.9587"/>
</g>
</g>
</svg>
