<?xml version="1.0" encoding="UTF-8" standalone="no"?>
<!DOCTYPE svg PUBLIC "-//W3C//DTD SVG 1.1//EN"
 "http://www.w3.org/Graphics/SVG/1.1/DTD/svg11.dtd">
<!-- Generated by graphviz version 2.40.1 (20161225.0304)
 -->
<!-- Title: src/domain.hh Pages: 1 -->
<svg width="1395pt" height="497pt"
 viewBox="0.00 0.00 1395.00 497.00" xmlns="http://www.w3.org/2000/svg" xmlns:xlink="http://www.w3.org/1999/xlink">
<g id="graph0" class="graph" transform="scale(1 1) rotate(0) translate(4 493)">
<title>src/domain.hh</title>
<!-- Node10 -->
<g id="node1" class="node">
<title>Node10</title>
<polygon fill="#bfbfbf" stroke="#000000" points="803.5,-469.5 803.5,-488.5 881.5,-488.5 881.5,-469.5 803.5,-469.5"/>
<text text-anchor="middle" x="842.5" y="-476.5" font-family="Helvetica,sans-Serif" font-size="10.00" fill="#000000">src/domain.hh</text>
</g>
<!-- Node11 -->
<g id="node2" class="node">
<title>Node11</title>
<g id="a_node2"><a xlink:href="basic__solver_8hh.html" target="_top" xlink:title="src/velocity/basic\l_solver.hh">
<polygon fill="none" stroke="#000000" points="448,-335.5 448,-365.5 541,-365.5 541,-335.5 448,-335.5"/>
<text text-anchor="start" x="456" y="-353.5" font-family="Helvetica,sans-Serif" font-size="10.00" fill="#000000">src/velocity/basic</text>
<text text-anchor="middle" x="494.5" y="-342.5" font-family="Helvetica,sans-Serif" font-size="10.00" fill="#000000">_solver.hh</text>
</a>
</g>
</g>
<!-- Node10&#45;&gt;Node11 -->
<g id="edge1" class="edge">
<title>Node10&#45;&gt;Node11</title>
<path fill="none" stroke="#191970" d="M793.1765,-473.2518C729.8361,-465.326 623.8626,-450.071 588.5,-433 554.6714,-416.6694 523.6363,-384.7345 507.068,-365.7434"/>
<polygon fill="#191970" stroke="#191970" points="792.9855,-476.7547 803.339,-474.5063 793.8432,-469.8074 792.9855,-476.7547"/>
</g>
<!-- Node32 -->
<g id="node23" class="node">
<title>Node32</title>
<g id="a_node23"><a xlink:href="lh__model_8hh.html" target="_top" xlink:title="src/generator/lh_model.hh">
<polygon fill="none" stroke="#000000" points="598,-408 598,-427 727,-427 727,-408 598,-408"/>
<text text-anchor="middle" x="662.5" y="-415" font-family="Helvetica,sans-Serif" font-size="10.00" fill="#000000">src/generator/lh_model.hh</text>
</a>
</g>
</g>
<!-- Node10&#45;&gt;Node32 -->
<g id="edge29" class="edge">
<title>Node10&#45;&gt;Node32</title>
<path fill="none" stroke="#191970" d="M804.7464,-466.1009C770.607,-454.4366 721.125,-437.5302 690.4275,-427.0419"/>
<polygon fill="#191970" stroke="#191970" points="803.7805,-469.4694 814.375,-469.3906 806.0437,-462.8454 803.7805,-469.4694"/>
</g>
<!-- Node34 -->
<g id="node25" class="node">
<title>Node34</title>
<g id="a_node25"><a xlink:href="bscheduler__io_8hh.html" target="_top" xlink:title="src/bits/bscheduler\l_io.hh">
<polygon fill="none" stroke="#000000" points="754,-402.5 754,-432.5 853,-432.5 853,-402.5 754,-402.5"/>
<text text-anchor="start" x="762" y="-420.5" font-family="Helvetica,sans-Serif" font-size="10.00" fill="#000000">src/bits/bscheduler</text>
<text text-anchor="middle" x="803.5" y="-409.5" font-family="Helvetica,sans-Serif" font-size="10.00" fill="#000000">_io.hh</text>
</a>
</g>
</g>
<!-- Node10&#45;&gt;Node34 -->
<g id="edge32" class="edge">
<title>Node10&#45;&gt;Node34</title>
<path fill="none" stroke="#191970" d="M830.9611,-460.8041C825.2541,-451.8045 818.4487,-441.073 813.0405,-432.5446"/>
<polygon fill="#191970" stroke="#191970" points="828.095,-462.8199 836.4063,-469.3906 834.0066,-459.0711 828.095,-462.8199"/>
</g>
<!-- Node36 -->
<g id="node27" class="node">
<title>Node36</title>
<g id="a_node27"><a xlink:href="factor__waves_8hh.html" target="_top" xlink:title="src/factor_waves.hh">
<polygon fill="none" stroke="#000000" points="880,-341 880,-360 985,-360 985,-341 880,-341"/>
<text text-anchor="middle" x="932.5" y="-348" font-family="Helvetica,sans-Serif" font-size="10.00" fill="#000000">src/factor_waves.hh</text>
</a>
</g>
</g>
<!-- Node10&#45;&gt;Node36 -->
<g id="edge34" class="edge">
<title>Node10&#45;&gt;Node36</title>
<path fill="none" stroke="#191970" d="M855.1046,-461.0035C874.3981,-433.4566 910.5981,-381.7711 925.6569,-360.2705"/>
<polygon fill="#191970" stroke="#191970" points="852.1346,-459.1429 849.2646,-469.3416 857.8682,-463.1587 852.1346,-459.1429"/>
</g>
<!-- Node38 -->
<g id="node29" class="node">
<title>Node38</title>
<g id="a_node29"><a xlink:href="plain__wave__model_8cc.html" target="_top" xlink:title="src/generator/plain\l_wave_model.cc">
<polygon fill="none" stroke="#000000" points="910,-402.5 910,-432.5 1007,-432.5 1007,-402.5 910,-402.5"/>
<text text-anchor="start" x="918" y="-420.5" font-family="Helvetica,sans-Serif" font-size="10.00" fill="#000000">src/generator/plain</text>
<text text-anchor="middle" x="958.5" y="-409.5" font-family="Helvetica,sans-Serif" font-size="10.00" fill="#000000">_wave_model.cc</text>
</a>
</g>
</g>
<!-- Node10&#45;&gt;Node38 -->
<g id="edge37" class="edge">
<title>Node10&#45;&gt;Node38</title>
<path fill="none" stroke="#191970" d="M869.5527,-464.6574C887.7393,-455.0154 911.6666,-442.3298 930.1232,-432.5446"/>
<polygon fill="#191970" stroke="#191970" points="867.8206,-461.6142 860.625,-469.3906 871.0996,-467.7987 867.8206,-461.6142"/>
</g>
<!-- Node39 -->
<g id="node30" class="node">
<title>Node39</title>
<g id="a_node30"><a xlink:href="nit__transform_8hh.html" target="_top" xlink:title="src/nonlinear/nit_transform.hh">
<polygon fill="none" stroke="#000000" points="1033.5,-408 1033.5,-427 1179.5,-427 1179.5,-408 1033.5,-408"/>
<text text-anchor="middle" x="1106.5" y="-415" font-family="Helvetica,sans-Serif" font-size="10.00" fill="#000000">src/nonlinear/nit_transform.hh</text>
</a>
</g>
</g>
<!-- Node10&#45;&gt;Node39 -->
<g id="edge38" class="edge">
<title>Node10&#45;&gt;Node39</title>
<path fill="none" stroke="#191970" d="M891.6808,-467.5431C941.7096,-455.8887 1018.3683,-438.0307 1065.3049,-427.0966"/>
<polygon fill="#191970" stroke="#191970" points="890.6835,-464.1816 881.7384,-469.8592 892.2717,-470.9991 890.6835,-464.1816"/>
</g>
<!-- Node12 -->
<g id="node3" class="node">
<title>Node12</title>
<g id="a_node3"><a xlink:href="arma__driver_8hh.html" target="_top" xlink:title="src/arma_driver.hh">
<polygon fill="none" stroke="#000000" points="233,-140 233,-159 330,-159 330,-140 233,-140"/>
<text text-anchor="middle" x="281.5" y="-147" font-family="Helvetica,sans-Serif" font-size="10.00" fill="#000000">src/arma_driver.hh</text>
</a>
</g>
</g>
<!-- Node11&#45;&gt;Node12 -->
<g id="edge2" class="edge">
<title>Node11&#45;&gt;Node12</title>
<path fill="none" stroke="#191970" d="M437.9953,-340.4157C346.1119,-322.6904 171.1502,-282.9465 137.5,-232 110.8226,-191.6104 181.1749,-168.7023 232.6944,-157.7257"/>
<polygon fill="#191970" stroke="#191970" points="437.4882,-343.882 447.9666,-342.3158 438.7985,-337.0057 437.4882,-343.882"/>
</g>
<!-- Node19 -->
<g id="node10" class="node">
<title>Node19</title>
<g id="a_node10"><a xlink:href="linear__solver_8hh.html" target="_top" xlink:title="src/velocity/linear\l_solver.hh">
<polygon fill="none" stroke="#000000" points="304,-268.5 304,-298.5 397,-298.5 397,-268.5 304,-268.5"/>
<text text-anchor="start" x="312" y="-286.5" font-family="Helvetica,sans-Serif" font-size="10.00" fill="#000000">src/velocity/linear</text>
<text text-anchor="middle" x="350.5" y="-275.5" font-family="Helvetica,sans-Serif" font-size="10.00" fill="#000000">_solver.hh</text>
</a>
</g>
</g>
<!-- Node11&#45;&gt;Node19 -->
<g id="edge9" class="edge">
<title>Node11&#45;&gt;Node19</title>
<path fill="none" stroke="#191970" d="M452.9983,-331.1902C430.8144,-320.8685 403.8919,-308.3421 383.2068,-298.7177"/>
<polygon fill="#191970" stroke="#191970" points="451.6404,-334.4187 462.1836,-335.4639 454.5934,-328.072 451.6404,-334.4187"/>
</g>
<!-- Node25 -->
<g id="node16" class="node">
<title>Node25</title>
<g id="a_node16"><a xlink:href="plain__wave__solver_8hh.html" target="_top" xlink:title="src/velocity/plain\l_wave_solver.hh">
<polygon fill="none" stroke="#000000" points="575.5,-268.5 575.5,-298.5 665.5,-298.5 665.5,-268.5 575.5,-268.5"/>
<text text-anchor="start" x="583.5" y="-286.5" font-family="Helvetica,sans-Serif" font-size="10.00" fill="#000000">src/velocity/plain</text>
<text text-anchor="middle" x="620.5" y="-275.5" font-family="Helvetica,sans-Serif" font-size="10.00" fill="#000000">_wave_solver.hh</text>
</a>
</g>
</g>
<!-- Node11&#45;&gt;Node25 -->
<g id="edge19" class="edge">
<title>Node11&#45;&gt;Node25</title>
<path fill="none" stroke="#191970" d="M531.8578,-330.6352C551.0645,-320.422 574.1053,-308.1702 591.8816,-298.7177"/>
<polygon fill="#191970" stroke="#191970" points="529.963,-327.6786 522.7769,-335.4639 533.2495,-333.8591 529.963,-327.6786"/>
</g>
<!-- Node27 -->
<g id="node18" class="node">
<title>Node27</title>
<g id="a_node18"><a xlink:href="high__amplitude__realtime__solver_8hh.html" target="_top" xlink:title="src/velocity/high_amplitude\l_realtime_solver.hh">
<polygon fill="none" stroke="#000000" points="13,-67.5 13,-97.5 148,-97.5 148,-67.5 13,-67.5"/>
<text text-anchor="start" x="21" y="-85.5" font-family="Helvetica,sans-Serif" font-size="10.00" fill="#000000">src/velocity/high_amplitude</text>
<text text-anchor="middle" x="80.5" y="-74.5" font-family="Helvetica,sans-Serif" font-size="10.00" fill="#000000">_realtime_solver.hh</text>
</a>
</g>
</g>
<!-- Node11&#45;&gt;Node27 -->
<g id="edge22" class="edge">
<title>Node11&#45;&gt;Node27</title>
<path fill="none" stroke="#191970" d="M437.8612,-345.9134C360.2905,-338.8275 225.7935,-323.4281 183.5,-299 108.3493,-255.5941 87.2886,-139.2805 82.0604,-97.6117"/>
<polygon fill="#191970" stroke="#191970" points="437.6792,-349.411 447.9517,-346.8176 438.304,-342.4389 437.6792,-349.411"/>
</g>
<!-- Node29 -->
<g id="node20" class="node">
<title>Node29</title>
<g id="a_node20"><a xlink:href="basic__solver_8cc.html" target="_top" xlink:title="src/velocity/basic\l_solver.cc">
<polygon fill="none" stroke="#000000" points="728,-268.5 728,-298.5 821,-298.5 821,-268.5 728,-268.5"/>
<text text-anchor="start" x="736" y="-286.5" font-family="Helvetica,sans-Serif" font-size="10.00" fill="#000000">src/velocity/basic</text>
<text text-anchor="middle" x="774.5" y="-275.5" font-family="Helvetica,sans-Serif" font-size="10.00" fill="#000000">_solver.cc</text>
</a>
</g>
</g>
<!-- Node11&#45;&gt;Node29 -->
<g id="edge26" class="edge">
<title>Node11&#45;&gt;Node29</title>
<path fill="none" stroke="#191970" d="M550.7879,-337.0311C602.7913,-324.5874 679.1477,-306.3165 727.8381,-294.6655"/>
<polygon fill="#191970" stroke="#191970" points="549.9615,-333.63 541.0506,-339.3611 551.5906,-340.4378 549.9615,-333.63"/>
</g>
<!-- Node30 -->
<g id="node21" class="node">
<title>Node30</title>
<g id="a_node21"><a xlink:href="small__amplitude__solver_8hh.html" target="_top" xlink:title="src/velocity/small\l_amplitude_solver.hh">
<polygon fill="none" stroke="#000000" points="441.5,-268.5 441.5,-298.5 549.5,-298.5 549.5,-268.5 441.5,-268.5"/>
<text text-anchor="start" x="449.5" y="-286.5" font-family="Helvetica,sans-Serif" font-size="10.00" fill="#000000">src/velocity/small</text>
<text text-anchor="middle" x="495.5" y="-275.5" font-family="Helvetica,sans-Serif" font-size="10.00" fill="#000000">_amplitude_solver.hh</text>
</a>
</g>
</g>
<!-- Node11&#45;&gt;Node30 -->
<g id="edge27" class="edge">
<title>Node11&#45;&gt;Node30</title>
<path fill="none" stroke="#191970" d="M494.8802,-325.0249C495.013,-316.128 495.1578,-306.4287 495.274,-298.6432"/>
<polygon fill="#191970" stroke="#191970" points="491.3766,-325.2455 494.7269,-335.2967 498.3759,-325.35 491.3766,-325.2455"/>
</g>
<!-- Node13 -->
<g id="node4" class="node">
<title>Node13</title>
<g id="a_node4"><a xlink:href="arma__driver_8cc.html" target="_top" xlink:title="src/arma_driver.cc">
<polygon fill="none" stroke="#000000" points="166,-73 166,-92 263,-92 263,-73 166,-73"/>
<text text-anchor="middle" x="214.5" y="-80" font-family="Helvetica,sans-Serif" font-size="10.00" fill="#000000">src/arma_driver.cc</text>
</a>
</g>
</g>
<!-- Node12&#45;&gt;Node13 -->
<g id="edge3" class="edge">
<title>Node12&#45;&gt;Node13</title>
<path fill="none" stroke="#191970" d="M264.5785,-132.5785C251.7639,-119.7639 234.6218,-102.6218 224.0817,-92.0817"/>
<polygon fill="#191970" stroke="#191970" points="262.3546,-135.3043 271.9005,-139.9005 267.3043,-130.3546 262.3546,-135.3043"/>
</g>
<!-- Node14 -->
<g id="node5" class="node">
<title>Node14</title>
<g id="a_node5"><a xlink:href="arma__main_8cc.html" target="_top" xlink:title="src/arma_main.cc">
<polygon fill="none" stroke="#000000" points="503,-6 503,-25 598,-25 598,-6 503,-6"/>
<text text-anchor="middle" x="550.5" y="-13" font-family="Helvetica,sans-Serif" font-size="10.00" fill="#000000">src/arma_main.cc</text>
</a>
</g>
</g>
<!-- Node12&#45;&gt;Node14 -->
<g id="edge4" class="edge">
<title>Node12&#45;&gt;Node14</title>
<path fill="none" stroke="#191970" d="M322.0374,-136.7596C358.2255,-125.0864 408.2428,-108.1272 426.5,-98 445.8627,-87.2596 447.3281,-79.6512 465.5,-67 488.1567,-51.2264 515.6957,-35.0526 533.1638,-25.1404"/>
<polygon fill="#191970" stroke="#191970" points="320.6894,-133.5162 312.2351,-139.9018 322.8263,-140.1821 320.6894,-133.5162"/>
</g>
<!-- Node15 -->
<g id="node6" class="node">
<title>Node15</title>
<g id="a_node6"><a xlink:href="arma__realtime__driver_8hh.html" target="_top" xlink:title="src/arma_realtime_driver.hh">
<polygon fill="none" stroke="#000000" points="281,-73 281,-92 418,-92 418,-73 281,-73"/>
<text text-anchor="middle" x="349.5" y="-80" font-family="Helvetica,sans-Serif" font-size="10.00" fill="#000000">src/arma_realtime_driver.hh</text>
</a>
</g>
</g>
<!-- Node12&#45;&gt;Node15 -->
<g id="edge5" class="edge">
<title>Node12&#45;&gt;Node15</title>
<path fill="none" stroke="#191970" d="M298.674,-132.5785C311.6799,-119.7639 329.0779,-102.6218 339.7753,-92.0817"/>
<polygon fill="#191970" stroke="#191970" points="295.9095,-130.3889 291.2427,-139.9005 300.8225,-135.3752 295.9095,-130.3889"/>
</g>
<!-- Node18 -->
<g id="node9" class="node">
<title>Node18</title>
<g id="a_node9"><a xlink:href="visual_8cc.html" target="_top" xlink:title="src/visual.cc">
<polygon fill="none" stroke="#000000" points="474.5,-73 474.5,-92 546.5,-92 546.5,-73 474.5,-73"/>
<text text-anchor="middle" x="510.5" y="-80" font-family="Helvetica,sans-Serif" font-size="10.00" fill="#000000">src/visual.cc</text>
</a>
</g>
</g>
<!-- Node12&#45;&gt;Node18 -->
<g id="edge8" class="edge">
<title>Node12&#45;&gt;Node18</title>
<path fill="none" stroke="#191970" d="M325.3176,-137.1636C361.6018,-126.8833 414.4789,-111.752 460.5,-98 466.8566,-96.1005 473.6536,-94.024 480.123,-92.0258"/>
<polygon fill="#191970" stroke="#191970" points="324.2123,-133.8388 315.543,-139.9294 326.1182,-140.5744 324.2123,-133.8388"/>
</g>
<!-- Node16 -->
<g id="node7" class="node">
<title>Node16</title>
<g id="a_node7"><a xlink:href="arma__realtime_8cc.html" target="_top" xlink:title="src/arma_realtime.cc">
<polygon fill="none" stroke="#000000" points="308.5,-6 308.5,-25 416.5,-25 416.5,-6 308.5,-6"/>
<text text-anchor="middle" x="362.5" y="-13" font-family="Helvetica,sans-Serif" font-size="10.00" fill="#000000">src/arma_realtime.cc</text>
</a>
</g>
</g>
<!-- Node15&#45;&gt;Node16 -->
<g id="edge6" class="edge">
<title>Node15&#45;&gt;Node16</title>
<path fill="none" stroke="#191970" d="M353.2862,-62.9863C355.7034,-50.5286 358.7308,-34.9258 360.6409,-25.0817"/>
<polygon fill="#191970" stroke="#191970" points="349.8315,-62.4169 351.3626,-72.9005 356.7034,-63.7503 349.8315,-62.4169"/>
</g>
<!-- Node17 -->
<g id="node8" class="node">
<title>Node17</title>
<g id="a_node8"><a xlink:href="arma__realtime__driver_8cc.html" target="_top" xlink:title="src/arma_realtime_driver.cc">
<polygon fill="none" stroke="#000000" points="153,-6 153,-25 290,-25 290,-6 153,-6"/>
<text text-anchor="middle" x="221.5" y="-13" font-family="Helvetica,sans-Serif" font-size="10.00" fill="#000000">src/arma_realtime_driver.cc</text>
</a>
</g>
</g>
<!-- Node15&#45;&gt;Node17 -->
<g id="edge7" class="edge">
<title>Node15&#45;&gt;Node17</title>
<path fill="none" stroke="#191970" d="M322.2375,-68.2298C297.3881,-55.2227 261.3664,-36.3676 239.8053,-25.0817"/>
<polygon fill="#191970" stroke="#191970" points="320.6779,-71.3639 331.1607,-72.9005 323.9242,-65.1621 320.6779,-71.3639"/>
</g>
<!-- Node20 -->
<g id="node11" class="node">
<title>Node20</title>
<g id="a_node11"><a xlink:href="high__amplitude__solver_8hh.html" target="_top" xlink:title="src/velocity/high_amplitude\l_solver.hh">
<polygon fill="none" stroke="#000000" points="258,-201.5 258,-231.5 393,-231.5 393,-201.5 258,-201.5"/>
<text text-anchor="start" x="266" y="-219.5" font-family="Helvetica,sans-Serif" font-size="10.00" fill="#000000">src/velocity/high_amplitude</text>
<text text-anchor="middle" x="325.5" y="-208.5" font-family="Helvetica,sans-Serif" font-size="10.00" fill="#000000">_solver.hh</text>
</a>
</g>
</g>
<!-- Node19&#45;&gt;Node20 -->
<g id="edge10" class="edge">
<title>Node19&#45;&gt;Node20</title>
<path fill="none" stroke="#191970" d="M341.3217,-258.9021C337.914,-249.7696 334.1513,-239.6854 331.1504,-231.6432"/>
<polygon fill="#191970" stroke="#191970" points="338.052,-260.1512 344.8271,-268.2967 344.6103,-257.704 338.052,-260.1512"/>
</g>
<!-- Node21 -->
<g id="node12" class="node">
<title>Node21</title>
<g id="a_node12"><a xlink:href="register__all_8hh.html" target="_top" xlink:title="src/register_all.hh">
<polygon fill="none" stroke="#000000" points="646.5,-140 646.5,-159 740.5,-159 740.5,-140 646.5,-140"/>
<text text-anchor="middle" x="693.5" y="-147" font-family="Helvetica,sans-Serif" font-size="10.00" fill="#000000">src/register_all.hh</text>
</a>
</g>
</g>
<!-- Node19&#45;&gt;Node21 -->
<g id="edge17" class="edge">
<title>Node19&#45;&gt;Node21</title>
<path fill="none" stroke="#191970" d="M372.1965,-261.0562C393.6139,-239.3875 425.2963,-208.7494 440.5,-201 475.8932,-182.9599 583.5618,-165.2123 646.454,-156.0005"/>
<polygon fill="#191970" stroke="#191970" points="369.5993,-258.7058 365.0928,-268.2944 374.5952,-263.6089 369.5993,-258.7058"/>
</g>
<!-- Node24 -->
<g id="node15" class="node">
<title>Node24</title>
<g id="a_node15"><a xlink:href="linear__solver_8cc.html" target="_top" xlink:title="src/velocity/linear\l_solver.cc">
<polygon fill="none" stroke="#000000" points="147,-201.5 147,-231.5 240,-231.5 240,-201.5 147,-201.5"/>
<text text-anchor="start" x="155" y="-219.5" font-family="Helvetica,sans-Serif" font-size="10.00" fill="#000000">src/velocity/linear</text>
<text text-anchor="middle" x="193.5" y="-208.5" font-family="Helvetica,sans-Serif" font-size="10.00" fill="#000000">_solver.cc</text>
</a>
</g>
</g>
<!-- Node19&#45;&gt;Node24 -->
<g id="edge18" class="edge">
<title>Node19&#45;&gt;Node24</title>
<path fill="none" stroke="#191970" d="M305.8641,-264.4516C281.465,-254.0392 251.666,-241.3224 228.8875,-231.6017"/>
<polygon fill="#191970" stroke="#191970" points="304.6948,-267.7579 315.2661,-268.4639 307.4424,-261.3197 304.6948,-267.7579"/>
</g>
<!-- Node20&#45;&gt;Node21 -->
<g id="edge11" class="edge">
<title>Node20&#45;&gt;Node21</title>
<path fill="none" stroke="#191970" d="M403.0516,-201.8227C404.5467,-201.5456 406.0307,-201.2711 407.5,-201 491.5951,-185.4808 589.7091,-167.9354 646.4115,-157.8504"/>
<polygon fill="#191970" stroke="#191970" points="402.2516,-198.4114 393.0605,-203.6815 403.532,-205.2933 402.2516,-198.4114"/>
</g>
<!-- Node23 -->
<g id="node14" class="node">
<title>Node23</title>
<g id="a_node14"><a xlink:href="high__amplitude__solver_8cc.html" target="_top" xlink:title="src/velocity/high_amplitude\l_solver.cc">
<polygon fill="none" stroke="#000000" points="348,-134.5 348,-164.5 483,-164.5 483,-134.5 348,-134.5"/>
<text text-anchor="start" x="356" y="-152.5" font-family="Helvetica,sans-Serif" font-size="10.00" fill="#000000">src/velocity/high_amplitude</text>
<text text-anchor="middle" x="415.5" y="-141.5" font-family="Helvetica,sans-Serif" font-size="10.00" fill="#000000">_solver.cc</text>
</a>
</g>
</g>
<!-- Node20&#45;&gt;Node23 -->
<g id="edge16" class="edge">
<title>Node20&#45;&gt;Node23</title>
<path fill="none" stroke="#191970" d="M354.2942,-195.0643C367.6016,-185.1577 383.0913,-173.6265 395.1584,-164.6432"/>
<polygon fill="#191970" stroke="#191970" points="351.8537,-192.5177 345.9224,-201.2967 356.0338,-198.1327 351.8537,-192.5177"/>
</g>
<!-- Node21&#45;&gt;Node18 -->
<g id="edge15" class="edge">
<title>Node21&#45;&gt;Node18</title>
<path fill="none" stroke="#191970" d="M657.763,-136.416C622.1922,-123.3928 568.4471,-103.7156 536.6708,-92.0817"/>
<polygon fill="#191970" stroke="#191970" points="656.6868,-139.7491 667.2806,-139.9005 659.0935,-133.1758 656.6868,-139.7491"/>
</g>
<!-- Node22 -->
<g id="node13" class="node">
<title>Node22</title>
<g id="a_node13"><a xlink:href="common__main_8hh.html" target="_top" xlink:title="src/common_main.hh">
<polygon fill="none" stroke="#000000" points="564.5,-73 564.5,-92 674.5,-92 674.5,-73 564.5,-73"/>
<text text-anchor="middle" x="619.5" y="-80" font-family="Helvetica,sans-Serif" font-size="10.00" fill="#000000">src/common_main.hh</text>
</a>
</g>
</g>
<!-- Node21&#45;&gt;Node22 -->
<g id="edge12" class="edge">
<title>Node21&#45;&gt;Node22</title>
<path fill="none" stroke="#191970" d="M675.2099,-132.94C661.015,-120.0879 641.8339,-102.7212 630.0827,-92.0817"/>
<polygon fill="#191970" stroke="#191970" points="673.1355,-135.7833 682.8976,-139.9005 677.8337,-130.5942 673.1355,-135.7833"/>
</g>
<!-- Node22&#45;&gt;Node14 -->
<g id="edge13" class="edge">
<title>Node22&#45;&gt;Node14</title>
<path fill="none" stroke="#191970" d="M602.0734,-65.5785C588.8762,-52.7639 571.2225,-35.6218 560.3677,-25.0817"/>
<polygon fill="#191970" stroke="#191970" points="600.0015,-68.4452 609.614,-72.9005 604.8779,-63.4232 600.0015,-68.4452"/>
</g>
<!-- Node22&#45;&gt;Node16 -->
<g id="edge14" class="edge">
<title>Node22&#45;&gt;Node16</title>
<path fill="none" stroke="#191970" d="M573.0761,-70.3973C523.2507,-57.4078 445.1123,-37.0371 399.3389,-25.1039"/>
<polygon fill="#191970" stroke="#191970" points="572.3916,-73.8357 582.9511,-72.9717 574.1575,-67.0621 572.3916,-73.8357"/>
</g>
<!-- Node25&#45;&gt;Node21 -->
<g id="edge20" class="edge">
<title>Node25&#45;&gt;Node21</title>
<path fill="none" stroke="#191970" d="M649.2953,-261.7791C658.5967,-253.4167 668.1386,-243.1693 674.5,-232 688.1024,-208.117 691.9707,-175.1048 693.0677,-159.0443"/>
<polygon fill="#191970" stroke="#191970" points="646.9453,-259.1833 641.6137,-268.3389 651.4911,-264.5065 646.9453,-259.1833"/>
</g>
<!-- Node26 -->
<g id="node17" class="node">
<title>Node26</title>
<g id="a_node17"><a xlink:href="plain__wave__solver_8cc.html" target="_top" xlink:title="src/velocity/plain\l_wave_solver.cc">
<polygon fill="none" stroke="#000000" points="575.5,-201.5 575.5,-231.5 665.5,-231.5 665.5,-201.5 575.5,-201.5"/>
<text text-anchor="start" x="583.5" y="-219.5" font-family="Helvetica,sans-Serif" font-size="10.00" fill="#000000">src/velocity/plain</text>
<text text-anchor="middle" x="620.5" y="-208.5" font-family="Helvetica,sans-Serif" font-size="10.00" fill="#000000">_wave_solver.cc</text>
</a>
</g>
</g>
<!-- Node25&#45;&gt;Node26 -->
<g id="edge21" class="edge">
<title>Node25&#45;&gt;Node26</title>
<path fill="none" stroke="#191970" d="M620.5,-258.0249C620.5,-249.128 620.5,-239.4287 620.5,-231.6432"/>
<polygon fill="#191970" stroke="#191970" points="617.0001,-258.2966 620.5,-268.2967 624.0001,-258.2967 617.0001,-258.2966"/>
</g>
<!-- Node27&#45;&gt;Node16 -->
<g id="edge23" class="edge">
<title>Node27&#45;&gt;Node16</title>
<path fill="none" stroke="#191970" d="M154.3546,-65.1616C196.582,-55.2208 250.5297,-42.475 298.5,-31 306.5054,-29.085 315.0703,-27.0211 323.2467,-25.0436"/>
<polygon fill="#191970" stroke="#191970" points="153.366,-61.7986 144.4337,-67.4962 154.9695,-68.6124 153.366,-61.7986"/>
</g>
<!-- Node27&#45;&gt;Node17 -->
<g id="edge24" class="edge">
<title>Node27&#45;&gt;Node17</title>
<path fill="none" stroke="#191970" d="M121.4652,-63.0343C147.679,-50.5781 180.5428,-34.9619 201.2888,-25.1039"/>
<polygon fill="#191970" stroke="#191970" points="119.6731,-60.0107 112.1432,-67.4639 122.6775,-66.3332 119.6731,-60.0107"/>
</g>
<!-- Node28 -->
<g id="node19" class="node">
<title>Node28</title>
<g id="a_node19"><a xlink:href="high__amplitude__realtime__solver_8cc.html" target="_top" xlink:title="src/velocity/high_amplitude\l_realtime_solver.cc">
<polygon fill="none" stroke="#000000" points="0,-.5 0,-30.5 135,-30.5 135,-.5 0,-.5"/>
<text text-anchor="start" x="8" y="-18.5" font-family="Helvetica,sans-Serif" font-size="10.00" fill="#000000">src/velocity/high_amplitude</text>
<text text-anchor="middle" x="67.5" y="-7.5" font-family="Helvetica,sans-Serif" font-size="10.00" fill="#000000">_realtime_solver.cc</text>
</a>
</g>
</g>
<!-- Node27&#45;&gt;Node28 -->
<g id="edge25" class="edge">
<title>Node27&#45;&gt;Node28</title>
<path fill="none" stroke="#191970" d="M75.6139,-57.3179C73.8722,-48.3414 71.9655,-38.5143 70.4382,-30.6432"/>
<polygon fill="#191970" stroke="#191970" points="72.2093,-58.1464 77.5501,-67.2967 79.0812,-56.813 72.2093,-58.1464"/>
</g>
<!-- Node31 -->
<g id="node22" class="node">
<title>Node31</title>
<g id="a_node22"><a xlink:href="small__amplitude__solver_8cc.html" target="_top" xlink:title="src/velocity/small\l_amplitude_solver.cc">
<polygon fill="none" stroke="#000000" points="449.5,-201.5 449.5,-231.5 557.5,-231.5 557.5,-201.5 449.5,-201.5"/>
<text text-anchor="start" x="457.5" y="-219.5" font-family="Helvetica,sans-Serif" font-size="10.00" fill="#000000">src/velocity/small</text>
<text text-anchor="middle" x="503.5" y="-208.5" font-family="Helvetica,sans-Serif" font-size="10.00" fill="#000000">_amplitude_solver.cc</text>
</a>
</g>
</g>
<!-- Node30&#45;&gt;Node31 -->
<g id="edge28" class="edge">
<title>Node30&#45;&gt;Node31</title>
<path fill="none" stroke="#191970" d="M498.5068,-258.3179C499.5786,-249.3414 500.752,-239.5143 501.6919,-231.6432"/>
<polygon fill="#191970" stroke="#191970" points="495.0257,-257.9522 497.3153,-268.2967 501.9763,-258.7822 495.0257,-257.9522"/>
</g>
<!-- Node32&#45;&gt;Node21 -->
<g id="edge30" class="edge">
<title>Node32&#45;&gt;Node21</title>
<path fill="none" stroke="#191970" d="M628.7909,-403.1C613.5595,-394.6787 597.0824,-382.429 588.5,-366 582.1206,-353.7881 580.8669,-346.4701 588.5,-335 611.4561,-300.5043 646.7991,-329.8156 674.5,-299 710.8813,-258.528 700.6859,-185.1297 695.5837,-159.0281"/>
<polygon fill="#191970" stroke="#191970" points="627.5381,-406.3914 638.0319,-407.8518 630.7393,-400.1662 627.5381,-406.3914"/>
</g>
<!-- Node33 -->
<g id="node24" class="node">
<title>Node33</title>
<g id="a_node24"><a xlink:href="lh__model_8cc.html" target="_top" xlink:title="src/generator/lh_model.cc">
<polygon fill="none" stroke="#000000" points="598,-341 598,-360 727,-360 727,-341 598,-341"/>
<text text-anchor="middle" x="662.5" y="-348" font-family="Helvetica,sans-Serif" font-size="10.00" fill="#000000">src/generator/lh_model.cc</text>
</a>
</g>
</g>
<!-- Node32&#45;&gt;Node33 -->
<g id="edge31" class="edge">
<title>Node32&#45;&gt;Node33</title>
<path fill="none" stroke="#191970" d="M662.5,-397.6079C662.5,-385.214 662.5,-369.8263 662.5,-360.0817"/>
<polygon fill="#191970" stroke="#191970" points="659.0001,-397.9005 662.5,-407.9005 666.0001,-397.9006 659.0001,-397.9005"/>
</g>
<!-- Node35 -->
<g id="node26" class="node">
<title>Node35</title>
<g id="a_node26"><a xlink:href="ar__model__bscheduler_8cc.html" target="_top" xlink:title="src/generator/ar_model\l_bscheduler.cc">
<polygon fill="none" stroke="#000000" points="745.5,-335.5 745.5,-365.5 861.5,-365.5 861.5,-335.5 745.5,-335.5"/>
<text text-anchor="start" x="753.5" y="-353.5" font-family="Helvetica,sans-Serif" font-size="10.00" fill="#000000">src/generator/ar_model</text>
<text text-anchor="middle" x="803.5" y="-342.5" font-family="Helvetica,sans-Serif" font-size="10.00" fill="#000000">_bscheduler.cc</text>
</a>
</g>
</g>
<!-- Node34&#45;&gt;Node35 -->
<g id="edge33" class="edge">
<title>Node34&#45;&gt;Node35</title>
<path fill="none" stroke="#191970" d="M803.5,-392.0249C803.5,-383.128 803.5,-373.4287 803.5,-365.6432"/>
<polygon fill="#191970" stroke="#191970" points="800.0001,-392.2966 803.5,-402.2967 807.0001,-392.2967 800.0001,-392.2966"/>
</g>
<!-- Node36&#45;&gt;Node29 -->
<g id="edge36" class="edge">
<title>Node36&#45;&gt;Node29</title>
<path fill="none" stroke="#191970" d="M900.3724,-336.8763C874.1154,-325.742 837.0373,-310.019 809.9245,-298.5218"/>
<polygon fill="#191970" stroke="#191970" points="899.2896,-340.2187 909.8625,-340.9005 902.0224,-333.7742 899.2896,-340.2187"/>
</g>
<!-- Node37 -->
<g id="node28" class="node">
<title>Node37</title>
<g id="a_node28"><a xlink:href="factor__waves_8cc.html" target="_top" xlink:title="src/factor_waves.cc">
<polygon fill="none" stroke="#000000" points="840,-274 840,-293 945,-293 945,-274 840,-274"/>
<text text-anchor="middle" x="892.5" y="-281" font-family="Helvetica,sans-Serif" font-size="10.00" fill="#000000">src/factor_waves.cc</text>
</a>
</g>
</g>
<!-- Node36&#45;&gt;Node37 -->
<g id="edge35" class="edge">
<title>Node36&#45;&gt;Node37</title>
<path fill="none" stroke="#191970" d="M921.5208,-332.1099C913.9803,-319.4795 904.2756,-303.2241 898.2204,-293.0817"/>
<polygon fill="#191970" stroke="#191970" points="918.6376,-334.1085 926.769,-340.9005 924.648,-330.5202 918.6376,-334.1085"/>
</g>
<!-- Node40 -->
<g id="node31" class="node">
<title>Node40</title>
<g id="a_node31"><a xlink:href="basic__arma__model_8hh.html" target="_top" xlink:title="src/generator/basic\l_arma_model.hh">
<polygon fill="none" stroke="#000000" points="1205.5,-335.5 1205.5,-365.5 1305.5,-365.5 1305.5,-335.5 1205.5,-335.5"/>
<text text-anchor="start" x="1213.5" y="-353.5" font-family="Helvetica,sans-Serif" font-size="10.00" fill="#000000">src/generator/basic</text>
<text text-anchor="middle" x="1255.5" y="-342.5" font-family="Helvetica,sans-Serif" font-size="10.00" fill="#000000">_arma_model.hh</text>
</a>
</g>
</g>
<!-- Node39&#45;&gt;Node40 -->
<g id="edge39" class="edge">
<title>Node39&#45;&gt;Node40</title>
<path fill="none" stroke="#191970" d="M1137.1254,-403.7289C1161.8667,-392.6035 1196.6376,-376.9683 1222.0934,-365.5218"/>
<polygon fill="#191970" stroke="#191970" points="1135.533,-400.6072 1127.8481,-407.9005 1138.4038,-406.9915 1135.533,-400.6072"/>
</g>
<!-- Node47 -->
<g id="node38" class="node">
<title>Node47</title>
<g id="a_node38"><a xlink:href="basic__arma__model_8cc.html" target="_top" xlink:title="src/generator/basic\l_arma_model.cc">
<polygon fill="none" stroke="#000000" points="963.5,-268.5 963.5,-298.5 1063.5,-298.5 1063.5,-268.5 963.5,-268.5"/>
<text text-anchor="start" x="971.5" y="-286.5" font-family="Helvetica,sans-Serif" font-size="10.00" fill="#000000">src/generator/basic</text>
<text text-anchor="middle" x="1013.5" y="-275.5" font-family="Helvetica,sans-Serif" font-size="10.00" fill="#000000">_arma_model.cc</text>
</a>
</g>
</g>
<!-- Node39&#45;&gt;Node47 -->
<g id="edge51" class="edge">
<title>Node39&#45;&gt;Node47</title>
<path fill="none" stroke="#191970" d="M1075.9025,-403.063C1060.664,-394.371 1043.2459,-381.8916 1032.5,-366 1018.6684,-345.5452 1014.8081,-316.4075 1013.7886,-298.7924"/>
<polygon fill="#191970" stroke="#191970" points="1074.5663,-406.3188 1085.0298,-407.9822 1077.8874,-400.1567 1074.5663,-406.3188"/>
</g>
<!-- Node48 -->
<g id="node39" class="node">
<title>Node48</title>
<g id="a_node39"><a xlink:href="nit__transform_8cc.html" target="_top" xlink:title="src/nonlinear/nit_transform.cc">
<polygon fill="none" stroke="#000000" points="1041.5,-341 1041.5,-360 1187.5,-360 1187.5,-341 1041.5,-341"/>
<text text-anchor="middle" x="1114.5" y="-348" font-family="Helvetica,sans-Serif" font-size="10.00" fill="#000000">src/nonlinear/nit_transform.cc</text>
</a>
</g>
</g>
<!-- Node39&#45;&gt;Node48 -->
<g id="edge52" class="edge">
<title>Node39&#45;&gt;Node48</title>
<path fill="none" stroke="#191970" d="M1108.8752,-397.6079C1110.355,-385.214 1112.1924,-369.8263 1113.3559,-360.0817"/>
<polygon fill="#191970" stroke="#191970" points="1105.3566,-397.5561 1107.6462,-407.9005 1112.3072,-398.3861 1105.3566,-397.5561"/>
</g>
<!-- Node41 -->
<g id="node32" class="node">
<title>Node41</title>
<g id="a_node32"><a xlink:href="ar__model_8hh.html" target="_top" xlink:title="src/generator/ar_model.hh">
<polygon fill="none" stroke="#000000" points="1081.5,-274 1081.5,-293 1211.5,-293 1211.5,-274 1081.5,-274"/>
<text text-anchor="middle" x="1146.5" y="-281" font-family="Helvetica,sans-Serif" font-size="10.00" fill="#000000">src/generator/ar_model.hh</text>
</a>
</g>
</g>
<!-- Node40&#45;&gt;Node41 -->
<g id="edge40" class="edge">
<title>Node40&#45;&gt;Node41</title>
<path fill="none" stroke="#191970" d="M1222.4914,-330.2103C1202.4575,-317.8959 1177.8102,-302.7457 1162.1243,-293.1039"/>
<polygon fill="#191970" stroke="#191970" points="1220.6862,-333.209 1231.0383,-335.4639 1224.3518,-327.2455 1220.6862,-333.209"/>
</g>
<!-- Node45 -->
<g id="node36" class="node">
<title>Node45</title>
<g id="a_node36"><a xlink:href="ma__model_8hh.html" target="_top" xlink:title="src/generator/ma_model.hh">
<polygon fill="none" stroke="#000000" points="1230,-274 1230,-293 1365,-293 1365,-274 1230,-274"/>
<text text-anchor="middle" x="1297.5" y="-281" font-family="Helvetica,sans-Serif" font-size="10.00" fill="#000000">src/generator/ma_model.hh</text>
</a>
</g>
</g>
<!-- Node40&#45;&gt;Node45 -->
<g id="edge46" class="edge">
<title>Node40&#45;&gt;Node45</title>
<path fill="none" stroke="#191970" d="M1270.5447,-326.5001C1277.7879,-314.9456 1286.0614,-301.7473 1291.5103,-293.055"/>
<polygon fill="#191970" stroke="#191970" points="1267.3763,-324.9648 1265.0305,-335.2967 1273.3074,-328.6828 1267.3763,-324.9648"/>
</g>
<!-- Node40&#45;&gt;Node47 -->
<g id="edge50" class="edge">
<title>Node40&#45;&gt;Node47</title>
<path fill="none" stroke="#191970" d="M1195.5823,-333.9112C1154.9769,-322.6692 1101.9314,-307.9831 1063.5783,-297.3647"/>
<polygon fill="#191970" stroke="#191970" points="1194.7861,-337.3224 1205.3574,-336.6176 1196.6539,-330.5762 1194.7861,-337.3224"/>
</g>
<!-- Node41&#45;&gt;Node21 -->
<g id="edge41" class="edge">
<title>Node41&#45;&gt;Node21</title>
<path fill="none" stroke="#191970" d="M1127.8845,-267.0329C1101.2694,-243.5583 1055.0326,-203.0601 1050.5,-201 996.1279,-176.2878 824.5767,-159.8098 740.6581,-153.0153"/>
<polygon fill="#191970" stroke="#191970" points="1125.6339,-269.7148 1135.4465,-273.7102 1130.2672,-264.4676 1125.6339,-269.7148"/>
</g>
<!-- Node42 -->
<g id="node33" class="node">
<title>Node42</title>
<g id="a_node33"><a xlink:href="arma__model_8hh.html" target="_top" xlink:title="src/generator/arma\l_model.hh">
<polygon fill="none" stroke="#000000" points="1097.5,-201.5 1097.5,-231.5 1195.5,-231.5 1195.5,-201.5 1097.5,-201.5"/>
<text text-anchor="start" x="1105.5" y="-219.5" font-family="Helvetica,sans-Serif" font-size="10.00" fill="#000000">src/generator/arma</text>
<text text-anchor="middle" x="1146.5" y="-208.5" font-family="Helvetica,sans-Serif" font-size="10.00" fill="#000000">_model.hh</text>
</a>
</g>
</g>
<!-- Node41&#45;&gt;Node42 -->
<g id="edge42" class="edge">
<title>Node41&#45;&gt;Node42</title>
<path fill="none" stroke="#191970" d="M1146.5,-263.7758C1146.5,-253.4641 1146.5,-241.0437 1146.5,-231.5218"/>
<polygon fill="#191970" stroke="#191970" points="1143.0001,-263.9005 1146.5,-273.9005 1150.0001,-263.9006 1143.0001,-263.9005"/>
</g>
<!-- Node44 -->
<g id="node35" class="node">
<title>Node44</title>
<g id="a_node35"><a xlink:href="ar__model_8cc.html" target="_top" xlink:title="src/generator/ar_model.cc">
<polygon fill="none" stroke="#000000" points="911.5,-207 911.5,-226 1041.5,-226 1041.5,-207 911.5,-207"/>
<text text-anchor="middle" x="976.5" y="-214" font-family="Helvetica,sans-Serif" font-size="10.00" fill="#000000">src/generator/ar_model.cc</text>
</a>
</g>
</g>
<!-- Node41&#45;&gt;Node44 -->
<g id="edge45" class="edge">
<title>Node41&#45;&gt;Node44</title>
<path fill="none" stroke="#191970" d="M1112.4508,-270.0806C1079.4058,-257.057 1030.0783,-237.6162 1000.8117,-226.0817"/>
<polygon fill="#191970" stroke="#191970" points="1111.5563,-273.49 1122.1431,-273.9005 1114.123,-266.9776 1111.5563,-273.49"/>
</g>
<!-- Node42&#45;&gt;Node21 -->
<g id="edge43" class="edge">
<title>Node42&#45;&gt;Node21</title>
<path fill="none" stroke="#191970" d="M1087.3639,-201.7496C1086.0656,-201.4908 1084.7764,-201.2405 1083.5,-201 960.68,-177.8545 814.1636,-161.4833 740.5905,-154.0286"/>
<polygon fill="#191970" stroke="#191970" points="1086.9259,-205.2342 1097.4332,-203.8751 1088.3717,-198.3851 1086.9259,-205.2342"/>
</g>
<!-- Node43 -->
<g id="node34" class="node">
<title>Node43</title>
<g id="a_node34"><a xlink:href="arma__model_8cc.html" target="_top" xlink:title="src/generator/arma\l_model.cc">
<polygon fill="none" stroke="#000000" points="1097.5,-134.5 1097.5,-164.5 1195.5,-164.5 1195.5,-134.5 1097.5,-134.5"/>
<text text-anchor="start" x="1105.5" y="-152.5" font-family="Helvetica,sans-Serif" font-size="10.00" fill="#000000">src/generator/arma</text>
<text text-anchor="middle" x="1146.5" y="-141.5" font-family="Helvetica,sans-Serif" font-size="10.00" fill="#000000">_model.cc</text>
</a>
</g>
</g>
<!-- Node42&#45;&gt;Node43 -->
<g id="edge44" class="edge">
<title>Node42&#45;&gt;Node43</title>
<path fill="none" stroke="#191970" d="M1146.5,-191.0249C1146.5,-182.128 1146.5,-172.4287 1146.5,-164.6432"/>
<polygon fill="#191970" stroke="#191970" points="1143.0001,-191.2966 1146.5,-201.2967 1150.0001,-191.2967 1143.0001,-191.2966"/>
</g>
<!-- Node45&#45;&gt;Node21 -->
<g id="edge47" class="edge">
<title>Node45&#45;&gt;Node21</title>
<path fill="none" stroke="#191970" d="M1279.6349,-266.5696C1255.1911,-243.5756 1213.3358,-204.8723 1204.5,-201 1121.915,-164.8069 850.8741,-153.6574 740.6988,-150.571"/>
<polygon fill="#191970" stroke="#191970" points="1277.5086,-269.3755 1287.1842,-273.6923 1282.3125,-264.284 1277.5086,-269.3755"/>
</g>
<!-- Node45&#45;&gt;Node42 -->
<g id="edge48" class="edge">
<title>Node45&#45;&gt;Node42</title>
<path fill="none" stroke="#191970" d="M1266.4635,-269.7289C1241.3901,-258.6035 1206.1525,-242.9683 1180.355,-231.5218"/>
<polygon fill="#191970" stroke="#191970" points="1265.3052,-273.0439 1275.8654,-273.9005 1268.1443,-266.6455 1265.3052,-273.0439"/>
</g>
<!-- Node46 -->
<g id="node37" class="node">
<title>Node46</title>
<g id="a_node37"><a xlink:href="ma__model_8cc.html" target="_top" xlink:title="src/generator/ma_model.cc">
<polygon fill="none" stroke="#000000" points="1252,-207 1252,-226 1387,-226 1387,-207 1252,-207"/>
<text text-anchor="middle" x="1319.5" y="-214" font-family="Helvetica,sans-Serif" font-size="10.00" fill="#000000">src/generator/ma_model.cc</text>
</a>
</g>
</g>
<!-- Node45&#45;&gt;Node46 -->
<g id="edge49" class="edge">
<title>Node45&#45;&gt;Node46</title>
<path fill="none" stroke="#191970" d="M1303.7838,-264.3628C1307.8944,-251.8444 1313.0887,-236.0252 1316.3538,-226.0817"/>
<polygon fill="#191970" stroke="#191970" points="1300.4465,-263.3077 1300.6521,-273.9005 1307.0972,-265.4915 1300.4465,-263.3077"/>
</g>
</g>
</svg>
