<?xml version="1.0" encoding="UTF-8" standalone="no"?>
<!DOCTYPE svg PUBLIC "-//W3C//DTD SVG 1.1//EN"
 "http://www.w3.org/Graphics/SVG/1.1/DTD/svg11.dtd">
<!-- Generated by graphviz version 2.36.0 (20140111.2315)
 -->
<!-- Title: /home/travis/build/igankevich/arma/src/domain.hh Pages: 1 -->
<svg width="1640pt" height="590pt"
 viewBox="0.00 0.00 1640.00 590.00" xmlns="http://www.w3.org/2000/svg" xmlns:xlink="http://www.w3.org/1999/xlink">
<g id="graph0" class="graph" transform="scale(1 1) rotate(0) translate(4 586)">
<title>/home/travis/build/igankevich/arma/src/domain.hh</title>
<!-- Node1 -->
<g id="node1" class="node"><title>Node1</title>
<polygon fill="#bfbfbf" stroke="black" points="1098.5,-540.5 1098.5,-581.5 1205.5,-581.5 1205.5,-540.5 1098.5,-540.5"/>
<text text-anchor="start" x="1106.5" y="-569.5" font-family="Helvetica,sans-Serif" font-size="10.00">/home/travis/build</text>
<text text-anchor="start" x="1106.5" y="-558.5" font-family="Helvetica,sans-Serif" font-size="10.00">/igankevich/arma/src</text>
<text text-anchor="middle" x="1152" y="-547.5" font-family="Helvetica,sans-Serif" font-size="10.00">/domain.hh</text>
</g>
<!-- Node2 -->
<g id="node2" class="node"><title>Node2</title>
<g id="a_node2"><a xlink:href="basic__solver_8hh.html" target="_top" xlink:title="/home/travis/build\l/igankevich/arma/src\l/velocity/basic_solver.hh">
<polygon fill="none" stroke="black" points="432.5,-366.5 432.5,-407.5 557.5,-407.5 557.5,-366.5 432.5,-366.5"/>
<text text-anchor="start" x="440.5" y="-395.5" font-family="Helvetica,sans-Serif" font-size="10.00">/home/travis/build</text>
<text text-anchor="start" x="440.5" y="-384.5" font-family="Helvetica,sans-Serif" font-size="10.00">/igankevich/arma/src</text>
<text text-anchor="middle" x="495" y="-373.5" font-family="Helvetica,sans-Serif" font-size="10.00">/velocity/basic_solver.hh</text>
</a>
</g>
</g>
<!-- Node1&#45;&gt;Node2 -->
<g id="edge1" class="edge"><title>Node1&#45;&gt;Node2</title>
<path fill="none" stroke="midnightblue" d="M1088.47,-549.04C1031.87,-538.838 946.94,-522.461 874,-504 758.762,-474.833 626.468,-432.208 552.612,-407.57"/>
<polygon fill="midnightblue" stroke="midnightblue" points="1087.89,-552.491 1098.35,-550.809 1089.13,-545.601 1087.89,-552.491"/>
</g>
<!-- Node21 -->
<g id="node21" class="node"><title>Node21</title>
<g id="a_node21"><a xlink:href="lh__model_8hh.html" target="_top" xlink:title="/home/travis/build\l/igankevich/arma/src\l/generator/lh_model.hh">
<polygon fill="none" stroke="black" points="883,-456.5 883,-497.5 999,-497.5 999,-456.5 883,-456.5"/>
<text text-anchor="start" x="891" y="-485.5" font-family="Helvetica,sans-Serif" font-size="10.00">/home/travis/build</text>
<text text-anchor="start" x="891" y="-474.5" font-family="Helvetica,sans-Serif" font-size="10.00">/igankevich/arma/src</text>
<text text-anchor="middle" x="941" y="-463.5" font-family="Helvetica,sans-Serif" font-size="10.00">/generator/lh_model.hh</text>
</a>
</g>
</g>
<!-- Node1&#45;&gt;Node21 -->
<g id="edge26" class="edge"><title>Node1&#45;&gt;Node21</title>
<path fill="none" stroke="midnightblue" d="M1092.08,-536.714C1060.23,-524.336 1021.52,-509.29 991.252,-497.529"/>
<polygon fill="midnightblue" stroke="midnightblue" points="1091.14,-540.103 1101.73,-540.463 1093.68,-533.578 1091.14,-540.103"/>
</g>
<!-- Node23 -->
<g id="node23" class="node"><title>Node23</title>
<g id="a_node23"><a xlink:href="bscheduler__io_8hh.html" target="_top" xlink:title="/home/travis/build\l/igankevich/arma/src\l/bits/bscheduler_io.hh">
<polygon fill="none" stroke="black" points="1283,-456.5 1283,-497.5 1395,-497.5 1395,-456.5 1283,-456.5"/>
<text text-anchor="start" x="1291" y="-485.5" font-family="Helvetica,sans-Serif" font-size="10.00">/home/travis/build</text>
<text text-anchor="start" x="1291" y="-474.5" font-family="Helvetica,sans-Serif" font-size="10.00">/igankevich/arma/src</text>
<text text-anchor="middle" x="1339" y="-463.5" font-family="Helvetica,sans-Serif" font-size="10.00">/bits/bscheduler_io.hh</text>
</a>
</g>
</g>
<!-- Node1&#45;&gt;Node23 -->
<g id="edge29" class="edge"><title>Node1&#45;&gt;Node23</title>
<path fill="none" stroke="midnightblue" d="M1206.04,-536.304C1234.01,-524.038 1267.76,-509.241 1294.25,-497.623"/>
<polygon fill="midnightblue" stroke="midnightblue" points="1204.54,-533.138 1196.79,-540.359 1207.35,-539.548 1204.54,-533.138"/>
</g>
<!-- Node25 -->
<g id="node25" class="node"><title>Node25</title>
<g id="a_node25"><a xlink:href="factor__waves_8hh.html" target="_top" xlink:title="/home/travis/build\l/igankevich/arma/src\l/factor_waves.hh">
<polygon fill="none" stroke="black" points="1017.5,-366.5 1017.5,-407.5 1124.5,-407.5 1124.5,-366.5 1017.5,-366.5"/>
<text text-anchor="start" x="1025.5" y="-395.5" font-family="Helvetica,sans-Serif" font-size="10.00">/home/travis/build</text>
<text text-anchor="start" x="1025.5" y="-384.5" font-family="Helvetica,sans-Serif" font-size="10.00">/igankevich/arma/src</text>
<text text-anchor="middle" x="1071" y="-373.5" font-family="Helvetica,sans-Serif" font-size="10.00">/factor_waves.hh</text>
</a>
</g>
</g>
<!-- Node1&#45;&gt;Node25 -->
<g id="edge31" class="edge"><title>Node1&#45;&gt;Node25</title>
<path fill="none" stroke="midnightblue" d="M1137.43,-531.336C1133.05,-522.592 1128.27,-512.93 1124,-504 1107.95,-470.443 1090.14,-430.972 1079.79,-407.802"/>
<polygon fill="midnightblue" stroke="midnightblue" points="1134.36,-533.028 1141.98,-540.386 1140.61,-529.881 1134.36,-533.028"/>
</g>
<!-- Node27 -->
<g id="node27" class="node"><title>Node27</title>
<g id="a_node27"><a xlink:href="plain__wave__model_8cc.html" target="_top" xlink:title="/home/travis/build\l/igankevich/arma/src\l/generator/plain_wave\l_model.cc">
<polygon fill="none" stroke="black" points="1413,-451 1413,-503 1525,-503 1525,-451 1413,-451"/>
<text text-anchor="start" x="1421" y="-491" font-family="Helvetica,sans-Serif" font-size="10.00">/home/travis/build</text>
<text text-anchor="start" x="1421" y="-480" font-family="Helvetica,sans-Serif" font-size="10.00">/igankevich/arma/src</text>
<text text-anchor="start" x="1421" y="-469" font-family="Helvetica,sans-Serif" font-size="10.00">/generator/plain_wave</text>
<text text-anchor="middle" x="1469" y="-458" font-family="Helvetica,sans-Serif" font-size="10.00">_model.cc</text>
</a>
</g>
</g>
<!-- Node1&#45;&gt;Node27 -->
<g id="edge34" class="edge"><title>Node1&#45;&gt;Node27</title>
<path fill="none" stroke="midnightblue" d="M1215.44,-548.686C1266.61,-538.882 1340.17,-523.257 1403,-504 1406.18,-503.026 1409.42,-501.968 1412.68,-500.854"/>
<polygon fill="midnightblue" stroke="midnightblue" points="1214.68,-545.266 1205.51,-550.568 1215.99,-552.144 1214.68,-545.266"/>
</g>
<!-- Node28 -->
<g id="node28" class="node"><title>Node28</title>
<g id="a_node28"><a xlink:href="nit__transform_8hh.html" target="_top" xlink:title="/home/travis/build\l/igankevich/arma/src\l/nonlinear/nit_transform.hh">
<polygon fill="none" stroke="black" points="1133,-456.5 1133,-497.5 1265,-497.5 1265,-456.5 1133,-456.5"/>
<text text-anchor="start" x="1141" y="-485.5" font-family="Helvetica,sans-Serif" font-size="10.00">/home/travis/build</text>
<text text-anchor="start" x="1141" y="-474.5" font-family="Helvetica,sans-Serif" font-size="10.00">/igankevich/arma/src</text>
<text text-anchor="middle" x="1199" y="-463.5" font-family="Helvetica,sans-Serif" font-size="10.00">/nonlinear/nit_transform.hh</text>
</a>
</g>
</g>
<!-- Node1&#45;&gt;Node28 -->
<g id="edge35" class="edge"><title>Node1&#45;&gt;Node28</title>
<path fill="none" stroke="midnightblue" d="M1168.5,-531.219C1174.86,-520.122 1181.97,-507.711 1187.73,-497.667"/>
<polygon fill="midnightblue" stroke="midnightblue" points="1165.31,-529.734 1163.38,-540.15 1171.39,-533.215 1165.31,-529.734"/>
</g>
<!-- Node3 -->
<g id="node3" class="node"><title>Node3</title>
<g id="a_node3"><a xlink:href="arma__driver_8hh.html" target="_top" xlink:title="/home/travis/build\l/igankevich/arma/src\l/arma_driver.hh">
<polygon fill="none" stroke="black" points="372.5,-186.5 372.5,-227.5 479.5,-227.5 479.5,-186.5 372.5,-186.5"/>
<text text-anchor="start" x="380.5" y="-215.5" font-family="Helvetica,sans-Serif" font-size="10.00">/home/travis/build</text>
<text text-anchor="start" x="380.5" y="-204.5" font-family="Helvetica,sans-Serif" font-size="10.00">/igankevich/arma/src</text>
<text text-anchor="middle" x="426" y="-193.5" font-family="Helvetica,sans-Serif" font-size="10.00">/arma_driver.hh</text>
</a>
</g>
</g>
<!-- Node2&#45;&gt;Node3 -->
<g id="edge2" class="edge"><title>Node2&#45;&gt;Node3</title>
<path fill="none" stroke="midnightblue" d="M452.628,-360.336C440.435,-350.611 428.644,-338.36 422,-324 407.531,-292.727 414.176,-251.476 420.184,-227.53"/>
<polygon fill="midnightblue" stroke="midnightblue" points="450.551,-363.153 460.649,-366.359 454.754,-357.556 450.551,-363.153"/>
</g>
<!-- Node9 -->
<g id="node9" class="node"><title>Node9</title>
<g id="a_node9"><a xlink:href="linear__solver_8hh.html" target="_top" xlink:title="/home/travis/build\l/igankevich/arma/src\l/velocity/linear_solver.hh">
<polygon fill="none" stroke="black" points="239.5,-276.5 239.5,-317.5 364.5,-317.5 364.5,-276.5 239.5,-276.5"/>
<text text-anchor="start" x="247.5" y="-305.5" font-family="Helvetica,sans-Serif" font-size="10.00">/home/travis/build</text>
<text text-anchor="start" x="247.5" y="-294.5" font-family="Helvetica,sans-Serif" font-size="10.00">/igankevich/arma/src</text>
<text text-anchor="middle" x="302" y="-283.5" font-family="Helvetica,sans-Serif" font-size="10.00">/velocity/linear_solver.hh</text>
</a>
</g>
</g>
<!-- Node2&#45;&gt;Node9 -->
<g id="edge8" class="edge"><title>Node2&#45;&gt;Node9</title>
<path fill="none" stroke="midnightblue" d="M442.92,-362.254C412.272,-348.279 373.977,-330.819 345.046,-317.627"/>
<polygon fill="midnightblue" stroke="midnightblue" points="441.616,-365.506 452.167,-366.47 444.52,-359.137 441.616,-365.506"/>
</g>
<!-- Node14 -->
<g id="node14" class="node"><title>Node14</title>
<g id="a_node14"><a xlink:href="plain__wave__solver_8hh.html" target="_top" xlink:title="/home/travis/build\l/igankevich/arma/src\l/velocity/plain_wave\l_solver.hh">
<polygon fill="none" stroke="black" points="576.5,-271 576.5,-323 683.5,-323 683.5,-271 576.5,-271"/>
<text text-anchor="start" x="584.5" y="-311" font-family="Helvetica,sans-Serif" font-size="10.00">/home/travis/build</text>
<text text-anchor="start" x="584.5" y="-300" font-family="Helvetica,sans-Serif" font-size="10.00">/igankevich/arma/src</text>
<text text-anchor="start" x="584.5" y="-289" font-family="Helvetica,sans-Serif" font-size="10.00">/velocity/plain_wave</text>
<text text-anchor="middle" x="630" y="-278" font-family="Helvetica,sans-Serif" font-size="10.00">_solver.hh</text>
</a>
</g>
</g>
<!-- Node2&#45;&gt;Node14 -->
<g id="edge16" class="edge"><title>Node2&#45;&gt;Node14</title>
<path fill="none" stroke="midnightblue" d="M533.591,-360.844C551.799,-348.976 573.467,-334.851 591.645,-323.002"/>
<polygon fill="midnightblue" stroke="midnightblue" points="531.427,-358.077 524.961,-366.47 535.25,-363.941 531.427,-358.077"/>
</g>
<!-- Node16 -->
<g id="node16" class="node"><title>Node16</title>
<g id="a_node16"><a xlink:href="high__amplitude__realtime__solver_8hh.html" target="_top" xlink:title="/home/travis/build\l/igankevich/arma/src\l/velocity/high_amplitude\l_realtime_solver.hh">
<polygon fill="none" stroke="black" points="0,-91 0,-143 122,-143 122,-91 0,-91"/>
<text text-anchor="start" x="8" y="-131" font-family="Helvetica,sans-Serif" font-size="10.00">/home/travis/build</text>
<text text-anchor="start" x="8" y="-120" font-family="Helvetica,sans-Serif" font-size="10.00">/igankevich/arma/src</text>
<text text-anchor="start" x="8" y="-109" font-family="Helvetica,sans-Serif" font-size="10.00">/velocity/high_amplitude</text>
<text text-anchor="middle" x="61" y="-98" font-family="Helvetica,sans-Serif" font-size="10.00">_realtime_solver.hh</text>
</a>
</g>
</g>
<!-- Node2&#45;&gt;Node16 -->
<g id="edge19" class="edge"><title>Node2&#45;&gt;Node16</title>
<path fill="none" stroke="midnightblue" d="M422.201,-383.578C324.977,-375.929 156.167,-346.206 80,-234 61.6616,-206.985 58.8243,-168.426 59.2752,-143.306"/>
<polygon fill="midnightblue" stroke="midnightblue" points="422.019,-387.074 432.247,-384.31 422.528,-380.093 422.019,-387.074"/>
</g>
<!-- Node18 -->
<g id="node18" class="node"><title>Node18</title>
<g id="a_node18"><a xlink:href="basic__solver_8cc.html" target="_top" xlink:title="/home/travis/build\l/igankevich/arma/src\l/velocity/basic_solver.cc">
<polygon fill="none" stroke="black" points="701.5,-276.5 701.5,-317.5 826.5,-317.5 826.5,-276.5 701.5,-276.5"/>
<text text-anchor="start" x="709.5" y="-305.5" font-family="Helvetica,sans-Serif" font-size="10.00">/home/travis/build</text>
<text text-anchor="start" x="709.5" y="-294.5" font-family="Helvetica,sans-Serif" font-size="10.00">/igankevich/arma/src</text>
<text text-anchor="middle" x="764" y="-283.5" font-family="Helvetica,sans-Serif" font-size="10.00">/velocity/basic_solver.cc</text>
</a>
</g>
</g>
<!-- Node2&#45;&gt;Node18 -->
<g id="edge23" class="edge"><title>Node2&#45;&gt;Node18</title>
<path fill="none" stroke="midnightblue" d="M567.546,-363.959C604.857,-352.424 650.994,-337.85 692,-324 698.044,-321.959 704.352,-319.769 710.614,-317.558"/>
<polygon fill="midnightblue" stroke="midnightblue" points="566.289,-360.684 557.765,-366.976 568.353,-367.373 566.289,-360.684"/>
</g>
<!-- Node19 -->
<g id="node19" class="node"><title>Node19</title>
<g id="a_node19"><a xlink:href="small__amplitude__solver_8hh.html" target="_top" xlink:title="/home/travis/build\l/igankevich/arma/src\l/velocity/small_amplitude\l_solver.hh">
<polygon fill="none" stroke="black" points="431.5,-271 431.5,-323 558.5,-323 558.5,-271 431.5,-271"/>
<text text-anchor="start" x="439.5" y="-311" font-family="Helvetica,sans-Serif" font-size="10.00">/home/travis/build</text>
<text text-anchor="start" x="439.5" y="-300" font-family="Helvetica,sans-Serif" font-size="10.00">/igankevich/arma/src</text>
<text text-anchor="start" x="439.5" y="-289" font-family="Helvetica,sans-Serif" font-size="10.00">/velocity/small_amplitude</text>
<text text-anchor="middle" x="495" y="-278" font-family="Helvetica,sans-Serif" font-size="10.00">_solver.hh</text>
</a>
</g>
</g>
<!-- Node2&#45;&gt;Node19 -->
<g id="edge24" class="edge"><title>Node2&#45;&gt;Node19</title>
<path fill="none" stroke="midnightblue" d="M495,-356.255C495,-345.506 495,-333.484 495,-323.166"/>
<polygon fill="midnightblue" stroke="midnightblue" points="491.5,-356.47 495,-366.47 498.5,-356.47 491.5,-356.47"/>
</g>
<!-- Node4 -->
<g id="node4" class="node"><title>Node4</title>
<g id="a_node4"><a xlink:href="arma__driver_8cc.html" target="_top" xlink:title="/home/travis/build\l/igankevich/arma/src\l/arma_driver.cc">
<polygon fill="none" stroke="black" points="280.5,-96.5 280.5,-137.5 387.5,-137.5 387.5,-96.5 280.5,-96.5"/>
<text text-anchor="start" x="288.5" y="-125.5" font-family="Helvetica,sans-Serif" font-size="10.00">/home/travis/build</text>
<text text-anchor="start" x="288.5" y="-114.5" font-family="Helvetica,sans-Serif" font-size="10.00">/igankevich/arma/src</text>
<text text-anchor="middle" x="334" y="-103.5" font-family="Helvetica,sans-Serif" font-size="10.00">/arma_driver.cc</text>
</a>
</g>
</g>
<!-- Node3&#45;&gt;Node4 -->
<g id="edge3" class="edge"><title>Node3&#45;&gt;Node4</title>
<path fill="none" stroke="midnightblue" d="M398.129,-179.341C384.148,-165.967 367.505,-150.049 354.679,-137.78"/>
<polygon fill="midnightblue" stroke="midnightblue" points="395.936,-182.087 405.582,-186.47 400.775,-177.028 395.936,-182.087"/>
</g>
<!-- Node5 -->
<g id="node5" class="node"><title>Node5</title>
<g id="a_node5"><a xlink:href="arma__main_8cc.html" target="_top" xlink:title="/home/travis/build\l/igankevich/arma/src\l/arma_main.cc">
<polygon fill="none" stroke="black" points="610.5,-6.5 610.5,-47.5 717.5,-47.5 717.5,-6.5 610.5,-6.5"/>
<text text-anchor="start" x="618.5" y="-35.5" font-family="Helvetica,sans-Serif" font-size="10.00">/home/travis/build</text>
<text text-anchor="start" x="618.5" y="-24.5" font-family="Helvetica,sans-Serif" font-size="10.00">/igankevich/arma/src</text>
<text text-anchor="middle" x="664" y="-13.5" font-family="Helvetica,sans-Serif" font-size="10.00">/arma_main.cc</text>
</a>
</g>
</g>
<!-- Node3&#45;&gt;Node5 -->
<g id="edge4" class="edge"><title>Node3&#45;&gt;Node5</title>
<path fill="none" stroke="midnightblue" d="M475.76,-181.734C495.756,-171.155 518.617,-157.98 538,-144 579.479,-114.084 622.099,-72.0031 645.603,-47.6088"/>
<polygon fill="midnightblue" stroke="midnightblue" points="474.046,-178.68 466.796,-186.406 477.282,-184.887 474.046,-178.68"/>
</g>
<!-- Node6 -->
<g id="node6" class="node"><title>Node6</title>
<g id="a_node6"><a xlink:href="arma__realtime__driver_8hh.html" target="_top" xlink:title="/home/travis/build\l/igankevich/arma/src\l/arma_realtime_driver.hh">
<polygon fill="none" stroke="black" points="406,-96.5 406,-137.5 530,-137.5 530,-96.5 406,-96.5"/>
<text text-anchor="start" x="414" y="-125.5" font-family="Helvetica,sans-Serif" font-size="10.00">/home/travis/build</text>
<text text-anchor="start" x="414" y="-114.5" font-family="Helvetica,sans-Serif" font-size="10.00">/igankevich/arma/src</text>
<text text-anchor="middle" x="468" y="-103.5" font-family="Helvetica,sans-Serif" font-size="10.00">/arma_realtime_driver.hh</text>
</a>
</g>
</g>
<!-- Node3&#45;&gt;Node6 -->
<g id="edge5" class="edge"><title>Node3&#45;&gt;Node6</title>
<path fill="none" stroke="midnightblue" d="M439.798,-177.09C445.945,-164.21 453.029,-149.367 458.56,-137.78"/>
<polygon fill="midnightblue" stroke="midnightblue" points="436.47,-175.938 435.321,-186.47 442.787,-178.953 436.47,-175.938"/>
</g>
<!-- Node7 -->
<g id="node7" class="node"><title>Node7</title>
<g id="a_node7"><a xlink:href="arma__realtime_8cc.html" target="_top" xlink:title="/home/travis/build\l/igankevich/arma/src\l/arma_realtime.cc">
<polygon fill="none" stroke="black" points="414.5,-6.5 414.5,-47.5 521.5,-47.5 521.5,-6.5 414.5,-6.5"/>
<text text-anchor="start" x="422.5" y="-35.5" font-family="Helvetica,sans-Serif" font-size="10.00">/home/travis/build</text>
<text text-anchor="start" x="422.5" y="-24.5" font-family="Helvetica,sans-Serif" font-size="10.00">/igankevich/arma/src</text>
<text text-anchor="middle" x="468" y="-13.5" font-family="Helvetica,sans-Serif" font-size="10.00">/arma_realtime.cc</text>
</a>
</g>
</g>
<!-- Node6&#45;&gt;Node7 -->
<g id="edge6" class="edge"><title>Node6&#45;&gt;Node7</title>
<path fill="none" stroke="midnightblue" d="M468,-86.3298C468,-73.6289 468,-59.1399 468,-47.7798"/>
<polygon fill="midnightblue" stroke="midnightblue" points="464.5,-86.4699 468,-96.4699 471.5,-86.47 464.5,-86.4699"/>
</g>
<!-- Node8 -->
<g id="node8" class="node"><title>Node8</title>
<g id="a_node8"><a xlink:href="arma__realtime__driver_8cc.html" target="_top" xlink:title="/home/travis/build\l/igankevich/arma/src\l/arma_realtime_driver.cc">
<polygon fill="none" stroke="black" points="206,-6.5 206,-47.5 330,-47.5 330,-6.5 206,-6.5"/>
<text text-anchor="start" x="214" y="-35.5" font-family="Helvetica,sans-Serif" font-size="10.00">/home/travis/build</text>
<text text-anchor="start" x="214" y="-24.5" font-family="Helvetica,sans-Serif" font-size="10.00">/igankevich/arma/src</text>
<text text-anchor="middle" x="268" y="-13.5" font-family="Helvetica,sans-Serif" font-size="10.00">/arma_realtime_driver.cc</text>
</a>
</g>
</g>
<!-- Node6&#45;&gt;Node8 -->
<g id="edge7" class="edge"><title>Node6&#45;&gt;Node8</title>
<path fill="none" stroke="midnightblue" d="M414.441,-92.4341C382.613,-78.4298 342.717,-60.8754 312.608,-47.6274"/>
<polygon fill="midnightblue" stroke="midnightblue" points="413.051,-95.6461 423.614,-96.4699 415.87,-89.2389 413.051,-95.6461"/>
</g>
<!-- Node10 -->
<g id="node10" class="node"><title>Node10</title>
<g id="a_node10"><a xlink:href="high__amplitude__solver_8hh.html" target="_top" xlink:title="/home/travis/build\l/igankevich/arma/src\l/velocity/high_amplitude\l_solver.hh">
<polygon fill="none" stroke="black" points="89,-181 89,-233 211,-233 211,-181 89,-181"/>
<text text-anchor="start" x="97" y="-221" font-family="Helvetica,sans-Serif" font-size="10.00">/home/travis/build</text>
<text text-anchor="start" x="97" y="-210" font-family="Helvetica,sans-Serif" font-size="10.00">/igankevich/arma/src</text>
<text text-anchor="start" x="97" y="-199" font-family="Helvetica,sans-Serif" font-size="10.00">/velocity/high_amplitude</text>
<text text-anchor="middle" x="150" y="-188" font-family="Helvetica,sans-Serif" font-size="10.00">_solver.hh</text>
</a>
</g>
</g>
<!-- Node9&#45;&gt;Node10 -->
<g id="edge9" class="edge"><title>Node9&#45;&gt;Node10</title>
<path fill="none" stroke="midnightblue" d="M259.386,-271.329C238.715,-259.361 213.931,-245.013 193.185,-233.002"/>
<polygon fill="midnightblue" stroke="midnightblue" points="257.858,-274.489 268.266,-276.47 261.366,-268.431 257.858,-274.489"/>
</g>
<!-- Node11 -->
<g id="node11" class="node"><title>Node11</title>
<g id="a_node11"><a xlink:href="common__main_8hh.html" target="_top" xlink:title="/home/travis/build\l/igankevich/arma/src\l/common_main.hh">
<polygon fill="none" stroke="black" points="763.5,-96.5 763.5,-137.5 870.5,-137.5 870.5,-96.5 763.5,-96.5"/>
<text text-anchor="start" x="771.5" y="-125.5" font-family="Helvetica,sans-Serif" font-size="10.00">/home/travis/build</text>
<text text-anchor="start" x="771.5" y="-114.5" font-family="Helvetica,sans-Serif" font-size="10.00">/igankevich/arma/src</text>
<text text-anchor="middle" x="817" y="-103.5" font-family="Helvetica,sans-Serif" font-size="10.00">/common_main.hh</text>
</a>
</g>
</g>
<!-- Node9&#45;&gt;Node11 -->
<g id="edge14" class="edge"><title>Node9&#45;&gt;Node11</title>
<path fill="none" stroke="midnightblue" d="M374.826,-282.827C411.356,-273.595 454.775,-258.405 488,-234 511.86,-216.474 502.204,-196.174 527,-180 599.446,-132.746 701.699,-120.812 763.438,-118.191"/>
<polygon fill="midnightblue" stroke="midnightblue" points="373.614,-279.519 364.719,-285.275 375.262,-286.322 373.614,-279.519"/>
</g>
<!-- Node13 -->
<g id="node13" class="node"><title>Node13</title>
<g id="a_node13"><a xlink:href="linear__solver_8cc.html" target="_top" xlink:title="/home/travis/build\l/igankevich/arma/src\l/velocity/linear_solver.cc">
<polygon fill="none" stroke="black" points="229.5,-186.5 229.5,-227.5 354.5,-227.5 354.5,-186.5 229.5,-186.5"/>
<text text-anchor="start" x="237.5" y="-215.5" font-family="Helvetica,sans-Serif" font-size="10.00">/home/travis/build</text>
<text text-anchor="start" x="237.5" y="-204.5" font-family="Helvetica,sans-Serif" font-size="10.00">/igankevich/arma/src</text>
<text text-anchor="middle" x="292" y="-193.5" font-family="Helvetica,sans-Serif" font-size="10.00">/velocity/linear_solver.cc</text>
</a>
</g>
</g>
<!-- Node9&#45;&gt;Node13 -->
<g id="edge15" class="edge"><title>Node9&#45;&gt;Node13</title>
<path fill="none" stroke="midnightblue" d="M298.628,-266.33C297.185,-253.629 295.539,-239.14 294.248,-227.78"/>
<polygon fill="midnightblue" stroke="midnightblue" points="295.174,-266.929 299.781,-276.47 302.129,-266.139 295.174,-266.929"/>
</g>
<!-- Node10&#45;&gt;Node11 -->
<g id="edge10" class="edge"><title>Node10&#45;&gt;Node11</title>
<path fill="none" stroke="midnightblue" d="M221.184,-180.446C290.909,-169.473 630.318,-136.146 763.414,-123.195"/>
<polygon fill="midnightblue" stroke="midnightblue" points="220.396,-177.032 211.191,-182.278 221.658,-183.918 220.396,-177.032"/>
</g>
<!-- Node12 -->
<g id="node12" class="node"><title>Node12</title>
<g id="a_node12"><a xlink:href="high__amplitude__solver_8cc.html" target="_top" xlink:title="/home/travis/build\l/igankevich/arma/src\l/velocity/high_amplitude\l_solver.cc">
<polygon fill="none" stroke="black" points="140,-91 140,-143 262,-143 262,-91 140,-91"/>
<text text-anchor="start" x="148" y="-131" font-family="Helvetica,sans-Serif" font-size="10.00">/home/travis/build</text>
<text text-anchor="start" x="148" y="-120" font-family="Helvetica,sans-Serif" font-size="10.00">/igankevich/arma/src</text>
<text text-anchor="start" x="148" y="-109" font-family="Helvetica,sans-Serif" font-size="10.00">/velocity/high_amplitude</text>
<text text-anchor="middle" x="201" y="-98" font-family="Helvetica,sans-Serif" font-size="10.00">_solver.cc</text>
</a>
</g>
</g>
<!-- Node10&#45;&gt;Node12 -->
<g id="edge13" class="edge"><title>Node10&#45;&gt;Node12</title>
<path fill="none" stroke="midnightblue" d="M169.895,-171.671C175.416,-162.145 181.306,-151.983 186.458,-143.092"/>
<polygon fill="midnightblue" stroke="midnightblue" points="166.737,-170.14 164.751,-180.547 172.794,-173.65 166.737,-170.14"/>
</g>
<!-- Node11&#45;&gt;Node5 -->
<g id="edge11" class="edge"><title>Node11&#45;&gt;Node5</title>
<path fill="none" stroke="midnightblue" d="M774.134,-91.3453C750.112,-77.5286 720.565,-60.5342 698.125,-47.6274"/>
<polygon fill="midnightblue" stroke="midnightblue" points="772.631,-94.5181 783.044,-96.4699 776.121,-88.4502 772.631,-94.5181"/>
</g>
<!-- Node11&#45;&gt;Node7 -->
<g id="edge12" class="edge"><title>Node11&#45;&gt;Node7</title>
<path fill="none" stroke="midnightblue" d="M753.303,-99.9388C686.877,-83.1895 583.915,-57.2279 521.541,-41.5003"/>
<polygon fill="midnightblue" stroke="midnightblue" points="752.681,-103.392 763.234,-102.443 754.393,-96.604 752.681,-103.392"/>
</g>
<!-- Node14&#45;&gt;Node11 -->
<g id="edge17" class="edge"><title>Node14&#45;&gt;Node11</title>
<path fill="none" stroke="midnightblue" d="M693.271,-269.874C741.383,-254.556 766.944,-269.279 797,-234 820.06,-206.932 821.012,-163.071 819.256,-137.749"/>
<polygon fill="midnightblue" stroke="midnightblue" points="691.962,-266.623 683.68,-273.231 694.275,-273.23 691.962,-266.623"/>
</g>
<!-- Node15 -->
<g id="node15" class="node"><title>Node15</title>
<g id="a_node15"><a xlink:href="plain__wave__solver_8cc.html" target="_top" xlink:title="/home/travis/build\l/igankevich/arma/src\l/velocity/plain_wave\l_solver.cc">
<polygon fill="none" stroke="black" points="681.5,-181 681.5,-233 788.5,-233 788.5,-181 681.5,-181"/>
<text text-anchor="start" x="689.5" y="-221" font-family="Helvetica,sans-Serif" font-size="10.00">/home/travis/build</text>
<text text-anchor="start" x="689.5" y="-210" font-family="Helvetica,sans-Serif" font-size="10.00">/igankevich/arma/src</text>
<text text-anchor="start" x="689.5" y="-199" font-family="Helvetica,sans-Serif" font-size="10.00">/velocity/plain_wave</text>
<text text-anchor="middle" x="735" y="-188" font-family="Helvetica,sans-Serif" font-size="10.00">_solver.cc</text>
</a>
</g>
</g>
<!-- Node14&#45;&gt;Node15 -->
<g id="edge18" class="edge"><title>Node14&#45;&gt;Node15</title>
<path fill="none" stroke="midnightblue" d="M667.893,-264.242C680.064,-254.042 693.373,-242.887 704.907,-233.221"/>
<polygon fill="midnightblue" stroke="midnightblue" points="665.505,-261.677 660.089,-270.783 670.001,-267.042 665.505,-261.677"/>
</g>
<!-- Node16&#45;&gt;Node7 -->
<g id="edge20" class="edge"><title>Node16&#45;&gt;Node7</title>
<path fill="none" stroke="midnightblue" d="M132.14,-89.8796C222.939,-65.9913 249.346,-70.5717 338,-54 363.113,-49.3057 390.889,-43.7941 414.297,-39.0566"/>
<polygon fill="midnightblue" stroke="midnightblue" points="131.009,-86.5592 122.253,-92.5249 132.818,-93.3213 131.009,-86.5592"/>
</g>
<!-- Node16&#45;&gt;Node8 -->
<g id="edge21" class="edge"><title>Node16&#45;&gt;Node8</title>
<path fill="none" stroke="midnightblue" d="M129.324,-86.9539C159.758,-74.0159 194.797,-59.12 222.04,-47.5384"/>
<polygon fill="midnightblue" stroke="midnightblue" points="127.874,-83.7671 120.041,-90.9005 130.613,-90.2091 127.874,-83.7671"/>
</g>
<!-- Node17 -->
<g id="node17" class="node"><title>Node17</title>
<g id="a_node17"><a xlink:href="high__amplitude__realtime__solver_8cc.html" target="_top" xlink:title="/home/travis/build\l/igankevich/arma/src\l/velocity/high_amplitude\l_realtime_solver.cc">
<polygon fill="none" stroke="black" points="0,-1 0,-53 122,-53 122,-1 0,-1"/>
<text text-anchor="start" x="8" y="-41" font-family="Helvetica,sans-Serif" font-size="10.00">/home/travis/build</text>
<text text-anchor="start" x="8" y="-30" font-family="Helvetica,sans-Serif" font-size="10.00">/igankevich/arma/src</text>
<text text-anchor="start" x="8" y="-19" font-family="Helvetica,sans-Serif" font-size="10.00">/velocity/high_amplitude</text>
<text text-anchor="middle" x="61" y="-8" font-family="Helvetica,sans-Serif" font-size="10.00">_realtime_solver.cc</text>
</a>
</g>
</g>
<!-- Node16&#45;&gt;Node17 -->
<g id="edge22" class="edge"><title>Node16&#45;&gt;Node17</title>
<path fill="none" stroke="midnightblue" d="M61,-80.4892C61,-71.3088 61,-61.616 61,-53.0921"/>
<polygon fill="midnightblue" stroke="midnightblue" points="57.5001,-80.5467 61,-90.5468 64.5001,-80.5468 57.5001,-80.5467"/>
</g>
<!-- Node20 -->
<g id="node20" class="node"><title>Node20</title>
<g id="a_node20"><a xlink:href="small__amplitude__solver_8cc.html" target="_top" xlink:title="/home/travis/build\l/igankevich/arma/src\l/velocity/small_amplitude\l_solver.cc">
<polygon fill="none" stroke="black" points="536.5,-181 536.5,-233 663.5,-233 663.5,-181 536.5,-181"/>
<text text-anchor="start" x="544.5" y="-221" font-family="Helvetica,sans-Serif" font-size="10.00">/home/travis/build</text>
<text text-anchor="start" x="544.5" y="-210" font-family="Helvetica,sans-Serif" font-size="10.00">/igankevich/arma/src</text>
<text text-anchor="start" x="544.5" y="-199" font-family="Helvetica,sans-Serif" font-size="10.00">/velocity/small_amplitude</text>
<text text-anchor="middle" x="600" y="-188" font-family="Helvetica,sans-Serif" font-size="10.00">_solver.cc</text>
</a>
</g>
</g>
<!-- Node19&#45;&gt;Node20 -->
<g id="edge25" class="edge"><title>Node19&#45;&gt;Node20</title>
<path fill="none" stroke="midnightblue" d="M532.893,-264.242C545.064,-254.042 558.373,-242.887 569.907,-233.221"/>
<polygon fill="midnightblue" stroke="midnightblue" points="530.505,-261.677 525.089,-270.783 535.001,-267.042 530.505,-261.677"/>
</g>
<!-- Node21&#45;&gt;Node11 -->
<g id="edge27" class="edge"><title>Node21&#45;&gt;Node11</title>
<path fill="none" stroke="midnightblue" d="M904.668,-449.911C893.204,-439.922 881.568,-427.619 874,-414 847.183,-365.739 825.85,-195.95 819.179,-137.749"/>
<polygon fill="midnightblue" stroke="midnightblue" points="902.599,-452.741 912.525,-456.444 907.074,-447.359 902.599,-452.741"/>
</g>
<!-- Node22 -->
<g id="node22" class="node"><title>Node22</title>
<g id="a_node22"><a xlink:href="lh__model_8cc.html" target="_top" xlink:title="/home/travis/build\l/igankevich/arma/src\l/generator/lh_model.cc">
<polygon fill="none" stroke="black" points="883,-366.5 883,-407.5 999,-407.5 999,-366.5 883,-366.5"/>
<text text-anchor="start" x="891" y="-395.5" font-family="Helvetica,sans-Serif" font-size="10.00">/home/travis/build</text>
<text text-anchor="start" x="891" y="-384.5" font-family="Helvetica,sans-Serif" font-size="10.00">/igankevich/arma/src</text>
<text text-anchor="middle" x="941" y="-373.5" font-family="Helvetica,sans-Serif" font-size="10.00">/generator/lh_model.cc</text>
</a>
</g>
</g>
<!-- Node21&#45;&gt;Node22 -->
<g id="edge28" class="edge"><title>Node21&#45;&gt;Node22</title>
<path fill="none" stroke="midnightblue" d="M941,-446.33C941,-433.629 941,-419.14 941,-407.78"/>
<polygon fill="midnightblue" stroke="midnightblue" points="937.5,-446.47 941,-456.47 944.5,-446.47 937.5,-446.47"/>
</g>
<!-- Node24 -->
<g id="node24" class="node"><title>Node24</title>
<g id="a_node24"><a xlink:href="ar__model__bscheduler_8cc.html" target="_top" xlink:title="/home/travis/build\l/igankevich/arma/src\l/generator/ar_model_bscheduler.cc">
<polygon fill="none" stroke="black" points="1462.5,-366.5 1462.5,-407.5 1631.5,-407.5 1631.5,-366.5 1462.5,-366.5"/>
<text text-anchor="start" x="1470.5" y="-395.5" font-family="Helvetica,sans-Serif" font-size="10.00">/home/travis/build</text>
<text text-anchor="start" x="1470.5" y="-384.5" font-family="Helvetica,sans-Serif" font-size="10.00">/igankevich/arma/src</text>
<text text-anchor="middle" x="1547" y="-373.5" font-family="Helvetica,sans-Serif" font-size="10.00">/generator/ar_model_bscheduler.cc</text>
</a>
</g>
</g>
<!-- Node23&#45;&gt;Node24 -->
<g id="edge30" class="edge"><title>Node23&#45;&gt;Node24</title>
<path fill="none" stroke="midnightblue" d="M1394.7,-452.434C1427.8,-438.43 1469.29,-420.875 1500.61,-407.627"/>
<polygon fill="midnightblue" stroke="midnightblue" points="1393.01,-449.35 1385.16,-456.47 1395.74,-455.797 1393.01,-449.35"/>
</g>
<!-- Node25&#45;&gt;Node18 -->
<g id="edge33" class="edge"><title>Node25&#45;&gt;Node18</title>
<path fill="none" stroke="midnightblue" d="M1015.73,-363.008C1012.79,-361.954 1009.87,-360.944 1007,-360 973.862,-349.097 886.992,-327.55 826.646,-312.956"/>
<polygon fill="midnightblue" stroke="midnightblue" points="1014.54,-366.298 1025.13,-366.495 1016.98,-359.735 1014.54,-366.298"/>
</g>
<!-- Node26 -->
<g id="node26" class="node"><title>Node26</title>
<g id="a_node26"><a xlink:href="factor__waves_8cc.html" target="_top" xlink:title="/home/travis/build\l/igankevich/arma/src\l/factor_waves.cc">
<polygon fill="none" stroke="black" points="883.5,-276.5 883.5,-317.5 990.5,-317.5 990.5,-276.5 883.5,-276.5"/>
<text text-anchor="start" x="891.5" y="-305.5" font-family="Helvetica,sans-Serif" font-size="10.00">/home/travis/build</text>
<text text-anchor="start" x="891.5" y="-294.5" font-family="Helvetica,sans-Serif" font-size="10.00">/igankevich/arma/src</text>
<text text-anchor="middle" x="937" y="-283.5" font-family="Helvetica,sans-Serif" font-size="10.00">/factor_waves.cc</text>
</a>
</g>
</g>
<!-- Node25&#45;&gt;Node26 -->
<g id="edge32" class="edge"><title>Node25&#45;&gt;Node26</title>
<path fill="none" stroke="midnightblue" d="M1032.65,-360.816C1011.84,-347.151 986.493,-330.503 967.119,-317.78"/>
<polygon fill="midnightblue" stroke="midnightblue" points="1030.98,-363.906 1041.26,-366.47 1034.82,-358.055 1030.98,-363.906"/>
</g>
<!-- Node29 -->
<g id="node29" class="node"><title>Node29</title>
<g id="a_node29"><a xlink:href="basic__arma__model_8hh.html" target="_top" xlink:title="/home/travis/build\l/igankevich/arma/src\l/generator/basic_arma\l_model.hh">
<polygon fill="none" stroke="black" points="1142.5,-361 1142.5,-413 1255.5,-413 1255.5,-361 1142.5,-361"/>
<text text-anchor="start" x="1150.5" y="-401" font-family="Helvetica,sans-Serif" font-size="10.00">/home/travis/build</text>
<text text-anchor="start" x="1150.5" y="-390" font-family="Helvetica,sans-Serif" font-size="10.00">/igankevich/arma/src</text>
<text text-anchor="start" x="1150.5" y="-379" font-family="Helvetica,sans-Serif" font-size="10.00">/generator/basic_arma</text>
<text text-anchor="middle" x="1199" y="-368" font-family="Helvetica,sans-Serif" font-size="10.00">_model.hh</text>
</a>
</g>
</g>
<!-- Node28&#45;&gt;Node29 -->
<g id="edge36" class="edge"><title>Node28&#45;&gt;Node29</title>
<path fill="none" stroke="midnightblue" d="M1199,-446.255C1199,-435.506 1199,-423.484 1199,-413.166"/>
<polygon fill="midnightblue" stroke="midnightblue" points="1195.5,-446.47 1199,-456.47 1202.5,-446.47 1195.5,-446.47"/>
</g>
<!-- Node36 -->
<g id="node36" class="node"><title>Node36</title>
<g id="a_node36"><a xlink:href="basic__arma__model_8cc.html" target="_top" xlink:title="/home/travis/build\l/igankevich/arma/src\l/generator/basic_arma\l_model.cc">
<polygon fill="none" stroke="black" points="1283.5,-271 1283.5,-323 1396.5,-323 1396.5,-271 1283.5,-271"/>
<text text-anchor="start" x="1291.5" y="-311" font-family="Helvetica,sans-Serif" font-size="10.00">/home/travis/build</text>
<text text-anchor="start" x="1291.5" y="-300" font-family="Helvetica,sans-Serif" font-size="10.00">/igankevich/arma/src</text>
<text text-anchor="start" x="1291.5" y="-289" font-family="Helvetica,sans-Serif" font-size="10.00">/generator/basic_arma</text>
<text text-anchor="middle" x="1340" y="-278" font-family="Helvetica,sans-Serif" font-size="10.00">_model.cc</text>
</a>
</g>
</g>
<!-- Node28&#45;&gt;Node36 -->
<g id="edge48" class="edge"><title>Node28&#45;&gt;Node36</title>
<path fill="none" stroke="midnightblue" d="M1229.82,-449.316C1241.14,-438.835 1253.7,-426.365 1264,-414 1277.1,-398.275 1306.31,-352.282 1324.47,-323.154"/>
<polygon fill="midnightblue" stroke="midnightblue" points="1227.27,-446.911 1222.22,-456.229 1231.98,-452.088 1227.27,-446.911"/>
</g>
<!-- Node37 -->
<g id="node37" class="node"><title>Node37</title>
<g id="a_node37"><a xlink:href="nit__transform_8cc.html" target="_top" xlink:title="/home/travis/build\l/igankevich/arma/src\l/nonlinear/nit_transform.cc">
<polygon fill="none" stroke="black" points="1312,-366.5 1312,-407.5 1444,-407.5 1444,-366.5 1312,-366.5"/>
<text text-anchor="start" x="1320" y="-395.5" font-family="Helvetica,sans-Serif" font-size="10.00">/home/travis/build</text>
<text text-anchor="start" x="1320" y="-384.5" font-family="Helvetica,sans-Serif" font-size="10.00">/igankevich/arma/src</text>
<text text-anchor="middle" x="1378" y="-373.5" font-family="Helvetica,sans-Serif" font-size="10.00">/nonlinear/nit_transform.cc</text>
</a>
</g>
</g>
<!-- Node28&#45;&gt;Node37 -->
<g id="edge49" class="edge"><title>Node28&#45;&gt;Node37</title>
<path fill="none" stroke="midnightblue" d="M1248.04,-451.891C1276.34,-437.979 1311.48,-420.705 1338.08,-407.627"/>
<polygon fill="midnightblue" stroke="midnightblue" points="1246.16,-448.917 1238.73,-456.47 1249.24,-455.199 1246.16,-448.917"/>
</g>
<!-- Node30 -->
<g id="node30" class="node"><title>Node30</title>
<g id="a_node30"><a xlink:href="ar__model_8hh.html" target="_top" xlink:title="/home/travis/build\l/igankevich/arma/src\l/generator/ar_model.hh">
<polygon fill="none" stroke="black" points="1009,-276.5 1009,-317.5 1125,-317.5 1125,-276.5 1009,-276.5"/>
<text text-anchor="start" x="1017" y="-305.5" font-family="Helvetica,sans-Serif" font-size="10.00">/home/travis/build</text>
<text text-anchor="start" x="1017" y="-294.5" font-family="Helvetica,sans-Serif" font-size="10.00">/igankevich/arma/src</text>
<text text-anchor="middle" x="1067" y="-283.5" font-family="Helvetica,sans-Serif" font-size="10.00">/generator/ar_model.hh</text>
</a>
</g>
</g>
<!-- Node29&#45;&gt;Node30 -->
<g id="edge37" class="edge"><title>Node29&#45;&gt;Node30</title>
<path fill="none" stroke="midnightblue" d="M1152.77,-355.177C1134.05,-342.701 1113,-328.669 1096.44,-317.628"/>
<polygon fill="midnightblue" stroke="midnightblue" points="1150.91,-358.148 1161.17,-360.783 1154.8,-352.324 1150.91,-358.148"/>
</g>
<!-- Node34 -->
<g id="node34" class="node"><title>Node34</title>
<g id="a_node34"><a xlink:href="ma__model_8hh.html" target="_top" xlink:title="/home/travis/build\l/igankevich/arma/src\l/generator/ma_model.hh">
<polygon fill="none" stroke="black" points="1143,-276.5 1143,-317.5 1265,-317.5 1265,-276.5 1143,-276.5"/>
<text text-anchor="start" x="1151" y="-305.5" font-family="Helvetica,sans-Serif" font-size="10.00">/home/travis/build</text>
<text text-anchor="start" x="1151" y="-294.5" font-family="Helvetica,sans-Serif" font-size="10.00">/igankevich/arma/src</text>
<text text-anchor="middle" x="1204" y="-283.5" font-family="Helvetica,sans-Serif" font-size="10.00">/generator/ma_model.hh</text>
</a>
</g>
</g>
<!-- Node29&#45;&gt;Node34 -->
<g id="edge43" class="edge"><title>Node29&#45;&gt;Node34</title>
<path fill="none" stroke="midnightblue" d="M1201.02,-350.515C1201.66,-339.257 1202.34,-327.227 1202.89,-317.525"/>
<polygon fill="midnightblue" stroke="midnightblue" points="1197.52,-350.364 1200.45,-360.547 1204.51,-350.761 1197.52,-350.364"/>
</g>
<!-- Node29&#45;&gt;Node36 -->
<g id="edge47" class="edge"><title>Node29&#45;&gt;Node36</title>
<path fill="none" stroke="midnightblue" d="M1248.02,-355.404C1264.86,-344.894 1283.51,-333.255 1299.59,-323.221"/>
<polygon fill="midnightblue" stroke="midnightblue" points="1246.04,-352.519 1239.4,-360.783 1249.74,-358.457 1246.04,-352.519"/>
</g>
<!-- Node30&#45;&gt;Node11 -->
<g id="edge38" class="edge"><title>Node30&#45;&gt;Node11</title>
<path fill="none" stroke="midnightblue" d="M1058.77,-266.449C1050.02,-240.236 1033.69,-202.685 1007,-180 968.399,-147.193 912.029,-131.641 870.712,-124.332"/>
<polygon fill="midnightblue" stroke="midnightblue" points="1055.51,-267.747 1061.86,-276.227 1062.18,-265.637 1055.51,-267.747"/>
</g>
<!-- Node31 -->
<g id="node31" class="node"><title>Node31</title>
<g id="a_node31"><a xlink:href="arma__model_8hh.html" target="_top" xlink:title="/home/travis/build\l/igankevich/arma/src\l/generator/arma_model.hh">
<polygon fill="none" stroke="black" points="1055,-186.5 1055,-227.5 1185,-227.5 1185,-186.5 1055,-186.5"/>
<text text-anchor="start" x="1063" y="-215.5" font-family="Helvetica,sans-Serif" font-size="10.00">/home/travis/build</text>
<text text-anchor="start" x="1063" y="-204.5" font-family="Helvetica,sans-Serif" font-size="10.00">/igankevich/arma/src</text>
<text text-anchor="middle" x="1120" y="-193.5" font-family="Helvetica,sans-Serif" font-size="10.00">/generator/arma_model.hh</text>
</a>
</g>
</g>
<!-- Node30&#45;&gt;Node31 -->
<g id="edge39" class="edge"><title>Node30&#45;&gt;Node31</title>
<path fill="none" stroke="midnightblue" d="M1083.96,-267.845C1091.82,-254.793 1100.97,-239.594 1108.09,-227.78"/>
<polygon fill="midnightblue" stroke="midnightblue" points="1080.92,-266.098 1078.76,-276.47 1086.92,-269.709 1080.92,-266.098"/>
</g>
<!-- Node33 -->
<g id="node33" class="node"><title>Node33</title>
<g id="a_node33"><a xlink:href="ar__model_8cc.html" target="_top" xlink:title="/home/travis/build\l/igankevich/arma/src\l/generator/ar_model.cc">
<polygon fill="none" stroke="black" points="883,-186.5 883,-227.5 999,-227.5 999,-186.5 883,-186.5"/>
<text text-anchor="start" x="891" y="-215.5" font-family="Helvetica,sans-Serif" font-size="10.00">/home/travis/build</text>
<text text-anchor="start" x="891" y="-204.5" font-family="Helvetica,sans-Serif" font-size="10.00">/igankevich/arma/src</text>
<text text-anchor="middle" x="941" y="-193.5" font-family="Helvetica,sans-Serif" font-size="10.00">/generator/ar_model.cc</text>
</a>
</g>
</g>
<!-- Node30&#45;&gt;Node33 -->
<g id="edge42" class="edge"><title>Node30&#45;&gt;Node33</title>
<path fill="none" stroke="midnightblue" d="M1030.68,-270.633C1011.16,-257.003 987.457,-240.446 969.321,-227.78"/>
<polygon fill="midnightblue" stroke="midnightblue" points="1028.83,-273.613 1039.04,-276.47 1032.84,-267.875 1028.83,-273.613"/>
</g>
<!-- Node31&#45;&gt;Node11 -->
<g id="edge40" class="edge"><title>Node31&#45;&gt;Node11</title>
<path fill="none" stroke="midnightblue" d="M1051.77,-183.317C1048.13,-182.179 1044.52,-181.067 1041,-180 983.07,-162.461 916.123,-144.19 870.614,-132.066"/>
<polygon fill="midnightblue" stroke="midnightblue" points="1050.84,-186.695 1061.43,-186.377 1052.95,-180.021 1050.84,-186.695"/>
</g>
<!-- Node32 -->
<g id="node32" class="node"><title>Node32</title>
<g id="a_node32"><a xlink:href="arma__model_8cc.html" target="_top" xlink:title="/home/travis/build\l/igankevich/arma/src\l/generator/arma_model.cc">
<polygon fill="none" stroke="black" points="1055,-96.5 1055,-137.5 1185,-137.5 1185,-96.5 1055,-96.5"/>
<text text-anchor="start" x="1063" y="-125.5" font-family="Helvetica,sans-Serif" font-size="10.00">/home/travis/build</text>
<text text-anchor="start" x="1063" y="-114.5" font-family="Helvetica,sans-Serif" font-size="10.00">/igankevich/arma/src</text>
<text text-anchor="middle" x="1120" y="-103.5" font-family="Helvetica,sans-Serif" font-size="10.00">/generator/arma_model.cc</text>
</a>
</g>
</g>
<!-- Node31&#45;&gt;Node32 -->
<g id="edge41" class="edge"><title>Node31&#45;&gt;Node32</title>
<path fill="none" stroke="midnightblue" d="M1120,-176.33C1120,-163.629 1120,-149.14 1120,-137.78"/>
<polygon fill="midnightblue" stroke="midnightblue" points="1116.5,-176.47 1120,-186.47 1123.5,-176.47 1116.5,-176.47"/>
</g>
<!-- Node34&#45;&gt;Node11 -->
<g id="edge44" class="edge"><title>Node34&#45;&gt;Node11</title>
<path fill="none" stroke="midnightblue" d="M1210.59,-266.21C1214.47,-240.088 1215.12,-202.814 1194,-180 1172.29,-156.545 969.547,-133.262 870.692,-123.189"/>
<polygon fill="midnightblue" stroke="midnightblue" points="1207.1,-265.856 1208.85,-276.306 1214,-267.046 1207.1,-265.856"/>
</g>
<!-- Node34&#45;&gt;Node31 -->
<g id="edge45" class="edge"><title>Node34&#45;&gt;Node31</title>
<path fill="none" stroke="midnightblue" d="M1178.2,-268.969C1165.51,-255.673 1150.48,-239.935 1138.88,-227.78"/>
<polygon fill="midnightblue" stroke="midnightblue" points="1175.92,-271.653 1185.36,-276.47 1180.98,-266.82 1175.92,-271.653"/>
</g>
<!-- Node35 -->
<g id="node35" class="node"><title>Node35</title>
<g id="a_node35"><a xlink:href="ma__model_8cc.html" target="_top" xlink:title="/home/travis/build\l/igankevich/arma/src\l/generator/ma_model.cc">
<polygon fill="none" stroke="black" points="1241,-186.5 1241,-227.5 1363,-227.5 1363,-186.5 1241,-186.5"/>
<text text-anchor="start" x="1249" y="-215.5" font-family="Helvetica,sans-Serif" font-size="10.00">/home/travis/build</text>
<text text-anchor="start" x="1249" y="-204.5" font-family="Helvetica,sans-Serif" font-size="10.00">/igankevich/arma/src</text>
<text text-anchor="middle" x="1302" y="-193.5" font-family="Helvetica,sans-Serif" font-size="10.00">/generator/ma_model.cc</text>
</a>
</g>
</g>
<!-- Node34&#45;&gt;Node35 -->
<g id="edge46" class="edge"><title>Node34&#45;&gt;Node35</title>
<path fill="none" stroke="midnightblue" d="M1233.28,-269.712C1248.25,-256.262 1266.18,-240.162 1279.97,-227.78"/>
<polygon fill="midnightblue" stroke="midnightblue" points="1230.85,-267.184 1225.75,-276.47 1235.53,-272.393 1230.85,-267.184"/>
</g>
</g>
</svg>
