<?xml version="1.0" encoding="UTF-8" standalone="no"?>
<!DOCTYPE svg PUBLIC "-//W3C//DTD SVG 1.1//EN"
 "http://www.w3.org/Graphics/SVG/1.1/DTD/svg11.dtd">
<!-- Generated by graphviz version 2.36.0 (20140111.2315)
 -->
<!-- Title: /home/travis/build/igankevich/arma/src/domain.hh Pages: 1 -->
<svg width="1331pt" height="590pt"
 viewBox="0.00 0.00 1331.00 590.00" xmlns="http://www.w3.org/2000/svg" xmlns:xlink="http://www.w3.org/1999/xlink">
<g id="graph0" class="graph" transform="scale(1 1) rotate(0) translate(4 586)">
<title>/home/travis/build/igankevich/arma/src/domain.hh</title>
<!-- Node1 -->
<g id="node1" class="node"><title>Node1</title>
<polygon fill="#bfbfbf" stroke="black" points="948.5,-540.5 948.5,-581.5 1055.5,-581.5 1055.5,-540.5 948.5,-540.5"/>
<text text-anchor="start" x="956.5" y="-569.5" font-family="Helvetica,sans-Serif" font-size="10.00">/home/travis/build</text>
<text text-anchor="start" x="956.5" y="-558.5" font-family="Helvetica,sans-Serif" font-size="10.00">/igankevich/arma/src</text>
<text text-anchor="middle" x="1002" y="-547.5" font-family="Helvetica,sans-Serif" font-size="10.00">/domain.hh</text>
</g>
<!-- Node2 -->
<g id="node2" class="node"><title>Node2</title>
<g id="a_node2"><a xlink:href="basic__solver_8hh.html" target="_top" xlink:title="/home/travis/build\l/igankevich/arma/src\l/velocity/basic_solver.hh">
<polygon fill="none" stroke="black" points="318.5,-366.5 318.5,-407.5 443.5,-407.5 443.5,-366.5 318.5,-366.5"/>
<text text-anchor="start" x="326.5" y="-395.5" font-family="Helvetica,sans-Serif" font-size="10.00">/home/travis/build</text>
<text text-anchor="start" x="326.5" y="-384.5" font-family="Helvetica,sans-Serif" font-size="10.00">/igankevich/arma/src</text>
<text text-anchor="middle" x="381" y="-373.5" font-family="Helvetica,sans-Serif" font-size="10.00">/velocity/basic_solver.hh</text>
</a>
</g>
</g>
<!-- Node1&#45;&gt;Node2 -->
<g id="edge1" class="edge"><title>Node1&#45;&gt;Node2</title>
<path fill="none" stroke="midnightblue" d="M938.507,-542.414C819.088,-509.338 562.398,-438.242 443.638,-405.349"/>
<polygon fill="midnightblue" stroke="midnightblue" points="937.675,-545.816 948.247,-545.112 939.544,-539.07 937.675,-545.816"/>
</g>
<!-- Node21 -->
<g id="node21" class="node"><title>Node21</title>
<g id="a_node21"><a xlink:href="lh__model_8hh.html" target="_top" xlink:title="/home/travis/build\l/igankevich/arma/src\l/generator/lh_model.hh">
<polygon fill="none" stroke="black" points="869,-456.5 869,-497.5 985,-497.5 985,-456.5 869,-456.5"/>
<text text-anchor="start" x="877" y="-485.5" font-family="Helvetica,sans-Serif" font-size="10.00">/home/travis/build</text>
<text text-anchor="start" x="877" y="-474.5" font-family="Helvetica,sans-Serif" font-size="10.00">/igankevich/arma/src</text>
<text text-anchor="middle" x="927" y="-463.5" font-family="Helvetica,sans-Serif" font-size="10.00">/generator/lh_model.hh</text>
</a>
</g>
</g>
<!-- Node1&#45;&gt;Node21 -->
<g id="edge26" class="edge"><title>Node1&#45;&gt;Node21</title>
<path fill="none" stroke="midnightblue" d="M976.888,-532.544C966.438,-521.119 954.542,-508.113 944.988,-497.667"/>
<polygon fill="midnightblue" stroke="midnightblue" points="974.513,-535.133 983.845,-540.15 979.678,-530.409 974.513,-535.133"/>
</g>
<!-- Node23 -->
<g id="node23" class="node"><title>Node23</title>
<g id="a_node23"><a xlink:href="plain__wave__model_8cc.html" target="_top" xlink:title="/home/travis/build\l/igankevich/arma/src\l/generator/plain_wave\l_model.cc">
<polygon fill="none" stroke="black" points="1162,-451 1162,-503 1274,-503 1274,-451 1162,-451"/>
<text text-anchor="start" x="1170" y="-491" font-family="Helvetica,sans-Serif" font-size="10.00">/home/travis/build</text>
<text text-anchor="start" x="1170" y="-480" font-family="Helvetica,sans-Serif" font-size="10.00">/igankevich/arma/src</text>
<text text-anchor="start" x="1170" y="-469" font-family="Helvetica,sans-Serif" font-size="10.00">/generator/plain_wave</text>
<text text-anchor="middle" x="1218" y="-458" font-family="Helvetica,sans-Serif" font-size="10.00">_model.cc</text>
</a>
</g>
</g>
<!-- Node1&#45;&gt;Node23 -->
<g id="edge29" class="edge"><title>Node1&#45;&gt;Node23</title>
<path fill="none" stroke="midnightblue" d="M1065.32,-536.922C1092.39,-526.952 1124.3,-515.059 1153,-504 1155.84,-502.907 1158.74,-501.78 1161.66,-500.636"/>
<polygon fill="midnightblue" stroke="midnightblue" points="1063.76,-533.767 1055.59,-540.503 1066.18,-540.336 1063.76,-533.767"/>
</g>
<!-- Node24 -->
<g id="node24" class="node"><title>Node24</title>
<g id="a_node24"><a xlink:href="nit__transform_8hh.html" target="_top" xlink:title="/home/travis/build\l/igankevich/arma/src\l/nonlinear/nit_transform.hh">
<polygon fill="none" stroke="black" points="1012,-456.5 1012,-497.5 1144,-497.5 1144,-456.5 1012,-456.5"/>
<text text-anchor="start" x="1020" y="-485.5" font-family="Helvetica,sans-Serif" font-size="10.00">/home/travis/build</text>
<text text-anchor="start" x="1020" y="-474.5" font-family="Helvetica,sans-Serif" font-size="10.00">/igankevich/arma/src</text>
<text text-anchor="middle" x="1078" y="-463.5" font-family="Helvetica,sans-Serif" font-size="10.00">/nonlinear/nit_transform.hh</text>
</a>
</g>
</g>
<!-- Node1&#45;&gt;Node24 -->
<g id="edge30" class="edge"><title>Node1&#45;&gt;Node24</title>
<path fill="none" stroke="midnightblue" d="M1027.45,-532.544C1038.04,-521.119 1050.09,-508.113 1059.77,-497.667"/>
<polygon fill="midnightblue" stroke="midnightblue" points="1024.63,-530.437 1020.4,-540.15 1029.76,-535.195 1024.63,-530.437"/>
</g>
<!-- Node3 -->
<g id="node3" class="node"><title>Node3</title>
<g id="a_node3"><a xlink:href="arma__driver_8hh.html" target="_top" xlink:title="/home/travis/build\l/igankevich/arma/src\l/arma_driver.hh">
<polygon fill="none" stroke="black" points="183.5,-186.5 183.5,-227.5 290.5,-227.5 290.5,-186.5 183.5,-186.5"/>
<text text-anchor="start" x="191.5" y="-215.5" font-family="Helvetica,sans-Serif" font-size="10.00">/home/travis/build</text>
<text text-anchor="start" x="191.5" y="-204.5" font-family="Helvetica,sans-Serif" font-size="10.00">/igankevich/arma/src</text>
<text text-anchor="middle" x="237" y="-193.5" font-family="Helvetica,sans-Serif" font-size="10.00">/arma_driver.hh</text>
</a>
</g>
</g>
<!-- Node2&#45;&gt;Node3 -->
<g id="edge2" class="edge"><title>Node2&#45;&gt;Node3</title>
<path fill="none" stroke="midnightblue" d="M351.637,-359.277C340.628,-348.71 328.299,-336.191 318,-324 291.052,-292.103 264.175,-251.415 249.158,-227.678"/>
<polygon fill="midnightblue" stroke="midnightblue" points="349.339,-361.921 359.007,-366.253 354.151,-356.837 349.339,-361.921"/>
</g>
<!-- Node9 -->
<g id="node9" class="node"><title>Node9</title>
<g id="a_node9"><a xlink:href="linear__solver_8hh.html" target="_top" xlink:title="/home/travis/build\l/igankevich/arma/src\l/velocity/linear_solver.hh">
<polygon fill="none" stroke="black" points="470.5,-276.5 470.5,-317.5 595.5,-317.5 595.5,-276.5 470.5,-276.5"/>
<text text-anchor="start" x="478.5" y="-305.5" font-family="Helvetica,sans-Serif" font-size="10.00">/home/travis/build</text>
<text text-anchor="start" x="478.5" y="-294.5" font-family="Helvetica,sans-Serif" font-size="10.00">/igankevich/arma/src</text>
<text text-anchor="middle" x="533" y="-283.5" font-family="Helvetica,sans-Serif" font-size="10.00">/velocity/linear_solver.hh</text>
</a>
</g>
</g>
<!-- Node2&#45;&gt;Node9 -->
<g id="edge8" class="edge"><title>Node2&#45;&gt;Node9</title>
<path fill="none" stroke="midnightblue" d="M423.585,-361.345C447.451,-347.529 476.804,-330.534 499.098,-317.627"/>
<polygon fill="midnightblue" stroke="midnightblue" points="421.634,-358.431 414.734,-366.47 425.142,-364.489 421.634,-358.431"/>
</g>
<!-- Node14 -->
<g id="node14" class="node"><title>Node14</title>
<g id="a_node14"><a xlink:href="plain__wave__solver_8hh.html" target="_top" xlink:title="/home/travis/build\l/igankevich/arma/src\l/velocity/plain_wave\l_solver.hh">
<polygon fill="none" stroke="black" points="327.5,-271 327.5,-323 434.5,-323 434.5,-271 327.5,-271"/>
<text text-anchor="start" x="335.5" y="-311" font-family="Helvetica,sans-Serif" font-size="10.00">/home/travis/build</text>
<text text-anchor="start" x="335.5" y="-300" font-family="Helvetica,sans-Serif" font-size="10.00">/igankevich/arma/src</text>
<text text-anchor="start" x="335.5" y="-289" font-family="Helvetica,sans-Serif" font-size="10.00">/velocity/plain_wave</text>
<text text-anchor="middle" x="381" y="-278" font-family="Helvetica,sans-Serif" font-size="10.00">_solver.hh</text>
</a>
</g>
</g>
<!-- Node2&#45;&gt;Node14 -->
<g id="edge16" class="edge"><title>Node2&#45;&gt;Node14</title>
<path fill="none" stroke="midnightblue" d="M381,-356.255C381,-345.506 381,-333.484 381,-323.166"/>
<polygon fill="midnightblue" stroke="midnightblue" points="377.5,-356.47 381,-366.47 384.5,-356.47 377.5,-356.47"/>
</g>
<!-- Node16 -->
<g id="node16" class="node"><title>Node16</title>
<g id="a_node16"><a xlink:href="high__amplitude__realtime__solver_8hh.html" target="_top" xlink:title="/home/travis/build\l/igankevich/arma/src\l/velocity/high_amplitude\l_realtime_solver.hh">
<polygon fill="none" stroke="black" points="43,-91 43,-143 165,-143 165,-91 43,-91"/>
<text text-anchor="start" x="51" y="-131" font-family="Helvetica,sans-Serif" font-size="10.00">/home/travis/build</text>
<text text-anchor="start" x="51" y="-120" font-family="Helvetica,sans-Serif" font-size="10.00">/igankevich/arma/src</text>
<text text-anchor="start" x="51" y="-109" font-family="Helvetica,sans-Serif" font-size="10.00">/velocity/high_amplitude</text>
<text text-anchor="middle" x="104" y="-98" font-family="Helvetica,sans-Serif" font-size="10.00">_realtime_solver.hh</text>
</a>
</g>
</g>
<!-- Node2&#45;&gt;Node16 -->
<g id="edge19" class="edge"><title>Node2&#45;&gt;Node16</title>
<path fill="none" stroke="midnightblue" d="M334.76,-361.597C315.712,-350.877 293.758,-337.635 275,-324 226.366,-288.648 212.408,-280.258 174,-234 150.26,-205.407 129.159,-167.922 116.483,-143.412"/>
<polygon fill="midnightblue" stroke="midnightblue" points="333.127,-364.693 343.568,-366.493 336.527,-358.575 333.127,-364.693"/>
</g>
<!-- Node18 -->
<g id="node18" class="node"><title>Node18</title>
<g id="a_node18"><a xlink:href="basic__solver_8cc.html" target="_top" xlink:title="/home/travis/build\l/igankevich/arma/src\l/velocity/basic_solver.cc">
<polygon fill="none" stroke="black" points="613.5,-276.5 613.5,-317.5 738.5,-317.5 738.5,-276.5 613.5,-276.5"/>
<text text-anchor="start" x="621.5" y="-305.5" font-family="Helvetica,sans-Serif" font-size="10.00">/home/travis/build</text>
<text text-anchor="start" x="621.5" y="-294.5" font-family="Helvetica,sans-Serif" font-size="10.00">/igankevich/arma/src</text>
<text text-anchor="middle" x="676" y="-283.5" font-family="Helvetica,sans-Serif" font-size="10.00">/velocity/basic_solver.cc</text>
</a>
</g>
</g>
<!-- Node2&#45;&gt;Node18 -->
<g id="edge23" class="edge"><title>Node2&#45;&gt;Node18</title>
<path fill="none" stroke="midnightblue" d="M453.561,-367.309C497.368,-355.657 554.173,-339.898 604,-324 610.204,-322.021 616.671,-319.846 623.073,-317.624"/>
<polygon fill="midnightblue" stroke="midnightblue" points="452.624,-363.936 443.853,-369.88 454.416,-370.703 452.624,-363.936"/>
</g>
<!-- Node19 -->
<g id="node19" class="node"><title>Node19</title>
<g id="a_node19"><a xlink:href="small__amplitude__solver_8hh.html" target="_top" xlink:title="/home/travis/build\l/igankevich/arma/src\l/velocity/small_amplitude\l_solver.hh">
<polygon fill="none" stroke="black" points="-0.5,-271 -0.5,-323 126.5,-323 126.5,-271 -0.5,-271"/>
<text text-anchor="start" x="7.5" y="-311" font-family="Helvetica,sans-Serif" font-size="10.00">/home/travis/build</text>
<text text-anchor="start" x="7.5" y="-300" font-family="Helvetica,sans-Serif" font-size="10.00">/igankevich/arma/src</text>
<text text-anchor="start" x="7.5" y="-289" font-family="Helvetica,sans-Serif" font-size="10.00">/velocity/small_amplitude</text>
<text text-anchor="middle" x="63" y="-278" font-family="Helvetica,sans-Serif" font-size="10.00">_solver.hh</text>
</a>
</g>
</g>
<!-- Node2&#45;&gt;Node19 -->
<g id="edge24" class="edge"><title>Node2&#45;&gt;Node19</title>
<path fill="none" stroke="midnightblue" d="M308.321,-368.609C260.541,-356.836 196.773,-340.478 141,-324 136.346,-322.625 131.552,-321.156 126.738,-319.644"/>
<polygon fill="midnightblue" stroke="midnightblue" points="307.72,-372.065 318.266,-371.05 309.389,-365.267 307.72,-372.065"/>
</g>
<!-- Node4 -->
<g id="node4" class="node"><title>Node4</title>
<g id="a_node4"><a xlink:href="arma__driver_8cc.html" target="_top" xlink:title="/home/travis/build\l/igankevich/arma/src\l/arma_driver.cc">
<polygon fill="none" stroke="black" points="183.5,-96.5 183.5,-137.5 290.5,-137.5 290.5,-96.5 183.5,-96.5"/>
<text text-anchor="start" x="191.5" y="-125.5" font-family="Helvetica,sans-Serif" font-size="10.00">/home/travis/build</text>
<text text-anchor="start" x="191.5" y="-114.5" font-family="Helvetica,sans-Serif" font-size="10.00">/igankevich/arma/src</text>
<text text-anchor="middle" x="237" y="-103.5" font-family="Helvetica,sans-Serif" font-size="10.00">/arma_driver.cc</text>
</a>
</g>
</g>
<!-- Node3&#45;&gt;Node4 -->
<g id="edge3" class="edge"><title>Node3&#45;&gt;Node4</title>
<path fill="none" stroke="midnightblue" d="M237,-176.33C237,-163.629 237,-149.14 237,-137.78"/>
<polygon fill="midnightblue" stroke="midnightblue" points="233.5,-176.47 237,-186.47 240.5,-176.47 233.5,-176.47"/>
</g>
<!-- Node5 -->
<g id="node5" class="node"><title>Node5</title>
<g id="a_node5"><a xlink:href="arma__main_8cc.html" target="_top" xlink:title="/home/travis/build\l/igankevich/arma/src\l/arma_main.cc">
<polygon fill="none" stroke="black" points="579.5,-6.5 579.5,-47.5 686.5,-47.5 686.5,-6.5 579.5,-6.5"/>
<text text-anchor="start" x="587.5" y="-35.5" font-family="Helvetica,sans-Serif" font-size="10.00">/home/travis/build</text>
<text text-anchor="start" x="587.5" y="-24.5" font-family="Helvetica,sans-Serif" font-size="10.00">/igankevich/arma/src</text>
<text text-anchor="middle" x="633" y="-13.5" font-family="Helvetica,sans-Serif" font-size="10.00">/arma_main.cc</text>
</a>
</g>
</g>
<!-- Node3&#45;&gt;Node5 -->
<g id="edge4" class="edge"><title>Node3&#45;&gt;Node5</title>
<path fill="none" stroke="midnightblue" d="M290.794,-182.878C293.555,-181.868 296.302,-180.902 299,-180 360.747,-159.353 387.147,-180.59 441,-144 465.487,-127.362 456.706,-108.272 480,-90 509.203,-67.093 548.013,-51.496 579.237,-41.6751"/>
<polygon fill="midnightblue" stroke="midnightblue" points="289.503,-179.624 281.399,-186.449 291.99,-186.168 289.503,-179.624"/>
</g>
<!-- Node6 -->
<g id="node6" class="node"><title>Node6</title>
<g id="a_node6"><a xlink:href="arma__realtime__driver_8hh.html" target="_top" xlink:title="/home/travis/build\l/igankevich/arma/src\l/arma_realtime_driver.hh">
<polygon fill="none" stroke="black" points="309,-96.5 309,-137.5 433,-137.5 433,-96.5 309,-96.5"/>
<text text-anchor="start" x="317" y="-125.5" font-family="Helvetica,sans-Serif" font-size="10.00">/home/travis/build</text>
<text text-anchor="start" x="317" y="-114.5" font-family="Helvetica,sans-Serif" font-size="10.00">/igankevich/arma/src</text>
<text text-anchor="middle" x="371" y="-103.5" font-family="Helvetica,sans-Serif" font-size="10.00">/arma_realtime_driver.hh</text>
</a>
</g>
</g>
<!-- Node3&#45;&gt;Node6 -->
<g id="edge5" class="edge"><title>Node3&#45;&gt;Node6</title>
<path fill="none" stroke="midnightblue" d="M275.348,-180.816C296.156,-167.151 321.507,-150.503 340.881,-137.78"/>
<polygon fill="midnightblue" stroke="midnightblue" points="273.176,-178.055 266.739,-186.47 277.019,-183.906 273.176,-178.055"/>
</g>
<!-- Node7 -->
<g id="node7" class="node"><title>Node7</title>
<g id="a_node7"><a xlink:href="arma__realtime_8cc.html" target="_top" xlink:title="/home/travis/build\l/igankevich/arma/src\l/arma_realtime.cc">
<polygon fill="none" stroke="black" points="321.5,-6.5 321.5,-47.5 428.5,-47.5 428.5,-6.5 321.5,-6.5"/>
<text text-anchor="start" x="329.5" y="-35.5" font-family="Helvetica,sans-Serif" font-size="10.00">/home/travis/build</text>
<text text-anchor="start" x="329.5" y="-24.5" font-family="Helvetica,sans-Serif" font-size="10.00">/igankevich/arma/src</text>
<text text-anchor="middle" x="375" y="-13.5" font-family="Helvetica,sans-Serif" font-size="10.00">/arma_realtime.cc</text>
</a>
</g>
</g>
<!-- Node6&#45;&gt;Node7 -->
<g id="edge6" class="edge"><title>Node6&#45;&gt;Node7</title>
<path fill="none" stroke="midnightblue" d="M372.349,-86.3298C372.926,-73.6289 373.585,-59.1399 374.101,-47.7798"/>
<polygon fill="midnightblue" stroke="midnightblue" points="368.846,-86.3213 371.888,-96.4699 375.838,-86.6392 368.846,-86.3213"/>
</g>
<!-- Node8 -->
<g id="node8" class="node"><title>Node8</title>
<g id="a_node8"><a xlink:href="arma__realtime__driver_8cc.html" target="_top" xlink:title="/home/travis/build\l/igankevich/arma/src\l/arma_realtime_driver.cc">
<polygon fill="none" stroke="black" points="179,-6.5 179,-47.5 303,-47.5 303,-6.5 179,-6.5"/>
<text text-anchor="start" x="187" y="-35.5" font-family="Helvetica,sans-Serif" font-size="10.00">/home/travis/build</text>
<text text-anchor="start" x="187" y="-24.5" font-family="Helvetica,sans-Serif" font-size="10.00">/igankevich/arma/src</text>
<text text-anchor="middle" x="241" y="-13.5" font-family="Helvetica,sans-Serif" font-size="10.00">/arma_realtime_driver.cc</text>
</a>
</g>
</g>
<!-- Node6&#45;&gt;Node8 -->
<g id="edge7" class="edge"><title>Node6&#45;&gt;Node8</title>
<path fill="none" stroke="midnightblue" d="M333.797,-90.8163C313.61,-77.1514 289.016,-60.5031 270.22,-47.7798"/>
<polygon fill="midnightblue" stroke="midnightblue" points="331.906,-93.7626 342.149,-96.4699 335.83,-87.9659 331.906,-93.7626"/>
</g>
<!-- Node10 -->
<g id="node10" class="node"><title>Node10</title>
<g id="a_node10"><a xlink:href="high__amplitude__solver_8hh.html" target="_top" xlink:title="/home/travis/build\l/igankevich/arma/src\l/velocity/high_amplitude\l_solver.hh">
<polygon fill="none" stroke="black" points="472,-181 472,-233 594,-233 594,-181 472,-181"/>
<text text-anchor="start" x="480" y="-221" font-family="Helvetica,sans-Serif" font-size="10.00">/home/travis/build</text>
<text text-anchor="start" x="480" y="-210" font-family="Helvetica,sans-Serif" font-size="10.00">/igankevich/arma/src</text>
<text text-anchor="start" x="480" y="-199" font-family="Helvetica,sans-Serif" font-size="10.00">/velocity/high_amplitude</text>
<text text-anchor="middle" x="533" y="-188" font-family="Helvetica,sans-Serif" font-size="10.00">_solver.hh</text>
</a>
</g>
</g>
<!-- Node9&#45;&gt;Node10 -->
<g id="edge9" class="edge"><title>Node9&#45;&gt;Node10</title>
<path fill="none" stroke="midnightblue" d="M533,-266.255C533,-255.506 533,-243.484 533,-233.166"/>
<polygon fill="midnightblue" stroke="midnightblue" points="529.5,-266.47 533,-276.47 536.5,-266.47 529.5,-266.47"/>
</g>
<!-- Node11 -->
<g id="node11" class="node"><title>Node11</title>
<g id="a_node11"><a xlink:href="common__main_8hh.html" target="_top" xlink:title="/home/travis/build\l/igankevich/arma/src\l/common_main.hh">
<polygon fill="none" stroke="black" points="712.5,-96.5 712.5,-137.5 819.5,-137.5 819.5,-96.5 712.5,-96.5"/>
<text text-anchor="start" x="720.5" y="-125.5" font-family="Helvetica,sans-Serif" font-size="10.00">/home/travis/build</text>
<text text-anchor="start" x="720.5" y="-114.5" font-family="Helvetica,sans-Serif" font-size="10.00">/igankevich/arma/src</text>
<text text-anchor="middle" x="766" y="-103.5" font-family="Helvetica,sans-Serif" font-size="10.00">/common_main.hh</text>
</a>
</g>
</g>
<!-- Node9&#45;&gt;Node11 -->
<g id="edge14" class="edge"><title>Node9&#45;&gt;Node11</title>
<path fill="none" stroke="midnightblue" d="M593.94,-273.228C597.332,-272.103 600.702,-271.019 604,-270 666.206,-250.78 701.781,-281.788 746,-234 770.289,-207.75 770.716,-163.182 768.555,-137.607"/>
<polygon fill="midnightblue" stroke="midnightblue" points="592.704,-269.952 584.364,-276.486 594.959,-276.578 592.704,-269.952"/>
</g>
<!-- Node13 -->
<g id="node13" class="node"><title>Node13</title>
<g id="a_node13"><a xlink:href="linear__solver_8cc.html" target="_top" xlink:title="/home/travis/build\l/igankevich/arma/src\l/velocity/linear_solver.cc">
<polygon fill="none" stroke="black" points="612.5,-186.5 612.5,-227.5 737.5,-227.5 737.5,-186.5 612.5,-186.5"/>
<text text-anchor="start" x="620.5" y="-215.5" font-family="Helvetica,sans-Serif" font-size="10.00">/home/travis/build</text>
<text text-anchor="start" x="620.5" y="-204.5" font-family="Helvetica,sans-Serif" font-size="10.00">/igankevich/arma/src</text>
<text text-anchor="middle" x="675" y="-193.5" font-family="Helvetica,sans-Serif" font-size="10.00">/velocity/linear_solver.cc</text>
</a>
</g>
</g>
<!-- Node9&#45;&gt;Node13 -->
<g id="edge15" class="edge"><title>Node9&#45;&gt;Node13</title>
<path fill="none" stroke="midnightblue" d="M573.048,-271.182C595.207,-257.449 622.368,-240.617 643.083,-227.78"/>
<polygon fill="midnightblue" stroke="midnightblue" points="571.171,-268.227 564.514,-276.47 574.858,-274.177 571.171,-268.227"/>
</g>
<!-- Node10&#45;&gt;Node11 -->
<g id="edge10" class="edge"><title>Node10&#45;&gt;Node11</title>
<path fill="none" stroke="midnightblue" d="M603.596,-179.337C639.234,-165.877 681.693,-149.841 714.258,-137.542"/>
<polygon fill="midnightblue" stroke="midnightblue" points="602.336,-176.071 594.218,-182.879 604.81,-182.62 602.336,-176.071"/>
</g>
<!-- Node12 -->
<g id="node12" class="node"><title>Node12</title>
<g id="a_node12"><a xlink:href="high__amplitude__solver_8cc.html" target="_top" xlink:title="/home/travis/build\l/igankevich/arma/src\l/velocity/high_amplitude\l_solver.cc">
<polygon fill="none" stroke="black" points="489,-91 489,-143 611,-143 611,-91 489,-91"/>
<text text-anchor="start" x="497" y="-131" font-family="Helvetica,sans-Serif" font-size="10.00">/home/travis/build</text>
<text text-anchor="start" x="497" y="-120" font-family="Helvetica,sans-Serif" font-size="10.00">/igankevich/arma/src</text>
<text text-anchor="start" x="497" y="-109" font-family="Helvetica,sans-Serif" font-size="10.00">/velocity/high_amplitude</text>
<text text-anchor="middle" x="550" y="-98" font-family="Helvetica,sans-Serif" font-size="10.00">_solver.cc</text>
</a>
</g>
</g>
<!-- Node10&#45;&gt;Node12 -->
<g id="edge13" class="edge"><title>Node10&#45;&gt;Node12</title>
<path fill="none" stroke="midnightblue" d="M539.86,-170.489C541.634,-161.309 543.506,-151.616 545.153,-143.092"/>
<polygon fill="midnightblue" stroke="midnightblue" points="536.377,-170.064 537.917,-180.547 543.25,-171.392 536.377,-170.064"/>
</g>
<!-- Node11&#45;&gt;Node5 -->
<g id="edge11" class="edge"><title>Node11&#45;&gt;Node5</title>
<path fill="none" stroke="midnightblue" d="M727.938,-90.8163C707.286,-77.1514 682.124,-60.5031 662.894,-47.7798"/>
<polygon fill="midnightblue" stroke="midnightblue" points="726.212,-93.8708 736.483,-96.4699 730.075,-88.033 726.212,-93.8708"/>
</g>
<!-- Node11&#45;&gt;Node7 -->
<g id="edge12" class="edge"><title>Node11&#45;&gt;Node7</title>
<path fill="none" stroke="midnightblue" d="M702.505,-101.71C626.329,-84.5652 499.974,-56.1272 428.526,-40.0468"/>
<polygon fill="midnightblue" stroke="midnightblue" points="701.928,-105.167 712.453,-103.948 703.466,-98.3381 701.928,-105.167"/>
</g>
<!-- Node14&#45;&gt;Node11 -->
<g id="edge17" class="edge"><title>Node14&#45;&gt;Node11</title>
<path fill="none" stroke="midnightblue" d="M404.101,-262.701C427.602,-228.92 460.876,-181.387 463,-180 473.438,-173.182 628.25,-143.617 712.43,-127.904"/>
<polygon fill="midnightblue" stroke="midnightblue" points="401.196,-260.748 398.362,-270.957 406.944,-264.744 401.196,-260.748"/>
</g>
<!-- Node15 -->
<g id="node15" class="node"><title>Node15</title>
<g id="a_node15"><a xlink:href="plain__wave__solver_8cc.html" target="_top" xlink:title="/home/travis/build\l/igankevich/arma/src\l/velocity/plain_wave\l_solver.cc">
<polygon fill="none" stroke="black" points="308.5,-181 308.5,-233 415.5,-233 415.5,-181 308.5,-181"/>
<text text-anchor="start" x="316.5" y="-221" font-family="Helvetica,sans-Serif" font-size="10.00">/home/travis/build</text>
<text text-anchor="start" x="316.5" y="-210" font-family="Helvetica,sans-Serif" font-size="10.00">/igankevich/arma/src</text>
<text text-anchor="start" x="316.5" y="-199" font-family="Helvetica,sans-Serif" font-size="10.00">/velocity/plain_wave</text>
<text text-anchor="middle" x="362" y="-188" font-family="Helvetica,sans-Serif" font-size="10.00">_solver.cc</text>
</a>
</g>
</g>
<!-- Node14&#45;&gt;Node15 -->
<g id="edge18" class="edge"><title>Node14&#45;&gt;Node15</title>
<path fill="none" stroke="midnightblue" d="M373.333,-260.489C371.351,-251.309 369.258,-241.616 367.418,-233.092"/>
<polygon fill="midnightblue" stroke="midnightblue" points="369.973,-261.511 375.504,-270.547 376.815,-260.033 369.973,-261.511"/>
</g>
<!-- Node16&#45;&gt;Node7 -->
<g id="edge20" class="edge"><title>Node16&#45;&gt;Node7</title>
<path fill="none" stroke="midnightblue" d="M175.045,-89.8025C235.811,-71.2429 254.185,-72.9178 311,-54 316.803,-52.0677 322.834,-49.8734 328.772,-47.5982"/>
<polygon fill="midnightblue" stroke="midnightblue" points="173.847,-86.5098 165.341,-92.8263 175.93,-93.1929 173.847,-86.5098"/>
</g>
<!-- Node16&#45;&gt;Node8 -->
<g id="edge21" class="edge"><title>Node16&#45;&gt;Node8</title>
<path fill="none" stroke="midnightblue" d="M151.724,-85.3452C171.211,-72.828 193.176,-58.7191 210.442,-47.6283"/>
<polygon fill="midnightblue" stroke="midnightblue" points="149.781,-82.4334 143.259,-90.7827 153.564,-88.323 149.781,-82.4334"/>
</g>
<!-- Node17 -->
<g id="node17" class="node"><title>Node17</title>
<g id="a_node17"><a xlink:href="high__amplitude__realtime__solver_8cc.html" target="_top" xlink:title="/home/travis/build\l/igankevich/arma/src\l/velocity/high_amplitude\l_realtime_solver.cc">
<polygon fill="none" stroke="black" points="39,-1 39,-53 161,-53 161,-1 39,-1"/>
<text text-anchor="start" x="47" y="-41" font-family="Helvetica,sans-Serif" font-size="10.00">/home/travis/build</text>
<text text-anchor="start" x="47" y="-30" font-family="Helvetica,sans-Serif" font-size="10.00">/igankevich/arma/src</text>
<text text-anchor="start" x="47" y="-19" font-family="Helvetica,sans-Serif" font-size="10.00">/velocity/high_amplitude</text>
<text text-anchor="middle" x="100" y="-8" font-family="Helvetica,sans-Serif" font-size="10.00">_realtime_solver.cc</text>
</a>
</g>
</g>
<!-- Node16&#45;&gt;Node17 -->
<g id="edge22" class="edge"><title>Node16&#45;&gt;Node17</title>
<path fill="none" stroke="midnightblue" d="M102.386,-80.4892C101.969,-71.3088 101.528,-61.616 101.141,-53.0921"/>
<polygon fill="midnightblue" stroke="midnightblue" points="98.8925,-80.716 102.843,-90.5468 105.885,-80.3981 98.8925,-80.716"/>
</g>
<!-- Node20 -->
<g id="node20" class="node"><title>Node20</title>
<g id="a_node20"><a xlink:href="small__amplitude__solver_8cc.html" target="_top" xlink:title="/home/travis/build\l/igankevich/arma/src\l/velocity/small_amplitude\l_solver.cc">
<polygon fill="none" stroke="black" points="-0.5,-181 -0.5,-233 126.5,-233 126.5,-181 -0.5,-181"/>
<text text-anchor="start" x="7.5" y="-221" font-family="Helvetica,sans-Serif" font-size="10.00">/home/travis/build</text>
<text text-anchor="start" x="7.5" y="-210" font-family="Helvetica,sans-Serif" font-size="10.00">/igankevich/arma/src</text>
<text text-anchor="start" x="7.5" y="-199" font-family="Helvetica,sans-Serif" font-size="10.00">/velocity/small_amplitude</text>
<text text-anchor="middle" x="63" y="-188" font-family="Helvetica,sans-Serif" font-size="10.00">_solver.cc</text>
</a>
</g>
</g>
<!-- Node19&#45;&gt;Node20 -->
<g id="edge25" class="edge"><title>Node19&#45;&gt;Node20</title>
<path fill="none" stroke="midnightblue" d="M63,-260.489C63,-251.309 63,-241.616 63,-233.092"/>
<polygon fill="midnightblue" stroke="midnightblue" points="59.5001,-260.547 63,-270.547 66.5001,-260.547 59.5001,-260.547"/>
</g>
<!-- Node21&#45;&gt;Node11 -->
<g id="edge27" class="edge"><title>Node21&#45;&gt;Node11</title>
<path fill="none" stroke="midnightblue" d="M891.844,-449.627C880.367,-439.548 868.422,-427.261 860,-414 800.888,-320.922 776.233,-187.665 768.705,-137.817"/>
<polygon fill="midnightblue" stroke="midnightblue" points="889.769,-452.456 899.666,-456.237 894.287,-447.11 889.769,-452.456"/>
</g>
<!-- Node22 -->
<g id="node22" class="node"><title>Node22</title>
<g id="a_node22"><a xlink:href="lh__model_8cc.html" target="_top" xlink:title="/home/travis/build\l/igankevich/arma/src\l/generator/lh_model.cc">
<polygon fill="none" stroke="black" points="869,-366.5 869,-407.5 985,-407.5 985,-366.5 869,-366.5"/>
<text text-anchor="start" x="877" y="-395.5" font-family="Helvetica,sans-Serif" font-size="10.00">/home/travis/build</text>
<text text-anchor="start" x="877" y="-384.5" font-family="Helvetica,sans-Serif" font-size="10.00">/igankevich/arma/src</text>
<text text-anchor="middle" x="927" y="-373.5" font-family="Helvetica,sans-Serif" font-size="10.00">/generator/lh_model.cc</text>
</a>
</g>
</g>
<!-- Node21&#45;&gt;Node22 -->
<g id="edge28" class="edge"><title>Node21&#45;&gt;Node22</title>
<path fill="none" stroke="midnightblue" d="M927,-446.33C927,-433.629 927,-419.14 927,-407.78"/>
<polygon fill="midnightblue" stroke="midnightblue" points="923.5,-446.47 927,-456.47 930.5,-446.47 923.5,-446.47"/>
</g>
<!-- Node25 -->
<g id="node25" class="node"><title>Node25</title>
<g id="a_node25"><a xlink:href="basic__arma__model_8hh.html" target="_top" xlink:title="/home/travis/build\l/igankevich/arma/src\l/generator/basic_arma\l_model.hh">
<polygon fill="none" stroke="black" points="1021.5,-361 1021.5,-413 1134.5,-413 1134.5,-361 1021.5,-361"/>
<text text-anchor="start" x="1029.5" y="-401" font-family="Helvetica,sans-Serif" font-size="10.00">/home/travis/build</text>
<text text-anchor="start" x="1029.5" y="-390" font-family="Helvetica,sans-Serif" font-size="10.00">/igankevich/arma/src</text>
<text text-anchor="start" x="1029.5" y="-379" font-family="Helvetica,sans-Serif" font-size="10.00">/generator/basic_arma</text>
<text text-anchor="middle" x="1078" y="-368" font-family="Helvetica,sans-Serif" font-size="10.00">_model.hh</text>
</a>
</g>
</g>
<!-- Node24&#45;&gt;Node25 -->
<g id="edge31" class="edge"><title>Node24&#45;&gt;Node25</title>
<path fill="none" stroke="midnightblue" d="M1078,-446.255C1078,-435.506 1078,-423.484 1078,-413.166"/>
<polygon fill="midnightblue" stroke="midnightblue" points="1074.5,-446.47 1078,-456.47 1081.5,-446.47 1074.5,-446.47"/>
</g>
<!-- Node32 -->
<g id="node32" class="node"><title>Node32</title>
<g id="a_node32"><a xlink:href="basic__arma__model_8cc.html" target="_top" xlink:title="/home/travis/build\l/igankevich/arma/src\l/generator/basic_arma\l_model.cc">
<polygon fill="none" stroke="black" points="1176.5,-271 1176.5,-323 1289.5,-323 1289.5,-271 1176.5,-271"/>
<text text-anchor="start" x="1184.5" y="-311" font-family="Helvetica,sans-Serif" font-size="10.00">/home/travis/build</text>
<text text-anchor="start" x="1184.5" y="-300" font-family="Helvetica,sans-Serif" font-size="10.00">/igankevich/arma/src</text>
<text text-anchor="start" x="1184.5" y="-289" font-family="Helvetica,sans-Serif" font-size="10.00">/generator/basic_arma</text>
<text text-anchor="middle" x="1233" y="-278" font-family="Helvetica,sans-Serif" font-size="10.00">_model.cc</text>
</a>
</g>
</g>
<!-- Node24&#45;&gt;Node32 -->
<g id="edge43" class="edge"><title>Node24&#45;&gt;Node32</title>
<path fill="none" stroke="midnightblue" d="M1108.26,-449.31C1119.61,-438.747 1132.34,-426.223 1143,-414 1162.46,-391.689 1163.92,-383.443 1182,-360 1191.53,-347.639 1202.49,-334.226 1211.79,-323.049"/>
<polygon fill="midnightblue" stroke="midnightblue" points="1105.66,-446.943 1100.66,-456.283 1110.39,-452.101 1105.66,-446.943"/>
</g>
<!-- Node33 -->
<g id="node33" class="node"><title>Node33</title>
<g id="a_node33"><a xlink:href="nit__transform_8cc.html" target="_top" xlink:title="/home/travis/build\l/igankevich/arma/src\l/nonlinear/nit_transform.cc">
<polygon fill="none" stroke="black" points="1191,-366.5 1191,-407.5 1323,-407.5 1323,-366.5 1191,-366.5"/>
<text text-anchor="start" x="1199" y="-395.5" font-family="Helvetica,sans-Serif" font-size="10.00">/home/travis/build</text>
<text text-anchor="start" x="1199" y="-384.5" font-family="Helvetica,sans-Serif" font-size="10.00">/igankevich/arma/src</text>
<text text-anchor="middle" x="1257" y="-373.5" font-family="Helvetica,sans-Serif" font-size="10.00">/nonlinear/nit_transform.cc</text>
</a>
</g>
</g>
<!-- Node24&#45;&gt;Node33 -->
<g id="edge44" class="edge"><title>Node24&#45;&gt;Node33</title>
<path fill="none" stroke="midnightblue" d="M1127.04,-451.891C1155.34,-437.979 1190.48,-420.705 1217.08,-407.627"/>
<polygon fill="midnightblue" stroke="midnightblue" points="1125.16,-448.917 1117.73,-456.47 1128.24,-455.199 1125.16,-448.917"/>
</g>
<!-- Node26 -->
<g id="node26" class="node"><title>Node26</title>
<g id="a_node26"><a xlink:href="ar__model_8hh.html" target="_top" xlink:title="/home/travis/build\l/igankevich/arma/src\l/generator/ar_model.hh">
<polygon fill="none" stroke="black" points="902,-276.5 902,-317.5 1018,-317.5 1018,-276.5 902,-276.5"/>
<text text-anchor="start" x="910" y="-305.5" font-family="Helvetica,sans-Serif" font-size="10.00">/home/travis/build</text>
<text text-anchor="start" x="910" y="-294.5" font-family="Helvetica,sans-Serif" font-size="10.00">/igankevich/arma/src</text>
<text text-anchor="middle" x="960" y="-283.5" font-family="Helvetica,sans-Serif" font-size="10.00">/generator/ar_model.hh</text>
</a>
</g>
</g>
<!-- Node25&#45;&gt;Node26 -->
<g id="edge32" class="edge"><title>Node25&#45;&gt;Node26</title>
<path fill="none" stroke="midnightblue" d="M1035.76,-354.501C1019.26,-342.197 1000.86,-328.47 986.32,-317.628"/>
<polygon fill="midnightblue" stroke="midnightblue" points="1034.08,-357.61 1044.19,-360.783 1038.26,-351.999 1034.08,-357.61"/>
</g>
<!-- Node30 -->
<g id="node30" class="node"><title>Node30</title>
<g id="a_node30"><a xlink:href="ma__model_8hh.html" target="_top" xlink:title="/home/travis/build\l/igankevich/arma/src\l/generator/ma_model.hh">
<polygon fill="none" stroke="black" points="1036,-276.5 1036,-317.5 1158,-317.5 1158,-276.5 1036,-276.5"/>
<text text-anchor="start" x="1044" y="-305.5" font-family="Helvetica,sans-Serif" font-size="10.00">/home/travis/build</text>
<text text-anchor="start" x="1044" y="-294.5" font-family="Helvetica,sans-Serif" font-size="10.00">/igankevich/arma/src</text>
<text text-anchor="middle" x="1097" y="-283.5" font-family="Helvetica,sans-Serif" font-size="10.00">/generator/ma_model.hh</text>
</a>
</g>
</g>
<!-- Node25&#45;&gt;Node30 -->
<g id="edge38" class="edge"><title>Node25&#45;&gt;Node30</title>
<path fill="none" stroke="midnightblue" d="M1085.66,-350.515C1088.09,-339.257 1090.69,-327.227 1092.78,-317.525"/>
<polygon fill="midnightblue" stroke="midnightblue" points="1082.18,-350.033 1083.5,-360.547 1089.03,-351.511 1082.18,-350.033"/>
</g>
<!-- Node25&#45;&gt;Node32 -->
<g id="edge42" class="edge"><title>Node25&#45;&gt;Node32</title>
<path fill="none" stroke="midnightblue" d="M1131.17,-355.815C1149.96,-345.145 1170.88,-333.268 1188.84,-323.069"/>
<polygon fill="midnightblue" stroke="midnightblue" points="1129.38,-352.802 1122.42,-360.783 1132.84,-358.889 1129.38,-352.802"/>
</g>
<!-- Node26&#45;&gt;Node11 -->
<g id="edge33" class="edge"><title>Node26&#45;&gt;Node11</title>
<path fill="none" stroke="midnightblue" d="M967.667,-266.266C972.369,-240.807 974.419,-204.485 956,-180 924.504,-138.13 864.06,-124.082 819.775,-119.603"/>
<polygon fill="midnightblue" stroke="midnightblue" points="964.229,-265.608 965.62,-276.111 971.083,-267.033 964.229,-265.608"/>
</g>
<!-- Node27 -->
<g id="node27" class="node"><title>Node27</title>
<g id="a_node27"><a xlink:href="arma__model_8hh.html" target="_top" xlink:title="/home/travis/build\l/igankevich/arma/src\l/generator/arma_model.hh">
<polygon fill="none" stroke="black" points="1042,-186.5 1042,-227.5 1172,-227.5 1172,-186.5 1042,-186.5"/>
<text text-anchor="start" x="1050" y="-215.5" font-family="Helvetica,sans-Serif" font-size="10.00">/home/travis/build</text>
<text text-anchor="start" x="1050" y="-204.5" font-family="Helvetica,sans-Serif" font-size="10.00">/igankevich/arma/src</text>
<text text-anchor="middle" x="1107" y="-193.5" font-family="Helvetica,sans-Serif" font-size="10.00">/generator/arma_model.hh</text>
</a>
</g>
</g>
<!-- Node26&#45;&gt;Node27 -->
<g id="edge34" class="edge"><title>Node26&#45;&gt;Node27</title>
<path fill="none" stroke="midnightblue" d="M1001.49,-271.163C1024.51,-257.379 1052.75,-240.477 1074.21,-227.627"/>
<polygon fill="midnightblue" stroke="midnightblue" points="999.406,-268.33 992.624,-276.47 1003,-274.337 999.406,-268.33"/>
</g>
<!-- Node29 -->
<g id="node29" class="node"><title>Node29</title>
<g id="a_node29"><a xlink:href="ar__model_8cc.html" target="_top" xlink:title="/home/travis/build\l/igankevich/arma/src\l/generator/ar_model.cc">
<polygon fill="none" stroke="black" points="832,-186.5 832,-227.5 948,-227.5 948,-186.5 832,-186.5"/>
<text text-anchor="start" x="840" y="-215.5" font-family="Helvetica,sans-Serif" font-size="10.00">/home/travis/build</text>
<text text-anchor="start" x="840" y="-204.5" font-family="Helvetica,sans-Serif" font-size="10.00">/igankevich/arma/src</text>
<text text-anchor="middle" x="890" y="-193.5" font-family="Helvetica,sans-Serif" font-size="10.00">/generator/ar_model.cc</text>
</a>
</g>
</g>
<!-- Node26&#45;&gt;Node29 -->
<g id="edge37" class="edge"><title>Node26&#45;&gt;Node29</title>
<path fill="none" stroke="midnightblue" d="M938.201,-268.596C927.688,-255.379 915.313,-239.822 905.734,-227.78"/>
<polygon fill="midnightblue" stroke="midnightblue" points="935.5,-270.823 944.465,-276.47 940.979,-266.465 935.5,-270.823"/>
</g>
<!-- Node27&#45;&gt;Node11 -->
<g id="edge35" class="edge"><title>Node27&#45;&gt;Node11</title>
<path fill="none" stroke="midnightblue" d="M1039.61,-183.394C1035.69,-182.213 1031.8,-181.073 1028,-180 956.475,-159.807 872.729,-140.781 819.534,-129.261"/>
<polygon fill="midnightblue" stroke="midnightblue" points="1038.77,-186.8 1049.36,-186.398 1040.83,-180.11 1038.77,-186.8"/>
</g>
<!-- Node28 -->
<g id="node28" class="node"><title>Node28</title>
<g id="a_node28"><a xlink:href="arma__model_8cc.html" target="_top" xlink:title="/home/travis/build\l/igankevich/arma/src\l/generator/arma_model.cc">
<polygon fill="none" stroke="black" points="1042,-96.5 1042,-137.5 1172,-137.5 1172,-96.5 1042,-96.5"/>
<text text-anchor="start" x="1050" y="-125.5" font-family="Helvetica,sans-Serif" font-size="10.00">/home/travis/build</text>
<text text-anchor="start" x="1050" y="-114.5" font-family="Helvetica,sans-Serif" font-size="10.00">/igankevich/arma/src</text>
<text text-anchor="middle" x="1107" y="-103.5" font-family="Helvetica,sans-Serif" font-size="10.00">/generator/arma_model.cc</text>
</a>
</g>
</g>
<!-- Node27&#45;&gt;Node28 -->
<g id="edge36" class="edge"><title>Node27&#45;&gt;Node28</title>
<path fill="none" stroke="midnightblue" d="M1107,-176.33C1107,-163.629 1107,-149.14 1107,-137.78"/>
<polygon fill="midnightblue" stroke="midnightblue" points="1103.5,-176.47 1107,-186.47 1110.5,-176.47 1103.5,-176.47"/>
</g>
<!-- Node30&#45;&gt;Node11 -->
<g id="edge39" class="edge"><title>Node30&#45;&gt;Node11</title>
<path fill="none" stroke="midnightblue" d="M1069.2,-269.045C1033.96,-234.899 977.688,-180.4 977,-180 927.668,-151.286 863.995,-134.965 819.555,-126.354"/>
<polygon fill="midnightblue" stroke="midnightblue" points="1067.18,-271.964 1076.8,-276.411 1072.05,-266.938 1067.18,-271.964"/>
</g>
<!-- Node30&#45;&gt;Node27 -->
<g id="edge40" class="edge"><title>Node30&#45;&gt;Node27</title>
<path fill="none" stroke="midnightblue" d="M1100.37,-266.33C1101.81,-253.629 1103.46,-239.14 1104.75,-227.78"/>
<polygon fill="midnightblue" stroke="midnightblue" points="1096.87,-266.139 1099.22,-276.47 1103.83,-266.929 1096.87,-266.139"/>
</g>
<!-- Node31 -->
<g id="node31" class="node"><title>Node31</title>
<g id="a_node31"><a xlink:href="ma__model_8cc.html" target="_top" xlink:title="/home/travis/build\l/igankevich/arma/src\l/generator/ma_model.cc">
<polygon fill="none" stroke="black" points="1190,-186.5 1190,-227.5 1312,-227.5 1312,-186.5 1190,-186.5"/>
<text text-anchor="start" x="1198" y="-215.5" font-family="Helvetica,sans-Serif" font-size="10.00">/home/travis/build</text>
<text text-anchor="start" x="1198" y="-204.5" font-family="Helvetica,sans-Serif" font-size="10.00">/igankevich/arma/src</text>
<text text-anchor="middle" x="1251" y="-193.5" font-family="Helvetica,sans-Serif" font-size="10.00">/generator/ma_model.cc</text>
</a>
</g>
</g>
<!-- Node30&#45;&gt;Node31 -->
<g id="edge41" class="edge"><title>Node30&#45;&gt;Node31</title>
<path fill="none" stroke="midnightblue" d="M1140.15,-271.345C1164.32,-257.529 1194.07,-240.534 1216.65,-227.627"/>
<polygon fill="midnightblue" stroke="midnightblue" points="1138.12,-268.47 1131.18,-276.47 1141.6,-274.547 1138.12,-268.47"/>
</g>
</g>
</svg>
