<?xml version="1.0" encoding="UTF-8" standalone="no"?>
<!DOCTYPE svg PUBLIC "-//W3C//DTD SVG 1.1//EN"
 "http://www.w3.org/Graphics/SVG/1.1/DTD/svg11.dtd">
<!-- Generated by graphviz version 2.36.0 (20140111.2315)
 -->
<!-- Title: /home/travis/build/igankevich/arma/src/domain.hh Pages: 1 -->
<svg width="1472pt" height="680pt"
 viewBox="0.00 0.00 1472.00 680.00" xmlns="http://www.w3.org/2000/svg" xmlns:xlink="http://www.w3.org/1999/xlink">
<g id="graph0" class="graph" transform="scale(1 1) rotate(0) translate(4 676)">
<title>/home/travis/build/igankevich/arma/src/domain.hh</title>
<!-- Node1 -->
<g id="node1" class="node"><title>Node1</title>
<polygon fill="#bfbfbf" stroke="black" points="840.5,-630.5 840.5,-671.5 947.5,-671.5 947.5,-630.5 840.5,-630.5"/>
<text text-anchor="start" x="848.5" y="-659.5" font-family="Helvetica,sans-Serif" font-size="10.00">/home/travis/build</text>
<text text-anchor="start" x="848.5" y="-648.5" font-family="Helvetica,sans-Serif" font-size="10.00">/igankevich/arma/src</text>
<text text-anchor="middle" x="894" y="-637.5" font-family="Helvetica,sans-Serif" font-size="10.00">/domain.hh</text>
</g>
<!-- Node2 -->
<g id="node2" class="node"><title>Node2</title>
<g id="a_node2"><a xlink:href="basic__solver_8hh.html" target="_top" xlink:title="/home/travis/build\l/igankevich/arma/src\l/velocity/basic_solver.hh">
<polygon fill="none" stroke="black" points="452.5,-456.5 452.5,-497.5 577.5,-497.5 577.5,-456.5 452.5,-456.5"/>
<text text-anchor="start" x="460.5" y="-485.5" font-family="Helvetica,sans-Serif" font-size="10.00">/home/travis/build</text>
<text text-anchor="start" x="460.5" y="-474.5" font-family="Helvetica,sans-Serif" font-size="10.00">/igankevich/arma/src</text>
<text text-anchor="middle" x="515" y="-463.5" font-family="Helvetica,sans-Serif" font-size="10.00">/velocity/basic_solver.hh</text>
</a>
</g>
</g>
<!-- Node1&#45;&gt;Node2 -->
<g id="edge1" class="edge"><title>Node1&#45;&gt;Node2</title>
<path fill="none" stroke="midnightblue" d="M830.125,-647.422C773.13,-642.718 689.033,-629.699 625,-594 582.336,-570.214 546.343,-524.306 528.013,-497.936"/>
<polygon fill="midnightblue" stroke="midnightblue" points="830.204,-650.938 840.441,-648.207 830.735,-643.958 830.204,-650.938"/>
</g>
<!-- Node23 -->
<g id="node23" class="node"><title>Node23</title>
<g id="a_node23"><a xlink:href="lh__model_8hh.html" target="_top" xlink:title="/home/travis/build\l/igankevich/arma/src\l/generator/lh_model.hh">
<polygon fill="none" stroke="black" points="634,-546.5 634,-587.5 750,-587.5 750,-546.5 634,-546.5"/>
<text text-anchor="start" x="642" y="-575.5" font-family="Helvetica,sans-Serif" font-size="10.00">/home/travis/build</text>
<text text-anchor="start" x="642" y="-564.5" font-family="Helvetica,sans-Serif" font-size="10.00">/igankevich/arma/src</text>
<text text-anchor="middle" x="692" y="-553.5" font-family="Helvetica,sans-Serif" font-size="10.00">/generator/lh_model.hh</text>
</a>
</g>
</g>
<!-- Node1&#45;&gt;Node23 -->
<g id="edge29" class="edge"><title>Node1&#45;&gt;Node23</title>
<path fill="none" stroke="midnightblue" d="M836.242,-626.554C805.824,-614.206 768.957,-599.24 740.108,-587.529"/>
<polygon fill="midnightblue" stroke="midnightblue" points="835.29,-629.945 845.873,-630.463 837.923,-623.459 835.29,-629.945"/>
</g>
<!-- Node25 -->
<g id="node25" class="node"><title>Node25</title>
<g id="a_node25"><a xlink:href="bscheduler__io_8hh.html" target="_top" xlink:title="/home/travis/build\l/igankevich/arma/src\l/bits/bscheduler_io.hh">
<polygon fill="none" stroke="black" points="796,-546.5 796,-587.5 908,-587.5 908,-546.5 796,-546.5"/>
<text text-anchor="start" x="804" y="-575.5" font-family="Helvetica,sans-Serif" font-size="10.00">/home/travis/build</text>
<text text-anchor="start" x="804" y="-564.5" font-family="Helvetica,sans-Serif" font-size="10.00">/igankevich/arma/src</text>
<text text-anchor="middle" x="852" y="-553.5" font-family="Helvetica,sans-Serif" font-size="10.00">/bits/bscheduler_io.hh</text>
</a>
</g>
</g>
<!-- Node1&#45;&gt;Node25 -->
<g id="edge32" class="edge"><title>Node1&#45;&gt;Node25</title>
<path fill="none" stroke="midnightblue" d="M879.258,-621.219C873.575,-610.122 867.218,-597.711 862.073,-587.667"/>
<polygon fill="midnightblue" stroke="midnightblue" points="876.159,-622.845 883.833,-630.15 882.389,-619.654 876.159,-622.845"/>
</g>
<!-- Node27 -->
<g id="node27" class="node"><title>Node27</title>
<g id="a_node27"><a xlink:href="factor__waves_8hh.html" target="_top" xlink:title="/home/travis/build\l/igankevich/arma/src\l/factor_waves.hh">
<polygon fill="none" stroke="black" points="954.5,-456.5 954.5,-497.5 1061.5,-497.5 1061.5,-456.5 954.5,-456.5"/>
<text text-anchor="start" x="962.5" y="-485.5" font-family="Helvetica,sans-Serif" font-size="10.00">/home/travis/build</text>
<text text-anchor="start" x="962.5" y="-474.5" font-family="Helvetica,sans-Serif" font-size="10.00">/igankevich/arma/src</text>
<text text-anchor="middle" x="1008" y="-463.5" font-family="Helvetica,sans-Serif" font-size="10.00">/factor_waves.hh</text>
</a>
</g>
</g>
<!-- Node1&#45;&gt;Node27 -->
<g id="edge34" class="edge"><title>Node1&#45;&gt;Node27</title>
<path fill="none" stroke="midnightblue" d="M908.009,-621.09C919.506,-598.34 936.804,-566.213 955,-540 965.417,-524.994 978.793,-509.368 989.502,-497.557"/>
<polygon fill="midnightblue" stroke="midnightblue" points="904.786,-619.711 903.451,-630.221 911.049,-622.837 904.786,-619.711"/>
</g>
<!-- Node29 -->
<g id="node29" class="node"><title>Node29</title>
<g id="a_node29"><a xlink:href="plain__wave__model_8cc.html" target="_top" xlink:title="/home/travis/build\l/igankevich/arma/src\l/generator/plain_wave\l_model.cc">
<polygon fill="none" stroke="black" points="964,-541 964,-593 1076,-593 1076,-541 964,-541"/>
<text text-anchor="start" x="972" y="-581" font-family="Helvetica,sans-Serif" font-size="10.00">/home/travis/build</text>
<text text-anchor="start" x="972" y="-570" font-family="Helvetica,sans-Serif" font-size="10.00">/igankevich/arma/src</text>
<text text-anchor="start" x="972" y="-559" font-family="Helvetica,sans-Serif" font-size="10.00">/generator/plain_wave</text>
<text text-anchor="middle" x="1020" y="-548" font-family="Helvetica,sans-Serif" font-size="10.00">_model.cc</text>
</a>
</g>
</g>
<!-- Node1&#45;&gt;Node29 -->
<g id="edge37" class="edge"><title>Node1&#45;&gt;Node29</title>
<path fill="none" stroke="midnightblue" d="M932.967,-624.64C948.394,-614.601 966.082,-603.09 981.466,-593.078"/>
<polygon fill="midnightblue" stroke="midnightblue" points="930.652,-621.971 924.18,-630.359 934.471,-627.838 930.652,-621.971"/>
</g>
<!-- Node30 -->
<g id="node30" class="node"><title>Node30</title>
<g id="a_node30"><a xlink:href="nit__transform_8hh.html" target="_top" xlink:title="/home/travis/build\l/igankevich/arma/src\l/nonlinear/nit_transform.hh">
<polygon fill="none" stroke="black" points="1106,-546.5 1106,-587.5 1238,-587.5 1238,-546.5 1106,-546.5"/>
<text text-anchor="start" x="1114" y="-575.5" font-family="Helvetica,sans-Serif" font-size="10.00">/home/travis/build</text>
<text text-anchor="start" x="1114" y="-564.5" font-family="Helvetica,sans-Serif" font-size="10.00">/igankevich/arma/src</text>
<text text-anchor="middle" x="1172" y="-553.5" font-family="Helvetica,sans-Serif" font-size="10.00">/nonlinear/nit_transform.hh</text>
</a>
</g>
</g>
<!-- Node1&#45;&gt;Node30 -->
<g id="edge38" class="edge"><title>Node1&#45;&gt;Node30</title>
<path fill="none" stroke="midnightblue" d="M957.287,-631.358C994.24,-620.471 1041.76,-606.464 1084,-594 1091.03,-591.926 1098.37,-589.758 1105.69,-587.596"/>
<polygon fill="midnightblue" stroke="midnightblue" points="956.249,-628.015 947.646,-634.199 958.227,-634.73 956.249,-628.015"/>
</g>
<!-- Node3 -->
<g id="node3" class="node"><title>Node3</title>
<g id="a_node3"><a xlink:href="arma__driver_8hh.html" target="_top" xlink:title="/home/travis/build\l/igankevich/arma/src\l/arma_driver.hh">
<polygon fill="none" stroke="black" points="213.5,-186.5 213.5,-227.5 320.5,-227.5 320.5,-186.5 213.5,-186.5"/>
<text text-anchor="start" x="221.5" y="-215.5" font-family="Helvetica,sans-Serif" font-size="10.00">/home/travis/build</text>
<text text-anchor="start" x="221.5" y="-204.5" font-family="Helvetica,sans-Serif" font-size="10.00">/igankevich/arma/src</text>
<text text-anchor="middle" x="267" y="-193.5" font-family="Helvetica,sans-Serif" font-size="10.00">/arma_driver.hh</text>
</a>
</g>
</g>
<!-- Node2&#45;&gt;Node3 -->
<g id="edge2" class="edge"><title>Node2&#45;&gt;Node3</title>
<path fill="none" stroke="midnightblue" d="M442.25,-473.252C347.649,-465.169 186.853,-434.888 122,-324 109.884,-303.283 108.78,-290.031 122,-270 142.209,-239.381 180.989,-223.829 213.363,-215.96"/>
<polygon fill="midnightblue" stroke="midnightblue" points="442.074,-476.749 452.32,-474.05 442.627,-469.771 442.074,-476.749"/>
</g>
<!-- Node10 -->
<g id="node10" class="node"><title>Node10</title>
<g id="a_node10"><a xlink:href="linear__solver_8hh.html" target="_top" xlink:title="/home/travis/build\l/igankevich/arma/src\l/velocity/linear_solver.hh">
<polygon fill="none" stroke="black" points="291.5,-366.5 291.5,-407.5 416.5,-407.5 416.5,-366.5 291.5,-366.5"/>
<text text-anchor="start" x="299.5" y="-395.5" font-family="Helvetica,sans-Serif" font-size="10.00">/home/travis/build</text>
<text text-anchor="start" x="299.5" y="-384.5" font-family="Helvetica,sans-Serif" font-size="10.00">/igankevich/arma/src</text>
<text text-anchor="middle" x="354" y="-373.5" font-family="Helvetica,sans-Serif" font-size="10.00">/velocity/linear_solver.hh</text>
</a>
</g>
</g>
<!-- Node2&#45;&gt;Node10 -->
<g id="edge9" class="edge"><title>Node2&#45;&gt;Node10</title>
<path fill="none" stroke="midnightblue" d="M470.227,-451.528C444.889,-437.678 413.627,-420.591 389.909,-407.627"/>
<polygon fill="midnightblue" stroke="midnightblue" points="468.815,-454.745 479.269,-456.47 472.173,-448.603 468.815,-454.745"/>
</g>
<!-- Node16 -->
<g id="node16" class="node"><title>Node16</title>
<g id="a_node16"><a xlink:href="plain__wave__solver_8hh.html" target="_top" xlink:title="/home/travis/build\l/igankevich/arma/src\l/velocity/plain_wave\l_solver.hh">
<polygon fill="none" stroke="black" points="598.5,-361 598.5,-413 705.5,-413 705.5,-361 598.5,-361"/>
<text text-anchor="start" x="606.5" y="-401" font-family="Helvetica,sans-Serif" font-size="10.00">/home/travis/build</text>
<text text-anchor="start" x="606.5" y="-390" font-family="Helvetica,sans-Serif" font-size="10.00">/igankevich/arma/src</text>
<text text-anchor="start" x="606.5" y="-379" font-family="Helvetica,sans-Serif" font-size="10.00">/velocity/plain_wave</text>
<text text-anchor="middle" x="652" y="-368" font-family="Helvetica,sans-Serif" font-size="10.00">_solver.hh</text>
</a>
</g>
</g>
<!-- Node2&#45;&gt;Node16 -->
<g id="edge19" class="edge"><title>Node2&#45;&gt;Node16</title>
<path fill="none" stroke="midnightblue" d="M553.911,-451.006C572.44,-439.104 594.545,-424.905 613.076,-413.002"/>
<polygon fill="midnightblue" stroke="midnightblue" points="551.927,-448.121 545.405,-456.47 555.71,-454.01 551.927,-448.121"/>
</g>
<!-- Node18 -->
<g id="node18" class="node"><title>Node18</title>
<g id="a_node18"><a xlink:href="high__amplitude__realtime__solver_8hh.html" target="_top" xlink:title="/home/travis/build\l/igankevich/arma/src\l/velocity/high_amplitude\l_realtime_solver.hh">
<polygon fill="none" stroke="black" points="4,-91 4,-143 126,-143 126,-91 4,-91"/>
<text text-anchor="start" x="12" y="-131" font-family="Helvetica,sans-Serif" font-size="10.00">/home/travis/build</text>
<text text-anchor="start" x="12" y="-120" font-family="Helvetica,sans-Serif" font-size="10.00">/igankevich/arma/src</text>
<text text-anchor="start" x="12" y="-109" font-family="Helvetica,sans-Serif" font-size="10.00">/velocity/high_amplitude</text>
<text text-anchor="middle" x="65" y="-98" font-family="Helvetica,sans-Serif" font-size="10.00">_realtime_solver.hh</text>
</a>
</g>
</g>
<!-- Node2&#45;&gt;Node18 -->
<g id="edge22" class="edge"><title>Node2&#45;&gt;Node18</title>
<path fill="none" stroke="midnightblue" d="M442.112,-471.936C348.177,-465.335 191.62,-449.285 147,-414 62.5101,-347.187 60.301,-201.518 63.1284,-143.036"/>
<polygon fill="midnightblue" stroke="midnightblue" points="441.907,-475.43 452.122,-472.621 442.384,-468.446 441.907,-475.43"/>
</g>
<!-- Node20 -->
<g id="node20" class="node"><title>Node20</title>
<g id="a_node20"><a xlink:href="basic__solver_8cc.html" target="_top" xlink:title="/home/travis/build\l/igankevich/arma/src\l/velocity/basic_solver.cc">
<polygon fill="none" stroke="black" points="763.5,-366.5 763.5,-407.5 888.5,-407.5 888.5,-366.5 763.5,-366.5"/>
<text text-anchor="start" x="771.5" y="-395.5" font-family="Helvetica,sans-Serif" font-size="10.00">/home/travis/build</text>
<text text-anchor="start" x="771.5" y="-384.5" font-family="Helvetica,sans-Serif" font-size="10.00">/igankevich/arma/src</text>
<text text-anchor="middle" x="826" y="-373.5" font-family="Helvetica,sans-Serif" font-size="10.00">/velocity/basic_solver.cc</text>
</a>
</g>
</g>
<!-- Node2&#45;&gt;Node20 -->
<g id="edge26" class="edge"><title>Node2&#45;&gt;Node20</title>
<path fill="none" stroke="midnightblue" d="M587.289,-455.545C640.59,-440.463 712.38,-420.15 763.272,-405.749"/>
<polygon fill="midnightblue" stroke="midnightblue" points="586.231,-452.207 577.561,-458.298 588.137,-458.943 586.231,-452.207"/>
</g>
<!-- Node21 -->
<g id="node21" class="node"><title>Node21</title>
<g id="a_node21"><a xlink:href="small__amplitude__solver_8hh.html" target="_top" xlink:title="/home/travis/build\l/igankevich/arma/src\l/velocity/small_amplitude\l_solver.hh">
<polygon fill="none" stroke="black" points="452.5,-361 452.5,-413 579.5,-413 579.5,-361 452.5,-361"/>
<text text-anchor="start" x="460.5" y="-401" font-family="Helvetica,sans-Serif" font-size="10.00">/home/travis/build</text>
<text text-anchor="start" x="460.5" y="-390" font-family="Helvetica,sans-Serif" font-size="10.00">/igankevich/arma/src</text>
<text text-anchor="start" x="460.5" y="-379" font-family="Helvetica,sans-Serif" font-size="10.00">/velocity/small_amplitude</text>
<text text-anchor="middle" x="516" y="-368" font-family="Helvetica,sans-Serif" font-size="10.00">_solver.hh</text>
</a>
</g>
</g>
<!-- Node2&#45;&gt;Node21 -->
<g id="edge27" class="edge"><title>Node2&#45;&gt;Node21</title>
<path fill="none" stroke="midnightblue" d="M515.338,-446.255C515.46,-435.506 515.597,-423.484 515.714,-413.166"/>
<polygon fill="midnightblue" stroke="midnightblue" points="511.836,-446.431 515.222,-456.47 518.835,-446.51 511.836,-446.431"/>
</g>
<!-- Node4 -->
<g id="node4" class="node"><title>Node4</title>
<g id="a_node4"><a xlink:href="arma__driver_8cc.html" target="_top" xlink:title="/home/travis/build\l/igankevich/arma/src\l/arma_driver.cc">
<polygon fill="none" stroke="black" points="144.5,-96.5 144.5,-137.5 251.5,-137.5 251.5,-96.5 144.5,-96.5"/>
<text text-anchor="start" x="152.5" y="-125.5" font-family="Helvetica,sans-Serif" font-size="10.00">/home/travis/build</text>
<text text-anchor="start" x="152.5" y="-114.5" font-family="Helvetica,sans-Serif" font-size="10.00">/igankevich/arma/src</text>
<text text-anchor="middle" x="198" y="-103.5" font-family="Helvetica,sans-Serif" font-size="10.00">/arma_driver.cc</text>
</a>
</g>
</g>
<!-- Node3&#45;&gt;Node4 -->
<g id="edge3" class="edge"><title>Node3&#45;&gt;Node4</title>
<path fill="none" stroke="midnightblue" d="M245.512,-178.596C235.149,-165.379 222.951,-149.822 213.509,-137.78"/>
<polygon fill="midnightblue" stroke="midnightblue" points="242.762,-180.76 251.687,-186.47 248.271,-176.441 242.762,-180.76"/>
</g>
<!-- Node5 -->
<g id="node5" class="node"><title>Node5</title>
<g id="a_node5"><a xlink:href="arma__main_8cc.html" target="_top" xlink:title="/home/travis/build\l/igankevich/arma/src\l/arma_main.cc">
<polygon fill="none" stroke="black" points="491.5,-6.5 491.5,-47.5 598.5,-47.5 598.5,-6.5 491.5,-6.5"/>
<text text-anchor="start" x="499.5" y="-35.5" font-family="Helvetica,sans-Serif" font-size="10.00">/home/travis/build</text>
<text text-anchor="start" x="499.5" y="-24.5" font-family="Helvetica,sans-Serif" font-size="10.00">/igankevich/arma/src</text>
<text text-anchor="middle" x="545" y="-13.5" font-family="Helvetica,sans-Serif" font-size="10.00">/arma_main.cc</text>
</a>
</g>
</g>
<!-- Node3&#45;&gt;Node5 -->
<g id="edge4" class="edge"><title>Node3&#45;&gt;Node5</title>
<path fill="none" stroke="midnightblue" d="M322.207,-182.234C356.42,-167.231 395.125,-149.651 402,-144 424.872,-125.203 419.167,-109.994 441,-90 459.525,-73.0353 483.417,-58.399 503.629,-47.6139"/>
<polygon fill="midnightblue" stroke="midnightblue" points="320.468,-179.174 312.706,-186.385 323.271,-185.589 320.468,-179.174"/>
</g>
<!-- Node6 -->
<g id="node6" class="node"><title>Node6</title>
<g id="a_node6"><a xlink:href="arma__realtime__driver_8hh.html" target="_top" xlink:title="/home/travis/build\l/igankevich/arma/src\l/arma_realtime_driver.hh">
<polygon fill="none" stroke="black" points="270,-96.5 270,-137.5 394,-137.5 394,-96.5 270,-96.5"/>
<text text-anchor="start" x="278" y="-125.5" font-family="Helvetica,sans-Serif" font-size="10.00">/home/travis/build</text>
<text text-anchor="start" x="278" y="-114.5" font-family="Helvetica,sans-Serif" font-size="10.00">/igankevich/arma/src</text>
<text text-anchor="middle" x="332" y="-103.5" font-family="Helvetica,sans-Serif" font-size="10.00">/arma_realtime_driver.hh</text>
</a>
</g>
</g>
<!-- Node3&#45;&gt;Node6 -->
<g id="edge5" class="edge"><title>Node3&#45;&gt;Node6</title>
<path fill="none" stroke="midnightblue" d="M287.519,-178.221C297.221,-165.086 308.579,-149.708 317.39,-137.78"/>
<polygon fill="midnightblue" stroke="midnightblue" points="284.552,-176.347 281.426,-186.47 290.182,-180.506 284.552,-176.347"/>
</g>
<!-- Node9 -->
<g id="node9" class="node"><title>Node9</title>
<g id="a_node9"><a xlink:href="visual_8cc.html" target="_top" xlink:title="/home/travis/build\l/igankevich/arma/src\l/visual.cc">
<polygon fill="none" stroke="black" points="450.5,-96.5 450.5,-137.5 557.5,-137.5 557.5,-96.5 450.5,-96.5"/>
<text text-anchor="start" x="458.5" y="-125.5" font-family="Helvetica,sans-Serif" font-size="10.00">/home/travis/build</text>
<text text-anchor="start" x="458.5" y="-114.5" font-family="Helvetica,sans-Serif" font-size="10.00">/igankevich/arma/src</text>
<text text-anchor="middle" x="504" y="-103.5" font-family="Helvetica,sans-Serif" font-size="10.00">/visual.cc</text>
</a>
</g>
</g>
<!-- Node3&#45;&gt;Node9 -->
<g id="edge8" class="edge"><title>Node3&#45;&gt;Node9</title>
<path fill="none" stroke="midnightblue" d="M322.768,-182.763C325.207,-181.817 327.626,-180.892 330,-180 376.575,-162.501 389.2,-160.888 436,-144 441.707,-141.941 447.664,-139.74 453.577,-137.522"/>
<polygon fill="midnightblue" stroke="midnightblue" points="321.332,-179.568 313.314,-186.493 323.9,-186.079 321.332,-179.568"/>
</g>
<!-- Node7 -->
<g id="node7" class="node"><title>Node7</title>
<g id="a_node7"><a xlink:href="arma__realtime_8cc.html" target="_top" xlink:title="/home/travis/build\l/igankevich/arma/src\l/arma_realtime.cc">
<polygon fill="none" stroke="black" points="282.5,-6.5 282.5,-47.5 389.5,-47.5 389.5,-6.5 282.5,-6.5"/>
<text text-anchor="start" x="290.5" y="-35.5" font-family="Helvetica,sans-Serif" font-size="10.00">/home/travis/build</text>
<text text-anchor="start" x="290.5" y="-24.5" font-family="Helvetica,sans-Serif" font-size="10.00">/igankevich/arma/src</text>
<text text-anchor="middle" x="336" y="-13.5" font-family="Helvetica,sans-Serif" font-size="10.00">/arma_realtime.cc</text>
</a>
</g>
</g>
<!-- Node6&#45;&gt;Node7 -->
<g id="edge6" class="edge"><title>Node6&#45;&gt;Node7</title>
<path fill="none" stroke="midnightblue" d="M333.349,-86.3298C333.926,-73.6289 334.585,-59.1399 335.101,-47.7798"/>
<polygon fill="midnightblue" stroke="midnightblue" points="329.846,-86.3213 332.888,-96.4699 336.838,-86.6392 329.846,-86.3213"/>
</g>
<!-- Node8 -->
<g id="node8" class="node"><title>Node8</title>
<g id="a_node8"><a xlink:href="arma__realtime__driver_8cc.html" target="_top" xlink:title="/home/travis/build\l/igankevich/arma/src\l/arma_realtime_driver.cc">
<polygon fill="none" stroke="black" points="140,-6.5 140,-47.5 264,-47.5 264,-6.5 140,-6.5"/>
<text text-anchor="start" x="148" y="-35.5" font-family="Helvetica,sans-Serif" font-size="10.00">/home/travis/build</text>
<text text-anchor="start" x="148" y="-24.5" font-family="Helvetica,sans-Serif" font-size="10.00">/igankevich/arma/src</text>
<text text-anchor="middle" x="202" y="-13.5" font-family="Helvetica,sans-Serif" font-size="10.00">/arma_realtime_driver.cc</text>
</a>
</g>
</g>
<!-- Node6&#45;&gt;Node8 -->
<g id="edge7" class="edge"><title>Node6&#45;&gt;Node8</title>
<path fill="none" stroke="midnightblue" d="M294.797,-90.8163C274.61,-77.1514 250.016,-60.5031 231.22,-47.7798"/>
<polygon fill="midnightblue" stroke="midnightblue" points="292.906,-93.7626 303.149,-96.4699 296.83,-87.9659 292.906,-93.7626"/>
</g>
<!-- Node11 -->
<g id="node11" class="node"><title>Node11</title>
<g id="a_node11"><a xlink:href="high__amplitude__solver_8hh.html" target="_top" xlink:title="/home/travis/build\l/igankevich/arma/src\l/velocity/high_amplitude\l_solver.hh">
<polygon fill="none" stroke="black" points="275,-271 275,-323 397,-323 397,-271 275,-271"/>
<text text-anchor="start" x="283" y="-311" font-family="Helvetica,sans-Serif" font-size="10.00">/home/travis/build</text>
<text text-anchor="start" x="283" y="-300" font-family="Helvetica,sans-Serif" font-size="10.00">/igankevich/arma/src</text>
<text text-anchor="start" x="283" y="-289" font-family="Helvetica,sans-Serif" font-size="10.00">/velocity/high_amplitude</text>
<text text-anchor="middle" x="336" y="-278" font-family="Helvetica,sans-Serif" font-size="10.00">_solver.hh</text>
</a>
</g>
</g>
<!-- Node10&#45;&gt;Node11 -->
<g id="edge10" class="edge"><title>Node10&#45;&gt;Node11</title>
<path fill="none" stroke="midnightblue" d="M347.984,-356.591C345.768,-345.757 343.28,-333.592 341.148,-323.166"/>
<polygon fill="midnightblue" stroke="midnightblue" points="344.572,-357.374 350.005,-366.47 351.43,-355.971 344.572,-357.374"/>
</g>
<!-- Node12 -->
<g id="node12" class="node"><title>Node12</title>
<g id="a_node12"><a xlink:href="register__all_8hh.html" target="_top" xlink:title="/home/travis/build\l/igankevich/arma/src\l/register_all.hh">
<polygon fill="none" stroke="black" points="680.5,-186.5 680.5,-227.5 787.5,-227.5 787.5,-186.5 680.5,-186.5"/>
<text text-anchor="start" x="688.5" y="-215.5" font-family="Helvetica,sans-Serif" font-size="10.00">/home/travis/build</text>
<text text-anchor="start" x="688.5" y="-204.5" font-family="Helvetica,sans-Serif" font-size="10.00">/igankevich/arma/src</text>
<text text-anchor="middle" x="734" y="-193.5" font-family="Helvetica,sans-Serif" font-size="10.00">/register_all.hh</text>
</a>
</g>
</g>
<!-- Node10&#45;&gt;Node12 -->
<g id="edge17" class="edge"><title>Node10&#45;&gt;Node12</title>
<path fill="none" stroke="midnightblue" d="M377.913,-358.508C386.922,-347.889 397.128,-335.537 406,-324 423.89,-300.737 419.519,-286.183 444,-270 516.154,-222.302 618.499,-210.507 680.334,-208.033"/>
<polygon fill="midnightblue" stroke="midnightblue" points="375.135,-356.371 371.3,-366.248 380.457,-360.919 375.135,-356.371"/>
</g>
<!-- Node15 -->
<g id="node15" class="node"><title>Node15</title>
<g id="a_node15"><a xlink:href="linear__solver_8cc.html" target="_top" xlink:title="/home/travis/build\l/igankevich/arma/src\l/velocity/linear_solver.cc">
<polygon fill="none" stroke="black" points="131.5,-276.5 131.5,-317.5 256.5,-317.5 256.5,-276.5 131.5,-276.5"/>
<text text-anchor="start" x="139.5" y="-305.5" font-family="Helvetica,sans-Serif" font-size="10.00">/home/travis/build</text>
<text text-anchor="start" x="139.5" y="-294.5" font-family="Helvetica,sans-Serif" font-size="10.00">/igankevich/arma/src</text>
<text text-anchor="middle" x="194" y="-283.5" font-family="Helvetica,sans-Serif" font-size="10.00">/velocity/linear_solver.cc</text>
</a>
</g>
</g>
<!-- Node10&#45;&gt;Node15 -->
<g id="edge18" class="edge"><title>Node10&#45;&gt;Node15</title>
<path fill="none" stroke="midnightblue" d="M309.505,-361.528C284.324,-347.678 253.257,-330.591 229.686,-317.627"/>
<polygon fill="midnightblue" stroke="midnightblue" points="308.042,-364.717 318.491,-366.47 311.415,-358.584 308.042,-364.717"/>
</g>
<!-- Node11&#45;&gt;Node12 -->
<g id="edge11" class="edge"><title>Node11&#45;&gt;Node12</title>
<path fill="none" stroke="midnightblue" d="M407.155,-271.054C408.445,-270.693 409.727,-270.341 411,-270 504.49,-244.962 615.778,-225.9 680.311,-215.876"/>
<polygon fill="midnightblue" stroke="midnightblue" points="405.779,-267.81 397.172,-273.989 407.753,-274.526 405.779,-267.81"/>
</g>
<!-- Node14 -->
<g id="node14" class="node"><title>Node14</title>
<g id="a_node14"><a xlink:href="high__amplitude__solver_8cc.html" target="_top" xlink:title="/home/travis/build\l/igankevich/arma/src\l/velocity/high_amplitude\l_solver.cc">
<polygon fill="none" stroke="black" points="339,-181 339,-233 461,-233 461,-181 339,-181"/>
<text text-anchor="start" x="347" y="-221" font-family="Helvetica,sans-Serif" font-size="10.00">/home/travis/build</text>
<text text-anchor="start" x="347" y="-210" font-family="Helvetica,sans-Serif" font-size="10.00">/igankevich/arma/src</text>
<text text-anchor="start" x="347" y="-199" font-family="Helvetica,sans-Serif" font-size="10.00">/velocity/high_amplitude</text>
<text text-anchor="middle" x="400" y="-188" font-family="Helvetica,sans-Serif" font-size="10.00">_solver.cc</text>
</a>
</g>
</g>
<!-- Node11&#45;&gt;Node14 -->
<g id="edge16" class="edge"><title>Node11&#45;&gt;Node14</title>
<path fill="none" stroke="midnightblue" d="M360.539,-262.259C367.59,-252.564 375.152,-242.166 381.751,-233.092"/>
<polygon fill="midnightblue" stroke="midnightblue" points="357.563,-260.401 354.511,-270.547 363.224,-264.518 357.563,-260.401"/>
</g>
<!-- Node12&#45;&gt;Node9 -->
<g id="edge15" class="edge"><title>Node12&#45;&gt;Node9</title>
<path fill="none" stroke="midnightblue" d="M670.866,-183.437C639.255,-171.953 600.471,-157.581 566,-144 560.787,-141.946 555.35,-139.749 549.955,-137.533"/>
<polygon fill="midnightblue" stroke="midnightblue" points="669.839,-186.788 680.433,-186.904 672.224,-180.207 669.839,-186.788"/>
</g>
<!-- Node13 -->
<g id="node13" class="node"><title>Node13</title>
<g id="a_node13"><a xlink:href="common__main_8hh.html" target="_top" xlink:title="/home/travis/build\l/igankevich/arma/src\l/common_main.hh">
<polygon fill="none" stroke="black" points="575.5,-96.5 575.5,-137.5 682.5,-137.5 682.5,-96.5 575.5,-96.5"/>
<text text-anchor="start" x="583.5" y="-125.5" font-family="Helvetica,sans-Serif" font-size="10.00">/home/travis/build</text>
<text text-anchor="start" x="583.5" y="-114.5" font-family="Helvetica,sans-Serif" font-size="10.00">/igankevich/arma/src</text>
<text text-anchor="middle" x="629" y="-103.5" font-family="Helvetica,sans-Serif" font-size="10.00">/common_main.hh</text>
</a>
</g>
</g>
<!-- Node12&#45;&gt;Node13 -->
<g id="edge12" class="edge"><title>Node12&#45;&gt;Node13</title>
<path fill="none" stroke="midnightblue" d="M702.634,-179.712C686.586,-166.262 667.375,-150.162 652.601,-137.78"/>
<polygon fill="midnightblue" stroke="midnightblue" points="700.785,-182.729 710.697,-186.47 705.281,-177.364 700.785,-182.729"/>
</g>
<!-- Node13&#45;&gt;Node5 -->
<g id="edge13" class="edge"><title>Node13&#45;&gt;Node5</title>
<path fill="none" stroke="midnightblue" d="M603.198,-88.969C590.506,-75.6727 575.484,-59.9351 563.881,-47.7798"/>
<polygon fill="midnightblue" stroke="midnightblue" points="600.921,-91.653 610.358,-96.4699 605.985,-86.8197 600.921,-91.653"/>
</g>
<!-- Node13&#45;&gt;Node7 -->
<g id="edge14" class="edge"><title>Node13&#45;&gt;Node7</title>
<path fill="none" stroke="midnightblue" d="M573.876,-92.7803C571.224,-91.8116 568.589,-90.8792 566,-90 506.477,-69.7877 436.554,-51.7201 389.565,-40.3759"/>
<polygon fill="midnightblue" stroke="midnightblue" points="572.906,-96.1552 583.497,-96.4172 575.381,-89.6074 572.906,-96.1552"/>
</g>
<!-- Node16&#45;&gt;Node12 -->
<g id="edge20" class="edge"><title>Node16&#45;&gt;Node12</title>
<path fill="none" stroke="midnightblue" d="M691.525,-353.866C700.146,-345.041 708.365,-334.876 714,-324 730.077,-292.972 733.6,-251.639 734.167,-227.611"/>
<polygon fill="midnightblue" stroke="midnightblue" points="688.968,-351.471 684.237,-360.951 693.847,-356.49 688.968,-351.471"/>
</g>
<!-- Node17 -->
<g id="node17" class="node"><title>Node17</title>
<g id="a_node17"><a xlink:href="plain__wave__solver_8cc.html" target="_top" xlink:title="/home/travis/build\l/igankevich/arma/src\l/velocity/plain_wave\l_solver.cc">
<polygon fill="none" stroke="black" points="598.5,-271 598.5,-323 705.5,-323 705.5,-271 598.5,-271"/>
<text text-anchor="start" x="606.5" y="-311" font-family="Helvetica,sans-Serif" font-size="10.00">/home/travis/build</text>
<text text-anchor="start" x="606.5" y="-300" font-family="Helvetica,sans-Serif" font-size="10.00">/igankevich/arma/src</text>
<text text-anchor="start" x="606.5" y="-289" font-family="Helvetica,sans-Serif" font-size="10.00">/velocity/plain_wave</text>
<text text-anchor="middle" x="652" y="-278" font-family="Helvetica,sans-Serif" font-size="10.00">_solver.cc</text>
</a>
</g>
</g>
<!-- Node16&#45;&gt;Node17 -->
<g id="edge21" class="edge"><title>Node16&#45;&gt;Node17</title>
<path fill="none" stroke="midnightblue" d="M652,-350.489C652,-341.309 652,-331.616 652,-323.092"/>
<polygon fill="midnightblue" stroke="midnightblue" points="648.5,-350.547 652,-360.547 655.5,-350.547 648.5,-350.547"/>
</g>
<!-- Node18&#45;&gt;Node7 -->
<g id="edge23" class="edge"><title>Node18&#45;&gt;Node7</title>
<path fill="none" stroke="midnightblue" d="M136.045,-89.8025C196.811,-71.2429 215.185,-72.9178 272,-54 277.803,-52.0677 283.834,-49.8734 289.772,-47.5982"/>
<polygon fill="midnightblue" stroke="midnightblue" points="134.847,-86.5098 126.341,-92.8263 136.93,-93.1929 134.847,-86.5098"/>
</g>
<!-- Node18&#45;&gt;Node8 -->
<g id="edge24" class="edge"><title>Node18&#45;&gt;Node8</title>
<path fill="none" stroke="midnightblue" d="M112.724,-85.3452C132.211,-72.828 154.176,-58.7191 171.442,-47.6283"/>
<polygon fill="midnightblue" stroke="midnightblue" points="110.781,-82.4334 104.259,-90.7827 114.564,-88.323 110.781,-82.4334"/>
</g>
<!-- Node19 -->
<g id="node19" class="node"><title>Node19</title>
<g id="a_node19"><a xlink:href="high__amplitude__realtime__solver_8cc.html" target="_top" xlink:title="/home/travis/build\l/igankevich/arma/src\l/velocity/high_amplitude\l_realtime_solver.cc">
<polygon fill="none" stroke="black" points="0,-1 0,-53 122,-53 122,-1 0,-1"/>
<text text-anchor="start" x="8" y="-41" font-family="Helvetica,sans-Serif" font-size="10.00">/home/travis/build</text>
<text text-anchor="start" x="8" y="-30" font-family="Helvetica,sans-Serif" font-size="10.00">/igankevich/arma/src</text>
<text text-anchor="start" x="8" y="-19" font-family="Helvetica,sans-Serif" font-size="10.00">/velocity/high_amplitude</text>
<text text-anchor="middle" x="61" y="-8" font-family="Helvetica,sans-Serif" font-size="10.00">_realtime_solver.cc</text>
</a>
</g>
</g>
<!-- Node18&#45;&gt;Node19 -->
<g id="edge25" class="edge"><title>Node18&#45;&gt;Node19</title>
<path fill="none" stroke="midnightblue" d="M63.3859,-80.4892C62.9686,-71.3088 62.528,-61.616 62.1406,-53.0921"/>
<polygon fill="midnightblue" stroke="midnightblue" points="59.8925,-80.716 63.843,-90.5468 66.8853,-80.3981 59.8925,-80.716"/>
</g>
<!-- Node22 -->
<g id="node22" class="node"><title>Node22</title>
<g id="a_node22"><a xlink:href="small__amplitude__solver_8cc.html" target="_top" xlink:title="/home/travis/build\l/igankevich/arma/src\l/velocity/small_amplitude\l_solver.cc">
<polygon fill="none" stroke="black" points="453.5,-271 453.5,-323 580.5,-323 580.5,-271 453.5,-271"/>
<text text-anchor="start" x="461.5" y="-311" font-family="Helvetica,sans-Serif" font-size="10.00">/home/travis/build</text>
<text text-anchor="start" x="461.5" y="-300" font-family="Helvetica,sans-Serif" font-size="10.00">/igankevich/arma/src</text>
<text text-anchor="start" x="461.5" y="-289" font-family="Helvetica,sans-Serif" font-size="10.00">/velocity/small_amplitude</text>
<text text-anchor="middle" x="517" y="-278" font-family="Helvetica,sans-Serif" font-size="10.00">_solver.cc</text>
</a>
</g>
</g>
<!-- Node21&#45;&gt;Node22 -->
<g id="edge28" class="edge"><title>Node21&#45;&gt;Node22</title>
<path fill="none" stroke="midnightblue" d="M516.404,-350.489C516.508,-341.309 516.618,-331.616 516.715,-323.092"/>
<polygon fill="midnightblue" stroke="midnightblue" points="512.903,-350.508 516.289,-360.547 519.903,-350.587 512.903,-350.508"/>
</g>
<!-- Node23&#45;&gt;Node12 -->
<g id="edge30" class="edge"><title>Node23&#45;&gt;Node12</title>
<path fill="none" stroke="midnightblue" d="M653.296,-539.916C642.01,-530.113 631.085,-517.923 625,-504 615.388,-482.009 611.583,-469.9 625,-450 648.853,-414.621 685.919,-446.126 714,-414 760.467,-360.839 747.383,-267.918 738.791,-227.596"/>
<polygon fill="midnightblue" stroke="midnightblue" points="651.156,-542.687 661.112,-546.313 655.59,-537.27 651.156,-542.687"/>
</g>
<!-- Node24 -->
<g id="node24" class="node"><title>Node24</title>
<g id="a_node24"><a xlink:href="lh__model_8cc.html" target="_top" xlink:title="/home/travis/build\l/igankevich/arma/src\l/generator/lh_model.cc">
<polygon fill="none" stroke="black" points="634,-456.5 634,-497.5 750,-497.5 750,-456.5 634,-456.5"/>
<text text-anchor="start" x="642" y="-485.5" font-family="Helvetica,sans-Serif" font-size="10.00">/home/travis/build</text>
<text text-anchor="start" x="642" y="-474.5" font-family="Helvetica,sans-Serif" font-size="10.00">/igankevich/arma/src</text>
<text text-anchor="middle" x="692" y="-463.5" font-family="Helvetica,sans-Serif" font-size="10.00">/generator/lh_model.cc</text>
</a>
</g>
</g>
<!-- Node23&#45;&gt;Node24 -->
<g id="edge31" class="edge"><title>Node23&#45;&gt;Node24</title>
<path fill="none" stroke="midnightblue" d="M692,-536.33C692,-523.629 692,-509.14 692,-497.78"/>
<polygon fill="midnightblue" stroke="midnightblue" points="688.5,-536.47 692,-546.47 695.5,-536.47 688.5,-536.47"/>
</g>
<!-- Node26 -->
<g id="node26" class="node"><title>Node26</title>
<g id="a_node26"><a xlink:href="ar__model__bscheduler_8cc.html" target="_top" xlink:title="/home/travis/build\l/igankevich/arma/src\l/generator/ar_model_bscheduler.cc">
<polygon fill="none" stroke="black" points="767.5,-456.5 767.5,-497.5 936.5,-497.5 936.5,-456.5 767.5,-456.5"/>
<text text-anchor="start" x="775.5" y="-485.5" font-family="Helvetica,sans-Serif" font-size="10.00">/home/travis/build</text>
<text text-anchor="start" x="775.5" y="-474.5" font-family="Helvetica,sans-Serif" font-size="10.00">/igankevich/arma/src</text>
<text text-anchor="middle" x="852" y="-463.5" font-family="Helvetica,sans-Serif" font-size="10.00">/generator/ar_model_bscheduler.cc</text>
</a>
</g>
</g>
<!-- Node25&#45;&gt;Node26 -->
<g id="edge33" class="edge"><title>Node25&#45;&gt;Node26</title>
<path fill="none" stroke="midnightblue" d="M852,-536.33C852,-523.629 852,-509.14 852,-497.78"/>
<polygon fill="midnightblue" stroke="midnightblue" points="848.5,-536.47 852,-546.47 855.5,-536.47 848.5,-536.47"/>
</g>
<!-- Node27&#45;&gt;Node20 -->
<g id="edge36" class="edge"><title>Node27&#45;&gt;Node20</title>
<path fill="none" stroke="midnightblue" d="M958.514,-452.073C929.675,-438.129 893.757,-420.762 866.593,-407.627"/>
<polygon fill="midnightblue" stroke="midnightblue" points="957.082,-455.268 967.608,-456.47 960.129,-448.966 957.082,-455.268"/>
</g>
<!-- Node28 -->
<g id="node28" class="node"><title>Node28</title>
<g id="a_node28"><a xlink:href="factor__waves_8cc.html" target="_top" xlink:title="/home/travis/build\l/igankevich/arma/src\l/factor_waves.cc">
<polygon fill="none" stroke="black" points="906.5,-366.5 906.5,-407.5 1013.5,-407.5 1013.5,-366.5 906.5,-366.5"/>
<text text-anchor="start" x="914.5" y="-395.5" font-family="Helvetica,sans-Serif" font-size="10.00">/home/travis/build</text>
<text text-anchor="start" x="914.5" y="-384.5" font-family="Helvetica,sans-Serif" font-size="10.00">/igankevich/arma/src</text>
<text text-anchor="middle" x="960" y="-373.5" font-family="Helvetica,sans-Serif" font-size="10.00">/factor_waves.cc</text>
</a>
</g>
</g>
<!-- Node27&#45;&gt;Node28 -->
<g id="edge35" class="edge"><title>Node27&#45;&gt;Node28</title>
<path fill="none" stroke="midnightblue" d="M992.437,-447.468C985.364,-434.501 977.171,-419.481 970.789,-407.78"/>
<polygon fill="midnightblue" stroke="midnightblue" points="989.486,-449.367 997.347,-456.47 995.631,-446.015 989.486,-449.367"/>
</g>
<!-- Node31 -->
<g id="node31" class="node"><title>Node31</title>
<g id="a_node31"><a xlink:href="basic__arma__model_8hh.html" target="_top" xlink:title="/home/travis/build\l/igankevich/arma/src\l/generator/basic_arma\l_model.hh">
<polygon fill="none" stroke="black" points="1268.5,-451 1268.5,-503 1381.5,-503 1381.5,-451 1268.5,-451"/>
<text text-anchor="start" x="1276.5" y="-491" font-family="Helvetica,sans-Serif" font-size="10.00">/home/travis/build</text>
<text text-anchor="start" x="1276.5" y="-480" font-family="Helvetica,sans-Serif" font-size="10.00">/igankevich/arma/src</text>
<text text-anchor="start" x="1276.5" y="-469" font-family="Helvetica,sans-Serif" font-size="10.00">/generator/basic_arma</text>
<text text-anchor="middle" x="1325" y="-458" font-family="Helvetica,sans-Serif" font-size="10.00">_model.hh</text>
</a>
</g>
</g>
<!-- Node30&#45;&gt;Node31 -->
<g id="edge39" class="edge"><title>Node30&#45;&gt;Node31</title>
<path fill="none" stroke="midnightblue" d="M1214.89,-541.329C1235.7,-529.361 1260.65,-515.013 1281.53,-503.002"/>
<polygon fill="midnightblue" stroke="midnightblue" points="1212.88,-538.45 1205.96,-546.47 1216.37,-544.518 1212.88,-538.45"/>
</g>
<!-- Node38 -->
<g id="node38" class="node"><title>Node38</title>
<g id="a_node38"><a xlink:href="basic__arma__model_8cc.html" target="_top" xlink:title="/home/travis/build\l/igankevich/arma/src\l/generator/basic_arma\l_model.cc">
<polygon fill="none" stroke="black" points="1031.5,-361 1031.5,-413 1144.5,-413 1144.5,-361 1031.5,-361"/>
<text text-anchor="start" x="1039.5" y="-401" font-family="Helvetica,sans-Serif" font-size="10.00">/home/travis/build</text>
<text text-anchor="start" x="1039.5" y="-390" font-family="Helvetica,sans-Serif" font-size="10.00">/igankevich/arma/src</text>
<text text-anchor="start" x="1039.5" y="-379" font-family="Helvetica,sans-Serif" font-size="10.00">/generator/basic_arma</text>
<text text-anchor="middle" x="1088" y="-368" font-family="Helvetica,sans-Serif" font-size="10.00">_model.cc</text>
</a>
</g>
</g>
<!-- Node30&#45;&gt;Node38 -->
<g id="edge51" class="edge"><title>Node30&#45;&gt;Node38</title>
<path fill="none" stroke="midnightblue" d="M1137.72,-539.547C1126.95,-529.54 1116.04,-517.319 1109,-504 1093.89,-475.411 1089.43,-437.925 1088.23,-413.414"/>
<polygon fill="midnightblue" stroke="midnightblue" points="1135.67,-542.413 1145.48,-546.427 1140.32,-537.175 1135.67,-542.413"/>
</g>
<!-- Node39 -->
<g id="node39" class="node"><title>Node39</title>
<g id="a_node39"><a xlink:href="nit__transform_8cc.html" target="_top" xlink:title="/home/travis/build\l/igankevich/arma/src\l/nonlinear/nit_transform.cc">
<polygon fill="none" stroke="black" points="1118,-456.5 1118,-497.5 1250,-497.5 1250,-456.5 1118,-456.5"/>
<text text-anchor="start" x="1126" y="-485.5" font-family="Helvetica,sans-Serif" font-size="10.00">/home/travis/build</text>
<text text-anchor="start" x="1126" y="-474.5" font-family="Helvetica,sans-Serif" font-size="10.00">/igankevich/arma/src</text>
<text text-anchor="middle" x="1184" y="-463.5" font-family="Helvetica,sans-Serif" font-size="10.00">/nonlinear/nit_transform.cc</text>
</a>
</g>
</g>
<!-- Node30&#45;&gt;Node39 -->
<g id="edge52" class="edge"><title>Node30&#45;&gt;Node39</title>
<path fill="none" stroke="midnightblue" d="M1176.05,-536.33C1177.78,-523.629 1179.75,-509.14 1181.3,-497.78"/>
<polygon fill="midnightblue" stroke="midnightblue" points="1172.55,-536.089 1174.66,-546.47 1179.48,-537.035 1172.55,-536.089"/>
</g>
<!-- Node32 -->
<g id="node32" class="node"><title>Node32</title>
<g id="a_node32"><a xlink:href="ar__model_8hh.html" target="_top" xlink:title="/home/travis/build\l/igankevich/arma/src\l/generator/ar_model.hh">
<polygon fill="none" stroke="black" points="1163,-366.5 1163,-407.5 1279,-407.5 1279,-366.5 1163,-366.5"/>
<text text-anchor="start" x="1171" y="-395.5" font-family="Helvetica,sans-Serif" font-size="10.00">/home/travis/build</text>
<text text-anchor="start" x="1171" y="-384.5" font-family="Helvetica,sans-Serif" font-size="10.00">/igankevich/arma/src</text>
<text text-anchor="middle" x="1221" y="-373.5" font-family="Helvetica,sans-Serif" font-size="10.00">/generator/ar_model.hh</text>
</a>
</g>
</g>
<!-- Node31&#45;&gt;Node32 -->
<g id="edge40" class="edge"><title>Node31&#45;&gt;Node32</title>
<path fill="none" stroke="midnightblue" d="M1287.37,-444.162C1272.94,-431.945 1256.89,-418.371 1244.2,-407.628"/>
<polygon fill="midnightblue" stroke="midnightblue" points="1285.3,-446.995 1295.2,-450.783 1289.82,-441.651 1285.3,-446.995"/>
</g>
<!-- Node36 -->
<g id="node36" class="node"><title>Node36</title>
<g id="a_node36"><a xlink:href="ma__model_8hh.html" target="_top" xlink:title="/home/travis/build\l/igankevich/arma/src\l/generator/ma_model.hh">
<polygon fill="none" stroke="black" points="1297,-366.5 1297,-407.5 1419,-407.5 1419,-366.5 1297,-366.5"/>
<text text-anchor="start" x="1305" y="-395.5" font-family="Helvetica,sans-Serif" font-size="10.00">/home/travis/build</text>
<text text-anchor="start" x="1305" y="-384.5" font-family="Helvetica,sans-Serif" font-size="10.00">/igankevich/arma/src</text>
<text text-anchor="middle" x="1358" y="-373.5" font-family="Helvetica,sans-Serif" font-size="10.00">/generator/ma_model.hh</text>
</a>
</g>
</g>
<!-- Node31&#45;&gt;Node36 -->
<g id="edge46" class="edge"><title>Node31&#45;&gt;Node36</title>
<path fill="none" stroke="midnightblue" d="M1338.18,-440.859C1342.44,-429.503 1347,-417.326 1350.68,-407.525"/>
<polygon fill="midnightblue" stroke="midnightblue" points="1334.78,-439.955 1334.54,-450.547 1341.33,-442.412 1334.78,-439.955"/>
</g>
<!-- Node31&#45;&gt;Node38 -->
<g id="edge50" class="edge"><title>Node31&#45;&gt;Node38</title>
<path fill="none" stroke="midnightblue" d="M1258.56,-449.907C1211.08,-432.668 1197.49,-430.013 1154,-414 1151,-412.894 1147.92,-411.744 1144.82,-410.571"/>
<polygon fill="midnightblue" stroke="midnightblue" points="1257.59,-453.278 1268.18,-453.429 1259.99,-446.704 1257.59,-453.278"/>
</g>
<!-- Node32&#45;&gt;Node12 -->
<g id="edge41" class="edge"><title>Node32&#45;&gt;Node12</title>
<path fill="none" stroke="midnightblue" d="M1186.4,-359.983C1173.41,-349.469 1158.91,-336.803 1147,-324 1126.83,-302.327 1133.16,-285.595 1108,-270 1055.34,-237.367 877.891,-219.201 787.655,-211.872"/>
<polygon fill="midnightblue" stroke="midnightblue" points="1184.26,-362.749 1194.26,-366.234 1188.61,-357.27 1184.26,-362.749"/>
</g>
<!-- Node33 -->
<g id="node33" class="node"><title>Node33</title>
<g id="a_node33"><a xlink:href="arma__model_8hh.html" target="_top" xlink:title="/home/travis/build\l/igankevich/arma/src\l/generator/arma_model.hh">
<polygon fill="none" stroke="black" points="1156,-276.5 1156,-317.5 1286,-317.5 1286,-276.5 1156,-276.5"/>
<text text-anchor="start" x="1164" y="-305.5" font-family="Helvetica,sans-Serif" font-size="10.00">/home/travis/build</text>
<text text-anchor="start" x="1164" y="-294.5" font-family="Helvetica,sans-Serif" font-size="10.00">/igankevich/arma/src</text>
<text text-anchor="middle" x="1221" y="-283.5" font-family="Helvetica,sans-Serif" font-size="10.00">/generator/arma_model.hh</text>
</a>
</g>
</g>
<!-- Node32&#45;&gt;Node33 -->
<g id="edge42" class="edge"><title>Node32&#45;&gt;Node33</title>
<path fill="none" stroke="midnightblue" d="M1221,-356.33C1221,-343.629 1221,-329.14 1221,-317.78"/>
<polygon fill="midnightblue" stroke="midnightblue" points="1217.5,-356.47 1221,-366.47 1224.5,-356.47 1217.5,-356.47"/>
</g>
<!-- Node35 -->
<g id="node35" class="node"><title>Node35</title>
<g id="a_node35"><a xlink:href="ar__model_8cc.html" target="_top" xlink:title="/home/travis/build\l/igankevich/arma/src\l/generator/ar_model.cc">
<polygon fill="none" stroke="black" points="984,-276.5 984,-317.5 1100,-317.5 1100,-276.5 984,-276.5"/>
<text text-anchor="start" x="992" y="-305.5" font-family="Helvetica,sans-Serif" font-size="10.00">/home/travis/build</text>
<text text-anchor="start" x="992" y="-294.5" font-family="Helvetica,sans-Serif" font-size="10.00">/igankevich/arma/src</text>
<text text-anchor="middle" x="1042" y="-283.5" font-family="Helvetica,sans-Serif" font-size="10.00">/generator/ar_model.cc</text>
</a>
</g>
</g>
<!-- Node32&#45;&gt;Node35 -->
<g id="edge45" class="edge"><title>Node32&#45;&gt;Node35</title>
<path fill="none" stroke="midnightblue" d="M1171.96,-361.891C1143.66,-347.979 1108.52,-330.705 1081.92,-317.627"/>
<polygon fill="midnightblue" stroke="midnightblue" points="1170.76,-365.199 1181.27,-366.47 1173.84,-358.917 1170.76,-365.199"/>
</g>
<!-- Node33&#45;&gt;Node12 -->
<g id="edge43" class="edge"><title>Node33&#45;&gt;Node12</title>
<path fill="none" stroke="midnightblue" d="M1156,-273.662C1151.29,-272.334 1146.59,-271.095 1142,-270 1016.74,-240.091 866.231,-221.617 787.687,-213.264"/>
<polygon fill="midnightblue" stroke="midnightblue" points="1155.08,-277.038 1165.66,-276.496 1157.05,-270.321 1155.08,-277.038"/>
</g>
<!-- Node34 -->
<g id="node34" class="node"><title>Node34</title>
<g id="a_node34"><a xlink:href="arma__model_8cc.html" target="_top" xlink:title="/home/travis/build\l/igankevich/arma/src\l/generator/arma_model.cc">
<polygon fill="none" stroke="black" points="1156,-186.5 1156,-227.5 1286,-227.5 1286,-186.5 1156,-186.5"/>
<text text-anchor="start" x="1164" y="-215.5" font-family="Helvetica,sans-Serif" font-size="10.00">/home/travis/build</text>
<text text-anchor="start" x="1164" y="-204.5" font-family="Helvetica,sans-Serif" font-size="10.00">/igankevich/arma/src</text>
<text text-anchor="middle" x="1221" y="-193.5" font-family="Helvetica,sans-Serif" font-size="10.00">/generator/arma_model.cc</text>
</a>
</g>
</g>
<!-- Node33&#45;&gt;Node34 -->
<g id="edge44" class="edge"><title>Node33&#45;&gt;Node34</title>
<path fill="none" stroke="midnightblue" d="M1221,-266.33C1221,-253.629 1221,-239.14 1221,-227.78"/>
<polygon fill="midnightblue" stroke="midnightblue" points="1217.5,-266.47 1221,-276.47 1224.5,-266.47 1217.5,-266.47"/>
</g>
<!-- Node36&#45;&gt;Node12 -->
<g id="edge47" class="edge"><title>Node36&#45;&gt;Node12</title>
<path fill="none" stroke="midnightblue" d="M1345.98,-357.02C1332.6,-326.251 1310.79,-280.611 1295,-270 1253.42,-242.059 920.281,-219.194 787.928,-211.126"/>
<polygon fill="midnightblue" stroke="midnightblue" points="1342.85,-358.611 1350.01,-366.425 1349.28,-355.854 1342.85,-358.611"/>
</g>
<!-- Node36&#45;&gt;Node33 -->
<g id="edge48" class="edge"><title>Node36&#45;&gt;Node33</title>
<path fill="none" stroke="midnightblue" d="M1319.08,-360.999C1297.75,-347.3 1271.69,-330.56 1251.79,-317.78"/>
<polygon fill="midnightblue" stroke="midnightblue" points="1317.29,-364.01 1327.6,-366.47 1321.07,-358.121 1317.29,-364.01"/>
</g>
<!-- Node37 -->
<g id="node37" class="node"><title>Node37</title>
<g id="a_node37"><a xlink:href="ma__model_8cc.html" target="_top" xlink:title="/home/travis/build\l/igankevich/arma/src\l/generator/ma_model.cc">
<polygon fill="none" stroke="black" points="1342,-276.5 1342,-317.5 1464,-317.5 1464,-276.5 1342,-276.5"/>
<text text-anchor="start" x="1350" y="-305.5" font-family="Helvetica,sans-Serif" font-size="10.00">/home/travis/build</text>
<text text-anchor="start" x="1350" y="-294.5" font-family="Helvetica,sans-Serif" font-size="10.00">/igankevich/arma/src</text>
<text text-anchor="middle" x="1403" y="-283.5" font-family="Helvetica,sans-Serif" font-size="10.00">/generator/ma_model.cc</text>
</a>
</g>
</g>
<!-- Node36&#45;&gt;Node37 -->
<g id="edge49" class="edge"><title>Node36&#45;&gt;Node37</title>
<path fill="none" stroke="midnightblue" d="M1372.59,-357.468C1379.22,-344.501 1386.9,-329.481 1392.89,-317.78"/>
<polygon fill="midnightblue" stroke="midnightblue" points="1369.42,-355.973 1367.99,-366.47 1375.66,-359.16 1369.42,-355.973"/>
</g>
</g>
</svg>
