<?xml version="1.0" encoding="UTF-8" standalone="no"?>
<!DOCTYPE svg PUBLIC "-//W3C//DTD SVG 1.1//EN"
 "http://www.w3.org/Graphics/SVG/1.1/DTD/svg11.dtd">
<!-- Generated by graphviz version 2.36.0 (20140111.2315)
 -->
<!-- Title: /home/travis/build/igankevich/arma/src/domain.hh Pages: 1 -->
<svg width="1507pt" height="590pt"
 viewBox="0.00 0.00 1507.00 590.00" xmlns="http://www.w3.org/2000/svg" xmlns:xlink="http://www.w3.org/1999/xlink">
<g id="graph0" class="graph" transform="scale(1 1) rotate(0) translate(4 586)">
<title>/home/travis/build/igankevich/arma/src/domain.hh</title>
<!-- Node1 -->
<g id="node1" class="node"><title>Node1</title>
<polygon fill="#bfbfbf" stroke="black" points="849.5,-540.5 849.5,-581.5 956.5,-581.5 956.5,-540.5 849.5,-540.5"/>
<text text-anchor="start" x="857.5" y="-569.5" font-family="Helvetica,sans-Serif" font-size="10.00">/home/travis/build</text>
<text text-anchor="start" x="857.5" y="-558.5" font-family="Helvetica,sans-Serif" font-size="10.00">/igankevich/arma/src</text>
<text text-anchor="middle" x="903" y="-547.5" font-family="Helvetica,sans-Serif" font-size="10.00">/domain.hh</text>
</g>
<!-- Node2 -->
<g id="node2" class="node"><title>Node2</title>
<g id="a_node2"><a xlink:href="basic__solver_8hh.html" target="_top" xlink:title="/home/travis/build\l/igankevich/arma/src\l/velocity/basic_solver.hh">
<polygon fill="none" stroke="black" points="237.5,-366.5 237.5,-407.5 362.5,-407.5 362.5,-366.5 237.5,-366.5"/>
<text text-anchor="start" x="245.5" y="-395.5" font-family="Helvetica,sans-Serif" font-size="10.00">/home/travis/build</text>
<text text-anchor="start" x="245.5" y="-384.5" font-family="Helvetica,sans-Serif" font-size="10.00">/igankevich/arma/src</text>
<text text-anchor="middle" x="300" y="-373.5" font-family="Helvetica,sans-Serif" font-size="10.00">/velocity/basic_solver.hh</text>
</a>
</g>
</g>
<!-- Node1&#45;&gt;Node2 -->
<g id="edge1" class="edge"><title>Node1&#45;&gt;Node2</title>
<path fill="none" stroke="midnightblue" d="M839.075,-555.011C768.002,-548.266 650.387,-533.516 553,-504 471.612,-479.333 382.55,-433.755 334.835,-407.678"/>
<polygon fill="midnightblue" stroke="midnightblue" points="838.935,-558.513 849.215,-555.949 839.58,-551.543 838.935,-558.513"/>
</g>
<!-- Node21 -->
<g id="node21" class="node"><title>Node21</title>
<g id="a_node21"><a xlink:href="lh__model_8hh.html" target="_top" xlink:title="/home/travis/build\l/igankevich/arma/src\l/generator/lh_model.hh">
<polygon fill="none" stroke="black" points="774,-456.5 774,-497.5 890,-497.5 890,-456.5 774,-456.5"/>
<text text-anchor="start" x="782" y="-485.5" font-family="Helvetica,sans-Serif" font-size="10.00">/home/travis/build</text>
<text text-anchor="start" x="782" y="-474.5" font-family="Helvetica,sans-Serif" font-size="10.00">/igankevich/arma/src</text>
<text text-anchor="middle" x="832" y="-463.5" font-family="Helvetica,sans-Serif" font-size="10.00">/generator/lh_model.hh</text>
</a>
</g>
</g>
<!-- Node1&#45;&gt;Node21 -->
<g id="edge26" class="edge"><title>Node1&#45;&gt;Node21</title>
<path fill="none" stroke="midnightblue" d="M879.227,-532.544C869.334,-521.119 858.073,-508.113 849.029,-497.667"/>
<polygon fill="midnightblue" stroke="midnightblue" points="876.621,-534.881 885.813,-540.15 881.913,-530.299 876.621,-534.881"/>
</g>
<!-- Node23 -->
<g id="node23" class="node"><title>Node23</title>
<g id="a_node23"><a xlink:href="bscheduler__io_8hh.html" target="_top" xlink:title="/home/travis/build\l/igankevich/arma/src\l/bits/bscheduler_io.hh">
<polygon fill="none" stroke="black" points="1147,-456.5 1147,-497.5 1259,-497.5 1259,-456.5 1147,-456.5"/>
<text text-anchor="start" x="1155" y="-485.5" font-family="Helvetica,sans-Serif" font-size="10.00">/home/travis/build</text>
<text text-anchor="start" x="1155" y="-474.5" font-family="Helvetica,sans-Serif" font-size="10.00">/igankevich/arma/src</text>
<text text-anchor="middle" x="1203" y="-463.5" font-family="Helvetica,sans-Serif" font-size="10.00">/bits/bscheduler_io.hh</text>
</a>
</g>
</g>
<!-- Node1&#45;&gt;Node23 -->
<g id="edge29" class="edge"><title>Node1&#45;&gt;Node23</title>
<path fill="none" stroke="midnightblue" d="M966.337,-542.688C1019.75,-528.088 1095.48,-507.389 1146.78,-493.368"/>
<polygon fill="midnightblue" stroke="midnightblue" points="965.357,-539.327 956.634,-545.34 967.203,-546.08 965.357,-539.327"/>
</g>
<!-- Node26 -->
<g id="node26" class="node"><title>Node26</title>
<g id="a_node26"><a xlink:href="factor__waves_8hh.html" target="_top" xlink:title="/home/travis/build\l/igankevich/arma/src\l/factor_waves.hh">
<polygon fill="none" stroke="black" points="562.5,-456.5 562.5,-497.5 669.5,-497.5 669.5,-456.5 562.5,-456.5"/>
<text text-anchor="start" x="570.5" y="-485.5" font-family="Helvetica,sans-Serif" font-size="10.00">/home/travis/build</text>
<text text-anchor="start" x="570.5" y="-474.5" font-family="Helvetica,sans-Serif" font-size="10.00">/igankevich/arma/src</text>
<text text-anchor="middle" x="616" y="-463.5" font-family="Helvetica,sans-Serif" font-size="10.00">/factor_waves.hh</text>
</a>
</g>
</g>
<!-- Node1&#45;&gt;Node26 -->
<g id="edge32" class="edge"><title>Node1&#45;&gt;Node26</title>
<path fill="none" stroke="midnightblue" d="M839.454,-541.844C788.576,-527.307 718.003,-507.144 669.869,-493.391"/>
<polygon fill="midnightblue" stroke="midnightblue" points="838.777,-545.291 849.354,-544.673 840.7,-538.56 838.777,-545.291"/>
</g>
<!-- Node28 -->
<g id="node28" class="node"><title>Node28</title>
<g id="a_node28"><a xlink:href="plain__wave__model_8cc.html" target="_top" xlink:title="/home/travis/build\l/igankevich/arma/src\l/generator/plain_wave\l_model.cc">
<polygon fill="none" stroke="black" points="1277,-451 1277,-503 1389,-503 1389,-451 1277,-451"/>
<text text-anchor="start" x="1285" y="-491" font-family="Helvetica,sans-Serif" font-size="10.00">/home/travis/build</text>
<text text-anchor="start" x="1285" y="-480" font-family="Helvetica,sans-Serif" font-size="10.00">/igankevich/arma/src</text>
<text text-anchor="start" x="1285" y="-469" font-family="Helvetica,sans-Serif" font-size="10.00">/generator/plain_wave</text>
<text text-anchor="middle" x="1333" y="-458" font-family="Helvetica,sans-Serif" font-size="10.00">_model.cc</text>
</a>
</g>
</g>
<!-- Node1&#45;&gt;Node28 -->
<g id="edge35" class="edge"><title>Node1&#45;&gt;Node28</title>
<path fill="none" stroke="midnightblue" d="M966.522,-554.552C1039.87,-547.271 1163.69,-531.922 1267,-504 1270.21,-503.132 1273.48,-502.159 1276.75,-501.111"/>
<polygon fill="midnightblue" stroke="midnightblue" points="966.128,-551.073 956.515,-555.526 966.807,-558.04 966.128,-551.073"/>
</g>
<!-- Node29 -->
<g id="node29" class="node"><title>Node29</title>
<g id="a_node29"><a xlink:href="nit__transform_8hh.html" target="_top" xlink:title="/home/travis/build\l/igankevich/arma/src\l/nonlinear/nit_transform.hh">
<polygon fill="none" stroke="black" points="922,-456.5 922,-497.5 1054,-497.5 1054,-456.5 922,-456.5"/>
<text text-anchor="start" x="930" y="-485.5" font-family="Helvetica,sans-Serif" font-size="10.00">/home/travis/build</text>
<text text-anchor="start" x="930" y="-474.5" font-family="Helvetica,sans-Serif" font-size="10.00">/igankevich/arma/src</text>
<text text-anchor="middle" x="988" y="-463.5" font-family="Helvetica,sans-Serif" font-size="10.00">/nonlinear/nit_transform.hh</text>
</a>
</g>
</g>
<!-- Node1&#45;&gt;Node29 -->
<g id="edge36" class="edge"><title>Node1&#45;&gt;Node29</title>
<path fill="none" stroke="midnightblue" d="M930.779,-533.201C942.784,-521.62 956.578,-508.313 967.613,-497.667"/>
<polygon fill="midnightblue" stroke="midnightblue" points="928.343,-530.688 923.576,-540.15 933.203,-535.726 928.343,-530.688"/>
</g>
<!-- Node3 -->
<g id="node3" class="node"><title>Node3</title>
<g id="a_node3"><a xlink:href="arma__driver_8hh.html" target="_top" xlink:title="/home/travis/build\l/igankevich/arma/src\l/arma_driver.hh">
<polygon fill="none" stroke="black" points="183.5,-186.5 183.5,-227.5 290.5,-227.5 290.5,-186.5 183.5,-186.5"/>
<text text-anchor="start" x="191.5" y="-215.5" font-family="Helvetica,sans-Serif" font-size="10.00">/home/travis/build</text>
<text text-anchor="start" x="191.5" y="-204.5" font-family="Helvetica,sans-Serif" font-size="10.00">/igankevich/arma/src</text>
<text text-anchor="middle" x="237" y="-193.5" font-family="Helvetica,sans-Serif" font-size="10.00">/arma_driver.hh</text>
</a>
</g>
</g>
<!-- Node2&#45;&gt;Node3 -->
<g id="edge2" class="edge"><title>Node2&#45;&gt;Node3</title>
<path fill="none" stroke="midnightblue" d="M257.853,-359.949C245.948,-350.262 234.48,-338.132 228,-324 213.687,-292.786 222.352,-251.875 229.789,-227.91"/>
<polygon fill="midnightblue" stroke="midnightblue" points="256.038,-362.967 266.108,-366.259 260.289,-357.406 256.038,-362.967"/>
</g>
<!-- Node9 -->
<g id="node9" class="node"><title>Node9</title>
<g id="a_node9"><a xlink:href="linear__solver_8hh.html" target="_top" xlink:title="/home/travis/build\l/igankevich/arma/src\l/velocity/linear_solver.hh">
<polygon fill="none" stroke="black" points="380.5,-276.5 380.5,-317.5 505.5,-317.5 505.5,-276.5 380.5,-276.5"/>
<text text-anchor="start" x="388.5" y="-305.5" font-family="Helvetica,sans-Serif" font-size="10.00">/home/travis/build</text>
<text text-anchor="start" x="388.5" y="-294.5" font-family="Helvetica,sans-Serif" font-size="10.00">/igankevich/arma/src</text>
<text text-anchor="middle" x="443" y="-283.5" font-family="Helvetica,sans-Serif" font-size="10.00">/velocity/linear_solver.hh</text>
</a>
</g>
</g>
<!-- Node2&#45;&gt;Node9 -->
<g id="edge8" class="edge"><title>Node2&#45;&gt;Node9</title>
<path fill="none" stroke="midnightblue" d="M340.33,-361.182C362.645,-347.449 389.998,-330.617 410.858,-317.78"/>
<polygon fill="midnightblue" stroke="midnightblue" points="338.419,-358.248 331.736,-366.47 342.087,-364.21 338.419,-358.248"/>
</g>
<!-- Node14 -->
<g id="node14" class="node"><title>Node14</title>
<g id="a_node14"><a xlink:href="plain__wave__solver_8hh.html" target="_top" xlink:title="/home/travis/build\l/igankevich/arma/src\l/velocity/plain_wave\l_solver.hh">
<polygon fill="none" stroke="black" points="630.5,-271 630.5,-323 737.5,-323 737.5,-271 630.5,-271"/>
<text text-anchor="start" x="638.5" y="-311" font-family="Helvetica,sans-Serif" font-size="10.00">/home/travis/build</text>
<text text-anchor="start" x="638.5" y="-300" font-family="Helvetica,sans-Serif" font-size="10.00">/igankevich/arma/src</text>
<text text-anchor="start" x="638.5" y="-289" font-family="Helvetica,sans-Serif" font-size="10.00">/velocity/plain_wave</text>
<text text-anchor="middle" x="684" y="-278" font-family="Helvetica,sans-Serif" font-size="10.00">_solver.hh</text>
</a>
</g>
</g>
<!-- Node2&#45;&gt;Node14 -->
<g id="edge16" class="edge"><title>Node2&#45;&gt;Node14</title>
<path fill="none" stroke="midnightblue" d="M372.414,-369.405C447.525,-352.192 563.205,-325.682 630.462,-310.269"/>
<polygon fill="midnightblue" stroke="midnightblue" points="371.516,-366.02 362.551,-371.665 373.08,-372.843 371.516,-366.02"/>
</g>
<!-- Node16 -->
<g id="node16" class="node"><title>Node16</title>
<g id="a_node16"><a xlink:href="high__amplitude__realtime__solver_8hh.html" target="_top" xlink:title="/home/travis/build\l/igankevich/arma/src\l/velocity/high_amplitude\l_realtime_solver.hh">
<polygon fill="none" stroke="black" points="43,-91 43,-143 165,-143 165,-91 43,-91"/>
<text text-anchor="start" x="51" y="-131" font-family="Helvetica,sans-Serif" font-size="10.00">/home/travis/build</text>
<text text-anchor="start" x="51" y="-120" font-family="Helvetica,sans-Serif" font-size="10.00">/igankevich/arma/src</text>
<text text-anchor="start" x="51" y="-109" font-family="Helvetica,sans-Serif" font-size="10.00">/velocity/high_amplitude</text>
<text text-anchor="middle" x="104" y="-98" font-family="Helvetica,sans-Serif" font-size="10.00">_realtime_solver.hh</text>
</a>
</g>
</g>
<!-- Node2&#45;&gt;Node16 -->
<g id="edge19" class="edge"><title>Node2&#45;&gt;Node16</title>
<path fill="none" stroke="midnightblue" d="M259.088,-360.713C244.651,-350.499 229.033,-337.845 217,-324 203.822,-308.837 144.009,-195.022 117.14,-143.366"/>
<polygon fill="midnightblue" stroke="midnightblue" points="257.192,-363.657 267.416,-366.435 261.156,-357.887 257.192,-363.657"/>
</g>
<!-- Node18 -->
<g id="node18" class="node"><title>Node18</title>
<g id="a_node18"><a xlink:href="basic__solver_8cc.html" target="_top" xlink:title="/home/travis/build\l/igankevich/arma/src\l/velocity/basic_solver.cc">
<polygon fill="none" stroke="black" points="237.5,-276.5 237.5,-317.5 362.5,-317.5 362.5,-276.5 237.5,-276.5"/>
<text text-anchor="start" x="245.5" y="-305.5" font-family="Helvetica,sans-Serif" font-size="10.00">/home/travis/build</text>
<text text-anchor="start" x="245.5" y="-294.5" font-family="Helvetica,sans-Serif" font-size="10.00">/igankevich/arma/src</text>
<text text-anchor="middle" x="300" y="-283.5" font-family="Helvetica,sans-Serif" font-size="10.00">/velocity/basic_solver.cc</text>
</a>
</g>
</g>
<!-- Node2&#45;&gt;Node18 -->
<g id="edge23" class="edge"><title>Node2&#45;&gt;Node18</title>
<path fill="none" stroke="midnightblue" d="M300,-356.33C300,-343.629 300,-329.14 300,-317.78"/>
<polygon fill="midnightblue" stroke="midnightblue" points="296.5,-356.47 300,-366.47 303.5,-356.47 296.5,-356.47"/>
</g>
<!-- Node19 -->
<g id="node19" class="node"><title>Node19</title>
<g id="a_node19"><a xlink:href="small__amplitude__solver_8hh.html" target="_top" xlink:title="/home/travis/build\l/igankevich/arma/src\l/velocity/small_amplitude\l_solver.hh">
<polygon fill="none" stroke="black" points="-0.5,-271 -0.5,-323 126.5,-323 126.5,-271 -0.5,-271"/>
<text text-anchor="start" x="7.5" y="-311" font-family="Helvetica,sans-Serif" font-size="10.00">/home/travis/build</text>
<text text-anchor="start" x="7.5" y="-300" font-family="Helvetica,sans-Serif" font-size="10.00">/igankevich/arma/src</text>
<text text-anchor="start" x="7.5" y="-289" font-family="Helvetica,sans-Serif" font-size="10.00">/velocity/small_amplitude</text>
<text text-anchor="middle" x="63" y="-278" font-family="Helvetica,sans-Serif" font-size="10.00">_solver.hh</text>
</a>
</g>
</g>
<!-- Node2&#45;&gt;Node19 -->
<g id="edge24" class="edge"><title>Node2&#45;&gt;Node19</title>
<path fill="none" stroke="midnightblue" d="M237.981,-362.972C203.763,-350.266 161.341,-334.515 126.838,-321.704"/>
<polygon fill="midnightblue" stroke="midnightblue" points="236.809,-366.27 247.402,-366.47 239.246,-359.708 236.809,-366.27"/>
</g>
<!-- Node4 -->
<g id="node4" class="node"><title>Node4</title>
<g id="a_node4"><a xlink:href="arma__driver_8cc.html" target="_top" xlink:title="/home/travis/build\l/igankevich/arma/src\l/arma_driver.cc">
<polygon fill="none" stroke="black" points="183.5,-96.5 183.5,-137.5 290.5,-137.5 290.5,-96.5 183.5,-96.5"/>
<text text-anchor="start" x="191.5" y="-125.5" font-family="Helvetica,sans-Serif" font-size="10.00">/home/travis/build</text>
<text text-anchor="start" x="191.5" y="-114.5" font-family="Helvetica,sans-Serif" font-size="10.00">/igankevich/arma/src</text>
<text text-anchor="middle" x="237" y="-103.5" font-family="Helvetica,sans-Serif" font-size="10.00">/arma_driver.cc</text>
</a>
</g>
</g>
<!-- Node3&#45;&gt;Node4 -->
<g id="edge3" class="edge"><title>Node3&#45;&gt;Node4</title>
<path fill="none" stroke="midnightblue" d="M237,-176.33C237,-163.629 237,-149.14 237,-137.78"/>
<polygon fill="midnightblue" stroke="midnightblue" points="233.5,-176.47 237,-186.47 240.5,-176.47 233.5,-176.47"/>
</g>
<!-- Node5 -->
<g id="node5" class="node"><title>Node5</title>
<g id="a_node5"><a xlink:href="arma__main_8cc.html" target="_top" xlink:title="/home/travis/build\l/igankevich/arma/src\l/arma_main.cc">
<polygon fill="none" stroke="black" points="579.5,-6.5 579.5,-47.5 686.5,-47.5 686.5,-6.5 579.5,-6.5"/>
<text text-anchor="start" x="587.5" y="-35.5" font-family="Helvetica,sans-Serif" font-size="10.00">/home/travis/build</text>
<text text-anchor="start" x="587.5" y="-24.5" font-family="Helvetica,sans-Serif" font-size="10.00">/igankevich/arma/src</text>
<text text-anchor="middle" x="633" y="-13.5" font-family="Helvetica,sans-Serif" font-size="10.00">/arma_main.cc</text>
</a>
</g>
</g>
<!-- Node3&#45;&gt;Node5 -->
<g id="edge4" class="edge"><title>Node3&#45;&gt;Node5</title>
<path fill="none" stroke="midnightblue" d="M291.673,-182.895C294.476,-181.881 297.263,-180.909 300,-180 361.38,-159.612 387.534,-180.394 441,-144 465.473,-127.341 456.706,-108.272 480,-90 509.203,-67.093 548.013,-51.496 579.237,-41.6751"/>
<polygon fill="midnightblue" stroke="midnightblue" points="290.265,-179.685 282.134,-186.477 292.726,-186.238 290.265,-179.685"/>
</g>
<!-- Node6 -->
<g id="node6" class="node"><title>Node6</title>
<g id="a_node6"><a xlink:href="arma__realtime__driver_8hh.html" target="_top" xlink:title="/home/travis/build\l/igankevich/arma/src\l/arma_realtime_driver.hh">
<polygon fill="none" stroke="black" points="309,-96.5 309,-137.5 433,-137.5 433,-96.5 309,-96.5"/>
<text text-anchor="start" x="317" y="-125.5" font-family="Helvetica,sans-Serif" font-size="10.00">/home/travis/build</text>
<text text-anchor="start" x="317" y="-114.5" font-family="Helvetica,sans-Serif" font-size="10.00">/igankevich/arma/src</text>
<text text-anchor="middle" x="371" y="-103.5" font-family="Helvetica,sans-Serif" font-size="10.00">/arma_realtime_driver.hh</text>
</a>
</g>
</g>
<!-- Node3&#45;&gt;Node6 -->
<g id="edge5" class="edge"><title>Node3&#45;&gt;Node6</title>
<path fill="none" stroke="midnightblue" d="M275.348,-180.816C296.156,-167.151 321.507,-150.503 340.881,-137.78"/>
<polygon fill="midnightblue" stroke="midnightblue" points="273.176,-178.055 266.739,-186.47 277.019,-183.906 273.176,-178.055"/>
</g>
<!-- Node7 -->
<g id="node7" class="node"><title>Node7</title>
<g id="a_node7"><a xlink:href="arma__realtime_8cc.html" target="_top" xlink:title="/home/travis/build\l/igankevich/arma/src\l/arma_realtime.cc">
<polygon fill="none" stroke="black" points="321.5,-6.5 321.5,-47.5 428.5,-47.5 428.5,-6.5 321.5,-6.5"/>
<text text-anchor="start" x="329.5" y="-35.5" font-family="Helvetica,sans-Serif" font-size="10.00">/home/travis/build</text>
<text text-anchor="start" x="329.5" y="-24.5" font-family="Helvetica,sans-Serif" font-size="10.00">/igankevich/arma/src</text>
<text text-anchor="middle" x="375" y="-13.5" font-family="Helvetica,sans-Serif" font-size="10.00">/arma_realtime.cc</text>
</a>
</g>
</g>
<!-- Node6&#45;&gt;Node7 -->
<g id="edge6" class="edge"><title>Node6&#45;&gt;Node7</title>
<path fill="none" stroke="midnightblue" d="M372.349,-86.3298C372.926,-73.6289 373.585,-59.1399 374.101,-47.7798"/>
<polygon fill="midnightblue" stroke="midnightblue" points="368.846,-86.3213 371.888,-96.4699 375.838,-86.6392 368.846,-86.3213"/>
</g>
<!-- Node8 -->
<g id="node8" class="node"><title>Node8</title>
<g id="a_node8"><a xlink:href="arma__realtime__driver_8cc.html" target="_top" xlink:title="/home/travis/build\l/igankevich/arma/src\l/arma_realtime_driver.cc">
<polygon fill="none" stroke="black" points="179,-6.5 179,-47.5 303,-47.5 303,-6.5 179,-6.5"/>
<text text-anchor="start" x="187" y="-35.5" font-family="Helvetica,sans-Serif" font-size="10.00">/home/travis/build</text>
<text text-anchor="start" x="187" y="-24.5" font-family="Helvetica,sans-Serif" font-size="10.00">/igankevich/arma/src</text>
<text text-anchor="middle" x="241" y="-13.5" font-family="Helvetica,sans-Serif" font-size="10.00">/arma_realtime_driver.cc</text>
</a>
</g>
</g>
<!-- Node6&#45;&gt;Node8 -->
<g id="edge7" class="edge"><title>Node6&#45;&gt;Node8</title>
<path fill="none" stroke="midnightblue" d="M333.797,-90.8163C313.61,-77.1514 289.016,-60.5031 270.22,-47.7798"/>
<polygon fill="midnightblue" stroke="midnightblue" points="331.906,-93.7626 342.149,-96.4699 335.83,-87.9659 331.906,-93.7626"/>
</g>
<!-- Node10 -->
<g id="node10" class="node"><title>Node10</title>
<g id="a_node10"><a xlink:href="high__amplitude__solver_8hh.html" target="_top" xlink:title="/home/travis/build\l/igankevich/arma/src\l/velocity/high_amplitude\l_solver.hh">
<polygon fill="none" stroke="black" points="309,-181 309,-233 431,-233 431,-181 309,-181"/>
<text text-anchor="start" x="317" y="-221" font-family="Helvetica,sans-Serif" font-size="10.00">/home/travis/build</text>
<text text-anchor="start" x="317" y="-210" font-family="Helvetica,sans-Serif" font-size="10.00">/igankevich/arma/src</text>
<text text-anchor="start" x="317" y="-199" font-family="Helvetica,sans-Serif" font-size="10.00">/velocity/high_amplitude</text>
<text text-anchor="middle" x="370" y="-188" font-family="Helvetica,sans-Serif" font-size="10.00">_solver.hh</text>
</a>
</g>
</g>
<!-- Node9&#45;&gt;Node10 -->
<g id="edge9" class="edge"><title>Node9&#45;&gt;Node10</title>
<path fill="none" stroke="midnightblue" d="M420.258,-268.585C410.87,-257.268 400.06,-244.237 390.876,-233.166"/>
<polygon fill="midnightblue" stroke="midnightblue" points="417.72,-271.008 426.799,-276.47 423.108,-266.539 417.72,-271.008"/>
</g>
<!-- Node11 -->
<g id="node11" class="node"><title>Node11</title>
<g id="a_node11"><a xlink:href="common__main_8hh.html" target="_top" xlink:title="/home/travis/build\l/igankevich/arma/src\l/common_main.hh">
<polygon fill="none" stroke="black" points="712.5,-96.5 712.5,-137.5 819.5,-137.5 819.5,-96.5 712.5,-96.5"/>
<text text-anchor="start" x="720.5" y="-125.5" font-family="Helvetica,sans-Serif" font-size="10.00">/home/travis/build</text>
<text text-anchor="start" x="720.5" y="-114.5" font-family="Helvetica,sans-Serif" font-size="10.00">/igankevich/arma/src</text>
<text text-anchor="middle" x="766" y="-103.5" font-family="Helvetica,sans-Serif" font-size="10.00">/common_main.hh</text>
</a>
</g>
</g>
<!-- Node9&#45;&gt;Node11 -->
<g id="edge14" class="edge"><title>Node9&#45;&gt;Node11</title>
<path fill="none" stroke="midnightblue" d="M443.867,-266.241C446.287,-239.813 454.078,-202.058 478,-180 486.636,-172.036 631.252,-143.563 712.193,-128.125"/>
<polygon fill="midnightblue" stroke="midnightblue" points="440.359,-266.226 443.144,-276.449 447.341,-266.721 440.359,-266.226"/>
</g>
<!-- Node13 -->
<g id="node13" class="node"><title>Node13</title>
<g id="a_node13"><a xlink:href="linear__solver_8cc.html" target="_top" xlink:title="/home/travis/build\l/igankevich/arma/src\l/velocity/linear_solver.cc">
<polygon fill="none" stroke="black" points="487.5,-186.5 487.5,-227.5 612.5,-227.5 612.5,-186.5 487.5,-186.5"/>
<text text-anchor="start" x="495.5" y="-215.5" font-family="Helvetica,sans-Serif" font-size="10.00">/home/travis/build</text>
<text text-anchor="start" x="495.5" y="-204.5" font-family="Helvetica,sans-Serif" font-size="10.00">/igankevich/arma/src</text>
<text text-anchor="middle" x="550" y="-193.5" font-family="Helvetica,sans-Serif" font-size="10.00">/velocity/linear_solver.cc</text>
</a>
</g>
</g>
<!-- Node9&#45;&gt;Node13 -->
<g id="edge15" class="edge"><title>Node9&#45;&gt;Node13</title>
<path fill="none" stroke="midnightblue" d="M474.515,-270.081C490.958,-256.558 510.755,-240.276 525.95,-227.78"/>
<polygon fill="midnightblue" stroke="midnightblue" points="472.247,-267.415 466.747,-276.47 476.693,-272.821 472.247,-267.415"/>
</g>
<!-- Node10&#45;&gt;Node11 -->
<g id="edge10" class="edge"><title>Node10&#45;&gt;Node11</title>
<path fill="none" stroke="midnightblue" d="M441.156,-181.056C442.445,-180.694 443.727,-180.342 445,-180 494.611,-166.683 634.535,-141.204 712.263,-127.417"/>
<polygon fill="midnightblue" stroke="midnightblue" points="439.778,-177.813 431.173,-183.995 441.755,-184.528 439.778,-177.813"/>
</g>
<!-- Node12 -->
<g id="node12" class="node"><title>Node12</title>
<g id="a_node12"><a xlink:href="high__amplitude__solver_8cc.html" target="_top" xlink:title="/home/travis/build\l/igankevich/arma/src\l/velocity/high_amplitude\l_solver.cc">
<polygon fill="none" stroke="black" points="489,-91 489,-143 611,-143 611,-91 489,-91"/>
<text text-anchor="start" x="497" y="-131" font-family="Helvetica,sans-Serif" font-size="10.00">/home/travis/build</text>
<text text-anchor="start" x="497" y="-120" font-family="Helvetica,sans-Serif" font-size="10.00">/igankevich/arma/src</text>
<text text-anchor="start" x="497" y="-109" font-family="Helvetica,sans-Serif" font-size="10.00">/velocity/high_amplitude</text>
<text text-anchor="middle" x="550" y="-98" font-family="Helvetica,sans-Serif" font-size="10.00">_solver.cc</text>
</a>
</g>
</g>
<!-- Node10&#45;&gt;Node12 -->
<g id="edge13" class="edge"><title>Node10&#45;&gt;Node12</title>
<path fill="none" stroke="midnightblue" d="M430.854,-176.249C452.907,-165.468 477.577,-153.407 498.723,-143.069"/>
<polygon fill="midnightblue" stroke="midnightblue" points="429.027,-173.246 421.581,-180.783 432.102,-179.535 429.027,-173.246"/>
</g>
<!-- Node11&#45;&gt;Node5 -->
<g id="edge11" class="edge"><title>Node11&#45;&gt;Node5</title>
<path fill="none" stroke="midnightblue" d="M727.938,-90.8163C707.286,-77.1514 682.124,-60.5031 662.894,-47.7798"/>
<polygon fill="midnightblue" stroke="midnightblue" points="726.212,-93.8708 736.483,-96.4699 730.075,-88.033 726.212,-93.8708"/>
</g>
<!-- Node11&#45;&gt;Node7 -->
<g id="edge12" class="edge"><title>Node11&#45;&gt;Node7</title>
<path fill="none" stroke="midnightblue" d="M702.505,-101.71C626.329,-84.5652 499.974,-56.1272 428.526,-40.0468"/>
<polygon fill="midnightblue" stroke="midnightblue" points="701.928,-105.167 712.453,-103.948 703.466,-98.3381 701.928,-105.167"/>
</g>
<!-- Node14&#45;&gt;Node11 -->
<g id="edge17" class="edge"><title>Node14&#45;&gt;Node11</title>
<path fill="none" stroke="midnightblue" d="M723.525,-263.866C732.146,-255.041 740.365,-244.876 746,-234 762.077,-202.972 765.6,-161.639 766.167,-137.611"/>
<polygon fill="midnightblue" stroke="midnightblue" points="720.968,-261.471 716.237,-270.951 725.847,-266.49 720.968,-261.471"/>
</g>
<!-- Node15 -->
<g id="node15" class="node"><title>Node15</title>
<g id="a_node15"><a xlink:href="plain__wave__solver_8cc.html" target="_top" xlink:title="/home/travis/build\l/igankevich/arma/src\l/velocity/plain_wave\l_solver.cc">
<polygon fill="none" stroke="black" points="630.5,-181 630.5,-233 737.5,-233 737.5,-181 630.5,-181"/>
<text text-anchor="start" x="638.5" y="-221" font-family="Helvetica,sans-Serif" font-size="10.00">/home/travis/build</text>
<text text-anchor="start" x="638.5" y="-210" font-family="Helvetica,sans-Serif" font-size="10.00">/igankevich/arma/src</text>
<text text-anchor="start" x="638.5" y="-199" font-family="Helvetica,sans-Serif" font-size="10.00">/velocity/plain_wave</text>
<text text-anchor="middle" x="684" y="-188" font-family="Helvetica,sans-Serif" font-size="10.00">_solver.cc</text>
</a>
</g>
</g>
<!-- Node14&#45;&gt;Node15 -->
<g id="edge18" class="edge"><title>Node14&#45;&gt;Node15</title>
<path fill="none" stroke="midnightblue" d="M684,-260.489C684,-251.309 684,-241.616 684,-233.092"/>
<polygon fill="midnightblue" stroke="midnightblue" points="680.5,-260.547 684,-270.547 687.5,-260.547 680.5,-260.547"/>
</g>
<!-- Node16&#45;&gt;Node7 -->
<g id="edge20" class="edge"><title>Node16&#45;&gt;Node7</title>
<path fill="none" stroke="midnightblue" d="M175.045,-89.8025C235.811,-71.2429 254.185,-72.9178 311,-54 316.803,-52.0677 322.834,-49.8734 328.772,-47.5982"/>
<polygon fill="midnightblue" stroke="midnightblue" points="173.847,-86.5098 165.341,-92.8263 175.93,-93.1929 173.847,-86.5098"/>
</g>
<!-- Node16&#45;&gt;Node8 -->
<g id="edge21" class="edge"><title>Node16&#45;&gt;Node8</title>
<path fill="none" stroke="midnightblue" d="M151.724,-85.3452C171.211,-72.828 193.176,-58.7191 210.442,-47.6283"/>
<polygon fill="midnightblue" stroke="midnightblue" points="149.781,-82.4334 143.259,-90.7827 153.564,-88.323 149.781,-82.4334"/>
</g>
<!-- Node17 -->
<g id="node17" class="node"><title>Node17</title>
<g id="a_node17"><a xlink:href="high__amplitude__realtime__solver_8cc.html" target="_top" xlink:title="/home/travis/build\l/igankevich/arma/src\l/velocity/high_amplitude\l_realtime_solver.cc">
<polygon fill="none" stroke="black" points="39,-1 39,-53 161,-53 161,-1 39,-1"/>
<text text-anchor="start" x="47" y="-41" font-family="Helvetica,sans-Serif" font-size="10.00">/home/travis/build</text>
<text text-anchor="start" x="47" y="-30" font-family="Helvetica,sans-Serif" font-size="10.00">/igankevich/arma/src</text>
<text text-anchor="start" x="47" y="-19" font-family="Helvetica,sans-Serif" font-size="10.00">/velocity/high_amplitude</text>
<text text-anchor="middle" x="100" y="-8" font-family="Helvetica,sans-Serif" font-size="10.00">_realtime_solver.cc</text>
</a>
</g>
</g>
<!-- Node16&#45;&gt;Node17 -->
<g id="edge22" class="edge"><title>Node16&#45;&gt;Node17</title>
<path fill="none" stroke="midnightblue" d="M102.386,-80.4892C101.969,-71.3088 101.528,-61.616 101.141,-53.0921"/>
<polygon fill="midnightblue" stroke="midnightblue" points="98.8925,-80.716 102.843,-90.5468 105.885,-80.3981 98.8925,-80.716"/>
</g>
<!-- Node20 -->
<g id="node20" class="node"><title>Node20</title>
<g id="a_node20"><a xlink:href="small__amplitude__solver_8cc.html" target="_top" xlink:title="/home/travis/build\l/igankevich/arma/src\l/velocity/small_amplitude\l_solver.cc">
<polygon fill="none" stroke="black" points="-0.5,-181 -0.5,-233 126.5,-233 126.5,-181 -0.5,-181"/>
<text text-anchor="start" x="7.5" y="-221" font-family="Helvetica,sans-Serif" font-size="10.00">/home/travis/build</text>
<text text-anchor="start" x="7.5" y="-210" font-family="Helvetica,sans-Serif" font-size="10.00">/igankevich/arma/src</text>
<text text-anchor="start" x="7.5" y="-199" font-family="Helvetica,sans-Serif" font-size="10.00">/velocity/small_amplitude</text>
<text text-anchor="middle" x="63" y="-188" font-family="Helvetica,sans-Serif" font-size="10.00">_solver.cc</text>
</a>
</g>
</g>
<!-- Node19&#45;&gt;Node20 -->
<g id="edge25" class="edge"><title>Node19&#45;&gt;Node20</title>
<path fill="none" stroke="midnightblue" d="M63,-260.489C63,-251.309 63,-241.616 63,-233.092"/>
<polygon fill="midnightblue" stroke="midnightblue" points="59.5001,-260.547 63,-270.547 66.5001,-260.547 59.5001,-260.547"/>
</g>
<!-- Node21&#45;&gt;Node11 -->
<g id="edge27" class="edge"><title>Node21&#45;&gt;Node11</title>
<path fill="none" stroke="midnightblue" d="M827.017,-446.264C823.053,-422.816 817.309,-389.296 812,-360 797.014,-277.312 777.932,-178.982 769.871,-137.741"/>
<polygon fill="midnightblue" stroke="midnightblue" points="823.591,-446.999 828.705,-456.278 830.494,-445.835 823.591,-446.999"/>
</g>
<!-- Node22 -->
<g id="node22" class="node"><title>Node22</title>
<g id="a_node22"><a xlink:href="lh__model_8cc.html" target="_top" xlink:title="/home/travis/build\l/igankevich/arma/src\l/generator/lh_model.cc">
<polygon fill="none" stroke="black" points="688,-366.5 688,-407.5 804,-407.5 804,-366.5 688,-366.5"/>
<text text-anchor="start" x="696" y="-395.5" font-family="Helvetica,sans-Serif" font-size="10.00">/home/travis/build</text>
<text text-anchor="start" x="696" y="-384.5" font-family="Helvetica,sans-Serif" font-size="10.00">/igankevich/arma/src</text>
<text text-anchor="middle" x="746" y="-373.5" font-family="Helvetica,sans-Serif" font-size="10.00">/generator/lh_model.cc</text>
</a>
</g>
</g>
<!-- Node21&#45;&gt;Node22 -->
<g id="edge28" class="edge"><title>Node21&#45;&gt;Node22</title>
<path fill="none" stroke="midnightblue" d="M805.583,-448.969C792.589,-435.673 777.209,-419.935 765.33,-407.78"/>
<polygon fill="midnightblue" stroke="midnightblue" points="803.421,-451.764 812.914,-456.47 808.428,-446.872 803.421,-451.764"/>
</g>
<!-- Node24 -->
<g id="node24" class="node"><title>Node24</title>
<g id="a_node24"><a xlink:href="ar__model__bscheduler_8cc.html" target="_top" xlink:title="/home/travis/build\l/igankevich/arma/src\l/generator/ar_model_bscheduler.cc">
<polygon fill="none" stroke="black" points="1180.5,-366.5 1180.5,-407.5 1349.5,-407.5 1349.5,-366.5 1180.5,-366.5"/>
<text text-anchor="start" x="1188.5" y="-395.5" font-family="Helvetica,sans-Serif" font-size="10.00">/home/travis/build</text>
<text text-anchor="start" x="1188.5" y="-384.5" font-family="Helvetica,sans-Serif" font-size="10.00">/igankevich/arma/src</text>
<text text-anchor="middle" x="1265" y="-373.5" font-family="Helvetica,sans-Serif" font-size="10.00">/generator/ar_model_bscheduler.cc</text>
</a>
</g>
</g>
<!-- Node23&#45;&gt;Node24 -->
<g id="edge30" class="edge"><title>Node23&#45;&gt;Node24</title>
<path fill="none" stroke="midnightblue" d="M1222.57,-448.221C1231.83,-435.086 1242.66,-419.708 1251.06,-407.78"/>
<polygon fill="midnightblue" stroke="midnightblue" points="1219.66,-446.279 1216.76,-456.47 1225.38,-450.311 1219.66,-446.279"/>
</g>
<!-- Node25 -->
<g id="node25" class="node"><title>Node25</title>
<g id="a_node25"><a xlink:href="basic__model_8cc.html" target="_top" xlink:title="/home/travis/build\l/igankevich/arma/src\l/generator/basic_model.cc">
<polygon fill="none" stroke="black" points="1367.5,-366.5 1367.5,-407.5 1498.5,-407.5 1498.5,-366.5 1367.5,-366.5"/>
<text text-anchor="start" x="1375.5" y="-395.5" font-family="Helvetica,sans-Serif" font-size="10.00">/home/travis/build</text>
<text text-anchor="start" x="1375.5" y="-384.5" font-family="Helvetica,sans-Serif" font-size="10.00">/igankevich/arma/src</text>
<text text-anchor="middle" x="1433" y="-373.5" font-family="Helvetica,sans-Serif" font-size="10.00">/generator/basic_model.cc</text>
</a>
</g>
</g>
<!-- Node23&#45;&gt;Node25 -->
<g id="edge31" class="edge"><title>Node23&#45;&gt;Node25</title>
<path fill="none" stroke="midnightblue" d="M1260.9,-452.769C1263.29,-451.83 1265.67,-450.904 1268,-450 1305.38,-435.505 1347.71,-419.609 1380.13,-407.543"/>
<polygon fill="midnightblue" stroke="midnightblue" points="1259.6,-449.517 1251.58,-456.437 1262.17,-456.03 1259.6,-449.517"/>
</g>
<!-- Node26&#45;&gt;Node13 -->
<g id="edge34" class="edge"><title>Node26&#45;&gt;Node13</title>
<path fill="none" stroke="midnightblue" d="M579.906,-449.664C569.219,-439.793 558.825,-427.625 553,-414 525.865,-350.525 537.939,-265.673 545.526,-227.754"/>
<polygon fill="midnightblue" stroke="midnightblue" points="577.84,-452.506 587.679,-456.434 582.437,-447.227 577.84,-452.506"/>
</g>
<!-- Node27 -->
<g id="node27" class="node"><title>Node27</title>
<g id="a_node27"><a xlink:href="factor__waves_8cc.html" target="_top" xlink:title="/home/travis/build\l/igankevich/arma/src\l/factor_waves.cc">
<polygon fill="none" stroke="black" points="562.5,-366.5 562.5,-407.5 669.5,-407.5 669.5,-366.5 562.5,-366.5"/>
<text text-anchor="start" x="570.5" y="-395.5" font-family="Helvetica,sans-Serif" font-size="10.00">/home/travis/build</text>
<text text-anchor="start" x="570.5" y="-384.5" font-family="Helvetica,sans-Serif" font-size="10.00">/igankevich/arma/src</text>
<text text-anchor="middle" x="616" y="-373.5" font-family="Helvetica,sans-Serif" font-size="10.00">/factor_waves.cc</text>
</a>
</g>
</g>
<!-- Node26&#45;&gt;Node27 -->
<g id="edge33" class="edge"><title>Node26&#45;&gt;Node27</title>
<path fill="none" stroke="midnightblue" d="M616,-446.33C616,-433.629 616,-419.14 616,-407.78"/>
<polygon fill="midnightblue" stroke="midnightblue" points="612.5,-446.47 616,-456.47 619.5,-446.47 612.5,-446.47"/>
</g>
<!-- Node30 -->
<g id="node30" class="node"><title>Node30</title>
<g id="a_node30"><a xlink:href="basic__arma__model_8hh.html" target="_top" xlink:title="/home/travis/build\l/igankevich/arma/src\l/generator/basic_arma\l_model.hh">
<polygon fill="none" stroke="black" points="860.5,-361 860.5,-413 973.5,-413 973.5,-361 860.5,-361"/>
<text text-anchor="start" x="868.5" y="-401" font-family="Helvetica,sans-Serif" font-size="10.00">/home/travis/build</text>
<text text-anchor="start" x="868.5" y="-390" font-family="Helvetica,sans-Serif" font-size="10.00">/igankevich/arma/src</text>
<text text-anchor="start" x="868.5" y="-379" font-family="Helvetica,sans-Serif" font-size="10.00">/generator/basic_arma</text>
<text text-anchor="middle" x="917" y="-368" font-family="Helvetica,sans-Serif" font-size="10.00">_model.hh</text>
</a>
</g>
</g>
<!-- Node29&#45;&gt;Node30 -->
<g id="edge37" class="edge"><title>Node29&#45;&gt;Node30</title>
<path fill="none" stroke="midnightblue" d="M965.881,-448.585C956.75,-437.268 946.236,-424.237 937.304,-413.166"/>
<polygon fill="midnightblue" stroke="midnightblue" points="963.24,-450.885 972.243,-456.47 968.687,-446.489 963.24,-450.885"/>
</g>
<!-- Node37 -->
<g id="node37" class="node"><title>Node37</title>
<g id="a_node37"><a xlink:href="basic__arma__model_8cc.html" target="_top" xlink:title="/home/travis/build\l/igankevich/arma/src\l/generator/basic_arma\l_model.cc">
<polygon fill="none" stroke="black" points="1124.5,-271 1124.5,-323 1237.5,-323 1237.5,-271 1124.5,-271"/>
<text text-anchor="start" x="1132.5" y="-311" font-family="Helvetica,sans-Serif" font-size="10.00">/home/travis/build</text>
<text text-anchor="start" x="1132.5" y="-300" font-family="Helvetica,sans-Serif" font-size="10.00">/igankevich/arma/src</text>
<text text-anchor="start" x="1132.5" y="-289" font-family="Helvetica,sans-Serif" font-size="10.00">/generator/basic_arma</text>
<text text-anchor="middle" x="1181" y="-278" font-family="Helvetica,sans-Serif" font-size="10.00">_model.cc</text>
</a>
</g>
</g>
<!-- Node29&#45;&gt;Node37 -->
<g id="edge49" class="edge"><title>Node29&#45;&gt;Node37</title>
<path fill="none" stroke="midnightblue" d="M989.249,-446.237C991.851,-420.449 999.425,-383.661 1021,-360 1050.86,-327.249 1072.67,-340.017 1114,-324 1117.37,-322.692 1120.84,-321.347 1124.34,-319.99"/>
<polygon fill="midnightblue" stroke="midnightblue" points="985.76,-445.954 988.433,-456.206 992.737,-446.525 985.76,-445.954"/>
</g>
<!-- Node38 -->
<g id="node38" class="node"><title>Node38</title>
<g id="a_node38"><a xlink:href="nit__transform_8cc.html" target="_top" xlink:title="/home/travis/build\l/igankevich/arma/src\l/nonlinear/nit_transform.cc">
<polygon fill="none" stroke="black" points="1030,-366.5 1030,-407.5 1162,-407.5 1162,-366.5 1030,-366.5"/>
<text text-anchor="start" x="1038" y="-395.5" font-family="Helvetica,sans-Serif" font-size="10.00">/home/travis/build</text>
<text text-anchor="start" x="1038" y="-384.5" font-family="Helvetica,sans-Serif" font-size="10.00">/igankevich/arma/src</text>
<text text-anchor="middle" x="1096" y="-373.5" font-family="Helvetica,sans-Serif" font-size="10.00">/nonlinear/nit_transform.cc</text>
</a>
</g>
</g>
<!-- Node29&#45;&gt;Node38 -->
<g id="edge50" class="edge"><title>Node29&#45;&gt;Node38</title>
<path fill="none" stroke="midnightblue" d="M1019.81,-450.081C1036.41,-436.558 1056.39,-420.276 1071.72,-407.78"/>
<polygon fill="midnightblue" stroke="midnightblue" points="1017.51,-447.44 1011.97,-456.47 1021.93,-452.867 1017.51,-447.44"/>
</g>
<!-- Node31 -->
<g id="node31" class="node"><title>Node31</title>
<g id="a_node31"><a xlink:href="ar__model_8hh.html" target="_top" xlink:title="/home/travis/build\l/igankevich/arma/src\l/generator/ar_model.hh">
<polygon fill="none" stroke="black" points="990,-276.5 990,-317.5 1106,-317.5 1106,-276.5 990,-276.5"/>
<text text-anchor="start" x="998" y="-305.5" font-family="Helvetica,sans-Serif" font-size="10.00">/home/travis/build</text>
<text text-anchor="start" x="998" y="-294.5" font-family="Helvetica,sans-Serif" font-size="10.00">/igankevich/arma/src</text>
<text text-anchor="middle" x="1048" y="-283.5" font-family="Helvetica,sans-Serif" font-size="10.00">/generator/ar_model.hh</text>
</a>
</g>
</g>
<!-- Node30&#45;&gt;Node31 -->
<g id="edge38" class="edge"><title>Node30&#45;&gt;Node31</title>
<path fill="none" stroke="midnightblue" d="M962.885,-355.177C981.456,-342.701 1002.34,-328.669 1018.78,-317.628"/>
<polygon fill="midnightblue" stroke="midnightblue" points="960.889,-352.301 954.539,-360.783 964.792,-358.112 960.889,-352.301"/>
</g>
<!-- Node35 -->
<g id="node35" class="node"><title>Node35</title>
<g id="a_node35"><a xlink:href="ma__model_8hh.html" target="_top" xlink:title="/home/travis/build\l/igankevich/arma/src\l/generator/ma_model.hh">
<polygon fill="none" stroke="black" points="850,-276.5 850,-317.5 972,-317.5 972,-276.5 850,-276.5"/>
<text text-anchor="start" x="858" y="-305.5" font-family="Helvetica,sans-Serif" font-size="10.00">/home/travis/build</text>
<text text-anchor="start" x="858" y="-294.5" font-family="Helvetica,sans-Serif" font-size="10.00">/igankevich/arma/src</text>
<text text-anchor="middle" x="911" y="-283.5" font-family="Helvetica,sans-Serif" font-size="10.00">/generator/ma_model.hh</text>
</a>
</g>
</g>
<!-- Node30&#45;&gt;Node35 -->
<g id="edge44" class="edge"><title>Node30&#45;&gt;Node35</title>
<path fill="none" stroke="midnightblue" d="M914.581,-350.515C913.813,-339.257 912.993,-327.227 912.331,-317.525"/>
<polygon fill="midnightblue" stroke="midnightblue" points="911.092,-350.808 915.265,-360.547 918.076,-350.332 911.092,-350.808"/>
</g>
<!-- Node30&#45;&gt;Node37 -->
<g id="edge48" class="edge"><title>Node30&#45;&gt;Node37</title>
<path fill="none" stroke="midnightblue" d="M983.631,-361.439C985.099,-360.95 986.557,-360.47 988,-360 1043.38,-341.975 1058.79,-342.555 1114,-324 1117.43,-322.847 1120.94,-321.622 1124.47,-320.356"/>
<polygon fill="midnightblue" stroke="midnightblue" points="982.178,-358.237 973.84,-364.773 984.434,-364.863 982.178,-358.237"/>
</g>
<!-- Node31&#45;&gt;Node11 -->
<g id="edge39" class="edge"><title>Node31&#45;&gt;Node11</title>
<path fill="none" stroke="midnightblue" d="M1043.67,-266.664C1038.23,-240.269 1026.34,-202.31 1001,-180 950.646,-135.667 872.188,-122.487 819.961,-118.864"/>
<polygon fill="midnightblue" stroke="midnightblue" points="1040.23,-267.313 1045.51,-276.499 1047.11,-266.026 1040.23,-267.313"/>
</g>
<!-- Node32 -->
<g id="node32" class="node"><title>Node32</title>
<g id="a_node32"><a xlink:href="arma__model_8hh.html" target="_top" xlink:title="/home/travis/build\l/igankevich/arma/src\l/generator/arma_model.hh">
<polygon fill="none" stroke="black" points="1048,-186.5 1048,-227.5 1178,-227.5 1178,-186.5 1048,-186.5"/>
<text text-anchor="start" x="1056" y="-215.5" font-family="Helvetica,sans-Serif" font-size="10.00">/home/travis/build</text>
<text text-anchor="start" x="1056" y="-204.5" font-family="Helvetica,sans-Serif" font-size="10.00">/igankevich/arma/src</text>
<text text-anchor="middle" x="1113" y="-193.5" font-family="Helvetica,sans-Serif" font-size="10.00">/generator/arma_model.hh</text>
</a>
</g>
</g>
<!-- Node31&#45;&gt;Node32 -->
<g id="edge40" class="edge"><title>Node31&#45;&gt;Node32</title>
<path fill="none" stroke="midnightblue" d="M1068.52,-268.221C1078.22,-255.086 1089.58,-239.708 1098.39,-227.78"/>
<polygon fill="midnightblue" stroke="midnightblue" points="1065.55,-266.347 1062.43,-276.47 1071.18,-270.506 1065.55,-266.347"/>
</g>
<!-- Node34 -->
<g id="node34" class="node"><title>Node34</title>
<g id="a_node34"><a xlink:href="ar__model_8cc.html" target="_top" xlink:title="/home/travis/build\l/igankevich/arma/src\l/generator/ar_model.cc">
<polygon fill="none" stroke="black" points="1196,-186.5 1196,-227.5 1312,-227.5 1312,-186.5 1196,-186.5"/>
<text text-anchor="start" x="1204" y="-215.5" font-family="Helvetica,sans-Serif" font-size="10.00">/home/travis/build</text>
<text text-anchor="start" x="1204" y="-204.5" font-family="Helvetica,sans-Serif" font-size="10.00">/igankevich/arma/src</text>
<text text-anchor="middle" x="1254" y="-193.5" font-family="Helvetica,sans-Serif" font-size="10.00">/generator/ar_model.cc</text>
</a>
</g>
</g>
<!-- Node31&#45;&gt;Node34 -->
<g id="edge43" class="edge"><title>Node31&#45;&gt;Node34</title>
<path fill="none" stroke="midnightblue" d="M1103.17,-272.434C1135.95,-258.43 1177.04,-240.875 1208.05,-227.627"/>
<polygon fill="midnightblue" stroke="midnightblue" points="1101.54,-269.323 1093.72,-276.47 1104.29,-275.76 1101.54,-269.323"/>
</g>
<!-- Node32&#45;&gt;Node11 -->
<g id="edge41" class="edge"><title>Node32&#45;&gt;Node11</title>
<path fill="none" stroke="midnightblue" d="M1046.19,-183.545C1042.08,-182.307 1037.99,-181.115 1034,-180 960.412,-159.424 874.121,-140.349 819.752,-128.937"/>
<polygon fill="midnightblue" stroke="midnightblue" points="1045.21,-186.906 1055.8,-186.499 1047.27,-180.215 1045.21,-186.906"/>
</g>
<!-- Node33 -->
<g id="node33" class="node"><title>Node33</title>
<g id="a_node33"><a xlink:href="arma__model_8cc.html" target="_top" xlink:title="/home/travis/build\l/igankevich/arma/src\l/generator/arma_model.cc">
<polygon fill="none" stroke="black" points="1048,-96.5 1048,-137.5 1178,-137.5 1178,-96.5 1048,-96.5"/>
<text text-anchor="start" x="1056" y="-125.5" font-family="Helvetica,sans-Serif" font-size="10.00">/home/travis/build</text>
<text text-anchor="start" x="1056" y="-114.5" font-family="Helvetica,sans-Serif" font-size="10.00">/igankevich/arma/src</text>
<text text-anchor="middle" x="1113" y="-103.5" font-family="Helvetica,sans-Serif" font-size="10.00">/generator/arma_model.cc</text>
</a>
</g>
</g>
<!-- Node32&#45;&gt;Node33 -->
<g id="edge42" class="edge"><title>Node32&#45;&gt;Node33</title>
<path fill="none" stroke="midnightblue" d="M1113,-176.33C1113,-163.629 1113,-149.14 1113,-137.78"/>
<polygon fill="midnightblue" stroke="midnightblue" points="1109.5,-176.47 1113,-186.47 1116.5,-176.47 1109.5,-176.47"/>
</g>
<!-- Node35&#45;&gt;Node11 -->
<g id="edge45" class="edge"><title>Node35&#45;&gt;Node11</title>
<path fill="none" stroke="midnightblue" d="M888.858,-268.618C880.158,-257.841 870.096,-245.35 861,-234 841.815,-210.059 837.415,-203.755 818,-180 806.354,-165.75 793.01,-149.849 782.756,-137.718"/>
<polygon fill="midnightblue" stroke="midnightblue" points="886.2,-270.898 895.206,-276.478 891.645,-266.499 886.2,-270.898"/>
</g>
<!-- Node35&#45;&gt;Node32 -->
<g id="edge46" class="edge"><title>Node35&#45;&gt;Node32</title>
<path fill="none" stroke="midnightblue" d="M965.094,-272.434C997.241,-258.43 1037.54,-240.875 1067.95,-227.627"/>
<polygon fill="midnightblue" stroke="midnightblue" points="963.6,-269.267 955.83,-276.47 966.396,-275.685 963.6,-269.267"/>
</g>
<!-- Node36 -->
<g id="node36" class="node"><title>Node36</title>
<g id="a_node36"><a xlink:href="ma__model_8cc.html" target="_top" xlink:title="/home/travis/build\l/igankevich/arma/src\l/generator/ma_model.cc">
<polygon fill="none" stroke="black" points="870,-186.5 870,-227.5 992,-227.5 992,-186.5 870,-186.5"/>
<text text-anchor="start" x="878" y="-215.5" font-family="Helvetica,sans-Serif" font-size="10.00">/home/travis/build</text>
<text text-anchor="start" x="878" y="-204.5" font-family="Helvetica,sans-Serif" font-size="10.00">/igankevich/arma/src</text>
<text text-anchor="middle" x="931" y="-193.5" font-family="Helvetica,sans-Serif" font-size="10.00">/generator/ma_model.cc</text>
</a>
</g>
</g>
<!-- Node35&#45;&gt;Node36 -->
<g id="edge47" class="edge"><title>Node35&#45;&gt;Node36</title>
<path fill="none" stroke="midnightblue" d="M917.657,-266.71C920.564,-253.919 923.897,-239.253 926.505,-227.78"/>
<polygon fill="midnightblue" stroke="midnightblue" points="914.242,-265.943 915.439,-276.47 921.068,-267.494 914.242,-265.943"/>
</g>
</g>
</svg>
