<?xml version="1.0" encoding="UTF-8" standalone="no"?>
<!DOCTYPE svg PUBLIC "-//W3C//DTD SVG 1.1//EN"
 "http://www.w3.org/Graphics/SVG/1.1/DTD/svg11.dtd">
<!-- Generated by graphviz version 2.36.0 (20140111.2315)
 -->
<!-- Title: /home/travis/build/igankevich/arma/src/nonlinear/equations.hh Pages: 1 -->
<svg width="140pt" height="206pt"
 viewBox="0.00 0.00 140.00 206.00" xmlns="http://www.w3.org/2000/svg" xmlns:xlink="http://www.w3.org/1999/xlink">
<g id="graph0" class="graph" transform="scale(1 1) rotate(0) translate(4 202)">
<title>/home/travis/build/igankevich/arma/src/nonlinear/equations.hh</title>
<!-- Node1 -->
<g id="node1" class="node"><title>Node1</title>
<polygon fill="#bfbfbf" stroke="black" points="7.5,-156.5 7.5,-197.5 124.5,-197.5 124.5,-156.5 7.5,-156.5"/>
<text text-anchor="start" x="15.5" y="-185.5" font-family="Helvetica,sans-Serif" font-size="10.00">/home/travis/build</text>
<text text-anchor="start" x="15.5" y="-174.5" font-family="Helvetica,sans-Serif" font-size="10.00">/igankevich/arma/src</text>
<text text-anchor="middle" x="66" y="-163.5" font-family="Helvetica,sans-Serif" font-size="10.00">/nonlinear/equations.hh</text>
</g>
<!-- Node2 -->
<g id="node2" class="node"><title>Node2</title>
<g id="a_node2"><a xlink:href="transforms_8hh.html" target="_top" xlink:title="/home/travis/build\l/igankevich/arma/src\l/nonlinear/transforms.hh">
<polygon fill="none" stroke="black" points="5,-78.5 5,-119.5 127,-119.5 127,-78.5 5,-78.5"/>
<text text-anchor="start" x="13" y="-107.5" font-family="Helvetica,sans-Serif" font-size="10.00">/home/travis/build</text>
<text text-anchor="start" x="13" y="-96.5" font-family="Helvetica,sans-Serif" font-size="10.00">/igankevich/arma/src</text>
<text text-anchor="middle" x="66" y="-85.5" font-family="Helvetica,sans-Serif" font-size="10.00">/nonlinear/transforms.hh</text>
</a>
</g>
</g>
<!-- Node1&#45;&gt;Node2 -->
<g id="edge1" class="edge"><title>Node1&#45;&gt;Node2</title>
<path fill="none" stroke="midnightblue" d="M66,-146.297C66,-137.301 66,-127.653 66,-119.506"/>
<polygon fill="midnightblue" stroke="midnightblue" points="62.5001,-146.428 66,-156.428 69.5001,-146.428 62.5001,-146.428"/>
</g>
<!-- Node3 -->
<g id="node3" class="node"><title>Node3</title>
<g id="a_node3"><a xlink:href="nit__transform_8cc.html" target="_top" xlink:title="/home/travis/build\l/igankevich/arma/src\l/nonlinear/nit_transform.cc">
<polygon fill="none" stroke="black" points="0,-0.5 0,-41.5 132,-41.5 132,-0.5 0,-0.5"/>
<text text-anchor="start" x="8" y="-29.5" font-family="Helvetica,sans-Serif" font-size="10.00">/home/travis/build</text>
<text text-anchor="start" x="8" y="-18.5" font-family="Helvetica,sans-Serif" font-size="10.00">/igankevich/arma/src</text>
<text text-anchor="middle" x="66" y="-7.5" font-family="Helvetica,sans-Serif" font-size="10.00">/nonlinear/nit_transform.cc</text>
</a>
</g>
</g>
<!-- Node2&#45;&gt;Node3 -->
<g id="edge2" class="edge"><title>Node2&#45;&gt;Node3</title>
<path fill="none" stroke="midnightblue" d="M66,-68.2965C66,-59.3009 66,-49.6532 66,-41.5056"/>
<polygon fill="midnightblue" stroke="midnightblue" points="62.5001,-68.4281 66,-78.4281 69.5001,-68.4281 62.5001,-68.4281"/>
</g>
</g>
</svg>
