<?xml version="1.0" encoding="UTF-8" standalone="no"?>
<!DOCTYPE svg PUBLIC "-//W3C//DTD SVG 1.1//EN"
 "http://www.w3.org/Graphics/SVG/1.1/DTD/svg11.dtd">
<!-- Generated by graphviz version 2.40.1 (20161225.0304)
 -->
<!-- Title: src/errors.hh Pages: 1 -->
<svg width="476pt" height="95pt"
 viewBox="0.00 0.00 475.50 95.00" xmlns="http://www.w3.org/2000/svg" xmlns:xlink="http://www.w3.org/1999/xlink">
<g id="graph0" class="graph" transform="scale(1 1) rotate(0) translate(4 91)">
<title>src/errors.hh</title>
<!-- Node3 -->
<g id="node1" class="node">
<title>Node3</title>
<polygon fill="#bfbfbf" stroke="#000000" points="197,-67.5 197,-86.5 268,-86.5 268,-67.5 197,-67.5"/>
<text text-anchor="middle" x="232.5" y="-74.5" font-family="Helvetica,sans-Serif" font-size="10.00" fill="#000000">src/errors.hh</text>
</g>
<!-- Node4 -->
<g id="node2" class="node">
<title>Node4</title>
<g id="a_node2"><a xlink:href="arma__main_8cc.html" target="_top" xlink:title="src/arma_main.cc">
<polygon fill="none" stroke="#000000" points="0,-6 0,-25 95,-25 95,-6 0,-6"/>
<text text-anchor="middle" x="47.5" y="-13" font-family="Helvetica,sans-Serif" font-size="10.00" fill="#000000">src/arma_main.cc</text>
</a>
</g>
</g>
<!-- Node3&#45;&gt;Node4 -->
<g id="edge1" class="edge">
<title>Node3&#45;&gt;Node4</title>
<path fill="none" stroke="#191970" d="M193.6977,-64.1009C158.61,-52.4366 107.7534,-35.5302 76.2033,-25.0419"/>
<polygon fill="#191970" stroke="#191970" points="193.0002,-67.5573 203.5938,-67.3906 195.2085,-60.9147 193.0002,-67.5573"/>
</g>
<!-- Node5 -->
<g id="node3" class="node">
<title>Node5</title>
<g id="a_node3"><a xlink:href="arma__realtime_8cc.html" target="_top" xlink:title="src/arma_realtime.cc">
<polygon fill="none" stroke="#000000" points="113.5,-6 113.5,-25 221.5,-25 221.5,-6 113.5,-6"/>
<text text-anchor="middle" x="167.5" y="-13" font-family="Helvetica,sans-Serif" font-size="10.00" fill="#000000">src/arma_realtime.cc</text>
</a>
</g>
</g>
<!-- Node3&#45;&gt;Node5 -->
<g id="edge2" class="edge">
<title>Node3&#45;&gt;Node5</title>
<path fill="none" stroke="#191970" d="M214.7707,-60.2253C202.9095,-49.0028 187.7143,-34.6258 177.7994,-25.2449"/>
<polygon fill="#191970" stroke="#191970" points="212.6743,-63.0602 222.3438,-67.3906 217.4853,-57.9754 212.6743,-63.0602"/>
</g>
<!-- Node6 -->
<g id="node4" class="node">
<title>Node6</title>
<g id="a_node4"><a xlink:href="ar__model__parallel_8cc.html" target="_top" xlink:title="src/generator/ar_model\l_parallel.cc">
<polygon fill="none" stroke="#000000" points="239.5,-.5 239.5,-30.5 355.5,-30.5 355.5,-.5 239.5,-.5"/>
<text text-anchor="start" x="247.5" y="-18.5" font-family="Helvetica,sans-Serif" font-size="10.00" fill="#000000">src/generator/ar_model</text>
<text text-anchor="middle" x="297.5" y="-7.5" font-family="Helvetica,sans-Serif" font-size="10.00" fill="#000000">_parallel.cc</text>
</a>
</g>
</g>
<!-- Node3&#45;&gt;Node6 -->
<g id="edge3" class="edge">
<title>Node3&#45;&gt;Node6</title>
<path fill="none" stroke="#191970" d="M249.9522,-60.4875C259.8012,-51.1689 272.0162,-39.6116 281.5992,-30.5446"/>
<polygon fill="#191970" stroke="#191970" points="247.5147,-57.9754 242.6563,-67.3906 252.3257,-63.0602 247.5147,-57.9754"/>
</g>
<!-- Node7 -->
<g id="node5" class="node">
<title>Node7</title>
<g id="a_node5"><a xlink:href="parallel__mt_8cc.html" target="_top" xlink:title="src/parallel_mt.cc">
<polygon fill="none" stroke="#000000" points="373.5,-6 373.5,-25 467.5,-25 467.5,-6 373.5,-6"/>
<text text-anchor="middle" x="420.5" y="-13" font-family="Helvetica,sans-Serif" font-size="10.00" fill="#000000">src/parallel_mt.cc</text>
</a>
</g>
</g>
<!-- Node3&#45;&gt;Node7 -->
<g id="edge4" class="edge">
<title>Node3&#45;&gt;Node7</title>
<path fill="none" stroke="#191970" d="M271.4733,-64.2507C307.1442,-52.5818 359.1319,-35.5752 391.3313,-25.0419"/>
<polygon fill="#191970" stroke="#191970" points="270.2912,-60.9549 261.875,-67.3906 272.4676,-67.6079 270.2912,-60.9549"/>
</g>
</g>
</svg>
