<?xml version="1.0" encoding="UTF-8" standalone="no"?>
<!DOCTYPE svg PUBLIC "-//W3C//DTD SVG 1.1//EN"
 "http://www.w3.org/Graphics/SVG/1.1/DTD/svg11.dtd">
<!-- Generated by graphviz version 2.36.0 (20140111.2315)
 -->
<!-- Title: /home/travis/build/igankevich/arma/src/factor_waves.cc Pages: 1 -->
<svg width="574pt" height="330pt"
 viewBox="0.00 0.00 574.18 330.00" xmlns="http://www.w3.org/2000/svg" xmlns:xlink="http://www.w3.org/1999/xlink">
<g id="graph0" class="graph" transform="scale(1 1) rotate(0) translate(4 326)">
<title>/home/travis/build/igankevich/arma/src/factor_waves.cc</title>
<!-- Node1 -->
<g id="node1" class="node"><title>Node1</title>
<polygon fill="#bfbfbf" stroke="black" points="236.678,-280.5 236.678,-321.5 343.678,-321.5 343.678,-280.5 236.678,-280.5"/>
<text text-anchor="start" x="244.678" y="-309.5" font-family="Helvetica,sans-Serif" font-size="10.00">/home/travis/build</text>
<text text-anchor="start" x="244.678" y="-298.5" font-family="Helvetica,sans-Serif" font-size="10.00">/igankevich/arma/src</text>
<text text-anchor="middle" x="290.178" y="-287.5" font-family="Helvetica,sans-Serif" font-size="10.00">/factor_waves.cc</text>
</g>
<!-- Node2 -->
<g id="node2" class="node"><title>Node2</title>
<g id="a_node2"><a xlink:href="factor__waves_8hh.html" target="_top" xlink:title="factor_waves.hh">
<polygon fill="none" stroke="black" points="204.678,-224.5 204.678,-243.5 293.678,-243.5 293.678,-224.5 204.678,-224.5"/>
<text text-anchor="middle" x="249.178" y="-231.5" font-family="Helvetica,sans-Serif" font-size="10.00">factor_waves.hh</text>
</a>
</g>
</g>
<!-- Node1&#45;&gt;Node2 -->
<g id="edge1" class="edge"><title>Node1&#45;&gt;Node2</title>
<path fill="none" stroke="midnightblue" d="M277.876,-280.498C272.195,-271.49 265.507,-260.888 260.018,-252.185"/>
<polygon fill="midnightblue" stroke="midnightblue" points="262.931,-250.243 254.636,-243.652 257.01,-253.978 262.931,-250.243"/>
</g>
<!-- Node15 -->
<g id="node15" class="node"><title>Node15</title>
<g id="a_node15"><a xlink:href="types_8hh.html" target="_top" xlink:title="types.hh">
<polygon fill="none" stroke="black" points="111.178,-168.5 111.178,-187.5 165.178,-187.5 165.178,-168.5 111.178,-168.5"/>
<text text-anchor="middle" x="138.178" y="-175.5" font-family="Helvetica,sans-Serif" font-size="10.00">types.hh</text>
</a>
</g>
</g>
<!-- Node1&#45;&gt;Node15 -->
<g id="edge19" class="edge"><title>Node1&#45;&gt;Node15</title>
<path fill="none" stroke="midnightblue" d="M250.431,-280.275C232.664,-270.55 211.986,-257.922 195.178,-244 177.921,-229.706 161.406,-209.977 150.636,-196.014"/>
<polygon fill="midnightblue" stroke="midnightblue" points="153.251,-193.668 144.439,-187.786 147.66,-197.879 153.251,-193.668"/>
</g>
<!-- Node16 -->
<g id="node16" class="node"><title>Node16</title>
<polygon fill="none" stroke="#bfbfbf" points="312.178,-224.5 312.178,-243.5 352.178,-243.5 352.178,-224.5 312.178,-224.5"/>
<text text-anchor="middle" x="332.178" y="-231.5" font-family="Helvetica,sans-Serif" font-size="10.00">limits</text>
</g>
<!-- Node1&#45;&gt;Node16 -->
<g id="edge18" class="edge"><title>Node1&#45;&gt;Node16</title>
<path fill="none" stroke="midnightblue" d="M302.779,-280.498C308.599,-271.49 315.45,-260.888 321.074,-252.185"/>
<polygon fill="midnightblue" stroke="midnightblue" points="324.1,-253.951 326.587,-243.652 318.22,-250.152 324.1,-253.951"/>
</g>
<!-- Node17 -->
<g id="node17" class="node"><title>Node17</title>
<g id="a_node17"><a xlink:href="physical__constants_8hh.html" target="_top" xlink:title="physical_constants.hh">
<polygon fill="none" stroke="black" points="452.178,-56.5 452.178,-75.5 566.178,-75.5 566.178,-56.5 452.178,-56.5"/>
<text text-anchor="middle" x="509.178" y="-63.5" font-family="Helvetica,sans-Serif" font-size="10.00">physical_constants.hh</text>
</a>
</g>
</g>
<!-- Node1&#45;&gt;Node17 -->
<g id="edge20" class="edge"><title>Node1&#45;&gt;Node17</title>
<path fill="none" stroke="midnightblue" d="M317.563,-280.495C331.223,-270.255 347.668,-257.129 361.178,-244 416.605,-190.134 472.557,-116.915 496.755,-84.1174"/>
<polygon fill="midnightblue" stroke="midnightblue" points="499.876,-85.7795 502.962,-75.6439 494.229,-81.6431 499.876,-85.7795"/>
</g>
<!-- Node3 -->
<g id="node3" class="node"><title>Node3</title>
<polygon fill="none" stroke="#bfbfbf" points="404.178,-0.5 404.178,-19.5 448.178,-19.5 448.178,-0.5 404.178,-0.5"/>
<text text-anchor="middle" x="426.178" y="-7.5" font-family="Helvetica,sans-Serif" font-size="10.00">cmath</text>
</g>
<!-- Node2&#45;&gt;Node3 -->
<g id="edge2" class="edge"><title>Node2&#45;&gt;Node3</title>
<path fill="none" stroke="midnightblue" d="M273.795,-224.391C309.041,-210.7 373.155,-180.449 405.178,-132 425.873,-100.688 428.036,-55.2228 427.369,-29.8757"/>
<polygon fill="midnightblue" stroke="midnightblue" points="430.86,-29.6031 426.919,-19.7685 423.867,-29.9142 430.86,-29.6031"/>
</g>
<!-- Node4 -->
<g id="node4" class="node"><title>Node4</title>
<polygon fill="none" stroke="#bfbfbf" points="263.178,-168.5 263.178,-187.5 307.178,-187.5 307.178,-168.5 263.178,-168.5"/>
<text text-anchor="middle" x="285.178" y="-175.5" font-family="Helvetica,sans-Serif" font-size="10.00">vector</text>
</g>
<!-- Node2&#45;&gt;Node4 -->
<g id="edge3" class="edge"><title>Node2&#45;&gt;Node4</title>
<path fill="none" stroke="midnightblue" d="M255.123,-224.083C260.155,-216.534 267.515,-205.495 273.691,-196.23"/>
<polygon fill="midnightblue" stroke="midnightblue" points="276.709,-198.013 279.344,-187.751 270.885,-194.13 276.709,-198.013"/>
</g>
<!-- Node5 -->
<g id="node5" class="node"><title>Node5</title>
<g id="a_node5"><a xlink:href="domain_8hh.html" target="_top" xlink:title="domain.hh">
<polygon fill="none" stroke="black" points="183.178,-168.5 183.178,-187.5 245.178,-187.5 245.178,-168.5 183.178,-168.5"/>
<text text-anchor="middle" x="214.178" y="-175.5" font-family="Helvetica,sans-Serif" font-size="10.00">domain.hh</text>
</a>
</g>
</g>
<!-- Node2&#45;&gt;Node5 -->
<g id="edge4" class="edge"><title>Node2&#45;&gt;Node5</title>
<path fill="none" stroke="midnightblue" d="M243.398,-224.083C238.505,-216.534 231.35,-205.495 225.345,-196.23"/>
<polygon fill="midnightblue" stroke="midnightblue" points="228.226,-194.239 219.85,-187.751 222.352,-198.046 228.226,-194.239"/>
</g>
<!-- Node2&#45;&gt;Node15 -->
<g id="edge16" class="edge"><title>Node2&#45;&gt;Node15</title>
<path fill="none" stroke="midnightblue" d="M231.344,-224.324C213.462,-215.625 185.703,-202.12 165.132,-192.113"/>
<polygon fill="midnightblue" stroke="midnightblue" points="166.491,-188.882 155.968,-187.655 163.429,-195.177 166.491,-188.882"/>
</g>
<!-- Node6 -->
<g id="node6" class="node"><title>Node6</title>
<polygon fill="none" stroke="#bfbfbf" points="189.678,-112.5 189.678,-131.5 238.678,-131.5 238.678,-112.5 189.678,-112.5"/>
<text text-anchor="middle" x="214.178" y="-119.5" font-family="Helvetica,sans-Serif" font-size="10.00">cstddef</text>
</g>
<!-- Node5&#45;&gt;Node6 -->
<g id="edge5" class="edge"><title>Node5&#45;&gt;Node6</title>
<path fill="none" stroke="midnightblue" d="M214.178,-168.083C214.178,-161.006 214.178,-150.861 214.178,-141.986"/>
<polygon fill="midnightblue" stroke="midnightblue" points="217.678,-141.751 214.178,-131.751 210.678,-141.751 217.678,-141.751"/>
</g>
<!-- Node7 -->
<g id="node7" class="node"><title>Node7</title>
<polygon fill="none" stroke="#bfbfbf" points="256.678,-112.5 256.678,-131.5 305.678,-131.5 305.678,-112.5 256.678,-112.5"/>
<text text-anchor="middle" x="281.178" y="-119.5" font-family="Helvetica,sans-Serif" font-size="10.00">istream</text>
</g>
<!-- Node5&#45;&gt;Node7 -->
<g id="edge6" class="edge"><title>Node5&#45;&gt;Node7</title>
<path fill="none" stroke="midnightblue" d="M224.943,-168.324C234.944,-160.263 250.064,-148.077 262.108,-138.369"/>
<polygon fill="midnightblue" stroke="midnightblue" points="264.628,-140.834 270.217,-131.834 260.235,-135.384 264.628,-140.834"/>
</g>
<!-- Node8 -->
<g id="node8" class="node"><title>Node8</title>
<polygon fill="none" stroke="#bfbfbf" points="13.1778,-112.5 13.1778,-131.5 65.1778,-131.5 65.1778,-112.5 13.1778,-112.5"/>
<text text-anchor="middle" x="39.1778" y="-119.5" font-family="Helvetica,sans-Serif" font-size="10.00">ostream</text>
</g>
<!-- Node5&#45;&gt;Node8 -->
<g id="edge7" class="edge"><title>Node5&#45;&gt;Node8</title>
<path fill="none" stroke="midnightblue" d="M186.449,-168.444C156.316,-159.145 108.067,-144.257 75.0641,-134.073"/>
<polygon fill="midnightblue" stroke="midnightblue" points="75.9357,-130.68 65.3483,-131.075 73.8717,-137.368 75.9357,-130.68"/>
</g>
<!-- Node9 -->
<g id="node9" class="node"><title>Node9</title>
<polygon fill="none" stroke="#bfbfbf" points="83.1778,-112.5 83.1778,-131.5 133.178,-131.5 133.178,-112.5 83.1778,-112.5"/>
<text text-anchor="middle" x="108.178" y="-119.5" font-family="Helvetica,sans-Serif" font-size="10.00">iomanip</text>
</g>
<!-- Node5&#45;&gt;Node9 -->
<g id="edge8" class="edge"><title>Node5&#45;&gt;Node9</title>
<path fill="none" stroke="midnightblue" d="M197.147,-168.324C180.148,-159.664 153.802,-146.242 134.185,-136.249"/>
<polygon fill="midnightblue" stroke="midnightblue" points="135.665,-133.075 125.166,-131.655 132.488,-139.312 135.665,-133.075"/>
</g>
<!-- Node10 -->
<g id="node10" class="node"><title>Node10</title>
<polygon fill="none" stroke="#bfbfbf" points="127.178,-0.5 127.178,-19.5 195.178,-19.5 195.178,-0.5 127.178,-0.5"/>
<text text-anchor="middle" x="161.178" y="-7.5" font-family="Helvetica,sans-Serif" font-size="10.00">blitz/array.h</text>
</g>
<!-- Node5&#45;&gt;Node10 -->
<g id="edge9" class="edge"><title>Node5&#45;&gt;Node10</title>
<path fill="none" stroke="midnightblue" d="M205.399,-168.202C197.466,-159.695 186.146,-146.061 180.178,-132 165.69,-97.866 162.124,-54.0898 161.322,-29.6461"/>
<polygon fill="midnightblue" stroke="midnightblue" points="164.821,-29.5287 161.117,-19.6023 157.822,-29.6717 164.821,-29.5287"/>
</g>
<!-- Node11 -->
<g id="node11" class="node"><title>Node11</title>
<g id="a_node11"><a xlink:href="validators_8hh.html" target="_top" xlink:title="validators.hh">
<polygon fill="none" stroke="black" points="324.178,-112.5 324.178,-131.5 396.178,-131.5 396.178,-112.5 324.178,-112.5"/>
<text text-anchor="middle" x="360.178" y="-119.5" font-family="Helvetica,sans-Serif" font-size="10.00">validators.hh</text>
</a>
</g>
</g>
<!-- Node5&#45;&gt;Node11 -->
<g id="edge10" class="edge"><title>Node5&#45;&gt;Node11</title>
<path fill="none" stroke="midnightblue" d="M237.312,-168.444C261.66,-159.438 300.185,-145.189 327.601,-135.049"/>
<polygon fill="midnightblue" stroke="midnightblue" points="328.987,-138.268 337.152,-131.516 326.559,-131.703 328.987,-138.268"/>
</g>
<!-- Node12 -->
<g id="node12" class="node"><title>Node12</title>
<polygon fill="none" stroke="#bfbfbf" points="258.678,-56.5 258.678,-75.5 317.678,-75.5 317.678,-56.5 258.678,-56.5"/>
<text text-anchor="middle" x="288.178" y="-63.5" font-family="Helvetica,sans-Serif" font-size="10.00">stdexcept</text>
</g>
<!-- Node11&#45;&gt;Node12 -->
<g id="edge11" class="edge"><title>Node11&#45;&gt;Node12</title>
<path fill="none" stroke="midnightblue" d="M348.61,-112.324C337.758,-104.185 321.297,-91.8395 308.294,-82.0874"/>
<polygon fill="midnightblue" stroke="midnightblue" points="310.056,-79.0339 299.956,-75.8339 305.856,-84.6339 310.056,-79.0339"/>
</g>
<!-- Node13 -->
<g id="node13" class="node"><title>Node13</title>
<g id="a_node13"><a xlink:href="blitz_8hh.html" target="_top" xlink:title="blitz.hh">
<polygon fill="none" stroke="black" points="336.178,-56.5 336.178,-75.5 384.178,-75.5 384.178,-56.5 336.178,-56.5"/>
<text text-anchor="middle" x="360.178" y="-63.5" font-family="Helvetica,sans-Serif" font-size="10.00">blitz.hh</text>
</a>
</g>
</g>
<!-- Node11&#45;&gt;Node13 -->
<g id="edge12" class="edge"><title>Node11&#45;&gt;Node13</title>
<path fill="none" stroke="midnightblue" d="M360.178,-112.083C360.178,-105.006 360.178,-94.8611 360.178,-85.9865"/>
<polygon fill="midnightblue" stroke="midnightblue" points="363.678,-85.751 360.178,-75.7511 356.678,-85.7511 363.678,-85.751"/>
</g>
<!-- Node13&#45;&gt;Node3 -->
<g id="edge13" class="edge"><title>Node13&#45;&gt;Node3</title>
<path fill="none" stroke="midnightblue" d="M370.782,-56.324C380.634,-48.2631 395.529,-36.0765 407.393,-26.3695"/>
<polygon fill="midnightblue" stroke="midnightblue" points="409.858,-28.8752 415.381,-19.8339 405.425,-23.4575 409.858,-28.8752"/>
</g>
<!-- Node13&#45;&gt;Node10 -->
<g id="edge15" class="edge"><title>Node13&#45;&gt;Node10</title>
<path fill="none" stroke="midnightblue" d="M336.174,-58.4863C303.105,-49.5129 243.047,-33.2158 202.633,-22.2493"/>
<polygon fill="midnightblue" stroke="midnightblue" points="203.378,-18.8248 192.81,-19.5837 201.545,-25.5805 203.378,-18.8248"/>
</g>
<!-- Node14 -->
<g id="node14" class="node"><title>Node14</title>
<polygon fill="none" stroke="#bfbfbf" points="330.178,-0.5 330.178,-19.5 386.178,-19.5 386.178,-0.5 330.178,-0.5"/>
<text text-anchor="middle" x="358.178" y="-7.5" font-family="Helvetica,sans-Serif" font-size="10.00">algorithm</text>
</g>
<!-- Node13&#45;&gt;Node14 -->
<g id="edge14" class="edge"><title>Node13&#45;&gt;Node14</title>
<path fill="none" stroke="midnightblue" d="M359.848,-56.083C359.585,-49.0059 359.21,-38.8611 358.881,-29.9865"/>
<polygon fill="midnightblue" stroke="midnightblue" points="362.37,-29.6147 358.502,-19.7511 355.375,-29.8738 362.37,-29.6147"/>
</g>
<!-- Node15&#45;&gt;Node10 -->
<g id="edge17" class="edge"><title>Node15&#45;&gt;Node10</title>
<path fill="none" stroke="midnightblue" d="M110.998,-174.827C65.4081,-169.961 -19.2944,-155.01 4.17784,-112 29.4044,-65.7757 85.8533,-37.5417 123.73,-23.082"/>
<polygon fill="midnightblue" stroke="midnightblue" points="125.221,-26.263 133.403,-19.5325 122.809,-19.6915 125.221,-26.263"/>
</g>
<!-- Node17&#45;&gt;Node3 -->
<g id="edge21" class="edge"><title>Node17&#45;&gt;Node3</title>
<path fill="none" stroke="midnightblue" d="M495.842,-56.324C483.016,-47.979 463.393,-35.2122 448.238,-25.3524"/>
<polygon fill="midnightblue" stroke="midnightblue" points="449.771,-22.1742 439.48,-19.6545 445.954,-28.0417 449.771,-22.1742"/>
</g>
</g>
</svg>
