<?xml version="1.0" encoding="UTF-8" standalone="no"?>
<!DOCTYPE svg PUBLIC "-//W3C//DTD SVG 1.1//EN"
 "http://www.w3.org/Graphics/SVG/1.1/DTD/svg11.dtd">
<!-- Generated by graphviz version 2.40.1 (20161225.0304)
 -->
<!-- Title: src/factor_waves.cc Pages: 1 -->
<svg width="554pt" height="364pt"
 viewBox="0.00 0.00 553.50 364.00" xmlns="http://www.w3.org/2000/svg" xmlns:xlink="http://www.w3.org/1999/xlink">
<g id="graph0" class="graph" transform="scale(1 1) rotate(0) translate(4 360)">
<title>src/factor_waves.cc</title>
<!-- Node0 -->
<g id="node1" class="node">
<title>Node0</title>
<polygon fill="#bfbfbf" stroke="#000000" points="203.5,-336.5 203.5,-355.5 308.5,-355.5 308.5,-336.5 203.5,-336.5"/>
<text text-anchor="middle" x="256" y="-343.5" font-family="Helvetica,sans-Serif" font-size="10.00" fill="#000000">src/factor_waves.cc</text>
</g>
<!-- Node1 -->
<g id="node2" class="node">
<title>Node1</title>
<g id="a_node2"><a xlink:href="factor__waves_8hh.html" target="_top" xlink:title="factor_waves.hh">
<polygon fill="none" stroke="#000000" points="175.5,-280.5 175.5,-299.5 264.5,-299.5 264.5,-280.5 175.5,-280.5"/>
<text text-anchor="middle" x="220" y="-287.5" font-family="Helvetica,sans-Serif" font-size="10.00" fill="#000000">factor_waves.hh</text>
</a>
</g>
</g>
<!-- Node0&#45;&gt;Node1 -->
<g id="edge1" class="edge">
<title>Node0&#45;&gt;Node1</title>
<path fill="none" stroke="#191970" d="M249.7293,-336.2455C244.7736,-328.5367 237.717,-317.5598 231.7224,-308.2348"/>
<polygon fill="#191970" stroke="#191970" points="234.5506,-306.1618 226.1989,-299.6427 228.6624,-309.9471 234.5506,-306.1618"/>
</g>
<!-- Node14 -->
<g id="node15" class="node">
<title>Node14</title>
<g id="a_node15"><a xlink:href="types_8hh.html" target="_top" xlink:title="types.hh">
<polygon fill="none" stroke="#000000" points="339,-224.5 339,-243.5 393,-243.5 393,-224.5 339,-224.5"/>
<text text-anchor="middle" x="366" y="-231.5" font-family="Helvetica,sans-Serif" font-size="10.00" fill="#000000">types.hh</text>
</a>
</g>
</g>
<!-- Node0&#45;&gt;Node14 -->
<g id="edge24" class="edge">
<title>Node0&#45;&gt;Node14</title>
<path fill="none" stroke="#191970" d="M263.5147,-336.1767C273.8543,-322.8951 293.3169,-298.7197 312,-280 322.5716,-269.4077 335.274,-258.5068 345.7024,-249.9768"/>
<polygon fill="#191970" stroke="#191970" points="347.9056,-252.6964 353.4942,-243.6954 343.5122,-247.2467 347.9056,-252.6964"/>
</g>
<!-- Node15 -->
<g id="node16" class="node">
<title>Node15</title>
<polygon fill="none" stroke="#bfbfbf" points="321,-280.5 321,-299.5 361,-299.5 361,-280.5 321,-280.5"/>
<text text-anchor="middle" x="341" y="-287.5" font-family="Helvetica,sans-Serif" font-size="10.00" fill="#000000">limits</text>
</g>
<!-- Node0&#45;&gt;Node15 -->
<g id="edge23" class="edge">
<title>Node0&#45;&gt;Node15</title>
<path fill="none" stroke="#191970" d="M270.8059,-336.2455C283.7256,-327.7337 302.6931,-315.2375 317.6552,-305.3801"/>
<polygon fill="#191970" stroke="#191970" points="319.9387,-308.067 326.3638,-299.6427 316.0876,-302.2216 319.9387,-308.067"/>
</g>
<!-- Node16 -->
<g id="node17" class="node">
<title>Node16</title>
<g id="a_node17"><a xlink:href="physical__constants_8hh.html" target="_top" xlink:title="physical_constants.hh">
<polygon fill="none" stroke="#000000" points="0,-112.5 0,-131.5 114,-131.5 114,-112.5 0,-112.5"/>
<text text-anchor="middle" x="57" y="-119.5" font-family="Helvetica,sans-Serif" font-size="10.00" fill="#000000">physical_constants.hh</text>
</a>
</g>
</g>
<!-- Node0&#45;&gt;Node16 -->
<g id="edge25" class="edge">
<title>Node0&#45;&gt;Node16</title>
<path fill="none" stroke="#191970" d="M216.0437,-336.4082C171.8458,-323.4973 102.4633,-295.9061 69,-244 48.9091,-212.8363 50.6059,-167.5863 53.7404,-141.8556"/>
<polygon fill="#191970" stroke="#191970" points="57.2243,-142.2157 55.1605,-131.8239 50.2934,-141.2346 57.2243,-142.2157"/>
</g>
<!-- Node2 -->
<g id="node3" class="node">
<title>Node2</title>
<polygon fill="none" stroke="#bfbfbf" points="162,-.5 162,-19.5 206,-19.5 206,-.5 162,-.5"/>
<text text-anchor="middle" x="184" y="-7.5" font-family="Helvetica,sans-Serif" font-size="10.00" fill="#000000">cmath</text>
</g>
<!-- Node1&#45;&gt;Node2 -->
<g id="edge2" class="edge">
<title>Node1&#45;&gt;Node2</title>
<path fill="none" stroke="#191970" d="M216.9336,-280.484C211.177,-262.499 198.479,-222.248 189,-188 182.1567,-163.2747 178.5886,-157.4027 175,-132 171.5164,-107.3401 173.4445,-100.9008 173,-76 172.8413,-67.1125 171.9592,-64.8277 173,-56 174.0429,-47.1546 176.1768,-37.5467 178.29,-29.4104"/>
<polygon fill="#191970" stroke="#191970" points="181.6694,-30.3213 180.9625,-19.7501 174.9228,-28.4548 181.6694,-30.3213"/>
</g>
<!-- Node3 -->
<g id="node4" class="node">
<title>Node3</title>
<polygon fill="none" stroke="#bfbfbf" points="78,-224.5 78,-243.5 122,-243.5 122,-224.5 78,-224.5"/>
<text text-anchor="middle" x="100" y="-231.5" font-family="Helvetica,sans-Serif" font-size="10.00" fill="#000000">vector</text>
</g>
<!-- Node1&#45;&gt;Node3 -->
<g id="edge3" class="edge">
<title>Node1&#45;&gt;Node3</title>
<path fill="none" stroke="#191970" d="M199.3713,-280.3733C180.1081,-271.3838 151.1514,-257.8706 129.4581,-247.7471"/>
<polygon fill="#191970" stroke="#191970" points="130.9015,-244.5584 120.3595,-243.5011 127.9413,-250.9017 130.9015,-244.5584"/>
</g>
<!-- Node4 -->
<g id="node5" class="node">
<title>Node4</title>
<g id="a_node5"><a xlink:href="domain_8hh.html" target="_top" xlink:title="domain.hh">
<polygon fill="none" stroke="#000000" points="259,-224.5 259,-243.5 321,-243.5 321,-224.5 259,-224.5"/>
<text text-anchor="middle" x="290" y="-231.5" font-family="Helvetica,sans-Serif" font-size="10.00" fill="#000000">domain.hh</text>
</a>
</g>
</g>
<!-- Node1&#45;&gt;Node4 -->
<g id="edge4" class="edge">
<title>Node1&#45;&gt;Node4</title>
<path fill="none" stroke="#191970" d="M232.1931,-280.2455C242.6321,-271.8943 257.8655,-259.7076 270.074,-249.9408"/>
<polygon fill="#191970" stroke="#191970" points="272.3244,-252.6227 277.9467,-243.6427 267.9515,-247.1566 272.3244,-252.6227"/>
</g>
<!-- Node1&#45;&gt;Node14 -->
<g id="edge21" class="edge">
<title>Node1&#45;&gt;Node14</title>
<path fill="none" stroke="#191970" d="M245.0983,-280.3733C268.9555,-271.2226 305.0335,-257.3844 331.571,-247.2057"/>
<polygon fill="#191970" stroke="#191970" points="333.1459,-250.3503 341.2292,-243.5011 330.639,-243.8145 333.1459,-250.3503"/>
</g>
<!-- Node4&#45;&gt;Node2 -->
<g id="edge5" class="edge">
<title>Node4&#45;&gt;Node2</title>
<path fill="none" stroke="#191970" d="M258.7344,-225.6836C239.4222,-218.8445 215.9357,-207.0966 203,-188 169.8152,-139.0099 175.4818,-64.433 180.5657,-29.4265"/>
<polygon fill="#191970" stroke="#191970" points="184.0246,-29.9607 182.1458,-19.5338 177.1123,-28.8565 184.0246,-29.9607"/>
</g>
<!-- Node5 -->
<g id="node6" class="node">
<title>Node5</title>
<polygon fill="none" stroke="#bfbfbf" points="212,-168.5 212,-187.5 262,-187.5 262,-168.5 212,-168.5"/>
<text text-anchor="middle" x="237" y="-175.5" font-family="Helvetica,sans-Serif" font-size="10.00" fill="#000000">iomanip</text>
</g>
<!-- Node4&#45;&gt;Node5 -->
<g id="edge6" class="edge">
<title>Node4&#45;&gt;Node5</title>
<path fill="none" stroke="#191970" d="M280.7681,-224.2455C273.1683,-216.2155 262.2123,-204.6394 253.1632,-195.0781"/>
<polygon fill="#191970" stroke="#191970" points="255.542,-192.4998 246.1261,-187.6427 250.4579,-197.3115 255.542,-192.4998"/>
</g>
<!-- Node6 -->
<g id="node7" class="node">
<title>Node6</title>
<polygon fill="none" stroke="#bfbfbf" points="252.5,-112.5 252.5,-131.5 301.5,-131.5 301.5,-112.5 252.5,-112.5"/>
<text text-anchor="middle" x="277" y="-119.5" font-family="Helvetica,sans-Serif" font-size="10.00" fill="#000000">istream</text>
</g>
<!-- Node4&#45;&gt;Node6 -->
<g id="edge7" class="edge">
<title>Node4&#45;&gt;Node6</title>
<path fill="none" stroke="#191970" d="M288.8916,-224.4509C286.7714,-206.184 282.102,-165.9553 279.2863,-141.6976"/>
<polygon fill="#191970" stroke="#191970" points="282.7353,-141.0546 278.1056,-131.5249 275.782,-141.8618 282.7353,-141.0546"/>
</g>
<!-- Node7 -->
<g id="node8" class="node">
<title>Node7</title>
<polygon fill="none" stroke="#bfbfbf" points="318,-168.5 318,-187.5 370,-187.5 370,-168.5 318,-168.5"/>
<text text-anchor="middle" x="344" y="-175.5" font-family="Helvetica,sans-Serif" font-size="10.00" fill="#000000">ostream</text>
</g>
<!-- Node4&#45;&gt;Node7 -->
<g id="edge8" class="edge">
<title>Node4&#45;&gt;Node7</title>
<path fill="none" stroke="#191970" d="M299.4061,-224.2455C307.1493,-216.2155 318.312,-204.6394 327.5318,-195.0781"/>
<polygon fill="#191970" stroke="#191970" points="330.2798,-197.2706 334.7017,-187.6427 325.2409,-192.4117 330.2798,-197.2706"/>
</g>
<!-- Node8 -->
<g id="node9" class="node">
<title>Node8</title>
<polygon fill="none" stroke="#bfbfbf" points="478.5,-.5 478.5,-19.5 545.5,-19.5 545.5,-.5 478.5,-.5"/>
<text text-anchor="middle" x="512" y="-7.5" font-family="Helvetica,sans-Serif" font-size="10.00" fill="#000000">blitz/array.h</text>
</g>
<!-- Node4&#45;&gt;Node8 -->
<g id="edge9" class="edge">
<title>Node4&#45;&gt;Node8</title>
<path fill="none" stroke="#191970" d="M321.121,-225.951C369.6608,-213.352 458.1782,-190.1775 461,-188 510.1264,-150.0913 514.1639,-68.1476 513.1779,-30.1295"/>
<polygon fill="#191970" stroke="#191970" points="516.6627,-29.6862 512.7549,-19.8384 509.6686,-29.9737 516.6627,-29.6862"/>
</g>
<!-- Node9 -->
<g id="node10" class="node">
<title>Node9</title>
<g id="a_node10"><a xlink:href="grid_8hh.html" target="_top" xlink:title="grid.hh">
<polygon fill="none" stroke="#000000" points="388,-168.5 388,-187.5 434,-187.5 434,-168.5 388,-168.5"/>
<text text-anchor="middle" x="411" y="-175.5" font-family="Helvetica,sans-Serif" font-size="10.00" fill="#000000">grid.hh</text>
</a>
</g>
</g>
<!-- Node4&#45;&gt;Node9 -->
<g id="edge10" class="edge">
<title>Node4&#45;&gt;Node9</title>
<path fill="none" stroke="#191970" d="M310.8006,-224.3733C330.2243,-215.3838 359.4224,-201.8706 381.2964,-191.7471"/>
<polygon fill="#191970" stroke="#191970" points="382.8656,-194.8776 390.4708,-187.5011 379.9255,-188.5249 382.8656,-194.8776"/>
</g>
<!-- Node12 -->
<g id="node13" class="node">
<title>Node12</title>
<g id="a_node13"><a xlink:href="validators_8hh.html" target="_top" xlink:title="validators.hh">
<polygon fill="none" stroke="#000000" points="412,-112.5 412,-131.5 484,-131.5 484,-112.5 412,-112.5"/>
<text text-anchor="middle" x="448" y="-119.5" font-family="Helvetica,sans-Serif" font-size="10.00" fill="#000000">validators.hh</text>
</a>
</g>
</g>
<!-- Node4&#45;&gt;Node12 -->
<g id="edge20" class="edge">
<title>Node4&#45;&gt;Node12</title>
<path fill="none" stroke="#191970" d="M321.0506,-225.6296C364.6253,-213.745 439.0787,-192.8773 443,-188 453.2267,-175.2803 453.6447,-156.3589 451.99,-142.0326"/>
<polygon fill="#191970" stroke="#191970" points="455.3812,-141.0676 450.3665,-131.7347 448.4666,-142.1578 455.3812,-141.0676"/>
</g>
<!-- Node9&#45;&gt;Node2 -->
<g id="edge11" class="edge">
<title>Node9&#45;&gt;Node2</title>
<path fill="none" stroke="#191970" d="M398.1451,-168.4862C360.6978,-140.772 251.4292,-59.9036 205.127,-25.6358"/>
<polygon fill="#191970" stroke="#191970" points="207.1155,-22.7532 196.9953,-19.6177 202.9513,-28.3799 207.1155,-22.7532"/>
</g>
<!-- Node9&#45;&gt;Node6 -->
<g id="edge12" class="edge">
<title>Node9&#45;&gt;Node6</title>
<path fill="none" stroke="#191970" d="M387.9646,-168.3733C366.2612,-159.3032 333.5382,-145.6279 309.245,-135.4755"/>
<polygon fill="#191970" stroke="#191970" points="310.3111,-132.1278 299.7348,-131.5011 307.6119,-138.5865 310.3111,-132.1278"/>
</g>
<!-- Node10 -->
<g id="node11" class="node">
<title>Node10</title>
<g id="a_node11"><a xlink:href="blitz_8hh.html" target="_top" xlink:title="blitz.hh">
<polygon fill="none" stroke="#000000" points="358,-56.5 358,-75.5 406,-75.5 406,-56.5 358,-56.5"/>
<text text-anchor="middle" x="382" y="-63.5" font-family="Helvetica,sans-Serif" font-size="10.00" fill="#000000">blitz.hh</text>
</a>
</g>
</g>
<!-- Node9&#45;&gt;Node10 -->
<g id="edge13" class="edge">
<title>Node9&#45;&gt;Node10</title>
<path fill="none" stroke="#191970" d="M408.5275,-168.4509C403.7762,-150.1013 393.2869,-109.5908 387.0153,-85.3693"/>
<polygon fill="#191970" stroke="#191970" points="390.3612,-84.3283 384.4663,-75.5249 383.5847,-86.083 390.3612,-84.3283"/>
</g>
<!-- Node9&#45;&gt;Node12 -->
<g id="edge17" class="edge">
<title>Node9&#45;&gt;Node12</title>
<path fill="none" stroke="#191970" d="M417.4449,-168.2455C422.5382,-160.5367 429.7908,-149.5598 435.952,-140.2348"/>
<polygon fill="#191970" stroke="#191970" points="439.0365,-141.9155 441.6289,-131.6427 433.1962,-138.0566 439.0365,-141.9155"/>
</g>
<!-- Node10&#45;&gt;Node2 -->
<g id="edge16" class="edge">
<title>Node10&#45;&gt;Node2</title>
<path fill="none" stroke="#191970" d="M357.7213,-59.1333C322.0029,-49.0311 255.2599,-30.1543 215.7124,-18.9692"/>
<polygon fill="#191970" stroke="#191970" points="216.6164,-15.5876 206.0413,-16.2339 214.7113,-22.3234 216.6164,-15.5876"/>
</g>
<!-- Node10&#45;&gt;Node8 -->
<g id="edge15" class="edge">
<title>Node10&#45;&gt;Node8</title>
<path fill="none" stroke="#191970" d="M404.3478,-56.3733C425.4033,-47.3032 457.1495,-33.6279 480.7175,-23.4755"/>
<polygon fill="#191970" stroke="#191970" points="482.1444,-26.6719 489.9438,-19.5011 479.375,-20.243 482.1444,-26.6719"/>
</g>
<!-- Node11 -->
<g id="node12" class="node">
<title>Node11</title>
<polygon fill="none" stroke="#bfbfbf" points="354,-.5 354,-19.5 410,-19.5 410,-.5 354,-.5"/>
<text text-anchor="middle" x="382" y="-7.5" font-family="Helvetica,sans-Serif" font-size="10.00" fill="#000000">algorithm</text>
</g>
<!-- Node10&#45;&gt;Node11 -->
<g id="edge14" class="edge">
<title>Node10&#45;&gt;Node11</title>
<path fill="none" stroke="#191970" d="M382,-56.2455C382,-48.9382 382,-38.6944 382,-29.7046"/>
<polygon fill="#191970" stroke="#191970" points="385.5001,-29.6426 382,-19.6427 378.5001,-29.6427 385.5001,-29.6426"/>
</g>
<!-- Node12&#45;&gt;Node10 -->
<g id="edge19" class="edge">
<title>Node12&#45;&gt;Node10</title>
<path fill="none" stroke="#191970" d="M436.5037,-112.2455C426.7558,-103.9746 412.5741,-91.9416 401.1202,-82.2232"/>
<polygon fill="#191970" stroke="#191970" points="403.2541,-79.4437 393.3646,-75.6427 398.7253,-84.7813 403.2541,-79.4437"/>
</g>
<!-- Node13 -->
<g id="node14" class="node">
<title>Node13</title>
<polygon fill="none" stroke="#bfbfbf" points="424.5,-56.5 424.5,-75.5 483.5,-75.5 483.5,-56.5 424.5,-56.5"/>
<text text-anchor="middle" x="454" y="-63.5" font-family="Helvetica,sans-Serif" font-size="10.00" fill="#000000">stdexcept</text>
</g>
<!-- Node12&#45;&gt;Node13 -->
<g id="edge18" class="edge">
<title>Node12&#45;&gt;Node13</title>
<path fill="none" stroke="#191970" d="M449.0451,-112.2455C449.828,-104.9382 450.9256,-94.6944 451.8888,-85.7046"/>
<polygon fill="#191970" stroke="#191970" points="455.3815,-85.9587 452.9669,-75.6427 448.4214,-85.2129 455.3815,-85.9587"/>
</g>
<!-- Node14&#45;&gt;Node8 -->
<g id="edge22" class="edge">
<title>Node14&#45;&gt;Node8</title>
<path fill="none" stroke="#191970" d="M393.0538,-230.1715C434.3464,-223.7122 510.0047,-209.2419 526,-188 561.8094,-140.4448 536.0142,-64.0686 520.8901,-28.8743"/>
<polygon fill="#191970" stroke="#191970" points="524.0737,-27.4198 516.7928,-19.7231 517.6849,-30.2803 524.0737,-27.4198"/>
</g>
<!-- Node16&#45;&gt;Node2 -->
<g id="edge26" class="edge">
<title>Node16&#45;&gt;Node2</title>
<path fill="none" stroke="#191970" d="M67.8279,-112.4509C89.5724,-93.2747 138.7605,-49.8962 165.6317,-26.1988"/>
<polygon fill="#191970" stroke="#191970" points="168.0143,-28.7642 173.1995,-19.5249 163.3843,-23.5141 168.0143,-28.7642"/>
</g>
</g>
</svg>
