<?xml version="1.0" encoding="UTF-8" standalone="no"?>
<!DOCTYPE svg PUBLIC "-//W3C//DTD SVG 1.1//EN"
 "http://www.w3.org/Graphics/SVG/1.1/DTD/svg11.dtd">
<!-- Generated by graphviz version 2.36.0 (20140111.2315)
 -->
<!-- Title: /home/travis/build/igankevich/arma/src/factor_waves.hh Pages: 1 -->
<svg width="474pt" height="274pt"
 viewBox="0.00 0.00 474.00 274.00" xmlns="http://www.w3.org/2000/svg" xmlns:xlink="http://www.w3.org/1999/xlink">
<g id="graph0" class="graph" transform="scale(1 1) rotate(0) translate(4 270)">
<title>/home/travis/build/igankevich/arma/src/factor_waves.hh</title>
<!-- Node1 -->
<g id="node1" class="node"><title>Node1</title>
<polygon fill="#bfbfbf" stroke="black" points="294.5,-224.5 294.5,-265.5 401.5,-265.5 401.5,-224.5 294.5,-224.5"/>
<text text-anchor="start" x="302.5" y="-253.5" font-family="Helvetica,sans-Serif" font-size="10.00">/home/travis/build</text>
<text text-anchor="start" x="302.5" y="-242.5" font-family="Helvetica,sans-Serif" font-size="10.00">/igankevich/arma/src</text>
<text text-anchor="middle" x="348" y="-231.5" font-family="Helvetica,sans-Serif" font-size="10.00">/factor_waves.hh</text>
</g>
<!-- Node2 -->
<g id="node2" class="node"><title>Node2</title>
<polygon fill="none" stroke="#bfbfbf" points="0,-0.5 0,-19.5 44,-19.5 44,-0.5 0,-0.5"/>
<text text-anchor="middle" x="22" y="-7.5" font-family="Helvetica,sans-Serif" font-size="10.00">cmath</text>
</g>
<!-- Node1&#45;&gt;Node2 -->
<g id="edge1" class="edge"><title>Node1&#45;&gt;Node2</title>
<path fill="none" stroke="midnightblue" d="M294.488,-240.519C224.719,-232.929 104.164,-208.786 41,-132 16.9946,-102.817 17.1609,-55.8455 19.5082,-29.8429"/>
<polygon fill="midnightblue" stroke="midnightblue" points="22.998,-30.1274 20.6222,-19.8024 16.0407,-29.3554 22.998,-30.1274"/>
</g>
<!-- Node3 -->
<g id="node3" class="node"><title>Node3</title>
<polygon fill="none" stroke="#bfbfbf" points="422,-168.5 422,-187.5 466,-187.5 466,-168.5 422,-168.5"/>
<text text-anchor="middle" x="444" y="-175.5" font-family="Helvetica,sans-Serif" font-size="10.00">vector</text>
</g>
<!-- Node1&#45;&gt;Node3 -->
<g id="edge2" class="edge"><title>Node1&#45;&gt;Node3</title>
<path fill="none" stroke="midnightblue" d="M376.803,-224.498C391.522,-214.532 409.124,-202.614 422.62,-193.476"/>
<polygon fill="midnightblue" stroke="midnightblue" points="424.903,-196.157 431.221,-187.652 420.978,-190.361 424.903,-196.157"/>
</g>
<!-- Node4 -->
<g id="node4" class="node"><title>Node4</title>
<g id="a_node4"><a xlink:href="domain_8hh.html" target="_top" xlink:title="domain.hh">
<polygon fill="none" stroke="black" points="237,-168.5 237,-187.5 299,-187.5 299,-168.5 237,-168.5"/>
<text text-anchor="middle" x="268" y="-175.5" font-family="Helvetica,sans-Serif" font-size="10.00">domain.hh</text>
</a>
</g>
</g>
<!-- Node1&#45;&gt;Node4 -->
<g id="edge3" class="edge"><title>Node1&#45;&gt;Node4</title>
<path fill="none" stroke="midnightblue" d="M323.997,-224.498C311.968,-214.724 297.627,-203.072 286.47,-194.007"/>
<polygon fill="midnightblue" stroke="midnightblue" points="288.617,-191.242 278.649,-187.652 284.203,-196.675 288.617,-191.242"/>
</g>
<!-- Node13 -->
<g id="node13" class="node"><title>Node13</title>
<g id="a_node13"><a xlink:href="types_8hh.html" target="_top" xlink:title="types.hh">
<polygon fill="none" stroke="black" points="384,-56.5 384,-75.5 438,-75.5 438,-56.5 384,-56.5"/>
<text text-anchor="middle" x="411" y="-63.5" font-family="Helvetica,sans-Serif" font-size="10.00">types.hh</text>
</a>
</g>
</g>
<!-- Node1&#45;&gt;Node13 -->
<g id="edge14" class="edge"><title>Node1&#45;&gt;Node13</title>
<path fill="none" stroke="midnightblue" d="M354.983,-224.382C367.298,-189.783 392.696,-118.425 404.591,-85.0063"/>
<polygon fill="midnightblue" stroke="midnightblue" points="407.889,-86.1785 407.945,-75.5838 401.294,-83.8312 407.889,-86.1785"/>
</g>
<!-- Node5 -->
<g id="node5" class="node"><title>Node5</title>
<polygon fill="none" stroke="#bfbfbf" points="140.5,-112.5 140.5,-131.5 189.5,-131.5 189.5,-112.5 140.5,-112.5"/>
<text text-anchor="middle" x="165" y="-119.5" font-family="Helvetica,sans-Serif" font-size="10.00">istream</text>
</g>
<!-- Node4&#45;&gt;Node5 -->
<g id="edge4" class="edge"><title>Node4&#45;&gt;Node5</title>
<path fill="none" stroke="midnightblue" d="M251.451,-168.324C235.008,-159.703 209.565,-146.364 190.532,-136.386"/>
<polygon fill="midnightblue" stroke="midnightblue" points="191.989,-133.198 181.508,-131.655 188.739,-139.398 191.989,-133.198"/>
</g>
<!-- Node6 -->
<g id="node6" class="node"><title>Node6</title>
<polygon fill="none" stroke="#bfbfbf" points="208,-112.5 208,-131.5 260,-131.5 260,-112.5 208,-112.5"/>
<text text-anchor="middle" x="234" y="-119.5" font-family="Helvetica,sans-Serif" font-size="10.00">ostream</text>
</g>
<!-- Node4&#45;&gt;Node6 -->
<g id="edge5" class="edge"><title>Node4&#45;&gt;Node6</title>
<path fill="none" stroke="midnightblue" d="M262.386,-168.083C257.633,-160.534 250.682,-149.495 244.848,-140.23"/>
<polygon fill="midnightblue" stroke="midnightblue" points="247.8,-138.349 239.51,-131.751 241.876,-142.078 247.8,-138.349"/>
</g>
<!-- Node7 -->
<g id="node7" class="node"><title>Node7</title>
<polygon fill="none" stroke="#bfbfbf" points="278,-112.5 278,-131.5 328,-131.5 328,-112.5 278,-112.5"/>
<text text-anchor="middle" x="303" y="-119.5" font-family="Helvetica,sans-Serif" font-size="10.00">iomanip</text>
</g>
<!-- Node4&#45;&gt;Node7 -->
<g id="edge6" class="edge"><title>Node4&#45;&gt;Node7</title>
<path fill="none" stroke="midnightblue" d="M273.78,-168.083C278.672,-160.534 285.827,-149.495 291.833,-140.23"/>
<polygon fill="midnightblue" stroke="midnightblue" points="294.826,-142.046 297.328,-131.751 288.952,-138.239 294.826,-142.046"/>
</g>
<!-- Node8 -->
<g id="node8" class="node"><title>Node8</title>
<polygon fill="none" stroke="#bfbfbf" points="322,-0.5 322,-19.5 390,-19.5 390,-0.5 322,-0.5"/>
<text text-anchor="middle" x="356" y="-7.5" font-family="Helvetica,sans-Serif" font-size="10.00">blitz/array.h</text>
</g>
<!-- Node4&#45;&gt;Node8 -->
<g id="edge7" class="edge"><title>Node4&#45;&gt;Node8</title>
<path fill="none" stroke="midnightblue" d="M289.969,-168.473C305.662,-161.199 325.889,-149.17 337,-132 357.336,-100.572 358.689,-55.1505 357.549,-29.8418"/>
<polygon fill="midnightblue" stroke="midnightblue" points="361.035,-29.5099 356.91,-19.7514 354.049,-29.9528 361.035,-29.5099"/>
</g>
<!-- Node9 -->
<g id="node9" class="node"><title>Node9</title>
<g id="a_node9"><a xlink:href="validators_8hh.html" target="_top" xlink:title="validators.hh">
<polygon fill="none" stroke="black" points="50,-112.5 50,-131.5 122,-131.5 122,-112.5 50,-112.5"/>
<text text-anchor="middle" x="86" y="-119.5" font-family="Helvetica,sans-Serif" font-size="10.00">validators.hh</text>
</a>
</g>
</g>
<!-- Node4&#45;&gt;Node9 -->
<g id="edge8" class="edge"><title>Node4&#45;&gt;Node9</title>
<path fill="none" stroke="midnightblue" d="M239.162,-168.444C208.144,-159.241 158.671,-144.562 124.382,-134.388"/>
<polygon fill="midnightblue" stroke="midnightblue" points="125.286,-131.006 114.704,-131.516 123.295,-137.716 125.286,-131.006"/>
</g>
<!-- Node10 -->
<g id="node10" class="node"><title>Node10</title>
<polygon fill="none" stroke="#bfbfbf" points="128.5,-56.5 128.5,-75.5 187.5,-75.5 187.5,-56.5 128.5,-56.5"/>
<text text-anchor="middle" x="158" y="-63.5" font-family="Helvetica,sans-Serif" font-size="10.00">stdexcept</text>
</g>
<!-- Node9&#45;&gt;Node10 -->
<g id="edge9" class="edge"><title>Node9&#45;&gt;Node10</title>
<path fill="none" stroke="midnightblue" d="M97.568,-112.324C108.42,-104.185 124.881,-91.8395 137.883,-82.0874"/>
<polygon fill="midnightblue" stroke="midnightblue" points="140.321,-84.6339 146.221,-75.8339 136.121,-79.0339 140.321,-84.6339"/>
</g>
<!-- Node11 -->
<g id="node11" class="node"><title>Node11</title>
<g id="a_node11"><a xlink:href="blitz_8hh.html" target="_top" xlink:title="blitz.hh">
<polygon fill="none" stroke="black" points="62,-56.5 62,-75.5 110,-75.5 110,-56.5 62,-56.5"/>
<text text-anchor="middle" x="86" y="-63.5" font-family="Helvetica,sans-Serif" font-size="10.00">blitz.hh</text>
</a>
</g>
</g>
<!-- Node9&#45;&gt;Node11 -->
<g id="edge10" class="edge"><title>Node9&#45;&gt;Node11</title>
<path fill="none" stroke="midnightblue" d="M86,-112.083C86,-105.006 86,-94.8611 86,-85.9865"/>
<polygon fill="midnightblue" stroke="midnightblue" points="89.5001,-85.751 86,-75.7511 82.5001,-85.7511 89.5001,-85.751"/>
</g>
<!-- Node11&#45;&gt;Node2 -->
<g id="edge13" class="edge"><title>Node11&#45;&gt;Node2</title>
<path fill="none" stroke="midnightblue" d="M75.7173,-56.324C66.1637,-48.2631 51.7203,-36.0765 40.2157,-26.3695"/>
<polygon fill="midnightblue" stroke="midnightblue" points="42.3698,-23.6076 32.4698,-19.8339 37.8557,-28.9577 42.3698,-23.6076"/>
</g>
<!-- Node11&#45;&gt;Node8 -->
<g id="edge12" class="edge"><title>Node11&#45;&gt;Node8</title>
<path fill="none" stroke="midnightblue" d="M110.095,-58.1936C113.085,-57.4185 116.107,-56.6681 119,-56 185.721,-40.5926 263.891,-26.5098 311.669,-18.3446"/>
<polygon fill="midnightblue" stroke="midnightblue" points="312.406,-21.7697 321.678,-16.6446 311.234,-14.8685 312.406,-21.7697"/>
</g>
<!-- Node12 -->
<g id="node12" class="node"><title>Node12</title>
<polygon fill="none" stroke="#bfbfbf" points="62,-0.5 62,-19.5 118,-19.5 118,-0.5 62,-0.5"/>
<text text-anchor="middle" x="90" y="-7.5" font-family="Helvetica,sans-Serif" font-size="10.00">algorithm</text>
</g>
<!-- Node11&#45;&gt;Node12 -->
<g id="edge11" class="edge"><title>Node11&#45;&gt;Node12</title>
<path fill="none" stroke="midnightblue" d="M86.6605,-56.083C87.1848,-49.0059 87.9362,-38.8611 88.5936,-29.9865"/>
<polygon fill="midnightblue" stroke="midnightblue" points="92.1034,-29.9823 89.3518,-19.7511 85.1225,-29.4652 92.1034,-29.9823"/>
</g>
<!-- Node13&#45;&gt;Node8 -->
<g id="edge15" class="edge"><title>Node13&#45;&gt;Node8</title>
<path fill="none" stroke="midnightblue" d="M401.918,-56.083C393.829,-48.1409 381.805,-36.3354 372.09,-26.7973"/>
<polygon fill="midnightblue" stroke="midnightblue" points="374.501,-24.2595 364.913,-19.7511 369.597,-29.2545 374.501,-24.2595"/>
</g>
</g>
</svg>
