<?xml version="1.0" encoding="UTF-8" standalone="no"?>
<!DOCTYPE svg PUBLIC "-//W3C//DTD SVG 1.1//EN"
 "http://www.w3.org/Graphics/SVG/1.1/DTD/svg11.dtd">
<!-- Generated by graphviz version 2.40.1 (20161225.0304)
 -->
<!-- Title: src/factor_waves.cc Pages: 1 -->
<svg width="545pt" height="308pt"
 viewBox="0.00 0.00 545.47 308.00" xmlns="http://www.w3.org/2000/svg" xmlns:xlink="http://www.w3.org/1999/xlink">
<g id="graph0" class="graph" transform="scale(1 1) rotate(0) translate(4 304)">
<title>src/factor_waves.cc</title>
<!-- Node0 -->
<g id="node1" class="node">
<title>Node0</title>
<polygon fill="#bfbfbf" stroke="#000000" points="248.9723,-280.5 248.9723,-299.5 353.9723,-299.5 353.9723,-280.5 248.9723,-280.5"/>
<text text-anchor="middle" x="301.4723" y="-287.5" font-family="Helvetica,sans-Serif" font-size="10.00" fill="#000000">src/factor_waves.cc</text>
</g>
<!-- Node1 -->
<g id="node2" class="node">
<title>Node1</title>
<g id="a_node2"><a xlink:href="factor__waves_8hh.html" target="_top" xlink:title="factor_waves.hh">
<polygon fill="none" stroke="#000000" points="215.9723,-224.5 215.9723,-243.5 304.9723,-243.5 304.9723,-224.5 215.9723,-224.5"/>
<text text-anchor="middle" x="260.4723" y="-231.5" font-family="Helvetica,sans-Serif" font-size="10.00" fill="#000000">factor_waves.hh</text>
</a>
</g>
</g>
<!-- Node0&#45;&gt;Node1 -->
<g id="edge1" class="edge">
<title>Node0&#45;&gt;Node1</title>
<path fill="none" stroke="#191970" d="M294.3306,-280.2455C288.6279,-272.4564 280.4823,-261.3308 273.6098,-251.9439"/>
<polygon fill="#191970" stroke="#191970" points="276.2635,-249.6437 267.5321,-243.6427 270.6155,-253.7789 276.2635,-249.6437"/>
</g>
<!-- Node13 -->
<g id="node14" class="node">
<title>Node13</title>
<g id="a_node14"><a xlink:href="types_8hh.html" target="_top" xlink:title="types.hh">
<polygon fill="none" stroke="#000000" points="122.4723,-168.5 122.4723,-187.5 176.4723,-187.5 176.4723,-168.5 122.4723,-168.5"/>
<text text-anchor="middle" x="149.4723" y="-175.5" font-family="Helvetica,sans-Serif" font-size="10.00" fill="#000000">types.hh</text>
</a>
</g>
</g>
<!-- Node0&#45;&gt;Node13 -->
<g id="edge19" class="edge">
<title>Node0&#45;&gt;Node13</title>
<path fill="none" stroke="#191970" d="M274.4337,-280.3512C254.4653,-272.4396 227.2587,-259.9562 206.4723,-244 188.7393,-230.3877 172.4998,-210.5213 161.9303,-196.1439"/>
<polygon fill="#191970" stroke="#191970" points="164.5003,-193.7194 155.8448,-187.6094 158.8008,-197.7835 164.5003,-193.7194"/>
</g>
<!-- Node14 -->
<g id="node15" class="node">
<title>Node14</title>
<polygon fill="none" stroke="#bfbfbf" points="323.4723,-224.5 323.4723,-243.5 363.4723,-243.5 363.4723,-224.5 323.4723,-224.5"/>
<text text-anchor="middle" x="343.4723" y="-231.5" font-family="Helvetica,sans-Serif" font-size="10.00" fill="#000000">limits</text>
</g>
<!-- Node0&#45;&gt;Node14 -->
<g id="edge18" class="edge">
<title>Node0&#45;&gt;Node14</title>
<path fill="none" stroke="#191970" d="M308.7881,-280.2455C314.6902,-272.3761 323.1465,-261.101 330.2316,-251.6542"/>
<polygon fill="#191970" stroke="#191970" points="333.0402,-253.7427 336.2403,-243.6427 327.4402,-249.5427 333.0402,-253.7427"/>
</g>
<!-- Node15 -->
<g id="node16" class="node">
<title>Node15</title>
<g id="a_node16"><a xlink:href="physical__constants_8hh.html" target="_top" xlink:title="physical_constants.hh">
<polygon fill="none" stroke="#000000" points="423.4723,-56.5 423.4723,-75.5 537.4723,-75.5 537.4723,-56.5 423.4723,-56.5"/>
<text text-anchor="middle" x="480.4723" y="-63.5" font-family="Helvetica,sans-Serif" font-size="10.00" fill="#000000">physical_constants.hh</text>
</a>
</g>
</g>
<!-- Node0&#45;&gt;Node15 -->
<g id="edge20" class="edge">
<title>Node0&#45;&gt;Node15</title>
<path fill="none" stroke="#191970" d="M321.2596,-280.3413C336.5423,-272.1833 357.5349,-259.385 372.4723,-244 420.3912,-194.6449 456.7503,-120.299 472.2542,-85.3955"/>
<polygon fill="#191970" stroke="#191970" points="475.605,-86.467 476.386,-75.901 469.1864,-83.6738 475.605,-86.467"/>
</g>
<!-- Node2 -->
<g id="node3" class="node">
<title>Node2</title>
<polygon fill="none" stroke="#bfbfbf" points="358.4723,-.5 358.4723,-19.5 402.4723,-19.5 402.4723,-.5 358.4723,-.5"/>
<text text-anchor="middle" x="380.4723" y="-7.5" font-family="Helvetica,sans-Serif" font-size="10.00" fill="#000000">cmath</text>
</g>
<!-- Node1&#45;&gt;Node2 -->
<g id="edge2" class="edge">
<title>Node1&#45;&gt;Node2</title>
<path fill="none" stroke="#191970" d="M278.5778,-224.4986C293.0583,-216.2565 313.2256,-203.2675 327.4723,-188 365.1739,-147.5968 371.6123,-130.3747 381.4723,-76 384.224,-60.8253 383.8062,-43.3656 382.7909,-30.217"/>
<polygon fill="#191970" stroke="#191970" points="386.2441,-29.5598 381.8094,-19.9378 379.2758,-30.2252 386.2441,-29.5598"/>
</g>
<!-- Node3 -->
<g id="node4" class="node">
<title>Node3</title>
<polygon fill="none" stroke="#bfbfbf" points="274.4723,-168.5 274.4723,-187.5 318.4723,-187.5 318.4723,-168.5 274.4723,-168.5"/>
<text text-anchor="middle" x="296.4723" y="-175.5" font-family="Helvetica,sans-Serif" font-size="10.00" fill="#000000">vector</text>
</g>
<!-- Node1&#45;&gt;Node3 -->
<g id="edge3" class="edge">
<title>Node1&#45;&gt;Node3</title>
<path fill="none" stroke="#191970" d="M266.743,-224.2455C271.6987,-216.5367 278.7553,-205.5598 284.7499,-196.2348"/>
<polygon fill="#191970" stroke="#191970" points="287.8099,-197.9471 290.2734,-187.6427 281.9217,-194.1618 287.8099,-197.9471"/>
</g>
<!-- Node4 -->
<g id="node5" class="node">
<title>Node4</title>
<g id="a_node5"><a xlink:href="domain_8hh.html" target="_top" xlink:title="domain.hh">
<polygon fill="none" stroke="#000000" points="194.4723,-168.5 194.4723,-187.5 256.4723,-187.5 256.4723,-168.5 194.4723,-168.5"/>
<text text-anchor="middle" x="225.4723" y="-175.5" font-family="Helvetica,sans-Serif" font-size="10.00" fill="#000000">domain.hh</text>
</a>
</g>
</g>
<!-- Node1&#45;&gt;Node4 -->
<g id="edge4" class="edge">
<title>Node1&#45;&gt;Node4</title>
<path fill="none" stroke="#191970" d="M254.3757,-224.2455C249.5577,-216.5367 242.6972,-205.5598 236.869,-196.2348"/>
<polygon fill="#191970" stroke="#191970" points="239.767,-194.2677 231.4989,-187.6427 233.831,-197.9777 239.767,-194.2677"/>
</g>
<!-- Node1&#45;&gt;Node13 -->
<g id="edge16" class="edge">
<title>Node1&#45;&gt;Node13</title>
<path fill="none" stroke="#191970" d="M241.3907,-224.3733C223.7321,-215.4644 197.267,-202.1127 177.2625,-192.0203"/>
<polygon fill="#191970" stroke="#191970" points="178.8095,-188.8806 168.3049,-187.5011 175.6565,-195.1303 178.8095,-188.8806"/>
</g>
<!-- Node4&#45;&gt;Node2 -->
<g id="edge5" class="edge">
<title>Node4&#45;&gt;Node2</title>
<path fill="none" stroke="#191970" d="M256.5872,-168.5487C285.8533,-159.106 326.861,-144.2686 338.4723,-132 365.6878,-103.2438 375.3436,-56.0393 378.7138,-29.5689"/>
<polygon fill="#191970" stroke="#191970" points="382.195,-29.9301 379.8061,-19.6081 375.2368,-29.1669 382.195,-29.9301"/>
</g>
<!-- Node5 -->
<g id="node6" class="node">
<title>Node5</title>
<polygon fill="none" stroke="#bfbfbf" points="279.4723,-112.5 279.4723,-131.5 329.4723,-131.5 329.4723,-112.5 279.4723,-112.5"/>
<text text-anchor="middle" x="304.4723" y="-119.5" font-family="Helvetica,sans-Serif" font-size="10.00" fill="#000000">iomanip</text>
</g>
<!-- Node4&#45;&gt;Node5 -->
<g id="edge6" class="edge">
<title>Node4&#45;&gt;Node5</title>
<path fill="none" stroke="#191970" d="M239.233,-168.2455C251.1275,-159.814 268.5373,-147.4729 282.3808,-137.6598"/>
<polygon fill="#191970" stroke="#191970" points="284.7351,-140.2811 290.8692,-131.6427 280.6869,-134.5704 284.7351,-140.2811"/>
</g>
<!-- Node6 -->
<g id="node7" class="node">
<title>Node6</title>
<polygon fill="none" stroke="#bfbfbf" points="13.9723,-112.5 13.9723,-131.5 62.9723,-131.5 62.9723,-112.5 13.9723,-112.5"/>
<text text-anchor="middle" x="38.4723" y="-119.5" font-family="Helvetica,sans-Serif" font-size="10.00" fill="#000000">istream</text>
</g>
<!-- Node4&#45;&gt;Node6 -->
<g id="edge7" class="edge">
<title>Node4&#45;&gt;Node6</title>
<path fill="none" stroke="#191970" d="M194.1727,-168.6269C160.5783,-158.5665 107.3778,-142.6348 72.6953,-132.2486"/>
<polygon fill="#191970" stroke="#191970" points="73.5863,-128.8619 63.0026,-129.346 71.5781,-135.5677 73.5863,-128.8619"/>
</g>
<!-- Node7 -->
<g id="node8" class="node">
<title>Node7</title>
<polygon fill="none" stroke="#bfbfbf" points="81.4723,-112.5 81.4723,-131.5 133.4723,-131.5 133.4723,-112.5 81.4723,-112.5"/>
<text text-anchor="middle" x="107.4723" y="-119.5" font-family="Helvetica,sans-Serif" font-size="10.00" fill="#000000">ostream</text>
</g>
<!-- Node4&#45;&gt;Node7 -->
<g id="edge8" class="edge">
<title>Node4&#45;&gt;Node7</title>
<path fill="none" stroke="#191970" d="M205.1873,-168.3733C186.3302,-159.4241 158.0263,-145.9917 136.7268,-135.8835"/>
<polygon fill="#191970" stroke="#191970" points="138.0274,-132.6266 127.4925,-131.5011 135.0261,-138.9506 138.0274,-132.6266"/>
</g>
<!-- Node8 -->
<g id="node9" class="node">
<title>Node8</title>
<polygon fill="none" stroke="#bfbfbf" points="127.9723,-.5 127.9723,-19.5 194.9723,-19.5 194.9723,-.5 127.9723,-.5"/>
<text text-anchor="middle" x="161.4723" y="-7.5" font-family="Helvetica,sans-Serif" font-size="10.00" fill="#000000">blitz/array.h</text>
</g>
<!-- Node4&#45;&gt;Node8 -->
<g id="edge9" class="edge">
<title>Node4&#45;&gt;Node8</title>
<path fill="none" stroke="#191970" d="M212.1573,-168.2399C201.7617,-159.8476 187.8786,-146.783 180.4723,-132 163.9023,-98.9267 161.0382,-55.0044 160.9312,-29.8888"/>
<polygon fill="#191970" stroke="#191970" points="164.4321,-29.8152 161.0368,-19.7791 157.4325,-29.742 164.4321,-29.8152"/>
</g>
<!-- Node9 -->
<g id="node10" class="node">
<title>Node9</title>
<g id="a_node10"><a xlink:href="validators_8hh.html" target="_top" xlink:title="validators.hh">
<polygon fill="none" stroke="#000000" points="189.4723,-112.5 189.4723,-131.5 261.4723,-131.5 261.4723,-112.5 189.4723,-112.5"/>
<text text-anchor="middle" x="225.4723" y="-119.5" font-family="Helvetica,sans-Serif" font-size="10.00" fill="#000000">validators.hh</text>
</a>
</g>
</g>
<!-- Node4&#45;&gt;Node9 -->
<g id="edge10" class="edge">
<title>Node4&#45;&gt;Node9</title>
<path fill="none" stroke="#191970" d="M225.4723,-168.2455C225.4723,-160.9382 225.4723,-150.6944 225.4723,-141.7046"/>
<polygon fill="#191970" stroke="#191970" points="228.9724,-141.6426 225.4723,-131.6427 221.9724,-141.6427 228.9724,-141.6426"/>
</g>
<!-- Node10 -->
<g id="node11" class="node">
<title>Node10</title>
<polygon fill="none" stroke="#bfbfbf" points="192.9723,-56.5 192.9723,-75.5 251.9723,-75.5 251.9723,-56.5 192.9723,-56.5"/>
<text text-anchor="middle" x="222.4723" y="-63.5" font-family="Helvetica,sans-Serif" font-size="10.00" fill="#000000">stdexcept</text>
</g>
<!-- Node9&#45;&gt;Node10 -->
<g id="edge11" class="edge">
<title>Node9&#45;&gt;Node10</title>
<path fill="none" stroke="#191970" d="M224.9497,-112.2455C224.5582,-104.9382 224.0095,-94.6944 223.5279,-85.7046"/>
<polygon fill="#191970" stroke="#191970" points="227.0189,-85.4411 222.9888,-75.6427 220.0289,-85.8156 227.0189,-85.4411"/>
</g>
<!-- Node11 -->
<g id="node12" class="node">
<title>Node11</title>
<g id="a_node12"><a xlink:href="blitz_8hh.html" target="_top" xlink:title="blitz.hh">
<polygon fill="none" stroke="#000000" points="270.4723,-56.5 270.4723,-75.5 318.4723,-75.5 318.4723,-56.5 270.4723,-56.5"/>
<text text-anchor="middle" x="294.4723" y="-63.5" font-family="Helvetica,sans-Serif" font-size="10.00" fill="#000000">blitz.hh</text>
</a>
</g>
</g>
<!-- Node9&#45;&gt;Node11 -->
<g id="edge12" class="edge">
<title>Node9&#45;&gt;Node11</title>
<path fill="none" stroke="#191970" d="M237.4912,-112.2455C247.6821,-103.9746 262.5085,-91.9416 274.4829,-82.2232"/>
<polygon fill="#191970" stroke="#191970" points="277.0321,-84.662 282.5911,-75.6427 272.6209,-79.2268 277.0321,-84.662"/>
</g>
<!-- Node11&#45;&gt;Node2 -->
<g id="edge15" class="edge">
<title>Node11&#45;&gt;Node2</title>
<path fill="none" stroke="#191970" d="M309.4523,-56.2455C322.6474,-47.6534 342.0773,-35.0014 357.2802,-25.1018"/>
<polygon fill="#191970" stroke="#191970" points="359.1938,-28.0325 365.6639,-19.6427 355.374,-22.1665 359.1938,-28.0325"/>
</g>
<!-- Node11&#45;&gt;Node8 -->
<g id="edge14" class="edge">
<title>Node11&#45;&gt;Node8</title>
<path fill="none" stroke="#191970" d="M271.6088,-56.3733C250.0673,-47.3032 217.5885,-33.6279 193.4767,-23.4755"/>
<polygon fill="#191970" stroke="#191970" points="194.612,-20.156 184.0374,-19.5011 191.8956,-26.6075 194.612,-20.156"/>
</g>
<!-- Node12 -->
<g id="node13" class="node">
<title>Node12</title>
<polygon fill="none" stroke="#bfbfbf" points="266.4723,-.5 266.4723,-19.5 322.4723,-19.5 322.4723,-.5 266.4723,-.5"/>
<text text-anchor="middle" x="294.4723" y="-7.5" font-family="Helvetica,sans-Serif" font-size="10.00" fill="#000000">algorithm</text>
</g>
<!-- Node11&#45;&gt;Node12 -->
<g id="edge13" class="edge">
<title>Node11&#45;&gt;Node12</title>
<path fill="none" stroke="#191970" d="M294.4723,-56.2455C294.4723,-48.9382 294.4723,-38.6944 294.4723,-29.7046"/>
<polygon fill="#191970" stroke="#191970" points="297.9724,-29.6426 294.4723,-19.6427 290.9724,-29.6427 297.9724,-29.6426"/>
</g>
<!-- Node13&#45;&gt;Node8 -->
<g id="edge17" class="edge">
<title>Node13&#45;&gt;Node8</title>
<path fill="none" stroke="#191970" d="M122.4453,-176.4693C73.8589,-172.5325 -20.9286,-158.7933 4.4723,-112 29.1698,-66.5024 83.9047,-38.1366 121.7427,-23.1961"/>
<polygon fill="#191970" stroke="#191970" points="123.3426,-26.3325 131.4483,-19.5098 120.8571,-19.7886 123.3426,-26.3325"/>
</g>
<!-- Node15&#45;&gt;Node2 -->
<g id="edge21" class="edge">
<title>Node15&#45;&gt;Node2</title>
<path fill="none" stroke="#191970" d="M463.0536,-56.2455C447.4237,-47.4928 424.2704,-34.527 406.4537,-24.5496"/>
<polygon fill="#191970" stroke="#191970" points="408.1265,-21.475 397.6913,-19.6427 404.7063,-27.5825 408.1265,-21.475"/>
</g>
</g>
</svg>
