<?xml version="1.0" encoding="UTF-8" standalone="no"?>
<!DOCTYPE svg PUBLIC "-//W3C//DTD SVG 1.1//EN"
 "http://www.w3.org/Graphics/SVG/1.1/DTD/svg11.dtd">
<!-- Generated by graphviz version 2.40.1 (20161225.0304)
 -->
<!-- Title: src/factor_waves.hh Pages: 1 -->
<svg width="224pt" height="95pt"
 viewBox="0.00 0.00 224.00 95.00" xmlns="http://www.w3.org/2000/svg" xmlns:xlink="http://www.w3.org/1999/xlink">
<g id="graph0" class="graph" transform="scale(1 1) rotate(0) translate(4 91)">
<title>src/factor_waves.hh</title>
<!-- Node14 -->
<g id="node1" class="node">
<title>Node14</title>
<polygon fill="#bfbfbf" stroke="#000000" points="58,-67.5 58,-86.5 163,-86.5 163,-67.5 58,-67.5"/>
<text text-anchor="middle" x="110.5" y="-74.5" font-family="Helvetica,sans-Serif" font-size="10.00" fill="#000000">src/factor_waves.hh</text>
</g>
<!-- Node15 -->
<g id="node2" class="node">
<title>Node15</title>
<g id="a_node2"><a xlink:href="factor__waves_8cc.html" target="_top" xlink:title="src/factor_waves.cc">
<polygon fill="none" stroke="#000000" points="0,-6 0,-25 105,-25 105,-6 0,-6"/>
<text text-anchor="middle" x="52.5" y="-13" font-family="Helvetica,sans-Serif" font-size="10.00" fill="#000000">src/factor_waves.cc</text>
</a>
</g>
</g>
<!-- Node14&#45;&gt;Node15 -->
<g id="edge1" class="edge">
<title>Node14&#45;&gt;Node15</title>
<path fill="none" stroke="#191970" d="M94.3739,-59.9007C83.8358,-48.7268 70.4523,-34.5356 61.6903,-25.2449"/>
<polygon fill="#191970" stroke="#191970" points="92.0302,-62.5169 101.4375,-67.3906 97.1227,-57.7142 92.0302,-62.5169"/>
</g>
<!-- Node16 -->
<g id="node3" class="node">
<title>Node16</title>
<g id="a_node3"><a xlink:href="basic__solver_8cc.html" target="_top" xlink:title="src/velocity/basic\l_solver.cc">
<polygon fill="none" stroke="#000000" points="123,-.5 123,-30.5 216,-30.5 216,-.5 123,-.5"/>
<text text-anchor="start" x="131" y="-18.5" font-family="Helvetica,sans-Serif" font-size="10.00" fill="#000000">src/velocity/basic</text>
<text text-anchor="middle" x="169.5" y="-7.5" font-family="Helvetica,sans-Serif" font-size="10.00" fill="#000000">_solver.cc</text>
</a>
</g>
</g>
<!-- Node14&#45;&gt;Node16 -->
<g id="edge2" class="edge">
<title>Node14&#45;&gt;Node16</title>
<path fill="none" stroke="#191970" d="M126.8748,-59.9314C135.7192,-50.7122 146.5408,-39.4321 155.067,-30.5446"/>
<polygon fill="#191970" stroke="#191970" points="124.116,-57.7514 119.7188,-67.3906 129.1673,-62.5974 124.116,-57.7514"/>
</g>
</g>
</svg>
