<?xml version="1.0" encoding="UTF-8" standalone="no"?>
<!DOCTYPE svg PUBLIC "-//W3C//DTD SVG 1.1//EN"
 "http://www.w3.org/Graphics/SVG/1.1/DTD/svg11.dtd">
<!-- Generated by graphviz version 2.36.0 (20140111.2315)
 -->
<!-- Title: /home/travis/build/igankevich/arma/src/factor_waves.hh Pages: 1 -->
<svg width="445pt" height="274pt"
 viewBox="0.00 0.00 445.25 274.00" xmlns="http://www.w3.org/2000/svg" xmlns:xlink="http://www.w3.org/1999/xlink">
<g id="graph0" class="graph" transform="scale(1 1) rotate(0) translate(4 270)">
<title>/home/travis/build/igankevich/arma/src/factor_waves.hh</title>
<!-- Node1 -->
<g id="node1" class="node"><title>Node1</title>
<polygon fill="#bfbfbf" stroke="black" points="104.755,-224.5 104.755,-265.5 211.755,-265.5 211.755,-224.5 104.755,-224.5"/>
<text text-anchor="start" x="112.755" y="-253.5" font-family="Helvetica,sans-Serif" font-size="10.00">/home/travis/build</text>
<text text-anchor="start" x="112.755" y="-242.5" font-family="Helvetica,sans-Serif" font-size="10.00">/igankevich/arma/src</text>
<text text-anchor="middle" x="158.255" y="-231.5" font-family="Helvetica,sans-Serif" font-size="10.00">/factor_waves.hh</text>
</g>
<!-- Node2 -->
<g id="node2" class="node"><title>Node2</title>
<polygon fill="none" stroke="#bfbfbf" points="118.255,-0.5 118.255,-19.5 162.255,-19.5 162.255,-0.5 118.255,-0.5"/>
<text text-anchor="middle" x="140.255" y="-7.5" font-family="Helvetica,sans-Serif" font-size="10.00">cmath</text>
</g>
<!-- Node1&#45;&gt;Node2 -->
<g id="edge1" class="edge"><title>Node1&#45;&gt;Node2</title>
<path fill="none" stroke="midnightblue" d="M111.674,-224.401C75.311,-206.301 27.3698,-175.596 5.25468,-132 -20.9992,-80.245 60.599,-40.2729 108.307,-21.959"/>
<polygon fill="midnightblue" stroke="midnightblue" points="109.769,-25.1495 117.922,-18.3833 107.329,-18.5885 109.769,-25.1495"/>
</g>
<!-- Node3 -->
<g id="node3" class="node"><title>Node3</title>
<polygon fill="none" stroke="#bfbfbf" points="101.255,-168.5 101.255,-187.5 145.255,-187.5 145.255,-168.5 101.255,-168.5"/>
<text text-anchor="middle" x="123.255" y="-175.5" font-family="Helvetica,sans-Serif" font-size="10.00">vector</text>
</g>
<!-- Node1&#45;&gt;Node3 -->
<g id="edge2" class="edge"><title>Node1&#45;&gt;Node3</title>
<path fill="none" stroke="midnightblue" d="M147.754,-224.498C142.955,-215.586 137.316,-205.113 132.658,-196.464"/>
<polygon fill="midnightblue" stroke="midnightblue" points="135.736,-194.798 127.914,-187.652 129.573,-198.117 135.736,-194.798"/>
</g>
<!-- Node4 -->
<g id="node4" class="node"><title>Node4</title>
<g id="a_node4"><a xlink:href="domain_8hh.html" target="_top" xlink:title="domain.hh">
<polygon fill="none" stroke="black" points="163.255,-168.5 163.255,-187.5 225.255,-187.5 225.255,-168.5 163.255,-168.5"/>
<text text-anchor="middle" x="194.255" y="-175.5" font-family="Helvetica,sans-Serif" font-size="10.00">domain.hh</text>
</a>
</g>
</g>
<!-- Node1&#45;&gt;Node4 -->
<g id="edge3" class="edge"><title>Node1&#45;&gt;Node4</title>
<path fill="none" stroke="midnightblue" d="M169.056,-224.498C173.992,-215.586 179.792,-205.113 184.583,-196.464"/>
<polygon fill="midnightblue" stroke="midnightblue" points="187.679,-198.096 189.463,-187.652 181.556,-194.705 187.679,-198.096"/>
</g>
<!-- Node13 -->
<g id="node13" class="node"><title>Node13</title>
<g id="a_node13"><a xlink:href="types_8hh.html" target="_top" xlink:title="types.hh">
<polygon fill="none" stroke="black" points="383.255,-56.5 383.255,-75.5 437.255,-75.5 437.255,-56.5 383.255,-56.5"/>
<text text-anchor="middle" x="410.255" y="-63.5" font-family="Helvetica,sans-Serif" font-size="10.00">types.hh</text>
</a>
</g>
</g>
<!-- Node1&#45;&gt;Node13 -->
<g id="edge15" class="edge"><title>Node1&#45;&gt;Node13</title>
<path fill="none" stroke="midnightblue" d="M211.882,-235.641C269.634,-223.57 359.269,-195.307 404.255,-132 413.682,-118.734 414.42,-99.8964 413.252,-85.9134"/>
<polygon fill="midnightblue" stroke="midnightblue" points="416.72,-85.4419 412.035,-75.9392 409.772,-86.2894 416.72,-85.4419"/>
</g>
<!-- Node4&#45;&gt;Node2 -->
<g id="edge4" class="edge"><title>Node4&#45;&gt;Node2</title>
<path fill="none" stroke="midnightblue" d="M191.351,-168.075C182.815,-141.832 157.673,-64.5453 146.148,-29.1165"/>
<polygon fill="midnightblue" stroke="midnightblue" points="149.464,-27.9949 143.042,-19.5681 142.807,-30.1603 149.464,-27.9949"/>
</g>
<!-- Node5 -->
<g id="node5" class="node"><title>Node5</title>
<polygon fill="none" stroke="#bfbfbf" points="345.255,-112.5 345.255,-131.5 395.255,-131.5 395.255,-112.5 345.255,-112.5"/>
<text text-anchor="middle" x="370.255" y="-119.5" font-family="Helvetica,sans-Serif" font-size="10.00">iomanip</text>
</g>
<!-- Node4&#45;&gt;Node5 -->
<g id="edge5" class="edge"><title>Node4&#45;&gt;Node5</title>
<path fill="none" stroke="midnightblue" d="M222.142,-168.444C252.799,-159.038 302.1,-143.911 335.312,-133.721"/>
<polygon fill="midnightblue" stroke="midnightblue" points="336.53,-137.008 345.064,-130.729 334.477,-130.316 336.53,-137.008"/>
</g>
<!-- Node6 -->
<g id="node6" class="node"><title>Node6</title>
<polygon fill="none" stroke="#bfbfbf" points="14.7547,-112.5 14.7547,-131.5 63.7547,-131.5 63.7547,-112.5 14.7547,-112.5"/>
<text text-anchor="middle" x="39.2547" y="-119.5" font-family="Helvetica,sans-Serif" font-size="10.00">istream</text>
</g>
<!-- Node4&#45;&gt;Node6 -->
<g id="edge6" class="edge"><title>Node4&#45;&gt;Node6</title>
<path fill="none" stroke="midnightblue" d="M169.694,-168.444C143.732,-159.399 102.587,-145.064 73.4576,-134.916"/>
<polygon fill="midnightblue" stroke="midnightblue" points="74.2948,-131.501 63.7,-131.516 71.9918,-138.112 74.2948,-131.501"/>
</g>
<!-- Node7 -->
<g id="node7" class="node"><title>Node7</title>
<polygon fill="none" stroke="#bfbfbf" points="82.2547,-112.5 82.2547,-131.5 134.255,-131.5 134.255,-112.5 82.2547,-112.5"/>
<text text-anchor="middle" x="108.255" y="-119.5" font-family="Helvetica,sans-Serif" font-size="10.00">ostream</text>
</g>
<!-- Node4&#45;&gt;Node7 -->
<g id="edge7" class="edge"><title>Node4&#45;&gt;Node7</title>
<path fill="none" stroke="midnightblue" d="M180.437,-168.324C167.022,-159.9 146.431,-146.971 130.669,-137.074"/>
<polygon fill="midnightblue" stroke="midnightblue" points="132.368,-134.008 122.038,-131.655 128.645,-139.936 132.368,-134.008"/>
</g>
<!-- Node8 -->
<g id="node8" class="node"><title>Node8</title>
<polygon fill="none" stroke="#bfbfbf" points="296.255,-0.5 296.255,-19.5 364.255,-19.5 364.255,-0.5 296.255,-0.5"/>
<text text-anchor="middle" x="330.255" y="-7.5" font-family="Helvetica,sans-Serif" font-size="10.00">blitz/array.h</text>
</g>
<!-- Node4&#45;&gt;Node8 -->
<g id="edge8" class="edge"><title>Node4&#45;&gt;Node8</title>
<path fill="none" stroke="midnightblue" d="M214.151,-168.349C230.689,-160.499 254.193,-147.758 271.255,-132 293.536,-111.422 296.969,-103.265 310.255,-76 317.528,-61.0743 322.845,-42.9328 326.161,-29.6123"/>
<polygon fill="midnightblue" stroke="midnightblue" points="329.602,-30.2681 328.475,-19.7334 322.787,-28.6719 329.602,-30.2681"/>
</g>
<!-- Node9 -->
<g id="node9" class="node"><title>Node9</title>
<g id="a_node9"><a xlink:href="validators_8hh.html" target="_top" xlink:title="validators.hh">
<polygon fill="none" stroke="black" points="190.255,-112.5 190.255,-131.5 262.255,-131.5 262.255,-112.5 190.255,-112.5"/>
<text text-anchor="middle" x="226.255" y="-119.5" font-family="Helvetica,sans-Serif" font-size="10.00">validators.hh</text>
</a>
</g>
</g>
<!-- Node4&#45;&gt;Node9 -->
<g id="edge9" class="edge"><title>Node4&#45;&gt;Node9</title>
<path fill="none" stroke="midnightblue" d="M199.539,-168.083C203.966,-160.613 210.418,-149.724 215.873,-140.52"/>
<polygon fill="midnightblue" stroke="midnightblue" points="218.982,-142.138 221.069,-131.751 212.96,-138.57 218.982,-142.138"/>
</g>
<!-- Node10 -->
<g id="node10" class="node"><title>Node10</title>
<polygon fill="none" stroke="#bfbfbf" points="242.755,-56.5 242.755,-75.5 301.755,-75.5 301.755,-56.5 242.755,-56.5"/>
<text text-anchor="middle" x="272.255" y="-63.5" font-family="Helvetica,sans-Serif" font-size="10.00">stdexcept</text>
</g>
<!-- Node9&#45;&gt;Node10 -->
<g id="edge10" class="edge"><title>Node9&#45;&gt;Node10</title>
<path fill="none" stroke="midnightblue" d="M233.851,-112.083C240.482,-104.298 250.276,-92.8015 258.313,-83.3665"/>
<polygon fill="midnightblue" stroke="midnightblue" points="260.98,-85.6332 264.8,-75.7511 255.651,-81.0939 260.98,-85.6332"/>
</g>
<!-- Node11 -->
<g id="node11" class="node"><title>Node11</title>
<g id="a_node11"><a xlink:href="blitz_8hh.html" target="_top" xlink:title="blitz.hh">
<polygon fill="none" stroke="black" points="176.255,-56.5 176.255,-75.5 224.255,-75.5 224.255,-56.5 176.255,-56.5"/>
<text text-anchor="middle" x="200.255" y="-63.5" font-family="Helvetica,sans-Serif" font-size="10.00">blitz.hh</text>
</a>
</g>
</g>
<!-- Node9&#45;&gt;Node11 -->
<g id="edge11" class="edge"><title>Node9&#45;&gt;Node11</title>
<path fill="none" stroke="midnightblue" d="M221.961,-112.083C218.402,-104.691 213.232,-93.9533 208.83,-84.8111"/>
<polygon fill="midnightblue" stroke="midnightblue" points="211.96,-83.2427 204.468,-75.7511 205.653,-86.2795 211.96,-83.2427"/>
</g>
<!-- Node11&#45;&gt;Node2 -->
<g id="edge14" class="edge"><title>Node11&#45;&gt;Node2</title>
<path fill="none" stroke="midnightblue" d="M190.615,-56.324C181.745,-48.3414 168.38,-36.3128 157.647,-26.6529"/>
<polygon fill="midnightblue" stroke="midnightblue" points="159.844,-23.922 150.07,-19.8339 155.162,-29.1251 159.844,-23.922"/>
</g>
<!-- Node11&#45;&gt;Node8 -->
<g id="edge13" class="edge"><title>Node11&#45;&gt;Node8</title>
<path fill="none" stroke="midnightblue" d="M220.854,-56.4435C242.248,-47.5566 275.936,-33.5632 300.279,-23.4514"/>
<polygon fill="midnightblue" stroke="midnightblue" points="301.86,-26.5848 309.752,-19.5164 299.175,-20.1203 301.86,-26.5848"/>
</g>
<!-- Node12 -->
<g id="node12" class="node"><title>Node12</title>
<polygon fill="none" stroke="#bfbfbf" points="180.255,-0.5 180.255,-19.5 236.255,-19.5 236.255,-0.5 180.255,-0.5"/>
<text text-anchor="middle" x="208.255" y="-7.5" font-family="Helvetica,sans-Serif" font-size="10.00">algorithm</text>
</g>
<!-- Node11&#45;&gt;Node12 -->
<g id="edge12" class="edge"><title>Node11&#45;&gt;Node12</title>
<path fill="none" stroke="midnightblue" d="M201.576,-56.083C202.636,-48.9272 204.161,-38.6353 205.486,-29.6911"/>
<polygon fill="midnightblue" stroke="midnightblue" points="208.955,-30.1561 206.958,-19.7511 202.03,-29.1302 208.955,-30.1561"/>
</g>
<!-- Node13&#45;&gt;Node8 -->
<g id="edge16" class="edge"><title>Node13&#45;&gt;Node8</title>
<path fill="none" stroke="midnightblue" d="M397.401,-56.324C385.038,-47.979 366.125,-35.2122 351.518,-25.3524"/>
<polygon fill="midnightblue" stroke="midnightblue" points="353.323,-22.3483 343.076,-19.6545 349.407,-28.1503 353.323,-22.3483"/>
</g>
</g>
</svg>
