<?xml version="1.0" encoding="UTF-8" standalone="no"?>
<!DOCTYPE svg PUBLIC "-//W3C//DTD SVG 1.1//EN"
 "http://www.w3.org/Graphics/SVG/1.1/DTD/svg11.dtd">
<!-- Generated by graphviz version 2.40.1 (20161225.0304)
 -->
<!-- Title: src/fourier.hh Pages: 1 -->
<svg width="471pt" height="341pt"
 viewBox="0.00 0.00 471.00 341.00" xmlns="http://www.w3.org/2000/svg" xmlns:xlink="http://www.w3.org/1999/xlink">
<g id="graph0" class="graph" transform="scale(1 1) rotate(0) translate(4 337)">
<title>src/fourier.hh</title>
<!-- Node11 -->
<g id="node1" class="node">
<title>Node11</title>
<polygon fill="#bfbfbf" stroke="#000000" points="149,-313.5 149,-332.5 222,-332.5 222,-313.5 149,-313.5"/>
<text text-anchor="middle" x="185.5" y="-320.5" font-family="Helvetica,sans-Serif" font-size="10.00" fill="#000000">src/fourier.hh</text>
</g>
<!-- Node12 -->
<g id="node2" class="node">
<title>Node12</title>
<g id="a_node2"><a xlink:href="convolution_8hh.html" target="_top" xlink:title="src/apmath/convolution.hh">
<polygon fill="none" stroke="#000000" points="2,-252 2,-271 133,-271 133,-252 2,-252"/>
<text text-anchor="middle" x="67.5" y="-259" font-family="Helvetica,sans-Serif" font-size="10.00" fill="#000000">src/apmath/convolution.hh</text>
</a>
</g>
</g>
<!-- Node11&#45;&gt;Node12 -->
<g id="edge1" class="edge">
<title>Node11&#45;&gt;Node12</title>
<path fill="none" stroke="#191970" d="M158.1133,-308.7264C135.8826,-297.1401 105.1546,-281.1251 85.808,-271.0419"/>
<polygon fill="#191970" stroke="#191970" points="156.577,-311.8725 167.0625,-313.3906 159.8123,-305.665 156.577,-311.8725"/>
</g>
<!-- Node14 -->
<g id="node4" class="node">
<title>Node14</title>
<g id="a_node4"><a xlink:href="arma_8cc.html" target="_top" xlink:title="src/arma.cc">
<polygon fill="none" stroke="#000000" points="151.5,-252 151.5,-271 219.5,-271 219.5,-252 151.5,-252"/>
<text text-anchor="middle" x="185.5" y="-259" font-family="Helvetica,sans-Serif" font-size="10.00" fill="#000000">src/arma.cc</text>
</a>
</g>
</g>
<!-- Node11&#45;&gt;Node14 -->
<g id="edge3" class="edge">
<title>Node11&#45;&gt;Node14</title>
<path fill="none" stroke="#191970" d="M185.5,-303.2462C185.5,-292.5519 185.5,-279.814 185.5,-271.2449"/>
<polygon fill="#191970" stroke="#191970" points="182.0001,-303.3906 185.5,-313.3906 189.0001,-303.3907 182.0001,-303.3906"/>
</g>
<!-- Node15 -->
<g id="node5" class="node">
<title>Node15</title>
<g id="a_node5"><a xlink:href="linear__solver_8hh.html" target="_top" xlink:title="src/velocity/linear\l_solver.hh">
<polygon fill="none" stroke="#000000" points="238,-246.5 238,-276.5 331,-276.5 331,-246.5 238,-246.5"/>
<text text-anchor="start" x="246" y="-264.5" font-family="Helvetica,sans-Serif" font-size="10.00" fill="#000000">src/velocity/linear</text>
<text text-anchor="middle" x="284.5" y="-253.5" font-family="Helvetica,sans-Serif" font-size="10.00" fill="#000000">_solver.hh</text>
</a>
</g>
</g>
<!-- Node11&#45;&gt;Node15 -->
<g id="edge4" class="edge">
<title>Node11&#45;&gt;Node15</title>
<path fill="none" stroke="#191970" d="M209.8806,-307.8545C225.2299,-298.3193 244.9636,-286.0605 260.2819,-276.5446"/>
<polygon fill="#191970" stroke="#191970" points="207.6163,-305.1407 200.9688,-313.3906 211.3101,-311.0868 207.6163,-305.1407"/>
</g>
<!-- Node13 -->
<g id="node3" class="node">
<title>Node13</title>
<g id="a_node3"><a xlink:href="ma__model_8cc.html" target="_top" xlink:title="src/generator/ma_model.cc">
<polygon fill="none" stroke="#000000" points="0,-185 0,-204 135,-204 135,-185 0,-185"/>
<text text-anchor="middle" x="67.5" y="-192" font-family="Helvetica,sans-Serif" font-size="10.00" fill="#000000">src/generator/ma_model.cc</text>
</a>
</g>
</g>
<!-- Node12&#45;&gt;Node13 -->
<g id="edge2" class="edge">
<title>Node12&#45;&gt;Node13</title>
<path fill="none" stroke="#191970" d="M67.5,-241.6079C67.5,-229.214 67.5,-213.8263 67.5,-204.0817"/>
<polygon fill="#191970" stroke="#191970" points="64.0001,-241.9005 67.5,-251.9005 71.0001,-241.9006 64.0001,-241.9005"/>
</g>
<!-- Node16 -->
<g id="node6" class="node">
<title>Node16</title>
<g id="a_node6"><a xlink:href="high__amplitude__solver_8hh.html" target="_top" xlink:title="src/velocity/high_amplitude\l_solver.hh">
<polygon fill="none" stroke="#000000" points="217,-179.5 217,-209.5 352,-209.5 352,-179.5 217,-179.5"/>
<text text-anchor="start" x="225" y="-197.5" font-family="Helvetica,sans-Serif" font-size="10.00" fill="#000000">src/velocity/high_amplitude</text>
<text text-anchor="middle" x="284.5" y="-186.5" font-family="Helvetica,sans-Serif" font-size="10.00" fill="#000000">_solver.hh</text>
</a>
</g>
</g>
<!-- Node15&#45;&gt;Node16 -->
<g id="edge5" class="edge">
<title>Node15&#45;&gt;Node16</title>
<path fill="none" stroke="#191970" d="M284.5,-236.0249C284.5,-227.128 284.5,-217.4287 284.5,-209.6432"/>
<polygon fill="#191970" stroke="#191970" points="281.0001,-236.2966 284.5,-246.2967 288.0001,-236.2967 281.0001,-236.2966"/>
</g>
<!-- Node17 -->
<g id="node7" class="node">
<title>Node17</title>
<g id="a_node7"><a xlink:href="register__all_8hh.html" target="_top" xlink:title="src/register_all.hh">
<polygon fill="none" stroke="#000000" points="141.5,-118 141.5,-137 235.5,-137 235.5,-118 141.5,-118"/>
<text text-anchor="middle" x="188.5" y="-125" font-family="Helvetica,sans-Serif" font-size="10.00" fill="#000000">src/register_all.hh</text>
</a>
</g>
</g>
<!-- Node15&#45;&gt;Node17 -->
<g id="edge12" class="edge">
<title>Node15&#45;&gt;Node17</title>
<path fill="none" stroke="#191970" d="M242.0861,-241.1568C229.2521,-233.1014 216.2549,-222.6925 207.5,-210 191.8107,-187.2542 188.9182,-153.4235 188.4886,-137.0558"/>
<polygon fill="#191970" stroke="#191970" points="240.5006,-244.2853 250.8909,-246.3569 244.0603,-238.2579 240.5006,-244.2853"/>
</g>
<!-- Node23 -->
<g id="node13" class="node">
<title>Node23</title>
<g id="a_node13"><a xlink:href="linear__solver_8cc.html" target="_top" xlink:title="src/velocity/linear\l_solver.cc">
<polygon fill="none" stroke="#000000" points="370,-179.5 370,-209.5 463,-209.5 463,-179.5 370,-179.5"/>
<text text-anchor="start" x="378" y="-197.5" font-family="Helvetica,sans-Serif" font-size="10.00" fill="#000000">src/velocity/linear</text>
<text text-anchor="middle" x="416.5" y="-186.5" font-family="Helvetica,sans-Serif" font-size="10.00" fill="#000000">_solver.cc</text>
</a>
</g>
</g>
<!-- Node15&#45;&gt;Node23 -->
<g id="edge13" class="edge">
<title>Node15&#45;&gt;Node23</title>
<path fill="none" stroke="#191970" d="M323.089,-241.9132C343.3187,-231.645 367.7267,-219.2561 386.5188,-209.7177"/>
<polygon fill="#191970" stroke="#191970" points="321.4563,-238.8168 314.1234,-246.4639 324.6246,-245.0587 321.4563,-238.8168"/>
</g>
<!-- Node16&#45;&gt;Node17 -->
<g id="edge6" class="edge">
<title>Node16&#45;&gt;Node17</title>
<path fill="none" stroke="#191970" d="M254.4755,-173.5454C236.9778,-161.3335 215.7552,-146.5219 202.1907,-137.055"/>
<polygon fill="#191970" stroke="#191970" points="252.5126,-176.4436 262.7161,-179.2967 256.5189,-170.7033 252.5126,-176.4436"/>
</g>
<!-- Node22 -->
<g id="node12" class="node">
<title>Node22</title>
<g id="a_node12"><a xlink:href="high__amplitude__solver_8cc.html" target="_top" xlink:title="src/velocity/high_amplitude\l_solver.cc">
<polygon fill="none" stroke="#000000" points="254,-112.5 254,-142.5 389,-142.5 389,-112.5 254,-112.5"/>
<text text-anchor="start" x="262" y="-130.5" font-family="Helvetica,sans-Serif" font-size="10.00" fill="#000000">src/velocity/high_amplitude</text>
<text text-anchor="middle" x="321.5" y="-119.5" font-family="Helvetica,sans-Serif" font-size="10.00" fill="#000000">_solver.cc</text>
</a>
</g>
</g>
<!-- Node16&#45;&gt;Node22 -->
<g id="edge11" class="edge">
<title>Node16&#45;&gt;Node22</title>
<path fill="none" stroke="#191970" d="M297.7627,-170.4837C302.8897,-161.1996 308.6016,-150.8565 313.1374,-142.6432"/>
<polygon fill="#191970" stroke="#191970" points="294.6663,-168.8508 292.8959,-179.2967 300.794,-172.2348 294.6663,-168.8508"/>
</g>
<!-- Node18 -->
<g id="node8" class="node">
<title>Node18</title>
<g id="a_node8"><a xlink:href="common__main_8hh.html" target="_top" xlink:title="src/common_main.hh">
<polygon fill="none" stroke="#000000" points="79.5,-56.5 79.5,-75.5 189.5,-75.5 189.5,-56.5 79.5,-56.5"/>
<text text-anchor="middle" x="134.5" y="-63.5" font-family="Helvetica,sans-Serif" font-size="10.00" fill="#000000">src/common_main.hh</text>
</a>
</g>
</g>
<!-- Node17&#45;&gt;Node18 -->
<g id="edge7" class="edge">
<title>Node17&#45;&gt;Node18</title>
<path fill="none" stroke="#191970" d="M173.1995,-110.0744C163.4332,-98.9517 151.135,-84.9454 143.0565,-75.7449"/>
<polygon fill="#191970" stroke="#191970" points="170.8344,-112.6855 180.0625,-117.8906 176.0945,-108.0669 170.8344,-112.6855"/>
</g>
<!-- Node21 -->
<g id="node11" class="node">
<title>Node21</title>
<g id="a_node11"><a xlink:href="visual_8cc.html" target="_top" xlink:title="src/visual.cc">
<polygon fill="none" stroke="#000000" points="207.5,-56.5 207.5,-75.5 279.5,-75.5 279.5,-56.5 207.5,-56.5"/>
<text text-anchor="middle" x="243.5" y="-63.5" font-family="Helvetica,sans-Serif" font-size="10.00" fill="#000000">src/visual.cc</text>
</a>
</g>
</g>
<!-- Node17&#45;&gt;Node21 -->
<g id="edge10" class="edge">
<title>Node17&#45;&gt;Node21</title>
<path fill="none" stroke="#191970" d="M203.792,-110.4007C213.785,-99.2268 226.4763,-85.0356 234.7851,-75.7449"/>
<polygon fill="#191970" stroke="#191970" points="201.1511,-108.1034 197.0938,-117.8906 206.3689,-112.7698 201.1511,-108.1034"/>
</g>
<!-- Node19 -->
<g id="node9" class="node">
<title>Node19</title>
<g id="a_node9"><a xlink:href="arma__main_8cc.html" target="_top" xlink:title="src/arma_main.cc">
<polygon fill="none" stroke="#000000" points="27,-.5 27,-19.5 122,-19.5 122,-.5 27,-.5"/>
<text text-anchor="middle" x="74.5" y="-7.5" font-family="Helvetica,sans-Serif" font-size="10.00" fill="#000000">src/arma_main.cc</text>
</a>
</g>
</g>
<!-- Node18&#45;&gt;Node19 -->
<g id="edge8" class="edge">
<title>Node18&#45;&gt;Node19</title>
<path fill="none" stroke="#191970" d="M116.6722,-49.3607C106.2922,-39.6727 93.5709,-27.7995 84.8314,-19.6427"/>
<polygon fill="#191970" stroke="#191970" points="114.3501,-51.981 124.0488,-56.2455 119.1263,-46.8636 114.3501,-51.981"/>
</g>
<!-- Node20 -->
<g id="node10" class="node">
<title>Node20</title>
<g id="a_node10"><a xlink:href="arma__realtime_8cc.html" target="_top" xlink:title="src/arma_realtime.cc">
<polygon fill="none" stroke="#000000" points="140.5,-.5 140.5,-19.5 248.5,-19.5 248.5,-.5 140.5,-.5"/>
<text text-anchor="middle" x="194.5" y="-7.5" font-family="Helvetica,sans-Serif" font-size="10.00" fill="#000000">src/arma_realtime.cc</text>
</a>
</g>
</g>
<!-- Node18&#45;&gt;Node20 -->
<g id="edge9" class="edge">
<title>Node18&#45;&gt;Node20</title>
<path fill="none" stroke="#191970" d="M152.3278,-49.3607C162.7078,-39.6727 175.4291,-27.7995 184.1686,-19.6427"/>
<polygon fill="#191970" stroke="#191970" points="149.8737,-46.8636 144.9512,-56.2455 154.6499,-51.981 149.8737,-46.8636"/>
</g>
</g>
</svg>
