<?xml version="1.0" encoding="UTF-8" standalone="no"?>
<!DOCTYPE svg PUBLIC "-//W3C//DTD SVG 1.1//EN"
 "http://www.w3.org/Graphics/SVG/1.1/DTD/svg11.dtd">
<!-- Generated by graphviz version 2.40.1 (20161225.0304)
 -->
<!-- Title: src/fourier.hh Pages: 1 -->
<svg width="534pt" height="207pt"
 viewBox="0.00 0.00 534.00 207.00" xmlns="http://www.w3.org/2000/svg" xmlns:xlink="http://www.w3.org/1999/xlink">
<g id="graph0" class="graph" transform="scale(1 1) rotate(0) translate(4 203)">
<title>src/fourier.hh</title>
<!-- Node0 -->
<g id="node1" class="node">
<title>Node0</title>
<polygon fill="#bfbfbf" stroke="#000000" points="164,-179.5 164,-198.5 237,-198.5 237,-179.5 164,-179.5"/>
<text text-anchor="middle" x="200.5" y="-186.5" font-family="Helvetica,sans-Serif" font-size="10.00" fill="#000000">src/fourier.hh</text>
</g>
<!-- Node1 -->
<g id="node2" class="node">
<title>Node1</title>
<g id="a_node2"><a xlink:href="apmath_2fourier__gsl_8hh.html" target="_top" xlink:title="apmath/fourier_gsl.hh">
<polygon fill="none" stroke="#000000" points="145.5,-123.5 145.5,-142.5 255.5,-142.5 255.5,-123.5 145.5,-123.5"/>
<text text-anchor="middle" x="200.5" y="-130.5" font-family="Helvetica,sans-Serif" font-size="10.00" fill="#000000">apmath/fourier_gsl.hh</text>
</a>
</g>
</g>
<!-- Node0&#45;&gt;Node1 -->
<g id="edge1" class="edge">
<title>Node0&#45;&gt;Node1</title>
<path fill="none" stroke="#191970" d="M200.5,-179.2455C200.5,-171.9382 200.5,-161.6944 200.5,-152.7046"/>
<polygon fill="#191970" stroke="#191970" points="204.0001,-152.6426 200.5,-142.6427 197.0001,-152.6427 204.0001,-152.6426"/>
</g>
<!-- Node2 -->
<g id="node3" class="node">
<title>Node2</title>
<polygon fill="none" stroke="#bfbfbf" points="0,-67.5 0,-86.5 53,-86.5 53,-67.5 0,-67.5"/>
<text text-anchor="middle" x="26.5" y="-74.5" font-family="Helvetica,sans-Serif" font-size="10.00" fill="#000000">complex</text>
</g>
<!-- Node1&#45;&gt;Node2 -->
<g id="edge2" class="edge">
<title>Node1&#45;&gt;Node2</title>
<path fill="none" stroke="#191970" d="M170.5883,-123.3733C140.778,-113.7791 94.9574,-99.0323 63.0172,-88.7527"/>
<polygon fill="#191970" stroke="#191970" points="63.764,-85.3163 53.1726,-85.5843 61.6194,-91.9797 63.764,-85.3163"/>
</g>
<!-- Node3 -->
<g id="node4" class="node">
<title>Node3</title>
<polygon fill="none" stroke="#bfbfbf" points="71.5,-67.5 71.5,-86.5 115.5,-86.5 115.5,-67.5 71.5,-67.5"/>
<text text-anchor="middle" x="93.5" y="-74.5" font-family="Helvetica,sans-Serif" font-size="10.00" fill="#000000">vector</text>
</g>
<!-- Node1&#45;&gt;Node3 -->
<g id="edge3" class="edge">
<title>Node1&#45;&gt;Node3</title>
<path fill="none" stroke="#191970" d="M181.862,-123.2455C165.0614,-114.4527 140.1366,-101.4079 121.0382,-91.4125"/>
<polygon fill="#191970" stroke="#191970" points="122.4073,-88.1787 111.9244,-86.6427 119.1614,-94.3807 122.4073,-88.1787"/>
</g>
<!-- Node4 -->
<g id="node5" class="node">
<title>Node4</title>
<g id="a_node5"><a xlink:href="fourier__direction_8hh.html" target="_top" xlink:title="apmath/fourier_direction.hh">
<polygon fill="none" stroke="#000000" points="133.5,-67.5 133.5,-86.5 267.5,-86.5 267.5,-67.5 133.5,-67.5"/>
<text text-anchor="middle" x="200.5" y="-74.5" font-family="Helvetica,sans-Serif" font-size="10.00" fill="#000000">apmath/fourier_direction.hh</text>
</a>
</g>
</g>
<!-- Node1&#45;&gt;Node4 -->
<g id="edge4" class="edge">
<title>Node1&#45;&gt;Node4</title>
<path fill="none" stroke="#191970" d="M200.5,-123.2455C200.5,-115.9382 200.5,-105.6944 200.5,-96.7046"/>
<polygon fill="#191970" stroke="#191970" points="204.0001,-96.6426 200.5,-86.6427 197.0001,-96.6427 204.0001,-96.6426"/>
</g>
<!-- Node5 -->
<g id="node6" class="node">
<title>Node5</title>
<g id="a_node6"><a xlink:href="bits_2fourier__gsl_8hh.html" target="_top" xlink:title="bits/fourier_gsl.hh">
<polygon fill="none" stroke="#000000" points="285.5,-67.5 285.5,-86.5 379.5,-86.5 379.5,-67.5 285.5,-67.5"/>
<text text-anchor="middle" x="332.5" y="-74.5" font-family="Helvetica,sans-Serif" font-size="10.00" fill="#000000">bits/fourier_gsl.hh</text>
</a>
</g>
</g>
<!-- Node1&#45;&gt;Node5 -->
<g id="edge5" class="edge">
<title>Node1&#45;&gt;Node5</title>
<path fill="none" stroke="#191970" d="M223.1916,-123.3733C244.5711,-114.3032 276.8057,-100.6279 300.7362,-90.4755"/>
<polygon fill="#191970" stroke="#191970" points="302.2656,-93.6287 310.1045,-86.5011 299.5317,-87.1846 302.2656,-93.6287"/>
</g>
<!-- Node9 -->
<g id="node10" class="node">
<title>Node9</title>
<g id="a_node10"><a xlink:href="types_8hh.html" target="_top" xlink:title="types.hh">
<polygon fill="none" stroke="#000000" points="442.5,-67.5 442.5,-86.5 496.5,-86.5 496.5,-67.5 442.5,-67.5"/>
<text text-anchor="middle" x="469.5" y="-74.5" font-family="Helvetica,sans-Serif" font-size="10.00" fill="#000000">types.hh</text>
</a>
</g>
</g>
<!-- Node1&#45;&gt;Node9 -->
<g id="edge9" class="edge">
<title>Node1&#45;&gt;Node9</title>
<path fill="none" stroke="#191970" d="M246.4371,-123.4369C298.8621,-112.5231 383.6019,-94.8821 432.1468,-84.7761"/>
<polygon fill="#191970" stroke="#191970" points="433.1444,-88.1436 442.2211,-82.6789 431.7177,-81.2905 433.1444,-88.1436"/>
</g>
<!-- Node6 -->
<g id="node7" class="node">
<title>Node6</title>
<polygon fill="none" stroke="#bfbfbf" points="132,-6 132,-25 241,-25 241,-6 132,-6"/>
<text text-anchor="middle" x="186.5" y="-13" font-family="Helvetica,sans-Serif" font-size="10.00" fill="#000000">gsl/gsl_fft_complex.h</text>
</g>
<!-- Node5&#45;&gt;Node6 -->
<g id="edge6" class="edge">
<title>Node5&#45;&gt;Node6</title>
<path fill="none" stroke="#191970" d="M309.6875,-67.3906C285.1519,-57.0554 245.9558,-40.5447 218.3789,-28.9284"/>
<polygon fill="#191970" stroke="#191970" points="219.7268,-25.6984 209.1523,-25.0419 217.0094,-32.1495 219.7268,-25.6984"/>
</g>
<!-- Node7 -->
<g id="node8" class="node">
<title>Node7</title>
<polygon fill="none" stroke="#bfbfbf" points="259,-.5 259,-30.5 360,-30.5 360,-.5 259,-.5"/>
<text text-anchor="start" x="267" y="-18.5" font-family="Helvetica,sans-Serif" font-size="10.00" fill="#000000">gsl/gsl_fft_complex</text>
<text text-anchor="middle" x="309.5" y="-7.5" font-family="Helvetica,sans-Serif" font-size="10.00" fill="#000000">_float.h</text>
</g>
<!-- Node5&#45;&gt;Node7 -->
<g id="edge7" class="edge">
<title>Node5&#45;&gt;Node7</title>
<path fill="none" stroke="#191970" d="M328.9063,-67.3906C326.1682,-60.0692 322.2711,-49.6488 318.6868,-40.0647"/>
<polygon fill="#191970" stroke="#191970" points="321.9076,-38.685 315.1264,-30.5446 315.3511,-41.137 321.9076,-38.685"/>
</g>
<!-- Node8 -->
<g id="node9" class="node">
<title>Node8</title>
<polygon fill="none" stroke="#bfbfbf" points="378.5,-6 378.5,-25 440.5,-25 440.5,-6 378.5,-6"/>
<text text-anchor="middle" x="409.5" y="-13" font-family="Helvetica,sans-Serif" font-size="10.00" fill="#000000">type_traits</text>
</g>
<!-- Node5&#45;&gt;Node8 -->
<g id="edge8" class="edge">
<title>Node5&#45;&gt;Node8</title>
<path fill="none" stroke="#191970" d="M344.5313,-67.3906C356.5107,-57.8227 375.1166,-42.9621 389.3525,-31.5919"/>
<polygon fill="#191970" stroke="#191970" points="391.9239,-34.0175 397.5532,-25.0419 387.5553,-28.5479 391.9239,-34.0175"/>
</g>
<!-- Node10 -->
<g id="node11" class="node">
<title>Node10</title>
<polygon fill="none" stroke="#bfbfbf" points="459,-6 459,-25 526,-25 526,-6 459,-6"/>
<text text-anchor="middle" x="492.5" y="-13" font-family="Helvetica,sans-Serif" font-size="10.00" fill="#000000">blitz/array.h</text>
</g>
<!-- Node9&#45;&gt;Node10 -->
<g id="edge10" class="edge">
<title>Node9&#45;&gt;Node10</title>
<path fill="none" stroke="#191970" d="M473.0938,-67.3906C476.3491,-58.6862 481.2425,-45.6015 485.301,-34.7494"/>
<polygon fill="#191970" stroke="#191970" points="488.6309,-35.8373 488.8556,-25.2449 482.0744,-33.3852 488.6309,-35.8373"/>
</g>
</g>
</svg>
