<?xml version="1.0" encoding="UTF-8" standalone="no"?>
<!DOCTYPE svg PUBLIC "-//W3C//DTD SVG 1.1//EN"
 "http://www.w3.org/Graphics/SVG/1.1/DTD/svg11.dtd">
<!-- Generated by graphviz version 2.36.0 (20140111.2315)
 -->
<!-- Title: /home/travis/build/igankevich/arma/src/apmath/fourier_opencl.hh Pages: 1 -->
<svg width="591pt" height="218pt"
 viewBox="0.00 0.00 591.00 218.00" xmlns="http://www.w3.org/2000/svg" xmlns:xlink="http://www.w3.org/1999/xlink">
<g id="graph0" class="graph" transform="scale(1 1) rotate(0) translate(4 214)">
<title>/home/travis/build/igankevich/arma/src/apmath/fourier_opencl.hh</title>
<!-- Node1 -->
<g id="node1" class="node"><title>Node1</title>
<polygon fill="#bfbfbf" stroke="black" points="191.5,-168.5 191.5,-209.5 320.5,-209.5 320.5,-168.5 191.5,-168.5"/>
<text text-anchor="start" x="199.5" y="-197.5" font-family="Helvetica,sans-Serif" font-size="10.00">/home/travis/build</text>
<text text-anchor="start" x="199.5" y="-186.5" font-family="Helvetica,sans-Serif" font-size="10.00">/igankevich/arma/src</text>
<text text-anchor="middle" x="256" y="-175.5" font-family="Helvetica,sans-Serif" font-size="10.00">/apmath/fourier_opencl.hh</text>
</g>
<!-- Node2 -->
<g id="node2" class="node"><title>Node2</title>
<polygon fill="none" stroke="#bfbfbf" points="0,-112.5 0,-131.5 52,-131.5 52,-112.5 0,-112.5"/>
<text text-anchor="middle" x="26" y="-119.5" font-family="Helvetica,sans-Serif" font-size="10.00">ostream</text>
</g>
<!-- Node1&#45;&gt;Node2 -->
<g id="edge1" class="edge"><title>Node1&#45;&gt;Node2</title>
<path fill="none" stroke="midnightblue" d="M191.32,-169.721C149.357,-157.862 96.2597,-142.856 61.731,-133.098"/>
<polygon fill="midnightblue" stroke="midnightblue" points="62.6521,-129.721 52.0771,-130.37 60.7483,-136.457 62.6521,-129.721"/>
</g>
<!-- Node3 -->
<g id="node3" class="node"><title>Node3</title>
<polygon fill="none" stroke="#bfbfbf" points="70.5,-112.5 70.5,-131.5 123.5,-131.5 123.5,-112.5 70.5,-112.5"/>
<text text-anchor="middle" x="97" y="-119.5" font-family="Helvetica,sans-Serif" font-size="10.00">complex</text>
</g>
<!-- Node1&#45;&gt;Node3 -->
<g id="edge2" class="edge"><title>Node1&#45;&gt;Node3</title>
<path fill="none" stroke="midnightblue" d="M208.295,-168.498C182.159,-157.813 150.534,-144.885 127.686,-135.545"/>
<polygon fill="midnightblue" stroke="midnightblue" points="128.746,-132.197 118.165,-131.652 126.097,-138.676 128.746,-132.197"/>
</g>
<!-- Node4 -->
<g id="node4" class="node"><title>Node4</title>
<polygon fill="none" stroke="#bfbfbf" points="142,-112.5 142,-131.5 204,-131.5 204,-112.5 142,-112.5"/>
<text text-anchor="middle" x="173" y="-119.5" font-family="Helvetica,sans-Serif" font-size="10.00">type_traits</text>
</g>
<!-- Node1&#45;&gt;Node4 -->
<g id="edge3" class="edge"><title>Node1&#45;&gt;Node4</title>
<path fill="none" stroke="midnightblue" d="M231.097,-168.498C218.617,-158.724 203.738,-147.072 192.162,-138.007"/>
<polygon fill="midnightblue" stroke="midnightblue" points="194.08,-135.063 184.049,-131.652 189.764,-140.574 194.08,-135.063"/>
</g>
<!-- Node5 -->
<g id="node5" class="node"><title>Node5</title>
<polygon fill="none" stroke="#bfbfbf" points="222,-112.5 222,-131.5 290,-131.5 290,-112.5 222,-112.5"/>
<text text-anchor="middle" x="256" y="-119.5" font-family="Helvetica,sans-Serif" font-size="10.00">blitz/array.h</text>
</g>
<!-- Node1&#45;&gt;Node5 -->
<g id="edge4" class="edge"><title>Node1&#45;&gt;Node5</title>
<path fill="none" stroke="midnightblue" d="M256,-168.498C256,-160.065 256,-150.235 256,-141.874"/>
<polygon fill="midnightblue" stroke="midnightblue" points="259.5,-141.652 256,-131.652 252.5,-141.653 259.5,-141.652"/>
</g>
<!-- Node6 -->
<g id="node6" class="node"><title>Node6</title>
<polygon fill="none" stroke="#bfbfbf" points="308,-112.5 308,-131.5 358,-131.5 358,-112.5 308,-112.5"/>
<text text-anchor="middle" x="333" y="-119.5" font-family="Helvetica,sans-Serif" font-size="10.00">clFFT.h</text>
</g>
<!-- Node1&#45;&gt;Node6 -->
<g id="edge5" class="edge"><title>Node1&#45;&gt;Node6</title>
<path fill="none" stroke="midnightblue" d="M279.103,-168.498C290.568,-158.82 304.214,-147.3 314.906,-138.274"/>
<polygon fill="midnightblue" stroke="midnightblue" points="317.366,-140.778 322.75,-131.652 312.851,-135.429 317.366,-140.778"/>
</g>
<!-- Node7 -->
<g id="node7" class="node"><title>Node7</title>
<g id="a_node7"><a xlink:href="opencl_8hh.html" target="_top" xlink:title="opencl/opencl.hh">
<polygon fill="none" stroke="black" points="376,-112.5 376,-131.5 466,-131.5 466,-112.5 376,-112.5"/>
<text text-anchor="middle" x="421" y="-119.5" font-family="Helvetica,sans-Serif" font-size="10.00">opencl/opencl.hh</text>
</a>
</g>
</g>
<!-- Node1&#45;&gt;Node7 -->
<g id="edge6" class="edge"><title>Node1&#45;&gt;Node7</title>
<path fill="none" stroke="midnightblue" d="M305.505,-168.498C332.749,-157.766 365.74,-144.769 389.474,-135.419"/>
<polygon fill="midnightblue" stroke="midnightblue" points="391.015,-138.574 399.036,-131.652 388.449,-132.061 391.015,-138.574"/>
</g>
<!-- Node10 -->
<g id="node10" class="node"><title>Node10</title>
<g id="a_node10"><a xlink:href="fourier__direction_8hh.html" target="_top" xlink:title="fourier_direction.hh">
<polygon fill="none" stroke="black" points="484.5,-112.5 484.5,-131.5 583.5,-131.5 583.5,-112.5 484.5,-112.5"/>
<text text-anchor="middle" x="534" y="-119.5" font-family="Helvetica,sans-Serif" font-size="10.00">fourier_direction.hh</text>
</a>
</g>
</g>
<!-- Node1&#45;&gt;Node10 -->
<g id="edge9" class="edge"><title>Node1&#45;&gt;Node10</title>
<path fill="none" stroke="midnightblue" d="M320.828,-172.842C371.99,-160.88 442.113,-144.484 487.732,-133.818"/>
<polygon fill="midnightblue" stroke="midnightblue" points="488.703,-137.185 497.644,-131.501 487.109,-130.369 488.703,-137.185"/>
</g>
<!-- Node8 -->
<g id="node8" class="node"><title>Node8</title>
<g id="a_node8"><a xlink:href="cl_8hh_source.html" target="_top" xlink:title="cl.hh">
<polygon fill="none" stroke="black" points="402,-56.5 402,-75.5 440,-75.5 440,-56.5 402,-56.5"/>
<text text-anchor="middle" x="421" y="-63.5" font-family="Helvetica,sans-Serif" font-size="10.00">cl.hh</text>
</a>
</g>
</g>
<!-- Node7&#45;&gt;Node8 -->
<g id="edge7" class="edge"><title>Node7&#45;&gt;Node8</title>
<path fill="none" stroke="midnightblue" d="M421,-112.083C421,-105.006 421,-94.8611 421,-85.9865"/>
<polygon fill="midnightblue" stroke="midnightblue" points="424.5,-85.751 421,-75.7511 417.5,-85.7511 424.5,-85.751"/>
</g>
<!-- Node9 -->
<g id="node9" class="node"><title>Node9</title>
<polygon fill="none" stroke="#bfbfbf" points="391.5,-0.5 391.5,-19.5 450.5,-19.5 450.5,-0.5 391.5,-0.5"/>
<text text-anchor="middle" x="421" y="-7.5" font-family="Helvetica,sans-Serif" font-size="10.00">CL/cl.hpp</text>
</g>
<!-- Node8&#45;&gt;Node9 -->
<g id="edge8" class="edge"><title>Node8&#45;&gt;Node9</title>
<path fill="none" stroke="midnightblue" d="M421,-56.083C421,-49.0059 421,-38.8611 421,-29.9865"/>
<polygon fill="midnightblue" stroke="midnightblue" points="424.5,-29.751 421,-19.7511 417.5,-29.7511 424.5,-29.751"/>
</g>
</g>
</svg>
