<?xml version="1.0" encoding="UTF-8" standalone="no"?>
<!DOCTYPE svg PUBLIC "-//W3C//DTD SVG 1.1//EN"
 "http://www.w3.org/Graphics/SVG/1.1/DTD/svg11.dtd">
<!-- Generated by graphviz version 2.40.1 (20161225.0304)
 -->
<!-- Title: src/stats/gaussian.hh Pages: 1 -->
<svg width="854pt" height="520pt"
 viewBox="0.00 0.00 854.08 520.00" xmlns="http://www.w3.org/2000/svg" xmlns:xlink="http://www.w3.org/1999/xlink">
<g id="graph0" class="graph" transform="scale(1 1) rotate(0) translate(4 516)">
<title>src/stats/gaussian.hh</title>
<!-- Node4 -->
<g id="node1" class="node">
<title>Node4</title>
<polygon fill="#bfbfbf" stroke="#000000" points="546.5762,-492.5 546.5762,-511.5 656.5762,-511.5 656.5762,-492.5 546.5762,-492.5"/>
<text text-anchor="middle" x="601.5762" y="-499.5" font-family="Helvetica,sans-Serif" font-size="10.00" fill="#000000">src/stats/gaussian.hh</text>
</g>
<!-- Node5 -->
<g id="node2" class="node">
<title>Node5</title>
<g id="a_node2"><a xlink:href="nit__transform_8hh.html" target="_top" xlink:title="src/nonlinear/nit_transform.hh">
<polygon fill="none" stroke="#000000" points="326.5762,-380.5 326.5762,-399.5 472.5762,-399.5 472.5762,-380.5 326.5762,-380.5"/>
<text text-anchor="middle" x="399.5762" y="-387.5" font-family="Helvetica,sans-Serif" font-size="10.00" fill="#000000">src/nonlinear/nit_transform.hh</text>
</a>
</g>
</g>
<!-- Node4&#45;&gt;Node5 -->
<g id="edge1" class="edge">
<title>Node4&#45;&gt;Node5</title>
<path fill="none" stroke="#191970" d="M559.0235,-489.3029C535.3971,-481.3769 505.9465,-470.0145 481.5762,-456 453.0608,-439.6018 424.1056,-413.6342 409.4267,-399.6611"/>
<polygon fill="#191970" stroke="#191970" points="558.1681,-492.7055 568.7606,-492.487 560.3438,-486.0522 558.1681,-492.7055"/>
</g>
<!-- Node20 -->
<g id="node17" class="node">
<title>Node20</title>
<g id="a_node17"><a xlink:href="distribution_8hh.html" target="_top" xlink:title="src/stats/distribution.hh">
<polygon fill="none" stroke="#000000" points="638.0762,-380.5 638.0762,-399.5 757.0762,-399.5 757.0762,-380.5 638.0762,-380.5"/>
<text text-anchor="middle" x="697.5762" y="-387.5" font-family="Helvetica,sans-Serif" font-size="10.00" fill="#000000">src/stats/distribution.hh</text>
</a>
</g>
</g>
<!-- Node4&#45;&gt;Node20 -->
<g id="edge20" class="edge">
<title>Node4&#45;&gt;Node20</title>
<path fill="none" stroke="#191970" d="M616.2835,-484.8416C636.7709,-460.9396 673.2051,-418.433 689.412,-399.5249"/>
<polygon fill="#191970" stroke="#191970" points="613.6117,-482.5806 609.7611,-492.4509 618.9265,-487.1361 613.6117,-482.5806"/>
</g>
<!-- Node23 -->
<g id="node20" class="node">
<title>Node23</title>
<g id="a_node20"><a xlink:href="skew__normal_8hh.html" target="_top" xlink:title="src/stats/skew_normal.hh">
<polygon fill="none" stroke="#000000" points="491.0762,-436.5 491.0762,-455.5 620.0762,-455.5 620.0762,-436.5 491.0762,-436.5"/>
<text text-anchor="middle" x="555.5762" y="-443.5" font-family="Helvetica,sans-Serif" font-size="10.00" fill="#000000">src/stats/skew_normal.hh</text>
</a>
</g>
</g>
<!-- Node4&#45;&gt;Node23 -->
<g id="edge24" class="edge">
<title>Node4&#45;&gt;Node23</title>
<path fill="none" stroke="#191970" d="M587.2015,-484.5004C579.3792,-474.9775 570.0002,-463.5596 563.497,-455.6427"/>
<polygon fill="#191970" stroke="#191970" points="584.5117,-486.7399 593.5636,-492.2455 589.9208,-482.2967 584.5117,-486.7399"/>
</g>
<!-- Node25 -->
<g id="node22" class="node">
<title>Node25</title>
<g id="a_node22"><a xlink:href="gaussian_8cc.html" target="_top" xlink:title="src/stats/gaussian.cc">
<polygon fill="none" stroke="#000000" points="676.5762,-436.5 676.5762,-455.5 786.5762,-455.5 786.5762,-436.5 676.5762,-436.5"/>
<text text-anchor="middle" x="731.5762" y="-443.5" font-family="Helvetica,sans-Serif" font-size="10.00" fill="#000000">src/stats/gaussian.cc</text>
</a>
</g>
</g>
<!-- Node4&#45;&gt;Node25 -->
<g id="edge28" class="edge">
<title>Node4&#45;&gt;Node25</title>
<path fill="none" stroke="#191970" d="M633.1865,-488.3833C656.8297,-478.1985 688.5639,-464.5284 709.5201,-455.5011"/>
<polygon fill="#191970" stroke="#191970" points="631.7235,-485.2025 623.924,-492.3733 634.4929,-491.6314 631.7235,-485.2025"/>
</g>
<!-- Node6 -->
<g id="node3" class="node">
<title>Node6</title>
<g id="a_node3"><a xlink:href="basic__arma__model_8hh.html" target="_top" xlink:title="src/generator/basic\l_arma_model.hh">
<polygon fill="none" stroke="#000000" points="271.5762,-313.5 271.5762,-343.5 371.5762,-343.5 371.5762,-313.5 271.5762,-313.5"/>
<text text-anchor="start" x="279.5762" y="-331.5" font-family="Helvetica,sans-Serif" font-size="10.00" fill="#000000">src/generator/basic</text>
<text text-anchor="middle" x="321.5762" y="-320.5" font-family="Helvetica,sans-Serif" font-size="10.00" fill="#000000">_arma_model.hh</text>
</a>
</g>
</g>
<!-- Node5&#45;&gt;Node6 -->
<g id="edge2" class="edge">
<title>Node5&#45;&gt;Node6</title>
<path fill="none" stroke="#191970" d="M379.3323,-374.0385C367.3966,-364.6276 352.3845,-352.7911 340.6572,-343.5446"/>
<polygon fill="#191970" stroke="#191970" points="377.369,-376.9475 387.3887,-380.3906 381.7031,-371.4506 377.369,-376.9475"/>
</g>
<!-- Node18 -->
<g id="node15" class="node">
<title>Node18</title>
<g id="a_node15"><a xlink:href="basic__arma__model_8cc.html" target="_top" xlink:title="src/generator/basic\l_arma_model.cc">
<polygon fill="none" stroke="#000000" points="404.5762,-246.5 404.5762,-276.5 504.5762,-276.5 504.5762,-246.5 404.5762,-246.5"/>
<text text-anchor="start" x="412.5762" y="-264.5" font-family="Helvetica,sans-Serif" font-size="10.00" fill="#000000">src/generator/basic</text>
<text text-anchor="middle" x="454.5762" y="-253.5" font-family="Helvetica,sans-Serif" font-size="10.00" fill="#000000">_arma_model.cc</text>
</a>
</g>
</g>
<!-- Node5&#45;&gt;Node18 -->
<g id="edge18" class="edge">
<title>Node5&#45;&gt;Node18</title>
<path fill="none" stroke="#191970" d="M402.4131,-370.1175C405.1714,-354.164 410.1976,-331.4638 418.5762,-313 424.5266,-299.8872 433.912,-286.6047 441.6079,-276.8138"/>
<polygon fill="#191970" stroke="#191970" points="398.8945,-369.9607 400.79,-380.3846 405.8087,-371.0538 398.8945,-369.9607"/>
</g>
<!-- Node19 -->
<g id="node16" class="node">
<title>Node19</title>
<g id="a_node16"><a xlink:href="nit__transform_8cc.html" target="_top" xlink:title="src/nonlinear/nit_transform.cc">
<polygon fill="none" stroke="#000000" points="427.5762,-319 427.5762,-338 573.5762,-338 573.5762,-319 427.5762,-319"/>
<text text-anchor="middle" x="500.5762" y="-326" font-family="Helvetica,sans-Serif" font-size="10.00" fill="#000000">src/nonlinear/nit_transform.cc</text>
</a>
</g>
</g>
<!-- Node5&#45;&gt;Node19 -->
<g id="edge19" class="edge">
<title>Node5&#45;&gt;Node19</title>
<path fill="none" stroke="#191970" d="M424.0436,-375.1015C442.9816,-363.57 468.6421,-347.945 484.9058,-338.0419"/>
<polygon fill="#191970" stroke="#191970" points="422.0784,-372.2004 415.3575,-380.3906 425.719,-378.1792 422.0784,-372.2004"/>
</g>
<!-- Node7 -->
<g id="node4" class="node">
<title>Node7</title>
<g id="a_node4"><a xlink:href="ar__model_8hh.html" target="_top" xlink:title="src/generator/ar_model.hh">
<polygon fill="none" stroke="#000000" points="256.5762,-252 256.5762,-271 386.5762,-271 386.5762,-252 256.5762,-252"/>
<text text-anchor="middle" x="321.5762" y="-259" font-family="Helvetica,sans-Serif" font-size="10.00" fill="#000000">src/generator/ar_model.hh</text>
</a>
</g>
</g>
<!-- Node6&#45;&gt;Node7 -->
<g id="edge3" class="edge">
<title>Node6&#45;&gt;Node7</title>
<path fill="none" stroke="#191970" d="M321.5762,-303.1199C321.5762,-291.9072 321.5762,-279.4031 321.5762,-271.055"/>
<polygon fill="#191970" stroke="#191970" points="318.0763,-303.2966 321.5762,-313.2967 325.0763,-303.2967 318.0763,-303.2966"/>
</g>
<!-- Node16 -->
<g id="node13" class="node">
<title>Node16</title>
<g id="a_node13"><a xlink:href="ma__model_8hh.html" target="_top" xlink:title="src/generator/ma_model.hh">
<polygon fill="none" stroke="#000000" points="74.0762,-252 74.0762,-271 209.0762,-271 209.0762,-252 74.0762,-252"/>
<text text-anchor="middle" x="141.5762" y="-259" font-family="Helvetica,sans-Serif" font-size="10.00" fill="#000000">src/generator/ma_model.hh</text>
</a>
</g>
</g>
<!-- Node6&#45;&gt;Node16 -->
<g id="edge13" class="edge">
<title>Node6&#45;&gt;Node16</title>
<path fill="none" stroke="#191970" d="M271.4395,-309.838C237.5273,-297.2151 194.1521,-281.0699 167.1128,-271.0053"/>
<polygon fill="#191970" stroke="#191970" points="270.5879,-313.2556 281.1807,-313.4639 273.0299,-306.6953 270.5879,-313.2556"/>
</g>
<!-- Node6&#45;&gt;Node18 -->
<g id="edge17" class="edge">
<title>Node6&#45;&gt;Node18</title>
<path fill="none" stroke="#191970" d="M360.4575,-308.9132C380.8406,-298.645 405.4334,-286.2561 424.3679,-276.7177"/>
<polygon fill="#191970" stroke="#191970" points="358.7802,-305.8391 351.424,-313.4639 361.9295,-312.0906 358.7802,-305.8391"/>
</g>
<!-- Node8 -->
<g id="node5" class="node">
<title>Node8</title>
<g id="a_node5"><a xlink:href="register__all_8hh.html" target="_top" xlink:title="src/register_all.hh">
<polygon fill="none" stroke="#000000" points="114.5762,-118 114.5762,-137 208.5762,-137 208.5762,-118 114.5762,-118"/>
<text text-anchor="middle" x="161.5762" y="-125" font-family="Helvetica,sans-Serif" font-size="10.00" fill="#000000">src/register_all.hh</text>
</a>
</g>
</g>
<!-- Node7&#45;&gt;Node8 -->
<g id="edge4" class="edge">
<title>Node7&#45;&gt;Node8</title>
<path fill="none" stroke="#191970" d="M361.2275,-248.36C399.6324,-233.5551 448.7758,-207.7714 424.5762,-179 394.5223,-143.2682 263.13,-153.2397 217.5762,-143 209.8993,-141.2744 201.7018,-139.1613 194.0136,-137.0572"/>
<polygon fill="#191970" stroke="#191970" points="359.9011,-245.119 351.7461,-251.8826 362.339,-251.6808 359.9011,-245.119"/>
</g>
<!-- Node13 -->
<g id="node10" class="node">
<title>Node13</title>
<g id="a_node10"><a xlink:href="arma__model_8hh.html" target="_top" xlink:title="src/generator/arma\l_model.hh">
<polygon fill="none" stroke="#000000" points="169.5762,-179.5 169.5762,-209.5 267.5762,-209.5 267.5762,-179.5 169.5762,-179.5"/>
<text text-anchor="start" x="177.5762" y="-197.5" font-family="Helvetica,sans-Serif" font-size="10.00" fill="#000000">src/generator/arma</text>
<text text-anchor="middle" x="218.5762" y="-186.5" font-family="Helvetica,sans-Serif" font-size="10.00" fill="#000000">_model.hh</text>
</a>
</g>
</g>
<!-- Node7&#45;&gt;Node13 -->
<g id="edge9" class="edge">
<title>Node7&#45;&gt;Node13</title>
<path fill="none" stroke="#191970" d="M298.0958,-246.2263C281.1881,-235.2281 258.4877,-220.4618 241.6694,-209.5218"/>
<polygon fill="#191970" stroke="#191970" points="296.5278,-249.3817 306.8188,-251.9005 300.3447,-243.5138 296.5278,-249.3817"/>
</g>
<!-- Node15 -->
<g id="node12" class="node">
<title>Node15</title>
<g id="a_node12"><a xlink:href="ar__model_8cc.html" target="_top" xlink:title="src/generator/ar_model.cc">
<polygon fill="none" stroke="#000000" points="285.5762,-185 285.5762,-204 415.5762,-204 415.5762,-185 285.5762,-185"/>
<text text-anchor="middle" x="350.5762" y="-192" font-family="Helvetica,sans-Serif" font-size="10.00" fill="#000000">src/generator/ar_model.cc</text>
</a>
</g>
</g>
<!-- Node7&#45;&gt;Node15 -->
<g id="edge12" class="edge">
<title>Node7&#45;&gt;Node15</title>
<path fill="none" stroke="#191970" d="M329.8595,-242.3628C335.2779,-229.8444 342.125,-214.0252 346.4289,-204.0817"/>
<polygon fill="#191970" stroke="#191970" points="326.4915,-241.333 325.7312,-251.9005 332.9155,-244.1136 326.4915,-241.333"/>
</g>
<!-- Node9 -->
<g id="node6" class="node">
<title>Node9</title>
<g id="a_node6"><a xlink:href="common__main_8hh.html" target="_top" xlink:title="src/common_main.hh">
<polygon fill="none" stroke="#000000" points="52.5762,-56.5 52.5762,-75.5 162.5762,-75.5 162.5762,-56.5 52.5762,-56.5"/>
<text text-anchor="middle" x="107.5762" y="-63.5" font-family="Helvetica,sans-Serif" font-size="10.00" fill="#000000">src/common_main.hh</text>
</a>
</g>
</g>
<!-- Node8&#45;&gt;Node9 -->
<g id="edge5" class="edge">
<title>Node8&#45;&gt;Node9</title>
<path fill="none" stroke="#191970" d="M146.2757,-110.0744C136.5094,-98.9517 124.2112,-84.9454 116.1327,-75.7449"/>
<polygon fill="#191970" stroke="#191970" points="143.9106,-112.6855 153.1387,-117.8906 149.1707,-108.0669 143.9106,-112.6855"/>
</g>
<!-- Node12 -->
<g id="node9" class="node">
<title>Node12</title>
<g id="a_node9"><a xlink:href="visual_8cc.html" target="_top" xlink:title="src/visual.cc">
<polygon fill="none" stroke="#000000" points="180.5762,-56.5 180.5762,-75.5 252.5762,-75.5 252.5762,-56.5 180.5762,-56.5"/>
<text text-anchor="middle" x="216.5762" y="-63.5" font-family="Helvetica,sans-Serif" font-size="10.00" fill="#000000">src/visual.cc</text>
</a>
</g>
</g>
<!-- Node8&#45;&gt;Node12 -->
<g id="edge8" class="edge">
<title>Node8&#45;&gt;Node12</title>
<path fill="none" stroke="#191970" d="M176.8683,-110.4007C186.8612,-99.2268 199.5525,-85.0356 207.8613,-75.7449"/>
<polygon fill="#191970" stroke="#191970" points="174.2273,-108.1034 170.17,-117.8906 179.4451,-112.7698 174.2273,-108.1034"/>
</g>
<!-- Node10 -->
<g id="node7" class="node">
<title>Node10</title>
<g id="a_node7"><a xlink:href="arma__main_8cc.html" target="_top" xlink:title="src/arma_main.cc">
<polygon fill="none" stroke="#000000" points=".0762,-.5 .0762,-19.5 95.0762,-19.5 95.0762,-.5 .0762,-.5"/>
<text text-anchor="middle" x="47.5762" y="-7.5" font-family="Helvetica,sans-Serif" font-size="10.00" fill="#000000">src/arma_main.cc</text>
</a>
</g>
</g>
<!-- Node9&#45;&gt;Node10 -->
<g id="edge6" class="edge">
<title>Node9&#45;&gt;Node10</title>
<path fill="none" stroke="#191970" d="M89.7484,-49.3607C79.3684,-39.6727 66.6472,-27.7995 57.9077,-19.6427"/>
<polygon fill="#191970" stroke="#191970" points="87.4263,-51.981 97.125,-56.2455 92.2026,-46.8636 87.4263,-51.981"/>
</g>
<!-- Node11 -->
<g id="node8" class="node">
<title>Node11</title>
<g id="a_node8"><a xlink:href="arma__realtime_8cc.html" target="_top" xlink:title="src/arma_realtime.cc">
<polygon fill="none" stroke="#000000" points="113.5762,-.5 113.5762,-19.5 221.5762,-19.5 221.5762,-.5 113.5762,-.5"/>
<text text-anchor="middle" x="167.5762" y="-7.5" font-family="Helvetica,sans-Serif" font-size="10.00" fill="#000000">src/arma_realtime.cc</text>
</a>
</g>
</g>
<!-- Node9&#45;&gt;Node11 -->
<g id="edge7" class="edge">
<title>Node9&#45;&gt;Node11</title>
<path fill="none" stroke="#191970" d="M125.404,-49.3607C135.7841,-39.6727 148.5053,-27.7995 157.2448,-19.6427"/>
<polygon fill="#191970" stroke="#191970" points="122.9499,-46.8636 118.0274,-56.2455 127.7261,-51.981 122.9499,-46.8636"/>
</g>
<!-- Node13&#45;&gt;Node8 -->
<g id="edge10" class="edge">
<title>Node13&#45;&gt;Node8</title>
<path fill="none" stroke="#191970" d="M199.0305,-171.5252C188.9988,-159.7336 177.3197,-146.0055 169.7051,-137.055"/>
<polygon fill="#191970" stroke="#191970" points="196.4964,-173.948 205.642,-179.2967 201.828,-169.4121 196.4964,-173.948"/>
</g>
<!-- Node14 -->
<g id="node11" class="node">
<title>Node14</title>
<g id="a_node11"><a xlink:href="arma__model_8cc.html" target="_top" xlink:title="src/generator/arma\l_model.cc">
<polygon fill="none" stroke="#000000" points="226.5762,-112.5 226.5762,-142.5 324.5762,-142.5 324.5762,-112.5 226.5762,-112.5"/>
<text text-anchor="start" x="234.5762" y="-130.5" font-family="Helvetica,sans-Serif" font-size="10.00" fill="#000000">src/generator/arma</text>
<text text-anchor="middle" x="275.5762" y="-119.5" font-family="Helvetica,sans-Serif" font-size="10.00" fill="#000000">_model.cc</text>
</a>
</g>
</g>
<!-- Node13&#45;&gt;Node14 -->
<g id="edge11" class="edge">
<title>Node13&#45;&gt;Node14</title>
<path fill="none" stroke="#191970" d="M238.0256,-171.6385C246.17,-162.0653 255.4146,-151.1987 262.6932,-142.6432"/>
<polygon fill="#191970" stroke="#191970" points="235.3244,-169.4121 231.5104,-179.2967 240.656,-173.948 235.3244,-169.4121"/>
</g>
<!-- Node16&#45;&gt;Node8 -->
<g id="edge14" class="edge">
<title>Node16&#45;&gt;Node8</title>
<path fill="none" stroke="#191970" d="M83.8883,-249.3398C36.7241,-236.6185 -18.4055,-213.625 6.5762,-179 19.4345,-161.1783 73.544,-146.0581 114.2384,-136.9013"/>
<polygon fill="#191970" stroke="#191970" points="83.2426,-252.7878 93.8001,-251.899 84.9926,-246.0101 83.2426,-252.7878"/>
</g>
<!-- Node16&#45;&gt;Node13 -->
<g id="edge15" class="edge">
<title>Node16&#45;&gt;Node13</title>
<path fill="none" stroke="#191970" d="M160.1927,-245.3012C172.7087,-234.4107 189.0887,-220.1579 201.3124,-209.5218"/>
<polygon fill="#191970" stroke="#191970" points="157.8549,-242.6959 152.6085,-251.9005 162.4499,-247.9767 157.8549,-242.6959"/>
</g>
<!-- Node17 -->
<g id="node14" class="node">
<title>Node17</title>
<g id="a_node14"><a xlink:href="ma__model_8cc.html" target="_top" xlink:title="src/generator/ma_model.cc">
<polygon fill="none" stroke="#000000" points="16.0762,-185 16.0762,-204 151.0762,-204 151.0762,-185 16.0762,-185"/>
<text text-anchor="middle" x="83.5762" y="-192" font-family="Helvetica,sans-Serif" font-size="10.00" fill="#000000">src/generator/ma_model.cc</text>
</a>
</g>
</g>
<!-- Node16&#45;&gt;Node17 -->
<g id="edge16" class="edge">
<title>Node16&#45;&gt;Node17</title>
<path fill="none" stroke="#191970" d="M126.6128,-244.2147C115.555,-231.441 100.909,-214.5224 91.8708,-204.0817"/>
<polygon fill="#191970" stroke="#191970" points="124.075,-246.6307 133.2662,-251.9005 129.3674,-242.0491 124.075,-246.6307"/>
</g>
<!-- Node21 -->
<g id="node18" class="node">
<title>Node21</title>
<g id="a_node18"><a xlink:href="basic__arma__model__verify_8cc.html" target="_top" xlink:title="src/generator/basic\l_arma_model_verify.cc">
<polygon fill="none" stroke="#000000" points="729.0762,-313.5 729.0762,-343.5 846.0762,-343.5 846.0762,-313.5 729.0762,-313.5"/>
<text text-anchor="start" x="737.0762" y="-331.5" font-family="Helvetica,sans-Serif" font-size="10.00" fill="#000000">src/generator/basic</text>
<text text-anchor="middle" x="787.5762" y="-320.5" font-family="Helvetica,sans-Serif" font-size="10.00" fill="#000000">_arma_model_verify.cc</text>
</a>
</g>
</g>
<!-- Node20&#45;&gt;Node21 -->
<g id="edge21" class="edge">
<title>Node20&#45;&gt;Node21</title>
<path fill="none" stroke="#191970" d="M720.1364,-374.5839C734.0325,-365.0882 751.7655,-352.9707 765.5598,-343.5446"/>
<polygon fill="#191970" stroke="#191970" points="717.9205,-371.8589 711.6387,-380.3906 721.8699,-377.6384 717.9205,-371.8589"/>
</g>
<!-- Node22 -->
<g id="node19" class="node">
<title>Node22</title>
<g id="a_node19"><a xlink:href="distribution_8cc.html" target="_top" xlink:title="src/stats/distribution.cc">
<polygon fill="none" stroke="#000000" points="592.0762,-319 592.0762,-338 711.0762,-338 711.0762,-319 592.0762,-319"/>
<text text-anchor="middle" x="651.5762" y="-326" font-family="Helvetica,sans-Serif" font-size="10.00" fill="#000000">src/stats/distribution.cc</text>
</a>
</g>
</g>
<!-- Node20&#45;&gt;Node22 -->
<g id="edge23" class="edge">
<title>Node20&#45;&gt;Node22</title>
<path fill="none" stroke="#191970" d="M684.2972,-372.2465C676.018,-361.1775 665.6793,-347.3552 658.8651,-338.2449"/>
<polygon fill="#191970" stroke="#191970" points="681.5964,-374.4792 690.3887,-380.3906 687.2019,-370.2864 681.5964,-374.4792"/>
</g>
<!-- Node21&#45;&gt;Node18 -->
<g id="edge22" class="edge">
<title>Node21&#45;&gt;Node18</title>
<path fill="none" stroke="#191970" d="M718.5211,-312.599C638.4701,-295.7257 556.049,-280.141 504.6914,-270.6447"/>
<polygon fill="#191970" stroke="#191970" points="718.2687,-316.1231 728.7768,-314.7707 719.7189,-309.275 718.2687,-316.1231"/>
</g>
<!-- Node23&#45;&gt;Node5 -->
<g id="edge25" class="edge">
<title>Node23&#45;&gt;Node5</title>
<path fill="none" stroke="#191970" d="M519.1478,-432.9231C490.6302,-422.686 451.6381,-408.6889 426.0436,-399.5011"/>
<polygon fill="#191970" stroke="#191970" points="518.1644,-436.2887 528.7589,-436.3733 520.5295,-429.7004 518.1644,-436.2887"/>
</g>
<!-- Node23&#45;&gt;Node20 -->
<g id="edge26" class="edge">
<title>Node23&#45;&gt;Node20</title>
<path fill="none" stroke="#191970" d="M589.4177,-432.6541C615.3128,-422.4419 650.39,-408.6086 673.4841,-399.5011"/>
<polygon fill="#191970" stroke="#191970" points="588.0056,-429.4486 579.9869,-436.3733 590.5737,-435.9605 588.0056,-429.4486"/>
</g>
<!-- Node24 -->
<g id="node21" class="node">
<title>Node24</title>
<g id="a_node21"><a xlink:href="skew__normal_8cc.html" target="_top" xlink:title="src/stats/skew_normal.cc">
<polygon fill="none" stroke="#000000" points="491.0762,-380.5 491.0762,-399.5 620.0762,-399.5 620.0762,-380.5 491.0762,-380.5"/>
<text text-anchor="middle" x="555.5762" y="-387.5" font-family="Helvetica,sans-Serif" font-size="10.00" fill="#000000">src/stats/skew_normal.cc</text>
</a>
</g>
</g>
<!-- Node23&#45;&gt;Node24 -->
<g id="edge27" class="edge">
<title>Node23&#45;&gt;Node24</title>
<path fill="none" stroke="#191970" d="M555.5762,-426.1575C555.5762,-417.155 555.5762,-406.9199 555.5762,-399.6427"/>
<polygon fill="#191970" stroke="#191970" points="552.0763,-426.2455 555.5762,-436.2455 559.0763,-426.2456 552.0763,-426.2455"/>
</g>
</g>
</svg>
