<?xml version="1.0" encoding="UTF-8" standalone="no"?>
<!DOCTYPE svg PUBLIC "-//W3C//DTD SVG 1.1//EN"
 "http://www.w3.org/Graphics/SVG/1.1/DTD/svg11.dtd">
<!-- Generated by graphviz version 2.40.1 (20161225.0304)
 -->
<!-- Title: src/stats/gaussian.cc Pages: 1 -->
<svg width="455pt" height="140pt"
 viewBox="0.00 0.00 455.00 140.00" xmlns="http://www.w3.org/2000/svg" xmlns:xlink="http://www.w3.org/1999/xlink">
<g id="graph0" class="graph" transform="scale(1 1) rotate(0) translate(4 136)">
<title>src/stats/gaussian.cc</title>
<!-- Node0 -->
<g id="node1" class="node">
<title>Node0</title>
<polygon fill="#bfbfbf" stroke="#000000" points="120.5,-112.5 120.5,-131.5 230.5,-131.5 230.5,-112.5 120.5,-112.5"/>
<text text-anchor="middle" x="175.5" y="-119.5" font-family="Helvetica,sans-Serif" font-size="10.00" fill="#000000">src/stats/gaussian.cc</text>
</g>
<!-- Node1 -->
<g id="node2" class="node">
<title>Node1</title>
<g id="a_node2"><a xlink:href="gaussian_8hh.html" target="_top" xlink:title="gaussian.hh">
<polygon fill="none" stroke="#000000" points="99,-56.5 99,-75.5 168,-75.5 168,-56.5 99,-56.5"/>
<text text-anchor="middle" x="133.5" y="-63.5" font-family="Helvetica,sans-Serif" font-size="10.00" fill="#000000">gaussian.hh</text>
</a>
</g>
</g>
<!-- Node0&#45;&gt;Node1 -->
<g id="edge1" class="edge">
<title>Node0&#45;&gt;Node1</title>
<path fill="none" stroke="#191970" d="M168.1842,-112.2455C162.2821,-104.3761 153.8258,-93.101 146.7406,-83.6542"/>
<polygon fill="#191970" stroke="#191970" points="149.5321,-81.5427 140.732,-75.6427 143.932,-85.7427 149.5321,-81.5427"/>
</g>
<!-- Node5 -->
<g id="node6" class="node">
<title>Node5</title>
<g id="a_node6"><a xlink:href="params_8hh.html" target="_top" xlink:title="params.hh">
<polygon fill="none" stroke="#000000" points="260.5,-56.5 260.5,-75.5 322.5,-75.5 322.5,-56.5 260.5,-56.5"/>
<text text-anchor="middle" x="291.5" y="-63.5" font-family="Helvetica,sans-Serif" font-size="10.00" fill="#000000">params.hh</text>
</a>
</g>
</g>
<!-- Node0&#45;&gt;Node5 -->
<g id="edge5" class="edge">
<title>Node0&#45;&gt;Node5</title>
<path fill="none" stroke="#191970" d="M195.4411,-112.3733C213.9786,-103.4241 241.8028,-89.9917 262.7413,-79.8835"/>
<polygon fill="#191970" stroke="#191970" points="264.3352,-83.0006 271.8191,-75.5011 261.2919,-76.6967 264.3352,-83.0006"/>
</g>
<!-- Node2 -->
<g id="node3" class="node">
<title>Node2</title>
<polygon fill="none" stroke="#bfbfbf" points="0,-.5 0,-19.5 49,-19.5 49,-.5 0,-.5"/>
<text text-anchor="middle" x="24.5" y="-7.5" font-family="Helvetica,sans-Serif" font-size="10.00" fill="#000000">istream</text>
</g>
<!-- Node1&#45;&gt;Node2 -->
<g id="edge2" class="edge">
<title>Node1&#45;&gt;Node2</title>
<path fill="none" stroke="#191970" d="M114.5136,-56.2455C97.3208,-47.4125 71.7762,-34.2887 52.2868,-24.2758"/>
<polygon fill="#191970" stroke="#191970" points="53.763,-21.0993 43.2688,-19.6427 50.5641,-27.3257 53.763,-21.0993"/>
</g>
<!-- Node3 -->
<g id="node4" class="node">
<title>Node3</title>
<polygon fill="none" stroke="#bfbfbf" points="67.5,-.5 67.5,-19.5 119.5,-19.5 119.5,-.5 67.5,-.5"/>
<text text-anchor="middle" x="93.5" y="-7.5" font-family="Helvetica,sans-Serif" font-size="10.00" fill="#000000">ostream</text>
</g>
<!-- Node1&#45;&gt;Node3 -->
<g id="edge3" class="edge">
<title>Node1&#45;&gt;Node3</title>
<path fill="none" stroke="#191970" d="M126.5325,-56.2455C120.9689,-48.4564 113.022,-37.3308 106.3171,-27.9439"/>
<polygon fill="#191970" stroke="#191970" points="109.0481,-25.7457 100.3876,-19.6427 103.352,-29.8144 109.0481,-25.7457"/>
</g>
<!-- Node4 -->
<g id="node5" class="node">
<title>Node4</title>
<polygon fill="none" stroke="#bfbfbf" points="137.5,-.5 137.5,-19.5 209.5,-19.5 209.5,-.5 137.5,-.5"/>
<text text-anchor="middle" x="173.5" y="-7.5" font-family="Helvetica,sans-Serif" font-size="10.00" fill="#000000">gsl/gsl_cdf.h</text>
</g>
<!-- Node1&#45;&gt;Node4 -->
<g id="edge4" class="edge">
<title>Node1&#45;&gt;Node4</title>
<path fill="none" stroke="#191970" d="M140.4675,-56.2455C146.0311,-48.4564 153.978,-37.3308 160.6829,-27.9439"/>
<polygon fill="#191970" stroke="#191970" points="163.648,-29.8144 166.6124,-19.6427 157.9519,-25.7457 163.648,-29.8144"/>
</g>
<!-- Node6 -->
<g id="node7" class="node">
<title>Node6</title>
<polygon fill="none" stroke="#bfbfbf" points="228,-.5 228,-19.5 287,-19.5 287,-.5 228,-.5"/>
<text text-anchor="middle" x="257.5" y="-7.5" font-family="Helvetica,sans-Serif" font-size="10.00" fill="#000000">functional</text>
</g>
<!-- Node5&#45;&gt;Node6 -->
<g id="edge6" class="edge">
<title>Node5&#45;&gt;Node6</title>
<path fill="none" stroke="#191970" d="M285.5777,-56.2455C280.8973,-48.5367 274.2327,-37.5598 268.5711,-28.2348"/>
<polygon fill="#191970" stroke="#191970" points="271.5361,-26.3741 263.3545,-19.6427 265.5525,-30.007 271.5361,-26.3741"/>
</g>
<!-- Node7 -->
<g id="node8" class="node">
<title>Node7</title>
<polygon fill="none" stroke="#bfbfbf" points="305,-.5 305,-19.5 346,-19.5 346,-.5 305,-.5"/>
<text text-anchor="middle" x="325.5" y="-7.5" font-family="Helvetica,sans-Serif" font-size="10.00" fill="#000000">string</text>
</g>
<!-- Node5&#45;&gt;Node7 -->
<g id="edge7" class="edge">
<title>Node5&#45;&gt;Node7</title>
<path fill="none" stroke="#191970" d="M297.4223,-56.2455C302.1027,-48.5367 308.7673,-37.5598 314.4289,-28.2348"/>
<polygon fill="#191970" stroke="#191970" points="317.4475,-30.007 319.6455,-19.6427 311.4639,-26.3741 317.4475,-30.007"/>
</g>
<!-- Node8 -->
<g id="node9" class="node">
<title>Node8</title>
<polygon fill="none" stroke="#bfbfbf" points="364,-.5 364,-19.5 447,-19.5 447,-.5 364,-.5"/>
<text text-anchor="middle" x="405.5" y="-7.5" font-family="Helvetica,sans-Serif" font-size="10.00" fill="#000000">unordered_map</text>
</g>
<!-- Node5&#45;&gt;Node8 -->
<g id="edge8" class="edge">
<title>Node5&#45;&gt;Node8</title>
<path fill="none" stroke="#191970" d="M311.0973,-56.3733C329.2331,-47.4644 356.4135,-34.1127 376.9587,-24.0203"/>
<polygon fill="#191970" stroke="#191970" points="378.7261,-27.0517 386.1584,-19.5011 375.6397,-20.7688 378.7261,-27.0517"/>
</g>
</g>
</svg>
