<?xml version="1.0" encoding="UTF-8" standalone="no"?>
<!DOCTYPE svg PUBLIC "-//W3C//DTD SVG 1.1//EN"
 "http://www.w3.org/Graphics/SVG/1.1/DTD/svg11.dtd">
<!-- Generated by graphviz version 2.36.0 (20140111.2315)
 -->
<!-- Title: /home/travis/build/igankevich/arma/src/opencl/gl_object_guard.cc Pages: 1 -->
<svg width="157pt" height="274pt"
 viewBox="0.00 0.00 157.00 274.00" xmlns="http://www.w3.org/2000/svg" xmlns:xlink="http://www.w3.org/1999/xlink">
<g id="graph0" class="graph" transform="scale(1 1) rotate(0) translate(4 270)">
<title>/home/travis/build/igankevich/arma/src/opencl/gl_object_guard.cc</title>
<!-- Node1 -->
<g id="node1" class="node"><title>Node1</title>
<polygon fill="#bfbfbf" stroke="black" points="11.5,-224.5 11.5,-265.5 144.5,-265.5 144.5,-224.5 11.5,-224.5"/>
<text text-anchor="start" x="19.5" y="-253.5" font-family="Helvetica,sans-Serif" font-size="10.00">/home/travis/build</text>
<text text-anchor="start" x="19.5" y="-242.5" font-family="Helvetica,sans-Serif" font-size="10.00">/igankevich/arma/src</text>
<text text-anchor="middle" x="78" y="-231.5" font-family="Helvetica,sans-Serif" font-size="10.00">/opencl/gl_object_guard.cc</text>
</g>
<!-- Node2 -->
<g id="node2" class="node"><title>Node2</title>
<g id="a_node2"><a xlink:href="gl__object__guard_8hh.html" target="_top" xlink:title="gl_object_guard.hh">
<polygon fill="none" stroke="black" points="29,-168.5 29,-187.5 127,-187.5 127,-168.5 29,-168.5"/>
<text text-anchor="middle" x="78" y="-175.5" font-family="Helvetica,sans-Serif" font-size="10.00">gl_object_guard.hh</text>
</a>
</g>
</g>
<!-- Node1&#45;&gt;Node2 -->
<g id="edge1" class="edge"><title>Node1&#45;&gt;Node2</title>
<path fill="none" stroke="midnightblue" d="M78,-224.498C78,-216.065 78,-206.235 78,-197.874"/>
<polygon fill="midnightblue" stroke="midnightblue" points="81.5001,-197.652 78,-187.652 74.5001,-197.653 81.5001,-197.652"/>
</g>
<!-- Node3 -->
<g id="node3" class="node"><title>Node3</title>
<polygon fill="none" stroke="#bfbfbf" points="-0.5,-112.5 -0.5,-131.5 72.5,-131.5 72.5,-112.5 -0.5,-112.5"/>
<text text-anchor="middle" x="36" y="-119.5" font-family="Helvetica,sans-Serif" font-size="10.00">initializer_list</text>
</g>
<!-- Node2&#45;&gt;Node3 -->
<g id="edge2" class="edge"><title>Node2&#45;&gt;Node3</title>
<path fill="none" stroke="midnightblue" d="M71.0646,-168.083C65.0708,-160.377 56.2482,-149.033 48.9524,-139.653"/>
<polygon fill="midnightblue" stroke="midnightblue" points="51.7086,-137.496 42.8064,-131.751 46.1831,-141.793 51.7086,-137.496"/>
</g>
<!-- Node4 -->
<g id="node4" class="node"><title>Node4</title>
<g id="a_node4"><a xlink:href="opencl_8hh.html" target="_top" xlink:title="opencl.hh">
<polygon fill="none" stroke="black" points="90.5,-112.5 90.5,-131.5 149.5,-131.5 149.5,-112.5 90.5,-112.5"/>
<text text-anchor="middle" x="120" y="-119.5" font-family="Helvetica,sans-Serif" font-size="10.00">opencl.hh</text>
</a>
</g>
</g>
<!-- Node2&#45;&gt;Node4 -->
<g id="edge3" class="edge"><title>Node2&#45;&gt;Node4</title>
<path fill="none" stroke="midnightblue" d="M84.9354,-168.083C90.9292,-160.377 99.7518,-149.033 107.048,-139.653"/>
<polygon fill="midnightblue" stroke="midnightblue" points="109.817,-141.793 113.194,-131.751 104.291,-137.496 109.817,-141.793"/>
</g>
<!-- Node5 -->
<g id="node5" class="node"><title>Node5</title>
<g id="a_node5"><a xlink:href="cl_8hh_source.html" target="_top" xlink:title="cl.hh">
<polygon fill="none" stroke="black" points="101,-56.5 101,-75.5 139,-75.5 139,-56.5 101,-56.5"/>
<text text-anchor="middle" x="120" y="-63.5" font-family="Helvetica,sans-Serif" font-size="10.00">cl.hh</text>
</a>
</g>
</g>
<!-- Node4&#45;&gt;Node5 -->
<g id="edge4" class="edge"><title>Node4&#45;&gt;Node5</title>
<path fill="none" stroke="midnightblue" d="M120,-112.083C120,-105.006 120,-94.8611 120,-85.9865"/>
<polygon fill="midnightblue" stroke="midnightblue" points="123.5,-85.751 120,-75.7511 116.5,-85.7511 123.5,-85.751"/>
</g>
<!-- Node6 -->
<g id="node6" class="node"><title>Node6</title>
<polygon fill="none" stroke="#bfbfbf" points="90.5,-0.5 90.5,-19.5 149.5,-19.5 149.5,-0.5 90.5,-0.5"/>
<text text-anchor="middle" x="120" y="-7.5" font-family="Helvetica,sans-Serif" font-size="10.00">CL/cl.hpp</text>
</g>
<!-- Node5&#45;&gt;Node6 -->
<g id="edge5" class="edge"><title>Node5&#45;&gt;Node6</title>
<path fill="none" stroke="midnightblue" d="M120,-56.083C120,-49.0059 120,-38.8611 120,-29.9865"/>
<polygon fill="midnightblue" stroke="midnightblue" points="123.5,-29.751 120,-19.7511 116.5,-29.7511 123.5,-29.751"/>
</g>
</g>
</svg>
