<?xml version="1.0" encoding="UTF-8" standalone="no"?>
<!DOCTYPE svg PUBLIC "-//W3C//DTD SVG 1.1//EN"
 "http://www.w3.org/Graphics/SVG/1.1/DTD/svg11.dtd">
<!-- Generated by graphviz version 2.40.1 (20161225.0304)
 -->
<!-- Title: src/opencl/gl_object_guard.cc Pages: 1 -->
<svg width="158pt" height="263pt"
 viewBox="0.00 0.00 158.00 263.00" xmlns="http://www.w3.org/2000/svg" xmlns:xlink="http://www.w3.org/1999/xlink">
<g id="graph0" class="graph" transform="scale(1 1) rotate(0) translate(4 259)">
<title>src/opencl/gl_object_guard.cc</title>
<!-- Node0 -->
<g id="node1" class="node">
<title>Node0</title>
<polygon fill="#bfbfbf" stroke="#000000" points="26.5,-224.5 26.5,-254.5 130.5,-254.5 130.5,-224.5 26.5,-224.5"/>
<text text-anchor="start" x="34.5" y="-242.5" font-family="Helvetica,sans-Serif" font-size="10.00" fill="#000000">src/opencl/gl_object</text>
<text text-anchor="middle" x="78.5" y="-231.5" font-family="Helvetica,sans-Serif" font-size="10.00" fill="#000000">_guard.cc</text>
</g>
<!-- Node1 -->
<g id="node2" class="node">
<title>Node1</title>
<g id="a_node2"><a xlink:href="gl__object__guard_8hh.html" target="_top" xlink:title="gl_object_guard.hh">
<polygon fill="none" stroke="#000000" points="29.5,-168.5 29.5,-187.5 127.5,-187.5 127.5,-168.5 29.5,-168.5"/>
<text text-anchor="middle" x="78.5" y="-175.5" font-family="Helvetica,sans-Serif" font-size="10.00" fill="#000000">gl_object_guard.hh</text>
</a>
</g>
</g>
<!-- Node0&#45;&gt;Node1 -->
<g id="edge1" class="edge">
<title>Node0&#45;&gt;Node1</title>
<path fill="none" stroke="#191970" d="M78.5,-224.2977C78.5,-216.3834 78.5,-206.6043 78.5,-198.0759"/>
<polygon fill="#191970" stroke="#191970" points="82.0001,-197.8469 78.5,-187.8469 75.0001,-197.847 82.0001,-197.8469"/>
</g>
<!-- Node2 -->
<g id="node3" class="node">
<title>Node2</title>
<polygon fill="none" stroke="#bfbfbf" points="0,-112.5 0,-131.5 73,-131.5 73,-112.5 0,-112.5"/>
<text text-anchor="middle" x="36.5" y="-119.5" font-family="Helvetica,sans-Serif" font-size="10.00" fill="#000000">initializer_list</text>
</g>
<!-- Node1&#45;&gt;Node2 -->
<g id="edge2" class="edge">
<title>Node1&#45;&gt;Node2</title>
<path fill="none" stroke="#191970" d="M71.1842,-168.2455C65.2821,-160.3761 56.8258,-149.101 49.7406,-139.6542"/>
<polygon fill="#191970" stroke="#191970" points="52.5321,-137.5427 43.732,-131.6427 46.932,-141.7427 52.5321,-137.5427"/>
</g>
<!-- Node3 -->
<g id="node4" class="node">
<title>Node3</title>
<g id="a_node4"><a xlink:href="opencl_8hh.html" target="_top" xlink:title="opencl.hh">
<polygon fill="none" stroke="#000000" points="91,-112.5 91,-131.5 150,-131.5 150,-112.5 91,-112.5"/>
<text text-anchor="middle" x="120.5" y="-119.5" font-family="Helvetica,sans-Serif" font-size="10.00" fill="#000000">opencl.hh</text>
</a>
</g>
</g>
<!-- Node1&#45;&gt;Node3 -->
<g id="edge3" class="edge">
<title>Node1&#45;&gt;Node3</title>
<path fill="none" stroke="#191970" d="M85.8158,-168.2455C91.7179,-160.3761 100.1742,-149.101 107.2594,-139.6542"/>
<polygon fill="#191970" stroke="#191970" points="110.068,-141.7427 113.268,-131.6427 104.4679,-137.5427 110.068,-141.7427"/>
</g>
<!-- Node4 -->
<g id="node5" class="node">
<title>Node4</title>
<g id="a_node5"><a xlink:href="cl_8hh_source.html" target="_top" xlink:title="cl.hh">
<polygon fill="none" stroke="#000000" points="101.5,-56.5 101.5,-75.5 139.5,-75.5 139.5,-56.5 101.5,-56.5"/>
<text text-anchor="middle" x="120.5" y="-63.5" font-family="Helvetica,sans-Serif" font-size="10.00" fill="#000000">cl.hh</text>
</a>
</g>
</g>
<!-- Node3&#45;&gt;Node4 -->
<g id="edge4" class="edge">
<title>Node3&#45;&gt;Node4</title>
<path fill="none" stroke="#191970" d="M120.5,-112.2455C120.5,-104.9382 120.5,-94.6944 120.5,-85.7046"/>
<polygon fill="#191970" stroke="#191970" points="124.0001,-85.6426 120.5,-75.6427 117.0001,-85.6427 124.0001,-85.6426"/>
</g>
<!-- Node5 -->
<g id="node6" class="node">
<title>Node5</title>
<polygon fill="none" stroke="#bfbfbf" points="91,-.5 91,-19.5 150,-19.5 150,-.5 91,-.5"/>
<text text-anchor="middle" x="120.5" y="-7.5" font-family="Helvetica,sans-Serif" font-size="10.00" fill="#000000">CL/cl.hpp</text>
</g>
<!-- Node4&#45;&gt;Node5 -->
<g id="edge5" class="edge">
<title>Node4&#45;&gt;Node5</title>
<path fill="none" stroke="#191970" d="M120.5,-56.2455C120.5,-48.9382 120.5,-38.6944 120.5,-29.7046"/>
<polygon fill="#191970" stroke="#191970" points="124.0001,-29.6426 120.5,-19.6427 117.0001,-29.6427 124.0001,-29.6426"/>
</g>
</g>
</svg>
