<?xml version="1.0" encoding="UTF-8" standalone="no"?>
<!DOCTYPE svg PUBLIC "-//W3C//DTD SVG 1.1//EN"
 "http://www.w3.org/Graphics/SVG/1.1/DTD/svg11.dtd">
<!-- Generated by graphviz version 2.36.0 (20140111.2315)
 -->
<!-- Title: /home/travis/build/igankevich/arma/src/stats/gram_charlier.cc Pages: 1 -->
<svg width="534pt" height="218pt"
 viewBox="0.00 0.00 534.00 218.00" xmlns="http://www.w3.org/2000/svg" xmlns:xlink="http://www.w3.org/1999/xlink">
<g id="graph0" class="graph" transform="scale(1 1) rotate(0) translate(4 214)">
<title>/home/travis/build/igankevich/arma/src/stats/gram_charlier.cc</title>
<!-- Node1 -->
<g id="node1" class="node"><title>Node1</title>
<polygon fill="#bfbfbf" stroke="black" points="184,-168.5 184,-209.5 300,-209.5 300,-168.5 184,-168.5"/>
<text text-anchor="start" x="192" y="-197.5" font-family="Helvetica,sans-Serif" font-size="10.00">/home/travis/build</text>
<text text-anchor="start" x="192" y="-186.5" font-family="Helvetica,sans-Serif" font-size="10.00">/igankevich/arma/src</text>
<text text-anchor="middle" x="242" y="-175.5" font-family="Helvetica,sans-Serif" font-size="10.00">/stats/gram_charlier.cc</text>
</g>
<!-- Node2 -->
<g id="node2" class="node"><title>Node2</title>
<g id="a_node2"><a xlink:href="gram__charlier_8hh.html" target="_top" xlink:title="gram_charlier.hh">
<polygon fill="none" stroke="black" points="102.5,-112.5 102.5,-131.5 191.5,-131.5 191.5,-112.5 102.5,-112.5"/>
<text text-anchor="middle" x="147" y="-119.5" font-family="Helvetica,sans-Serif" font-size="10.00">gram_charlier.hh</text>
</a>
</g>
</g>
<!-- Node1&#45;&gt;Node2 -->
<g id="edge1" class="edge"><title>Node1&#45;&gt;Node2</title>
<path fill="none" stroke="midnightblue" d="M213.497,-168.498C198.932,-158.532 181.513,-146.614 168.158,-137.476"/>
<polygon fill="midnightblue" stroke="midnightblue" points="169.875,-134.411 159.646,-131.652 165.923,-140.188 169.875,-134.411"/>
</g>
<!-- Node7 -->
<g id="node7" class="node"><title>Node7</title>
<g id="a_node7"><a xlink:href="params_8hh.html" target="_top" xlink:title="params.hh">
<polygon fill="none" stroke="black" points="340,-112.5 340,-131.5 402,-131.5 402,-112.5 340,-112.5"/>
<text text-anchor="middle" x="371" y="-119.5" font-family="Helvetica,sans-Serif" font-size="10.00">params.hh</text>
</a>
</g>
</g>
<!-- Node1&#45;&gt;Node7 -->
<g id="edge7" class="edge"><title>Node1&#45;&gt;Node7</title>
<path fill="none" stroke="midnightblue" d="M280.704,-168.498C301.433,-158.053 326.418,-145.464 344.846,-136.178"/>
<polygon fill="midnightblue" stroke="midnightblue" points="346.473,-139.278 353.828,-131.652 343.323,-133.027 346.473,-139.278"/>
</g>
<!-- Node3 -->
<g id="node3" class="node"><title>Node3</title>
<polygon fill="none" stroke="#bfbfbf" points="-0.5,-56.5 -0.5,-75.5 48.5,-75.5 48.5,-56.5 -0.5,-56.5"/>
<text text-anchor="middle" x="24" y="-63.5" font-family="Helvetica,sans-Serif" font-size="10.00">istream</text>
</g>
<!-- Node2&#45;&gt;Node3 -->
<g id="edge2" class="edge"><title>Node2&#45;&gt;Node3</title>
<path fill="none" stroke="midnightblue" d="M127.51,-112.444C107.358,-103.596 75.6771,-89.6875 52.6692,-79.5865"/>
<polygon fill="midnightblue" stroke="midnightblue" points="53.962,-76.3316 43.3985,-75.5164 51.148,-82.7411 53.962,-76.3316"/>
</g>
<!-- Node4 -->
<g id="node4" class="node"><title>Node4</title>
<polygon fill="none" stroke="#bfbfbf" points="67,-56.5 67,-75.5 119,-75.5 119,-56.5 67,-56.5"/>
<text text-anchor="middle" x="93" y="-63.5" font-family="Helvetica,sans-Serif" font-size="10.00">ostream</text>
</g>
<!-- Node2&#45;&gt;Node4 -->
<g id="edge3" class="edge"><title>Node2&#45;&gt;Node4</title>
<path fill="none" stroke="midnightblue" d="M138.083,-112.083C130.22,-104.22 118.569,-92.5688 109.081,-83.0813"/>
<polygon fill="midnightblue" stroke="midnightblue" points="111.297,-80.3473 101.751,-75.7511 106.347,-85.2971 111.297,-80.3473"/>
</g>
<!-- Node5 -->
<g id="node5" class="node"><title>Node5</title>
<polygon fill="none" stroke="#bfbfbf" points="167,-0.5 167,-19.5 211,-19.5 211,-0.5 167,-0.5"/>
<text text-anchor="middle" x="189" y="-7.5" font-family="Helvetica,sans-Serif" font-size="10.00">cmath</text>
</g>
<!-- Node2&#45;&gt;Node5 -->
<g id="edge4" class="edge"><title>Node2&#45;&gt;Node5</title>
<path fill="none" stroke="midnightblue" d="M148.962,-112.415C151.964,-99.8112 158.181,-75.6651 166,-56 169.687,-46.726 174.639,-36.809 179.003,-28.6514"/>
<polygon fill="midnightblue" stroke="midnightblue" points="182.155,-30.1834 183.911,-19.735 176.023,-26.808 182.155,-30.1834"/>
</g>
<!-- Node6 -->
<g id="node6" class="node"><title>Node6</title>
<g id="a_node6"><a xlink:href="physical__constants_8hh.html" target="_top" xlink:title="physical_constants.hh">
<polygon fill="none" stroke="black" points="175,-56.5 175,-75.5 289,-75.5 289,-56.5 175,-56.5"/>
<text text-anchor="middle" x="232" y="-63.5" font-family="Helvetica,sans-Serif" font-size="10.00">physical_constants.hh</text>
</a>
</g>
</g>
<!-- Node2&#45;&gt;Node6 -->
<g id="edge5" class="edge"><title>Node2&#45;&gt;Node6</title>
<path fill="none" stroke="midnightblue" d="M160.657,-112.324C173.916,-103.9 194.268,-90.9709 209.846,-81.0741"/>
<polygon fill="midnightblue" stroke="midnightblue" points="211.813,-83.9711 218.377,-75.6545 208.06,-78.0626 211.813,-83.9711"/>
</g>
<!-- Node6&#45;&gt;Node5 -->
<g id="edge6" class="edge"><title>Node6&#45;&gt;Node5</title>
<path fill="none" stroke="midnightblue" d="M224.899,-56.083C218.763,-48.3768 209.73,-37.0333 202.261,-27.6531"/>
<polygon fill="midnightblue" stroke="midnightblue" points="204.936,-25.3936 195.968,-19.7511 199.46,-29.7542 204.936,-25.3936"/>
</g>
<!-- Node8 -->
<g id="node8" class="node"><title>Node8</title>
<polygon fill="none" stroke="#bfbfbf" points="307.5,-56.5 307.5,-75.5 366.5,-75.5 366.5,-56.5 307.5,-56.5"/>
<text text-anchor="middle" x="337" y="-63.5" font-family="Helvetica,sans-Serif" font-size="10.00">functional</text>
</g>
<!-- Node7&#45;&gt;Node8 -->
<g id="edge8" class="edge"><title>Node7&#45;&gt;Node8</title>
<path fill="none" stroke="midnightblue" d="M365.386,-112.083C360.633,-104.534 353.682,-93.4948 347.848,-84.2298"/>
<polygon fill="midnightblue" stroke="midnightblue" points="350.8,-82.3486 342.51,-75.7511 344.876,-86.0783 350.8,-82.3486"/>
</g>
<!-- Node9 -->
<g id="node9" class="node"><title>Node9</title>
<polygon fill="none" stroke="#bfbfbf" points="384.5,-56.5 384.5,-75.5 425.5,-75.5 425.5,-56.5 384.5,-56.5"/>
<text text-anchor="middle" x="405" y="-63.5" font-family="Helvetica,sans-Serif" font-size="10.00">string</text>
</g>
<!-- Node7&#45;&gt;Node9 -->
<g id="edge9" class="edge"><title>Node7&#45;&gt;Node9</title>
<path fill="none" stroke="midnightblue" d="M376.614,-112.083C381.367,-104.534 388.318,-93.4948 394.152,-84.2298"/>
<polygon fill="midnightblue" stroke="midnightblue" points="397.124,-86.0783 399.49,-75.7511 391.2,-82.3486 397.124,-86.0783"/>
</g>
<!-- Node10 -->
<g id="node10" class="node"><title>Node10</title>
<polygon fill="none" stroke="#bfbfbf" points="443.5,-56.5 443.5,-75.5 526.5,-75.5 526.5,-56.5 443.5,-56.5"/>
<text text-anchor="middle" x="485" y="-63.5" font-family="Helvetica,sans-Serif" font-size="10.00">unordered_map</text>
</g>
<!-- Node7&#45;&gt;Node10 -->
<g id="edge10" class="edge"><title>Node7&#45;&gt;Node10</title>
<path fill="none" stroke="midnightblue" d="M389.064,-112.444C407.575,-103.675 436.581,-89.9355 457.855,-79.8579"/>
<polygon fill="midnightblue" stroke="midnightblue" points="459.482,-82.9604 467.021,-75.5164 456.485,-76.6343 459.482,-82.9604"/>
</g>
</g>
</svg>
