<?xml version="1.0" encoding="UTF-8" standalone="no"?>
<!DOCTYPE svg PUBLIC "-//W3C//DTD SVG 1.1//EN"
 "http://www.w3.org/Graphics/SVG/1.1/DTD/svg11.dtd">
<!-- Generated by graphviz version 2.36.0 (20140111.2315)
 -->
<!-- Title: /home/travis/build/igankevich/arma/src/stats/gram_charlier.hh Pages: 1 -->
<svg width="948pt" height="632pt"
 viewBox="0.00 0.00 948.00 632.00" xmlns="http://www.w3.org/2000/svg" xmlns:xlink="http://www.w3.org/1999/xlink">
<g id="graph0" class="graph" transform="scale(1 1) rotate(0) translate(4 628)">
<title>/home/travis/build/igankevich/arma/src/stats/gram_charlier.hh</title>
<!-- Node1 -->
<g id="node1" class="node"><title>Node1</title>
<polygon fill="#bfbfbf" stroke="black" points="670,-582.5 670,-623.5 786,-623.5 786,-582.5 670,-582.5"/>
<text text-anchor="start" x="678" y="-611.5" font-family="Helvetica,sans-Serif" font-size="10.00">/home/travis/build</text>
<text text-anchor="start" x="678" y="-600.5" font-family="Helvetica,sans-Serif" font-size="10.00">/igankevich/arma/src</text>
<text text-anchor="middle" x="728" y="-589.5" font-family="Helvetica,sans-Serif" font-size="10.00">/stats/gram_charlier.hh</text>
</g>
<!-- Node2 -->
<g id="node2" class="node"><title>Node2</title>
<g id="a_node2"><a xlink:href="distribution_8hh.html" target="_top" xlink:title="/home/travis/build\l/igankevich/arma/src\l/stats/distribution.hh">
<polygon fill="none" stroke="black" points="433.5,-504.5 433.5,-545.5 540.5,-545.5 540.5,-504.5 433.5,-504.5"/>
<text text-anchor="start" x="441.5" y="-533.5" font-family="Helvetica,sans-Serif" font-size="10.00">/home/travis/build</text>
<text text-anchor="start" x="441.5" y="-522.5" font-family="Helvetica,sans-Serif" font-size="10.00">/igankevich/arma/src</text>
<text text-anchor="middle" x="487" y="-511.5" font-family="Helvetica,sans-Serif" font-size="10.00">/stats/distribution.hh</text>
</a>
</g>
</g>
<!-- Node1&#45;&gt;Node2 -->
<g id="edge1" class="edge"><title>Node1&#45;&gt;Node2</title>
<path fill="none" stroke="midnightblue" d="M660.069,-580.578C622.327,-568.676 576.028,-554.075 540.817,-542.971"/>
<polygon fill="midnightblue" stroke="midnightblue" points="659.378,-584.03 669.968,-583.699 661.483,-577.354 659.378,-584.03"/>
</g>
<!-- Node25 -->
<g id="node25" class="node"><title>Node25</title>
<g id="a_node25"><a xlink:href="nit__transform_8hh.html" target="_top" xlink:title="/home/travis/build\l/igankevich/arma/src\l/nonlinear/nit_transform.hh">
<polygon fill="none" stroke="black" points="662,-504.5 662,-545.5 794,-545.5 794,-504.5 662,-504.5"/>
<text text-anchor="start" x="670" y="-533.5" font-family="Helvetica,sans-Serif" font-size="10.00">/home/travis/build</text>
<text text-anchor="start" x="670" y="-522.5" font-family="Helvetica,sans-Serif" font-size="10.00">/igankevich/arma/src</text>
<text text-anchor="middle" x="728" y="-511.5" font-family="Helvetica,sans-Serif" font-size="10.00">/nonlinear/nit_transform.hh</text>
</a>
</g>
</g>
<!-- Node1&#45;&gt;Node25 -->
<g id="edge32" class="edge"><title>Node1&#45;&gt;Node25</title>
<path fill="none" stroke="midnightblue" d="M728,-572.297C728,-563.301 728,-553.653 728,-545.506"/>
<polygon fill="midnightblue" stroke="midnightblue" points="724.5,-572.428 728,-582.428 731.5,-572.428 724.5,-572.428"/>
</g>
<!-- Node28 -->
<g id="node28" class="node"><title>Node28</title>
<g id="a_node28"><a xlink:href="gram__charlier_8cc.html" target="_top" xlink:title="/home/travis/build\l/igankevich/arma/src\l/stats/gram_charlier.cc">
<polygon fill="none" stroke="black" points="812,-504.5 812,-545.5 928,-545.5 928,-504.5 812,-504.5"/>
<text text-anchor="start" x="820" y="-533.5" font-family="Helvetica,sans-Serif" font-size="10.00">/home/travis/build</text>
<text text-anchor="start" x="820" y="-522.5" font-family="Helvetica,sans-Serif" font-size="10.00">/igankevich/arma/src</text>
<text text-anchor="middle" x="870" y="-511.5" font-family="Helvetica,sans-Serif" font-size="10.00">/stats/gram_charlier.cc</text>
</a>
</g>
</g>
<!-- Node1&#45;&gt;Node28 -->
<g id="edge39" class="edge"><title>Node1&#45;&gt;Node28</title>
<path fill="none" stroke="midnightblue" d="M773.54,-577.627C792.943,-567.242 815.271,-555.292 833.555,-545.506"/>
<polygon fill="midnightblue" stroke="midnightblue" points="771.734,-574.623 764.569,-582.428 775.037,-580.795 771.734,-574.623"/>
</g>
<!-- Node3 -->
<g id="node3" class="node"><title>Node3</title>
<g id="a_node3"><a xlink:href="arma_8hh.html" target="_top" xlink:title="/home/travis/build\l/igankevich/arma/src\l/arma.hh">
<polygon fill="none" stroke="black" points="257.5,-420.5 257.5,-461.5 364.5,-461.5 364.5,-420.5 257.5,-420.5"/>
<text text-anchor="start" x="265.5" y="-449.5" font-family="Helvetica,sans-Serif" font-size="10.00">/home/travis/build</text>
<text text-anchor="start" x="265.5" y="-438.5" font-family="Helvetica,sans-Serif" font-size="10.00">/igankevich/arma/src</text>
<text text-anchor="middle" x="311" y="-427.5" font-family="Helvetica,sans-Serif" font-size="10.00">/arma.hh</text>
</a>
</g>
</g>
<!-- Node2&#45;&gt;Node3 -->
<g id="edge2" class="edge"><title>Node2&#45;&gt;Node3</title>
<path fill="none" stroke="midnightblue" d="M435.453,-499.984C409.261,-487.781 377.836,-473.14 353.117,-461.623"/>
<polygon fill="midnightblue" stroke="midnightblue" points="434.301,-503.308 444.844,-504.359 437.257,-496.963 434.301,-503.308"/>
</g>
<!-- Node23 -->
<g id="node23" class="node"><title>Node23</title>
<g id="a_node23"><a xlink:href="basic__arma__model__verify_8cc.html" target="_top" xlink:title="/home/travis/build\l/igankevich/arma/src\l/generator/basic_arma\l_model_verify.cc">
<polygon fill="none" stroke="black" points="638.5,-415 638.5,-467 751.5,-467 751.5,-415 638.5,-415"/>
<text text-anchor="start" x="646.5" y="-455" font-family="Helvetica,sans-Serif" font-size="10.00">/home/travis/build</text>
<text text-anchor="start" x="646.5" y="-444" font-family="Helvetica,sans-Serif" font-size="10.00">/igankevich/arma/src</text>
<text text-anchor="start" x="646.5" y="-433" font-family="Helvetica,sans-Serif" font-size="10.00">/generator/basic_arma</text>
<text text-anchor="middle" x="695" y="-422" font-family="Helvetica,sans-Serif" font-size="10.00">_model_verify.cc</text>
</a>
</g>
</g>
<!-- Node2&#45;&gt;Node23 -->
<g id="edge29" class="edge"><title>Node2&#45;&gt;Node23</title>
<path fill="none" stroke="midnightblue" d="M546.147,-500.682C575.127,-489.258 609.855,-475.567 638.475,-464.284"/>
<polygon fill="midnightblue" stroke="midnightblue" points="544.576,-497.539 536.557,-504.463 547.144,-504.052 544.576,-497.539"/>
</g>
<!-- Node24 -->
<g id="node24" class="node"><title>Node24</title>
<g id="a_node24"><a xlink:href="distribution_8cc.html" target="_top" xlink:title="/home/travis/build\l/igankevich/arma/src\l/stats/distribution.cc">
<polygon fill="none" stroke="black" points="382.5,-420.5 382.5,-461.5 489.5,-461.5 489.5,-420.5 382.5,-420.5"/>
<text text-anchor="start" x="390.5" y="-449.5" font-family="Helvetica,sans-Serif" font-size="10.00">/home/travis/build</text>
<text text-anchor="start" x="390.5" y="-438.5" font-family="Helvetica,sans-Serif" font-size="10.00">/igankevich/arma/src</text>
<text text-anchor="middle" x="436" y="-427.5" font-family="Helvetica,sans-Serif" font-size="10.00">/stats/distribution.cc</text>
</a>
</g>
</g>
<!-- Node2&#45;&gt;Node24 -->
<g id="edge31" class="edge"><title>Node2&#45;&gt;Node24</title>
<path fill="none" stroke="midnightblue" d="M469.306,-495.551C462.352,-484.37 454.541,-471.811 448.232,-461.667"/>
<polygon fill="midnightblue" stroke="midnightblue" points="466.401,-497.507 474.654,-504.15 472.345,-493.81 466.401,-497.507"/>
</g>
<!-- Node4 -->
<g id="node4" class="node"><title>Node4</title>
<g id="a_node4"><a xlink:href="arma_8cc.html" target="_top" xlink:title="/home/travis/build\l/igankevich/arma/src\l/arma.cc">
<polygon fill="none" stroke="black" points="240.5,-330.5 240.5,-371.5 347.5,-371.5 347.5,-330.5 240.5,-330.5"/>
<text text-anchor="start" x="248.5" y="-359.5" font-family="Helvetica,sans-Serif" font-size="10.00">/home/travis/build</text>
<text text-anchor="start" x="248.5" y="-348.5" font-family="Helvetica,sans-Serif" font-size="10.00">/igankevich/arma/src</text>
<text text-anchor="middle" x="294" y="-337.5" font-family="Helvetica,sans-Serif" font-size="10.00">/arma.cc</text>
</a>
</g>
</g>
<!-- Node3&#45;&gt;Node4 -->
<g id="edge3" class="edge"><title>Node3&#45;&gt;Node4</title>
<path fill="none" stroke="midnightblue" d="M305.268,-410.33C302.815,-397.629 300.016,-383.14 297.821,-371.78"/>
<polygon fill="midnightblue" stroke="midnightblue" points="301.894,-411.315 307.227,-420.47 308.767,-409.988 301.894,-411.315"/>
</g>
<!-- Node5 -->
<g id="node5" class="node"><title>Node5</title>
<g id="a_node5"><a xlink:href="arma__driver_8hh.html" target="_top" xlink:title="/home/travis/build\l/igankevich/arma/src\l/arma_driver.hh">
<polygon fill="none" stroke="black" points="98.5,-156.5 98.5,-197.5 205.5,-197.5 205.5,-156.5 98.5,-156.5"/>
<text text-anchor="start" x="106.5" y="-185.5" font-family="Helvetica,sans-Serif" font-size="10.00">/home/travis/build</text>
<text text-anchor="start" x="106.5" y="-174.5" font-family="Helvetica,sans-Serif" font-size="10.00">/igankevich/arma/src</text>
<text text-anchor="middle" x="152" y="-163.5" font-family="Helvetica,sans-Serif" font-size="10.00">/arma_driver.hh</text>
</a>
</g>
</g>
<!-- Node3&#45;&gt;Node5 -->
<g id="edge4" class="edge"><title>Node3&#45;&gt;Node5</title>
<path fill="none" stroke="midnightblue" d="M247.296,-431.131C187.882,-421.399 105.554,-403.671 86,-378 47.2193,-327.088 59.1115,-292.078 86,-234 92.8185,-219.273 105.63,-207.005 118.165,-197.742"/>
<polygon fill="midnightblue" stroke="midnightblue" points="246.934,-434.617 257.361,-432.739 248.039,-427.705 246.934,-434.617"/>
</g>
<!-- Node12 -->
<g id="node12" class="node"><title>Node12</title>
<g id="a_node12"><a xlink:href="ar__model_8hh.html" target="_top" xlink:title="/home/travis/build\l/igankevich/arma/src\l/generator/ar_model.hh">
<polygon fill="none" stroke="black" points="506,-330.5 506,-371.5 622,-371.5 622,-330.5 506,-330.5"/>
<text text-anchor="start" x="514" y="-359.5" font-family="Helvetica,sans-Serif" font-size="10.00">/home/travis/build</text>
<text text-anchor="start" x="514" y="-348.5" font-family="Helvetica,sans-Serif" font-size="10.00">/igankevich/arma/src</text>
<text text-anchor="middle" x="564" y="-337.5" font-family="Helvetica,sans-Serif" font-size="10.00">/generator/ar_model.hh</text>
</a>
</g>
</g>
<!-- Node3&#45;&gt;Node12 -->
<g id="edge11" class="edge"><title>Node3&#45;&gt;Node12</title>
<path fill="none" stroke="midnightblue" d="M365.679,-416.673C368.144,-415.746 370.593,-414.851 373,-414 427.105,-394.872 442.642,-396.398 497,-378 502.909,-376 509.066,-373.789 515.148,-371.527"/>
<polygon fill="midnightblue" stroke="midnightblue" points="364.201,-413.491 356.14,-420.367 366.729,-420.019 364.201,-413.491"/>
</g>
<!-- Node18 -->
<g id="node18" class="node"><title>Node18</title>
<g id="a_node18"><a xlink:href="ma__model_8hh.html" target="_top" xlink:title="/home/travis/build\l/igankevich/arma/src\l/generator/ma_model.hh">
<polygon fill="none" stroke="black" points="366,-330.5 366,-371.5 488,-371.5 488,-330.5 366,-330.5"/>
<text text-anchor="start" x="374" y="-359.5" font-family="Helvetica,sans-Serif" font-size="10.00">/home/travis/build</text>
<text text-anchor="start" x="374" y="-348.5" font-family="Helvetica,sans-Serif" font-size="10.00">/igankevich/arma/src</text>
<text text-anchor="middle" x="427" y="-337.5" font-family="Helvetica,sans-Serif" font-size="10.00">/generator/ma_model.hh</text>
</a>
</g>
</g>
<!-- Node3&#45;&gt;Node18 -->
<g id="edge21" class="edge"><title>Node3&#45;&gt;Node18</title>
<path fill="none" stroke="midnightblue" d="M345.165,-414.081C362.992,-400.558 384.454,-384.276 400.927,-371.78"/>
<polygon fill="midnightblue" stroke="midnightblue" points="342.596,-411.638 336.744,-420.47 346.826,-417.214 342.596,-411.638"/>
</g>
<!-- Node20 -->
<g id="node20" class="node"><title>Node20</title>
<g id="a_node20"><a xlink:href="basic__arma__model_8cc.html" target="_top" xlink:title="/home/travis/build\l/igankevich/arma/src\l/generator/basic_arma\l_model.cc">
<polygon fill="none" stroke="black" points="640.5,-325 640.5,-377 753.5,-377 753.5,-325 640.5,-325"/>
<text text-anchor="start" x="648.5" y="-365" font-family="Helvetica,sans-Serif" font-size="10.00">/home/travis/build</text>
<text text-anchor="start" x="648.5" y="-354" font-family="Helvetica,sans-Serif" font-size="10.00">/igankevich/arma/src</text>
<text text-anchor="start" x="648.5" y="-343" font-family="Helvetica,sans-Serif" font-size="10.00">/generator/basic_arma</text>
<text text-anchor="middle" x="697" y="-332" font-family="Helvetica,sans-Serif" font-size="10.00">_model.cc</text>
</a>
</g>
</g>
<!-- Node3&#45;&gt;Node20 -->
<g id="edge25" class="edge"><title>Node3&#45;&gt;Node20</title>
<path fill="none" stroke="midnightblue" d="M362.96,-417.086C366.327,-415.952 369.692,-414.909 373,-414 484.216,-383.444 518.383,-407.057 630,-378 633.381,-377.12 636.824,-376.121 640.275,-375.041"/>
<polygon fill="midnightblue" stroke="midnightblue" points="361.739,-413.805 353.518,-420.488 364.112,-420.391 361.739,-413.805"/>
</g>
<!-- Node21 -->
<g id="node21" class="node"><title>Node21</title>
<g id="a_node21"><a xlink:href="ma__coefficient__solver_8hh.html" target="_top" xlink:title="/home/travis/build\l/igankevich/arma/src\l/generator/ma_coefficient\l_solver.hh">
<polygon fill="none" stroke="black" points="95.5,-325 95.5,-377 222.5,-377 222.5,-325 95.5,-325"/>
<text text-anchor="start" x="103.5" y="-365" font-family="Helvetica,sans-Serif" font-size="10.00">/home/travis/build</text>
<text text-anchor="start" x="103.5" y="-354" font-family="Helvetica,sans-Serif" font-size="10.00">/igankevich/arma/src</text>
<text text-anchor="start" x="103.5" y="-343" font-family="Helvetica,sans-Serif" font-size="10.00">/generator/ma_coefficient</text>
<text text-anchor="middle" x="159" y="-332" font-family="Helvetica,sans-Serif" font-size="10.00">_solver.hh</text>
</a>
</g>
</g>
<!-- Node3&#45;&gt;Node21 -->
<g id="edge26" class="edge"><title>Node3&#45;&gt;Node21</title>
<path fill="none" stroke="midnightblue" d="M268.386,-415.329C247.715,-403.361 222.931,-389.013 202.185,-377.002"/>
<polygon fill="midnightblue" stroke="midnightblue" points="266.858,-418.489 277.266,-420.47 270.366,-412.431 266.858,-418.489"/>
</g>
<!-- Node6 -->
<g id="node6" class="node"><title>Node6</title>
<g id="a_node6"><a xlink:href="arma__driver_8cc.html" target="_top" xlink:title="/home/travis/build\l/igankevich/arma/src\l/arma_driver.cc">
<polygon fill="none" stroke="black" points="180.5,-78.5 180.5,-119.5 287.5,-119.5 287.5,-78.5 180.5,-78.5"/>
<text text-anchor="start" x="188.5" y="-107.5" font-family="Helvetica,sans-Serif" font-size="10.00">/home/travis/build</text>
<text text-anchor="start" x="188.5" y="-96.5" font-family="Helvetica,sans-Serif" font-size="10.00">/igankevich/arma/src</text>
<text text-anchor="middle" x="234" y="-85.5" font-family="Helvetica,sans-Serif" font-size="10.00">/arma_driver.cc</text>
</a>
</g>
</g>
<!-- Node5&#45;&gt;Node6 -->
<g id="edge5" class="edge"><title>Node5&#45;&gt;Node6</title>
<path fill="none" stroke="midnightblue" d="M180.601,-149.492C191.242,-139.629 203.113,-128.627 212.955,-119.506"/>
<polygon fill="midnightblue" stroke="midnightblue" points="178.072,-147.063 173.117,-156.428 182.831,-152.197 178.072,-147.063"/>
</g>
<!-- Node7 -->
<g id="node7" class="node"><title>Node7</title>
<g id="a_node7"><a xlink:href="arma__main_8cc.html" target="_top" xlink:title="/home/travis/build\l/igankevich/arma/src\l/arma_main.cc">
<polygon fill="none" stroke="black" points="389.5,-0.5 389.5,-41.5 496.5,-41.5 496.5,-0.5 389.5,-0.5"/>
<text text-anchor="start" x="397.5" y="-29.5" font-family="Helvetica,sans-Serif" font-size="10.00">/home/travis/build</text>
<text text-anchor="start" x="397.5" y="-18.5" font-family="Helvetica,sans-Serif" font-size="10.00">/igankevich/arma/src</text>
<text text-anchor="middle" x="443" y="-7.5" font-family="Helvetica,sans-Serif" font-size="10.00">/arma_main.cc</text>
</a>
</g>
</g>
<!-- Node5&#45;&gt;Node7 -->
<g id="edge6" class="edge"><title>Node5&#45;&gt;Node7</title>
<path fill="none" stroke="midnightblue" d="M149.654,-146.111C149.663,-124.344 153.514,-95.6886 171,-78 174.861,-74.0944 311.08,-47.3677 389.245,-32.2927"/>
<polygon fill="midnightblue" stroke="midnightblue" points="146.156,-146.259 149.915,-156.165 153.154,-146.077 146.156,-146.259"/>
</g>
<!-- Node8 -->
<g id="node8" class="node"><title>Node8</title>
<g id="a_node8"><a xlink:href="arma__realtime__driver_8hh.html" target="_top" xlink:title="/home/travis/build\l/igankevich/arma/src\l/arma_realtime_driver.hh">
<polygon fill="none" stroke="black" points="0,-78.5 0,-119.5 124,-119.5 124,-78.5 0,-78.5"/>
<text text-anchor="start" x="8" y="-107.5" font-family="Helvetica,sans-Serif" font-size="10.00">/home/travis/build</text>
<text text-anchor="start" x="8" y="-96.5" font-family="Helvetica,sans-Serif" font-size="10.00">/igankevich/arma/src</text>
<text text-anchor="middle" x="62" y="-85.5" font-family="Helvetica,sans-Serif" font-size="10.00">/arma_realtime_driver.hh</text>
</a>
</g>
</g>
<!-- Node5&#45;&gt;Node8 -->
<g id="edge7" class="edge"><title>Node5&#45;&gt;Node8</title>
<path fill="none" stroke="midnightblue" d="M120.948,-149.779C109.183,-139.843 96.0057,-128.716 85.0987,-119.506"/>
<polygon fill="midnightblue" stroke="midnightblue" points="118.924,-152.65 128.823,-156.428 123.441,-147.302 118.924,-152.65"/>
</g>
<!-- Node11 -->
<g id="node11" class="node"><title>Node11</title>
<g id="a_node11"><a xlink:href="visual_8cc.html" target="_top" xlink:title="/home/travis/build\l/igankevich/arma/src\l/visual.cc">
<polygon fill="none" stroke="black" points="305.5,-78.5 305.5,-119.5 412.5,-119.5 412.5,-78.5 305.5,-78.5"/>
<text text-anchor="start" x="313.5" y="-107.5" font-family="Helvetica,sans-Serif" font-size="10.00">/home/travis/build</text>
<text text-anchor="start" x="313.5" y="-96.5" font-family="Helvetica,sans-Serif" font-size="10.00">/igankevich/arma/src</text>
<text text-anchor="middle" x="359" y="-85.5" font-family="Helvetica,sans-Serif" font-size="10.00">/visual.cc</text>
</a>
</g>
</g>
<!-- Node5&#45;&gt;Node11 -->
<g id="edge10" class="edge"><title>Node5&#45;&gt;Node11</title>
<path fill="none" stroke="midnightblue" d="M214.952,-152.887C244.01,-142.219 278.134,-129.69 305.873,-119.506"/>
<polygon fill="midnightblue" stroke="midnightblue" points="213.489,-149.696 205.308,-156.428 215.901,-156.267 213.489,-149.696"/>
</g>
<!-- Node9 -->
<g id="node9" class="node"><title>Node9</title>
<g id="a_node9"><a xlink:href="arma__realtime_8cc.html" target="_top" xlink:title="/home/travis/build\l/igankevich/arma/src\l/arma_realtime.cc">
<polygon fill="none" stroke="black" points="223.5,-0.5 223.5,-41.5 330.5,-41.5 330.5,-0.5 223.5,-0.5"/>
<text text-anchor="start" x="231.5" y="-29.5" font-family="Helvetica,sans-Serif" font-size="10.00">/home/travis/build</text>
<text text-anchor="start" x="231.5" y="-18.5" font-family="Helvetica,sans-Serif" font-size="10.00">/igankevich/arma/src</text>
<text text-anchor="middle" x="277" y="-7.5" font-family="Helvetica,sans-Serif" font-size="10.00">/arma_realtime.cc</text>
</a>
</g>
</g>
<!-- Node8&#45;&gt;Node9 -->
<g id="edge8" class="edge"><title>Node8&#45;&gt;Node9</title>
<path fill="none" stroke="midnightblue" d="M127.143,-74.9725C157.898,-64.1013 194.157,-51.284 223.305,-40.9804"/>
<polygon fill="midnightblue" stroke="midnightblue" points="125.63,-71.7954 117.368,-78.4281 127.963,-78.3952 125.63,-71.7954"/>
</g>
<!-- Node10 -->
<g id="node10" class="node"><title>Node10</title>
<g id="a_node10"><a xlink:href="arma__realtime__driver_8cc.html" target="_top" xlink:title="/home/travis/build\l/igankevich/arma/src\l/arma_realtime_driver.cc">
<polygon fill="none" stroke="black" points="0,-0.5 0,-41.5 124,-41.5 124,-0.5 0,-0.5"/>
<text text-anchor="start" x="8" y="-29.5" font-family="Helvetica,sans-Serif" font-size="10.00">/home/travis/build</text>
<text text-anchor="start" x="8" y="-18.5" font-family="Helvetica,sans-Serif" font-size="10.00">/igankevich/arma/src</text>
<text text-anchor="middle" x="62" y="-7.5" font-family="Helvetica,sans-Serif" font-size="10.00">/arma_realtime_driver.cc</text>
</a>
</g>
</g>
<!-- Node8&#45;&gt;Node10 -->
<g id="edge9" class="edge"><title>Node8&#45;&gt;Node10</title>
<path fill="none" stroke="midnightblue" d="M62,-68.2965C62,-59.3009 62,-49.6532 62,-41.5056"/>
<polygon fill="midnightblue" stroke="midnightblue" points="58.5001,-68.4281 62,-78.4281 65.5001,-68.4281 58.5001,-68.4281"/>
</g>
<!-- Node13 -->
<g id="node13" class="node"><title>Node13</title>
<g id="a_node13"><a xlink:href="register__all_8hh.html" target="_top" xlink:title="/home/travis/build\l/igankevich/arma/src\l/register_all.hh">
<polygon fill="none" stroke="black" points="430.5,-156.5 430.5,-197.5 537.5,-197.5 537.5,-156.5 430.5,-156.5"/>
<text text-anchor="start" x="438.5" y="-185.5" font-family="Helvetica,sans-Serif" font-size="10.00">/home/travis/build</text>
<text text-anchor="start" x="438.5" y="-174.5" font-family="Helvetica,sans-Serif" font-size="10.00">/igankevich/arma/src</text>
<text text-anchor="middle" x="484" y="-163.5" font-family="Helvetica,sans-Serif" font-size="10.00">/register_all.hh</text>
</a>
</g>
</g>
<!-- Node12&#45;&gt;Node13 -->
<g id="edge12" class="edge"><title>Node12&#45;&gt;Node13</title>
<path fill="none" stroke="midnightblue" d="M569.108,-320.038C571.794,-295.469 572.066,-260.541 558,-234 550.003,-218.91 535.941,-206.716 522.208,-197.606"/>
<polygon fill="midnightblue" stroke="midnightblue" points="565.605,-319.838 567.795,-330.204 572.547,-320.735 565.605,-319.838"/>
</g>
<!-- Node15 -->
<g id="node15" class="node"><title>Node15</title>
<g id="a_node15"><a xlink:href="arma__model_8hh.html" target="_top" xlink:title="/home/travis/build\l/igankevich/arma/src\l/generator/arma_model.hh">
<polygon fill="none" stroke="black" points="419,-240.5 419,-281.5 549,-281.5 549,-240.5 419,-240.5"/>
<text text-anchor="start" x="427" y="-269.5" font-family="Helvetica,sans-Serif" font-size="10.00">/home/travis/build</text>
<text text-anchor="start" x="427" y="-258.5" font-family="Helvetica,sans-Serif" font-size="10.00">/igankevich/arma/src</text>
<text text-anchor="middle" x="484" y="-247.5" font-family="Helvetica,sans-Serif" font-size="10.00">/generator/arma_model.hh</text>
</a>
</g>
</g>
<!-- Node12&#45;&gt;Node15 -->
<g id="edge17" class="edge"><title>Node12&#45;&gt;Node15</title>
<path fill="none" stroke="midnightblue" d="M539.426,-322.969C527.339,-309.673 513.032,-293.935 501.982,-281.78"/>
<polygon fill="midnightblue" stroke="midnightblue" points="536.929,-325.425 546.245,-330.47 542.108,-320.716 536.929,-325.425"/>
</g>
<!-- Node17 -->
<g id="node17" class="node"><title>Node17</title>
<g id="a_node17"><a xlink:href="ar__model_8cc.html" target="_top" xlink:title="/home/travis/build\l/igankevich/arma/src\l/generator/ar_model.cc">
<polygon fill="none" stroke="black" points="605,-240.5 605,-281.5 721,-281.5 721,-240.5 605,-240.5"/>
<text text-anchor="start" x="613" y="-269.5" font-family="Helvetica,sans-Serif" font-size="10.00">/home/travis/build</text>
<text text-anchor="start" x="613" y="-258.5" font-family="Helvetica,sans-Serif" font-size="10.00">/igankevich/arma/src</text>
<text text-anchor="middle" x="663" y="-247.5" font-family="Helvetica,sans-Serif" font-size="10.00">/generator/ar_model.cc</text>
</a>
</g>
</g>
<!-- Node12&#45;&gt;Node17 -->
<g id="edge20" class="edge"><title>Node12&#45;&gt;Node17</title>
<path fill="none" stroke="midnightblue" d="M593.574,-323.712C608.705,-310.262 626.817,-294.162 640.748,-281.78"/>
<polygon fill="midnightblue" stroke="midnightblue" points="591.12,-321.21 585.971,-330.47 595.771,-326.442 591.12,-321.21"/>
</g>
<!-- Node13&#45;&gt;Node11 -->
<g id="edge16" class="edge"><title>Node13&#45;&gt;Node11</title>
<path fill="none" stroke="midnightblue" d="M443.215,-151.203C426.299,-140.918 406.958,-129.159 391.082,-119.506"/>
<polygon fill="midnightblue" stroke="midnightblue" points="441.446,-154.224 451.809,-156.428 445.083,-148.242 441.446,-154.224"/>
</g>
<!-- Node14 -->
<g id="node14" class="node"><title>Node14</title>
<g id="a_node14"><a xlink:href="common__main_8hh.html" target="_top" xlink:title="/home/travis/build\l/igankevich/arma/src\l/common_main.hh">
<polygon fill="none" stroke="black" points="430.5,-78.5 430.5,-119.5 537.5,-119.5 537.5,-78.5 430.5,-78.5"/>
<text text-anchor="start" x="438.5" y="-107.5" font-family="Helvetica,sans-Serif" font-size="10.00">/home/travis/build</text>
<text text-anchor="start" x="438.5" y="-96.5" font-family="Helvetica,sans-Serif" font-size="10.00">/igankevich/arma/src</text>
<text text-anchor="middle" x="484" y="-85.5" font-family="Helvetica,sans-Serif" font-size="10.00">/common_main.hh</text>
</a>
</g>
</g>
<!-- Node13&#45;&gt;Node14 -->
<g id="edge13" class="edge"><title>Node13&#45;&gt;Node14</title>
<path fill="none" stroke="midnightblue" d="M484,-146.297C484,-137.301 484,-127.653 484,-119.506"/>
<polygon fill="midnightblue" stroke="midnightblue" points="480.5,-146.428 484,-156.428 487.5,-146.428 480.5,-146.428"/>
</g>
<!-- Node14&#45;&gt;Node7 -->
<g id="edge14" class="edge"><title>Node14&#45;&gt;Node7</title>
<path fill="none" stroke="midnightblue" d="M468.607,-69.466C463.577,-60.1427 458.109,-50.0074 453.523,-41.5056"/>
<polygon fill="midnightblue" stroke="midnightblue" points="465.613,-71.2889 473.441,-78.4281 471.774,-67.9653 465.613,-71.2889"/>
</g>
<!-- Node14&#45;&gt;Node9 -->
<g id="edge15" class="edge"><title>Node14&#45;&gt;Node9</title>
<path fill="none" stroke="midnightblue" d="M421.048,-74.8874C391.99,-64.2185 357.866,-51.6901 330.127,-41.5056"/>
<polygon fill="midnightblue" stroke="midnightblue" points="420.099,-78.2671 430.692,-78.4281 422.511,-71.6959 420.099,-78.2671"/>
</g>
<!-- Node15&#45;&gt;Node13 -->
<g id="edge18" class="edge"><title>Node15&#45;&gt;Node13</title>
<path fill="none" stroke="midnightblue" d="M484,-229.881C484,-219.133 484,-207.309 484,-197.667"/>
<polygon fill="midnightblue" stroke="midnightblue" points="480.5,-230.15 484,-240.15 487.5,-230.15 480.5,-230.15"/>
</g>
<!-- Node16 -->
<g id="node16" class="node"><title>Node16</title>
<g id="a_node16"><a xlink:href="arma__model_8cc.html" target="_top" xlink:title="/home/travis/build\l/igankevich/arma/src\l/generator/arma_model.cc">
<polygon fill="none" stroke="black" points="282,-156.5 282,-197.5 412,-197.5 412,-156.5 282,-156.5"/>
<text text-anchor="start" x="290" y="-185.5" font-family="Helvetica,sans-Serif" font-size="10.00">/home/travis/build</text>
<text text-anchor="start" x="290" y="-174.5" font-family="Helvetica,sans-Serif" font-size="10.00">/igankevich/arma/src</text>
<text text-anchor="middle" x="347" y="-163.5" font-family="Helvetica,sans-Serif" font-size="10.00">/generator/arma_model.cc</text>
</a>
</g>
</g>
<!-- Node15&#45;&gt;Node16 -->
<g id="edge19" class="edge"><title>Node15&#45;&gt;Node16</title>
<path fill="none" stroke="midnightblue" d="M442.561,-235.197C422.527,-223.206 398.814,-209.013 380.022,-197.765"/>
<polygon fill="midnightblue" stroke="midnightblue" points="440.807,-238.226 451.185,-240.359 444.402,-232.22 440.807,-238.226"/>
</g>
<!-- Node18&#45;&gt;Node13 -->
<g id="edge22" class="edge"><title>Node18&#45;&gt;Node13</title>
<path fill="none" stroke="midnightblue" d="M413.731,-321.009C404.61,-296.601 396.378,-261.391 410,-234 417.533,-218.853 431.335,-206.71 444.997,-197.656"/>
<polygon fill="midnightblue" stroke="midnightblue" points="410.536,-322.447 417.496,-330.434 417.036,-319.849 410.536,-322.447"/>
</g>
<!-- Node18&#45;&gt;Node15 -->
<g id="edge23" class="edge"><title>Node18&#45;&gt;Node15</title>
<path fill="none" stroke="midnightblue" d="M445.237,-321.845C453.691,-308.793 463.536,-293.594 471.188,-281.78"/>
<polygon fill="midnightblue" stroke="midnightblue" points="442.149,-320.174 439.65,-330.47 448.024,-323.98 442.149,-320.174"/>
</g>
<!-- Node19 -->
<g id="node19" class="node"><title>Node19</title>
<g id="a_node19"><a xlink:href="ma__model_8cc.html" target="_top" xlink:title="/home/travis/build\l/igankevich/arma/src\l/generator/ma_model.cc">
<polygon fill="none" stroke="black" points="241,-240.5 241,-281.5 363,-281.5 363,-240.5 241,-240.5"/>
<text text-anchor="start" x="249" y="-269.5" font-family="Helvetica,sans-Serif" font-size="10.00">/home/travis/build</text>
<text text-anchor="start" x="249" y="-258.5" font-family="Helvetica,sans-Serif" font-size="10.00">/igankevich/arma/src</text>
<text text-anchor="middle" x="302" y="-247.5" font-family="Helvetica,sans-Serif" font-size="10.00">/generator/ma_model.cc</text>
</a>
</g>
</g>
<!-- Node18&#45;&gt;Node19 -->
<g id="edge24" class="edge"><title>Node18&#45;&gt;Node19</title>
<path fill="none" stroke="midnightblue" d="M390.968,-324.633C371.606,-311.003 348.089,-294.446 330.096,-281.78"/>
<polygon fill="midnightblue" stroke="midnightblue" points="389.067,-327.575 399.258,-330.47 393.096,-321.851 389.067,-327.575"/>
</g>
<!-- Node21&#45;&gt;Node19 -->
<g id="edge28" class="edge"><title>Node21&#45;&gt;Node19</title>
<path fill="none" stroke="midnightblue" d="M208.541,-319.514C228.949,-306.955 252.001,-292.769 270.104,-281.628"/>
<polygon fill="midnightblue" stroke="midnightblue" points="206.66,-316.561 199.978,-324.783 210.329,-322.523 206.66,-316.561"/>
</g>
<!-- Node22 -->
<g id="node22" class="node"><title>Node22</title>
<g id="a_node22"><a xlink:href="ma__coefficient__solver_8cc.html" target="_top" xlink:title="/home/travis/build\l/igankevich/arma/src\l/generator/ma_coefficient\l_solver.cc">
<polygon fill="none" stroke="black" points="95.5,-235 95.5,-287 222.5,-287 222.5,-235 95.5,-235"/>
<text text-anchor="start" x="103.5" y="-275" font-family="Helvetica,sans-Serif" font-size="10.00">/home/travis/build</text>
<text text-anchor="start" x="103.5" y="-264" font-family="Helvetica,sans-Serif" font-size="10.00">/igankevich/arma/src</text>
<text text-anchor="start" x="103.5" y="-253" font-family="Helvetica,sans-Serif" font-size="10.00">/generator/ma_coefficient</text>
<text text-anchor="middle" x="159" y="-242" font-family="Helvetica,sans-Serif" font-size="10.00">_solver.cc</text>
</a>
</g>
</g>
<!-- Node21&#45;&gt;Node22 -->
<g id="edge27" class="edge"><title>Node21&#45;&gt;Node22</title>
<path fill="none" stroke="midnightblue" d="M159,-314.489C159,-305.309 159,-295.616 159,-287.092"/>
<polygon fill="midnightblue" stroke="midnightblue" points="155.5,-314.547 159,-324.547 162.5,-314.547 155.5,-314.547"/>
</g>
<!-- Node23&#45;&gt;Node20 -->
<g id="edge30" class="edge"><title>Node23&#45;&gt;Node20</title>
<path fill="none" stroke="midnightblue" d="M695.807,-404.489C696.016,-395.309 696.236,-385.616 696.43,-377.092"/>
<polygon fill="midnightblue" stroke="midnightblue" points="692.307,-404.47 695.578,-414.547 699.305,-404.629 692.307,-404.47"/>
</g>
<!-- Node25&#45;&gt;Node20 -->
<g id="edge37" class="edge"><title>Node25&#45;&gt;Node20</title>
<path fill="none" stroke="midnightblue" d="M747.967,-495.643C752.886,-487.144 757.467,-477.537 760,-468 766.16,-444.804 769.273,-436.136 760,-414 754.071,-399.846 743.161,-387.289 732.066,-377.242"/>
<polygon fill="midnightblue" stroke="midnightblue" points="744.852,-494.026 742.578,-504.374 750.809,-497.703 744.852,-494.026"/>
</g>
<!-- Node26 -->
<g id="node26" class="node"><title>Node26</title>
<g id="a_node26"><a xlink:href="basic__arma__model_8hh.html" target="_top" xlink:title="/home/travis/build\l/igankevich/arma/src\l/generator/basic_arma\l_model.hh">
<polygon fill="none" stroke="black" points="507.5,-415 507.5,-467 620.5,-467 620.5,-415 507.5,-415"/>
<text text-anchor="start" x="515.5" y="-455" font-family="Helvetica,sans-Serif" font-size="10.00">/home/travis/build</text>
<text text-anchor="start" x="515.5" y="-444" font-family="Helvetica,sans-Serif" font-size="10.00">/igankevich/arma/src</text>
<text text-anchor="start" x="515.5" y="-433" font-family="Helvetica,sans-Serif" font-size="10.00">/generator/basic_arma</text>
<text text-anchor="middle" x="564" y="-422" font-family="Helvetica,sans-Serif" font-size="10.00">_model.hh</text>
</a>
</g>
</g>
<!-- Node25&#45;&gt;Node26 -->
<g id="edge33" class="edge"><title>Node25&#45;&gt;Node26</title>
<path fill="none" stroke="midnightblue" d="M679.52,-499.76C658.927,-489.464 634.928,-477.464 614.156,-467.078"/>
<polygon fill="midnightblue" stroke="midnightblue" points="678.208,-503.017 688.718,-504.359 681.339,-496.756 678.208,-503.017"/>
</g>
<!-- Node27 -->
<g id="node27" class="node"><title>Node27</title>
<g id="a_node27"><a xlink:href="nit__transform_8cc.html" target="_top" xlink:title="/home/travis/build\l/igankevich/arma/src\l/nonlinear/nit_transform.cc">
<polygon fill="none" stroke="black" points="808,-420.5 808,-461.5 940,-461.5 940,-420.5 808,-420.5"/>
<text text-anchor="start" x="816" y="-449.5" font-family="Helvetica,sans-Serif" font-size="10.00">/home/travis/build</text>
<text text-anchor="start" x="816" y="-438.5" font-family="Helvetica,sans-Serif" font-size="10.00">/igankevich/arma/src</text>
<text text-anchor="middle" x="874" y="-427.5" font-family="Helvetica,sans-Serif" font-size="10.00">/nonlinear/nit_transform.cc</text>
</a>
</g>
</g>
<!-- Node25&#45;&gt;Node27 -->
<g id="edge38" class="edge"><title>Node25&#45;&gt;Node27</title>
<path fill="none" stroke="midnightblue" d="M771.908,-499.339C793.401,-487.268 818.916,-472.938 839.062,-461.623"/>
<polygon fill="midnightblue" stroke="midnightblue" points="769.976,-496.41 762.971,-504.359 773.404,-502.514 769.976,-496.41"/>
</g>
<!-- Node26&#45;&gt;Node12 -->
<g id="edge34" class="edge"><title>Node26&#45;&gt;Node12</title>
<path fill="none" stroke="midnightblue" d="M564,-404.515C564,-393.257 564,-381.227 564,-371.525"/>
<polygon fill="midnightblue" stroke="midnightblue" points="560.5,-404.547 564,-414.547 567.5,-404.547 560.5,-404.547"/>
</g>
<!-- Node26&#45;&gt;Node18 -->
<g id="edge35" class="edge"><title>Node26&#45;&gt;Node18</title>
<path fill="none" stroke="midnightblue" d="M516.276,-409.345C496.789,-396.828 474.824,-382.719 457.558,-371.628"/>
<polygon fill="midnightblue" stroke="midnightblue" points="514.436,-412.323 524.741,-414.783 518.219,-406.433 514.436,-412.323"/>
</g>
<!-- Node26&#45;&gt;Node20 -->
<g id="edge36" class="edge"><title>Node26&#45;&gt;Node20</title>
<path fill="none" stroke="midnightblue" d="M610.68,-409.114C626.449,-398.68 643.856,-387.163 658.882,-377.221"/>
<polygon fill="midnightblue" stroke="midnightblue" points="608.521,-406.346 602.112,-414.783 612.384,-412.184 608.521,-406.346"/>
</g>
</g>
</svg>
