<?xml version="1.0" encoding="UTF-8" standalone="no"?>
<!DOCTYPE svg PUBLIC "-//W3C//DTD SVG 1.1//EN"
 "http://www.w3.org/Graphics/SVG/1.1/DTD/svg11.dtd">
<!-- Generated by graphviz version 2.36.0 (20140111.2315)
 -->
<!-- Title: /home/travis/build/igankevich/arma/src/stats/gram_charlier.hh Pages: 1 -->
<svg width="882pt" height="542pt"
 viewBox="0.00 0.00 882.00 542.00" xmlns="http://www.w3.org/2000/svg" xmlns:xlink="http://www.w3.org/1999/xlink">
<g id="graph0" class="graph" transform="scale(1 1) rotate(0) translate(4 538)">
<title>/home/travis/build/igankevich/arma/src/stats/gram_charlier.hh</title>
<!-- Node1 -->
<g id="node1" class="node"><title>Node1</title>
<polygon fill="#bfbfbf" stroke="black" points="604,-492.5 604,-533.5 720,-533.5 720,-492.5 604,-492.5"/>
<text text-anchor="start" x="612" y="-521.5" font-family="Helvetica,sans-Serif" font-size="10.00">/home/travis/build</text>
<text text-anchor="start" x="612" y="-510.5" font-family="Helvetica,sans-Serif" font-size="10.00">/igankevich/arma/src</text>
<text text-anchor="middle" x="662" y="-499.5" font-family="Helvetica,sans-Serif" font-size="10.00">/stats/gram_charlier.hh</text>
</g>
<!-- Node2 -->
<g id="node2" class="node"><title>Node2</title>
<g id="a_node2"><a xlink:href="distribution_8hh.html" target="_top" xlink:title="/home/travis/build\l/igankevich/arma/src\l/stats/distribution.hh">
<polygon fill="none" stroke="black" points="367.5,-414.5 367.5,-455.5 474.5,-455.5 474.5,-414.5 367.5,-414.5"/>
<text text-anchor="start" x="375.5" y="-443.5" font-family="Helvetica,sans-Serif" font-size="10.00">/home/travis/build</text>
<text text-anchor="start" x="375.5" y="-432.5" font-family="Helvetica,sans-Serif" font-size="10.00">/igankevich/arma/src</text>
<text text-anchor="middle" x="421" y="-421.5" font-family="Helvetica,sans-Serif" font-size="10.00">/stats/distribution.hh</text>
</a>
</g>
</g>
<!-- Node1&#45;&gt;Node2 -->
<g id="edge1" class="edge"><title>Node1&#45;&gt;Node2</title>
<path fill="none" stroke="midnightblue" d="M594.069,-490.578C556.327,-478.676 510.028,-464.075 474.817,-452.971"/>
<polygon fill="midnightblue" stroke="midnightblue" points="593.378,-494.03 603.968,-493.699 595.483,-487.354 593.378,-494.03"/>
</g>
<!-- Node21 -->
<g id="node21" class="node"><title>Node21</title>
<g id="a_node21"><a xlink:href="nit__transform_8hh.html" target="_top" xlink:title="/home/travis/build\l/igankevich/arma/src\l/nonlinear/nit_transform.hh">
<polygon fill="none" stroke="black" points="596,-414.5 596,-455.5 728,-455.5 728,-414.5 596,-414.5"/>
<text text-anchor="start" x="604" y="-443.5" font-family="Helvetica,sans-Serif" font-size="10.00">/home/travis/build</text>
<text text-anchor="start" x="604" y="-432.5" font-family="Helvetica,sans-Serif" font-size="10.00">/igankevich/arma/src</text>
<text text-anchor="middle" x="662" y="-421.5" font-family="Helvetica,sans-Serif" font-size="10.00">/nonlinear/nit_transform.hh</text>
</a>
</g>
</g>
<!-- Node1&#45;&gt;Node21 -->
<g id="edge26" class="edge"><title>Node1&#45;&gt;Node21</title>
<path fill="none" stroke="midnightblue" d="M662,-482.297C662,-473.301 662,-463.653 662,-455.506"/>
<polygon fill="midnightblue" stroke="midnightblue" points="658.5,-482.428 662,-492.428 665.5,-482.428 658.5,-482.428"/>
</g>
<!-- Node24 -->
<g id="node24" class="node"><title>Node24</title>
<g id="a_node24"><a xlink:href="gram__charlier_8cc.html" target="_top" xlink:title="/home/travis/build\l/igankevich/arma/src\l/stats/gram_charlier.cc">
<polygon fill="none" stroke="black" points="746,-414.5 746,-455.5 862,-455.5 862,-414.5 746,-414.5"/>
<text text-anchor="start" x="754" y="-443.5" font-family="Helvetica,sans-Serif" font-size="10.00">/home/travis/build</text>
<text text-anchor="start" x="754" y="-432.5" font-family="Helvetica,sans-Serif" font-size="10.00">/igankevich/arma/src</text>
<text text-anchor="middle" x="804" y="-421.5" font-family="Helvetica,sans-Serif" font-size="10.00">/stats/gram_charlier.cc</text>
</a>
</g>
</g>
<!-- Node1&#45;&gt;Node24 -->
<g id="edge33" class="edge"><title>Node1&#45;&gt;Node24</title>
<path fill="none" stroke="midnightblue" d="M707.54,-487.627C726.943,-477.242 749.271,-465.292 767.555,-455.506"/>
<polygon fill="midnightblue" stroke="midnightblue" points="705.734,-484.623 698.569,-492.428 709.037,-490.795 705.734,-484.623"/>
</g>
<!-- Node3 -->
<g id="node3" class="node"><title>Node3</title>
<g id="a_node3"><a xlink:href="arma_8hh.html" target="_top" xlink:title="/home/travis/build\l/igankevich/arma/src\l/arma.hh">
<polygon fill="none" stroke="black" points="191.5,-330.5 191.5,-371.5 298.5,-371.5 298.5,-330.5 191.5,-330.5"/>
<text text-anchor="start" x="199.5" y="-359.5" font-family="Helvetica,sans-Serif" font-size="10.00">/home/travis/build</text>
<text text-anchor="start" x="199.5" y="-348.5" font-family="Helvetica,sans-Serif" font-size="10.00">/igankevich/arma/src</text>
<text text-anchor="middle" x="245" y="-337.5" font-family="Helvetica,sans-Serif" font-size="10.00">/arma.hh</text>
</a>
</g>
</g>
<!-- Node2&#45;&gt;Node3 -->
<g id="edge2" class="edge"><title>Node2&#45;&gt;Node3</title>
<path fill="none" stroke="midnightblue" d="M369.453,-409.984C343.261,-397.781 311.836,-383.14 287.117,-371.623"/>
<polygon fill="midnightblue" stroke="midnightblue" points="368.301,-413.308 378.844,-414.359 371.257,-406.963 368.301,-413.308"/>
</g>
<!-- Node19 -->
<g id="node19" class="node"><title>Node19</title>
<g id="a_node19"><a xlink:href="basic__arma__model__verify_8cc.html" target="_top" xlink:title="/home/travis/build\l/igankevich/arma/src\l/generator/basic_arma\l_model_verify.cc">
<polygon fill="none" stroke="black" points="572.5,-325 572.5,-377 685.5,-377 685.5,-325 572.5,-325"/>
<text text-anchor="start" x="580.5" y="-365" font-family="Helvetica,sans-Serif" font-size="10.00">/home/travis/build</text>
<text text-anchor="start" x="580.5" y="-354" font-family="Helvetica,sans-Serif" font-size="10.00">/igankevich/arma/src</text>
<text text-anchor="start" x="580.5" y="-343" font-family="Helvetica,sans-Serif" font-size="10.00">/generator/basic_arma</text>
<text text-anchor="middle" x="629" y="-332" font-family="Helvetica,sans-Serif" font-size="10.00">_model_verify.cc</text>
</a>
</g>
</g>
<!-- Node2&#45;&gt;Node19 -->
<g id="edge23" class="edge"><title>Node2&#45;&gt;Node19</title>
<path fill="none" stroke="midnightblue" d="M480.147,-410.682C509.127,-399.258 543.855,-385.567 572.475,-374.284"/>
<polygon fill="midnightblue" stroke="midnightblue" points="478.576,-407.539 470.557,-414.463 481.144,-414.052 478.576,-407.539"/>
</g>
<!-- Node20 -->
<g id="node20" class="node"><title>Node20</title>
<g id="a_node20"><a xlink:href="distribution_8cc.html" target="_top" xlink:title="/home/travis/build\l/igankevich/arma/src\l/stats/distribution.cc">
<polygon fill="none" stroke="black" points="316.5,-330.5 316.5,-371.5 423.5,-371.5 423.5,-330.5 316.5,-330.5"/>
<text text-anchor="start" x="324.5" y="-359.5" font-family="Helvetica,sans-Serif" font-size="10.00">/home/travis/build</text>
<text text-anchor="start" x="324.5" y="-348.5" font-family="Helvetica,sans-Serif" font-size="10.00">/igankevich/arma/src</text>
<text text-anchor="middle" x="370" y="-337.5" font-family="Helvetica,sans-Serif" font-size="10.00">/stats/distribution.cc</text>
</a>
</g>
</g>
<!-- Node2&#45;&gt;Node20 -->
<g id="edge25" class="edge"><title>Node2&#45;&gt;Node20</title>
<path fill="none" stroke="midnightblue" d="M403.306,-405.551C396.352,-394.37 388.541,-381.811 382.232,-371.667"/>
<polygon fill="midnightblue" stroke="midnightblue" points="400.401,-407.507 408.654,-414.15 406.345,-403.81 400.401,-407.507"/>
</g>
<!-- Node4 -->
<g id="node4" class="node"><title>Node4</title>
<g id="a_node4"><a xlink:href="arma_8cc.html" target="_top" xlink:title="/home/travis/build\l/igankevich/arma/src\l/arma.cc">
<polygon fill="none" stroke="black" points="175.5,-240.5 175.5,-281.5 282.5,-281.5 282.5,-240.5 175.5,-240.5"/>
<text text-anchor="start" x="183.5" y="-269.5" font-family="Helvetica,sans-Serif" font-size="10.00">/home/travis/build</text>
<text text-anchor="start" x="183.5" y="-258.5" font-family="Helvetica,sans-Serif" font-size="10.00">/igankevich/arma/src</text>
<text text-anchor="middle" x="229" y="-247.5" font-family="Helvetica,sans-Serif" font-size="10.00">/arma.cc</text>
</a>
</g>
</g>
<!-- Node3&#45;&gt;Node4 -->
<g id="edge3" class="edge"><title>Node3&#45;&gt;Node4</title>
<path fill="none" stroke="midnightblue" d="M239.605,-320.33C237.296,-307.629 234.662,-293.14 232.596,-281.78"/>
<polygon fill="midnightblue" stroke="midnightblue" points="236.217,-321.257 241.449,-330.47 243.104,-320.005 236.217,-321.257"/>
</g>
<!-- Node5 -->
<g id="node5" class="node"><title>Node5</title>
<g id="a_node5"><a xlink:href="arma__driver_8hh.html" target="_top" xlink:title="/home/travis/build\l/igankevich/arma/src\l/arma_driver.hh">
<polygon fill="none" stroke="black" points="89.5,-156.5 89.5,-197.5 196.5,-197.5 196.5,-156.5 89.5,-156.5"/>
<text text-anchor="start" x="97.5" y="-185.5" font-family="Helvetica,sans-Serif" font-size="10.00">/home/travis/build</text>
<text text-anchor="start" x="97.5" y="-174.5" font-family="Helvetica,sans-Serif" font-size="10.00">/igankevich/arma/src</text>
<text text-anchor="middle" x="143" y="-163.5" font-family="Helvetica,sans-Serif" font-size="10.00">/arma_driver.hh</text>
</a>
</g>
</g>
<!-- Node3&#45;&gt;Node5 -->
<g id="edge4" class="edge"><title>Node3&#45;&gt;Node5</title>
<path fill="none" stroke="midnightblue" d="M201.711,-324.551C188.395,-314.719 174.912,-302.35 166,-288 148.604,-259.99 144.153,-221.023 143.136,-197.773"/>
<polygon fill="midnightblue" stroke="midnightblue" points="199.747,-327.448 209.939,-330.34 203.775,-321.723 199.747,-327.448"/>
</g>
<!-- Node11 -->
<g id="node11" class="node"><title>Node11</title>
<g id="a_node11"><a xlink:href="ar__model_8hh.html" target="_top" xlink:title="/home/travis/build\l/igankevich/arma/src\l/generator/ar_model.hh">
<polygon fill="none" stroke="black" points="301,-240.5 301,-281.5 417,-281.5 417,-240.5 301,-240.5"/>
<text text-anchor="start" x="309" y="-269.5" font-family="Helvetica,sans-Serif" font-size="10.00">/home/travis/build</text>
<text text-anchor="start" x="309" y="-258.5" font-family="Helvetica,sans-Serif" font-size="10.00">/igankevich/arma/src</text>
<text text-anchor="middle" x="359" y="-247.5" font-family="Helvetica,sans-Serif" font-size="10.00">/generator/ar_model.hh</text>
</a>
</g>
</g>
<!-- Node3&#45;&gt;Node11 -->
<g id="edge10" class="edge"><title>Node3&#45;&gt;Node11</title>
<path fill="none" stroke="midnightblue" d="M278.576,-324.081C296.095,-310.558 317.188,-294.276 333.376,-281.78"/>
<polygon fill="midnightblue" stroke="midnightblue" points="276.078,-321.589 270.3,-330.47 280.355,-327.13 276.078,-321.589"/>
</g>
<!-- Node16 -->
<g id="node16" class="node"><title>Node16</title>
<g id="a_node16"><a xlink:href="ma__model_8hh.html" target="_top" xlink:title="/home/travis/build\l/igankevich/arma/src\l/generator/ma_model.hh">
<polygon fill="none" stroke="black" points="435,-240.5 435,-281.5 557,-281.5 557,-240.5 435,-240.5"/>
<text text-anchor="start" x="443" y="-269.5" font-family="Helvetica,sans-Serif" font-size="10.00">/home/travis/build</text>
<text text-anchor="start" x="443" y="-258.5" font-family="Helvetica,sans-Serif" font-size="10.00">/igankevich/arma/src</text>
<text text-anchor="middle" x="496" y="-247.5" font-family="Helvetica,sans-Serif" font-size="10.00">/generator/ma_model.hh</text>
</a>
</g>
</g>
<!-- Node3&#45;&gt;Node16 -->
<g id="edge18" class="edge"><title>Node3&#45;&gt;Node16</title>
<path fill="none" stroke="midnightblue" d="M299.694,-326.713C302.155,-325.776 304.599,-324.867 307,-324 358.57,-305.374 373.015,-305.434 425,-288 430.974,-285.997 437.204,-283.83 443.383,-281.633"/>
<polygon fill="midnightblue" stroke="midnightblue" points="298.204,-323.538 290.166,-330.439 300.754,-330.057 298.204,-323.538"/>
</g>
<!-- Node18 -->
<g id="node18" class="node"><title>Node18</title>
<g id="a_node18"><a xlink:href="basic__arma__model_8cc.html" target="_top" xlink:title="/home/travis/build\l/igankevich/arma/src\l/generator/basic_arma\l_model.cc">
<polygon fill="none" stroke="black" points="575.5,-235 575.5,-287 688.5,-287 688.5,-235 575.5,-235"/>
<text text-anchor="start" x="583.5" y="-275" font-family="Helvetica,sans-Serif" font-size="10.00">/home/travis/build</text>
<text text-anchor="start" x="583.5" y="-264" font-family="Helvetica,sans-Serif" font-size="10.00">/igankevich/arma/src</text>
<text text-anchor="start" x="583.5" y="-253" font-family="Helvetica,sans-Serif" font-size="10.00">/generator/basic_arma</text>
<text text-anchor="middle" x="632" y="-242" font-family="Helvetica,sans-Serif" font-size="10.00">_model.cc</text>
</a>
</g>
</g>
<!-- Node3&#45;&gt;Node18 -->
<g id="edge22" class="edge"><title>Node3&#45;&gt;Node18</title>
<path fill="none" stroke="midnightblue" d="M296.959,-327.082C300.326,-325.949 303.692,-324.907 307,-324 419.082,-293.27 453.59,-317.506 566,-288 569.097,-287.187 572.246,-286.271 575.404,-285.281"/>
<polygon fill="midnightblue" stroke="midnightblue" points="295.739,-323.801 287.516,-330.482 298.111,-330.387 295.739,-323.801"/>
</g>
<!-- Node6 -->
<g id="node6" class="node"><title>Node6</title>
<g id="a_node6"><a xlink:href="arma__driver_8cc.html" target="_top" xlink:title="/home/travis/build\l/igankevich/arma/src\l/arma_driver.cc">
<polygon fill="none" stroke="black" points="180.5,-78.5 180.5,-119.5 287.5,-119.5 287.5,-78.5 180.5,-78.5"/>
<text text-anchor="start" x="188.5" y="-107.5" font-family="Helvetica,sans-Serif" font-size="10.00">/home/travis/build</text>
<text text-anchor="start" x="188.5" y="-96.5" font-family="Helvetica,sans-Serif" font-size="10.00">/igankevich/arma/src</text>
<text text-anchor="middle" x="234" y="-85.5" font-family="Helvetica,sans-Serif" font-size="10.00">/arma_driver.cc</text>
</a>
</g>
</g>
<!-- Node5&#45;&gt;Node6 -->
<g id="edge5" class="edge"><title>Node5&#45;&gt;Node6</title>
<path fill="none" stroke="midnightblue" d="M174.397,-149.779C186.293,-139.843 199.616,-128.716 210.645,-119.506"/>
<polygon fill="midnightblue" stroke="midnightblue" points="171.867,-147.332 166.435,-156.428 176.354,-152.704 171.867,-147.332"/>
</g>
<!-- Node7 -->
<g id="node7" class="node"><title>Node7</title>
<g id="a_node7"><a xlink:href="arma__main_8cc.html" target="_top" xlink:title="/home/travis/build\l/igankevich/arma/src\l/arma_main.cc">
<polygon fill="none" stroke="black" points="295.5,-0.5 295.5,-41.5 402.5,-41.5 402.5,-0.5 295.5,-0.5"/>
<text text-anchor="start" x="303.5" y="-29.5" font-family="Helvetica,sans-Serif" font-size="10.00">/home/travis/build</text>
<text text-anchor="start" x="303.5" y="-18.5" font-family="Helvetica,sans-Serif" font-size="10.00">/igankevich/arma/src</text>
<text text-anchor="middle" x="349" y="-7.5" font-family="Helvetica,sans-Serif" font-size="10.00">/arma_main.cc</text>
</a>
</g>
</g>
<!-- Node5&#45;&gt;Node7 -->
<g id="edge6" class="edge"><title>Node5&#45;&gt;Node7</title>
<path fill="none" stroke="midnightblue" d="M144.205,-146.403C146.631,-124.787 153.283,-96.1931 171,-78 175.535,-73.3437 244.35,-52.514 295.061,-37.6211"/>
<polygon fill="midnightblue" stroke="midnightblue" points="140.718,-146.109 143.324,-156.378 147.691,-146.724 140.718,-146.109"/>
</g>
<!-- Node8 -->
<g id="node8" class="node"><title>Node8</title>
<g id="a_node8"><a xlink:href="arma__realtime__driver_8hh.html" target="_top" xlink:title="/home/travis/build\l/igankevich/arma/src\l/arma_realtime_driver.hh">
<polygon fill="none" stroke="black" points="0,-78.5 0,-119.5 124,-119.5 124,-78.5 0,-78.5"/>
<text text-anchor="start" x="8" y="-107.5" font-family="Helvetica,sans-Serif" font-size="10.00">/home/travis/build</text>
<text text-anchor="start" x="8" y="-96.5" font-family="Helvetica,sans-Serif" font-size="10.00">/igankevich/arma/src</text>
<text text-anchor="middle" x="62" y="-85.5" font-family="Helvetica,sans-Serif" font-size="10.00">/arma_realtime_driver.hh</text>
</a>
</g>
</g>
<!-- Node5&#45;&gt;Node8 -->
<g id="edge7" class="edge"><title>Node5&#45;&gt;Node8</title>
<path fill="none" stroke="midnightblue" d="M114.748,-149.492C104.237,-139.629 92.5107,-128.627 82.7888,-119.506"/>
<polygon fill="midnightblue" stroke="midnightblue" points="112.453,-152.138 122.14,-156.428 117.243,-147.033 112.453,-152.138"/>
</g>
<!-- Node9 -->
<g id="node9" class="node"><title>Node9</title>
<g id="a_node9"><a xlink:href="arma__realtime_8cc.html" target="_top" xlink:title="/home/travis/build\l/igankevich/arma/src\l/arma_realtime.cc">
<polygon fill="none" stroke="black" points="161.5,-0.5 161.5,-41.5 268.5,-41.5 268.5,-0.5 161.5,-0.5"/>
<text text-anchor="start" x="169.5" y="-29.5" font-family="Helvetica,sans-Serif" font-size="10.00">/home/travis/build</text>
<text text-anchor="start" x="169.5" y="-18.5" font-family="Helvetica,sans-Serif" font-size="10.00">/igankevich/arma/src</text>
<text text-anchor="middle" x="215" y="-7.5" font-family="Helvetica,sans-Serif" font-size="10.00">/arma_realtime.cc</text>
</a>
</g>
</g>
<!-- Node8&#45;&gt;Node9 -->
<g id="edge8" class="edge"><title>Node8&#45;&gt;Node9</title>
<path fill="none" stroke="midnightblue" d="M110.501,-73.9082C131.538,-63.4581 155.853,-51.3801 175.732,-41.5056"/>
<polygon fill="midnightblue" stroke="midnightblue" points="108.8,-70.8448 101.401,-78.4281 111.914,-77.1139 108.8,-70.8448"/>
</g>
<!-- Node10 -->
<g id="node10" class="node"><title>Node10</title>
<g id="a_node10"><a xlink:href="arma__realtime__driver_8cc.html" target="_top" xlink:title="/home/travis/build\l/igankevich/arma/src\l/arma_realtime_driver.cc">
<polygon fill="none" stroke="black" points="0,-0.5 0,-41.5 124,-41.5 124,-0.5 0,-0.5"/>
<text text-anchor="start" x="8" y="-29.5" font-family="Helvetica,sans-Serif" font-size="10.00">/home/travis/build</text>
<text text-anchor="start" x="8" y="-18.5" font-family="Helvetica,sans-Serif" font-size="10.00">/igankevich/arma/src</text>
<text text-anchor="middle" x="62" y="-7.5" font-family="Helvetica,sans-Serif" font-size="10.00">/arma_realtime_driver.cc</text>
</a>
</g>
</g>
<!-- Node8&#45;&gt;Node10 -->
<g id="edge9" class="edge"><title>Node8&#45;&gt;Node10</title>
<path fill="none" stroke="midnightblue" d="M62,-68.2965C62,-59.3009 62,-49.6532 62,-41.5056"/>
<polygon fill="midnightblue" stroke="midnightblue" points="58.5001,-68.4281 62,-78.4281 65.5001,-68.4281 58.5001,-68.4281"/>
</g>
<!-- Node12 -->
<g id="node12" class="node"><title>Node12</title>
<g id="a_node12"><a xlink:href="common__main_8hh.html" target="_top" xlink:title="/home/travis/build\l/igankevich/arma/src\l/common_main.hh">
<polygon fill="none" stroke="black" points="305.5,-78.5 305.5,-119.5 412.5,-119.5 412.5,-78.5 305.5,-78.5"/>
<text text-anchor="start" x="313.5" y="-107.5" font-family="Helvetica,sans-Serif" font-size="10.00">/home/travis/build</text>
<text text-anchor="start" x="313.5" y="-96.5" font-family="Helvetica,sans-Serif" font-size="10.00">/igankevich/arma/src</text>
<text text-anchor="middle" x="359" y="-85.5" font-family="Helvetica,sans-Serif" font-size="10.00">/common_main.hh</text>
</a>
</g>
</g>
<!-- Node11&#45;&gt;Node12 -->
<g id="edge11" class="edge"><title>Node11&#45;&gt;Node12</title>
<path fill="none" stroke="midnightblue" d="M359,-230.206C359,-197.962 359,-147.458 359,-119.78"/>
<polygon fill="midnightblue" stroke="midnightblue" points="355.5,-230.381 359,-240.381 362.5,-230.381 355.5,-230.381"/>
</g>
<!-- Node13 -->
<g id="node13" class="node"><title>Node13</title>
<g id="a_node13"><a xlink:href="arma__model_8hh.html" target="_top" xlink:title="/home/travis/build\l/igankevich/arma/src\l/generator/arma_model.hh">
<polygon fill="none" stroke="black" points="387,-156.5 387,-197.5 517,-197.5 517,-156.5 387,-156.5"/>
<text text-anchor="start" x="395" y="-185.5" font-family="Helvetica,sans-Serif" font-size="10.00">/home/travis/build</text>
<text text-anchor="start" x="395" y="-174.5" font-family="Helvetica,sans-Serif" font-size="10.00">/igankevich/arma/src</text>
<text text-anchor="middle" x="452" y="-163.5" font-family="Helvetica,sans-Serif" font-size="10.00">/generator/arma_model.hh</text>
</a>
</g>
</g>
<!-- Node11&#45;&gt;Node13 -->
<g id="edge14" class="edge"><title>Node11&#45;&gt;Node13</title>
<path fill="none" stroke="midnightblue" d="M389.023,-233.528C402.244,-221.871 417.506,-208.414 429.695,-197.667"/>
<polygon fill="midnightblue" stroke="midnightblue" points="386.699,-230.911 381.513,-240.15 391.328,-236.162 386.699,-230.911"/>
</g>
<!-- Node15 -->
<g id="node15" class="node"><title>Node15</title>
<g id="a_node15"><a xlink:href="ar__model_8cc.html" target="_top" xlink:title="/home/travis/build\l/igankevich/arma/src\l/generator/ar_model.cc">
<polygon fill="none" stroke="black" points="215,-156.5 215,-197.5 331,-197.5 331,-156.5 215,-156.5"/>
<text text-anchor="start" x="223" y="-185.5" font-family="Helvetica,sans-Serif" font-size="10.00">/home/travis/build</text>
<text text-anchor="start" x="223" y="-174.5" font-family="Helvetica,sans-Serif" font-size="10.00">/igankevich/arma/src</text>
<text text-anchor="middle" x="273" y="-163.5" font-family="Helvetica,sans-Serif" font-size="10.00">/generator/ar_model.cc</text>
</a>
</g>
</g>
<!-- Node11&#45;&gt;Node15 -->
<g id="edge17" class="edge"><title>Node11&#45;&gt;Node15</title>
<path fill="none" stroke="midnightblue" d="M330.894,-233.201C318.747,-221.62 304.792,-208.313 293.626,-197.667"/>
<polygon fill="midnightblue" stroke="midnightblue" points="328.529,-235.782 338.182,-240.15 333.36,-230.716 328.529,-235.782"/>
</g>
<!-- Node12&#45;&gt;Node7 -->
<g id="edge12" class="edge"><title>Node12&#45;&gt;Node7</title>
<path fill="none" stroke="midnightblue" d="M355.092,-68.2965C353.908,-59.3009 352.639,-49.6532 351.567,-41.5056"/>
<polygon fill="midnightblue" stroke="midnightblue" points="351.65,-68.9702 356.425,-78.4281 358.59,-68.0569 351.65,-68.9702"/>
</g>
<!-- Node12&#45;&gt;Node9 -->
<g id="edge13" class="edge"><title>Node12&#45;&gt;Node9</title>
<path fill="none" stroke="midnightblue" d="M312.819,-73.6266C293.142,-63.2416 270.5,-51.2915 251.958,-41.5056"/>
<polygon fill="midnightblue" stroke="midnightblue" points="311.439,-76.8558 321.916,-78.4281 314.706,-70.6651 311.439,-76.8558"/>
</g>
<!-- Node13&#45;&gt;Node12 -->
<g id="edge15" class="edge"><title>Node13&#45;&gt;Node12</title>
<path fill="none" stroke="midnightblue" d="M420.263,-150.065C408.018,-140.057 394.248,-128.804 382.869,-119.506"/>
<polygon fill="midnightblue" stroke="midnightblue" points="418.092,-152.81 428.05,-156.428 422.522,-147.39 418.092,-152.81"/>
</g>
<!-- Node14 -->
<g id="node14" class="node"><title>Node14</title>
<g id="a_node14"><a xlink:href="arma__model_8cc.html" target="_top" xlink:title="/home/travis/build\l/igankevich/arma/src\l/generator/arma_model.cc">
<polygon fill="none" stroke="black" points="431,-78.5 431,-119.5 561,-119.5 561,-78.5 431,-78.5"/>
<text text-anchor="start" x="439" y="-107.5" font-family="Helvetica,sans-Serif" font-size="10.00">/home/travis/build</text>
<text text-anchor="start" x="439" y="-96.5" font-family="Helvetica,sans-Serif" font-size="10.00">/igankevich/arma/src</text>
<text text-anchor="middle" x="496" y="-85.5" font-family="Helvetica,sans-Serif" font-size="10.00">/generator/arma_model.cc</text>
</a>
</g>
</g>
<!-- Node13&#45;&gt;Node14 -->
<g id="edge16" class="edge"><title>Node13&#45;&gt;Node14</title>
<path fill="none" stroke="midnightblue" d="M468.351,-147.757C473.795,-138.354 479.734,-128.096 484.707,-119.506"/>
<polygon fill="midnightblue" stroke="midnightblue" points="465.313,-146.02 463.331,-156.428 471.371,-149.527 465.313,-146.02"/>
</g>
<!-- Node16&#45;&gt;Node12 -->
<g id="edge19" class="edge"><title>Node16&#45;&gt;Node12</title>
<path fill="none" stroke="midnightblue" d="M557.812,-237.003C560.578,-235.986 563.318,-234.981 566,-234 610.363,-217.776 638.838,-236.646 666,-198 676.734,-182.728 678.198,-170.13 666,-156 630.184,-114.512 475.404,-132.332 422,-120 418.981,-119.303 415.898,-118.53 412.798,-117.706"/>
<polygon fill="midnightblue" stroke="midnightblue" points="556.518,-233.749 548.346,-240.492 558.939,-240.317 556.518,-233.749"/>
</g>
<!-- Node16&#45;&gt;Node13 -->
<g id="edge20" class="edge"><title>Node16&#45;&gt;Node13</title>
<path fill="none" stroke="midnightblue" d="M480.556,-231.219C474.602,-220.122 467.942,-207.711 462.553,-197.667"/>
<polygon fill="midnightblue" stroke="midnightblue" points="477.537,-232.993 485.349,-240.15 483.705,-229.684 477.537,-232.993"/>
</g>
<!-- Node17 -->
<g id="node17" class="node"><title>Node17</title>
<g id="a_node17"><a xlink:href="ma__model_8cc.html" target="_top" xlink:title="/home/travis/build\l/igankevich/arma/src\l/generator/ma_model.cc">
<polygon fill="none" stroke="black" points="535,-156.5 535,-197.5 657,-197.5 657,-156.5 535,-156.5"/>
<text text-anchor="start" x="543" y="-185.5" font-family="Helvetica,sans-Serif" font-size="10.00">/home/travis/build</text>
<text text-anchor="start" x="543" y="-174.5" font-family="Helvetica,sans-Serif" font-size="10.00">/igankevich/arma/src</text>
<text text-anchor="middle" x="596" y="-163.5" font-family="Helvetica,sans-Serif" font-size="10.00">/generator/ma_model.cc</text>
</a>
</g>
</g>
<!-- Node16&#45;&gt;Node17 -->
<g id="edge21" class="edge"><title>Node16&#45;&gt;Node17</title>
<path fill="none" stroke="midnightblue" d="M528.031,-233.735C542.262,-222.065 558.733,-208.559 571.896,-197.765"/>
<polygon fill="midnightblue" stroke="midnightblue" points="525.466,-231.312 519.952,-240.359 529.904,-236.725 525.466,-231.312"/>
</g>
<!-- Node19&#45;&gt;Node18 -->
<g id="edge24" class="edge"><title>Node19&#45;&gt;Node18</title>
<path fill="none" stroke="midnightblue" d="M630.211,-314.489C630.524,-305.309 630.854,-295.616 631.145,-287.092"/>
<polygon fill="midnightblue" stroke="midnightblue" points="626.711,-314.433 629.868,-324.547 633.706,-314.672 626.711,-314.433"/>
</g>
<!-- Node21&#45;&gt;Node18 -->
<g id="edge31" class="edge"><title>Node21&#45;&gt;Node18</title>
<path fill="none" stroke="midnightblue" d="M681.967,-405.643C686.886,-397.144 691.467,-387.537 694,-378 700.16,-354.804 703.184,-346.173 694,-324 688.116,-309.796 677.225,-297.149 666.192,-287.042"/>
<polygon fill="midnightblue" stroke="midnightblue" points="678.852,-404.026 676.578,-414.374 684.809,-407.703 678.852,-404.026"/>
</g>
<!-- Node22 -->
<g id="node22" class="node"><title>Node22</title>
<g id="a_node22"><a xlink:href="basic__arma__model_8hh.html" target="_top" xlink:title="/home/travis/build\l/igankevich/arma/src\l/generator/basic_arma\l_model.hh">
<polygon fill="none" stroke="black" points="441.5,-325 441.5,-377 554.5,-377 554.5,-325 441.5,-325"/>
<text text-anchor="start" x="449.5" y="-365" font-family="Helvetica,sans-Serif" font-size="10.00">/home/travis/build</text>
<text text-anchor="start" x="449.5" y="-354" font-family="Helvetica,sans-Serif" font-size="10.00">/igankevich/arma/src</text>
<text text-anchor="start" x="449.5" y="-343" font-family="Helvetica,sans-Serif" font-size="10.00">/generator/basic_arma</text>
<text text-anchor="middle" x="498" y="-332" font-family="Helvetica,sans-Serif" font-size="10.00">_model.hh</text>
</a>
</g>
</g>
<!-- Node21&#45;&gt;Node22 -->
<g id="edge27" class="edge"><title>Node21&#45;&gt;Node22</title>
<path fill="none" stroke="midnightblue" d="M613.52,-409.76C592.927,-399.464 568.928,-387.464 548.156,-377.078"/>
<polygon fill="midnightblue" stroke="midnightblue" points="612.208,-413.017 622.718,-414.359 615.339,-406.756 612.208,-413.017"/>
</g>
<!-- Node23 -->
<g id="node23" class="node"><title>Node23</title>
<g id="a_node23"><a xlink:href="nit__transform_8cc.html" target="_top" xlink:title="/home/travis/build\l/igankevich/arma/src\l/nonlinear/nit_transform.cc">
<polygon fill="none" stroke="black" points="742,-330.5 742,-371.5 874,-371.5 874,-330.5 742,-330.5"/>
<text text-anchor="start" x="750" y="-359.5" font-family="Helvetica,sans-Serif" font-size="10.00">/home/travis/build</text>
<text text-anchor="start" x="750" y="-348.5" font-family="Helvetica,sans-Serif" font-size="10.00">/igankevich/arma/src</text>
<text text-anchor="middle" x="808" y="-337.5" font-family="Helvetica,sans-Serif" font-size="10.00">/nonlinear/nit_transform.cc</text>
</a>
</g>
</g>
<!-- Node21&#45;&gt;Node23 -->
<g id="edge32" class="edge"><title>Node21&#45;&gt;Node23</title>
<path fill="none" stroke="midnightblue" d="M705.908,-409.339C727.401,-397.268 752.916,-382.938 773.062,-371.623"/>
<polygon fill="midnightblue" stroke="midnightblue" points="703.976,-406.41 696.971,-414.359 707.404,-412.514 703.976,-406.41"/>
</g>
<!-- Node22&#45;&gt;Node11 -->
<g id="edge28" class="edge"><title>Node22&#45;&gt;Node11</title>
<path fill="none" stroke="midnightblue" d="M449.579,-319.345C429.808,-306.828 407.522,-292.719 390.004,-281.628"/>
<polygon fill="midnightblue" stroke="midnightblue" points="447.847,-322.391 458.168,-324.783 451.591,-316.476 447.847,-322.391"/>
</g>
<!-- Node22&#45;&gt;Node16 -->
<g id="edge29" class="edge"><title>Node22&#45;&gt;Node16</title>
<path fill="none" stroke="midnightblue" d="M497.194,-314.515C496.938,-303.257 496.664,-291.227 496.444,-281.525"/>
<polygon fill="midnightblue" stroke="midnightblue" points="493.695,-314.629 497.422,-324.547 500.693,-314.47 493.695,-314.629"/>
</g>
<!-- Node22&#45;&gt;Node18 -->
<g id="edge30" class="edge"><title>Node22&#45;&gt;Node18</title>
<path fill="none" stroke="midnightblue" d="M545.031,-319.114C560.919,-308.68 578.456,-297.163 593.595,-287.221"/>
<polygon fill="midnightblue" stroke="midnightblue" points="542.836,-316.368 536.399,-324.783 546.679,-322.219 542.836,-316.368"/>
</g>
</g>
</svg>
