<?xml version="1.0" encoding="UTF-8" standalone="no"?>
<!DOCTYPE svg PUBLIC "-//W3C//DTD SVG 1.1//EN"
 "http://www.w3.org/Graphics/SVG/1.1/DTD/svg11.dtd">
<!-- Generated by graphviz version 2.36.0 (20140111.2315)
 -->
<!-- Title: /home/travis/build/igankevich/arma/src/grid.hh Pages: 1 -->
<svg width="229pt" height="218pt"
 viewBox="0.00 0.00 229.00 218.00" xmlns="http://www.w3.org/2000/svg" xmlns:xlink="http://www.w3.org/1999/xlink">
<g id="graph0" class="graph" transform="scale(1 1) rotate(0) translate(4 214)">
<title>/home/travis/build/igankevich/arma/src/grid.hh</title>
<!-- Node1 -->
<g id="node1" class="node"><title>Node1</title>
<polygon fill="#bfbfbf" stroke="black" points="38.5,-168.5 38.5,-209.5 145.5,-209.5 145.5,-168.5 38.5,-168.5"/>
<text text-anchor="start" x="46.5" y="-197.5" font-family="Helvetica,sans-Serif" font-size="10.00">/home/travis/build</text>
<text text-anchor="start" x="46.5" y="-186.5" font-family="Helvetica,sans-Serif" font-size="10.00">/igankevich/arma/src</text>
<text text-anchor="middle" x="92" y="-175.5" font-family="Helvetica,sans-Serif" font-size="10.00">/grid.hh</text>
</g>
<!-- Node2 -->
<g id="node2" class="node"><title>Node2</title>
<polygon fill="none" stroke="#bfbfbf" points="0,-0.5 0,-19.5 44,-19.5 44,-0.5 0,-0.5"/>
<text text-anchor="middle" x="22" y="-7.5" font-family="Helvetica,sans-Serif" font-size="10.00">cmath</text>
</g>
<!-- Node1&#45;&gt;Node2 -->
<g id="edge1" class="edge"><title>Node1&#45;&gt;Node2</title>
<path fill="none" stroke="midnightblue" d="M63.0091,-168.41C51.3123,-158.876 38.9582,-146.362 32,-132 15.9733,-98.9205 17.1408,-54.7622 19.5142,-29.9676"/>
<polygon fill="midnightblue" stroke="midnightblue" points="23.0219,-30.0956 20.669,-19.7654 16.0664,-29.3082 23.0219,-30.0956"/>
</g>
<!-- Node3 -->
<g id="node3" class="node"><title>Node3</title>
<polygon fill="none" stroke="#bfbfbf" points="41.5,-112.5 41.5,-131.5 90.5,-131.5 90.5,-112.5 41.5,-112.5"/>
<text text-anchor="middle" x="66" y="-119.5" font-family="Helvetica,sans-Serif" font-size="10.00">istream</text>
</g>
<!-- Node1&#45;&gt;Node3 -->
<g id="edge2" class="edge"><title>Node1&#45;&gt;Node3</title>
<path fill="none" stroke="midnightblue" d="M84.1991,-168.498C80.7111,-159.778 76.6253,-149.563 73.2097,-141.024"/>
<polygon fill="midnightblue" stroke="midnightblue" points="76.4246,-139.637 69.461,-131.652 69.9253,-142.237 76.4246,-139.637"/>
</g>
<!-- Node4 -->
<g id="node4" class="node"><title>Node4</title>
<g id="a_node4"><a xlink:href="blitz_8hh.html" target="_top" xlink:title="blitz.hh">
<polygon fill="none" stroke="black" points="91,-56.5 91,-75.5 139,-75.5 139,-56.5 91,-56.5"/>
<text text-anchor="middle" x="115" y="-63.5" font-family="Helvetica,sans-Serif" font-size="10.00">blitz.hh</text>
</a>
</g>
</g>
<!-- Node1&#45;&gt;Node4 -->
<g id="edge3" class="edge"><title>Node1&#45;&gt;Node4</title>
<path fill="none" stroke="midnightblue" d="M95.7465,-168.29C100.102,-145.375 107.236,-107.846 111.489,-85.4732"/>
<polygon fill="midnightblue" stroke="midnightblue" points="114.941,-86.0525 113.37,-75.5748 108.064,-84.7453 114.941,-86.0525"/>
</g>
<!-- Node7 -->
<g id="node7" class="node"><title>Node7</title>
<g id="a_node7"><a xlink:href="validators_8hh.html" target="_top" xlink:title="validators.hh">
<polygon fill="none" stroke="black" points="147,-112.5 147,-131.5 219,-131.5 219,-112.5 147,-112.5"/>
<text text-anchor="middle" x="183" y="-119.5" font-family="Helvetica,sans-Serif" font-size="10.00">validators.hh</text>
</a>
</g>
</g>
<!-- Node1&#45;&gt;Node7 -->
<g id="edge7" class="edge"><title>Node1&#45;&gt;Node7</title>
<path fill="none" stroke="midnightblue" d="M119.303,-168.498C133.255,-158.532 149.94,-146.614 162.733,-137.476"/>
<polygon fill="midnightblue" stroke="midnightblue" points="164.784,-140.313 170.887,-131.652 160.715,-134.617 164.784,-140.313"/>
</g>
<!-- Node4&#45;&gt;Node2 -->
<g id="edge6" class="edge"><title>Node4&#45;&gt;Node2</title>
<path fill="none" stroke="midnightblue" d="M100.058,-56.324C85.4148,-47.8215 62.8663,-34.7288 45.7623,-24.7975"/>
<polygon fill="midnightblue" stroke="midnightblue" points="47.3104,-21.6491 36.905,-19.6545 43.7954,-27.7027 47.3104,-21.6491"/>
</g>
<!-- Node5 -->
<g id="node5" class="node"><title>Node5</title>
<polygon fill="none" stroke="#bfbfbf" points="79,-0.5 79,-19.5 135,-19.5 135,-0.5 79,-0.5"/>
<text text-anchor="middle" x="107" y="-7.5" font-family="Helvetica,sans-Serif" font-size="10.00">algorithm</text>
</g>
<!-- Node4&#45;&gt;Node5 -->
<g id="edge4" class="edge"><title>Node4&#45;&gt;Node5</title>
<path fill="none" stroke="midnightblue" d="M113.679,-56.083C112.619,-48.9272 111.094,-38.6353 109.769,-29.6911"/>
<polygon fill="midnightblue" stroke="midnightblue" points="113.224,-29.1302 108.296,-19.7511 106.3,-30.1561 113.224,-29.1302"/>
</g>
<!-- Node6 -->
<g id="node6" class="node"><title>Node6</title>
<polygon fill="none" stroke="#bfbfbf" points="153,-0.5 153,-19.5 221,-19.5 221,-0.5 153,-0.5"/>
<text text-anchor="middle" x="187" y="-7.5" font-family="Helvetica,sans-Serif" font-size="10.00">blitz/array.h</text>
</g>
<!-- Node4&#45;&gt;Node6 -->
<g id="edge5" class="edge"><title>Node4&#45;&gt;Node6</title>
<path fill="none" stroke="midnightblue" d="M126.568,-56.324C137.42,-48.1849 153.881,-35.8395 166.883,-26.0874"/>
<polygon fill="midnightblue" stroke="midnightblue" points="169.321,-28.6339 175.221,-19.8339 165.121,-23.0339 169.321,-28.6339"/>
</g>
<!-- Node7&#45;&gt;Node4 -->
<g id="edge9" class="edge"><title>Node7&#45;&gt;Node4</title>
<path fill="none" stroke="midnightblue" d="M172.075,-112.324C161.825,-104.185 146.279,-91.8395 133.999,-82.0874"/>
<polygon fill="midnightblue" stroke="midnightblue" points="136.132,-79.3119 126.124,-75.8339 131.779,-84.7937 136.132,-79.3119"/>
</g>
<!-- Node8 -->
<g id="node8" class="node"><title>Node8</title>
<polygon fill="none" stroke="#bfbfbf" points="157.5,-56.5 157.5,-75.5 216.5,-75.5 216.5,-56.5 157.5,-56.5"/>
<text text-anchor="middle" x="187" y="-63.5" font-family="Helvetica,sans-Serif" font-size="10.00">stdexcept</text>
</g>
<!-- Node7&#45;&gt;Node8 -->
<g id="edge8" class="edge"><title>Node7&#45;&gt;Node8</title>
<path fill="none" stroke="midnightblue" d="M183.661,-112.083C184.185,-105.006 184.936,-94.8611 185.594,-85.9865"/>
<polygon fill="midnightblue" stroke="midnightblue" points="189.103,-85.9823 186.352,-75.7511 182.123,-85.4652 189.103,-85.9823"/>
</g>
</g>
</svg>
