<?xml version="1.0" encoding="UTF-8" standalone="no"?>
<!DOCTYPE svg PUBLIC "-//W3C//DTD SVG 1.1//EN"
 "http://www.w3.org/Graphics/SVG/1.1/DTD/svg11.dtd">
<!-- Generated by graphviz version 2.40.1 (20161225.0304)
 -->
<!-- Title: src/apmath/hermite.cc Pages: 1 -->
<svg width="299pt" height="196pt"
 viewBox="0.00 0.00 299.00 196.00" xmlns="http://www.w3.org/2000/svg" xmlns:xlink="http://www.w3.org/1999/xlink">
<g id="graph0" class="graph" transform="scale(1 1) rotate(0) translate(4 192)">
<title>src/apmath/hermite.cc</title>
<!-- Node0 -->
<g id="node1" class="node">
<title>Node0</title>
<polygon fill="#bfbfbf" stroke="#000000" points="45.5,-168.5 45.5,-187.5 159.5,-187.5 159.5,-168.5 45.5,-168.5"/>
<text text-anchor="middle" x="102.5" y="-175.5" font-family="Helvetica,sans-Serif" font-size="10.00" fill="#000000">src/apmath/hermite.cc</text>
</g>
<!-- Node1 -->
<g id="node2" class="node">
<title>Node1</title>
<g id="a_node2"><a xlink:href="hermite_8hh.html" target="_top" xlink:title="hermite.hh">
<polygon fill="none" stroke="#000000" points="71.5,-112.5 71.5,-131.5 133.5,-131.5 133.5,-112.5 71.5,-112.5"/>
<text text-anchor="middle" x="102.5" y="-119.5" font-family="Helvetica,sans-Serif" font-size="10.00" fill="#000000">hermite.hh</text>
</a>
</g>
</g>
<!-- Node0&#45;&gt;Node1 -->
<g id="edge1" class="edge">
<title>Node0&#45;&gt;Node1</title>
<path fill="none" stroke="#191970" d="M102.5,-168.2455C102.5,-160.9382 102.5,-150.6944 102.5,-141.7046"/>
<polygon fill="#191970" stroke="#191970" points="106.0001,-141.6426 102.5,-131.6427 99.0001,-141.6427 106.0001,-141.6426"/>
</g>
<!-- Node3 -->
<g id="node4" class="node">
<title>Node3</title>
<polygon fill="none" stroke="#bfbfbf" points="0,-.5 0,-19.5 67,-19.5 67,-.5 0,-.5"/>
<text text-anchor="middle" x="33.5" y="-7.5" font-family="Helvetica,sans-Serif" font-size="10.00" fill="#000000">blitz/array.h</text>
</g>
<!-- Node0&#45;&gt;Node3 -->
<g id="edge8" class="edge">
<title>Node0&#45;&gt;Node3</title>
<path fill="none" stroke="#191970" d="M91.6985,-168.4775C82.5739,-159.8427 69.8506,-146.3088 62.5,-132 45.3326,-98.5819 38.1324,-54.7797 35.2626,-29.7789"/>
<polygon fill="#191970" stroke="#191970" points="38.7329,-29.3096 34.2286,-19.72 31.7696,-30.0255 38.7329,-29.3096"/>
</g>
<!-- Node7 -->
<g id="node8" class="node">
<title>Node7</title>
<polygon fill="none" stroke="#bfbfbf" points="151.5,-112.5 151.5,-131.5 207.5,-131.5 207.5,-112.5 151.5,-112.5"/>
<text text-anchor="middle" x="179.5" y="-119.5" font-family="Helvetica,sans-Serif" font-size="10.00" fill="#000000">algorithm</text>
</g>
<!-- Node0&#45;&gt;Node7 -->
<g id="edge7" class="edge">
<title>Node0&#45;&gt;Node7</title>
<path fill="none" stroke="#191970" d="M115.9124,-168.2455C127.5057,-159.814 144.4748,-147.4729 157.9678,-137.6598"/>
<polygon fill="#191970" stroke="#191970" points="160.2126,-140.355 166.2413,-131.6427 156.0953,-134.6938 160.2126,-140.355"/>
</g>
<!-- Node2 -->
<g id="node3" class="node">
<title>Node2</title>
<g id="a_node3"><a xlink:href="apmath_2polynomial_8hh.html" target="_top" xlink:title="polynomial.hh">
<polygon fill="none" stroke="#000000" points="73,-56.5 73,-75.5 150,-75.5 150,-56.5 73,-56.5"/>
<text text-anchor="middle" x="111.5" y="-63.5" font-family="Helvetica,sans-Serif" font-size="10.00" fill="#000000">polynomial.hh</text>
</a>
</g>
</g>
<!-- Node1&#45;&gt;Node2 -->
<g id="edge2" class="edge">
<title>Node1&#45;&gt;Node2</title>
<path fill="none" stroke="#191970" d="M104.0677,-112.2455C105.2421,-104.9382 106.8884,-94.6944 108.3332,-85.7046"/>
<polygon fill="#191970" stroke="#191970" points="111.8191,-86.0714 109.9503,-75.6427 104.9078,-84.9606 111.8191,-86.0714"/>
</g>
<!-- Node2&#45;&gt;Node3 -->
<g id="edge3" class="edge">
<title>Node2&#45;&gt;Node3</title>
<path fill="none" stroke="#191970" d="M97.9134,-56.2455C86.1695,-47.814 68.9801,-35.4729 55.3118,-25.6598"/>
<polygon fill="#191970" stroke="#191970" points="57.0954,-22.6316 46.9309,-19.6427 53.0129,-28.3179 57.0954,-22.6316"/>
</g>
<!-- Node4 -->
<g id="node5" class="node">
<title>Node4</title>
<polygon fill="none" stroke="#bfbfbf" points="85.5,-.5 85.5,-19.5 137.5,-19.5 137.5,-.5 85.5,-.5"/>
<text text-anchor="middle" x="111.5" y="-7.5" font-family="Helvetica,sans-Serif" font-size="10.00" fill="#000000">ostream</text>
</g>
<!-- Node2&#45;&gt;Node4 -->
<g id="edge4" class="edge">
<title>Node2&#45;&gt;Node4</title>
<path fill="none" stroke="#191970" d="M111.5,-56.2455C111.5,-48.9382 111.5,-38.6944 111.5,-29.7046"/>
<polygon fill="#191970" stroke="#191970" points="115.0001,-29.6426 111.5,-19.6427 108.0001,-29.6427 115.0001,-29.6426"/>
</g>
<!-- Node5 -->
<g id="node6" class="node">
<title>Node5</title>
<polygon fill="none" stroke="#bfbfbf" points="155.5,-.5 155.5,-19.5 199.5,-19.5 199.5,-.5 155.5,-.5"/>
<text text-anchor="middle" x="177.5" y="-7.5" font-family="Helvetica,sans-Serif" font-size="10.00" fill="#000000">vector</text>
</g>
<!-- Node2&#45;&gt;Node5 -->
<g id="edge5" class="edge">
<title>Node2&#45;&gt;Node5</title>
<path fill="none" stroke="#191970" d="M122.9963,-56.2455C132.7442,-47.9746 146.9259,-35.9416 158.3798,-26.2232"/>
<polygon fill="#191970" stroke="#191970" points="160.7747,-28.7813 166.1354,-19.6427 156.2459,-23.4437 160.7747,-28.7813"/>
</g>
<!-- Node6 -->
<g id="node7" class="node">
<title>Node6</title>
<polygon fill="none" stroke="#bfbfbf" points="218,-.5 218,-19.5 291,-19.5 291,-.5 218,-.5"/>
<text text-anchor="middle" x="254.5" y="-7.5" font-family="Helvetica,sans-Serif" font-size="10.00" fill="#000000">initializer_list</text>
</g>
<!-- Node2&#45;&gt;Node6 -->
<g id="edge6" class="edge">
<title>Node2&#45;&gt;Node6</title>
<path fill="none" stroke="#191970" d="M136.0826,-56.3733C159.4496,-47.2226 194.7862,-33.3844 220.7784,-23.2057"/>
<polygon fill="#191970" stroke="#191970" points="222.203,-26.4066 230.2382,-19.5011 219.6505,-19.8886 222.203,-26.4066"/>
</g>
</g>
</svg>
