<?xml version="1.0" encoding="UTF-8" standalone="no"?>
<!DOCTYPE svg PUBLIC "-//W3C//DTD SVG 1.1//EN"
 "http://www.w3.org/Graphics/SVG/1.1/DTD/svg11.dtd">
<!-- Generated by graphviz version 2.40.1 (20161225.0304)
 -->
<!-- Title: src/velocity/high_amplitude_realtime_solver.cc Pages: 1 -->
<svg width="810pt" height="442pt"
 viewBox="0.00 0.00 810.00 442.00" xmlns="http://www.w3.org/2000/svg" xmlns:xlink="http://www.w3.org/1999/xlink">
<g id="graph0" class="graph" transform="scale(1 1) rotate(0) translate(4 438)">
<title>src/velocity/high_amplitude_realtime_solver.cc</title>
<!-- Node0 -->
<g id="node1" class="node">
<title>Node0</title>
<polygon fill="#bfbfbf" stroke="#000000" points="423.5,-403.5 423.5,-433.5 558.5,-433.5 558.5,-403.5 423.5,-403.5"/>
<text text-anchor="start" x="431.5" y="-421.5" font-family="Helvetica,sans-Serif" font-size="10.00" fill="#000000">src/velocity/high_amplitude</text>
<text text-anchor="middle" x="491" y="-410.5" font-family="Helvetica,sans-Serif" font-size="10.00" fill="#000000">_realtime_solver.cc</text>
</g>
<!-- Node1 -->
<g id="node2" class="node">
<title>Node1</title>
<g id="a_node2"><a xlink:href="high__amplitude__realtime__solver_8hh.html" target="_top" xlink:title="high_amplitude_realtime\l_solver.hh">
<polygon fill="none" stroke="#000000" points="163,-336.5 163,-366.5 285,-366.5 285,-336.5 163,-336.5"/>
<text text-anchor="start" x="171" y="-354.5" font-family="Helvetica,sans-Serif" font-size="10.00" fill="#000000">high_amplitude_realtime</text>
<text text-anchor="middle" x="224" y="-343.5" font-family="Helvetica,sans-Serif" font-size="10.00" fill="#000000">_solver.hh</text>
</a>
</g>
</g>
<!-- Node0&#45;&gt;Node1 -->
<g id="edge1" class="edge">
<title>Node0&#45;&gt;Node1</title>
<path fill="none" stroke="#191970" d="M431.08,-403.4639C390.4276,-393.2627 336.5372,-379.7397 293.9228,-369.0462"/>
<polygon fill="#191970" stroke="#191970" points="294.7325,-365.6409 284.1814,-366.6017 293.0287,-372.4304 294.7325,-365.6409"/>
</g>
<!-- Node14 -->
<g id="node15" class="node">
<title>Node14</title>
<polygon fill="none" stroke="#bfbfbf" points="377.5,-56.5 377.5,-75.5 436.5,-75.5 436.5,-56.5 377.5,-56.5"/>
<text text-anchor="middle" x="407" y="-63.5" font-family="Helvetica,sans-Serif" font-size="10.00" fill="#000000">stdexcept</text>
</g>
<!-- Node0&#45;&gt;Node14 -->
<g id="edge39" class="edge">
<title>Node0&#45;&gt;Node14</title>
<path fill="none" stroke="#191970" d="M466.8789,-403.495C436.1563,-382.3064 387,-340.5122 387,-290 387,-290 387,-290 387,-178 387,-145.2193 395.4055,-107.8705 401.3181,-85.6533"/>
<polygon fill="#191970" stroke="#191970" points="404.7555,-86.3545 404.0489,-75.7832 398.009,-84.4878 404.7555,-86.3545"/>
</g>
<!-- Node16 -->
<g id="node17" class="node">
<title>Node16</title>
<g id="a_node17"><a xlink:href="profile_8hh.html" target="_top" xlink:title="profile.hh">
<polygon fill="none" stroke="#000000" points="303,-342 303,-361 359,-361 359,-342 303,-342"/>
<text text-anchor="middle" x="331" y="-349" font-family="Helvetica,sans-Serif" font-size="10.00" fill="#000000">profile.hh</text>
</a>
</g>
</g>
<!-- Node0&#45;&gt;Node16 -->
<g id="edge26" class="edge">
<title>Node0&#45;&gt;Node16</title>
<path fill="none" stroke="#191970" d="M455.0929,-403.4639C427.5214,-391.9183 389.7883,-376.1176 363.1906,-364.9798"/>
<polygon fill="#191970" stroke="#191970" points="364.5106,-361.7381 353.9347,-361.1039 361.8068,-368.1949 364.5106,-361.7381"/>
</g>
<!-- Node17 -->
<g id="node18" class="node">
<title>Node17</title>
<g id="a_node18"><a xlink:href="derivative_8hh.html" target="_top" xlink:title="derivative.hh">
<polygon fill="none" stroke="#000000" points="7,-280.5 7,-299.5 79,-299.5 79,-280.5 7,-280.5"/>
<text text-anchor="middle" x="43" y="-287.5" font-family="Helvetica,sans-Serif" font-size="10.00" fill="#000000">derivative.hh</text>
</a>
</g>
</g>
<!-- Node0&#45;&gt;Node17 -->
<g id="edge27" class="edge">
<title>Node0&#45;&gt;Node17</title>
<path fill="none" stroke="#191970" d="M423.4219,-411.8214C339.5358,-402.9012 201.6992,-385.9999 154,-367 117.8062,-352.583 81.8472,-324.4553 61.0576,-306.4804"/>
<polygon fill="#191970" stroke="#191970" points="63.1805,-303.6857 53.3674,-299.6913 58.5477,-308.9334 63.1805,-303.6857"/>
</g>
<!-- Node18 -->
<g id="node19" class="node">
<title>Node18</title>
<g id="a_node19"><a xlink:href="physical__constants_8hh.html" target="_top" xlink:title="physical_constants.hh">
<polygon fill="none" stroke="#000000" points="415,-280.5 415,-299.5 529,-299.5 529,-280.5 415,-280.5"/>
<text text-anchor="middle" x="472" y="-287.5" font-family="Helvetica,sans-Serif" font-size="10.00" fill="#000000">physical_constants.hh</text>
</a>
</g>
</g>
<!-- Node0&#45;&gt;Node18 -->
<g id="edge29" class="edge">
<title>Node0&#45;&gt;Node18</title>
<path fill="none" stroke="#191970" d="M488.7458,-403.2548C485.3036,-379.9744 478.7366,-335.5607 474.9294,-309.8117"/>
<polygon fill="#191970" stroke="#191970" points="478.3647,-309.1163 473.4395,-299.7358 471.44,-310.1402 478.3647,-309.1163"/>
</g>
<!-- Node19 -->
<g id="node20" class="node">
<title>Node19</title>
<g id="a_node20"><a xlink:href="util_8hh.html" target="_top" xlink:title="util.hh">
<polygon fill="none" stroke="#000000" points="589.5,-224.5 589.5,-243.5 632.5,-243.5 632.5,-224.5 589.5,-224.5"/>
<text text-anchor="middle" x="611" y="-231.5" font-family="Helvetica,sans-Serif" font-size="10.00" fill="#000000">util.hh</text>
</a>
</g>
</g>
<!-- Node0&#45;&gt;Node19 -->
<g id="edge31" class="edge">
<title>Node0&#45;&gt;Node19</title>
<path fill="none" stroke="#191970" d="M496.6781,-403.3319C503.333,-386.3378 515.22,-358.2563 529,-336 548.8849,-303.8836 577.5253,-270.4636 595.1631,-250.9778"/>
<polygon fill="#191970" stroke="#191970" points="597.8169,-253.2623 601.9909,-243.5243 592.6552,-248.5339 597.8169,-253.2623"/>
</g>
<!-- Node22 -->
<g id="node23" class="node">
<title>Node22</title>
<polygon fill="none" stroke="#bfbfbf" points="538,-342 538,-361 582,-361 582,-342 538,-342"/>
<text text-anchor="middle" x="560" y="-349" font-family="Helvetica,sans-Serif" font-size="10.00" fill="#000000">vector</text>
</g>
<!-- Node0&#45;&gt;Node22 -->
<g id="edge36" class="edge">
<title>Node0&#45;&gt;Node22</title>
<path fill="none" stroke="#191970" d="M506.6572,-403.2967C517.4077,-392.8578 531.6794,-378.9997 542.7555,-368.2446"/>
<polygon fill="#191970" stroke="#191970" points="545.4237,-370.5323 550.1598,-361.055 540.5473,-365.5103 545.4237,-370.5323"/>
</g>
<!-- Node23 -->
<g id="node24" class="node">
<title>Node23</title>
<polygon fill="none" stroke="#bfbfbf" points="600.5,-342 600.5,-361 653.5,-361 653.5,-342 600.5,-342"/>
<text text-anchor="middle" x="627" y="-349" font-family="Helvetica,sans-Serif" font-size="10.00" fill="#000000">complex</text>
</g>
<!-- Node0&#45;&gt;Node23 -->
<g id="edge37" class="edge">
<title>Node0&#45;&gt;Node23</title>
<path fill="none" stroke="#191970" d="M521.5211,-403.4639C544.5457,-392.1209 575.9072,-376.6707 598.4394,-365.5703"/>
<polygon fill="#191970" stroke="#191970" points="600.0817,-368.6629 607.5055,-361.1039 596.9882,-362.3836 600.0817,-368.6629"/>
</g>
<!-- Node24 -->
<g id="node25" class="node">
<title>Node24</title>
<polygon fill="none" stroke="#bfbfbf" points="672,-342 672,-361 734,-361 734,-342 672,-342"/>
<text text-anchor="middle" x="703" y="-349" font-family="Helvetica,sans-Serif" font-size="10.00" fill="#000000">type_traits</text>
</g>
<!-- Node0&#45;&gt;Node24 -->
<g id="edge38" class="edge">
<title>Node0&#45;&gt;Node24</title>
<path fill="none" stroke="#191970" d="M545.1891,-403.4599C579.228,-393.7206 623.9311,-380.3953 663,-367 665.1179,-366.2738 667.29,-365.5045 669.4743,-364.7121"/>
<polygon fill="#191970" stroke="#191970" points="670.8571,-367.9318 678.9995,-361.153 668.407,-361.3746 670.8571,-367.9318"/>
</g>
<!-- Node25 -->
<g id="node26" class="node">
<title>Node25</title>
<polygon fill="none" stroke="#bfbfbf" points="752,-342 752,-361 802,-361 802,-342 752,-342"/>
<text text-anchor="middle" x="777" y="-349" font-family="Helvetica,sans-Serif" font-size="10.00" fill="#000000">fstream</text>
</g>
<!-- Node0&#45;&gt;Node25 -->
<g id="edge40" class="edge">
<title>Node0&#45;&gt;Node25</title>
<path fill="none" stroke="#191970" d="M558.6552,-408.9375C610.0141,-400.6605 681.9612,-386.8667 743,-367 744.8506,-366.3977 746.7344,-365.7237 748.6182,-365.003"/>
<polygon fill="#191970" stroke="#191970" points="750.0086,-368.2154 757.8834,-361.1275 747.3073,-361.7575 750.0086,-368.2154"/>
</g>
<!-- Node2 -->
<g id="node3" class="node">
<title>Node2</title>
<g id="a_node3"><a xlink:href="basic__solver_8hh.html" target="_top" xlink:title="basic_solver.hh">
<polygon fill="none" stroke="#000000" points="108,-280.5 108,-299.5 192,-299.5 192,-280.5 108,-280.5"/>
<text text-anchor="middle" x="150" y="-287.5" font-family="Helvetica,sans-Serif" font-size="10.00" fill="#000000">basic_solver.hh</text>
</a>
</g>
</g>
<!-- Node1&#45;&gt;Node2 -->
<g id="edge2" class="edge">
<title>Node1&#45;&gt;Node2</title>
<path fill="none" stroke="#191970" d="M205.7079,-336.2977C194.7939,-327.2274 180.9329,-315.7077 169.7676,-306.4285"/>
<polygon fill="#191970" stroke="#191970" points="171.7762,-303.5468 161.8483,-299.8469 167.302,-308.9303 171.7762,-303.5468"/>
</g>
<!-- Node10 -->
<g id="node11" class="node">
<title>Node10</title>
<g id="a_node11"><a xlink:href="grid_8hh.html" target="_top" xlink:title="grid.hh">
<polygon fill="none" stroke="#000000" points="173,-168.5 173,-187.5 219,-187.5 219,-168.5 173,-168.5"/>
<text text-anchor="middle" x="196" y="-175.5" font-family="Helvetica,sans-Serif" font-size="10.00" fill="#000000">grid.hh</text>
</a>
</g>
</g>
<!-- Node1&#45;&gt;Node10 -->
<g id="edge25" class="edge">
<title>Node1&#45;&gt;Node10</title>
<path fill="none" stroke="#191970" d="M222.2025,-336.1335C219.3097,-312.1187 213.2095,-264.2692 206,-224 204.4553,-215.372 202.4498,-205.8997 200.6406,-197.8047"/>
<polygon fill="#191970" stroke="#191970" points="204.0002,-196.7956 198.357,-187.8287 197.1767,-198.3575 204.0002,-196.7956"/>
</g>
<!-- Node3 -->
<g id="node4" class="node">
<title>Node3</title>
<g id="a_node4"><a xlink:href="types_8hh.html" target="_top" xlink:title="types.hh">
<polygon fill="none" stroke="#000000" points="0,-168.5 0,-187.5 54,-187.5 54,-168.5 0,-168.5"/>
<text text-anchor="middle" x="27" y="-175.5" font-family="Helvetica,sans-Serif" font-size="10.00" fill="#000000">types.hh</text>
</a>
</g>
</g>
<!-- Node2&#45;&gt;Node3 -->
<g id="edge3" class="edge">
<title>Node2&#45;&gt;Node3</title>
<path fill="none" stroke="#191970" d="M133.9801,-280.4304C120.08,-271.7654 99.7691,-258.2136 84,-244 67.5792,-229.199 51.3468,-209.8107 40.43,-195.8832"/>
<polygon fill="#191970" stroke="#191970" points="42.9467,-193.4144 34.0751,-187.6225 37.3985,-197.6826 42.9467,-193.4144"/>
</g>
<!-- Node5 -->
<g id="node6" class="node">
<title>Node5</title>
<g id="a_node6"><a xlink:href="domain_8hh.html" target="_top" xlink:title="domain.hh">
<polygon fill="none" stroke="#000000" points="254,-224.5 254,-243.5 316,-243.5 316,-224.5 254,-224.5"/>
<text text-anchor="middle" x="285" y="-231.5" font-family="Helvetica,sans-Serif" font-size="10.00" fill="#000000">domain.hh</text>
</a>
</g>
</g>
<!-- Node2&#45;&gt;Node5 -->
<g id="edge5" class="edge">
<title>Node2&#45;&gt;Node5</title>
<path fill="none" stroke="#191970" d="M173.2073,-280.3733C195.1699,-271.2629 228.3332,-257.5062 252.8401,-247.3404"/>
<polygon fill="#191970" stroke="#191970" points="254.1997,-250.5657 262.0955,-243.5011 251.5176,-244.0999 254.1997,-250.5657"/>
</g>
<!-- Node15 -->
<g id="node16" class="node">
<title>Node15</title>
<g id="a_node16"><a xlink:href="discrete__function_8hh.html" target="_top" xlink:title="discrete_function.hh">
<polygon fill="none" stroke="#000000" points="93,-224.5 93,-243.5 197,-243.5 197,-224.5 93,-224.5"/>
<text text-anchor="middle" x="145" y="-231.5" font-family="Helvetica,sans-Serif" font-size="10.00" fill="#000000">discrete_function.hh</text>
</a>
</g>
</g>
<!-- Node2&#45;&gt;Node15 -->
<g id="edge22" class="edge">
<title>Node2&#45;&gt;Node15</title>
<path fill="none" stroke="#191970" d="M149.1291,-280.2455C148.4766,-272.9382 147.562,-262.6944 146.7593,-253.7046"/>
<polygon fill="#191970" stroke="#191970" points="150.2365,-253.2918 145.861,-243.6427 143.2642,-253.9143 150.2365,-253.2918"/>
</g>
<!-- Node4 -->
<g id="node5" class="node">
<title>Node4</title>
<polygon fill="none" stroke="#bfbfbf" points="29.5,-.5 29.5,-19.5 96.5,-19.5 96.5,-.5 29.5,-.5"/>
<text text-anchor="middle" x="63" y="-7.5" font-family="Helvetica,sans-Serif" font-size="10.00" fill="#000000">blitz/array.h</text>
</g>
<!-- Node3&#45;&gt;Node4 -->
<g id="edge4" class="edge">
<title>Node3&#45;&gt;Node4</title>
<path fill="none" stroke="#191970" d="M29.0387,-168.4862C34.7541,-141.8144 51.0189,-65.9117 58.7796,-29.695"/>
<polygon fill="#191970" stroke="#191970" points="62.221,-30.3393 60.894,-19.8279 55.3763,-28.8725 62.221,-30.3393"/>
</g>
<!-- Node5&#45;&gt;Node4 -->
<g id="edge10" class="edge">
<title>Node5&#45;&gt;Node4</title>
<path fill="none" stroke="#191970" d="M253.9335,-227.9199C227.7195,-221.538 190.3579,-209.3746 164,-188 110.979,-145.0032 80.6548,-66.2882 68.8232,-29.6844"/>
<polygon fill="#191970" stroke="#191970" points="72.05,-28.2738 65.7403,-19.7627 65.3653,-30.3509 72.05,-28.2738"/>
</g>
<!-- Node6 -->
<g id="node7" class="node">
<title>Node6</title>
<polygon fill="none" stroke="#bfbfbf" points="265,-.5 265,-19.5 309,-19.5 309,-.5 265,-.5"/>
<text text-anchor="middle" x="287" y="-7.5" font-family="Helvetica,sans-Serif" font-size="10.00" fill="#000000">cmath</text>
</g>
<!-- Node5&#45;&gt;Node6 -->
<g id="edge6" class="edge">
<title>Node5&#45;&gt;Node6</title>
<path fill="none" stroke="#191970" d="M290.9184,-224.332C301.3011,-206.7402 322.415,-167.984 330,-132 338.0201,-93.9519 315.5214,-51.563 300.1177,-28.1099"/>
<polygon fill="#191970" stroke="#191970" points="302.7943,-25.8243 294.2532,-19.5553 297.0207,-29.7823 302.7943,-25.8243"/>
</g>
<!-- Node7 -->
<g id="node8" class="node">
<title>Node7</title>
<polygon fill="none" stroke="#bfbfbf" points="415,-168.5 415,-187.5 465,-187.5 465,-168.5 415,-168.5"/>
<text text-anchor="middle" x="440" y="-175.5" font-family="Helvetica,sans-Serif" font-size="10.00" fill="#000000">iomanip</text>
</g>
<!-- Node5&#45;&gt;Node7 -->
<g id="edge7" class="edge">
<title>Node5&#45;&gt;Node7</title>
<path fill="none" stroke="#191970" d="M311.6454,-224.3733C337.5836,-215.0021 377.1287,-200.7148 405.4672,-190.4764"/>
<polygon fill="#191970" stroke="#191970" points="406.7672,-193.7282 414.9829,-187.0384 404.3886,-187.1447 406.7672,-193.7282"/>
</g>
<!-- Node8 -->
<g id="node9" class="node">
<title>Node8</title>
<polygon fill="none" stroke="#bfbfbf" points="181.5,-112.5 181.5,-131.5 230.5,-131.5 230.5,-112.5 181.5,-112.5"/>
<text text-anchor="middle" x="206" y="-119.5" font-family="Helvetica,sans-Serif" font-size="10.00" fill="#000000">istream</text>
</g>
<!-- Node5&#45;&gt;Node8 -->
<g id="edge8" class="edge">
<title>Node5&#45;&gt;Node8</title>
<path fill="none" stroke="#191970" d="M278.2645,-224.4509C265.0299,-205.688 235.452,-163.7548 218.5257,-139.758"/>
<polygon fill="#191970" stroke="#191970" points="221.3426,-137.6792 212.7184,-131.5249 215.6224,-141.714 221.3426,-137.6792"/>
</g>
<!-- Node9 -->
<g id="node10" class="node">
<title>Node9</title>
<polygon fill="none" stroke="#bfbfbf" points="483,-168.5 483,-187.5 535,-187.5 535,-168.5 483,-168.5"/>
<text text-anchor="middle" x="509" y="-175.5" font-family="Helvetica,sans-Serif" font-size="10.00" fill="#000000">ostream</text>
</g>
<!-- Node5&#45;&gt;Node9 -->
<g id="edge9" class="edge">
<title>Node5&#45;&gt;Node9</title>
<path fill="none" stroke="#191970" d="M316.1983,-226.8058C351.8409,-218.4995 412.1392,-204.1827 472.9047,-188.2221"/>
<polygon fill="#191970" stroke="#191970" points="473.8823,-191.584 482.6575,-185.6471 472.0953,-184.816 473.8823,-191.584"/>
</g>
<!-- Node5&#45;&gt;Node10 -->
<g id="edge11" class="edge">
<title>Node5&#45;&gt;Node10</title>
<path fill="none" stroke="#191970" d="M269.4974,-224.2455C255.842,-215.6534 235.7343,-203.0014 220.0011,-193.1018"/>
<polygon fill="#191970" stroke="#191970" points="221.6529,-190.006 211.325,-187.6427 217.9249,-195.9307 221.6529,-190.006"/>
</g>
<!-- Node13 -->
<g id="node14" class="node">
<title>Node13</title>
<g id="a_node14"><a xlink:href="validators_8hh.html" target="_top" xlink:title="validators.hh">
<polygon fill="none" stroke="#000000" points="249,-112.5 249,-131.5 321,-131.5 321,-112.5 249,-112.5"/>
<text text-anchor="middle" x="285" y="-119.5" font-family="Helvetica,sans-Serif" font-size="10.00" fill="#000000">validators.hh</text>
</a>
</g>
</g>
<!-- Node5&#45;&gt;Node13 -->
<g id="edge21" class="edge">
<title>Node5&#45;&gt;Node13</title>
<path fill="none" stroke="#191970" d="M285,-224.4509C285,-206.184 285,-165.9553 285,-141.6976"/>
<polygon fill="#191970" stroke="#191970" points="288.5001,-141.5249 285,-131.5249 281.5001,-141.5249 288.5001,-141.5249"/>
</g>
<!-- Node10&#45;&gt;Node6 -->
<g id="edge12" class="edge">
<title>Node10&#45;&gt;Node6</title>
<path fill="none" stroke="#191970" d="M187.8551,-168.426C177.843,-155.427 163.1988,-131.5707 172,-112 189.8979,-72.2018 231.8495,-41.6305 259.825,-24.7359"/>
<polygon fill="#191970" stroke="#191970" points="261.8535,-27.6044 268.7217,-19.5372 258.3218,-21.5606 261.8535,-27.6044"/>
</g>
<!-- Node10&#45;&gt;Node8 -->
<g id="edge13" class="edge">
<title>Node10&#45;&gt;Node8</title>
<path fill="none" stroke="#191970" d="M197.7419,-168.2455C199.0467,-160.9382 200.876,-150.6944 202.4813,-141.7046"/>
<polygon fill="#191970" stroke="#191970" points="205.9656,-142.1022 204.2781,-131.6427 199.0746,-140.8717 205.9656,-142.1022"/>
</g>
<!-- Node11 -->
<g id="node12" class="node">
<title>Node11</title>
<g id="a_node12"><a xlink:href="blitz_8hh.html" target="_top" xlink:title="blitz.hh">
<polygon fill="none" stroke="#000000" points="105,-56.5 105,-75.5 153,-75.5 153,-56.5 105,-56.5"/>
<text text-anchor="middle" x="129" y="-63.5" font-family="Helvetica,sans-Serif" font-size="10.00" fill="#000000">blitz.hh</text>
</a>
</g>
</g>
<!-- Node10&#45;&gt;Node11 -->
<g id="edge14" class="edge">
<title>Node10&#45;&gt;Node11</title>
<path fill="none" stroke="#191970" d="M178.0504,-168.4094C165.0115,-160.4508 148.1158,-147.8813 139,-132 130.9771,-118.0228 128.7197,-99.7555 128.3314,-85.9834"/>
<polygon fill="#191970" stroke="#191970" points="131.8321,-85.6743 128.3593,-75.6649 124.8322,-85.6554 131.8321,-85.6743"/>
</g>
<!-- Node10&#45;&gt;Node13 -->
<g id="edge18" class="edge">
<title>Node10&#45;&gt;Node13</title>
<path fill="none" stroke="#191970" d="M211.5026,-168.2455C225.158,-159.6534 245.2657,-147.0014 260.9989,-137.1018"/>
<polygon fill="#191970" stroke="#191970" points="263.0751,-139.9307 269.675,-131.6427 259.3471,-134.006 263.0751,-139.9307"/>
</g>
<!-- Node11&#45;&gt;Node4 -->
<g id="edge16" class="edge">
<title>Node11&#45;&gt;Node4</title>
<path fill="none" stroke="#191970" d="M117.5037,-56.2455C107.7558,-47.9746 93.5741,-35.9416 82.1202,-26.2232"/>
<polygon fill="#191970" stroke="#191970" points="84.2541,-23.4437 74.3646,-19.6427 79.7253,-28.7813 84.2541,-23.4437"/>
</g>
<!-- Node11&#45;&gt;Node6 -->
<g id="edge17" class="edge">
<title>Node11&#45;&gt;Node6</title>
<path fill="none" stroke="#191970" d="M153.3412,-57.3727C180.7168,-47.67 225.2679,-31.8797 255.3322,-21.224"/>
<polygon fill="#191970" stroke="#191970" points="256.6706,-24.4631 264.9269,-17.8234 254.3321,-17.8652 256.6706,-24.4631"/>
</g>
<!-- Node12 -->
<g id="node13" class="node">
<title>Node12</title>
<polygon fill="none" stroke="#bfbfbf" points="115,-.5 115,-19.5 171,-19.5 171,-.5 115,-.5"/>
<text text-anchor="middle" x="143" y="-7.5" font-family="Helvetica,sans-Serif" font-size="10.00" fill="#000000">algorithm</text>
</g>
<!-- Node11&#45;&gt;Node12 -->
<g id="edge15" class="edge">
<title>Node11&#45;&gt;Node12</title>
<path fill="none" stroke="#191970" d="M131.4386,-56.2455C133.2855,-48.8579 135.8828,-38.4689 138.1478,-29.4087"/>
<polygon fill="#191970" stroke="#191970" points="141.5594,-30.193 140.5893,-19.6427 134.7684,-28.4952 141.5594,-30.193"/>
</g>
<!-- Node13&#45;&gt;Node11 -->
<g id="edge20" class="edge">
<title>Node13&#45;&gt;Node11</title>
<path fill="none" stroke="#191970" d="M258.1826,-112.3733C231.7655,-102.8902 191.3246,-88.3729 162.7388,-78.1114"/>
<polygon fill="#191970" stroke="#191970" points="163.759,-74.7589 153.1645,-74.6744 161.3939,-81.3473 163.759,-74.7589"/>
</g>
<!-- Node13&#45;&gt;Node14 -->
<g id="edge19" class="edge">
<title>Node13&#45;&gt;Node14</title>
<path fill="none" stroke="#191970" d="M305.9725,-112.3733C325.5567,-103.3838 354.9961,-89.8706 377.051,-79.7471"/>
<polygon fill="#191970" stroke="#191970" points="378.6729,-82.8538 386.3011,-75.5011 375.7527,-76.4919 378.6729,-82.8538"/>
</g>
<!-- Node15&#45;&gt;Node3 -->
<g id="edge24" class="edge">
<title>Node15&#45;&gt;Node3</title>
<path fill="none" stroke="#191970" d="M124.7151,-224.3733C105.8579,-215.4241 77.554,-201.9917 56.2545,-191.8835"/>
<polygon fill="#191970" stroke="#191970" points="57.5551,-188.6266 47.0202,-187.5011 54.5539,-194.9506 57.5551,-188.6266"/>
</g>
<!-- Node15&#45;&gt;Node10 -->
<g id="edge23" class="edge">
<title>Node15&#45;&gt;Node10</title>
<path fill="none" stroke="#191970" d="M153.8835,-224.2455C161.1966,-216.2155 171.7391,-204.6394 180.4467,-195.0781"/>
<polygon fill="#191970" stroke="#191970" points="183.0727,-197.3928 187.2183,-187.6427 177.8972,-192.6795 183.0727,-197.3928"/>
</g>
<!-- Node17&#45;&gt;Node3 -->
<g id="edge28" class="edge">
<title>Node17&#45;&gt;Node3</title>
<path fill="none" stroke="#191970" d="M41.6358,-280.4509C39.0263,-262.184 33.2793,-221.9553 29.8139,-197.6976"/>
<polygon fill="#191970" stroke="#191970" points="33.2398,-196.9294 28.3607,-187.5249 26.3102,-197.9194 33.2398,-196.9294"/>
</g>
<!-- Node18&#45;&gt;Node6 -->
<g id="edge30" class="edge">
<title>Node18&#45;&gt;Node6</title>
<path fill="none" stroke="#191970" d="M484.8053,-280.4727C509.7425,-260.6661 560.9547,-213.1242 544,-168 520.7357,-106.0832 501.8002,-91.5142 446,-56 406.6247,-30.9395 353.2096,-19.1619 319.4203,-13.9002"/>
<polygon fill="#191970" stroke="#191970" points="319.5815,-10.3869 309.1821,-12.4122 318.5747,-17.3141 319.5815,-10.3869"/>
</g>
<!-- Node19&#45;&gt;Node7 -->
<g id="edge34" class="edge">
<title>Node19&#45;&gt;Node7</title>
<path fill="none" stroke="#191970" d="M589.3427,-226.9076C560.4687,-217.4517 509.0256,-200.6049 474.7078,-189.3663"/>
<polygon fill="#191970" stroke="#191970" points="475.6765,-186.0007 465.0838,-186.2146 473.4979,-192.6531 475.6765,-186.0007"/>
</g>
<!-- Node19&#45;&gt;Node9 -->
<g id="edge32" class="edge">
<title>Node19&#45;&gt;Node9</title>
<path fill="none" stroke="#191970" d="M593.233,-224.2455C577.2905,-215.4928 553.6741,-202.527 535.5011,-192.5496"/>
<polygon fill="#191970" stroke="#191970" points="537.0137,-189.3873 526.5634,-187.6427 533.6448,-195.5233 537.0137,-189.3873"/>
</g>
<!-- Node20 -->
<g id="node21" class="node">
<title>Node20</title>
<polygon fill="none" stroke="#bfbfbf" points="594.5,-168.5 594.5,-187.5 623.5,-187.5 623.5,-168.5 594.5,-168.5"/>
<text text-anchor="middle" x="609" y="-175.5" font-family="Helvetica,sans-Serif" font-size="10.00" fill="#000000">ios</text>
</g>
<!-- Node19&#45;&gt;Node20 -->
<g id="edge33" class="edge">
<title>Node19&#45;&gt;Node20</title>
<path fill="none" stroke="#191970" d="M610.6516,-224.2455C610.3907,-216.9382 610.0248,-206.6944 609.7037,-197.7046"/>
<polygon fill="#191970" stroke="#191970" points="613.1992,-197.5113 609.3444,-187.6427 606.2036,-197.7613 613.1992,-197.5113"/>
</g>
<!-- Node21 -->
<g id="node22" class="node">
<title>Node21</title>
<polygon fill="none" stroke="#bfbfbf" points="642,-168.5 642,-187.5 686,-187.5 686,-168.5 642,-168.5"/>
<text text-anchor="middle" x="664" y="-175.5" font-family="Helvetica,sans-Serif" font-size="10.00" fill="#000000">mutex</text>
</g>
<!-- Node19&#45;&gt;Node21 -->
<g id="edge35" class="edge">
<title>Node19&#45;&gt;Node21</title>
<path fill="none" stroke="#191970" d="M620.2319,-224.2455C627.8317,-216.2155 638.7877,-204.6394 647.8368,-195.0781"/>
<polygon fill="#191970" stroke="#191970" points="650.5421,-197.3115 654.8739,-187.6427 645.458,-192.4998 650.5421,-197.3115"/>
</g>
</g>
</svg>
