<?xml version="1.0" encoding="UTF-8" standalone="no"?>
<!DOCTYPE svg PUBLIC "-//W3C//DTD SVG 1.1//EN"
 "http://www.w3.org/Graphics/SVG/1.1/DTD/svg11.dtd">
<!-- Generated by graphviz version 2.40.1 (20161225.0304)
 -->
<!-- Title: src/velocity/high_amplitude_solver.hh Pages: 1 -->
<svg width="916pt" height="442pt"
 viewBox="0.00 0.00 915.50 442.00" xmlns="http://www.w3.org/2000/svg" xmlns:xlink="http://www.w3.org/1999/xlink">
<g id="graph0" class="graph" transform="scale(1 1) rotate(0) translate(4 438)">
<title>src/velocity/high_amplitude_solver.hh</title>
<!-- Node0 -->
<g id="node1" class="node">
<title>Node0</title>
<polygon fill="#bfbfbf" stroke="#000000" points="261,-403.5 261,-433.5 396,-433.5 396,-403.5 261,-403.5"/>
<text text-anchor="start" x="269" y="-421.5" font-family="Helvetica,sans-Serif" font-size="10.00" fill="#000000">src/velocity/high_amplitude</text>
<text text-anchor="middle" x="328.5" y="-410.5" font-family="Helvetica,sans-Serif" font-size="10.00" fill="#000000">_solver.hh</text>
</g>
<!-- Node1 -->
<g id="node2" class="node">
<title>Node1</title>
<g id="a_node2"><a xlink:href="types_8hh.html" target="_top" xlink:title="types.hh">
<polygon fill="none" stroke="#000000" points="397.5,-179.5 397.5,-198.5 451.5,-198.5 451.5,-179.5 397.5,-179.5"/>
<text text-anchor="middle" x="424.5" y="-186.5" font-family="Helvetica,sans-Serif" font-size="10.00" fill="#000000">types.hh</text>
</a>
</g>
</g>
<!-- Node0&#45;&gt;Node1 -->
<g id="edge1" class="edge">
<title>Node0&#45;&gt;Node1</title>
<path fill="none" stroke="#191970" d="M334.7988,-403.4419C351.6362,-363.1901 397.6761,-253.1259 416.4097,-208.3409"/>
<polygon fill="#191970" stroke="#191970" points="419.7294,-209.4742 420.3596,-198.8981 413.2717,-206.7729 419.7294,-209.4742"/>
</g>
<!-- Node3 -->
<g id="node4" class="node">
<title>Node3</title>
<g id="a_node4"><a xlink:href="linear__solver_8hh.html" target="_top" xlink:title="linear_solver.hh">
<polygon fill="none" stroke="#000000" points="251.5,-347.5 251.5,-366.5 335.5,-366.5 335.5,-347.5 251.5,-347.5"/>
<text text-anchor="middle" x="293.5" y="-354.5" font-family="Helvetica,sans-Serif" font-size="10.00" fill="#000000">linear_solver.hh</text>
</a>
</g>
</g>
<!-- Node0&#45;&gt;Node3 -->
<g id="edge3" class="edge">
<title>Node0&#45;&gt;Node3</title>
<path fill="none" stroke="#191970" d="M319.8483,-403.2977C315.0912,-394.9388 309.1502,-384.4997 304.1143,-375.6509"/>
<polygon fill="#191970" stroke="#191970" points="307.0921,-373.8069 299.1039,-366.8469 301.0083,-377.2692 307.0921,-373.8069"/>
</g>
<!-- Node2 -->
<g id="node3" class="node">
<title>Node2</title>
<polygon fill="none" stroke="#bfbfbf" points="412,-.5 412,-19.5 479,-19.5 479,-.5 412,-.5"/>
<text text-anchor="middle" x="445.5" y="-7.5" font-family="Helvetica,sans-Serif" font-size="10.00" fill="#000000">blitz/array.h</text>
</g>
<!-- Node1&#45;&gt;Node2 -->
<g id="edge2" class="edge">
<title>Node1&#45;&gt;Node2</title>
<path fill="none" stroke="#191970" d="M425.6291,-179.3762C428.9335,-151.2097 438.6354,-68.5126 443.1453,-30.0713"/>
<polygon fill="#191970" stroke="#191970" points="446.6762,-30.0111 444.3654,-19.6714 439.7239,-29.1954 446.6762,-30.0111"/>
</g>
<!-- Node4 -->
<g id="node5" class="node">
<title>Node4</title>
<polygon fill="none" stroke="#bfbfbf" points="0,-179.5 0,-198.5 53,-198.5 53,-179.5 0,-179.5"/>
<text text-anchor="middle" x="26.5" y="-186.5" font-family="Helvetica,sans-Serif" font-size="10.00" fill="#000000">complex</text>
</g>
<!-- Node3&#45;&gt;Node4 -->
<g id="edge4" class="edge">
<title>Node3&#45;&gt;Node4</title>
<path fill="none" stroke="#191970" d="M278.3799,-347.4862C234.0593,-319.5991 104.2045,-237.8927 50.3394,-204.0001"/>
<polygon fill="#191970" stroke="#191970" points="52.1131,-200.9809 41.7852,-198.6177 48.3852,-206.9057 52.1131,-200.9809"/>
</g>
<!-- Node5 -->
<g id="node6" class="node">
<title>Node5</title>
<g id="a_node6"><a xlink:href="basic__solver_8hh.html" target="_top" xlink:title="basic_solver.hh">
<polygon fill="none" stroke="#000000" points="422.5,-291.5 422.5,-310.5 506.5,-310.5 506.5,-291.5 422.5,-291.5"/>
<text text-anchor="middle" x="464.5" y="-298.5" font-family="Helvetica,sans-Serif" font-size="10.00" fill="#000000">basic_solver.hh</text>
</a>
</g>
</g>
<!-- Node3&#45;&gt;Node5 -->
<g id="edge5" class="edge">
<title>Node3&#45;&gt;Node5</title>
<path fill="none" stroke="#191970" d="M322.8959,-347.3733C351.3307,-338.0613 394.5877,-323.8953 425.8081,-313.671"/>
<polygon fill="#191970" stroke="#191970" points="427.0736,-316.9396 435.4876,-310.5011 424.895,-310.2872 427.0736,-316.9396"/>
</g>
<!-- Node17 -->
<g id="node18" class="node">
<title>Node17</title>
<g id="a_node18"><a xlink:href="fourier_8hh.html" target="_top" xlink:title="fourier.hh">
<polygon fill="none" stroke="#000000" points="261.5,-291.5 261.5,-310.5 317.5,-310.5 317.5,-291.5 261.5,-291.5"/>
<text text-anchor="middle" x="289.5" y="-298.5" font-family="Helvetica,sans-Serif" font-size="10.00" fill="#000000">fourier.hh</text>
</a>
</g>
</g>
<!-- Node3&#45;&gt;Node17 -->
<g id="edge27" class="edge">
<title>Node3&#45;&gt;Node17</title>
<path fill="none" stroke="#191970" d="M292.8033,-347.2455C292.2813,-339.9382 291.5496,-329.6944 290.9075,-320.7046"/>
<polygon fill="#191970" stroke="#191970" points="294.3924,-320.3679 290.1888,-310.6427 287.4102,-320.8667 294.3924,-320.3679"/>
</g>
<!-- Node5&#45;&gt;Node1 -->
<g id="edge6" class="edge">
<title>Node5&#45;&gt;Node1</title>
<path fill="none" stroke="#191970" d="M459.5652,-291.3063C455.0099,-282.1164 448.2511,-267.8446 443.5,-255 437.8123,-239.6231 432.7532,-221.7243 429.2882,-208.4486"/>
<polygon fill="#191970" stroke="#191970" points="432.6263,-207.373 426.7738,-198.5413 425.8414,-209.095 432.6263,-207.373"/>
</g>
<!-- Node6 -->
<g id="node7" class="node">
<title>Node6</title>
<g id="a_node7"><a xlink:href="domain_8hh.html" target="_top" xlink:title="domain.hh">
<polygon fill="none" stroke="#000000" points="642.5,-235.5 642.5,-254.5 704.5,-254.5 704.5,-235.5 642.5,-235.5"/>
<text text-anchor="middle" x="673.5" y="-242.5" font-family="Helvetica,sans-Serif" font-size="10.00" fill="#000000">domain.hh</text>
</a>
</g>
</g>
<!-- Node5&#45;&gt;Node6 -->
<g id="edge7" class="edge">
<title>Node5&#45;&gt;Node6</title>
<path fill="none" stroke="#191970" d="M500.4284,-291.3733C537.1765,-281.5269 594.1799,-266.2532 632.6283,-255.9513"/>
<polygon fill="#191970" stroke="#191970" points="633.7101,-259.2849 642.4636,-253.316 631.8984,-252.5234 633.7101,-259.2849"/>
</g>
<!-- Node16 -->
<g id="node17" class="node">
<title>Node16</title>
<g id="a_node17"><a xlink:href="discrete__function_8hh.html" target="_top" xlink:title="discrete_function.hh">
<polygon fill="none" stroke="#000000" points="452.5,-235.5 452.5,-254.5 556.5,-254.5 556.5,-235.5 452.5,-235.5"/>
<text text-anchor="middle" x="504.5" y="-242.5" font-family="Helvetica,sans-Serif" font-size="10.00" fill="#000000">discrete_function.hh</text>
</a>
</g>
</g>
<!-- Node5&#45;&gt;Node16 -->
<g id="edge24" class="edge">
<title>Node5&#45;&gt;Node16</title>
<path fill="none" stroke="#191970" d="M471.4675,-291.2455C477.0311,-283.4564 484.978,-272.3308 491.6829,-262.9439"/>
<polygon fill="#191970" stroke="#191970" points="494.648,-264.8144 497.6124,-254.6427 488.9519,-260.7457 494.648,-264.8144"/>
</g>
<!-- Node6&#45;&gt;Node2 -->
<g id="edge12" class="edge">
<title>Node6&#45;&gt;Node2</title>
<path fill="none" stroke="#191970" d="M642.4981,-241.3386C612.706,-236.3668 567.9803,-224.9064 538.5,-199 485.2454,-152.2015 459.3151,-67.8961 449.8649,-29.7276"/>
<polygon fill="#191970" stroke="#191970" points="453.2385,-28.784 447.5377,-19.8537 446.4252,-30.3899 453.2385,-28.784"/>
</g>
<!-- Node7 -->
<g id="node8" class="node">
<title>Node7</title>
<polygon fill="none" stroke="#bfbfbf" points="571.5,-.5 571.5,-19.5 615.5,-19.5 615.5,-.5 571.5,-.5"/>
<text text-anchor="middle" x="593.5" y="-7.5" font-family="Helvetica,sans-Serif" font-size="10.00" fill="#000000">cmath</text>
</g>
<!-- Node6&#45;&gt;Node7 -->
<g id="edge8" class="edge">
<title>Node6&#45;&gt;Node7</title>
<path fill="none" stroke="#191970" d="M684.8342,-235.4278C709.111,-213.7061 762.2248,-158.9243 740.5,-112 718.4314,-64.3331 661.3772,-35.1335 625.1863,-20.8025"/>
<polygon fill="#191970" stroke="#191970" points="626.1694,-17.432 615.5783,-17.1517 623.683,-23.9755 626.1694,-17.432"/>
</g>
<!-- Node8 -->
<g id="node9" class="node">
<title>Node8</title>
<polygon fill="none" stroke="#bfbfbf" points="787.5,-179.5 787.5,-198.5 837.5,-198.5 837.5,-179.5 787.5,-179.5"/>
<text text-anchor="middle" x="812.5" y="-186.5" font-family="Helvetica,sans-Serif" font-size="10.00" fill="#000000">iomanip</text>
</g>
<!-- Node6&#45;&gt;Node8 -->
<g id="edge9" class="edge">
<title>Node6&#45;&gt;Node8</title>
<path fill="none" stroke="#191970" d="M697.395,-235.3733C720.0082,-226.2629 754.1542,-212.5062 779.3873,-202.3404"/>
<polygon fill="#191970" stroke="#191970" points="780.9493,-205.4845 788.9169,-198.5011 778.3334,-198.9917 780.9493,-205.4845"/>
</g>
<!-- Node9 -->
<g id="node10" class="node">
<title>Node9</title>
<polygon fill="none" stroke="#bfbfbf" points="682,-118 682,-137 731,-137 731,-118 682,-118"/>
<text text-anchor="middle" x="706.5" y="-125" font-family="Helvetica,sans-Serif" font-size="10.00" fill="#000000">istream</text>
</g>
<!-- Node6&#45;&gt;Node9 -->
<g id="edge10" class="edge">
<title>Node6&#45;&gt;Node9</title>
<path fill="none" stroke="#191970" d="M676.2005,-235.3845C681.6151,-216.1053 693.8908,-172.3963 701.0447,-146.9241"/>
<polygon fill="#191970" stroke="#191970" points="704.4278,-147.8223 703.7622,-137.2484 697.6886,-145.9295 704.4278,-147.8223"/>
</g>
<!-- Node10 -->
<g id="node11" class="node">
<title>Node10</title>
<polygon fill="none" stroke="#bfbfbf" points="855.5,-179.5 855.5,-198.5 907.5,-198.5 907.5,-179.5 855.5,-179.5"/>
<text text-anchor="middle" x="881.5" y="-186.5" font-family="Helvetica,sans-Serif" font-size="10.00" fill="#000000">ostream</text>
</g>
<!-- Node6&#45;&gt;Node10 -->
<g id="edge11" class="edge">
<title>Node6&#45;&gt;Node10</title>
<path fill="none" stroke="#191970" d="M704.7997,-236.8628C737.5231,-228.3147 790.617,-214.3316 845.2819,-199.3044"/>
<polygon fill="#191970" stroke="#191970" points="846.4306,-202.6183 855.1413,-196.5872 844.5708,-195.8699 846.4306,-202.6183"/>
</g>
<!-- Node11 -->
<g id="node12" class="node">
<title>Node11</title>
<g id="a_node12"><a xlink:href="grid_8hh.html" target="_top" xlink:title="grid.hh">
<polygon fill="none" stroke="#000000" points="547.5,-179.5 547.5,-198.5 593.5,-198.5 593.5,-179.5 547.5,-179.5"/>
<text text-anchor="middle" x="570.5" y="-186.5" font-family="Helvetica,sans-Serif" font-size="10.00" fill="#000000">grid.hh</text>
</a>
</g>
</g>
<!-- Node6&#45;&gt;Node11 -->
<g id="edge13" class="edge">
<title>Node6&#45;&gt;Node11</title>
<path fill="none" stroke="#191970" d="M655.5588,-235.2455C639.46,-226.4928 615.6121,-213.527 597.2609,-203.5496"/>
<polygon fill="#191970" stroke="#191970" points="598.6929,-200.3444 588.2356,-198.6427 595.3493,-206.4942 598.6929,-200.3444"/>
</g>
<!-- Node14 -->
<g id="node15" class="node">
<title>Node14</title>
<g id="a_node15"><a xlink:href="validators_8hh.html" target="_top" xlink:title="validators.hh">
<polygon fill="none" stroke="#000000" points="591.5,-118 591.5,-137 663.5,-137 663.5,-118 591.5,-118"/>
<text text-anchor="middle" x="627.5" y="-125" font-family="Helvetica,sans-Serif" font-size="10.00" fill="#000000">validators.hh</text>
</a>
</g>
</g>
<!-- Node6&#45;&gt;Node14 -->
<g id="edge23" class="edge">
<title>Node6&#45;&gt;Node14</title>
<path fill="none" stroke="#191970" d="M669.7356,-235.3845C662.1543,-216.0192 644.9234,-172.0055 634.9712,-146.584"/>
<polygon fill="#191970" stroke="#191970" points="638.2211,-145.2843 631.3164,-137.2484 631.7028,-147.8362 638.2211,-145.2843"/>
</g>
<!-- Node11&#45;&gt;Node7 -->
<g id="edge14" class="edge">
<title>Node11&#45;&gt;Node7</title>
<path fill="none" stroke="#191970" d="M571.7366,-179.3762C575.3557,-151.2097 585.9816,-68.5126 590.921,-30.0713"/>
<polygon fill="#191970" stroke="#191970" points="594.4542,-30.0359 592.2573,-19.6714 587.5113,-29.1438 594.4542,-30.0359"/>
</g>
<!-- Node11&#45;&gt;Node9 -->
<g id="edge15" class="edge">
<title>Node11&#45;&gt;Node9</title>
<path fill="none" stroke="#191970" d="M592.0025,-179.3333C612.653,-170.0424 644.7235,-155.5947 672.5,-143 673.6964,-142.4575 674.9163,-141.9039 676.1484,-141.3442"/>
<polygon fill="#191970" stroke="#191970" points="677.9955,-144.3491 685.6483,-137.0221 675.0966,-137.9776 677.9955,-144.3491"/>
</g>
<!-- Node12 -->
<g id="node13" class="node">
<title>Node12</title>
<g id="a_node13"><a xlink:href="blitz_8hh.html" target="_top" xlink:title="blitz.hh">
<polygon fill="none" stroke="#000000" points="501.5,-56.5 501.5,-75.5 549.5,-75.5 549.5,-56.5 501.5,-56.5"/>
<text text-anchor="middle" x="525.5" y="-63.5" font-family="Helvetica,sans-Serif" font-size="10.00" fill="#000000">blitz.hh</text>
</a>
</g>
</g>
<!-- Node11&#45;&gt;Node12 -->
<g id="edge16" class="edge">
<title>Node11&#45;&gt;Node12</title>
<path fill="none" stroke="#191970" d="M565.6293,-179.2822C561.1193,-170.0753 554.3911,-155.792 549.5,-143 542.1051,-123.6596 535.2454,-100.9705 530.77,-85.2546"/>
<polygon fill="#191970" stroke="#191970" points="534.1384,-84.3037 528.0753,-75.6152 527.3969,-86.1883 534.1384,-84.3037"/>
</g>
<!-- Node11&#45;&gt;Node14 -->
<g id="edge20" class="edge">
<title>Node11&#45;&gt;Node14</title>
<path fill="none" stroke="#191970" d="M579.4063,-179.3906C587.9728,-170.1478 601.1169,-155.966 611.5003,-144.7628"/>
<polygon fill="#191970" stroke="#191970" points="614.2375,-146.9584 618.4682,-137.2449 609.1035,-142.2 614.2375,-146.9584"/>
</g>
<!-- Node12&#45;&gt;Node2 -->
<g id="edge18" class="edge">
<title>Node12&#45;&gt;Node2</title>
<path fill="none" stroke="#191970" d="M511.5651,-56.2455C499.4053,-47.7337 481.5536,-35.2375 467.4715,-25.3801"/>
<polygon fill="#191970" stroke="#191970" points="469.4747,-22.51 459.2752,-19.6427 465.4605,-28.2447 469.4747,-22.51"/>
</g>
<!-- Node12&#45;&gt;Node7 -->
<g id="edge19" class="edge">
<title>Node12&#45;&gt;Node7</title>
<path fill="none" stroke="#191970" d="M537.3447,-56.2455C547.388,-47.9746 561.9995,-35.9416 573.8004,-26.2232"/>
<polygon fill="#191970" stroke="#191970" points="576.2967,-28.7015 581.791,-19.6427 571.8467,-23.298 576.2967,-28.7015"/>
</g>
<!-- Node13 -->
<g id="node14" class="node">
<title>Node13</title>
<polygon fill="none" stroke="#bfbfbf" points="497.5,-.5 497.5,-19.5 553.5,-19.5 553.5,-.5 497.5,-.5"/>
<text text-anchor="middle" x="525.5" y="-7.5" font-family="Helvetica,sans-Serif" font-size="10.00" fill="#000000">algorithm</text>
</g>
<!-- Node12&#45;&gt;Node13 -->
<g id="edge17" class="edge">
<title>Node12&#45;&gt;Node13</title>
<path fill="none" stroke="#191970" d="M525.5,-56.2455C525.5,-48.9382 525.5,-38.6944 525.5,-29.7046"/>
<polygon fill="#191970" stroke="#191970" points="529.0001,-29.6426 525.5,-19.6427 522.0001,-29.6427 529.0001,-29.6426"/>
</g>
<!-- Node14&#45;&gt;Node12 -->
<g id="edge22" class="edge">
<title>Node14&#45;&gt;Node12</title>
<path fill="none" stroke="#191970" d="M611.5625,-117.8906C595.0949,-107.9616 569.1742,-92.333 550.0796,-80.8201"/>
<polygon fill="#191970" stroke="#191970" points="551.6966,-77.7081 541.3256,-75.5419 548.0822,-83.7027 551.6966,-77.7081"/>
</g>
<!-- Node15 -->
<g id="node16" class="node">
<title>Node15</title>
<polygon fill="none" stroke="#bfbfbf" points="606,-56.5 606,-75.5 665,-75.5 665,-56.5 606,-56.5"/>
<text text-anchor="middle" x="635.5" y="-63.5" font-family="Helvetica,sans-Serif" font-size="10.00" fill="#000000">stdexcept</text>
</g>
<!-- Node14&#45;&gt;Node15 -->
<g id="edge21" class="edge">
<title>Node14&#45;&gt;Node15</title>
<path fill="none" stroke="#191970" d="M628.75,-117.8906C629.8589,-109.3657 631.5144,-96.6392 632.9083,-85.9235"/>
<polygon fill="#191970" stroke="#191970" points="636.4131,-86.1128 634.2324,-75.7449 629.4716,-85.2098 636.4131,-86.1128"/>
</g>
<!-- Node16&#45;&gt;Node1 -->
<g id="edge26" class="edge">
<title>Node16&#45;&gt;Node1</title>
<path fill="none" stroke="#191970" d="M490.5651,-235.2455C478.4053,-226.7337 460.5536,-214.2375 446.4715,-204.3801"/>
<polygon fill="#191970" stroke="#191970" points="448.4747,-201.51 438.2752,-198.6427 444.4605,-207.2447 448.4747,-201.51"/>
</g>
<!-- Node16&#45;&gt;Node11 -->
<g id="edge25" class="edge">
<title>Node16&#45;&gt;Node11</title>
<path fill="none" stroke="#191970" d="M515.9963,-235.2455C525.7442,-226.9746 539.9259,-214.9416 551.3798,-205.2232"/>
<polygon fill="#191970" stroke="#191970" points="553.7747,-207.7813 559.1354,-198.6427 549.2459,-202.4437 553.7747,-207.7813"/>
</g>
<!-- Node18 -->
<g id="node19" class="node">
<title>Node18</title>
<g id="a_node19"><a xlink:href="apmath_2fourier__gsl_8hh.html" target="_top" xlink:title="apmath/fourier_gsl.hh">
<polygon fill="none" stroke="#000000" points="231.5,-235.5 231.5,-254.5 341.5,-254.5 341.5,-235.5 231.5,-235.5"/>
<text text-anchor="middle" x="286.5" y="-242.5" font-family="Helvetica,sans-Serif" font-size="10.00" fill="#000000">apmath/fourier_gsl.hh</text>
</a>
</g>
</g>
<!-- Node17&#45;&gt;Node18 -->
<g id="edge28" class="edge">
<title>Node17&#45;&gt;Node18</title>
<path fill="none" stroke="#191970" d="M288.9774,-291.2455C288.586,-283.9382 288.0372,-273.6944 287.5556,-264.7046"/>
<polygon fill="#191970" stroke="#191970" points="291.0466,-264.4411 287.0166,-254.6427 284.0566,-264.8156 291.0466,-264.4411"/>
</g>
<!-- Node18&#45;&gt;Node1 -->
<g id="edge36" class="edge">
<title>Node18&#45;&gt;Node1</title>
<path fill="none" stroke="#191970" d="M310.223,-235.3733C332.6737,-226.2629 366.5739,-212.5062 391.6255,-202.3404"/>
<polygon fill="#191970" stroke="#191970" points="393.1365,-205.5045 401.0865,-198.5011 390.5043,-199.0182 393.1365,-205.5045"/>
</g>
<!-- Node18&#45;&gt;Node4 -->
<g id="edge29" class="edge">
<title>Node18&#45;&gt;Node4</title>
<path fill="none" stroke="#191970" d="M235.1239,-235.486C191.8023,-227.2293 127.9628,-214.5167 63.1671,-199.0365"/>
<polygon fill="#191970" stroke="#191970" points="63.725,-195.5709 53.1834,-196.6309 62.0852,-202.3761 63.725,-195.5709"/>
</g>
<!-- Node19 -->
<g id="node20" class="node">
<title>Node19</title>
<polygon fill="none" stroke="#bfbfbf" points="335.5,-179.5 335.5,-198.5 379.5,-198.5 379.5,-179.5 335.5,-179.5"/>
<text text-anchor="middle" x="357.5" y="-186.5" font-family="Helvetica,sans-Serif" font-size="10.00" fill="#000000">vector</text>
</g>
<!-- Node18&#45;&gt;Node19 -->
<g id="edge30" class="edge">
<title>Node18&#45;&gt;Node19</title>
<path fill="none" stroke="#191970" d="M298.8673,-235.2455C309.4554,-226.8943 324.9064,-214.7076 337.2893,-204.9408"/>
<polygon fill="#191970" stroke="#191970" points="339.5903,-207.5837 345.2745,-198.6427 335.2553,-202.0875 339.5903,-207.5837"/>
</g>
<!-- Node20 -->
<g id="node21" class="node">
<title>Node20</title>
<g id="a_node21"><a xlink:href="fourier__direction_8hh.html" target="_top" xlink:title="apmath/fourier_direction.hh">
<polygon fill="none" stroke="#000000" points="71.5,-179.5 71.5,-198.5 205.5,-198.5 205.5,-179.5 71.5,-179.5"/>
<text text-anchor="middle" x="138.5" y="-186.5" font-family="Helvetica,sans-Serif" font-size="10.00" fill="#000000">apmath/fourier_direction.hh</text>
</a>
</g>
</g>
<!-- Node18&#45;&gt;Node20 -->
<g id="edge31" class="edge">
<title>Node18&#45;&gt;Node20</title>
<path fill="none" stroke="#191970" d="M261.0579,-235.3733C236.7674,-226.1822 199.9792,-212.2624 173.0457,-202.0713"/>
<polygon fill="#191970" stroke="#191970" points="174.2016,-198.7666 163.6101,-198.5011 171.7243,-205.3136 174.2016,-198.7666"/>
</g>
<!-- Node21 -->
<g id="node22" class="node">
<title>Node21</title>
<g id="a_node22"><a xlink:href="bits_2fourier__gsl_8hh.html" target="_top" xlink:title="bits/fourier_gsl.hh">
<polygon fill="none" stroke="#000000" points="223.5,-179.5 223.5,-198.5 317.5,-198.5 317.5,-179.5 223.5,-179.5"/>
<text text-anchor="middle" x="270.5" y="-186.5" font-family="Helvetica,sans-Serif" font-size="10.00" fill="#000000">bits/fourier_gsl.hh</text>
</a>
</g>
</g>
<!-- Node18&#45;&gt;Node21 -->
<g id="edge32" class="edge">
<title>Node18&#45;&gt;Node21</title>
<path fill="none" stroke="#191970" d="M283.713,-235.2455C281.6023,-227.8579 278.634,-217.4689 276.0453,-208.4087"/>
<polygon fill="#191970" stroke="#191970" points="279.3677,-207.2964 273.255,-198.6427 272.637,-209.2195 279.3677,-207.2964"/>
</g>
<!-- Node22 -->
<g id="node23" class="node">
<title>Node22</title>
<polygon fill="none" stroke="#bfbfbf" points="93,-118 93,-137 202,-137 202,-118 93,-118"/>
<text text-anchor="middle" x="147.5" y="-125" font-family="Helvetica,sans-Serif" font-size="10.00" fill="#000000">gsl/gsl_fft_complex.h</text>
</g>
<!-- Node21&#45;&gt;Node22 -->
<g id="edge33" class="edge">
<title>Node21&#45;&gt;Node22</title>
<path fill="none" stroke="#191970" d="M251.2813,-179.3906C230.9719,-169.2359 198.7393,-153.1196 175.5832,-141.5416"/>
<polygon fill="#191970" stroke="#191970" points="177.0933,-138.3836 166.5838,-137.0419 173.9628,-144.6446 177.0933,-138.3836"/>
</g>
<!-- Node23 -->
<g id="node24" class="node">
<title>Node23</title>
<polygon fill="none" stroke="#bfbfbf" points="220,-112.5 220,-142.5 321,-142.5 321,-112.5 220,-112.5"/>
<text text-anchor="start" x="228" y="-130.5" font-family="Helvetica,sans-Serif" font-size="10.00" fill="#000000">gsl/gsl_fft_complex</text>
<text text-anchor="middle" x="270.5" y="-119.5" font-family="Helvetica,sans-Serif" font-size="10.00" fill="#000000">_float.h</text>
</g>
<!-- Node21&#45;&gt;Node23 -->
<g id="edge34" class="edge">
<title>Node21&#45;&gt;Node23</title>
<path fill="none" stroke="#191970" d="M270.5,-179.3906C270.5,-172.2234 270.5,-162.0862 270.5,-152.671"/>
<polygon fill="#191970" stroke="#191970" points="274.0001,-152.5446 270.5,-142.5446 267.0001,-152.5446 274.0001,-152.5446"/>
</g>
<!-- Node24 -->
<g id="node25" class="node">
<title>Node24</title>
<polygon fill="none" stroke="#bfbfbf" points="339.5,-118 339.5,-137 401.5,-137 401.5,-118 339.5,-118"/>
<text text-anchor="middle" x="370.5" y="-125" font-family="Helvetica,sans-Serif" font-size="10.00" fill="#000000">type_traits</text>
</g>
<!-- Node21&#45;&gt;Node24 -->
<g id="edge35" class="edge">
<title>Node21&#45;&gt;Node24</title>
<path fill="none" stroke="#191970" d="M286.125,-179.3906C302.2698,-169.4616 327.6822,-153.833 346.4023,-142.3201"/>
<polygon fill="#191970" stroke="#191970" points="348.3002,-145.2619 354.9847,-137.0419 344.6331,-139.2992 348.3002,-145.2619"/>
</g>
</g>
</svg>
