<?xml version="1.0" encoding="UTF-8" standalone="no"?>
<!DOCTYPE svg PUBLIC "-//W3C//DTD SVG 1.1//EN"
 "http://www.w3.org/Graphics/SVG/1.1/DTD/svg11.dtd">
<!-- Generated by graphviz version 2.40.1 (20161225.0304)
 -->
<!-- Title: src/velocity/high_amplitude_realtime_solver.cc Pages: 1 -->
<svg width="893pt" height="442pt"
 viewBox="0.00 0.00 893.00 442.00" xmlns="http://www.w3.org/2000/svg" xmlns:xlink="http://www.w3.org/1999/xlink">
<g id="graph0" class="graph" transform="scale(1 1) rotate(0) translate(4 438)">
<title>src/velocity/high_amplitude_realtime_solver.cc</title>
<!-- Node0 -->
<g id="node1" class="node">
<title>Node0</title>
<polygon fill="#bfbfbf" stroke="#000000" points="479.5,-403.5 479.5,-433.5 614.5,-433.5 614.5,-403.5 479.5,-403.5"/>
<text text-anchor="start" x="487.5" y="-421.5" font-family="Helvetica,sans-Serif" font-size="10.00" fill="#000000">src/velocity/high_amplitude</text>
<text text-anchor="middle" x="547" y="-410.5" font-family="Helvetica,sans-Serif" font-size="10.00" fill="#000000">_realtime_solver.cc</text>
</g>
<!-- Node1 -->
<g id="node2" class="node">
<title>Node1</title>
<g id="a_node2"><a xlink:href="high__amplitude__realtime__solver_8hh.html" target="_top" xlink:title="high_amplitude_realtime\l_solver.hh">
<polygon fill="none" stroke="#000000" points="312,-336.5 312,-366.5 434,-366.5 434,-336.5 312,-336.5"/>
<text text-anchor="start" x="320" y="-354.5" font-family="Helvetica,sans-Serif" font-size="10.00" fill="#000000">high_amplitude_realtime</text>
<text text-anchor="middle" x="373" y="-343.5" font-family="Helvetica,sans-Serif" font-size="10.00" fill="#000000">_solver.hh</text>
</a>
</g>
</g>
<!-- Node0&#45;&gt;Node1 -->
<g id="edge1" class="edge">
<title>Node0&#45;&gt;Node1</title>
<path fill="none" stroke="#191970" d="M507.951,-403.4639C482.4066,-393.6278 448.8416,-380.7034 421.5769,-370.2049"/>
<polygon fill="#191970" stroke="#191970" points="422.8091,-366.9289 412.2193,-366.6017 420.2937,-373.4614 422.8091,-366.9289"/>
</g>
<!-- Node11 -->
<g id="node12" class="node">
<title>Node11</title>
<polygon fill="none" stroke="#bfbfbf" points="154.5,-56.5 154.5,-75.5 213.5,-75.5 213.5,-56.5 154.5,-56.5"/>
<text text-anchor="middle" x="184" y="-63.5" font-family="Helvetica,sans-Serif" font-size="10.00" fill="#000000">stdexcept</text>
</g>
<!-- Node0&#45;&gt;Node11 -->
<g id="edge38" class="edge">
<title>Node0&#45;&gt;Node11</title>
<path fill="none" stroke="#191970" d="M479.2121,-411.141C363.9185,-396.7233 142,-359.894 142,-290 142,-290 142,-290 142,-178 142,-143.2434 159.9519,-106.0613 172.3826,-84.4811"/>
<polygon fill="#191970" stroke="#191970" points="175.4887,-86.1065 177.6211,-75.7285 169.4823,-82.5116 175.4887,-86.1065"/>
</g>
<!-- Node16 -->
<g id="node17" class="node">
<title>Node16</title>
<g id="a_node17"><a xlink:href="profile_8hh.html" target="_top" xlink:title="profile.hh">
<polygon fill="none" stroke="#000000" points="547,-342 547,-361 603,-361 603,-342 547,-342"/>
<text text-anchor="middle" x="575" y="-349" font-family="Helvetica,sans-Serif" font-size="10.00" fill="#000000">profile.hh</text>
</a>
</g>
</g>
<!-- Node0&#45;&gt;Node16 -->
<g id="edge25" class="edge">
<title>Node0&#45;&gt;Node16</title>
<path fill="none" stroke="#191970" d="M553.3536,-403.2967C557.4197,-393.5672 562.727,-380.8675 567.0687,-370.4784"/>
<polygon fill="#191970" stroke="#191970" points="570.3802,-371.6313 571.0069,-361.055 563.9215,-368.9321 570.3802,-371.6313"/>
</g>
<!-- Node17 -->
<g id="node18" class="node">
<title>Node17</title>
<g id="a_node18"><a xlink:href="derivative_8hh.html" target="_top" xlink:title="derivative.hh">
<polygon fill="none" stroke="#000000" points="439,-224.5 439,-243.5 511,-243.5 511,-224.5 439,-224.5"/>
<text text-anchor="middle" x="475" y="-231.5" font-family="Helvetica,sans-Serif" font-size="10.00" fill="#000000">derivative.hh</text>
</a>
</g>
</g>
<!-- Node0&#45;&gt;Node17 -->
<g id="edge26" class="edge">
<title>Node0&#45;&gt;Node17</title>
<path fill="none" stroke="#191970" d="M531.2627,-403.1542C522.2924,-393.5555 511.5643,-380.4857 505,-367 486.6894,-329.3823 479.3623,-280.3092 476.5807,-253.531"/>
<polygon fill="#191970" stroke="#191970" points="480.0605,-253.1504 475.648,-243.5181 473.0906,-253.7996 480.0605,-253.1504"/>
</g>
<!-- Node18 -->
<g id="node19" class="node">
<title>Node18</title>
<g id="a_node19"><a xlink:href="physical__constants_8hh.html" target="_top" xlink:title="physical_constants.hh">
<polygon fill="none" stroke="#000000" points="0,-280.5 0,-299.5 114,-299.5 114,-280.5 0,-280.5"/>
<text text-anchor="middle" x="57" y="-287.5" font-family="Helvetica,sans-Serif" font-size="10.00" fill="#000000">physical_constants.hh</text>
</a>
</g>
</g>
<!-- Node0&#45;&gt;Node18 -->
<g id="edge28" class="edge">
<title>Node0&#45;&gt;Node18</title>
<path fill="none" stroke="#191970" d="M479.1938,-415.8144C376.652,-410.8133 187.7455,-397.6581 128,-367 101.8245,-353.5682 80.375,-326.3572 68.1334,-308.1498"/>
<polygon fill="#191970" stroke="#191970" points="70.9589,-306.0732 62.595,-299.5698 65.0778,-309.8696 70.9589,-306.0732"/>
</g>
<!-- Node19 -->
<g id="node20" class="node">
<title>Node19</title>
<g id="a_node20"><a xlink:href="util_8hh.html" target="_top" xlink:title="util.hh">
<polygon fill="none" stroke="#000000" points="517.5,-168.5 517.5,-187.5 560.5,-187.5 560.5,-168.5 517.5,-168.5"/>
<text text-anchor="middle" x="539" y="-175.5" font-family="Helvetica,sans-Serif" font-size="10.00" fill="#000000">util.hh</text>
</a>
</g>
</g>
<!-- Node0&#45;&gt;Node19 -->
<g id="edge30" class="edge">
<title>Node0&#45;&gt;Node19</title>
<path fill="none" stroke="#191970" d="M543.6243,-403.2674C541.5399,-393.0639 539.0665,-379.2978 538,-367 532.6767,-305.6164 535.7006,-232.5979 537.6905,-198.0375"/>
<polygon fill="#191970" stroke="#191970" points="541.1956,-198.0586 538.3121,-187.8637 534.2087,-197.6316 541.1956,-198.0586"/>
</g>
<!-- Node22 -->
<g id="node23" class="node">
<title>Node22</title>
<polygon fill="none" stroke="#bfbfbf" points="621,-342 621,-361 665,-361 665,-342 621,-342"/>
<text text-anchor="middle" x="643" y="-349" font-family="Helvetica,sans-Serif" font-size="10.00" fill="#000000">vector</text>
</g>
<!-- Node0&#45;&gt;Node22 -->
<g id="edge35" class="edge">
<title>Node0&#45;&gt;Node22</title>
<path fill="none" stroke="#191970" d="M568.7839,-403.2967C584.322,-392.4524 605.1471,-377.9182 620.7824,-367.006"/>
<polygon fill="#191970" stroke="#191970" points="623.1121,-369.6483 629.3093,-361.055 619.1058,-363.908 623.1121,-369.6483"/>
</g>
<!-- Node23 -->
<g id="node24" class="node">
<title>Node23</title>
<polygon fill="none" stroke="#bfbfbf" points="683.5,-342 683.5,-361 736.5,-361 736.5,-342 683.5,-342"/>
<text text-anchor="middle" x="710" y="-349" font-family="Helvetica,sans-Serif" font-size="10.00" fill="#000000">complex</text>
</g>
<!-- Node0&#45;&gt;Node23 -->
<g id="edge36" class="edge">
<title>Node0&#45;&gt;Node23</title>
<path fill="none" stroke="#191970" d="M584.5963,-403.4984C609.9185,-393.3346 644.0354,-379.5245 674,-367 675.4126,-366.4096 676.855,-365.8032 678.3111,-365.1882"/>
<polygon fill="#191970" stroke="#191970" points="680.1187,-368.2225 687.9469,-361.0832 677.3752,-361.7826 680.1187,-368.2225"/>
</g>
<!-- Node24 -->
<g id="node25" class="node">
<title>Node24</title>
<polygon fill="none" stroke="#bfbfbf" points="755,-342 755,-361 817,-361 817,-342 755,-342"/>
<text text-anchor="middle" x="786" y="-349" font-family="Helvetica,sans-Serif" font-size="10.00" fill="#000000">type_traits</text>
</g>
<!-- Node0&#45;&gt;Node24 -->
<g id="edge37" class="edge">
<title>Node0&#45;&gt;Node24</title>
<path fill="none" stroke="#191970" d="M612.9798,-403.4679C651.9909,-394.0745 702.179,-381.1077 746,-367 748.273,-366.2682 750.6041,-365.4766 752.943,-364.6517"/>
<polygon fill="#191970" stroke="#191970" points="754.3005,-367.8816 762.474,-361.1402 751.8805,-361.3132 754.3005,-367.8816"/>
</g>
<!-- Node25 -->
<g id="node26" class="node">
<title>Node25</title>
<polygon fill="none" stroke="#bfbfbf" points="835,-342 835,-361 885,-361 885,-342 835,-342"/>
<text text-anchor="middle" x="860" y="-349" font-family="Helvetica,sans-Serif" font-size="10.00" fill="#000000">fstream</text>
</g>
<!-- Node0&#45;&gt;Node25 -->
<g id="edge39" class="edge">
<title>Node0&#45;&gt;Node25</title>
<path fill="none" stroke="#191970" d="M614.6431,-410.7398C671.8544,-403.0624 755.5293,-389.1962 826,-367 827.9027,-366.4007 829.8388,-365.7218 831.7729,-364.9909"/>
<polygon fill="#191970" stroke="#191970" points="833.3803,-368.1128 841.2624,-361.033 830.6856,-361.6522 833.3803,-368.1128"/>
</g>
<!-- Node2 -->
<g id="node3" class="node">
<title>Node2</title>
<g id="a_node3"><a xlink:href="basic__solver_8hh.html" target="_top" xlink:title="basic_solver.hh">
<polygon fill="none" stroke="#000000" points="331,-280.5 331,-299.5 415,-299.5 415,-280.5 331,-280.5"/>
<text text-anchor="middle" x="373" y="-287.5" font-family="Helvetica,sans-Serif" font-size="10.00" fill="#000000">basic_solver.hh</text>
</a>
</g>
</g>
<!-- Node1&#45;&gt;Node2 -->
<g id="edge2" class="edge">
<title>Node1&#45;&gt;Node2</title>
<path fill="none" stroke="#191970" d="M373,-336.2977C373,-328.3834 373,-318.6043 373,-310.0759"/>
<polygon fill="#191970" stroke="#191970" points="376.5001,-309.8469 373,-299.8469 369.5001,-309.847 376.5001,-309.8469"/>
</g>
<!-- Node15 -->
<g id="node16" class="node">
<title>Node15</title>
<g id="a_node16"><a xlink:href="grid_8hh.html" target="_top" xlink:title="grid.hh">
<polygon fill="none" stroke="#000000" points="220,-168.5 220,-187.5 266,-187.5 266,-168.5 220,-168.5"/>
<text text-anchor="middle" x="243" y="-175.5" font-family="Helvetica,sans-Serif" font-size="10.00" fill="#000000">grid.hh</text>
</a>
</g>
</g>
<!-- Node1&#45;&gt;Node15 -->
<g id="edge24" class="edge">
<title>Node1&#45;&gt;Node15</title>
<path fill="none" stroke="#191970" d="M338.2437,-336.4246C304.0883,-319.4825 253.9884,-288.4144 232,-244 224.7716,-229.3994 228.7649,-210.9874 233.8539,-197.3224"/>
<polygon fill="#191970" stroke="#191970" points="237.149,-198.5151 237.7912,-187.9397 230.6943,-195.8064 237.149,-198.5151"/>
</g>
<!-- Node3 -->
<g id="node4" class="node">
<title>Node3</title>
<g id="a_node4"><a xlink:href="types_8hh.html" target="_top" xlink:title="types.hh">
<polygon fill="none" stroke="#000000" points="437,-168.5 437,-187.5 491,-187.5 491,-168.5 437,-168.5"/>
<text text-anchor="middle" x="464" y="-175.5" font-family="Helvetica,sans-Serif" font-size="10.00" fill="#000000">types.hh</text>
</a>
</g>
</g>
<!-- Node2&#45;&gt;Node3 -->
<g id="edge3" class="edge">
<title>Node2&#45;&gt;Node3</title>
<path fill="none" stroke="#191970" d="M380.7586,-280.4509C396.0706,-261.6054 430.3748,-219.3849 449.8285,-195.4419"/>
<polygon fill="#191970" stroke="#191970" points="452.6715,-197.4931 456.261,-187.5249 447.2387,-193.079 452.6715,-197.4931"/>
</g>
<!-- Node5 -->
<g id="node6" class="node">
<title>Node5</title>
<g id="a_node6"><a xlink:href="domain_8hh.html" target="_top" xlink:title="domain.hh">
<polygon fill="none" stroke="#000000" points="345,-168.5 345,-187.5 407,-187.5 407,-168.5 345,-168.5"/>
<text text-anchor="middle" x="376" y="-175.5" font-family="Helvetica,sans-Serif" font-size="10.00" fill="#000000">domain.hh</text>
</a>
</g>
</g>
<!-- Node2&#45;&gt;Node5 -->
<g id="edge5" class="edge">
<title>Node2&#45;&gt;Node5</title>
<path fill="none" stroke="#191970" d="M373.2558,-280.4509C373.7451,-262.184 374.8226,-221.9553 375.4724,-197.6976"/>
<polygon fill="#191970" stroke="#191970" points="378.9758,-197.6151 375.7449,-187.5249 371.9783,-197.4276 378.9758,-197.6151"/>
</g>
<!-- Node14 -->
<g id="node15" class="node">
<title>Node14</title>
<g id="a_node15"><a xlink:href="discrete__function_8hh.html" target="_top" xlink:title="discrete_function.hh">
<polygon fill="none" stroke="#000000" points="241,-224.5 241,-243.5 345,-243.5 345,-224.5 241,-224.5"/>
<text text-anchor="middle" x="293" y="-231.5" font-family="Helvetica,sans-Serif" font-size="10.00" fill="#000000">discrete_function.hh</text>
</a>
</g>
</g>
<!-- Node2&#45;&gt;Node14 -->
<g id="edge17" class="edge">
<title>Node2&#45;&gt;Node14</title>
<path fill="none" stroke="#191970" d="M359.0651,-280.2455C346.9053,-271.7337 329.0536,-259.2375 314.9715,-249.3801"/>
<polygon fill="#191970" stroke="#191970" points="316.9747,-246.51 306.7752,-243.6427 312.9605,-252.2447 316.9747,-246.51"/>
</g>
<!-- Node4 -->
<g id="node5" class="node">
<title>Node4</title>
<polygon fill="none" stroke="#bfbfbf" points="387.5,-.5 387.5,-19.5 454.5,-19.5 454.5,-.5 387.5,-.5"/>
<text text-anchor="middle" x="421" y="-7.5" font-family="Helvetica,sans-Serif" font-size="10.00" fill="#000000">blitz/array.h</text>
</g>
<!-- Node3&#45;&gt;Node4 -->
<g id="edge4" class="edge">
<title>Node3&#45;&gt;Node4</title>
<path fill="none" stroke="#191970" d="M491.2115,-170.0574C519.7733,-161.1054 561.7969,-145.974 571,-132 575.8891,-124.5764 575.1583,-119.8563 571,-112 547.3334,-67.2867 494.3024,-38.5248 458.0798,-23.3018"/>
<polygon fill="#191970" stroke="#191970" points="459.3872,-20.0552 448.8047,-19.5434 456.7583,-26.5428 459.3872,-20.0552"/>
</g>
<!-- Node5&#45;&gt;Node4 -->
<g id="edge10" class="edge">
<title>Node5&#45;&gt;Node4</title>
<path fill="none" stroke="#191970" d="M379.1374,-168.1684C382.0666,-158.881 386.4997,-144.5433 390,-132 400.0405,-96.0203 410.4933,-53.698 416.3316,-29.5432"/>
<polygon fill="#191970" stroke="#191970" points="419.804,-30.0724 418.7383,-19.5313 412.9979,-28.4363 419.804,-30.0724"/>
</g>
<!-- Node6 -->
<g id="node7" class="node">
<title>Node6</title>
<polygon fill="none" stroke="#bfbfbf" points="170,-.5 170,-19.5 214,-19.5 214,-.5 170,-.5"/>
<text text-anchor="middle" x="192" y="-7.5" font-family="Helvetica,sans-Serif" font-size="10.00" fill="#000000">cmath</text>
</g>
<!-- Node5&#45;&gt;Node6 -->
<g id="edge6" class="edge">
<title>Node5&#45;&gt;Node6</title>
<path fill="none" stroke="#191970" d="M375.1737,-168.062C373.5732,-154.2129 368.9706,-128.9101 356,-112 337.3519,-87.688 261.7424,-46.1021 220.0079,-24.298"/>
<polygon fill="#191970" stroke="#191970" points="221.4031,-21.0789 210.9148,-19.5804 218.1794,-27.2924 221.4031,-21.0789"/>
</g>
<!-- Node7 -->
<g id="node8" class="node">
<title>Node7</title>
<polygon fill="none" stroke="#bfbfbf" points="442,-112.5 442,-131.5 492,-131.5 492,-112.5 442,-112.5"/>
<text text-anchor="middle" x="467" y="-119.5" font-family="Helvetica,sans-Serif" font-size="10.00" fill="#000000">iomanip</text>
</g>
<!-- Node5&#45;&gt;Node7 -->
<g id="edge7" class="edge">
<title>Node5&#45;&gt;Node7</title>
<path fill="none" stroke="#191970" d="M391.851,-168.2455C405.8132,-159.6534 426.3728,-147.0014 442.4596,-137.1018"/>
<polygon fill="#191970" stroke="#191970" points="444.6484,-139.8645 451.3307,-131.6427 440.9797,-133.9029 444.6484,-139.8645"/>
</g>
<!-- Node8 -->
<g id="node9" class="node">
<title>Node8</title>
<polygon fill="none" stroke="#bfbfbf" points="298.5,-112.5 298.5,-131.5 347.5,-131.5 347.5,-112.5 298.5,-112.5"/>
<text text-anchor="middle" x="323" y="-119.5" font-family="Helvetica,sans-Serif" font-size="10.00" fill="#000000">istream</text>
</g>
<!-- Node5&#45;&gt;Node8 -->
<g id="edge8" class="edge">
<title>Node5&#45;&gt;Node8</title>
<path fill="none" stroke="#191970" d="M366.7681,-168.2455C359.1683,-160.2155 348.2123,-148.6394 339.1632,-139.0781"/>
<polygon fill="#191970" stroke="#191970" points="341.542,-136.4998 332.1261,-131.6427 336.4579,-141.3115 341.542,-136.4998"/>
</g>
<!-- Node9 -->
<g id="node10" class="node">
<title>Node9</title>
<polygon fill="none" stroke="#bfbfbf" points="510,-112.5 510,-131.5 562,-131.5 562,-112.5 510,-112.5"/>
<text text-anchor="middle" x="536" y="-119.5" font-family="Helvetica,sans-Serif" font-size="10.00" fill="#000000">ostream</text>
</g>
<!-- Node5&#45;&gt;Node9 -->
<g id="edge9" class="edge">
<title>Node5&#45;&gt;Node9</title>
<path fill="none" stroke="#191970" d="M403.505,-168.3733C430.3165,-158.9892 471.2123,-144.6757 500.4733,-134.4343"/>
<polygon fill="#191970" stroke="#191970" points="501.6311,-137.7374 509.9134,-131.1303 499.3186,-131.1304 501.6311,-137.7374"/>
</g>
<!-- Node10 -->
<g id="node11" class="node">
<title>Node10</title>
<g id="a_node11"><a xlink:href="validators_8hh.html" target="_top" xlink:title="validators.hh">
<polygon fill="none" stroke="#000000" points="170,-112.5 170,-131.5 242,-131.5 242,-112.5 170,-112.5"/>
<text text-anchor="middle" x="206" y="-119.5" font-family="Helvetica,sans-Serif" font-size="10.00" fill="#000000">validators.hh</text>
</a>
</g>
</g>
<!-- Node5&#45;&gt;Node10 -->
<g id="edge11" class="edge">
<title>Node5&#45;&gt;Node10</title>
<path fill="none" stroke="#191970" d="M346.776,-168.3733C318.5075,-159.0613 275.5035,-144.8953 244.4656,-134.671"/>
<polygon fill="#191970" stroke="#191970" points="245.4357,-131.3056 234.8427,-131.5011 243.2456,-137.9542 245.4357,-131.3056"/>
</g>
<!-- Node10&#45;&gt;Node11 -->
<g id="edge12" class="edge">
<title>Node10&#45;&gt;Node11</title>
<path fill="none" stroke="#191970" d="M202.1679,-112.2455C199.2341,-104.7776 195.0953,-94.2427 191.509,-85.1137"/>
<polygon fill="#191970" stroke="#191970" points="194.7024,-83.6704 187.7882,-75.6427 188.1871,-86.23 194.7024,-83.6704"/>
</g>
<!-- Node12 -->
<g id="node13" class="node">
<title>Node12</title>
<g id="a_node13"><a xlink:href="blitz_8hh.html" target="_top" xlink:title="blitz.hh">
<polygon fill="none" stroke="#000000" points="324,-56.5 324,-75.5 372,-75.5 372,-56.5 324,-56.5"/>
<text text-anchor="middle" x="348" y="-63.5" font-family="Helvetica,sans-Serif" font-size="10.00" fill="#000000">blitz.hh</text>
</a>
</g>
</g>
<!-- Node10&#45;&gt;Node12 -->
<g id="edge13" class="edge">
<title>Node10&#45;&gt;Node12</title>
<path fill="none" stroke="#191970" d="M230.4107,-112.3733C253.6142,-103.2226 288.7038,-89.3844 314.5142,-79.2057"/>
<polygon fill="#191970" stroke="#191970" points="315.8892,-82.4258 323.9079,-75.5011 313.3211,-75.9139 315.8892,-82.4258"/>
</g>
<!-- Node12&#45;&gt;Node4 -->
<g id="edge15" class="edge">
<title>Node12&#45;&gt;Node4</title>
<path fill="none" stroke="#191970" d="M360.7156,-56.2455C371.602,-47.8943 387.4883,-35.7076 400.22,-25.9408"/>
<polygon fill="#191970" stroke="#191970" points="402.6261,-28.5063 408.4301,-19.6427 398.3654,-22.9523 402.6261,-28.5063"/>
</g>
<!-- Node12&#45;&gt;Node6 -->
<g id="edge16" class="edge">
<title>Node12&#45;&gt;Node6</title>
<path fill="none" stroke="#191970" d="M323.9669,-57.3727C297.0146,-47.6976 253.2005,-31.9694 223.5203,-21.315"/>
<polygon fill="#191970" stroke="#191970" points="224.6359,-17.9968 214.0414,-17.9123 222.2708,-24.5852 224.6359,-17.9968"/>
</g>
<!-- Node13 -->
<g id="node14" class="node">
<title>Node13</title>
<polygon fill="none" stroke="#bfbfbf" points="313,-.5 313,-19.5 369,-19.5 369,-.5 313,-.5"/>
<text text-anchor="middle" x="341" y="-7.5" font-family="Helvetica,sans-Serif" font-size="10.00" fill="#000000">algorithm</text>
</g>
<!-- Node12&#45;&gt;Node13 -->
<g id="edge14" class="edge">
<title>Node12&#45;&gt;Node13</title>
<path fill="none" stroke="#191970" d="M346.7807,-56.2455C345.8673,-48.9382 344.5868,-38.6944 343.4631,-29.7046"/>
<polygon fill="#191970" stroke="#191970" points="346.9187,-29.1313 342.2053,-19.6427 339.9728,-29.9996 346.9187,-29.1313"/>
</g>
<!-- Node14&#45;&gt;Node3 -->
<g id="edge23" class="edge">
<title>Node14&#45;&gt;Node3</title>
<path fill="none" stroke="#191970" d="M322.3959,-224.3733C351.4338,-214.8638 395.9295,-200.2921 427.2784,-190.0258"/>
<polygon fill="#191970" stroke="#191970" points="428.5443,-193.2942 436.9584,-186.8557 426.3657,-186.6418 428.5443,-193.2942"/>
</g>
<!-- Node14&#45;&gt;Node15 -->
<g id="edge18" class="edge">
<title>Node14&#45;&gt;Node15</title>
<path fill="none" stroke="#191970" d="M284.2907,-224.2455C277.1927,-216.2958 266.9916,-204.8706 258.505,-195.3656"/>
<polygon fill="#191970" stroke="#191970" points="260.8805,-192.771 251.6095,-187.6427 255.6589,-197.4331 260.8805,-192.771"/>
</g>
<!-- Node15&#45;&gt;Node6 -->
<g id="edge19" class="edge">
<title>Node15&#45;&gt;Node6</title>
<path fill="none" stroke="#191970" d="M219.9042,-170.609C201.3867,-163.5325 176.0829,-151.0798 161,-132 139.5936,-104.921 131.6192,-87.8192 145,-56 149.9978,-44.1153 159.7314,-33.765 169.0503,-25.908"/>
<polygon fill="#191970" stroke="#191970" points="171.2957,-28.5951 177.0035,-19.6692 166.9752,-23.0874 171.2957,-28.5951"/>
</g>
<!-- Node15&#45;&gt;Node8 -->
<g id="edge20" class="edge">
<title>Node15&#45;&gt;Node8</title>
<path fill="none" stroke="#191970" d="M256.9349,-168.2455C269.0947,-159.7337 286.9464,-147.2375 301.0285,-137.3801"/>
<polygon fill="#191970" stroke="#191970" points="303.0395,-140.2447 309.2248,-131.6427 299.0253,-134.51 303.0395,-140.2447"/>
</g>
<!-- Node15&#45;&gt;Node10 -->
<g id="edge22" class="edge">
<title>Node15&#45;&gt;Node10</title>
<path fill="none" stroke="#191970" d="M236.5551,-168.2455C231.4618,-160.5367 224.2092,-149.5598 218.048,-140.2348"/>
<polygon fill="#191970" stroke="#191970" points="220.8038,-138.0566 212.3711,-131.6427 214.9635,-141.9155 220.8038,-138.0566"/>
</g>
<!-- Node15&#45;&gt;Node12 -->
<g id="edge21" class="edge">
<title>Node15&#45;&gt;Node12</title>
<path fill="none" stroke="#191970" d="M248.4458,-168.3776C256.339,-154.9035 271.8974,-130.0434 289,-112 299.8227,-100.582 313.612,-89.6709 325.1379,-81.3431"/>
<polygon fill="#191970" stroke="#191970" points="327.2598,-84.1298 333.424,-75.5128 323.2316,-78.4049 327.2598,-84.1298"/>
</g>
<!-- Node17&#45;&gt;Node3 -->
<g id="edge27" class="edge">
<title>Node17&#45;&gt;Node3</title>
<path fill="none" stroke="#191970" d="M473.0839,-224.2455C471.6486,-216.9382 469.6364,-206.6944 467.8705,-197.7046"/>
<polygon fill="#191970" stroke="#191970" points="471.256,-196.7805 465.8941,-187.6427 464.3873,-198.1298 471.256,-196.7805"/>
</g>
<!-- Node18&#45;&gt;Node6 -->
<g id="edge29" class="edge">
<title>Node18&#45;&gt;Node6</title>
<path fill="none" stroke="#191970" d="M57.7164,-280.4181C59.0989,-261.0718 62,-215.9544 62,-178 62,-178 62,-178 62,-122 62,-70.3149 121.7094,-37.2438 160.1958,-21.2957"/>
<polygon fill="#191970" stroke="#191970" points="161.9413,-24.3688 169.9473,-17.4294 159.3613,-17.8616 161.9413,-24.3688"/>
</g>
<!-- Node19&#45;&gt;Node7 -->
<g id="edge33" class="edge">
<title>Node19&#45;&gt;Node7</title>
<path fill="none" stroke="#191970" d="M526.4586,-168.2455C515.7213,-159.8943 500.0527,-147.7076 487.4953,-137.9408"/>
<polygon fill="#191970" stroke="#191970" points="489.4401,-135.0194 479.3977,-131.6427 485.1425,-140.5449 489.4401,-135.0194"/>
</g>
<!-- Node19&#45;&gt;Node9 -->
<g id="edge31" class="edge">
<title>Node19&#45;&gt;Node9</title>
<path fill="none" stroke="#191970" d="M538.4774,-168.2455C538.086,-160.9382 537.5372,-150.6944 537.0556,-141.7046"/>
<polygon fill="#191970" stroke="#191970" points="540.5466,-141.4411 536.5166,-131.6427 533.5566,-141.8156 540.5466,-141.4411"/>
</g>
<!-- Node20 -->
<g id="node21" class="node">
<title>Node20</title>
<polygon fill="none" stroke="#bfbfbf" points="618.5,-112.5 618.5,-131.5 647.5,-131.5 647.5,-112.5 618.5,-112.5"/>
<text text-anchor="middle" x="633" y="-119.5" font-family="Helvetica,sans-Serif" font-size="10.00" fill="#000000">ios</text>
</g>
<!-- Node19&#45;&gt;Node20 -->
<g id="edge32" class="edge">
<title>Node19&#45;&gt;Node20</title>
<path fill="none" stroke="#191970" d="M555.3736,-168.2455C570.3746,-159.3087 592.7484,-145.9797 609.6275,-135.9241"/>
<polygon fill="#191970" stroke="#191970" points="611.558,-138.8481 618.3577,-130.7231 607.9753,-132.8343 611.558,-138.8481"/>
</g>
<!-- Node21 -->
<g id="node22" class="node">
<title>Node21</title>
<polygon fill="none" stroke="#bfbfbf" points="666,-112.5 666,-131.5 710,-131.5 710,-112.5 666,-112.5"/>
<text text-anchor="middle" x="688" y="-119.5" font-family="Helvetica,sans-Serif" font-size="10.00" fill="#000000">mutex</text>
</g>
<!-- Node19&#45;&gt;Node21 -->
<g id="edge34" class="edge">
<title>Node19&#45;&gt;Node21</title>
<path fill="none" stroke="#191970" d="M560.6659,-169.8571C585.7914,-160.414 627.4353,-144.7626 656.2231,-133.943"/>
<polygon fill="#191970" stroke="#191970" points="657.6921,-137.13 665.8214,-130.3356 655.2294,-130.5775 657.6921,-137.13"/>
</g>
</g>
</svg>
