<?xml version="1.0" encoding="UTF-8" standalone="no"?>
<!DOCTYPE svg PUBLIC "-//W3C//DTD SVG 1.1//EN"
 "http://www.w3.org/Graphics/SVG/1.1/DTD/svg11.dtd">
<!-- Generated by graphviz version 2.36.0 (20140111.2315)
 -->
<!-- Title: /home/travis/build/igankevich/arma/src/velocity/high_amplitude_realtime_solver.cc Pages: 1 -->
<svg width="893pt" height="466pt"
 viewBox="0.00 0.00 893.00 466.00" xmlns="http://www.w3.org/2000/svg" xmlns:xlink="http://www.w3.org/1999/xlink">
<g id="graph0" class="graph" transform="scale(1 1) rotate(0) translate(4 462)">
<title>/home/travis/build/igankevich/arma/src/velocity/high_amplitude_realtime_solver.cc</title>
<!-- Node1 -->
<g id="node1" class="node"><title>Node1</title>
<polygon fill="#bfbfbf" stroke="black" points="486,-405 486,-457 608,-457 608,-405 486,-405"/>
<text text-anchor="start" x="494" y="-445" font-family="Helvetica,sans-Serif" font-size="10.00">/home/travis/build</text>
<text text-anchor="start" x="494" y="-434" font-family="Helvetica,sans-Serif" font-size="10.00">/igankevich/arma/src</text>
<text text-anchor="start" x="494" y="-423" font-family="Helvetica,sans-Serif" font-size="10.00">/velocity/high_amplitude</text>
<text text-anchor="middle" x="547" y="-412" font-family="Helvetica,sans-Serif" font-size="10.00">_realtime_solver.cc</text>
</g>
<!-- Node2 -->
<g id="node2" class="node"><title>Node2</title>
<g id="a_node2"><a xlink:href="high__amplitude__realtime__solver_8hh.html" target="_top" xlink:title="high_amplitude_realtime\l_solver.hh">
<polygon fill="none" stroke="black" points="312,-337 312,-367 434,-367 434,-337 312,-337"/>
<text text-anchor="start" x="320" y="-355" font-family="Helvetica,sans-Serif" font-size="10.00">high_amplitude_realtime</text>
<text text-anchor="middle" x="373" y="-344" font-family="Helvetica,sans-Serif" font-size="10.00">_solver.hh</text>
</a>
</g>
</g>
<!-- Node1&#45;&gt;Node2 -->
<g id="edge1" class="edge"><title>Node1&#45;&gt;Node2</title>
<path fill="none" stroke="midnightblue" d="M490.026,-404.787C465.223,-393.811 436.709,-381.193 414.037,-371.16"/>
<polygon fill="midnightblue" stroke="midnightblue" points="415.267,-367.877 404.706,-367.031 412.434,-374.278 415.267,-367.877"/>
</g>
<!-- Node12 -->
<g id="node12" class="node"><title>Node12</title>
<polygon fill="none" stroke="#bfbfbf" points="154.5,-56.5 154.5,-75.5 213.5,-75.5 213.5,-56.5 154.5,-56.5"/>
<text text-anchor="middle" x="184" y="-63.5" font-family="Helvetica,sans-Serif" font-size="10.00">stdexcept</text>
</g>
<!-- Node1&#45;&gt;Node12 -->
<g id="edge38" class="edge"><title>Node1&#45;&gt;Node12</title>
<path fill="none" stroke="midnightblue" d="M485.929,-421.987C372.788,-405.422 142,-362.829 142,-291 142,-291 142,-291 142,-177 142,-142.412 160.348,-105.492 172.79,-84.4322"/>
<polygon fill="midnightblue" stroke="midnightblue" points="175.907,-86.0448 178.16,-75.6923 169.943,-82.38 175.907,-86.0448"/>
</g>
<!-- Node17 -->
<g id="node17" class="node"><title>Node17</title>
<g id="a_node17"><a xlink:href="profile_8hh.html" target="_top" xlink:title="profile.hh">
<polygon fill="none" stroke="black" points="547,-342.5 547,-361.5 603,-361.5 603,-342.5 547,-342.5"/>
<text text-anchor="middle" x="575" y="-349.5" font-family="Helvetica,sans-Serif" font-size="10.00">profile.hh</text>
</a>
</g>
</g>
<!-- Node1&#45;&gt;Node17 -->
<g id="edge25" class="edge"><title>Node1&#45;&gt;Node17</title>
<path fill="none" stroke="midnightblue" d="M556.168,-404.787C560.151,-393.836 564.727,-381.25 568.372,-371.228"/>
<polygon fill="midnightblue" stroke="midnightblue" points="571.76,-372.152 571.888,-361.558 565.181,-369.76 571.76,-372.152"/>
</g>
<!-- Node18 -->
<g id="node18" class="node"><title>Node18</title>
<g id="a_node18"><a xlink:href="derivative_8hh.html" target="_top" xlink:title="derivative.hh">
<polygon fill="none" stroke="black" points="439,-224.5 439,-243.5 511,-243.5 511,-224.5 439,-224.5"/>
<text text-anchor="middle" x="475" y="-231.5" font-family="Helvetica,sans-Serif" font-size="10.00">derivative.hh</text>
</a>
</g>
</g>
<!-- Node1&#45;&gt;Node18 -->
<g id="edge26" class="edge"><title>Node1&#45;&gt;Node18</title>
<path fill="none" stroke="midnightblue" d="M526.712,-404.713C518.926,-393.933 510.579,-380.885 505,-368 488.286,-329.4 480.321,-280.303 477.012,-253.881"/>
<polygon fill="midnightblue" stroke="midnightblue" points="480.465,-253.278 475.836,-243.748 473.512,-254.085 480.465,-253.278"/>
</g>
<!-- Node19 -->
<g id="node19" class="node"><title>Node19</title>
<g id="a_node19"><a xlink:href="physical__constants_8hh.html" target="_top" xlink:title="physical_constants.hh">
<polygon fill="none" stroke="black" points="0,-280.5 0,-299.5 114,-299.5 114,-280.5 0,-280.5"/>
<text text-anchor="middle" x="57" y="-287.5" font-family="Helvetica,sans-Serif" font-size="10.00">physical_constants.hh</text>
</a>
</g>
</g>
<!-- Node1&#45;&gt;Node19 -->
<g id="edge28" class="edge"><title>Node1&#45;&gt;Node19</title>
<path fill="none" stroke="midnightblue" d="M485.742,-425.95C384.86,-418.457 188.862,-400.183 128,-368 101.718,-354.102 80.0461,-326.548 67.8161,-308.451"/>
<polygon fill="midnightblue" stroke="midnightblue" points="70.6901,-306.45 62.3069,-299.971 64.8202,-310.264 70.6901,-306.45"/>
</g>
<!-- Node20 -->
<g id="node20" class="node"><title>Node20</title>
<g id="a_node20"><a xlink:href="util_8hh.html" target="_top" xlink:title="util.hh">
<polygon fill="none" stroke="black" points="517.5,-168.5 517.5,-187.5 560.5,-187.5 560.5,-168.5 517.5,-168.5"/>
<text text-anchor="middle" x="539" y="-175.5" font-family="Helvetica,sans-Serif" font-size="10.00">util.hh</text>
</a>
</g>
</g>
<!-- Node1&#45;&gt;Node20 -->
<g id="edge30" class="edge"><title>Node1&#45;&gt;Node20</title>
<path fill="none" stroke="midnightblue" d="M542.493,-404.751C540.71,-393.536 538.877,-380.15 538,-368 533.519,-305.935 536.226,-232.108 537.93,-198.004"/>
<polygon fill="midnightblue" stroke="midnightblue" points="541.443,-197.853 538.478,-187.682 534.453,-197.482 541.443,-197.853"/>
</g>
<!-- Node23 -->
<g id="node23" class="node"><title>Node23</title>
<polygon fill="none" stroke="#bfbfbf" points="621,-342.5 621,-361.5 665,-361.5 665,-342.5 621,-342.5"/>
<text text-anchor="middle" x="643" y="-349.5" font-family="Helvetica,sans-Serif" font-size="10.00">vector</text>
</g>
<!-- Node1&#45;&gt;Node23 -->
<g id="edge35" class="edge"><title>Node1&#45;&gt;Node23</title>
<path fill="none" stroke="midnightblue" d="M578.434,-404.787C593.685,-392.554 611.48,-378.282 624.521,-367.821"/>
<polygon fill="midnightblue" stroke="midnightblue" points="626.72,-370.545 632.331,-361.558 622.34,-365.084 626.72,-370.545"/>
</g>
<!-- Node24 -->
<g id="node24" class="node"><title>Node24</title>
<polygon fill="none" stroke="#bfbfbf" points="683.5,-342.5 683.5,-361.5 736.5,-361.5 736.5,-342.5 683.5,-342.5"/>
<text text-anchor="middle" x="710" y="-349.5" font-family="Helvetica,sans-Serif" font-size="10.00">complex</text>
</g>
<!-- Node1&#45;&gt;Node24 -->
<g id="edge36" class="edge"><title>Node1&#45;&gt;Node24</title>
<path fill="none" stroke="midnightblue" d="M600.372,-404.787C627.871,-391.797 660.239,-376.507 682.642,-365.924"/>
<polygon fill="midnightblue" stroke="midnightblue" points="684.337,-368.994 691.884,-361.558 681.347,-362.664 684.337,-368.994"/>
</g>
<!-- Node25 -->
<g id="node25" class="node"><title>Node25</title>
<polygon fill="none" stroke="#bfbfbf" points="755,-342.5 755,-361.5 817,-361.5 817,-342.5 755,-342.5"/>
<text text-anchor="middle" x="786" y="-349.5" font-family="Helvetica,sans-Serif" font-size="10.00">type_traits</text>
</g>
<!-- Node1&#45;&gt;Node25 -->
<g id="edge37" class="edge"><title>Node1&#45;&gt;Node25</title>
<path fill="none" stroke="midnightblue" d="M608.341,-411.61C647.573,-399.647 699.462,-383.45 745,-368 747.759,-367.064 750.614,-366.071 753.473,-365.059"/>
<polygon fill="midnightblue" stroke="midnightblue" points="754.858,-368.28 763.082,-361.601 752.488,-361.694 754.858,-368.28"/>
</g>
<!-- Node26 -->
<g id="node26" class="node"><title>Node26</title>
<polygon fill="none" stroke="#bfbfbf" points="835,-342.5 835,-361.5 885,-361.5 885,-342.5 835,-342.5"/>
<text text-anchor="middle" x="860" y="-349.5" font-family="Helvetica,sans-Serif" font-size="10.00">fstream</text>
</g>
<!-- Node1&#45;&gt;Node26 -->
<g id="edge39" class="edge"><title>Node1&#45;&gt;Node26</title>
<path fill="none" stroke="midnightblue" d="M608.06,-419.755C664.973,-409.417 751.822,-391.615 825,-368 827.422,-367.218 829.907,-366.333 832.382,-365.392"/>
<polygon fill="midnightblue" stroke="midnightblue" points="833.774,-368.604 841.717,-361.593 831.135,-362.12 833.774,-368.604"/>
</g>
<!-- Node3 -->
<g id="node3" class="node"><title>Node3</title>
<g id="a_node3"><a xlink:href="basic__solver_8hh.html" target="_top" xlink:title="basic_solver.hh">
<polygon fill="none" stroke="black" points="330.5,-280.5 330.5,-299.5 415.5,-299.5 415.5,-280.5 330.5,-280.5"/>
<text text-anchor="middle" x="373" y="-287.5" font-family="Helvetica,sans-Serif" font-size="10.00">basic_solver.hh</text>
</a>
</g>
</g>
<!-- Node2&#45;&gt;Node3 -->
<g id="edge2" class="edge"><title>Node2&#45;&gt;Node3</title>
<path fill="none" stroke="midnightblue" d="M373,-336.781C373,-328.781 373,-318.689 373,-310.017"/>
<polygon fill="midnightblue" stroke="midnightblue" points="376.5,-309.73 373,-299.731 369.5,-309.731 376.5,-309.73"/>
</g>
<!-- Node16 -->
<g id="node16" class="node"><title>Node16</title>
<g id="a_node16"><a xlink:href="grid_8hh.html" target="_top" xlink:title="grid.hh">
<polygon fill="none" stroke="black" points="220,-168.5 220,-187.5 266,-187.5 266,-168.5 220,-168.5"/>
<text text-anchor="middle" x="243" y="-175.5" font-family="Helvetica,sans-Serif" font-size="10.00">grid.hh</text>
</a>
</g>
</g>
<!-- Node2&#45;&gt;Node16 -->
<g id="edge24" class="edge"><title>Node2&#45;&gt;Node16</title>
<path fill="none" stroke="midnightblue" d="M340.141,-336.965C305.974,-320.357 254.411,-289.14 232,-244 224.7,-229.296 229.034,-210.663 234.256,-197.121"/>
<polygon fill="midnightblue" stroke="midnightblue" points="237.484,-198.473 238.245,-187.906 231.06,-195.693 237.484,-198.473"/>
</g>
<!-- Node4 -->
<g id="node4" class="node"><title>Node4</title>
<g id="a_node4"><a xlink:href="types_8hh.html" target="_top" xlink:title="types.hh">
<polygon fill="none" stroke="black" points="437,-168.5 437,-187.5 491,-187.5 491,-168.5 437,-168.5"/>
<text text-anchor="middle" x="464" y="-175.5" font-family="Helvetica,sans-Serif" font-size="10.00">types.hh</text>
</a>
</g>
</g>
<!-- Node3&#45;&gt;Node4 -->
<g id="edge3" class="edge"><title>Node3&#45;&gt;Node4</title>
<path fill="none" stroke="midnightblue" d="M380.141,-280.368C395.291,-262.055 430.869,-219.049 450.464,-195.362"/>
<polygon fill="midnightblue" stroke="midnightblue" points="453.215,-197.528 456.893,-187.591 447.821,-193.066 453.215,-197.528"/>
</g>
<!-- Node6 -->
<g id="node6" class="node"><title>Node6</title>
<g id="a_node6"><a xlink:href="domain_8hh.html" target="_top" xlink:title="domain.hh">
<polygon fill="none" stroke="black" points="345,-168.5 345,-187.5 407,-187.5 407,-168.5 345,-168.5"/>
<text text-anchor="middle" x="376" y="-175.5" font-family="Helvetica,sans-Serif" font-size="10.00">domain.hh</text>
</a>
</g>
</g>
<!-- Node3&#45;&gt;Node6 -->
<g id="edge5" class="edge"><title>Node3&#45;&gt;Node6</title>
<path fill="none" stroke="midnightblue" d="M373.235,-280.368C373.72,-262.617 374.836,-221.666 375.493,-197.597"/>
<polygon fill="midnightblue" stroke="midnightblue" points="378.992,-197.683 375.766,-187.591 371.994,-197.492 378.992,-197.683"/>
</g>
<!-- Node15 -->
<g id="node15" class="node"><title>Node15</title>
<g id="a_node15"><a xlink:href="discrete__function_8hh.html" target="_top" xlink:title="discrete_function.hh">
<polygon fill="none" stroke="black" points="241,-224.5 241,-243.5 345,-243.5 345,-224.5 241,-224.5"/>
<text text-anchor="middle" x="293" y="-231.5" font-family="Helvetica,sans-Serif" font-size="10.00">discrete_function.hh</text>
</a>
</g>
</g>
<!-- Node3&#45;&gt;Node15 -->
<g id="edge17" class="edge"><title>Node3&#45;&gt;Node15</title>
<path fill="none" stroke="midnightblue" d="M360.147,-280.324C347.784,-271.979 328.87,-259.212 314.263,-249.352"/>
<polygon fill="midnightblue" stroke="midnightblue" points="316.068,-246.348 305.821,-243.655 312.152,-252.15 316.068,-246.348"/>
</g>
<!-- Node5 -->
<g id="node5" class="node"><title>Node5</title>
<polygon fill="none" stroke="#bfbfbf" points="387,-0.5 387,-19.5 455,-19.5 455,-0.5 387,-0.5"/>
<text text-anchor="middle" x="421" y="-7.5" font-family="Helvetica,sans-Serif" font-size="10.00">blitz/array.h</text>
</g>
<!-- Node4&#45;&gt;Node5 -->
<g id="edge4" class="edge"><title>Node4&#45;&gt;Node5</title>
<path fill="none" stroke="midnightblue" d="M491.202,-169.313C519.756,-160.629 561.773,-145.891 571,-132 575.918,-124.596 575.176,-119.847 571,-112 546.934,-66.7818 492.613,-38.1757 456.379,-23.3745"/>
<polygon fill="midnightblue" stroke="midnightblue" points="457.266,-19.9627 446.679,-19.5635 454.707,-26.4779 457.266,-19.9627"/>
</g>
<!-- Node6&#45;&gt;Node5 -->
<g id="edge10" class="edge"><title>Node6&#45;&gt;Node5</title>
<path fill="none" stroke="midnightblue" d="M378.814,-168.412C381.739,-159.385 386.385,-144.752 390,-132 400.262,-95.7979 410.855,-53.0814 416.615,-29.3138"/>
<polygon fill="midnightblue" stroke="midnightblue" points="420.028,-30.0901 418.968,-19.5485 413.223,-28.4504 420.028,-30.0901"/>
</g>
<!-- Node7 -->
<g id="node7" class="node"><title>Node7</title>
<polygon fill="none" stroke="#bfbfbf" points="166,-0.5 166,-19.5 210,-19.5 210,-0.5 166,-0.5"/>
<text text-anchor="middle" x="188" y="-7.5" font-family="Helvetica,sans-Serif" font-size="10.00">cmath</text>
</g>
<!-- Node6&#45;&gt;Node7 -->
<g id="edge6" class="edge"><title>Node6&#45;&gt;Node7</title>
<path fill="none" stroke="midnightblue" d="M375.272,-168.088C373.765,-154.637 369.243,-128.923 356,-112 336.543,-87.1357 257.036,-45.2566 214.748,-24.0889"/>
<polygon fill="midnightblue" stroke="midnightblue" points="216.102,-20.8535 205.589,-19.5372 212.987,-27.122 216.102,-20.8535"/>
</g>
<!-- Node8 -->
<g id="node8" class="node"><title>Node8</title>
<polygon fill="none" stroke="#bfbfbf" points="442,-112.5 442,-131.5 492,-131.5 492,-112.5 442,-112.5"/>
<text text-anchor="middle" x="467" y="-119.5" font-family="Helvetica,sans-Serif" font-size="10.00">iomanip</text>
</g>
<!-- Node6&#45;&gt;Node8 -->
<g id="edge7" class="edge"><title>Node6&#45;&gt;Node8</title>
<path fill="none" stroke="midnightblue" d="M390.621,-168.324C404.949,-159.822 427.013,-146.729 443.749,-136.797"/>
<polygon fill="midnightblue" stroke="midnightblue" points="445.602,-139.768 452.416,-131.655 442.03,-133.748 445.602,-139.768"/>
</g>
<!-- Node9 -->
<g id="node9" class="node"><title>Node9</title>
<polygon fill="none" stroke="#bfbfbf" points="298.5,-112.5 298.5,-131.5 347.5,-131.5 347.5,-112.5 298.5,-112.5"/>
<text text-anchor="middle" x="323" y="-119.5" font-family="Helvetica,sans-Serif" font-size="10.00">istream</text>
</g>
<!-- Node6&#45;&gt;Node9 -->
<g id="edge8" class="edge"><title>Node6&#45;&gt;Node9</title>
<path fill="none" stroke="midnightblue" d="M367.248,-168.083C359.53,-160.22 348.095,-148.569 338.783,-139.081"/>
<polygon fill="midnightblue" stroke="midnightblue" points="341.092,-136.436 331.589,-131.751 336.096,-141.34 341.092,-136.436"/>
</g>
<!-- Node10 -->
<g id="node10" class="node"><title>Node10</title>
<polygon fill="none" stroke="#bfbfbf" points="510,-112.5 510,-131.5 562,-131.5 562,-112.5 510,-112.5"/>
<text text-anchor="middle" x="536" y="-119.5" font-family="Helvetica,sans-Serif" font-size="10.00">ostream</text>
</g>
<!-- Node6&#45;&gt;Node10 -->
<g id="edge9" class="edge"><title>Node6&#45;&gt;Node10</title>
<path fill="none" stroke="midnightblue" d="M401.352,-168.444C428.269,-159.359 470.996,-144.939 501.087,-134.783"/>
<polygon fill="midnightblue" stroke="midnightblue" points="502.41,-138.031 510.766,-131.516 500.172,-131.398 502.41,-138.031"/>
</g>
<!-- Node11 -->
<g id="node11" class="node"><title>Node11</title>
<g id="a_node11"><a xlink:href="validators_8hh.html" target="_top" xlink:title="validators.hh">
<polygon fill="none" stroke="black" points="170,-112.5 170,-131.5 242,-131.5 242,-112.5 170,-112.5"/>
<text text-anchor="middle" x="206" y="-119.5" font-family="Helvetica,sans-Serif" font-size="10.00">validators.hh</text>
</a>
</g>
</g>
<!-- Node6&#45;&gt;Node11 -->
<g id="edge11" class="edge"><title>Node6&#45;&gt;Node11</title>
<path fill="none" stroke="midnightblue" d="M349.063,-168.444C320.34,-159.32 274.671,-144.813 242.679,-134.651"/>
<polygon fill="midnightblue" stroke="midnightblue" points="243.401,-131.208 232.811,-131.516 241.282,-137.88 243.401,-131.208"/>
</g>
<!-- Node11&#45;&gt;Node12 -->
<g id="edge12" class="edge"><title>Node11&#45;&gt;Node12</title>
<path fill="none" stroke="midnightblue" d="M202.367,-112.083C199.388,-104.77 195.074,-94.1814 191.375,-85.1034"/>
<polygon fill="midnightblue" stroke="midnightblue" points="194.58,-83.6914 187.565,-75.7511 188.097,-86.3326 194.58,-83.6914"/>
</g>
<!-- Node13 -->
<g id="node13" class="node"><title>Node13</title>
<g id="a_node13"><a xlink:href="blitz_8hh.html" target="_top" xlink:title="blitz.hh">
<polygon fill="none" stroke="black" points="324,-56.5 324,-75.5 372,-75.5 372,-56.5 324,-56.5"/>
<text text-anchor="middle" x="348" y="-63.5" font-family="Helvetica,sans-Serif" font-size="10.00">blitz.hh</text>
</a>
</g>
</g>
<!-- Node11&#45;&gt;Node13 -->
<g id="edge13" class="edge"><title>Node11&#45;&gt;Node13</title>
<path fill="none" stroke="midnightblue" d="M228.5,-112.444C252.077,-103.478 289.322,-89.314 315.964,-79.1827"/>
<polygon fill="midnightblue" stroke="midnightblue" points="317.502,-82.3424 325.605,-75.5164 315.014,-75.7995 317.502,-82.3424"/>
</g>
<!-- Node13&#45;&gt;Node5 -->
<g id="edge15" class="edge"><title>Node13&#45;&gt;Node5</title>
<path fill="none" stroke="midnightblue" d="M359.729,-56.324C370.837,-48.1066 387.742,-35.6017 400.983,-25.8069"/>
<polygon fill="midnightblue" stroke="midnightblue" points="403.1,-28.5948 409.058,-19.8339 398.937,-22.9671 403.1,-28.5948"/>
</g>
<!-- Node13&#45;&gt;Node7 -->
<g id="edge16" class="edge"><title>Node13&#45;&gt;Node7</title>
<path fill="none" stroke="midnightblue" d="M323.699,-56.7986C295.974,-47.4412 250.529,-32.1037 219.955,-21.7849"/>
<polygon fill="midnightblue" stroke="midnightblue" points="220.798,-18.3755 210.204,-18.4938 218.56,-25.0079 220.798,-18.3755"/>
</g>
<!-- Node14 -->
<g id="node14" class="node"><title>Node14</title>
<polygon fill="none" stroke="#bfbfbf" points="313,-0.5 313,-19.5 369,-19.5 369,-0.5 313,-0.5"/>
<text text-anchor="middle" x="341" y="-7.5" font-family="Helvetica,sans-Serif" font-size="10.00">algorithm</text>
</g>
<!-- Node13&#45;&gt;Node14 -->
<g id="edge14" class="edge"><title>Node13&#45;&gt;Node14</title>
<path fill="none" stroke="midnightblue" d="M346.844,-56.083C345.916,-48.9272 344.582,-38.6353 343.423,-29.6911"/>
<polygon fill="midnightblue" stroke="midnightblue" points="346.891,-29.2181 342.134,-19.7511 339.949,-30.1181 346.891,-29.2181"/>
</g>
<!-- Node15&#45;&gt;Node4 -->
<g id="edge23" class="edge"><title>Node15&#45;&gt;Node4</title>
<path fill="none" stroke="midnightblue" d="M320.095,-224.444C348.988,-215.32 394.925,-200.813 427.105,-190.651"/>
<polygon fill="midnightblue" stroke="midnightblue" points="428.549,-193.865 437.031,-187.516 426.441,-187.19 428.549,-193.865"/>
</g>
<!-- Node15&#45;&gt;Node16 -->
<g id="edge18" class="edge"><title>Node15&#45;&gt;Node16</title>
<path fill="none" stroke="midnightblue" d="M284.744,-224.083C277.535,-216.298 266.89,-204.801 258.154,-195.367"/>
<polygon fill="midnightblue" stroke="midnightblue" points="260.465,-192.711 251.103,-187.751 255.329,-197.467 260.465,-192.711"/>
</g>
<!-- Node16&#45;&gt;Node7 -->
<g id="edge19" class="edge"><title>Node16&#45;&gt;Node7</title>
<path fill="none" stroke="midnightblue" d="M219.91,-169.899C201.396,-163.053 176.093,-150.911 161,-132 139.468,-105.021 132.154,-88.0387 145,-56 149.68,-44.328 158.991,-33.9687 167.756,-26.1405"/>
<polygon fill="midnightblue" stroke="midnightblue" points="170.052,-28.7832 175.503,-19.698 165.576,-23.4011 170.052,-28.7832"/>
</g>
<!-- Node16&#45;&gt;Node9 -->
<g id="edge20" class="edge"><title>Node16&#45;&gt;Node9</title>
<path fill="none" stroke="midnightblue" d="M255.853,-168.324C268.216,-159.979 287.13,-147.212 301.737,-137.352"/>
<polygon fill="midnightblue" stroke="midnightblue" points="303.848,-140.15 310.179,-131.655 299.932,-134.348 303.848,-140.15"/>
</g>
<!-- Node16&#45;&gt;Node11 -->
<g id="edge22" class="edge"><title>Node16&#45;&gt;Node11</title>
<path fill="none" stroke="midnightblue" d="M236.89,-168.083C231.718,-160.534 224.154,-149.495 217.806,-140.23"/>
<polygon fill="midnightblue" stroke="midnightblue" points="220.536,-138.022 211.996,-131.751 214.761,-141.979 220.536,-138.022"/>
</g>
<!-- Node16&#45;&gt;Node13 -->
<g id="edge21" class="edge"><title>Node16&#45;&gt;Node13</title>
<path fill="none" stroke="midnightblue" d="M247.929,-168.385C255.65,-155.321 271.529,-130.106 289,-112 300.12,-100.476 314.353,-89.5326 326.053,-81.3236"/>
<polygon fill="midnightblue" stroke="midnightblue" points="328.129,-84.1445 334.413,-75.6148 324.181,-78.3637 328.129,-84.1445"/>
</g>
<!-- Node18&#45;&gt;Node4 -->
<g id="edge27" class="edge"><title>Node18&#45;&gt;Node4</title>
<path fill="none" stroke="midnightblue" d="M473.184,-224.083C471.726,-216.927 469.629,-206.635 467.807,-197.691"/>
<polygon fill="midnightblue" stroke="midnightblue" points="471.208,-196.851 465.783,-187.751 464.349,-198.248 471.208,-196.851"/>
</g>
<!-- Node19&#45;&gt;Node7 -->
<g id="edge29" class="edge"><title>Node19&#45;&gt;Node7</title>
<path fill="none" stroke="midnightblue" d="M57.6537,-280.448C59.009,-261.954 62,-216.852 62,-179 62,-179 62,-179 62,-121 62,-71.0196 118.957,-38.5223 156.282,-22.5922"/>
<polygon fill="midnightblue" stroke="midnightblue" points="157.831,-25.7404 165.764,-18.7177 155.183,-19.2606 157.831,-25.7404"/>
</g>
<!-- Node20&#45;&gt;Node8 -->
<g id="edge33" class="edge"><title>Node20&#45;&gt;Node8</title>
<path fill="none" stroke="midnightblue" d="M527.432,-168.324C516.58,-160.185 500.119,-147.839 487.117,-138.087"/>
<polygon fill="midnightblue" stroke="midnightblue" points="488.879,-135.034 478.779,-131.834 484.679,-140.634 488.879,-135.034"/>
</g>
<!-- Node20&#45;&gt;Node10 -->
<g id="edge31" class="edge"><title>Node20&#45;&gt;Node10</title>
<path fill="none" stroke="midnightblue" d="M538.505,-168.083C538.111,-161.006 537.548,-150.861 537.055,-141.986"/>
<polygon fill="midnightblue" stroke="midnightblue" points="540.536,-141.542 536.486,-131.751 533.546,-141.93 540.536,-141.542"/>
</g>
<!-- Node21 -->
<g id="node21" class="node"><title>Node21</title>
<polygon fill="none" stroke="#bfbfbf" points="618.5,-112.5 618.5,-131.5 647.5,-131.5 647.5,-112.5 618.5,-112.5"/>
<text text-anchor="middle" x="633" y="-119.5" font-family="Helvetica,sans-Serif" font-size="10.00">ios</text>
</g>
<!-- Node20&#45;&gt;Node21 -->
<g id="edge32" class="edge"><title>Node20&#45;&gt;Node21</title>
<path fill="none" stroke="midnightblue" d="M554.103,-168.324C568.991,-159.771 591.964,-146.574 609.288,-136.622"/>
<polygon fill="midnightblue" stroke="midnightblue" points="611.317,-139.493 618.245,-131.476 607.83,-133.423 611.317,-139.493"/>
</g>
<!-- Node22 -->
<g id="node22" class="node"><title>Node22</title>
<polygon fill="none" stroke="#bfbfbf" points="665,-112.5 665,-131.5 709,-131.5 709,-112.5 665,-112.5"/>
<text text-anchor="middle" x="687" y="-119.5" font-family="Helvetica,sans-Serif" font-size="10.00">mutex</text>
</g>
<!-- Node20&#45;&gt;Node22 -->
<g id="edge34" class="edge"><title>Node20&#45;&gt;Node22</title>
<path fill="none" stroke="midnightblue" d="M560.52,-169.148C585.477,-160.042 626.842,-144.95 655.436,-134.516"/>
<polygon fill="midnightblue" stroke="midnightblue" points="656.776,-137.754 664.97,-131.038 654.376,-131.178 656.776,-137.754"/>
</g>
</g>
</svg>
