<?xml version="1.0" encoding="UTF-8" standalone="no"?>
<!DOCTYPE svg PUBLIC "-//W3C//DTD SVG 1.1//EN"
 "http://www.w3.org/Graphics/SVG/1.1/DTD/svg11.dtd">
<!-- Generated by graphviz version 2.36.0 (20140111.2315)
 -->
<!-- Title: /home/travis/build/igankevich/arma/src/velocity/high_amplitude_solver.hh Pages: 1 -->
<svg width="932pt" height="466pt"
 viewBox="0.00 0.00 932.00 466.00" xmlns="http://www.w3.org/2000/svg" xmlns:xlink="http://www.w3.org/1999/xlink">
<g id="graph0" class="graph" transform="scale(1 1) rotate(0) translate(4 462)">
<title>/home/travis/build/igankevich/arma/src/velocity/high_amplitude_solver.hh</title>
<!-- Node1 -->
<g id="node1" class="node"><title>Node1</title>
<polygon fill="#bfbfbf" stroke="black" points="412,-405 412,-457 534,-457 534,-405 412,-405"/>
<text text-anchor="start" x="420" y="-445" font-family="Helvetica,sans-Serif" font-size="10.00">/home/travis/build</text>
<text text-anchor="start" x="420" y="-434" font-family="Helvetica,sans-Serif" font-size="10.00">/igankevich/arma/src</text>
<text text-anchor="start" x="420" y="-423" font-family="Helvetica,sans-Serif" font-size="10.00">/velocity/high_amplitude</text>
<text text-anchor="middle" x="473" y="-412" font-family="Helvetica,sans-Serif" font-size="10.00">_solver.hh</text>
</g>
<!-- Node2 -->
<g id="node2" class="node"><title>Node2</title>
<g id="a_node2"><a xlink:href="types_8hh.html" target="_top" xlink:title="types.hh">
<polygon fill="none" stroke="black" points="397,-180.5 397,-199.5 451,-199.5 451,-180.5 397,-180.5"/>
<text text-anchor="middle" x="424" y="-187.5" font-family="Helvetica,sans-Serif" font-size="10.00">types.hh</text>
</a>
</g>
</g>
<!-- Node1&#45;&gt;Node2 -->
<g id="edge1" class="edge"><title>Node1&#45;&gt;Node2</title>
<path fill="none" stroke="midnightblue" d="M484.396,-404.946C500.212,-366.167 523.707,-290.414 494,-236 486.181,-221.679 471.638,-211.236 457.824,-204.036"/>
<polygon fill="midnightblue" stroke="midnightblue" points="459.001,-200.719 448.469,-199.562 455.981,-207.034 459.001,-200.719"/>
</g>
<!-- Node4 -->
<g id="node4" class="node"><title>Node4</title>
<g id="a_node4"><a xlink:href="linear__solver_8hh.html" target="_top" xlink:title="linear_solver.hh">
<polygon fill="none" stroke="black" points="299.5,-348.5 299.5,-367.5 384.5,-367.5 384.5,-348.5 299.5,-348.5"/>
<text text-anchor="middle" x="342" y="-355.5" font-family="Helvetica,sans-Serif" font-size="10.00">linear_solver.hh</text>
</a>
</g>
</g>
<!-- Node1&#45;&gt;Node4 -->
<g id="edge3" class="edge"><title>Node1&#45;&gt;Node4</title>
<path fill="none" stroke="midnightblue" d="M426.814,-404.968C406.74,-394.088 384.007,-381.767 367.133,-372.622"/>
<polygon fill="midnightblue" stroke="midnightblue" points="368.399,-369.327 357.939,-367.639 365.063,-375.481 368.399,-369.327"/>
</g>
<!-- Node3 -->
<g id="node3" class="node"><title>Node3</title>
<polygon fill="none" stroke="#bfbfbf" points="545,-0.5 545,-19.5 613,-19.5 613,-0.5 545,-0.5"/>
<text text-anchor="middle" x="579" y="-7.5" font-family="Helvetica,sans-Serif" font-size="10.00">blitz/array.h</text>
</g>
<!-- Node2&#45;&gt;Node3 -->
<g id="edge2" class="edge"><title>Node2&#45;&gt;Node3</title>
<path fill="none" stroke="midnightblue" d="M421.284,-180.261C417.16,-165.257 410.992,-134.08 423,-112 448.046,-65.9472 504.141,-37.667 541.782,-23.1507"/>
<polygon fill="midnightblue" stroke="midnightblue" points="543.237,-26.3443 551.396,-19.5859 540.803,-19.781 543.237,-26.3443"/>
</g>
<!-- Node5 -->
<g id="node5" class="node"><title>Node5</title>
<polygon fill="none" stroke="#bfbfbf" points="-0.5,-180.5 -0.5,-199.5 52.5,-199.5 52.5,-180.5 -0.5,-180.5"/>
<text text-anchor="middle" x="26" y="-187.5" font-family="Helvetica,sans-Serif" font-size="10.00">complex</text>
</g>
<!-- Node4&#45;&gt;Node5 -->
<g id="edge4" class="edge"><title>Node4&#45;&gt;Node5</title>
<path fill="none" stroke="midnightblue" d="M324.124,-348.384C305.708,-339.455 276.217,-325.011 251,-312 177.472,-274.063 91.6295,-227.165 50.4621,-204.51"/>
<polygon fill="midnightblue" stroke="midnightblue" points="51.8995,-201.305 41.4518,-199.545 48.5215,-207.437 51.8995,-201.305"/>
</g>
<!-- Node6 -->
<g id="node6" class="node"><title>Node6</title>
<g id="a_node6"><a xlink:href="basic__solver_8hh.html" target="_top" xlink:title="basic_solver.hh">
<polygon fill="none" stroke="black" points="353.5,-292.5 353.5,-311.5 438.5,-311.5 438.5,-292.5 353.5,-292.5"/>
<text text-anchor="middle" x="396" y="-299.5" font-family="Helvetica,sans-Serif" font-size="10.00">basic_solver.hh</text>
</a>
</g>
</g>
<!-- Node4&#45;&gt;Node6 -->
<g id="edge5" class="edge"><title>Node4&#45;&gt;Node6</title>
<path fill="none" stroke="midnightblue" d="M350.917,-348.083C358.78,-340.22 370.431,-328.569 379.919,-319.081"/>
<polygon fill="midnightblue" stroke="midnightblue" points="382.653,-321.297 387.249,-311.751 377.703,-316.347 382.653,-321.297"/>
</g>
<!-- Node20 -->
<g id="node20" class="node"><title>Node20</title>
<g id="a_node20"><a xlink:href="fourier_8hh.html" target="_top" xlink:title="fourier.hh">
<polygon fill="none" stroke="black" points="260.5,-292.5 260.5,-311.5 317.5,-311.5 317.5,-292.5 260.5,-292.5"/>
<text text-anchor="middle" x="289" y="-299.5" font-family="Helvetica,sans-Serif" font-size="10.00">fourier.hh</text>
</a>
</g>
</g>
<!-- Node4&#45;&gt;Node20 -->
<g id="edge26" class="edge"><title>Node4&#45;&gt;Node20</title>
<path fill="none" stroke="midnightblue" d="M333.248,-348.083C325.53,-340.22 314.095,-328.569 304.783,-319.081"/>
<polygon fill="midnightblue" stroke="midnightblue" points="307.092,-316.436 297.589,-311.751 302.096,-321.34 307.092,-316.436"/>
</g>
<!-- Node6&#45;&gt;Node2 -->
<g id="edge6" class="edge"><title>Node6&#45;&gt;Node2</title>
<path fill="none" stroke="midnightblue" d="M388.53,-292.422C378.521,-279.828 362.999,-255.693 372,-236 377.777,-223.36 389.052,-212.911 399.631,-205.274"/>
<polygon fill="midnightblue" stroke="midnightblue" points="401.849,-208.001 408.217,-199.533 397.958,-202.182 401.849,-208.001"/>
</g>
<!-- Node7 -->
<g id="node7" class="node"><title>Node7</title>
<g id="a_node7"><a xlink:href="domain_8hh.html" target="_top" xlink:title="domain.hh">
<polygon fill="none" stroke="black" points="677,-180.5 677,-199.5 739,-199.5 739,-180.5 677,-180.5"/>
<text text-anchor="middle" x="708" y="-187.5" font-family="Helvetica,sans-Serif" font-size="10.00">domain.hh</text>
</a>
</g>
</g>
<!-- Node6&#45;&gt;Node7 -->
<g id="edge7" class="edge"><title>Node6&#45;&gt;Node7</title>
<path fill="none" stroke="midnightblue" d="M420.222,-292.46C475.4,-273.006 610.556,-225.355 674.029,-202.977"/>
<polygon fill="midnightblue" stroke="midnightblue" points="675.311,-206.236 683.578,-199.61 672.983,-199.635 675.311,-206.236"/>
</g>
<!-- Node17 -->
<g id="node17" class="node"><title>Node17</title>
<g id="a_node17"><a xlink:href="discrete__function_8hh.html" target="_top" xlink:title="discrete_function.hh">
<polygon fill="none" stroke="black" points="381,-236.5 381,-255.5 485,-255.5 485,-236.5 381,-236.5"/>
<text text-anchor="middle" x="433" y="-243.5" font-family="Helvetica,sans-Serif" font-size="10.00">discrete_function.hh</text>
</a>
</g>
</g>
<!-- Node6&#45;&gt;Node17 -->
<g id="edge19" class="edge"><title>Node6&#45;&gt;Node17</title>
<path fill="none" stroke="midnightblue" d="M402.11,-292.083C407.282,-284.534 414.846,-273.495 421.194,-264.23"/>
<polygon fill="midnightblue" stroke="midnightblue" points="424.239,-265.979 427.004,-255.751 418.464,-262.022 424.239,-265.979"/>
</g>
<!-- Node7&#45;&gt;Node3 -->
<g id="edge12" class="edge"><title>Node7&#45;&gt;Node3</title>
<path fill="none" stroke="midnightblue" d="M707.336,-180.305C705.864,-165.367 701.323,-134.287 688,-112 665.718,-74.7261 625.612,-42.8026 600.756,-25.3087"/>
<polygon fill="midnightblue" stroke="midnightblue" points="602.573,-22.3111 592.349,-19.5332 598.61,-28.0807 602.573,-22.3111"/>
</g>
<!-- Node8 -->
<g id="node8" class="node"><title>Node8</title>
<polygon fill="none" stroke="#bfbfbf" points="736.5,-118.5 736.5,-137.5 785.5,-137.5 785.5,-118.5 736.5,-118.5"/>
<text text-anchor="middle" x="761" y="-125.5" font-family="Helvetica,sans-Serif" font-size="10.00">cstddef</text>
</g>
<!-- Node7&#45;&gt;Node8 -->
<g id="edge8" class="edge"><title>Node7&#45;&gt;Node8</title>
<path fill="none" stroke="midnightblue" d="M715.594,-180.403C723.701,-171.225 736.735,-156.47 746.763,-145.117"/>
<polygon fill="midnightblue" stroke="midnightblue" points="749.423,-147.392 753.42,-137.581 744.177,-142.758 749.423,-147.392"/>
</g>
<!-- Node9 -->
<g id="node9" class="node"><title>Node9</title>
<polygon fill="none" stroke="#bfbfbf" points="630.5,-118.5 630.5,-137.5 679.5,-137.5 679.5,-118.5 630.5,-118.5"/>
<text text-anchor="middle" x="655" y="-125.5" font-family="Helvetica,sans-Serif" font-size="10.00">istream</text>
</g>
<!-- Node7&#45;&gt;Node9 -->
<g id="edge9" class="edge"><title>Node7&#45;&gt;Node9</title>
<path fill="none" stroke="midnightblue" d="M700.406,-180.403C692.299,-171.225 679.265,-156.47 669.237,-145.117"/>
<polygon fill="midnightblue" stroke="midnightblue" points="671.823,-142.758 662.58,-137.581 666.577,-147.392 671.823,-142.758"/>
</g>
<!-- Node10 -->
<g id="node10" class="node"><title>Node10</title>
<polygon fill="none" stroke="#bfbfbf" points="804,-118.5 804,-137.5 856,-137.5 856,-118.5 804,-118.5"/>
<text text-anchor="middle" x="830" y="-125.5" font-family="Helvetica,sans-Serif" font-size="10.00">ostream</text>
</g>
<!-- Node7&#45;&gt;Node10 -->
<g id="edge10" class="edge"><title>Node7&#45;&gt;Node10</title>
<path fill="none" stroke="midnightblue" d="M725.48,-180.403C745.863,-170.379 779.775,-153.701 803.425,-142.07"/>
<polygon fill="midnightblue" stroke="midnightblue" points="805.124,-145.135 812.553,-137.581 802.035,-138.853 805.124,-145.135"/>
</g>
<!-- Node11 -->
<g id="node11" class="node"><title>Node11</title>
<polygon fill="none" stroke="#bfbfbf" points="874,-118.5 874,-137.5 924,-137.5 924,-118.5 874,-118.5"/>
<text text-anchor="middle" x="899" y="-125.5" font-family="Helvetica,sans-Serif" font-size="10.00">iomanip</text>
</g>
<!-- Node7&#45;&gt;Node11 -->
<g id="edge11" class="edge"><title>Node7&#45;&gt;Node11</title>
<path fill="none" stroke="midnightblue" d="M739.082,-181.428C771.045,-173.331 822.075,-159.538 865,-144 867.119,-143.233 869.294,-142.396 871.468,-141.522"/>
<polygon fill="midnightblue" stroke="midnightblue" points="872.988,-144.679 880.835,-137.56 870.262,-138.232 872.988,-144.679"/>
</g>
<!-- Node12 -->
<g id="node12" class="node"><title>Node12</title>
<g id="a_node12"><a xlink:href="validators_8hh.html" target="_top" xlink:title="validators.hh">
<polygon fill="none" stroke="black" points="540,-118.5 540,-137.5 612,-137.5 612,-118.5 540,-118.5"/>
<text text-anchor="middle" x="576" y="-125.5" font-family="Helvetica,sans-Serif" font-size="10.00">validators.hh</text>
</a>
</g>
</g>
<!-- Node7&#45;&gt;Node12 -->
<g id="edge13" class="edge"><title>Node7&#45;&gt;Node12</title>
<path fill="none" stroke="midnightblue" d="M689.088,-180.403C666.837,-170.29 629.688,-153.404 604.074,-141.761"/>
<polygon fill="midnightblue" stroke="midnightblue" points="605.429,-138.532 594.877,-137.581 602.533,-144.905 605.429,-138.532"/>
</g>
<!-- Node13 -->
<g id="node13" class="node"><title>Node13</title>
<polygon fill="none" stroke="#bfbfbf" points="546.5,-56.5 546.5,-75.5 605.5,-75.5 605.5,-56.5 546.5,-56.5"/>
<text text-anchor="middle" x="576" y="-63.5" font-family="Helvetica,sans-Serif" font-size="10.00">stdexcept</text>
</g>
<!-- Node12&#45;&gt;Node13 -->
<g id="edge14" class="edge"><title>Node12&#45;&gt;Node13</title>
<path fill="none" stroke="midnightblue" d="M576,-118.403C576,-109.938 576,-96.7283 576,-85.8199"/>
<polygon fill="midnightblue" stroke="midnightblue" points="579.5,-85.5806 576,-75.5806 572.5,-85.5806 579.5,-85.5806"/>
</g>
<!-- Node14 -->
<g id="node14" class="node"><title>Node14</title>
<g id="a_node14"><a xlink:href="blitz_8hh.html" target="_top" xlink:title="blitz.hh">
<polygon fill="none" stroke="black" points="736,-56.5 736,-75.5 784,-75.5 784,-56.5 736,-56.5"/>
<text text-anchor="middle" x="760" y="-63.5" font-family="Helvetica,sans-Serif" font-size="10.00">blitz.hh</text>
</a>
</g>
</g>
<!-- Node12&#45;&gt;Node14 -->
<g id="edge15" class="edge"><title>Node12&#45;&gt;Node14</title>
<path fill="none" stroke="midnightblue" d="M602.363,-118.403C634.832,-107.816 690.059,-89.8067 725.774,-78.1606"/>
<polygon fill="midnightblue" stroke="midnightblue" points="727.318,-81.3388 735.74,-74.911 725.147,-74.6837 727.318,-81.3388"/>
</g>
<!-- Node14&#45;&gt;Node3 -->
<g id="edge18" class="edge"><title>Node14&#45;&gt;Node3</title>
<path fill="none" stroke="midnightblue" d="M735.965,-57.8292C705.639,-48.7819 653.124,-33.1144 617.258,-22.4139"/>
<polygon fill="midnightblue" stroke="midnightblue" points="618.198,-19.0422 607.615,-19.5371 616.197,-25.75 618.198,-19.0422"/>
</g>
<!-- Node15 -->
<g id="node15" class="node"><title>Node15</title>
<polygon fill="none" stroke="#bfbfbf" points="772,-0.5 772,-19.5 816,-19.5 816,-0.5 772,-0.5"/>
<text text-anchor="middle" x="794" y="-7.5" font-family="Helvetica,sans-Serif" font-size="10.00">cmath</text>
</g>
<!-- Node14&#45;&gt;Node15 -->
<g id="edge16" class="edge"><title>Node14&#45;&gt;Node15</title>
<path fill="none" stroke="midnightblue" d="M765.614,-56.083C770.367,-48.5341 777.318,-37.4948 783.152,-28.2298"/>
<polygon fill="midnightblue" stroke="midnightblue" points="786.124,-30.0783 788.49,-19.7511 780.2,-26.3486 786.124,-30.0783"/>
</g>
<!-- Node16 -->
<g id="node16" class="node"><title>Node16</title>
<polygon fill="none" stroke="#bfbfbf" points="698,-0.5 698,-19.5 754,-19.5 754,-0.5 698,-0.5"/>
<text text-anchor="middle" x="726" y="-7.5" font-family="Helvetica,sans-Serif" font-size="10.00">algorithm</text>
</g>
<!-- Node14&#45;&gt;Node16 -->
<g id="edge17" class="edge"><title>Node14&#45;&gt;Node16</title>
<path fill="none" stroke="midnightblue" d="M754.386,-56.083C749.633,-48.5341 742.682,-37.4948 736.848,-28.2298"/>
<polygon fill="midnightblue" stroke="midnightblue" points="739.8,-26.3486 731.51,-19.7511 733.876,-30.0783 739.8,-26.3486"/>
</g>
<!-- Node17&#45;&gt;Node2 -->
<g id="edge20" class="edge"><title>Node17&#45;&gt;Node2</title>
<path fill="none" stroke="midnightblue" d="M431.514,-236.083C430.321,-228.927 428.606,-218.635 427.115,-209.691"/>
<polygon fill="midnightblue" stroke="midnightblue" points="430.555,-209.04 425.459,-199.751 423.65,-210.19 430.555,-209.04"/>
</g>
<!-- Node18 -->
<g id="node18" class="node"><title>Node18</title>
<g id="a_node18"><a xlink:href="grid_8hh.html" target="_top" xlink:title="grid.hh">
<polygon fill="none" stroke="black" points="489,-180.5 489,-199.5 535,-199.5 535,-180.5 489,-180.5"/>
<text text-anchor="middle" x="512" y="-187.5" font-family="Helvetica,sans-Serif" font-size="10.00">grid.hh</text>
</a>
</g>
</g>
<!-- Node17&#45;&gt;Node18 -->
<g id="edge21" class="edge"><title>Node17&#45;&gt;Node18</title>
<path fill="none" stroke="midnightblue" d="M445.693,-236.324C457.901,-227.979 476.578,-215.212 491.003,-205.352"/>
<polygon fill="midnightblue" stroke="midnightblue" points="493.058,-208.187 499.339,-199.655 489.108,-202.408 493.058,-208.187"/>
</g>
<!-- Node18&#45;&gt;Node3 -->
<g id="edge24" class="edge"><title>Node18&#45;&gt;Node3</title>
<path fill="none" stroke="midnightblue" d="M511.993,-180.385C512.306,-158.41 515.257,-98.9771 537,-56 542.63,-44.8715 551.855,-34.5375 560.228,-26.5863"/>
<polygon fill="midnightblue" stroke="midnightblue" points="562.745,-29.0297 567.849,-19.745 558.069,-23.8207 562.745,-29.0297"/>
</g>
<!-- Node18&#45;&gt;Node9 -->
<g id="edge23" class="edge"><title>Node18&#45;&gt;Node9</title>
<path fill="none" stroke="midnightblue" d="M533.367,-180.355C555.389,-171.404 590.686,-156.942 621,-144 622.78,-143.24 624.61,-142.452 626.453,-141.653"/>
<polygon fill="midnightblue" stroke="midnightblue" points="627.856,-144.86 635.617,-137.647 625.052,-138.446 627.856,-144.86"/>
</g>
<!-- Node18&#45;&gt;Node12 -->
<g id="edge25" class="edge"><title>Node18&#45;&gt;Node12</title>
<path fill="none" stroke="midnightblue" d="M521.17,-180.403C531.15,-171.047 547.312,-155.895 559.509,-144.46"/>
<polygon fill="midnightblue" stroke="midnightblue" points="561.946,-146.973 566.847,-137.581 557.158,-141.867 561.946,-146.973"/>
</g>
<!-- Node19 -->
<g id="node19" class="node"><title>Node19</title>
<polygon fill="none" stroke="#bfbfbf" points="432,-118.5 432,-137.5 484,-137.5 484,-118.5 432,-118.5"/>
<text text-anchor="middle" x="458" y="-125.5" font-family="Helvetica,sans-Serif" font-size="10.00">stddef.h</text>
</g>
<!-- Node18&#45;&gt;Node19 -->
<g id="edge22" class="edge"><title>Node18&#45;&gt;Node19</title>
<path fill="none" stroke="midnightblue" d="M504.263,-180.403C496.003,-171.225 482.723,-156.47 472.506,-145.117"/>
<polygon fill="midnightblue" stroke="midnightblue" points="475.014,-142.672 465.723,-137.581 469.811,-147.355 475.014,-142.672"/>
</g>
<!-- Node21 -->
<g id="node21" class="node"><title>Node21</title>
<g id="a_node21"><a xlink:href="apmath_2fourier__gsl_8hh.html" target="_top" xlink:title="apmath/fourier_gsl.hh">
<polygon fill="none" stroke="black" points="215,-236.5 215,-255.5 325,-255.5 325,-236.5 215,-236.5"/>
<text text-anchor="middle" x="270" y="-243.5" font-family="Helvetica,sans-Serif" font-size="10.00">apmath/fourier_gsl.hh</text>
</a>
</g>
</g>
<!-- Node20&#45;&gt;Node21 -->
<g id="edge27" class="edge"><title>Node20&#45;&gt;Node21</title>
<path fill="none" stroke="midnightblue" d="M285.863,-292.083C283.317,-284.849 279.644,-274.409 276.473,-265.397"/>
<polygon fill="midnightblue" stroke="midnightblue" points="279.7,-264.023 273.079,-255.751 273.097,-266.346 279.7,-264.023"/>
</g>
<!-- Node21&#45;&gt;Node2 -->
<g id="edge35" class="edge"><title>Node21&#45;&gt;Node2</title>
<path fill="none" stroke="midnightblue" d="M294.402,-236.444C320.197,-227.399 361.077,-213.064 390.018,-202.916"/>
<polygon fill="midnightblue" stroke="midnightblue" points="391.434,-206.128 399.712,-199.516 389.118,-199.523 391.434,-206.128"/>
</g>
<!-- Node21&#45;&gt;Node5 -->
<g id="edge28" class="edge"><title>Node21&#45;&gt;Node5</title>
<path fill="none" stroke="midnightblue" d="M228.475,-236.423C188.481,-228.072 126.041,-214.796 62.5041,-200.06"/>
<polygon fill="midnightblue" stroke="midnightblue" points="63.2467,-196.639 52.7134,-197.779 61.6586,-203.457 63.2467,-196.639"/>
</g>
<!-- Node22 -->
<g id="node22" class="node"><title>Node22</title>
<polygon fill="none" stroke="#bfbfbf" points="335,-180.5 335,-199.5 379,-199.5 379,-180.5 335,-180.5"/>
<text text-anchor="middle" x="357" y="-187.5" font-family="Helvetica,sans-Serif" font-size="10.00">vector</text>
</g>
<!-- Node21&#45;&gt;Node22 -->
<g id="edge29" class="edge"><title>Node21&#45;&gt;Node22</title>
<path fill="none" stroke="midnightblue" d="M283.978,-236.324C297.55,-227.9 318.38,-214.971 334.325,-205.074"/>
<polygon fill="midnightblue" stroke="midnightblue" points="336.406,-207.902 343.057,-199.655 332.714,-201.954 336.406,-207.902"/>
</g>
<!-- Node23 -->
<g id="node23" class="node"><title>Node23</title>
<g id="a_node23"><a xlink:href="fourier__direction_8hh.html" target="_top" xlink:title="apmath/fourier_direction.hh">
<polygon fill="none" stroke="black" points="71,-180.5 71,-199.5 205,-199.5 205,-180.5 71,-180.5"/>
<text text-anchor="middle" x="138" y="-187.5" font-family="Helvetica,sans-Serif" font-size="10.00">apmath/fourier_direction.hh</text>
</a>
</g>
</g>
<!-- Node21&#45;&gt;Node23 -->
<g id="edge30" class="edge"><title>Node21&#45;&gt;Node23</title>
<path fill="none" stroke="midnightblue" d="M249.084,-236.444C227.264,-227.517 192.85,-213.439 168.108,-203.317"/>
<polygon fill="midnightblue" stroke="midnightblue" points="169.399,-200.063 158.818,-199.516 166.748,-206.542 169.399,-200.063"/>
</g>
<!-- Node24 -->
<g id="node24" class="node"><title>Node24</title>
<g id="a_node24"><a xlink:href="bits_2fourier__gsl_8hh.html" target="_top" xlink:title="bits/fourier_gsl.hh">
<polygon fill="none" stroke="black" points="223,-180.5 223,-199.5 317,-199.5 317,-180.5 223,-180.5"/>
<text text-anchor="middle" x="270" y="-187.5" font-family="Helvetica,sans-Serif" font-size="10.00">bits/fourier_gsl.hh</text>
</a>
</g>
</g>
<!-- Node21&#45;&gt;Node24 -->
<g id="edge31" class="edge"><title>Node21&#45;&gt;Node24</title>
<path fill="none" stroke="midnightblue" d="M270,-236.083C270,-229.006 270,-218.861 270,-209.986"/>
<polygon fill="midnightblue" stroke="midnightblue" points="273.5,-209.751 270,-199.751 266.5,-209.751 273.5,-209.751"/>
</g>
<!-- Node25 -->
<g id="node25" class="node"><title>Node25</title>
<polygon fill="none" stroke="#bfbfbf" points="66,-118.5 66,-137.5 176,-137.5 176,-118.5 66,-118.5"/>
<text text-anchor="middle" x="121" y="-125.5" font-family="Helvetica,sans-Serif" font-size="10.00">gsl/gsl_fft_complex.h</text>
</g>
<!-- Node24&#45;&gt;Node25 -->
<g id="edge32" class="edge"><title>Node24&#45;&gt;Node25</title>
<path fill="none" stroke="midnightblue" d="M248.652,-180.403C223.314,-170.2 180.862,-153.105 151.929,-141.454"/>
<polygon fill="midnightblue" stroke="midnightblue" points="152.892,-138.069 142.308,-137.581 150.277,-144.563 152.892,-138.069"/>
</g>
<!-- Node26 -->
<g id="node26" class="node"><title>Node26</title>
<polygon fill="none" stroke="#bfbfbf" points="194.5,-113 194.5,-143 295.5,-143 295.5,-113 194.5,-113"/>
<text text-anchor="start" x="202.5" y="-131" font-family="Helvetica,sans-Serif" font-size="10.00">gsl/gsl_fft_complex</text>
<text text-anchor="middle" x="245" y="-120" font-family="Helvetica,sans-Serif" font-size="10.00">_float.h</text>
</g>
<!-- Node24&#45;&gt;Node26 -->
<g id="edge33" class="edge"><title>Node24&#45;&gt;Node26</title>
<path fill="none" stroke="midnightblue" d="M266.418,-180.403C263.38,-173.113 258.876,-162.303 254.781,-152.475"/>
<polygon fill="midnightblue" stroke="midnightblue" points="257.969,-151.025 250.892,-143.141 251.507,-153.718 257.969,-151.025"/>
</g>
<!-- Node27 -->
<g id="node27" class="node"><title>Node27</title>
<polygon fill="none" stroke="#bfbfbf" points="314,-118.5 314,-137.5 376,-137.5 376,-118.5 314,-118.5"/>
<text text-anchor="middle" x="345" y="-125.5" font-family="Helvetica,sans-Serif" font-size="10.00">type_traits</text>
</g>
<!-- Node24&#45;&gt;Node27 -->
<g id="edge34" class="edge"><title>Node24&#45;&gt;Node27</title>
<path fill="none" stroke="midnightblue" d="M280.746,-180.403C292.553,-170.958 311.743,-155.606 326.082,-144.134"/>
<polygon fill="midnightblue" stroke="midnightblue" points="328.652,-146.561 334.274,-137.581 324.279,-141.095 328.652,-146.561"/>
</g>
</g>
</svg>
