<?xml version="1.0" encoding="UTF-8" standalone="no"?>
<!DOCTYPE svg PUBLIC "-//W3C//DTD SVG 1.1//EN"
 "http://www.w3.org/Graphics/SVG/1.1/DTD/svg11.dtd">
<!-- Generated by graphviz version 2.36.0 (20140111.2315)
 -->
<!-- Title: /home/travis/build/igankevich/arma/src/velocity/high_amplitude_solver.cc Pages: 1 -->
<svg width="856pt" height="522pt"
 viewBox="0.00 0.00 856.26 522.00" xmlns="http://www.w3.org/2000/svg" xmlns:xlink="http://www.w3.org/1999/xlink">
<g id="graph0" class="graph" transform="scale(1 1) rotate(0) translate(4 518)">
<title>/home/travis/build/igankevich/arma/src/velocity/high_amplitude_solver.cc</title>
<!-- Node1 -->
<g id="node1" class="node"><title>Node1</title>
<polygon fill="#bfbfbf" stroke="black" points="366,-461 366,-513 488,-513 488,-461 366,-461"/>
<text text-anchor="start" x="374" y="-501" font-family="Helvetica,sans-Serif" font-size="10.00">/home/travis/build</text>
<text text-anchor="start" x="374" y="-490" font-family="Helvetica,sans-Serif" font-size="10.00">/igankevich/arma/src</text>
<text text-anchor="start" x="374" y="-479" font-family="Helvetica,sans-Serif" font-size="10.00">/velocity/high_amplitude</text>
<text text-anchor="middle" x="427" y="-468" font-family="Helvetica,sans-Serif" font-size="10.00">_solver.cc</text>
</g>
<!-- Node2 -->
<g id="node2" class="node"><title>Node2</title>
<g id="a_node2"><a xlink:href="high__amplitude__solver_8hh.html" target="_top" xlink:title="high_amplitude_solver.hh">
<polygon fill="none" stroke="black" points="363.5,-404.5 363.5,-423.5 490.5,-423.5 490.5,-404.5 363.5,-404.5"/>
<text text-anchor="middle" x="427" y="-411.5" font-family="Helvetica,sans-Serif" font-size="10.00">high_amplitude_solver.hh</text>
</a>
</g>
</g>
<!-- Node1&#45;&gt;Node2 -->
<g id="edge1" class="edge"><title>Node1&#45;&gt;Node2</title>
<path fill="none" stroke="midnightblue" d="M427,-460.768C427,-451.89 427,-442.074 427,-433.816"/>
<polygon fill="midnightblue" stroke="midnightblue" points="430.5,-433.757 427,-423.757 423.5,-433.757 430.5,-433.757"/>
</g>
<!-- Node6 -->
<g id="node6" class="node"><title>Node6</title>
<polygon fill="none" stroke="#bfbfbf" points="326.5,-180.5 326.5,-199.5 379.5,-199.5 379.5,-180.5 326.5,-180.5"/>
<text text-anchor="middle" x="353" y="-187.5" font-family="Helvetica,sans-Serif" font-size="10.00">complex</text>
</g>
<!-- Node1&#45;&gt;Node6 -->
<g id="edge39" class="edge"><title>Node1&#45;&gt;Node6</title>
<path fill="none" stroke="midnightblue" d="M390.083,-460.774C377.282,-450.566 363.719,-437.9 354,-424 336.353,-398.762 330,-389.795 330,-359 330,-359 330,-359 330,-301 330,-268.12 339.968,-230.86 346.779,-209.235"/>
<polygon fill="midnightblue" stroke="midnightblue" points="350.112,-210.303 349.898,-199.711 343.46,-208.125 350.112,-210.303"/>
</g>
<!-- Node27 -->
<g id="node27" class="node"><title>Node27</title>
<g id="a_node27"><a xlink:href="derivative_8hh.html" target="_top" xlink:title="derivative.hh">
<polygon fill="none" stroke="black" points="500,-348.5 500,-367.5 572,-367.5 572,-348.5 500,-348.5"/>
<text text-anchor="middle" x="536" y="-355.5" font-family="Helvetica,sans-Serif" font-size="10.00">derivative.hh</text>
</a>
</g>
</g>
<!-- Node1&#45;&gt;Node27 -->
<g id="edge37" class="edge"><title>Node1&#45;&gt;Node27</title>
<path fill="none" stroke="midnightblue" d="M460.744,-460.991C473.633,-450.45 487.888,-437.5 499,-424 510.968,-409.46 521.251,-390.533 527.917,-376.856"/>
<polygon fill="midnightblue" stroke="midnightblue" points="531.191,-378.119 532.277,-367.58 524.856,-375.141 531.191,-378.119"/>
</g>
<!-- Node3 -->
<g id="node3" class="node"><title>Node3</title>
<g id="a_node3"><a xlink:href="types_8hh.html" target="_top" xlink:title="types.hh">
<polygon fill="none" stroke="black" points="464,-180.5 464,-199.5 518,-199.5 518,-180.5 464,-180.5"/>
<text text-anchor="middle" x="491" y="-187.5" font-family="Helvetica,sans-Serif" font-size="10.00">types.hh</text>
</a>
</g>
</g>
<!-- Node2&#45;&gt;Node3 -->
<g id="edge2" class="edge"><title>Node2&#45;&gt;Node3</title>
<path fill="none" stroke="midnightblue" d="M432.774,-404.403C438.436,-395.608 446.936,-381.373 452,-368 473.032,-312.457 484.251,-242.6 488.694,-209.729"/>
<polygon fill="midnightblue" stroke="midnightblue" points="492.176,-210.095 489.988,-199.729 485.234,-209.197 492.176,-210.095"/>
</g>
<!-- Node5 -->
<g id="node5" class="node"><title>Node5</title>
<g id="a_node5"><a xlink:href="linear__solver_8hh.html" target="_top" xlink:title="linear_solver.hh">
<polygon fill="none" stroke="black" points="358.5,-348.5 358.5,-367.5 443.5,-367.5 443.5,-348.5 358.5,-348.5"/>
<text text-anchor="middle" x="401" y="-355.5" font-family="Helvetica,sans-Serif" font-size="10.00">linear_solver.hh</text>
</a>
</g>
</g>
<!-- Node2&#45;&gt;Node5 -->
<g id="edge4" class="edge"><title>Node2&#45;&gt;Node5</title>
<path fill="none" stroke="midnightblue" d="M422.707,-404.083C419.148,-396.691 413.978,-385.953 409.576,-376.811"/>
<polygon fill="midnightblue" stroke="midnightblue" points="412.705,-375.243 405.213,-367.751 406.398,-378.279 412.705,-375.243"/>
</g>
<!-- Node4 -->
<g id="node4" class="node"><title>Node4</title>
<polygon fill="none" stroke="#bfbfbf" points="442,-0.5 442,-19.5 510,-19.5 510,-0.5 442,-0.5"/>
<text text-anchor="middle" x="476" y="-7.5" font-family="Helvetica,sans-Serif" font-size="10.00">blitz/array.h</text>
</g>
<!-- Node3&#45;&gt;Node4 -->
<g id="edge3" class="edge"><title>Node3&#45;&gt;Node4</title>
<path fill="none" stroke="midnightblue" d="M483.327,-180.459C476.221,-171.927 466.146,-158.088 462,-144 450.957,-106.48 456.124,-94.6672 462,-56 463.368,-47.001 466.19,-37.3251 468.945,-29.2601"/>
<polygon fill="midnightblue" stroke="midnightblue" points="472.265,-30.3722 472.4,-19.7782 465.688,-27.9759 472.265,-30.3722"/>
</g>
<!-- Node5&#45;&gt;Node6 -->
<g id="edge5" class="edge"><title>Node5&#45;&gt;Node6</title>
<path fill="none" stroke="midnightblue" d="M398.419,-348.075C390.864,-321.945 368.675,-245.211 358.372,-209.577"/>
<polygon fill="midnightblue" stroke="midnightblue" points="361.618,-208.202 355.478,-199.568 354.893,-210.147 361.618,-208.202"/>
</g>
<!-- Node7 -->
<g id="node7" class="node"><title>Node7</title>
<g id="a_node7"><a xlink:href="basic__solver_8hh.html" target="_top" xlink:title="basic_solver.hh">
<polygon fill="none" stroke="black" points="540.5,-292.5 540.5,-311.5 625.5,-311.5 625.5,-292.5 540.5,-292.5"/>
<text text-anchor="middle" x="583" y="-299.5" font-family="Helvetica,sans-Serif" font-size="10.00">basic_solver.hh</text>
</a>
</g>
</g>
<!-- Node5&#45;&gt;Node7 -->
<g id="edge6" class="edge"><title>Node5&#45;&gt;Node7</title>
<path fill="none" stroke="midnightblue" d="M429.838,-348.444C460.856,-339.241 510.329,-324.562 544.618,-314.388"/>
<polygon fill="midnightblue" stroke="midnightblue" points="545.705,-317.716 554.296,-311.516 543.714,-311.006 545.705,-317.716"/>
</g>
<!-- Node19 -->
<g id="node19" class="node"><title>Node19</title>
<g id="a_node19"><a xlink:href="fourier_8hh.html" target="_top" xlink:title="fourier.hh">
<polygon fill="none" stroke="black" points="231.5,-292.5 231.5,-311.5 288.5,-311.5 288.5,-292.5 231.5,-292.5"/>
<text text-anchor="middle" x="260" y="-299.5" font-family="Helvetica,sans-Serif" font-size="10.00">fourier.hh</text>
</a>
</g>
</g>
<!-- Node5&#45;&gt;Node19 -->
<g id="edge27" class="edge"><title>Node5&#45;&gt;Node19</title>
<path fill="none" stroke="midnightblue" d="M378.658,-348.444C355.247,-339.478 318.264,-325.314 291.81,-315.183"/>
<polygon fill="midnightblue" stroke="midnightblue" points="292.828,-311.824 282.237,-311.516 290.324,-318.361 292.828,-311.824"/>
</g>
<!-- Node7&#45;&gt;Node3 -->
<g id="edge7" class="edge"><title>Node7&#45;&gt;Node3</title>
<path fill="none" stroke="midnightblue" d="M575.781,-292.368C560.464,-274.055 524.495,-231.049 504.685,-207.362"/>
<polygon fill="midnightblue" stroke="midnightblue" points="507.286,-205.017 498.186,-199.591 501.916,-209.508 507.286,-205.017"/>
</g>
<!-- Node8 -->
<g id="node8" class="node"><title>Node8</title>
<g id="a_node8"><a xlink:href="domain_8hh.html" target="_top" xlink:title="domain.hh">
<polygon fill="none" stroke="black" points="555,-180.5 555,-199.5 617,-199.5 617,-180.5 555,-180.5"/>
<text text-anchor="middle" x="586" y="-187.5" font-family="Helvetica,sans-Serif" font-size="10.00">domain.hh</text>
</a>
</g>
</g>
<!-- Node7&#45;&gt;Node8 -->
<g id="edge8" class="edge"><title>Node7&#45;&gt;Node8</title>
<path fill="none" stroke="midnightblue" d="M583.235,-292.368C583.72,-274.617 584.836,-233.666 585.493,-209.597"/>
<polygon fill="midnightblue" stroke="midnightblue" points="588.992,-209.683 585.766,-199.591 581.994,-209.492 588.992,-209.683"/>
</g>
<!-- Node17 -->
<g id="node17" class="node"><title>Node17</title>
<g id="a_node17"><a xlink:href="discrete__function_8hh.html" target="_top" xlink:title="discrete_function.hh">
<polygon fill="none" stroke="black" points="614,-236.5 614,-255.5 718,-255.5 718,-236.5 614,-236.5"/>
<text text-anchor="middle" x="666" y="-243.5" font-family="Helvetica,sans-Serif" font-size="10.00">discrete_function.hh</text>
</a>
</g>
</g>
<!-- Node7&#45;&gt;Node17 -->
<g id="edge20" class="edge"><title>Node7&#45;&gt;Node17</title>
<path fill="none" stroke="midnightblue" d="M596.335,-292.324C609.162,-283.979 628.785,-271.212 643.94,-261.352"/>
<polygon fill="midnightblue" stroke="midnightblue" points="646.224,-264.042 652.698,-255.655 642.407,-258.174 646.224,-264.042"/>
</g>
<!-- Node8&#45;&gt;Node4 -->
<g id="edge13" class="edge"><title>Node8&#45;&gt;Node4</title>
<path fill="none" stroke="midnightblue" d="M555.13,-180.479C536.305,-173.674 513.369,-162.197 500,-144 474.96,-109.917 473.283,-57.8939 474.483,-30.0909"/>
<polygon fill="midnightblue" stroke="midnightblue" points="477.997,-29.9762 475.114,-19.7811 471.01,-29.5487 477.997,-29.9762"/>
</g>
<!-- Node9 -->
<g id="node9" class="node"><title>Node9</title>
<polygon fill="none" stroke="#bfbfbf" points="696,-0.5 696,-19.5 740,-19.5 740,-0.5 696,-0.5"/>
<text text-anchor="middle" x="718" y="-7.5" font-family="Helvetica,sans-Serif" font-size="10.00">cmath</text>
</g>
<!-- Node8&#45;&gt;Node9 -->
<g id="edge9" class="edge"><title>Node8&#45;&gt;Node9</title>
<path fill="none" stroke="midnightblue" d="M569.666,-180.387C557.045,-172.72 540.503,-160.213 533,-144 527.027,-131.093 525.742,-124.231 533,-112 566.192,-56.0626 642.48,-29.1116 686.016,-17.8619"/>
<polygon fill="midnightblue" stroke="midnightblue" points="686.941,-21.2388 695.816,-15.4522 685.27,-14.4412 686.941,-21.2388"/>
</g>
<!-- Node10 -->
<g id="node10" class="node"><title>Node10</title>
<polygon fill="none" stroke="#bfbfbf" points="542,-118.5 542,-137.5 592,-137.5 592,-118.5 542,-118.5"/>
<text text-anchor="middle" x="567" y="-125.5" font-family="Helvetica,sans-Serif" font-size="10.00">iomanip</text>
</g>
<!-- Node8&#45;&gt;Node10 -->
<g id="edge10" class="edge"><title>Node8&#45;&gt;Node10</title>
<path fill="none" stroke="midnightblue" d="M583.278,-180.403C580.541,-171.76 576.237,-158.17 572.742,-147.134"/>
<polygon fill="midnightblue" stroke="midnightblue" points="576.073,-146.057 569.717,-137.581 569.399,-148.171 576.073,-146.057"/>
</g>
<!-- Node11 -->
<g id="node11" class="node"><title>Node11</title>
<polygon fill="none" stroke="#bfbfbf" points="770.5,-118.5 770.5,-137.5 819.5,-137.5 819.5,-118.5 770.5,-118.5"/>
<text text-anchor="middle" x="795" y="-125.5" font-family="Helvetica,sans-Serif" font-size="10.00">istream</text>
</g>
<!-- Node8&#45;&gt;Node11 -->
<g id="edge11" class="edge"><title>Node8&#45;&gt;Node11</title>
<path fill="none" stroke="midnightblue" d="M617.116,-182.616C652.466,-174.994 711.648,-161.103 761,-144 763.13,-143.262 765.312,-142.446 767.491,-141.587"/>
<polygon fill="midnightblue" stroke="midnightblue" points="769,-144.75 776.869,-137.655 766.293,-138.294 769,-144.75"/>
</g>
<!-- Node12 -->
<g id="node12" class="node"><title>Node12</title>
<polygon fill="none" stroke="#bfbfbf" points="610,-118.5 610,-137.5 662,-137.5 662,-118.5 610,-118.5"/>
<text text-anchor="middle" x="636" y="-125.5" font-family="Helvetica,sans-Serif" font-size="10.00">ostream</text>
</g>
<!-- Node8&#45;&gt;Node12 -->
<g id="edge12" class="edge"><title>Node8&#45;&gt;Node12</title>
<path fill="none" stroke="midnightblue" d="M593.164,-180.403C600.738,-171.314 612.87,-156.756 622.293,-145.449"/>
<polygon fill="midnightblue" stroke="midnightblue" points="625.136,-147.503 628.85,-137.581 619.759,-143.022 625.136,-147.503"/>
</g>
<!-- Node13 -->
<g id="node13" class="node"><title>Node13</title>
<g id="a_node13"><a xlink:href="validators_8hh.html" target="_top" xlink:title="validators.hh">
<polygon fill="none" stroke="black" points="680,-118.5 680,-137.5 752,-137.5 752,-118.5 680,-118.5"/>
<text text-anchor="middle" x="716" y="-125.5" font-family="Helvetica,sans-Serif" font-size="10.00">validators.hh</text>
</a>
</g>
</g>
<!-- Node8&#45;&gt;Node13 -->
<g id="edge14" class="edge"><title>Node8&#45;&gt;Node13</title>
<path fill="none" stroke="midnightblue" d="M604.626,-180.403C626.443,-170.334 662.804,-153.552 688.017,-141.915"/>
<polygon fill="midnightblue" stroke="midnightblue" points="689.796,-144.949 697.409,-137.581 686.862,-138.593 689.796,-144.949"/>
</g>
<!-- Node14 -->
<g id="node14" class="node"><title>Node14</title>
<polygon fill="none" stroke="#bfbfbf" points="650.5,-56.5 650.5,-75.5 709.5,-75.5 709.5,-56.5 650.5,-56.5"/>
<text text-anchor="middle" x="680" y="-63.5" font-family="Helvetica,sans-Serif" font-size="10.00">stdexcept</text>
</g>
<!-- Node13&#45;&gt;Node14 -->
<g id="edge15" class="edge"><title>Node13&#45;&gt;Node14</title>
<path fill="none" stroke="midnightblue" d="M710.842,-118.403C705.549,-109.582 697.165,-95.6075 690.473,-84.4548"/>
<polygon fill="midnightblue" stroke="midnightblue" points="693.295,-82.3548 685.148,-75.5806 687.292,-85.9563 693.295,-82.3548"/>
</g>
<!-- Node15 -->
<g id="node15" class="node"><title>Node15</title>
<g id="a_node15"><a xlink:href="blitz_8hh.html" target="_top" xlink:title="blitz.hh">
<polygon fill="none" stroke="black" points="728,-56.5 728,-75.5 776,-75.5 776,-56.5 728,-56.5"/>
<text text-anchor="middle" x="752" y="-63.5" font-family="Helvetica,sans-Serif" font-size="10.00">blitz.hh</text>
</a>
</g>
</g>
<!-- Node13&#45;&gt;Node15 -->
<g id="edge16" class="edge"><title>Node13&#45;&gt;Node15</title>
<path fill="none" stroke="midnightblue" d="M721.158,-118.403C726.451,-109.582 734.835,-95.6075 741.527,-84.4548"/>
<polygon fill="midnightblue" stroke="midnightblue" points="744.708,-85.9563 746.852,-75.5806 738.705,-82.3548 744.708,-85.9563"/>
</g>
<!-- Node15&#45;&gt;Node4 -->
<g id="edge18" class="edge"><title>Node15&#45;&gt;Node4</title>
<path fill="none" stroke="midnightblue" d="M727.909,-58.3843C724.589,-57.5427 721.217,-56.7238 718,-56 649.301,-40.5429 568.777,-26.3404 520.115,-18.1814"/>
<polygon fill="midnightblue" stroke="midnightblue" points="520.669,-14.7256 510.23,-16.5338 519.518,-21.6304 520.669,-14.7256"/>
</g>
<!-- Node15&#45;&gt;Node9 -->
<g id="edge19" class="edge"><title>Node15&#45;&gt;Node9</title>
<path fill="none" stroke="midnightblue" d="M746.386,-56.083C741.633,-48.5341 734.682,-37.4948 728.848,-28.2298"/>
<polygon fill="midnightblue" stroke="midnightblue" points="731.8,-26.3486 723.51,-19.7511 725.876,-30.0783 731.8,-26.3486"/>
</g>
<!-- Node16 -->
<g id="node16" class="node"><title>Node16</title>
<polygon fill="none" stroke="#bfbfbf" points="758,-0.5 758,-19.5 814,-19.5 814,-0.5 758,-0.5"/>
<text text-anchor="middle" x="786" y="-7.5" font-family="Helvetica,sans-Serif" font-size="10.00">algorithm</text>
</g>
<!-- Node15&#45;&gt;Node16 -->
<g id="edge17" class="edge"><title>Node15&#45;&gt;Node16</title>
<path fill="none" stroke="midnightblue" d="M757.614,-56.083C762.367,-48.5341 769.318,-37.4948 775.152,-28.2298"/>
<polygon fill="midnightblue" stroke="midnightblue" points="778.124,-30.0783 780.49,-19.7511 772.2,-26.3486 778.124,-30.0783"/>
</g>
<!-- Node17&#45;&gt;Node3 -->
<g id="edge26" class="edge"><title>Node17&#45;&gt;Node3</title>
<path fill="none" stroke="midnightblue" d="M638.271,-236.444C608.4,-227.226 560.727,-212.516 527.751,-202.34"/>
<polygon fill="midnightblue" stroke="midnightblue" points="528.612,-198.943 518.025,-199.339 526.548,-205.632 528.612,-198.943"/>
</g>
<!-- Node18 -->
<g id="node18" class="node"><title>Node18</title>
<g id="a_node18"><a xlink:href="grid_8hh.html" target="_top" xlink:title="grid.hh">
<polygon fill="none" stroke="black" points="772,-180.5 772,-199.5 818,-199.5 818,-180.5 772,-180.5"/>
<text text-anchor="middle" x="795" y="-187.5" font-family="Helvetica,sans-Serif" font-size="10.00">grid.hh</text>
</a>
</g>
</g>
<!-- Node17&#45;&gt;Node18 -->
<g id="edge21" class="edge"><title>Node17&#45;&gt;Node18</title>
<path fill="none" stroke="midnightblue" d="M686.44,-236.444C707.67,-227.557 741.099,-213.563 765.255,-203.451"/>
<polygon fill="midnightblue" stroke="midnightblue" points="766.782,-206.606 774.655,-199.516 764.079,-200.149 766.782,-206.606"/>
</g>
<!-- Node18&#45;&gt;Node9 -->
<g id="edge22" class="edge"><title>Node18&#45;&gt;Node9</title>
<path fill="none" stroke="midnightblue" d="M809.661,-180.402C821.406,-172.585 837.031,-159.862 844,-144 849.721,-130.979 849.613,-125.068 844,-112 825.749,-69.5134 778.712,-39.8483 747.559,-24.1196"/>
<polygon fill="midnightblue" stroke="midnightblue" points="748.973,-20.9155 738.45,-19.6869 745.91,-27.2098 748.973,-20.9155"/>
</g>
<!-- Node18&#45;&gt;Node11 -->
<g id="edge23" class="edge"><title>Node18&#45;&gt;Node11</title>
<path fill="none" stroke="midnightblue" d="M795,-180.403C795,-171.938 795,-158.728 795,-147.82"/>
<polygon fill="midnightblue" stroke="midnightblue" points="798.5,-147.581 795,-137.581 791.5,-147.581 798.5,-147.581"/>
</g>
<!-- Node18&#45;&gt;Node13 -->
<g id="edge25" class="edge"><title>Node18&#45;&gt;Node13</title>
<path fill="none" stroke="midnightblue" d="M783.681,-180.403C771.127,-170.869 750.649,-155.315 735.501,-143.811"/>
<polygon fill="midnightblue" stroke="midnightblue" points="737.378,-140.842 727.298,-137.581 733.144,-146.416 737.378,-140.842"/>
</g>
<!-- Node18&#45;&gt;Node15 -->
<g id="edge24" class="edge"><title>Node18&#45;&gt;Node15</title>
<path fill="none" stroke="midnightblue" d="M804.058,-180.149C817.906,-165.5 841.397,-135.502 828,-112 818.881,-96.0038 801.596,-85.1132 785.812,-78.058"/>
<polygon fill="midnightblue" stroke="midnightblue" points="786.844,-74.6989 776.264,-74.1494 784.192,-81.1771 786.844,-74.6989"/>
</g>
<!-- Node20 -->
<g id="node20" class="node"><title>Node20</title>
<g id="a_node20"><a xlink:href="apmath_2fourier__gsl_8hh.html" target="_top" xlink:title="apmath/fourier_gsl.hh">
<polygon fill="none" stroke="black" points="192,-236.5 192,-255.5 302,-255.5 302,-236.5 192,-236.5"/>
<text text-anchor="middle" x="247" y="-243.5" font-family="Helvetica,sans-Serif" font-size="10.00">apmath/fourier_gsl.hh</text>
</a>
</g>
</g>
<!-- Node19&#45;&gt;Node20 -->
<g id="edge28" class="edge"><title>Node19&#45;&gt;Node20</title>
<path fill="none" stroke="midnightblue" d="M257.853,-292.083C256.131,-284.927 253.653,-274.635 251.5,-265.691"/>
<polygon fill="midnightblue" stroke="midnightblue" points="254.85,-264.654 249.107,-255.751 248.045,-266.293 254.85,-264.654"/>
</g>
<!-- Node20&#45;&gt;Node3 -->
<g id="edge36" class="edge"><title>Node20&#45;&gt;Node3</title>
<path fill="none" stroke="midnightblue" d="M285.663,-236.444C331.789,-226.235 408.361,-209.289 453.823,-199.228"/>
<polygon fill="midnightblue" stroke="midnightblue" points="454.843,-202.587 463.851,-197.008 453.331,-195.752 454.843,-202.587"/>
</g>
<!-- Node20&#45;&gt;Node6 -->
<g id="edge29" class="edge"><title>Node20&#45;&gt;Node6</title>
<path fill="none" stroke="midnightblue" d="M264.031,-236.324C281.03,-227.664 307.376,-214.242 326.993,-204.249"/>
<polygon fill="midnightblue" stroke="midnightblue" points="328.69,-207.312 336.012,-199.655 325.512,-201.075 328.69,-207.312"/>
</g>
<!-- Node21 -->
<g id="node21" class="node"><title>Node21</title>
<polygon fill="none" stroke="#bfbfbf" points="0,-180.5 0,-199.5 44,-199.5 44,-180.5 0,-180.5"/>
<text text-anchor="middle" x="22" y="-187.5" font-family="Helvetica,sans-Serif" font-size="10.00">vector</text>
</g>
<!-- Node20&#45;&gt;Node21 -->
<g id="edge30" class="edge"><title>Node20&#45;&gt;Node21</title>
<path fill="none" stroke="midnightblue" d="M207.46,-236.492C170.22,-228.332 112.664,-215.341 54.098,-200.186"/>
<polygon fill="midnightblue" stroke="midnightblue" points="54.8702,-196.77 44.3107,-197.635 53.1048,-203.544 54.8702,-196.77"/>
</g>
<!-- Node22 -->
<g id="node22" class="node"><title>Node22</title>
<g id="a_node22"><a xlink:href="fourier__direction_8hh.html" target="_top" xlink:title="apmath/fourier_direction.hh">
<polygon fill="none" stroke="black" points="62,-180.5 62,-199.5 196,-199.5 196,-180.5 62,-180.5"/>
<text text-anchor="middle" x="129" y="-187.5" font-family="Helvetica,sans-Serif" font-size="10.00">apmath/fourier_direction.hh</text>
</a>
</g>
</g>
<!-- Node20&#45;&gt;Node22 -->
<g id="edge31" class="edge"><title>Node20&#45;&gt;Node22</title>
<path fill="none" stroke="midnightblue" d="M228.303,-236.444C209.056,-227.636 178.848,-213.812 156.8,-203.722"/>
<polygon fill="midnightblue" stroke="midnightblue" points="158.16,-200.495 147.61,-199.516 155.247,-206.86 158.16,-200.495"/>
</g>
<!-- Node23 -->
<g id="node23" class="node"><title>Node23</title>
<g id="a_node23"><a xlink:href="bits_2fourier__gsl_8hh.html" target="_top" xlink:title="bits/fourier_gsl.hh">
<polygon fill="none" stroke="black" points="214,-180.5 214,-199.5 308,-199.5 308,-180.5 214,-180.5"/>
<text text-anchor="middle" x="261" y="-187.5" font-family="Helvetica,sans-Serif" font-size="10.00">bits/fourier_gsl.hh</text>
</a>
</g>
</g>
<!-- Node20&#45;&gt;Node23 -->
<g id="edge32" class="edge"><title>Node20&#45;&gt;Node23</title>
<path fill="none" stroke="midnightblue" d="M249.312,-236.083C251.167,-228.927 253.835,-218.635 256.154,-209.691"/>
<polygon fill="midnightblue" stroke="midnightblue" points="259.609,-210.309 258.731,-199.751 252.834,-208.553 259.609,-210.309"/>
</g>
<!-- Node24 -->
<g id="node24" class="node"><title>Node24</title>
<polygon fill="none" stroke="#bfbfbf" points="82,-118.5 82,-137.5 192,-137.5 192,-118.5 82,-118.5"/>
<text text-anchor="middle" x="137" y="-125.5" font-family="Helvetica,sans-Serif" font-size="10.00">gsl/gsl_fft_complex.h</text>
</g>
<!-- Node23&#45;&gt;Node24 -->
<g id="edge33" class="edge"><title>Node23&#45;&gt;Node24</title>
<path fill="none" stroke="midnightblue" d="M243.234,-180.403C222.516,-170.379 188.048,-153.701 164.011,-142.07"/>
<polygon fill="midnightblue" stroke="midnightblue" points="165.259,-138.786 154.733,-137.581 162.21,-145.087 165.259,-138.786"/>
</g>
<!-- Node25 -->
<g id="node25" class="node"><title>Node25</title>
<polygon fill="none" stroke="#bfbfbf" points="210.5,-113 210.5,-143 311.5,-143 311.5,-113 210.5,-113"/>
<text text-anchor="start" x="218.5" y="-131" font-family="Helvetica,sans-Serif" font-size="10.00">gsl/gsl_fft_complex</text>
<text text-anchor="middle" x="261" y="-120" font-family="Helvetica,sans-Serif" font-size="10.00">_float.h</text>
</g>
<!-- Node23&#45;&gt;Node25 -->
<g id="edge34" class="edge"><title>Node23&#45;&gt;Node25</title>
<path fill="none" stroke="midnightblue" d="M261,-180.403C261,-173.341 261,-162.975 261,-153.399"/>
<polygon fill="midnightblue" stroke="midnightblue" points="264.5,-153.141 261,-143.141 257.5,-153.141 264.5,-153.141"/>
</g>
<!-- Node26 -->
<g id="node26" class="node"><title>Node26</title>
<polygon fill="none" stroke="#bfbfbf" points="330,-118.5 330,-137.5 392,-137.5 392,-118.5 330,-118.5"/>
<text text-anchor="middle" x="361" y="-125.5" font-family="Helvetica,sans-Serif" font-size="10.00">type_traits</text>
</g>
<!-- Node23&#45;&gt;Node26 -->
<g id="edge35" class="edge"><title>Node23&#45;&gt;Node26</title>
<path fill="none" stroke="midnightblue" d="M275.328,-180.403C291.664,-170.601 318.602,-154.439 337.912,-142.853"/>
<polygon fill="midnightblue" stroke="midnightblue" points="339.925,-145.727 346.699,-137.581 336.323,-139.724 339.925,-145.727"/>
</g>
<!-- Node27&#45;&gt;Node3 -->
<g id="edge38" class="edge"><title>Node27&#45;&gt;Node3</title>
<path fill="none" stroke="midnightblue" d="M533.581,-348.075C526.497,-321.945 505.696,-245.211 496.036,-209.577"/>
<polygon fill="midnightblue" stroke="midnightblue" points="499.317,-208.304 493.323,-199.568 492.561,-210.136 499.317,-208.304"/>
</g>
</g>
</svg>
