<?xml version="1.0" encoding="UTF-8" standalone="no"?>
<!DOCTYPE svg PUBLIC "-//W3C//DTD SVG 1.1//EN"
 "http://www.w3.org/Graphics/SVG/1.1/DTD/svg11.dtd">
<!-- Generated by graphviz version 2.36.0 (20140111.2315)
 -->
<!-- Title: /home/travis/build/igankevich/arma/src/velocity/high_amplitude_solver.cc Pages: 1 -->
<svg width="849pt" height="522pt"
 viewBox="0.00 0.00 848.86 522.00" xmlns="http://www.w3.org/2000/svg" xmlns:xlink="http://www.w3.org/1999/xlink">
<g id="graph0" class="graph" transform="scale(1 1) rotate(0) translate(4 518)">
<title>/home/travis/build/igankevich/arma/src/velocity/high_amplitude_solver.cc</title>
<!-- Node1 -->
<g id="node1" class="node"><title>Node1</title>
<polygon fill="#bfbfbf" stroke="black" points="439,-461 439,-513 561,-513 561,-461 439,-461"/>
<text text-anchor="start" x="447" y="-501" font-family="Helvetica,sans-Serif" font-size="10.00">/home/travis/build</text>
<text text-anchor="start" x="447" y="-490" font-family="Helvetica,sans-Serif" font-size="10.00">/igankevich/arma/src</text>
<text text-anchor="start" x="447" y="-479" font-family="Helvetica,sans-Serif" font-size="10.00">/velocity/high_amplitude</text>
<text text-anchor="middle" x="500" y="-468" font-family="Helvetica,sans-Serif" font-size="10.00">_solver.cc</text>
</g>
<!-- Node2 -->
<g id="node2" class="node"><title>Node2</title>
<g id="a_node2"><a xlink:href="high__amplitude__solver_8hh.html" target="_top" xlink:title="high_amplitude_solver.hh">
<polygon fill="none" stroke="black" points="436.5,-404.5 436.5,-423.5 563.5,-423.5 563.5,-404.5 436.5,-404.5"/>
<text text-anchor="middle" x="500" y="-411.5" font-family="Helvetica,sans-Serif" font-size="10.00">high_amplitude_solver.hh</text>
</a>
</g>
</g>
<!-- Node1&#45;&gt;Node2 -->
<g id="edge1" class="edge"><title>Node1&#45;&gt;Node2</title>
<path fill="none" stroke="midnightblue" d="M500,-460.768C500,-451.89 500,-442.074 500,-433.816"/>
<polygon fill="midnightblue" stroke="midnightblue" points="503.5,-433.757 500,-423.757 496.5,-433.757 503.5,-433.757"/>
</g>
<!-- Node6 -->
<g id="node6" class="node"><title>Node6</title>
<polygon fill="none" stroke="#bfbfbf" points="97.5,-180.5 97.5,-199.5 150.5,-199.5 150.5,-180.5 97.5,-180.5"/>
<text text-anchor="middle" x="124" y="-187.5" font-family="Helvetica,sans-Serif" font-size="10.00">complex</text>
</g>
<!-- Node1&#45;&gt;Node6 -->
<g id="edge39" class="edge"><title>Node1&#45;&gt;Node6</title>
<path fill="none" stroke="midnightblue" d="M438.889,-475.33C343.744,-456.96 171,-415.787 171,-359 171,-359 171,-359 171,-301 171,-265.702 150.282,-228.786 136.356,-207.96"/>
<polygon fill="midnightblue" stroke="midnightblue" points="139.117,-205.8 130.535,-199.587 133.37,-209.796 139.117,-205.8"/>
</g>
<!-- Node29 -->
<g id="node29" class="node"><title>Node29</title>
<g id="a_node29"><a xlink:href="derivative_8hh.html" target="_top" xlink:title="derivative.hh">
<polygon fill="none" stroke="black" points="723,-348.5 723,-367.5 795,-367.5 795,-348.5 723,-348.5"/>
<text text-anchor="middle" x="759" y="-355.5" font-family="Helvetica,sans-Serif" font-size="10.00">derivative.hh</text>
</a>
</g>
</g>
<!-- Node1&#45;&gt;Node29 -->
<g id="edge37" class="edge"><title>Node1&#45;&gt;Node29</title>
<path fill="none" stroke="midnightblue" d="M551.17,-460.909C605.604,-434.217 689.615,-393.023 732.233,-372.125"/>
<polygon fill="midnightblue" stroke="midnightblue" points="733.967,-375.173 741.405,-367.628 730.885,-368.888 733.967,-375.173"/>
</g>
<!-- Node3 -->
<g id="node3" class="node"><title>Node3</title>
<g id="a_node3"><a xlink:href="types_8hh.html" target="_top" xlink:title="types.hh">
<polygon fill="none" stroke="black" points="668,-180.5 668,-199.5 722,-199.5 722,-180.5 668,-180.5"/>
<text text-anchor="middle" x="695" y="-187.5" font-family="Helvetica,sans-Serif" font-size="10.00">types.hh</text>
</a>
</g>
</g>
<!-- Node2&#45;&gt;Node3 -->
<g id="edge2" class="edge"><title>Node2&#45;&gt;Node3</title>
<path fill="none" stroke="midnightblue" d="M511.779,-404.343C540.902,-382.429 617.236,-321.804 663,-256 673.2,-241.333 681.932,-222.933 687.685,-209.457"/>
<polygon fill="midnightblue" stroke="midnightblue" points="691.061,-210.45 691.632,-199.87 684.588,-207.785 691.061,-210.45"/>
</g>
<!-- Node5 -->
<g id="node5" class="node"><title>Node5</title>
<g id="a_node5"><a xlink:href="linear__solver_8hh.html" target="_top" xlink:title="linear_solver.hh">
<polygon fill="none" stroke="black" points="412.5,-348.5 412.5,-367.5 497.5,-367.5 497.5,-348.5 412.5,-348.5"/>
<text text-anchor="middle" x="455" y="-355.5" font-family="Helvetica,sans-Serif" font-size="10.00">linear_solver.hh</text>
</a>
</g>
</g>
<!-- Node2&#45;&gt;Node5 -->
<g id="edge4" class="edge"><title>Node2&#45;&gt;Node5</title>
<path fill="none" stroke="midnightblue" d="M492.569,-404.083C486.147,-396.377 476.694,-385.033 468.878,-375.653"/>
<polygon fill="midnightblue" stroke="midnightblue" points="471.383,-373.193 462.293,-367.751 466.006,-377.674 471.383,-373.193"/>
</g>
<!-- Node4 -->
<g id="node4" class="node"><title>Node4</title>
<polygon fill="none" stroke="#bfbfbf" points="671,-0.5 671,-19.5 739,-19.5 739,-0.5 671,-0.5"/>
<text text-anchor="middle" x="705" y="-7.5" font-family="Helvetica,sans-Serif" font-size="10.00">blitz/array.h</text>
</g>
<!-- Node3&#45;&gt;Node4 -->
<g id="edge3" class="edge"><title>Node3&#45;&gt;Node4</title>
<path fill="none" stroke="midnightblue" d="M722.07,-188.22C752.58,-185.715 800.925,-176.488 824,-144 846.648,-112.113 846.233,-88.1771 824,-56 807.262,-31.7763 775.689,-20.5784 749.269,-15.409"/>
<polygon fill="midnightblue" stroke="midnightblue" points="749.516,-11.9001 739.067,-13.6527 748.328,-18.7986 749.516,-11.9001"/>
</g>
<!-- Node5&#45;&gt;Node6 -->
<g id="edge5" class="edge"><title>Node5&#45;&gt;Node6</title>
<path fill="none" stroke="midnightblue" d="M437.67,-348.309C383.265,-321.024 215.616,-236.947 150.368,-204.224"/>
<polygon fill="midnightblue" stroke="midnightblue" points="151.666,-200.96 141.158,-199.605 148.528,-207.217 151.666,-200.96"/>
</g>
<!-- Node7 -->
<g id="node7" class="node"><title>Node7</title>
<g id="a_node7"><a xlink:href="basic__solver_8hh.html" target="_top" xlink:title="basic_solver.hh">
<polygon fill="none" stroke="black" points="516.5,-292.5 516.5,-311.5 601.5,-311.5 601.5,-292.5 516.5,-292.5"/>
<text text-anchor="middle" x="559" y="-299.5" font-family="Helvetica,sans-Serif" font-size="10.00">basic_solver.hh</text>
</a>
</g>
</g>
<!-- Node5&#45;&gt;Node7 -->
<g id="edge6" class="edge"><title>Node5&#45;&gt;Node7</title>
<path fill="none" stroke="midnightblue" d="M471.709,-348.324C488.312,-339.703 514.002,-326.364 533.22,-316.386"/>
<polygon fill="midnightblue" stroke="midnightblue" points="535.07,-319.369 542.332,-311.655 531.844,-313.156 535.07,-319.369"/>
</g>
<!-- Node21 -->
<g id="node21" class="node"><title>Node21</title>
<g id="a_node21"><a xlink:href="fourier_8hh.html" target="_top" xlink:title="fourier.hh">
<polygon fill="none" stroke="black" points="404.5,-292.5 404.5,-311.5 461.5,-311.5 461.5,-292.5 404.5,-292.5"/>
<text text-anchor="middle" x="433" y="-299.5" font-family="Helvetica,sans-Serif" font-size="10.00">fourier.hh</text>
</a>
</g>
</g>
<!-- Node5&#45;&gt;Node21 -->
<g id="edge27" class="edge"><title>Node5&#45;&gt;Node21</title>
<path fill="none" stroke="midnightblue" d="M451.367,-348.083C448.388,-340.77 444.074,-330.181 440.375,-321.103"/>
<polygon fill="midnightblue" stroke="midnightblue" points="443.58,-319.691 436.565,-311.751 437.097,-322.333 443.58,-319.691"/>
</g>
<!-- Node7&#45;&gt;Node3 -->
<g id="edge7" class="edge"><title>Node7&#45;&gt;Node3</title>
<path fill="none" stroke="midnightblue" d="M577.987,-292.422C594.724,-284.358 619.288,-271.267 638,-256 655.363,-241.835 671.86,-222.084 682.596,-208.081"/>
<polygon fill="midnightblue" stroke="midnightblue" points="685.585,-209.929 688.771,-199.825 679.979,-205.737 685.585,-209.929"/>
</g>
<!-- Node8 -->
<g id="node8" class="node"><title>Node8</title>
<g id="a_node8"><a xlink:href="domain_8hh.html" target="_top" xlink:title="domain.hh">
<polygon fill="none" stroke="black" points="495,-180.5 495,-199.5 557,-199.5 557,-180.5 495,-180.5"/>
<text text-anchor="middle" x="526" y="-187.5" font-family="Helvetica,sans-Serif" font-size="10.00">domain.hh</text>
</a>
</g>
</g>
<!-- Node7&#45;&gt;Node8 -->
<g id="edge8" class="edge"><title>Node7&#45;&gt;Node8</title>
<path fill="none" stroke="midnightblue" d="M546.503,-292.302C536.126,-284.251 522.113,-271.245 516,-256 509.965,-240.948 513.705,-222.591 518.23,-209.228"/>
<polygon fill="midnightblue" stroke="midnightblue" points="521.555,-210.332 521.857,-199.741 515.017,-207.832 521.555,-210.332"/>
</g>
<!-- Node18 -->
<g id="node18" class="node"><title>Node18</title>
<g id="a_node18"><a xlink:href="discrete__function_8hh.html" target="_top" xlink:title="discrete_function.hh">
<polygon fill="none" stroke="black" points="525,-236.5 525,-255.5 629,-255.5 629,-236.5 525,-236.5"/>
<text text-anchor="middle" x="577" y="-243.5" font-family="Helvetica,sans-Serif" font-size="10.00">discrete_function.hh</text>
</a>
</g>
</g>
<!-- Node7&#45;&gt;Node18 -->
<g id="edge20" class="edge"><title>Node7&#45;&gt;Node18</title>
<path fill="none" stroke="midnightblue" d="M561.972,-292.083C564.384,-284.849 567.864,-274.409 570.868,-265.397"/>
<polygon fill="midnightblue" stroke="midnightblue" points="574.241,-266.345 574.083,-255.751 567.6,-264.131 574.241,-266.345"/>
</g>
<!-- Node8&#45;&gt;Node4 -->
<g id="edge13" class="edge"><title>Node8&#45;&gt;Node4</title>
<path fill="none" stroke="midnightblue" d="M526.232,-180.165C527.335,-156.603 533.602,-91.6413 569,-56 593.3,-31.5336 631.172,-20.3694 660.787,-15.2751"/>
<polygon fill="midnightblue" stroke="midnightblue" points="661.534,-18.7013 670.881,-13.7145 660.464,-11.7834 661.534,-18.7013"/>
</g>
<!-- Node9 -->
<g id="node9" class="node"><title>Node9</title>
<polygon fill="none" stroke="#bfbfbf" points="328.5,-118.5 328.5,-137.5 377.5,-137.5 377.5,-118.5 328.5,-118.5"/>
<text text-anchor="middle" x="353" y="-125.5" font-family="Helvetica,sans-Serif" font-size="10.00">cstddef</text>
</g>
<!-- Node8&#45;&gt;Node9 -->
<g id="edge9" class="edge"><title>Node8&#45;&gt;Node9</title>
<path fill="none" stroke="midnightblue" d="M496.68,-180.462C468.339,-171.986 424.328,-158.234 387,-144 385.101,-143.276 383.155,-142.503 381.201,-141.704"/>
<polygon fill="midnightblue" stroke="midnightblue" points="382.135,-138.297 371.563,-137.6 379.392,-144.738 382.135,-138.297"/>
</g>
<!-- Node10 -->
<g id="node10" class="node"><title>Node10</title>
<polygon fill="none" stroke="#bfbfbf" points="662.5,-118.5 662.5,-137.5 711.5,-137.5 711.5,-118.5 662.5,-118.5"/>
<text text-anchor="middle" x="687" y="-125.5" font-family="Helvetica,sans-Serif" font-size="10.00">istream</text>
</g>
<!-- Node8&#45;&gt;Node10 -->
<g id="edge10" class="edge"><title>Node8&#45;&gt;Node10</title>
<path fill="none" stroke="midnightblue" d="M551.994,-180.426C577.813,-171.761 618.433,-157.727 653,-144 654.889,-143.25 656.828,-142.457 658.775,-141.644"/>
<polygon fill="midnightblue" stroke="midnightblue" points="660.596,-144.671 668.401,-137.506 657.831,-138.24 660.596,-144.671"/>
</g>
<!-- Node11 -->
<g id="node11" class="node"><title>Node11</title>
<polygon fill="none" stroke="#bfbfbf" points="396,-118.5 396,-137.5 448,-137.5 448,-118.5 396,-118.5"/>
<text text-anchor="middle" x="422" y="-125.5" font-family="Helvetica,sans-Serif" font-size="10.00">ostream</text>
</g>
<!-- Node8&#45;&gt;Node11 -->
<g id="edge11" class="edge"><title>Node8&#45;&gt;Node11</title>
<path fill="none" stroke="midnightblue" d="M511.099,-180.403C494.032,-170.557 465.839,-154.291 445.738,-142.695"/>
<polygon fill="midnightblue" stroke="midnightblue" points="447.284,-139.546 436.873,-137.581 443.786,-145.61 447.284,-139.546"/>
</g>
<!-- Node12 -->
<g id="node12" class="node"><title>Node12</title>
<polygon fill="none" stroke="#bfbfbf" points="466,-118.5 466,-137.5 516,-137.5 516,-118.5 466,-118.5"/>
<text text-anchor="middle" x="491" y="-125.5" font-family="Helvetica,sans-Serif" font-size="10.00">iomanip</text>
</g>
<!-- Node8&#45;&gt;Node12 -->
<g id="edge12" class="edge"><title>Node8&#45;&gt;Node12</title>
<path fill="none" stroke="midnightblue" d="M520.985,-180.403C515.839,-171.582 507.688,-157.608 501.182,-146.455"/>
<polygon fill="midnightblue" stroke="midnightblue" points="504.067,-144.455 496.005,-137.581 498.021,-147.982 504.067,-144.455"/>
</g>
<!-- Node13 -->
<g id="node13" class="node"><title>Node13</title>
<g id="a_node13"><a xlink:href="validators_8hh.html" target="_top" xlink:title="validators.hh">
<polygon fill="none" stroke="black" points="572,-118.5 572,-137.5 644,-137.5 644,-118.5 572,-118.5"/>
<text text-anchor="middle" x="608" y="-125.5" font-family="Helvetica,sans-Serif" font-size="10.00">validators.hh</text>
</a>
</g>
</g>
<!-- Node8&#45;&gt;Node13 -->
<g id="edge14" class="edge"><title>Node8&#45;&gt;Node13</title>
<path fill="none" stroke="midnightblue" d="M537.749,-180.403C550.901,-170.78 572.434,-155.024 588.198,-143.489"/>
<polygon fill="midnightblue" stroke="midnightblue" points="590.27,-146.31 596.273,-137.581 586.136,-140.661 590.27,-146.31"/>
</g>
<!-- Node14 -->
<g id="node14" class="node"><title>Node14</title>
<polygon fill="none" stroke="#bfbfbf" points="578.5,-56.5 578.5,-75.5 637.5,-75.5 637.5,-56.5 578.5,-56.5"/>
<text text-anchor="middle" x="608" y="-63.5" font-family="Helvetica,sans-Serif" font-size="10.00">stdexcept</text>
</g>
<!-- Node13&#45;&gt;Node14 -->
<g id="edge15" class="edge"><title>Node13&#45;&gt;Node14</title>
<path fill="none" stroke="midnightblue" d="M608,-118.403C608,-109.938 608,-96.7283 608,-85.8199"/>
<polygon fill="midnightblue" stroke="midnightblue" points="611.5,-85.5806 608,-75.5806 604.5,-85.5806 611.5,-85.5806"/>
</g>
<!-- Node15 -->
<g id="node15" class="node"><title>Node15</title>
<g id="a_node15"><a xlink:href="blitz_8hh.html" target="_top" xlink:title="blitz.hh">
<polygon fill="none" stroke="black" points="468,-56.5 468,-75.5 516,-75.5 516,-56.5 468,-56.5"/>
<text text-anchor="middle" x="492" y="-63.5" font-family="Helvetica,sans-Serif" font-size="10.00">blitz.hh</text>
</a>
</g>
</g>
<!-- Node13&#45;&gt;Node15 -->
<g id="edge16" class="edge"><title>Node13&#45;&gt;Node15</title>
<path fill="none" stroke="midnightblue" d="M591.38,-118.403C572.085,-108.423 540.041,-91.8487 517.569,-80.2253"/>
<polygon fill="midnightblue" stroke="midnightblue" points="519.079,-77.0661 508.589,-75.5806 515.863,-83.2836 519.079,-77.0661"/>
</g>
<!-- Node15&#45;&gt;Node4 -->
<g id="edge19" class="edge"><title>Node15&#45;&gt;Node4</title>
<path fill="none" stroke="midnightblue" d="M516.02,-58.9105C551.247,-49.9798 617.494,-33.1846 661.441,-22.0431"/>
<polygon fill="midnightblue" stroke="midnightblue" points="662.447,-25.399 671.28,-19.5488 660.726,-18.6136 662.447,-25.399"/>
</g>
<!-- Node16 -->
<g id="node16" class="node"><title>Node16</title>
<polygon fill="none" stroke="#bfbfbf" points="504,-0.5 504,-19.5 548,-19.5 548,-0.5 504,-0.5"/>
<text text-anchor="middle" x="526" y="-7.5" font-family="Helvetica,sans-Serif" font-size="10.00">cmath</text>
</g>
<!-- Node15&#45;&gt;Node16 -->
<g id="edge17" class="edge"><title>Node15&#45;&gt;Node16</title>
<path fill="none" stroke="midnightblue" d="M497.614,-56.083C502.367,-48.5341 509.318,-37.4948 515.152,-28.2298"/>
<polygon fill="midnightblue" stroke="midnightblue" points="518.124,-30.0783 520.49,-19.7511 512.2,-26.3486 518.124,-30.0783"/>
</g>
<!-- Node17 -->
<g id="node17" class="node"><title>Node17</title>
<polygon fill="none" stroke="#bfbfbf" points="430,-0.5 430,-19.5 486,-19.5 486,-0.5 430,-0.5"/>
<text text-anchor="middle" x="458" y="-7.5" font-family="Helvetica,sans-Serif" font-size="10.00">algorithm</text>
</g>
<!-- Node15&#45;&gt;Node17 -->
<g id="edge18" class="edge"><title>Node15&#45;&gt;Node17</title>
<path fill="none" stroke="midnightblue" d="M486.386,-56.083C481.633,-48.5341 474.682,-37.4948 468.848,-28.2298"/>
<polygon fill="midnightblue" stroke="midnightblue" points="471.8,-26.3486 463.51,-19.7511 465.876,-30.0783 471.8,-26.3486"/>
</g>
<!-- Node18&#45;&gt;Node3 -->
<g id="edge21" class="edge"><title>Node18&#45;&gt;Node3</title>
<path fill="none" stroke="midnightblue" d="M595.697,-236.444C614.944,-227.636 645.152,-213.812 667.2,-203.722"/>
<polygon fill="midnightblue" stroke="midnightblue" points="668.753,-206.86 676.39,-199.516 665.84,-200.495 668.753,-206.86"/>
</g>
<!-- Node19 -->
<g id="node19" class="node"><title>Node19</title>
<g id="a_node19"><a xlink:href="grid_8hh.html" target="_top" xlink:title="grid.hh">
<polygon fill="none" stroke="black" points="604,-180.5 604,-199.5 650,-199.5 650,-180.5 604,-180.5"/>
<text text-anchor="middle" x="627" y="-187.5" font-family="Helvetica,sans-Serif" font-size="10.00">grid.hh</text>
</a>
</g>
</g>
<!-- Node18&#45;&gt;Node19 -->
<g id="edge22" class="edge"><title>Node18&#45;&gt;Node19</title>
<path fill="none" stroke="midnightblue" d="M585.256,-236.083C592.465,-228.298 603.11,-216.801 611.846,-207.367"/>
<polygon fill="midnightblue" stroke="midnightblue" points="614.671,-209.467 618.897,-199.751 609.535,-204.711 614.671,-209.467"/>
</g>
<!-- Node19&#45;&gt;Node4 -->
<g id="edge25" class="edge"><title>Node19&#45;&gt;Node4</title>
<path fill="none" stroke="midnightblue" d="M650.066,-182.489C653.07,-181.648 656.108,-180.801 659,-180 717.603,-163.768 754.089,-192.326 791,-144 822.256,-103.079 761.765,-50.8573 727.029,-25.765"/>
<polygon fill="midnightblue" stroke="midnightblue" points="728.613,-22.6 718.418,-19.7155 724.589,-28.3279 728.613,-22.6"/>
</g>
<!-- Node19&#45;&gt;Node10 -->
<g id="edge24" class="edge"><title>Node19&#45;&gt;Node10</title>
<path fill="none" stroke="midnightblue" d="M635.597,-180.403C644.864,-171.136 659.817,-156.183 671.212,-144.788"/>
<polygon fill="midnightblue" stroke="midnightblue" points="673.823,-147.127 678.419,-137.581 668.873,-142.177 673.823,-147.127"/>
</g>
<!-- Node19&#45;&gt;Node13 -->
<g id="edge26" class="edge"><title>Node19&#45;&gt;Node13</title>
<path fill="none" stroke="midnightblue" d="M624.278,-180.403C621.541,-171.76 617.237,-158.17 613.742,-147.134"/>
<polygon fill="midnightblue" stroke="midnightblue" points="617.073,-146.057 610.717,-137.581 610.399,-148.171 617.073,-146.057"/>
</g>
<!-- Node20 -->
<g id="node20" class="node"><title>Node20</title>
<polygon fill="none" stroke="#bfbfbf" points="730,-118.5 730,-137.5 782,-137.5 782,-118.5 730,-118.5"/>
<text text-anchor="middle" x="756" y="-125.5" font-family="Helvetica,sans-Serif" font-size="10.00">stddef.h</text>
</g>
<!-- Node19&#45;&gt;Node20 -->
<g id="edge23" class="edge"><title>Node19&#45;&gt;Node20</title>
<path fill="none" stroke="midnightblue" d="M645.483,-180.403C667.132,-170.334 703.213,-153.552 728.232,-141.915"/>
<polygon fill="midnightblue" stroke="midnightblue" points="729.961,-144.971 737.552,-137.581 727.008,-138.624 729.961,-144.971"/>
</g>
<!-- Node22 -->
<g id="node22" class="node"><title>Node22</title>
<g id="a_node22"><a xlink:href="apmath_2fourier__gsl_8hh.html" target="_top" xlink:title="apmath/fourier_gsl.hh">
<polygon fill="none" stroke="black" points="324,-236.5 324,-255.5 434,-255.5 434,-236.5 324,-236.5"/>
<text text-anchor="middle" x="379" y="-243.5" font-family="Helvetica,sans-Serif" font-size="10.00">apmath/fourier_gsl.hh</text>
</a>
</g>
</g>
<!-- Node21&#45;&gt;Node22 -->
<g id="edge28" class="edge"><title>Node21&#45;&gt;Node22</title>
<path fill="none" stroke="midnightblue" d="M424.083,-292.083C416.22,-284.22 404.569,-272.569 395.081,-263.081"/>
<polygon fill="midnightblue" stroke="midnightblue" points="397.297,-260.347 387.751,-255.751 392.347,-265.297 397.297,-260.347"/>
</g>
<!-- Node22&#45;&gt;Node3 -->
<g id="edge36" class="edge"><title>Node22&#45;&gt;Node3</title>
<path fill="none" stroke="midnightblue" d="M434.242,-237.547C488.744,-229.873 574.617,-216.925 658.035,-200.054"/>
<polygon fill="midnightblue" stroke="midnightblue" points="658.833,-203.463 667.93,-198.031 657.432,-196.605 658.833,-203.463"/>
</g>
<!-- Node22&#45;&gt;Node6 -->
<g id="edge29" class="edge"><title>Node22&#45;&gt;Node6</title>
<path fill="none" stroke="midnightblue" d="M334.838,-236.496C292.601,-228.234 226.886,-215.05 160.503,-200.038"/>
<polygon fill="midnightblue" stroke="midnightblue" points="161.233,-196.615 150.706,-197.81 159.681,-203.441 161.233,-196.615"/>
</g>
<!-- Node23 -->
<g id="node23" class="node"><title>Node23</title>
<polygon fill="none" stroke="#bfbfbf" points="169,-180.5 169,-199.5 213,-199.5 213,-180.5 169,-180.5"/>
<text text-anchor="middle" x="191" y="-187.5" font-family="Helvetica,sans-Serif" font-size="10.00">vector</text>
</g>
<!-- Node22&#45;&gt;Node23 -->
<g id="edge30" class="edge"><title>Node22&#45;&gt;Node23</title>
<path fill="none" stroke="midnightblue" d="M349.185,-236.487C319.511,-228.007 272.414,-214.529 222.661,-200.184"/>
<polygon fill="midnightblue" stroke="midnightblue" points="223.591,-196.81 213.013,-197.401 221.651,-203.535 223.591,-196.81"/>
</g>
<!-- Node24 -->
<g id="node24" class="node"><title>Node24</title>
<g id="a_node24"><a xlink:href="fourier__direction_8hh.html" target="_top" xlink:title="apmath/fourier_direction.hh">
<polygon fill="none" stroke="black" points="231,-180.5 231,-199.5 365,-199.5 365,-180.5 231,-180.5"/>
<text text-anchor="middle" x="298" y="-187.5" font-family="Helvetica,sans-Serif" font-size="10.00">apmath/fourier_direction.hh</text>
</a>
</g>
</g>
<!-- Node22&#45;&gt;Node24 -->
<g id="edge31" class="edge"><title>Node22&#45;&gt;Node24</title>
<path fill="none" stroke="midnightblue" d="M365.986,-236.324C353.468,-227.979 334.318,-215.212 319.529,-205.352"/>
<polygon fill="midnightblue" stroke="midnightblue" points="321.244,-202.289 310.982,-199.655 317.361,-208.114 321.244,-202.289"/>
</g>
<!-- Node25 -->
<g id="node25" class="node"><title>Node25</title>
<g id="a_node25"><a xlink:href="bits_2fourier__gsl_8hh.html" target="_top" xlink:title="bits/fourier_gsl.hh">
<polygon fill="none" stroke="black" points="383,-180.5 383,-199.5 477,-199.5 477,-180.5 383,-180.5"/>
<text text-anchor="middle" x="430" y="-187.5" font-family="Helvetica,sans-Serif" font-size="10.00">bits/fourier_gsl.hh</text>
</a>
</g>
</g>
<!-- Node22&#45;&gt;Node25 -->
<g id="edge32" class="edge"><title>Node22&#45;&gt;Node25</title>
<path fill="none" stroke="midnightblue" d="M387.422,-236.083C394.848,-228.22 405.852,-216.569 414.812,-207.081"/>
<polygon fill="midnightblue" stroke="midnightblue" points="417.413,-209.424 421.735,-199.751 412.324,-204.618 417.413,-209.424"/>
</g>
<!-- Node26 -->
<g id="node26" class="node"><title>Node26</title>
<polygon fill="none" stroke="#bfbfbf" points="0,-118.5 0,-137.5 110,-137.5 110,-118.5 0,-118.5"/>
<text text-anchor="middle" x="55" y="-125.5" font-family="Helvetica,sans-Serif" font-size="10.00">gsl/gsl_fft_complex.h</text>
</g>
<!-- Node25&#45;&gt;Node26 -->
<g id="edge33" class="edge"><title>Node25&#45;&gt;Node26</title>
<path fill="none" stroke="midnightblue" d="M382.956,-181.373C379.926,-180.902 376.921,-180.441 374,-180 260.825,-162.918 231.499,-165.08 119,-144 112.368,-142.757 105.386,-141.288 98.5683,-139.764"/>
<polygon fill="midnightblue" stroke="midnightblue" points="99.2882,-136.339 88.7585,-137.511 97.7214,-143.161 99.2882,-136.339"/>
</g>
<!-- Node27 -->
<g id="node27" class="node"><title>Node27</title>
<polygon fill="none" stroke="#bfbfbf" points="128.5,-113 128.5,-143 229.5,-143 229.5,-113 128.5,-113"/>
<text text-anchor="start" x="136.5" y="-131" font-family="Helvetica,sans-Serif" font-size="10.00">gsl/gsl_fft_complex</text>
<text text-anchor="middle" x="179" y="-120" font-family="Helvetica,sans-Serif" font-size="10.00">_float.h</text>
</g>
<!-- Node25&#45;&gt;Node27 -->
<g id="edge34" class="edge"><title>Node25&#45;&gt;Node27</title>
<path fill="none" stroke="midnightblue" d="M392.992,-180.438C356.518,-171.965 298.942,-158.496 239.643,-144.139"/>
<polygon fill="midnightblue" stroke="midnightblue" points="240.27,-140.689 229.727,-141.733 238.62,-147.492 240.27,-140.689"/>
</g>
<!-- Node28 -->
<g id="node28" class="node"><title>Node28</title>
<polygon fill="none" stroke="#bfbfbf" points="248,-118.5 248,-137.5 310,-137.5 310,-118.5 248,-118.5"/>
<text text-anchor="middle" x="279" y="-125.5" font-family="Helvetica,sans-Serif" font-size="10.00">type_traits</text>
</g>
<!-- Node25&#45;&gt;Node28 -->
<g id="edge35" class="edge"><title>Node25&#45;&gt;Node28</title>
<path fill="none" stroke="midnightblue" d="M408.365,-180.403C382.576,-170.156 339.289,-152.956 309.96,-141.302"/>
<polygon fill="midnightblue" stroke="midnightblue" points="311.18,-138.021 300.594,-137.581 308.595,-144.526 311.18,-138.021"/>
</g>
<!-- Node29&#45;&gt;Node3 -->
<g id="edge38" class="edge"><title>Node29&#45;&gt;Node3</title>
<path fill="none" stroke="midnightblue" d="M755.559,-348.075C745.441,-321.832 715.644,-244.545 701.985,-209.117"/>
<polygon fill="midnightblue" stroke="midnightblue" points="705.166,-207.64 698.303,-199.568 698.635,-210.158 705.166,-207.64"/>
</g>
</g>
</svg>
