<?xml version="1.0" encoding="UTF-8" standalone="no"?>
<!DOCTYPE svg PUBLIC "-//W3C//DTD SVG 1.1//EN"
 "http://www.w3.org/Graphics/SVG/1.1/DTD/svg11.dtd">
<!-- Generated by graphviz version 2.40.1 (20161225.0304)
 -->
<!-- Title: src/imgui/imgui.h Pages: 1 -->
<svg width="482pt" height="84pt"
 viewBox="0.00 0.00 481.50 84.00" xmlns="http://www.w3.org/2000/svg" xmlns:xlink="http://www.w3.org/1999/xlink">
<g id="graph0" class="graph" transform="scale(1 1) rotate(0) translate(4 80)">
<title>src/imgui/imgui.h</title>
<!-- Node7 -->
<g id="node1" class="node">
<title>Node7</title>
<polygon fill="#bfbfbf" stroke="#000000" points="207,-56.5 207,-75.5 298,-75.5 298,-56.5 207,-56.5"/>
<text text-anchor="middle" x="252.5" y="-63.5" font-family="Helvetica,sans-Serif" font-size="10.00" fill="#000000">src/imgui/imgui.h</text>
</g>
<!-- Node8 -->
<g id="node2" class="node">
<title>Node8</title>
<g id="a_node2"><a xlink:href="imgui_8cpp.html" target="_top" xlink:title="src/imgui/imgui.cpp">
<polygon fill="none" stroke="#000000" points="0,-.5 0,-19.5 101,-19.5 101,-.5 0,-.5"/>
<text text-anchor="middle" x="50.5" y="-7.5" font-family="Helvetica,sans-Serif" font-size="10.00" fill="#000000">src/imgui/imgui.cpp</text>
</a>
</g>
</g>
<!-- Node7&#45;&gt;Node8 -->
<g id="edge1" class="edge">
<title>Node7&#45;&gt;Node8</title>
<path fill="none" stroke="#191970" d="M207.7289,-53.5882C170.6162,-43.2996 118.6371,-28.8895 84.7719,-19.5011"/>
<polygon fill="#191970" stroke="#191970" points="207.2034,-57.0745 217.775,-56.3733 209.0735,-50.3289 207.2034,-57.0745"/>
</g>
<!-- Node9 -->
<g id="node3" class="node">
<title>Node9</title>
<g id="a_node3"><a xlink:href="imgui__draw_8cpp.html" target="_top" xlink:title="src/imgui/imgui_draw.cpp">
<polygon fill="none" stroke="#000000" points="119,-.5 119,-19.5 246,-19.5 246,-.5 119,-.5"/>
<text text-anchor="middle" x="182.5" y="-7.5" font-family="Helvetica,sans-Serif" font-size="10.00" fill="#000000">src/imgui/imgui_draw.cpp</text>
</a>
</g>
</g>
<!-- Node7&#45;&gt;Node9 -->
<g id="edge2" class="edge">
<title>Node7&#45;&gt;Node9</title>
<path fill="none" stroke="#191970" d="M232.41,-49.928C220.1747,-40.1397 204.9493,-27.9595 194.5533,-19.6427"/>
<polygon fill="#191970" stroke="#191970" points="230.3118,-52.7316 240.3069,-56.2455 234.6847,-47.2655 230.3118,-52.7316"/>
</g>
<!-- Node10 -->
<g id="node4" class="node">
<title>Node10</title>
<g id="a_node4"><a xlink:href="imgui__sdl_8cpp.html" target="_top" xlink:title="src/imgui/imgui_sdl.cpp">
<polygon fill="none" stroke="#000000" points="264,-.5 264,-19.5 383,-19.5 383,-.5 264,-.5"/>
<text text-anchor="middle" x="323.5" y="-7.5" font-family="Helvetica,sans-Serif" font-size="10.00" fill="#000000">src/imgui/imgui_sdl.cpp</text>
</a>
</g>
</g>
<!-- Node7&#45;&gt;Node10 -->
<g id="edge3" class="edge">
<title>Node7&#45;&gt;Node10</title>
<path fill="none" stroke="#191970" d="M272.877,-49.928C285.2871,-40.1397 300.73,-27.9595 311.2745,-19.6427"/>
<polygon fill="#191970" stroke="#191970" points="270.5514,-47.3046 264.8673,-56.2455 274.8864,-52.8007 270.5514,-47.3046"/>
</g>
<!-- Node11 -->
<g id="node5" class="node">
<title>Node11</title>
<g id="a_node5"><a xlink:href="visual_8cc.html" target="_top" xlink:title="src/visual.cc">
<polygon fill="none" stroke="#000000" points="401.5,-.5 401.5,-19.5 473.5,-19.5 473.5,-.5 401.5,-.5"/>
<text text-anchor="middle" x="437.5" y="-7.5" font-family="Helvetica,sans-Serif" font-size="10.00" fill="#000000">src/visual.cc</text>
</a>
</g>
</g>
<!-- Node7&#45;&gt;Node11 -->
<g id="edge4" class="edge">
<title>Node7&#45;&gt;Node11</title>
<path fill="none" stroke="#191970" d="M293.9397,-53.4561C327.8991,-43.1765 375.2297,-28.8494 406.1124,-19.5011"/>
<polygon fill="#191970" stroke="#191970" points="292.8597,-50.1261 284.3026,-56.3733 294.8878,-56.8259 292.8597,-50.1261"/>
</g>
</g>
</svg>
