<?xml version="1.0" encoding="UTF-8" standalone="no"?>
<!DOCTYPE svg PUBLIC "-//W3C//DTD SVG 1.1//EN"
 "http://www.w3.org/Graphics/SVG/1.1/DTD/svg11.dtd">
<!-- Generated by graphviz version 2.40.1 (20161225.0304)
 -->
<!-- Title: src/imgui/imgui.h Pages: 1 -->
<svg width="410pt" height="84pt"
 viewBox="0.00 0.00 410.00 84.00" xmlns="http://www.w3.org/2000/svg" xmlns:xlink="http://www.w3.org/1999/xlink">
<g id="graph0" class="graph" transform="scale(1 1) rotate(0) translate(4 80)">
<title>src/imgui/imgui.h</title>
<!-- Node0 -->
<g id="node1" class="node">
<title>Node0</title>
<polygon fill="#bfbfbf" stroke="#000000" points="157.5,-56.5 157.5,-75.5 248.5,-75.5 248.5,-56.5 157.5,-56.5"/>
<text text-anchor="middle" x="203" y="-63.5" font-family="Helvetica,sans-Serif" font-size="10.00" fill="#000000">src/imgui/imgui.h</text>
</g>
<!-- Node1 -->
<g id="node2" class="node">
<title>Node1</title>
<g id="a_node2"><a xlink:href="imconfig_8h.html" target="_top" xlink:title="imconfig.h">
<polygon fill="none" stroke="#000000" points="0,-.5 0,-19.5 62,-19.5 62,-.5 0,-.5"/>
<text text-anchor="middle" x="31" y="-7.5" font-family="Helvetica,sans-Serif" font-size="10.00" fill="#000000">imconfig.h</text>
</a>
</g>
</g>
<!-- Node0&#45;&gt;Node1 -->
<g id="edge1" class="edge">
<title>Node0&#45;&gt;Node1</title>
<path fill="none" stroke="#191970" d="M173.4321,-56.3733C144.8312,-47.0613 101.3212,-32.8953 69.9181,-22.671"/>
<polygon fill="#191970" stroke="#191970" points="70.7743,-19.269 60.182,-19.5011 68.6072,-25.9251 70.7743,-19.269"/>
</g>
<!-- Node2 -->
<g id="node3" class="node">
<title>Node2</title>
<polygon fill="none" stroke="#bfbfbf" points="80,-.5 80,-19.5 124,-19.5 124,-.5 80,-.5"/>
<text text-anchor="middle" x="102" y="-7.5" font-family="Helvetica,sans-Serif" font-size="10.00" fill="#000000">float.h</text>
</g>
<!-- Node0&#45;&gt;Node2 -->
<g id="edge2" class="edge">
<title>Node0&#45;&gt;Node2</title>
<path fill="none" stroke="#191970" d="M185.4071,-56.2455C169.621,-47.4928 146.2361,-34.527 128.2413,-24.5496"/>
<polygon fill="#191970" stroke="#191970" points="129.8341,-21.4308 119.3913,-19.6427 126.4397,-27.5528 129.8341,-21.4308"/>
</g>
<!-- Node3 -->
<g id="node4" class="node">
<title>Node3</title>
<polygon fill="none" stroke="#bfbfbf" points="142,-.5 142,-19.5 194,-19.5 194,-.5 142,-.5"/>
<text text-anchor="middle" x="168" y="-7.5" font-family="Helvetica,sans-Serif" font-size="10.00" fill="#000000">stdarg.h</text>
</g>
<!-- Node0&#45;&gt;Node3 -->
<g id="edge3" class="edge">
<title>Node0&#45;&gt;Node3</title>
<path fill="none" stroke="#191970" d="M196.9035,-56.2455C192.0855,-48.5367 185.2249,-37.5598 179.3968,-28.2348"/>
<polygon fill="#191970" stroke="#191970" points="182.2947,-26.2677 174.0267,-19.6427 176.3587,-29.9777 182.2947,-26.2677"/>
</g>
<!-- Node4 -->
<g id="node5" class="node">
<title>Node4</title>
<polygon fill="none" stroke="#bfbfbf" points="212,-.5 212,-19.5 264,-19.5 264,-.5 212,-.5"/>
<text text-anchor="middle" x="238" y="-7.5" font-family="Helvetica,sans-Serif" font-size="10.00" fill="#000000">stddef.h</text>
</g>
<!-- Node0&#45;&gt;Node4 -->
<g id="edge4" class="edge">
<title>Node0&#45;&gt;Node4</title>
<path fill="none" stroke="#191970" d="M209.0965,-56.2455C213.9145,-48.5367 220.7751,-37.5598 226.6032,-28.2348"/>
<polygon fill="#191970" stroke="#191970" points="229.6413,-29.9777 231.9733,-19.6427 223.7053,-26.2677 229.6413,-29.9777"/>
</g>
<!-- Node5 -->
<g id="node6" class="node">
<title>Node5</title>
<polygon fill="none" stroke="#bfbfbf" points="282.5,-.5 282.5,-19.5 331.5,-19.5 331.5,-.5 282.5,-.5"/>
<text text-anchor="middle" x="307" y="-7.5" font-family="Helvetica,sans-Serif" font-size="10.00" fill="#000000">string.h</text>
</g>
<!-- Node0&#45;&gt;Node5 -->
<g id="edge5" class="edge">
<title>Node0&#45;&gt;Node5</title>
<path fill="none" stroke="#191970" d="M221.1154,-56.2455C237.445,-47.4527 261.671,-34.4079 280.2339,-24.4125"/>
<polygon fill="#191970" stroke="#191970" points="281.9468,-27.4654 289.0922,-19.6427 278.6281,-21.3021 281.9468,-27.4654"/>
</g>
<!-- Node6 -->
<g id="node7" class="node">
<title>Node6</title>
<polygon fill="none" stroke="#bfbfbf" points="350,-.5 350,-19.5 402,-19.5 402,-.5 350,-.5"/>
<text text-anchor="middle" x="376" y="-7.5" font-family="Helvetica,sans-Serif" font-size="10.00" fill="#000000">assert.h</text>
</g>
<!-- Node0&#45;&gt;Node6 -->
<g id="edge6" class="edge">
<title>Node0&#45;&gt;Node6</title>
<path fill="none" stroke="#191970" d="M232.7398,-56.3733C262.4659,-46.7509 308.2042,-31.9455 339.9725,-21.6621"/>
<polygon fill="#191970" stroke="#191970" points="341.322,-24.9041 349.7581,-18.4945 339.1662,-18.2443 341.322,-24.9041"/>
</g>
</g>
</svg>
