<?xml version="1.0" encoding="UTF-8" standalone="no"?>
<!DOCTYPE svg PUBLIC "-//W3C//DTD SVG 1.1//EN"
 "http://www.w3.org/Graphics/SVG/1.1/DTD/svg11.dtd">
<!-- Generated by graphviz version 2.40.1 (20161225.0304)
 -->
<!-- Title: src/bits/index.hh Pages: 1 -->
<svg width="262pt" height="140pt"
 viewBox="0.00 0.00 261.50 140.00" xmlns="http://www.w3.org/2000/svg" xmlns:xlink="http://www.w3.org/1999/xlink">
<g id="graph0" class="graph" transform="scale(1 1) rotate(0) translate(4 136)">
<title>src/bits/index.hh</title>
<!-- Node2 -->
<g id="node1" class="node">
<title>Node2</title>
<polygon fill="#bfbfbf" stroke="#000000" points="91,-112.5 91,-131.5 180,-131.5 180,-112.5 91,-112.5"/>
<text text-anchor="middle" x="135.5" y="-119.5" font-family="Helvetica,sans-Serif" font-size="10.00" fill="#000000">src/bits/index.hh</text>
</g>
<!-- Node3 -->
<g id="node2" class="node">
<title>Node3</title>
<g id="a_node2"><a xlink:href="convolution_8hh.html" target="_top" xlink:title="src/apmath/convolution.hh">
<polygon fill="none" stroke="#000000" points="70,-56.5 70,-75.5 201,-75.5 201,-56.5 70,-56.5"/>
<text text-anchor="middle" x="135.5" y="-63.5" font-family="Helvetica,sans-Serif" font-size="10.00" fill="#000000">src/apmath/convolution.hh</text>
</a>
</g>
</g>
<!-- Node2&#45;&gt;Node3 -->
<g id="edge1" class="edge">
<title>Node2&#45;&gt;Node3</title>
<path fill="none" stroke="#191970" d="M135.5,-102.1575C135.5,-93.155 135.5,-82.9199 135.5,-75.6427"/>
<polygon fill="#191970" stroke="#191970" points="132.0001,-102.2455 135.5,-112.2455 139.0001,-102.2456 132.0001,-102.2455"/>
</g>
<!-- Node4 -->
<g id="node3" class="node">
<title>Node4</title>
<g id="a_node3"><a xlink:href="ma__model_8cc.html" target="_top" xlink:title="src/generator/ma_model.cc">
<polygon fill="none" stroke="#000000" points="0,-.5 0,-19.5 135,-19.5 135,-.5 0,-.5"/>
<text text-anchor="middle" x="67.5" y="-7.5" font-family="Helvetica,sans-Serif" font-size="10.00" fill="#000000">src/generator/ma_model.cc</text>
</a>
</g>
</g>
<!-- Node3&#45;&gt;Node4 -->
<g id="edge2" class="edge">
<title>Node3&#45;&gt;Node4</title>
<path fill="none" stroke="#191970" d="M115.6404,-49.645C103.8142,-39.9058 89.2108,-27.8795 79.209,-19.6427"/>
<polygon fill="#191970" stroke="#191970" points="113.711,-52.5902 123.6553,-56.2455 118.161,-47.1867 113.711,-52.5902"/>
</g>
<!-- Node5 -->
<g id="node4" class="node">
<title>Node5</title>
<g id="a_node4"><a xlink:href="waves_8cc.html" target="_top" xlink:title="src/stats/waves.cc">
<polygon fill="none" stroke="#000000" points="153.5,-.5 153.5,-19.5 253.5,-19.5 253.5,-.5 153.5,-.5"/>
<text text-anchor="middle" x="203.5" y="-7.5" font-family="Helvetica,sans-Serif" font-size="10.00" fill="#000000">src/stats/waves.cc</text>
</a>
</g>
</g>
<!-- Node3&#45;&gt;Node5 -->
<g id="edge3" class="edge">
<title>Node3&#45;&gt;Node5</title>
<path fill="none" stroke="#191970" d="M155.3596,-49.645C167.1858,-39.9058 181.7892,-27.8795 191.791,-19.6427"/>
<polygon fill="#191970" stroke="#191970" points="152.839,-47.1867 147.3447,-56.2455 157.289,-52.5902 152.839,-47.1867"/>
</g>
</g>
</svg>
