<?xml version="1.0" encoding="UTF-8" standalone="no"?>
<!DOCTYPE svg PUBLIC "-//W3C//DTD SVG 1.1//EN"
 "http://www.w3.org/Graphics/SVG/1.1/DTD/svg11.dtd">
<!-- Generated by graphviz version 2.40.1 (20161225.0304)
 -->
<!-- Title: Graphical Class Hierarchy Pages: 1 -->
<svg width="189pt" height="88pt"
 viewBox="0.00 0.00 189.00 88.00" xmlns="http://www.w3.org/2000/svg" xmlns:xlink="http://www.w3.org/1999/xlink">
<g id="graph0" class="graph" transform="scale(1 1) rotate(0) translate(4 84)">
<title>Graphical Class Hierarchy</title>
<!-- Node137 -->
<g id="node1" class="node">
<title>Node137</title>
<polygon fill="none" stroke="#bfbfbf" points="0,-30 0,-49 38,-49 38,-30 0,-30"/>
<text text-anchor="middle" x="19" y="-37" font-family="Helvetica,sans-Serif" font-size="10.00" fill="#000000">hash</text>
</g>
<!-- Node0 -->
<g id="node2" class="node">
<title>Node0</title>
<g id="a_node2"><a xlink:href="structstd_1_1hash_3_01std_1_1tuple_3_01int_00_01int_01_4_01_4.html" target="_top" xlink:title="std::hash\&lt; std::tuple\l\&lt; int, int \&gt; \&gt;">
<polygon fill="none" stroke="#000000" points="74,-49.5 74,-79.5 181,-79.5 181,-49.5 74,-49.5"/>
<text text-anchor="start" x="82" y="-67.5" font-family="Helvetica,sans-Serif" font-size="10.00" fill="#000000">std::hash&lt; std::tuple</text>
<text text-anchor="middle" x="127.5" y="-56.5" font-family="Helvetica,sans-Serif" font-size="10.00" fill="#000000">&lt; int, int &gt; &gt;</text>
</a>
</g>
</g>
<!-- Node137&#45;&gt;Node0 -->
<g id="edge1" class="edge">
<title>Node137&#45;&gt;Node0</title>
<path fill="none" stroke="#191970" d="M47.9615,-46.1731C55.894,-48.0009 64.7559,-50.0428 73.6051,-52.0818"/>
<polygon fill="#191970" stroke="#191970" points="48.6784,-42.7467 38.1479,-43.912 47.1066,-49.568 48.6784,-42.7467"/>
</g>
<!-- Node139 -->
<g id="node3" class="node">
<title>Node139</title>
<g id="a_node3"><a xlink:href="structstd_1_1hash_3_01std_1_1tuple_3_01int_00_01int_00_01int_01_4_01_4.html" target="_top" xlink:title="std::hash\&lt; std::tuple\l\&lt; int, int, int \&gt; \&gt;">
<polygon fill="none" stroke="#000000" points="74,-.5 74,-30.5 181,-30.5 181,-.5 74,-.5"/>
<text text-anchor="start" x="82" y="-18.5" font-family="Helvetica,sans-Serif" font-size="10.00" fill="#000000">std::hash&lt; std::tuple</text>
<text text-anchor="middle" x="127.5" y="-7.5" font-family="Helvetica,sans-Serif" font-size="10.00" fill="#000000">&lt; int, int, int &gt; &gt;</text>
</a>
</g>
</g>
<!-- Node137&#45;&gt;Node139 -->
<g id="edge2" class="edge">
<title>Node137&#45;&gt;Node139</title>
<path fill="none" stroke="#191970" d="M47.9615,-33.0938C55.894,-31.3391 64.7559,-29.3789 73.6051,-27.4214"/>
<polygon fill="#191970" stroke="#191970" points="47.1559,-29.6873 38.1479,-35.2645 48.6678,-36.5221 47.1559,-29.6873"/>
</g>
</g>
</svg>
