<?xml version="1.0" encoding="UTF-8" standalone="no"?>
<!DOCTYPE svg PUBLIC "-//W3C//DTD SVG 1.1//EN"
 "http://www.w3.org/Graphics/SVG/1.1/DTD/svg11.dtd">
<!-- Generated by graphviz version 2.40.1 (20161225.0304)
 -->
<!-- Title: Graphical Class Hierarchy Pages: 1 -->
<svg width="205pt" height="88pt"
 viewBox="0.00 0.00 205.00 88.00" xmlns="http://www.w3.org/2000/svg" xmlns:xlink="http://www.w3.org/1999/xlink">
<g id="graph0" class="graph" transform="scale(1 1) rotate(0) translate(4 84)">
<title>Graphical Class Hierarchy</title>
<!-- Node160 -->
<g id="node1" class="node">
<title>Node160</title>
<polygon fill="none" stroke="#bfbfbf" points="0,-30 0,-49 40,-49 40,-30 0,-30"/>
<text text-anchor="middle" x="20" y="-37" font-family="Helvetica,sans-Serif" font-size="10.00" fill="#000000">Array</text>
</g>
<!-- Node0 -->
<g id="node2" class="node">
<title>Node0</title>
<g id="a_node2"><a xlink:href="classarma_1_1Discrete__function.html" target="_top" xlink:title="Multidimensional array with a grid. ">
<polygon fill="none" stroke="#000000" points="76,-49.5 76,-79.5 197,-79.5 197,-49.5 76,-49.5"/>
<text text-anchor="start" x="84" y="-67.5" font-family="Helvetica,sans-Serif" font-size="10.00" fill="#000000">arma::Discrete_function</text>
<text text-anchor="middle" x="136.5" y="-56.5" font-family="Helvetica,sans-Serif" font-size="10.00" fill="#000000">&lt; T, N &gt;</text>
</a>
</g>
</g>
<!-- Node160&#45;&gt;Node0 -->
<g id="edge1" class="edge">
<title>Node160&#45;&gt;Node0</title>
<path fill="none" stroke="#191970" d="M49.9333,-45.9235C57.9374,-47.6411 66.8842,-49.561 75.9061,-51.497"/>
<polygon fill="#191970" stroke="#191970" points="50.5389,-42.4738 40.0271,-43.7977 49.0701,-49.318 50.5389,-42.4738"/>
</g>
<!-- Node162 -->
<g id="node3" class="node">
<title>Node162</title>
<g id="a_node3"><a xlink:href="classarma_1_1Discrete__function.html" target="_top" xlink:title="arma::Discrete_function\l\&lt; T, 3 \&gt;">
<polygon fill="none" stroke="#000000" points="76,-.5 76,-30.5 197,-30.5 197,-.5 76,-.5"/>
<text text-anchor="start" x="84" y="-18.5" font-family="Helvetica,sans-Serif" font-size="10.00" fill="#000000">arma::Discrete_function</text>
<text text-anchor="middle" x="136.5" y="-7.5" font-family="Helvetica,sans-Serif" font-size="10.00" fill="#000000">&lt; T, 3 &gt;</text>
</a>
</g>
</g>
<!-- Node160&#45;&gt;Node162 -->
<g id="edge2" class="edge">
<title>Node160&#45;&gt;Node162</title>
<path fill="none" stroke="#191970" d="M49.9333,-33.3335C57.9374,-31.6846 66.8842,-29.8415 75.9061,-27.9829"/>
<polygon fill="#191970" stroke="#191970" points="49.1152,-29.9284 40.0271,-35.3743 50.5276,-36.7845 49.1152,-29.9284"/>
</g>
</g>
</svg>
