<?xml version="1.0" encoding="UTF-8" standalone="no"?>
<!DOCTYPE svg PUBLIC "-//W3C//DTD SVG 1.1//EN"
 "http://www.w3.org/Graphics/SVG/1.1/DTD/svg11.dtd">
<!-- Generated by graphviz version 2.36.0 (20140111.2315)
 -->
<!-- Title: Graphical Class Hierarchy Pages: 1 -->
<svg width="206pt" height="87pt"
 viewBox="0.00 0.00 206.00 87.00" xmlns="http://www.w3.org/2000/svg" xmlns:xlink="http://www.w3.org/1999/xlink">
<g id="graph0" class="graph" transform="scale(1 1) rotate(0) translate(4 83)">
<title>Graphical Class Hierarchy</title>
<!-- Node1 -->
<g id="node1" class="node"><title>Node1</title>
<polygon fill="none" stroke="#bfbfbf" points="0,-29.5 0,-48.5 40,-48.5 40,-29.5 0,-29.5"/>
<text text-anchor="middle" x="20" y="-36.5" font-family="Helvetica,sans-Serif" font-size="10.00">Array</text>
</g>
<!-- Node2 -->
<g id="node2" class="node"><title>Node2</title>
<g id="a_node2"><a xlink:href="classarma_1_1Discrete__function.html" target="_top" xlink:title="Multidimensional array with a grid. ">
<polygon fill="none" stroke="black" points="76.5,-49 76.5,-79 197.5,-79 197.5,-49 76.5,-49"/>
<text text-anchor="start" x="84.5" y="-67" font-family="Helvetica,sans-Serif" font-size="10.00">arma::Discrete_function</text>
<text text-anchor="middle" x="137" y="-56" font-family="Helvetica,sans-Serif" font-size="10.00">&lt; T, N &gt;</text>
</a>
</g>
</g>
<!-- Node1&#45;&gt;Node2 -->
<g id="edge1" class="edge"><title>Node1&#45;&gt;Node2</title>
<path fill="none" stroke="midnightblue" d="M50.2083,-45.3496C58.2775,-47.1038 67.3367,-49.0732 76.4644,-51.0575"/>
<polygon fill="midnightblue" stroke="midnightblue" points="50.7637,-41.8887 40.2484,-43.1844 49.2766,-48.7289 50.7637,-41.8887"/>
</g>
<!-- Node3 -->
<g id="node3" class="node"><title>Node3</title>
<g id="a_node3"><a xlink:href="classarma_1_1Discrete__function.html" target="_top" xlink:title="arma::Discrete_function\l\&lt; T, 3 \&gt;">
<polygon fill="none" stroke="black" points="76.5,-0 76.5,-30 197.5,-30 197.5,-0 76.5,-0"/>
<text text-anchor="start" x="84.5" y="-18" font-family="Helvetica,sans-Serif" font-size="10.00">arma::Discrete_function</text>
<text text-anchor="middle" x="137" y="-7" font-family="Helvetica,sans-Serif" font-size="10.00">&lt; T, 3 &gt;</text>
</a>
</g>
</g>
<!-- Node1&#45;&gt;Node3 -->
<g id="edge2" class="edge"><title>Node1&#45;&gt;Node3</title>
<path fill="none" stroke="midnightblue" d="M50.2083,-32.9044C58.2775,-31.2204 67.3367,-29.3297 76.4644,-27.4248"/>
<polygon fill="midnightblue" stroke="midnightblue" points="49.3225,-29.5137 40.2484,-34.9829 50.7526,-36.3661 49.3225,-29.5137"/>
</g>
</g>
</svg>
