<?xml version="1.0" encoding="UTF-8" standalone="no"?>
<!DOCTYPE svg PUBLIC "-//W3C//DTD SVG 1.1//EN"
 "http://www.w3.org/Graphics/SVG/1.1/DTD/svg11.dtd">
<!-- Generated by graphviz version 2.40.1 (20161225.0304)
 -->
<!-- Title: Graphical Class Hierarchy Pages: 1 -->
<svg width="583pt" height="161pt"
 viewBox="0.00 0.00 583.00 161.00" xmlns="http://www.w3.org/2000/svg" xmlns:xlink="http://www.w3.org/1999/xlink">
<g id="graph0" class="graph" transform="scale(1 1) rotate(0) translate(4 157)">
<title>Graphical Class Hierarchy</title>
<!-- Node0 -->
<g id="node1" class="node">
<title>Node0</title>
<g id="a_node1"><a xlink:href="classarma_1_1generator_1_1Basic__model.html" target="_top" xlink:title="A base class for all generators. ">
<polygon fill="none" stroke="#000000" points="0,-49.5 0,-79.5 116,-79.5 116,-49.5 0,-49.5"/>
<text text-anchor="start" x="8" y="-67.5" font-family="Helvetica,sans-Serif" font-size="10.00" fill="#000000">arma::generator::Basic</text>
<text text-anchor="middle" x="58" y="-56.5" font-family="Helvetica,sans-Serif" font-size="10.00" fill="#000000">_model&lt; T &gt;</text>
</a>
</g>
</g>
<!-- Node1 -->
<g id="node2" class="node">
<title>Node1</title>
<g id="a_node2"><a xlink:href="classarma_1_1generator_1_1Basic__ARMA__model.html" target="_top" xlink:title="Base class for AR, MA and ARMA models. ">
<polygon fill="none" stroke="#000000" points="156.5,-98.5 156.5,-128.5 272.5,-128.5 272.5,-98.5 156.5,-98.5"/>
<text text-anchor="start" x="164.5" y="-116.5" font-family="Helvetica,sans-Serif" font-size="10.00" fill="#000000">arma::generator::Basic</text>
<text text-anchor="middle" x="214.5" y="-105.5" font-family="Helvetica,sans-Serif" font-size="10.00" fill="#000000">_ARMA_model&lt; T &gt;</text>
</a>
</g>
</g>
<!-- Node0&#45;&gt;Node1 -->
<g id="edge1" class="edge">
<title>Node0&#45;&gt;Node1</title>
<path fill="none" stroke="#191970" d="M115.8504,-82.6129C132.4883,-87.8222 150.4489,-93.4457 166.4271,-98.4484"/>
<polygon fill="#191970" stroke="#191970" points="116.8211,-79.2494 106.2322,-79.6014 114.7295,-85.9296 116.8211,-79.2494"/>
</g>
<!-- Node6 -->
<g id="node6" class="node">
<title>Node6</title>
<g id="a_node6"><a xlink:href="classarma_1_1generator_1_1Longuet__Higgins__model.html" target="_top" xlink:title="Uses Longuet—Higgins model, small&#45;amplitude waves. ">
<polygon fill="none" stroke="#000000" points="152,-49.5 152,-79.5 277,-79.5 277,-49.5 152,-49.5"/>
<text text-anchor="start" x="160" y="-67.5" font-family="Helvetica,sans-Serif" font-size="10.00" fill="#000000">arma::generator::Longuet</text>
<text text-anchor="middle" x="214.5" y="-56.5" font-family="Helvetica,sans-Serif" font-size="10.00" fill="#000000">_Higgins_model&lt; T &gt;</text>
</a>
</g>
</g>
<!-- Node0&#45;&gt;Node6 -->
<g id="edge6" class="edge">
<title>Node0&#45;&gt;Node6</title>
<path fill="none" stroke="#191970" d="M126.5047,-64.5C134.9767,-64.5 143.6034,-64.5 151.9794,-64.5"/>
<polygon fill="#191970" stroke="#191970" points="126.2749,-61.0001 116.2748,-64.5 126.2748,-68.0001 126.2749,-61.0001"/>
</g>
<!-- Node7 -->
<g id="node7" class="node">
<title>Node7</title>
<g id="a_node7"><a xlink:href="classarma_1_1generator_1_1Plain__wave__model.html" target="_top" xlink:title="Uses a simple sum of sines and cosines, small&#45;amplitude waves.Individual amplitudes, wave numbers, phases and velocities are set via configuration file. ">
<polygon fill="none" stroke="#000000" points="158,-.5 158,-30.5 271,-30.5 271,-.5 158,-.5"/>
<text text-anchor="start" x="166" y="-18.5" font-family="Helvetica,sans-Serif" font-size="10.00" fill="#000000">arma::generator::Plain</text>
<text text-anchor="middle" x="214.5" y="-7.5" font-family="Helvetica,sans-Serif" font-size="10.00" fill="#000000">_wave_model&lt; T &gt;</text>
</a>
</g>
</g>
<!-- Node0&#45;&gt;Node7 -->
<g id="edge7" class="edge">
<title>Node0&#45;&gt;Node7</title>
<path fill="none" stroke="#191970" d="M115.8504,-46.3871C132.4883,-41.1778 150.4489,-35.5543 166.4271,-30.5516"/>
<polygon fill="#191970" stroke="#191970" points="114.7295,-43.0704 106.2322,-49.3986 116.8211,-49.7506 114.7295,-43.0704"/>
</g>
<!-- Node2 -->
<g id="node3" class="node">
<title>Node2</title>
<g id="a_node3"><a xlink:href="classarma_1_1generator_1_1AR__model.html" target="_top" xlink:title="Uses autoregressive process, standing waves. ">
<polygon fill="none" stroke="#000000" points="313.5,-122.5 313.5,-152.5 418.5,-152.5 418.5,-122.5 313.5,-122.5"/>
<text text-anchor="start" x="321.5" y="-140.5" font-family="Helvetica,sans-Serif" font-size="10.00" fill="#000000">arma::generator::AR</text>
<text text-anchor="middle" x="366" y="-129.5" font-family="Helvetica,sans-Serif" font-size="10.00" fill="#000000">_model&lt; T &gt;</text>
</a>
</g>
</g>
<!-- Node1&#45;&gt;Node2 -->
<g id="edge2" class="edge">
<title>Node1&#45;&gt;Node2</title>
<path fill="none" stroke="#191970" d="M282.7709,-124.3152C292.9903,-125.9341 303.393,-127.5821 313.2253,-129.1397"/>
<polygon fill="#191970" stroke="#191970" points="283.0651,-120.8182 272.6406,-122.7104 281.9698,-127.732 283.0651,-120.8182"/>
</g>
<!-- Node4 -->
<g id="node5" class="node">
<title>Node4</title>
<g id="a_node5"><a xlink:href="classarma_1_1generator_1_1MA__model.html" target="_top" xlink:title="Uses moving average process, propagating waves. ">
<polygon fill="none" stroke="#000000" points="313,-73.5 313,-103.5 419,-103.5 419,-73.5 313,-73.5"/>
<text text-anchor="start" x="321" y="-91.5" font-family="Helvetica,sans-Serif" font-size="10.00" fill="#000000">arma::generator::MA</text>
<text text-anchor="middle" x="366" y="-80.5" font-family="Helvetica,sans-Serif" font-size="10.00" fill="#000000">_model&lt; T &gt;</text>
</a>
</g>
</g>
<!-- Node1&#45;&gt;Node4 -->
<g id="edge4" class="edge">
<title>Node1&#45;&gt;Node4</title>
<path fill="none" stroke="#191970" d="M282.6432,-102.2552C292.7333,-100.5902 303.0053,-98.8952 312.7332,-97.2899"/>
<polygon fill="#191970" stroke="#191970" points="281.9373,-98.8243 272.6406,-103.9058 283.077,-105.7309 281.9373,-98.8243"/>
</g>
<!-- Node5 -->
<g id="node4" class="node">
<title>Node5</title>
<g id="a_node4"><a xlink:href="structarma_1_1generator_1_1ARMA__model.html" target="_top" xlink:title="Uses autoregressive moving average process (WIP). ">
<polygon fill="none" stroke="#000000" points="455,-97.5 455,-127.5 575,-127.5 575,-97.5 455,-97.5"/>
<text text-anchor="start" x="463" y="-115.5" font-family="Helvetica,sans-Serif" font-size="10.00" fill="#000000">arma::generator::ARMA</text>
<text text-anchor="middle" x="515" y="-104.5" font-family="Helvetica,sans-Serif" font-size="10.00" fill="#000000">_model&lt; T &gt;</text>
</a>
</g>
</g>
<!-- Node2&#45;&gt;Node5 -->
<g id="edge3" class="edge">
<title>Node2&#45;&gt;Node5</title>
<path fill="none" stroke="#191970" d="M428.5891,-126.9985C437.2679,-125.5423 446.1681,-124.049 454.802,-122.6003"/>
<polygon fill="#191970" stroke="#191970" points="427.8148,-123.5794 418.5318,-128.6859 428.9732,-130.4829 427.8148,-123.5794"/>
</g>
<!-- Node4&#45;&gt;Node5 -->
<g id="edge5" class="edge">
<title>Node4&#45;&gt;Node5</title>
<path fill="none" stroke="#191970" d="M429.5191,-98.7313C437.9406,-100.0877 446.5534,-101.475 454.9143,-102.8218"/>
<polygon fill="#191970" stroke="#191970" points="429.8009,-95.2316 419.3716,-97.0968 428.6877,-102.1425 429.8009,-95.2316"/>
</g>
</g>
</svg>
