<?xml version="1.0" encoding="UTF-8" standalone="no"?>
<!DOCTYPE svg PUBLIC "-//W3C//DTD SVG 1.1//EN"
 "http://www.w3.org/Graphics/SVG/1.1/DTD/svg11.dtd">
<!-- Generated by graphviz version 2.40.1 (20161225.0304)
 -->
<!-- Title: src/interpolate.hh Pages: 1 -->
<svg width="323pt" height="95pt"
 viewBox="0.00 0.00 322.50 95.00" xmlns="http://www.w3.org/2000/svg" xmlns:xlink="http://www.w3.org/1999/xlink">
<g id="graph0" class="graph" transform="scale(1 1) rotate(0) translate(4 91)">
<title>src/interpolate.hh</title>
<!-- Node3 -->
<g id="node1" class="node">
<title>Node3</title>
<polygon fill="#bfbfbf" stroke="#000000" points="111,-67.5 111,-86.5 203,-86.5 203,-67.5 111,-67.5"/>
<text text-anchor="middle" x="157" y="-74.5" font-family="Helvetica,sans-Serif" font-size="10.00" fill="#000000">src/interpolate.hh</text>
</g>
<!-- Node4 -->
<g id="node2" class="node">
<title>Node4</title>
<g id="a_node2"><a xlink:href="interpolate_8cc.html" target="_top" xlink:title="src/interpolate.cc">
<polygon fill="none" stroke="#000000" points="0,-6 0,-25 92,-25 92,-6 0,-6"/>
<text text-anchor="middle" x="46" y="-13" font-family="Helvetica,sans-Serif" font-size="10.00" fill="#000000">src/interpolate.cc</text>
</a>
</g>
</g>
<!-- Node3&#45;&gt;Node4 -->
<g id="edge1" class="edge">
<title>Node3&#45;&gt;Node4</title>
<path fill="none" stroke="#191970" d="M130.6759,-62.415C109.8107,-50.8546 81.2584,-35.035 63.222,-25.0419"/>
<polygon fill="#191970" stroke="#191970" points="129.2128,-65.6057 139.6563,-67.3906 132.6053,-59.4827 129.2128,-65.6057"/>
</g>
<!-- Node5 -->
<g id="node3" class="node">
<title>Node5</title>
<g id="a_node3"><a xlink:href="basic__solver_8cc.html" target="_top" xlink:title="src/velocity/basic\l_solver.cc">
<polygon fill="none" stroke="#000000" points="110.5,-.5 110.5,-30.5 203.5,-30.5 203.5,-.5 110.5,-.5"/>
<text text-anchor="start" x="118.5" y="-18.5" font-family="Helvetica,sans-Serif" font-size="10.00" fill="#000000">src/velocity/basic</text>
<text text-anchor="middle" x="157" y="-7.5" font-family="Helvetica,sans-Serif" font-size="10.00" fill="#000000">_solver.cc</text>
</a>
</g>
</g>
<!-- Node3&#45;&gt;Node5 -->
<g id="edge2" class="edge">
<title>Node3&#45;&gt;Node5</title>
<path fill="none" stroke="#191970" d="M157,-57.3693C157,-48.681 157,-38.6241 157,-30.5446"/>
<polygon fill="#191970" stroke="#191970" points="153.5001,-57.3906 157,-67.3906 160.5001,-57.3907 153.5001,-57.3906"/>
</g>
<!-- Node6 -->
<g id="node4" class="node">
<title>Node6</title>
<g id="a_node4"><a xlink:href="linear__solver_8cc.html" target="_top" xlink:title="src/velocity/linear\l_solver.cc">
<polygon fill="none" stroke="#000000" points="221.5,-.5 221.5,-30.5 314.5,-30.5 314.5,-.5 221.5,-.5"/>
<text text-anchor="start" x="229.5" y="-18.5" font-family="Helvetica,sans-Serif" font-size="10.00" fill="#000000">src/velocity/linear</text>
<text text-anchor="middle" x="268" y="-7.5" font-family="Helvetica,sans-Serif" font-size="10.00" fill="#000000">_solver.cc</text>
</a>
</g>
</g>
<!-- Node3&#45;&gt;Node6 -->
<g id="edge3" class="edge">
<title>Node3&#45;&gt;Node6</title>
<path fill="none" stroke="#191970" d="M183.367,-62.3912C200.709,-52.7829 223.3473,-40.24 240.8463,-30.5446"/>
<polygon fill="#191970" stroke="#191970" points="181.3947,-59.4827 174.3438,-67.3906 184.7872,-65.6057 181.3947,-59.4827"/>
</g>
</g>
</svg>
