<?xml version="1.0" encoding="UTF-8" standalone="no"?>
<!DOCTYPE svg PUBLIC "-//W3C//DTD SVG 1.1//EN"
 "http://www.w3.org/Graphics/SVG/1.1/DTD/svg11.dtd">
<!-- Generated by graphviz version 2.40.1 (20161225.0304)
 -->
<!-- Title: src/generator/lh_model.cc Pages: 1 -->
<svg width="1677pt" height="364pt"
 viewBox="0.00 0.00 1677.00 364.00" xmlns="http://www.w3.org/2000/svg" xmlns:xlink="http://www.w3.org/1999/xlink">
<g id="graph0" class="graph" transform="scale(1 1) rotate(0) translate(4 360)">
<title>src/generator/lh_model.cc</title>
<!-- Node0 -->
<g id="node1" class="node">
<title>Node0</title>
<polygon fill="#bfbfbf" stroke="#000000" points="1288.5,-336.5 1288.5,-355.5 1417.5,-355.5 1417.5,-336.5 1288.5,-336.5"/>
<text text-anchor="middle" x="1353" y="-343.5" font-family="Helvetica,sans-Serif" font-size="10.00" fill="#000000">src/generator/lh_model.cc</text>
</g>
<!-- Node1 -->
<g id="node2" class="node">
<title>Node1</title>
<g id="a_node2"><a xlink:href="lh__model_8hh.html" target="_top" xlink:title="lh_model.hh">
<polygon fill="none" stroke="#000000" points="315.5,-280.5 315.5,-299.5 384.5,-299.5 384.5,-280.5 315.5,-280.5"/>
<text text-anchor="middle" x="350" y="-287.5" font-family="Helvetica,sans-Serif" font-size="10.00" fill="#000000">lh_model.hh</text>
</a>
</g>
</g>
<!-- Node0&#45;&gt;Node1 -->
<g id="edge1" class="edge">
<title>Node0&#45;&gt;Node1</title>
<path fill="none" stroke="#191970" d="M1288.3481,-342.3903C1100.1001,-331.88 555.5434,-301.476 395.0329,-292.5143"/>
<polygon fill="#191970" stroke="#191970" points="394.7656,-288.994 384.586,-291.931 394.3753,-295.9831 394.7656,-288.994"/>
</g>
<!-- Node8 -->
<g id="node9" class="node">
<title>Node8</title>
<polygon fill="none" stroke="#bfbfbf" points="805,-.5 805,-19.5 849,-19.5 849,-.5 805,-.5"/>
<text text-anchor="middle" x="827" y="-7.5" font-family="Helvetica,sans-Serif" font-size="10.00" fill="#000000">cmath</text>
</g>
<!-- Node0&#45;&gt;Node8 -->
<g id="edge63" class="edge">
<title>Node0&#45;&gt;Node8</title>
<path fill="none" stroke="#191970" d="M1355.8035,-336.2066C1361.0887,-316.8521 1372,-272.2612 1372,-234 1372,-234 1372,-234 1372,-122 1372,-56.8059 1303.4965,-74.5597 1241,-56 1169.3662,-34.7267 943.5905,-17.8225 859.2238,-12.0968"/>
<polygon fill="#191970" stroke="#191970" points="859.4098,-8.6015 849.1979,-11.424 858.9411,-15.5858 859.4098,-8.6015"/>
</g>
<!-- Node26 -->
<g id="node27" class="node">
<title>Node26</title>
<polygon fill="none" stroke="#bfbfbf" points="1256,-112.5 1256,-131.5 1306,-131.5 1306,-112.5 1256,-112.5"/>
<text text-anchor="middle" x="1281" y="-119.5" font-family="Helvetica,sans-Serif" font-size="10.00" fill="#000000">fstream</text>
</g>
<!-- Node0&#45;&gt;Node26 -->
<g id="edge67" class="edge">
<title>Node0&#45;&gt;Node26</title>
<path fill="none" stroke="#191970" d="M1350.1075,-336.4884C1343.8386,-315.9245 1328.477,-265.8061 1315,-224 1305.679,-195.086 1294.4678,-161.7105 1287.537,-141.2324"/>
<polygon fill="#191970" stroke="#191970" points="1290.7769,-139.888 1284.2507,-131.5418 1284.1477,-142.1361 1290.7769,-139.888"/>
</g>
<!-- Node30 -->
<g id="node31" class="node">
<title>Node30</title>
<g id="a_node31"><a xlink:href="physical__constants_8hh.html" target="_top" xlink:title="physical_constants.hh">
<polygon fill="none" stroke="#000000" points="1400,-56.5 1400,-75.5 1514,-75.5 1514,-56.5 1400,-56.5"/>
<text text-anchor="middle" x="1457" y="-63.5" font-family="Helvetica,sans-Serif" font-size="10.00" fill="#000000">physical_constants.hh</text>
</a>
</g>
</g>
<!-- Node0&#45;&gt;Node30 -->
<g id="edge50" class="edge">
<title>Node0&#45;&gt;Node30</title>
<path fill="none" stroke="#191970" d="M1361.9063,-336.3544C1377.9375,-317.945 1410,-275.8901 1410,-234 1410,-234 1410,-234 1410,-178 1410,-142.5481 1430.2704,-105.3564 1444.1871,-83.9999"/>
<polygon fill="#191970" stroke="#191970" points="1447.1549,-85.8593 1449.8617,-75.6161 1441.3579,-81.9356 1447.1549,-85.8593"/>
</g>
<!-- Node31 -->
<g id="node32" class="node">
<title>Node31</title>
<g id="a_node32"><a xlink:href="params_8hh.html" target="_top" xlink:title="params.hh">
<polygon fill="none" stroke="#000000" points="1171,-280.5 1171,-299.5 1233,-299.5 1233,-280.5 1171,-280.5"/>
<text text-anchor="middle" x="1202" y="-287.5" font-family="Helvetica,sans-Serif" font-size="10.00" fill="#000000">params.hh</text>
</a>
</g>
</g>
<!-- Node0&#45;&gt;Node31 -->
<g id="edge52" class="edge">
<title>Node0&#45;&gt;Node31</title>
<path fill="none" stroke="#191970" d="M1327.0422,-336.3733C1302.2593,-327.1822 1264.7254,-313.2624 1237.246,-303.0713"/>
<polygon fill="#191970" stroke="#191970" points="1238.2121,-299.6968 1227.6191,-299.5011 1235.7781,-306.26 1238.2121,-299.6968"/>
</g>
<!-- Node32 -->
<g id="node33" class="node">
<title>Node32</title>
<polygon fill="none" stroke="#bfbfbf" points="1246.5,-224.5 1246.5,-243.5 1305.5,-243.5 1305.5,-224.5 1246.5,-224.5"/>
<text text-anchor="middle" x="1276" y="-231.5" font-family="Helvetica,sans-Serif" font-size="10.00" fill="#000000">functional</text>
</g>
<!-- Node0&#45;&gt;Node32 -->
<g id="edge65" class="edge">
<title>Node0&#45;&gt;Node32</title>
<path fill="none" stroke="#191970" d="M1345.8206,-336.1988C1339.0686,-326.9329 1328.7225,-312.6098 1320,-300 1309.0308,-284.1423 1296.8984,-265.8877 1288.1565,-252.6018"/>
<polygon fill="#191970" stroke="#191970" points="1290.867,-250.3527 1282.4554,-243.9111 1285.014,-254.1923 1290.867,-250.3527"/>
</g>
<!-- Node34 -->
<g id="node35" class="node">
<title>Node34</title>
<g id="a_node35"><a xlink:href="profile__counters_8hh.html" target="_top" xlink:title="profile_counters.hh">
<polygon fill="none" stroke="#000000" points="1438.5,-280.5 1438.5,-299.5 1537.5,-299.5 1537.5,-280.5 1438.5,-280.5"/>
<text text-anchor="middle" x="1488" y="-287.5" font-family="Helvetica,sans-Serif" font-size="10.00" fill="#000000">profile_counters.hh</text>
</a>
</g>
</g>
<!-- Node0&#45;&gt;Node34 -->
<g id="edge56" class="edge">
<title>Node0&#45;&gt;Node34</title>
<path fill="none" stroke="#191970" d="M1376.2073,-336.3733C1398.1699,-327.2629 1431.3332,-313.5062 1455.8401,-303.3404"/>
<polygon fill="#191970" stroke="#191970" points="1457.1997,-306.5657 1465.0955,-299.5011 1454.5176,-300.0999 1457.1997,-306.5657"/>
</g>
<!-- Node36 -->
<g id="node37" class="node">
<title>Node36</title>
<g id="a_node37"><a xlink:href="white__noise_8hh.html" target="_top" xlink:title="white_noise.hh">
<polygon fill="none" stroke="#000000" points="965,-224.5 965,-243.5 1047,-243.5 1047,-224.5 965,-224.5"/>
<text text-anchor="middle" x="1006" y="-231.5" font-family="Helvetica,sans-Serif" font-size="10.00" fill="#000000">white_noise.hh</text>
</a>
</g>
</g>
<!-- Node0&#45;&gt;Node36 -->
<g id="edge58" class="edge">
<title>Node0&#45;&gt;Node36</title>
<path fill="none" stroke="#191970" d="M1303.7089,-336.4513C1264.7692,-328.354 1209.2962,-315.5837 1162,-300 1116.6349,-285.0526 1066.0383,-262.5046 1035.1098,-248.0175"/>
<polygon fill="#191970" stroke="#191970" points="1036.3278,-244.7221 1025.7907,-243.617 1033.3388,-251.0519 1036.3278,-244.7221"/>
</g>
<!-- Node38 -->
<g id="node39" class="node">
<title>Node38</title>
<polygon fill="none" stroke="#bfbfbf" points="1555.5,-280.5 1555.5,-299.5 1604.5,-299.5 1604.5,-280.5 1555.5,-280.5"/>
<text text-anchor="middle" x="1580" y="-287.5" font-family="Helvetica,sans-Serif" font-size="10.00" fill="#000000">random</text>
</g>
<!-- Node0&#45;&gt;Node38 -->
<g id="edge64" class="edge">
<title>Node0&#45;&gt;Node38</title>
<path fill="none" stroke="#191970" d="M1396.7256,-336.4385C1434.0145,-328.1037 1489.2502,-315.3328 1545.4252,-300.3259"/>
<polygon fill="#191970" stroke="#191970" points="1546.4346,-303.6788 1555.1808,-297.6993 1544.6147,-296.9195 1546.4346,-303.6788"/>
</g>
<!-- Node39 -->
<g id="node40" class="node">
<title>Node39</title>
<polygon fill="none" stroke="#bfbfbf" points="1623,-280.5 1623,-299.5 1669,-299.5 1669,-280.5 1623,-280.5"/>
<text text-anchor="middle" x="1646" y="-287.5" font-family="Helvetica,sans-Serif" font-size="10.00" fill="#000000">atomic</text>
</g>
<!-- Node0&#45;&gt;Node39 -->
<g id="edge66" class="edge">
<title>Node0&#45;&gt;Node39</title>
<path fill="none" stroke="#191970" d="M1417.5658,-336.9828C1468.2932,-329.3597 1540.8489,-317.2727 1612.5666,-300.1218"/>
<polygon fill="#191970" stroke="#191970" points="1613.7858,-303.4276 1622.6784,-297.6681 1612.135,-296.625 1613.7858,-303.4276"/>
</g>
<!-- Node2 -->
<g id="node3" class="node">
<title>Node2</title>
<polygon fill="none" stroke="#bfbfbf" points="418.5,-112.5 418.5,-131.5 467.5,-131.5 467.5,-112.5 418.5,-112.5"/>
<text text-anchor="middle" x="443" y="-119.5" font-family="Helvetica,sans-Serif" font-size="10.00" fill="#000000">istream</text>
</g>
<!-- Node1&#45;&gt;Node2 -->
<g id="edge2" class="edge">
<title>Node1&#45;&gt;Node2</title>
<path fill="none" stroke="#191970" d="M384.6978,-283.4962C422.2173,-275.675 478.3728,-261.4017 491,-244 515.0198,-210.898 481.6723,-164.1592 459.6563,-139.2354"/>
<polygon fill="#191970" stroke="#191970" points="462.0603,-136.6782 452.7237,-131.6705 456.8996,-141.4076 462.0603,-136.6782"/>
</g>
<!-- Node3 -->
<g id="node4" class="node">
<title>Node3</title>
<polygon fill="none" stroke="#bfbfbf" points="348,-112.5 348,-131.5 400,-131.5 400,-112.5 348,-112.5"/>
<text text-anchor="middle" x="374" y="-119.5" font-family="Helvetica,sans-Serif" font-size="10.00" fill="#000000">ostream</text>
</g>
<!-- Node1&#45;&gt;Node3 -->
<g id="edge3" class="edge">
<title>Node1&#45;&gt;Node3</title>
<path fill="none" stroke="#191970" d="M351.3591,-280.4862C355.153,-253.9293 365.9193,-178.5651 371.1192,-142.1655"/>
<polygon fill="#191970" stroke="#191970" points="374.6465,-142.2224 372.596,-131.8279 367.7169,-141.2324 374.6465,-142.2224"/>
</g>
<!-- Node4 -->
<g id="node5" class="node">
<title>Node4</title>
<g id="a_node5"><a xlink:href="types_8hh.html" target="_top" xlink:title="types.hh">
<polygon fill="none" stroke="#000000" points="223,-168.5 223,-187.5 277,-187.5 277,-168.5 223,-168.5"/>
<text text-anchor="middle" x="250" y="-175.5" font-family="Helvetica,sans-Serif" font-size="10.00" fill="#000000">types.hh</text>
</a>
</g>
</g>
<!-- Node1&#45;&gt;Node4 -->
<g id="edge4" class="edge">
<title>Node1&#45;&gt;Node4</title>
<path fill="none" stroke="#191970" d="M315.1921,-284.9274C272.8207,-277.9579 205.0391,-263.972 190,-244 175.8363,-225.1905 199.6641,-205.4417 221.35,-192.5048"/>
<polygon fill="#191970" stroke="#191970" points="223.1038,-195.5339 230.0866,-187.5657 219.6589,-189.4403 223.1038,-195.5339"/>
</g>
<!-- Node6 -->
<g id="node7" class="node">
<title>Node6</title>
<g id="a_node7"><a xlink:href="discrete__function_8hh.html" target="_top" xlink:title="discrete_function.hh">
<polygon fill="none" stroke="#000000" points="199,-224.5 199,-243.5 303,-243.5 303,-224.5 199,-224.5"/>
<text text-anchor="middle" x="251" y="-231.5" font-family="Helvetica,sans-Serif" font-size="10.00" fill="#000000">discrete_function.hh</text>
</a>
</g>
</g>
<!-- Node1&#45;&gt;Node6 -->
<g id="edge6" class="edge">
<title>Node1&#45;&gt;Node6</title>
<path fill="none" stroke="#191970" d="M332.7555,-280.2455C317.4239,-271.5731 294.7801,-258.7645 277.2084,-248.825"/>
<polygon fill="#191970" stroke="#191970" points="278.4741,-245.5198 268.0469,-243.6427 275.0276,-251.6126 278.4741,-245.5198"/>
</g>
<!-- Node7 -->
<g id="node8" class="node">
<title>Node7</title>
<g id="a_node8"><a xlink:href="grid_8hh.html" target="_top" xlink:title="grid.hh">
<polygon fill="none" stroke="#000000" points="295,-168.5 295,-187.5 341,-187.5 341,-168.5 295,-168.5"/>
<text text-anchor="middle" x="318" y="-175.5" font-family="Helvetica,sans-Serif" font-size="10.00" fill="#000000">grid.hh</text>
</a>
</g>
</g>
<!-- Node1&#45;&gt;Node7 -->
<g id="edge25" class="edge">
<title>Node1&#45;&gt;Node7</title>
<path fill="none" stroke="#191970" d="M347.2717,-280.4509C342.0289,-262.1013 330.4545,-221.5908 323.5341,-197.3693"/>
<polygon fill="#191970" stroke="#191970" points="326.834,-196.1786 320.7214,-187.5249 320.1033,-198.1017 326.834,-196.1786"/>
</g>
<!-- Node13 -->
<g id="node14" class="node">
<title>Node13</title>
<g id="a_node14"><a xlink:href="domain_8hh.html" target="_top" xlink:title="domain.hh">
<polygon fill="none" stroke="#000000" points="123,-168.5 123,-187.5 185,-187.5 185,-168.5 123,-168.5"/>
<text text-anchor="middle" x="154" y="-175.5" font-family="Helvetica,sans-Serif" font-size="10.00" fill="#000000">domain.hh</text>
</a>
</g>
</g>
<!-- Node1&#45;&gt;Node13 -->
<g id="edge18" class="edge">
<title>Node1&#45;&gt;Node13</title>
<path fill="none" stroke="#191970" d="M315.4284,-284.1947C272.3005,-276.3441 201.8068,-261.3164 182,-244 168.4097,-232.1185 161.2312,-212.5164 157.5615,-197.755"/>
<polygon fill="#191970" stroke="#191970" points="160.9074,-196.6641 155.3911,-187.6185 154.0625,-198.1297 160.9074,-196.6641"/>
</g>
<!-- Node15 -->
<g id="node16" class="node">
<title>Node15</title>
<g id="a_node16"><a xlink:href="basic__model_8hh.html" target="_top" xlink:title="basic_model.hh">
<polygon fill="none" stroke="#000000" points="397.5,-224.5 397.5,-243.5 482.5,-243.5 482.5,-224.5 397.5,-224.5"/>
<text text-anchor="middle" x="440" y="-231.5" font-family="Helvetica,sans-Serif" font-size="10.00" fill="#000000">basic_model.hh</text>
</a>
</g>
</g>
<!-- Node1&#45;&gt;Node15 -->
<g id="edge26" class="edge">
<title>Node1&#45;&gt;Node15</title>
<path fill="none" stroke="#191970" d="M365.6768,-280.2455C379.4856,-271.6534 399.8193,-259.0014 415.7292,-249.1018"/>
<polygon fill="#191970" stroke="#191970" points="417.8613,-251.8974 424.5028,-243.6427 414.1632,-245.954 417.8613,-251.8974"/>
</g>
<!-- Node5 -->
<g id="node6" class="node">
<title>Node5</title>
<polygon fill="none" stroke="#bfbfbf" points="82.5,-.5 82.5,-19.5 149.5,-19.5 149.5,-.5 82.5,-.5"/>
<text text-anchor="middle" x="116" y="-7.5" font-family="Helvetica,sans-Serif" font-size="10.00" fill="#000000">blitz/array.h</text>
</g>
<!-- Node4&#45;&gt;Node5 -->
<g id="edge5" class="edge">
<title>Node4&#45;&gt;Node5</title>
<path fill="none" stroke="#191970" d="M226.2555,-168.3552C209.5823,-160.5924 187.7185,-148.2926 173,-132 145.4375,-101.4897 128.8434,-55.3191 121.1559,-29.4062"/>
<polygon fill="#191970" stroke="#191970" points="124.4858,-28.3187 118.4006,-19.6457 117.749,-30.2205 124.4858,-28.3187"/>
</g>
<!-- Node6&#45;&gt;Node4 -->
<g id="edge17" class="edge">
<title>Node6&#45;&gt;Node4</title>
<path fill="none" stroke="#191970" d="M250.8258,-224.2455C250.6953,-216.9382 250.5124,-206.6944 250.3519,-197.7046"/>
<polygon fill="#191970" stroke="#191970" points="253.8503,-197.5786 250.1722,-187.6427 246.8514,-197.7036 253.8503,-197.5786"/>
</g>
<!-- Node6&#45;&gt;Node7 -->
<g id="edge7" class="edge">
<title>Node6&#45;&gt;Node7</title>
<path fill="none" stroke="#191970" d="M262.6705,-224.2455C272.5661,-215.9746 286.9627,-203.9416 298.5901,-194.2232"/>
<polygon fill="#191970" stroke="#191970" points="301.035,-196.7413 306.4632,-187.6427 296.5458,-191.3703 301.035,-196.7413"/>
</g>
<!-- Node7&#45;&gt;Node2 -->
<g id="edge9" class="edge">
<title>Node7&#45;&gt;Node2</title>
<path fill="none" stroke="#191970" d="M339.4883,-168.3733C359.644,-159.3435 389.988,-145.7494 412.618,-135.6111"/>
<polygon fill="#191970" stroke="#191970" points="414.0971,-138.7838 421.7921,-131.5011 411.2351,-132.3955 414.0971,-138.7838"/>
</g>
<!-- Node7&#45;&gt;Node8 -->
<g id="edge8" class="edge">
<title>Node7&#45;&gt;Node8</title>
<path fill="none" stroke="#191970" d="M318.8366,-168.4379C320.4956,-154.5882 325.3203,-128.7726 339,-112 371.1953,-72.5256 390.5557,-71.7452 439,-56 505.0608,-34.5291 713.7533,-17.9711 794.5807,-12.2072"/>
<polygon fill="#191970" stroke="#191970" points="794.9405,-15.6906 804.6699,-11.4966 794.4487,-8.7079 794.9405,-15.6906"/>
</g>
<!-- Node9 -->
<g id="node10" class="node">
<title>Node9</title>
<g id="a_node10"><a xlink:href="blitz_8hh.html" target="_top" xlink:title="blitz.hh">
<polygon fill="none" stroke="#000000" points="158,-56.5 158,-75.5 206,-75.5 206,-56.5 158,-56.5"/>
<text text-anchor="middle" x="182" y="-63.5" font-family="Helvetica,sans-Serif" font-size="10.00" fill="#000000">blitz.hh</text>
</a>
</g>
</g>
<!-- Node7&#45;&gt;Node9 -->
<g id="edge10" class="edge">
<title>Node7&#45;&gt;Node9</title>
<path fill="none" stroke="#191970" d="M311.4668,-168.0948C302.0031,-154.2846 283.3698,-129.0278 263,-112 247.8955,-99.3736 228.8401,-88.3539 213.0068,-80.2679"/>
<polygon fill="#191970" stroke="#191970" points="214.1435,-76.9252 203.6288,-75.6242 211.0372,-83.1983 214.1435,-76.9252"/>
</g>
<!-- Node11 -->
<g id="node12" class="node">
<title>Node11</title>
<g id="a_node12"><a xlink:href="validators_8hh.html" target="_top" xlink:title="validators.hh">
<polygon fill="none" stroke="#000000" points="182,-112.5 182,-131.5 254,-131.5 254,-112.5 182,-112.5"/>
<text text-anchor="middle" x="218" y="-119.5" font-family="Helvetica,sans-Serif" font-size="10.00" fill="#000000">validators.hh</text>
</a>
</g>
</g>
<!-- Node7&#45;&gt;Node11 -->
<g id="edge14" class="edge">
<title>Node7&#45;&gt;Node11</title>
<path fill="none" stroke="#191970" d="M300.5813,-168.2455C284.9515,-159.4928 261.7981,-146.527 243.9815,-136.5496"/>
<polygon fill="#191970" stroke="#191970" points="245.6543,-133.475 235.2191,-131.6427 242.234,-139.5825 245.6543,-133.475"/>
</g>
<!-- Node9&#45;&gt;Node5 -->
<g id="edge12" class="edge">
<title>Node9&#45;&gt;Node5</title>
<path fill="none" stroke="#191970" d="M170.5037,-56.2455C160.7558,-47.9746 146.5741,-35.9416 135.1202,-26.2232"/>
<polygon fill="#191970" stroke="#191970" points="137.2541,-23.4437 127.3646,-19.6427 132.7253,-28.7813 137.2541,-23.4437"/>
</g>
<!-- Node9&#45;&gt;Node8 -->
<g id="edge13" class="edge">
<title>Node9&#45;&gt;Node8</title>
<path fill="none" stroke="#191970" d="M206.3876,-58.8843C210.8834,-57.7722 215.5598,-56.7461 220,-56 437.3292,-19.4808 703.3439,-11.9344 794.5369,-10.3914"/>
<polygon fill="#191970" stroke="#191970" points="794.8322,-13.8873 804.7763,-10.2315 794.7228,-6.8882 794.8322,-13.8873"/>
</g>
<!-- Node10 -->
<g id="node11" class="node">
<title>Node10</title>
<polygon fill="none" stroke="#bfbfbf" points="196,-.5 196,-19.5 252,-19.5 252,-.5 196,-.5"/>
<text text-anchor="middle" x="224" y="-7.5" font-family="Helvetica,sans-Serif" font-size="10.00" fill="#000000">algorithm</text>
</g>
<!-- Node9&#45;&gt;Node10 -->
<g id="edge11" class="edge">
<title>Node9&#45;&gt;Node10</title>
<path fill="none" stroke="#191970" d="M189.3158,-56.2455C195.2179,-48.3761 203.6742,-37.101 210.7594,-27.6542"/>
<polygon fill="#191970" stroke="#191970" points="213.568,-29.7427 216.768,-19.6427 207.9679,-25.5427 213.568,-29.7427"/>
</g>
<!-- Node11&#45;&gt;Node9 -->
<g id="edge16" class="edge">
<title>Node11&#45;&gt;Node9</title>
<path fill="none" stroke="#191970" d="M211.7293,-112.2455C206.7736,-104.5367 199.717,-93.5598 193.7224,-84.2348"/>
<polygon fill="#191970" stroke="#191970" points="196.5506,-82.1618 188.1989,-75.6427 190.6624,-85.9471 196.5506,-82.1618"/>
</g>
<!-- Node12 -->
<g id="node13" class="node">
<title>Node12</title>
<polygon fill="none" stroke="#bfbfbf" points="448.5,-56.5 448.5,-75.5 507.5,-75.5 507.5,-56.5 448.5,-56.5"/>
<text text-anchor="middle" x="478" y="-63.5" font-family="Helvetica,sans-Serif" font-size="10.00" fill="#000000">stdexcept</text>
</g>
<!-- Node11&#45;&gt;Node12 -->
<g id="edge15" class="edge">
<title>Node11&#45;&gt;Node12</title>
<path fill="none" stroke="#191970" d="M254.1519,-114.2134C302.5821,-103.7823 388.2209,-85.337 438.364,-74.537"/>
<polygon fill="#191970" stroke="#191970" points="439.1596,-77.946 448.1985,-72.4188 437.6857,-71.1029 439.1596,-77.946"/>
</g>
<!-- Node13&#45;&gt;Node2 -->
<g id="edge21" class="edge">
<title>Node13&#45;&gt;Node2</title>
<path fill="none" stroke="#191970" d="M185.0536,-172.8291C239.8607,-163.6355 352.5082,-144.4227 408.4425,-131.8879"/>
<polygon fill="#191970" stroke="#191970" points="409.2471,-135.2943 418.2,-129.629 407.6682,-128.4747 409.2471,-135.2943"/>
</g>
<!-- Node13&#45;&gt;Node3 -->
<g id="edge22" class="edge">
<title>Node13&#45;&gt;Node3</title>
<path fill="none" stroke="#191970" d="M185.054,-170.0953C225.3212,-159.8455 295.4193,-142.0024 337.9791,-131.169"/>
<polygon fill="#191970" stroke="#191970" points="339.0852,-134.4991 347.9128,-128.6404 337.3584,-127.7154 339.0852,-134.4991"/>
</g>
<!-- Node13&#45;&gt;Node5 -->
<g id="edge23" class="edge">
<title>Node13&#45;&gt;Node5</title>
<path fill="none" stroke="#191970" d="M136.9433,-168.377C124.6911,-160.4014 109.1292,-147.8248 102,-132 86.752,-98.1534 98.7236,-53.9081 107.9409,-29.0688"/>
<polygon fill="#191970" stroke="#191970" points="111.2234,-30.2852 111.6351,-19.6983 104.7113,-27.7177 111.2234,-30.2852"/>
</g>
<!-- Node13&#45;&gt;Node8 -->
<g id="edge19" class="edge">
<title>Node13&#45;&gt;Node8</title>
<path fill="none" stroke="#191970" d="M153.9722,-168.4642C154.4652,-154.1692 157.5507,-127.24 173,-112 240.2396,-45.671 285.1515,-73.316 378,-56 532.5499,-27.1768 720.6363,-15.2782 794.765,-11.4797"/>
<polygon fill="#191970" stroke="#191970" points="795.0441,-14.9702 804.8576,-10.9769 794.6958,-7.9789 795.0441,-14.9702"/>
</g>
<!-- Node13&#45;&gt;Node11 -->
<g id="edge24" class="edge">
<title>Node13&#45;&gt;Node11</title>
<path fill="none" stroke="#191970" d="M165.1479,-168.2455C174.5087,-160.0549 188.0858,-148.1749 199.1349,-138.5069"/>
<polygon fill="#191970" stroke="#191970" points="201.7588,-140.8618 206.9798,-131.6427 197.1492,-135.5937 201.7588,-140.8618"/>
</g>
<!-- Node14 -->
<g id="node15" class="node">
<title>Node14</title>
<polygon fill="none" stroke="#bfbfbf" points="0,-112.5 0,-131.5 50,-131.5 50,-112.5 0,-112.5"/>
<text text-anchor="middle" x="25" y="-119.5" font-family="Helvetica,sans-Serif" font-size="10.00" fill="#000000">iomanip</text>
</g>
<!-- Node13&#45;&gt;Node14 -->
<g id="edge20" class="edge">
<title>Node13&#45;&gt;Node14</title>
<path fill="none" stroke="#191970" d="M131.8241,-168.3733C111.0234,-159.3435 79.7083,-145.7494 56.3542,-135.6111"/>
<polygon fill="#191970" stroke="#191970" points="57.4532,-132.2727 46.8865,-131.5011 54.6657,-138.6938 57.4532,-132.2727"/>
</g>
<!-- Node15&#45;&gt;Node2 -->
<g id="edge27" class="edge">
<title>Node15&#45;&gt;Node2</title>
<path fill="none" stroke="#191970" d="M440.2558,-224.4509C440.7451,-206.184 441.8226,-165.9553 442.4724,-141.6976"/>
<polygon fill="#191970" stroke="#191970" points="445.9758,-141.6151 442.7449,-131.5249 438.9783,-141.4276 445.9758,-141.6151"/>
</g>
<!-- Node15&#45;&gt;Node3 -->
<g id="edge28" class="edge">
<title>Node15&#45;&gt;Node3</title>
<path fill="none" stroke="#191970" d="M434.3729,-224.4509C423.4136,-205.8533 399.0399,-164.4919 384.8407,-140.3964"/>
<polygon fill="#191970" stroke="#191970" points="387.7052,-138.3633 379.6129,-131.5249 381.6745,-141.9172 387.7052,-138.3633"/>
</g>
<!-- Node15&#45;&gt;Node4 -->
<g id="edge49" class="edge">
<title>Node15&#45;&gt;Node4</title>
<path fill="none" stroke="#191970" d="M407.3378,-224.3733C373.8285,-214.4968 321.7927,-199.16 286.8365,-188.8571"/>
<polygon fill="#191970" stroke="#191970" points="287.5998,-185.4332 277.0182,-185.9633 285.6208,-192.1477 287.5998,-185.4332"/>
</g>
<!-- Node15&#45;&gt;Node7 -->
<g id="edge29" class="edge">
<title>Node15&#45;&gt;Node7</title>
<path fill="none" stroke="#191970" d="M419.0275,-224.3733C399.4433,-215.3838 370.0039,-201.8706 347.949,-191.7471"/>
<polygon fill="#191970" stroke="#191970" points="349.2473,-188.4919 338.6989,-187.5011 346.3271,-194.8538 349.2473,-188.4919"/>
</g>
<!-- Node16 -->
<g id="node17" class="node">
<title>Node16</title>
<g id="a_node17"><a xlink:href="output__flags_8hh.html" target="_top" xlink:title="output_flags.hh">
<polygon fill="none" stroke="#000000" points="539.5,-168.5 539.5,-187.5 622.5,-187.5 622.5,-168.5 539.5,-168.5"/>
<text text-anchor="middle" x="581" y="-175.5" font-family="Helvetica,sans-Serif" font-size="10.00" fill="#000000">output_flags.hh</text>
</a>
</g>
</g>
<!-- Node15&#45;&gt;Node16 -->
<g id="edge30" class="edge">
<title>Node15&#45;&gt;Node16</title>
<path fill="none" stroke="#191970" d="M464.2388,-224.3733C487.2789,-215.2226 522.1214,-201.3844 547.7501,-191.2057"/>
<polygon fill="#191970" stroke="#191970" points="549.0756,-194.4452 557.0775,-187.5011 546.4918,-187.9395 549.0756,-194.4452"/>
</g>
<!-- Node20 -->
<g id="node21" class="node">
<title>Node20</title>
<g id="a_node21"><a xlink:href="parallel__mt_8hh.html" target="_top" xlink:title="parallel_mt.hh">
<polygon fill="none" stroke="#000000" points="850.5,-168.5 850.5,-187.5 927.5,-187.5 927.5,-168.5 850.5,-168.5"/>
<text text-anchor="middle" x="889" y="-175.5" font-family="Helvetica,sans-Serif" font-size="10.00" fill="#000000">parallel_mt.hh</text>
</a>
</g>
</g>
<!-- Node15&#45;&gt;Node20 -->
<g id="edge36" class="edge">
<title>Node15&#45;&gt;Node20</title>
<path fill="none" stroke="#191970" d="M482.6456,-228.6812C566.4505,-218.2289 752.1248,-195.0713 840.469,-184.0529"/>
<polygon fill="#191970" stroke="#191970" points="841.0026,-187.5135 850.4925,-182.8027 840.1362,-180.5673 841.0026,-187.5135"/>
</g>
<!-- Node16&#45;&gt;Node2 -->
<g id="edge32" class="edge">
<title>Node16&#45;&gt;Node2</title>
<path fill="none" stroke="#191970" d="M557.277,-168.3733C534.8263,-159.2629 500.9261,-145.5062 475.8745,-135.3404"/>
<polygon fill="#191970" stroke="#191970" points="476.9957,-132.0182 466.4135,-131.5011 474.3635,-138.5045 476.9957,-132.0182"/>
</g>
<!-- Node16&#45;&gt;Node3 -->
<g id="edge33" class="edge">
<title>Node16&#45;&gt;Node3</title>
<path fill="none" stroke="#191970" d="M544.7118,-168.4863C511.9099,-159.844 462.0469,-146.6018 410.0833,-132.2709"/>
<polygon fill="#191970" stroke="#191970" points="410.9309,-128.874 400.3598,-129.5832 409.0659,-135.621 410.9309,-128.874"/>
</g>
<!-- Node17 -->
<g id="node18" class="node">
<title>Node17</title>
<polygon fill="none" stroke="#bfbfbf" points="566.5,-112.5 566.5,-131.5 607.5,-131.5 607.5,-112.5 566.5,-112.5"/>
<text text-anchor="middle" x="587" y="-119.5" font-family="Helvetica,sans-Serif" font-size="10.00" fill="#000000">bitset</text>
</g>
<!-- Node16&#45;&gt;Node17 -->
<g id="edge31" class="edge">
<title>Node16&#45;&gt;Node17</title>
<path fill="none" stroke="#191970" d="M582.0451,-168.2455C582.828,-160.9382 583.9256,-150.6944 584.8888,-141.7046"/>
<polygon fill="#191970" stroke="#191970" points="588.3815,-141.9587 585.9669,-131.6427 581.4214,-141.2129 588.3815,-141.9587"/>
</g>
<!-- Node18 -->
<g id="node19" class="node">
<title>Node18</title>
<polygon fill="none" stroke="#bfbfbf" points="1030.5,-112.5 1030.5,-131.5 1071.5,-131.5 1071.5,-112.5 1030.5,-112.5"/>
<text text-anchor="middle" x="1051" y="-119.5" font-family="Helvetica,sans-Serif" font-size="10.00" fill="#000000">string</text>
</g>
<!-- Node16&#45;&gt;Node18 -->
<g id="edge34" class="edge">
<title>Node16&#45;&gt;Node18</title>
<path fill="none" stroke="#191970" d="M622.7247,-176.6564C699.7416,-173.5274 869.3718,-163.6063 1020.2698,-131.7165"/>
<polygon fill="#191970" stroke="#191970" points="1021.1408,-135.1092 1030.1809,-129.584 1019.6684,-128.2658 1021.1408,-135.1092"/>
</g>
<!-- Node19 -->
<g id="node20" class="node">
<title>Node19</title>
<polygon fill="none" stroke="#bfbfbf" points="486,-112.5 486,-131.5 548,-131.5 548,-112.5 486,-112.5"/>
<text text-anchor="middle" x="517" y="-119.5" font-family="Helvetica,sans-Serif" font-size="10.00" fill="#000000">type_traits</text>
</g>
<!-- Node16&#45;&gt;Node19 -->
<g id="edge35" class="edge">
<title>Node16&#45;&gt;Node19</title>
<path fill="none" stroke="#191970" d="M569.8521,-168.2455C560.4913,-160.0549 546.9142,-148.1749 535.8651,-138.5069"/>
<polygon fill="#191970" stroke="#191970" points="537.8508,-135.5937 528.0202,-131.6427 533.2412,-140.8618 537.8508,-135.5937"/>
</g>
<!-- Node20&#45;&gt;Node2 -->
<g id="edge41" class="edge">
<title>Node20&#45;&gt;Node2</title>
<path fill="none" stroke="#191970" d="M850.3124,-175.9422C778.6324,-171.6433 620.2963,-159.8715 477.9751,-131.8697"/>
<polygon fill="#191970" stroke="#191970" points="478.2494,-128.3553 467.757,-129.8254 476.8761,-135.2193 478.2494,-128.3553"/>
</g>
<!-- Node20&#45;&gt;Node10 -->
<g id="edge38" class="edge">
<title>Node20&#45;&gt;Node10</title>
<path fill="none" stroke="#191970" d="M850.3427,-174.0727C803.1356,-168.4504 721.3783,-156.0218 655,-132 638.4483,-126.01 532.6621,-61.6756 516,-56 428.3762,-26.1528 319.2676,-15.5291 262.4507,-11.8571"/>
<polygon fill="#191970" stroke="#191970" points="262.3305,-8.3434 252.1367,-11.2305 261.906,-15.3305 262.3305,-8.3434"/>
</g>
<!-- Node20&#45;&gt;Node12 -->
<g id="edge43" class="edge">
<title>Node20&#45;&gt;Node12</title>
<path fill="none" stroke="#191970" d="M927.8807,-171.2728C980.937,-161.7024 1070.5549,-143.9899 1080,-132 1085.5006,-125.0174 1086.0412,-118.5204 1080,-112 1060.8393,-91.3193 648.5922,-72.9059 517.5884,-67.5588"/>
<polygon fill="#191970" stroke="#191970" points="517.7108,-64.0609 507.5773,-67.1533 517.4275,-71.0552 517.7108,-64.0609"/>
</g>
<!-- Node21 -->
<g id="node22" class="node">
<title>Node21</title>
<polygon fill="none" stroke="#bfbfbf" points="967.5,-112.5 967.5,-131.5 1012.5,-131.5 1012.5,-112.5 967.5,-112.5"/>
<text text-anchor="middle" x="990" y="-119.5" font-family="Helvetica,sans-Serif" font-size="10.00" fill="#000000">cstdlib</text>
</g>
<!-- Node20&#45;&gt;Node21 -->
<g id="edge37" class="edge">
<title>Node20&#45;&gt;Node21</title>
<path fill="none" stroke="#191970" d="M906.5929,-168.2455C922.379,-159.4928 945.7639,-146.527 963.7587,-136.5496"/>
<polygon fill="#191970" stroke="#191970" points="965.5603,-139.5528 972.6087,-131.6427 962.1659,-133.4308 965.5603,-139.5528"/>
</g>
<!-- Node22 -->
<g id="node23" class="node">
<title>Node22</title>
<polygon fill="none" stroke="#bfbfbf" points="1128,-112.5 1128,-131.5 1174,-131.5 1174,-112.5 1128,-112.5"/>
<text text-anchor="middle" x="1151" y="-119.5" font-family="Helvetica,sans-Serif" font-size="10.00" fill="#000000">cstdint</text>
</g>
<!-- Node20&#45;&gt;Node22 -->
<g id="edge39" class="edge">
<title>Node20&#45;&gt;Node22</title>
<path fill="none" stroke="#191970" d="M927.78,-170.8328C972.748,-162.346 1049.0187,-147.408 1114,-132 1115.2747,-131.6978 1116.5721,-131.3829 1117.8813,-131.059"/>
<polygon fill="#191970" stroke="#191970" points="1119.152,-134.3461 1127.9639,-128.4639 1117.4071,-127.5671 1119.152,-134.3461"/>
</g>
<!-- Node23 -->
<g id="node24" class="node">
<title>Node23</title>
<polygon fill="none" stroke="#bfbfbf" points="1192,-112.5 1192,-131.5 1238,-131.5 1238,-112.5 1192,-112.5"/>
<text text-anchor="middle" x="1215" y="-119.5" font-family="Helvetica,sans-Serif" font-size="10.00" fill="#000000">cstring</text>
</g>
<!-- Node20&#45;&gt;Node23 -->
<g id="edge40" class="edge">
<title>Node20&#45;&gt;Node23</title>
<path fill="none" stroke="#191970" d="M927.7476,-172.6637C992.3064,-163.658 1120.1373,-145.312 1181.6974,-131.9814"/>
<polygon fill="#191970" stroke="#191970" points="1182.7096,-135.341 1191.691,-129.721 1181.1652,-128.5135 1182.7096,-135.341"/>
</g>
<!-- Node24 -->
<g id="node25" class="node">
<title>Node24</title>
<polygon fill="none" stroke="#bfbfbf" points="664,-112.5 664,-131.5 704,-131.5 704,-112.5 664,-112.5"/>
<text text-anchor="middle" x="684" y="-119.5" font-family="Helvetica,sans-Serif" font-size="10.00" fill="#000000">limits</text>
</g>
<!-- Node20&#45;&gt;Node24 -->
<g id="edge42" class="edge">
<title>Node20&#45;&gt;Node24</title>
<path fill="none" stroke="#191970" d="M850.3098,-168.7903C816.5895,-160.5631 766.1919,-147.7866 713.9832,-132.1455"/>
<polygon fill="#191970" stroke="#191970" points="714.8023,-128.7367 704.2172,-129.1921 712.7759,-135.437 714.8023,-128.7367"/>
</g>
<!-- Node25 -->
<g id="node26" class="node">
<title>Node25</title>
<polygon fill="none" stroke="#bfbfbf" points="722,-112.5 722,-131.5 766,-131.5 766,-112.5 722,-112.5"/>
<text text-anchor="middle" x="744" y="-119.5" font-family="Helvetica,sans-Serif" font-size="10.00" fill="#000000">vector</text>
</g>
<!-- Node20&#45;&gt;Node25 -->
<g id="edge44" class="edge">
<title>Node20&#45;&gt;Node25</title>
<path fill="none" stroke="#191970" d="M864.0736,-168.3733C839.6618,-158.9453 802.3662,-144.5414 775.8239,-134.2906"/>
<polygon fill="#191970" stroke="#191970" points="776.8166,-130.9221 766.2272,-130.5843 774.2947,-137.452 776.8166,-130.9221"/>
</g>
<!-- Node20&#45;&gt;Node26 -->
<g id="edge45" class="edge">
<title>Node20&#45;&gt;Node26</title>
<path fill="none" stroke="#191970" d="M927.6796,-173.1115C1009.9602,-162.7027 1198.191,-138.8359 1245.7731,-131.584"/>
<polygon fill="#191970" stroke="#191970" points="1246.5867,-134.9961 1255.8619,-129.8755 1245.4179,-128.0944 1246.5867,-134.9961"/>
</g>
<!-- Node27 -->
<g id="node28" class="node">
<title>Node27</title>
<polygon fill="none" stroke="#bfbfbf" points="784.5,-112.5 784.5,-131.5 831.5,-131.5 831.5,-112.5 784.5,-112.5"/>
<text text-anchor="middle" x="808" y="-119.5" font-family="Helvetica,sans-Serif" font-size="10.00" fill="#000000">iterator</text>
</g>
<!-- Node20&#45;&gt;Node27 -->
<g id="edge46" class="edge">
<title>Node20&#45;&gt;Node27</title>
<path fill="none" stroke="#191970" d="M874.8909,-168.2455C862.5791,-159.7337 844.5042,-147.2375 830.2462,-137.3801"/>
<polygon fill="#191970" stroke="#191970" points="832.1634,-134.4506 821.9474,-131.6427 828.1826,-140.2085 832.1634,-134.4506"/>
</g>
<!-- Node28 -->
<g id="node29" class="node">
<title>Node28</title>
<polygon fill="none" stroke="#bfbfbf" points="850,-112.5 850,-131.5 896,-131.5 896,-112.5 850,-112.5"/>
<text text-anchor="middle" x="873" y="-119.5" font-family="Helvetica,sans-Serif" font-size="10.00" fill="#000000">chrono</text>
</g>
<!-- Node20&#45;&gt;Node28 -->
<g id="edge47" class="edge">
<title>Node20&#45;&gt;Node28</title>
<path fill="none" stroke="#191970" d="M886.213,-168.2455C884.1023,-160.8579 881.134,-150.4689 878.5453,-141.4087"/>
<polygon fill="#191970" stroke="#191970" points="881.8677,-140.2964 875.755,-131.6427 875.137,-142.2195 881.8677,-140.2964"/>
</g>
<!-- Node29 -->
<g id="node30" class="node">
<title>Node29</title>
<polygon fill="none" stroke="#bfbfbf" points="914.5,-112.5 914.5,-131.5 949.5,-131.5 949.5,-112.5 914.5,-112.5"/>
<text text-anchor="middle" x="932" y="-119.5" font-family="Helvetica,sans-Serif" font-size="10.00" fill="#000000">dc.h</text>
</g>
<!-- Node20&#45;&gt;Node29 -->
<g id="edge48" class="edge">
<title>Node20&#45;&gt;Node29</title>
<path fill="none" stroke="#191970" d="M896.49,-168.2455C902.5326,-160.3761 911.1903,-149.101 918.4441,-139.6542"/>
<polygon fill="#191970" stroke="#191970" points="921.2815,-141.7058 924.5958,-131.6427 915.7295,-137.4426 921.2815,-141.7058"/>
</g>
<!-- Node30&#45;&gt;Node8 -->
<g id="edge51" class="edge">
<title>Node30&#45;&gt;Node8</title>
<path fill="none" stroke="#191970" d="M1399.6848,-57.6376C1395.0589,-57.0511 1390.4537,-56.4965 1386,-56 1186.2311,-33.7312 945.1758,-17.4665 859.2998,-12.002"/>
<polygon fill="#191970" stroke="#191970" points="859.3489,-8.4982 849.1481,-11.3604 858.9074,-15.4842 859.3489,-8.4982"/>
</g>
<!-- Node31&#45;&gt;Node18 -->
<g id="edge54" class="edge">
<title>Node31&#45;&gt;Node18</title>
<path fill="none" stroke="#191970" d="M1185.0429,-280.4914C1170.9261,-272.0617 1150.8128,-258.8153 1136,-244 1103.7738,-211.7684 1075.5672,-165.9637 1061.1651,-140.6405"/>
<polygon fill="#191970" stroke="#191970" points="1064.114,-138.7426 1056.1823,-131.7184 1058.0025,-142.1557 1064.114,-138.7426"/>
</g>
<!-- Node31&#45;&gt;Node32 -->
<g id="edge53" class="edge">
<title>Node31&#45;&gt;Node32</title>
<path fill="none" stroke="#191970" d="M1214.8898,-280.2455C1225.9254,-271.8943 1242.0292,-259.7076 1254.9353,-249.9408"/>
<polygon fill="#191970" stroke="#191970" points="1257.3959,-252.4681 1263.2579,-243.6427 1253.1717,-246.8862 1257.3959,-252.4681"/>
</g>
<!-- Node33 -->
<g id="node34" class="node">
<title>Node33</title>
<polygon fill="none" stroke="#bfbfbf" points="1145.5,-224.5 1145.5,-243.5 1228.5,-243.5 1228.5,-224.5 1145.5,-224.5"/>
<text text-anchor="middle" x="1187" y="-231.5" font-family="Helvetica,sans-Serif" font-size="10.00" fill="#000000">unordered_map</text>
</g>
<!-- Node31&#45;&gt;Node33 -->
<g id="edge55" class="edge">
<title>Node31&#45;&gt;Node33</title>
<path fill="none" stroke="#191970" d="M1199.3872,-280.2455C1197.4084,-272.8579 1194.6256,-262.4689 1192.1988,-253.4087"/>
<polygon fill="#191970" stroke="#191970" points="1195.5511,-252.3966 1189.5829,-243.6427 1188.7895,-254.2078 1195.5511,-252.3966"/>
</g>
<!-- Node35 -->
<g id="node36" class="node">
<title>Node35</title>
<g id="a_node36"><a xlink:href="profile_8hh.html" target="_top" xlink:title="profile.hh">
<polygon fill="none" stroke="#000000" points="1460,-224.5 1460,-243.5 1516,-243.5 1516,-224.5 1460,-224.5"/>
<text text-anchor="middle" x="1488" y="-231.5" font-family="Helvetica,sans-Serif" font-size="10.00" fill="#000000">profile.hh</text>
</a>
</g>
</g>
<!-- Node34&#45;&gt;Node35 -->
<g id="edge57" class="edge">
<title>Node34&#45;&gt;Node35</title>
<path fill="none" stroke="#191970" d="M1488,-280.2455C1488,-272.9382 1488,-262.6944 1488,-253.7046"/>
<polygon fill="#191970" stroke="#191970" points="1491.5001,-253.6426 1488,-243.6427 1484.5001,-253.6427 1491.5001,-253.6426"/>
</g>
<!-- Node36&#45;&gt;Node4 -->
<g id="edge60" class="edge">
<title>Node36&#45;&gt;Node4</title>
<path fill="none" stroke="#191970" d="M964.8904,-232.4947C835.4653,-227.5834 436.6206,-211.0914 287.2781,-187.8498"/>
<polygon fill="#191970" stroke="#191970" points="287.8181,-184.3917 277.3852,-186.2371 286.6918,-191.3005 287.8181,-184.3917"/>
</g>
<!-- Node36&#45;&gt;Node8 -->
<g id="edge59" class="edge">
<title>Node36&#45;&gt;Node8</title>
<path fill="none" stroke="#191970" d="M1047.0335,-225.8979C1139.1646,-206.7853 1351.6452,-157.0966 1315,-112 1256.9373,-40.5465 958.3483,-17.4102 859.1108,-11.632"/>
<polygon fill="#191970" stroke="#191970" points="859.259,-8.1349 849.0782,-11.068 858.866,-15.1239 859.259,-8.1349"/>
</g>
<!-- Node36&#45;&gt;Node20 -->
<g id="edge61" class="edge">
<title>Node36&#45;&gt;Node20</title>
<path fill="none" stroke="#191970" d="M985.887,-224.3733C967.1897,-215.4241 939.1256,-201.9917 918.0066,-191.8835"/>
<polygon fill="#191970" stroke="#191970" points="919.3817,-188.6614 908.8506,-187.5011 916.3595,-194.9755 919.3817,-188.6614"/>
</g>
<!-- Node37 -->
<g id="node38" class="node">
<title>Node37</title>
<polygon fill="none" stroke="#bfbfbf" points="978,-168.5 978,-187.5 1034,-187.5 1034,-168.5 978,-168.5"/>
<text text-anchor="middle" x="1006" y="-175.5" font-family="Helvetica,sans-Serif" font-size="10.00" fill="#000000">config.hh</text>
</g>
<!-- Node36&#45;&gt;Node37 -->
<g id="edge62" class="edge">
<title>Node36&#45;&gt;Node37</title>
<path fill="none" stroke="#191970" d="M1006,-224.2455C1006,-216.9382 1006,-206.6944 1006,-197.7046"/>
<polygon fill="#191970" stroke="#191970" points="1009.5001,-197.6426 1006,-187.6427 1002.5001,-197.6427 1009.5001,-197.6426"/>
</g>
</g>
</svg>
