<?xml version="1.0" encoding="UTF-8" standalone="no"?>
<!DOCTYPE svg PUBLIC "-//W3C//DTD SVG 1.1//EN"
 "http://www.w3.org/Graphics/SVG/1.1/DTD/svg11.dtd">
<!-- Generated by graphviz version 2.40.1 (20161225.0304)
 -->
<!-- Title: src/generator/lh_model.hh Pages: 1 -->
<svg width="1285pt" height="308pt"
 viewBox="0.00 0.00 1284.50 308.00" xmlns="http://www.w3.org/2000/svg" xmlns:xlink="http://www.w3.org/1999/xlink">
<g id="graph0" class="graph" transform="scale(1 1) rotate(0) translate(4 304)">
<title>src/generator/lh_model.hh</title>
<!-- Node0 -->
<g id="node1" class="node">
<title>Node0</title>
<polygon fill="#bfbfbf" stroke="#000000" points="197.5,-280.5 197.5,-299.5 326.5,-299.5 326.5,-280.5 197.5,-280.5"/>
<text text-anchor="middle" x="262" y="-287.5" font-family="Helvetica,sans-Serif" font-size="10.00" fill="#000000">src/generator/lh_model.hh</text>
</g>
<!-- Node1 -->
<g id="node2" class="node">
<title>Node1</title>
<polygon fill="none" stroke="#bfbfbf" points="587.5,-112.5 587.5,-131.5 636.5,-131.5 636.5,-112.5 587.5,-112.5"/>
<text text-anchor="middle" x="612" y="-119.5" font-family="Helvetica,sans-Serif" font-size="10.00" fill="#000000">istream</text>
</g>
<!-- Node0&#45;&gt;Node1 -->
<g id="edge1" class="edge">
<title>Node0&#45;&gt;Node1</title>
<path fill="none" stroke="#191970" d="M326.7733,-282.8654C373.1136,-276.3365 436.3469,-264.4808 489,-244 533.9663,-226.5091 549.907,-224.0269 582,-188 594.0087,-174.5193 601.9786,-155.4251 606.6655,-141.2401"/>
<polygon fill="#191970" stroke="#191970" points="610.0593,-142.1098 609.6223,-131.524 603.3625,-140.0718 610.0593,-142.1098"/>
</g>
<!-- Node2 -->
<g id="node3" class="node">
<title>Node2</title>
<polygon fill="none" stroke="#bfbfbf" points="318,-112.5 318,-131.5 370,-131.5 370,-112.5 318,-112.5"/>
<text text-anchor="middle" x="344" y="-119.5" font-family="Helvetica,sans-Serif" font-size="10.00" fill="#000000">ostream</text>
</g>
<!-- Node0&#45;&gt;Node2 -->
<g id="edge2" class="edge">
<title>Node0&#45;&gt;Node2</title>
<path fill="none" stroke="#191970" d="M272.3116,-280.2036C281.1222,-271.3932 293.66,-257.7556 302,-244 322.1319,-210.7955 334.2573,-166.62 339.9885,-141.5561"/>
<polygon fill="#191970" stroke="#191970" points="343.4088,-142.2981 342.1179,-131.7822 336.5693,-140.8079 343.4088,-142.2981"/>
</g>
<!-- Node3 -->
<g id="node4" class="node">
<title>Node3</title>
<g id="a_node4"><a xlink:href="types_8hh.html" target="_top" xlink:title="types.hh">
<polygon fill="none" stroke="#000000" points="0,-168.5 0,-187.5 54,-187.5 54,-168.5 0,-168.5"/>
<text text-anchor="middle" x="27" y="-175.5" font-family="Helvetica,sans-Serif" font-size="10.00" fill="#000000">types.hh</text>
</a>
</g>
</g>
<!-- Node0&#45;&gt;Node3 -->
<g id="edge3" class="edge">
<title>Node0&#45;&gt;Node3</title>
<path fill="none" stroke="#191970" d="M197.424,-281.0795C147.3537,-273.093 83.0561,-260.1615 62,-244 46.9321,-232.4347 37.6496,-212.5016 32.4645,-197.56"/>
<polygon fill="#191970" stroke="#191970" points="35.7211,-196.2477 29.3889,-187.7533 29.0418,-198.3425 35.7211,-196.2477"/>
</g>
<!-- Node5 -->
<g id="node6" class="node">
<title>Node5</title>
<g id="a_node6"><a xlink:href="discrete__function_8hh.html" target="_top" xlink:title="discrete_function.hh">
<polygon fill="none" stroke="#000000" points="71,-224.5 71,-243.5 175,-243.5 175,-224.5 71,-224.5"/>
<text text-anchor="middle" x="123" y="-231.5" font-family="Helvetica,sans-Serif" font-size="10.00" fill="#000000">discrete_function.hh</text>
</a>
</g>
</g>
<!-- Node0&#45;&gt;Node5 -->
<g id="edge5" class="edge">
<title>Node0&#45;&gt;Node5</title>
<path fill="none" stroke="#191970" d="M238.105,-280.3733C215.4918,-271.2629 181.3458,-257.5062 156.1127,-247.3404"/>
<polygon fill="#191970" stroke="#191970" points="157.1666,-243.9917 146.5831,-243.5011 154.5507,-250.4845 157.1666,-243.9917"/>
</g>
<!-- Node6 -->
<g id="node7" class="node">
<title>Node6</title>
<g id="a_node7"><a xlink:href="grid_8hh.html" target="_top" xlink:title="grid.hh">
<polygon fill="none" stroke="#000000" points="110,-168.5 110,-187.5 156,-187.5 156,-168.5 110,-168.5"/>
<text text-anchor="middle" x="133" y="-175.5" font-family="Helvetica,sans-Serif" font-size="10.00" fill="#000000">grid.hh</text>
</a>
</g>
</g>
<!-- Node0&#45;&gt;Node6 -->
<g id="edge25" class="edge">
<title>Node0&#45;&gt;Node6</title>
<path fill="none" stroke="#191970" d="M251.0015,-280.4509C228.9147,-261.2747 178.9519,-217.8962 151.6576,-194.1988"/>
<polygon fill="#191970" stroke="#191970" points="153.8164,-191.438 143.9706,-187.5249 149.2271,-196.7238 153.8164,-191.438"/>
</g>
<!-- Node12 -->
<g id="node13" class="node">
<title>Node12</title>
<g id="a_node13"><a xlink:href="domain_8hh.html" target="_top" xlink:title="domain.hh">
<polygon fill="none" stroke="#000000" points="231,-224.5 231,-243.5 293,-243.5 293,-224.5 231,-224.5"/>
<text text-anchor="middle" x="262" y="-231.5" font-family="Helvetica,sans-Serif" font-size="10.00" fill="#000000">domain.hh</text>
</a>
</g>
</g>
<!-- Node0&#45;&gt;Node12 -->
<g id="edge17" class="edge">
<title>Node0&#45;&gt;Node12</title>
<path fill="none" stroke="#191970" d="M262,-280.2455C262,-272.9382 262,-262.6944 262,-253.7046"/>
<polygon fill="#191970" stroke="#191970" points="265.5001,-253.6426 262,-243.6427 258.5001,-253.6427 265.5001,-253.6426"/>
</g>
<!-- Node14 -->
<g id="node15" class="node">
<title>Node14</title>
<g id="a_node15"><a xlink:href="basic__model_8hh.html" target="_top" xlink:title="basic_model.hh">
<polygon fill="none" stroke="#000000" points="394.5,-224.5 394.5,-243.5 479.5,-243.5 479.5,-224.5 394.5,-224.5"/>
<text text-anchor="middle" x="437" y="-231.5" font-family="Helvetica,sans-Serif" font-size="10.00" fill="#000000">basic_model.hh</text>
</a>
</g>
</g>
<!-- Node0&#45;&gt;Node14 -->
<g id="edge26" class="edge">
<title>Node0&#45;&gt;Node14</title>
<path fill="none" stroke="#191970" d="M292.0836,-280.3733C321.1834,-271.0613 365.4523,-256.8953 397.403,-246.671"/>
<polygon fill="#191970" stroke="#191970" points="398.8515,-249.8824 407.309,-243.5011 396.718,-243.2155 398.8515,-249.8824"/>
</g>
<!-- Node4 -->
<g id="node5" class="node">
<title>Node4</title>
<polygon fill="none" stroke="#bfbfbf" points="48.5,-.5 48.5,-19.5 115.5,-19.5 115.5,-.5 48.5,-.5"/>
<text text-anchor="middle" x="82" y="-7.5" font-family="Helvetica,sans-Serif" font-size="10.00" fill="#000000">blitz/array.h</text>
</g>
<!-- Node3&#45;&gt;Node4 -->
<g id="edge4" class="edge">
<title>Node3&#45;&gt;Node4</title>
<path fill="none" stroke="#191970" d="M30.1146,-168.4862C38.8465,-141.8144 63.6956,-65.9117 75.5522,-29.695"/>
<polygon fill="#191970" stroke="#191970" points="78.9974,-30.4205 78.7825,-19.8279 72.3449,-28.2426 78.9974,-30.4205"/>
</g>
<!-- Node5&#45;&gt;Node3 -->
<g id="edge16" class="edge">
<title>Node5&#45;&gt;Node3</title>
<path fill="none" stroke="#191970" d="M106.2781,-224.2455C91.4111,-215.5731 69.4534,-202.7645 52.4142,-192.825"/>
<polygon fill="#191970" stroke="#191970" points="53.9317,-189.6582 43.5303,-187.6427 50.4045,-195.7047 53.9317,-189.6582"/>
</g>
<!-- Node5&#45;&gt;Node6 -->
<g id="edge6" class="edge">
<title>Node5&#45;&gt;Node6</title>
<path fill="none" stroke="#191970" d="M124.7419,-224.2455C126.0467,-216.9382 127.876,-206.6944 129.4813,-197.7046"/>
<polygon fill="#191970" stroke="#191970" points="132.9656,-198.1022 131.2781,-187.6427 126.0746,-196.8717 132.9656,-198.1022"/>
</g>
<!-- Node6&#45;&gt;Node1 -->
<g id="edge8" class="edge">
<title>Node6&#45;&gt;Node1</title>
<path fill="none" stroke="#191970" d="M156.2683,-170.0898C159.1842,-169.2881 162.1448,-168.5634 165,-168 343.0155,-132.875 395.7976,-165.7704 577.399,-131.9738"/>
<polygon fill="#191970" stroke="#191970" points="578.1028,-135.4028 587.2721,-130.0949 576.7941,-128.5262 578.1028,-135.4028"/>
</g>
<!-- Node7 -->
<g id="node8" class="node">
<title>Node7</title>
<polygon fill="none" stroke="#bfbfbf" points="150,-.5 150,-19.5 194,-19.5 194,-.5 150,-.5"/>
<text text-anchor="middle" x="172" y="-7.5" font-family="Helvetica,sans-Serif" font-size="10.00" fill="#000000">cmath</text>
</g>
<!-- Node6&#45;&gt;Node7 -->
<g id="edge7" class="edge">
<title>Node6&#45;&gt;Node7</title>
<path fill="none" stroke="#191970" d="M131.6922,-168.4746C129.1833,-147.4633 125.0971,-95.8443 139,-56 142.6529,-45.5311 149.4947,-35.3561 156.0055,-27.2489"/>
<polygon fill="#191970" stroke="#191970" points="158.6865,-29.499 162.5231,-19.6232 153.3653,-24.951 158.6865,-29.499"/>
</g>
<!-- Node8 -->
<g id="node9" class="node">
<title>Node8</title>
<g id="a_node9"><a xlink:href="blitz_8hh.html" target="_top" xlink:title="blitz.hh">
<polygon fill="none" stroke="#000000" points="148,-56.5 148,-75.5 196,-75.5 196,-56.5 148,-56.5"/>
<text text-anchor="middle" x="172" y="-63.5" font-family="Helvetica,sans-Serif" font-size="10.00" fill="#000000">blitz.hh</text>
</a>
</g>
</g>
<!-- Node6&#45;&gt;Node8 -->
<g id="edge9" class="edge">
<title>Node6&#45;&gt;Node8</title>
<path fill="none" stroke="#191970" d="M136.3251,-168.4509C142.7435,-150.0186 156.9483,-109.2254 165.369,-85.043"/>
<polygon fill="#191970" stroke="#191970" points="168.7001,-86.1197 168.6833,-75.5249 162.0894,-83.8177 168.7001,-86.1197"/>
</g>
<!-- Node10 -->
<g id="node11" class="node">
<title>Node10</title>
<g id="a_node11"><a xlink:href="validators_8hh.html" target="_top" xlink:title="validators.hh">
<polygon fill="none" stroke="#000000" points="189,-112.5 189,-131.5 261,-131.5 261,-112.5 189,-112.5"/>
<text text-anchor="middle" x="225" y="-119.5" font-family="Helvetica,sans-Serif" font-size="10.00" fill="#000000">validators.hh</text>
</a>
</g>
</g>
<!-- Node6&#45;&gt;Node10 -->
<g id="edge13" class="edge">
<title>Node6&#45;&gt;Node10</title>
<path fill="none" stroke="#191970" d="M149.0252,-168.2455C163.1408,-159.6534 183.9263,-147.0014 200.1899,-137.1018"/>
<polygon fill="#191970" stroke="#191970" points="202.4363,-139.8319 209.1585,-131.6427 198.7966,-133.8525 202.4363,-139.8319"/>
</g>
<!-- Node8&#45;&gt;Node4 -->
<g id="edge11" class="edge">
<title>Node8&#45;&gt;Node4</title>
<path fill="none" stroke="#191970" d="M156.3232,-56.2455C142.5144,-47.6534 122.1807,-35.0014 106.2708,-25.1018"/>
<polygon fill="#191970" stroke="#191970" points="107.8368,-21.954 97.4972,-19.6427 104.1387,-27.8974 107.8368,-21.954"/>
</g>
<!-- Node8&#45;&gt;Node7 -->
<g id="edge12" class="edge">
<title>Node8&#45;&gt;Node7</title>
<path fill="none" stroke="#191970" d="M172,-56.2455C172,-48.9382 172,-38.6944 172,-29.7046"/>
<polygon fill="#191970" stroke="#191970" points="175.5001,-29.6426 172,-19.6427 168.5001,-29.6427 175.5001,-29.6426"/>
</g>
<!-- Node9 -->
<g id="node10" class="node">
<title>Node9</title>
<polygon fill="none" stroke="#bfbfbf" points="443,-.5 443,-19.5 499,-19.5 499,-.5 443,-.5"/>
<text text-anchor="middle" x="471" y="-7.5" font-family="Helvetica,sans-Serif" font-size="10.00" fill="#000000">algorithm</text>
</g>
<!-- Node8&#45;&gt;Node9 -->
<g id="edge10" class="edge">
<title>Node8&#45;&gt;Node9</title>
<path fill="none" stroke="#191970" d="M196.0558,-58.5557C199.3807,-57.635 202.7642,-56.7541 206,-56 285.985,-37.3596 381.151,-22.6194 432.883,-15.219"/>
<polygon fill="#191970" stroke="#191970" points="433.5269,-18.6629 442.9373,-13.7952 432.5453,-11.732 433.5269,-18.6629"/>
</g>
<!-- Node10&#45;&gt;Node8 -->
<g id="edge15" class="edge">
<title>Node10&#45;&gt;Node8</title>
<path fill="none" stroke="#191970" d="M215.7681,-112.2455C208.1683,-104.2155 197.2123,-92.6394 188.1632,-83.0781"/>
<polygon fill="#191970" stroke="#191970" points="190.542,-80.4998 181.1261,-75.6427 185.4579,-85.3115 190.542,-80.4998"/>
</g>
<!-- Node11 -->
<g id="node12" class="node">
<title>Node11</title>
<polygon fill="none" stroke="#bfbfbf" points="214.5,-56.5 214.5,-75.5 273.5,-75.5 273.5,-56.5 214.5,-56.5"/>
<text text-anchor="middle" x="244" y="-63.5" font-family="Helvetica,sans-Serif" font-size="10.00" fill="#000000">stdexcept</text>
</g>
<!-- Node10&#45;&gt;Node11 -->
<g id="edge14" class="edge">
<title>Node10&#45;&gt;Node11</title>
<path fill="none" stroke="#191970" d="M228.3095,-112.2455C230.8433,-104.7776 234.4177,-94.2427 237.515,-85.1137"/>
<polygon fill="#191970" stroke="#191970" points="240.8298,-86.237 240.7284,-75.6427 234.2009,-83.9879 240.8298,-86.237"/>
</g>
<!-- Node12&#45;&gt;Node1 -->
<g id="edge20" class="edge">
<title>Node12&#45;&gt;Node1</title>
<path fill="none" stroke="#191970" d="M293.0879,-230.4299C353.3306,-223.2079 483.6772,-206.013 525,-188 539.4346,-181.7078 571.7675,-155.7924 592.6934,-138.3693"/>
<polygon fill="#191970" stroke="#191970" points="595.2032,-140.8324 600.6165,-131.7249 590.7052,-135.4688 595.2032,-140.8324"/>
</g>
<!-- Node12&#45;&gt;Node2 -->
<g id="edge21" class="edge">
<title>Node12&#45;&gt;Node2</title>
<path fill="none" stroke="#191970" d="M271.9375,-224.2618C280.85,-215.2718 294.0221,-201.3339 304,-188 315.3689,-172.8072 326.401,-154.2248 333.9893,-140.653"/>
<polygon fill="#191970" stroke="#191970" points="337.1181,-142.2266 338.8618,-131.7763 330.9818,-138.8583 337.1181,-142.2266"/>
</g>
<!-- Node12&#45;&gt;Node4 -->
<g id="edge22" class="edge">
<title>Node12&#45;&gt;Node4</title>
<path fill="none" stroke="#191970" d="M230.9076,-229.3049C188.9866,-222.3034 117.6558,-207.7978 101,-188 62.9071,-142.721 70.9662,-66.335 77.5987,-30.1577"/>
<polygon fill="#191970" stroke="#191970" points="81.1179,-30.4065 79.6416,-19.915 74.2531,-29.0372 81.1179,-30.4065"/>
</g>
<!-- Node12&#45;&gt;Node6 -->
<g id="edge23" class="edge">
<title>Node12&#45;&gt;Node6</title>
<path fill="none" stroke="#191970" d="M239.8241,-224.3733C219.0234,-215.3435 187.7083,-201.7494 164.3542,-191.6111"/>
<polygon fill="#191970" stroke="#191970" points="165.4532,-188.2727 154.8865,-187.5011 162.6657,-194.6938 165.4532,-188.2727"/>
</g>
<!-- Node12&#45;&gt;Node7 -->
<g id="edge18" class="edge">
<title>Node12&#45;&gt;Node7</title>
<path fill="none" stroke="#191970" d="M267.0994,-224.4943C281.5563,-196.1155 319.4724,-110.595 283,-56 265.5844,-29.9309 230.3598,-18.6166 204.2393,-13.7177"/>
<polygon fill="#191970" stroke="#191970" points="204.4677,-10.2082 194.0317,-12.0363 203.3299,-17.1151 204.4677,-10.2082"/>
</g>
<!-- Node12&#45;&gt;Node10 -->
<g id="edge24" class="edge">
<title>Node12&#45;&gt;Node10</title>
<path fill="none" stroke="#191970" d="M258.8454,-224.4509C252.7562,-206.0186 239.2798,-165.2254 231.291,-141.043"/>
<polygon fill="#191970" stroke="#191970" points="234.6069,-139.9223 228.1466,-131.5249 227.9602,-142.1181 234.6069,-139.9223"/>
</g>
<!-- Node13 -->
<g id="node14" class="node">
<title>Node13</title>
<polygon fill="none" stroke="#bfbfbf" points="174,-168.5 174,-187.5 224,-187.5 224,-168.5 174,-168.5"/>
<text text-anchor="middle" x="199" y="-175.5" font-family="Helvetica,sans-Serif" font-size="10.00" fill="#000000">iomanip</text>
</g>
<!-- Node12&#45;&gt;Node13 -->
<g id="edge19" class="edge">
<title>Node12&#45;&gt;Node13</title>
<path fill="none" stroke="#191970" d="M251.0262,-224.2455C241.8118,-216.0549 228.4468,-204.1749 217.5703,-194.5069"/>
<polygon fill="#191970" stroke="#191970" points="219.6474,-191.6704 209.848,-187.6427 214.9968,-196.9023 219.6474,-191.6704"/>
</g>
<!-- Node14&#45;&gt;Node1 -->
<g id="edge27" class="edge">
<title>Node14&#45;&gt;Node1</title>
<path fill="none" stroke="#191970" d="M477.1597,-224.4449C502.0339,-217.2023 533.7459,-205.4687 558,-188 575.7384,-175.2241 590.979,-155.2293 600.702,-140.5933"/>
<polygon fill="#191970" stroke="#191970" points="603.8344,-142.1911 606.2655,-131.879 597.9342,-138.4243 603.8344,-142.1911"/>
</g>
<!-- Node14&#45;&gt;Node2 -->
<g id="edge28" class="edge">
<title>Node14&#45;&gt;Node2</title>
<path fill="none" stroke="#191970" d="M429.0709,-224.4509C413.4223,-205.6054 378.3642,-163.3849 358.483,-139.4419"/>
<polygon fill="#191970" stroke="#191970" points="360.9901,-136.9824 351.9091,-131.5249 355.6047,-141.4543 360.9901,-136.9824"/>
</g>
<!-- Node14&#45;&gt;Node3 -->
<g id="edge49" class="edge">
<title>Node14&#45;&gt;Node3</title>
<path fill="none" stroke="#191970" d="M394.2831,-228.1655C313.6758,-217.1557 140.4073,-193.4898 64.2278,-183.0848"/>
<polygon fill="#191970" stroke="#191970" points="64.5243,-179.5929 54.1427,-181.7073 63.577,-186.5285 64.5243,-179.5929"/>
</g>
<!-- Node14&#45;&gt;Node6 -->
<g id="edge29" class="edge">
<title>Node14&#45;&gt;Node6</title>
<path fill="none" stroke="#191970" d="M394.2374,-228.5929C342.3552,-221.6316 252.1196,-208.2391 166.2261,-188.0515"/>
<polygon fill="#191970" stroke="#191970" points="166.8563,-184.6037 156.317,-185.6871 165.2316,-191.4125 166.8563,-184.6037"/>
</g>
<!-- Node15 -->
<g id="node16" class="node">
<title>Node15</title>
<g id="a_node16"><a xlink:href="output__flags_8hh.html" target="_top" xlink:title="output_flags.hh">
<polygon fill="none" stroke="#000000" points="432.5,-168.5 432.5,-187.5 515.5,-187.5 515.5,-168.5 432.5,-168.5"/>
<text text-anchor="middle" x="474" y="-175.5" font-family="Helvetica,sans-Serif" font-size="10.00" fill="#000000">output_flags.hh</text>
</a>
</g>
</g>
<!-- Node14&#45;&gt;Node15 -->
<g id="edge30" class="edge">
<title>Node14&#45;&gt;Node15</title>
<path fill="none" stroke="#191970" d="M443.4449,-224.2455C448.5382,-216.5367 455.7908,-205.5598 461.952,-196.2348"/>
<polygon fill="#191970" stroke="#191970" points="465.0365,-197.9155 467.6289,-187.6427 459.1962,-194.0566 465.0365,-197.9155"/>
</g>
<!-- Node19 -->
<g id="node20" class="node">
<title>Node19</title>
<g id="a_node20"><a xlink:href="parallel__mt_8hh.html" target="_top" xlink:title="parallel_mt.hh">
<polygon fill="none" stroke="#000000" points="843.5,-168.5 843.5,-187.5 920.5,-187.5 920.5,-168.5 843.5,-168.5"/>
<text text-anchor="middle" x="882" y="-175.5" font-family="Helvetica,sans-Serif" font-size="10.00" fill="#000000">parallel_mt.hh</text>
</a>
</g>
</g>
<!-- Node14&#45;&gt;Node19 -->
<g id="edge36" class="edge">
<title>Node14&#45;&gt;Node19</title>
<path fill="none" stroke="#191970" d="M479.6685,-228.6305C562.7422,-218.1763 745.7127,-195.1508 833.3478,-184.1225"/>
<polygon fill="#191970" stroke="#191970" points="833.812,-187.5918 843.2967,-182.8705 832.9379,-180.6466 833.812,-187.5918"/>
</g>
<!-- Node15&#45;&gt;Node1 -->
<g id="edge32" class="edge">
<title>Node15&#45;&gt;Node1</title>
<path fill="none" stroke="#191970" d="M497.723,-168.3733C520.1737,-159.2629 554.0739,-145.5062 579.1255,-135.3404"/>
<polygon fill="#191970" stroke="#191970" points="580.6365,-138.5045 588.5865,-131.5011 578.0043,-132.0182 580.6365,-138.5045"/>
</g>
<!-- Node15&#45;&gt;Node2 -->
<g id="edge33" class="edge">
<title>Node15&#45;&gt;Node2</title>
<path fill="none" stroke="#191970" d="M451.6522,-168.3733C430.5967,-159.3032 398.8505,-145.6279 375.2825,-135.4755"/>
<polygon fill="#191970" stroke="#191970" points="376.625,-132.243 366.0562,-131.5011 373.8556,-138.6719 376.625,-132.243"/>
</g>
<!-- Node16 -->
<g id="node17" class="node">
<title>Node16</title>
<polygon fill="none" stroke="#bfbfbf" points="528.5,-112.5 528.5,-131.5 569.5,-131.5 569.5,-112.5 528.5,-112.5"/>
<text text-anchor="middle" x="549" y="-119.5" font-family="Helvetica,sans-Serif" font-size="10.00" fill="#000000">bitset</text>
</g>
<!-- Node15&#45;&gt;Node16 -->
<g id="edge31" class="edge">
<title>Node15&#45;&gt;Node16</title>
<path fill="none" stroke="#191970" d="M487.064,-168.2455C498.3562,-159.814 514.8845,-147.4729 528.0271,-137.6598"/>
<polygon fill="#191970" stroke="#191970" points="530.1669,-140.4301 536.0857,-131.6427 525.9789,-134.8211 530.1669,-140.4301"/>
</g>
<!-- Node17 -->
<g id="node18" class="node">
<title>Node17</title>
<polygon fill="none" stroke="#bfbfbf" points="388.5,-112.5 388.5,-131.5 429.5,-131.5 429.5,-112.5 388.5,-112.5"/>
<text text-anchor="middle" x="409" y="-119.5" font-family="Helvetica,sans-Serif" font-size="10.00" fill="#000000">string</text>
</g>
<!-- Node15&#45;&gt;Node17 -->
<g id="edge34" class="edge">
<title>Node15&#45;&gt;Node17</title>
<path fill="none" stroke="#191970" d="M462.6779,-168.2455C453.0777,-159.9746 439.1108,-147.9416 427.8305,-138.2232"/>
<polygon fill="#191970" stroke="#191970" points="430.053,-135.5182 420.1924,-131.6427 425.484,-140.8214 430.053,-135.5182"/>
</g>
<!-- Node18 -->
<g id="node19" class="node">
<title>Node18</title>
<polygon fill="none" stroke="#bfbfbf" points="448,-112.5 448,-131.5 510,-131.5 510,-112.5 448,-112.5"/>
<text text-anchor="middle" x="479" y="-119.5" font-family="Helvetica,sans-Serif" font-size="10.00" fill="#000000">type_traits</text>
</g>
<!-- Node15&#45;&gt;Node18 -->
<g id="edge35" class="edge">
<title>Node15&#45;&gt;Node18</title>
<path fill="none" stroke="#191970" d="M474.8709,-168.2455C475.5234,-160.9382 476.438,-150.6944 477.2407,-141.7046"/>
<polygon fill="#191970" stroke="#191970" points="480.7358,-141.9143 478.139,-131.6427 473.7635,-141.2918 480.7358,-141.9143"/>
</g>
<!-- Node19&#45;&gt;Node1 -->
<g id="edge41" class="edge">
<title>Node19&#45;&gt;Node1</title>
<path fill="none" stroke="#191970" d="M843.4434,-170.9865C797.471,-162.4709 718.3836,-147.3362 651,-132 649.5517,-131.6704 648.0751,-131.3266 646.5849,-130.9732"/>
<polygon fill="#191970" stroke="#191970" points="647.2541,-127.5337 636.7083,-128.5515 645.5871,-134.3323 647.2541,-127.5337"/>
</g>
<!-- Node19&#45;&gt;Node9 -->
<g id="edge38" class="edge">
<title>Node19&#45;&gt;Node9</title>
<path fill="none" stroke="#191970" d="M843.4943,-168.8108C810.9167,-160.5759 763.2456,-147.4361 723,-132 717.2938,-129.8114 564.938,-55.7237 499.9401,-24.0896"/>
<polygon fill="#191970" stroke="#191970" points="501.1757,-20.7985 490.6524,-19.569 498.1121,-27.0925 501.1757,-20.7985"/>
</g>
<!-- Node19&#45;&gt;Node11 -->
<g id="edge43" class="edge">
<title>Node19&#45;&gt;Node11</title>
<path fill="none" stroke="#191970" d="M843.2637,-171.1526C803.822,-163.6292 741.2179,-150.1585 689,-132 669.0922,-125.0771 666.2872,-117.7162 646,-112 578.4279,-92.9607 371.3165,-75.6106 283.7509,-68.9182"/>
<polygon fill="#191970" stroke="#191970" points="283.918,-65.4209 273.6822,-68.1554 283.3892,-72.4009 283.918,-65.4209"/>
</g>
<!-- Node20 -->
<g id="node21" class="node">
<title>Node20</title>
<polygon fill="none" stroke="#bfbfbf" points="731.5,-112.5 731.5,-131.5 776.5,-131.5 776.5,-112.5 731.5,-112.5"/>
<text text-anchor="middle" x="754" y="-119.5" font-family="Helvetica,sans-Serif" font-size="10.00" fill="#000000">cstdlib</text>
</g>
<!-- Node19&#45;&gt;Node20 -->
<g id="edge37" class="edge">
<title>Node19&#45;&gt;Node20</title>
<path fill="none" stroke="#191970" d="M859.996,-168.3733C839.3565,-159.3435 808.2842,-145.7494 785.1111,-135.6111"/>
<polygon fill="#191970" stroke="#191970" points="786.2813,-132.3028 775.7169,-131.5011 783.4755,-138.7159 786.2813,-132.3028"/>
</g>
<!-- Node21 -->
<g id="node22" class="node">
<title>Node21</title>
<polygon fill="none" stroke="#bfbfbf" points="795,-112.5 795,-131.5 841,-131.5 841,-112.5 795,-112.5"/>
<text text-anchor="middle" x="818" y="-119.5" font-family="Helvetica,sans-Serif" font-size="10.00" fill="#000000">cstdint</text>
</g>
<!-- Node19&#45;&gt;Node21 -->
<g id="edge39" class="edge">
<title>Node19&#45;&gt;Node21</title>
<path fill="none" stroke="#191970" d="M870.8521,-168.2455C861.4913,-160.0549 847.9142,-148.1749 836.8651,-138.5069"/>
<polygon fill="#191970" stroke="#191970" points="838.8508,-135.5937 829.0202,-131.6427 834.2412,-140.8618 838.8508,-135.5937"/>
</g>
<!-- Node22 -->
<g id="node23" class="node">
<title>Node22</title>
<polygon fill="none" stroke="#bfbfbf" points="859,-112.5 859,-131.5 905,-131.5 905,-112.5 859,-112.5"/>
<text text-anchor="middle" x="882" y="-119.5" font-family="Helvetica,sans-Serif" font-size="10.00" fill="#000000">cstring</text>
</g>
<!-- Node19&#45;&gt;Node22 -->
<g id="edge40" class="edge">
<title>Node19&#45;&gt;Node22</title>
<path fill="none" stroke="#191970" d="M882,-168.2455C882,-160.9382 882,-150.6944 882,-141.7046"/>
<polygon fill="#191970" stroke="#191970" points="885.5001,-141.6426 882,-131.6427 878.5001,-141.6427 885.5001,-141.6426"/>
</g>
<!-- Node23 -->
<g id="node24" class="node">
<title>Node23</title>
<polygon fill="none" stroke="#bfbfbf" points="923,-112.5 923,-131.5 963,-131.5 963,-112.5 923,-112.5"/>
<text text-anchor="middle" x="943" y="-119.5" font-family="Helvetica,sans-Serif" font-size="10.00" fill="#000000">limits</text>
</g>
<!-- Node19&#45;&gt;Node23 -->
<g id="edge42" class="edge">
<title>Node19&#45;&gt;Node23</title>
<path fill="none" stroke="#191970" d="M892.6254,-168.2455C901.5473,-160.0549 914.488,-148.1749 925.0192,-138.5069"/>
<polygon fill="#191970" stroke="#191970" points="927.4968,-140.9837 932.4964,-131.6427 922.7629,-135.8271 927.4968,-140.9837"/>
</g>
<!-- Node24 -->
<g id="node25" class="node">
<title>Node24</title>
<polygon fill="none" stroke="#bfbfbf" points="981,-112.5 981,-131.5 1025,-131.5 1025,-112.5 981,-112.5"/>
<text text-anchor="middle" x="1003" y="-119.5" font-family="Helvetica,sans-Serif" font-size="10.00" fill="#000000">vector</text>
</g>
<!-- Node19&#45;&gt;Node24 -->
<g id="edge44" class="edge">
<title>Node19&#45;&gt;Node24</title>
<path fill="none" stroke="#191970" d="M902.8006,-168.3733C922.2243,-159.3838 951.4224,-145.8706 973.2964,-135.7471"/>
<polygon fill="#191970" stroke="#191970" points="974.8656,-138.8776 982.4708,-131.5011 971.9255,-132.5249 974.8656,-138.8776"/>
</g>
<!-- Node25 -->
<g id="node26" class="node">
<title>Node25</title>
<polygon fill="none" stroke="#bfbfbf" points="1043,-112.5 1043,-131.5 1093,-131.5 1093,-112.5 1043,-112.5"/>
<text text-anchor="middle" x="1068" y="-119.5" font-family="Helvetica,sans-Serif" font-size="10.00" fill="#000000">fstream</text>
</g>
<!-- Node19&#45;&gt;Node25 -->
<g id="edge45" class="edge">
<title>Node19&#45;&gt;Node25</title>
<path fill="none" stroke="#191970" d="M913.9745,-168.3733C947.2511,-158.3545 999.1905,-142.7168 1033.4077,-132.4149"/>
<polygon fill="#191970" stroke="#191970" points="1034.4213,-135.765 1042.9877,-129.5306 1032.4032,-129.0622 1034.4213,-135.765"/>
</g>
<!-- Node26 -->
<g id="node27" class="node">
<title>Node26</title>
<polygon fill="none" stroke="#bfbfbf" points="1111.5,-112.5 1111.5,-131.5 1158.5,-131.5 1158.5,-112.5 1111.5,-112.5"/>
<text text-anchor="middle" x="1135" y="-119.5" font-family="Helvetica,sans-Serif" font-size="10.00" fill="#000000">iterator</text>
</g>
<!-- Node19&#45;&gt;Node26 -->
<g id="edge46" class="edge">
<title>Node19&#45;&gt;Node26</title>
<path fill="none" stroke="#191970" d="M920.7865,-170.962C962.9422,-163.0761 1032.4541,-149.3855 1101.5353,-131.9469"/>
<polygon fill="#191970" stroke="#191970" points="1102.4528,-135.3251 1111.2772,-129.4616 1100.7223,-128.5423 1102.4528,-135.3251"/>
</g>
<!-- Node27 -->
<g id="node28" class="node">
<title>Node27</title>
<polygon fill="none" stroke="#bfbfbf" points="1177,-112.5 1177,-131.5 1223,-131.5 1223,-112.5 1177,-112.5"/>
<text text-anchor="middle" x="1200" y="-119.5" font-family="Helvetica,sans-Serif" font-size="10.00" fill="#000000">chrono</text>
</g>
<!-- Node19&#45;&gt;Node27 -->
<g id="edge47" class="edge">
<title>Node19&#45;&gt;Node27</title>
<path fill="none" stroke="#191970" d="M920.739,-173.5603C974.1558,-167.0482 1073.5279,-153.5337 1166.8099,-132.0231"/>
<polygon fill="#191970" stroke="#191970" points="1167.75,-135.3977 1176.6882,-129.7093 1166.1535,-128.5822 1167.75,-135.3977"/>
</g>
<!-- Node28 -->
<g id="node29" class="node">
<title>Node28</title>
<polygon fill="none" stroke="#bfbfbf" points="1241.5,-112.5 1241.5,-131.5 1276.5,-131.5 1276.5,-112.5 1241.5,-112.5"/>
<text text-anchor="middle" x="1259" y="-119.5" font-family="Helvetica,sans-Serif" font-size="10.00" fill="#000000">dc.h</text>
</g>
<!-- Node19&#45;&gt;Node28 -->
<g id="edge48" class="edge">
<title>Node19&#45;&gt;Node28</title>
<path fill="none" stroke="#191970" d="M920.5885,-175.761C983.8598,-171.4802 1113.557,-160.1476 1231.5384,-131.5897"/>
<polygon fill="#191970" stroke="#191970" points="1232.5897,-134.9353 1241.4591,-129.1401 1230.9116,-128.1394 1232.5897,-134.9353"/>
</g>
</g>
</svg>
