<?xml version="1.0" encoding="UTF-8" standalone="no"?>
<!DOCTYPE svg PUBLIC "-//W3C//DTD SVG 1.1//EN"
 "http://www.w3.org/Graphics/SVG/1.1/DTD/svg11.dtd">
<!-- Generated by graphviz version 2.36.0 (20140111.2315)
 -->
<!-- Title: /home/travis/build/igankevich/arma/src/generator/lh_model.hh Pages: 1 -->
<svg width="1381pt" height="330pt"
 viewBox="0.00 0.00 1380.73 330.00" xmlns="http://www.w3.org/2000/svg" xmlns:xlink="http://www.w3.org/1999/xlink">
<g id="graph0" class="graph" transform="scale(1 1) rotate(0) translate(4 326)">
<title>/home/travis/build/igankevich/arma/src/generator/lh_model.hh</title>
<!-- Node1 -->
<g id="node1" class="node"><title>Node1</title>
<polygon fill="#bfbfbf" stroke="black" points="162,-280.5 162,-321.5 278,-321.5 278,-280.5 162,-280.5"/>
<text text-anchor="start" x="170" y="-309.5" font-family="Helvetica,sans-Serif" font-size="10.00">/home/travis/build</text>
<text text-anchor="start" x="170" y="-298.5" font-family="Helvetica,sans-Serif" font-size="10.00">/igankevich/arma/src</text>
<text text-anchor="middle" x="220" y="-287.5" font-family="Helvetica,sans-Serif" font-size="10.00">/generator/lh_model.hh</text>
</g>
<!-- Node2 -->
<g id="node2" class="node"><title>Node2</title>
<polygon fill="none" stroke="#bfbfbf" points="431.5,-112.5 431.5,-131.5 480.5,-131.5 480.5,-112.5 431.5,-112.5"/>
<text text-anchor="middle" x="456" y="-119.5" font-family="Helvetica,sans-Serif" font-size="10.00">istream</text>
</g>
<!-- Node1&#45;&gt;Node2 -->
<g id="edge1" class="edge"><title>Node1&#45;&gt;Node2</title>
<path fill="none" stroke="midnightblue" d="M270.98,-280.498C293.533,-270.901 319.894,-258.313 342,-244 373.727,-223.459 380.131,-215.556 406,-188 420.251,-172.819 434.538,-153.77 444.168,-140.226"/>
<polygon fill="midnightblue" stroke="midnightblue" points="447.168,-142.045 450.034,-131.845 441.433,-138.031 447.168,-142.045"/>
</g>
<!-- Node3 -->
<g id="node3" class="node"><title>Node3</title>
<polygon fill="none" stroke="#bfbfbf" points="162,-112.5 162,-131.5 214,-131.5 214,-112.5 162,-112.5"/>
<text text-anchor="middle" x="188" y="-119.5" font-family="Helvetica,sans-Serif" font-size="10.00">ostream</text>
</g>
<!-- Node1&#45;&gt;Node3 -->
<g id="edge2" class="edge"><title>Node1&#45;&gt;Node3</title>
<path fill="none" stroke="midnightblue" d="M218.011,-280.169C215.21,-254.211 209.481,-207.383 201,-168 199.072,-159.045 196.324,-149.259 193.85,-141.106"/>
<polygon fill="midnightblue" stroke="midnightblue" points="197.181,-140.031 190.849,-131.537 190.502,-142.126 197.181,-140.031"/>
</g>
<!-- Node4 -->
<g id="node4" class="node"><title>Node4</title>
<g id="a_node4"><a xlink:href="types_8hh.html" target="_top" xlink:title="types.hh">
<polygon fill="none" stroke="black" points="0,-168.5 0,-187.5 54,-187.5 54,-168.5 0,-168.5"/>
<text text-anchor="middle" x="27" y="-175.5" font-family="Helvetica,sans-Serif" font-size="10.00">types.hh</text>
</a>
</g>
</g>
<!-- Node1&#45;&gt;Node4 -->
<g id="edge3" class="edge"><title>Node1&#45;&gt;Node4</title>
<path fill="none" stroke="midnightblue" d="M161.98,-296.664C122.387,-291.26 71.7339,-277.668 41,-244 29.7007,-231.622 26.7149,-212.377 26.2472,-198.036"/>
<polygon fill="midnightblue" stroke="midnightblue" points="29.7482,-197.828 26.3012,-187.81 22.7483,-197.791 29.7482,-197.828"/>
</g>
<!-- Node6 -->
<g id="node6" class="node"><title>Node6</title>
<g id="a_node6"><a xlink:href="discrete__function_8hh.html" target="_top" xlink:title="discrete_function.hh">
<polygon fill="none" stroke="black" points="50,-224.5 50,-243.5 154,-243.5 154,-224.5 50,-224.5"/>
<text text-anchor="middle" x="102" y="-231.5" font-family="Helvetica,sans-Serif" font-size="10.00">discrete_function.hh</text>
</a>
</g>
</g>
<!-- Node1&#45;&gt;Node6 -->
<g id="edge5" class="edge"><title>Node1&#45;&gt;Node6</title>
<path fill="none" stroke="midnightblue" d="M184.596,-280.498C165.983,-270.245 143.618,-257.925 126.857,-248.693"/>
<polygon fill="midnightblue" stroke="midnightblue" points="128.155,-245.412 117.708,-243.652 124.778,-251.543 128.155,-245.412"/>
</g>
<!-- Node7 -->
<g id="node7" class="node"><title>Node7</title>
<g id="a_node7"><a xlink:href="grid_8hh.html" target="_top" xlink:title="grid.hh">
<polygon fill="none" stroke="black" points="146,-168.5 146,-187.5 192,-187.5 192,-168.5 146,-168.5"/>
<text text-anchor="middle" x="169" y="-175.5" font-family="Helvetica,sans-Serif" font-size="10.00">grid.hh</text>
</a>
</g>
</g>
<!-- Node1&#45;&gt;Node7 -->
<g id="edge24" class="edge"><title>Node1&#45;&gt;Node7</title>
<path fill="none" stroke="midnightblue" d="M211.692,-280.29C201.946,-257.166 185.927,-219.16 176.529,-196.864"/>
<polygon fill="midnightblue" stroke="midnightblue" points="179.723,-195.43 172.614,-187.575 173.273,-198.149 179.723,-195.43"/>
</g>
<!-- Node14 -->
<g id="node14" class="node"><title>Node14</title>
<g id="a_node14"><a xlink:href="domain_8hh.html" target="_top" xlink:title="domain.hh">
<polygon fill="none" stroke="black" points="478,-168.5 478,-187.5 540,-187.5 540,-168.5 478,-168.5"/>
<text text-anchor="middle" x="509" y="-175.5" font-family="Helvetica,sans-Serif" font-size="10.00">domain.hh</text>
</a>
</g>
</g>
<!-- Node1&#45;&gt;Node14 -->
<g id="edge17" class="edge"><title>Node1&#45;&gt;Node14</title>
<path fill="none" stroke="midnightblue" d="M278.036,-297.929C330.088,-293.577 406.582,-280.791 462,-244 479.533,-232.36 492.745,-211.811 500.627,-196.928"/>
<polygon fill="midnightblue" stroke="midnightblue" points="503.893,-198.22 505.22,-187.709 497.628,-195.099 503.893,-198.22"/>
</g>
<!-- Node17 -->
<g id="node17" class="node"><title>Node17</title>
<g id="a_node17"><a xlink:href="basic__model_8hh.html" target="_top" xlink:title="basic_model.hh">
<polygon fill="none" stroke="black" points="248.5,-224.5 248.5,-243.5 333.5,-243.5 333.5,-224.5 248.5,-224.5"/>
<text text-anchor="middle" x="291" y="-231.5" font-family="Helvetica,sans-Serif" font-size="10.00">basic_model.hh</text>
</a>
</g>
</g>
<!-- Node1&#45;&gt;Node17 -->
<g id="edge25" class="edge"><title>Node1&#45;&gt;Node17</title>
<path fill="none" stroke="midnightblue" d="M241.302,-280.498C251.769,-270.915 264.208,-259.528 274.022,-250.543"/>
<polygon fill="midnightblue" stroke="midnightblue" points="276.536,-252.987 281.549,-243.652 271.81,-247.824 276.536,-252.987"/>
</g>
<!-- Node5 -->
<g id="node5" class="node"><title>Node5</title>
<polygon fill="none" stroke="#bfbfbf" points="282,-0.5 282,-19.5 350,-19.5 350,-0.5 282,-0.5"/>
<text text-anchor="middle" x="316" y="-7.5" font-family="Helvetica,sans-Serif" font-size="10.00">blitz/array.h</text>
</g>
<!-- Node4&#45;&gt;Node5 -->
<g id="edge4" class="edge"><title>Node4&#45;&gt;Node5</title>
<path fill="none" stroke="midnightblue" d="M27.0844,-168.298C27.6747,-154.659 30.7308,-128.143 45,-112 103.94,-45.3204 211.174,-22.5578 271.573,-14.8631"/>
<polygon fill="midnightblue" stroke="midnightblue" points="272.051,-18.331 281.567,-13.6733 271.223,-11.3801 272.051,-18.331"/>
</g>
<!-- Node6&#45;&gt;Node4 -->
<g id="edge6" class="edge"><title>Node6&#45;&gt;Node4</title>
<path fill="none" stroke="midnightblue" d="M89.95,-224.324C78.5369,-216.107 61.169,-203.602 47.5651,-193.807"/>
<polygon fill="midnightblue" stroke="midnightblue" points="49.4297,-190.837 39.2693,-187.834 45.3396,-196.517 49.4297,-190.837"/>
</g>
<!-- Node6&#45;&gt;Node7 -->
<g id="edge7" class="edge"><title>Node6&#45;&gt;Node7</title>
<path fill="none" stroke="midnightblue" d="M112.765,-224.324C122.766,-216.263 137.887,-204.077 149.93,-194.369"/>
<polygon fill="midnightblue" stroke="midnightblue" points="152.45,-196.834 158.039,-187.834 148.057,-191.384 152.45,-196.834"/>
</g>
<!-- Node7&#45;&gt;Node2 -->
<g id="edge9" class="edge"><title>Node7&#45;&gt;Node2</title>
<path fill="none" stroke="midnightblue" d="M192.15,-173.54C235.249,-166.957 330.885,-151.695 421.314,-131.996"/>
<polygon fill="midnightblue" stroke="midnightblue" points="422.162,-135.393 431.175,-129.825 420.657,-128.557 422.162,-135.393"/>
</g>
<!-- Node7&#45;&gt;Node5 -->
<g id="edge10" class="edge"><title>Node7&#45;&gt;Node5</title>
<path fill="none" stroke="midnightblue" d="M163.183,-168.479C155.138,-155.537 142.711,-130.48 153,-112 179.201,-64.9416 237.388,-37.0236 276.667,-22.8485"/>
<polygon fill="midnightblue" stroke="midnightblue" points="277.914,-26.1208 286.215,-19.5375 275.62,-19.5072 277.914,-26.1208"/>
</g>
<!-- Node8 -->
<g id="node8" class="node"><title>Node8</title>
<polygon fill="none" stroke="#bfbfbf" points="54,-112.5 54,-131.5 106,-131.5 106,-112.5 54,-112.5"/>
<text text-anchor="middle" x="80" y="-119.5" font-family="Helvetica,sans-Serif" font-size="10.00">stddef.h</text>
</g>
<!-- Node7&#45;&gt;Node8 -->
<g id="edge8" class="edge"><title>Node7&#45;&gt;Node8</title>
<path fill="none" stroke="midnightblue" d="M154.701,-168.324C140.817,-159.9 119.508,-146.971 103.196,-137.074"/>
<polygon fill="midnightblue" stroke="midnightblue" points="104.629,-133.85 94.2639,-131.655 100.998,-139.834 104.629,-133.85"/>
</g>
<!-- Node9 -->
<g id="node9" class="node"><title>Node9</title>
<g id="a_node9"><a xlink:href="validators_8hh.html" target="_top" xlink:title="validators.hh">
<polygon fill="none" stroke="black" points="537,-112.5 537,-131.5 609,-131.5 609,-112.5 537,-112.5"/>
<text text-anchor="middle" x="573" y="-119.5" font-family="Helvetica,sans-Serif" font-size="10.00">validators.hh</text>
</a>
</g>
</g>
<!-- Node7&#45;&gt;Node9 -->
<g id="edge11" class="edge"><title>Node7&#45;&gt;Node9</title>
<path fill="none" stroke="midnightblue" d="M192.172,-173.903C256.86,-165.256 440.304,-140.737 526.796,-129.176"/>
<polygon fill="midnightblue" stroke="midnightblue" points="527.4,-132.626 536.848,-127.832 526.473,-125.688 527.4,-132.626"/>
</g>
<!-- Node10 -->
<g id="node10" class="node"><title>Node10</title>
<polygon fill="none" stroke="#bfbfbf" points="706.5,-56.5 706.5,-75.5 765.5,-75.5 765.5,-56.5 706.5,-56.5"/>
<text text-anchor="middle" x="736" y="-63.5" font-family="Helvetica,sans-Serif" font-size="10.00">stdexcept</text>
</g>
<!-- Node9&#45;&gt;Node10 -->
<g id="edge12" class="edge"><title>Node9&#45;&gt;Node10</title>
<path fill="none" stroke="midnightblue" d="M598.828,-112.444C626.249,-103.359 669.777,-88.9388 700.432,-78.7831"/>
<polygon fill="midnightblue" stroke="midnightblue" points="701.901,-81.9837 710.293,-75.5164 699.7,-75.3389 701.901,-81.9837"/>
</g>
<!-- Node11 -->
<g id="node11" class="node"><title>Node11</title>
<g id="a_node11"><a xlink:href="blitz_8hh.html" target="_top" xlink:title="blitz.hh">
<polygon fill="none" stroke="black" points="549,-56.5 549,-75.5 597,-75.5 597,-56.5 549,-56.5"/>
<text text-anchor="middle" x="573" y="-63.5" font-family="Helvetica,sans-Serif" font-size="10.00">blitz.hh</text>
</a>
</g>
</g>
<!-- Node9&#45;&gt;Node11 -->
<g id="edge13" class="edge"><title>Node9&#45;&gt;Node11</title>
<path fill="none" stroke="midnightblue" d="M573,-112.083C573,-105.006 573,-94.8611 573,-85.9865"/>
<polygon fill="midnightblue" stroke="midnightblue" points="576.5,-85.751 573,-75.7511 569.5,-85.7511 576.5,-85.751"/>
</g>
<!-- Node11&#45;&gt;Node5 -->
<g id="edge16" class="edge"><title>Node11&#45;&gt;Node5</title>
<path fill="none" stroke="midnightblue" d="M548.822,-59.9198C505.74,-50.8676 415.105,-31.8235 360.496,-20.3494"/>
<polygon fill="midnightblue" stroke="midnightblue" points="360.915,-16.8611 350.409,-18.2299 359.476,-23.7115 360.915,-16.8611"/>
</g>
<!-- Node12 -->
<g id="node12" class="node"><title>Node12</title>
<polygon fill="none" stroke="#bfbfbf" points="551,-0.5 551,-19.5 595,-19.5 595,-0.5 551,-0.5"/>
<text text-anchor="middle" x="573" y="-7.5" font-family="Helvetica,sans-Serif" font-size="10.00">cmath</text>
</g>
<!-- Node11&#45;&gt;Node12 -->
<g id="edge14" class="edge"><title>Node11&#45;&gt;Node12</title>
<path fill="none" stroke="midnightblue" d="M573,-56.083C573,-49.0059 573,-38.8611 573,-29.9865"/>
<polygon fill="midnightblue" stroke="midnightblue" points="576.5,-29.751 573,-19.7511 569.5,-29.7511 576.5,-29.751"/>
</g>
<!-- Node13 -->
<g id="node13" class="node"><title>Node13</title>
<polygon fill="none" stroke="#bfbfbf" points="980,-0.5 980,-19.5 1036,-19.5 1036,-0.5 980,-0.5"/>
<text text-anchor="middle" x="1008" y="-7.5" font-family="Helvetica,sans-Serif" font-size="10.00">algorithm</text>
</g>
<!-- Node11&#45;&gt;Node13 -->
<g id="edge15" class="edge"><title>Node11&#45;&gt;Node13</title>
<path fill="none" stroke="midnightblue" d="M597.007,-62.0198C668.806,-53.1068 882.316,-26.6021 969.883,-15.7318"/>
<polygon fill="midnightblue" stroke="midnightblue" points="970.427,-19.1912 979.92,-14.4859 969.564,-12.2445 970.427,-19.1912"/>
</g>
<!-- Node14&#45;&gt;Node2 -->
<g id="edge19" class="edge"><title>Node14&#45;&gt;Node2</title>
<path fill="none" stroke="midnightblue" d="M500.248,-168.083C492.53,-160.22 481.095,-148.569 471.783,-139.081"/>
<polygon fill="midnightblue" stroke="midnightblue" points="474.092,-136.436 464.589,-131.751 469.096,-141.34 474.092,-136.436"/>
</g>
<!-- Node14&#45;&gt;Node3 -->
<g id="edge20" class="edge"><title>Node14&#45;&gt;Node3</title>
<path fill="none" stroke="midnightblue" d="M477.93,-173.102C426.974,-166.497 322.299,-152.033 224.373,-132.124"/>
<polygon fill="midnightblue" stroke="midnightblue" points="224.811,-128.64 214.31,-130.053 223.4,-135.497 224.811,-128.64"/>
</g>
<!-- Node14&#45;&gt;Node5 -->
<g id="edge22" class="edge"><title>Node14&#45;&gt;Node5</title>
<path fill="none" stroke="midnightblue" d="M508.299,-168.067C506.827,-154.587 502.351,-128.837 489,-112 453.243,-66.9061 391.428,-37.9088 352.183,-23.0399"/>
<polygon fill="midnightblue" stroke="midnightblue" points="353.315,-19.727 342.722,-19.5629 350.901,-26.2974 353.315,-19.727"/>
</g>
<!-- Node14&#45;&gt;Node9 -->
<g id="edge23" class="edge"><title>Node14&#45;&gt;Node9</title>
<path fill="none" stroke="midnightblue" d="M519.283,-168.324C528.836,-160.263 543.28,-148.077 554.784,-138.369"/>
<polygon fill="midnightblue" stroke="midnightblue" points="557.144,-140.958 562.53,-131.834 552.63,-135.608 557.144,-140.958"/>
</g>
<!-- Node15 -->
<g id="node15" class="node"><title>Node15</title>
<polygon fill="none" stroke="#bfbfbf" points="627.5,-112.5 627.5,-131.5 676.5,-131.5 676.5,-112.5 627.5,-112.5"/>
<text text-anchor="middle" x="652" y="-119.5" font-family="Helvetica,sans-Serif" font-size="10.00">cstddef</text>
</g>
<!-- Node14&#45;&gt;Node15 -->
<g id="edge18" class="edge"><title>Node14&#45;&gt;Node15</title>
<path fill="none" stroke="midnightblue" d="M531.659,-168.444C555.402,-159.478 592.909,-145.314 619.738,-135.183"/>
<polygon fill="midnightblue" stroke="midnightblue" points="621.329,-138.324 629.447,-131.516 618.856,-131.775 621.329,-138.324"/>
</g>
<!-- Node16 -->
<g id="node16" class="node"><title>Node16</title>
<polygon fill="none" stroke="#bfbfbf" points="695,-112.5 695,-131.5 745,-131.5 745,-112.5 695,-112.5"/>
<text text-anchor="middle" x="720" y="-119.5" font-family="Helvetica,sans-Serif" font-size="10.00">iomanip</text>
</g>
<!-- Node14&#45;&gt;Node16 -->
<g id="edge21" class="edge"><title>Node14&#45;&gt;Node16</title>
<path fill="none" stroke="midnightblue" d="M540.16,-169.047C575.339,-160.064 634.287,-145.004 685,-132 685.099,-131.975 685.198,-131.949 685.297,-131.924"/>
<polygon fill="midnightblue" stroke="midnightblue" points="685.95,-135.37 694.766,-129.493 684.21,-128.59 685.95,-135.37"/>
</g>
<!-- Node17&#45;&gt;Node2 -->
<g id="edge47" class="edge"><title>Node17&#45;&gt;Node2</title>
<path fill="none" stroke="midnightblue" d="M310.337,-224.481C328.427,-216.172 355.899,-202.672 378,-188 400.552,-173.029 424.115,-152.63 439.36,-138.702"/>
<polygon fill="midnightblue" stroke="midnightblue" points="441.957,-141.069 446.916,-131.706 437.2,-135.933 441.957,-141.069"/>
</g>
<!-- Node17&#45;&gt;Node3 -->
<g id="edge48" class="edge"><title>Node17&#45;&gt;Node3</title>
<path fill="none" stroke="midnightblue" d="M283.823,-224.402C273.209,-211.782 252.576,-187.617 234,-168 224.59,-158.063 213.653,-147.332 204.804,-138.842"/>
<polygon fill="midnightblue" stroke="midnightblue" points="207.025,-136.124 197.37,-131.763 202.198,-141.193 207.025,-136.124"/>
</g>
<!-- Node17&#45;&gt;Node4 -->
<g id="edge26" class="edge"><title>Node17&#45;&gt;Node4</title>
<path fill="none" stroke="midnightblue" d="M249.168,-224.444C198.131,-214.004 112.645,-196.518 63.9372,-186.555"/>
<polygon fill="midnightblue" stroke="midnightblue" points="64.6259,-183.124 54.1273,-184.549 63.2231,-189.982 64.6259,-183.124"/>
</g>
<!-- Node17&#45;&gt;Node7 -->
<g id="edge27" class="edge"><title>Node17&#45;&gt;Node7</title>
<path fill="none" stroke="midnightblue" d="M271.669,-224.444C251.68,-215.596 220.257,-201.687 197.436,-191.586"/>
<polygon fill="midnightblue" stroke="midnightblue" points="198.802,-188.363 188.241,-187.516 195.968,-194.764 198.802,-188.363"/>
</g>
<!-- Node18 -->
<g id="node18" class="node"><title>Node18</title>
<g id="a_node18"><a xlink:href="output__flags_8hh.html" target="_top" xlink:title="output_flags.hh">
<polygon fill="none" stroke="black" points="286.5,-168.5 286.5,-187.5 369.5,-187.5 369.5,-168.5 286.5,-168.5"/>
<text text-anchor="middle" x="328" y="-175.5" font-family="Helvetica,sans-Serif" font-size="10.00">output_flags.hh</text>
</a>
</g>
</g>
<!-- Node17&#45;&gt;Node18 -->
<g id="edge28" class="edge"><title>Node17&#45;&gt;Node18</title>
<path fill="none" stroke="midnightblue" d="M297.11,-224.083C302.282,-216.534 309.846,-205.495 316.194,-196.23"/>
<polygon fill="midnightblue" stroke="midnightblue" points="319.239,-197.979 322.004,-187.751 313.464,-194.022 319.239,-197.979"/>
</g>
<!-- Node22 -->
<g id="node22" class="node"><title>Node22</title>
<g id="a_node22"><a xlink:href="parallel__mt_8hh.html" target="_top" xlink:title="parallel_mt.hh">
<polygon fill="none" stroke="black" points="967.5,-168.5 967.5,-187.5 1044.5,-187.5 1044.5,-168.5 967.5,-168.5"/>
<text text-anchor="middle" x="1006" y="-175.5" font-family="Helvetica,sans-Serif" font-size="10.00">parallel_mt.hh</text>
</a>
</g>
</g>
<!-- Node17&#45;&gt;Node22 -->
<g id="edge34" class="edge"><title>Node17&#45;&gt;Node22</title>
<path fill="none" stroke="midnightblue" d="M333.585,-229.784C458.573,-220.344 823.929,-192.751 956.889,-182.709"/>
<polygon fill="midnightblue" stroke="midnightblue" points="957.462,-186.176 967.17,-181.933 956.935,-179.196 957.462,-186.176"/>
</g>
<!-- Node18&#45;&gt;Node2 -->
<g id="edge29" class="edge"><title>Node18&#45;&gt;Node2</title>
<path fill="none" stroke="midnightblue" d="M348.282,-168.444C369.347,-159.557 402.517,-145.563 426.486,-135.451"/>
<polygon fill="midnightblue" stroke="midnightblue" points="427.96,-138.628 435.813,-131.516 425.239,-132.179 427.96,-138.628"/>
</g>
<!-- Node18&#45;&gt;Node3 -->
<g id="edge30" class="edge"><title>Node18&#45;&gt;Node3</title>
<path fill="none" stroke="midnightblue" d="M305.817,-168.444C282.572,-159.478 245.851,-145.314 219.585,-135.183"/>
<polygon fill="midnightblue" stroke="midnightblue" points="220.669,-131.85 210.08,-131.516 218.15,-138.381 220.669,-131.85"/>
</g>
<!-- Node19 -->
<g id="node19" class="node"><title>Node19</title>
<polygon fill="none" stroke="#bfbfbf" points="232.5,-112.5 232.5,-131.5 273.5,-131.5 273.5,-112.5 232.5,-112.5"/>
<text text-anchor="middle" x="253" y="-119.5" font-family="Helvetica,sans-Serif" font-size="10.00">bitset</text>
</g>
<!-- Node18&#45;&gt;Node19 -->
<g id="edge31" class="edge"><title>Node18&#45;&gt;Node19</title>
<path fill="none" stroke="midnightblue" d="M315.95,-168.324C304.537,-160.107 287.169,-147.602 273.565,-137.807"/>
<polygon fill="midnightblue" stroke="midnightblue" points="275.43,-134.837 265.269,-131.834 271.34,-140.517 275.43,-134.837"/>
</g>
<!-- Node20 -->
<g id="node20" class="node"><title>Node20</title>
<polygon fill="none" stroke="#bfbfbf" points="292,-112.5 292,-131.5 354,-131.5 354,-112.5 292,-112.5"/>
<text text-anchor="middle" x="323" y="-119.5" font-family="Helvetica,sans-Serif" font-size="10.00">type_traits</text>
</g>
<!-- Node18&#45;&gt;Node20 -->
<g id="edge32" class="edge"><title>Node18&#45;&gt;Node20</title>
<path fill="none" stroke="midnightblue" d="M327.174,-168.083C326.519,-161.006 325.58,-150.861 324.758,-141.986"/>
<polygon fill="midnightblue" stroke="midnightblue" points="328.217,-141.386 323.81,-131.751 321.247,-142.031 328.217,-141.386"/>
</g>
<!-- Node21 -->
<g id="node21" class="node"><title>Node21</title>
<polygon fill="none" stroke="#bfbfbf" points="372.5,-112.5 372.5,-131.5 413.5,-131.5 413.5,-112.5 372.5,-112.5"/>
<text text-anchor="middle" x="393" y="-119.5" font-family="Helvetica,sans-Serif" font-size="10.00">string</text>
</g>
<!-- Node18&#45;&gt;Node21 -->
<g id="edge33" class="edge"><title>Node18&#45;&gt;Node21</title>
<path fill="none" stroke="midnightblue" d="M338.443,-168.324C348.146,-160.263 362.815,-148.077 374.5,-138.369"/>
<polygon fill="midnightblue" stroke="midnightblue" points="376.911,-140.916 382.367,-131.834 372.438,-135.532 376.911,-140.916"/>
</g>
<!-- Node22&#45;&gt;Node2 -->
<g id="edge39" class="edge"><title>Node22&#45;&gt;Node2</title>
<path fill="none" stroke="midnightblue" d="M967.235,-173.754C885.805,-166.847 691.022,-149.858 528,-132 515.797,-130.663 502.45,-129.04 490.6,-127.542"/>
<polygon fill="midnightblue" stroke="midnightblue" points="491.001,-124.065 480.637,-126.268 490.113,-131.008 491.001,-124.065"/>
</g>
<!-- Node22&#45;&gt;Node10 -->
<g id="edge41" class="edge"><title>Node22&#45;&gt;Node10</title>
<path fill="none" stroke="midnightblue" d="M967.484,-168.994C934.692,-161.502 886.721,-148.924 847,-132 829.357,-124.483 785.426,-97.7954 758.421,-81.0438"/>
<polygon fill="midnightblue" stroke="midnightblue" points="759.985,-77.8945 749.646,-75.5806 756.285,-83.837 759.985,-77.8945"/>
</g>
<!-- Node22&#45;&gt;Node13 -->
<g id="edge36" class="edge"><title>Node22&#45;&gt;Node13</title>
<path fill="none" stroke="midnightblue" d="M1044.71,-174.862C1131.5,-169.673 1335.67,-155.115 1356,-132 1444.72,-31.1397 1153.69,-14.331 1046.25,-11.5468"/>
<polygon fill="midnightblue" stroke="midnightblue" points="1046.23,-8.04545 1036.15,-11.3128 1046.07,-15.0436 1046.23,-8.04545"/>
</g>
<!-- Node23 -->
<g id="node23" class="node"><title>Node23</title>
<polygon fill="none" stroke="#bfbfbf" points="855.5,-112.5 855.5,-131.5 900.5,-131.5 900.5,-112.5 855.5,-112.5"/>
<text text-anchor="middle" x="878" y="-119.5" font-family="Helvetica,sans-Serif" font-size="10.00">cstdlib</text>
</g>
<!-- Node22&#45;&gt;Node23 -->
<g id="edge35" class="edge"><title>Node22&#45;&gt;Node23</title>
<path fill="none" stroke="midnightblue" d="M985.718,-168.444C964.653,-159.557 931.483,-145.563 907.514,-135.451"/>
<polygon fill="midnightblue" stroke="midnightblue" points="908.761,-132.179 898.187,-131.516 906.04,-138.628 908.761,-132.179"/>
</g>
<!-- Node24 -->
<g id="node24" class="node"><title>Node24</title>
<polygon fill="none" stroke="#bfbfbf" points="919,-112.5 919,-131.5 965,-131.5 965,-112.5 919,-112.5"/>
<text text-anchor="middle" x="942" y="-119.5" font-family="Helvetica,sans-Serif" font-size="10.00">cstdint</text>
</g>
<!-- Node22&#45;&gt;Node24 -->
<g id="edge37" class="edge"><title>Node22&#45;&gt;Node24</title>
<path fill="none" stroke="midnightblue" d="M995.717,-168.324C986.164,-160.263 971.72,-148.077 960.216,-138.369"/>
<polygon fill="midnightblue" stroke="midnightblue" points="962.37,-135.608 952.47,-131.834 957.856,-140.958 962.37,-135.608"/>
</g>
<!-- Node25 -->
<g id="node25" class="node"><title>Node25</title>
<polygon fill="none" stroke="#bfbfbf" points="983,-112.5 983,-131.5 1029,-131.5 1029,-112.5 983,-112.5"/>
<text text-anchor="middle" x="1006" y="-119.5" font-family="Helvetica,sans-Serif" font-size="10.00">cstring</text>
</g>
<!-- Node22&#45;&gt;Node25 -->
<g id="edge38" class="edge"><title>Node22&#45;&gt;Node25</title>
<path fill="none" stroke="midnightblue" d="M1006,-168.083C1006,-161.006 1006,-150.861 1006,-141.986"/>
<polygon fill="midnightblue" stroke="midnightblue" points="1009.5,-141.751 1006,-131.751 1002.5,-141.751 1009.5,-141.751"/>
</g>
<!-- Node26 -->
<g id="node26" class="node"><title>Node26</title>
<polygon fill="none" stroke="#bfbfbf" points="1047,-112.5 1047,-131.5 1087,-131.5 1087,-112.5 1047,-112.5"/>
<text text-anchor="middle" x="1067" y="-119.5" font-family="Helvetica,sans-Serif" font-size="10.00">limits</text>
</g>
<!-- Node22&#45;&gt;Node26 -->
<g id="edge40" class="edge"><title>Node22&#45;&gt;Node26</title>
<path fill="none" stroke="midnightblue" d="M1015.8,-168.324C1024.82,-160.341 1038.41,-148.313 1049.32,-138.653"/>
<polygon fill="midnightblue" stroke="midnightblue" points="1051.85,-141.083 1057.02,-131.834 1047.21,-135.842 1051.85,-141.083"/>
</g>
<!-- Node27 -->
<g id="node27" class="node"><title>Node27</title>
<polygon fill="none" stroke="#bfbfbf" points="1105,-112.5 1105,-131.5 1149,-131.5 1149,-112.5 1105,-112.5"/>
<text text-anchor="middle" x="1127" y="-119.5" font-family="Helvetica,sans-Serif" font-size="10.00">vector</text>
</g>
<!-- Node22&#45;&gt;Node27 -->
<g id="edge42" class="edge"><title>Node22&#45;&gt;Node27</title>
<path fill="none" stroke="midnightblue" d="M1025.17,-168.444C1044.91,-159.636 1075.89,-145.812 1098.49,-135.722"/>
<polygon fill="midnightblue" stroke="midnightblue" points="1100.21,-138.788 1107.92,-131.516 1097.36,-132.396 1100.21,-138.788"/>
</g>
<!-- Node28 -->
<g id="node28" class="node"><title>Node28</title>
<polygon fill="none" stroke="#bfbfbf" points="1167,-112.5 1167,-131.5 1217,-131.5 1217,-112.5 1167,-112.5"/>
<text text-anchor="middle" x="1192" y="-119.5" font-family="Helvetica,sans-Serif" font-size="10.00">fstream</text>
</g>
<!-- Node22&#45;&gt;Node28 -->
<g id="edge43" class="edge"><title>Node22&#45;&gt;Node28</title>
<path fill="none" stroke="midnightblue" d="M1035.47,-168.444C1068.48,-158.862 1121.93,-143.344 1157.02,-133.155"/>
<polygon fill="midnightblue" stroke="midnightblue" points="1158.21,-136.454 1166.84,-130.304 1156.26,-129.731 1158.21,-136.454"/>
</g>
<!-- Node29 -->
<g id="node29" class="node"><title>Node29</title>
<polygon fill="none" stroke="#bfbfbf" points="1235.5,-112.5 1235.5,-131.5 1282.5,-131.5 1282.5,-112.5 1235.5,-112.5"/>
<text text-anchor="middle" x="1259" y="-119.5" font-family="Helvetica,sans-Serif" font-size="10.00">iterator</text>
</g>
<!-- Node22&#45;&gt;Node29 -->
<g id="edge44" class="edge"><title>Node22&#45;&gt;Node29</title>
<path fill="none" stroke="midnightblue" d="M1044.72,-169.864C1086.81,-161.933 1156.26,-148.342 1225.49,-131.997"/>
<polygon fill="midnightblue" stroke="midnightblue" points="1226.34,-135.394 1235.25,-129.673 1224.72,-128.584 1226.34,-135.394"/>
</g>
<!-- Node30 -->
<g id="node30" class="node"><title>Node30</title>
<polygon fill="none" stroke="#bfbfbf" points="1301,-112.5 1301,-131.5 1347,-131.5 1347,-112.5 1301,-112.5"/>
<text text-anchor="middle" x="1324" y="-119.5" font-family="Helvetica,sans-Serif" font-size="10.00">chrono</text>
</g>
<!-- Node22&#45;&gt;Node30 -->
<g id="edge45" class="edge"><title>Node22&#45;&gt;Node30</title>
<path fill="none" stroke="midnightblue" d="M1044.51,-172.284C1097.63,-165.48 1196.52,-151.745 1290.67,-131.846"/>
<polygon fill="midnightblue" stroke="midnightblue" points="1291.6,-135.227 1300.64,-129.711 1290.13,-128.382 1291.6,-135.227"/>
</g>
<!-- Node31 -->
<g id="node31" class="node"><title>Node31</title>
<polygon fill="none" stroke="#bfbfbf" points="763.5,-112.5 763.5,-131.5 798.5,-131.5 798.5,-112.5 763.5,-112.5"/>
<text text-anchor="middle" x="781" y="-119.5" font-family="Helvetica,sans-Serif" font-size="10.00">dc.h</text>
</g>
<!-- Node22&#45;&gt;Node31 -->
<g id="edge46" class="edge"><title>Node22&#45;&gt;Node31</title>
<path fill="none" stroke="midnightblue" d="M967.426,-168.544C928.377,-159.857 866.316,-145.706 813,-132 811.533,-131.623 810.03,-131.228 808.514,-130.824"/>
<polygon fill="midnightblue" stroke="midnightblue" points="809.136,-127.366 798.567,-128.094 807.284,-134.116 809.136,-127.366"/>
</g>
</g>
</svg>
