<?xml version="1.0" encoding="UTF-8" standalone="no"?>
<!DOCTYPE svg PUBLIC "-//W3C//DTD SVG 1.1//EN"
 "http://www.w3.org/Graphics/SVG/1.1/DTD/svg11.dtd">
<!-- Generated by graphviz version 2.40.1 (20161225.0304)
 -->
<!-- Title: src/generator/lh_model.hh Pages: 1 -->
<svg width="364pt" height="196pt"
 viewBox="0.00 0.00 364.00 196.00" xmlns="http://www.w3.org/2000/svg" xmlns:xlink="http://www.w3.org/1999/xlink">
<g id="graph0" class="graph" transform="scale(1 1) rotate(0) translate(4 192)">
<title>src/generator/lh_model.hh</title>
<!-- Node29 -->
<g id="node1" class="node">
<title>Node29</title>
<polygon fill="#bfbfbf" stroke="#000000" points="162,-168.5 162,-187.5 291,-187.5 291,-168.5 162,-168.5"/>
<text text-anchor="middle" x="226.5" y="-175.5" font-family="Helvetica,sans-Serif" font-size="10.00" fill="#000000">src/generator/lh_model.hh</text>
</g>
<!-- Node30 -->
<g id="node2" class="node">
<title>Node30</title>
<g id="a_node2"><a xlink:href="register__all_8hh.html" target="_top" xlink:title="src/register_all.hh">
<polygon fill="none" stroke="#000000" points="114.5,-112.5 114.5,-131.5 208.5,-131.5 208.5,-112.5 114.5,-112.5"/>
<text text-anchor="middle" x="161.5" y="-119.5" font-family="Helvetica,sans-Serif" font-size="10.00" fill="#000000">src/register_all.hh</text>
</a>
</g>
</g>
<!-- Node29&#45;&gt;Node30 -->
<g id="edge1" class="edge">
<title>Node29&#45;&gt;Node30</title>
<path fill="none" stroke="#191970" d="M207.5165,-161.645C196.2121,-151.9058 182.253,-139.8795 172.6924,-131.6427"/>
<polygon fill="#191970" stroke="#191970" points="205.3173,-164.3701 215.1779,-168.2455 209.8862,-159.0668 205.3173,-164.3701"/>
</g>
<!-- Node35 -->
<g id="node7" class="node">
<title>Node35</title>
<g id="a_node7"><a xlink:href="lh__model_8cc.html" target="_top" xlink:title="src/generator/lh_model.cc">
<polygon fill="none" stroke="#000000" points="227,-112.5 227,-131.5 356,-131.5 356,-112.5 227,-112.5"/>
<text text-anchor="middle" x="291.5" y="-119.5" font-family="Helvetica,sans-Serif" font-size="10.00" fill="#000000">src/generator/lh_model.cc</text>
</a>
</g>
</g>
<!-- Node29&#45;&gt;Node35 -->
<g id="edge6" class="edge">
<title>Node29&#45;&gt;Node35</title>
<path fill="none" stroke="#191970" d="M245.4835,-161.645C256.7879,-151.9058 270.747,-139.8795 280.3076,-131.6427"/>
<polygon fill="#191970" stroke="#191970" points="243.1138,-159.0668 237.8221,-168.2455 247.6827,-164.3701 243.1138,-159.0668"/>
</g>
<!-- Node31 -->
<g id="node3" class="node">
<title>Node31</title>
<g id="a_node3"><a xlink:href="common__main_8hh.html" target="_top" xlink:title="src/common_main.hh">
<polygon fill="none" stroke="#000000" points="52.5,-56.5 52.5,-75.5 162.5,-75.5 162.5,-56.5 52.5,-56.5"/>
<text text-anchor="middle" x="107.5" y="-63.5" font-family="Helvetica,sans-Serif" font-size="10.00" fill="#000000">src/common_main.hh</text>
</a>
</g>
</g>
<!-- Node30&#45;&gt;Node31 -->
<g id="edge2" class="edge">
<title>Node30&#45;&gt;Node31</title>
<path fill="none" stroke="#191970" d="M144.9031,-104.7884C135.6653,-95.2085 124.5096,-83.6396 116.7983,-75.6427"/>
<polygon fill="#191970" stroke="#191970" points="142.6331,-107.4766 152.0939,-112.2455 147.672,-102.6176 142.6331,-107.4766"/>
</g>
<!-- Node34 -->
<g id="node6" class="node">
<title>Node34</title>
<g id="a_node6"><a xlink:href="visual_8cc.html" target="_top" xlink:title="src/visual.cc">
<polygon fill="none" stroke="#000000" points="180.5,-56.5 180.5,-75.5 252.5,-75.5 252.5,-56.5 180.5,-56.5"/>
<text text-anchor="middle" x="216.5" y="-63.5" font-family="Helvetica,sans-Serif" font-size="10.00" fill="#000000">src/visual.cc</text>
</a>
</g>
</g>
<!-- Node30&#45;&gt;Node34 -->
<g id="edge5" class="edge">
<title>Node30&#45;&gt;Node34</title>
<path fill="none" stroke="#191970" d="M178.1226,-105.0751C187.5855,-95.4402 199.0969,-83.7196 207.0295,-75.6427"/>
<polygon fill="#191970" stroke="#191970" points="175.5903,-102.6585 171.0803,-112.2455 180.5845,-107.5635 175.5903,-102.6585"/>
</g>
<!-- Node32 -->
<g id="node4" class="node">
<title>Node32</title>
<g id="a_node4"><a xlink:href="arma__main_8cc.html" target="_top" xlink:title="src/arma_main.cc">
<polygon fill="none" stroke="#000000" points="0,-.5 0,-19.5 95,-19.5 95,-.5 0,-.5"/>
<text text-anchor="middle" x="47.5" y="-7.5" font-family="Helvetica,sans-Serif" font-size="10.00" fill="#000000">src/arma_main.cc</text>
</a>
</g>
</g>
<!-- Node31&#45;&gt;Node32 -->
<g id="edge3" class="edge">
<title>Node31&#45;&gt;Node32</title>
<path fill="none" stroke="#191970" d="M89.6722,-49.3607C79.2922,-39.6727 66.5709,-27.7995 57.8314,-19.6427"/>
<polygon fill="#191970" stroke="#191970" points="87.3501,-51.981 97.0488,-56.2455 92.1263,-46.8636 87.3501,-51.981"/>
</g>
<!-- Node33 -->
<g id="node5" class="node">
<title>Node33</title>
<g id="a_node5"><a xlink:href="arma__realtime_8cc.html" target="_top" xlink:title="src/arma_realtime.cc">
<polygon fill="none" stroke="#000000" points="113.5,-.5 113.5,-19.5 221.5,-19.5 221.5,-.5 113.5,-.5"/>
<text text-anchor="middle" x="167.5" y="-7.5" font-family="Helvetica,sans-Serif" font-size="10.00" fill="#000000">src/arma_realtime.cc</text>
</a>
</g>
</g>
<!-- Node31&#45;&gt;Node33 -->
<g id="edge4" class="edge">
<title>Node31&#45;&gt;Node33</title>
<path fill="none" stroke="#191970" d="M125.3278,-49.3607C135.7078,-39.6727 148.4291,-27.7995 157.1686,-19.6427"/>
<polygon fill="#191970" stroke="#191970" points="122.8737,-46.8636 117.9512,-56.2455 127.6499,-51.981 122.8737,-46.8636"/>
</g>
</g>
</svg>
