<?xml version="1.0" encoding="UTF-8" standalone="no"?>
<!DOCTYPE svg PUBLIC "-//W3C//DTD SVG 1.1//EN"
 "http://www.w3.org/Graphics/SVG/1.1/DTD/svg11.dtd">
<!-- Generated by graphviz version 2.36.0 (20140111.2315)
 -->
<!-- Title: /home/travis/build/igankevich/arma/src/generator/lh_model.cc Pages: 1 -->
<svg width="1922pt" height="386pt"
 viewBox="0.00 0.00 1921.63 386.00" xmlns="http://www.w3.org/2000/svg" xmlns:xlink="http://www.w3.org/1999/xlink">
<g id="graph0" class="graph" transform="scale(1 1) rotate(0) translate(4 382)">
<title>/home/travis/build/igankevich/arma/src/generator/lh_model.cc</title>
<!-- Node1 -->
<g id="node1" class="node"><title>Node1</title>
<polygon fill="#bfbfbf" stroke="black" points="1511.63,-336.5 1511.63,-377.5 1627.63,-377.5 1627.63,-336.5 1511.63,-336.5"/>
<text text-anchor="start" x="1519.63" y="-365.5" font-family="Helvetica,sans-Serif" font-size="10.00">/home/travis/build</text>
<text text-anchor="start" x="1519.63" y="-354.5" font-family="Helvetica,sans-Serif" font-size="10.00">/igankevich/arma/src</text>
<text text-anchor="middle" x="1569.63" y="-343.5" font-family="Helvetica,sans-Serif" font-size="10.00">/generator/lh_model.cc</text>
</g>
<!-- Node2 -->
<g id="node2" class="node"><title>Node2</title>
<g id="a_node2"><a xlink:href="lh__model_8hh.html" target="_top" xlink:title="lh_model.hh">
<polygon fill="none" stroke="black" points="351.128,-280.5 351.128,-299.5 420.128,-299.5 420.128,-280.5 351.128,-280.5"/>
<text text-anchor="middle" x="385.628" y="-287.5" font-family="Helvetica,sans-Serif" font-size="10.00">lh_model.hh</text>
</a>
</g>
</g>
<!-- Node1&#45;&gt;Node2 -->
<g id="edge1" class="edge"><title>Node1&#45;&gt;Node2</title>
<path fill="none" stroke="midnightblue" d="M1511.32,-352.799C1305.17,-341.482 613.322,-303.5 430.337,-293.455"/>
<polygon fill="midnightblue" stroke="midnightblue" points="430.44,-289.955 420.263,-292.901 430.056,-296.944 430.44,-289.955"/>
</g>
<!-- Node13 -->
<g id="node13" class="node"><title>Node13</title>
<polygon fill="none" stroke="#bfbfbf" points="1372.63,-0.5 1372.63,-19.5 1416.63,-19.5 1416.63,-0.5 1372.63,-0.5"/>
<text text-anchor="middle" x="1394.63" y="-7.5" font-family="Helvetica,sans-Serif" font-size="10.00">cmath</text>
</g>
<!-- Node1&#45;&gt;Node13 -->
<g id="edge63" class="edge"><title>Node1&#45;&gt;Node13</title>
<path fill="none" stroke="midnightblue" d="M1511.54,-337.388C1467.19,-319.118 1413.63,-286.413 1413.63,-235 1413.63,-235 1413.63,-235 1413.63,-121 1413.63,-88.4885 1405.47,-51.3503 1399.84,-29.6103"/>
<polygon fill="midnightblue" stroke="midnightblue" points="1403.17,-28.498 1397.19,-19.7514 1396.41,-30.3175 1403.17,-28.498"/>
</g>
<!-- Node29 -->
<g id="node29" class="node"><title>Node29</title>
<polygon fill="none" stroke="#bfbfbf" points="1297.63,-112.5 1297.63,-131.5 1347.63,-131.5 1347.63,-112.5 1297.63,-112.5"/>
<text text-anchor="middle" x="1322.63" y="-119.5" font-family="Helvetica,sans-Serif" font-size="10.00">fstream</text>
</g>
<!-- Node1&#45;&gt;Node29 -->
<g id="edge67" class="edge"><title>Node1&#45;&gt;Node29</title>
<path fill="none" stroke="midnightblue" d="M1511.56,-349.083C1475.53,-342.085 1430.4,-328.056 1399.63,-300 1351.81,-256.398 1332.32,-177.866 1325.63,-141.908"/>
<polygon fill="midnightblue" stroke="midnightblue" points="1329.04,-141.085 1323.89,-131.828 1322.14,-142.278 1329.04,-141.085"/>
</g>
<!-- Node33 -->
<g id="node33" class="node"><title>Node33</title>
<g id="a_node33"><a xlink:href="physical__constants_8hh.html" target="_top" xlink:title="physical_constants.hh">
<polygon fill="none" stroke="black" points="1526.63,-56.5 1526.63,-75.5 1640.63,-75.5 1640.63,-56.5 1526.63,-56.5"/>
<text text-anchor="middle" x="1583.63" y="-63.5" font-family="Helvetica,sans-Serif" font-size="10.00">physical_constants.hh</text>
</a>
</g>
</g>
<!-- Node1&#45;&gt;Node33 -->
<g id="edge50" class="edge"><title>Node1&#45;&gt;Node33</title>
<path fill="none" stroke="midnightblue" d="M1589.41,-336.263C1608.78,-315.401 1637.04,-280.517 1648.63,-244 1667.55,-184.36 1621.98,-115.111 1597.68,-83.8462"/>
<polygon fill="midnightblue" stroke="midnightblue" points="1600.17,-81.358 1591.18,-75.7437 1594.71,-85.7358 1600.17,-81.358"/>
</g>
<!-- Node34 -->
<g id="node34" class="node"><title>Node34</title>
<g id="a_node34"><a xlink:href="params_8hh.html" target="_top" xlink:title="params.hh">
<polygon fill="none" stroke="black" points="1505.63,-280.5 1505.63,-299.5 1567.63,-299.5 1567.63,-280.5 1505.63,-280.5"/>
<text text-anchor="middle" x="1536.63" y="-287.5" font-family="Helvetica,sans-Serif" font-size="10.00">params.hh</text>
</a>
</g>
</g>
<!-- Node1&#45;&gt;Node34 -->
<g id="edge52" class="edge"><title>Node1&#45;&gt;Node34</title>
<path fill="none" stroke="midnightblue" d="M1559.73,-336.498C1555.25,-327.682 1550,-317.339 1545.64,-308.743"/>
<polygon fill="midnightblue" stroke="midnightblue" points="1548.67,-306.985 1541.02,-299.652 1542.43,-310.154 1548.67,-306.985"/>
</g>
<!-- Node35 -->
<g id="node35" class="node"><title>Node35</title>
<polygon fill="none" stroke="#bfbfbf" points="1581.13,-224.5 1581.13,-243.5 1640.13,-243.5 1640.13,-224.5 1581.13,-224.5"/>
<text text-anchor="middle" x="1610.63" y="-231.5" font-family="Helvetica,sans-Serif" font-size="10.00">functional</text>
</g>
<!-- Node1&#45;&gt;Node35 -->
<g id="edge65" class="edge"><title>Node1&#45;&gt;Node35</title>
<path fill="none" stroke="midnightblue" d="M1576.31,-336.29C1584.11,-313.27 1596.9,-275.503 1604.47,-253.168"/>
<polygon fill="midnightblue" stroke="midnightblue" points="1607.83,-254.169 1607.72,-243.575 1601.2,-251.923 1607.83,-254.169"/>
</g>
<!-- Node37 -->
<g id="node37" class="node"><title>Node37</title>
<g id="a_node37"><a xlink:href="profile__counters_8hh.html" target="_top" xlink:title="profile_counters.hh">
<polygon fill="none" stroke="black" points="1683.13,-280.5 1683.13,-299.5 1782.13,-299.5 1782.13,-280.5 1683.13,-280.5"/>
<text text-anchor="middle" x="1732.63" y="-287.5" font-family="Helvetica,sans-Serif" font-size="10.00">profile_counters.hh</text>
</a>
</g>
</g>
<!-- Node1&#45;&gt;Node37 -->
<g id="edge56" class="edge"><title>Node1&#45;&gt;Node37</title>
<path fill="none" stroke="midnightblue" d="M1618.53,-336.498C1645.45,-325.766 1678.04,-312.769 1701.48,-303.419"/>
<polygon fill="midnightblue" stroke="midnightblue" points="1702.94,-306.608 1710.93,-299.652 1700.34,-300.106 1702.94,-306.608"/>
</g>
<!-- Node39 -->
<g id="node39" class="node"><title>Node39</title>
<g id="a_node39"><a xlink:href="white__noise_8hh.html" target="_top" xlink:title="white_noise.hh">
<polygon fill="none" stroke="black" points="1056.63,-224.5 1056.63,-243.5 1138.63,-243.5 1138.63,-224.5 1056.63,-224.5"/>
<text text-anchor="middle" x="1097.63" y="-231.5" font-family="Helvetica,sans-Serif" font-size="10.00">white_noise.hh</text>
</a>
</g>
</g>
<!-- Node1&#45;&gt;Node39 -->
<g id="edge58" class="edge"><title>Node1&#45;&gt;Node39</title>
<path fill="none" stroke="midnightblue" d="M1511.57,-344.367C1460.11,-333.767 1383.05,-317.184 1316.63,-300 1251.76,-283.216 1177.12,-260.274 1133.87,-246.613"/>
<polygon fill="midnightblue" stroke="midnightblue" points="1134.68,-243.199 1124.09,-243.514 1132.57,-249.872 1134.68,-243.199"/>
</g>
<!-- Node41 -->
<g id="node41" class="node"><title>Node41</title>
<polygon fill="none" stroke="#bfbfbf" points="1800.13,-280.5 1800.13,-299.5 1849.13,-299.5 1849.13,-280.5 1800.13,-280.5"/>
<text text-anchor="middle" x="1824.63" y="-287.5" font-family="Helvetica,sans-Serif" font-size="10.00">random</text>
</g>
<!-- Node1&#45;&gt;Node41 -->
<g id="edge64" class="edge"><title>Node1&#45;&gt;Node41</title>
<path fill="none" stroke="midnightblue" d="M1627.83,-341.43C1670.16,-330.794 1729.1,-315.899 1790.28,-300.068"/>
<polygon fill="midnightblue" stroke="midnightblue" points="1791.32,-303.416 1800.12,-297.52 1789.56,-296.64 1791.32,-303.416"/>
</g>
<!-- Node42 -->
<g id="node42" class="node"><title>Node42</title>
<polygon fill="none" stroke="#bfbfbf" points="1867.63,-280.5 1867.63,-299.5 1913.63,-299.5 1913.63,-280.5 1867.63,-280.5"/>
<text text-anchor="middle" x="1890.63" y="-287.5" font-family="Helvetica,sans-Serif" font-size="10.00">atomic</text>
</g>
<!-- Node1&#45;&gt;Node42 -->
<g id="edge66" class="edge"><title>Node1&#45;&gt;Node42</title>
<path fill="none" stroke="midnightblue" d="M1627.82,-345.994C1686.18,-335.651 1778.51,-318.454 1857.63,-300 1857.73,-299.976 1857.83,-299.953 1857.93,-299.929"/>
<polygon fill="midnightblue" stroke="midnightblue" points="1858.75,-303.332 1867.6,-297.513 1857.05,-296.541 1858.75,-303.332"/>
</g>
<!-- Node3 -->
<g id="node3" class="node"><title>Node3</title>
<polygon fill="none" stroke="#bfbfbf" points="460.128,-112.5 460.128,-131.5 509.128,-131.5 509.128,-112.5 460.128,-112.5"/>
<text text-anchor="middle" x="484.628" y="-119.5" font-family="Helvetica,sans-Serif" font-size="10.00">istream</text>
</g>
<!-- Node2&#45;&gt;Node3 -->
<g id="edge2" class="edge"><title>Node2&#45;&gt;Node3</title>
<path fill="none" stroke="midnightblue" d="M420.322,-288.745C453.666,-286.418 502.451,-277.094 526.628,-244 550.447,-211.395 519.342,-164.164 499.247,-139.462"/>
<polygon fill="midnightblue" stroke="midnightblue" points="501.836,-137.102 492.707,-131.725 496.49,-141.621 501.836,-137.102"/>
</g>
<!-- Node4 -->
<g id="node4" class="node"><title>Node4</title>
<polygon fill="none" stroke="#bfbfbf" points="389.628,-112.5 389.628,-131.5 441.628,-131.5 441.628,-112.5 389.628,-112.5"/>
<text text-anchor="middle" x="415.628" y="-119.5" font-family="Helvetica,sans-Serif" font-size="10.00">ostream</text>
</g>
<!-- Node2&#45;&gt;Node4 -->
<g id="edge3" class="edge"><title>Node2&#45;&gt;Node4</title>
<path fill="none" stroke="midnightblue" d="M387.241,-280.075C391.963,-253.945 405.83,-177.211 412.27,-141.577"/>
<polygon fill="midnightblue" stroke="midnightblue" points="415.745,-142.031 414.079,-131.568 408.856,-140.786 415.745,-142.031"/>
</g>
<!-- Node5 -->
<g id="node5" class="node"><title>Node5</title>
<g id="a_node5"><a xlink:href="types_8hh.html" target="_top" xlink:title="types.hh">
<polygon fill="none" stroke="black" points="242.628,-168.5 242.628,-187.5 296.628,-187.5 296.628,-168.5 242.628,-168.5"/>
<text text-anchor="middle" x="269.628" y="-175.5" font-family="Helvetica,sans-Serif" font-size="10.00">types.hh</text>
</a>
</g>
</g>
<!-- Node2&#45;&gt;Node5 -->
<g id="edge4" class="edge"><title>Node2&#45;&gt;Node5</title>
<path fill="none" stroke="midnightblue" d="M376.525,-280.368C357.043,-261.894 311.063,-218.293 286.23,-194.744"/>
<polygon fill="midnightblue" stroke="midnightblue" points="288.352,-191.933 278.688,-187.591 283.536,-197.012 288.352,-191.933"/>
</g>
<!-- Node7 -->
<g id="node7" class="node"><title>Node7</title>
<g id="a_node7"><a xlink:href="discrete__function_8hh.html" target="_top" xlink:title="discrete_function.hh">
<polygon fill="none" stroke="black" points="196.628,-224.5 196.628,-243.5 300.628,-243.5 300.628,-224.5 196.628,-224.5"/>
<text text-anchor="middle" x="248.628" y="-231.5" font-family="Helvetica,sans-Serif" font-size="10.00">discrete_function.hh</text>
</a>
</g>
</g>
<!-- Node2&#45;&gt;Node7 -->
<g id="edge6" class="edge"><title>Node2&#45;&gt;Node7</title>
<path fill="none" stroke="midnightblue" d="M363.92,-280.444C341.273,-271.517 305.555,-257.439 279.876,-247.317"/>
<polygon fill="midnightblue" stroke="midnightblue" points="280.821,-243.927 270.234,-243.516 278.254,-250.44 280.821,-243.927"/>
</g>
<!-- Node8 -->
<g id="node8" class="node"><title>Node8</title>
<g id="a_node8"><a xlink:href="grid_8hh.html" target="_top" xlink:title="grid.hh">
<polygon fill="none" stroke="black" points="176.628,-168.5 176.628,-187.5 222.628,-187.5 222.628,-168.5 176.628,-168.5"/>
<text text-anchor="middle" x="199.628" y="-175.5" font-family="Helvetica,sans-Serif" font-size="10.00">grid.hh</text>
</a>
</g>
</g>
<!-- Node2&#45;&gt;Node8 -->
<g id="edge25" class="edge"><title>Node2&#45;&gt;Node8</title>
<path fill="none" stroke="midnightblue" d="M350.998,-286.219C299.777,-281.305 207.695,-269.14 187.628,-244 177.028,-230.721 182.703,-211.059 189.374,-196.84"/>
<polygon fill="midnightblue" stroke="midnightblue" points="192.663,-198.101 194.188,-187.617 186.458,-194.862 192.663,-198.101"/>
</g>
<!-- Node15 -->
<g id="node15" class="node"><title>Node15</title>
<g id="a_node15"><a xlink:href="domain_8hh.html" target="_top" xlink:title="domain.hh">
<polygon fill="none" stroke="black" points="314.628,-168.5 314.628,-187.5 376.628,-187.5 376.628,-168.5 314.628,-168.5"/>
<text text-anchor="middle" x="345.628" y="-175.5" font-family="Helvetica,sans-Serif" font-size="10.00">domain.hh</text>
</a>
</g>
</g>
<!-- Node2&#45;&gt;Node15 -->
<g id="edge18" class="edge"><title>Node2&#45;&gt;Node15</title>
<path fill="none" stroke="midnightblue" d="M382.489,-280.368C376.005,-262.537 361.008,-221.295 352.272,-197.272"/>
<polygon fill="midnightblue" stroke="midnightblue" points="355.459,-195.793 348.752,-187.591 348.88,-198.185 355.459,-195.793"/>
</g>
<!-- Node18 -->
<g id="node18" class="node"><title>Node18</title>
<g id="a_node18"><a xlink:href="basic__model_8hh.html" target="_top" xlink:title="basic_model.hh">
<polygon fill="none" stroke="black" points="433.128,-224.5 433.128,-243.5 518.128,-243.5 518.128,-224.5 433.128,-224.5"/>
<text text-anchor="middle" x="475.628" y="-231.5" font-family="Helvetica,sans-Serif" font-size="10.00">basic_model.hh</text>
</a>
</g>
</g>
<!-- Node2&#45;&gt;Node18 -->
<g id="edge26" class="edge"><title>Node2&#45;&gt;Node18</title>
<path fill="none" stroke="midnightblue" d="M400.088,-280.324C414.127,-271.9 435.676,-258.971 452.171,-249.074"/>
<polygon fill="midnightblue" stroke="midnightblue" points="454.429,-251.801 461.203,-243.655 450.828,-245.798 454.429,-251.801"/>
</g>
<!-- Node6 -->
<g id="node6" class="node"><title>Node6</title>
<polygon fill="none" stroke="#bfbfbf" points="82.6276,-0.5 82.6276,-19.5 150.628,-19.5 150.628,-0.5 82.6276,-0.5"/>
<text text-anchor="middle" x="116.628" y="-7.5" font-family="Helvetica,sans-Serif" font-size="10.00">blitz/array.h</text>
</g>
<!-- Node5&#45;&gt;Node6 -->
<g id="edge5" class="edge"><title>Node5&#45;&gt;Node6</title>
<path fill="none" stroke="midnightblue" d="M242.554,-170.561C201.94,-160.64 129.166,-141.744 121.628,-132 98.7658,-102.449 105.234,-55.6203 111.329,-29.7396"/>
<polygon fill="midnightblue" stroke="midnightblue" points="114.797,-30.308 113.914,-19.7501 108.02,-28.5543 114.797,-30.308"/>
</g>
<!-- Node7&#45;&gt;Node5 -->
<g id="edge7" class="edge"><title>Node7&#45;&gt;Node5</title>
<path fill="none" stroke="midnightblue" d="M252.095,-224.083C254.939,-216.77 259.057,-206.181 262.587,-197.103"/>
<polygon fill="midnightblue" stroke="midnightblue" points="265.862,-198.34 266.224,-187.751 259.338,-195.803 265.862,-198.34"/>
</g>
<!-- Node7&#45;&gt;Node8 -->
<g id="edge8" class="edge"><title>Node7&#45;&gt;Node8</title>
<path fill="none" stroke="midnightblue" d="M240.536,-224.083C233.472,-216.298 223.04,-204.801 214.479,-195.367"/>
<polygon fill="midnightblue" stroke="midnightblue" points="216.88,-192.805 207.568,-187.751 211.696,-197.509 216.88,-192.805"/>
</g>
<!-- Node8&#45;&gt;Node3 -->
<g id="edge10" class="edge"><title>Node8&#45;&gt;Node3</title>
<path fill="none" stroke="midnightblue" d="M222.969,-170.511C226.526,-169.612 230.165,-168.744 233.628,-168 326.13,-148.13 353.308,-152.232 449.923,-131.966"/>
<polygon fill="midnightblue" stroke="midnightblue" points="450.76,-135.366 459.81,-129.859 449.3,-128.52 450.76,-135.366"/>
</g>
<!-- Node8&#45;&gt;Node6 -->
<g id="edge11" class="edge"><title>Node8&#45;&gt;Node6</title>
<path fill="none" stroke="midnightblue" d="M176.485,-175.056C130.303,-170.648 29.3523,-158.175 8.62758,-132 -23.7232,-91.1416 47.1557,-46.1161 88.9079,-24.3056"/>
<polygon fill="midnightblue" stroke="midnightblue" points="90.7456,-27.2977 98.072,-19.6444 87.572,-21.0584 90.7456,-27.2977"/>
</g>
<!-- Node9 -->
<g id="node9" class="node"><title>Node9</title>
<polygon fill="none" stroke="#bfbfbf" points="17.6276,-112.5 17.6276,-131.5 69.6276,-131.5 69.6276,-112.5 17.6276,-112.5"/>
<text text-anchor="middle" x="43.6276" y="-119.5" font-family="Helvetica,sans-Serif" font-size="10.00">stddef.h</text>
</g>
<!-- Node8&#45;&gt;Node9 -->
<g id="edge9" class="edge"><title>Node8&#45;&gt;Node9</title>
<path fill="none" stroke="midnightblue" d="M176.609,-169.032C150.567,-160.018 107.888,-145.244 77.9204,-134.871"/>
<polygon fill="midnightblue" stroke="midnightblue" points="78.8818,-131.5 68.287,-131.536 76.592,-138.115 78.8818,-131.5"/>
</g>
<!-- Node10 -->
<g id="node10" class="node"><title>Node10</title>
<g id="a_node10"><a xlink:href="validators_8hh.html" target="_top" xlink:title="validators.hh">
<polygon fill="none" stroke="black" points="163.628,-112.5 163.628,-131.5 235.628,-131.5 235.628,-112.5 163.628,-112.5"/>
<text text-anchor="middle" x="199.628" y="-119.5" font-family="Helvetica,sans-Serif" font-size="10.00">validators.hh</text>
</a>
</g>
</g>
<!-- Node8&#45;&gt;Node10 -->
<g id="edge12" class="edge"><title>Node8&#45;&gt;Node10</title>
<path fill="none" stroke="midnightblue" d="M199.628,-168.083C199.628,-161.006 199.628,-150.861 199.628,-141.986"/>
<polygon fill="midnightblue" stroke="midnightblue" points="203.128,-141.751 199.628,-131.751 196.128,-141.751 203.128,-141.751"/>
</g>
<!-- Node11 -->
<g id="node11" class="node"><title>Node11</title>
<polygon fill="none" stroke="#bfbfbf" points="416.128,-56.5 416.128,-75.5 475.128,-75.5 475.128,-56.5 416.128,-56.5"/>
<text text-anchor="middle" x="445.628" y="-63.5" font-family="Helvetica,sans-Serif" font-size="10.00">stdexcept</text>
</g>
<!-- Node10&#45;&gt;Node11 -->
<g id="edge13" class="edge"><title>Node10&#45;&gt;Node11</title>
<path fill="none" stroke="midnightblue" d="M235.662,-113.09C281.167,-103.101 359.187,-85.9748 406.23,-75.6482"/>
<polygon fill="midnightblue" stroke="midnightblue" points="407.043,-79.0531 416.06,-73.4904 405.542,-72.2159 407.043,-79.0531"/>
</g>
<!-- Node12 -->
<g id="node12" class="node"><title>Node12</title>
<g id="a_node12"><a xlink:href="blitz_8hh.html" target="_top" xlink:title="blitz.hh">
<polygon fill="none" stroke="black" points="262.628,-56.5 262.628,-75.5 310.628,-75.5 310.628,-56.5 262.628,-56.5"/>
<text text-anchor="middle" x="286.628" y="-63.5" font-family="Helvetica,sans-Serif" font-size="10.00">blitz.hh</text>
</a>
</g>
</g>
<!-- Node10&#45;&gt;Node12 -->
<g id="edge14" class="edge"><title>Node10&#45;&gt;Node12</title>
<path fill="none" stroke="midnightblue" d="M213.606,-112.324C227.177,-103.9 248.008,-90.9709 263.953,-81.0741"/>
<polygon fill="midnightblue" stroke="midnightblue" points="266.034,-83.9019 272.684,-75.6545 262.342,-77.9544 266.034,-83.9019"/>
</g>
<!-- Node12&#45;&gt;Node6 -->
<g id="edge17" class="edge"><title>Node12&#45;&gt;Node6</title>
<path fill="none" stroke="midnightblue" d="M262.271,-57.2631C233.732,-48.198 186.163,-33.0879 153.191,-22.6141"/>
<polygon fill="midnightblue" stroke="midnightblue" points="154.054,-19.2161 143.463,-19.5243 151.935,-25.8876 154.054,-19.2161"/>
</g>
<!-- Node12&#45;&gt;Node13 -->
<g id="edge15" class="edge"><title>Node12&#45;&gt;Node13</title>
<path fill="none" stroke="midnightblue" d="M310.975,-62.9634C335.209,-60.986 373.47,-57.9981 406.628,-56 781.8,-33.392 1237.73,-16.5459 1362.02,-12.1373"/>
<polygon fill="midnightblue" stroke="midnightblue" points="1362.48,-15.6231 1372.36,-11.7723 1362.24,-8.62746 1362.48,-15.6231"/>
</g>
<!-- Node14 -->
<g id="node14" class="node"><title>Node14</title>
<polygon fill="none" stroke="#bfbfbf" points="453.628,-0.5 453.628,-19.5 509.628,-19.5 509.628,-0.5 453.628,-0.5"/>
<text text-anchor="middle" x="481.628" y="-7.5" font-family="Helvetica,sans-Serif" font-size="10.00">algorithm</text>
</g>
<!-- Node12&#45;&gt;Node14 -->
<g id="edge16" class="edge"><title>Node12&#45;&gt;Node14</title>
<path fill="none" stroke="midnightblue" d="M310.93,-58.27C344.272,-49.0369 404.526,-32.3511 443.797,-21.4762"/>
<polygon fill="midnightblue" stroke="midnightblue" points="444.84,-24.819 453.544,-18.7771 442.972,-18.0729 444.84,-24.819"/>
</g>
<!-- Node15&#45;&gt;Node3 -->
<g id="edge20" class="edge"><title>Node15&#45;&gt;Node3</title>
<path fill="none" stroke="midnightblue" d="M367.653,-168.444C390.732,-159.478 427.19,-145.314 453.268,-135.183"/>
<polygon fill="midnightblue" stroke="midnightblue" points="454.652,-138.4 462.706,-131.516 452.117,-131.875 454.652,-138.4"/>
</g>
<!-- Node15&#45;&gt;Node4 -->
<g id="edge21" class="edge"><title>Node15&#45;&gt;Node4</title>
<path fill="none" stroke="midnightblue" d="M356.874,-168.324C367.425,-160.185 383.428,-147.839 396.07,-138.087"/>
<polygon fill="midnightblue" stroke="midnightblue" points="398.396,-140.713 404.176,-131.834 394.121,-135.171 398.396,-140.713"/>
</g>
<!-- Node15&#45;&gt;Node6 -->
<g id="edge23" class="edge"><title>Node15&#45;&gt;Node6</title>
<path fill="none" stroke="midnightblue" d="M314.383,-169.844C260.602,-157.498 156.109,-133.377 154.628,-132 139.613,-118.042 126.336,-60.3697 120.212,-29.9625"/>
<polygon fill="midnightblue" stroke="midnightblue" points="123.578,-28.9359 118.227,-19.7917 116.708,-30.277 123.578,-28.9359"/>
</g>
<!-- Node15&#45;&gt;Node10 -->
<g id="edge24" class="edge"><title>Node15&#45;&gt;Node10</title>
<path fill="none" stroke="midnightblue" d="M322.493,-168.444C298.145,-159.438 259.62,-145.189 232.205,-135.049"/>
<polygon fill="midnightblue" stroke="midnightblue" points="233.247,-131.703 222.653,-131.516 230.818,-138.268 233.247,-131.703"/>
</g>
<!-- Node16 -->
<g id="node16" class="node"><title>Node16</title>
<polygon fill="none" stroke="#bfbfbf" points="254.128,-112.5 254.128,-131.5 303.128,-131.5 303.128,-112.5 254.128,-112.5"/>
<text text-anchor="middle" x="278.628" y="-119.5" font-family="Helvetica,sans-Serif" font-size="10.00">cstddef</text>
</g>
<!-- Node15&#45;&gt;Node16 -->
<g id="edge19" class="edge"><title>Node15&#45;&gt;Node16</title>
<path fill="none" stroke="midnightblue" d="M334.863,-168.324C324.861,-160.263 309.741,-148.077 297.697,-138.369"/>
<polygon fill="midnightblue" stroke="midnightblue" points="299.57,-135.384 289.588,-131.834 295.178,-140.834 299.57,-135.384"/>
</g>
<!-- Node17 -->
<g id="node17" class="node"><title>Node17</title>
<polygon fill="none" stroke="#bfbfbf" points="321.628,-112.5 321.628,-131.5 371.628,-131.5 371.628,-112.5 321.628,-112.5"/>
<text text-anchor="middle" x="346.628" y="-119.5" font-family="Helvetica,sans-Serif" font-size="10.00">iomanip</text>
</g>
<!-- Node15&#45;&gt;Node17 -->
<g id="edge22" class="edge"><title>Node15&#45;&gt;Node17</title>
<path fill="none" stroke="midnightblue" d="M345.793,-168.083C345.924,-161.006 346.112,-150.861 346.276,-141.986"/>
<polygon fill="midnightblue" stroke="midnightblue" points="349.78,-141.814 346.466,-131.751 342.781,-141.685 349.78,-141.814"/>
</g>
<!-- Node18&#45;&gt;Node3 -->
<g id="edge48" class="edge"><title>Node18&#45;&gt;Node3</title>
<path fill="none" stroke="midnightblue" d="M476.334,-224.368C477.786,-206.617 481.137,-165.666 483.106,-141.597"/>
<polygon fill="midnightblue" stroke="midnightblue" points="486.597,-141.844 483.925,-131.591 479.621,-141.273 486.597,-141.844"/>
</g>
<!-- Node18&#45;&gt;Node4 -->
<g id="edge49" class="edge"><title>Node18&#45;&gt;Node4</title>
<path fill="none" stroke="midnightblue" d="M470.919,-224.368C461.105,-206.376 438.291,-164.55 425.242,-140.627"/>
<polygon fill="midnightblue" stroke="midnightblue" points="428.175,-138.694 420.314,-131.591 422.03,-142.046 428.175,-138.694"/>
</g>
<!-- Node18&#45;&gt;Node5 -->
<g id="edge27" class="edge"><title>Node18&#45;&gt;Node5</title>
<path fill="none" stroke="midnightblue" d="M442.986,-224.444C405.911,-214.725 345.539,-198.899 306.714,-188.722"/>
<polygon fill="midnightblue" stroke="midnightblue" points="307.414,-185.287 296.853,-186.137 305.639,-192.058 307.414,-185.287"/>
</g>
<!-- Node18&#45;&gt;Node8 -->
<g id="edge28" class="edge"><title>Node18&#45;&gt;Node8</title>
<path fill="none" stroke="midnightblue" d="M433.027,-226.072C384.533,-217.956 303.044,-203.619 233.628,-188 233.412,-187.951 233.195,-187.902 232.978,-187.853"/>
<polygon fill="midnightblue" stroke="midnightblue" points="233.525,-184.384 222.982,-185.428 231.875,-191.187 233.525,-184.384"/>
</g>
<!-- Node19 -->
<g id="node19" class="node"><title>Node19</title>
<g id="a_node19"><a xlink:href="output__flags_8hh.html" target="_top" xlink:title="output_flags.hh">
<polygon fill="none" stroke="black" points="575.128,-168.5 575.128,-187.5 658.128,-187.5 658.128,-168.5 575.128,-168.5"/>
<text text-anchor="middle" x="616.628" y="-175.5" font-family="Helvetica,sans-Serif" font-size="10.00">output_flags.hh</text>
</a>
</g>
</g>
<!-- Node18&#45;&gt;Node19 -->
<g id="edge29" class="edge"><title>Node18&#45;&gt;Node19</title>
<path fill="none" stroke="midnightblue" d="M497.969,-224.444C521.381,-215.478 558.363,-201.314 584.817,-191.183"/>
<polygon fill="midnightblue" stroke="midnightblue" points="586.303,-194.361 594.39,-187.516 583.8,-187.824 586.303,-194.361"/>
</g>
<!-- Node23 -->
<g id="node23" class="node"><title>Node23</title>
<g id="a_node23"><a xlink:href="parallel__mt_8hh.html" target="_top" xlink:title="parallel_mt.hh">
<polygon fill="none" stroke="black" points="899.128,-168.5 899.128,-187.5 976.128,-187.5 976.128,-168.5 899.128,-168.5"/>
<text text-anchor="middle" x="937.628" y="-175.5" font-family="Helvetica,sans-Serif" font-size="10.00">parallel_mt.hh</text>
</a>
</g>
</g>
<!-- Node18&#45;&gt;Node23 -->
<g id="edge35" class="edge"><title>Node18&#45;&gt;Node23</title>
<path fill="none" stroke="midnightblue" d="M518.263,-228.017C604.301,-217.96 798.209,-195.296 889.006,-184.683"/>
<polygon fill="midnightblue" stroke="midnightblue" points="889.506,-188.148 899.032,-183.511 888.694,-181.196 889.506,-188.148"/>
</g>
<!-- Node19&#45;&gt;Node3 -->
<g id="edge30" class="edge"><title>Node19&#45;&gt;Node3</title>
<path fill="none" stroke="midnightblue" d="M595.712,-168.444C573.892,-159.517 539.478,-145.439 514.735,-135.317"/>
<polygon fill="midnightblue" stroke="midnightblue" points="516.026,-132.063 505.446,-131.516 513.376,-138.542 516.026,-132.063"/>
</g>
<!-- Node19&#45;&gt;Node4 -->
<g id="edge31" class="edge"><title>Node19&#45;&gt;Node4</title>
<path fill="none" stroke="midnightblue" d="M584.779,-168.444C548.656,-158.739 489.868,-142.945 451.979,-132.766"/>
<polygon fill="midnightblue" stroke="midnightblue" points="452.449,-129.268 441.883,-130.054 450.632,-136.028 452.449,-129.268"/>
</g>
<!-- Node20 -->
<g id="node20" class="node"><title>Node20</title>
<polygon fill="none" stroke="#bfbfbf" points="527.128,-112.5 527.128,-131.5 568.128,-131.5 568.128,-112.5 527.128,-112.5"/>
<text text-anchor="middle" x="547.628" y="-119.5" font-family="Helvetica,sans-Serif" font-size="10.00">bitset</text>
</g>
<!-- Node19&#45;&gt;Node20 -->
<g id="edge32" class="edge"><title>Node19&#45;&gt;Node20</title>
<path fill="none" stroke="midnightblue" d="M605.542,-168.324C595.142,-160.185 579.367,-147.839 566.906,-138.087"/>
<polygon fill="midnightblue" stroke="midnightblue" points="568.947,-135.241 558.915,-131.834 564.633,-140.753 568.947,-135.241"/>
</g>
<!-- Node21 -->
<g id="node21" class="node"><title>Node21</title>
<polygon fill="none" stroke="#bfbfbf" points="586.628,-112.5 586.628,-131.5 648.628,-131.5 648.628,-112.5 586.628,-112.5"/>
<text text-anchor="middle" x="617.628" y="-119.5" font-family="Helvetica,sans-Serif" font-size="10.00">type_traits</text>
</g>
<!-- Node19&#45;&gt;Node21 -->
<g id="edge33" class="edge"><title>Node19&#45;&gt;Node21</title>
<path fill="none" stroke="midnightblue" d="M616.793,-168.083C616.924,-161.006 617.112,-150.861 617.276,-141.986"/>
<polygon fill="midnightblue" stroke="midnightblue" points="620.78,-141.814 617.466,-131.751 613.781,-141.685 620.78,-141.814"/>
</g>
<!-- Node22 -->
<g id="node22" class="node"><title>Node22</title>
<polygon fill="none" stroke="#bfbfbf" points="989.128,-112.5 989.128,-131.5 1030.13,-131.5 1030.13,-112.5 989.128,-112.5"/>
<text text-anchor="middle" x="1009.63" y="-119.5" font-family="Helvetica,sans-Serif" font-size="10.00">string</text>
</g>
<!-- Node19&#45;&gt;Node22 -->
<g id="edge34" class="edge"><title>Node19&#45;&gt;Node22</title>
<path fill="none" stroke="midnightblue" d="M658.313,-171.272C737.795,-160.351 909.306,-136.785 979.124,-127.191"/>
<polygon fill="midnightblue" stroke="midnightblue" points="979.616,-130.657 989.047,-125.828 978.663,-123.722 979.616,-130.657"/>
</g>
<!-- Node23&#45;&gt;Node3 -->
<g id="edge40" class="edge"><title>Node23&#45;&gt;Node3</title>
<path fill="none" stroke="midnightblue" d="M899.108,-174.933C826.468,-170.593 664.212,-158.789 519.352,-132.075"/>
<polygon fill="midnightblue" stroke="midnightblue" points="519.869,-128.611 509.395,-130.21 518.58,-135.492 519.869,-128.611"/>
</g>
<!-- Node23&#45;&gt;Node11 -->
<g id="edge42" class="edge"><title>Node23&#45;&gt;Node11</title>
<path fill="none" stroke="midnightblue" d="M941.532,-168.11C946.962,-154.213 954.644,-127.349 940.628,-112 910.152,-78.628 598.072,-69.7397 485.686,-67.6117"/>
<polygon fill="midnightblue" stroke="midnightblue" points="485.511,-64.108 475.449,-67.4263 485.384,-71.1069 485.511,-64.108"/>
</g>
<!-- Node23&#45;&gt;Node14 -->
<g id="edge37" class="edge"><title>Node23&#45;&gt;Node14</title>
<path fill="none" stroke="midnightblue" d="M898.869,-173.768C850.195,-168.819 764.693,-157.151 695.628,-132 685.531,-128.323 558.862,-55.5364 505.295,-24.6595"/>
<polygon fill="midnightblue" stroke="midnightblue" points="506.89,-21.5388 496.479,-19.5752 503.393,-27.6027 506.89,-21.5388"/>
</g>
<!-- Node24 -->
<g id="node24" class="node"><title>Node24</title>
<polygon fill="none" stroke="#bfbfbf" points="1048.13,-112.5 1048.13,-131.5 1093.13,-131.5 1093.13,-112.5 1048.13,-112.5"/>
<text text-anchor="middle" x="1070.63" y="-119.5" font-family="Helvetica,sans-Serif" font-size="10.00">cstdlib</text>
</g>
<!-- Node23&#45;&gt;Node24 -->
<g id="edge36" class="edge"><title>Node23&#45;&gt;Node24</title>
<path fill="none" stroke="midnightblue" d="M958.702,-168.444C980.687,-159.517 1015.36,-145.439 1040.29,-135.317"/>
<polygon fill="midnightblue" stroke="midnightblue" points="1041.7,-138.521 1049.65,-131.516 1039.07,-132.035 1041.7,-138.521"/>
</g>
<!-- Node25 -->
<g id="node25" class="node"><title>Node25</title>
<polygon fill="none" stroke="#bfbfbf" points="1111.63,-112.5 1111.63,-131.5 1157.63,-131.5 1157.63,-112.5 1111.63,-112.5"/>
<text text-anchor="middle" x="1134.63" y="-119.5" font-family="Helvetica,sans-Serif" font-size="10.00">cstdint</text>
</g>
<!-- Node23&#45;&gt;Node25 -->
<g id="edge38" class="edge"><title>Node23&#45;&gt;Node25</title>
<path fill="none" stroke="midnightblue" d="M968.843,-168.444C1005.14,-158.494 1064.78,-142.145 1101.77,-132.007"/>
<polygon fill="midnightblue" stroke="midnightblue" points="1102.84,-135.342 1111.56,-129.323 1100.99,-128.591 1102.84,-135.342"/>
</g>
<!-- Node26 -->
<g id="node26" class="node"><title>Node26</title>
<polygon fill="none" stroke="#bfbfbf" points="1175.63,-112.5 1175.63,-131.5 1221.63,-131.5 1221.63,-112.5 1175.63,-112.5"/>
<text text-anchor="middle" x="1198.63" y="-119.5" font-family="Helvetica,sans-Serif" font-size="10.00">cstring</text>
</g>
<!-- Node23&#45;&gt;Node26 -->
<g id="edge39" class="edge"><title>Node23&#45;&gt;Node26</title>
<path fill="none" stroke="midnightblue" d="M976.323,-170.373C1020.06,-162.667 1093.56,-149.07 1165.88,-132.027"/>
<polygon fill="midnightblue" stroke="midnightblue" points="1166.7,-135.431 1175.61,-129.711 1165.07,-128.621 1166.7,-135.431"/>
</g>
<!-- Node27 -->
<g id="node27" class="node"><title>Node27</title>
<polygon fill="none" stroke="#bfbfbf" points="1239.63,-112.5 1239.63,-131.5 1279.63,-131.5 1279.63,-112.5 1239.63,-112.5"/>
<text text-anchor="middle" x="1259.63" y="-119.5" font-family="Helvetica,sans-Serif" font-size="10.00">limits</text>
</g>
<!-- Node23&#45;&gt;Node27 -->
<g id="edge41" class="edge"><title>Node23&#45;&gt;Node27</title>
<path fill="none" stroke="midnightblue" d="M976.369,-172.908C1030.9,-166.743 1133.51,-153.666 1229.58,-131.95"/>
<polygon fill="midnightblue" stroke="midnightblue" points="1230.49,-135.332 1239.45,-129.682 1228.92,-128.51 1230.49,-135.332"/>
</g>
<!-- Node28 -->
<g id="node28" class="node"><title>Node28</title>
<polygon fill="none" stroke="#bfbfbf" points="704.628,-112.5 704.628,-131.5 748.628,-131.5 748.628,-112.5 704.628,-112.5"/>
<text text-anchor="middle" x="726.628" y="-119.5" font-family="Helvetica,sans-Serif" font-size="10.00">vector</text>
</g>
<!-- Node23&#45;&gt;Node28 -->
<g id="edge43" class="edge"><title>Node23&#45;&gt;Node28</title>
<path fill="none" stroke="midnightblue" d="M901.665,-168.431C867.32,-160.153 813.871,-147.03 758.87,-132.266"/>
<polygon fill="midnightblue" stroke="midnightblue" points="759.517,-128.815 748.95,-129.589 757.693,-135.574 759.517,-128.815"/>
</g>
<!-- Node23&#45;&gt;Node29 -->
<g id="edge44" class="edge"><title>Node23&#45;&gt;Node29</title>
<path fill="none" stroke="midnightblue" d="M976.327,-173.714C1039.51,-167.985 1168.85,-154.743 1287.48,-131.996"/>
<polygon fill="midnightblue" stroke="midnightblue" points="1288.31,-135.4 1297.46,-130.055 1286.98,-128.529 1288.31,-135.4"/>
</g>
<!-- Node30 -->
<g id="node30" class="node"><title>Node30</title>
<polygon fill="none" stroke="#bfbfbf" points="767.128,-112.5 767.128,-131.5 814.128,-131.5 814.128,-112.5 767.128,-112.5"/>
<text text-anchor="middle" x="790.628" y="-119.5" font-family="Helvetica,sans-Serif" font-size="10.00">iterator</text>
</g>
<!-- Node23&#45;&gt;Node30 -->
<g id="edge45" class="edge"><title>Node23&#45;&gt;Node30</title>
<path fill="none" stroke="midnightblue" d="M914.335,-168.444C889.82,-159.438 851.031,-145.189 823.428,-135.049"/>
<polygon fill="midnightblue" stroke="midnightblue" points="824.405,-131.679 813.811,-131.516 821.991,-138.25 824.405,-131.679"/>
</g>
<!-- Node31 -->
<g id="node31" class="node"><title>Node31</title>
<polygon fill="none" stroke="#bfbfbf" points="832.628,-112.5 832.628,-131.5 878.628,-131.5 878.628,-112.5 832.628,-112.5"/>
<text text-anchor="middle" x="855.628" y="-119.5" font-family="Helvetica,sans-Serif" font-size="10.00">chrono</text>
</g>
<!-- Node23&#45;&gt;Node31 -->
<g id="edge46" class="edge"><title>Node23&#45;&gt;Node31</title>
<path fill="none" stroke="midnightblue" d="M924.453,-168.324C911.781,-159.979 892.394,-147.212 877.422,-137.352"/>
<polygon fill="midnightblue" stroke="midnightblue" points="879.046,-134.231 868.77,-131.655 875.196,-140.078 879.046,-134.231"/>
</g>
<!-- Node32 -->
<g id="node32" class="node"><title>Node32</title>
<polygon fill="none" stroke="#bfbfbf" points="897.128,-112.5 897.128,-131.5 932.128,-131.5 932.128,-112.5 897.128,-112.5"/>
<text text-anchor="middle" x="914.628" y="-119.5" font-family="Helvetica,sans-Serif" font-size="10.00">dc.h</text>
</g>
<!-- Node23&#45;&gt;Node32 -->
<g id="edge47" class="edge"><title>Node23&#45;&gt;Node32</title>
<path fill="none" stroke="midnightblue" d="M933.83,-168.083C930.715,-160.77 926.205,-150.181 922.338,-141.103"/>
<polygon fill="midnightblue" stroke="midnightblue" points="925.494,-139.58 918.355,-131.751 919.053,-142.323 925.494,-139.58"/>
</g>
<!-- Node33&#45;&gt;Node13 -->
<g id="edge51" class="edge"><title>Node33&#45;&gt;Node13</title>
<path fill="none" stroke="midnightblue" d="M1553.68,-56.4435C1519.01,-46.5369 1462.12,-30.2846 1426.61,-20.1375"/>
<polygon fill="midnightblue" stroke="midnightblue" points="1427.33,-16.7049 1416.76,-17.323 1425.41,-23.4356 1427.33,-16.7049"/>
</g>
<!-- Node34&#45;&gt;Node22 -->
<g id="edge54" class="edge"><title>Node34&#45;&gt;Node22</title>
<path fill="none" stroke="midnightblue" d="M1509.4,-280.425C1419.71,-252.172 1133.87,-162.134 1039.89,-132.533"/>
<polygon fill="midnightblue" stroke="midnightblue" points="1040.74,-129.131 1030.15,-129.465 1038.64,-135.808 1040.74,-129.131"/>
</g>
<!-- Node34&#45;&gt;Node35 -->
<g id="edge53" class="edge"><title>Node34&#45;&gt;Node35</title>
<path fill="none" stroke="midnightblue" d="M1548.52,-280.324C1559.78,-272.107 1576.91,-259.602 1590.34,-249.807"/>
<polygon fill="midnightblue" stroke="midnightblue" points="1592.51,-252.556 1598.52,-243.834 1588.38,-246.901 1592.51,-252.556"/>
</g>
<!-- Node36 -->
<g id="node36" class="node"><title>Node36</title>
<polygon fill="none" stroke="#bfbfbf" points="1480.13,-224.5 1480.13,-243.5 1563.13,-243.5 1563.13,-224.5 1480.13,-224.5"/>
<text text-anchor="middle" x="1521.63" y="-231.5" font-family="Helvetica,sans-Serif" font-size="10.00">unordered_map</text>
</g>
<!-- Node34&#45;&gt;Node36 -->
<g id="edge55" class="edge"><title>Node34&#45;&gt;Node36</title>
<path fill="none" stroke="midnightblue" d="M1534.15,-280.083C1532.14,-272.849 1529.24,-262.409 1526.74,-253.397"/>
<polygon fill="midnightblue" stroke="midnightblue" points="1530.11,-252.449 1524.06,-243.751 1523.36,-254.323 1530.11,-252.449"/>
</g>
<!-- Node38 -->
<g id="node38" class="node"><title>Node38</title>
<g id="a_node38"><a xlink:href="profile_8hh.html" target="_top" xlink:title="profile.hh">
<polygon fill="none" stroke="black" points="1704.63,-224.5 1704.63,-243.5 1760.63,-243.5 1760.63,-224.5 1704.63,-224.5"/>
<text text-anchor="middle" x="1732.63" y="-231.5" font-family="Helvetica,sans-Serif" font-size="10.00">profile.hh</text>
</a>
</g>
</g>
<!-- Node37&#45;&gt;Node38 -->
<g id="edge57" class="edge"><title>Node37&#45;&gt;Node38</title>
<path fill="none" stroke="midnightblue" d="M1732.63,-280.083C1732.63,-273.006 1732.63,-262.861 1732.63,-253.986"/>
<polygon fill="midnightblue" stroke="midnightblue" points="1736.13,-253.751 1732.63,-243.751 1729.13,-253.751 1736.13,-253.751"/>
</g>
<!-- Node39&#45;&gt;Node5 -->
<g id="edge60" class="edge"><title>Node39&#45;&gt;Node5</title>
<path fill="none" stroke="midnightblue" d="M1056.54,-233.379C940.155,-233.879 598.331,-231.37 306.566,-187.833"/>
<polygon fill="midnightblue" stroke="midnightblue" points="307.054,-184.367 296.644,-186.334 306.008,-191.289 307.054,-184.367"/>
</g>
<!-- Node39&#45;&gt;Node13 -->
<g id="edge59" class="edge"><title>Node39&#45;&gt;Node13</title>
<path fill="none" stroke="midnightblue" d="M1138.77,-228.064C1195.66,-219.075 1297.97,-194.763 1356.63,-132 1383.48,-103.274 1391.36,-55.7475 1393.67,-29.6267"/>
<polygon fill="midnightblue" stroke="midnightblue" points="1397.17,-29.787 1394.37,-19.567 1390.18,-29.2984 1397.17,-29.787"/>
</g>
<!-- Node39&#45;&gt;Node23 -->
<g id="edge61" class="edge"><title>Node39&#45;&gt;Node23</title>
<path fill="none" stroke="midnightblue" d="M1072.28,-224.444C1045.36,-215.359 1002.63,-200.939 972.541,-190.783"/>
<polygon fill="midnightblue" stroke="midnightblue" points="973.456,-187.398 962.861,-187.516 971.217,-194.031 973.456,-187.398"/>
</g>
<!-- Node40 -->
<g id="node40" class="node"><title>Node40</title>
<polygon fill="none" stroke="#bfbfbf" points="1069.63,-168.5 1069.63,-187.5 1125.63,-187.5 1125.63,-168.5 1069.63,-168.5"/>
<text text-anchor="middle" x="1097.63" y="-175.5" font-family="Helvetica,sans-Serif" font-size="10.00">config.hh</text>
</g>
<!-- Node39&#45;&gt;Node40 -->
<g id="edge62" class="edge"><title>Node39&#45;&gt;Node40</title>
<path fill="none" stroke="midnightblue" d="M1097.63,-224.083C1097.63,-217.006 1097.63,-206.861 1097.63,-197.986"/>
<polygon fill="midnightblue" stroke="midnightblue" points="1101.13,-197.751 1097.63,-187.751 1094.13,-197.751 1101.13,-197.751"/>
</g>
</g>
</svg>
