<?xml version="1.0" encoding="UTF-8" standalone="no"?>
<!DOCTYPE svg PUBLIC "-//W3C//DTD SVG 1.1//EN"
 "http://www.w3.org/Graphics/SVG/1.1/DTD/svg11.dtd">
<!-- Generated by graphviz version 2.36.0 (20140111.2315)
 -->
<!-- Title: /home/travis/build/igankevich/arma/src/linalg.hh Pages: 1 -->
<svg width="537pt" height="162pt"
 viewBox="0.00 0.00 537.00 162.00" xmlns="http://www.w3.org/2000/svg" xmlns:xlink="http://www.w3.org/1999/xlink">
<g id="graph0" class="graph" transform="scale(1 1) rotate(0) translate(4 158)">
<title>/home/travis/build/igankevich/arma/src/linalg.hh</title>
<!-- Node1 -->
<g id="node1" class="node"><title>Node1</title>
<polygon fill="#bfbfbf" stroke="black" points="147.5,-112.5 147.5,-153.5 254.5,-153.5 254.5,-112.5 147.5,-112.5"/>
<text text-anchor="start" x="155.5" y="-141.5" font-family="Helvetica,sans-Serif" font-size="10.00">/home/travis/build</text>
<text text-anchor="start" x="155.5" y="-130.5" font-family="Helvetica,sans-Serif" font-size="10.00">/igankevich/arma/src</text>
<text text-anchor="middle" x="201" y="-119.5" font-family="Helvetica,sans-Serif" font-size="10.00">/linalg.hh</text>
</g>
<!-- Node2 -->
<g id="node2" class="node"><title>Node2</title>
<polygon fill="none" stroke="#bfbfbf" points="-0.5,-56.5 -0.5,-75.5 48.5,-75.5 48.5,-56.5 -0.5,-56.5"/>
<text text-anchor="middle" x="24" y="-63.5" font-family="Helvetica,sans-Serif" font-size="10.00">cassert</text>
</g>
<!-- Node1&#45;&gt;Node2 -->
<g id="edge1" class="edge"><title>Node1&#45;&gt;Node2</title>
<path fill="none" stroke="midnightblue" d="M147.894,-112.498C118.408,-101.67 82.6466,-88.5369 57.1387,-79.1696"/>
<polygon fill="midnightblue" stroke="midnightblue" points="58.155,-75.8143 47.5614,-75.6525 55.7419,-82.3852 58.155,-75.8143"/>
</g>
<!-- Node3 -->
<g id="node3" class="node"><title>Node3</title>
<polygon fill="none" stroke="#bfbfbf" points="67,-56.5 67,-75.5 135,-75.5 135,-56.5 67,-56.5"/>
<text text-anchor="middle" x="101" y="-63.5" font-family="Helvetica,sans-Serif" font-size="10.00">blitz/array.h</text>
</g>
<!-- Node1&#45;&gt;Node3 -->
<g id="edge2" class="edge"><title>Node1&#45;&gt;Node3</title>
<path fill="none" stroke="midnightblue" d="M170.997,-112.498C155.517,-102.436 136.977,-90.3849 122.867,-81.2136"/>
<polygon fill="midnightblue" stroke="midnightblue" points="124.603,-78.1679 114.312,-75.6525 120.789,-84.037 124.603,-78.1679"/>
</g>
<!-- Node4 -->
<g id="node4" class="node"><title>Node4</title>
<polygon fill="none" stroke="#bfbfbf" points="153.5,-56.5 153.5,-75.5 248.5,-75.5 248.5,-56.5 153.5,-56.5"/>
<text text-anchor="middle" x="201" y="-63.5" font-family="Helvetica,sans-Serif" font-size="10.00">lapacke/lapacke.h</text>
</g>
<!-- Node1&#45;&gt;Node4 -->
<g id="edge3" class="edge"><title>Node1&#45;&gt;Node4</title>
<path fill="none" stroke="midnightblue" d="M201,-112.498C201,-104.065 201,-94.2351 201,-85.874"/>
<polygon fill="midnightblue" stroke="midnightblue" points="204.5,-85.6525 201,-75.6525 197.5,-85.6525 204.5,-85.6525"/>
</g>
<!-- Node5 -->
<g id="node5" class="node"><title>Node5</title>
<polygon fill="none" stroke="#bfbfbf" points="267,-56.5 267,-75.5 357,-75.5 357,-56.5 267,-56.5"/>
<text text-anchor="middle" x="312" y="-63.5" font-family="Helvetica,sans-Serif" font-size="10.00">openblas/cblas.h</text>
</g>
<!-- Node1&#45;&gt;Node5 -->
<g id="edge4" class="edge"><title>Node1&#45;&gt;Node5</title>
<path fill="none" stroke="midnightblue" d="M234.304,-112.498C251.649,-102.34 272.458,-90.1551 288.174,-80.9523"/>
<polygon fill="midnightblue" stroke="midnightblue" points="290.364,-83.726 297.224,-75.6525 286.826,-77.6855 290.364,-83.726"/>
</g>
<!-- Node6 -->
<g id="node6" class="node"><title>Node6</title>
<g id="a_node6"><a xlink:href="closed__interval_8hh.html" target="_top" xlink:title="apmath/closed_interval.hh">
<polygon fill="none" stroke="black" points="375.5,-56.5 375.5,-75.5 506.5,-75.5 506.5,-56.5 375.5,-56.5"/>
<text text-anchor="middle" x="441" y="-63.5" font-family="Helvetica,sans-Serif" font-size="10.00">apmath/closed_interval.hh</text>
</a>
</g>
</g>
<!-- Node1&#45;&gt;Node6 -->
<g id="edge5" class="edge"><title>Node1&#45;&gt;Node6</title>
<path fill="none" stroke="midnightblue" d="M254.562,-117.494C298.373,-105.628 359.437,-89.09 399.574,-78.2196"/>
<polygon fill="midnightblue" stroke="midnightblue" points="400.567,-81.5769 409.304,-75.5843 398.737,-74.8203 400.567,-81.5769"/>
</g>
<!-- Node7 -->
<g id="node7" class="node"><title>Node7</title>
<polygon fill="none" stroke="#bfbfbf" points="347.5,-0.5 347.5,-19.5 396.5,-19.5 396.5,-0.5 347.5,-0.5"/>
<text text-anchor="middle" x="372" y="-7.5" font-family="Helvetica,sans-Serif" font-size="10.00">istream</text>
</g>
<!-- Node6&#45;&gt;Node7 -->
<g id="edge6" class="edge"><title>Node6&#45;&gt;Node7</title>
<path fill="none" stroke="midnightblue" d="M429.914,-56.324C419.514,-48.1849 403.739,-35.8395 391.278,-26.0874"/>
<polygon fill="midnightblue" stroke="midnightblue" points="393.32,-23.2407 383.288,-19.8339 389.006,-28.7533 393.32,-23.2407"/>
</g>
<!-- Node8 -->
<g id="node8" class="node"><title>Node8</title>
<polygon fill="none" stroke="#bfbfbf" points="415,-0.5 415,-19.5 467,-19.5 467,-0.5 415,-0.5"/>
<text text-anchor="middle" x="441" y="-7.5" font-family="Helvetica,sans-Serif" font-size="10.00">ostream</text>
</g>
<!-- Node6&#45;&gt;Node8 -->
<g id="edge7" class="edge"><title>Node6&#45;&gt;Node8</title>
<path fill="none" stroke="midnightblue" d="M441,-56.083C441,-49.0059 441,-38.8611 441,-29.9865"/>
<polygon fill="midnightblue" stroke="midnightblue" points="444.5,-29.751 441,-19.7511 437.5,-29.7511 444.5,-29.751"/>
</g>
<!-- Node9 -->
<g id="node9" class="node"><title>Node9</title>
<polygon fill="none" stroke="#bfbfbf" points="485,-0.5 485,-19.5 529,-19.5 529,-0.5 485,-0.5"/>
<text text-anchor="middle" x="507" y="-7.5" font-family="Helvetica,sans-Serif" font-size="10.00">cmath</text>
</g>
<!-- Node6&#45;&gt;Node9 -->
<g id="edge8" class="edge"><title>Node6&#45;&gt;Node9</title>
<path fill="none" stroke="midnightblue" d="M451.604,-56.324C461.456,-48.2631 476.351,-36.0765 488.215,-26.3695"/>
<polygon fill="midnightblue" stroke="midnightblue" points="490.68,-28.8752 496.203,-19.8339 486.247,-23.4575 490.68,-28.8752"/>
</g>
</g>
</svg>
