<?xml version="1.0" encoding="UTF-8" standalone="no"?>
<!DOCTYPE svg PUBLIC "-//W3C//DTD SVG 1.1//EN"
 "http://www.w3.org/Graphics/SVG/1.1/DTD/svg11.dtd">
<!-- Generated by graphviz version 2.36.0 (20140111.2315)
 -->
<!-- Title: /home/travis/build/igankevich/arma/src/velocity/linear_solver.cc Pages: 1 -->
<svg width="1218pt" height="454pt"
 viewBox="0.00 0.00 1218.00 454.00" xmlns="http://www.w3.org/2000/svg" xmlns:xlink="http://www.w3.org/1999/xlink">
<g id="graph0" class="graph" transform="scale(1 1) rotate(0) translate(4 450)">
<title>/home/travis/build/igankevich/arma/src/velocity/linear_solver.cc</title>
<!-- Node1 -->
<g id="node1" class="node"><title>Node1</title>
<polygon fill="#bfbfbf" stroke="black" points="802.5,-404.5 802.5,-445.5 927.5,-445.5 927.5,-404.5 802.5,-404.5"/>
<text text-anchor="start" x="810.5" y="-433.5" font-family="Helvetica,sans-Serif" font-size="10.00">/home/travis/build</text>
<text text-anchor="start" x="810.5" y="-422.5" font-family="Helvetica,sans-Serif" font-size="10.00">/igankevich/arma/src</text>
<text text-anchor="middle" x="865" y="-411.5" font-family="Helvetica,sans-Serif" font-size="10.00">/velocity/linear_solver.cc</text>
</g>
<!-- Node2 -->
<g id="node2" class="node"><title>Node2</title>
<g id="a_node2"><a xlink:href="linear__solver_8hh.html" target="_top" xlink:title="linear_solver.hh">
<polygon fill="none" stroke="black" points="385.5,-348.5 385.5,-367.5 470.5,-367.5 470.5,-348.5 385.5,-348.5"/>
<text text-anchor="middle" x="428" y="-355.5" font-family="Helvetica,sans-Serif" font-size="10.00">linear_solver.hh</text>
</a>
</g>
</g>
<!-- Node1&#45;&gt;Node2 -->
<g id="edge1" class="edge"><title>Node1&#45;&gt;Node2</title>
<path fill="none" stroke="midnightblue" d="M802.389,-414.687C715.932,-401.827 561.533,-378.862 480.676,-366.835"/>
<polygon fill="midnightblue" stroke="midnightblue" points="481.122,-363.363 470.716,-365.354 480.092,-370.287 481.122,-363.363"/>
</g>
<!-- Node13 -->
<g id="node13" class="node"><title>Node13</title>
<polygon fill="none" stroke="#bfbfbf" points="630.5,-56.5 630.5,-75.5 689.5,-75.5 689.5,-56.5 630.5,-56.5"/>
<text text-anchor="middle" x="660" y="-63.5" font-family="Helvetica,sans-Serif" font-size="10.00">stdexcept</text>
</g>
<!-- Node1&#45;&gt;Node13 -->
<g id="edge48" class="edge"><title>Node1&#45;&gt;Node13</title>
<path fill="none" stroke="midnightblue" d="M860.008,-404.447C854.379,-380.646 846,-339.149 846,-303 846,-303 846,-303 846,-189 846,-153.751 851.658,-137.188 827,-112 793.784,-78.0691 737.883,-68.8866 699.996,-66.8247"/>
<polygon fill="midnightblue" stroke="midnightblue" points="699.953,-63.3203 689.821,-66.4174 699.673,-70.3147 699.953,-63.3203"/>
</g>
<!-- Node14 -->
<g id="node14" class="node"><title>Node14</title>
<g id="a_node14"><a xlink:href="blitz_8hh.html" target="_top" xlink:title="blitz.hh">
<polygon fill="none" stroke="black" points="898,-56.5 898,-75.5 946,-75.5 946,-56.5 898,-56.5"/>
<text text-anchor="middle" x="922" y="-63.5" font-family="Helvetica,sans-Serif" font-size="10.00">blitz.hh</text>
</a>
</g>
</g>
<!-- Node1&#45;&gt;Node14 -->
<g id="edge42" class="edge"><title>Node1&#45;&gt;Node14</title>
<path fill="none" stroke="midnightblue" d="M868.146,-404.298C878.166,-341.541 909.249,-146.864 919.025,-85.6328"/>
<polygon fill="midnightblue" stroke="midnightblue" points="922.518,-85.9547 920.638,-75.5279 915.605,-84.851 922.518,-85.9547"/>
</g>
<!-- Node15 -->
<g id="node15" class="node"><title>Node15</title>
<polygon fill="none" stroke="#bfbfbf" points="979,-0.5 979,-19.5 1023,-19.5 1023,-0.5 979,-0.5"/>
<text text-anchor="middle" x="1001" y="-7.5" font-family="Helvetica,sans-Serif" font-size="10.00">cmath</text>
</g>
<!-- Node1&#45;&gt;Node15 -->
<g id="edge49" class="edge"><title>Node1&#45;&gt;Node15</title>
<path fill="none" stroke="midnightblue" d="M927.672,-411.225C982.688,-395.921 1054,-364.266 1054,-303 1054,-303 1054,-303 1054,-127 1054,-88.8338 1029.97,-49.4724 1014.27,-27.8294"/>
<polygon fill="midnightblue" stroke="midnightblue" points="1016.96,-25.5785 1008.15,-19.6938 1011.37,-29.7883 1016.96,-25.5785"/>
</g>
<!-- Node28 -->
<g id="node28" class="node"><title>Node28</title>
<g id="a_node28"><a xlink:href="physical__constants_8hh.html" target="_top" xlink:title="physical_constants.hh">
<polygon fill="none" stroke="black" points="912,-292.5 912,-311.5 1026,-311.5 1026,-292.5 912,-292.5"/>
<text text-anchor="middle" x="969" y="-299.5" font-family="Helvetica,sans-Serif" font-size="10.00">physical_constants.hh</text>
</a>
</g>
</g>
<!-- Node1&#45;&gt;Node28 -->
<g id="edge35" class="edge"><title>Node1&#45;&gt;Node28</title>
<path fill="none" stroke="midnightblue" d="M881.941,-404.29C902.266,-380.642 935.967,-341.432 954.925,-319.375"/>
<polygon fill="midnightblue" stroke="midnightblue" points="957.766,-321.44 961.63,-311.575 952.457,-316.877 957.766,-321.44"/>
</g>
<!-- Node29 -->
<g id="node29" class="node"><title>Node29</title>
<g id="a_node29"><a xlink:href="derivative_8hh.html" target="_top" xlink:title="derivative.hh">
<polygon fill="none" stroke="black" points="582,-292.5 582,-311.5 654,-311.5 654,-292.5 582,-292.5"/>
<text text-anchor="middle" x="618" y="-299.5" font-family="Helvetica,sans-Serif" font-size="10.00">derivative.hh</text>
</a>
</g>
</g>
<!-- Node1&#45;&gt;Node29 -->
<g id="edge37" class="edge"><title>Node1&#45;&gt;Node29</title>
<path fill="none" stroke="midnightblue" d="M802.474,-406.458C772.702,-396.959 737.112,-383.896 707,-368 680.488,-354.004 653.089,-332.791 635.82,-318.438"/>
<polygon fill="midnightblue" stroke="midnightblue" points="637.668,-315.417 627.772,-311.633 633.148,-320.762 637.668,-315.417"/>
</g>
<!-- Node30 -->
<g id="node30" class="node"><title>Node30</title>
<g id="a_node30"><a xlink:href="interpolate_8hh.html" target="_top" xlink:title="interpolate.hh">
<polygon fill="none" stroke="black" points="596.5,-236.5 596.5,-255.5 671.5,-255.5 671.5,-236.5 596.5,-236.5"/>
<text text-anchor="middle" x="634" y="-243.5" font-family="Helvetica,sans-Serif" font-size="10.00">interpolate.hh</text>
</a>
</g>
</g>
<!-- Node1&#45;&gt;Node30 -->
<g id="edge39" class="edge"><title>Node1&#45;&gt;Node30</title>
<path fill="none" stroke="midnightblue" d="M839.396,-404.382C792.678,-368.584 694.606,-293.438 653.151,-261.674"/>
<polygon fill="midnightblue" stroke="midnightblue" points="655.269,-258.888 645.203,-255.584 651.012,-264.444 655.269,-258.888"/>
</g>
<!-- Node31 -->
<g id="node31" class="node"><title>Node31</title>
<g id="a_node31"><a xlink:href="profile_8hh.html" target="_top" xlink:title="profile.hh">
<polygon fill="none" stroke="black" points="1082,-348.5 1082,-367.5 1138,-367.5 1138,-348.5 1082,-348.5"/>
<text text-anchor="middle" x="1110" y="-355.5" font-family="Helvetica,sans-Serif" font-size="10.00">profile.hh</text>
</a>
</g>
</g>
<!-- Node1&#45;&gt;Node31 -->
<g id="edge41" class="edge"><title>Node1&#45;&gt;Node31</title>
<path fill="none" stroke="midnightblue" d="M927.775,-407.345C973.327,-395.26 1033.47,-379.305 1071.95,-369.096"/>
<polygon fill="midnightblue" stroke="midnightblue" points="1072.95,-372.451 1081.72,-366.503 1071.16,-365.685 1072.95,-372.451"/>
</g>
<!-- Node32 -->
<g id="node32" class="node"><title>Node32</title>
<g id="a_node32"><a xlink:href="factor__waves_8hh.html" target="_top" xlink:title="factor_waves.hh">
<polygon fill="none" stroke="black" points="728.5,-236.5 728.5,-255.5 817.5,-255.5 817.5,-236.5 728.5,-236.5"/>
<text text-anchor="middle" x="773" y="-243.5" font-family="Helvetica,sans-Serif" font-size="10.00">factor_waves.hh</text>
</a>
</g>
</g>
<!-- Node1&#45;&gt;Node32 -->
<g id="edge43" class="edge"><title>Node1&#45;&gt;Node32</title>
<path fill="none" stroke="midnightblue" d="M852.854,-404.261C846.445,-393.632 838.57,-380.227 832,-368 812.63,-331.954 792.157,-288.614 781.151,-264.818"/>
<polygon fill="midnightblue" stroke="midnightblue" points="784.28,-263.247 776.921,-255.625 777.921,-266.173 784.28,-263.247"/>
</g>
<!-- Node33 -->
<g id="node33" class="node"><title>Node33</title>
<polygon fill="none" stroke="#bfbfbf" points="1156,-348.5 1156,-367.5 1210,-367.5 1210,-348.5 1156,-348.5"/>
<text text-anchor="middle" x="1183" y="-355.5" font-family="Helvetica,sans-Serif" font-size="10.00">iostream</text>
</g>
<!-- Node1&#45;&gt;Node33 -->
<g id="edge50" class="edge"><title>Node1&#45;&gt;Node33</title>
<path fill="none" stroke="midnightblue" d="M927.657,-412.292C984.707,-401.448 1071.2,-384.543 1146,-368 1146.1,-367.978 1146.2,-367.955 1146.3,-367.933"/>
<polygon fill="midnightblue" stroke="midnightblue" points="1146.99,-371.366 1155.95,-365.718 1145.42,-364.544 1146.99,-371.366"/>
</g>
<!-- Node3 -->
<g id="node3" class="node"><title>Node3</title>
<polygon fill="none" stroke="#bfbfbf" points="74.5,-180.5 74.5,-199.5 127.5,-199.5 127.5,-180.5 74.5,-180.5"/>
<text text-anchor="middle" x="101" y="-187.5" font-family="Helvetica,sans-Serif" font-size="10.00">complex</text>
</g>
<!-- Node2&#45;&gt;Node3 -->
<g id="edge2" class="edge"><title>Node2&#45;&gt;Node3</title>
<path fill="none" stroke="midnightblue" d="M404.014,-348.4C381.067,-339.932 345.663,-326.231 316,-312 243.731,-277.328 162.229,-228.687 123.612,-205.028"/>
<polygon fill="midnightblue" stroke="midnightblue" points="125.101,-201.835 114.75,-199.575 121.433,-207.797 125.101,-201.835"/>
</g>
<!-- Node4 -->
<g id="node4" class="node"><title>Node4</title>
<g id="a_node4"><a xlink:href="basic__solver_8hh.html" target="_top" xlink:title="basic_solver.hh">
<polygon fill="none" stroke="black" points="458.5,-292.5 458.5,-311.5 543.5,-311.5 543.5,-292.5 458.5,-292.5"/>
<text text-anchor="middle" x="501" y="-299.5" font-family="Helvetica,sans-Serif" font-size="10.00">basic_solver.hh</text>
</a>
</g>
</g>
<!-- Node2&#45;&gt;Node4 -->
<g id="edge3" class="edge"><title>Node2&#45;&gt;Node4</title>
<path fill="none" stroke="midnightblue" d="M439.729,-348.324C450.837,-340.107 467.742,-327.602 480.983,-317.807"/>
<polygon fill="midnightblue" stroke="midnightblue" points="483.1,-320.595 489.058,-311.834 478.937,-314.967 483.1,-320.595"/>
</g>
<!-- Node20 -->
<g id="node20" class="node"><title>Node20</title>
<g id="a_node20"><a xlink:href="fourier_8hh.html" target="_top" xlink:title="fourier.hh">
<polygon fill="none" stroke="black" points="325.5,-292.5 325.5,-311.5 382.5,-311.5 382.5,-292.5 325.5,-292.5"/>
<text text-anchor="middle" x="354" y="-299.5" font-family="Helvetica,sans-Serif" font-size="10.00">fourier.hh</text>
</a>
</g>
</g>
<!-- Node2&#45;&gt;Node20 -->
<g id="edge25" class="edge"><title>Node2&#45;&gt;Node20</title>
<path fill="none" stroke="midnightblue" d="M416.111,-348.324C404.85,-340.107 387.713,-327.602 374.291,-317.807"/>
<polygon fill="midnightblue" stroke="midnightblue" points="376.247,-314.901 366.106,-311.834 372.12,-320.556 376.247,-314.901"/>
</g>
<!-- Node5 -->
<g id="node5" class="node"><title>Node5</title>
<g id="a_node5"><a xlink:href="types_8hh.html" target="_top" xlink:title="types.hh">
<polygon fill="none" stroke="black" points="536,-180.5 536,-199.5 590,-199.5 590,-180.5 536,-180.5"/>
<text text-anchor="middle" x="563" y="-187.5" font-family="Helvetica,sans-Serif" font-size="10.00">types.hh</text>
</a>
</g>
</g>
<!-- Node4&#45;&gt;Node5 -->
<g id="edge4" class="edge"><title>Node4&#45;&gt;Node5</title>
<path fill="none" stroke="midnightblue" d="M505.865,-292.368C516.052,-274.296 539.791,-232.176 553.245,-208.307"/>
<polygon fill="midnightblue" stroke="midnightblue" points="556.296,-210.022 558.158,-199.591 550.198,-206.584 556.296,-210.022"/>
</g>
<!-- Node7 -->
<g id="node7" class="node"><title>Node7</title>
<g id="a_node7"><a xlink:href="domain_8hh.html" target="_top" xlink:title="domain.hh">
<polygon fill="none" stroke="black" points="681,-180.5 681,-199.5 743,-199.5 743,-180.5 681,-180.5"/>
<text text-anchor="middle" x="712" y="-187.5" font-family="Helvetica,sans-Serif" font-size="10.00">domain.hh</text>
</a>
</g>
</g>
<!-- Node4&#45;&gt;Node7 -->
<g id="edge6" class="edge"><title>Node4&#45;&gt;Node7</title>
<path fill="none" stroke="midnightblue" d="M543.731,-294.494C589.776,-286.761 659.254,-272.77 680,-256 694.499,-244.28 702.935,-224.342 707.47,-209.631"/>
<polygon fill="midnightblue" stroke="midnightblue" points="710.945,-210.193 710.212,-199.623 704.193,-208.343 710.945,-210.193"/>
</g>
<!-- Node17 -->
<g id="node17" class="node"><title>Node17</title>
<g id="a_node17"><a xlink:href="discrete__function_8hh.html" target="_top" xlink:title="discrete_function.hh">
<polygon fill="none" stroke="black" points="398,-236.5 398,-255.5 502,-255.5 502,-236.5 398,-236.5"/>
<text text-anchor="middle" x="450" y="-243.5" font-family="Helvetica,sans-Serif" font-size="10.00">discrete_function.hh</text>
</a>
</g>
</g>
<!-- Node4&#45;&gt;Node17 -->
<g id="edge18" class="edge"><title>Node4&#45;&gt;Node17</title>
<path fill="none" stroke="midnightblue" d="M492.578,-292.083C485.152,-284.22 474.148,-272.569 465.188,-263.081"/>
<polygon fill="midnightblue" stroke="midnightblue" points="467.676,-260.618 458.265,-255.751 462.587,-265.424 467.676,-260.618"/>
</g>
<!-- Node6 -->
<g id="node6" class="node"><title>Node6</title>
<polygon fill="none" stroke="#bfbfbf" points="609,-0.5 609,-19.5 677,-19.5 677,-0.5 609,-0.5"/>
<text text-anchor="middle" x="643" y="-7.5" font-family="Helvetica,sans-Serif" font-size="10.00">blitz/array.h</text>
</g>
<!-- Node5&#45;&gt;Node6 -->
<g id="edge5" class="edge"><title>Node5&#45;&gt;Node6</title>
<path fill="none" stroke="midnightblue" d="M536.108,-180.455C509.725,-171.463 472.279,-156.858 464,-144 456.3,-132.042 456.828,-124.282 464,-112 492.963,-62.4028 556.27,-35.2459 599.282,-21.9178"/>
<polygon fill="midnightblue" stroke="midnightblue" points="600.348,-25.2524 608.938,-19.0509 598.356,-18.5419 600.348,-25.2524"/>
</g>
<!-- Node7&#45;&gt;Node6 -->
<g id="edge11" class="edge"><title>Node7&#45;&gt;Node6</title>
<path fill="none" stroke="midnightblue" d="M743.092,-186.29C770.306,-182.085 808.327,-171.359 827,-144 835.018,-132.253 834.244,-124.239 827,-112 796.89,-61.1247 731.049,-34.1692 686.856,-21.2482"/>
<polygon fill="midnightblue" stroke="midnightblue" points="687.798,-17.8775 677.225,-18.553 685.912,-24.6185 687.798,-17.8775"/>
</g>
<!-- Node8 -->
<g id="node8" class="node"><title>Node8</title>
<polygon fill="none" stroke="#bfbfbf" points="630.5,-118.5 630.5,-137.5 679.5,-137.5 679.5,-118.5 630.5,-118.5"/>
<text text-anchor="middle" x="655" y="-125.5" font-family="Helvetica,sans-Serif" font-size="10.00">cstddef</text>
</g>
<!-- Node7&#45;&gt;Node8 -->
<g id="edge7" class="edge"><title>Node7&#45;&gt;Node8</title>
<path fill="none" stroke="midnightblue" d="M703.833,-180.403C695.114,-171.225 681.096,-156.47 670.311,-145.117"/>
<polygon fill="midnightblue" stroke="midnightblue" points="672.577,-142.42 663.152,-137.581 667.502,-147.241 672.577,-142.42"/>
</g>
<!-- Node9 -->
<g id="node9" class="node"><title>Node9</title>
<polygon fill="none" stroke="#bfbfbf" points="563.5,-118.5 563.5,-137.5 612.5,-137.5 612.5,-118.5 563.5,-118.5"/>
<text text-anchor="middle" x="588" y="-125.5" font-family="Helvetica,sans-Serif" font-size="10.00">istream</text>
</g>
<!-- Node7&#45;&gt;Node9 -->
<g id="edge8" class="edge"><title>Node7&#45;&gt;Node9</title>
<path fill="none" stroke="midnightblue" d="M694.234,-180.403C673.516,-170.379 639.048,-153.701 615.011,-142.07"/>
<polygon fill="midnightblue" stroke="midnightblue" points="616.259,-138.786 605.733,-137.581 613.21,-145.087 616.259,-138.786"/>
</g>
<!-- Node10 -->
<g id="node10" class="node"><title>Node10</title>
<polygon fill="none" stroke="#bfbfbf" points="698,-118.5 698,-137.5 750,-137.5 750,-118.5 698,-118.5"/>
<text text-anchor="middle" x="724" y="-125.5" font-family="Helvetica,sans-Serif" font-size="10.00">ostream</text>
</g>
<!-- Node7&#45;&gt;Node10 -->
<g id="edge9" class="edge"><title>Node7&#45;&gt;Node10</title>
<path fill="none" stroke="midnightblue" d="M713.719,-180.403C715.43,-171.849 718.11,-158.45 720.305,-147.476"/>
<polygon fill="midnightblue" stroke="midnightblue" points="723.755,-148.073 722.284,-137.581 716.891,-146.7 723.755,-148.073"/>
</g>
<!-- Node11 -->
<g id="node11" class="node"><title>Node11</title>
<polygon fill="none" stroke="#bfbfbf" points="768,-118.5 768,-137.5 818,-137.5 818,-118.5 768,-118.5"/>
<text text-anchor="middle" x="793" y="-125.5" font-family="Helvetica,sans-Serif" font-size="10.00">iomanip</text>
</g>
<!-- Node7&#45;&gt;Node11 -->
<g id="edge10" class="edge"><title>Node7&#45;&gt;Node11</title>
<path fill="none" stroke="midnightblue" d="M723.605,-180.403C736.477,-170.869 757.474,-155.315 773.006,-143.811"/>
<polygon fill="midnightblue" stroke="midnightblue" points="775.464,-146.345 781.416,-137.581 771.297,-140.72 775.464,-146.345"/>
</g>
<!-- Node12 -->
<g id="node12" class="node"><title>Node12</title>
<g id="a_node12"><a xlink:href="validators_8hh.html" target="_top" xlink:title="validators.hh">
<polygon fill="none" stroke="black" points="473,-118.5 473,-137.5 545,-137.5 545,-118.5 473,-118.5"/>
<text text-anchor="middle" x="509" y="-125.5" font-family="Helvetica,sans-Serif" font-size="10.00">validators.hh</text>
</a>
</g>
</g>
<!-- Node7&#45;&gt;Node12 -->
<g id="edge12" class="edge"><title>Node7&#45;&gt;Node12</title>
<path fill="none" stroke="midnightblue" d="M681,-180.608C649.055,-171.857 597.874,-157.553 554,-144 550.673,-142.972 547.218,-141.875 543.767,-140.759"/>
<polygon fill="midnightblue" stroke="midnightblue" points="544.758,-137.4 534.165,-137.607 542.574,-144.051 544.758,-137.4"/>
</g>
<!-- Node12&#45;&gt;Node13 -->
<g id="edge13" class="edge"><title>Node12&#45;&gt;Node13</title>
<path fill="none" stroke="midnightblue" d="M530.635,-118.403C556.424,-108.156 599.711,-90.9561 629.04,-79.3021"/>
<polygon fill="midnightblue" stroke="midnightblue" points="630.405,-82.526 638.406,-75.5806 627.82,-76.0207 630.405,-82.526"/>
</g>
<!-- Node12&#45;&gt;Node14 -->
<g id="edge14" class="edge"><title>Node12&#45;&gt;Node14</title>
<path fill="none" stroke="midnightblue" d="M531.642,-118.471C538.719,-116.072 546.609,-113.666 554,-112 674.741,-84.7826 821.728,-73.0637 887.407,-68.9167"/>
<polygon fill="midnightblue" stroke="midnightblue" points="887.834,-72.3972 897.601,-68.2931 887.406,-65.4103 887.834,-72.3972"/>
</g>
<!-- Node14&#45;&gt;Node6 -->
<g id="edge17" class="edge"><title>Node14&#45;&gt;Node6</title>
<path fill="none" stroke="midnightblue" d="M897.916,-59.1122C893.306,-58.0371 888.51,-56.9546 884,-56 815.528,-41.5076 735.587,-27.0667 687.16,-18.5905"/>
<polygon fill="midnightblue" stroke="midnightblue" points="687.479,-15.0933 677.026,-16.8233 686.277,-21.9893 687.479,-15.0933"/>
</g>
<!-- Node14&#45;&gt;Node15 -->
<g id="edge15" class="edge"><title>Node14&#45;&gt;Node15</title>
<path fill="none" stroke="midnightblue" d="M934.693,-56.324C946.901,-47.979 965.578,-35.2122 980.003,-25.3524"/>
<polygon fill="midnightblue" stroke="midnightblue" points="982.058,-28.1871 988.339,-19.6545 978.108,-22.4082 982.058,-28.1871"/>
</g>
<!-- Node16 -->
<g id="node16" class="node"><title>Node16</title>
<polygon fill="none" stroke="#bfbfbf" points="894,-0.5 894,-19.5 950,-19.5 950,-0.5 894,-0.5"/>
<text text-anchor="middle" x="922" y="-7.5" font-family="Helvetica,sans-Serif" font-size="10.00">algorithm</text>
</g>
<!-- Node14&#45;&gt;Node16 -->
<g id="edge16" class="edge"><title>Node14&#45;&gt;Node16</title>
<path fill="none" stroke="midnightblue" d="M922,-56.083C922,-49.0059 922,-38.8611 922,-29.9865"/>
<polygon fill="midnightblue" stroke="midnightblue" points="925.5,-29.751 922,-19.7511 918.5,-29.7511 925.5,-29.751"/>
</g>
<!-- Node17&#45;&gt;Node5 -->
<g id="edge19" class="edge"><title>Node17&#45;&gt;Node5</title>
<path fill="none" stroke="midnightblue" d="M467.905,-236.444C486.254,-227.675 515.005,-213.935 536.094,-203.858"/>
<polygon fill="midnightblue" stroke="midnightblue" points="537.665,-206.986 545.179,-199.516 534.647,-200.67 537.665,-206.986"/>
</g>
<!-- Node18 -->
<g id="node18" class="node"><title>Node18</title>
<g id="a_node18"><a xlink:href="grid_8hh.html" target="_top" xlink:title="grid.hh">
<polygon fill="none" stroke="black" points="472,-180.5 472,-199.5 518,-199.5 518,-180.5 472,-180.5"/>
<text text-anchor="middle" x="495" y="-187.5" font-family="Helvetica,sans-Serif" font-size="10.00">grid.hh</text>
</a>
</g>
</g>
<!-- Node17&#45;&gt;Node18 -->
<g id="edge20" class="edge"><title>Node17&#45;&gt;Node18</title>
<path fill="none" stroke="midnightblue" d="M457.431,-236.083C463.853,-228.377 473.306,-217.033 481.122,-207.653"/>
<polygon fill="midnightblue" stroke="midnightblue" points="483.994,-209.674 487.707,-199.751 478.617,-205.193 483.994,-209.674"/>
</g>
<!-- Node18&#45;&gt;Node6 -->
<g id="edge23" class="edge"><title>Node18&#45;&gt;Node6</title>
<path fill="none" stroke="midnightblue" d="M483.734,-180.427C474.034,-172.275 460.721,-159.046 455,-144 439.797,-104.013 459.379,-81.1305 494,-56 524.98,-33.512 567.302,-22.1324 598.925,-16.4535"/>
<polygon fill="midnightblue" stroke="midnightblue" points="599.504,-19.9055 608.789,-14.8031 598.348,-13.0014 599.504,-19.9055"/>
</g>
<!-- Node18&#45;&gt;Node9 -->
<g id="edge22" class="edge"><title>Node18&#45;&gt;Node9</title>
<path fill="none" stroke="midnightblue" d="M508.325,-180.403C523.38,-170.691 548.116,-154.732 566.037,-143.17"/>
<polygon fill="midnightblue" stroke="midnightblue" points="568.195,-145.943 574.7,-137.581 564.4,-140.061 568.195,-145.943"/>
</g>
<!-- Node18&#45;&gt;Node12 -->
<g id="edge24" class="edge"><title>Node18&#45;&gt;Node12</title>
<path fill="none" stroke="midnightblue" d="M497.006,-180.403C499.002,-171.849 502.128,-158.45 504.689,-147.476"/>
<polygon fill="midnightblue" stroke="midnightblue" points="508.134,-148.114 506.998,-137.581 501.317,-146.524 508.134,-148.114"/>
</g>
<!-- Node19 -->
<g id="node19" class="node"><title>Node19</title>
<polygon fill="none" stroke="#bfbfbf" points="327,-118.5 327,-137.5 379,-137.5 379,-118.5 327,-118.5"/>
<text text-anchor="middle" x="353" y="-125.5" font-family="Helvetica,sans-Serif" font-size="10.00">stddef.h</text>
</g>
<!-- Node18&#45;&gt;Node19 -->
<g id="edge21" class="edge"><title>Node18&#45;&gt;Node19</title>
<path fill="none" stroke="midnightblue" d="M474.655,-180.403C450.613,-170.245 410.403,-153.255 382.837,-141.607"/>
<polygon fill="midnightblue" stroke="midnightblue" points="383.881,-138.249 373.307,-137.581 381.157,-144.697 383.881,-138.249"/>
</g>
<!-- Node21 -->
<g id="node21" class="node"><title>Node21</title>
<g id="a_node21"><a xlink:href="apmath_2fourier__gsl_8hh.html" target="_top" xlink:title="apmath/fourier_gsl.hh">
<polygon fill="none" stroke="black" points="270,-236.5 270,-255.5 380,-255.5 380,-236.5 270,-236.5"/>
<text text-anchor="middle" x="325" y="-243.5" font-family="Helvetica,sans-Serif" font-size="10.00">apmath/fourier_gsl.hh</text>
</a>
</g>
</g>
<!-- Node20&#45;&gt;Node21 -->
<g id="edge26" class="edge"><title>Node20&#45;&gt;Node21</title>
<path fill="none" stroke="midnightblue" d="M349.211,-292.083C345.242,-284.691 339.475,-273.953 334.565,-264.811"/>
<polygon fill="midnightblue" stroke="midnightblue" points="337.514,-262.905 329.7,-255.751 331.347,-266.217 337.514,-262.905"/>
</g>
<!-- Node21&#45;&gt;Node3 -->
<g id="edge27" class="edge"><title>Node21&#45;&gt;Node3</title>
<path fill="none" stroke="midnightblue" d="M288.933,-236.48C253.065,-227.983 196.206,-214.444 137.54,-200.114"/>
<polygon fill="midnightblue" stroke="midnightblue" points="138.274,-196.69 127.729,-197.714 136.611,-203.49 138.274,-196.69"/>
</g>
<!-- Node21&#45;&gt;Node5 -->
<g id="edge34" class="edge"><title>Node21&#45;&gt;Node5</title>
<path fill="none" stroke="midnightblue" d="M364.93,-236.423C403.657,-228.033 464.326,-214.704 525.989,-200.195"/>
<polygon fill="midnightblue" stroke="midnightblue" points="526.963,-203.561 535.891,-197.857 525.355,-196.749 526.963,-203.561"/>
</g>
<!-- Node22 -->
<g id="node22" class="node"><title>Node22</title>
<polygon fill="none" stroke="#bfbfbf" points="410,-180.5 410,-199.5 454,-199.5 454,-180.5 410,-180.5"/>
<text text-anchor="middle" x="432" y="-187.5" font-family="Helvetica,sans-Serif" font-size="10.00">vector</text>
</g>
<!-- Node21&#45;&gt;Node22 -->
<g id="edge28" class="edge"><title>Node21&#45;&gt;Node22</title>
<path fill="none" stroke="midnightblue" d="M342.191,-236.324C359.351,-227.664 385.946,-214.242 405.747,-204.249"/>
<polygon fill="midnightblue" stroke="midnightblue" points="407.501,-207.285 414.851,-199.655 404.347,-201.035 407.501,-207.285"/>
</g>
<!-- Node23 -->
<g id="node23" class="node"><title>Node23</title>
<g id="a_node23"><a xlink:href="fourier__direction_8hh.html" target="_top" xlink:title="apmath/fourier_direction.hh">
<polygon fill="none" stroke="black" points="258,-180.5 258,-199.5 392,-199.5 392,-180.5 258,-180.5"/>
<text text-anchor="middle" x="325" y="-187.5" font-family="Helvetica,sans-Serif" font-size="10.00">apmath/fourier_direction.hh</text>
</a>
</g>
</g>
<!-- Node21&#45;&gt;Node23 -->
<g id="edge29" class="edge"><title>Node21&#45;&gt;Node23</title>
<path fill="none" stroke="midnightblue" d="M325,-236.083C325,-229.006 325,-218.861 325,-209.986"/>
<polygon fill="midnightblue" stroke="midnightblue" points="328.5,-209.751 325,-199.751 321.5,-209.751 328.5,-209.751"/>
</g>
<!-- Node24 -->
<g id="node24" class="node"><title>Node24</title>
<g id="a_node24"><a xlink:href="bits_2fourier__gsl_8hh.html" target="_top" xlink:title="bits/fourier_gsl.hh">
<polygon fill="none" stroke="black" points="146,-180.5 146,-199.5 240,-199.5 240,-180.5 146,-180.5"/>
<text text-anchor="middle" x="193" y="-187.5" font-family="Helvetica,sans-Serif" font-size="10.00">bits/fourier_gsl.hh</text>
</a>
</g>
</g>
<!-- Node21&#45;&gt;Node24 -->
<g id="edge30" class="edge"><title>Node21&#45;&gt;Node24</title>
<path fill="none" stroke="midnightblue" d="M304.084,-236.444C282.264,-227.517 247.85,-213.439 223.108,-203.317"/>
<polygon fill="midnightblue" stroke="midnightblue" points="224.399,-200.063 213.818,-199.516 221.748,-206.542 224.399,-200.063"/>
</g>
<!-- Node25 -->
<g id="node25" class="node"><title>Node25</title>
<polygon fill="none" stroke="#bfbfbf" points="199,-118.5 199,-137.5 309,-137.5 309,-118.5 199,-118.5"/>
<text text-anchor="middle" x="254" y="-125.5" font-family="Helvetica,sans-Serif" font-size="10.00">gsl/gsl_fft_complex.h</text>
</g>
<!-- Node24&#45;&gt;Node25 -->
<g id="edge31" class="edge"><title>Node24&#45;&gt;Node25</title>
<path fill="none" stroke="midnightblue" d="M201.74,-180.403C211.162,-171.136 226.364,-156.183 237.949,-144.788"/>
<polygon fill="midnightblue" stroke="midnightblue" points="240.601,-147.088 245.276,-137.581 235.693,-142.098 240.601,-147.088"/>
</g>
<!-- Node26 -->
<g id="node26" class="node"><title>Node26</title>
<polygon fill="none" stroke="#bfbfbf" points="-0.5,-113 -0.5,-143 100.5,-143 100.5,-113 -0.5,-113"/>
<text text-anchor="start" x="7.5" y="-131" font-family="Helvetica,sans-Serif" font-size="10.00">gsl/gsl_fft_complex</text>
<text text-anchor="middle" x="50" y="-120" font-family="Helvetica,sans-Serif" font-size="10.00">_float.h</text>
</g>
<!-- Node24&#45;&gt;Node26 -->
<g id="edge32" class="edge"><title>Node24&#45;&gt;Node26</title>
<path fill="none" stroke="midnightblue" d="M172.512,-180.403C151.808,-171.717 119.199,-158.035 92.8272,-146.969"/>
<polygon fill="midnightblue" stroke="midnightblue" points="94.0024,-143.667 83.427,-143.025 91.294,-150.122 94.0024,-143.667"/>
</g>
<!-- Node27 -->
<g id="node27" class="node"><title>Node27</title>
<polygon fill="none" stroke="#bfbfbf" points="119,-118.5 119,-137.5 181,-137.5 181,-118.5 119,-118.5"/>
<text text-anchor="middle" x="150" y="-125.5" font-family="Helvetica,sans-Serif" font-size="10.00">type_traits</text>
</g>
<!-- Node24&#45;&gt;Node27 -->
<g id="edge33" class="edge"><title>Node24&#45;&gt;Node27</title>
<path fill="none" stroke="midnightblue" d="M186.839,-180.403C180.389,-171.403 170.096,-157.041 162.027,-145.782"/>
<polygon fill="midnightblue" stroke="midnightblue" points="164.82,-143.67 156.149,-137.581 159.13,-147.748 164.82,-143.67"/>
</g>
<!-- Node28&#45;&gt;Node15 -->
<g id="edge36" class="edge"><title>Node28&#45;&gt;Node15</title>
<path fill="none" stroke="midnightblue" d="M974.979,-292.328C986.794,-274.318 1012,-231.189 1012,-191 1012,-191 1012,-191 1012,-127 1012,-92.5621 1007.14,-52.6291 1003.88,-29.7384"/>
<polygon fill="midnightblue" stroke="midnightblue" points="1007.32,-29.0849 1002.39,-19.7043 1000.39,-30.1086 1007.32,-29.0849"/>
</g>
<!-- Node29&#45;&gt;Node5 -->
<g id="edge38" class="edge"><title>Node29&#45;&gt;Node5</title>
<path fill="none" stroke="midnightblue" d="M611.14,-292.446C604.351,-283.684 593.989,-269.474 587,-256 579.211,-240.983 572.738,-222.851 568.484,-209.557"/>
<polygon fill="midnightblue" stroke="midnightblue" points="571.739,-208.232 565.454,-199.703 565.048,-210.29 571.739,-208.232"/>
</g>
<!-- Node30&#45;&gt;Node5 -->
<g id="edge40" class="edge"><title>Node30&#45;&gt;Node5</title>
<path fill="none" stroke="midnightblue" d="M622.593,-236.324C611.891,-228.185 595.659,-215.839 582.837,-206.087"/>
<polygon fill="midnightblue" stroke="midnightblue" points="584.693,-203.102 574.615,-199.834 580.456,-208.673 584.693,-203.102"/>
</g>
<!-- Node32&#45;&gt;Node5 -->
<g id="edge47" class="edge"><title>Node32&#45;&gt;Node5</title>
<path fill="none" stroke="midnightblue" d="M739.725,-236.444C701.637,-226.649 639.429,-210.653 599.889,-200.486"/>
<polygon fill="midnightblue" stroke="midnightblue" points="600.666,-197.072 590.109,-197.971 598.923,-203.851 600.666,-197.072"/>
</g>
<!-- Node32&#45;&gt;Node7 -->
<g id="edge46" class="edge"><title>Node32&#45;&gt;Node7</title>
<path fill="none" stroke="midnightblue" d="M763.199,-236.324C754.182,-228.341 740.594,-216.313 729.682,-206.653"/>
<polygon fill="midnightblue" stroke="midnightblue" points="731.787,-203.842 721.979,-199.834 727.147,-209.083 731.787,-203.842"/>
</g>
<!-- Node32&#45;&gt;Node15 -->
<g id="edge44" class="edge"><title>Node32&#45;&gt;Node15</title>
<path fill="none" stroke="midnightblue" d="M783.989,-236.176C813.496,-212.203 896.203,-143.154 955,-76 968.191,-60.9344 981.181,-42.1088 989.974,-28.6008"/>
<polygon fill="midnightblue" stroke="midnightblue" points="993.141,-30.1452 995.579,-19.8346 987.243,-26.3746 993.141,-30.1452"/>
</g>
<!-- Node32&#45;&gt;Node22 -->
<g id="edge45" class="edge"><title>Node32&#45;&gt;Node22</title>
<path fill="none" stroke="midnightblue" d="M728.248,-240.472C669.625,-234.109 563.53,-221.111 464.159,-199.998"/>
<polygon fill="midnightblue" stroke="midnightblue" points="464.77,-196.549 454.257,-197.861 463.294,-203.391 464.77,-196.549"/>
</g>
</g>
</svg>
