<?xml version="1.0" encoding="UTF-8" standalone="no"?>
<!DOCTYPE svg PUBLIC "-//W3C//DTD SVG 1.1//EN"
 "http://www.w3.org/Graphics/SVG/1.1/DTD/svg11.dtd">
<!-- Generated by graphviz version 2.36.0 (20140111.2315)
 -->
<!-- Title: /home/travis/build/igankevich/arma/src/velocity/linear_solver.hh Pages: 1 -->
<svg width="929pt" height="398pt"
 viewBox="0.00 0.00 929.00 398.00" xmlns="http://www.w3.org/2000/svg" xmlns:xlink="http://www.w3.org/1999/xlink">
<g id="graph0" class="graph" transform="scale(1 1) rotate(0) translate(4 394)">
<title>/home/travis/build/igankevich/arma/src/velocity/linear_solver.hh</title>
<!-- Node1 -->
<g id="node1" class="node"><title>Node1</title>
<polygon fill="#bfbfbf" stroke="black" points="341.5,-348.5 341.5,-389.5 466.5,-389.5 466.5,-348.5 341.5,-348.5"/>
<text text-anchor="start" x="349.5" y="-377.5" font-family="Helvetica,sans-Serif" font-size="10.00">/home/travis/build</text>
<text text-anchor="start" x="349.5" y="-366.5" font-family="Helvetica,sans-Serif" font-size="10.00">/igankevich/arma/src</text>
<text text-anchor="middle" x="404" y="-355.5" font-family="Helvetica,sans-Serif" font-size="10.00">/velocity/linear_solver.hh</text>
</g>
<!-- Node2 -->
<g id="node2" class="node"><title>Node2</title>
<polygon fill="none" stroke="#bfbfbf" points="303.5,-180.5 303.5,-199.5 356.5,-199.5 356.5,-180.5 303.5,-180.5"/>
<text text-anchor="middle" x="330" y="-187.5" font-family="Helvetica,sans-Serif" font-size="10.00">complex</text>
</g>
<!-- Node1&#45;&gt;Node2 -->
<g id="edge1" class="edge"><title>Node1&#45;&gt;Node2</title>
<path fill="none" stroke="midnightblue" d="M380.535,-348.422C370.212,-338.55 358.889,-325.762 352,-312 335.333,-278.706 331.165,-234.625 330.2,-209.902"/>
<polygon fill="midnightblue" stroke="midnightblue" points="333.695,-209.642 329.947,-199.732 326.697,-209.816 333.695,-209.642"/>
</g>
<!-- Node3 -->
<g id="node3" class="node"><title>Node3</title>
<g id="a_node3"><a xlink:href="basic__solver_8hh.html" target="_top" xlink:title="basic_solver.hh">
<polygon fill="none" stroke="black" points="361.5,-292.5 361.5,-311.5 446.5,-311.5 446.5,-292.5 361.5,-292.5"/>
<text text-anchor="middle" x="404" y="-299.5" font-family="Helvetica,sans-Serif" font-size="10.00">basic_solver.hh</text>
</a>
</g>
</g>
<!-- Node1&#45;&gt;Node3 -->
<g id="edge2" class="edge"><title>Node1&#45;&gt;Node3</title>
<path fill="none" stroke="midnightblue" d="M404,-348.498C404,-340.065 404,-330.235 404,-321.874"/>
<polygon fill="midnightblue" stroke="midnightblue" points="407.5,-321.652 404,-311.652 400.5,-321.653 407.5,-321.652"/>
</g>
<!-- Node19 -->
<g id="node19" class="node"><title>Node19</title>
<g id="a_node19"><a xlink:href="fourier_8hh.html" target="_top" xlink:title="fourier.hh">
<polygon fill="none" stroke="black" points="501.5,-292.5 501.5,-311.5 558.5,-311.5 558.5,-292.5 501.5,-292.5"/>
<text text-anchor="middle" x="530" y="-299.5" font-family="Helvetica,sans-Serif" font-size="10.00">fourier.hh</text>
</a>
</g>
</g>
<!-- Node1&#45;&gt;Node19 -->
<g id="edge24" class="edge"><title>Node1&#45;&gt;Node19</title>
<path fill="none" stroke="midnightblue" d="M441.804,-348.498C461.865,-338.149 486.007,-325.695 503.958,-316.435"/>
<polygon fill="midnightblue" stroke="midnightblue" points="505.945,-319.348 513.227,-311.652 502.736,-313.127 505.945,-319.348"/>
</g>
<!-- Node4 -->
<g id="node4" class="node"><title>Node4</title>
<g id="a_node4"><a xlink:href="types_8hh.html" target="_top" xlink:title="types.hh">
<polygon fill="none" stroke="black" points="457,-180.5 457,-199.5 511,-199.5 511,-180.5 457,-180.5"/>
<text text-anchor="middle" x="484" y="-187.5" font-family="Helvetica,sans-Serif" font-size="10.00">types.hh</text>
</a>
</g>
</g>
<!-- Node3&#45;&gt;Node4 -->
<g id="edge3" class="edge"><title>Node3&#45;&gt;Node4</title>
<path fill="none" stroke="midnightblue" d="M421.176,-292.412C434.948,-284.681 453.77,-272.074 465,-256 474.574,-242.296 479.374,-223.763 481.75,-209.993"/>
<polygon fill="midnightblue" stroke="midnightblue" points="485.263,-210.154 483.227,-199.757 478.334,-209.154 485.263,-210.154"/>
</g>
<!-- Node6 -->
<g id="node6" class="node"><title>Node6</title>
<g id="a_node6"><a xlink:href="domain_8hh.html" target="_top" xlink:title="domain.hh">
<polygon fill="none" stroke="black" points="210,-180.5 210,-199.5 272,-199.5 272,-180.5 210,-180.5"/>
<text text-anchor="middle" x="241" y="-187.5" font-family="Helvetica,sans-Serif" font-size="10.00">domain.hh</text>
</a>
</g>
</g>
<!-- Node3&#45;&gt;Node6 -->
<g id="edge5" class="edge"><title>Node3&#45;&gt;Node6</title>
<path fill="none" stroke="midnightblue" d="M391.21,-292.368C363.239,-273.492 296.398,-228.385 262.096,-205.237"/>
<polygon fill="midnightblue" stroke="midnightblue" points="263.978,-202.284 253.731,-199.591 260.062,-208.087 263.978,-202.284"/>
</g>
<!-- Node16 -->
<g id="node16" class="node"><title>Node16</title>
<g id="a_node16"><a xlink:href="discrete__function_8hh.html" target="_top" xlink:title="discrete_function.hh">
<polygon fill="none" stroke="black" points="352,-236.5 352,-255.5 456,-255.5 456,-236.5 352,-236.5"/>
<text text-anchor="middle" x="404" y="-243.5" font-family="Helvetica,sans-Serif" font-size="10.00">discrete_function.hh</text>
</a>
</g>
</g>
<!-- Node3&#45;&gt;Node16 -->
<g id="edge17" class="edge"><title>Node3&#45;&gt;Node16</title>
<path fill="none" stroke="midnightblue" d="M404,-292.083C404,-285.006 404,-274.861 404,-265.986"/>
<polygon fill="midnightblue" stroke="midnightblue" points="407.5,-265.751 404,-255.751 400.5,-265.751 407.5,-265.751"/>
</g>
<!-- Node5 -->
<g id="node5" class="node"><title>Node5</title>
<polygon fill="none" stroke="#bfbfbf" points="328,-0.5 328,-19.5 396,-19.5 396,-0.5 328,-0.5"/>
<text text-anchor="middle" x="362" y="-7.5" font-family="Helvetica,sans-Serif" font-size="10.00">blitz/array.h</text>
</g>
<!-- Node4&#45;&gt;Node5 -->
<g id="edge4" class="edge"><title>Node4&#45;&gt;Node5</title>
<path fill="none" stroke="midnightblue" d="M489.245,-180.433C497.541,-165.688 511.613,-134.891 500,-112 477.871,-68.3822 427.076,-39.0768 393.673,-23.7258"/>
<polygon fill="midnightblue" stroke="midnightblue" points="394.894,-20.4387 384.333,-19.5874 392.058,-26.8386 394.894,-20.4387"/>
</g>
<!-- Node6&#45;&gt;Node5 -->
<g id="edge10" class="edge"><title>Node6&#45;&gt;Node5</title>
<path fill="none" stroke="midnightblue" d="M251.076,-180.364C260.746,-171.763 275.404,-157.873 286,-144 315.214,-105.751 341.105,-55.1131 353.771,-28.7179"/>
<polygon fill="midnightblue" stroke="midnightblue" points="356.984,-30.1105 358.093,-19.5738 350.656,-27.1193 356.984,-30.1105"/>
</g>
<!-- Node7 -->
<g id="node7" class="node"><title>Node7</title>
<polygon fill="none" stroke="#bfbfbf" points="-0.5,-118.5 -0.5,-137.5 48.5,-137.5 48.5,-118.5 -0.5,-118.5"/>
<text text-anchor="middle" x="24" y="-125.5" font-family="Helvetica,sans-Serif" font-size="10.00">cstddef</text>
</g>
<!-- Node6&#45;&gt;Node7 -->
<g id="edge6" class="edge"><title>Node6&#45;&gt;Node7</title>
<path fill="none" stroke="midnightblue" d="M209.767,-183.052C172.954,-175.647 110.184,-161.776 58,-144 55.7327,-143.228 53.408,-142.364 51.0902,-141.451"/>
<polygon fill="midnightblue" stroke="midnightblue" points="52.3411,-138.181 41.7658,-137.536 49.6308,-144.635 52.3411,-138.181"/>
</g>
<!-- Node8 -->
<g id="node8" class="node"><title>Node8</title>
<polygon fill="none" stroke="#bfbfbf" points="333.5,-118.5 333.5,-137.5 382.5,-137.5 382.5,-118.5 333.5,-118.5"/>
<text text-anchor="middle" x="358" y="-125.5" font-family="Helvetica,sans-Serif" font-size="10.00">istream</text>
</g>
<!-- Node6&#45;&gt;Node8 -->
<g id="edge7" class="edge"><title>Node6&#45;&gt;Node8</title>
<path fill="none" stroke="midnightblue" d="M257.763,-180.403C277.225,-170.423 309.545,-153.849 332.211,-142.225"/>
<polygon fill="midnightblue" stroke="midnightblue" points="333.967,-145.258 341.268,-137.581 330.773,-139.029 333.967,-145.258"/>
</g>
<!-- Node9 -->
<g id="node9" class="node"><title>Node9</title>
<polygon fill="none" stroke="#bfbfbf" points="67,-118.5 67,-137.5 119,-137.5 119,-118.5 67,-118.5"/>
<text text-anchor="middle" x="93" y="-125.5" font-family="Helvetica,sans-Serif" font-size="10.00">ostream</text>
</g>
<!-- Node6&#45;&gt;Node9 -->
<g id="edge8" class="edge"><title>Node6&#45;&gt;Node9</title>
<path fill="none" stroke="midnightblue" d="M218.846,-180.373C196.013,-171.437 159.419,-156.986 128,-144 126.167,-143.242 124.283,-142.456 122.385,-141.659"/>
<polygon fill="midnightblue" stroke="midnightblue" points="123.524,-138.34 112.952,-137.656 120.79,-144.784 123.524,-138.34"/>
</g>
<!-- Node10 -->
<g id="node10" class="node"><title>Node10</title>
<polygon fill="none" stroke="#bfbfbf" points="137,-118.5 137,-137.5 187,-137.5 187,-118.5 137,-118.5"/>
<text text-anchor="middle" x="162" y="-125.5" font-family="Helvetica,sans-Serif" font-size="10.00">iomanip</text>
</g>
<!-- Node6&#45;&gt;Node10 -->
<g id="edge9" class="edge"><title>Node6&#45;&gt;Node10</title>
<path fill="none" stroke="midnightblue" d="M229.681,-180.403C217.127,-170.869 196.649,-155.315 181.501,-143.811"/>
<polygon fill="midnightblue" stroke="midnightblue" points="183.378,-140.842 173.298,-137.581 179.144,-146.416 183.378,-140.842"/>
</g>
<!-- Node11 -->
<g id="node11" class="node"><title>Node11</title>
<g id="a_node11"><a xlink:href="validators_8hh.html" target="_top" xlink:title="validators.hh">
<polygon fill="none" stroke="black" points="205,-118.5 205,-137.5 277,-137.5 277,-118.5 205,-118.5"/>
<text text-anchor="middle" x="241" y="-125.5" font-family="Helvetica,sans-Serif" font-size="10.00">validators.hh</text>
</a>
</g>
</g>
<!-- Node6&#45;&gt;Node11 -->
<g id="edge11" class="edge"><title>Node6&#45;&gt;Node11</title>
<path fill="none" stroke="midnightblue" d="M241,-180.403C241,-171.938 241,-158.728 241,-147.82"/>
<polygon fill="midnightblue" stroke="midnightblue" points="244.5,-147.581 241,-137.581 237.5,-147.581 244.5,-147.581"/>
</g>
<!-- Node12 -->
<g id="node12" class="node"><title>Node12</title>
<polygon fill="none" stroke="#bfbfbf" points="217.5,-56.5 217.5,-75.5 276.5,-75.5 276.5,-56.5 217.5,-56.5"/>
<text text-anchor="middle" x="247" y="-63.5" font-family="Helvetica,sans-Serif" font-size="10.00">stdexcept</text>
</g>
<!-- Node11&#45;&gt;Node12 -->
<g id="edge12" class="edge"><title>Node11&#45;&gt;Node12</title>
<path fill="none" stroke="midnightblue" d="M241.86,-118.403C242.706,-109.938 244.027,-96.7283 245.118,-85.8199"/>
<polygon fill="midnightblue" stroke="midnightblue" points="248.629,-85.8793 246.142,-75.5806 241.664,-85.1827 248.629,-85.8793"/>
</g>
<!-- Node13 -->
<g id="node13" class="node"><title>Node13</title>
<g id="a_node13"><a xlink:href="blitz_8hh.html" target="_top" xlink:title="blitz.hh">
<polygon fill="none" stroke="black" points="151,-56.5 151,-75.5 199,-75.5 199,-56.5 151,-56.5"/>
<text text-anchor="middle" x="175" y="-63.5" font-family="Helvetica,sans-Serif" font-size="10.00">blitz.hh</text>
</a>
</g>
</g>
<!-- Node11&#45;&gt;Node13 -->
<g id="edge13" class="edge"><title>Node11&#45;&gt;Node13</title>
<path fill="none" stroke="midnightblue" d="M231.544,-118.403C221.252,-109.047 204.584,-93.8948 192.006,-82.4599"/>
<polygon fill="midnightblue" stroke="midnightblue" points="194.192,-79.7176 184.439,-75.5806 189.484,-84.8971 194.192,-79.7176"/>
</g>
<!-- Node13&#45;&gt;Node5 -->
<g id="edge16" class="edge"><title>Node13&#45;&gt;Node5</title>
<path fill="none" stroke="midnightblue" d="M199.064,-58.051C230.262,-49.042 285.087,-33.21 322.447,-22.4217"/>
<polygon fill="midnightblue" stroke="midnightblue" points="323.851,-25.6595 332.487,-19.5225 321.908,-18.9343 323.851,-25.6595"/>
</g>
<!-- Node14 -->
<g id="node14" class="node"><title>Node14</title>
<polygon fill="none" stroke="#bfbfbf" points="144,-0.5 144,-19.5 188,-19.5 188,-0.5 144,-0.5"/>
<text text-anchor="middle" x="166" y="-7.5" font-family="Helvetica,sans-Serif" font-size="10.00">cmath</text>
</g>
<!-- Node13&#45;&gt;Node14 -->
<g id="edge14" class="edge"><title>Node13&#45;&gt;Node14</title>
<path fill="none" stroke="midnightblue" d="M173.514,-56.083C172.321,-48.9272 170.606,-38.6353 169.115,-29.6911"/>
<polygon fill="midnightblue" stroke="midnightblue" points="172.555,-29.0396 167.459,-19.7511 165.65,-30.1904 172.555,-29.0396"/>
</g>
<!-- Node15 -->
<g id="node15" class="node"><title>Node15</title>
<polygon fill="none" stroke="#bfbfbf" points="206,-0.5 206,-19.5 262,-19.5 262,-0.5 206,-0.5"/>
<text text-anchor="middle" x="234" y="-7.5" font-family="Helvetica,sans-Serif" font-size="10.00">algorithm</text>
</g>
<!-- Node13&#45;&gt;Node15 -->
<g id="edge15" class="edge"><title>Node13&#45;&gt;Node15</title>
<path fill="none" stroke="midnightblue" d="M184.479,-56.324C193.201,-48.3414 206.343,-36.3128 216.898,-26.6529"/>
<polygon fill="midnightblue" stroke="midnightblue" points="219.334,-29.1674 224.348,-19.8339 214.608,-24.0036 219.334,-29.1674"/>
</g>
<!-- Node16&#45;&gt;Node4 -->
<g id="edge18" class="edge"><title>Node16&#45;&gt;Node4</title>
<path fill="none" stroke="midnightblue" d="M416.853,-236.324C429.216,-227.979 448.13,-215.212 462.737,-205.352"/>
<polygon fill="midnightblue" stroke="midnightblue" points="464.848,-208.15 471.179,-199.655 460.932,-202.348 464.848,-208.15"/>
</g>
<!-- Node17 -->
<g id="node17" class="node"><title>Node17</title>
<g id="a_node17"><a xlink:href="grid_8hh.html" target="_top" xlink:title="grid.hh">
<polygon fill="none" stroke="black" points="381,-180.5 381,-199.5 427,-199.5 427,-180.5 381,-180.5"/>
<text text-anchor="middle" x="404" y="-187.5" font-family="Helvetica,sans-Serif" font-size="10.00">grid.hh</text>
</a>
</g>
</g>
<!-- Node16&#45;&gt;Node17 -->
<g id="edge19" class="edge"><title>Node16&#45;&gt;Node17</title>
<path fill="none" stroke="midnightblue" d="M404,-236.083C404,-229.006 404,-218.861 404,-209.986"/>
<polygon fill="midnightblue" stroke="midnightblue" points="407.5,-209.751 404,-199.751 400.5,-209.751 407.5,-209.751"/>
</g>
<!-- Node17&#45;&gt;Node5 -->
<g id="edge22" class="edge"><title>Node17&#45;&gt;Node5</title>
<path fill="none" stroke="midnightblue" d="M402.869,-180.393C400.918,-166.095 396.587,-136.59 391,-112 384.349,-82.7303 374.269,-49.3645 367.914,-29.2579"/>
<polygon fill="midnightblue" stroke="midnightblue" points="371.193,-28.0202 364.812,-19.562 364.526,-30.1529 371.193,-28.0202"/>
</g>
<!-- Node17&#45;&gt;Node8 -->
<g id="edge21" class="edge"><title>Node17&#45;&gt;Node8</title>
<path fill="none" stroke="midnightblue" d="M397.409,-180.403C390.509,-171.403 379.498,-157.041 370.866,-145.782"/>
<polygon fill="midnightblue" stroke="midnightblue" points="373.44,-143.387 364.578,-137.581 367.885,-147.646 373.44,-143.387"/>
</g>
<!-- Node17&#45;&gt;Node11 -->
<g id="edge23" class="edge"><title>Node17&#45;&gt;Node11</title>
<path fill="none" stroke="midnightblue" d="M380.992,-180.531C353.039,-170.241 305.684,-152.81 273.887,-141.106"/>
<polygon fill="midnightblue" stroke="midnightblue" points="274.748,-137.693 264.154,-137.523 272.33,-144.262 274.748,-137.693"/>
</g>
<!-- Node18 -->
<g id="node18" class="node"><title>Node18</title>
<polygon fill="none" stroke="#bfbfbf" points="439,-118.5 439,-137.5 491,-137.5 491,-118.5 439,-118.5"/>
<text text-anchor="middle" x="465" y="-125.5" font-family="Helvetica,sans-Serif" font-size="10.00">stddef.h</text>
</g>
<!-- Node17&#45;&gt;Node18 -->
<g id="edge20" class="edge"><title>Node17&#45;&gt;Node18</title>
<path fill="none" stroke="midnightblue" d="M412.74,-180.403C422.162,-171.136 437.364,-156.183 448.949,-144.788"/>
<polygon fill="midnightblue" stroke="midnightblue" points="451.601,-147.088 456.276,-137.581 446.693,-142.098 451.601,-147.088"/>
</g>
<!-- Node20 -->
<g id="node20" class="node"><title>Node20</title>
<g id="a_node20"><a xlink:href="apmath_2fourier__gsl_8hh.html" target="_top" xlink:title="apmath/fourier_gsl.hh">
<polygon fill="none" stroke="black" points="512,-236.5 512,-255.5 622,-255.5 622,-236.5 512,-236.5"/>
<text text-anchor="middle" x="567" y="-243.5" font-family="Helvetica,sans-Serif" font-size="10.00">apmath/fourier_gsl.hh</text>
</a>
</g>
</g>
<!-- Node19&#45;&gt;Node20 -->
<g id="edge25" class="edge"><title>Node19&#45;&gt;Node20</title>
<path fill="none" stroke="midnightblue" d="M536.11,-292.083C541.282,-284.534 548.846,-273.495 555.194,-264.23"/>
<polygon fill="midnightblue" stroke="midnightblue" points="558.239,-265.979 561.004,-255.751 552.464,-262.022 558.239,-265.979"/>
</g>
<!-- Node20&#45;&gt;Node2 -->
<g id="edge26" class="edge"><title>Node20&#45;&gt;Node2</title>
<path fill="none" stroke="midnightblue" d="M529.447,-236.444C484.764,-226.263 410.67,-209.38 366.469,-199.309"/>
<polygon fill="midnightblue" stroke="midnightblue" points="367.24,-195.896 356.713,-197.086 365.685,-202.721 367.24,-195.896"/>
</g>
<!-- Node20&#45;&gt;Node4 -->
<g id="edge33" class="edge"><title>Node20&#45;&gt;Node4</title>
<path fill="none" stroke="midnightblue" d="M553.665,-236.324C540.838,-227.979 521.215,-215.212 506.06,-205.352"/>
<polygon fill="midnightblue" stroke="midnightblue" points="507.593,-202.174 497.302,-199.655 503.776,-208.042 507.593,-202.174"/>
</g>
<!-- Node21 -->
<g id="node21" class="node"><title>Node21</title>
<polygon fill="none" stroke="#bfbfbf" points="529,-180.5 529,-199.5 573,-199.5 573,-180.5 529,-180.5"/>
<text text-anchor="middle" x="551" y="-187.5" font-family="Helvetica,sans-Serif" font-size="10.00">vector</text>
</g>
<!-- Node20&#45;&gt;Node21 -->
<g id="edge27" class="edge"><title>Node20&#45;&gt;Node21</title>
<path fill="none" stroke="midnightblue" d="M564.358,-236.083C562.214,-228.849 559.121,-218.409 556.451,-209.397"/>
<polygon fill="midnightblue" stroke="midnightblue" points="559.79,-208.345 553.593,-199.751 553.078,-210.333 559.79,-208.345"/>
</g>
<!-- Node22 -->
<g id="node22" class="node"><title>Node22</title>
<g id="a_node22"><a xlink:href="fourier__direction_8hh.html" target="_top" xlink:title="apmath/fourier_direction.hh">
<polygon fill="none" stroke="black" points="591,-180.5 591,-199.5 725,-199.5 725,-180.5 591,-180.5"/>
<text text-anchor="middle" x="658" y="-187.5" font-family="Helvetica,sans-Serif" font-size="10.00">apmath/fourier_direction.hh</text>
</a>
</g>
</g>
<!-- Node20&#45;&gt;Node22 -->
<g id="edge28" class="edge"><title>Node20&#45;&gt;Node22</title>
<path fill="none" stroke="midnightblue" d="M581.621,-236.324C595.949,-227.822 618.013,-214.729 634.749,-204.797"/>
<polygon fill="midnightblue" stroke="midnightblue" points="636.602,-207.768 643.416,-199.655 633.03,-201.748 636.602,-207.768"/>
</g>
<!-- Node23 -->
<g id="node23" class="node"><title>Node23</title>
<g id="a_node23"><a xlink:href="bits_2fourier__gsl_8hh.html" target="_top" xlink:title="bits/fourier_gsl.hh">
<polygon fill="none" stroke="black" points="743,-180.5 743,-199.5 837,-199.5 837,-180.5 743,-180.5"/>
<text text-anchor="middle" x="790" y="-187.5" font-family="Helvetica,sans-Serif" font-size="10.00">bits/fourier_gsl.hh</text>
</a>
</g>
</g>
<!-- Node20&#45;&gt;Node23 -->
<g id="edge29" class="edge"><title>Node20&#45;&gt;Node23</title>
<path fill="none" stroke="midnightblue" d="M602.335,-236.444C640.911,-227.102 702.785,-212.119 744.853,-201.933"/>
<polygon fill="midnightblue" stroke="midnightblue" points="745.935,-205.272 754.83,-199.516 744.287,-198.468 745.935,-205.272"/>
</g>
<!-- Node24 -->
<g id="node24" class="node"><title>Node24</title>
<polygon fill="none" stroke="#bfbfbf" points="611,-118.5 611,-137.5 721,-137.5 721,-118.5 611,-118.5"/>
<text text-anchor="middle" x="666" y="-125.5" font-family="Helvetica,sans-Serif" font-size="10.00">gsl/gsl_fft_complex.h</text>
</g>
<!-- Node23&#45;&gt;Node24 -->
<g id="edge30" class="edge"><title>Node23&#45;&gt;Node24</title>
<path fill="none" stroke="midnightblue" d="M772.234,-180.403C751.516,-170.379 717.048,-153.701 693.011,-142.07"/>
<polygon fill="midnightblue" stroke="midnightblue" points="694.259,-138.786 683.733,-137.581 691.21,-145.087 694.259,-138.786"/>
</g>
<!-- Node25 -->
<g id="node25" class="node"><title>Node25</title>
<polygon fill="none" stroke="#bfbfbf" points="739.5,-113 739.5,-143 840.5,-143 840.5,-113 739.5,-113"/>
<text text-anchor="start" x="747.5" y="-131" font-family="Helvetica,sans-Serif" font-size="10.00">gsl/gsl_fft_complex</text>
<text text-anchor="middle" x="790" y="-120" font-family="Helvetica,sans-Serif" font-size="10.00">_float.h</text>
</g>
<!-- Node23&#45;&gt;Node25 -->
<g id="edge31" class="edge"><title>Node23&#45;&gt;Node25</title>
<path fill="none" stroke="midnightblue" d="M790,-180.403C790,-173.341 790,-162.975 790,-153.399"/>
<polygon fill="midnightblue" stroke="midnightblue" points="793.5,-153.141 790,-143.141 786.5,-153.141 793.5,-153.141"/>
</g>
<!-- Node26 -->
<g id="node26" class="node"><title>Node26</title>
<polygon fill="none" stroke="#bfbfbf" points="859,-118.5 859,-137.5 921,-137.5 921,-118.5 859,-118.5"/>
<text text-anchor="middle" x="890" y="-125.5" font-family="Helvetica,sans-Serif" font-size="10.00">type_traits</text>
</g>
<!-- Node23&#45;&gt;Node26 -->
<g id="edge32" class="edge"><title>Node23&#45;&gt;Node26</title>
<path fill="none" stroke="midnightblue" d="M804.328,-180.403C820.664,-170.601 847.602,-154.439 866.912,-142.853"/>
<polygon fill="midnightblue" stroke="midnightblue" points="868.925,-145.727 875.699,-137.581 865.323,-139.724 868.925,-145.727"/>
</g>
</g>
</svg>
