<?xml version="1.0" encoding="UTF-8" standalone="no"?>
<!DOCTYPE svg PUBLIC "-//W3C//DTD SVG 1.1//EN"
 "http://www.w3.org/Graphics/SVG/1.1/DTD/svg11.dtd">
<!-- Generated by graphviz version 2.36.0 (20140111.2315)
 -->
<!-- Title: /home/travis/build/igankevich/arma/src/velocity/linear_solver.hh Pages: 1 -->
<svg width="416pt" height="308pt"
 viewBox="0.00 0.00 416.00 308.00" xmlns="http://www.w3.org/2000/svg" xmlns:xlink="http://www.w3.org/1999/xlink">
<g id="graph0" class="graph" transform="scale(1 1) rotate(0) translate(4 304)">
<title>/home/travis/build/igankevich/arma/src/velocity/linear_solver.hh</title>
<!-- Node1 -->
<g id="node1" class="node"><title>Node1</title>
<polygon fill="#bfbfbf" stroke="black" points="141.5,-258.5 141.5,-299.5 266.5,-299.5 266.5,-258.5 141.5,-258.5"/>
<text text-anchor="start" x="149.5" y="-287.5" font-family="Helvetica,sans-Serif" font-size="10.00">/home/travis/build</text>
<text text-anchor="start" x="149.5" y="-276.5" font-family="Helvetica,sans-Serif" font-size="10.00">/igankevich/arma/src</text>
<text text-anchor="middle" x="204" y="-265.5" font-family="Helvetica,sans-Serif" font-size="10.00">/velocity/linear_solver.hh</text>
</g>
<!-- Node2 -->
<g id="node2" class="node"><title>Node2</title>
<g id="a_node2"><a xlink:href="high__amplitude__solver_8hh.html" target="_top" xlink:title="/home/travis/build\l/igankevich/arma/src\l/velocity/high_amplitude\l_solver.hh">
<polygon fill="none" stroke="black" points="143,-169 143,-221 265,-221 265,-169 143,-169"/>
<text text-anchor="start" x="151" y="-209" font-family="Helvetica,sans-Serif" font-size="10.00">/home/travis/build</text>
<text text-anchor="start" x="151" y="-198" font-family="Helvetica,sans-Serif" font-size="10.00">/igankevich/arma/src</text>
<text text-anchor="start" x="151" y="-187" font-family="Helvetica,sans-Serif" font-size="10.00">/velocity/high_amplitude</text>
<text text-anchor="middle" x="204" y="-176" font-family="Helvetica,sans-Serif" font-size="10.00">_solver.hh</text>
</a>
</g>
</g>
<!-- Node1&#45;&gt;Node2 -->
<g id="edge1" class="edge"><title>Node1&#45;&gt;Node2</title>
<path fill="none" stroke="midnightblue" d="M204,-247.938C204,-239.176 204,-229.695 204,-221.261"/>
<polygon fill="midnightblue" stroke="midnightblue" points="200.5,-248.15 204,-258.15 207.5,-248.15 200.5,-248.15"/>
</g>
<!-- Node3 -->
<g id="node3" class="node"><title>Node3</title>
<g id="a_node3"><a xlink:href="common__main_8hh.html" target="_top" xlink:title="/home/travis/build\l/igankevich/arma/src\l/common_main.hh">
<polygon fill="none" stroke="black" points="61.5,-84.5 61.5,-125.5 168.5,-125.5 168.5,-84.5 61.5,-84.5"/>
<text text-anchor="start" x="69.5" y="-113.5" font-family="Helvetica,sans-Serif" font-size="10.00">/home/travis/build</text>
<text text-anchor="start" x="69.5" y="-102.5" font-family="Helvetica,sans-Serif" font-size="10.00">/igankevich/arma/src</text>
<text text-anchor="middle" x="115" y="-91.5" font-family="Helvetica,sans-Serif" font-size="10.00">/common_main.hh</text>
</a>
</g>
</g>
<!-- Node1&#45;&gt;Node3 -->
<g id="edge6" class="edge"><title>Node1&#45;&gt;Node3</title>
<path fill="none" stroke="midnightblue" d="M161.644,-252.247C151.076,-243.866 140.825,-233.669 134,-222 116.383,-191.877 113.824,-150.239 114.066,-125.91"/>
<polygon fill="midnightblue" stroke="midnightblue" points="159.631,-255.112 169.736,-258.296 163.822,-249.505 159.631,-255.112"/>
</g>
<!-- Node7 -->
<g id="node7" class="node"><title>Node7</title>
<g id="a_node7"><a xlink:href="linear__solver_8cc.html" target="_top" xlink:title="/home/travis/build\l/igankevich/arma/src\l/velocity/linear_solver.cc">
<polygon fill="none" stroke="black" points="283.5,-174.5 283.5,-215.5 408.5,-215.5 408.5,-174.5 283.5,-174.5"/>
<text text-anchor="start" x="291.5" y="-203.5" font-family="Helvetica,sans-Serif" font-size="10.00">/home/travis/build</text>
<text text-anchor="start" x="291.5" y="-192.5" font-family="Helvetica,sans-Serif" font-size="10.00">/igankevich/arma/src</text>
<text text-anchor="middle" x="346" y="-181.5" font-family="Helvetica,sans-Serif" font-size="10.00">/velocity/linear_solver.cc</text>
</a>
</g>
</g>
<!-- Node1&#45;&gt;Node7 -->
<g id="edge7" class="edge"><title>Node1&#45;&gt;Node7</title>
<path fill="none" stroke="midnightblue" d="M246.951,-253.197C267.716,-241.206 292.295,-227.013 311.773,-215.765"/>
<polygon fill="midnightblue" stroke="midnightblue" points="244.922,-250.327 238.013,-258.359 248.423,-256.389 244.922,-250.327"/>
</g>
<!-- Node2&#45;&gt;Node3 -->
<g id="edge2" class="edge"><title>Node2&#45;&gt;Node3</title>
<path fill="none" stroke="midnightblue" d="M170.882,-161.254C158.728,-149.237 145.36,-136.019 134.747,-125.525"/>
<polygon fill="midnightblue" stroke="midnightblue" points="168.686,-164.005 178.258,-168.547 173.607,-159.027 168.686,-164.005"/>
</g>
<!-- Node6 -->
<g id="node6" class="node"><title>Node6</title>
<g id="a_node6"><a xlink:href="high__amplitude__solver_8cc.html" target="_top" xlink:title="/home/travis/build\l/igankevich/arma/src\l/velocity/high_amplitude\l_solver.cc">
<polygon fill="none" stroke="black" points="187,-79 187,-131 309,-131 309,-79 187,-79"/>
<text text-anchor="start" x="195" y="-119" font-family="Helvetica,sans-Serif" font-size="10.00">/home/travis/build</text>
<text text-anchor="start" x="195" y="-108" font-family="Helvetica,sans-Serif" font-size="10.00">/igankevich/arma/src</text>
<text text-anchor="start" x="195" y="-97" font-family="Helvetica,sans-Serif" font-size="10.00">/velocity/high_amplitude</text>
<text text-anchor="middle" x="248" y="-86" font-family="Helvetica,sans-Serif" font-size="10.00">_solver.cc</text>
</a>
</g>
</g>
<!-- Node2&#45;&gt;Node6 -->
<g id="edge5" class="edge"><title>Node2&#45;&gt;Node6</title>
<path fill="none" stroke="midnightblue" d="M221.312,-159.376C226.032,-149.935 231.055,-139.891 235.454,-131.092"/>
<polygon fill="midnightblue" stroke="midnightblue" points="218.068,-158.037 216.727,-168.547 224.329,-161.168 218.068,-158.037"/>
</g>
<!-- Node4 -->
<g id="node4" class="node"><title>Node4</title>
<g id="a_node4"><a xlink:href="arma__main_8cc.html" target="_top" xlink:title="/home/travis/build\l/igankevich/arma/src\l/arma_main.cc">
<polygon fill="none" stroke="black" points="-0.5,-0.5 -0.5,-41.5 106.5,-41.5 106.5,-0.5 -0.5,-0.5"/>
<text text-anchor="start" x="7.5" y="-29.5" font-family="Helvetica,sans-Serif" font-size="10.00">/home/travis/build</text>
<text text-anchor="start" x="7.5" y="-18.5" font-family="Helvetica,sans-Serif" font-size="10.00">/igankevich/arma/src</text>
<text text-anchor="middle" x="53" y="-7.5" font-family="Helvetica,sans-Serif" font-size="10.00">/arma_main.cc</text>
</a>
</g>
</g>
<!-- Node3&#45;&gt;Node4 -->
<g id="edge3" class="edge"><title>Node3&#45;&gt;Node4</title>
<path fill="none" stroke="midnightblue" d="M93.7407,-75.8829C85.2243,-64.6192 75.6161,-51.9117 67.8703,-41.6671"/>
<polygon fill="midnightblue" stroke="midnightblue" points="91.1686,-78.2844 99.9915,-84.1501 96.7522,-74.0626 91.1686,-78.2844"/>
</g>
<!-- Node5 -->
<g id="node5" class="node"><title>Node5</title>
<g id="a_node5"><a xlink:href="arma__realtime_8cc.html" target="_top" xlink:title="/home/travis/build\l/igankevich/arma/src\l/arma_realtime.cc">
<polygon fill="none" stroke="black" points="124.5,-0.5 124.5,-41.5 231.5,-41.5 231.5,-0.5 124.5,-0.5"/>
<text text-anchor="start" x="132.5" y="-29.5" font-family="Helvetica,sans-Serif" font-size="10.00">/home/travis/build</text>
<text text-anchor="start" x="132.5" y="-18.5" font-family="Helvetica,sans-Serif" font-size="10.00">/igankevich/arma/src</text>
<text text-anchor="middle" x="178" y="-7.5" font-family="Helvetica,sans-Serif" font-size="10.00">/arma_realtime.cc</text>
</a>
</g>
</g>
<!-- Node3&#45;&gt;Node5 -->
<g id="edge4" class="edge"><title>Node3&#45;&gt;Node5</title>
<path fill="none" stroke="midnightblue" d="M136.348,-76.2137C145.064,-64.8686 154.942,-52.0121 162.89,-41.6671"/>
<polygon fill="midnightblue" stroke="midnightblue" points="133.568,-74.0879 130.251,-84.1501 139.118,-78.3526 133.568,-74.0879"/>
</g>
</g>
</svg>
