<?xml version="1.0" encoding="UTF-8" standalone="no"?>
<!DOCTYPE svg PUBLIC "-//W3C//DTD SVG 1.1//EN"
 "http://www.w3.org/Graphics/SVG/1.1/DTD/svg11.dtd">
<!-- Generated by graphviz version 2.36.0 (20140111.2315)
 -->
<!-- Title: /home/travis/build/igankevich/arma/src/velocity/small_amplitude_solver/linear_interpolation.cc Pages: 1 -->
<svg width="870pt" height="252pt"
 viewBox="0.00 0.00 870.00 252.00" xmlns="http://www.w3.org/2000/svg" xmlns:xlink="http://www.w3.org/1999/xlink">
<g id="graph0" class="graph" transform="scale(1 1) rotate(0) translate(4 248)">
<title>/home/travis/build/igankevich/arma/src/velocity/small_amplitude_solver/linear_interpolation.cc</title>
<!-- Node1 -->
<g id="node1" class="node"><title>Node1</title>
<polygon fill="#bfbfbf" stroke="black" points="489,-191 489,-243 635,-243 635,-191 489,-191"/>
<text text-anchor="start" x="497" y="-231" font-family="Helvetica,sans-Serif" font-size="10.00">/home/travis/build</text>
<text text-anchor="start" x="497" y="-220" font-family="Helvetica,sans-Serif" font-size="10.00">/igankevich/arma/src</text>
<text text-anchor="start" x="497" y="-209" font-family="Helvetica,sans-Serif" font-size="10.00">/velocity/small_amplitude</text>
<text text-anchor="middle" x="562" y="-198" font-family="Helvetica,sans-Serif" font-size="10.00">_solver/linear_interpolation.cc</text>
</g>
<!-- Node2 -->
<g id="node2" class="node"><title>Node2</title>
<g id="a_node2"><a xlink:href="linear__interpolation_8hh.html" target="_top" xlink:title="linear_interpolation.hh">
<polygon fill="none" stroke="black" points="506.5,-134.5 506.5,-153.5 617.5,-153.5 617.5,-134.5 506.5,-134.5"/>
<text text-anchor="middle" x="562" y="-141.5" font-family="Helvetica,sans-Serif" font-size="10.00">linear_interpolation.hh</text>
</a>
</g>
</g>
<!-- Node1&#45;&gt;Node2 -->
<g id="edge1" class="edge"><title>Node1&#45;&gt;Node2</title>
<path fill="none" stroke="midnightblue" d="M562,-190.768C562,-181.89 562,-172.074 562,-163.816"/>
<polygon fill="midnightblue" stroke="midnightblue" points="565.5,-163.757 562,-153.757 558.5,-163.757 565.5,-163.757"/>
</g>
<!-- Node3 -->
<g id="node3" class="node"><title>Node3</title>
<polygon fill="none" stroke="#bfbfbf" points="0,-56.5 0,-97.5 122,-97.5 122,-56.5 0,-56.5"/>
<text text-anchor="start" x="8" y="-85.5" font-family="Helvetica,sans-Serif" font-size="10.00">CGAL/Exact_predicates</text>
<text text-anchor="start" x="8" y="-74.5" font-family="Helvetica,sans-Serif" font-size="10.00">_inexact_constructions</text>
<text text-anchor="middle" x="61" y="-63.5" font-family="Helvetica,sans-Serif" font-size="10.00">_kernel.h</text>
</g>
<!-- Node2&#45;&gt;Node3 -->
<g id="edge2" class="edge"><title>Node2&#45;&gt;Node3</title>
<path fill="none" stroke="midnightblue" d="M506.437,-140.299C425.839,-135.7 271.76,-124.35 132.326,-98.0888"/>
<polygon fill="midnightblue" stroke="midnightblue" points="132.793,-94.6147 122.314,-96.1721 131.477,-101.49 132.793,-94.6147"/>
</g>
<!-- Node4 -->
<g id="node4" class="node"><title>Node4</title>
<polygon fill="none" stroke="#bfbfbf" points="140,-67.5 140,-86.5 304,-86.5 304,-67.5 140,-67.5"/>
<text text-anchor="middle" x="222" y="-74.5" font-family="Helvetica,sans-Serif" font-size="10.00">CGAL/Delaunay_triangulation_2.h</text>
</g>
<!-- Node2&#45;&gt;Node4 -->
<g id="edge3" class="edge"><title>Node2&#45;&gt;Node4</title>
<path fill="none" stroke="midnightblue" d="M511.343,-134.419C460.955,-125.749 381.489,-111.71 313,-98 298.833,-95.1641 283.474,-91.8723 269.479,-88.7882"/>
<polygon fill="midnightblue" stroke="midnightblue" points="270.087,-85.338 259.567,-86.5885 268.571,-92.1718 270.087,-85.338"/>
</g>
<!-- Node5 -->
<g id="node5" class="node"><title>Node5</title>
<polygon fill="none" stroke="#bfbfbf" points="322,-62 322,-92 422,-92 422,-62 322,-62"/>
<text text-anchor="start" x="330" y="-80" font-family="Helvetica,sans-Serif" font-size="10.00">CGAL/Interpolation</text>
<text text-anchor="middle" x="372" y="-69" font-family="Helvetica,sans-Serif" font-size="10.00">_traits_2.h</text>
</g>
<!-- Node2&#45;&gt;Node5 -->
<g id="edge4" class="edge"><title>Node2&#45;&gt;Node5</title>
<path fill="none" stroke="midnightblue" d="M536.769,-134.369C507.766,-124.446 459.425,-107.908 422.584,-95.3051"/>
<polygon fill="midnightblue" stroke="midnightblue" points="423.6,-91.9534 413.005,-92.0281 421.334,-98.5766 423.6,-91.9534"/>
</g>
<!-- Node6 -->
<g id="node6" class="node"><title>Node6</title>
<polygon fill="none" stroke="#bfbfbf" points="440,-62 440,-92 558,-92 558,-62 440,-62"/>
<text text-anchor="start" x="448" y="-80" font-family="Helvetica,sans-Serif" font-size="10.00">CGAL/natural_neighbor</text>
<text text-anchor="middle" x="499" y="-69" font-family="Helvetica,sans-Serif" font-size="10.00">_coordinates_2.h</text>
</g>
<!-- Node2&#45;&gt;Node6 -->
<g id="edge5" class="edge"><title>Node2&#45;&gt;Node6</title>
<path fill="none" stroke="midnightblue" d="M553.504,-134.234C544.907,-125.365 531.286,-111.311 519.812,-99.4722"/>
<polygon fill="midnightblue" stroke="midnightblue" points="522.129,-96.8338 512.656,-92.089 517.102,-101.706 522.129,-96.8338"/>
</g>
<!-- Node7 -->
<g id="node7" class="node"><title>Node7</title>
<polygon fill="none" stroke="#bfbfbf" points="576.5,-62 576.5,-92 675.5,-92 675.5,-62 576.5,-62"/>
<text text-anchor="start" x="584.5" y="-80" font-family="Helvetica,sans-Serif" font-size="10.00">CGAL/interpolation</text>
<text text-anchor="middle" x="626" y="-69" font-family="Helvetica,sans-Serif" font-size="10.00">_functions.h</text>
</g>
<!-- Node2&#45;&gt;Node7 -->
<g id="edge6" class="edge"><title>Node2&#45;&gt;Node7</title>
<path fill="none" stroke="midnightblue" d="M570.631,-134.234C579.364,-125.365 593.201,-111.311 604.858,-99.4722"/>
<polygon fill="midnightblue" stroke="midnightblue" points="607.606,-101.67 612.128,-92.089 602.618,-96.7591 607.606,-101.67"/>
</g>
<!-- Node8 -->
<g id="node8" class="node"><title>Node8</title>
<polygon fill="none" stroke="#bfbfbf" points="694,-67.5 694,-86.5 738,-86.5 738,-67.5 694,-67.5"/>
<text text-anchor="middle" x="716" y="-74.5" font-family="Helvetica,sans-Serif" font-size="10.00">vector</text>
</g>
<!-- Node2&#45;&gt;Node8 -->
<g id="edge7" class="edge"><title>Node2&#45;&gt;Node8</title>
<path fill="none" stroke="midnightblue" d="M590.296,-134.394C615.468,-126.313 652.989,-113.21 684,-98 687.667,-96.2015 691.446,-94.0928 695.065,-91.9317"/>
<polygon fill="midnightblue" stroke="midnightblue" points="696.96,-94.8745 703.575,-86.5984 693.243,-88.9429 696.96,-94.8745"/>
</g>
<!-- Node9 -->
<g id="node9" class="node"><title>Node9</title>
<polygon fill="none" stroke="#bfbfbf" points="756.5,-67.5 756.5,-86.5 791.5,-86.5 791.5,-67.5 756.5,-67.5"/>
<text text-anchor="middle" x="774" y="-74.5" font-family="Helvetica,sans-Serif" font-size="10.00">map</text>
</g>
<!-- Node2&#45;&gt;Node9 -->
<g id="edge8" class="edge"><title>Node2&#45;&gt;Node9</title>
<path fill="none" stroke="midnightblue" d="M617.767,-135.045C655.232,-128.351 705.049,-116.784 746,-98 749.304,-96.4846 752.619,-94.5598 755.753,-92.5058"/>
<polygon fill="midnightblue" stroke="midnightblue" points="757.876,-95.2898 763.948,-86.6074 753.787,-89.6083 757.876,-95.2898"/>
</g>
<!-- Node10 -->
<g id="node10" class="node"><title>Node10</title>
<g id="a_node10"><a xlink:href="wave_8hh.html" target="_top" xlink:title="wave.hh">
<polygon fill="none" stroke="black" points="809.5,-67.5 809.5,-86.5 862.5,-86.5 862.5,-67.5 809.5,-67.5"/>
<text text-anchor="middle" x="836" y="-74.5" font-family="Helvetica,sans-Serif" font-size="10.00">wave.hh</text>
</a>
</g>
</g>
<!-- Node2&#45;&gt;Node10 -->
<g id="edge9" class="edge"><title>Node2&#45;&gt;Node10</title>
<path fill="none" stroke="midnightblue" d="M617.679,-137.575C666.779,-131.602 739.693,-119.808 800,-98 804.711,-96.2965 809.539,-94.0274 814.069,-91.6299"/>
<polygon fill="midnightblue" stroke="midnightblue" points="815.842,-94.6481 822.811,-86.6684 812.387,-88.5601 815.842,-94.6481"/>
</g>
<!-- Node11 -->
<g id="node11" class="node"><title>Node11</title>
<polygon fill="none" stroke="#bfbfbf" points="810,-0.5 810,-19.5 862,-19.5 862,-0.5 810,-0.5"/>
<text text-anchor="middle" x="836" y="-7.5" font-family="Helvetica,sans-Serif" font-size="10.00">ostream</text>
</g>
<!-- Node10&#45;&gt;Node11 -->
<g id="edge10" class="edge"><title>Node10&#45;&gt;Node11</title>
<path fill="none" stroke="midnightblue" d="M836,-67.2338C836,-57.6826 836,-42.1183 836,-29.7829"/>
<polygon fill="midnightblue" stroke="midnightblue" points="839.5,-29.6273 836,-19.6273 832.5,-29.6273 839.5,-29.6273"/>
</g>
</g>
</svg>
