<?xml version="1.0" encoding="UTF-8" standalone="no"?>
<!DOCTYPE svg PUBLIC "-//W3C//DTD SVG 1.1//EN"
 "http://www.w3.org/Graphics/SVG/1.1/DTD/svg11.dtd">
<!-- Generated by graphviz version 2.36.0 (20140111.2315)
 -->
<!-- Title: /home/travis/build/igankevich/arma/src/velocity/small_amplitude_solver/linear_interpolation.hh Pages: 1 -->
<svg width="870pt" height="196pt"
 viewBox="0.00 0.00 870.00 196.00" xmlns="http://www.w3.org/2000/svg" xmlns:xlink="http://www.w3.org/1999/xlink">
<g id="graph0" class="graph" transform="scale(1 1) rotate(0) translate(4 192)">
<title>/home/travis/build/igankevich/arma/src/velocity/small_amplitude_solver/linear_interpolation.hh</title>
<!-- Node1 -->
<g id="node1" class="node"><title>Node1</title>
<polygon fill="#bfbfbf" stroke="black" points="489,-135 489,-187 635,-187 635,-135 489,-135"/>
<text text-anchor="start" x="497" y="-175" font-family="Helvetica,sans-Serif" font-size="10.00">/home/travis/build</text>
<text text-anchor="start" x="497" y="-164" font-family="Helvetica,sans-Serif" font-size="10.00">/igankevich/arma/src</text>
<text text-anchor="start" x="497" y="-153" font-family="Helvetica,sans-Serif" font-size="10.00">/velocity/small_amplitude</text>
<text text-anchor="middle" x="562" y="-142" font-family="Helvetica,sans-Serif" font-size="10.00">_solver/linear_interpolation.hh</text>
</g>
<!-- Node2 -->
<g id="node2" class="node"><title>Node2</title>
<polygon fill="none" stroke="#bfbfbf" points="0,-56.5 0,-97.5 122,-97.5 122,-56.5 0,-56.5"/>
<text text-anchor="start" x="8" y="-85.5" font-family="Helvetica,sans-Serif" font-size="10.00">CGAL/Exact_predicates</text>
<text text-anchor="start" x="8" y="-74.5" font-family="Helvetica,sans-Serif" font-size="10.00">_inexact_constructions</text>
<text text-anchor="middle" x="61" y="-63.5" font-family="Helvetica,sans-Serif" font-size="10.00">_kernel.h</text>
</g>
<!-- Node1&#45;&gt;Node2 -->
<g id="edge1" class="edge"><title>Node1&#45;&gt;Node2</title>
<path fill="none" stroke="midnightblue" d="M488.639,-152.512C404.627,-143.249 262.81,-125.517 132.501,-98.1899"/>
<polygon fill="midnightblue" stroke="midnightblue" points="132.85,-94.6861 122.342,-96.0346 131.398,-101.534 132.85,-94.6861"/>
</g>
<!-- Node3 -->
<g id="node3" class="node"><title>Node3</title>
<polygon fill="none" stroke="#bfbfbf" points="140,-67.5 140,-86.5 304,-86.5 304,-67.5 140,-67.5"/>
<text text-anchor="middle" x="222" y="-74.5" font-family="Helvetica,sans-Serif" font-size="10.00">CGAL/Delaunay_triangulation_2.h</text>
</g>
<!-- Node1&#45;&gt;Node3 -->
<g id="edge2" class="edge"><title>Node1&#45;&gt;Node3</title>
<path fill="none" stroke="midnightblue" d="M488.644,-142.308C421.381,-126.086 323.893,-102.574 267.321,-88.9304"/>
<polygon fill="midnightblue" stroke="midnightblue" points="267.793,-85.4438 257.251,-86.5017 266.151,-92.2487 267.793,-85.4438"/>
</g>
<!-- Node4 -->
<g id="node4" class="node"><title>Node4</title>
<polygon fill="none" stroke="#bfbfbf" points="322,-62 322,-92 422,-92 422,-62 322,-62"/>
<text text-anchor="start" x="330" y="-80" font-family="Helvetica,sans-Serif" font-size="10.00">CGAL/Interpolation</text>
<text text-anchor="middle" x="372" y="-69" font-family="Helvetica,sans-Serif" font-size="10.00">_traits_2.h</text>
</g>
<!-- Node1&#45;&gt;Node4 -->
<g id="edge3" class="edge"><title>Node1&#45;&gt;Node4</title>
<path fill="none" stroke="midnightblue" d="M503.961,-134.952C474.9,-122.409 440.371,-107.508 413.924,-96.0935"/>
<polygon fill="midnightblue" stroke="midnightblue" points="415.139,-92.806 404.571,-92.057 412.366,-99.233 415.139,-92.806"/>
</g>
<!-- Node5 -->
<g id="node5" class="node"><title>Node5</title>
<polygon fill="none" stroke="#bfbfbf" points="440,-62 440,-92 558,-92 558,-62 440,-62"/>
<text text-anchor="start" x="448" y="-80" font-family="Helvetica,sans-Serif" font-size="10.00">CGAL/natural_neighbor</text>
<text text-anchor="middle" x="499" y="-69" font-family="Helvetica,sans-Serif" font-size="10.00">_coordinates_2.h</text>
</g>
<!-- Node1&#45;&gt;Node5 -->
<g id="edge4" class="edge"><title>Node1&#45;&gt;Node5</title>
<path fill="none" stroke="midnightblue" d="M542.756,-134.952C534.304,-123.951 524.458,-111.136 516.248,-100.45"/>
<polygon fill="midnightblue" stroke="midnightblue" points="518.941,-98.2099 510.073,-92.4124 513.39,-102.475 518.941,-98.2099"/>
</g>
<!-- Node6 -->
<g id="node6" class="node"><title>Node6</title>
<polygon fill="none" stroke="#bfbfbf" points="576.5,-62 576.5,-92 675.5,-92 675.5,-62 576.5,-62"/>
<text text-anchor="start" x="584.5" y="-80" font-family="Helvetica,sans-Serif" font-size="10.00">CGAL/interpolation</text>
<text text-anchor="middle" x="626" y="-69" font-family="Helvetica,sans-Serif" font-size="10.00">_functions.h</text>
</g>
<!-- Node1&#45;&gt;Node6 -->
<g id="edge5" class="edge"><title>Node1&#45;&gt;Node6</title>
<path fill="none" stroke="midnightblue" d="M581.55,-134.952C590.136,-123.951 600.138,-111.136 608.478,-100.45"/>
<polygon fill="midnightblue" stroke="midnightblue" points="611.358,-102.449 614.751,-92.4124 605.839,-98.1421 611.358,-102.449"/>
</g>
<!-- Node7 -->
<g id="node7" class="node"><title>Node7</title>
<polygon fill="none" stroke="#bfbfbf" points="694,-67.5 694,-86.5 738,-86.5 738,-67.5 694,-67.5"/>
<text text-anchor="middle" x="716" y="-74.5" font-family="Helvetica,sans-Serif" font-size="10.00">vector</text>
</g>
<!-- Node1&#45;&gt;Node7 -->
<g id="edge6" class="edge"><title>Node1&#45;&gt;Node7</title>
<path fill="none" stroke="midnightblue" d="M613.881,-134.902C635.757,-123.993 661.351,-110.8 684,-98 687.333,-96.1164 690.812,-94.0506 694.196,-91.9839"/>
<polygon fill="midnightblue" stroke="midnightblue" points="696.137,-94.8982 702.769,-86.6357 692.432,-88.9591 696.137,-94.8982"/>
</g>
<!-- Node8 -->
<g id="node8" class="node"><title>Node8</title>
<polygon fill="none" stroke="#bfbfbf" points="756.5,-67.5 756.5,-86.5 791.5,-86.5 791.5,-67.5 756.5,-67.5"/>
<text text-anchor="middle" x="774" y="-74.5" font-family="Helvetica,sans-Serif" font-size="10.00">map</text>
</g>
<!-- Node1&#45;&gt;Node8 -->
<g id="edge7" class="edge"><title>Node1&#45;&gt;Node8</title>
<path fill="none" stroke="midnightblue" d="M635.217,-140.759C669.787,-130.323 711.034,-115.877 746,-98 749.085,-96.4227 752.209,-94.5335 755.197,-92.5547"/>
<polygon fill="midnightblue" stroke="midnightblue" points="757.47,-95.2323 763.573,-86.5718 753.401,-89.5362 757.47,-95.2323"/>
</g>
<!-- Node9 -->
<g id="node9" class="node"><title>Node9</title>
<g id="a_node9"><a xlink:href="wave_8hh.html" target="_top" xlink:title="wave.hh">
<polygon fill="none" stroke="black" points="809.5,-67.5 809.5,-86.5 862.5,-86.5 862.5,-67.5 809.5,-67.5"/>
<text text-anchor="middle" x="836" y="-74.5" font-family="Helvetica,sans-Serif" font-size="10.00">wave.hh</text>
</a>
</g>
</g>
<!-- Node1&#45;&gt;Node9 -->
<g id="edge8" class="edge"><title>Node1&#45;&gt;Node9</title>
<path fill="none" stroke="midnightblue" d="M635.119,-145.963C682.996,-135.562 746.391,-119.473 800,-98 804.451,-96.2172 809.041,-93.996 813.391,-91.6883"/>
<polygon fill="midnightblue" stroke="midnightblue" points="815.38,-94.5851 822.384,-86.6353 811.951,-88.4824 815.38,-94.5851"/>
</g>
<!-- Node10 -->
<g id="node10" class="node"><title>Node10</title>
<polygon fill="none" stroke="#bfbfbf" points="810,-0.5 810,-19.5 862,-19.5 862,-0.5 810,-0.5"/>
<text text-anchor="middle" x="836" y="-7.5" font-family="Helvetica,sans-Serif" font-size="10.00">ostream</text>
</g>
<!-- Node9&#45;&gt;Node10 -->
<g id="edge9" class="edge"><title>Node9&#45;&gt;Node10</title>
<path fill="none" stroke="midnightblue" d="M836,-67.2338C836,-57.6826 836,-42.1183 836,-29.7829"/>
<polygon fill="midnightblue" stroke="midnightblue" points="839.5,-29.6273 836,-19.6273 832.5,-29.6273 839.5,-29.6273"/>
</g>
</g>
</svg>
