<?xml version="1.0" encoding="UTF-8" standalone="no"?>
<!DOCTYPE svg PUBLIC "-//W3C//DTD SVG 1.1//EN"
 "http://www.w3.org/Graphics/SVG/1.1/DTD/svg11.dtd">
<!-- Generated by graphviz version 2.36.0 (20140111.2315)
 -->
<!-- Title: /home/travis/build/igankevich/arma/src/generator/ma_coefficient_solver.cc Pages: 1 -->
<svg width="620pt" height="286pt"
 viewBox="0.00 0.00 620.00 286.00" xmlns="http://www.w3.org/2000/svg" xmlns:xlink="http://www.w3.org/1999/xlink">
<g id="graph0" class="graph" transform="scale(1 1) rotate(0) translate(4 282)">
<title>/home/travis/build/igankevich/arma/src/generator/ma_coefficient_solver.cc</title>
<!-- Node1 -->
<g id="node1" class="node"><title>Node1</title>
<polygon fill="#bfbfbf" stroke="black" points="219.5,-225 219.5,-277 346.5,-277 346.5,-225 219.5,-225"/>
<text text-anchor="start" x="227.5" y="-265" font-family="Helvetica,sans-Serif" font-size="10.00">/home/travis/build</text>
<text text-anchor="start" x="227.5" y="-254" font-family="Helvetica,sans-Serif" font-size="10.00">/igankevich/arma/src</text>
<text text-anchor="start" x="227.5" y="-243" font-family="Helvetica,sans-Serif" font-size="10.00">/generator/ma_coefficient</text>
<text text-anchor="middle" x="283" y="-232" font-family="Helvetica,sans-Serif" font-size="10.00">_solver.cc</text>
</g>
<!-- Node2 -->
<g id="node2" class="node"><title>Node2</title>
<g id="a_node2"><a xlink:href="ma__coefficient__solver_8hh.html" target="_top" xlink:title="ma_coefficient_solver.hh">
<polygon fill="none" stroke="black" points="-0.5,-168.5 -0.5,-187.5 124.5,-187.5 124.5,-168.5 -0.5,-168.5"/>
<text text-anchor="middle" x="62" y="-175.5" font-family="Helvetica,sans-Serif" font-size="10.00">ma_coefficient_solver.hh</text>
</a>
</g>
</g>
<!-- Node1&#45;&gt;Node2 -->
<g id="edge1" class="edge"><title>Node1&#45;&gt;Node2</title>
<path fill="none" stroke="midnightblue" d="M219.374,-229.559C180.084,-216.936 131.087,-201.195 98.2971,-190.661"/>
<polygon fill="midnightblue" stroke="midnightblue" points="99.2611,-187.295 88.6698,-187.568 97.12,-193.959 99.2611,-187.295"/>
</g>
<!-- Node6 -->
<g id="node6" class="node"><title>Node6</title>
<polygon fill="none" stroke="#bfbfbf" points="143,-168.5 143,-187.5 197,-187.5 197,-168.5 143,-168.5"/>
<text text-anchor="middle" x="170" y="-175.5" font-family="Helvetica,sans-Serif" font-size="10.00">iostream</text>
</g>
<!-- Node1&#45;&gt;Node6 -->
<g id="edge5" class="edge"><title>Node1&#45;&gt;Node6</title>
<path fill="none" stroke="midnightblue" d="M243.16,-224.968C226.168,-214.291 206.968,-202.227 192.501,-193.138"/>
<polygon fill="midnightblue" stroke="midnightblue" points="194.079,-189.996 183.749,-187.639 190.354,-195.923 194.079,-189.996"/>
</g>
<!-- Node7 -->
<g id="node7" class="node"><title>Node7</title>
<polygon fill="none" stroke="#bfbfbf" points="215,-168.5 215,-187.5 255,-187.5 255,-168.5 215,-168.5"/>
<text text-anchor="middle" x="235" y="-175.5" font-family="Helvetica,sans-Serif" font-size="10.00">limits</text>
</g>
<!-- Node1&#45;&gt;Node7 -->
<g id="edge6" class="edge"><title>Node1&#45;&gt;Node7</title>
<path fill="none" stroke="midnightblue" d="M265.942,-224.768C259.53,-215.284 252.396,-204.731 246.594,-196.15"/>
<polygon fill="midnightblue" stroke="midnightblue" points="249.421,-194.081 240.92,-187.757 243.622,-198.002 249.421,-194.081"/>
</g>
<!-- Node8 -->
<g id="node8" class="node"><title>Node8</title>
<polygon fill="none" stroke="#bfbfbf" points="249.5,-112.5 249.5,-131.5 308.5,-131.5 308.5,-112.5 249.5,-112.5"/>
<text text-anchor="middle" x="279" y="-119.5" font-family="Helvetica,sans-Serif" font-size="10.00">stdexcept</text>
</g>
<!-- Node1&#45;&gt;Node8 -->
<g id="edge7" class="edge"><title>Node1&#45;&gt;Node8</title>
<path fill="none" stroke="midnightblue" d="M282.21,-224.909C281.438,-200.409 280.282,-163.69 279.588,-141.664"/>
<polygon fill="midnightblue" stroke="midnightblue" points="283.085,-141.513 279.272,-131.628 276.088,-141.733 283.085,-141.513"/>
</g>
<!-- Node9 -->
<g id="node9" class="node"><title>Node9</title>
<g id="a_node9"><a xlink:href="blitz_8hh.html" target="_top" xlink:title="blitz.hh">
<polygon fill="none" stroke="black" points="327,-112.5 327,-131.5 375,-131.5 375,-112.5 327,-112.5"/>
<text text-anchor="middle" x="351" y="-119.5" font-family="Helvetica,sans-Serif" font-size="10.00">blitz.hh</text>
</a>
</g>
</g>
<!-- Node1&#45;&gt;Node9 -->
<g id="edge8" class="edge"><title>Node1&#45;&gt;Node9</title>
<path fill="none" stroke="midnightblue" d="M346.629,-228.04C364.467,-218.609 381.766,-205.596 392,-188 402.131,-170.581 386.038,-151.092 371.137,-138.037"/>
<polygon fill="midnightblue" stroke="midnightblue" points="373.11,-135.129 363.155,-131.501 368.675,-140.545 373.11,-135.129"/>
</g>
<!-- Node12 -->
<g id="node12" class="node"><title>Node12</title>
<g id="a_node12"><a xlink:href="params_8hh.html" target="_top" xlink:title="params.hh">
<polygon fill="none" stroke="black" points="450,-168.5 450,-187.5 512,-187.5 512,-168.5 450,-168.5"/>
<text text-anchor="middle" x="481" y="-175.5" font-family="Helvetica,sans-Serif" font-size="10.00">params.hh</text>
</a>
</g>
</g>
<!-- Node1&#45;&gt;Node12 -->
<g id="edge12" class="edge"><title>Node1&#45;&gt;Node12</title>
<path fill="none" stroke="midnightblue" d="M346.738,-227.144C380.367,-215.085 420.24,-200.788 447.75,-190.923"/>
<polygon fill="midnightblue" stroke="midnightblue" points="449.06,-194.172 457.292,-187.501 446.697,-187.582 449.06,-194.172"/>
</g>
<!-- Node16 -->
<g id="node16" class="node"><title>Node16</title>
<g id="a_node16"><a xlink:href="validators_8hh.html" target="_top" xlink:title="validators.hh">
<polygon fill="none" stroke="black" points="311,-168.5 311,-187.5 383,-187.5 383,-168.5 311,-168.5"/>
<text text-anchor="middle" x="347" y="-175.5" font-family="Helvetica,sans-Serif" font-size="10.00">validators.hh</text>
</a>
</g>
</g>
<!-- Node1&#45;&gt;Node16 -->
<g id="edge16" class="edge"><title>Node1&#45;&gt;Node16</title>
<path fill="none" stroke="midnightblue" d="M305.744,-224.768C314.566,-214.982 324.414,-204.056 332.276,-195.335"/>
<polygon fill="midnightblue" stroke="midnightblue" points="335.01,-197.528 339.106,-187.757 329.811,-192.842 335.01,-197.528"/>
</g>
<!-- Node3 -->
<g id="node3" class="node"><title>Node3</title>
<g id="a_node3"><a xlink:href="arma_8hh.html" target="_top" xlink:title="arma.hh">
<polygon fill="none" stroke="black" points="56,-112.5 56,-131.5 108,-131.5 108,-112.5 56,-112.5"/>
<text text-anchor="middle" x="82" y="-119.5" font-family="Helvetica,sans-Serif" font-size="10.00">arma.hh</text>
</a>
</g>
</g>
<!-- Node2&#45;&gt;Node3 -->
<g id="edge2" class="edge"><title>Node2&#45;&gt;Node3</title>
<path fill="none" stroke="midnightblue" d="M65.3026,-168.083C67.982,-160.849 71.8486,-150.409 75.1864,-141.397"/>
<polygon fill="midnightblue" stroke="midnightblue" points="78.5678,-142.344 78.7589,-131.751 72.0035,-139.913 78.5678,-142.344"/>
</g>
<!-- Node4 -->
<g id="node4" class="node"><title>Node4</title>
<g id="a_node4"><a xlink:href="types_8hh.html" target="_top" xlink:title="types.hh">
<polygon fill="none" stroke="black" points="116,-56.5 116,-75.5 170,-75.5 170,-56.5 116,-56.5"/>
<text text-anchor="middle" x="143" y="-63.5" font-family="Helvetica,sans-Serif" font-size="10.00">types.hh</text>
</a>
</g>
</g>
<!-- Node3&#45;&gt;Node4 -->
<g id="edge3" class="edge"><title>Node3&#45;&gt;Node4</title>
<path fill="none" stroke="midnightblue" d="M91.8007,-112.324C100.818,-104.341 114.406,-92.3128 125.318,-82.6529"/>
<polygon fill="midnightblue" stroke="midnightblue" points="127.853,-85.083 133.021,-75.8339 123.213,-79.8416 127.853,-85.083"/>
</g>
<!-- Node5 -->
<g id="node5" class="node"><title>Node5</title>
<polygon fill="none" stroke="#bfbfbf" points="151,-0.5 151,-19.5 219,-19.5 219,-0.5 151,-0.5"/>
<text text-anchor="middle" x="185" y="-7.5" font-family="Helvetica,sans-Serif" font-size="10.00">blitz/array.h</text>
</g>
<!-- Node4&#45;&gt;Node5 -->
<g id="edge4" class="edge"><title>Node4&#45;&gt;Node5</title>
<path fill="none" stroke="midnightblue" d="M149.935,-56.083C155.929,-48.3768 164.752,-37.0333 172.048,-27.6531"/>
<polygon fill="midnightblue" stroke="midnightblue" points="174.817,-29.7934 178.194,-19.7511 169.291,-25.4958 174.817,-29.7934"/>
</g>
<!-- Node9&#45;&gt;Node5 -->
<g id="edge10" class="edge"><title>Node9&#45;&gt;Node5</title>
<path fill="none" stroke="midnightblue" d="M330.822,-112.43C312.286,-104.183 284.38,-90.8107 262,-76 239.597,-61.1741 216.364,-40.7463 201.359,-26.772"/>
<polygon fill="midnightblue" stroke="midnightblue" points="203.599,-24.0731 193.926,-19.749 198.791,-29.161 203.599,-24.0731"/>
</g>
<!-- Node10 -->
<g id="node10" class="node"><title>Node10</title>
<polygon fill="none" stroke="#bfbfbf" points="271,-56.5 271,-75.5 327,-75.5 327,-56.5 271,-56.5"/>
<text text-anchor="middle" x="299" y="-63.5" font-family="Helvetica,sans-Serif" font-size="10.00">algorithm</text>
</g>
<!-- Node9&#45;&gt;Node10 -->
<g id="edge9" class="edge"><title>Node9&#45;&gt;Node10</title>
<path fill="none" stroke="midnightblue" d="M342.413,-112.083C334.841,-104.22 323.622,-92.5688 314.486,-83.0813"/>
<polygon fill="midnightblue" stroke="midnightblue" points="316.885,-80.5266 307.427,-75.7511 311.842,-85.3821 316.885,-80.5266"/>
</g>
<!-- Node11 -->
<g id="node11" class="node"><title>Node11</title>
<polygon fill="none" stroke="#bfbfbf" points="345,-56.5 345,-75.5 389,-75.5 389,-56.5 345,-56.5"/>
<text text-anchor="middle" x="367" y="-63.5" font-family="Helvetica,sans-Serif" font-size="10.00">cmath</text>
</g>
<!-- Node9&#45;&gt;Node11 -->
<g id="edge11" class="edge"><title>Node9&#45;&gt;Node11</title>
<path fill="none" stroke="midnightblue" d="M353.642,-112.083C355.786,-104.849 358.879,-94.4087 361.549,-85.3968"/>
<polygon fill="midnightblue" stroke="midnightblue" points="364.922,-86.3334 364.407,-75.7511 358.21,-84.3447 364.922,-86.3334"/>
</g>
<!-- Node13 -->
<g id="node13" class="node"><title>Node13</title>
<polygon fill="none" stroke="#bfbfbf" points="393.5,-112.5 393.5,-131.5 452.5,-131.5 452.5,-112.5 393.5,-112.5"/>
<text text-anchor="middle" x="423" y="-119.5" font-family="Helvetica,sans-Serif" font-size="10.00">functional</text>
</g>
<!-- Node12&#45;&gt;Node13 -->
<g id="edge13" class="edge"><title>Node12&#45;&gt;Node13</title>
<path fill="none" stroke="midnightblue" d="M471.681,-168.324C463.107,-160.341 450.188,-148.313 439.812,-138.653"/>
<polygon fill="midnightblue" stroke="midnightblue" points="442.192,-136.086 432.488,-131.834 437.422,-141.21 442.192,-136.086"/>
</g>
<!-- Node14 -->
<g id="node14" class="node"><title>Node14</title>
<polygon fill="none" stroke="#bfbfbf" points="470.5,-112.5 470.5,-131.5 511.5,-131.5 511.5,-112.5 470.5,-112.5"/>
<text text-anchor="middle" x="491" y="-119.5" font-family="Helvetica,sans-Serif" font-size="10.00">string</text>
</g>
<!-- Node12&#45;&gt;Node14 -->
<g id="edge14" class="edge"><title>Node12&#45;&gt;Node14</title>
<path fill="none" stroke="midnightblue" d="M482.651,-168.083C483.976,-160.927 485.882,-150.635 487.539,-141.691"/>
<polygon fill="midnightblue" stroke="midnightblue" points="491,-142.221 489.379,-131.751 484.117,-140.947 491,-142.221"/>
</g>
<!-- Node15 -->
<g id="node15" class="node"><title>Node15</title>
<polygon fill="none" stroke="#bfbfbf" points="529.5,-112.5 529.5,-131.5 612.5,-131.5 612.5,-112.5 529.5,-112.5"/>
<text text-anchor="middle" x="571" y="-119.5" font-family="Helvetica,sans-Serif" font-size="10.00">unordered_map</text>
</g>
<!-- Node12&#45;&gt;Node15 -->
<g id="edge15" class="edge"><title>Node12&#45;&gt;Node15</title>
<path fill="none" stroke="midnightblue" d="M495.46,-168.324C509.5,-159.9 531.048,-146.971 547.543,-137.074"/>
<polygon fill="midnightblue" stroke="midnightblue" points="549.802,-139.801 556.576,-131.655 546.2,-133.798 549.802,-139.801"/>
</g>
<!-- Node16&#45;&gt;Node8 -->
<g id="edge17" class="edge"><title>Node16&#45;&gt;Node8</title>
<path fill="none" stroke="midnightblue" d="M336.075,-168.324C325.825,-160.185 310.279,-147.839 297.999,-138.087"/>
<polygon fill="midnightblue" stroke="midnightblue" points="300.132,-135.312 290.124,-131.834 295.779,-140.794 300.132,-135.312"/>
</g>
<!-- Node16&#45;&gt;Node9 -->
<g id="edge18" class="edge"><title>Node16&#45;&gt;Node9</title>
<path fill="none" stroke="midnightblue" d="M347.661,-168.083C348.185,-161.006 348.936,-150.861 349.594,-141.986"/>
<polygon fill="midnightblue" stroke="midnightblue" points="353.103,-141.982 350.352,-131.751 346.123,-141.465 353.103,-141.982"/>
</g>
</g>
</svg>
