<?xml version="1.0" encoding="UTF-8" standalone="no"?>
<!DOCTYPE svg PUBLIC "-//W3C//DTD SVG 1.1//EN"
 "http://www.w3.org/Graphics/SVG/1.1/DTD/svg11.dtd">
<!-- Generated by graphviz version 2.36.0 (20140111.2315)
 -->
<!-- Title: /home/travis/build/igankevich/arma/src/generator/ma_coefficient_solver.cc Pages: 1 -->
<svg width="1936pt" height="422pt"
 viewBox="0.00 0.00 1936.00 422.00" xmlns="http://www.w3.org/2000/svg" xmlns:xlink="http://www.w3.org/1999/xlink">
<g id="graph0" class="graph" transform="scale(1 1) rotate(0) translate(4 418)">
<title>/home/travis/build/igankevich/arma/src/generator/ma_coefficient_solver.cc</title>
<!-- Node1 -->
<g id="node1" class="node"><title>Node1</title>
<polygon fill="#bfbfbf" stroke="black" points="814.5,-361 814.5,-413 941.5,-413 941.5,-361 814.5,-361"/>
<text text-anchor="start" x="822.5" y="-401" font-family="Helvetica,sans-Serif" font-size="10.00">/home/travis/build</text>
<text text-anchor="start" x="822.5" y="-390" font-family="Helvetica,sans-Serif" font-size="10.00">/igankevich/arma/src</text>
<text text-anchor="start" x="822.5" y="-379" font-family="Helvetica,sans-Serif" font-size="10.00">/generator/ma_coefficient</text>
<text text-anchor="middle" x="878" y="-368" font-family="Helvetica,sans-Serif" font-size="10.00">_solver.cc</text>
</g>
<!-- Node2 -->
<g id="node2" class="node"><title>Node2</title>
<g id="a_node2"><a xlink:href="ma__coefficient__solver_8hh.html" target="_top" xlink:title="ma_coefficient_solver.hh">
<polygon fill="none" stroke="black" points="815.5,-304.5 815.5,-323.5 940.5,-323.5 940.5,-304.5 815.5,-304.5"/>
<text text-anchor="middle" x="878" y="-311.5" font-family="Helvetica,sans-Serif" font-size="10.00">ma_coefficient_solver.hh</text>
</a>
</g>
</g>
<!-- Node1&#45;&gt;Node2 -->
<g id="edge1" class="edge"><title>Node1&#45;&gt;Node2</title>
<path fill="none" stroke="midnightblue" d="M878,-360.768C878,-351.89 878,-342.074 878,-333.816"/>
<polygon fill="midnightblue" stroke="midnightblue" points="881.5,-333.757 878,-323.757 874.5,-333.757 881.5,-333.757"/>
</g>
<!-- Node10 -->
<g id="node10" class="node"><title>Node10</title>
<polygon fill="none" stroke="#bfbfbf" points="365.5,-192.5 365.5,-211.5 424.5,-211.5 424.5,-192.5 365.5,-192.5"/>
<text text-anchor="middle" x="395" y="-199.5" font-family="Helvetica,sans-Serif" font-size="10.00">stdexcept</text>
</g>
<!-- Node1&#45;&gt;Node10 -->
<g id="edge62" class="edge"><title>Node1&#45;&gt;Node10</title>
<path fill="none" stroke="midnightblue" d="M814.167,-366.346C777.347,-354.69 730.304,-339.251 689,-324 590.497,-287.629 476.038,-238.494 423.733,-215.651"/>
<polygon fill="midnightblue" stroke="midnightblue" points="424.98,-212.376 414.416,-211.572 422.173,-218.789 424.98,-212.376"/>
</g>
<!-- Node40 -->
<g id="node40" class="node"><title>Node40</title>
<g id="a_node40"><a xlink:href="blitz_8hh.html" target="_top" xlink:title="blitz.hh">
<polygon fill="none" stroke="black" points="604,-192.5 604,-211.5 652,-211.5 652,-192.5 604,-192.5"/>
<text text-anchor="middle" x="628" y="-199.5" font-family="Helvetica,sans-Serif" font-size="10.00">blitz.hh</text>
</a>
</g>
</g>
<!-- Node1&#45;&gt;Node40 -->
<g id="edge63" class="edge"><title>Node1&#45;&gt;Node40</title>
<path fill="none" stroke="midnightblue" d="M843.763,-360.938C790.703,-322.098 690.303,-248.606 647.802,-217.495"/>
<polygon fill="midnightblue" stroke="midnightblue" points="649.786,-214.61 639.649,-211.527 645.651,-220.258 649.786,-214.61"/>
</g>
<!-- Node41 -->
<g id="node41" class="node"><title>Node41</title>
<polygon fill="none" stroke="#bfbfbf" points="1038,-304.5 1038,-323.5 1092,-323.5 1092,-304.5 1038,-304.5"/>
<text text-anchor="middle" x="1065" y="-311.5" font-family="Helvetica,sans-Serif" font-size="10.00">iostream</text>
</g>
<!-- Node1&#45;&gt;Node41 -->
<g id="edge60" class="edge"><title>Node1&#45;&gt;Node41</title>
<path fill="none" stroke="midnightblue" d="M941.571,-361.864C972.417,-350.152 1008.12,-336.595 1033.17,-327.085"/>
<polygon fill="midnightblue" stroke="midnightblue" points="1034.44,-330.348 1042.54,-323.526 1031.95,-323.803 1034.44,-330.348"/>
</g>
<!-- Node42 -->
<g id="node42" class="node"><title>Node42</title>
<polygon fill="none" stroke="#bfbfbf" points="1110,-304.5 1110,-323.5 1150,-323.5 1150,-304.5 1110,-304.5"/>
<text text-anchor="middle" x="1130" y="-311.5" font-family="Helvetica,sans-Serif" font-size="10.00">limits</text>
</g>
<!-- Node1&#45;&gt;Node42 -->
<g id="edge61" class="edge"><title>Node1&#45;&gt;Node42</title>
<path fill="none" stroke="midnightblue" d="M941.584,-368.862C983.919,-357.327 1041.01,-341.532 1099.89,-324.268"/>
<polygon fill="midnightblue" stroke="midnightblue" points="1101.14,-327.551 1109.74,-321.371 1099.16,-320.835 1101.14,-327.551"/>
</g>
<!-- Node43 -->
<g id="node43" class="node"><title>Node43</title>
<g id="a_node43"><a xlink:href="params_8hh.html" target="_top" xlink:title="params.hh">
<polygon fill="none" stroke="black" points="958,-304.5 958,-323.5 1020,-323.5 1020,-304.5 958,-304.5"/>
<text text-anchor="middle" x="989" y="-311.5" font-family="Helvetica,sans-Serif" font-size="10.00">params.hh</text>
</a>
</g>
</g>
<!-- Node1&#45;&gt;Node43 -->
<g id="edge64" class="edge"><title>Node1&#45;&gt;Node43</title>
<path fill="none" stroke="midnightblue" d="M917.134,-360.968C933.826,-350.291 952.687,-338.227 966.897,-329.138"/>
<polygon fill="midnightblue" stroke="midnightblue" points="968.956,-331.976 975.494,-323.639 965.184,-326.079 968.956,-331.976"/>
</g>
<!-- Node46 -->
<g id="node46" class="node"><title>Node46</title>
<g id="a_node46"><a xlink:href="validators_8hh.html" target="_top" xlink:title="validators.hh">
<polygon fill="none" stroke="black" points="592,-248.5 592,-267.5 664,-267.5 664,-248.5 592,-248.5"/>
<text text-anchor="middle" x="628" y="-255.5" font-family="Helvetica,sans-Serif" font-size="10.00">validators.hh</text>
</a>
</g>
</g>
<!-- Node1&#45;&gt;Node46 -->
<g id="edge68" class="edge"><title>Node1&#45;&gt;Node46</title>
<path fill="none" stroke="midnightblue" d="M814.236,-363.239C786.546,-352.533 754.091,-338.856 726,-324 697.488,-308.921 666.845,-287.699 647.56,-273.659"/>
<polygon fill="midnightblue" stroke="midnightblue" points="649.433,-270.692 639.305,-267.581 645.283,-276.328 649.433,-270.692"/>
</g>
<!-- Node3 -->
<g id="node3" class="node"><title>Node3</title>
<g id="a_node3"><a xlink:href="arma_8hh.html" target="_top" xlink:title="arma.hh">
<polygon fill="none" stroke="black" points="877,-248.5 877,-267.5 929,-267.5 929,-248.5 877,-248.5"/>
<text text-anchor="middle" x="903" y="-255.5" font-family="Helvetica,sans-Serif" font-size="10.00">arma.hh</text>
</a>
</g>
</g>
<!-- Node2&#45;&gt;Node3 -->
<g id="edge2" class="edge"><title>Node2&#45;&gt;Node3</title>
<path fill="none" stroke="midnightblue" d="M882.128,-304.083C885.514,-296.77 890.416,-286.181 894.619,-277.103"/>
<polygon fill="midnightblue" stroke="midnightblue" points="897.923,-278.296 898.949,-267.751 891.571,-275.355 897.923,-278.296"/>
</g>
<!-- Node4 -->
<g id="node4" class="node"><title>Node4</title>
<polygon fill="none" stroke="#bfbfbf" points="718,-136.5 718,-155.5 774,-155.5 774,-136.5 718,-136.5"/>
<text text-anchor="middle" x="746" y="-143.5" font-family="Helvetica,sans-Serif" font-size="10.00">algorithm</text>
</g>
<!-- Node3&#45;&gt;Node4 -->
<g id="edge3" class="edge"><title>Node3&#45;&gt;Node4</title>
<path fill="none" stroke="midnightblue" d="M876.679,-253.741C834.288,-247.891 753.918,-234.115 737,-212 726.751,-198.603 731.368,-178.959 737.083,-164.777"/>
<polygon fill="midnightblue" stroke="midnightblue" points="740.31,-166.136 741.242,-155.582 733.932,-163.251 740.31,-166.136"/>
</g>
<!-- Node5 -->
<g id="node5" class="node"><title>Node5</title>
<polygon fill="none" stroke="#bfbfbf" points="746.5,-192.5 746.5,-211.5 795.5,-211.5 795.5,-192.5 746.5,-192.5"/>
<text text-anchor="middle" x="771" y="-199.5" font-family="Helvetica,sans-Serif" font-size="10.00">cassert</text>
</g>
<!-- Node3&#45;&gt;Node5 -->
<g id="edge4" class="edge"><title>Node3&#45;&gt;Node5</title>
<path fill="none" stroke="midnightblue" d="M882.084,-248.444C860.264,-239.517 825.85,-225.439 801.108,-215.317"/>
<polygon fill="midnightblue" stroke="midnightblue" points="802.399,-212.063 791.818,-211.516 799.748,-218.542 802.399,-212.063"/>
</g>
<!-- Node6 -->
<g id="node6" class="node"><title>Node6</title>
<polygon fill="none" stroke="#bfbfbf" points="814,-192.5 814,-211.5 860,-211.5 860,-192.5 814,-192.5"/>
<text text-anchor="middle" x="837" y="-199.5" font-family="Helvetica,sans-Serif" font-size="10.00">chrono</text>
</g>
<!-- Node3&#45;&gt;Node6 -->
<g id="edge5" class="edge"><title>Node3&#45;&gt;Node6</title>
<path fill="none" stroke="midnightblue" d="M892.396,-248.324C882.544,-240.263 867.649,-228.077 855.785,-218.369"/>
<polygon fill="midnightblue" stroke="midnightblue" points="857.753,-215.457 847.797,-211.834 853.32,-220.875 857.753,-215.457"/>
</g>
<!-- Node7 -->
<g id="node7" class="node"><title>Node7</title>
<polygon fill="none" stroke="#bfbfbf" points="611,-6.5 611,-25.5 655,-25.5 655,-6.5 611,-6.5"/>
<text text-anchor="middle" x="633" y="-13.5" font-family="Helvetica,sans-Serif" font-size="10.00">cmath</text>
</g>
<!-- Node3&#45;&gt;Node7 -->
<g id="edge6" class="edge"><title>Node3&#45;&gt;Node7</title>
<path fill="none" stroke="midnightblue" d="M876.979,-256.953C839.71,-255.555 770.807,-247.859 727,-212 697.447,-187.809 655.571,-79.1204 639.566,-35.3498"/>
<polygon fill="midnightblue" stroke="midnightblue" points="642.851,-34.142 636.156,-25.9305 636.269,-36.5248 642.851,-34.142"/>
</g>
<!-- Node8 -->
<g id="node8" class="node"><title>Node8</title>
<polygon fill="none" stroke="#bfbfbf" points="1624.5,-192.5 1624.5,-211.5 1683.5,-211.5 1683.5,-192.5 1624.5,-192.5"/>
<text text-anchor="middle" x="1654" y="-199.5" font-family="Helvetica,sans-Serif" font-size="10.00">functional</text>
</g>
<!-- Node3&#45;&gt;Node8 -->
<g id="edge7" class="edge"><title>Node3&#45;&gt;Node8</title>
<path fill="none" stroke="midnightblue" d="M929.257,-249.652C932.19,-249.009 935.147,-248.438 938,-248 1232.48,-202.769 1314.79,-252.884 1614.01,-211.85"/>
<polygon fill="midnightblue" stroke="midnightblue" points="1614.87,-215.264 1624.29,-210.416 1613.9,-208.331 1614.87,-215.264"/>
</g>
<!-- Node9 -->
<g id="node9" class="node"><title>Node9</title>
<polygon fill="none" stroke="#bfbfbf" points="878.5,-192.5 878.5,-211.5 927.5,-211.5 927.5,-192.5 878.5,-192.5"/>
<text text-anchor="middle" x="903" y="-199.5" font-family="Helvetica,sans-Serif" font-size="10.00">random</text>
</g>
<!-- Node3&#45;&gt;Node9 -->
<g id="edge8" class="edge"><title>Node3&#45;&gt;Node9</title>
<path fill="none" stroke="midnightblue" d="M903,-248.083C903,-241.006 903,-230.861 903,-221.986"/>
<polygon fill="midnightblue" stroke="midnightblue" points="906.5,-221.751 903,-211.751 899.5,-221.751 906.5,-221.751"/>
</g>
<!-- Node3&#45;&gt;Node10 -->
<g id="edge9" class="edge"><title>Node3&#45;&gt;Node10</title>
<path fill="none" stroke="midnightblue" d="M876.917,-255.7C806.962,-251.961 609.253,-239.725 434.86,-211.921"/>
<polygon fill="midnightblue" stroke="midnightblue" points="435.161,-208.424 424.731,-210.284 434.044,-215.335 435.161,-208.424"/>
</g>
<!-- Node11 -->
<g id="node11" class="node"><title>Node11</title>
<polygon fill="none" stroke="#bfbfbf" points="342,-6.5 342,-25.5 394,-25.5 394,-6.5 342,-6.5"/>
<text text-anchor="middle" x="368" y="-13.5" font-family="Helvetica,sans-Serif" font-size="10.00">ostream</text>
</g>
<!-- Node3&#45;&gt;Node11 -->
<g id="edge10" class="edge"><title>Node3&#45;&gt;Node11</title>
<path fill="none" stroke="midnightblue" d="M876.607,-256.755C809.81,-255.589 636.416,-248.984 595,-212 545.629,-167.912 603.674,-114.934 557,-68 516.46,-27.234 446.97,-18.0748 404.492,-16.5517"/>
<polygon fill="midnightblue" stroke="midnightblue" points="404.388,-13.0484 394.309,-16.3143 404.224,-20.0465 404.388,-13.0484"/>
</g>
<!-- Node12 -->
<g id="node12" class="node"><title>Node12</title>
<polygon fill="none" stroke="#bfbfbf" points="946,-192.5 946,-211.5 996,-211.5 996,-192.5 946,-192.5"/>
<text text-anchor="middle" x="971" y="-199.5" font-family="Helvetica,sans-Serif" font-size="10.00">fstream</text>
</g>
<!-- Node3&#45;&gt;Node12 -->
<g id="edge11" class="edge"><title>Node3&#45;&gt;Node12</title>
<path fill="none" stroke="midnightblue" d="M913.925,-248.324C924.175,-240.185 939.721,-227.839 952.001,-218.087"/>
<polygon fill="midnightblue" stroke="midnightblue" points="954.221,-220.794 959.876,-211.834 949.868,-215.312 954.221,-220.794"/>
</g>
<!-- Node13 -->
<g id="node13" class="node"><title>Node13</title>
<polygon fill="none" stroke="#bfbfbf" points="1498,-6.5 1498,-25.5 1560,-25.5 1560,-6.5 1498,-6.5"/>
<text text-anchor="middle" x="1529" y="-13.5" font-family="Helvetica,sans-Serif" font-size="10.00">type_traits</text>
</g>
<!-- Node3&#45;&gt;Node13 -->
<g id="edge12" class="edge"><title>Node3&#45;&gt;Node13</title>
<path fill="none" stroke="midnightblue" d="M929.264,-249.696C932.195,-249.045 935.151,-248.46 938,-248 995.833,-238.666 1417.3,-247.362 1464,-212 1520.45,-169.26 1528.44,-75.6331 1529.18,-35.6741"/>
<polygon fill="midnightblue" stroke="midnightblue" points="1532.68,-35.5261 1529.23,-25.5101 1525.68,-35.4939 1532.68,-35.5261"/>
</g>
<!-- Node14 -->
<g id="node14" class="node"><title>Node14</title>
<polygon fill="none" stroke="#bfbfbf" points="1014.5,-192.5 1014.5,-211.5 1109.5,-211.5 1109.5,-192.5 1014.5,-192.5"/>
<text text-anchor="middle" x="1062" y="-199.5" font-family="Helvetica,sans-Serif" font-size="10.00">gsl/gsl_complex.h</text>
</g>
<!-- Node3&#45;&gt;Node14 -->
<g id="edge13" class="edge"><title>Node3&#45;&gt;Node14</title>
<path fill="none" stroke="midnightblue" d="M928.194,-248.444C954.943,-239.359 997.403,-224.939 1027.31,-214.783"/>
<polygon fill="midnightblue" stroke="midnightblue" points="1028.58,-218.046 1036.92,-211.516 1026.33,-211.418 1028.58,-218.046"/>
</g>
<!-- Node15 -->
<g id="node15" class="node"><title>Node15</title>
<polygon fill="none" stroke="#bfbfbf" points="1128,-192.5 1128,-211.5 1208,-211.5 1208,-192.5 1128,-192.5"/>
<text text-anchor="middle" x="1168" y="-199.5" font-family="Helvetica,sans-Serif" font-size="10.00">gsl/gsl_errno.h</text>
</g>
<!-- Node3&#45;&gt;Node15 -->
<g id="edge14" class="edge"><title>Node3&#45;&gt;Node15</title>
<path fill="none" stroke="midnightblue" d="M929.333,-250.053C932.252,-249.335 935.185,-248.637 938,-248 971.506,-240.421 1060.88,-223.261 1117.84,-212.458"/>
<polygon fill="midnightblue" stroke="midnightblue" points="1118.56,-215.884 1127.73,-210.584 1117.26,-209.007 1118.56,-215.884"/>
</g>
<!-- Node16 -->
<g id="node16" class="node"><title>Node16</title>
<polygon fill="none" stroke="#bfbfbf" points="1226.5,-192.5 1226.5,-211.5 1303.5,-211.5 1303.5,-192.5 1226.5,-192.5"/>
<text text-anchor="middle" x="1265" y="-199.5" font-family="Helvetica,sans-Serif" font-size="10.00">gsl/gsl_poly.h</text>
</g>
<!-- Node3&#45;&gt;Node16 -->
<g id="edge15" class="edge"><title>Node3&#45;&gt;Node16</title>
<path fill="none" stroke="midnightblue" d="M929.295,-249.868C932.22,-249.185 935.166,-248.545 938,-248 1057.66,-224.986 1091.79,-231.186 1216.34,-212.011"/>
<polygon fill="midnightblue" stroke="midnightblue" points="1216.92,-215.463 1226.26,-210.46 1215.84,-208.547 1216.92,-215.463"/>
</g>
<!-- Node17 -->
<g id="node17" class="node"><title>Node17</title>
<g id="a_node17"><a xlink:href="types_8hh.html" target="_top" xlink:title="types.hh">
<polygon fill="none" stroke="black" points="1439,-74.5 1439,-93.5 1493,-93.5 1493,-74.5 1439,-74.5"/>
<text text-anchor="middle" x="1466" y="-81.5" font-family="Helvetica,sans-Serif" font-size="10.00">types.hh</text>
</a>
</g>
</g>
<!-- Node3&#45;&gt;Node17 -->
<g id="edge16" class="edge"><title>Node3&#45;&gt;Node17</title>
<path fill="none" stroke="midnightblue" d="M929.266,-249.704C932.197,-249.052 935.151,-248.464 938,-248 993.412,-238.972 1400.08,-249.342 1442,-212 1472.48,-184.847 1471.76,-132.145 1468.79,-103.922"/>
<polygon fill="midnightblue" stroke="midnightblue" points="1472.24,-103.265 1467.51,-93.7817 1465.29,-104.141 1472.24,-103.265"/>
</g>
<!-- Node19 -->
<g id="node19" class="node"><title>Node19</title>
<g id="a_node19"><a xlink:href="statistics_8hh.html" target="_top" xlink:title="stats/statistics.hh">
<polygon fill="none" stroke="black" points="1321.5,-136.5 1321.5,-155.5 1416.5,-155.5 1416.5,-136.5 1321.5,-136.5"/>
<text text-anchor="middle" x="1369" y="-143.5" font-family="Helvetica,sans-Serif" font-size="10.00">stats/statistics.hh</text>
</a>
</g>
</g>
<!-- Node3&#45;&gt;Node19 -->
<g id="edge18" class="edge"><title>Node3&#45;&gt;Node19</title>
<path fill="none" stroke="midnightblue" d="M929.267,-249.711C932.198,-249.058 935.152,-248.468 938,-248 991.542,-239.209 1388.07,-251.756 1425,-212 1440.97,-194.811 1416.09,-174.169 1394.58,-160.829"/>
<polygon fill="midnightblue" stroke="midnightblue" points="1396.09,-157.656 1385.7,-155.591 1392.54,-163.686 1396.09,-157.656"/>
</g>
<!-- Node22 -->
<g id="node22" class="node"><title>Node22</title>
<g id="a_node22"><a xlink:href="distribution_8hh.html" target="_top" xlink:title="stats/distribution.hh">
<polygon fill="none" stroke="black" points="443,-192.5 443,-211.5 545,-211.5 545,-192.5 443,-192.5"/>
<text text-anchor="middle" x="494" y="-199.5" font-family="Helvetica,sans-Serif" font-size="10.00">stats/distribution.hh</text>
</a>
</g>
</g>
<!-- Node3&#45;&gt;Node22 -->
<g id="edge22" class="edge"><title>Node3&#45;&gt;Node22</title>
<path fill="none" stroke="midnightblue" d="M876.903,-253.56C819.808,-246.032 679.512,-227.53 562,-212 559.794,-211.708 557.547,-211.411 555.278,-211.111"/>
<polygon fill="midnightblue" stroke="midnightblue" points="555.612,-207.625 545.239,-209.784 554.694,-214.565 555.612,-207.625"/>
</g>
<!-- Node31 -->
<g id="node31" class="node"><title>Node31</title>
<g id="a_node31"><a xlink:href="qq__graph_8hh.html" target="_top" xlink:title="stats/qq_graph.hh">
<polygon fill="none" stroke="black" points="1321.5,-192.5 1321.5,-211.5 1416.5,-211.5 1416.5,-192.5 1321.5,-192.5"/>
<text text-anchor="middle" x="1369" y="-199.5" font-family="Helvetica,sans-Serif" font-size="10.00">stats/qq_graph.hh</text>
</a>
</g>
</g>
<!-- Node3&#45;&gt;Node31 -->
<g id="edge42" class="edge"><title>Node3&#45;&gt;Node31</title>
<path fill="none" stroke="midnightblue" d="M929.277,-249.775C932.206,-249.11 935.157,-248.499 938,-248 1099.26,-219.683 1144.58,-232.505 1311.33,-211.995"/>
<polygon fill="midnightblue" stroke="midnightblue" points="1311.96,-215.445 1321.45,-210.73 1311.09,-208.499 1311.96,-215.445"/>
</g>
<!-- Node32 -->
<g id="node32" class="node"><title>Node32</title>
<g id="a_node32"><a xlink:href="fourier_8hh.html" target="_top" xlink:title="fourier.hh">
<polygon fill="none" stroke="black" points="1549.5,-192.5 1549.5,-211.5 1606.5,-211.5 1606.5,-192.5 1549.5,-192.5"/>
<text text-anchor="middle" x="1578" y="-199.5" font-family="Helvetica,sans-Serif" font-size="10.00">fourier.hh</text>
</a>
</g>
</g>
<!-- Node3&#45;&gt;Node32 -->
<g id="edge46" class="edge"><title>Node3&#45;&gt;Node32</title>
<path fill="none" stroke="midnightblue" d="M929.26,-249.672C932.192,-249.026 935.149,-248.448 938,-248 1200.59,-206.711 1271.54,-247.322 1535,-212 1536.46,-211.804 1537.95,-211.585 1539.46,-211.35"/>
<polygon fill="midnightblue" stroke="midnightblue" points="1540.18,-214.776 1549.42,-209.589 1538.96,-207.883 1540.18,-214.776"/>
</g>
<!-- Node3&#45;&gt;Node40 -->
<g id="edge56" class="edge"><title>Node3&#45;&gt;Node40</title>
<path fill="none" stroke="midnightblue" d="M876.972,-252.453C833.262,-244.728 742.39,-228.29 666,-212 664.732,-211.73 663.441,-211.449 662.138,-211.162"/>
<polygon fill="midnightblue" stroke="midnightblue" points="662.613,-207.681 652.086,-208.877 661.061,-214.507 662.613,-207.681"/>
</g>
<!-- Node18 -->
<g id="node18" class="node"><title>Node18</title>
<polygon fill="none" stroke="#bfbfbf" points="1142,-6.5 1142,-25.5 1210,-25.5 1210,-6.5 1142,-6.5"/>
<text text-anchor="middle" x="1176" y="-13.5" font-family="Helvetica,sans-Serif" font-size="10.00">blitz/array.h</text>
</g>
<!-- Node17&#45;&gt;Node18 -->
<g id="edge17" class="edge"><title>Node17&#45;&gt;Node18</title>
<path fill="none" stroke="midnightblue" d="M1447.2,-74.3478C1441.73,-72.0571 1435.7,-69.7407 1430,-68 1357.97,-45.9953 1271.48,-30.9558 1220.28,-23.185"/>
<polygon fill="midnightblue" stroke="midnightblue" points="1220.62,-19.6975 1210.22,-21.6825 1219.59,-26.6208 1220.62,-19.6975"/>
</g>
<!-- Node19&#45;&gt;Node18 -->
<g id="edge19" class="edge"><title>Node19&#45;&gt;Node18</title>
<path fill="none" stroke="midnightblue" d="M1321.37,-141.543C1287.89,-136.843 1243.91,-125.813 1214,-100 1194.54,-83.2081 1184.49,-54.3829 1179.73,-35.5089"/>
<polygon fill="midnightblue" stroke="midnightblue" points="1183.13,-34.6917 1177.51,-25.7122 1176.31,-36.2385 1183.13,-34.6917"/>
</g>
<!-- Node20 -->
<g id="node20" class="node"><title>Node20</title>
<polygon fill="none" stroke="#bfbfbf" points="1223,-69 1223,-99 1313,-99 1313,-69 1223,-69"/>
<text text-anchor="start" x="1231" y="-87" font-family="Helvetica,sans-Serif" font-size="10.00">gsl/gsl_statistics</text>
<text text-anchor="middle" x="1268" y="-76" font-family="Helvetica,sans-Serif" font-size="10.00">_float.h</text>
</g>
<!-- Node19&#45;&gt;Node20 -->
<g id="edge20" class="edge"><title>Node19&#45;&gt;Node20</title>
<path fill="none" stroke="midnightblue" d="M1354.53,-136.403C1340.47,-128.049 1318.63,-115.075 1300.41,-104.252"/>
<polygon fill="midnightblue" stroke="midnightblue" points="1302.19,-101.239 1291.8,-99.1408 1298.61,-107.257 1302.19,-101.239"/>
</g>
<!-- Node21 -->
<g id="node21" class="node"><title>Node21</title>
<polygon fill="none" stroke="#bfbfbf" points="1331,-69 1331,-99 1421,-99 1421,-69 1331,-69"/>
<text text-anchor="start" x="1339" y="-87" font-family="Helvetica,sans-Serif" font-size="10.00">gsl/gsl_statistics</text>
<text text-anchor="middle" x="1376" y="-76" font-family="Helvetica,sans-Serif" font-size="10.00">_double.h</text>
</g>
<!-- Node19&#45;&gt;Node21 -->
<g id="edge21" class="edge"><title>Node19&#45;&gt;Node21</title>
<path fill="none" stroke="midnightblue" d="M1370,-136.403C1370.84,-129.265 1372.06,-118.752 1373.19,-109.09"/>
<polygon fill="midnightblue" stroke="midnightblue" points="1376.67,-109.479 1374.35,-99.1408 1369.71,-108.668 1376.67,-109.479"/>
</g>
<!-- Node23 -->
<g id="node23" class="node"><title>Node23</title>
<g id="a_node23"><a xlink:href="gaussian_8hh.html" target="_top" xlink:title="gaussian.hh">
<polygon fill="none" stroke="black" points="78.5,-74.5 78.5,-93.5 147.5,-93.5 147.5,-74.5 78.5,-74.5"/>
<text text-anchor="middle" x="113" y="-81.5" font-family="Helvetica,sans-Serif" font-size="10.00">gaussian.hh</text>
</a>
</g>
</g>
<!-- Node22&#45;&gt;Node23 -->
<g id="edge23" class="edge"><title>Node22&#45;&gt;Node23</title>
<path fill="none" stroke="midnightblue" d="M442.709,-193.322C359.194,-180.797 202.765,-157.229 200,-156 170.91,-143.073 143.536,-117.752 127.523,-101.107"/>
<polygon fill="midnightblue" stroke="midnightblue" points="130.004,-98.6363 120.617,-93.7247 124.892,-103.418 130.004,-98.6363"/>
</g>
<!-- Node26 -->
<g id="node26" class="node"><title>Node26</title>
<g id="a_node26"><a xlink:href="weibull_8hh.html" target="_top" xlink:title="weibull.hh">
<polygon fill="none" stroke="black" points="0,-74.5 0,-93.5 60,-93.5 60,-74.5 0,-74.5"/>
<text text-anchor="middle" x="30" y="-81.5" font-family="Helvetica,sans-Serif" font-size="10.00">weibull.hh</text>
</a>
</g>
</g>
<!-- Node22&#45;&gt;Node26 -->
<g id="edge27" class="edge"><title>Node22&#45;&gt;Node26</title>
<path fill="none" stroke="midnightblue" d="M442.752,-193.39C439.452,-192.915 436.18,-192.448 433,-192 313.995,-175.229 279.494,-192.531 165,-156 122.309,-142.379 77.0702,-115.743 51.305,-99.2494"/>
<polygon fill="midnightblue" stroke="midnightblue" points="53.0256,-96.1932 42.7344,-93.6746 49.2087,-102.061 53.0256,-96.1932"/>
</g>
<!-- Node27 -->
<g id="node27" class="node"><title>Node27</title>
<g id="a_node27"><a xlink:href="gram__charlier_8hh.html" target="_top" xlink:title="gram_charlier.hh">
<polygon fill="none" stroke="black" points="446.5,-136.5 446.5,-155.5 535.5,-155.5 535.5,-136.5 446.5,-136.5"/>
<text text-anchor="middle" x="491" y="-143.5" font-family="Helvetica,sans-Serif" font-size="10.00">gram_charlier.hh</text>
</a>
</g>
</g>
<!-- Node22&#45;&gt;Node27 -->
<g id="edge31" class="edge"><title>Node22&#45;&gt;Node27</title>
<path fill="none" stroke="midnightblue" d="M493.505,-192.083C493.111,-185.006 492.548,-174.861 492.055,-165.986"/>
<polygon fill="midnightblue" stroke="midnightblue" points="495.536,-165.542 491.486,-155.751 488.546,-165.93 495.536,-165.542"/>
</g>
<!-- Node29 -->
<g id="node29" class="node"><title>Node29</title>
<g id="a_node29"><a xlink:href="skew__normal_8hh.html" target="_top" xlink:title="skew_normal.hh">
<polygon fill="none" stroke="black" points="209,-136.5 209,-155.5 297,-155.5 297,-136.5 209,-136.5"/>
<text text-anchor="middle" x="253" y="-143.5" font-family="Helvetica,sans-Serif" font-size="10.00">skew_normal.hh</text>
</a>
</g>
</g>
<!-- Node22&#45;&gt;Node29 -->
<g id="edge37" class="edge"><title>Node22&#45;&gt;Node29</title>
<path fill="none" stroke="midnightblue" d="M455.813,-192.444C413.859,-183.043 346.406,-167.929 300.929,-157.739"/>
<polygon fill="midnightblue" stroke="midnightblue" points="301.532,-154.288 291.009,-155.516 300.001,-161.118 301.532,-154.288"/>
</g>
<!-- Node23&#45;&gt;Node11 -->
<g id="edge25" class="edge"><title>Node23&#45;&gt;Node11</title>
<path fill="none" stroke="midnightblue" d="M146.075,-74.4393C194.009,-62.0329 282.452,-39.1419 331.983,-26.322"/>
<polygon fill="midnightblue" stroke="midnightblue" points="333.129,-29.6407 341.933,-23.7466 331.375,-22.864 333.129,-29.6407"/>
</g>
<!-- Node24 -->
<g id="node24" class="node"><title>Node24</title>
<polygon fill="none" stroke="#bfbfbf" points="119.5,-6.5 119.5,-25.5 168.5,-25.5 168.5,-6.5 119.5,-6.5"/>
<text text-anchor="middle" x="144" y="-13.5" font-family="Helvetica,sans-Serif" font-size="10.00">istream</text>
</g>
<!-- Node23&#45;&gt;Node24 -->
<g id="edge24" class="edge"><title>Node23&#45;&gt;Node24</title>
<path fill="none" stroke="midnightblue" d="M117.053,-74.3717C121.715,-64.4461 129.498,-47.8743 135.505,-35.0864"/>
<polygon fill="midnightblue" stroke="midnightblue" points="138.764,-36.3804 139.847,-25.8411 132.428,-33.4044 138.764,-36.3804"/>
</g>
<!-- Node25 -->
<g id="node25" class="node"><title>Node25</title>
<polygon fill="none" stroke="#bfbfbf" points="27,-6.5 27,-25.5 99,-25.5 99,-6.5 27,-6.5"/>
<text text-anchor="middle" x="63" y="-13.5" font-family="Helvetica,sans-Serif" font-size="10.00">gsl/gsl_cdf.h</text>
</g>
<!-- Node23&#45;&gt;Node25 -->
<g id="edge26" class="edge"><title>Node23&#45;&gt;Node25</title>
<path fill="none" stroke="midnightblue" d="M106.463,-74.3717C98.7206,-64.1512 85.6394,-46.884 75.8463,-33.9571"/>
<polygon fill="midnightblue" stroke="midnightblue" points="78.5263,-31.6985 69.6978,-25.8411 72.9466,-35.9256 78.5263,-31.6985"/>
</g>
<!-- Node26&#45;&gt;Node11 -->
<g id="edge29" class="edge"><title>Node26&#45;&gt;Node11</title>
<path fill="none" stroke="midnightblue" d="M49.9869,-74.4396C56.0149,-72.0966 62.7042,-69.7292 69,-68 161.785,-42.5149 274.445,-27.4281 331.338,-20.8793"/>
<polygon fill="midnightblue" stroke="midnightblue" points="332.078,-24.3181 341.623,-19.719 331.293,-17.3622 332.078,-24.3181"/>
</g>
<!-- Node26&#45;&gt;Node24 -->
<g id="edge28" class="edge"><title>Node26&#45;&gt;Node24</title>
<path fill="none" stroke="midnightblue" d="M44.9035,-74.3717C64.1059,-63.2545 97.7097,-43.7997 120.401,-30.6624"/>
<polygon fill="midnightblue" stroke="midnightblue" points="122.192,-33.6699 129.093,-25.6305 118.685,-27.6119 122.192,-33.6699"/>
</g>
<!-- Node26&#45;&gt;Node25 -->
<g id="edge30" class="edge"><title>Node26&#45;&gt;Node25</title>
<path fill="none" stroke="midnightblue" d="M34.3142,-74.3717C39.277,-64.4461 47.5628,-47.8743 53.9568,-35.0864"/>
<polygon fill="midnightblue" stroke="midnightblue" points="57.2377,-36.3507 58.5794,-25.8411 50.9768,-33.2201 57.2377,-36.3507"/>
</g>
<!-- Node27&#45;&gt;Node7 -->
<g id="edge34" class="edge"><title>Node27&#45;&gt;Node7</title>
<path fill="none" stroke="midnightblue" d="M505.594,-136.412C519.449,-127.952 540.544,-114.257 557,-100 581.018,-79.1919 605.195,-51.3203 619.634,-33.7603"/>
<polygon fill="midnightblue" stroke="midnightblue" points="622.664,-35.581 626.244,-25.6095 617.227,-31.1717 622.664,-35.581"/>
</g>
<!-- Node27&#45;&gt;Node11 -->
<g id="edge33" class="edge"><title>Node27&#45;&gt;Node11</title>
<path fill="none" stroke="midnightblue" d="M475.121,-136.441C460.938,-128.298 440.127,-115.076 425,-100 405.035,-80.1021 387.606,-52.3404 377.44,-34.516"/>
<polygon fill="midnightblue" stroke="midnightblue" points="380.363,-32.5704 372.449,-25.5264 374.243,-35.9683 380.363,-32.5704"/>
</g>
<!-- Node27&#45;&gt;Node24 -->
<g id="edge32" class="edge"><title>Node27&#45;&gt;Node24</title>
<path fill="none" stroke="midnightblue" d="M472.754,-136.488C440.389,-121.559 370.625,-90.1401 310,-68 265.215,-51.6448 212.416,-36.0345 178.593,-26.4899"/>
<polygon fill="midnightblue" stroke="midnightblue" points="179.309,-23.0557 168.735,-23.7284 177.42,-29.7963 179.309,-23.0557"/>
</g>
<!-- Node28 -->
<g id="node28" class="node"><title>Node28</title>
<g id="a_node28"><a xlink:href="physical__constants_8hh.html" target="_top" xlink:title="physical_constants.hh">
<polygon fill="none" stroke="black" points="434,-74.5 434,-93.5 548,-93.5 548,-74.5 434,-74.5"/>
<text text-anchor="middle" x="491" y="-81.5" font-family="Helvetica,sans-Serif" font-size="10.00">physical_constants.hh</text>
</a>
</g>
</g>
<!-- Node27&#45;&gt;Node28 -->
<g id="edge35" class="edge"><title>Node27&#45;&gt;Node28</title>
<path fill="none" stroke="midnightblue" d="M491,-136.403C491,-127.938 491,-114.728 491,-103.82"/>
<polygon fill="midnightblue" stroke="midnightblue" points="494.5,-103.581 491,-93.5806 487.5,-103.581 494.5,-103.581"/>
</g>
<!-- Node28&#45;&gt;Node7 -->
<g id="edge36" class="edge"><title>Node28&#45;&gt;Node7</title>
<path fill="none" stroke="midnightblue" d="M509.564,-74.3717C533.908,-63.0569 576.834,-43.1053 605.099,-29.9678"/>
<polygon fill="midnightblue" stroke="midnightblue" points="606.838,-33.0193 614.431,-25.6305 603.888,-26.6715 606.838,-33.0193"/>
</g>
<!-- Node29&#45;&gt;Node11 -->
<g id="edge39" class="edge"><title>Node29&#45;&gt;Node11</title>
<path fill="none" stroke="midnightblue" d="M266.12,-136.315C278.29,-127.888 296.504,-114.308 310,-100 329.439,-79.3914 347.389,-51.8376 358.021,-34.2498"/>
<polygon fill="midnightblue" stroke="midnightblue" points="361.052,-35.9991 363.137,-25.6115 355.029,-32.4317 361.052,-35.9991"/>
</g>
<!-- Node29&#45;&gt;Node23 -->
<g id="edge40" class="edge"><title>Node29&#45;&gt;Node23</title>
<path fill="none" stroke="midnightblue" d="M232.941,-136.403C209.238,-126.245 169.594,-109.255 142.417,-97.6074"/>
<polygon fill="midnightblue" stroke="midnightblue" points="143.592,-94.3028 133.021,-93.5806 140.834,-100.737 143.592,-94.3028"/>
</g>
<!-- Node29&#45;&gt;Node24 -->
<g id="edge38" class="edge"><title>Node29&#45;&gt;Node24</title>
<path fill="none" stroke="midnightblue" d="M238.955,-136.221C226.43,-127.929 208.103,-114.613 195,-100 176.973,-79.8952 161.594,-52.5827 152.572,-34.8738"/>
<polygon fill="midnightblue" stroke="midnightblue" points="155.596,-33.0932 148.023,-25.6839 149.323,-36.1987 155.596,-33.0932"/>
</g>
<!-- Node30 -->
<g id="node30" class="node"><title>Node30</title>
<g id="a_node30"><a xlink:href="owen__t_8hh.html" target="_top" xlink:title="apmath/owen_t.hh">
<polygon fill="none" stroke="black" points="204.5,-74.5 204.5,-93.5 301.5,-93.5 301.5,-74.5 204.5,-74.5"/>
<text text-anchor="middle" x="253" y="-81.5" font-family="Helvetica,sans-Serif" font-size="10.00">apmath/owen_t.hh</text>
</a>
</g>
</g>
<!-- Node29&#45;&gt;Node30 -->
<g id="edge41" class="edge"><title>Node29&#45;&gt;Node30</title>
<path fill="none" stroke="midnightblue" d="M253,-136.403C253,-127.938 253,-114.728 253,-103.82"/>
<polygon fill="midnightblue" stroke="midnightblue" points="256.5,-103.581 253,-93.5806 249.5,-103.581 256.5,-103.581"/>
</g>
<!-- Node31&#45;&gt;Node4 -->
<g id="edge44" class="edge"><title>Node31&#45;&gt;Node4</title>
<path fill="none" stroke="midnightblue" d="M1321.45,-193.211C1318.26,-192.775 1315.08,-192.366 1312,-192 1114.03,-168.536 875.606,-154.06 784.204,-149.016"/>
<polygon fill="midnightblue" stroke="midnightblue" points="784.226,-145.512 774.05,-148.461 783.844,-152.501 784.226,-145.512"/>
</g>
<!-- Node31&#45;&gt;Node18 -->
<g id="edge43" class="edge"><title>Node31&#45;&gt;Node18</title>
<path fill="none" stroke="midnightblue" d="M1336.11,-192.428C1294.36,-179.704 1223.49,-151.582 1188,-100 1174.94,-81.0191 1173.44,-53.7883 1174.2,-35.7603"/>
<polygon fill="midnightblue" stroke="midnightblue" points="1177.7,-35.8698 1174.9,-25.6508 1170.72,-35.3835 1177.7,-35.8698"/>
</g>
<!-- Node31&#45;&gt;Node19 -->
<g id="edge45" class="edge"><title>Node31&#45;&gt;Node19</title>
<path fill="none" stroke="midnightblue" d="M1369,-192.083C1369,-185.006 1369,-174.861 1369,-165.986"/>
<polygon fill="midnightblue" stroke="midnightblue" points="1372.5,-165.751 1369,-155.751 1365.5,-165.751 1372.5,-165.751"/>
</g>
<!-- Node33 -->
<g id="node33" class="node"><title>Node33</title>
<g id="a_node33"><a xlink:href="apmath_2fourier__gsl_8hh.html" target="_top" xlink:title="apmath/fourier_gsl.hh">
<polygon fill="none" stroke="black" points="1576,-136.5 1576,-155.5 1686,-155.5 1686,-136.5 1576,-136.5"/>
<text text-anchor="middle" x="1631" y="-143.5" font-family="Helvetica,sans-Serif" font-size="10.00">apmath/fourier_gsl.hh</text>
</a>
</g>
</g>
<!-- Node32&#45;&gt;Node33 -->
<g id="edge47" class="edge"><title>Node32&#45;&gt;Node33</title>
<path fill="none" stroke="midnightblue" d="M1586.75,-192.083C1594.47,-184.22 1605.9,-172.569 1615.22,-163.081"/>
<polygon fill="midnightblue" stroke="midnightblue" points="1617.9,-165.34 1622.41,-155.751 1612.91,-160.436 1617.9,-165.34"/>
</g>
<!-- Node33&#45;&gt;Node17 -->
<g id="edge55" class="edge"><title>Node33&#45;&gt;Node17</title>
<path fill="none" stroke="midnightblue" d="M1607.36,-136.403C1578.93,-126.067 1531.06,-108.656 1499,-96.9994"/>
<polygon fill="midnightblue" stroke="midnightblue" points="1500.19,-93.7088 1489.6,-93.5806 1497.8,-100.287 1500.19,-93.7088"/>
</g>
<!-- Node34 -->
<g id="node34" class="node"><title>Node34</title>
<polygon fill="none" stroke="#bfbfbf" points="1875.5,-74.5 1875.5,-93.5 1928.5,-93.5 1928.5,-74.5 1875.5,-74.5"/>
<text text-anchor="middle" x="1902" y="-81.5" font-family="Helvetica,sans-Serif" font-size="10.00">complex</text>
</g>
<!-- Node33&#45;&gt;Node34 -->
<g id="edge48" class="edge"><title>Node33&#45;&gt;Node34</title>
<path fill="none" stroke="midnightblue" d="M1686.38,-137.683C1734.49,-130.55 1805.73,-118.116 1866,-100 1868.64,-99.2051 1871.36,-98.2829 1874.06,-97.294"/>
<polygon fill="midnightblue" stroke="midnightblue" points="1875.57,-100.46 1883.58,-93.529 1872.99,-93.9502 1875.57,-100.46"/>
</g>
<!-- Node35 -->
<g id="node35" class="node"><title>Node35</title>
<polygon fill="none" stroke="#bfbfbf" points="1549,-74.5 1549,-93.5 1593,-93.5 1593,-74.5 1549,-74.5"/>
<text text-anchor="middle" x="1571" y="-81.5" font-family="Helvetica,sans-Serif" font-size="10.00">vector</text>
</g>
<!-- Node33&#45;&gt;Node35 -->
<g id="edge49" class="edge"><title>Node33&#45;&gt;Node35</title>
<path fill="none" stroke="midnightblue" d="M1622.4,-136.403C1613.14,-127.136 1598.18,-112.183 1586.79,-100.788"/>
<polygon fill="midnightblue" stroke="midnightblue" points="1589.13,-98.1768 1579.58,-93.5806 1584.18,-103.127 1589.13,-98.1768"/>
</g>
<!-- Node36 -->
<g id="node36" class="node"><title>Node36</title>
<g id="a_node36"><a xlink:href="fourier__direction_8hh.html" target="_top" xlink:title="apmath/fourier_direction.hh">
<polygon fill="none" stroke="black" points="1723,-74.5 1723,-93.5 1857,-93.5 1857,-74.5 1723,-74.5"/>
<text text-anchor="middle" x="1790" y="-81.5" font-family="Helvetica,sans-Serif" font-size="10.00">apmath/fourier_direction.hh</text>
</a>
</g>
</g>
<!-- Node33&#45;&gt;Node36 -->
<g id="edge50" class="edge"><title>Node33&#45;&gt;Node36</title>
<path fill="none" stroke="midnightblue" d="M1653.78,-136.403C1681.05,-126.111 1726.91,-108.806 1757.8,-97.1504"/>
<polygon fill="midnightblue" stroke="midnightblue" points="1759.14,-100.386 1767.26,-93.5806 1756.67,-93.8366 1759.14,-100.386"/>
</g>
<!-- Node37 -->
<g id="node37" class="node"><title>Node37</title>
<g id="a_node37"><a xlink:href="bits_2fourier__gsl_8hh.html" target="_top" xlink:title="bits/fourier_gsl.hh">
<polygon fill="none" stroke="black" points="1611,-74.5 1611,-93.5 1705,-93.5 1705,-74.5 1611,-74.5"/>
<text text-anchor="middle" x="1658" y="-81.5" font-family="Helvetica,sans-Serif" font-size="10.00">bits/fourier_gsl.hh</text>
</a>
</g>
</g>
<!-- Node33&#45;&gt;Node37 -->
<g id="edge51" class="edge"><title>Node33&#45;&gt;Node37</title>
<path fill="none" stroke="midnightblue" d="M1634.87,-136.403C1638.8,-127.671 1645,-113.889 1649.99,-102.794"/>
<polygon fill="midnightblue" stroke="midnightblue" points="1653.23,-104.136 1654.14,-93.5806 1646.84,-101.264 1653.23,-104.136"/>
</g>
<!-- Node37&#45;&gt;Node13 -->
<g id="edge54" class="edge"><title>Node37&#45;&gt;Node13</title>
<path fill="none" stroke="midnightblue" d="M1641.14,-74.3717C1619.21,-63.1557 1580.7,-43.4532 1555.02,-30.3136"/>
<polygon fill="midnightblue" stroke="midnightblue" points="1556.37,-27.0694 1545.87,-25.6305 1553.18,-33.3011 1556.37,-27.0694"/>
</g>
<!-- Node38 -->
<g id="node38" class="node"><title>Node38</title>
<polygon fill="none" stroke="#bfbfbf" points="1594,-6.5 1594,-25.5 1704,-25.5 1704,-6.5 1594,-6.5"/>
<text text-anchor="middle" x="1649" y="-13.5" font-family="Helvetica,sans-Serif" font-size="10.00">gsl/gsl_fft_complex.h</text>
</g>
<!-- Node37&#45;&gt;Node38 -->
<g id="edge52" class="edge"><title>Node37&#45;&gt;Node38</title>
<path fill="none" stroke="midnightblue" d="M1656.82,-74.3717C1655.5,-64.6426 1653.3,-48.528 1651.57,-35.8504"/>
<polygon fill="midnightblue" stroke="midnightblue" points="1655.02,-35.2765 1650.21,-25.8411 1648.09,-36.2223 1655.02,-35.2765"/>
</g>
<!-- Node39 -->
<g id="node39" class="node"><title>Node39</title>
<polygon fill="none" stroke="#bfbfbf" points="1722.5,-1 1722.5,-31 1823.5,-31 1823.5,-1 1722.5,-1"/>
<text text-anchor="start" x="1730.5" y="-19" font-family="Helvetica,sans-Serif" font-size="10.00">gsl/gsl_fft_complex</text>
<text text-anchor="middle" x="1773" y="-8" font-family="Helvetica,sans-Serif" font-size="10.00">_float.h</text>
</g>
<!-- Node37&#45;&gt;Node39 -->
<g id="edge53" class="edge"><title>Node37&#45;&gt;Node39</title>
<path fill="none" stroke="midnightblue" d="M1673.03,-74.3717C1689.84,-64.7286 1717.57,-48.8124 1739.57,-36.1874"/>
<polygon fill="midnightblue" stroke="midnightblue" points="1741.36,-39.1947 1748.29,-31.1815 1737.87,-33.1235 1741.36,-39.1947"/>
</g>
<!-- Node40&#45;&gt;Node4 -->
<g id="edge57" class="edge"><title>Node40&#45;&gt;Node4</title>
<path fill="none" stroke="midnightblue" d="M646.697,-192.444C665.944,-183.636 696.152,-169.812 718.2,-159.722"/>
<polygon fill="midnightblue" stroke="midnightblue" points="719.753,-162.86 727.39,-155.516 716.84,-156.495 719.753,-162.86"/>
</g>
<!-- Node40&#45;&gt;Node7 -->
<g id="edge59" class="edge"><title>Node40&#45;&gt;Node7</title>
<path fill="none" stroke="midnightblue" d="M628.241,-192.125C629.012,-163.769 631.426,-74.9299 632.489,-35.8108"/>
<polygon fill="midnightblue" stroke="midnightblue" points="635.988,-35.8771 632.761,-25.7857 628.991,-35.6869 635.988,-35.8771"/>
</g>
<!-- Node40&#45;&gt;Node18 -->
<g id="edge58" class="edge"><title>Node40&#45;&gt;Node18</title>
<path fill="none" stroke="midnightblue" d="M636.126,-192.437C649.83,-178.502 678.992,-150.975 709,-136 853.63,-63.8246 1045.93,-32.8132 1131.58,-21.9408"/>
<polygon fill="midnightblue" stroke="midnightblue" points="1132.24,-25.3864 1141.73,-20.6839 1131.38,-18.4395 1132.24,-25.3864"/>
</g>
<!-- Node43&#45;&gt;Node8 -->
<g id="edge65" class="edge"><title>Node43&#45;&gt;Node8</title>
<path fill="none" stroke="midnightblue" d="M997.347,-304.281C1012.04,-289.587 1044.2,-260.296 1078,-248 1187.54,-208.154 1481.26,-228.407 1614.22,-211.752"/>
<polygon fill="midnightblue" stroke="midnightblue" points="1614.85,-215.199 1624.28,-210.373 1613.9,-208.264 1614.85,-215.199"/>
</g>
<!-- Node44 -->
<g id="node44" class="node"><title>Node44</title>
<polygon fill="none" stroke="#bfbfbf" points="1087.5,-248.5 1087.5,-267.5 1128.5,-267.5 1128.5,-248.5 1087.5,-248.5"/>
<text text-anchor="middle" x="1108" y="-255.5" font-family="Helvetica,sans-Serif" font-size="10.00">string</text>
</g>
<!-- Node43&#45;&gt;Node44 -->
<g id="edge66" class="edge"><title>Node43&#45;&gt;Node44</title>
<path fill="none" stroke="midnightblue" d="M1007.86,-304.444C1027.27,-295.636 1057.73,-281.812 1079.96,-271.722"/>
<polygon fill="midnightblue" stroke="midnightblue" points="1081.57,-274.836 1089.23,-267.516 1078.68,-268.462 1081.57,-274.836"/>
</g>
<!-- Node45 -->
<g id="node45" class="node"><title>Node45</title>
<polygon fill="none" stroke="#bfbfbf" points="947.5,-248.5 947.5,-267.5 1030.5,-267.5 1030.5,-248.5 947.5,-248.5"/>
<text text-anchor="middle" x="989" y="-255.5" font-family="Helvetica,sans-Serif" font-size="10.00">unordered_map</text>
</g>
<!-- Node43&#45;&gt;Node45 -->
<g id="edge67" class="edge"><title>Node43&#45;&gt;Node45</title>
<path fill="none" stroke="midnightblue" d="M989,-304.083C989,-297.006 989,-286.861 989,-277.986"/>
<polygon fill="midnightblue" stroke="midnightblue" points="992.5,-277.751 989,-267.751 985.5,-277.751 992.5,-277.751"/>
</g>
<!-- Node46&#45;&gt;Node10 -->
<g id="edge69" class="edge"><title>Node46&#45;&gt;Node10</title>
<path fill="none" stroke="midnightblue" d="M591.849,-248.622C549.159,-238.728 478.401,-222.329 434.36,-212.122"/>
<polygon fill="midnightblue" stroke="midnightblue" points="435.112,-208.704 424.58,-209.855 433.531,-215.523 435.112,-208.704"/>
</g>
<!-- Node46&#45;&gt;Node40 -->
<g id="edge70" class="edge"><title>Node46&#45;&gt;Node40</title>
<path fill="none" stroke="midnightblue" d="M628,-248.083C628,-241.006 628,-230.861 628,-221.986"/>
<polygon fill="midnightblue" stroke="midnightblue" points="631.5,-221.751 628,-211.751 624.5,-221.751 631.5,-221.751"/>
</g>
</g>
</svg>
