<?xml version="1.0" encoding="UTF-8" standalone="no"?>
<!DOCTYPE svg PUBLIC "-//W3C//DTD SVG 1.1//EN"
 "http://www.w3.org/Graphics/SVG/1.1/DTD/svg11.dtd">
<!-- Generated by graphviz version 2.36.0 (20140111.2315)
 -->
<!-- Title: /home/travis/build/igankevich/arma/src/generator/ma_model.hh Pages: 1 -->
<svg width="2239pt" height="386pt"
 viewBox="0.00 0.00 2239.00 386.00" xmlns="http://www.w3.org/2000/svg" xmlns:xlink="http://www.w3.org/1999/xlink">
<g id="graph0" class="graph" transform="scale(1 1) rotate(0) translate(4 382)">
<title>/home/travis/build/igankevich/arma/src/generator/ma_model.hh</title>
<!-- Node1 -->
<g id="node1" class="node"><title>Node1</title>
<polygon fill="#bfbfbf" stroke="black" points="1512,-336.5 1512,-377.5 1634,-377.5 1634,-336.5 1512,-336.5"/>
<text text-anchor="start" x="1520" y="-365.5" font-family="Helvetica,sans-Serif" font-size="10.00">/home/travis/build</text>
<text text-anchor="start" x="1520" y="-354.5" font-family="Helvetica,sans-Serif" font-size="10.00">/igankevich/arma/src</text>
<text text-anchor="middle" x="1573" y="-343.5" font-family="Helvetica,sans-Serif" font-size="10.00">/generator/ma_model.hh</text>
</g>
<!-- Node2 -->
<g id="node2" class="node"><title>Node2</title>
<g id="a_node2"><a xlink:href="arma_8hh.html" target="_top" xlink:title="arma.hh">
<polygon fill="none" stroke="black" points="1647,-280.5 1647,-299.5 1699,-299.5 1699,-280.5 1647,-280.5"/>
<text text-anchor="middle" x="1673" y="-287.5" font-family="Helvetica,sans-Serif" font-size="10.00">arma.hh</text>
</a>
</g>
</g>
<!-- Node1&#45;&gt;Node2 -->
<g id="edge1" class="edge"><title>Node1&#45;&gt;Node2</title>
<path fill="none" stroke="midnightblue" d="M1603,-336.498C1618.48,-326.436 1637.02,-314.385 1651.13,-305.214"/>
<polygon fill="midnightblue" stroke="midnightblue" points="1653.21,-308.037 1659.69,-299.652 1649.4,-302.168 1653.21,-308.037"/>
</g>
<!-- Node3 -->
<g id="node3" class="node"><title>Node3</title>
<g id="a_node3"><a xlink:href="types_8hh.html" target="_top" xlink:title="types.hh">
<polygon fill="none" stroke="black" points="1646,-168.5 1646,-187.5 1700,-187.5 1700,-168.5 1646,-168.5"/>
<text text-anchor="middle" x="1673" y="-175.5" font-family="Helvetica,sans-Serif" font-size="10.00">types.hh</text>
</a>
</g>
</g>
<!-- Node1&#45;&gt;Node3 -->
<g id="edge85" class="edge"><title>Node1&#45;&gt;Node3</title>
<path fill="none" stroke="midnightblue" d="M1634.25,-346.334C1661.64,-338.625 1691.44,-324.794 1708,-300 1729.86,-267.265 1703.67,-220.741 1686.2,-196.004"/>
<polygon fill="midnightblue" stroke="midnightblue" points="1688.8,-193.634 1680.05,-187.664 1683.17,-197.79 1688.8,-193.634"/>
</g>
<!-- Node5 -->
<g id="node5" class="node"><title>Node5</title>
<g id="a_node5"><a xlink:href="basic__arma__model_8hh.html" target="_top" xlink:title="basic_arma_model.hh">
<polygon fill="none" stroke="black" points="1517,-280.5 1517,-299.5 1629,-299.5 1629,-280.5 1517,-280.5"/>
<text text-anchor="middle" x="1573" y="-287.5" font-family="Helvetica,sans-Serif" font-size="10.00">basic_arma_model.hh</text>
</a>
</g>
</g>
<!-- Node1&#45;&gt;Node5 -->
<g id="edge4" class="edge"><title>Node1&#45;&gt;Node5</title>
<path fill="none" stroke="midnightblue" d="M1573,-336.498C1573,-328.065 1573,-318.235 1573,-309.874"/>
<polygon fill="midnightblue" stroke="midnightblue" points="1576.5,-309.652 1573,-299.652 1569.5,-309.653 1576.5,-309.652"/>
</g>
<!-- Node29 -->
<g id="node29" class="node"><title>Node29</title>
<g id="a_node29"><a xlink:href="discrete__function_8hh.html" target="_top" xlink:title="discrete_function.hh">
<polygon fill="none" stroke="black" points="1526,-224.5 1526,-243.5 1630,-243.5 1630,-224.5 1526,-224.5"/>
<text text-anchor="middle" x="1578" y="-231.5" font-family="Helvetica,sans-Serif" font-size="10.00">discrete_function.hh</text>
</a>
</g>
</g>
<!-- Node1&#45;&gt;Node29 -->
<g id="edge81" class="edge"><title>Node1&#45;&gt;Node29</title>
<path fill="none" stroke="midnightblue" d="M1537.88,-336.469C1516.88,-322.064 1496.35,-301.334 1508,-280 1515.82,-265.679 1530.36,-255.236 1544.18,-248.036"/>
<polygon fill="midnightblue" stroke="midnightblue" points="1546.02,-251.034 1553.53,-243.562 1543,-244.719 1546.02,-251.034"/>
</g>
<!-- Node47 -->
<g id="node47" class="node"><title>Node47</title>
<g id="a_node47"><a xlink:href="ma__algorithm_8hh.html" target="_top" xlink:title="ma_algorithm.hh">
<polygon fill="none" stroke="black" points="987.5,-112.5 987.5,-131.5 1076.5,-131.5 1076.5,-112.5 987.5,-112.5"/>
<text text-anchor="middle" x="1032" y="-119.5" font-family="Helvetica,sans-Serif" font-size="10.00">ma_algorithm.hh</text>
</a>
</g>
</g>
<!-- Node1&#45;&gt;Node47 -->
<g id="edge82" class="edge"><title>Node1&#45;&gt;Node47</title>
<path fill="none" stroke="midnightblue" d="M1519.62,-336.45C1439.6,-306.707 1284.24,-247.264 1156,-188 1120.55,-171.617 1080.75,-150.194 1056.03,-136.512"/>
<polygon fill="midnightblue" stroke="midnightblue" points="1057.47,-133.306 1047.03,-131.502 1054.06,-139.423 1057.47,-133.306"/>
</g>
<!-- Node2&#45;&gt;Node3 -->
<g id="edge2" class="edge"><title>Node2&#45;&gt;Node3</title>
<path fill="none" stroke="midnightblue" d="M1673,-280.368C1673,-262.617 1673,-221.666 1673,-197.597"/>
<polygon fill="midnightblue" stroke="midnightblue" points="1676.5,-197.591 1673,-187.591 1669.5,-197.591 1676.5,-197.591"/>
</g>
<!-- Node4 -->
<g id="node4" class="node"><title>Node4</title>
<polygon fill="none" stroke="#bfbfbf" points="1431,-0.5 1431,-19.5 1499,-19.5 1499,-0.5 1431,-0.5"/>
<text text-anchor="middle" x="1465" y="-7.5" font-family="Helvetica,sans-Serif" font-size="10.00">blitz/array.h</text>
</g>
<!-- Node3&#45;&gt;Node4 -->
<g id="edge3" class="edge"><title>Node3&#45;&gt;Node4</title>
<path fill="none" stroke="midnightblue" d="M1700.06,-169.926C1703.07,-169.232 1706.09,-168.574 1709,-168 1817.84,-146.52 1848.66,-160.036 1956,-132 2026.78,-113.512 2151.87,-109.519 2102,-56 2081.79,-34.3137 1650.65,-17.4514 1509.38,-12.4914"/>
<polygon fill="midnightblue" stroke="midnightblue" points="1509.45,-8.99169 1499.33,-12.1415 1509.2,-15.9875 1509.45,-8.99169"/>
</g>
<!-- Node6 -->
<g id="node6" class="node"><title>Node6</title>
<polygon fill="none" stroke="#bfbfbf" points="2187,-56.5 2187,-75.5 2231,-75.5 2231,-56.5 2187,-56.5"/>
<text text-anchor="middle" x="2209" y="-63.5" font-family="Helvetica,sans-Serif" font-size="10.00">vector</text>
</g>
<!-- Node5&#45;&gt;Node6 -->
<g id="edge5" class="edge"><title>Node5&#45;&gt;Node6</title>
<path fill="none" stroke="midnightblue" d="M1629.04,-280.806C1703.85,-269.727 1829.38,-250.595 1850,-244 1984.52,-200.976 2131.72,-114.703 2186.68,-80.9718"/>
<polygon fill="midnightblue" stroke="midnightblue" points="2188.61,-83.8972 2195.27,-75.6637 2184.93,-77.942 2188.61,-83.8972"/>
</g>
<!-- Node7 -->
<g id="node7" class="node"><title>Node7</title>
<g id="a_node7"><a xlink:href="basic__model_8hh.html" target="_top" xlink:title="basic_model.hh">
<polygon fill="none" stroke="black" points="1422.5,-224.5 1422.5,-243.5 1507.5,-243.5 1507.5,-224.5 1422.5,-224.5"/>
<text text-anchor="middle" x="1465" y="-231.5" font-family="Helvetica,sans-Serif" font-size="10.00">basic_model.hh</text>
</a>
</g>
</g>
<!-- Node5&#45;&gt;Node7 -->
<g id="edge6" class="edge"><title>Node5&#45;&gt;Node7</title>
<path fill="none" stroke="midnightblue" d="M1555.65,-280.324C1538.33,-271.664 1511.48,-258.242 1491.5,-248.249"/>
<polygon fill="midnightblue" stroke="midnightblue" points="1492.82,-244.996 1482.31,-243.655 1489.69,-251.257 1492.82,-244.996"/>
</g>
<!-- Node5&#45;&gt;Node29 -->
<g id="edge39" class="edge"><title>Node5&#45;&gt;Node29</title>
<path fill="none" stroke="midnightblue" d="M1573.83,-280.083C1574.48,-273.006 1575.42,-262.861 1576.24,-253.986"/>
<polygon fill="midnightblue" stroke="midnightblue" points="1579.75,-254.031 1577.19,-243.751 1572.78,-253.386 1579.75,-254.031"/>
</g>
<!-- Node30 -->
<g id="node30" class="node"><title>Node30</title>
<g id="a_node30"><a xlink:href="nit__transform_8hh.html" target="_top" xlink:title="nonlinear/nit_transform.hh">
<polygon fill="none" stroke="black" points="631.5,-224.5 631.5,-243.5 760.5,-243.5 760.5,-224.5 631.5,-224.5"/>
<text text-anchor="middle" x="696" y="-231.5" font-family="Helvetica,sans-Serif" font-size="10.00">nonlinear/nit_transform.hh</text>
</a>
</g>
</g>
<!-- Node5&#45;&gt;Node30 -->
<g id="edge42" class="edge"><title>Node5&#45;&gt;Node30</title>
<path fill="none" stroke="midnightblue" d="M1516.81,-285.54C1364.37,-276.154 942.958,-250.206 770.769,-239.604"/>
<polygon fill="midnightblue" stroke="midnightblue" points="770.976,-236.11 760.779,-238.989 770.545,-243.097 770.976,-236.11"/>
</g>
<!-- Node44 -->
<g id="node44" class="node"><title>Node44</title>
<g id="a_node44"><a xlink:href="params_8hh.html" target="_top" xlink:title="params.hh">
<polygon fill="none" stroke="black" points="1780,-224.5 1780,-243.5 1842,-243.5 1842,-224.5 1780,-224.5"/>
<text text-anchor="middle" x="1811" y="-231.5" font-family="Helvetica,sans-Serif" font-size="10.00">params.hh</text>
</a>
</g>
</g>
<!-- Node5&#45;&gt;Node44 -->
<g id="edge77" class="edge"><title>Node5&#45;&gt;Node44</title>
<path fill="none" stroke="midnightblue" d="M1610.71,-280.444C1654.12,-270.594 1725.18,-254.471 1769.95,-244.313"/>
<polygon fill="midnightblue" stroke="midnightblue" points="1770.93,-247.68 1779.91,-242.054 1769.38,-240.853 1770.93,-247.68"/>
</g>
<!-- Node7&#45;&gt;Node3 -->
<g id="edge38" class="edge"><title>Node7&#45;&gt;Node3</title>
<path fill="none" stroke="midnightblue" d="M1497.96,-224.444C1535.58,-214.677 1596.95,-198.742 1636.13,-188.571"/>
<polygon fill="midnightblue" stroke="midnightblue" points="1637.03,-191.954 1645.83,-186.054 1635.27,-185.179 1637.03,-191.954"/>
</g>
<!-- Node8 -->
<g id="node8" class="node"><title>Node8</title>
<polygon fill="none" stroke="#bfbfbf" points="1224.5,-56.5 1224.5,-75.5 1273.5,-75.5 1273.5,-56.5 1224.5,-56.5"/>
<text text-anchor="middle" x="1249" y="-63.5" font-family="Helvetica,sans-Serif" font-size="10.00">istream</text>
</g>
<!-- Node7&#45;&gt;Node8 -->
<g id="edge7" class="edge"><title>Node7&#45;&gt;Node8</title>
<path fill="none" stroke="midnightblue" d="M1453.69,-224.309C1418.77,-197.472 1312.36,-115.694 1268.36,-81.8776"/>
<polygon fill="midnightblue" stroke="midnightblue" points="1270.26,-78.9236 1260.2,-75.6051 1265.99,-84.4739 1270.26,-78.9236"/>
</g>
<!-- Node9 -->
<g id="node9" class="node"><title>Node9</title>
<polygon fill="none" stroke="#bfbfbf" points="419,-56.5 419,-75.5 471,-75.5 471,-56.5 419,-56.5"/>
<text text-anchor="middle" x="445" y="-63.5" font-family="Helvetica,sans-Serif" font-size="10.00">ostream</text>
</g>
<!-- Node7&#45;&gt;Node9 -->
<g id="edge8" class="edge"><title>Node7&#45;&gt;Node9</title>
<path fill="none" stroke="midnightblue" d="M1422.35,-231.868C1278.04,-227.841 808.809,-213.096 660,-188 570.665,-172.934 528.256,-195.866 464,-132 451.893,-119.967 447.408,-100.676 445.793,-86.2293"/>
<polygon fill="midnightblue" stroke="midnightblue" points="449.258,-85.6253 445.022,-75.9137 442.277,-86.1467 449.258,-85.6253"/>
</g>
<!-- Node10 -->
<g id="node10" class="node"><title>Node10</title>
<g id="a_node10"><a xlink:href="grid_8hh.html" target="_top" xlink:title="grid.hh">
<polygon fill="none" stroke="black" points="1442,-168.5 1442,-187.5 1488,-187.5 1488,-168.5 1442,-168.5"/>
<text text-anchor="middle" x="1465" y="-175.5" font-family="Helvetica,sans-Serif" font-size="10.00">grid.hh</text>
</a>
</g>
</g>
<!-- Node7&#45;&gt;Node10 -->
<g id="edge9" class="edge"><title>Node7&#45;&gt;Node10</title>
<path fill="none" stroke="midnightblue" d="M1465,-224.083C1465,-217.006 1465,-206.861 1465,-197.986"/>
<polygon fill="midnightblue" stroke="midnightblue" points="1468.5,-197.751 1465,-187.751 1461.5,-197.751 1468.5,-197.751"/>
</g>
<!-- Node16 -->
<g id="node16" class="node"><title>Node16</title>
<g id="a_node16"><a xlink:href="output__flags_8hh.html" target="_top" xlink:title="output_flags.hh">
<polygon fill="none" stroke="black" points="1506.5,-168.5 1506.5,-187.5 1589.5,-187.5 1589.5,-168.5 1506.5,-168.5"/>
<text text-anchor="middle" x="1548" y="-175.5" font-family="Helvetica,sans-Serif" font-size="10.00">output_flags.hh</text>
</a>
</g>
</g>
<!-- Node7&#45;&gt;Node16 -->
<g id="edge19" class="edge"><title>Node7&#45;&gt;Node16</title>
<path fill="none" stroke="midnightblue" d="M1478.34,-224.324C1491.16,-215.979 1510.78,-203.212 1525.94,-193.352"/>
<polygon fill="midnightblue" stroke="midnightblue" points="1528.22,-196.042 1534.7,-187.655 1524.41,-190.174 1528.22,-196.042"/>
</g>
<!-- Node20 -->
<g id="node20" class="node"><title>Node20</title>
<g id="a_node20"><a xlink:href="parallel__mt_8hh.html" target="_top" xlink:title="parallel_mt.hh">
<polygon fill="none" stroke="black" points="1870.5,-112.5 1870.5,-131.5 1947.5,-131.5 1947.5,-112.5 1870.5,-112.5"/>
<text text-anchor="middle" x="1909" y="-119.5" font-family="Helvetica,sans-Serif" font-size="10.00">parallel_mt.hh</text>
</a>
</g>
</g>
<!-- Node7&#45;&gt;Node20 -->
<g id="edge25" class="edge"><title>Node7&#45;&gt;Node20</title>
<path fill="none" stroke="midnightblue" d="M1494.26,-224.465C1521.52,-216.194 1563.09,-202.763 1598,-188 1615.94,-180.413 1618.49,-174.065 1637,-168 1729.83,-137.588 1759.79,-148.543 1860.29,-132.041"/>
<polygon fill="midnightblue" stroke="midnightblue" points="1860.97,-135.477 1870.24,-130.356 1859.8,-128.575 1860.97,-135.477"/>
</g>
<!-- Node10&#45;&gt;Node8 -->
<g id="edge11" class="edge"><title>Node10&#45;&gt;Node8</title>
<path fill="none" stroke="midnightblue" d="M1455.36,-168.349C1439.83,-154.781 1407.88,-128.359 1377,-112 1347.05,-96.1336 1310.32,-83.8861 1283.91,-76.2023"/>
<polygon fill="midnightblue" stroke="midnightblue" points="1284.55,-72.7458 1273.97,-73.3858 1282.64,-79.4805 1284.55,-72.7458"/>
</g>
<!-- Node11 -->
<g id="node11" class="node"><title>Node11</title>
<polygon fill="none" stroke="#bfbfbf" points="1023,-0.5 1023,-19.5 1067,-19.5 1067,-0.5 1023,-0.5"/>
<text text-anchor="middle" x="1045" y="-7.5" font-family="Helvetica,sans-Serif" font-size="10.00">cmath</text>
</g>
<!-- Node10&#45;&gt;Node11 -->
<g id="edge10" class="edge"><title>Node10&#45;&gt;Node11</title>
<path fill="none" stroke="midnightblue" d="M1459.15,-168.367C1449.6,-154.823 1429.46,-128.434 1407,-112 1303.29,-36.1087 1144.88,-17.2094 1077.33,-12.5286"/>
<polygon fill="midnightblue" stroke="midnightblue" points="1077.49,-9.03196 1067.29,-11.8929 1077.05,-16.018 1077.49,-9.03196"/>
</g>
<!-- Node12 -->
<g id="node12" class="node"><title>Node12</title>
<g id="a_node12"><a xlink:href="blitz_8hh.html" target="_top" xlink:title="blitz.hh">
<polygon fill="none" stroke="black" points="1467,-56.5 1467,-75.5 1515,-75.5 1515,-56.5 1467,-56.5"/>
<text text-anchor="middle" x="1491" y="-63.5" font-family="Helvetica,sans-Serif" font-size="10.00">blitz.hh</text>
</a>
</g>
</g>
<!-- Node10&#45;&gt;Node12 -->
<g id="edge12" class="edge"><title>Node10&#45;&gt;Node12</title>
<path fill="none" stroke="midnightblue" d="M1488.07,-170.517C1532.09,-158.143 1623.74,-132.348 1624,-132 1629.36,-124.91 1629.18,-119.223 1624,-112 1618.03,-103.672 1562.5,-86.8634 1525.1,-76.3121"/>
<polygon fill="midnightblue" stroke="midnightblue" points="1525.67,-72.8356 1515.09,-73.5143 1523.78,-79.5772 1525.67,-72.8356"/>
</g>
<!-- Node14 -->
<g id="node14" class="node"><title>Node14</title>
<g id="a_node14"><a xlink:href="validators_8hh.html" target="_top" xlink:title="validators.hh">
<polygon fill="none" stroke="black" points="1543,-112.5 1543,-131.5 1615,-131.5 1615,-112.5 1543,-112.5"/>
<text text-anchor="middle" x="1579" y="-119.5" font-family="Helvetica,sans-Serif" font-size="10.00">validators.hh</text>
</a>
</g>
</g>
<!-- Node10&#45;&gt;Node14 -->
<g id="edge16" class="edge"><title>Node10&#45;&gt;Node14</title>
<path fill="none" stroke="midnightblue" d="M1483.06,-168.444C1501.57,-159.675 1530.58,-145.935 1551.86,-135.858"/>
<polygon fill="midnightblue" stroke="midnightblue" points="1553.48,-138.96 1561.02,-131.516 1550.49,-132.634 1553.48,-138.96"/>
</g>
<!-- Node12&#45;&gt;Node4 -->
<g id="edge14" class="edge"><title>Node12&#45;&gt;Node4</title>
<path fill="none" stroke="midnightblue" d="M1486.71,-56.083C1483.15,-48.6913 1477.98,-37.9533 1473.58,-28.8111"/>
<polygon fill="midnightblue" stroke="midnightblue" points="1476.71,-27.2427 1469.21,-19.7511 1470.4,-30.2795 1476.71,-27.2427"/>
</g>
<!-- Node12&#45;&gt;Node11 -->
<g id="edge15" class="edge"><title>Node12&#45;&gt;Node11</title>
<path fill="none" stroke="midnightblue" d="M1466.7,-62.0584C1391.48,-52.951 1162.39,-25.2137 1077.29,-14.909"/>
<polygon fill="midnightblue" stroke="midnightblue" points="1077.53,-11.4128 1067.18,-13.6853 1076.69,-18.362 1077.53,-11.4128"/>
</g>
<!-- Node13 -->
<g id="node13" class="node"><title>Node13</title>
<polygon fill="none" stroke="#bfbfbf" points="1837,-0.5 1837,-19.5 1893,-19.5 1893,-0.5 1837,-0.5"/>
<text text-anchor="middle" x="1865" y="-7.5" font-family="Helvetica,sans-Serif" font-size="10.00">algorithm</text>
</g>
<!-- Node12&#45;&gt;Node13 -->
<g id="edge13" class="edge"><title>Node12&#45;&gt;Node13</title>
<path fill="none" stroke="midnightblue" d="M1515.06,-58.0346C1518.06,-57.2867 1521.09,-56.5862 1524,-56 1632.74,-34.1013 1763.21,-20.2897 1826.63,-14.3587"/>
<polygon fill="midnightblue" stroke="midnightblue" points="1827.31,-17.8111 1836.94,-13.4085 1826.66,-10.8406 1827.31,-17.8111"/>
</g>
<!-- Node14&#45;&gt;Node12 -->
<g id="edge18" class="edge"><title>Node14&#45;&gt;Node12</title>
<path fill="none" stroke="midnightblue" d="M1564.86,-112.324C1551.13,-103.9 1530.06,-90.9709 1513.94,-81.0741"/>
<polygon fill="midnightblue" stroke="midnightblue" points="1515.46,-77.9016 1505.1,-75.6545 1511.8,-83.8678 1515.46,-77.9016"/>
</g>
<!-- Node15 -->
<g id="node15" class="node"><title>Node15</title>
<polygon fill="none" stroke="#bfbfbf" points="1533.5,-56.5 1533.5,-75.5 1592.5,-75.5 1592.5,-56.5 1533.5,-56.5"/>
<text text-anchor="middle" x="1563" y="-63.5" font-family="Helvetica,sans-Serif" font-size="10.00">stdexcept</text>
</g>
<!-- Node14&#45;&gt;Node15 -->
<g id="edge17" class="edge"><title>Node14&#45;&gt;Node15</title>
<path fill="none" stroke="midnightblue" d="M1576.36,-112.083C1574.21,-104.849 1571.12,-94.4087 1568.45,-85.3968"/>
<polygon fill="midnightblue" stroke="midnightblue" points="1571.79,-84.3447 1565.59,-75.7511 1565.08,-86.3334 1571.79,-84.3447"/>
</g>
<!-- Node16&#45;&gt;Node8 -->
<g id="edge21" class="edge"><title>Node16&#45;&gt;Node8</title>
<path fill="none" stroke="midnightblue" d="M1531.43,-168.337C1505.43,-154.986 1453.26,-129.132 1407,-112 1365.37,-96.5808 1315.95,-83.2759 1283.61,-75.2146"/>
<polygon fill="midnightblue" stroke="midnightblue" points="1284.28,-71.7767 1273.74,-72.7855 1282.61,-78.5739 1284.28,-71.7767"/>
</g>
<!-- Node16&#45;&gt;Node9 -->
<g id="edge22" class="edge"><title>Node16&#45;&gt;Node9</title>
<path fill="none" stroke="midnightblue" d="M1506.31,-169.22C1503.17,-168.763 1500.04,-168.349 1497,-168 1201.62,-134.103 1116.79,-206.664 829,-132 809.375,-126.909 807.416,-117.839 788,-112 679.806,-79.4604 545.408,-70.4441 481.74,-67.9504"/>
<polygon fill="midnightblue" stroke="midnightblue" points="481.538,-64.441 471.419,-67.5798 481.287,-71.4365 481.538,-64.441"/>
</g>
<!-- Node17 -->
<g id="node17" class="node"><title>Node17</title>
<polygon fill="none" stroke="#bfbfbf" points="1671.5,-112.5 1671.5,-131.5 1712.5,-131.5 1712.5,-112.5 1671.5,-112.5"/>
<text text-anchor="middle" x="1692" y="-119.5" font-family="Helvetica,sans-Serif" font-size="10.00">bitset</text>
</g>
<!-- Node16&#45;&gt;Node17 -->
<g id="edge20" class="edge"><title>Node16&#45;&gt;Node17</title>
<path fill="none" stroke="midnightblue" d="M1570.82,-168.444C1595.4,-159.226 1634.62,-144.516 1661.76,-134.34"/>
<polygon fill="midnightblue" stroke="midnightblue" points="1663.03,-137.604 1671.16,-130.815 1660.57,-131.049 1663.03,-137.604"/>
</g>
<!-- Node18 -->
<g id="node18" class="node"><title>Node18</title>
<polygon fill="none" stroke="#bfbfbf" points="1811.5,-112.5 1811.5,-131.5 1852.5,-131.5 1852.5,-112.5 1811.5,-112.5"/>
<text text-anchor="middle" x="1832" y="-119.5" font-family="Helvetica,sans-Serif" font-size="10.00">string</text>
</g>
<!-- Node16&#45;&gt;Node18 -->
<g id="edge23" class="edge"><title>Node16&#45;&gt;Node18</title>
<path fill="none" stroke="midnightblue" d="M1589.54,-170.165C1650.57,-160.027 1761.52,-141.215 1801,-132 1801.21,-131.951 1801.42,-131.901 1801.64,-131.85"/>
<polygon fill="midnightblue" stroke="midnightblue" points="1802.61,-135.215 1811.4,-129.311 1800.84,-128.44 1802.61,-135.215"/>
</g>
<!-- Node19 -->
<g id="node19" class="node"><title>Node19</title>
<polygon fill="none" stroke="#bfbfbf" points="1731,-112.5 1731,-131.5 1793,-131.5 1793,-112.5 1731,-112.5"/>
<text text-anchor="middle" x="1762" y="-119.5" font-family="Helvetica,sans-Serif" font-size="10.00">type_traits</text>
</g>
<!-- Node16&#45;&gt;Node19 -->
<g id="edge24" class="edge"><title>Node16&#45;&gt;Node19</title>
<path fill="none" stroke="midnightblue" d="M1581.91,-168.444C1619.61,-158.93 1680.5,-143.565 1720.89,-133.374"/>
<polygon fill="midnightblue" stroke="midnightblue" points="1721.85,-136.742 1730.69,-130.902 1720.13,-129.955 1721.85,-136.742"/>
</g>
<!-- Node20&#45;&gt;Node6 -->
<g id="edge33" class="edge"><title>Node20&#45;&gt;Node6</title>
<path fill="none" stroke="midnightblue" d="M1947.65,-115.356C1999.24,-107.606 2093.37,-92.715 2173,-76 2174.28,-75.732 2175.58,-75.4501 2176.89,-75.1581"/>
<polygon fill="midnightblue" stroke="midnightblue" points="2178.04,-78.4824 2186.98,-72.7879 2176.44,-71.668 2178.04,-78.4824"/>
</g>
<!-- Node20&#45;&gt;Node8 -->
<g id="edge30" class="edge"><title>Node20&#45;&gt;Node8</title>
<path fill="none" stroke="midnightblue" d="M1870.29,-113.356C1867.15,-112.855 1864.03,-112.394 1861,-112 1642.29,-83.5459 1377.09,-71.684 1283.62,-68.1867"/>
<polygon fill="midnightblue" stroke="midnightblue" points="1283.71,-64.6878 1273.59,-67.8191 1283.45,-71.6831 1283.71,-64.6878"/>
</g>
<!-- Node20&#45;&gt;Node13 -->
<g id="edge27" class="edge"><title>Node20&#45;&gt;Node13</title>
<path fill="none" stroke="midnightblue" d="M1947.54,-120.64C2015.42,-118.679 2145.24,-108.219 2102,-56 2077.24,-26.1013 1964.08,-15.9074 1903.51,-12.5584"/>
<polygon fill="midnightblue" stroke="midnightblue" points="1903.37,-9.0465 1893.2,-12.0264 1903.01,-16.0372 1903.37,-9.0465"/>
</g>
<!-- Node20&#45;&gt;Node15 -->
<g id="edge32" class="edge"><title>Node20&#45;&gt;Node15</title>
<path fill="none" stroke="midnightblue" d="M1870.26,-113.571C1867.13,-113.021 1864.01,-112.491 1861,-112 1749.01,-93.7581 1717.38,-97.2534 1602.69,-76.1802"/>
<polygon fill="midnightblue" stroke="midnightblue" points="1603.29,-72.7315 1592.81,-74.3437 1602.01,-79.6134 1603.29,-72.7315"/>
</g>
<!-- Node21 -->
<g id="node21" class="node"><title>Node21</title>
<polygon fill="none" stroke="#bfbfbf" points="1663.5,-56.5 1663.5,-75.5 1708.5,-75.5 1708.5,-56.5 1663.5,-56.5"/>
<text text-anchor="middle" x="1686" y="-63.5" font-family="Helvetica,sans-Serif" font-size="10.00">cstdlib</text>
</g>
<!-- Node20&#45;&gt;Node21 -->
<g id="edge26" class="edge"><title>Node20&#45;&gt;Node21</title>
<path fill="none" stroke="midnightblue" d="M1870.47,-112.431C1833.85,-104.173 1777,-91.0641 1718.48,-76.0385"/>
<polygon fill="midnightblue" stroke="midnightblue" points="1719.25,-72.6229 1708.69,-73.5118 1717.5,-79.4007 1719.25,-72.6229"/>
</g>
<!-- Node22 -->
<g id="node22" class="node"><title>Node22</title>
<polygon fill="none" stroke="#bfbfbf" points="1727,-56.5 1727,-75.5 1773,-75.5 1773,-56.5 1727,-56.5"/>
<text text-anchor="middle" x="1750" y="-63.5" font-family="Helvetica,sans-Serif" font-size="10.00">cstdint</text>
</g>
<!-- Node20&#45;&gt;Node22 -->
<g id="edge28" class="edge"><title>Node20&#45;&gt;Node22</title>
<path fill="none" stroke="midnightblue" d="M1883.81,-112.444C1856.43,-103.145 1812.59,-88.2572 1782.61,-78.0735"/>
<polygon fill="midnightblue" stroke="midnightblue" points="1783.61,-74.7169 1773.01,-74.8151 1781.35,-81.3451 1783.61,-74.7169"/>
</g>
<!-- Node23 -->
<g id="node23" class="node"><title>Node23</title>
<polygon fill="none" stroke="#bfbfbf" points="1791,-56.5 1791,-75.5 1837,-75.5 1837,-56.5 1791,-56.5"/>
<text text-anchor="middle" x="1814" y="-63.5" font-family="Helvetica,sans-Serif" font-size="10.00">cstring</text>
</g>
<!-- Node20&#45;&gt;Node23 -->
<g id="edge29" class="edge"><title>Node20&#45;&gt;Node23</title>
<path fill="none" stroke="midnightblue" d="M1893.74,-112.324C1878.78,-103.822 1855.75,-90.7288 1838.27,-80.7975"/>
<polygon fill="midnightblue" stroke="midnightblue" points="1839.65,-77.5534 1829.23,-75.6545 1836.19,-83.639 1839.65,-77.5534"/>
</g>
<!-- Node24 -->
<g id="node24" class="node"><title>Node24</title>
<polygon fill="none" stroke="#bfbfbf" points="1855,-56.5 1855,-75.5 1895,-75.5 1895,-56.5 1855,-56.5"/>
<text text-anchor="middle" x="1875" y="-63.5" font-family="Helvetica,sans-Serif" font-size="10.00">limits</text>
</g>
<!-- Node20&#45;&gt;Node24 -->
<g id="edge31" class="edge"><title>Node20&#45;&gt;Node24</title>
<path fill="none" stroke="midnightblue" d="M1903.39,-112.083C1898.63,-104.534 1891.68,-93.4948 1885.85,-84.2298"/>
<polygon fill="midnightblue" stroke="midnightblue" points="1888.8,-82.3486 1880.51,-75.7511 1882.88,-86.0783 1888.8,-82.3486"/>
</g>
<!-- Node25 -->
<g id="node25" class="node"><title>Node25</title>
<polygon fill="none" stroke="#bfbfbf" points="1913,-56.5 1913,-75.5 1963,-75.5 1963,-56.5 1913,-56.5"/>
<text text-anchor="middle" x="1938" y="-63.5" font-family="Helvetica,sans-Serif" font-size="10.00">fstream</text>
</g>
<!-- Node20&#45;&gt;Node25 -->
<g id="edge34" class="edge"><title>Node20&#45;&gt;Node25</title>
<path fill="none" stroke="midnightblue" d="M1913.79,-112.083C1917.76,-104.691 1923.53,-93.9533 1928.43,-84.8111"/>
<polygon fill="midnightblue" stroke="midnightblue" points="1931.65,-86.217 1933.3,-75.7511 1925.49,-82.9051 1931.65,-86.217"/>
</g>
<!-- Node26 -->
<g id="node26" class="node"><title>Node26</title>
<polygon fill="none" stroke="#bfbfbf" points="1981.5,-56.5 1981.5,-75.5 2028.5,-75.5 2028.5,-56.5 1981.5,-56.5"/>
<text text-anchor="middle" x="2005" y="-63.5" font-family="Helvetica,sans-Serif" font-size="10.00">iterator</text>
</g>
<!-- Node20&#45;&gt;Node26 -->
<g id="edge35" class="edge"><title>Node20&#45;&gt;Node26</title>
<path fill="none" stroke="midnightblue" d="M1924.42,-112.324C1939.54,-103.822 1962.82,-90.7288 1980.47,-80.7975"/>
<polygon fill="midnightblue" stroke="midnightblue" points="1982.61,-83.6077 1989.61,-75.6545 1979.18,-77.5066 1982.61,-83.6077"/>
</g>
<!-- Node27 -->
<g id="node27" class="node"><title>Node27</title>
<polygon fill="none" stroke="#bfbfbf" points="2047,-56.5 2047,-75.5 2093,-75.5 2093,-56.5 2047,-56.5"/>
<text text-anchor="middle" x="2070" y="-63.5" font-family="Helvetica,sans-Serif" font-size="10.00">chrono</text>
</g>
<!-- Node20&#45;&gt;Node27 -->
<g id="edge36" class="edge"><title>Node20&#45;&gt;Node27</title>
<path fill="none" stroke="midnightblue" d="M1934.51,-112.444C1962.31,-103.119 2006.88,-88.1716 2037.25,-77.9858"/>
<polygon fill="midnightblue" stroke="midnightblue" points="2038.59,-81.2274 2046.96,-74.729 2036.36,-74.5907 2038.59,-81.2274"/>
</g>
<!-- Node28 -->
<g id="node28" class="node"><title>Node28</title>
<polygon fill="none" stroke="#bfbfbf" points="1610.5,-56.5 1610.5,-75.5 1645.5,-75.5 1645.5,-56.5 1610.5,-56.5"/>
<text text-anchor="middle" x="1628" y="-63.5" font-family="Helvetica,sans-Serif" font-size="10.00">dc.h</text>
</g>
<!-- Node20&#45;&gt;Node28 -->
<g id="edge37" class="edge"><title>Node20&#45;&gt;Node28</title>
<path fill="none" stroke="midnightblue" d="M1870.5,-113.734C1867.28,-113.142 1864.09,-112.558 1861,-112 1772.25,-95.9627 1746.18,-99.1024 1655.39,-76.0376"/>
<polygon fill="midnightblue" stroke="midnightblue" points="1656.06,-72.5958 1645.5,-73.4884 1654.31,-79.3742 1656.06,-72.5958"/>
</g>
<!-- Node29&#45;&gt;Node3 -->
<g id="edge41" class="edge"><title>Node29&#45;&gt;Node3</title>
<path fill="none" stroke="midnightblue" d="M1593.26,-224.324C1608.22,-215.822 1631.25,-202.729 1648.73,-192.797"/>
<polygon fill="midnightblue" stroke="midnightblue" points="1650.81,-195.639 1657.77,-187.655 1647.35,-189.553 1650.81,-195.639"/>
</g>
<!-- Node29&#45;&gt;Node10 -->
<g id="edge40" class="edge"><title>Node29&#45;&gt;Node10</title>
<path fill="none" stroke="midnightblue" d="M1560.09,-224.444C1541.75,-215.675 1512.99,-201.935 1491.91,-191.858"/>
<polygon fill="midnightblue" stroke="midnightblue" points="1493.35,-188.67 1482.82,-187.516 1490.33,-194.986 1493.35,-188.67"/>
</g>
<!-- Node30&#45;&gt;Node3 -->
<g id="edge69" class="edge"><title>Node30&#45;&gt;Node3</title>
<path fill="none" stroke="midnightblue" d="M760.634,-231.319C908.887,-227.126 1284.76,-214.576 1598,-188 1610.33,-186.954 1623.76,-185.456 1635.8,-183.982"/>
<polygon fill="midnightblue" stroke="midnightblue" points="1636.48,-187.424 1645.97,-182.704 1635.61,-180.479 1636.48,-187.424"/>
</g>
<!-- Node30&#45;&gt;Node8 -->
<g id="edge43" class="edge"><title>Node30&#45;&gt;Node8</title>
<path fill="none" stroke="midnightblue" d="M760.538,-231.811C895.87,-228.722 1199.8,-218.442 1235,-188 1263.96,-162.956 1258.96,-112.813 1253.55,-85.5999"/>
<polygon fill="midnightblue" stroke="midnightblue" points="1256.96,-84.7911 1251.38,-75.7834 1250.12,-86.3034 1256.96,-84.7911"/>
</g>
<!-- Node30&#45;&gt;Node9 -->
<g id="edge44" class="edge"><title>Node30&#45;&gt;Node9</title>
<path fill="none" stroke="midnightblue" d="M631.479,-232.208C499.518,-228.922 207.195,-212.52 160,-132 155.505,-124.331 154.226,-118.758 160,-112 191.571,-75.0524 339.018,-68.2618 408.544,-67.1391"/>
<polygon fill="midnightblue" stroke="midnightblue" points="408.655,-70.638 418.609,-67.0077 408.564,-63.6386 408.655,-70.638"/>
</g>
<!-- Node31 -->
<g id="node31" class="node"><title>Node31</title>
<g id="a_node31"><a xlink:href="gaussian_8hh.html" target="_top" xlink:title="stats/gaussian.hh">
<polygon fill="none" stroke="black" points="169,-112.5 169,-131.5 263,-131.5 263,-112.5 169,-112.5"/>
<text text-anchor="middle" x="216" y="-119.5" font-family="Helvetica,sans-Serif" font-size="10.00">stats/gaussian.hh</text>
</a>
</g>
</g>
<!-- Node30&#45;&gt;Node31 -->
<g id="edge45" class="edge"><title>Node30&#45;&gt;Node31</title>
<path fill="none" stroke="midnightblue" d="M631.397,-230.279C533.625,-225.404 353.188,-213.242 294,-188 268.28,-177.031 244.486,-154.7 230.107,-139.298"/>
<polygon fill="midnightblue" stroke="midnightblue" points="232.432,-136.65 223.134,-131.57 227.235,-141.34 232.432,-136.65"/>
</g>
<!-- Node33 -->
<g id="node33" class="node"><title>Node33</title>
<g id="a_node33"><a xlink:href="skew__normal_8hh.html" target="_top" xlink:title="stats/skew_normal.hh">
<polygon fill="none" stroke="black" points="303.5,-168.5 303.5,-187.5 416.5,-187.5 416.5,-168.5 303.5,-168.5"/>
<text text-anchor="middle" x="360" y="-175.5" font-family="Helvetica,sans-Serif" font-size="10.00">stats/skew_normal.hh</text>
</a>
</g>
</g>
<!-- Node30&#45;&gt;Node33 -->
<g id="edge49" class="edge"><title>Node30&#45;&gt;Node33</title>
<path fill="none" stroke="midnightblue" d="M642.76,-224.444C583.04,-214.846 486.259,-199.292 422.868,-189.104"/>
<polygon fill="midnightblue" stroke="midnightblue" points="423.42,-185.648 412.991,-187.516 422.309,-192.559 423.42,-185.648"/>
</g>
<!-- Node35 -->
<g id="node35" class="node"><title>Node35</title>
<g id="a_node35"><a xlink:href="gram__charlier_8hh.html" target="_top" xlink:title="stats/gram_charlier.hh">
<polygon fill="none" stroke="black" points="-0.5,-112.5 -0.5,-131.5 112.5,-131.5 112.5,-112.5 -0.5,-112.5"/>
<text text-anchor="middle" x="56" y="-119.5" font-family="Helvetica,sans-Serif" font-size="10.00">stats/gram_charlier.hh</text>
</a>
</g>
</g>
<!-- Node30&#45;&gt;Node35 -->
<g id="edge54" class="edge"><title>Node30&#45;&gt;Node35</title>
<path fill="none" stroke="midnightblue" d="M631.064,-233.121C501.554,-232.513 215.945,-226.67 127,-188 102.914,-177.528 81.6433,-155.417 68.8082,-139.904"/>
<polygon fill="midnightblue" stroke="midnightblue" points="71.2287,-137.324 62.2684,-131.671 65.7474,-141.678 71.2287,-137.324"/>
</g>
<!-- Node37 -->
<g id="node37" class="node"><title>Node37</title>
<g id="a_node37"><a xlink:href="linalg_8hh.html" target="_top" xlink:title="linalg.hh">
<polygon fill="none" stroke="black" points="669.5,-168.5 669.5,-187.5 722.5,-187.5 722.5,-168.5 669.5,-168.5"/>
<text text-anchor="middle" x="696" y="-175.5" font-family="Helvetica,sans-Serif" font-size="10.00">linalg.hh</text>
</a>
</g>
</g>
<!-- Node30&#45;&gt;Node37 -->
<g id="edge60" class="edge"><title>Node30&#45;&gt;Node37</title>
<path fill="none" stroke="midnightblue" d="M696,-224.083C696,-217.006 696,-206.861 696,-197.986"/>
<polygon fill="midnightblue" stroke="midnightblue" points="699.5,-197.751 696,-187.751 692.5,-197.751 699.5,-197.751"/>
</g>
<!-- Node42 -->
<g id="node42" class="node"><title>Node42</title>
<g id="a_node42"><a xlink:href="domain_8hh.html" target="_top" xlink:title="domain.hh">
<polygon fill="none" stroke="black" points="1165,-168.5 1165,-187.5 1227,-187.5 1227,-168.5 1165,-168.5"/>
<text text-anchor="middle" x="1196" y="-175.5" font-family="Helvetica,sans-Serif" font-size="10.00">domain.hh</text>
</a>
</g>
</g>
<!-- Node30&#45;&gt;Node42 -->
<g id="edge70" class="edge"><title>Node30&#45;&gt;Node42</title>
<path fill="none" stroke="midnightblue" d="M760.598,-226.023C864.988,-214.749 1067.84,-192.841 1154.8,-183.45"/>
<polygon fill="midnightblue" stroke="midnightblue" points="1155.25,-186.922 1164.82,-182.368 1154.5,-179.962 1155.25,-186.922"/>
</g>
<!-- Node31&#45;&gt;Node8 -->
<g id="edge46" class="edge"><title>Node31&#45;&gt;Node8</title>
<path fill="none" stroke="midnightblue" d="M263.301,-116.028C278.229,-114.578 294.793,-113.092 310,-112 662.384,-86.7012 1090.21,-72.0116 1213.95,-68.078"/>
<polygon fill="midnightblue" stroke="midnightblue" points="1214.43,-71.5648 1224.31,-67.7513 1214.2,-64.5683 1214.43,-71.5648"/>
</g>
<!-- Node31&#45;&gt;Node9 -->
<g id="edge47" class="edge"><title>Node31&#45;&gt;Node9</title>
<path fill="none" stroke="midnightblue" d="M252.286,-112.444C295.161,-102.333 366.065,-85.6134 408.872,-75.5192"/>
<polygon fill="midnightblue" stroke="midnightblue" points="409.927,-78.8667 418.856,-73.1649 408.32,-72.0535 409.927,-78.8667"/>
</g>
<!-- Node32 -->
<g id="node32" class="node"><title>Node32</title>
<polygon fill="none" stroke="#bfbfbf" points="180,-56.5 180,-75.5 252,-75.5 252,-56.5 180,-56.5"/>
<text text-anchor="middle" x="216" y="-63.5" font-family="Helvetica,sans-Serif" font-size="10.00">gsl/gsl_cdf.h</text>
</g>
<!-- Node31&#45;&gt;Node32 -->
<g id="edge48" class="edge"><title>Node31&#45;&gt;Node32</title>
<path fill="none" stroke="midnightblue" d="M216,-112.083C216,-105.006 216,-94.8611 216,-85.9865"/>
<polygon fill="midnightblue" stroke="midnightblue" points="219.5,-85.751 216,-75.7511 212.5,-85.7511 219.5,-85.751"/>
</g>
<!-- Node33&#45;&gt;Node8 -->
<g id="edge50" class="edge"><title>Node33&#45;&gt;Node8</title>
<path fill="none" stroke="midnightblue" d="M416.582,-175.786C564.121,-172.253 957.92,-160.373 1085,-132 1135.93,-120.629 1191.71,-95.6035 1223.32,-80.1345"/>
<polygon fill="midnightblue" stroke="midnightblue" points="1224.93,-83.2467 1232.33,-75.6664 1221.81,-76.9763 1224.93,-83.2467"/>
</g>
<!-- Node33&#45;&gt;Node9 -->
<g id="edge51" class="edge"><title>Node33&#45;&gt;Node9</title>
<path fill="none" stroke="midnightblue" d="M344.777,-168.3C325.143,-155.953 295.182,-132.559 310,-112 332.323,-81.0289 376.887,-71.0514 408.707,-68.0077"/>
<polygon fill="midnightblue" stroke="midnightblue" points="409.256,-71.4759 418.959,-67.2209 408.721,-64.4964 409.256,-71.4759"/>
</g>
<!-- Node33&#45;&gt;Node31 -->
<g id="edge52" class="edge"><title>Node33&#45;&gt;Node31</title>
<path fill="none" stroke="midnightblue" d="M337.183,-168.444C313.168,-159.438 275.171,-145.189 248.131,-135.049"/>
<polygon fill="midnightblue" stroke="midnightblue" points="249.303,-131.751 238.71,-131.516 246.845,-138.305 249.303,-131.751"/>
</g>
<!-- Node34 -->
<g id="node34" class="node"><title>Node34</title>
<g id="a_node34"><a xlink:href="owen__t_8hh.html" target="_top" xlink:title="apmath/owen_t.hh">
<polygon fill="none" stroke="black" points="319.5,-112.5 319.5,-131.5 416.5,-131.5 416.5,-112.5 319.5,-112.5"/>
<text text-anchor="middle" x="368" y="-119.5" font-family="Helvetica,sans-Serif" font-size="10.00">apmath/owen_t.hh</text>
</a>
</g>
</g>
<!-- Node33&#45;&gt;Node34 -->
<g id="edge53" class="edge"><title>Node33&#45;&gt;Node34</title>
<path fill="none" stroke="midnightblue" d="M361.321,-168.083C362.381,-160.927 363.906,-150.635 365.231,-141.691"/>
<polygon fill="midnightblue" stroke="midnightblue" points="368.7,-142.156 366.704,-131.751 361.776,-141.13 368.7,-142.156"/>
</g>
<!-- Node35&#45;&gt;Node8 -->
<g id="edge55" class="edge"><title>Node35&#45;&gt;Node8</title>
<path fill="none" stroke="midnightblue" d="M112.64,-115.633C127.997,-114.305 144.627,-112.982 160,-112 574.603,-85.5077 1079.05,-71.3577 1214.28,-67.8657"/>
<polygon fill="midnightblue" stroke="midnightblue" points="1214.54,-71.3603 1224.44,-67.6054 1214.36,-64.3626 1214.54,-71.3603"/>
</g>
<!-- Node35&#45;&gt;Node9 -->
<g id="edge56" class="edge"><title>Node35&#45;&gt;Node9</title>
<path fill="none" stroke="midnightblue" d="M112.564,-113.148C193.571,-101.903 340.348,-81.5275 408.459,-72.0725"/>
<polygon fill="midnightblue" stroke="midnightblue" points="409.27,-75.4937 418.693,-70.6518 408.307,-68.5601 409.27,-75.4937"/>
</g>
<!-- Node35&#45;&gt;Node11 -->
<g id="edge57" class="edge"><title>Node35&#45;&gt;Node11</title>
<path fill="none" stroke="midnightblue" d="M69.605,-112.25C95.1774,-95.9854 149.749,-62.1787 171,-56 333.291,-8.81441 873.583,-9.65583 1012.31,-10.6854"/>
<polygon fill="midnightblue" stroke="midnightblue" points="1012.65,-14.1882 1022.68,-10.7685 1012.71,-7.18842 1012.65,-14.1882"/>
</g>
<!-- Node36 -->
<g id="node36" class="node"><title>Node36</title>
<g id="a_node36"><a xlink:href="physical__constants_8hh.html" target="_top" xlink:title="physical_constants.hh">
<polygon fill="none" stroke="black" points="2,-56.5 2,-75.5 116,-75.5 116,-56.5 2,-56.5"/>
<text text-anchor="middle" x="59" y="-63.5" font-family="Helvetica,sans-Serif" font-size="10.00">physical_constants.hh</text>
</a>
</g>
</g>
<!-- Node35&#45;&gt;Node36 -->
<g id="edge58" class="edge"><title>Node35&#45;&gt;Node36</title>
<path fill="none" stroke="midnightblue" d="M56.4954,-112.083C56.8886,-105.006 57.4522,-94.8611 57.9452,-85.9865"/>
<polygon fill="midnightblue" stroke="midnightblue" points="61.4536,-85.9299 58.5138,-75.7511 54.4644,-85.5415 61.4536,-85.9299"/>
</g>
<!-- Node36&#45;&gt;Node11 -->
<g id="edge59" class="edge"><title>Node36&#45;&gt;Node11</title>
<path fill="none" stroke="midnightblue" d="M116.225,-57.7981C122.554,-57.1283 128.91,-56.5106 135,-56 477.776,-27.2628 894.841,-14.8766 1012.64,-11.7986"/>
<polygon fill="midnightblue" stroke="midnightblue" points="1012.88,-15.2937 1022.79,-11.5374 1012.7,-8.29603 1012.88,-15.2937"/>
</g>
<!-- Node37&#45;&gt;Node4 -->
<g id="edge62" class="edge"><title>Node37&#45;&gt;Node4</title>
<path fill="none" stroke="midnightblue" d="M722.649,-176.126C816.749,-172.827 1132.98,-159.876 1230,-132 1314.7,-107.664 1404.57,-51.7484 1444.18,-25.3274"/>
<polygon fill="midnightblue" stroke="midnightblue" points="1446.17,-28.2117 1452.5,-19.7189 1442.25,-22.4079 1446.17,-28.2117"/>
</g>
<!-- Node38 -->
<g id="node38" class="node"><title>Node38</title>
<polygon fill="none" stroke="#bfbfbf" points="581.5,-112.5 581.5,-131.5 630.5,-131.5 630.5,-112.5 581.5,-112.5"/>
<text text-anchor="middle" x="606" y="-119.5" font-family="Helvetica,sans-Serif" font-size="10.00">cassert</text>
</g>
<!-- Node37&#45;&gt;Node38 -->
<g id="edge61" class="edge"><title>Node37&#45;&gt;Node38</title>
<path fill="none" stroke="midnightblue" d="M681.54,-168.324C667.5,-159.9 645.952,-146.971 629.457,-137.074"/>
<polygon fill="midnightblue" stroke="midnightblue" points="630.8,-133.798 620.424,-131.655 627.198,-139.801 630.8,-133.798"/>
</g>
<!-- Node39 -->
<g id="node39" class="node"><title>Node39</title>
<polygon fill="none" stroke="#bfbfbf" points="648.5,-112.5 648.5,-131.5 743.5,-131.5 743.5,-112.5 648.5,-112.5"/>
<text text-anchor="middle" x="696" y="-119.5" font-family="Helvetica,sans-Serif" font-size="10.00">lapacke/lapacke.h</text>
</g>
<!-- Node37&#45;&gt;Node39 -->
<g id="edge63" class="edge"><title>Node37&#45;&gt;Node39</title>
<path fill="none" stroke="midnightblue" d="M696,-168.083C696,-161.006 696,-150.861 696,-141.986"/>
<polygon fill="midnightblue" stroke="midnightblue" points="699.5,-141.751 696,-131.751 692.5,-141.751 699.5,-141.751"/>
</g>
<!-- Node40 -->
<g id="node40" class="node"><title>Node40</title>
<polygon fill="none" stroke="#bfbfbf" points="473,-112.5 473,-131.5 563,-131.5 563,-112.5 473,-112.5"/>
<text text-anchor="middle" x="518" y="-119.5" font-family="Helvetica,sans-Serif" font-size="10.00">openblas/cblas.h</text>
</g>
<!-- Node37&#45;&gt;Node40 -->
<g id="edge64" class="edge"><title>Node37&#45;&gt;Node40</title>
<path fill="none" stroke="midnightblue" d="M669.352,-168.916C639.251,-159.784 590.029,-144.851 555.927,-134.506"/>
<polygon fill="midnightblue" stroke="midnightblue" points="556.889,-131.14 546.304,-131.587 554.857,-137.839 556.889,-131.14"/>
</g>
<!-- Node41 -->
<g id="node41" class="node"><title>Node41</title>
<g id="a_node41"><a xlink:href="closed__interval_8hh.html" target="_top" xlink:title="apmath/closed_interval.hh">
<polygon fill="none" stroke="black" points="838.5,-112.5 838.5,-131.5 969.5,-131.5 969.5,-112.5 838.5,-112.5"/>
<text text-anchor="middle" x="904" y="-119.5" font-family="Helvetica,sans-Serif" font-size="10.00">apmath/closed_interval.hh</text>
</a>
</g>
</g>
<!-- Node37&#45;&gt;Node41 -->
<g id="edge65" class="edge"><title>Node37&#45;&gt;Node41</title>
<path fill="none" stroke="midnightblue" d="M722.767,-170.051C757.838,-160.946 819.756,-144.871 861.33,-134.078"/>
<polygon fill="midnightblue" stroke="midnightblue" points="862.373,-137.423 871.173,-131.522 860.614,-130.648 862.373,-137.423"/>
</g>
<!-- Node41&#45;&gt;Node8 -->
<g id="edge66" class="edge"><title>Node41&#45;&gt;Node8</title>
<path fill="none" stroke="midnightblue" d="M958.666,-112.444C1030.36,-101.222 1154.08,-81.8573 1214.19,-72.4479"/>
<polygon fill="midnightblue" stroke="midnightblue" points="1214.97,-75.869 1224.31,-70.8646 1213.89,-68.9532 1214.97,-75.869"/>
</g>
<!-- Node41&#45;&gt;Node9 -->
<g id="edge67" class="edge"><title>Node41&#45;&gt;Node9</title>
<path fill="none" stroke="midnightblue" d="M838.236,-113.263C740.103,-101.718 558.63,-80.3683 481.363,-71.278"/>
<polygon fill="midnightblue" stroke="midnightblue" points="481.512,-67.7714 471.171,-70.079 480.694,-74.7235 481.512,-67.7714"/>
</g>
<!-- Node41&#45;&gt;Node11 -->
<g id="edge68" class="edge"><title>Node41&#45;&gt;Node11</title>
<path fill="none" stroke="midnightblue" d="M915.064,-112.368C939.054,-93.6531 996.098,-49.1509 1025.99,-25.8324"/>
<polygon fill="midnightblue" stroke="midnightblue" points="1028.26,-28.502 1033.99,-19.5914 1023.95,-22.9829 1028.26,-28.502"/>
</g>
<!-- Node42&#45;&gt;Node4 -->
<g id="edge75" class="edge"><title>Node42&#45;&gt;Node4</title>
<path fill="none" stroke="midnightblue" d="M1227.27,-171.483C1257.44,-165.194 1303.62,-152.966 1339,-132 1386.84,-103.644 1430.8,-53.8247 1451.88,-27.8414"/>
<polygon fill="midnightblue" stroke="midnightblue" points="1454.86,-29.7206 1458.36,-19.7191 1449.39,-25.3575 1454.86,-29.7206"/>
</g>
<!-- Node42&#45;&gt;Node8 -->
<g id="edge73" class="edge"><title>Node42&#45;&gt;Node8</title>
<path fill="none" stroke="midnightblue" d="M1204.08,-168.343C1211.73,-159.725 1223.05,-145.823 1230,-132 1237.42,-117.228 1242.43,-99.071 1245.43,-85.7057"/>
<polygon fill="midnightblue" stroke="midnightblue" points="1248.88,-86.2878 1247.48,-75.7853 1242.02,-84.8657 1248.88,-86.2878"/>
</g>
<!-- Node42&#45;&gt;Node9 -->
<g id="edge74" class="edge"><title>Node42&#45;&gt;Node9</title>
<path fill="none" stroke="midnightblue" d="M1164.76,-176.795C1096.56,-175.636 929.716,-168.91 796,-132 775.293,-126.284 772.608,-118.062 752,-112 656.888,-84.0224 539.859,-73.014 481.585,-69.0359"/>
<polygon fill="midnightblue" stroke="midnightblue" points="481.613,-65.5304 471.406,-68.3725 481.157,-72.5156 481.613,-65.5304"/>
</g>
<!-- Node42&#45;&gt;Node11 -->
<g id="edge71" class="edge"><title>Node42&#45;&gt;Node11</title>
<path fill="none" stroke="midnightblue" d="M1187.88,-168.075C1163.6,-141.38 1091.27,-61.865 1059.85,-27.3218"/>
<polygon fill="midnightblue" stroke="midnightblue" points="1062.11,-24.6104 1052.79,-19.5681 1056.93,-29.3207 1062.11,-24.6104"/>
</g>
<!-- Node42&#45;&gt;Node14 -->
<g id="edge76" class="edge"><title>Node42&#45;&gt;Node14</title>
<path fill="none" stroke="midnightblue" d="M1227.02,-172.627C1294.25,-163.147 1453.72,-140.663 1532.84,-129.508"/>
<polygon fill="midnightblue" stroke="midnightblue" points="1533.58,-132.938 1543,-128.076 1532.6,-126.007 1533.58,-132.938"/>
</g>
<!-- Node43 -->
<g id="node43" class="node"><title>Node43</title>
<polygon fill="none" stroke="#bfbfbf" points="1171,-112.5 1171,-131.5 1221,-131.5 1221,-112.5 1171,-112.5"/>
<text text-anchor="middle" x="1196" y="-119.5" font-family="Helvetica,sans-Serif" font-size="10.00">iomanip</text>
</g>
<!-- Node42&#45;&gt;Node43 -->
<g id="edge72" class="edge"><title>Node42&#45;&gt;Node43</title>
<path fill="none" stroke="midnightblue" d="M1196,-168.083C1196,-161.006 1196,-150.861 1196,-141.986"/>
<polygon fill="midnightblue" stroke="midnightblue" points="1199.5,-141.751 1196,-131.751 1192.5,-141.751 1199.5,-141.751"/>
</g>
<!-- Node44&#45;&gt;Node18 -->
<g id="edge79" class="edge"><title>Node44&#45;&gt;Node18</title>
<path fill="none" stroke="midnightblue" d="M1839.02,-224.397C1856.17,-217.515 1876.75,-205.984 1887,-188 1898.11,-168.511 1876.72,-149.286 1857.46,-136.861"/>
<polygon fill="midnightblue" stroke="midnightblue" points="1859.25,-133.852 1848.88,-131.654 1855.61,-139.836 1859.25,-133.852"/>
</g>
<!-- Node45 -->
<g id="node45" class="node"><title>Node45</title>
<polygon fill="none" stroke="#bfbfbf" points="1718.5,-168.5 1718.5,-187.5 1777.5,-187.5 1777.5,-168.5 1718.5,-168.5"/>
<text text-anchor="middle" x="1748" y="-175.5" font-family="Helvetica,sans-Serif" font-size="10.00">functional</text>
</g>
<!-- Node44&#45;&gt;Node45 -->
<g id="edge78" class="edge"><title>Node44&#45;&gt;Node45</title>
<path fill="none" stroke="midnightblue" d="M1800.88,-224.324C1791.47,-216.263 1777.26,-204.077 1765.93,-194.369"/>
<polygon fill="midnightblue" stroke="midnightblue" points="1768.18,-191.684 1758.31,-187.834 1763.62,-196.999 1768.18,-191.684"/>
</g>
<!-- Node46 -->
<g id="node46" class="node"><title>Node46</title>
<polygon fill="none" stroke="#bfbfbf" points="1795.5,-168.5 1795.5,-187.5 1878.5,-187.5 1878.5,-168.5 1795.5,-168.5"/>
<text text-anchor="middle" x="1837" y="-175.5" font-family="Helvetica,sans-Serif" font-size="10.00">unordered_map</text>
</g>
<!-- Node44&#45;&gt;Node46 -->
<g id="edge80" class="edge"><title>Node44&#45;&gt;Node46</title>
<path fill="none" stroke="midnightblue" d="M1815.29,-224.083C1818.85,-216.691 1824.02,-205.953 1828.42,-196.811"/>
<polygon fill="midnightblue" stroke="midnightblue" points="1831.6,-198.279 1832.79,-187.751 1825.29,-195.243 1831.6,-198.279"/>
</g>
<!-- Node47&#45;&gt;Node8 -->
<g id="edge83" class="edge"><title>Node47&#45;&gt;Node8</title>
<path fill="none" stroke="midnightblue" d="M1066.38,-112.444C1106.93,-102.354 1173.92,-85.6841 1214.51,-75.5833"/>
<polygon fill="midnightblue" stroke="midnightblue" points="1215.37,-78.9762 1224.23,-73.1649 1213.68,-72.1834 1215.37,-78.9762"/>
</g>
<!-- Node47&#45;&gt;Node9 -->
<g id="edge84" class="edge"><title>Node47&#45;&gt;Node9</title>
<path fill="none" stroke="midnightblue" d="M987.252,-113.255C984.125,-112.803 981.018,-112.378 978,-112 791.805,-88.6626 567.461,-74.1298 481.205,-69.0426"/>
<polygon fill="midnightblue" stroke="midnightblue" points="481.332,-65.5442 471.145,-68.4554 480.924,-72.5323 481.332,-65.5442"/>
</g>
</g>
</svg>
