<?xml version="1.0" encoding="UTF-8" standalone="no"?>
<!DOCTYPE svg PUBLIC "-//W3C//DTD SVG 1.1//EN"
 "http://www.w3.org/Graphics/SVG/1.1/DTD/svg11.dtd">
<!-- Generated by graphviz version 2.36.0 (20140111.2315)
 -->
<!-- Title: /home/travis/build/igankevich/arma/src/ma_algorithm.hh Pages: 1 -->
<svg width="483pt" height="440pt"
 viewBox="0.00 0.00 483.00 440.00" xmlns="http://www.w3.org/2000/svg" xmlns:xlink="http://www.w3.org/1999/xlink">
<g id="graph0" class="graph" transform="scale(1 1) rotate(0) translate(4 436)">
<title>/home/travis/build/igankevich/arma/src/ma_algorithm.hh</title>
<!-- Node1 -->
<g id="node1" class="node"><title>Node1</title>
<polygon fill="#bfbfbf" stroke="black" points="282.5,-390.5 282.5,-431.5 389.5,-431.5 389.5,-390.5 282.5,-390.5"/>
<text text-anchor="start" x="290.5" y="-419.5" font-family="Helvetica,sans-Serif" font-size="10.00">/home/travis/build</text>
<text text-anchor="start" x="290.5" y="-408.5" font-family="Helvetica,sans-Serif" font-size="10.00">/igankevich/arma/src</text>
<text text-anchor="middle" x="336" y="-397.5" font-family="Helvetica,sans-Serif" font-size="10.00">/ma_algorithm.hh</text>
</g>
<!-- Node2 -->
<g id="node2" class="node"><title>Node2</title>
<g id="a_node2"><a xlink:href="ma__model_8hh.html" target="_top" xlink:title="/home/travis/build\l/igankevich/arma/src\l/generator/ma_model.hh">
<polygon fill="none" stroke="black" points="209,-312.5 209,-353.5 331,-353.5 331,-312.5 209,-312.5"/>
<text text-anchor="start" x="217" y="-341.5" font-family="Helvetica,sans-Serif" font-size="10.00">/home/travis/build</text>
<text text-anchor="start" x="217" y="-330.5" font-family="Helvetica,sans-Serif" font-size="10.00">/igankevich/arma/src</text>
<text text-anchor="middle" x="270" y="-319.5" font-family="Helvetica,sans-Serif" font-size="10.00">/generator/ma_model.hh</text>
</a>
</g>
</g>
<!-- Node1&#45;&gt;Node2 -->
<g id="edge1" class="edge"><title>Node1&#45;&gt;Node2</title>
<path fill="none" stroke="midnightblue" d="M312.229,-382.627C303.86,-372.99 294.63,-362.362 286.939,-353.506"/>
<polygon fill="midnightblue" stroke="midnightblue" points="309.804,-385.173 319.003,-390.428 315.089,-380.583 309.804,-385.173"/>
</g>
<!-- Node11 -->
<g id="node11" class="node"><title>Node11</title>
<g id="a_node11"><a xlink:href="ma__algorithm_8cc.html" target="_top" xlink:title="/home/travis/build\l/igankevich/arma/src\l/ma_algorithm.cc">
<polygon fill="none" stroke="black" points="349.5,-312.5 349.5,-353.5 456.5,-353.5 456.5,-312.5 349.5,-312.5"/>
<text text-anchor="start" x="357.5" y="-341.5" font-family="Helvetica,sans-Serif" font-size="10.00">/home/travis/build</text>
<text text-anchor="start" x="357.5" y="-330.5" font-family="Helvetica,sans-Serif" font-size="10.00">/igankevich/arma/src</text>
<text text-anchor="middle" x="403" y="-319.5" font-family="Helvetica,sans-Serif" font-size="10.00">/ma_algorithm.cc</text>
</a>
</g>
</g>
<!-- Node1&#45;&gt;Node11 -->
<g id="edge11" class="edge"><title>Node1&#45;&gt;Node11</title>
<path fill="none" stroke="midnightblue" d="M359.877,-382.916C368.44,-373.203 377.919,-362.45 385.804,-353.506"/>
<polygon fill="midnightblue" stroke="midnightblue" points="357.242,-380.612 353.254,-390.428 362.493,-385.241 357.242,-380.612"/>
</g>
<!-- Node3 -->
<g id="node3" class="node"><title>Node3</title>
<g id="a_node3"><a xlink:href="register__all_8hh.html" target="_top" xlink:title="/home/travis/build\l/igankevich/arma/src\l/register_all.hh">
<polygon fill="none" stroke="black" points="123.5,-156.5 123.5,-197.5 230.5,-197.5 230.5,-156.5 123.5,-156.5"/>
<text text-anchor="start" x="131.5" y="-185.5" font-family="Helvetica,sans-Serif" font-size="10.00">/home/travis/build</text>
<text text-anchor="start" x="131.5" y="-174.5" font-family="Helvetica,sans-Serif" font-size="10.00">/igankevich/arma/src</text>
<text text-anchor="middle" x="177" y="-163.5" font-family="Helvetica,sans-Serif" font-size="10.00">/register_all.hh</text>
</a>
</g>
</g>
<!-- Node2&#45;&gt;Node3 -->
<g id="edge2" class="edge"><title>Node2&#45;&gt;Node3</title>
<path fill="none" stroke="midnightblue" d="M225.161,-306.289C214.099,-297.953 203.333,-287.768 196,-276 180.969,-251.877 177.399,-218.443 176.774,-197.527"/>
<polygon fill="midnightblue" stroke="midnightblue" points="223.445,-309.363 233.625,-312.298 227.498,-303.655 223.445,-309.363"/>
</g>
<!-- Node8 -->
<g id="node8" class="node"><title>Node8</title>
<g id="a_node8"><a xlink:href="arma__model_8hh.html" target="_top" xlink:title="/home/travis/build\l/igankevich/arma/src\l/generator/arma_model.hh">
<polygon fill="none" stroke="black" points="205,-234.5 205,-275.5 335,-275.5 335,-234.5 205,-234.5"/>
<text text-anchor="start" x="213" y="-263.5" font-family="Helvetica,sans-Serif" font-size="10.00">/home/travis/build</text>
<text text-anchor="start" x="213" y="-252.5" font-family="Helvetica,sans-Serif" font-size="10.00">/igankevich/arma/src</text>
<text text-anchor="middle" x="270" y="-241.5" font-family="Helvetica,sans-Serif" font-size="10.00">/generator/arma_model.hh</text>
</a>
</g>
</g>
<!-- Node2&#45;&gt;Node8 -->
<g id="edge7" class="edge"><title>Node2&#45;&gt;Node8</title>
<path fill="none" stroke="midnightblue" d="M270,-302.297C270,-293.301 270,-283.653 270,-275.506"/>
<polygon fill="midnightblue" stroke="midnightblue" points="266.5,-302.428 270,-312.428 273.5,-302.428 266.5,-302.428"/>
</g>
<!-- Node10 -->
<g id="node10" class="node"><title>Node10</title>
<g id="a_node10"><a xlink:href="ma__model_8cc.html" target="_top" xlink:title="/home/travis/build\l/igankevich/arma/src\l/generator/ma_model.cc">
<polygon fill="none" stroke="black" points="353,-234.5 353,-275.5 475,-275.5 475,-234.5 353,-234.5"/>
<text text-anchor="start" x="361" y="-263.5" font-family="Helvetica,sans-Serif" font-size="10.00">/home/travis/build</text>
<text text-anchor="start" x="361" y="-252.5" font-family="Helvetica,sans-Serif" font-size="10.00">/igankevich/arma/src</text>
<text text-anchor="middle" x="414" y="-241.5" font-family="Helvetica,sans-Serif" font-size="10.00">/generator/ma_model.cc</text>
</a>
</g>
</g>
<!-- Node2&#45;&gt;Node10 -->
<g id="edge10" class="edge"><title>Node2&#45;&gt;Node10</title>
<path fill="none" stroke="midnightblue" d="M316.181,-307.627C335.858,-297.242 358.5,-285.292 377.042,-275.506"/>
<polygon fill="midnightblue" stroke="midnightblue" points="314.294,-304.665 307.084,-312.428 317.561,-310.856 314.294,-304.665"/>
</g>
<!-- Node4 -->
<g id="node4" class="node"><title>Node4</title>
<g id="a_node4"><a xlink:href="common__main_8hh.html" target="_top" xlink:title="/home/travis/build\l/igankevich/arma/src\l/common_main.hh">
<polygon fill="none" stroke="black" points="61.5,-78.5 61.5,-119.5 168.5,-119.5 168.5,-78.5 61.5,-78.5"/>
<text text-anchor="start" x="69.5" y="-107.5" font-family="Helvetica,sans-Serif" font-size="10.00">/home/travis/build</text>
<text text-anchor="start" x="69.5" y="-96.5" font-family="Helvetica,sans-Serif" font-size="10.00">/igankevich/arma/src</text>
<text text-anchor="middle" x="115" y="-85.5" font-family="Helvetica,sans-Serif" font-size="10.00">/common_main.hh</text>
</a>
</g>
</g>
<!-- Node3&#45;&gt;Node4 -->
<g id="edge3" class="edge"><title>Node3&#45;&gt;Node4</title>
<path fill="none" stroke="midnightblue" d="M154.669,-148.627C146.808,-138.99 138.137,-128.362 130.912,-119.506"/>
<polygon fill="midnightblue" stroke="midnightblue" points="152,-150.892 161.033,-156.428 157.424,-146.467 152,-150.892"/>
</g>
<!-- Node7 -->
<g id="node7" class="node"><title>Node7</title>
<g id="a_node7"><a xlink:href="visual_8cc.html" target="_top" xlink:title="/home/travis/build\l/igankevich/arma/src\l/visual.cc">
<polygon fill="none" stroke="black" points="186.5,-78.5 186.5,-119.5 293.5,-119.5 293.5,-78.5 186.5,-78.5"/>
<text text-anchor="start" x="194.5" y="-107.5" font-family="Helvetica,sans-Serif" font-size="10.00">/home/travis/build</text>
<text text-anchor="start" x="194.5" y="-96.5" font-family="Helvetica,sans-Serif" font-size="10.00">/igankevich/arma/src</text>
<text text-anchor="middle" x="240" y="-85.5" font-family="Helvetica,sans-Serif" font-size="10.00">/visual.cc</text>
</a>
</g>
</g>
<!-- Node3&#45;&gt;Node7 -->
<g id="edge6" class="edge"><title>Node3&#45;&gt;Node7</title>
<path fill="none" stroke="midnightblue" d="M199.691,-148.627C207.679,-138.99 216.49,-128.362 223.831,-119.506"/>
<polygon fill="midnightblue" stroke="midnightblue" points="196.911,-146.496 193.224,-156.428 202.301,-150.963 196.911,-146.496"/>
</g>
<!-- Node5 -->
<g id="node5" class="node"><title>Node5</title>
<g id="a_node5"><a xlink:href="arma__main_8cc.html" target="_top" xlink:title="/home/travis/build\l/igankevich/arma/src\l/arma_main.cc">
<polygon fill="none" stroke="black" points="-0.5,-0.5 -0.5,-41.5 106.5,-41.5 106.5,-0.5 -0.5,-0.5"/>
<text text-anchor="start" x="7.5" y="-29.5" font-family="Helvetica,sans-Serif" font-size="10.00">/home/travis/build</text>
<text text-anchor="start" x="7.5" y="-18.5" font-family="Helvetica,sans-Serif" font-size="10.00">/igankevich/arma/src</text>
<text text-anchor="middle" x="53" y="-7.5" font-family="Helvetica,sans-Serif" font-size="10.00">/arma_main.cc</text>
</a>
</g>
</g>
<!-- Node4&#45;&gt;Node5 -->
<g id="edge4" class="edge"><title>Node4&#45;&gt;Node5</title>
<path fill="none" stroke="midnightblue" d="M92.6694,-70.627C84.8077,-60.9901 76.1371,-50.3617 68.9124,-41.5056"/>
<polygon fill="midnightblue" stroke="midnightblue" points="90.0001,-72.8919 99.0335,-78.4281 95.4242,-68.467 90.0001,-72.8919"/>
</g>
<!-- Node6 -->
<g id="node6" class="node"><title>Node6</title>
<g id="a_node6"><a xlink:href="arma__realtime_8cc.html" target="_top" xlink:title="/home/travis/build\l/igankevich/arma/src\l/arma_realtime.cc">
<polygon fill="none" stroke="black" points="124.5,-0.5 124.5,-41.5 231.5,-41.5 231.5,-0.5 124.5,-0.5"/>
<text text-anchor="start" x="132.5" y="-29.5" font-family="Helvetica,sans-Serif" font-size="10.00">/home/travis/build</text>
<text text-anchor="start" x="132.5" y="-18.5" font-family="Helvetica,sans-Serif" font-size="10.00">/igankevich/arma/src</text>
<text text-anchor="middle" x="178" y="-7.5" font-family="Helvetica,sans-Serif" font-size="10.00">/arma_realtime.cc</text>
</a>
</g>
</g>
<!-- Node4&#45;&gt;Node6 -->
<g id="edge5" class="edge"><title>Node4&#45;&gt;Node6</title>
<path fill="none" stroke="midnightblue" d="M137.691,-70.627C145.679,-60.9901 154.49,-50.3617 161.831,-41.5056"/>
<polygon fill="midnightblue" stroke="midnightblue" points="134.911,-68.4956 131.224,-78.4281 140.301,-72.963 134.911,-68.4956"/>
</g>
<!-- Node8&#45;&gt;Node3 -->
<g id="edge8" class="edge"><title>Node8&#45;&gt;Node3</title>
<path fill="none" stroke="midnightblue" d="M238.263,-228.065C226.018,-218.057 212.248,-206.804 200.869,-197.506"/>
<polygon fill="midnightblue" stroke="midnightblue" points="236.092,-230.81 246.05,-234.428 240.522,-225.39 236.092,-230.81"/>
</g>
<!-- Node9 -->
<g id="node9" class="node"><title>Node9</title>
<g id="a_node9"><a xlink:href="arma__model_8cc.html" target="_top" xlink:title="/home/travis/build\l/igankevich/arma/src\l/generator/arma_model.cc">
<polygon fill="none" stroke="black" points="249,-156.5 249,-197.5 379,-197.5 379,-156.5 249,-156.5"/>
<text text-anchor="start" x="257" y="-185.5" font-family="Helvetica,sans-Serif" font-size="10.00">/home/travis/build</text>
<text text-anchor="start" x="257" y="-174.5" font-family="Helvetica,sans-Serif" font-size="10.00">/igankevich/arma/src</text>
<text text-anchor="middle" x="314" y="-163.5" font-family="Helvetica,sans-Serif" font-size="10.00">/generator/arma_model.cc</text>
</a>
</g>
</g>
<!-- Node8&#45;&gt;Node9 -->
<g id="edge9" class="edge"><title>Node8&#45;&gt;Node9</title>
<path fill="none" stroke="midnightblue" d="M286.351,-225.757C291.795,-216.354 297.734,-206.096 302.707,-197.506"/>
<polygon fill="midnightblue" stroke="midnightblue" points="283.313,-224.02 281.331,-234.428 289.371,-227.527 283.313,-224.02"/>
</g>
</g>
</svg>
