<?xml version="1.0" encoding="UTF-8" standalone="no"?>
<!DOCTYPE svg PUBLIC "-//W3C//DTD SVG 1.1//EN"
 "http://www.w3.org/Graphics/SVG/1.1/DTD/svg11.dtd">
<!-- Generated by graphviz version 2.40.1 (20161225.0304)
 -->
<!-- Title: src/ma_algorithm.hh Pages: 1 -->
<svg width="449pt" height="330pt"
 viewBox="0.00 0.00 449.00 330.00" xmlns="http://www.w3.org/2000/svg" xmlns:xlink="http://www.w3.org/1999/xlink">
<g id="graph0" class="graph" transform="scale(1 1) rotate(0) translate(4 326)">
<title>src/ma_algorithm.hh</title>
<!-- Node3 -->
<g id="node1" class="node">
<title>Node3</title>
<polygon fill="#bfbfbf" stroke="#000000" points="255,-302.5 255,-321.5 360,-321.5 360,-302.5 255,-302.5"/>
<text text-anchor="middle" x="307.5" y="-309.5" font-family="Helvetica,sans-Serif" font-size="10.00" fill="#000000">src/ma_algorithm.hh</text>
</g>
<!-- Node4 -->
<g id="node2" class="node">
<title>Node4</title>
<g id="a_node2"><a xlink:href="ma__model_8hh.html" target="_top" xlink:title="src/generator/ma_model.hh">
<polygon fill="none" stroke="#000000" points="171,-246.5 171,-265.5 306,-265.5 306,-246.5 171,-246.5"/>
<text text-anchor="middle" x="238.5" y="-253.5" font-family="Helvetica,sans-Serif" font-size="10.00" fill="#000000">src/generator/ma_model.hh</text>
</a>
</g>
</g>
<!-- Node3&#45;&gt;Node4 -->
<g id="edge1" class="edge">
<title>Node3&#45;&gt;Node4</title>
<path fill="none" stroke="#191970" d="M287.697,-295.928C275.6364,-286.1397 260.6286,-273.9595 250.3812,-265.6427"/>
<polygon fill="#191970" stroke="#191970" points="285.5109,-298.6614 295.4811,-302.2455 289.9221,-293.2262 285.5109,-298.6614"/>
</g>
<!-- Node13 -->
<g id="node11" class="node">
<title>Node13</title>
<g id="a_node11"><a xlink:href="ma__algorithm_8cc.html" target="_top" xlink:title="src/ma_algorithm.cc">
<polygon fill="none" stroke="#000000" points="324,-246.5 324,-265.5 429,-265.5 429,-246.5 324,-246.5"/>
<text text-anchor="middle" x="376.5" y="-253.5" font-family="Helvetica,sans-Serif" font-size="10.00" fill="#000000">src/ma_algorithm.cc</text>
</a>
</g>
</g>
<!-- Node3&#45;&gt;Node13 -->
<g id="edge11" class="edge">
<title>Node3&#45;&gt;Node13</title>
<path fill="none" stroke="#191970" d="M327.303,-295.928C339.3636,-286.1397 354.3714,-273.9595 364.6188,-265.6427"/>
<polygon fill="#191970" stroke="#191970" points="325.0779,-293.2262 319.5189,-302.2455 329.4891,-298.6614 325.0779,-293.2262"/>
</g>
<!-- Node5 -->
<g id="node3" class="node">
<title>Node5</title>
<g id="a_node3"><a xlink:href="register__all_8hh.html" target="_top" xlink:title="src/register_all.hh">
<polygon fill="none" stroke="#000000" points="114.5,-118 114.5,-137 208.5,-137 208.5,-118 114.5,-118"/>
<text text-anchor="middle" x="161.5" y="-125" font-family="Helvetica,sans-Serif" font-size="10.00" fill="#000000">src/register_all.hh</text>
</a>
</g>
</g>
<!-- Node4&#45;&gt;Node5 -->
<g id="edge2" class="edge">
<title>Node4&#45;&gt;Node5</title>
<path fill="none" stroke="#191970" d="M212.4421,-240.9921C201.0171,-233.1482 188.4298,-222.5555 180.5,-210 165.8232,-186.7617 162.4502,-153.4524 161.6981,-137.1848"/>
<polygon fill="#191970" stroke="#191970" points="210.5599,-243.943 220.8559,-246.4416 214.3653,-238.0677 210.5599,-243.943"/>
</g>
<!-- Node10 -->
<g id="node8" class="node">
<title>Node10</title>
<g id="a_node8"><a xlink:href="arma__model_8hh.html" target="_top" xlink:title="src/generator/arma\l_model.hh">
<polygon fill="none" stroke="#000000" points="189.5,-179.5 189.5,-209.5 287.5,-209.5 287.5,-179.5 189.5,-179.5"/>
<text text-anchor="start" x="197.5" y="-197.5" font-family="Helvetica,sans-Serif" font-size="10.00" fill="#000000">src/generator/arma</text>
<text text-anchor="middle" x="238.5" y="-186.5" font-family="Helvetica,sans-Serif" font-size="10.00" fill="#000000">_model.hh</text>
</a>
</g>
</g>
<!-- Node4&#45;&gt;Node10 -->
<g id="edge7" class="edge">
<title>Node4&#45;&gt;Node10</title>
<path fill="none" stroke="#191970" d="M238.5,-236.3693C238.5,-227.681 238.5,-217.6241 238.5,-209.5446"/>
<polygon fill="#191970" stroke="#191970" points="235.0001,-236.3906 238.5,-246.3906 242.0001,-236.3907 235.0001,-236.3906"/>
</g>
<!-- Node12 -->
<g id="node10" class="node">
<title>Node12</title>
<g id="a_node10"><a xlink:href="ma__model_8cc.html" target="_top" xlink:title="src/generator/ma_model.cc">
<polygon fill="none" stroke="#000000" points="306,-185 306,-204 441,-204 441,-185 306,-185"/>
<text text-anchor="middle" x="373.5" y="-192" font-family="Helvetica,sans-Serif" font-size="10.00" fill="#000000">src/generator/ma_model.cc</text>
</a>
</g>
</g>
<!-- Node4&#45;&gt;Node12 -->
<g id="edge10" class="edge">
<title>Node4&#45;&gt;Node12</title>
<path fill="none" stroke="#191970" d="M268.8157,-242.1895C294.3217,-230.5701 330.1241,-214.2601 352.5544,-204.0419"/>
<polygon fill="#191970" stroke="#191970" points="267.243,-239.0598 259.5938,-246.3906 270.145,-245.43 267.243,-239.0598"/>
</g>
<!-- Node6 -->
<g id="node4" class="node">
<title>Node6</title>
<g id="a_node4"><a xlink:href="common__main_8hh.html" target="_top" xlink:title="src/common_main.hh">
<polygon fill="none" stroke="#000000" points="52.5,-56.5 52.5,-75.5 162.5,-75.5 162.5,-56.5 52.5,-56.5"/>
<text text-anchor="middle" x="107.5" y="-63.5" font-family="Helvetica,sans-Serif" font-size="10.00" fill="#000000">src/common_main.hh</text>
</a>
</g>
</g>
<!-- Node5&#45;&gt;Node6 -->
<g id="edge3" class="edge">
<title>Node5&#45;&gt;Node6</title>
<path fill="none" stroke="#191970" d="M146.1995,-110.0744C136.4332,-98.9517 124.135,-84.9454 116.0565,-75.7449"/>
<polygon fill="#191970" stroke="#191970" points="143.8344,-112.6855 153.0625,-117.8906 149.0945,-108.0669 143.8344,-112.6855"/>
</g>
<!-- Node9 -->
<g id="node7" class="node">
<title>Node9</title>
<g id="a_node7"><a xlink:href="visual_8cc.html" target="_top" xlink:title="src/visual.cc">
<polygon fill="none" stroke="#000000" points="180.5,-56.5 180.5,-75.5 252.5,-75.5 252.5,-56.5 180.5,-56.5"/>
<text text-anchor="middle" x="216.5" y="-63.5" font-family="Helvetica,sans-Serif" font-size="10.00" fill="#000000">src/visual.cc</text>
</a>
</g>
</g>
<!-- Node5&#45;&gt;Node9 -->
<g id="edge6" class="edge">
<title>Node5&#45;&gt;Node9</title>
<path fill="none" stroke="#191970" d="M176.792,-110.4007C186.785,-99.2268 199.4763,-85.0356 207.7851,-75.7449"/>
<polygon fill="#191970" stroke="#191970" points="174.1511,-108.1034 170.0938,-117.8906 179.3689,-112.7698 174.1511,-108.1034"/>
</g>
<!-- Node7 -->
<g id="node5" class="node">
<title>Node7</title>
<g id="a_node5"><a xlink:href="arma__main_8cc.html" target="_top" xlink:title="src/arma_main.cc">
<polygon fill="none" stroke="#000000" points="0,-.5 0,-19.5 95,-19.5 95,-.5 0,-.5"/>
<text text-anchor="middle" x="47.5" y="-7.5" font-family="Helvetica,sans-Serif" font-size="10.00" fill="#000000">src/arma_main.cc</text>
</a>
</g>
</g>
<!-- Node6&#45;&gt;Node7 -->
<g id="edge4" class="edge">
<title>Node6&#45;&gt;Node7</title>
<path fill="none" stroke="#191970" d="M89.6722,-49.3607C79.2922,-39.6727 66.5709,-27.7995 57.8314,-19.6427"/>
<polygon fill="#191970" stroke="#191970" points="87.3501,-51.981 97.0488,-56.2455 92.1263,-46.8636 87.3501,-51.981"/>
</g>
<!-- Node8 -->
<g id="node6" class="node">
<title>Node8</title>
<g id="a_node6"><a xlink:href="arma__realtime_8cc.html" target="_top" xlink:title="src/arma_realtime.cc">
<polygon fill="none" stroke="#000000" points="113.5,-.5 113.5,-19.5 221.5,-19.5 221.5,-.5 113.5,-.5"/>
<text text-anchor="middle" x="167.5" y="-7.5" font-family="Helvetica,sans-Serif" font-size="10.00" fill="#000000">src/arma_realtime.cc</text>
</a>
</g>
</g>
<!-- Node6&#45;&gt;Node8 -->
<g id="edge5" class="edge">
<title>Node6&#45;&gt;Node8</title>
<path fill="none" stroke="#191970" d="M125.3278,-49.3607C135.7078,-39.6727 148.4291,-27.7995 157.1686,-19.6427"/>
<polygon fill="#191970" stroke="#191970" points="122.8737,-46.8636 117.9512,-56.2455 127.6499,-51.981 122.8737,-46.8636"/>
</g>
<!-- Node10&#45;&gt;Node5 -->
<g id="edge8" class="edge">
<title>Node10&#45;&gt;Node5</title>
<path fill="none" stroke="#191970" d="M213.2631,-172.5406C199.4593,-160.5296 183.0643,-146.2637 172.4811,-137.055"/>
<polygon fill="#191970" stroke="#191970" points="211.1861,-175.3728 221.0275,-179.2967 215.781,-170.092 211.1861,-175.3728"/>
</g>
<!-- Node11 -->
<g id="node9" class="node">
<title>Node11</title>
<g id="a_node9"><a xlink:href="arma__model_8cc.html" target="_top" xlink:title="src/generator/arma\l_model.cc">
<polygon fill="none" stroke="#000000" points="226.5,-112.5 226.5,-142.5 324.5,-142.5 324.5,-112.5 226.5,-112.5"/>
<text text-anchor="start" x="234.5" y="-130.5" font-family="Helvetica,sans-Serif" font-size="10.00" fill="#000000">src/generator/arma</text>
<text text-anchor="middle" x="275.5" y="-119.5" font-family="Helvetica,sans-Serif" font-size="10.00" fill="#000000">_model.cc</text>
</a>
</g>
</g>
<!-- Node10&#45;&gt;Node11 -->
<g id="edge9" class="edge">
<title>Node10&#45;&gt;Node11</title>
<path fill="none" stroke="#191970" d="M251.7627,-170.4837C256.8897,-161.1996 262.6016,-150.8565 267.1374,-142.6432"/>
<polygon fill="#191970" stroke="#191970" points="248.6663,-168.8508 246.8959,-179.2967 254.794,-172.2348 248.6663,-168.8508"/>
</g>
</g>
</svg>
