<?xml version="1.0" encoding="UTF-8" standalone="no"?>
<!DOCTYPE svg PUBLIC "-//W3C//DTD SVG 1.1//EN"
 "http://www.w3.org/Graphics/SVG/1.1/DTD/svg11.dtd">
<!-- Generated by graphviz version 2.36.0 (20140111.2315)
 -->
<!-- Title: /home/travis/build/igankevich/arma/src/generator/ma_coefficient_solver.hh Pages: 1 -->
<svg width="275pt" height="152pt"
 viewBox="0.00 0.00 275.00 152.00" xmlns="http://www.w3.org/2000/svg" xmlns:xlink="http://www.w3.org/1999/xlink">
<g id="graph0" class="graph" transform="scale(1 1) rotate(0) translate(4 148)">
<title>/home/travis/build/igankevich/arma/src/generator/ma_coefficient_solver.hh</title>
<!-- Node1 -->
<g id="node1" class="node"><title>Node1</title>
<polygon fill="#bfbfbf" stroke="black" points="70.5,-91 70.5,-143 197.5,-143 197.5,-91 70.5,-91"/>
<text text-anchor="start" x="78.5" y="-131" font-family="Helvetica,sans-Serif" font-size="10.00">/home/travis/build</text>
<text text-anchor="start" x="78.5" y="-120" font-family="Helvetica,sans-Serif" font-size="10.00">/igankevich/arma/src</text>
<text text-anchor="start" x="78.5" y="-109" font-family="Helvetica,sans-Serif" font-size="10.00">/generator/ma_coefficient</text>
<text text-anchor="middle" x="134" y="-98" font-family="Helvetica,sans-Serif" font-size="10.00">_solver.hh</text>
</g>
<!-- Node2 -->
<g id="node2" class="node"><title>Node2</title>
<g id="a_node2"><a xlink:href="ma__coefficient__solver_8cc.html" target="_top" xlink:title="/home/travis/build\l/igankevich/arma/src\l/generator/ma_coefficient\l_solver.cc">
<polygon fill="none" stroke="black" points="-0.5,-1 -0.5,-53 126.5,-53 126.5,-1 -0.5,-1"/>
<text text-anchor="start" x="7.5" y="-41" font-family="Helvetica,sans-Serif" font-size="10.00">/home/travis/build</text>
<text text-anchor="start" x="7.5" y="-30" font-family="Helvetica,sans-Serif" font-size="10.00">/igankevich/arma/src</text>
<text text-anchor="start" x="7.5" y="-19" font-family="Helvetica,sans-Serif" font-size="10.00">/generator/ma_coefficient</text>
<text text-anchor="middle" x="63" y="-8" font-family="Helvetica,sans-Serif" font-size="10.00">_solver.cc</text>
</a>
</g>
</g>
<!-- Node1&#45;&gt;Node2 -->
<g id="edge1" class="edge"><title>Node1&#45;&gt;Node2</title>
<path fill="none" stroke="midnightblue" d="M107.014,-82.5528C99.125,-72.7746 90.6396,-62.2575 83.2448,-53.0921"/>
<polygon fill="midnightblue" stroke="midnightblue" points="104.461,-84.9617 113.464,-90.5468 109.909,-80.5662 104.461,-84.9617"/>
</g>
<!-- Node3 -->
<g id="node3" class="node"><title>Node3</title>
<g id="a_node3"><a xlink:href="ma__model_8cc.html" target="_top" xlink:title="/home/travis/build\l/igankevich/arma/src\l/generator/ma_model.cc">
<polygon fill="none" stroke="black" points="145,-6.5 145,-47.5 267,-47.5 267,-6.5 145,-6.5"/>
<text text-anchor="start" x="153" y="-35.5" font-family="Helvetica,sans-Serif" font-size="10.00">/home/travis/build</text>
<text text-anchor="start" x="153" y="-24.5" font-family="Helvetica,sans-Serif" font-size="10.00">/igankevich/arma/src</text>
<text text-anchor="middle" x="206" y="-13.5" font-family="Helvetica,sans-Serif" font-size="10.00">/generator/ma_model.cc</text>
</a>
</g>
</g>
<!-- Node1&#45;&gt;Node3 -->
<g id="edge2" class="edge"><title>Node1&#45;&gt;Node3</title>
<path fill="none" stroke="midnightblue" d="M161.349,-82.573C171.031,-70.7393 181.601,-57.821 190.025,-47.5249"/>
<polygon fill="midnightblue" stroke="midnightblue" points="158.449,-80.5908 154.825,-90.5468 163.867,-85.0235 158.449,-80.5908"/>
</g>
</g>
</svg>
