<?xml version="1.0" encoding="UTF-8" standalone="no"?>
<!DOCTYPE svg PUBLIC "-//W3C//DTD SVG 1.1//EN"
 "http://www.w3.org/Graphics/SVG/1.1/DTD/svg11.dtd">
<!-- Generated by graphviz version 2.40.1 (20161225.0304)
 -->
<!-- Title: src/nonlinear/nit_transform.hh Pages: 1 -->
<svg width="1129pt" height="252pt"
 viewBox="0.00 0.00 1129.44 252.00" xmlns="http://www.w3.org/2000/svg" xmlns:xlink="http://www.w3.org/1999/xlink">
<g id="graph0" class="graph" transform="scale(1 1) rotate(0) translate(4 248)">
<title>src/nonlinear/nit_transform.hh</title>
<!-- Node0 -->
<g id="node1" class="node">
<title>Node0</title>
<polygon fill="#bfbfbf" stroke="#000000" points="393.0731,-224.5 393.0731,-243.5 539.0731,-243.5 539.0731,-224.5 393.0731,-224.5"/>
<text text-anchor="middle" x="466.0731" y="-231.5" font-family="Helvetica,sans-Serif" font-size="10.00" fill="#000000">src/nonlinear/nit_transform.hh</text>
</g>
<!-- Node1 -->
<g id="node2" class="node">
<title>Node1</title>
<polygon fill="none" stroke="#bfbfbf" points="233.5731,-56.5 233.5731,-75.5 282.5731,-75.5 282.5731,-56.5 233.5731,-56.5"/>
<text text-anchor="middle" x="258.0731" y="-63.5" font-family="Helvetica,sans-Serif" font-size="10.00" fill="#000000">istream</text>
</g>
<!-- Node0&#45;&gt;Node1 -->
<g id="edge1" class="edge">
<title>Node0&#45;&gt;Node1</title>
<path fill="none" stroke="#191970" d="M392.6974,-229.7338C273.3957,-220.9779 46.3808,-196.097 4.0731,-132 -.8236,-124.5814 -1.6248,-118.8225 4.0731,-112 31.5683,-79.0781 159.9657,-69.6709 222.991,-67.0198"/>
<polygon fill="#191970" stroke="#191970" points="223.3832,-70.5074 233.2408,-66.6243 223.1132,-63.5126 223.3832,-70.5074"/>
</g>
<!-- Node2 -->
<g id="node3" class="node">
<title>Node2</title>
<polygon fill="none" stroke="#bfbfbf" points="479.0731,-56.5 479.0731,-75.5 531.0731,-75.5 531.0731,-56.5 479.0731,-56.5"/>
<text text-anchor="middle" x="505.0731" y="-63.5" font-family="Helvetica,sans-Serif" font-size="10.00" fill="#000000">ostream</text>
</g>
<!-- Node0&#45;&gt;Node2 -->
<g id="edge2" class="edge">
<title>Node0&#45;&gt;Node2</title>
<path fill="none" stroke="#191970" d="M468.2817,-224.4862C474.4733,-197.8144 492.0936,-121.9117 500.5011,-85.695"/>
<polygon fill="#191970" stroke="#191970" points="503.9396,-86.3603 502.7916,-75.8279 497.1209,-84.7774 503.9396,-86.3603"/>
</g>
<!-- Node3 -->
<g id="node4" class="node">
<title>Node3</title>
<g id="a_node4"><a xlink:href="gaussian_8hh.html" target="_top" xlink:title="stats/gaussian.hh">
<polygon fill="none" stroke="#000000" points="13.0731,-112.5 13.0731,-131.5 107.0731,-131.5 107.0731,-112.5 13.0731,-112.5"/>
<text text-anchor="middle" x="60.0731" y="-119.5" font-family="Helvetica,sans-Serif" font-size="10.00" fill="#000000">stats/gaussian.hh</text>
</a>
</g>
</g>
<!-- Node0&#45;&gt;Node3 -->
<g id="edge3" class="edge">
<title>Node0&#45;&gt;Node3</title>
<path fill="none" stroke="#191970" d="M392.9107,-228.5477C335.2667,-222.7096 253.491,-210.9793 185.0731,-188 147.3234,-175.3211 107.207,-152.1978 82.8915,-136.965"/>
<polygon fill="#191970" stroke="#191970" points="84.6997,-133.9671 74.3839,-131.5514 80.9417,-139.8729 84.6997,-133.9671"/>
</g>
<!-- Node5 -->
<g id="node6" class="node">
<title>Node5</title>
<g id="a_node6"><a xlink:href="skew__normal_8hh.html" target="_top" xlink:title="stats/skew_normal.hh">
<polygon fill="none" stroke="#000000" points="194.5731,-168.5 194.5731,-187.5 307.5731,-187.5 307.5731,-168.5 194.5731,-168.5"/>
<text text-anchor="middle" x="251.0731" y="-175.5" font-family="Helvetica,sans-Serif" font-size="10.00" fill="#000000">stats/skew_normal.hh</text>
</a>
</g>
</g>
<!-- Node0&#45;&gt;Node5 -->
<g id="edge7" class="edge">
<title>Node0&#45;&gt;Node5</title>
<path fill="none" stroke="#191970" d="M429.1133,-224.3733C392.6656,-214.8799 336.8485,-200.3415 297.4442,-190.0781"/>
<polygon fill="#191970" stroke="#191970" points="298.11,-186.6348 287.5506,-187.5011 296.3456,-193.4087 298.11,-186.6348"/>
</g>
<!-- Node7 -->
<g id="node8" class="node">
<title>Node7</title>
<g id="a_node8"><a xlink:href="gram__charlier_8hh.html" target="_top" xlink:title="stats/gram_charlier.hh">
<polygon fill="none" stroke="#000000" points="317.5731,-112.5 317.5731,-131.5 430.5731,-131.5 430.5731,-112.5 317.5731,-112.5"/>
<text text-anchor="middle" x="374.0731" y="-119.5" font-family="Helvetica,sans-Serif" font-size="10.00" fill="#000000">stats/gram_charlier.hh</text>
</a>
</g>
</g>
<!-- Node0&#45;&gt;Node7 -->
<g id="edge12" class="edge">
<title>Node0&#45;&gt;Node7</title>
<path fill="none" stroke="#191970" d="M458.2292,-224.4509C442.749,-205.6054 408.0678,-163.3849 388.4004,-139.4419"/>
<polygon fill="#191970" stroke="#191970" points="390.9491,-137.0306 381.8971,-131.5249 385.54,-141.4738 390.9491,-137.0306"/>
</g>
<!-- Node10 -->
<g id="node11" class="node">
<title>Node10</title>
<g id="a_node11"><a xlink:href="linalg_8hh.html" target="_top" xlink:title="linalg.hh">
<polygon fill="none" stroke="#000000" points="945.5731,-168.5 945.5731,-187.5 998.5731,-187.5 998.5731,-168.5 945.5731,-168.5"/>
<text text-anchor="middle" x="972.0731" y="-175.5" font-family="Helvetica,sans-Serif" font-size="10.00" fill="#000000">linalg.hh</text>
</a>
</g>
</g>
<!-- Node0&#45;&gt;Node10 -->
<g id="edge18" class="edge">
<title>Node0&#45;&gt;Node10</title>
<path fill="none" stroke="#191970" d="M539.1095,-225.9169C648.949,-213.7608 852.6184,-191.2203 935.5302,-182.0443"/>
<polygon fill="#191970" stroke="#191970" points="935.9348,-185.521 945.4891,-180.9421 935.1647,-178.5634 935.9348,-185.521"/>
</g>
<!-- Node15 -->
<g id="node16" class="node">
<title>Node15</title>
<g id="a_node16"><a xlink:href="types_8hh.html" target="_top" xlink:title="types.hh">
<polygon fill="none" stroke="#000000" points="1063.0731,-168.5 1063.0731,-187.5 1117.0731,-187.5 1117.0731,-168.5 1063.0731,-168.5"/>
<text text-anchor="middle" x="1090.0731" y="-175.5" font-family="Helvetica,sans-Serif" font-size="10.00" fill="#000000">types.hh</text>
</a>
</g>
</g>
<!-- Node0&#45;&gt;Node15 -->
<g id="edge26" class="edge">
<title>Node0&#45;&gt;Node15</title>
<path fill="none" stroke="#191970" d="M539.3544,-228.638C643.5954,-220.8156 840.6341,-205.3092 1008.0731,-188 1022.624,-186.4958 1038.5973,-184.6027 1052.5496,-182.8695"/>
<polygon fill="#191970" stroke="#191970" points="1053.283,-186.3049 1062.7681,-181.5843 1052.4094,-179.3596 1053.283,-186.3049"/>
</g>
<!-- Node16 -->
<g id="node17" class="node">
<title>Node16</title>
<g id="a_node17"><a xlink:href="domain_8hh.html" target="_top" xlink:title="domain.hh">
<polygon fill="none" stroke="#000000" points="557.0731,-168.5 557.0731,-187.5 619.0731,-187.5 619.0731,-168.5 557.0731,-168.5"/>
<text text-anchor="middle" x="588.0731" y="-175.5" font-family="Helvetica,sans-Serif" font-size="10.00" fill="#000000">domain.hh</text>
</a>
</g>
</g>
<!-- Node0&#45;&gt;Node16 -->
<g id="edge28" class="edge">
<title>Node0&#45;&gt;Node16</title>
<path fill="none" stroke="#191970" d="M487.0457,-224.3733C506.6298,-215.3838 536.0692,-201.8706 558.1241,-191.7471"/>
<polygon fill="#191970" stroke="#191970" points="559.746,-194.8538 567.3742,-187.5011 556.8258,-188.4919 559.746,-194.8538"/>
</g>
<!-- Node3&#45;&gt;Node1 -->
<g id="edge4" class="edge">
<title>Node3&#45;&gt;Node1</title>
<path fill="none" stroke="#191970" d="M94.1105,-112.3733C130.3934,-102.1114 187.5191,-85.9547 223.8666,-75.6746"/>
<polygon fill="#191970" stroke="#191970" points="224.8629,-79.0302 233.5329,-72.9407 222.9578,-72.2944 224.8629,-79.0302"/>
</g>
<!-- Node3&#45;&gt;Node2 -->
<g id="edge5" class="edge">
<title>Node3&#45;&gt;Node2</title>
<path fill="none" stroke="#191970" d="M107.0917,-113.3812C110.1278,-112.8936 113.1414,-112.4283 116.0731,-112 255.9412,-91.5655 291.8193,-93.5933 432.0731,-76 443.9287,-74.5128 456.8512,-72.7796 468.4838,-71.1779"/>
<polygon fill="#191970" stroke="#191970" points="469.3127,-74.5965 478.7365,-69.7547 468.3502,-67.663 469.3127,-74.5965"/>
</g>
<!-- Node4 -->
<g id="node5" class="node">
<title>Node4</title>
<polygon fill="none" stroke="#bfbfbf" points="24.0731,-56.5 24.0731,-75.5 96.0731,-75.5 96.0731,-56.5 24.0731,-56.5"/>
<text text-anchor="middle" x="60.0731" y="-63.5" font-family="Helvetica,sans-Serif" font-size="10.00" fill="#000000">gsl/gsl_cdf.h</text>
</g>
<!-- Node3&#45;&gt;Node4 -->
<g id="edge6" class="edge">
<title>Node3&#45;&gt;Node4</title>
<path fill="none" stroke="#191970" d="M60.0731,-112.2455C60.0731,-104.9382 60.0731,-94.6944 60.0731,-85.7046"/>
<polygon fill="#191970" stroke="#191970" points="63.5732,-85.6426 60.0731,-75.6427 56.5732,-85.6427 63.5732,-85.6426"/>
</g>
<!-- Node5&#45;&gt;Node1 -->
<g id="edge8" class="edge">
<title>Node5&#45;&gt;Node1</title>
<path fill="none" stroke="#191970" d="M251.6699,-168.4509C252.8116,-150.184 255.3259,-109.9553 256.842,-85.6976"/>
<polygon fill="#191970" stroke="#191970" points="260.3471,-85.7238 257.4778,-75.5249 253.3608,-85.2871 260.3471,-85.7238"/>
</g>
<!-- Node5&#45;&gt;Node2 -->
<g id="edge9" class="edge">
<title>Node5&#45;&gt;Node2</title>
<path fill="none" stroke="#191970" d="M307.835,-172.468C347.0303,-166.7278 399.2414,-155.1563 440.0731,-132 461.3564,-119.9299 480.2999,-98.8957 492.1675,-83.8151"/>
<polygon fill="#191970" stroke="#191970" points="495.0417,-85.8175 498.3016,-75.7367 489.4667,-81.5844 495.0417,-85.8175"/>
</g>
<!-- Node5&#45;&gt;Node3 -->
<g id="edge10" class="edge">
<title>Node5&#45;&gt;Node3</title>
<path fill="none" stroke="#191970" d="M218.239,-168.3733C186.2037,-158.9807 137.3244,-144.6496 102.3876,-134.4064"/>
<polygon fill="#191970" stroke="#191970" points="103.0595,-130.9561 92.4787,-131.5011 101.09,-137.6733 103.0595,-130.9561"/>
</g>
<!-- Node6 -->
<g id="node7" class="node">
<title>Node6</title>
<g id="a_node7"><a xlink:href="owen__t_8hh.html" target="_top" xlink:title="apmath/owen_t.hh">
<polygon fill="none" stroke="#000000" points="125.5731,-112.5 125.5731,-131.5 222.5731,-131.5 222.5731,-112.5 125.5731,-112.5"/>
<text text-anchor="middle" x="174.0731" y="-119.5" font-family="Helvetica,sans-Serif" font-size="10.00" fill="#000000">apmath/owen_t.hh</text>
</a>
</g>
</g>
<!-- Node5&#45;&gt;Node6 -->
<g id="edge11" class="edge">
<title>Node5&#45;&gt;Node6</title>
<path fill="none" stroke="#191970" d="M237.6607,-168.2455C226.0674,-159.814 209.0984,-147.4729 195.6053,-137.6598"/>
<polygon fill="#191970" stroke="#191970" points="197.4778,-134.6938 187.3318,-131.6427 193.3606,-140.355 197.4778,-134.6938"/>
</g>
<!-- Node7&#45;&gt;Node1 -->
<g id="edge13" class="edge">
<title>Node7&#45;&gt;Node1</title>
<path fill="none" stroke="#191970" d="M354.132,-112.3733C335.5945,-103.4241 307.7703,-89.9917 286.8318,-79.8835"/>
<polygon fill="#191970" stroke="#191970" points="288.2812,-76.6967 277.754,-75.5011 285.2379,-83.0006 288.2812,-76.6967"/>
</g>
<!-- Node7&#45;&gt;Node2 -->
<g id="edge14" class="edge">
<title>Node7&#45;&gt;Node2</title>
<path fill="none" stroke="#191970" d="M396.5928,-112.3733C417.8103,-103.3032 449.8007,-89.6279 473.55,-79.4755"/>
<polygon fill="#191970" stroke="#191970" points="475.028,-82.6502 482.8473,-75.5011 472.2764,-76.2136 475.028,-82.6502"/>
</g>
<!-- Node8 -->
<g id="node9" class="node">
<title>Node8</title>
<polygon fill="none" stroke="#bfbfbf" points="619.0731,-.5 619.0731,-19.5 663.0731,-19.5 663.0731,-.5 619.0731,-.5"/>
<text text-anchor="middle" x="641.0731" y="-7.5" font-family="Helvetica,sans-Serif" font-size="10.00" fill="#000000">cmath</text>
</g>
<!-- Node7&#45;&gt;Node8 -->
<g id="edge15" class="edge">
<title>Node7&#45;&gt;Node8</title>
<path fill="none" stroke="#191970" d="M385.4062,-112.276C402.6087,-97.9843 436.8364,-71.3452 470.0731,-56 515.9834,-34.8035 573.491,-21.8551 608.74,-15.3063"/>
<polygon fill="#191970" stroke="#191970" points="609.7031,-18.6894 618.9272,-13.4773 608.466,-11.7996 609.7031,-18.6894"/>
</g>
<!-- Node9 -->
<g id="node10" class="node">
<title>Node9</title>
<g id="a_node10"><a xlink:href="physical__constants_8hh.html" target="_top" xlink:title="physical_constants.hh">
<polygon fill="none" stroke="#000000" points="309.0731,-56.5 309.0731,-75.5 423.0731,-75.5 423.0731,-56.5 309.0731,-56.5"/>
<text text-anchor="middle" x="366.0731" y="-63.5" font-family="Helvetica,sans-Serif" font-size="10.00" fill="#000000">physical_constants.hh</text>
</a>
</g>
</g>
<!-- Node7&#45;&gt;Node9 -->
<g id="edge16" class="edge">
<title>Node7&#45;&gt;Node9</title>
<path fill="none" stroke="#191970" d="M372.6796,-112.2455C371.6357,-104.9382 370.1723,-94.6944 368.8881,-85.7046"/>
<polygon fill="#191970" stroke="#191970" points="372.3298,-85.0472 367.4506,-75.6427 365.4001,-86.0372 372.3298,-85.0472"/>
</g>
<!-- Node9&#45;&gt;Node8 -->
<g id="edge17" class="edge">
<title>Node9&#45;&gt;Node8</title>
<path fill="none" stroke="#191970" d="M413.0348,-56.4369C468.9158,-45.0575 560.7116,-26.3645 609.0316,-16.5248"/>
<polygon fill="#191970" stroke="#191970" points="609.834,-19.9333 618.9345,-14.5082 608.4372,-13.0741 609.834,-19.9333"/>
</g>
<!-- Node11 -->
<g id="node12" class="node">
<title>Node11</title>
<polygon fill="none" stroke="#bfbfbf" points="947.5731,-112.5 947.5731,-131.5 996.5731,-131.5 996.5731,-112.5 947.5731,-112.5"/>
<text text-anchor="middle" x="972.0731" y="-119.5" font-family="Helvetica,sans-Serif" font-size="10.00" fill="#000000">cassert</text>
</g>
<!-- Node10&#45;&gt;Node11 -->
<g id="edge19" class="edge">
<title>Node10&#45;&gt;Node11</title>
<path fill="none" stroke="#191970" d="M972.0731,-168.2455C972.0731,-160.9382 972.0731,-150.6944 972.0731,-141.7046"/>
<polygon fill="#191970" stroke="#191970" points="975.5732,-141.6426 972.0731,-131.6427 968.5732,-141.6427 975.5732,-141.6426"/>
</g>
<!-- Node12 -->
<g id="node13" class="node">
<title>Node12</title>
<polygon fill="none" stroke="#bfbfbf" points="938.5731,-.5 938.5731,-19.5 1005.5731,-19.5 1005.5731,-.5 938.5731,-.5"/>
<text text-anchor="middle" x="972.0731" y="-7.5" font-family="Helvetica,sans-Serif" font-size="10.00" fill="#000000">blitz/array.h</text>
</g>
<!-- Node10&#45;&gt;Node12 -->
<g id="edge20" class="edge">
<title>Node10&#45;&gt;Node12</title>
<path fill="none" stroke="#191970" d="M982.0093,-168.4913C990.2491,-159.8654 1001.3498,-146.3368 1006.0731,-132 1018.0462,-95.6577 998.0298,-52.3487 983.9827,-28.3384"/>
<polygon fill="#191970" stroke="#191970" points="986.8256,-26.279 978.6158,-19.5819 980.8574,-29.9369 986.8256,-26.279"/>
</g>
<!-- Node13 -->
<g id="node14" class="node">
<title>Node13</title>
<polygon fill="none" stroke="#bfbfbf" points="1053.0731,-112.5 1053.0731,-131.5 1109.0731,-131.5 1109.0731,-112.5 1053.0731,-112.5"/>
<text text-anchor="middle" x="1081.0731" y="-119.5" font-family="Helvetica,sans-Serif" font-size="10.00" fill="#000000">config.hh</text>
</g>
<!-- Node10&#45;&gt;Node13 -->
<g id="edge21" class="edge">
<title>Node10&#45;&gt;Node13</title>
<path fill="none" stroke="#191970" d="M991.0595,-168.2455C1008.2523,-159.4125 1033.7969,-146.2887 1053.2863,-136.2758"/>
<polygon fill="#191970" stroke="#191970" points="1055.009,-139.3257 1062.3043,-131.6427 1051.8101,-133.0993 1055.009,-139.3257"/>
</g>
<!-- Node14 -->
<g id="node15" class="node">
<title>Node14</title>
<g id="a_node15"><a xlink:href="closed__interval_8hh.html" target="_top" xlink:title="apmath/closed_interval.hh">
<polygon fill="none" stroke="#000000" points="669.5731,-112.5 669.5731,-131.5 800.5731,-131.5 800.5731,-112.5 669.5731,-112.5"/>
<text text-anchor="middle" x="735.0731" y="-119.5" font-family="Helvetica,sans-Serif" font-size="10.00" fill="#000000">apmath/closed_interval.hh</text>
</a>
</g>
</g>
<!-- Node10&#45;&gt;Node14 -->
<g id="edge22" class="edge">
<title>Node10&#45;&gt;Node14</title>
<path fill="none" stroke="#191970" d="M945.3469,-171.6849C906.6136,-162.5328 834.1743,-145.4163 785.282,-133.8637"/>
<polygon fill="#191970" stroke="#191970" points="786.0678,-130.4531 775.5309,-131.5596 784.458,-137.2655 786.0678,-130.4531"/>
</g>
<!-- Node14&#45;&gt;Node1 -->
<g id="edge23" class="edge">
<title>Node14&#45;&gt;Node1</title>
<path fill="none" stroke="#191970" d="M669.2304,-116.083C565.6501,-106.5975 369.3121,-87.8532 300.0731,-76 297.7043,-75.5945 295.2701,-75.1337 292.8239,-74.6378"/>
<polygon fill="#191970" stroke="#191970" points="293.3552,-71.1713 282.8382,-72.4536 291.8594,-78.0097 293.3552,-71.1713"/>
</g>
<!-- Node14&#45;&gt;Node2 -->
<g id="edge24" class="edge">
<title>Node14&#45;&gt;Node2</title>
<path fill="none" stroke="#191970" d="M695.796,-112.4369C652.4144,-101.8744 583.1528,-85.0107 541.1126,-74.7748"/>
<polygon fill="#191970" stroke="#191970" points="541.8428,-71.3504 531.2986,-72.3853 540.1868,-78.1517 541.8428,-71.3504"/>
</g>
<!-- Node14&#45;&gt;Node8 -->
<g id="edge25" class="edge">
<title>Node14&#45;&gt;Node8</title>
<path fill="none" stroke="#191970" d="M727.0587,-112.4509C711.2419,-93.6054 675.8068,-51.3849 655.7118,-27.4419"/>
<polygon fill="#191970" stroke="#191970" points="658.1769,-24.9346 649.0672,-19.5249 652.815,-29.4347 658.1769,-24.9346"/>
</g>
<!-- Node15&#45;&gt;Node12 -->
<g id="edge27" class="edge">
<title>Node15&#45;&gt;Node12</title>
<path fill="none" stroke="#191970" d="M1099.5337,-168.3836C1111.1672,-155.3365 1128.1987,-131.4259 1118.0731,-112 1095.081,-67.8895 1043.3294,-38.9379 1008.0442,-23.5126"/>
<polygon fill="#191970" stroke="#191970" points="1009.1406,-20.1767 998.5661,-19.5193 1006.4226,-26.6275 1009.1406,-20.1767"/>
</g>
<!-- Node16&#45;&gt;Node1 -->
<g id="edge31" class="edge">
<title>Node16&#45;&gt;Node1</title>
<path fill="none" stroke="#191970" d="M557.0621,-175.7456C493.4292,-170.6643 350.5934,-156.7846 309.0731,-132 290.5097,-120.919 276.2526,-100.3153 267.5927,-85.0648"/>
<polygon fill="#191970" stroke="#191970" points="270.5281,-83.1324 262.7211,-75.97 264.3576,-86.4377 270.5281,-83.1324"/>
</g>
<!-- Node16&#45;&gt;Node2 -->
<g id="edge32" class="edge">
<title>Node16&#45;&gt;Node2</title>
<path fill="none" stroke="#191970" d="M580.9966,-168.4509C567.0919,-149.688 536.0164,-107.7548 518.233,-83.758"/>
<polygon fill="#191970" stroke="#191970" points="520.8978,-81.4753 512.1317,-75.5249 515.2738,-85.6431 520.8978,-81.4753"/>
</g>
<!-- Node16&#45;&gt;Node8 -->
<g id="edge29" class="edge">
<title>Node16&#45;&gt;Node8</title>
<path fill="none" stroke="#191970" d="M597.4685,-168.2897C605.3616,-159.5345 616.2575,-145.9295 622.0731,-132 636.2609,-98.0175 639.9631,-54.7037 640.8635,-29.8859"/>
<polygon fill="#191970" stroke="#191970" points="644.3694,-29.6781 641.111,-19.5968 637.3715,-29.5097 644.3694,-29.6781"/>
</g>
<!-- Node16&#45;&gt;Node12 -->
<g id="edge33" class="edge">
<title>Node16&#45;&gt;Node12</title>
<path fill="none" stroke="#191970" d="M619.2852,-176.7702C688.9407,-173.4976 854.525,-162.6298 900.0731,-132 936.8278,-107.2835 957.5021,-56.9649 966.5309,-29.2981"/>
<polygon fill="#191970" stroke="#191970" points="969.9221,-30.1779 969.5212,-19.5906 963.2323,-28.1171 969.9221,-30.1779"/>
</g>
<!-- Node17 -->
<g id="node18" class="node">
<title>Node17</title>
<polygon fill="none" stroke="#bfbfbf" points="563.0731,-112.5 563.0731,-131.5 613.0731,-131.5 613.0731,-112.5 563.0731,-112.5"/>
<text text-anchor="middle" x="588.0731" y="-119.5" font-family="Helvetica,sans-Serif" font-size="10.00" fill="#000000">iomanip</text>
</g>
<!-- Node16&#45;&gt;Node17 -->
<g id="edge30" class="edge">
<title>Node16&#45;&gt;Node17</title>
<path fill="none" stroke="#191970" d="M588.0731,-168.2455C588.0731,-160.9382 588.0731,-150.6944 588.0731,-141.7046"/>
<polygon fill="#191970" stroke="#191970" points="591.5732,-141.6426 588.0731,-131.6427 584.5732,-141.6427 591.5732,-141.6426"/>
</g>
<!-- Node18 -->
<g id="node19" class="node">
<title>Node18</title>
<g id="a_node19"><a xlink:href="validators_8hh.html" target="_top" xlink:title="validators.hh">
<polygon fill="none" stroke="#000000" points="819.0731,-112.5 819.0731,-131.5 891.0731,-131.5 891.0731,-112.5 819.0731,-112.5"/>
<text text-anchor="middle" x="855.0731" y="-119.5" font-family="Helvetica,sans-Serif" font-size="10.00" fill="#000000">validators.hh</text>
</a>
</g>
</g>
<!-- Node16&#45;&gt;Node18 -->
<g id="edge34" class="edge">
<title>Node16&#45;&gt;Node18</title>
<path fill="none" stroke="#191970" d="M619.353,-171.6659C660.5118,-163.2992 735.3609,-147.9735 808.8469,-132.243"/>
<polygon fill="#191970" stroke="#191970" points="809.6901,-135.6419 818.7336,-130.1224 808.2219,-128.7975 809.6901,-135.6419"/>
</g>
<!-- Node19 -->
<g id="node20" class="node">
<title>Node19</title>
<polygon fill="none" stroke="#bfbfbf" points="828.5731,-56.5 828.5731,-75.5 887.5731,-75.5 887.5731,-56.5 828.5731,-56.5"/>
<text text-anchor="middle" x="858.0731" y="-63.5" font-family="Helvetica,sans-Serif" font-size="10.00" fill="#000000">stdexcept</text>
</g>
<!-- Node18&#45;&gt;Node19 -->
<g id="edge35" class="edge">
<title>Node18&#45;&gt;Node19</title>
<path fill="none" stroke="#191970" d="M855.5957,-112.2455C855.9871,-104.9382 856.5359,-94.6944 857.0175,-85.7046"/>
<polygon fill="#191970" stroke="#191970" points="860.5165,-85.8156 857.5565,-75.6427 853.5265,-85.4411 860.5165,-85.8156"/>
</g>
<!-- Node20 -->
<g id="node21" class="node">
<title>Node20</title>
<g id="a_node21"><a xlink:href="blitz_8hh.html" target="_top" xlink:title="blitz.hh">
<polygon fill="none" stroke="#000000" points="762.0731,-56.5 762.0731,-75.5 810.0731,-75.5 810.0731,-56.5 762.0731,-56.5"/>
<text text-anchor="middle" x="786.0731" y="-63.5" font-family="Helvetica,sans-Serif" font-size="10.00" fill="#000000">blitz.hh</text>
</a>
</g>
</g>
<!-- Node18&#45;&gt;Node20 -->
<g id="edge36" class="edge">
<title>Node18&#45;&gt;Node20</title>
<path fill="none" stroke="#191970" d="M843.0542,-112.2455C832.8633,-103.9746 818.0369,-91.9416 806.0624,-82.2232"/>
<polygon fill="#191970" stroke="#191970" points="807.9245,-79.2268 797.9543,-75.6427 803.5133,-84.662 807.9245,-79.2268"/>
</g>
<!-- Node20&#45;&gt;Node8 -->
<g id="edge39" class="edge">
<title>Node20&#45;&gt;Node8</title>
<path fill="none" stroke="#191970" d="M761.8034,-56.6269C737.4974,-47.2397 699.9553,-32.7407 673.1925,-22.4047"/>
<polygon fill="#191970" stroke="#191970" points="674.1027,-19.0043 663.5132,-18.6665 671.5807,-25.5343 674.1027,-19.0043"/>
</g>
<!-- Node20&#45;&gt;Node12 -->
<g id="edge38" class="edge">
<title>Node20&#45;&gt;Node12</title>
<path fill="none" stroke="#191970" d="M810.3894,-58.679C840.8125,-49.5193 893.3919,-33.689 930.3107,-22.5736"/>
<polygon fill="#191970" stroke="#191970" points="931.7105,-25.8074 940.2769,-19.573 929.6925,-19.1046 931.7105,-25.8074"/>
</g>
<!-- Node21 -->
<g id="node22" class="node">
<title>Node21</title>
<polygon fill="none" stroke="#bfbfbf" points="758.0731,-.5 758.0731,-19.5 814.0731,-19.5 814.0731,-.5 758.0731,-.5"/>
<text text-anchor="middle" x="786.0731" y="-7.5" font-family="Helvetica,sans-Serif" font-size="10.00" fill="#000000">algorithm</text>
</g>
<!-- Node20&#45;&gt;Node21 -->
<g id="edge37" class="edge">
<title>Node20&#45;&gt;Node21</title>
<path fill="none" stroke="#191970" d="M786.0731,-56.2455C786.0731,-48.9382 786.0731,-38.6944 786.0731,-29.7046"/>
<polygon fill="#191970" stroke="#191970" points="789.5732,-29.6426 786.0731,-19.6427 782.5732,-29.6427 789.5732,-29.6426"/>
</g>
</g>
</svg>
