<?xml version="1.0" encoding="UTF-8" standalone="no"?>
<!DOCTYPE svg PUBLIC "-//W3C//DTD SVG 1.1//EN"
 "http://www.w3.org/Graphics/SVG/1.1/DTD/svg11.dtd">
<!-- Generated by graphviz version 2.36.0 (20140111.2315)
 -->
<!-- Title: /home/travis/build/igankevich/arma/src/nonlinear/nit_transform.cc Pages: 1 -->
<svg width="1851pt" height="330pt"
 viewBox="0.00 0.00 1851.00 330.00" xmlns="http://www.w3.org/2000/svg" xmlns:xlink="http://www.w3.org/1999/xlink">
<g id="graph0" class="graph" transform="scale(1 1) rotate(0) translate(4 326)">
<title>/home/travis/build/igankevich/arma/src/nonlinear/nit_transform.cc</title>
<!-- Node1 -->
<g id="node1" class="node"><title>Node1</title>
<polygon fill="#bfbfbf" stroke="black" points="1401,-280.5 1401,-321.5 1533,-321.5 1533,-280.5 1401,-280.5"/>
<text text-anchor="start" x="1409" y="-309.5" font-family="Helvetica,sans-Serif" font-size="10.00">/home/travis/build</text>
<text text-anchor="start" x="1409" y="-298.5" font-family="Helvetica,sans-Serif" font-size="10.00">/igankevich/arma/src</text>
<text text-anchor="middle" x="1467" y="-287.5" font-family="Helvetica,sans-Serif" font-size="10.00">/nonlinear/nit_transform.cc</text>
</g>
<!-- Node2 -->
<g id="node2" class="node"><title>Node2</title>
<g id="a_node2"><a xlink:href="nit__transform_8hh.html" target="_top" xlink:title="nit_transform.hh">
<polygon fill="none" stroke="black" points="477.5,-224.5 477.5,-243.5 564.5,-243.5 564.5,-224.5 477.5,-224.5"/>
<text text-anchor="middle" x="521" y="-231.5" font-family="Helvetica,sans-Serif" font-size="10.00">nit_transform.hh</text>
</a>
</g>
</g>
<!-- Node1&#45;&gt;Node2 -->
<g id="edge1" class="edge"><title>Node1&#45;&gt;Node2</title>
<path fill="none" stroke="midnightblue" d="M1400.86,-295.455C1223.09,-283.241 737.53,-249.878 574.896,-238.703"/>
<polygon fill="midnightblue" stroke="midnightblue" points="574.873,-235.194 564.657,-238 574.394,-242.177 574.873,-235.194"/>
</g>
<!-- Node10 -->
<g id="node10" class="node"><title>Node10</title>
<polygon fill="none" stroke="#bfbfbf" points="699,-0.5 699,-19.5 743,-19.5 743,-0.5 699,-0.5"/>
<text text-anchor="middle" x="721" y="-7.5" font-family="Helvetica,sans-Serif" font-size="10.00">cmath</text>
</g>
<!-- Node1&#45;&gt;Node10 -->
<g id="edge62" class="edge"><title>Node1&#45;&gt;Node10</title>
<path fill="none" stroke="midnightblue" d="M1400.65,-290.669C1286.98,-272.688 1050.06,-226.383 872,-132 817.095,-102.897 762.696,-52.6755 736.739,-27.0507"/>
<polygon fill="midnightblue" stroke="midnightblue" points="738.891,-24.2524 729.346,-19.6532 733.939,-29.2006 738.891,-24.2524"/>
</g>
<!-- Node22 -->
<g id="node22" class="node"><title>Node22</title>
<g id="a_node22"><a xlink:href="validators_8hh.html" target="_top" xlink:title="validators.hh">
<polygon fill="none" stroke="black" points="881,-112.5 881,-131.5 953,-131.5 953,-112.5 881,-112.5"/>
<text text-anchor="middle" x="917" y="-119.5" font-family="Helvetica,sans-Serif" font-size="10.00">validators.hh</text>
</a>
</g>
</g>
<!-- Node1&#45;&gt;Node22 -->
<g id="edge46" class="edge"><title>Node1&#45;&gt;Node22</title>
<path fill="none" stroke="midnightblue" d="M1406.3,-280.467C1291.59,-243.55 1046.17,-164.57 953.471,-134.737"/>
<polygon fill="midnightblue" stroke="midnightblue" points="954.296,-131.326 943.704,-131.594 952.151,-137.989 954.296,-131.326"/>
</g>
<!-- Node23 -->
<g id="node23" class="node"><title>Node23</title>
<polygon fill="none" stroke="#bfbfbf" points="1124.5,-56.5 1124.5,-75.5 1183.5,-75.5 1183.5,-56.5 1124.5,-56.5"/>
<text text-anchor="middle" x="1154" y="-63.5" font-family="Helvetica,sans-Serif" font-size="10.00">stdexcept</text>
</g>
<!-- Node1&#45;&gt;Node23 -->
<g id="edge60" class="edge"><title>Node1&#45;&gt;Node23</title>
<path fill="none" stroke="midnightblue" d="M1490.66,-280.463C1539.76,-238.852 1645.93,-142.765 1618,-112 1603.79,-96.3434 1303.49,-76.2565 1193.73,-69.4096"/>
<polygon fill="midnightblue" stroke="midnightblue" points="1193.91,-65.9144 1183.72,-68.7889 1193.48,-72.901 1193.91,-65.9144"/>
</g>
<!-- Node26 -->
<g id="node26" class="node"><title>Node26</title>
<g id="a_node26"><a xlink:href="params_8hh.html" target="_top" xlink:title="params.hh">
<polygon fill="none" stroke="black" points="1623,-224.5 1623,-243.5 1685,-243.5 1685,-224.5 1623,-224.5"/>
<text text-anchor="middle" x="1654" y="-231.5" font-family="Helvetica,sans-Serif" font-size="10.00">params.hh</text>
</a>
</g>
</g>
<!-- Node1&#45;&gt;Node26 -->
<g id="edge42" class="edge"><title>Node1&#45;&gt;Node26</title>
<path fill="none" stroke="midnightblue" d="M1523.11,-280.498C1554.4,-269.622 1592.37,-256.421 1619.35,-247.045"/>
<polygon fill="midnightblue" stroke="midnightblue" points="1620.81,-250.242 1629.11,-243.652 1618.51,-243.63 1620.81,-250.242"/>
</g>
<!-- Node28 -->
<g id="node28" class="node"><title>Node28</title>
<polygon fill="none" stroke="#bfbfbf" points="1801.5,-168.5 1801.5,-187.5 1842.5,-187.5 1842.5,-168.5 1801.5,-168.5"/>
<text text-anchor="middle" x="1822" y="-175.5" font-family="Helvetica,sans-Serif" font-size="10.00">string</text>
</g>
<!-- Node1&#45;&gt;Node28 -->
<g id="edge59" class="edge"><title>Node1&#45;&gt;Node28</title>
<path fill="none" stroke="midnightblue" d="M1533.49,-287.746C1579.17,-278.31 1640.76,-263.566 1693,-244 1711.24,-237.167 1714.62,-232.8 1732,-224 1753.3,-213.212 1777.51,-201.116 1795.46,-192.183"/>
<polygon fill="midnightblue" stroke="midnightblue" points="1797.33,-195.162 1804.72,-187.575 1794.21,-188.895 1797.33,-195.162"/>
</g>
<!-- Node30 -->
<g id="node30" class="node"><title>Node30</title>
<g id="a_node30"><a xlink:href="transforms_8hh.html" target="_top" xlink:title="transforms.hh">
<polygon fill="none" stroke="black" points="1394.5,-224.5 1394.5,-243.5 1471.5,-243.5 1471.5,-224.5 1394.5,-224.5"/>
<text text-anchor="middle" x="1433" y="-231.5" font-family="Helvetica,sans-Serif" font-size="10.00">transforms.hh</text>
</a>
</g>
</g>
<!-- Node1&#45;&gt;Node30 -->
<g id="edge47" class="edge"><title>Node1&#45;&gt;Node30</title>
<path fill="none" stroke="midnightblue" d="M1456.8,-280.498C1452.19,-271.682 1446.78,-261.339 1442.28,-252.743"/>
<polygon fill="midnightblue" stroke="midnightblue" points="1445.26,-250.891 1437.53,-243.652 1439.06,-254.136 1445.26,-250.891"/>
</g>
<!-- Node33 -->
<g id="node33" class="node"><title>Node33</title>
<g id="a_node33"><a xlink:href="series_8hh.html" target="_top" xlink:title="series.hh">
<polygon fill="none" stroke="black" points="1319,-224.5 1319,-243.5 1375,-243.5 1375,-224.5 1319,-224.5"/>
<text text-anchor="middle" x="1347" y="-231.5" font-family="Helvetica,sans-Serif" font-size="10.00">series.hh</text>
</a>
</g>
</g>
<!-- Node1&#45;&gt;Node33 -->
<g id="edge52" class="edge"><title>Node1&#45;&gt;Node33</title>
<path fill="none" stroke="midnightblue" d="M1431,-280.498C1411.89,-270.149 1388.9,-257.695 1371.8,-248.435"/>
<polygon fill="midnightblue" stroke="midnightblue" points="1373.43,-245.338 1362.97,-243.652 1370.1,-251.493 1373.43,-245.338"/>
</g>
<!-- Node34 -->
<g id="node34" class="node"><title>Node34</title>
<g id="a_node34"><a xlink:href="util_8hh.html" target="_top" xlink:title="util.hh">
<polygon fill="none" stroke="black" points="1481.5,-168.5 1481.5,-187.5 1524.5,-187.5 1524.5,-168.5 1481.5,-168.5"/>
<text text-anchor="middle" x="1503" y="-175.5" font-family="Helvetica,sans-Serif" font-size="10.00">util.hh</text>
</a>
</g>
</g>
<!-- Node1&#45;&gt;Node34 -->
<g id="edge54" class="edge"><title>Node1&#45;&gt;Node34</title>
<path fill="none" stroke="midnightblue" d="M1472.86,-280.29C1479.71,-257.27 1490.95,-219.503 1497.59,-197.168"/>
<polygon fill="midnightblue" stroke="midnightblue" points="1500.95,-198.158 1500.45,-187.575 1494.24,-196.161 1500.95,-198.158"/>
</g>
<!-- Node37 -->
<g id="node37" class="node"><title>Node37</title>
<polygon fill="none" stroke="#bfbfbf" points="1741,-224.5 1741,-243.5 1795,-243.5 1795,-224.5 1741,-224.5"/>
<text text-anchor="middle" x="1768" y="-231.5" font-family="Helvetica,sans-Serif" font-size="10.00">iostream</text>
</g>
<!-- Node1&#45;&gt;Node37 -->
<g id="edge61" class="edge"><title>Node1&#45;&gt;Node37</title>
<path fill="none" stroke="midnightblue" d="M1533,-285.859C1585.56,-274.58 1661.01,-258.349 1727,-244 1728.24,-243.73 1729.5,-243.455 1730.78,-243.177"/>
<polygon fill="midnightblue" stroke="midnightblue" points="1731.63,-246.573 1740.66,-241.018 1730.14,-239.734 1731.63,-246.573"/>
</g>
<!-- Node3 -->
<g id="node3" class="node"><title>Node3</title>
<polygon fill="none" stroke="#bfbfbf" points="266.5,-56.5 266.5,-75.5 315.5,-75.5 315.5,-56.5 266.5,-56.5"/>
<text text-anchor="middle" x="291" y="-63.5" font-family="Helvetica,sans-Serif" font-size="10.00">istream</text>
</g>
<!-- Node2&#45;&gt;Node3 -->
<g id="edge2" class="edge"><title>Node2&#45;&gt;Node3</title>
<path fill="none" stroke="midnightblue" d="M477.378,-229.553C425.571,-224.505 337.099,-212.855 265,-188 214.999,-170.763 187.211,-177.352 160,-132 155.427,-124.378 154.836,-119.235 160,-112 165.827,-103.838 219.685,-87.2051 256.503,-76.6071"/>
<polygon fill="midnightblue" stroke="midnightblue" points="257.725,-79.8982 266.381,-73.7899 255.805,-73.1666 257.725,-79.8982"/>
</g>
<!-- Node4 -->
<g id="node4" class="node"><title>Node4</title>
<polygon fill="none" stroke="#bfbfbf" points="495,-56.5 495,-75.5 547,-75.5 547,-56.5 495,-56.5"/>
<text text-anchor="middle" x="521" y="-63.5" font-family="Helvetica,sans-Serif" font-size="10.00">ostream</text>
</g>
<!-- Node2&#45;&gt;Node4 -->
<g id="edge3" class="edge"><title>Node2&#45;&gt;Node4</title>
<path fill="none" stroke="midnightblue" d="M521,-224.075C521,-197.945 521,-121.211 521,-85.577"/>
<polygon fill="midnightblue" stroke="midnightblue" points="524.5,-85.5681 521,-75.5681 517.5,-85.5681 524.5,-85.5681"/>
</g>
<!-- Node5 -->
<g id="node5" class="node"><title>Node5</title>
<g id="a_node5"><a xlink:href="gaussian_8hh.html" target="_top" xlink:title="stats/gaussian.hh">
<polygon fill="none" stroke="black" points="169,-112.5 169,-131.5 263,-131.5 263,-112.5 169,-112.5"/>
<text text-anchor="middle" x="216" y="-119.5" font-family="Helvetica,sans-Serif" font-size="10.00">stats/gaussian.hh</text>
</a>
</g>
</g>
<!-- Node2&#45;&gt;Node5 -->
<g id="edge4" class="edge"><title>Node2&#45;&gt;Node5</title>
<path fill="none" stroke="midnightblue" d="M477.275,-229.739C431.77,-225.058 359.288,-213.923 302,-188 274.993,-175.779 248.484,-153.798 232.195,-138.813"/>
<polygon fill="midnightblue" stroke="midnightblue" points="234.335,-136.02 224.66,-131.703 229.531,-141.112 234.335,-136.02"/>
</g>
<!-- Node7 -->
<g id="node7" class="node"><title>Node7</title>
<g id="a_node7"><a xlink:href="skew__normal_8hh.html" target="_top" xlink:title="stats/skew_normal.hh">
<polygon fill="none" stroke="black" points="311.5,-168.5 311.5,-187.5 424.5,-187.5 424.5,-168.5 311.5,-168.5"/>
<text text-anchor="middle" x="368" y="-175.5" font-family="Helvetica,sans-Serif" font-size="10.00">stats/skew_normal.hh</text>
</a>
</g>
</g>
<!-- Node2&#45;&gt;Node7 -->
<g id="edge8" class="edge"><title>Node2&#45;&gt;Node7</title>
<path fill="none" stroke="midnightblue" d="M496.757,-224.444C471.129,-215.399 430.515,-201.064 401.762,-190.916"/>
<polygon fill="midnightblue" stroke="midnightblue" points="402.725,-187.544 392.13,-187.516 400.395,-194.145 402.725,-187.544"/>
</g>
<!-- Node9 -->
<g id="node9" class="node"><title>Node9</title>
<g id="a_node9"><a xlink:href="gram__charlier_8hh.html" target="_top" xlink:title="stats/gram_charlier.hh">
<polygon fill="none" stroke="black" points="-0.5,-112.5 -0.5,-131.5 112.5,-131.5 112.5,-112.5 -0.5,-112.5"/>
<text text-anchor="middle" x="56" y="-119.5" font-family="Helvetica,sans-Serif" font-size="10.00">stats/gram_charlier.hh</text>
</a>
</g>
</g>
<!-- Node2&#45;&gt;Node9 -->
<g id="edge13" class="edge"><title>Node2&#45;&gt;Node9</title>
<path fill="none" stroke="midnightblue" d="M477.358,-231.397C388.256,-227.579 188.633,-216.081 127,-188 103.1,-177.111 81.7868,-155.095 68.8914,-139.718"/>
<polygon fill="midnightblue" stroke="midnightblue" points="71.318,-137.151 62.3155,-131.565 65.8694,-141.546 71.318,-137.151"/>
</g>
<!-- Node12 -->
<g id="node12" class="node"><title>Node12</title>
<g id="a_node12"><a xlink:href="linalg_8hh.html" target="_top" xlink:title="linalg.hh">
<polygon fill="none" stroke="black" points="1141.5,-168.5 1141.5,-187.5 1194.5,-187.5 1194.5,-168.5 1141.5,-168.5"/>
<text text-anchor="middle" x="1168" y="-175.5" font-family="Helvetica,sans-Serif" font-size="10.00">linalg.hh</text>
</a>
</g>
</g>
<!-- Node2&#45;&gt;Node12 -->
<g id="edge19" class="edge"><title>Node2&#45;&gt;Node12</title>
<path fill="none" stroke="midnightblue" d="M564.709,-229.352C685.023,-219.31 1019.54,-191.39 1131.19,-182.072"/>
<polygon fill="midnightblue" stroke="midnightblue" points="1131.61,-185.549 1141.29,-181.23 1131.03,-178.574 1131.61,-185.549"/>
</g>
<!-- Node18 -->
<g id="node18" class="node"><title>Node18</title>
<g id="a_node18"><a xlink:href="types_8hh.html" target="_top" xlink:title="types.hh">
<polygon fill="none" stroke="black" points="1003,-56.5 1003,-75.5 1057,-75.5 1057,-56.5 1003,-56.5"/>
<text text-anchor="middle" x="1030" y="-63.5" font-family="Helvetica,sans-Serif" font-size="10.00">types.hh</text>
</a>
</g>
</g>
<!-- Node2&#45;&gt;Node18 -->
<g id="edge28" class="edge"><title>Node2&#45;&gt;Node18</title>
<path fill="none" stroke="midnightblue" d="M564.689,-230.649C647.076,-224.619 829.051,-203.597 962,-132 984.357,-119.96 1004.64,-98.5676 1017.12,-83.6248"/>
<polygon fill="midnightblue" stroke="midnightblue" points="1019.97,-85.671 1023.53,-75.6914 1014.52,-81.2741 1019.97,-85.671"/>
</g>
<!-- Node19 -->
<g id="node19" class="node"><title>Node19</title>
<g id="a_node19"><a xlink:href="domain_8hh.html" target="_top" xlink:title="domain.hh">
<polygon fill="none" stroke="black" points="596,-168.5 596,-187.5 658,-187.5 658,-168.5 596,-168.5"/>
<text text-anchor="middle" x="627" y="-175.5" font-family="Helvetica,sans-Serif" font-size="10.00">domain.hh</text>
</a>
</g>
</g>
<!-- Node2&#45;&gt;Node19 -->
<g id="edge30" class="edge"><title>Node2&#45;&gt;Node19</title>
<path fill="none" stroke="midnightblue" d="M538.031,-224.324C555.03,-215.664 581.376,-202.242 600.993,-192.249"/>
<polygon fill="midnightblue" stroke="midnightblue" points="602.69,-195.312 610.012,-187.655 599.512,-189.075 602.69,-195.312"/>
</g>
<!-- Node5&#45;&gt;Node3 -->
<g id="edge5" class="edge"><title>Node5&#45;&gt;Node3</title>
<path fill="none" stroke="midnightblue" d="M228.05,-112.324C239.463,-104.107 256.831,-91.6017 270.435,-81.8069"/>
<polygon fill="midnightblue" stroke="midnightblue" points="272.66,-84.5174 278.731,-75.8339 268.57,-78.8366 272.66,-84.5174"/>
</g>
<!-- Node5&#45;&gt;Node4 -->
<g id="edge6" class="edge"><title>Node5&#45;&gt;Node4</title>
<path fill="none" stroke="midnightblue" d="M263.322,-112.622C324.469,-101.796 429.603,-83.1817 484.78,-73.4127"/>
<polygon fill="midnightblue" stroke="midnightblue" points="485.564,-76.8284 494.801,-71.6386 484.344,-69.9356 485.564,-76.8284"/>
</g>
<!-- Node6 -->
<g id="node6" class="node"><title>Node6</title>
<polygon fill="none" stroke="#bfbfbf" points="176,-56.5 176,-75.5 248,-75.5 248,-56.5 176,-56.5"/>
<text text-anchor="middle" x="212" y="-63.5" font-family="Helvetica,sans-Serif" font-size="10.00">gsl/gsl_cdf.h</text>
</g>
<!-- Node5&#45;&gt;Node6 -->
<g id="edge7" class="edge"><title>Node5&#45;&gt;Node6</title>
<path fill="none" stroke="midnightblue" d="M215.339,-112.083C214.815,-105.006 214.064,-94.8611 213.406,-85.9865"/>
<polygon fill="midnightblue" stroke="midnightblue" points="216.877,-85.4652 212.648,-75.7511 209.897,-85.9823 216.877,-85.4652"/>
</g>
<!-- Node7&#45;&gt;Node3 -->
<g id="edge9" class="edge"><title>Node7&#45;&gt;Node3</title>
<path fill="none" stroke="midnightblue" d="M351.936,-168.372C338.821,-160.537 320.757,-147.803 310,-132 300.593,-118.181 295.774,-99.6607 293.349,-85.9246"/>
<polygon fill="midnightblue" stroke="midnightblue" points="296.764,-85.0938 291.827,-75.7197 289.841,-86.1268 296.764,-85.0938"/>
</g>
<!-- Node7&#45;&gt;Node4 -->
<g id="edge10" class="edge"><title>Node7&#45;&gt;Node4</title>
<path fill="none" stroke="midnightblue" d="M380.006,-168.368C406.149,-149.573 468.468,-104.768 500.785,-81.5334"/>
<polygon fill="midnightblue" stroke="midnightblue" points="502.974,-84.2707 509.05,-75.5914 498.888,-78.5871 502.974,-84.2707"/>
</g>
<!-- Node7&#45;&gt;Node5 -->
<g id="edge11" class="edge"><title>Node7&#45;&gt;Node5</title>
<path fill="none" stroke="midnightblue" d="M343.915,-168.444C318.455,-159.399 278.106,-145.064 249.541,-134.916"/>
<polygon fill="midnightblue" stroke="midnightblue" points="250.567,-131.566 239.972,-131.516 248.223,-138.162 250.567,-131.566"/>
</g>
<!-- Node8 -->
<g id="node8" class="node"><title>Node8</title>
<g id="a_node8"><a xlink:href="owen__t_8hh.html" target="_top" xlink:title="apmath/owen_t.hh">
<polygon fill="none" stroke="black" points="319.5,-112.5 319.5,-131.5 416.5,-131.5 416.5,-112.5 319.5,-112.5"/>
<text text-anchor="middle" x="368" y="-119.5" font-family="Helvetica,sans-Serif" font-size="10.00">apmath/owen_t.hh</text>
</a>
</g>
</g>
<!-- Node7&#45;&gt;Node8 -->
<g id="edge12" class="edge"><title>Node7&#45;&gt;Node8</title>
<path fill="none" stroke="midnightblue" d="M368,-168.083C368,-161.006 368,-150.861 368,-141.986"/>
<polygon fill="midnightblue" stroke="midnightblue" points="371.5,-141.751 368,-131.751 364.5,-141.751 371.5,-141.751"/>
</g>
<!-- Node9&#45;&gt;Node3 -->
<g id="edge14" class="edge"><title>Node9&#45;&gt;Node3</title>
<path fill="none" stroke="midnightblue" d="M96.1489,-112.488C134.734,-104.201 194.917,-90.9996 256.289,-76.1022"/>
<polygon fill="midnightblue" stroke="midnightblue" points="257.26,-79.4679 266.146,-73.6972 255.601,-72.6674 257.26,-79.4679"/>
</g>
<!-- Node9&#45;&gt;Node4 -->
<g id="edge15" class="edge"><title>Node9&#45;&gt;Node4</title>
<path fill="none" stroke="midnightblue" d="M112.553,-114.433C209.378,-103.188 404.244,-80.5588 484.838,-71.1994"/>
<polygon fill="midnightblue" stroke="midnightblue" points="485.454,-74.6515 494.984,-70.0213 484.647,-67.6983 485.454,-74.6515"/>
</g>
<!-- Node9&#45;&gt;Node10 -->
<g id="edge16" class="edge"><title>Node9&#45;&gt;Node10</title>
<path fill="none" stroke="midnightblue" d="M69.1243,-112.305C93.7945,-96.1335 146.447,-62.4796 167,-56 265.331,-24.9999 585.506,-14.3985 688.659,-11.741"/>
<polygon fill="midnightblue" stroke="midnightblue" points="688.866,-15.237 698.775,-11.4881 688.691,-8.23918 688.866,-15.237"/>
</g>
<!-- Node11 -->
<g id="node11" class="node"><title>Node11</title>
<g id="a_node11"><a xlink:href="physical__constants_8hh.html" target="_top" xlink:title="physical_constants.hh">
<polygon fill="none" stroke="black" points="1,-56.5 1,-75.5 115,-75.5 115,-56.5 1,-56.5"/>
<text text-anchor="middle" x="58" y="-63.5" font-family="Helvetica,sans-Serif" font-size="10.00">physical_constants.hh</text>
</a>
</g>
</g>
<!-- Node9&#45;&gt;Node11 -->
<g id="edge17" class="edge"><title>Node9&#45;&gt;Node11</title>
<path fill="none" stroke="midnightblue" d="M56.3303,-112.083C56.5924,-105.006 56.9681,-94.8611 57.2968,-85.9865"/>
<polygon fill="midnightblue" stroke="midnightblue" points="60.8033,-85.8738 57.6759,-75.7511 53.8081,-85.6147 60.8033,-85.8738"/>
</g>
<!-- Node11&#45;&gt;Node10 -->
<g id="edge18" class="edge"><title>Node11&#45;&gt;Node10</title>
<path fill="none" stroke="midnightblue" d="M115.338,-57.7694C120.965,-57.1372 126.591,-56.5353 132,-56 344.076,-35.0127 599.95,-18.4467 688.78,-12.9528"/>
<polygon fill="midnightblue" stroke="midnightblue" points="689.005,-16.4457 698.771,-12.3382 688.575,-9.45896 689.005,-16.4457"/>
</g>
<!-- Node13 -->
<g id="node13" class="node"><title>Node13</title>
<polygon fill="none" stroke="#bfbfbf" points="1231.5,-112.5 1231.5,-131.5 1280.5,-131.5 1280.5,-112.5 1231.5,-112.5"/>
<text text-anchor="middle" x="1256" y="-119.5" font-family="Helvetica,sans-Serif" font-size="10.00">cassert</text>
</g>
<!-- Node12&#45;&gt;Node13 -->
<g id="edge20" class="edge"><title>Node12&#45;&gt;Node13</title>
<path fill="none" stroke="midnightblue" d="M1182.14,-168.324C1195.87,-159.9 1216.94,-146.971 1233.06,-137.074"/>
<polygon fill="midnightblue" stroke="midnightblue" points="1235.2,-139.868 1241.9,-131.655 1231.54,-133.902 1235.2,-139.868"/>
</g>
<!-- Node14 -->
<g id="node14" class="node"><title>Node14</title>
<polygon fill="none" stroke="#bfbfbf" points="1135,-0.5 1135,-19.5 1203,-19.5 1203,-0.5 1135,-0.5"/>
<text text-anchor="middle" x="1169" y="-7.5" font-family="Helvetica,sans-Serif" font-size="10.00">blitz/array.h</text>
</g>
<!-- Node12&#45;&gt;Node14 -->
<g id="edge21" class="edge"><title>Node12&#45;&gt;Node14</title>
<path fill="none" stroke="midnightblue" d="M1194.74,-175.524C1223.46,-172.343 1267.83,-162.459 1289,-132 1320.07,-87.2986 1244.48,-44.347 1199.51,-23.7224"/>
<polygon fill="midnightblue" stroke="midnightblue" points="1200.72,-20.4285 1190.16,-19.5512 1197.87,-26.8214 1200.72,-20.4285"/>
</g>
<!-- Node15 -->
<g id="node15" class="node"><title>Node15</title>
<polygon fill="none" stroke="#bfbfbf" points="1009.5,-112.5 1009.5,-131.5 1104.5,-131.5 1104.5,-112.5 1009.5,-112.5"/>
<text text-anchor="middle" x="1057" y="-119.5" font-family="Helvetica,sans-Serif" font-size="10.00">lapacke/lapacke.h</text>
</g>
<!-- Node12&#45;&gt;Node15 -->
<g id="edge22" class="edge"><title>Node12&#45;&gt;Node15</title>
<path fill="none" stroke="midnightblue" d="M1150.17,-168.324C1132.28,-159.625 1104.52,-146.12 1083.95,-136.113"/>
<polygon fill="midnightblue" stroke="midnightblue" points="1085.31,-132.882 1074.79,-131.655 1082.25,-139.177 1085.31,-132.882"/>
</g>
<!-- Node16 -->
<g id="node16" class="node"><title>Node16</title>
<polygon fill="none" stroke="#bfbfbf" points="1123,-112.5 1123,-131.5 1213,-131.5 1213,-112.5 1123,-112.5"/>
<text text-anchor="middle" x="1168" y="-119.5" font-family="Helvetica,sans-Serif" font-size="10.00">openblas/cblas.h</text>
</g>
<!-- Node12&#45;&gt;Node16 -->
<g id="edge23" class="edge"><title>Node12&#45;&gt;Node16</title>
<path fill="none" stroke="midnightblue" d="M1168,-168.083C1168,-161.006 1168,-150.861 1168,-141.986"/>
<polygon fill="midnightblue" stroke="midnightblue" points="1171.5,-141.751 1168,-131.751 1164.5,-141.751 1171.5,-141.751"/>
</g>
<!-- Node17 -->
<g id="node17" class="node"><title>Node17</title>
<g id="a_node17"><a xlink:href="closed__interval_8hh.html" target="_top" xlink:title="apmath/closed_interval.hh">
<polygon fill="none" stroke="black" points="655.5,-112.5 655.5,-131.5 786.5,-131.5 786.5,-112.5 655.5,-112.5"/>
<text text-anchor="middle" x="721" y="-119.5" font-family="Helvetica,sans-Serif" font-size="10.00">apmath/closed_interval.hh</text>
</a>
</g>
</g>
<!-- Node12&#45;&gt;Node17 -->
<g id="edge24" class="edge"><title>Node12&#45;&gt;Node17</title>
<path fill="none" stroke="midnightblue" d="M1141.38,-173.784C1074.78,-165.739 899.026,-144.507 797.096,-132.193"/>
<polygon fill="midnightblue" stroke="midnightblue" points="797.21,-128.681 786.863,-130.957 796.371,-135.631 797.21,-128.681"/>
</g>
<!-- Node17&#45;&gt;Node3 -->
<g id="edge25" class="edge"><title>Node17&#45;&gt;Node3</title>
<path fill="none" stroke="midnightblue" d="M655.224,-112.74C562.804,-101.134 397.792,-80.4111 325.987,-71.3937"/>
<polygon fill="midnightblue" stroke="midnightblue" points="326.046,-67.8738 315.688,-70.1004 325.174,-74.8192 326.046,-67.8738"/>
</g>
<!-- Node17&#45;&gt;Node4 -->
<g id="edge26" class="edge"><title>Node17&#45;&gt;Node4</title>
<path fill="none" stroke="midnightblue" d="M689.309,-112.444C653.367,-102.739 594.871,-86.9452 557.171,-76.7661"/>
<polygon fill="midnightblue" stroke="midnightblue" points="557.692,-73.2814 547.125,-74.0537 555.867,-80.0394 557.692,-73.2814"/>
</g>
<!-- Node17&#45;&gt;Node10 -->
<g id="edge27" class="edge"><title>Node17&#45;&gt;Node10</title>
<path fill="none" stroke="midnightblue" d="M721,-112.368C721,-94.617 721,-53.6664 721,-29.5974"/>
<polygon fill="midnightblue" stroke="midnightblue" points="724.5,-29.5914 721,-19.5914 717.5,-29.5915 724.5,-29.5914"/>
</g>
<!-- Node18&#45;&gt;Node14 -->
<g id="edge29" class="edge"><title>Node18&#45;&gt;Node14</title>
<path fill="none" stroke="midnightblue" d="M1052.02,-56.4435C1075.1,-47.4776 1111.56,-33.314 1137.64,-23.1827"/>
<polygon fill="midnightblue" stroke="midnightblue" points="1139.02,-26.4002 1147.08,-19.5164 1136.49,-19.8753 1139.02,-26.4002"/>
</g>
<!-- Node19&#45;&gt;Node3 -->
<g id="edge32" class="edge"><title>Node19&#45;&gt;Node3</title>
<path fill="none" stroke="midnightblue" d="M600.914,-168.46C540.93,-148.822 393.178,-100.451 325.664,-78.3484"/>
<polygon fill="midnightblue" stroke="midnightblue" points="326.517,-74.9447 315.924,-75.1596 324.339,-81.5973 326.517,-74.9447"/>
</g>
<!-- Node19&#45;&gt;Node4 -->
<g id="edge33" class="edge"><title>Node19&#45;&gt;Node4</title>
<path fill="none" stroke="midnightblue" d="M626.44,-168.432C625.145,-154.976 620.889,-128.705 607,-112 593.911,-96.2567 573.874,-85.3208 556.433,-78.1752"/>
<polygon fill="midnightblue" stroke="midnightblue" points="557.662,-74.8979 547.071,-74.589 555.158,-81.4347 557.662,-74.8979"/>
</g>
<!-- Node19&#45;&gt;Node14 -->
<g id="edge35" class="edge"><title>Node19&#45;&gt;Node14</title>
<path fill="none" stroke="midnightblue" d="M658.244,-169.654C692.193,-161.436 747.89,-147.26 795,-132 885.067,-102.824 903.787,-84.7238 994,-56 1037.94,-42.0101 1089.11,-29.2499 1124.73,-20.9195"/>
<polygon fill="midnightblue" stroke="midnightblue" points="1125.85,-24.253 1134.8,-18.5851 1124.27,-17.4338 1125.85,-24.253"/>
</g>
<!-- Node20 -->
<g id="node20" class="node"><title>Node20</title>
<polygon fill="none" stroke="#bfbfbf" points="549.5,-112.5 549.5,-131.5 598.5,-131.5 598.5,-112.5 549.5,-112.5"/>
<text text-anchor="middle" x="574" y="-119.5" font-family="Helvetica,sans-Serif" font-size="10.00">cstddef</text>
</g>
<!-- Node19&#45;&gt;Node20 -->
<g id="edge31" class="edge"><title>Node19&#45;&gt;Node20</title>
<path fill="none" stroke="midnightblue" d="M618.248,-168.083C610.53,-160.22 599.095,-148.569 589.783,-139.081"/>
<polygon fill="midnightblue" stroke="midnightblue" points="592.092,-136.436 582.589,-131.751 587.096,-141.34 592.092,-136.436"/>
</g>
<!-- Node21 -->
<g id="node21" class="node"><title>Node21</title>
<polygon fill="none" stroke="#bfbfbf" points="1375,-112.5 1375,-131.5 1425,-131.5 1425,-112.5 1375,-112.5"/>
<text text-anchor="middle" x="1400" y="-119.5" font-family="Helvetica,sans-Serif" font-size="10.00">iomanip</text>
</g>
<!-- Node19&#45;&gt;Node21 -->
<g id="edge34" class="edge"><title>Node19&#45;&gt;Node21</title>
<path fill="none" stroke="midnightblue" d="M658.031,-175.035C752.677,-169.01 1046.03,-150.107 1289,-132 1314.35,-130.111 1342.94,-127.788 1364.76,-125.975"/>
<polygon fill="midnightblue" stroke="midnightblue" points="1365.2,-129.45 1374.88,-125.131 1364.62,-122.475 1365.2,-129.45"/>
</g>
<!-- Node19&#45;&gt;Node22 -->
<g id="edge36" class="edge"><title>Node19&#45;&gt;Node22</title>
<path fill="none" stroke="midnightblue" d="M658.035,-171.221C709.142,-161.705 811.275,-142.687 870.869,-131.59"/>
<polygon fill="midnightblue" stroke="midnightblue" points="871.576,-135.019 880.766,-129.747 870.295,-128.137 871.576,-135.019"/>
</g>
<!-- Node22&#45;&gt;Node23 -->
<g id="edge37" class="edge"><title>Node22&#45;&gt;Node23</title>
<path fill="none" stroke="midnightblue" d="M953.253,-112.74C996.801,-102.817 1069.59,-86.2322 1114.53,-75.9942"/>
<polygon fill="midnightblue" stroke="midnightblue" points="1115.52,-79.3575 1124.49,-73.7234 1113.96,-72.5324 1115.52,-79.3575"/>
</g>
<!-- Node24 -->
<g id="node24" class="node"><title>Node24</title>
<g id="a_node24"><a xlink:href="blitz_8hh.html" target="_top" xlink:title="blitz.hh">
<polygon fill="none" stroke="black" points="843,-56.5 843,-75.5 891,-75.5 891,-56.5 843,-56.5"/>
<text text-anchor="middle" x="867" y="-63.5" font-family="Helvetica,sans-Serif" font-size="10.00">blitz.hh</text>
</a>
</g>
</g>
<!-- Node22&#45;&gt;Node24 -->
<g id="edge38" class="edge"><title>Node22&#45;&gt;Node24</title>
<path fill="none" stroke="midnightblue" d="M908.744,-112.083C901.535,-104.298 890.89,-92.8015 882.154,-83.3665"/>
<polygon fill="midnightblue" stroke="midnightblue" points="884.465,-80.7108 875.103,-75.7511 879.329,-85.4666 884.465,-80.7108"/>
</g>
<!-- Node24&#45;&gt;Node10 -->
<g id="edge39" class="edge"><title>Node24&#45;&gt;Node10</title>
<path fill="none" stroke="midnightblue" d="M843.866,-56.4435C819.231,-47.3322 780.084,-32.8531 752.614,-22.6929"/>
<polygon fill="midnightblue" stroke="midnightblue" points="753.663,-19.3493 743.07,-19.1629 751.235,-25.9146 753.663,-19.3493"/>
</g>
<!-- Node24&#45;&gt;Node14 -->
<g id="edge41" class="edge"><title>Node24&#45;&gt;Node14</title>
<path fill="none" stroke="midnightblue" d="M891.072,-59.0546C895.684,-57.9849 900.482,-56.919 905,-56 981.885,-40.3591 1072.12,-25.7853 1124.7,-17.6679"/>
<polygon fill="midnightblue" stroke="midnightblue" points="1125.34,-21.1099 1134.7,-16.1321 1124.28,-14.191 1125.34,-21.1099"/>
</g>
<!-- Node25 -->
<g id="node25" class="node"><title>Node25</title>
<polygon fill="none" stroke="#bfbfbf" points="839,-0.5 839,-19.5 895,-19.5 895,-0.5 839,-0.5"/>
<text text-anchor="middle" x="867" y="-7.5" font-family="Helvetica,sans-Serif" font-size="10.00">algorithm</text>
</g>
<!-- Node24&#45;&gt;Node25 -->
<g id="edge40" class="edge"><title>Node24&#45;&gt;Node25</title>
<path fill="none" stroke="midnightblue" d="M867,-56.083C867,-49.0059 867,-38.8611 867,-29.9865"/>
<polygon fill="midnightblue" stroke="midnightblue" points="870.5,-29.751 867,-19.7511 863.5,-29.7511 870.5,-29.751"/>
</g>
<!-- Node27 -->
<g id="node27" class="node"><title>Node27</title>
<polygon fill="none" stroke="#bfbfbf" points="1623.5,-168.5 1623.5,-187.5 1682.5,-187.5 1682.5,-168.5 1623.5,-168.5"/>
<text text-anchor="middle" x="1653" y="-175.5" font-family="Helvetica,sans-Serif" font-size="10.00">functional</text>
</g>
<!-- Node26&#45;&gt;Node27 -->
<g id="edge43" class="edge"><title>Node26&#45;&gt;Node27</title>
<path fill="none" stroke="midnightblue" d="M1653.83,-224.083C1653.7,-217.006 1653.52,-206.861 1653.35,-197.986"/>
<polygon fill="midnightblue" stroke="midnightblue" points="1656.85,-197.685 1653.16,-187.751 1649.85,-197.814 1656.85,-197.685"/>
</g>
<!-- Node26&#45;&gt;Node28 -->
<g id="edge44" class="edge"><title>Node26&#45;&gt;Node28</title>
<path fill="none" stroke="midnightblue" d="M1680.62,-224.444C1710.84,-214.729 1760.05,-198.913 1791.71,-188.735"/>
<polygon fill="midnightblue" stroke="midnightblue" points="1792.88,-192.036 1801.33,-185.644 1790.74,-185.372 1792.88,-192.036"/>
</g>
<!-- Node29 -->
<g id="node29" class="node"><title>Node29</title>
<polygon fill="none" stroke="#bfbfbf" points="1700.5,-168.5 1700.5,-187.5 1783.5,-187.5 1783.5,-168.5 1700.5,-168.5"/>
<text text-anchor="middle" x="1742" y="-175.5" font-family="Helvetica,sans-Serif" font-size="10.00">unordered_map</text>
</g>
<!-- Node26&#45;&gt;Node29 -->
<g id="edge45" class="edge"><title>Node26&#45;&gt;Node29</title>
<path fill="none" stroke="midnightblue" d="M1668.14,-224.324C1681.87,-215.9 1702.94,-202.971 1719.06,-193.074"/>
<polygon fill="midnightblue" stroke="midnightblue" points="1721.2,-195.868 1727.9,-187.655 1717.54,-189.902 1721.2,-195.868"/>
</g>
<!-- Node30&#45;&gt;Node12 -->
<g id="edge51" class="edge"><title>Node30&#45;&gt;Node12</title>
<path fill="none" stroke="midnightblue" d="M1394.47,-225.148C1343.54,-214.771 1254.46,-196.618 1204.55,-186.447"/>
<polygon fill="midnightblue" stroke="midnightblue" points="1205.02,-182.971 1194.52,-184.404 1203.62,-189.83 1205.02,-182.971"/>
</g>
<!-- Node31 -->
<g id="node31" class="node"><title>Node31</title>
<polygon fill="none" stroke="#bfbfbf" points="1385,-168.5 1385,-187.5 1425,-187.5 1425,-168.5 1385,-168.5"/>
<text text-anchor="middle" x="1405" y="-175.5" font-family="Helvetica,sans-Serif" font-size="10.00">utility</text>
</g>
<!-- Node30&#45;&gt;Node31 -->
<g id="edge48" class="edge"><title>Node30&#45;&gt;Node31</title>
<path fill="none" stroke="midnightblue" d="M1428.38,-224.083C1424.54,-216.691 1418.98,-205.953 1414.24,-196.811"/>
<polygon fill="midnightblue" stroke="midnightblue" points="1417.25,-195.018 1409.54,-187.751 1411.03,-198.24 1417.25,-195.018"/>
</g>
<!-- Node32 -->
<g id="node32" class="node"><title>Node32</title>
<g id="a_node32"><a xlink:href="equations_8hh.html" target="_top" xlink:title="equations.hh">
<polygon fill="none" stroke="black" points="1396,-56.5 1396,-75.5 1468,-75.5 1468,-56.5 1396,-56.5"/>
<text text-anchor="middle" x="1432" y="-63.5" font-family="Helvetica,sans-Serif" font-size="10.00">equations.hh</text>
</a>
</g>
</g>
<!-- Node30&#45;&gt;Node32 -->
<g id="edge49" class="edge"><title>Node30&#45;&gt;Node32</title>
<path fill="none" stroke="midnightblue" d="M1433.25,-224.49C1433.79,-204.732 1434.94,-154.215 1434,-112 1433.81,-103.391 1433.41,-93.8632 1433.02,-85.799"/>
<polygon fill="midnightblue" stroke="midnightblue" points="1436.51,-85.4294 1432.5,-75.623 1429.52,-85.79 1436.51,-85.4294"/>
</g>
<!-- Node32&#45;&gt;Node14 -->
<g id="edge50" class="edge"><title>Node32&#45;&gt;Node14</title>
<path fill="none" stroke="midnightblue" d="M1395.98,-57.6048C1348.37,-47.8289 1264.53,-30.6137 1213.15,-20.0655"/>
<polygon fill="midnightblue" stroke="midnightblue" points="1213.83,-16.6318 1203.33,-18.0489 1212.42,-23.4888 1213.83,-16.6318"/>
</g>
<!-- Node33&#45;&gt;Node14 -->
<g id="edge53" class="edge"><title>Node33&#45;&gt;Node14</title>
<path fill="none" stroke="midnightblue" d="M1346.41,-224.188C1344,-195.604 1332.54,-104.513 1282,-56 1263.09,-37.8482 1235.95,-26.7194 1213.01,-20.0706"/>
<polygon fill="midnightblue" stroke="midnightblue" points="1213.71,-16.6336 1203.14,-17.4049 1211.88,-23.3915 1213.71,-16.6336"/>
</g>
<!-- Node34&#45;&gt;Node4 -->
<g id="edge55" class="edge"><title>Node34&#45;&gt;Node4</title>
<path fill="none" stroke="midnightblue" d="M1497.01,-168.243C1486.34,-153.492 1462.47,-124.117 1434,-112 1393.05,-94.5724 722.824,-73.1342 557.593,-68.0959"/>
<polygon fill="midnightblue" stroke="midnightblue" points="557.554,-64.5932 547.452,-67.7879 557.341,-71.5899 557.554,-64.5932"/>
</g>
<!-- Node34&#45;&gt;Node21 -->
<g id="edge57" class="edge"><title>Node34&#45;&gt;Node21</title>
<path fill="none" stroke="midnightblue" d="M1486.45,-168.324C1470.01,-159.703 1444.57,-146.364 1425.53,-136.386"/>
<polygon fill="midnightblue" stroke="midnightblue" points="1426.99,-133.198 1416.51,-131.655 1423.74,-139.398 1426.99,-133.198"/>
</g>
<!-- Node35 -->
<g id="node35" class="node"><title>Node35</title>
<polygon fill="none" stroke="#bfbfbf" points="1580.5,-112.5 1580.5,-131.5 1609.5,-131.5 1609.5,-112.5 1580.5,-112.5"/>
<text text-anchor="middle" x="1595" y="-119.5" font-family="Helvetica,sans-Serif" font-size="10.00">ios</text>
</g>
<!-- Node34&#45;&gt;Node35 -->
<g id="edge56" class="edge"><title>Node34&#45;&gt;Node35</title>
<path fill="none" stroke="midnightblue" d="M1517.78,-168.324C1532.27,-159.822 1554.57,-146.729 1571.49,-136.797"/>
<polygon fill="midnightblue" stroke="midnightblue" points="1573.4,-139.735 1580.26,-131.655 1569.86,-133.698 1573.4,-139.735"/>
</g>
<!-- Node36 -->
<g id="node36" class="node"><title>Node36</title>
<polygon fill="none" stroke="#bfbfbf" points="1519,-112.5 1519,-131.5 1563,-131.5 1563,-112.5 1519,-112.5"/>
<text text-anchor="middle" x="1541" y="-119.5" font-family="Helvetica,sans-Serif" font-size="10.00">mutex</text>
</g>
<!-- Node34&#45;&gt;Node36 -->
<g id="edge58" class="edge"><title>Node34&#45;&gt;Node36</title>
<path fill="none" stroke="midnightblue" d="M1509.27,-168.083C1514.64,-160.455 1522.52,-149.264 1529.08,-139.941"/>
<polygon fill="midnightblue" stroke="midnightblue" points="1531.95,-141.943 1534.84,-131.751 1526.22,-137.915 1531.95,-141.943"/>
</g>
</g>
</svg>
