<?xml version="1.0" encoding="UTF-8" standalone="no"?>
<!DOCTYPE svg PUBLIC "-//W3C//DTD SVG 1.1//EN"
 "http://www.w3.org/Graphics/SVG/1.1/DTD/svg11.dtd">
<!-- Generated by graphviz version 2.40.1 (20161225.0304)
 -->
<!-- Title: src/nonlinear/nit_transform.hh Pages: 1 -->
<svg width="1156pt" height="308pt"
 viewBox="0.00 0.00 1156.09 308.00" xmlns="http://www.w3.org/2000/svg" xmlns:xlink="http://www.w3.org/1999/xlink">
<g id="graph0" class="graph" transform="scale(1 1) rotate(0) translate(4 304)">
<title>src/nonlinear/nit_transform.hh</title>
<!-- Node0 -->
<g id="node1" class="node">
<title>Node0</title>
<polygon fill="#bfbfbf" stroke="#000000" points="393.0866,-280.5 393.0866,-299.5 539.0866,-299.5 539.0866,-280.5 393.0866,-280.5"/>
<text text-anchor="middle" x="466.0866" y="-287.5" font-family="Helvetica,sans-Serif" font-size="10.00" fill="#000000">src/nonlinear/nit_transform.hh</text>
</g>
<!-- Node1 -->
<g id="node2" class="node">
<title>Node1</title>
<polygon fill="none" stroke="#bfbfbf" points="472.5866,-112.5 472.5866,-131.5 521.5866,-131.5 521.5866,-112.5 472.5866,-112.5"/>
<text text-anchor="middle" x="497.0866" y="-119.5" font-family="Helvetica,sans-Serif" font-size="10.00" fill="#000000">istream</text>
</g>
<!-- Node0&#45;&gt;Node1 -->
<g id="edge1" class="edge">
<title>Node0&#45;&gt;Node1</title>
<path fill="none" stroke="#191970" d="M467.8421,-280.4862C472.7637,-253.8144 486.7696,-177.9117 493.4524,-141.695"/>
<polygon fill="#191970" stroke="#191970" points="496.9003,-142.297 495.2731,-131.8279 490.0165,-141.0267 496.9003,-142.297"/>
</g>
<!-- Node2 -->
<g id="node3" class="node">
<title>Node2</title>
<polygon fill="none" stroke="#bfbfbf" points="244.0866,-112.5 244.0866,-131.5 296.0866,-131.5 296.0866,-112.5 244.0866,-112.5"/>
<text text-anchor="middle" x="270.0866" y="-119.5" font-family="Helvetica,sans-Serif" font-size="10.00" fill="#000000">ostream</text>
</g>
<!-- Node0&#45;&gt;Node2 -->
<g id="edge2" class="edge">
<title>Node0&#45;&gt;Node2</title>
<path fill="none" stroke="#191970" d="M392.7109,-285.7338C273.4092,-276.9779 46.3943,-252.097 4.0866,-188 -.8101,-180.5814 -1.6383,-174.7999 4.0866,-168 32.9648,-133.6992 167.2829,-124.9753 233.2846,-122.7566"/>
<polygon fill="#191970" stroke="#191970" points="233.7528,-126.2442 243.6424,-122.4433 233.5411,-119.2474 233.7528,-126.2442"/>
</g>
<!-- Node3 -->
<g id="node4" class="node">
<title>Node3</title>
<g id="a_node4"><a xlink:href="gaussian_8hh.html" target="_top" xlink:title="stats/gaussian.hh">
<polygon fill="none" stroke="#000000" points="13.0866,-168.5 13.0866,-187.5 107.0866,-187.5 107.0866,-168.5 13.0866,-168.5"/>
<text text-anchor="middle" x="60.0866" y="-175.5" font-family="Helvetica,sans-Serif" font-size="10.00" fill="#000000">stats/gaussian.hh</text>
</a>
</g>
</g>
<!-- Node0&#45;&gt;Node3 -->
<g id="edge3" class="edge">
<title>Node0&#45;&gt;Node3</title>
<path fill="none" stroke="#191970" d="M392.9242,-284.5477C335.2802,-278.7096 253.5045,-266.9793 185.0866,-244 147.3369,-231.3211 107.2205,-208.1978 82.905,-192.965"/>
<polygon fill="#191970" stroke="#191970" points="84.7132,-189.9671 74.3974,-187.5514 80.9552,-195.8729 84.7132,-189.9671"/>
</g>
<!-- Node5 -->
<g id="node6" class="node">
<title>Node5</title>
<g id="a_node6"><a xlink:href="skew__normal_8hh.html" target="_top" xlink:title="stats/skew_normal.hh">
<polygon fill="none" stroke="#000000" points="194.5866,-224.5 194.5866,-243.5 307.5866,-243.5 307.5866,-224.5 194.5866,-224.5"/>
<text text-anchor="middle" x="251.0866" y="-231.5" font-family="Helvetica,sans-Serif" font-size="10.00" fill="#000000">stats/skew_normal.hh</text>
</a>
</g>
</g>
<!-- Node0&#45;&gt;Node5 -->
<g id="edge7" class="edge">
<title>Node0&#45;&gt;Node5</title>
<path fill="none" stroke="#191970" d="M429.1268,-280.3733C392.6791,-270.8799 336.862,-256.3415 297.4577,-246.0781"/>
<polygon fill="#191970" stroke="#191970" points="298.1235,-242.6348 287.5641,-243.5011 296.359,-249.4087 298.1235,-242.6348"/>
</g>
<!-- Node7 -->
<g id="node8" class="node">
<title>Node7</title>
<g id="a_node8"><a xlink:href="gram__charlier_8hh.html" target="_top" xlink:title="stats/gram_charlier.hh">
<polygon fill="none" stroke="#000000" points="317.5866,-168.5 317.5866,-187.5 430.5866,-187.5 430.5866,-168.5 317.5866,-168.5"/>
<text text-anchor="middle" x="374.0866" y="-175.5" font-family="Helvetica,sans-Serif" font-size="10.00" fill="#000000">stats/gram_charlier.hh</text>
</a>
</g>
</g>
<!-- Node0&#45;&gt;Node7 -->
<g id="edge12" class="edge">
<title>Node0&#45;&gt;Node7</title>
<path fill="none" stroke="#191970" d="M458.2427,-280.4509C442.7624,-261.6054 408.0813,-219.3849 388.4139,-195.4419"/>
<polygon fill="#191970" stroke="#191970" points="390.9626,-193.0306 381.9106,-187.5249 385.5535,-197.4738 390.9626,-193.0306"/>
</g>
<!-- Node10 -->
<g id="node11" class="node">
<title>Node10</title>
<g id="a_node11"><a xlink:href="linalg_8hh.html" target="_top" xlink:title="linalg.hh">
<polygon fill="none" stroke="#000000" points="957.5866,-224.5 957.5866,-243.5 1010.5866,-243.5 1010.5866,-224.5 957.5866,-224.5"/>
<text text-anchor="middle" x="984.0866" y="-231.5" font-family="Helvetica,sans-Serif" font-size="10.00" fill="#000000">linalg.hh</text>
</a>
</g>
</g>
<!-- Node0&#45;&gt;Node10 -->
<g id="edge18" class="edge">
<title>Node0&#45;&gt;Node10</title>
<path fill="none" stroke="#191970" d="M539.2047,-282.0953C651.5305,-269.952 862.4432,-247.1506 947.3204,-237.9747"/>
<polygon fill="#191970" stroke="#191970" points="947.9359,-241.4287 957.5018,-236.874 947.1835,-234.4692 947.9359,-241.4287"/>
</g>
<!-- Node15 -->
<g id="node16" class="node">
<title>Node15</title>
<g id="a_node16"><a xlink:href="types_8hh.html" target="_top" xlink:title="types.hh">
<polygon fill="none" stroke="#000000" points="1094.0866,-56.5 1094.0866,-75.5 1148.0866,-75.5 1148.0866,-56.5 1094.0866,-56.5"/>
<text text-anchor="middle" x="1121.0866" y="-63.5" font-family="Helvetica,sans-Serif" font-size="10.00" fill="#000000">types.hh</text>
</a>
</g>
</g>
<!-- Node0&#45;&gt;Node15 -->
<g id="edge26" class="edge">
<title>Node0&#45;&gt;Node15</title>
<path fill="none" stroke="#191970" d="M539.2174,-287.4318C668.4082,-282.3133 931.7183,-269.1113 1020.0866,-244 1072.857,-229.0044 1101.4145,-234.7706 1130.0866,-188 1149.5116,-156.3135 1138.1733,-110.9378 1129.0536,-85.3956"/>
<polygon fill="#191970" stroke="#191970" points="1132.2123,-83.8561 1125.3771,-75.761 1125.6723,-86.3518 1132.2123,-83.8561"/>
</g>
<!-- Node16 -->
<g id="node17" class="node">
<title>Node16</title>
<g id="a_node17"><a xlink:href="domain_8hh.html" target="_top" xlink:title="domain.hh">
<polygon fill="none" stroke="#000000" points="568.0866,-224.5 568.0866,-243.5 630.0866,-243.5 630.0866,-224.5 568.0866,-224.5"/>
<text text-anchor="middle" x="599.0866" y="-231.5" font-family="Helvetica,sans-Serif" font-size="10.00" fill="#000000">domain.hh</text>
</a>
</g>
</g>
<!-- Node0&#45;&gt;Node16 -->
<g id="edge28" class="edge">
<title>Node0&#45;&gt;Node16</title>
<path fill="none" stroke="#191970" d="M488.9501,-280.3733C510.4916,-271.3032 542.9704,-257.6279 567.0822,-247.4755"/>
<polygon fill="#191970" stroke="#191970" points="568.6633,-250.6075 576.5214,-243.5011 565.9469,-244.156 568.6633,-250.6075"/>
</g>
<!-- Node3&#45;&gt;Node1 -->
<g id="edge4" class="edge">
<title>Node3&#45;&gt;Node1</title>
<path fill="none" stroke="#191970" d="M107.1086,-169.4042C110.1439,-168.911 113.1564,-168.4382 116.0866,-168 243.3706,-148.9671 395.4926,-132.4667 462.4998,-125.5134"/>
<polygon fill="#191970" stroke="#191970" points="462.9186,-128.9889 472.5064,-124.4805 462.1998,-122.0259 462.9186,-128.9889"/>
</g>
<!-- Node3&#45;&gt;Node2 -->
<g id="edge5" class="edge">
<title>Node3&#45;&gt;Node2</title>
<path fill="none" stroke="#191970" d="M96.1869,-168.3733C134.8332,-158.0676 195.7748,-141.8165 234.3,-131.5431"/>
<polygon fill="#191970" stroke="#191970" points="235.2986,-134.8992 244.0591,-128.9407 233.4949,-128.1356 235.2986,-134.8992"/>
</g>
<!-- Node4 -->
<g id="node5" class="node">
<title>Node4</title>
<polygon fill="none" stroke="#bfbfbf" points="24.0866,-112.5 24.0866,-131.5 96.0866,-131.5 96.0866,-112.5 24.0866,-112.5"/>
<text text-anchor="middle" x="60.0866" y="-119.5" font-family="Helvetica,sans-Serif" font-size="10.00" fill="#000000">gsl/gsl_cdf.h</text>
</g>
<!-- Node3&#45;&gt;Node4 -->
<g id="edge6" class="edge">
<title>Node3&#45;&gt;Node4</title>
<path fill="none" stroke="#191970" d="M60.0866,-168.2455C60.0866,-160.9382 60.0866,-150.6944 60.0866,-141.7046"/>
<polygon fill="#191970" stroke="#191970" points="63.5867,-141.6426 60.0866,-131.6427 56.5867,-141.6427 63.5867,-141.6426"/>
</g>
<!-- Node5&#45;&gt;Node1 -->
<g id="edge8" class="edge">
<title>Node5&#45;&gt;Node1</title>
<path fill="none" stroke="#191970" d="M307.9117,-229.3545C347.3796,-224.0191 399.8898,-212.567 440.0866,-188 459.557,-176.1003 475.8586,-155.3354 485.9738,-140.2687"/>
<polygon fill="#191970" stroke="#191970" points="488.9837,-142.0589 491.4455,-131.7541 483.0948,-138.2746 488.9837,-142.0589"/>
</g>
<!-- Node5&#45;&gt;Node2 -->
<g id="edge9" class="edge">
<title>Node5&#45;&gt;Node2</title>
<path fill="none" stroke="#191970" d="M252.7065,-224.4509C255.8054,-206.184 262.6299,-165.9553 266.745,-141.6976"/>
<polygon fill="#191970" stroke="#191970" points="270.2489,-141.9694 268.4708,-131.5249 263.3475,-140.7986 270.2489,-141.9694"/>
</g>
<!-- Node5&#45;&gt;Node3 -->
<g id="edge10" class="edge">
<title>Node5&#45;&gt;Node3</title>
<path fill="none" stroke="#191970" d="M218.2525,-224.3733C186.2172,-214.9807 137.3379,-200.6496 102.4011,-190.4064"/>
<polygon fill="#191970" stroke="#191970" points="103.073,-186.9561 92.4922,-187.5011 101.1035,-193.6733 103.073,-186.9561"/>
</g>
<!-- Node6 -->
<g id="node7" class="node">
<title>Node6</title>
<g id="a_node7"><a xlink:href="owen__t_8hh.html" target="_top" xlink:title="apmath/owen_t.hh">
<polygon fill="none" stroke="#000000" points="125.5866,-168.5 125.5866,-187.5 222.5866,-187.5 222.5866,-168.5 125.5866,-168.5"/>
<text text-anchor="middle" x="174.0866" y="-175.5" font-family="Helvetica,sans-Serif" font-size="10.00" fill="#000000">apmath/owen_t.hh</text>
</a>
</g>
</g>
<!-- Node5&#45;&gt;Node6 -->
<g id="edge11" class="edge">
<title>Node5&#45;&gt;Node6</title>
<path fill="none" stroke="#191970" d="M237.6742,-224.2455C226.0809,-215.814 209.1119,-203.4729 195.6188,-193.6598"/>
<polygon fill="#191970" stroke="#191970" points="197.4913,-190.6938 187.3453,-187.6427 193.374,-196.355 197.4913,-190.6938"/>
</g>
<!-- Node7&#45;&gt;Node1 -->
<g id="edge13" class="edge">
<title>Node7&#45;&gt;Node1</title>
<path fill="none" stroke="#191970" d="M395.2311,-168.3733C414.9758,-159.3838 444.6565,-145.8706 466.8921,-135.7471"/>
<polygon fill="#191970" stroke="#191970" points="468.5672,-138.8302 476.2181,-131.5011 465.6666,-132.4594 468.5672,-138.8302"/>
</g>
<!-- Node7&#45;&gt;Node2 -->
<g id="edge14" class="edge">
<title>Node7&#45;&gt;Node2</title>
<path fill="none" stroke="#191970" d="M355.9712,-168.2455C339.6416,-159.4527 315.4156,-146.4079 296.8527,-136.4125"/>
<polygon fill="#191970" stroke="#191970" points="298.4585,-133.3021 287.9944,-131.6427 295.1398,-139.4654 298.4585,-133.3021"/>
</g>
<!-- Node8 -->
<g id="node9" class="node">
<title>Node8</title>
<polygon fill="none" stroke="#bfbfbf" points="583.0866,-.5 583.0866,-19.5 627.0866,-19.5 627.0866,-.5 583.0866,-.5"/>
<text text-anchor="middle" x="605.0866" y="-7.5" font-family="Helvetica,sans-Serif" font-size="10.00" fill="#000000">cmath</text>
</g>
<!-- Node7&#45;&gt;Node8 -->
<g id="edge15" class="edge">
<title>Node7&#45;&gt;Node8</title>
<path fill="none" stroke="#191970" d="M374.3319,-168.4195C375.4623,-145.4064 381.6531,-86.6544 415.0866,-56 437.9364,-35.0495 524.9295,-20.575 572.8836,-14.0026"/>
<polygon fill="#191970" stroke="#191970" points="573.5995,-17.4383 583.0494,-12.6476 572.6746,-10.4996 573.5995,-17.4383"/>
</g>
<!-- Node9 -->
<g id="node10" class="node">
<title>Node9</title>
<g id="a_node10"><a xlink:href="physical__constants_8hh.html" target="_top" xlink:title="physical_constants.hh">
<polygon fill="none" stroke="#000000" points="424.0866,-56.5 424.0866,-75.5 538.0866,-75.5 538.0866,-56.5 424.0866,-56.5"/>
<text text-anchor="middle" x="481.0866" y="-63.5" font-family="Helvetica,sans-Serif" font-size="10.00" fill="#000000">physical_constants.hh</text>
</a>
</g>
</g>
<!-- Node7&#45;&gt;Node9 -->
<g id="edge16" class="edge">
<title>Node7&#45;&gt;Node9</title>
<path fill="none" stroke="#191970" d="M383.2094,-168.4509C401.3716,-149.4401 442.2587,-106.6423 465.0213,-82.816"/>
<polygon fill="#191970" stroke="#191970" points="467.6098,-85.1733 471.9869,-75.5249 462.5484,-80.3378 467.6098,-85.1733"/>
</g>
<!-- Node9&#45;&gt;Node8 -->
<g id="edge17" class="edge">
<title>Node9&#45;&gt;Node8</title>
<path fill="none" stroke="#191970" d="M502.403,-56.3733C522.3082,-47.3838 552.2302,-33.8706 574.6466,-23.7471"/>
<polygon fill="#191970" stroke="#191970" points="576.3753,-26.8068 584.0484,-19.5011 573.4941,-20.4272 576.3753,-26.8068"/>
</g>
<!-- Node11 -->
<g id="node12" class="node">
<title>Node11</title>
<polygon fill="none" stroke="#bfbfbf" points="959.5866,-168.5 959.5866,-187.5 1008.5866,-187.5 1008.5866,-168.5 959.5866,-168.5"/>
<text text-anchor="middle" x="984.0866" y="-175.5" font-family="Helvetica,sans-Serif" font-size="10.00" fill="#000000">cassert</text>
</g>
<!-- Node10&#45;&gt;Node11 -->
<g id="edge19" class="edge">
<title>Node10&#45;&gt;Node11</title>
<path fill="none" stroke="#191970" d="M984.0866,-224.2455C984.0866,-216.9382 984.0866,-206.6944 984.0866,-197.7046"/>
<polygon fill="#191970" stroke="#191970" points="987.5867,-197.6426 984.0866,-187.6427 980.5867,-197.6427 987.5867,-197.6426"/>
</g>
<!-- Node12 -->
<g id="node13" class="node">
<title>Node12</title>
<polygon fill="none" stroke="#bfbfbf" points="950.5866,-.5 950.5866,-19.5 1017.5866,-19.5 1017.5866,-.5 950.5866,-.5"/>
<text text-anchor="middle" x="984.0866" y="-7.5" font-family="Helvetica,sans-Serif" font-size="10.00" fill="#000000">blitz/array.h</text>
</g>
<!-- Node10&#45;&gt;Node12 -->
<g id="edge20" class="edge">
<title>Node10&#45;&gt;Node12</title>
<path fill="none" stroke="#191970" d="M994.0228,-224.4913C1002.2626,-215.8654 1013.3633,-202.3368 1018.0866,-188 1036.6436,-131.6732 1009.4384,-61.7885 993.8018,-28.8513"/>
<polygon fill="#191970" stroke="#191970" points="996.939,-27.2993 989.384,-19.8715 990.658,-30.3895 996.939,-27.2993"/>
</g>
<!-- Node13 -->
<g id="node14" class="node">
<title>Node13</title>
<polygon fill="none" stroke="#bfbfbf" points="1065.0866,-168.5 1065.0866,-187.5 1121.0866,-187.5 1121.0866,-168.5 1065.0866,-168.5"/>
<text text-anchor="middle" x="1093.0866" y="-175.5" font-family="Helvetica,sans-Serif" font-size="10.00" fill="#000000">config.hh</text>
</g>
<!-- Node10&#45;&gt;Node13 -->
<g id="edge21" class="edge">
<title>Node10&#45;&gt;Node13</title>
<path fill="none" stroke="#191970" d="M1003.073,-224.2455C1020.2658,-215.4125 1045.8104,-202.2887 1065.2998,-192.2758"/>
<polygon fill="#191970" stroke="#191970" points="1067.0225,-195.3257 1074.3178,-187.6427 1063.8236,-189.0993 1067.0225,-195.3257"/>
</g>
<!-- Node14 -->
<g id="node15" class="node">
<title>Node14</title>
<g id="a_node15"><a xlink:href="closed__interval_8hh.html" target="_top" xlink:title="apmath/closed_interval.hh">
<polygon fill="none" stroke="#000000" points="669.5866,-168.5 669.5866,-187.5 800.5866,-187.5 800.5866,-168.5 669.5866,-168.5"/>
<text text-anchor="middle" x="735.0866" y="-175.5" font-family="Helvetica,sans-Serif" font-size="10.00" fill="#000000">apmath/closed_interval.hh</text>
</a>
</g>
</g>
<!-- Node10&#45;&gt;Node14 -->
<g id="edge22" class="edge">
<title>Node10&#45;&gt;Node14</title>
<path fill="none" stroke="#191970" d="M957.4392,-228.007C917.0962,-218.9339 839.7214,-201.5323 787.7439,-189.8426"/>
<polygon fill="#191970" stroke="#191970" points="788.2298,-186.3645 777.7055,-187.585 786.6938,-193.1939 788.2298,-186.3645"/>
</g>
<!-- Node14&#45;&gt;Node1 -->
<g id="edge23" class="edge">
<title>Node14&#45;&gt;Node1</title>
<path fill="none" stroke="#191970" d="M694.4434,-168.4369C648.5975,-157.6496 574.8196,-140.2901 531.6412,-130.1305"/>
<polygon fill="#191970" stroke="#191970" points="532.4125,-126.7165 521.8767,-127.833 530.8092,-133.5304 532.4125,-126.7165"/>
</g>
<!-- Node14&#45;&gt;Node2 -->
<g id="edge24" class="edge">
<title>Node14&#45;&gt;Node2</title>
<path fill="none" stroke="#191970" d="M669.2438,-169.1636C666.1488,-168.7663 663.0843,-168.3766 660.0866,-168 530.0598,-151.6642 375.4227,-133.9263 306.4378,-126.1015"/>
<polygon fill="#191970" stroke="#191970" points="306.4489,-122.5804 296.1185,-124.9325 305.6609,-129.536 306.4489,-122.5804"/>
</g>
<!-- Node14&#45;&gt;Node8 -->
<g id="edge25" class="edge">
<title>Node14&#45;&gt;Node8</title>
<path fill="none" stroke="#191970" d="M727.7248,-168.4862C706.73,-141.3545 646.315,-63.2798 618.905,-27.8576"/>
<polygon fill="#191970" stroke="#191970" points="621.5794,-25.5947 612.6915,-19.8279 616.0433,-29.8786 621.5794,-25.5947"/>
</g>
<!-- Node15&#45;&gt;Node12 -->
<g id="edge27" class="edge">
<title>Node15&#45;&gt;Node12</title>
<path fill="none" stroke="#191970" d="M1097.5355,-56.3733C1075.2475,-47.2629 1041.5929,-33.5062 1016.7229,-23.3404"/>
<polygon fill="#191970" stroke="#191970" points="1017.9113,-20.0451 1007.3304,-19.5011 1015.2627,-26.5247 1017.9113,-20.0451"/>
</g>
<!-- Node16&#45;&gt;Node1 -->
<g id="edge31" class="edge">
<title>Node16&#45;&gt;Node1</title>
<path fill="none" stroke="#191970" d="M590.3901,-224.4509C573.1519,-205.5227 534.4387,-163.014 512.6852,-139.1279"/>
<polygon fill="#191970" stroke="#191970" points="515.0821,-136.5617 505.7611,-131.5249 509.9067,-141.275 515.0821,-136.5617"/>
</g>
<!-- Node16&#45;&gt;Node2 -->
<g id="edge32" class="edge">
<title>Node16&#45;&gt;Node2</title>
<path fill="none" stroke="#191970" d="M567.6005,-232.3564C501.4759,-228.3767 350.8184,-216.379 309.0866,-188 292.812,-176.9327 282.3261,-156.6294 276.3716,-141.4528"/>
<polygon fill="#191970" stroke="#191970" points="279.6304,-140.1713 272.9578,-131.9416 273.0419,-142.5361 279.6304,-140.1713"/>
</g>
<!-- Node16&#45;&gt;Node8 -->
<g id="edge29" class="edge">
<title>Node16&#45;&gt;Node8</title>
<path fill="none" stroke="#191970" d="M597.1519,-224.1787C595.4286,-214.8986 593.0372,-200.5658 592.0866,-188 587.7376,-130.5126 596.5776,-62.5615 601.7322,-29.7245"/>
<polygon fill="#191970" stroke="#191970" points="605.2201,-30.0815 603.3741,-19.6488 598.3113,-28.9556 605.2201,-30.0815"/>
</g>
<!-- Node16&#45;&gt;Node12 -->
<g id="edge33" class="edge">
<title>Node16&#45;&gt;Node12</title>
<path fill="none" stroke="#191970" d="M630.1502,-232.5906C696.5572,-229.0315 849.6626,-217.7479 891.0866,-188 945.7538,-148.7417 970.8557,-67.4837 979.897,-29.8846"/>
<polygon fill="#191970" stroke="#191970" points="983.4054,-30.2386 982.2022,-19.7123 976.5785,-28.6915 983.4054,-30.2386"/>
</g>
<!-- Node17 -->
<g id="node18" class="node">
<title>Node17</title>
<polygon fill="none" stroke="#bfbfbf" points="601.0866,-168.5 601.0866,-187.5 651.0866,-187.5 651.0866,-168.5 601.0866,-168.5"/>
<text text-anchor="middle" x="626.0866" y="-175.5" font-family="Helvetica,sans-Serif" font-size="10.00" fill="#000000">iomanip</text>
</g>
<!-- Node16&#45;&gt;Node17 -->
<g id="edge30" class="edge">
<title>Node16&#45;&gt;Node17</title>
<path fill="none" stroke="#191970" d="M603.7896,-224.2455C607.429,-216.6973 612.579,-206.0158 617.0128,-196.8197"/>
<polygon fill="#191970" stroke="#191970" points="620.2471,-198.1704 621.4375,-187.6427 613.9417,-195.1303 620.2471,-198.1704"/>
</g>
<!-- Node18 -->
<g id="node19" class="node">
<title>Node18</title>
<g id="a_node19"><a xlink:href="grid_8hh.html" target="_top" xlink:title="grid.hh">
<polygon fill="none" stroke="#000000" points="819.0866,-168.5 819.0866,-187.5 865.0866,-187.5 865.0866,-168.5 819.0866,-168.5"/>
<text text-anchor="middle" x="842.0866" y="-175.5" font-family="Helvetica,sans-Serif" font-size="10.00" fill="#000000">grid.hh</text>
</a>
</g>
</g>
<!-- Node16&#45;&gt;Node18 -->
<g id="edge34" class="edge">
<title>Node16&#45;&gt;Node18</title>
<path fill="none" stroke="#191970" d="M630.3959,-228.0722C669.92,-220.3939 740.1648,-206.1006 809.3353,-188.0291"/>
<polygon fill="#191970" stroke="#191970" points="810.3102,-191.3917 819.0851,-185.4544 808.5229,-184.6238 810.3102,-191.3917"/>
</g>
<!-- Node21 -->
<g id="node22" class="node">
<title>Node21</title>
<g id="a_node22"><a xlink:href="validators_8hh.html" target="_top" xlink:title="validators.hh">
<polygon fill="none" stroke="#000000" points="831.0866,-112.5 831.0866,-131.5 903.0866,-131.5 903.0866,-112.5 831.0866,-112.5"/>
<text text-anchor="middle" x="867.0866" y="-119.5" font-family="Helvetica,sans-Serif" font-size="10.00" fill="#000000">validators.hh</text>
</a>
</g>
</g>
<!-- Node16&#45;&gt;Node21 -->
<g id="edge44" class="edge">
<title>Node16&#45;&gt;Node21</title>
<path fill="none" stroke="#191970" d="M630.3043,-231.0369C699.0001,-224.2019 858.4282,-206.4952 874.0866,-188 884.8707,-175.2622 881.2107,-155.8101 875.9992,-141.3193"/>
<polygon fill="#191970" stroke="#191970" points="879.1369,-139.7449 872.1146,-131.8115 872.6569,-142.3925 879.1369,-139.7449"/>
</g>
<!-- Node18&#45;&gt;Node1 -->
<g id="edge36" class="edge">
<title>Node18&#45;&gt;Node1</title>
<path fill="none" stroke="#191970" d="M818.7835,-170.2534C815.8736,-169.4237 812.9239,-168.6476 810.0866,-168 710.276,-145.2186 589.8742,-131.2251 531.7822,-125.3"/>
<polygon fill="#191970" stroke="#191970" points="531.9785,-121.8022 521.6793,-124.2872 531.2802,-128.7673 531.9785,-121.8022"/>
</g>
<!-- Node18&#45;&gt;Node8 -->
<g id="edge35" class="edge">
<title>Node18&#45;&gt;Node8</title>
<path fill="none" stroke="#191970" d="M828.6654,-168.4862C789.4872,-140.7144 675.0116,-59.5671 626.8436,-25.4227"/>
<polygon fill="#191970" stroke="#191970" points="628.8367,-22.5454 618.6544,-19.6177 624.7885,-28.2561 628.8367,-22.5454"/>
</g>
<!-- Node19 -->
<g id="node20" class="node">
<title>Node19</title>
<g id="a_node20"><a xlink:href="blitz_8hh.html" target="_top" xlink:title="blitz.hh">
<polygon fill="none" stroke="#000000" points="777.0866,-56.5 777.0866,-75.5 825.0866,-75.5 825.0866,-56.5 777.0866,-56.5"/>
<text text-anchor="middle" x="801.0866" y="-63.5" font-family="Helvetica,sans-Serif" font-size="10.00" fill="#000000">blitz.hh</text>
</a>
</g>
</g>
<!-- Node18&#45;&gt;Node19 -->
<g id="edge37" class="edge">
<title>Node18&#45;&gt;Node19</title>
<path fill="none" stroke="#191970" d="M837.5009,-168.2485C833.2431,-159.0178 826.8607,-144.7184 822.0866,-132 816.2764,-116.521 810.6494,-98.6298 806.685,-85.383"/>
<polygon fill="#191970" stroke="#191970" points="809.9585,-84.1087 803.7784,-75.503 803.243,-86.0843 809.9585,-84.1087"/>
</g>
<!-- Node18&#45;&gt;Node21 -->
<g id="edge41" class="edge">
<title>Node18&#45;&gt;Node21</title>
<path fill="none" stroke="#191970" d="M846.4413,-168.2455C849.811,-160.6973 854.5796,-150.0158 858.6849,-140.8197"/>
<polygon fill="#191970" stroke="#191970" points="861.9013,-142.2009 862.7818,-131.6427 855.5093,-139.3473 861.9013,-142.2009"/>
</g>
<!-- Node19&#45;&gt;Node8 -->
<g id="edge40" class="edge">
<title>Node19&#45;&gt;Node8</title>
<path fill="none" stroke="#191970" d="M777.0532,-59.1333C741.8644,-49.0794 676.2573,-30.3345 637.0415,-19.13"/>
<polygon fill="#191970" stroke="#191970" points="637.778,-15.7004 627.2012,-16.3184 635.8549,-22.4311 637.778,-15.7004"/>
</g>
<!-- Node19&#45;&gt;Node12 -->
<g id="edge39" class="edge">
<title>Node19&#45;&gt;Node12</title>
<path fill="none" stroke="#191970" d="M825.3876,-58.5636C855.4258,-49.3716 906.998,-33.5899 943.1785,-22.5183"/>
<polygon fill="#191970" stroke="#191970" points="944.4062,-25.8029 952.9444,-19.5299 942.3579,-19.1093 944.4062,-25.8029"/>
</g>
<!-- Node20 -->
<g id="node21" class="node">
<title>Node20</title>
<polygon fill="none" stroke="#bfbfbf" points="773.0866,-.5 773.0866,-19.5 829.0866,-19.5 829.0866,-.5 773.0866,-.5"/>
<text text-anchor="middle" x="801.0866" y="-7.5" font-family="Helvetica,sans-Serif" font-size="10.00" fill="#000000">algorithm</text>
</g>
<!-- Node19&#45;&gt;Node20 -->
<g id="edge38" class="edge">
<title>Node19&#45;&gt;Node20</title>
<path fill="none" stroke="#191970" d="M801.0866,-56.2455C801.0866,-48.9382 801.0866,-38.6944 801.0866,-29.7046"/>
<polygon fill="#191970" stroke="#191970" points="804.5867,-29.6426 801.0866,-19.6427 797.5867,-29.6427 804.5867,-29.6426"/>
</g>
<!-- Node21&#45;&gt;Node19 -->
<g id="edge43" class="edge">
<title>Node21&#45;&gt;Node19</title>
<path fill="none" stroke="#191970" d="M855.5903,-112.2455C845.8424,-103.9746 831.6607,-91.9416 820.2068,-82.2232"/>
<polygon fill="#191970" stroke="#191970" points="822.3407,-79.4437 812.4512,-75.6427 817.8119,-84.7813 822.3407,-79.4437"/>
</g>
<!-- Node22 -->
<g id="node23" class="node">
<title>Node22</title>
<polygon fill="none" stroke="#bfbfbf" points="843.5866,-56.5 843.5866,-75.5 902.5866,-75.5 902.5866,-56.5 843.5866,-56.5"/>
<text text-anchor="middle" x="873.0866" y="-63.5" font-family="Helvetica,sans-Serif" font-size="10.00" fill="#000000">stdexcept</text>
</g>
<!-- Node21&#45;&gt;Node22 -->
<g id="edge42" class="edge">
<title>Node21&#45;&gt;Node22</title>
<path fill="none" stroke="#191970" d="M868.1317,-112.2455C868.9147,-104.9382 870.0122,-94.6944 870.9754,-85.7046"/>
<polygon fill="#191970" stroke="#191970" points="874.4681,-85.9587 872.0535,-75.6427 867.508,-85.2129 874.4681,-85.9587"/>
</g>
</g>
</svg>
