<?xml version="1.0" encoding="UTF-8" standalone="no"?>
<!DOCTYPE svg PUBLIC "-//W3C//DTD SVG 1.1//EN"
 "http://www.w3.org/Graphics/SVG/1.1/DTD/svg11.dtd">
<!-- Generated by graphviz version 2.36.0 (20140111.2315)
 -->
<!-- Title: /home/travis/build/igankevich/arma/src/nonlinear/nit_transform.hh Pages: 1 -->
<svg width="557pt" height="542pt"
 viewBox="0.00 0.00 557.02 542.00" xmlns="http://www.w3.org/2000/svg" xmlns:xlink="http://www.w3.org/1999/xlink">
<g id="graph0" class="graph" transform="scale(1 1) rotate(0) translate(4 538)">
<title>/home/travis/build/igankevich/arma/src/nonlinear/nit_transform.hh</title>
<!-- Node1 -->
<g id="node1" class="node"><title>Node1</title>
<polygon fill="#bfbfbf" stroke="black" points="323.023,-492.5 323.023,-533.5 455.023,-533.5 455.023,-492.5 323.023,-492.5"/>
<text text-anchor="start" x="331.023" y="-521.5" font-family="Helvetica,sans-Serif" font-size="10.00">/home/travis/build</text>
<text text-anchor="start" x="331.023" y="-510.5" font-family="Helvetica,sans-Serif" font-size="10.00">/igankevich/arma/src</text>
<text text-anchor="middle" x="389.023" y="-499.5" font-family="Helvetica,sans-Serif" font-size="10.00">/nonlinear/nit_transform.hh</text>
</g>
<!-- Node2 -->
<g id="node2" class="node"><title>Node2</title>
<g id="a_node2"><a xlink:href="basic__arma__model_8hh.html" target="_top" xlink:title="/home/travis/build\l/igankevich/arma/src\l/generator/basic_arma\l_model.hh">
<polygon fill="none" stroke="black" points="223.523,-403 223.523,-455 336.523,-455 336.523,-403 223.523,-403"/>
<text text-anchor="start" x="231.523" y="-443" font-family="Helvetica,sans-Serif" font-size="10.00">/home/travis/build</text>
<text text-anchor="start" x="231.523" y="-432" font-family="Helvetica,sans-Serif" font-size="10.00">/igankevich/arma/src</text>
<text text-anchor="start" x="231.523" y="-421" font-family="Helvetica,sans-Serif" font-size="10.00">/generator/basic_arma</text>
<text text-anchor="middle" x="280.023" y="-410" font-family="Helvetica,sans-Serif" font-size="10.00">_model.hh</text>
</a>
</g>
</g>
<!-- Node1&#45;&gt;Node2 -->
<g id="edge1" class="edge"><title>Node1&#45;&gt;Node2</title>
<path fill="none" stroke="midnightblue" d="M354.563,-486.076C341.396,-476.171 326.417,-464.902 313.358,-455.078"/>
<polygon fill="midnightblue" stroke="midnightblue" points="352.819,-489.144 362.914,-492.359 357.027,-483.55 352.819,-489.144"/>
</g>
<!-- Node14 -->
<g id="node14" class="node"><title>Node14</title>
<g id="a_node14"><a xlink:href="basic__arma__model_8cc.html" target="_top" xlink:title="/home/travis/build\l/igankevich/arma/src\l/generator/basic_arma\l_model.cc">
<polygon fill="none" stroke="black" points="344.523,-313 344.523,-365 457.523,-365 457.523,-313 344.523,-313"/>
<text text-anchor="start" x="352.523" y="-353" font-family="Helvetica,sans-Serif" font-size="10.00">/home/travis/build</text>
<text text-anchor="start" x="352.523" y="-342" font-family="Helvetica,sans-Serif" font-size="10.00">/igankevich/arma/src</text>
<text text-anchor="start" x="352.523" y="-331" font-family="Helvetica,sans-Serif" font-size="10.00">/generator/basic_arma</text>
<text text-anchor="middle" x="401.023" y="-320" font-family="Helvetica,sans-Serif" font-size="10.00">_model.cc</text>
</a>
</g>
</g>
<!-- Node1&#45;&gt;Node14 -->
<g id="edge17" class="edge"><title>Node1&#45;&gt;Node14</title>
<path fill="none" stroke="midnightblue" d="M391.097,-482.263C393.409,-449.131 397.106,-396.145 399.275,-365.045"/>
<polygon fill="midnightblue" stroke="midnightblue" points="387.604,-482.05 390.399,-492.269 394.587,-482.537 387.604,-482.05"/>
</g>
<!-- Node15 -->
<g id="node15" class="node"><title>Node15</title>
<g id="a_node15"><a xlink:href="nit__transform_8cc.html" target="_top" xlink:title="/home/travis/build\l/igankevich/arma/src\l/nonlinear/nit_transform.cc">
<polygon fill="none" stroke="black" points="417.023,-408.5 417.023,-449.5 549.023,-449.5 549.023,-408.5 417.023,-408.5"/>
<text text-anchor="start" x="425.023" y="-437.5" font-family="Helvetica,sans-Serif" font-size="10.00">/home/travis/build</text>
<text text-anchor="start" x="425.023" y="-426.5" font-family="Helvetica,sans-Serif" font-size="10.00">/igankevich/arma/src</text>
<text text-anchor="middle" x="483.023" y="-415.5" font-family="Helvetica,sans-Serif" font-size="10.00">/nonlinear/nit_transform.cc</text>
</a>
</g>
</g>
<!-- Node1&#45;&gt;Node15 -->
<g id="edge18" class="edge"><title>Node1&#45;&gt;Node15</title>
<path fill="none" stroke="midnightblue" d="M419.368,-485.528C432.732,-473.871 448.158,-460.414 460.477,-449.667"/>
<polygon fill="midnightblue" stroke="midnightblue" points="417.012,-482.939 411.777,-492.15 421.614,-488.214 417.012,-482.939"/>
</g>
<!-- Node3 -->
<g id="node3" class="node"><title>Node3</title>
<g id="a_node3"><a xlink:href="ar__model_8hh.html" target="_top" xlink:title="/home/travis/build\l/igankevich/arma/src\l/generator/ar_model.hh">
<polygon fill="none" stroke="black" points="210.023,-318.5 210.023,-359.5 326.023,-359.5 326.023,-318.5 210.023,-318.5"/>
<text text-anchor="start" x="218.023" y="-347.5" font-family="Helvetica,sans-Serif" font-size="10.00">/home/travis/build</text>
<text text-anchor="start" x="218.023" y="-336.5" font-family="Helvetica,sans-Serif" font-size="10.00">/igankevich/arma/src</text>
<text text-anchor="middle" x="268.023" y="-325.5" font-family="Helvetica,sans-Serif" font-size="10.00">/generator/ar_model.hh</text>
</a>
</g>
</g>
<!-- Node2&#45;&gt;Node3 -->
<g id="edge2" class="edge"><title>Node2&#45;&gt;Node3</title>
<path fill="none" stroke="midnightblue" d="M275.184,-392.515C273.649,-381.257 272.008,-369.227 270.685,-359.525"/>
<polygon fill="midnightblue" stroke="midnightblue" points="271.733,-393.111 276.552,-402.547 278.668,-392.166 271.733,-393.111"/>
</g>
<!-- Node12 -->
<g id="node12" class="node"><title>Node12</title>
<g id="a_node12"><a xlink:href="ma__model_8hh.html" target="_top" xlink:title="/home/travis/build\l/igankevich/arma/src\l/generator/ma_model.hh">
<polygon fill="none" stroke="black" points="43.0226,-318.5 43.0226,-359.5 165.023,-359.5 165.023,-318.5 43.0226,-318.5"/>
<text text-anchor="start" x="51.0226" y="-347.5" font-family="Helvetica,sans-Serif" font-size="10.00">/home/travis/build</text>
<text text-anchor="start" x="51.0226" y="-336.5" font-family="Helvetica,sans-Serif" font-size="10.00">/igankevich/arma/src</text>
<text text-anchor="middle" x="104.023" y="-325.5" font-family="Helvetica,sans-Serif" font-size="10.00">/generator/ma_model.hh</text>
</a>
</g>
</g>
<!-- Node2&#45;&gt;Node12 -->
<g id="edge12" class="edge"><title>Node2&#45;&gt;Node12</title>
<path fill="none" stroke="midnightblue" d="M220.392,-398.185C194.947,-385.462 165.958,-370.968 143.279,-359.628"/>
<polygon fill="midnightblue" stroke="midnightblue" points="219.079,-401.441 229.588,-402.783 222.209,-395.18 219.079,-401.441"/>
</g>
<!-- Node2&#45;&gt;Node14 -->
<g id="edge16" class="edge"><title>Node2&#45;&gt;Node14</title>
<path fill="none" stroke="midnightblue" d="M322.889,-396.824C337.13,-386.467 352.8,-375.071 366.344,-365.221"/>
<polygon fill="midnightblue" stroke="midnightblue" points="320.725,-394.07 314.696,-402.783 324.842,-399.732 320.725,-394.07"/>
</g>
<!-- Node4 -->
<g id="node4" class="node"><title>Node4</title>
<g id="a_node4"><a xlink:href="register__all_8hh.html" target="_top" xlink:title="/home/travis/build\l/igankevich/arma/src\l/register_all.hh">
<polygon fill="none" stroke="black" points="215.523,-156.5 215.523,-197.5 322.523,-197.5 322.523,-156.5 215.523,-156.5"/>
<text text-anchor="start" x="223.523" y="-185.5" font-family="Helvetica,sans-Serif" font-size="10.00">/home/travis/build</text>
<text text-anchor="start" x="223.523" y="-174.5" font-family="Helvetica,sans-Serif" font-size="10.00">/igankevich/arma/src</text>
<text text-anchor="middle" x="269.023" y="-163.5" font-family="Helvetica,sans-Serif" font-size="10.00">/register_all.hh</text>
</a>
</g>
</g>
<!-- Node3&#45;&gt;Node4 -->
<g id="edge3" class="edge"><title>Node3&#45;&gt;Node4</title>
<path fill="none" stroke="midnightblue" d="M284.106,-309.156C288.935,-298.995 293.592,-287.287 296.023,-276 299.952,-257.752 300.181,-252.198 296.023,-234 293.114,-221.268 286.923,-208.061 281.202,-197.673"/>
<polygon fill="midnightblue" stroke="midnightblue" points="280.844,-307.852 279.491,-318.36 287.102,-310.99 280.844,-307.852"/>
</g>
<!-- Node9 -->
<g id="node9" class="node"><title>Node9</title>
<g id="a_node9"><a xlink:href="arma__model_8hh.html" target="_top" xlink:title="/home/travis/build\l/igankevich/arma/src\l/generator/arma_model.hh">
<polygon fill="none" stroke="black" points="157.023,-234.5 157.023,-275.5 287.023,-275.5 287.023,-234.5 157.023,-234.5"/>
<text text-anchor="start" x="165.023" y="-263.5" font-family="Helvetica,sans-Serif" font-size="10.00">/home/travis/build</text>
<text text-anchor="start" x="165.023" y="-252.5" font-family="Helvetica,sans-Serif" font-size="10.00">/igankevich/arma/src</text>
<text text-anchor="middle" x="222.023" y="-241.5" font-family="Helvetica,sans-Serif" font-size="10.00">/generator/arma_model.hh</text>
</a>
</g>
</g>
<!-- Node3&#45;&gt;Node9 -->
<g id="edge8" class="edge"><title>Node3&#45;&gt;Node9</title>
<path fill="none" stroke="midnightblue" d="M251.877,-309.219C245.652,-298.122 238.69,-285.711 233.055,-275.667"/>
<polygon fill="midnightblue" stroke="midnightblue" points="248.942,-311.141 256.887,-318.15 255.047,-307.716 248.942,-311.141"/>
</g>
<!-- Node11 -->
<g id="node11" class="node"><title>Node11</title>
<g id="a_node11"><a xlink:href="ar__model_8cc.html" target="_top" xlink:title="/home/travis/build\l/igankevich/arma/src\l/generator/ar_model.cc">
<polygon fill="none" stroke="black" points="343.023,-234.5 343.023,-275.5 459.023,-275.5 459.023,-234.5 343.023,-234.5"/>
<text text-anchor="start" x="351.023" y="-263.5" font-family="Helvetica,sans-Serif" font-size="10.00">/home/travis/build</text>
<text text-anchor="start" x="351.023" y="-252.5" font-family="Helvetica,sans-Serif" font-size="10.00">/igankevich/arma/src</text>
<text text-anchor="middle" x="401.023" y="-241.5" font-family="Helvetica,sans-Serif" font-size="10.00">/generator/ar_model.cc</text>
</a>
</g>
</g>
<!-- Node3&#45;&gt;Node11 -->
<g id="edge11" class="edge"><title>Node3&#45;&gt;Node11</title>
<path fill="none" stroke="midnightblue" d="M308.514,-313.036C327.907,-301.079 350.803,-286.963 368.965,-275.765"/>
<polygon fill="midnightblue" stroke="midnightblue" points="306.555,-310.132 299.879,-318.359 310.229,-316.09 306.555,-310.132"/>
</g>
<!-- Node5 -->
<g id="node5" class="node"><title>Node5</title>
<g id="a_node5"><a xlink:href="common__main_8hh.html" target="_top" xlink:title="/home/travis/build\l/igankevich/arma/src\l/common_main.hh">
<polygon fill="none" stroke="black" points="153.523,-78.5 153.523,-119.5 260.523,-119.5 260.523,-78.5 153.523,-78.5"/>
<text text-anchor="start" x="161.523" y="-107.5" font-family="Helvetica,sans-Serif" font-size="10.00">/home/travis/build</text>
<text text-anchor="start" x="161.523" y="-96.5" font-family="Helvetica,sans-Serif" font-size="10.00">/igankevich/arma/src</text>
<text text-anchor="middle" x="207.023" y="-85.5" font-family="Helvetica,sans-Serif" font-size="10.00">/common_main.hh</text>
</a>
</g>
</g>
<!-- Node4&#45;&gt;Node5 -->
<g id="edge4" class="edge"><title>Node4&#45;&gt;Node5</title>
<path fill="none" stroke="midnightblue" d="M246.692,-148.627C238.83,-138.99 230.16,-128.362 222.935,-119.506"/>
<polygon fill="midnightblue" stroke="midnightblue" points="244.023,-150.892 253.056,-156.428 249.447,-146.467 244.023,-150.892"/>
</g>
<!-- Node8 -->
<g id="node8" class="node"><title>Node8</title>
<g id="a_node8"><a xlink:href="visual_8cc.html" target="_top" xlink:title="/home/travis/build\l/igankevich/arma/src\l/visual.cc">
<polygon fill="none" stroke="black" points="278.523,-78.5 278.523,-119.5 385.523,-119.5 385.523,-78.5 278.523,-78.5"/>
<text text-anchor="start" x="286.523" y="-107.5" font-family="Helvetica,sans-Serif" font-size="10.00">/home/travis/build</text>
<text text-anchor="start" x="286.523" y="-96.5" font-family="Helvetica,sans-Serif" font-size="10.00">/igankevich/arma/src</text>
<text text-anchor="middle" x="332.023" y="-85.5" font-family="Helvetica,sans-Serif" font-size="10.00">/visual.cc</text>
</a>
</g>
</g>
<!-- Node4&#45;&gt;Node8 -->
<g id="edge7" class="edge"><title>Node4&#45;&gt;Node8</title>
<path fill="none" stroke="midnightblue" d="M291.713,-148.627C299.702,-138.99 308.512,-128.362 315.854,-119.506"/>
<polygon fill="midnightblue" stroke="midnightblue" points="288.934,-146.496 285.247,-156.428 294.323,-150.963 288.934,-146.496"/>
</g>
<!-- Node6 -->
<g id="node6" class="node"><title>Node6</title>
<g id="a_node6"><a xlink:href="arma__main_8cc.html" target="_top" xlink:title="/home/travis/build\l/igankevich/arma/src\l/arma_main.cc">
<polygon fill="none" stroke="black" points="91.5226,-0.5 91.5226,-41.5 198.523,-41.5 198.523,-0.5 91.5226,-0.5"/>
<text text-anchor="start" x="99.5226" y="-29.5" font-family="Helvetica,sans-Serif" font-size="10.00">/home/travis/build</text>
<text text-anchor="start" x="99.5226" y="-18.5" font-family="Helvetica,sans-Serif" font-size="10.00">/igankevich/arma/src</text>
<text text-anchor="middle" x="145.023" y="-7.5" font-family="Helvetica,sans-Serif" font-size="10.00">/arma_main.cc</text>
</a>
</g>
</g>
<!-- Node5&#45;&gt;Node6 -->
<g id="edge5" class="edge"><title>Node5&#45;&gt;Node6</title>
<path fill="none" stroke="midnightblue" d="M184.692,-70.627C176.83,-60.9901 168.16,-50.3617 160.935,-41.5056"/>
<polygon fill="midnightblue" stroke="midnightblue" points="182.023,-72.8919 191.056,-78.4281 187.447,-68.467 182.023,-72.8919"/>
</g>
<!-- Node7 -->
<g id="node7" class="node"><title>Node7</title>
<g id="a_node7"><a xlink:href="arma__realtime_8cc.html" target="_top" xlink:title="/home/travis/build\l/igankevich/arma/src\l/arma_realtime.cc">
<polygon fill="none" stroke="black" points="216.523,-0.5 216.523,-41.5 323.523,-41.5 323.523,-0.5 216.523,-0.5"/>
<text text-anchor="start" x="224.523" y="-29.5" font-family="Helvetica,sans-Serif" font-size="10.00">/home/travis/build</text>
<text text-anchor="start" x="224.523" y="-18.5" font-family="Helvetica,sans-Serif" font-size="10.00">/igankevich/arma/src</text>
<text text-anchor="middle" x="270.023" y="-7.5" font-family="Helvetica,sans-Serif" font-size="10.00">/arma_realtime.cc</text>
</a>
</g>
</g>
<!-- Node5&#45;&gt;Node7 -->
<g id="edge6" class="edge"><title>Node5&#45;&gt;Node7</title>
<path fill="none" stroke="midnightblue" d="M229.713,-70.627C237.702,-60.9901 246.512,-50.3617 253.854,-41.5056"/>
<polygon fill="midnightblue" stroke="midnightblue" points="226.934,-68.4956 223.247,-78.4281 232.323,-72.963 226.934,-68.4956"/>
</g>
<!-- Node9&#45;&gt;Node4 -->
<g id="edge9" class="edge"><title>Node9&#45;&gt;Node4</title>
<path fill="none" stroke="midnightblue" d="M239.489,-225.757C245.304,-216.354 251.648,-206.096 256.96,-197.506"/>
<polygon fill="midnightblue" stroke="midnightblue" points="236.409,-224.082 234.126,-234.428 242.363,-227.764 236.409,-224.082"/>
</g>
<!-- Node10 -->
<g id="node10" class="node"><title>Node10</title>
<g id="a_node10"><a xlink:href="arma__model_8cc.html" target="_top" xlink:title="/home/travis/build\l/igankevich/arma/src\l/generator/arma_model.cc">
<polygon fill="none" stroke="black" points="67.0226,-156.5 67.0226,-197.5 197.023,-197.5 197.023,-156.5 67.0226,-156.5"/>
<text text-anchor="start" x="75.0226" y="-185.5" font-family="Helvetica,sans-Serif" font-size="10.00">/home/travis/build</text>
<text text-anchor="start" x="75.0226" y="-174.5" font-family="Helvetica,sans-Serif" font-size="10.00">/igankevich/arma/src</text>
<text text-anchor="middle" x="132.023" y="-163.5" font-family="Helvetica,sans-Serif" font-size="10.00">/generator/arma_model.cc</text>
</a>
</g>
</g>
<!-- Node9&#45;&gt;Node10 -->
<g id="edge10" class="edge"><title>Node9&#45;&gt;Node10</title>
<path fill="none" stroke="midnightblue" d="M190.971,-227.779C179.205,-217.843 166.028,-206.716 155.121,-197.506"/>
<polygon fill="midnightblue" stroke="midnightblue" points="188.947,-230.65 198.845,-234.428 193.463,-225.302 188.947,-230.65"/>
</g>
<!-- Node12&#45;&gt;Node4 -->
<g id="edge13" class="edge"><title>Node12&#45;&gt;Node4</title>
<path fill="none" stroke="midnightblue" d="M45.7693,-313.208C30.786,-303.848 16.5101,-291.585 8.02265,-276 -0.904962,-259.607 -3.93797,-248.331 8.02265,-234 36.6777,-199.665 162.622,-208.788 206.023,-198 209.03,-197.253 212.103,-196.44 215.195,-195.585"/>
<polygon fill="midnightblue" stroke="midnightblue" points="44.2345,-316.365 54.6346,-318.387 47.7653,-310.321 44.2345,-316.365"/>
</g>
<!-- Node12&#45;&gt;Node9 -->
<g id="edge14" class="edge"><title>Node12&#45;&gt;Node9</title>
<path fill="none" stroke="midnightblue" d="M140.88,-312.387C157.884,-300.571 177.757,-286.761 193.58,-275.765"/>
<polygon fill="midnightblue" stroke="midnightblue" points="138.501,-309.778 132.287,-318.359 142.496,-315.527 138.501,-309.778"/>
</g>
<!-- Node13 -->
<g id="node13" class="node"><title>Node13</title>
<g id="a_node13"><a xlink:href="ma__model_8cc.html" target="_top" xlink:title="/home/travis/build\l/igankevich/arma/src\l/generator/ma_model.cc">
<polygon fill="none" stroke="black" points="17.0226,-234.5 17.0226,-275.5 139.023,-275.5 139.023,-234.5 17.0226,-234.5"/>
<text text-anchor="start" x="25.0226" y="-263.5" font-family="Helvetica,sans-Serif" font-size="10.00">/home/travis/build</text>
<text text-anchor="start" x="25.0226" y="-252.5" font-family="Helvetica,sans-Serif" font-size="10.00">/igankevich/arma/src</text>
<text text-anchor="middle" x="78.0226" y="-241.5" font-family="Helvetica,sans-Serif" font-size="10.00">/generator/ma_model.cc</text>
</a>
</g>
</g>
<!-- Node12&#45;&gt;Node13 -->
<g id="edge15" class="edge"><title>Node12&#45;&gt;Node13</title>
<path fill="none" stroke="midnightblue" d="M94.6853,-308.551C91.2212,-297.626 87.3795,-285.51 84.2586,-275.667"/>
<polygon fill="midnightblue" stroke="midnightblue" points="91.37,-309.676 97.7288,-318.15 98.0426,-307.56 91.37,-309.676"/>
</g>
</g>
</svg>
