<?xml version="1.0" encoding="UTF-8" standalone="no"?>
<!DOCTYPE svg PUBLIC "-//W3C//DTD SVG 1.1//EN"
 "http://www.w3.org/Graphics/SVG/1.1/DTD/svg11.dtd">
<!-- Generated by graphviz version 2.36.0 (20140111.2315)
 -->
<!-- Title: /home/travis/build/igankevich/arma/src/nonlinear/nit_transform.cc Pages: 1 -->
<svg width="1804pt" height="330pt"
 viewBox="0.00 0.00 1803.56 330.00" xmlns="http://www.w3.org/2000/svg" xmlns:xlink="http://www.w3.org/1999/xlink">
<g id="graph0" class="graph" transform="scale(1 1) rotate(0) translate(4 326)">
<title>/home/travis/build/igankevich/arma/src/nonlinear/nit_transform.cc</title>
<!-- Node1 -->
<g id="node1" class="node"><title>Node1</title>
<polygon fill="#bfbfbf" stroke="black" points="1359.56,-280.5 1359.56,-321.5 1491.56,-321.5 1491.56,-280.5 1359.56,-280.5"/>
<text text-anchor="start" x="1367.56" y="-309.5" font-family="Helvetica,sans-Serif" font-size="10.00">/home/travis/build</text>
<text text-anchor="start" x="1367.56" y="-298.5" font-family="Helvetica,sans-Serif" font-size="10.00">/igankevich/arma/src</text>
<text text-anchor="middle" x="1425.56" y="-287.5" font-family="Helvetica,sans-Serif" font-size="10.00">/nonlinear/nit_transform.cc</text>
</g>
<!-- Node2 -->
<g id="node2" class="node"><title>Node2</title>
<g id="a_node2"><a xlink:href="nit__transform_8hh.html" target="_top" xlink:title="nit_transform.hh">
<polygon fill="none" stroke="black" points="657.057,-224.5 657.057,-243.5 744.057,-243.5 744.057,-224.5 657.057,-224.5"/>
<text text-anchor="middle" x="700.557" y="-231.5" font-family="Helvetica,sans-Serif" font-size="10.00">nit_transform.hh</text>
</a>
</g>
</g>
<!-- Node1&#45;&gt;Node2 -->
<g id="edge1" class="edge"><title>Node1&#45;&gt;Node2</title>
<path fill="none" stroke="midnightblue" d="M1359.3,-294.059C1217.03,-281.305 884.72,-251.511 754.377,-239.825"/>
<polygon fill="midnightblue" stroke="midnightblue" points="754.513,-236.323 744.24,-238.916 753.888,-243.296 754.513,-236.323"/>
</g>
<!-- Node10 -->
<g id="node10" class="node"><title>Node10</title>
<polygon fill="none" stroke="#bfbfbf" points="148.557,-0.5 148.557,-19.5 192.557,-19.5 192.557,-0.5 148.557,-0.5"/>
<text text-anchor="middle" x="170.557" y="-7.5" font-family="Helvetica,sans-Serif" font-size="10.00">cmath</text>
</g>
<!-- Node1&#45;&gt;Node10 -->
<g id="edge61" class="edge"><title>Node1&#45;&gt;Node10</title>
<path fill="none" stroke="midnightblue" d="M1359.21,-297.89C1078.22,-288.522 0.556606,-248.093 0.556606,-179 0.556606,-179 0.556606,-179 0.556606,-121 0.556606,-90.9022 -1.66982,-77.3381 19.5566,-56 51.1519,-24.2385 104.122,-14.6982 138.187,-11.9465"/>
<polygon fill="midnightblue" stroke="midnightblue" points="138.78,-15.4153 148.531,-11.272 138.325,-8.43012 138.78,-15.4153"/>
</g>
<!-- Node21 -->
<g id="node21" class="node"><title>Node21</title>
<g id="a_node21"><a xlink:href="validators_8hh.html" target="_top" xlink:title="validators.hh">
<polygon fill="none" stroke="black" points="804.557,-112.5 804.557,-131.5 876.557,-131.5 876.557,-112.5 804.557,-112.5"/>
<text text-anchor="middle" x="840.557" y="-119.5" font-family="Helvetica,sans-Serif" font-size="10.00">validators.hh</text>
</a>
</g>
</g>
<!-- Node1&#45;&gt;Node21 -->
<g id="edge45" class="edge"><title>Node1&#45;&gt;Node21</title>
<path fill="none" stroke="midnightblue" d="M1359.23,-297.459C1247.56,-292.293 1027.47,-278.029 958.557,-244 909.839,-219.945 869.862,-167.384 851.47,-140.139"/>
<polygon fill="midnightblue" stroke="midnightblue" points="854.304,-138.079 845.885,-131.646 848.455,-141.925 854.304,-138.079"/>
</g>
<!-- Node22 -->
<g id="node22" class="node"><title>Node22</title>
<polygon fill="none" stroke="#bfbfbf" points="877.057,-56.5 877.057,-75.5 936.057,-75.5 936.057,-56.5 877.057,-56.5"/>
<text text-anchor="middle" x="906.557" y="-63.5" font-family="Helvetica,sans-Serif" font-size="10.00">stdexcept</text>
</g>
<!-- Node1&#45;&gt;Node22 -->
<g id="edge59" class="edge"><title>Node1&#45;&gt;Node22</title>
<path fill="none" stroke="midnightblue" d="M1359.27,-283.918C1288.19,-265.453 1172.96,-231.96 1079.56,-188 1037.61,-168.258 1029.56,-158.549 991.557,-132 968.084,-115.602 942.063,-95.387 925.072,-81.8959"/>
<polygon fill="midnightblue" stroke="midnightblue" points="927.07,-79.0125 917.071,-75.5096 922.703,-84.4834 927.07,-79.0125"/>
</g>
<!-- Node25 -->
<g id="node25" class="node"><title>Node25</title>
<g id="a_node25"><a xlink:href="params_8hh.html" target="_top" xlink:title="params.hh">
<polygon fill="none" stroke="black" points="1549.56,-224.5 1549.56,-243.5 1611.56,-243.5 1611.56,-224.5 1549.56,-224.5"/>
<text text-anchor="middle" x="1580.56" y="-231.5" font-family="Helvetica,sans-Serif" font-size="10.00">params.hh</text>
</a>
</g>
</g>
<!-- Node1&#45;&gt;Node25 -->
<g id="edge41" class="edge"><title>Node1&#45;&gt;Node25</title>
<path fill="none" stroke="midnightblue" d="M1472.06,-280.498C1497.54,-269.813 1528.37,-256.885 1550.64,-247.545"/>
<polygon fill="midnightblue" stroke="midnightblue" points="1552.06,-250.748 1559.92,-243.652 1549.35,-244.292 1552.06,-250.748"/>
</g>
<!-- Node27 -->
<g id="node27" class="node"><title>Node27</title>
<polygon fill="none" stroke="#bfbfbf" points="1729.06,-168.5 1729.06,-187.5 1770.06,-187.5 1770.06,-168.5 1729.06,-168.5"/>
<text text-anchor="middle" x="1749.56" y="-175.5" font-family="Helvetica,sans-Serif" font-size="10.00">string</text>
</g>
<!-- Node1&#45;&gt;Node27 -->
<g id="edge58" class="edge"><title>Node1&#45;&gt;Node27</title>
<path fill="none" stroke="midnightblue" d="M1491.72,-284.287C1529.72,-274.427 1578.01,-260.472 1619.56,-244 1637.67,-236.821 1641.16,-232.762 1658.56,-224 1680.07,-213.164 1704.56,-201.07 1722.7,-192.152"/>
<polygon fill="midnightblue" stroke="midnightblue" points="1724.64,-195.1 1732.07,-187.551 1721.55,-188.816 1724.64,-195.1"/>
</g>
<!-- Node29 -->
<g id="node29" class="node"><title>Node29</title>
<g id="a_node29"><a xlink:href="transforms_8hh.html" target="_top" xlink:title="transforms.hh">
<polygon fill="none" stroke="black" points="1428.06,-224.5 1428.06,-243.5 1505.06,-243.5 1505.06,-224.5 1428.06,-224.5"/>
<text text-anchor="middle" x="1466.56" y="-231.5" font-family="Helvetica,sans-Serif" font-size="10.00">transforms.hh</text>
</a>
</g>
</g>
<!-- Node1&#45;&gt;Node29 -->
<g id="edge46" class="edge"><title>Node1&#45;&gt;Node29</title>
<path fill="none" stroke="midnightblue" d="M1437.86,-280.498C1443.54,-271.49 1450.23,-260.888 1455.72,-252.185"/>
<polygon fill="midnightblue" stroke="midnightblue" points="1458.72,-253.978 1461.1,-243.652 1452.8,-250.243 1458.72,-253.978"/>
</g>
<!-- Node32 -->
<g id="node32" class="node"><title>Node32</title>
<g id="a_node32"><a xlink:href="series_8hh.html" target="_top" xlink:title="series.hh">
<polygon fill="none" stroke="black" points="1667.56,-224.5 1667.56,-243.5 1723.56,-243.5 1723.56,-224.5 1667.56,-224.5"/>
<text text-anchor="middle" x="1695.56" y="-231.5" font-family="Helvetica,sans-Serif" font-size="10.00">series.hh</text>
</a>
</g>
</g>
<!-- Node1&#45;&gt;Node32 -->
<g id="edge51" class="edge"><title>Node1&#45;&gt;Node32</title>
<path fill="none" stroke="midnightblue" d="M1491.61,-284.099C1543.78,-271.538 1614.74,-254.455 1657.73,-244.106"/>
<polygon fill="midnightblue" stroke="midnightblue" points="1658.61,-247.496 1667.51,-241.752 1656.97,-240.69 1658.61,-247.496"/>
</g>
<!-- Node33 -->
<g id="node33" class="node"><title>Node33</title>
<g id="a_node33"><a xlink:href="util_8hh.html" target="_top" xlink:title="util.hh">
<polygon fill="none" stroke="black" points="1355.06,-168.5 1355.06,-187.5 1398.06,-187.5 1398.06,-168.5 1355.06,-168.5"/>
<text text-anchor="middle" x="1376.56" y="-175.5" font-family="Helvetica,sans-Serif" font-size="10.00">util.hh</text>
</a>
</g>
</g>
<!-- Node1&#45;&gt;Node33 -->
<g id="edge53" class="edge"><title>Node1&#45;&gt;Node33</title>
<path fill="none" stroke="midnightblue" d="M1417.57,-280.29C1408.21,-257.166 1392.82,-219.16 1383.79,-196.864"/>
<polygon fill="midnightblue" stroke="midnightblue" points="1387.03,-195.53 1380.03,-187.575 1380.54,-198.157 1387.03,-195.53"/>
</g>
<!-- Node36 -->
<g id="node36" class="node"><title>Node36</title>
<polygon fill="none" stroke="#bfbfbf" points="1741.56,-224.5 1741.56,-243.5 1795.56,-243.5 1795.56,-224.5 1741.56,-224.5"/>
<text text-anchor="middle" x="1768.56" y="-231.5" font-family="Helvetica,sans-Serif" font-size="10.00">iostream</text>
</g>
<!-- Node1&#45;&gt;Node36 -->
<g id="edge60" class="edge"><title>Node1&#45;&gt;Node36</title>
<path fill="none" stroke="midnightblue" d="M1491.73,-289.023C1553.86,-278.449 1649.28,-261.519 1731.56,-244 1731.66,-243.978 1731.76,-243.957 1731.86,-243.935"/>
<polygon fill="midnightblue" stroke="midnightblue" points="1732.53,-247.372 1741.52,-241.767 1731,-240.542 1732.53,-247.372"/>
</g>
<!-- Node3 -->
<g id="node3" class="node"><title>Node3</title>
<polygon fill="none" stroke="#bfbfbf" points="296.057,-56.5 296.057,-75.5 345.057,-75.5 345.057,-56.5 296.057,-56.5"/>
<text text-anchor="middle" x="320.557" y="-63.5" font-family="Helvetica,sans-Serif" font-size="10.00">istream</text>
</g>
<!-- Node2&#45;&gt;Node3 -->
<g id="edge2" class="edge"><title>Node2&#45;&gt;Node3</title>
<path fill="none" stroke="midnightblue" d="M656.852,-232.137C542.095,-228.76 237.712,-212.258 189.557,-132 184.983,-124.378 184.392,-119.235 189.557,-112 195.383,-103.838 249.241,-87.2051 286.059,-76.6071"/>
<polygon fill="midnightblue" stroke="midnightblue" points="287.281,-79.8982 295.938,-73.7899 285.362,-73.1666 287.281,-79.8982"/>
</g>
<!-- Node4 -->
<g id="node4" class="node"><title>Node4</title>
<polygon fill="none" stroke="#bfbfbf" points="630.557,-56.5 630.557,-75.5 682.557,-75.5 682.557,-56.5 630.557,-56.5"/>
<text text-anchor="middle" x="656.557" y="-63.5" font-family="Helvetica,sans-Serif" font-size="10.00">ostream</text>
</g>
<!-- Node2&#45;&gt;Node4 -->
<g id="edge3" class="edge"><title>Node2&#45;&gt;Node4</title>
<path fill="none" stroke="midnightblue" d="M698.191,-224.075C691.265,-197.945 670.926,-121.211 661.481,-85.577"/>
<polygon fill="midnightblue" stroke="midnightblue" points="664.773,-84.3375 658.828,-75.5681 658.007,-86.1311 664.773,-84.3375"/>
</g>
<!-- Node5 -->
<g id="node5" class="node"><title>Node5</title>
<g id="a_node5"><a xlink:href="gaussian_8hh.html" target="_top" xlink:title="stats/gaussian.hh">
<polygon fill="none" stroke="black" points="198.557,-112.5 198.557,-131.5 292.557,-131.5 292.557,-112.5 198.557,-112.5"/>
<text text-anchor="middle" x="245.557" y="-119.5" font-family="Helvetica,sans-Serif" font-size="10.00">stats/gaussian.hh</text>
</a>
</g>
</g>
<!-- Node2&#45;&gt;Node5 -->
<g id="edge4" class="edge"><title>Node2&#45;&gt;Node5</title>
<path fill="none" stroke="midnightblue" d="M656.975,-230.53C572.516,-225.281 389.742,-211.529 331.557,-188 303.78,-176.767 277.111,-154.163 261.028,-138.803"/>
<polygon fill="midnightblue" stroke="midnightblue" points="263.216,-136.047 253.632,-131.53 258.308,-141.037 263.216,-136.047"/>
</g>
<!-- Node7 -->
<g id="node7" class="node"><title>Node7</title>
<g id="a_node7"><a xlink:href="skew__normal_8hh.html" target="_top" xlink:title="stats/skew_normal.hh">
<polygon fill="none" stroke="black" points="341.057,-168.5 341.057,-187.5 454.057,-187.5 454.057,-168.5 341.057,-168.5"/>
<text text-anchor="middle" x="397.557" y="-175.5" font-family="Helvetica,sans-Serif" font-size="10.00">stats/skew_normal.hh</text>
</a>
</g>
</g>
<!-- Node2&#45;&gt;Node7 -->
<g id="edge8" class="edge"><title>Node2&#45;&gt;Node7</title>
<path fill="none" stroke="midnightblue" d="M656.821,-225.206C603.682,-215.735 513.869,-199.729 455.144,-189.263"/>
<polygon fill="midnightblue" stroke="midnightblue" points="455.736,-185.814 445.277,-187.505 454.508,-192.705 455.736,-185.814"/>
</g>
<!-- Node9 -->
<g id="node9" class="node"><title>Node9</title>
<g id="a_node9"><a xlink:href="gram__charlier_8hh.html" target="_top" xlink:title="stats/gram_charlier.hh">
<polygon fill="none" stroke="black" points="29.0566,-112.5 29.0566,-131.5 142.057,-131.5 142.057,-112.5 29.0566,-112.5"/>
<text text-anchor="middle" x="85.5566" y="-119.5" font-family="Helvetica,sans-Serif" font-size="10.00">stats/gram_charlier.hh</text>
</a>
</g>
</g>
<!-- Node2&#45;&gt;Node9 -->
<g id="edge13" class="edge"><title>Node2&#45;&gt;Node9</title>
<path fill="none" stroke="midnightblue" d="M657.053,-232.995C544.471,-232.417 246.11,-227.128 156.557,-188 132.49,-177.485 111.215,-155.384 98.3733,-139.885"/>
<polygon fill="midnightblue" stroke="midnightblue" points="100.795,-137.306 91.8298,-131.66 95.3165,-141.664 100.795,-137.306"/>
</g>
<!-- Node12 -->
<g id="node12" class="node"><title>Node12</title>
<g id="a_node12"><a xlink:href="linalg_8hh.html" target="_top" xlink:title="linalg.hh">
<polygon fill="none" stroke="black" points="1089.06,-168.5 1089.06,-187.5 1142.06,-187.5 1142.06,-168.5 1089.06,-168.5"/>
<text text-anchor="middle" x="1115.56" y="-175.5" font-family="Helvetica,sans-Serif" font-size="10.00">linalg.hh</text>
</a>
</g>
</g>
<!-- Node2&#45;&gt;Node12 -->
<g id="edge19" class="edge"><title>Node2&#45;&gt;Node12</title>
<path fill="none" stroke="midnightblue" d="M744.185,-227.323C826.271,-216.642 1002.3,-193.738 1078.8,-183.783"/>
<polygon fill="midnightblue" stroke="midnightblue" points="1079.45,-187.228 1088.91,-182.467 1078.54,-180.287 1079.45,-187.228"/>
</g>
<!-- Node18 -->
<g id="node18" class="node"><title>Node18</title>
<g id="a_node18"><a xlink:href="types_8hh.html" target="_top" xlink:title="types.hh">
<polygon fill="none" stroke="black" points="1370.56,-56.5 1370.56,-75.5 1424.56,-75.5 1424.56,-56.5 1370.56,-56.5"/>
<text text-anchor="middle" x="1397.56" y="-63.5" font-family="Helvetica,sans-Serif" font-size="10.00">types.hh</text>
</a>
</g>
</g>
<!-- Node2&#45;&gt;Node18 -->
<g id="edge28" class="edge"><title>Node2&#45;&gt;Node18</title>
<path fill="none" stroke="midnightblue" d="M744.183,-231.965C888.713,-228.296 1346.13,-214.678 1406.56,-188 1445.43,-170.839 1484.54,-149.497 1464.56,-112 1457.01,-97.8339 1442.8,-87.3348 1429.4,-80.0576"/>
<polygon fill="midnightblue" stroke="midnightblue" points="1430.85,-76.8724 1420.35,-75.5289 1427.72,-83.1329 1430.85,-76.8724"/>
</g>
<!-- Node19 -->
<g id="node19" class="node"><title>Node19</title>
<g id="a_node19"><a xlink:href="domain_8hh.html" target="_top" xlink:title="domain.hh">
<polygon fill="none" stroke="black" points="737.557,-168.5 737.557,-187.5 799.557,-187.5 799.557,-168.5 737.557,-168.5"/>
<text text-anchor="middle" x="768.557" y="-175.5" font-family="Helvetica,sans-Serif" font-size="10.00">domain.hh</text>
</a>
</g>
</g>
<!-- Node2&#45;&gt;Node19 -->
<g id="edge30" class="edge"><title>Node2&#45;&gt;Node19</title>
<path fill="none" stroke="midnightblue" d="M711.482,-224.324C721.731,-216.185 737.277,-203.839 749.558,-194.087"/>
<polygon fill="midnightblue" stroke="midnightblue" points="751.778,-196.794 757.432,-187.834 747.425,-191.312 751.778,-196.794"/>
</g>
<!-- Node5&#45;&gt;Node3 -->
<g id="edge5" class="edge"><title>Node5&#45;&gt;Node3</title>
<path fill="none" stroke="midnightblue" d="M257.607,-112.324C269.02,-104.107 286.388,-91.6017 299.992,-81.8069"/>
<polygon fill="midnightblue" stroke="midnightblue" points="302.217,-84.5174 308.287,-75.8339 298.127,-78.8366 302.217,-84.5174"/>
</g>
<!-- Node5&#45;&gt;Node4 -->
<g id="edge6" class="edge"><title>Node5&#45;&gt;Node4</title>
<path fill="none" stroke="midnightblue" d="M292.704,-114.806C375.503,-103.927 545.326,-81.6142 619.978,-71.8059"/>
<polygon fill="midnightblue" stroke="midnightblue" points="620.822,-75.2253 630.28,-70.4524 619.91,-68.2849 620.822,-75.2253"/>
</g>
<!-- Node6 -->
<g id="node6" class="node"><title>Node6</title>
<polygon fill="none" stroke="#bfbfbf" points="205.557,-56.5 205.557,-75.5 277.557,-75.5 277.557,-56.5 205.557,-56.5"/>
<text text-anchor="middle" x="241.557" y="-63.5" font-family="Helvetica,sans-Serif" font-size="10.00">gsl/gsl_cdf.h</text>
</g>
<!-- Node5&#45;&gt;Node6 -->
<g id="edge7" class="edge"><title>Node5&#45;&gt;Node6</title>
<path fill="none" stroke="midnightblue" d="M244.896,-112.083C244.372,-105.006 243.62,-94.8611 242.963,-85.9865"/>
<polygon fill="midnightblue" stroke="midnightblue" points="246.434,-85.4652 242.205,-75.7511 239.453,-85.9823 246.434,-85.4652"/>
</g>
<!-- Node7&#45;&gt;Node3 -->
<g id="edge9" class="edge"><title>Node7&#45;&gt;Node3</title>
<path fill="none" stroke="midnightblue" d="M381.493,-168.372C368.378,-160.537 350.314,-147.803 339.557,-132 330.15,-118.181 325.331,-99.6607 322.906,-85.9246"/>
<polygon fill="midnightblue" stroke="midnightblue" points="326.321,-85.0938 321.383,-75.7197 319.397,-86.1268 326.321,-85.0938"/>
</g>
<!-- Node7&#45;&gt;Node4 -->
<g id="edge10" class="edge"><title>Node7&#45;&gt;Node4</title>
<path fill="none" stroke="midnightblue" d="M454.124,-173.756C517.955,-168.904 616.326,-157.443 642.557,-132 654.718,-120.204 657.536,-100.57 657.727,-85.9612"/>
<polygon fill="midnightblue" stroke="midnightblue" points="661.215,-85.4704 657.446,-75.5689 654.218,-85.6601 661.215,-85.4704"/>
</g>
<!-- Node7&#45;&gt;Node5 -->
<g id="edge11" class="edge"><title>Node7&#45;&gt;Node5</title>
<path fill="none" stroke="midnightblue" d="M373.472,-168.444C348.012,-159.399 307.663,-145.064 279.098,-134.916"/>
<polygon fill="midnightblue" stroke="midnightblue" points="280.123,-131.566 269.529,-131.516 277.78,-138.162 280.123,-131.566"/>
</g>
<!-- Node8 -->
<g id="node8" class="node"><title>Node8</title>
<g id="a_node8"><a xlink:href="owen__t_8hh.html" target="_top" xlink:title="apmath/owen_t.hh">
<polygon fill="none" stroke="black" points="349.057,-112.5 349.057,-131.5 446.057,-131.5 446.057,-112.5 349.057,-112.5"/>
<text text-anchor="middle" x="397.557" y="-119.5" font-family="Helvetica,sans-Serif" font-size="10.00">apmath/owen_t.hh</text>
</a>
</g>
</g>
<!-- Node7&#45;&gt;Node8 -->
<g id="edge12" class="edge"><title>Node7&#45;&gt;Node8</title>
<path fill="none" stroke="midnightblue" d="M397.557,-168.083C397.557,-161.006 397.557,-150.861 397.557,-141.986"/>
<polygon fill="midnightblue" stroke="midnightblue" points="401.057,-141.751 397.557,-131.751 394.057,-141.751 401.057,-141.751"/>
</g>
<!-- Node9&#45;&gt;Node3 -->
<g id="edge14" class="edge"><title>Node9&#45;&gt;Node3</title>
<path fill="none" stroke="midnightblue" d="M125.706,-112.488C164.29,-104.201 224.473,-90.9996 285.845,-76.1022"/>
<polygon fill="midnightblue" stroke="midnightblue" points="286.817,-79.4679 295.702,-73.6972 285.158,-72.6674 286.817,-79.4679"/>
</g>
<!-- Node9&#45;&gt;Node4 -->
<g id="edge15" class="edge"><title>Node9&#45;&gt;Node4</title>
<path fill="none" stroke="midnightblue" d="M142.131,-115.65C258.894,-104.607 523.715,-79.563 620.375,-70.4217"/>
<polygon fill="midnightblue" stroke="midnightblue" points="620.894,-73.8884 630.52,-69.4623 620.235,-66.9195 620.894,-73.8884"/>
</g>
<!-- Node9&#45;&gt;Node10 -->
<g id="edge16" class="edge"><title>Node9&#45;&gt;Node10</title>
<path fill="none" stroke="midnightblue" d="M104.745,-112.443C119.59,-104.882 139.573,-92.4921 151.557,-76 161.383,-62.4764 166.156,-43.9234 168.456,-30.0998"/>
<polygon fill="midnightblue" stroke="midnightblue" points="171.976,-30.1969 169.865,-19.8145 165.04,-29.2473 171.976,-30.1969"/>
</g>
<!-- Node11 -->
<g id="node11" class="node"><title>Node11</title>
<g id="a_node11"><a xlink:href="physical__constants_8hh.html" target="_top" xlink:title="physical_constants.hh">
<polygon fill="none" stroke="black" points="28.5566,-56.5 28.5566,-75.5 142.557,-75.5 142.557,-56.5 28.5566,-56.5"/>
<text text-anchor="middle" x="85.5566" y="-63.5" font-family="Helvetica,sans-Serif" font-size="10.00">physical_constants.hh</text>
</a>
</g>
</g>
<!-- Node9&#45;&gt;Node11 -->
<g id="edge17" class="edge"><title>Node9&#45;&gt;Node11</title>
<path fill="none" stroke="midnightblue" d="M85.5566,-112.083C85.5566,-105.006 85.5566,-94.8611 85.5566,-85.9865"/>
<polygon fill="midnightblue" stroke="midnightblue" points="89.0567,-85.751 85.5566,-75.7511 82.0567,-85.7511 89.0567,-85.751"/>
</g>
<!-- Node11&#45;&gt;Node10 -->
<g id="edge18" class="edge"><title>Node11&#45;&gt;Node10</title>
<path fill="none" stroke="midnightblue" d="M99.2133,-56.324C112.473,-47.9002 132.825,-34.9709 148.403,-25.0741"/>
<polygon fill="midnightblue" stroke="midnightblue" points="150.37,-27.9711 156.934,-19.6545 146.616,-22.0626 150.37,-27.9711"/>
</g>
<!-- Node13 -->
<g id="node13" class="node"><title>Node13</title>
<polygon fill="none" stroke="#bfbfbf" points="1001.06,-112.5 1001.06,-131.5 1050.06,-131.5 1050.06,-112.5 1001.06,-112.5"/>
<text text-anchor="middle" x="1025.56" y="-119.5" font-family="Helvetica,sans-Serif" font-size="10.00">cassert</text>
</g>
<!-- Node12&#45;&gt;Node13 -->
<g id="edge20" class="edge"><title>Node12&#45;&gt;Node13</title>
<path fill="none" stroke="midnightblue" d="M1101.1,-168.324C1087.06,-159.9 1065.51,-146.971 1049.01,-137.074"/>
<polygon fill="midnightblue" stroke="midnightblue" points="1050.36,-133.798 1039.98,-131.655 1046.75,-139.801 1050.36,-133.798"/>
</g>
<!-- Node14 -->
<g id="node14" class="node"><title>Node14</title>
<polygon fill="none" stroke="#bfbfbf" points="1314.56,-0.5 1314.56,-19.5 1382.56,-19.5 1382.56,-0.5 1314.56,-0.5"/>
<text text-anchor="middle" x="1348.56" y="-7.5" font-family="Helvetica,sans-Serif" font-size="10.00">blitz/array.h</text>
</g>
<!-- Node12&#45;&gt;Node14 -->
<g id="edge21" class="edge"><title>Node12&#45;&gt;Node14</title>
<path fill="none" stroke="midnightblue" d="M1142.35,-175.935C1177.53,-173.254 1239.59,-163.962 1280.56,-132 1314.96,-105.164 1334.71,-55.7634 1343.33,-29.1391"/>
<polygon fill="midnightblue" stroke="midnightblue" points="1346.68,-30.1366 1346.27,-19.55 1339.99,-28.0863 1346.68,-30.1366"/>
</g>
<!-- Node15 -->
<g id="node15" class="node"><title>Node15</title>
<polygon fill="none" stroke="#bfbfbf" points="1068.06,-112.5 1068.06,-131.5 1163.06,-131.5 1163.06,-112.5 1068.06,-112.5"/>
<text text-anchor="middle" x="1115.56" y="-119.5" font-family="Helvetica,sans-Serif" font-size="10.00">lapacke/lapacke.h</text>
</g>
<!-- Node12&#45;&gt;Node15 -->
<g id="edge22" class="edge"><title>Node12&#45;&gt;Node15</title>
<path fill="none" stroke="midnightblue" d="M1115.56,-168.083C1115.56,-161.006 1115.56,-150.861 1115.56,-141.986"/>
<polygon fill="midnightblue" stroke="midnightblue" points="1119.06,-141.751 1115.56,-131.751 1112.06,-141.751 1119.06,-141.751"/>
</g>
<!-- Node16 -->
<g id="node16" class="node"><title>Node16</title>
<polygon fill="none" stroke="#bfbfbf" points="1181.56,-112.5 1181.56,-131.5 1271.56,-131.5 1271.56,-112.5 1181.56,-112.5"/>
<text text-anchor="middle" x="1226.56" y="-119.5" font-family="Helvetica,sans-Serif" font-size="10.00">openblas/cblas.h</text>
</g>
<!-- Node12&#45;&gt;Node16 -->
<g id="edge23" class="edge"><title>Node12&#45;&gt;Node16</title>
<path fill="none" stroke="midnightblue" d="M1133.39,-168.324C1151.27,-159.625 1179.03,-146.12 1199.6,-136.113"/>
<polygon fill="midnightblue" stroke="midnightblue" points="1201.31,-139.177 1208.77,-131.655 1198.24,-132.882 1201.31,-139.177"/>
</g>
<!-- Node17 -->
<g id="node17" class="node"><title>Node17</title>
<g id="a_node17"><a xlink:href="closed__interval_8hh.html" target="_top" xlink:title="apmath/closed_interval.hh">
<polygon fill="none" stroke="black" points="503.057,-112.5 503.057,-131.5 634.057,-131.5 634.057,-112.5 503.057,-112.5"/>
<text text-anchor="middle" x="568.557" y="-119.5" font-family="Helvetica,sans-Serif" font-size="10.00">apmath/closed_interval.hh</text>
</a>
</g>
</g>
<!-- Node12&#45;&gt;Node17 -->
<g id="edge24" class="edge"><title>Node12&#45;&gt;Node17</title>
<path fill="none" stroke="midnightblue" d="M1088.8,-174.359C1008.69,-166.45 768.607,-142.749 644.58,-130.505"/>
<polygon fill="midnightblue" stroke="midnightblue" points="644.697,-127 634.402,-129.5 644.009,-133.966 644.697,-127"/>
</g>
<!-- Node17&#45;&gt;Node3 -->
<g id="edge25" class="edge"><title>Node17&#45;&gt;Node3</title>
<path fill="none" stroke="midnightblue" d="M529.26,-112.444C481.364,-102.014 401.17,-84.5529 355.391,-74.585"/>
<polygon fill="midnightblue" stroke="midnightblue" points="355.867,-71.1066 345.351,-72.3989 354.378,-77.9464 355.867,-71.1066"/>
</g>
<!-- Node17&#45;&gt;Node4 -->
<g id="edge26" class="edge"><title>Node17&#45;&gt;Node4</title>
<path fill="none" stroke="midnightblue" d="M582.695,-112.324C596.423,-103.9 617.493,-90.9709 633.621,-81.0741"/>
<polygon fill="midnightblue" stroke="midnightblue" points="635.76,-83.8678 642.453,-75.6545 632.099,-77.9016 635.76,-83.8678"/>
</g>
<!-- Node17&#45;&gt;Node10 -->
<g id="edge27" class="edge"><title>Node17&#45;&gt;Node10</title>
<path fill="none" stroke="midnightblue" d="M541.873,-112.44C501.359,-99.5554 421.818,-74.6975 353.557,-56 300.999,-41.6039 239.367,-26.8918 202.716,-18.3689"/>
<polygon fill="midnightblue" stroke="midnightblue" points="203.157,-14.8785 192.625,-16.0321 201.577,-21.698 203.157,-14.8785"/>
</g>
<!-- Node18&#45;&gt;Node14 -->
<g id="edge29" class="edge"><title>Node18&#45;&gt;Node14</title>
<path fill="none" stroke="midnightblue" d="M1389.47,-56.083C1382.4,-48.2982 1371.97,-36.8015 1363.41,-27.3665"/>
<polygon fill="midnightblue" stroke="midnightblue" points="1365.81,-24.8047 1356.5,-19.7511 1360.63,-29.5087 1365.81,-24.8047"/>
</g>
<!-- Node19&#45;&gt;Node3 -->
<g id="edge31" class="edge"><title>Node19&#45;&gt;Node3</title>
<path fill="none" stroke="midnightblue" d="M737.289,-175.058C685.469,-171.143 579.028,-160.137 493.557,-132 475.054,-125.909 472.507,-119.566 454.557,-112 436.42,-104.355 388.402,-88.6229 355.069,-77.9399"/>
<polygon fill="midnightblue" stroke="midnightblue" points="355.837,-74.5108 345.246,-74.8011 353.706,-81.1787 355.837,-74.5108"/>
</g>
<!-- Node19&#45;&gt;Node4 -->
<g id="edge32" class="edge"><title>Node19&#45;&gt;Node4</title>
<path fill="none" stroke="midnightblue" d="M762.44,-168.499C752.946,-155.585 733.75,-130.563 714.557,-112 703.022,-100.844 688.804,-89.7769 677.332,-81.4093"/>
<polygon fill="midnightblue" stroke="midnightblue" points="679.354,-78.5523 669.184,-75.5801 675.281,-84.2453 679.354,-78.5523"/>
</g>
<!-- Node19&#45;&gt;Node14 -->
<g id="edge34" class="edge"><title>Node19&#45;&gt;Node14</title>
<path fill="none" stroke="midnightblue" d="M770.639,-168.278C774.111,-155.075 782.067,-129.681 795.557,-112 820.146,-79.7695 829.866,-70.9301 867.557,-56 946.431,-24.7558 1201.02,-14.7908 1304.36,-11.9851"/>
<polygon fill="midnightblue" stroke="midnightblue" points="1304.55,-15.4813 1314.45,-11.7208 1304.37,-8.48372 1304.55,-15.4813"/>
</g>
<!-- Node20 -->
<g id="node20" class="node"><title>Node20</title>
<polygon fill="none" stroke="#bfbfbf" points="894.557,-112.5 894.557,-131.5 944.557,-131.5 944.557,-112.5 894.557,-112.5"/>
<text text-anchor="middle" x="919.557" y="-119.5" font-family="Helvetica,sans-Serif" font-size="10.00">iomanip</text>
</g>
<!-- Node19&#45;&gt;Node20 -->
<g id="edge33" class="edge"><title>Node19&#45;&gt;Node20</title>
<path fill="none" stroke="midnightblue" d="M792.483,-168.444C817.775,-159.399 857.859,-145.064 886.236,-134.916"/>
<polygon fill="midnightblue" stroke="midnightblue" points="887.505,-138.179 895.742,-131.516 885.148,-131.588 887.505,-138.179"/>
</g>
<!-- Node19&#45;&gt;Node21 -->
<g id="edge35" class="edge"><title>Node19&#45;&gt;Node21</title>
<path fill="none" stroke="midnightblue" d="M780.125,-168.324C790.977,-160.185 807.437,-147.839 820.44,-138.087"/>
<polygon fill="midnightblue" stroke="midnightblue" points="822.878,-140.634 828.778,-131.834 818.678,-135.034 822.878,-140.634"/>
</g>
<!-- Node21&#45;&gt;Node22 -->
<g id="edge36" class="edge"><title>Node21&#45;&gt;Node22</title>
<path fill="none" stroke="midnightblue" d="M851.161,-112.324C861.013,-104.263 875.908,-92.0765 887.772,-82.3695"/>
<polygon fill="midnightblue" stroke="midnightblue" points="890.236,-84.8752 895.76,-75.8339 885.804,-79.4575 890.236,-84.8752"/>
</g>
<!-- Node23 -->
<g id="node23" class="node"><title>Node23</title>
<g id="a_node23"><a xlink:href="blitz_8hh.html" target="_top" xlink:title="blitz.hh">
<polygon fill="none" stroke="black" points="700.557,-56.5 700.557,-75.5 748.557,-75.5 748.557,-56.5 700.557,-56.5"/>
<text text-anchor="middle" x="724.557" y="-63.5" font-family="Helvetica,sans-Serif" font-size="10.00">blitz.hh</text>
</a>
</g>
</g>
<!-- Node21&#45;&gt;Node23 -->
<g id="edge37" class="edge"><title>Node21&#45;&gt;Node23</title>
<path fill="none" stroke="midnightblue" d="M822.176,-112.444C803.34,-103.675 773.825,-89.9355 752.177,-79.8579"/>
<polygon fill="midnightblue" stroke="midnightblue" points="753.394,-76.5637 742.851,-75.5164 750.44,-82.9098 753.394,-76.5637"/>
</g>
<!-- Node23&#45;&gt;Node10 -->
<g id="edge40" class="edge"><title>Node23&#45;&gt;Node10</title>
<path fill="none" stroke="midnightblue" d="M700.52,-57.9069C697.52,-57.181 694.48,-56.5205 691.557,-56 508.497,-23.4059 284.884,-14.1623 202.768,-11.7686"/>
<polygon fill="midnightblue" stroke="midnightblue" points="202.673,-8.26475 192.58,-11.4862 202.479,-15.2621 202.673,-8.26475"/>
</g>
<!-- Node23&#45;&gt;Node14 -->
<g id="edge39" class="edge"><title>Node23&#45;&gt;Node14</title>
<path fill="none" stroke="midnightblue" d="M748.568,-58.7162C753.185,-57.6777 758.001,-56.7099 762.557,-56 963.185,-24.7335 1206,-14.8848 1304.18,-12.0491"/>
<polygon fill="midnightblue" stroke="midnightblue" points="1304.43,-15.5436 1314.32,-11.7664 1304.23,-8.54636 1304.43,-15.5436"/>
</g>
<!-- Node24 -->
<g id="node24" class="node"><title>Node24</title>
<polygon fill="none" stroke="#bfbfbf" points="696.557,-0.5 696.557,-19.5 752.557,-19.5 752.557,-0.5 696.557,-0.5"/>
<text text-anchor="middle" x="724.557" y="-7.5" font-family="Helvetica,sans-Serif" font-size="10.00">algorithm</text>
</g>
<!-- Node23&#45;&gt;Node24 -->
<g id="edge38" class="edge"><title>Node23&#45;&gt;Node24</title>
<path fill="none" stroke="midnightblue" d="M724.557,-56.083C724.557,-49.0059 724.557,-38.8611 724.557,-29.9865"/>
<polygon fill="midnightblue" stroke="midnightblue" points="728.057,-29.751 724.557,-19.7511 721.057,-29.7511 728.057,-29.751"/>
</g>
<!-- Node26 -->
<g id="node26" class="node"><title>Node26</title>
<polygon fill="none" stroke="#bfbfbf" points="1551.06,-168.5 1551.06,-187.5 1610.06,-187.5 1610.06,-168.5 1551.06,-168.5"/>
<text text-anchor="middle" x="1580.56" y="-175.5" font-family="Helvetica,sans-Serif" font-size="10.00">functional</text>
</g>
<!-- Node25&#45;&gt;Node26 -->
<g id="edge42" class="edge"><title>Node25&#45;&gt;Node26</title>
<path fill="none" stroke="midnightblue" d="M1580.56,-224.083C1580.56,-217.006 1580.56,-206.861 1580.56,-197.986"/>
<polygon fill="midnightblue" stroke="midnightblue" points="1584.06,-197.751 1580.56,-187.751 1577.06,-197.751 1584.06,-197.751"/>
</g>
<!-- Node25&#45;&gt;Node27 -->
<g id="edge43" class="edge"><title>Node25&#45;&gt;Node27</title>
<path fill="none" stroke="midnightblue" d="M1607.34,-224.444C1637.82,-214.702 1687.51,-198.826 1719.35,-188.651"/>
<polygon fill="midnightblue" stroke="midnightblue" points="1720.56,-191.941 1729.02,-185.563 1718.43,-185.273 1720.56,-191.941"/>
</g>
<!-- Node28 -->
<g id="node28" class="node"><title>Node28</title>
<polygon fill="none" stroke="#bfbfbf" points="1628.06,-168.5 1628.06,-187.5 1711.06,-187.5 1711.06,-168.5 1628.06,-168.5"/>
<text text-anchor="middle" x="1669.56" y="-175.5" font-family="Helvetica,sans-Serif" font-size="10.00">unordered_map</text>
</g>
<!-- Node25&#45;&gt;Node28 -->
<g id="edge44" class="edge"><title>Node25&#45;&gt;Node28</title>
<path fill="none" stroke="midnightblue" d="M1594.86,-224.324C1608.74,-215.9 1630.05,-202.971 1646.36,-193.074"/>
<polygon fill="midnightblue" stroke="midnightblue" points="1648.56,-195.834 1655.29,-187.655 1644.93,-189.85 1648.56,-195.834"/>
</g>
<!-- Node29&#45;&gt;Node12 -->
<g id="edge50" class="edge"><title>Node29&#45;&gt;Node12</title>
<path fill="none" stroke="midnightblue" d="M1427.99,-227.067C1359.87,-216.586 1219.13,-194.935 1152.32,-184.655"/>
<polygon fill="midnightblue" stroke="midnightblue" points="1152.67,-181.168 1142.25,-183.107 1151.6,-188.087 1152.67,-181.168"/>
</g>
<!-- Node30 -->
<g id="node30" class="node"><title>Node30</title>
<polygon fill="none" stroke="#bfbfbf" points="1454.56,-168.5 1454.56,-187.5 1494.56,-187.5 1494.56,-168.5 1454.56,-168.5"/>
<text text-anchor="middle" x="1474.56" y="-175.5" font-family="Helvetica,sans-Serif" font-size="10.00">utility</text>
</g>
<!-- Node29&#45;&gt;Node30 -->
<g id="edge47" class="edge"><title>Node29&#45;&gt;Node30</title>
<path fill="none" stroke="midnightblue" d="M1467.88,-224.083C1468.94,-216.927 1470.46,-206.635 1471.79,-197.691"/>
<polygon fill="midnightblue" stroke="midnightblue" points="1475.26,-198.156 1473.26,-187.751 1468.33,-197.13 1475.26,-198.156"/>
</g>
<!-- Node31 -->
<g id="node31" class="node"><title>Node31</title>
<g id="a_node31"><a xlink:href="equations_8hh.html" target="_top" xlink:title="equations.hh">
<polygon fill="none" stroke="black" points="1464.56,-56.5 1464.56,-75.5 1536.56,-75.5 1536.56,-56.5 1464.56,-56.5"/>
<text text-anchor="middle" x="1500.56" y="-63.5" font-family="Helvetica,sans-Serif" font-size="10.00">equations.hh</text>
</a>
</g>
</g>
<!-- Node29&#45;&gt;Node31 -->
<g id="edge48" class="edge"><title>Node29&#45;&gt;Node31</title>
<path fill="none" stroke="midnightblue" d="M1477,-224.245C1485.98,-215.969 1498.3,-202.663 1503.56,-188 1515.92,-153.504 1510.05,-109.859 1505.05,-85.5357"/>
<polygon fill="midnightblue" stroke="midnightblue" points="1508.41,-84.5413 1502.81,-75.5463 1501.58,-86.0692 1508.41,-84.5413"/>
</g>
<!-- Node31&#45;&gt;Node14 -->
<g id="edge49" class="edge"><title>Node31&#45;&gt;Node14</title>
<path fill="none" stroke="midnightblue" d="M1476.47,-56.4435C1451.01,-47.3986 1410.66,-33.064 1382.1,-22.9158"/>
<polygon fill="midnightblue" stroke="midnightblue" points="1383.12,-19.5661 1372.53,-19.5164 1380.78,-26.1622 1383.12,-19.5661"/>
</g>
<!-- Node32&#45;&gt;Node14 -->
<g id="edge52" class="edge"><title>Node32&#45;&gt;Node14</title>
<path fill="none" stroke="midnightblue" d="M1723.77,-224.56C1753.82,-214.007 1794.97,-194.107 1778.56,-168 1695.05,-35.201 1484.67,-13.8524 1392.72,-11.0376"/>
<polygon fill="midnightblue" stroke="midnightblue" points="1392.71,-7.53649 1382.63,-10.7894 1392.54,-14.5344 1392.71,-7.53649"/>
</g>
<!-- Node33&#45;&gt;Node4 -->
<g id="edge54" class="edge"><title>Node33&#45;&gt;Node4</title>
<path fill="none" stroke="midnightblue" d="M1367.67,-168.493C1351.73,-153.846 1316.57,-124.259 1280.56,-112 1159.33,-70.7319 836.692,-95.2087 692.859,-75.8001"/>
<polygon fill="midnightblue" stroke="midnightblue" points="693.22,-72.3156 682.817,-74.3253 692.203,-79.2413 693.22,-72.3156"/>
</g>
<!-- Node33&#45;&gt;Node20 -->
<g id="edge56" class="edge"><title>Node33&#45;&gt;Node20</title>
<path fill="none" stroke="midnightblue" d="M1354.84,-174.523C1296.22,-167.825 1129.85,-148.725 991.557,-132 979.684,-130.564 966.715,-128.955 955.096,-127.5"/>
<polygon fill="midnightblue" stroke="midnightblue" points="955.233,-123.989 944.875,-126.215 954.36,-130.935 955.233,-123.989"/>
</g>
<!-- Node34 -->
<g id="node34" class="node"><title>Node34</title>
<polygon fill="none" stroke="#bfbfbf" points="1366.06,-112.5 1366.06,-131.5 1395.06,-131.5 1395.06,-112.5 1366.06,-112.5"/>
<text text-anchor="middle" x="1380.56" y="-119.5" font-family="Helvetica,sans-Serif" font-size="10.00">ios</text>
</g>
<!-- Node33&#45;&gt;Node34 -->
<g id="edge55" class="edge"><title>Node33&#45;&gt;Node34</title>
<path fill="none" stroke="midnightblue" d="M1377.22,-168.083C1377.74,-161.006 1378.49,-150.861 1379.15,-141.986"/>
<polygon fill="midnightblue" stroke="midnightblue" points="1382.66,-141.982 1379.91,-131.751 1375.68,-141.465 1382.66,-141.982"/>
</g>
<!-- Node35 -->
<g id="node35" class="node"><title>Node35</title>
<polygon fill="none" stroke="#bfbfbf" points="1412.56,-112.5 1412.56,-131.5 1456.56,-131.5 1456.56,-112.5 1412.56,-112.5"/>
<text text-anchor="middle" x="1434.56" y="-119.5" font-family="Helvetica,sans-Serif" font-size="10.00">mutex</text>
</g>
<!-- Node33&#45;&gt;Node35 -->
<g id="edge57" class="edge"><title>Node33&#45;&gt;Node35</title>
<path fill="none" stroke="midnightblue" d="M1385.88,-168.324C1394.45,-160.341 1407.37,-148.313 1417.74,-138.653"/>
<polygon fill="midnightblue" stroke="midnightblue" points="1420.13,-141.21 1425.07,-131.834 1415.36,-136.086 1420.13,-141.21"/>
</g>
</g>
</svg>
