<?xml version="1.0" encoding="UTF-8" standalone="no"?>
<!DOCTYPE svg PUBLIC "-//W3C//DTD SVG 1.1//EN"
 "http://www.w3.org/Graphics/SVG/1.1/DTD/svg11.dtd">
<!-- Generated by graphviz version 2.36.0 (20140111.2315)
 -->
<!-- Title: /home/travis/build/igankevich/arma/src/nonlinear/nit_transform.cc Pages: 1 -->
<svg width="1719pt" height="330pt"
 viewBox="0.00 0.00 1718.62 330.00" xmlns="http://www.w3.org/2000/svg" xmlns:xlink="http://www.w3.org/1999/xlink">
<g id="graph0" class="graph" transform="scale(1 1) rotate(0) translate(4 326)">
<title>/home/travis/build/igankevich/arma/src/nonlinear/nit_transform.cc</title>
<!-- Node1 -->
<g id="node1" class="node"><title>Node1</title>
<polygon fill="#bfbfbf" stroke="black" points="1301.62,-280.5 1301.62,-321.5 1433.62,-321.5 1433.62,-280.5 1301.62,-280.5"/>
<text text-anchor="start" x="1309.62" y="-309.5" font-family="Helvetica,sans-Serif" font-size="10.00">/home/travis/build</text>
<text text-anchor="start" x="1309.62" y="-298.5" font-family="Helvetica,sans-Serif" font-size="10.00">/igankevich/arma/src</text>
<text text-anchor="middle" x="1367.62" y="-287.5" font-family="Helvetica,sans-Serif" font-size="10.00">/nonlinear/nit_transform.cc</text>
</g>
<!-- Node2 -->
<g id="node2" class="node"><title>Node2</title>
<g id="a_node2"><a xlink:href="nit__transform_8hh.html" target="_top" xlink:title="nit_transform.hh">
<polygon fill="none" stroke="black" points="507.119,-224.5 507.119,-243.5 594.119,-243.5 594.119,-224.5 507.119,-224.5"/>
<text text-anchor="middle" x="550.619" y="-231.5" font-family="Helvetica,sans-Serif" font-size="10.00">nit_transform.hh</text>
</a>
</g>
</g>
<!-- Node1&#45;&gt;Node2 -->
<g id="edge1" class="edge"><title>Node1&#45;&gt;Node2</title>
<path fill="none" stroke="midnightblue" d="M1301.45,-294.736C1143.94,-282.205 749.146,-250.795 604.672,-239.3"/>
<polygon fill="midnightblue" stroke="midnightblue" points="604.55,-235.78 594.304,-238.476 603.995,-242.758 604.55,-235.78"/>
</g>
<!-- Node10 -->
<g id="node10" class="node"><title>Node10</title>
<polygon fill="none" stroke="#bfbfbf" points="387.619,-0.5 387.619,-19.5 431.619,-19.5 431.619,-0.5 387.619,-0.5"/>
<text text-anchor="middle" x="409.619" y="-7.5" font-family="Helvetica,sans-Serif" font-size="10.00">cmath</text>
</g>
<!-- Node1&#45;&gt;Node10 -->
<g id="edge62" class="edge"><title>Node1&#45;&gt;Node10</title>
<path fill="none" stroke="midnightblue" d="M1301.22,-297.645C1027.46,-287.508 0.618621,-245.078 0.618621,-179 0.618621,-179 0.618621,-179 0.618621,-121 0.618621,-90.6408 -1.85586,-75.2517 21.6186,-56 75.6815,-11.6624 294.402,-9.55553 377.433,-10.4131"/>
<polygon fill="midnightblue" stroke="midnightblue" points="377.501,-13.9141 387.545,-10.5396 377.589,-6.91466 377.501,-13.9141"/>
</g>
<!-- Node21 -->
<g id="node21" class="node"><title>Node21</title>
<g id="a_node21"><a xlink:href="validators_8hh.html" target="_top" xlink:title="validators.hh">
<polygon fill="none" stroke="black" points="842.619,-112.5 842.619,-131.5 914.619,-131.5 914.619,-112.5 842.619,-112.5"/>
<text text-anchor="middle" x="878.619" y="-119.5" font-family="Helvetica,sans-Serif" font-size="10.00">validators.hh</text>
</a>
</g>
</g>
<!-- Node1&#45;&gt;Node21 -->
<g id="edge46" class="edge"><title>Node1&#45;&gt;Node21</title>
<path fill="none" stroke="midnightblue" d="M1313.42,-280.382C1211.62,-243.536 994.66,-165.003 911.761,-134.996"/>
<polygon fill="midnightblue" stroke="midnightblue" points="912.927,-131.696 902.333,-131.584 910.545,-138.278 912.927,-131.696"/>
</g>
<!-- Node22 -->
<g id="node22" class="node"><title>Node22</title>
<polygon fill="none" stroke="#bfbfbf" points="1376.12,-56.5 1376.12,-75.5 1435.12,-75.5 1435.12,-56.5 1376.12,-56.5"/>
<text text-anchor="middle" x="1405.62" y="-63.5" font-family="Helvetica,sans-Serif" font-size="10.00">stdexcept</text>
</g>
<!-- Node1&#45;&gt;Node22 -->
<g id="edge60" class="edge"><title>Node1&#45;&gt;Node22</title>
<path fill="none" stroke="midnightblue" d="M1345.25,-280.29C1319.25,-254.847 1282,-208.968 1299.62,-168 1308.81,-146.629 1320.77,-148.038 1337.62,-132 1355.22,-115.248 1375.34,-96.0103 1389.09,-82.836"/>
<polygon fill="midnightblue" stroke="midnightblue" points="1391.59,-85.2893 1396.39,-75.8445 1386.75,-80.2342 1391.59,-85.2893"/>
</g>
<!-- Node25 -->
<g id="node25" class="node"><title>Node25</title>
<g id="a_node25"><a xlink:href="params_8hh.html" target="_top" xlink:title="params.hh">
<polygon fill="none" stroke="black" points="1368.62,-224.5 1368.62,-243.5 1430.62,-243.5 1430.62,-224.5 1368.62,-224.5"/>
<text text-anchor="middle" x="1399.62" y="-231.5" font-family="Helvetica,sans-Serif" font-size="10.00">params.hh</text>
</a>
</g>
</g>
<!-- Node1&#45;&gt;Node25 -->
<g id="edge42" class="edge"><title>Node1&#45;&gt;Node25</title>
<path fill="none" stroke="midnightblue" d="M1377.22,-280.498C1381.56,-271.682 1386.65,-261.339 1390.88,-252.743"/>
<polygon fill="midnightblue" stroke="midnightblue" points="1394.08,-254.17 1395.36,-243.652 1387.8,-251.078 1394.08,-254.17"/>
</g>
<!-- Node27 -->
<g id="node27" class="node"><title>Node27</title>
<polygon fill="none" stroke="#bfbfbf" points="1548.12,-168.5 1548.12,-187.5 1589.12,-187.5 1589.12,-168.5 1548.12,-168.5"/>
<text text-anchor="middle" x="1568.62" y="-175.5" font-family="Helvetica,sans-Serif" font-size="10.00">string</text>
</g>
<!-- Node1&#45;&gt;Node27 -->
<g id="edge59" class="edge"><title>Node1&#45;&gt;Node27</title>
<path fill="none" stroke="midnightblue" d="M1393.58,-280.461C1415.44,-264.409 1447.81,-241.542 1477.62,-224 1497.96,-212.028 1521.93,-200.266 1540.15,-191.771"/>
<polygon fill="midnightblue" stroke="midnightblue" points="1541.75,-194.888 1549.37,-187.525 1538.83,-188.53 1541.75,-194.888"/>
</g>
<!-- Node29 -->
<g id="node29" class="node"><title>Node29</title>
<g id="a_node29"><a xlink:href="transforms_8hh.html" target="_top" xlink:title="transforms.hh">
<polygon fill="none" stroke="black" points="1487.12,-224.5 1487.12,-243.5 1564.12,-243.5 1564.12,-224.5 1487.12,-224.5"/>
<text text-anchor="middle" x="1525.62" y="-231.5" font-family="Helvetica,sans-Serif" font-size="10.00">transforms.hh</text>
</a>
</g>
</g>
<!-- Node1&#45;&gt;Node29 -->
<g id="edge47" class="edge"><title>Node1&#45;&gt;Node29</title>
<path fill="none" stroke="midnightblue" d="M1415.02,-280.498C1441,-269.813 1472.42,-256.885 1495.13,-247.545"/>
<polygon fill="midnightblue" stroke="midnightblue" points="1496.67,-250.694 1504.59,-243.652 1494.01,-244.22 1496.67,-250.694"/>
</g>
<!-- Node32 -->
<g id="node32" class="node"><title>Node32</title>
<g id="a_node32"><a xlink:href="series_8hh.html" target="_top" xlink:title="series.hh">
<polygon fill="none" stroke="black" points="1582.62,-224.5 1582.62,-243.5 1638.62,-243.5 1638.62,-224.5 1582.62,-224.5"/>
<text text-anchor="middle" x="1610.62" y="-231.5" font-family="Helvetica,sans-Serif" font-size="10.00">series.hh</text>
</a>
</g>
</g>
<!-- Node1&#45;&gt;Node32 -->
<g id="edge52" class="edge"><title>Node1&#45;&gt;Node32</title>
<path fill="none" stroke="midnightblue" d="M1433.7,-282.324C1478.28,-270.4 1535.52,-255.088 1572.63,-245.162"/>
<polygon fill="midnightblue" stroke="midnightblue" points="1573.78,-248.478 1582.53,-242.512 1571.97,-241.715 1573.78,-248.478"/>
</g>
<!-- Node33 -->
<g id="node33" class="node"><title>Node33</title>
<g id="a_node33"><a xlink:href="util_8hh.html" target="_top" xlink:title="util.hh">
<polygon fill="none" stroke="black" points="1309.12,-168.5 1309.12,-187.5 1352.12,-187.5 1352.12,-168.5 1309.12,-168.5"/>
<text text-anchor="middle" x="1330.62" y="-175.5" font-family="Helvetica,sans-Serif" font-size="10.00">util.hh</text>
</a>
</g>
</g>
<!-- Node1&#45;&gt;Node33 -->
<g id="edge54" class="edge"><title>Node1&#45;&gt;Node33</title>
<path fill="none" stroke="midnightblue" d="M1361.59,-280.29C1354.55,-257.27 1343,-219.503 1336.17,-197.168"/>
<polygon fill="midnightblue" stroke="midnightblue" points="1339.51,-196.114 1333.24,-187.575 1332.82,-198.161 1339.51,-196.114"/>
</g>
<!-- Node36 -->
<g id="node36" class="node"><title>Node36</title>
<polygon fill="none" stroke="#bfbfbf" points="1656.62,-224.5 1656.62,-243.5 1710.62,-243.5 1710.62,-224.5 1656.62,-224.5"/>
<text text-anchor="middle" x="1683.62" y="-231.5" font-family="Helvetica,sans-Serif" font-size="10.00">iostream</text>
</g>
<!-- Node1&#45;&gt;Node36 -->
<g id="edge61" class="edge"><title>Node1&#45;&gt;Node36</title>
<path fill="none" stroke="midnightblue" d="M1433.73,-287.513C1490.36,-276.629 1574.03,-260.106 1646.62,-244 1646.72,-243.978 1646.82,-243.955 1646.92,-243.933"/>
<polygon fill="midnightblue" stroke="midnightblue" points="1647.61,-247.366 1656.57,-241.713 1646.04,-240.544 1647.61,-247.366"/>
</g>
<!-- Node3 -->
<g id="node3" class="node"><title>Node3</title>
<polygon fill="none" stroke="#bfbfbf" points="296.119,-56.5 296.119,-75.5 345.119,-75.5 345.119,-56.5 296.119,-56.5"/>
<text text-anchor="middle" x="320.619" y="-63.5" font-family="Helvetica,sans-Serif" font-size="10.00">istream</text>
</g>
<!-- Node2&#45;&gt;Node3 -->
<g id="edge2" class="edge"><title>Node2&#45;&gt;Node3</title>
<path fill="none" stroke="midnightblue" d="M506.996,-229.553C455.19,-224.505 366.717,-212.855 294.619,-188 244.618,-170.763 216.83,-177.352 189.619,-132 185.045,-124.378 184.454,-119.235 189.619,-112 195.445,-103.838 249.303,-87.2051 286.121,-76.6071"/>
<polygon fill="midnightblue" stroke="midnightblue" points="287.343,-79.8982 296,-73.7899 285.424,-73.1666 287.343,-79.8982"/>
</g>
<!-- Node4 -->
<g id="node4" class="node"><title>Node4</title>
<polygon fill="none" stroke="#bfbfbf" points="524.619,-56.5 524.619,-75.5 576.619,-75.5 576.619,-56.5 524.619,-56.5"/>
<text text-anchor="middle" x="550.619" y="-63.5" font-family="Helvetica,sans-Serif" font-size="10.00">ostream</text>
</g>
<!-- Node2&#45;&gt;Node4 -->
<g id="edge3" class="edge"><title>Node2&#45;&gt;Node4</title>
<path fill="none" stroke="midnightblue" d="M550.619,-224.075C550.619,-197.945 550.619,-121.211 550.619,-85.577"/>
<polygon fill="midnightblue" stroke="midnightblue" points="554.119,-85.5681 550.619,-75.5681 547.119,-85.5681 554.119,-85.5681"/>
</g>
<!-- Node5 -->
<g id="node5" class="node"><title>Node5</title>
<g id="a_node5"><a xlink:href="gaussian_8hh.html" target="_top" xlink:title="stats/gaussian.hh">
<polygon fill="none" stroke="black" points="198.619,-112.5 198.619,-131.5 292.619,-131.5 292.619,-112.5 198.619,-112.5"/>
<text text-anchor="middle" x="245.619" y="-119.5" font-family="Helvetica,sans-Serif" font-size="10.00">stats/gaussian.hh</text>
</a>
</g>
</g>
<!-- Node2&#45;&gt;Node5 -->
<g id="edge4" class="edge"><title>Node2&#45;&gt;Node5</title>
<path fill="none" stroke="midnightblue" d="M506.893,-229.739C461.389,-225.058 388.907,-213.923 331.619,-188 304.611,-175.779 278.102,-153.798 261.814,-138.813"/>
<polygon fill="midnightblue" stroke="midnightblue" points="263.954,-136.02 254.279,-131.703 259.15,-141.112 263.954,-136.02"/>
</g>
<!-- Node7 -->
<g id="node7" class="node"><title>Node7</title>
<g id="a_node7"><a xlink:href="skew__normal_8hh.html" target="_top" xlink:title="stats/skew_normal.hh">
<polygon fill="none" stroke="black" points="341.119,-168.5 341.119,-187.5 454.119,-187.5 454.119,-168.5 341.119,-168.5"/>
<text text-anchor="middle" x="397.619" y="-175.5" font-family="Helvetica,sans-Serif" font-size="10.00">stats/skew_normal.hh</text>
</a>
</g>
</g>
<!-- Node2&#45;&gt;Node7 -->
<g id="edge8" class="edge"><title>Node2&#45;&gt;Node7</title>
<path fill="none" stroke="midnightblue" d="M526.375,-224.444C500.748,-215.399 460.133,-201.064 431.38,-190.916"/>
<polygon fill="midnightblue" stroke="midnightblue" points="432.343,-187.544 421.749,-187.516 430.014,-194.145 432.343,-187.544"/>
</g>
<!-- Node9 -->
<g id="node9" class="node"><title>Node9</title>
<g id="a_node9"><a xlink:href="gram__charlier_8hh.html" target="_top" xlink:title="stats/gram_charlier.hh">
<polygon fill="none" stroke="black" points="29.1186,-112.5 29.1186,-131.5 142.119,-131.5 142.119,-112.5 29.1186,-112.5"/>
<text text-anchor="middle" x="85.6186" y="-119.5" font-family="Helvetica,sans-Serif" font-size="10.00">stats/gram_charlier.hh</text>
</a>
</g>
</g>
<!-- Node2&#45;&gt;Node9 -->
<g id="edge13" class="edge"><title>Node2&#45;&gt;Node9</title>
<path fill="none" stroke="midnightblue" d="M506.976,-231.397C417.874,-227.579 218.252,-216.081 156.619,-188 132.719,-177.111 111.405,-155.095 98.51,-139.718"/>
<polygon fill="midnightblue" stroke="midnightblue" points="100.937,-137.151 91.9341,-131.565 95.488,-141.546 100.937,-137.151"/>
</g>
<!-- Node12 -->
<g id="node12" class="node"><title>Node12</title>
<g id="a_node12"><a xlink:href="linalg_8hh.html" target="_top" xlink:title="linalg.hh">
<polygon fill="none" stroke="black" points="1103.12,-168.5 1103.12,-187.5 1156.12,-187.5 1156.12,-168.5 1103.12,-168.5"/>
<text text-anchor="middle" x="1129.62" y="-175.5" font-family="Helvetica,sans-Serif" font-size="10.00">linalg.hh</text>
</a>
</g>
</g>
<!-- Node2&#45;&gt;Node12 -->
<g id="edge19" class="edge"><title>Node2&#45;&gt;Node12</title>
<path fill="none" stroke="midnightblue" d="M594.138,-228.941C703.868,-218.707 990.36,-191.988 1092.65,-182.448"/>
<polygon fill="midnightblue" stroke="midnightblue" points="1093.17,-185.914 1102.81,-181.501 1092.52,-178.945 1093.17,-185.914"/>
</g>
<!-- Node18 -->
<g id="node18" class="node"><title>Node18</title>
<g id="a_node18"><a xlink:href="types_8hh.html" target="_top" xlink:title="types.hh">
<polygon fill="none" stroke="black" points="1085.62,-56.5 1085.62,-75.5 1139.62,-75.5 1139.62,-56.5 1085.62,-56.5"/>
<text text-anchor="middle" x="1112.62" y="-63.5" font-family="Helvetica,sans-Serif" font-size="10.00">types.hh</text>
</a>
</g>
</g>
<!-- Node2&#45;&gt;Node18 -->
<g id="edge28" class="edge"><title>Node2&#45;&gt;Node18</title>
<path fill="none" stroke="midnightblue" d="M594.306,-229.753C647.677,-224.845 740.175,-213.276 815.619,-188 866.887,-170.823 875.695,-157.036 923.619,-132 940.535,-123.163 943.945,-119.204 961.619,-112 999.398,-96.6007 1044.41,-83.871 1075.4,-75.927"/>
<polygon fill="midnightblue" stroke="midnightblue" points="1076.5,-79.2587 1085.34,-73.4195 1074.79,-72.4712 1076.5,-79.2587"/>
</g>
<!-- Node19 -->
<g id="node19" class="node"><title>Node19</title>
<g id="a_node19"><a xlink:href="domain_8hh.html" target="_top" xlink:title="domain.hh">
<polygon fill="none" stroke="black" points="745.619,-168.5 745.619,-187.5 807.619,-187.5 807.619,-168.5 745.619,-168.5"/>
<text text-anchor="middle" x="776.619" y="-175.5" font-family="Helvetica,sans-Serif" font-size="10.00">domain.hh</text>
</a>
</g>
</g>
<!-- Node2&#45;&gt;Node19 -->
<g id="edge30" class="edge"><title>Node2&#45;&gt;Node19</title>
<path fill="none" stroke="midnightblue" d="M586.429,-224.444C626.989,-214.752 692.964,-198.988 735.571,-188.808"/>
<polygon fill="midnightblue" stroke="midnightblue" points="736.43,-192.201 745.343,-186.473 734.803,-185.393 736.43,-192.201"/>
</g>
<!-- Node5&#45;&gt;Node3 -->
<g id="edge5" class="edge"><title>Node5&#45;&gt;Node3</title>
<path fill="none" stroke="midnightblue" d="M257.669,-112.324C269.082,-104.107 286.45,-91.6017 300.054,-81.8069"/>
<polygon fill="midnightblue" stroke="midnightblue" points="302.279,-84.5174 308.349,-75.8339 298.189,-78.8366 302.279,-84.5174"/>
</g>
<!-- Node5&#45;&gt;Node4 -->
<g id="edge6" class="edge"><title>Node5&#45;&gt;Node4</title>
<path fill="none" stroke="midnightblue" d="M292.94,-112.622C354.088,-101.796 459.222,-83.1817 514.399,-73.4127"/>
<polygon fill="midnightblue" stroke="midnightblue" points="515.183,-76.8284 524.419,-71.6386 513.962,-69.9356 515.183,-76.8284"/>
</g>
<!-- Node6 -->
<g id="node6" class="node"><title>Node6</title>
<polygon fill="none" stroke="#bfbfbf" points="205.619,-56.5 205.619,-75.5 277.619,-75.5 277.619,-56.5 205.619,-56.5"/>
<text text-anchor="middle" x="241.619" y="-63.5" font-family="Helvetica,sans-Serif" font-size="10.00">gsl/gsl_cdf.h</text>
</g>
<!-- Node5&#45;&gt;Node6 -->
<g id="edge7" class="edge"><title>Node5&#45;&gt;Node6</title>
<path fill="none" stroke="midnightblue" d="M244.958,-112.083C244.434,-105.006 243.682,-94.8611 243.025,-85.9865"/>
<polygon fill="midnightblue" stroke="midnightblue" points="246.496,-85.4652 242.267,-75.7511 239.515,-85.9823 246.496,-85.4652"/>
</g>
<!-- Node7&#45;&gt;Node3 -->
<g id="edge9" class="edge"><title>Node7&#45;&gt;Node3</title>
<path fill="none" stroke="midnightblue" d="M381.555,-168.372C368.44,-160.537 350.376,-147.803 339.619,-132 330.212,-118.181 325.393,-99.6607 322.968,-85.9246"/>
<polygon fill="midnightblue" stroke="midnightblue" points="326.383,-85.0938 321.445,-75.7197 319.459,-86.1268 326.383,-85.0938"/>
</g>
<!-- Node7&#45;&gt;Node4 -->
<g id="edge10" class="edge"><title>Node7&#45;&gt;Node4</title>
<path fill="none" stroke="midnightblue" d="M409.624,-168.368C435.767,-149.573 498.086,-104.768 530.404,-81.5334"/>
<polygon fill="midnightblue" stroke="midnightblue" points="532.592,-84.2707 538.669,-75.5914 528.506,-78.5871 532.592,-84.2707"/>
</g>
<!-- Node7&#45;&gt;Node5 -->
<g id="edge11" class="edge"><title>Node7&#45;&gt;Node5</title>
<path fill="none" stroke="midnightblue" d="M373.534,-168.444C348.074,-159.399 307.725,-145.064 279.16,-134.916"/>
<polygon fill="midnightblue" stroke="midnightblue" points="280.186,-131.566 269.591,-131.516 277.842,-138.162 280.186,-131.566"/>
</g>
<!-- Node8 -->
<g id="node8" class="node"><title>Node8</title>
<g id="a_node8"><a xlink:href="owen__t_8hh.html" target="_top" xlink:title="apmath/owen_t.hh">
<polygon fill="none" stroke="black" points="349.119,-112.5 349.119,-131.5 446.119,-131.5 446.119,-112.5 349.119,-112.5"/>
<text text-anchor="middle" x="397.619" y="-119.5" font-family="Helvetica,sans-Serif" font-size="10.00">apmath/owen_t.hh</text>
</a>
</g>
</g>
<!-- Node7&#45;&gt;Node8 -->
<g id="edge12" class="edge"><title>Node7&#45;&gt;Node8</title>
<path fill="none" stroke="midnightblue" d="M397.619,-168.083C397.619,-161.006 397.619,-150.861 397.619,-141.986"/>
<polygon fill="midnightblue" stroke="midnightblue" points="401.119,-141.751 397.619,-131.751 394.119,-141.751 401.119,-141.751"/>
</g>
<!-- Node9&#45;&gt;Node3 -->
<g id="edge14" class="edge"><title>Node9&#45;&gt;Node3</title>
<path fill="none" stroke="midnightblue" d="M125.768,-112.488C164.352,-104.201 224.535,-90.9996 285.907,-76.1022"/>
<polygon fill="midnightblue" stroke="midnightblue" points="286.879,-79.4679 295.764,-73.6972 285.22,-72.6674 286.879,-79.4679"/>
</g>
<!-- Node9&#45;&gt;Node4 -->
<g id="edge15" class="edge"><title>Node9&#45;&gt;Node4</title>
<path fill="none" stroke="midnightblue" d="M142.172,-114.433C238.996,-103.188 433.863,-80.5588 514.457,-71.1994"/>
<polygon fill="midnightblue" stroke="midnightblue" points="515.073,-74.6515 524.602,-70.0213 514.265,-67.6983 515.073,-74.6515"/>
</g>
<!-- Node9&#45;&gt;Node10 -->
<g id="edge16" class="edge"><title>Node9&#45;&gt;Node10</title>
<path fill="none" stroke="midnightblue" d="M97.2878,-112.438C116.836,-98.5058 157.877,-70.981 196.619,-56 258.202,-32.1865 334.924,-19.9185 377.446,-14.5279"/>
<polygon fill="midnightblue" stroke="midnightblue" points="377.988,-17.9879 387.49,-13.3028 377.14,-11.0394 377.988,-17.9879"/>
</g>
<!-- Node11 -->
<g id="node11" class="node"><title>Node11</title>
<g id="a_node11"><a xlink:href="physical__constants_8hh.html" target="_top" xlink:title="physical_constants.hh">
<polygon fill="none" stroke="black" points="30.6186,-56.5 30.6186,-75.5 144.619,-75.5 144.619,-56.5 30.6186,-56.5"/>
<text text-anchor="middle" x="87.6186" y="-63.5" font-family="Helvetica,sans-Serif" font-size="10.00">physical_constants.hh</text>
</a>
</g>
</g>
<!-- Node9&#45;&gt;Node11 -->
<g id="edge17" class="edge"><title>Node9&#45;&gt;Node11</title>
<path fill="none" stroke="midnightblue" d="M85.9489,-112.083C86.211,-105.006 86.5867,-94.8611 86.9154,-85.9865"/>
<polygon fill="midnightblue" stroke="midnightblue" points="90.4219,-85.8738 87.2945,-75.7511 83.4267,-85.6147 90.4219,-85.8738"/>
</g>
<!-- Node11&#45;&gt;Node10 -->
<g id="edge18" class="edge"><title>Node11&#45;&gt;Node10</title>
<path fill="none" stroke="midnightblue" d="M138.64,-56.4435C205.613,-45.2122 321.219,-25.8248 377.274,-16.4242"/>
<polygon fill="midnightblue" stroke="midnightblue" points="378.058,-19.8417 387.341,-14.7359 376.9,-12.9382 378.058,-19.8417"/>
</g>
<!-- Node13 -->
<g id="node13" class="node"><title>Node13</title>
<polygon fill="none" stroke="#bfbfbf" points="1193.12,-112.5 1193.12,-131.5 1242.12,-131.5 1242.12,-112.5 1193.12,-112.5"/>
<text text-anchor="middle" x="1217.62" y="-119.5" font-family="Helvetica,sans-Serif" font-size="10.00">cassert</text>
</g>
<!-- Node12&#45;&gt;Node13 -->
<g id="edge20" class="edge"><title>Node12&#45;&gt;Node13</title>
<path fill="none" stroke="midnightblue" d="M1143.76,-168.324C1157.48,-159.9 1178.55,-146.971 1194.68,-137.074"/>
<polygon fill="midnightblue" stroke="midnightblue" points="1196.82,-139.868 1203.51,-131.655 1193.16,-133.902 1196.82,-139.868"/>
</g>
<!-- Node14 -->
<g id="node14" class="node"><title>Node14</title>
<polygon fill="none" stroke="#bfbfbf" points="1191.62,-0.5 1191.62,-19.5 1259.62,-19.5 1259.62,-0.5 1191.62,-0.5"/>
<text text-anchor="middle" x="1225.62" y="-7.5" font-family="Helvetica,sans-Serif" font-size="10.00">blitz/array.h</text>
</g>
<!-- Node12&#45;&gt;Node14 -->
<g id="edge21" class="edge"><title>Node12&#45;&gt;Node14</title>
<path fill="none" stroke="midnightblue" d="M1156.26,-174.681C1203.66,-169.944 1299.54,-157.393 1319.62,-132 1350.19,-93.3378 1287.26,-47.2512 1250.16,-24.7435"/>
<polygon fill="midnightblue" stroke="midnightblue" points="1251.75,-21.6173 1241.36,-19.5481 1248.2,-27.6455 1251.75,-21.6173"/>
</g>
<!-- Node15 -->
<g id="node15" class="node"><title>Node15</title>
<polygon fill="none" stroke="#bfbfbf" points="971.119,-112.5 971.119,-131.5 1066.12,-131.5 1066.12,-112.5 971.119,-112.5"/>
<text text-anchor="middle" x="1018.62" y="-119.5" font-family="Helvetica,sans-Serif" font-size="10.00">lapacke/lapacke.h</text>
</g>
<!-- Node12&#45;&gt;Node15 -->
<g id="edge22" class="edge"><title>Node12&#45;&gt;Node15</title>
<path fill="none" stroke="midnightblue" d="M1111.78,-168.324C1093.9,-159.625 1066.14,-146.12 1045.57,-136.113"/>
<polygon fill="midnightblue" stroke="midnightblue" points="1046.93,-132.882 1036.41,-131.655 1043.87,-139.177 1046.93,-132.882"/>
</g>
<!-- Node16 -->
<g id="node16" class="node"><title>Node16</title>
<polygon fill="none" stroke="#bfbfbf" points="1084.62,-112.5 1084.62,-131.5 1174.62,-131.5 1174.62,-112.5 1084.62,-112.5"/>
<text text-anchor="middle" x="1129.62" y="-119.5" font-family="Helvetica,sans-Serif" font-size="10.00">openblas/cblas.h</text>
</g>
<!-- Node12&#45;&gt;Node16 -->
<g id="edge23" class="edge"><title>Node12&#45;&gt;Node16</title>
<path fill="none" stroke="midnightblue" d="M1129.62,-168.083C1129.62,-161.006 1129.62,-150.861 1129.62,-141.986"/>
<polygon fill="midnightblue" stroke="midnightblue" points="1133.12,-141.751 1129.62,-131.751 1126.12,-141.751 1133.12,-141.751"/>
</g>
<!-- Node17 -->
<g id="node17" class="node"><title>Node17</title>
<g id="a_node17"><a xlink:href="closed__interval_8hh.html" target="_top" xlink:title="apmath/closed_interval.hh">
<polygon fill="none" stroke="black" points="617.119,-112.5 617.119,-131.5 748.119,-131.5 748.119,-112.5 617.119,-112.5"/>
<text text-anchor="middle" x="682.619" y="-119.5" font-family="Helvetica,sans-Serif" font-size="10.00">apmath/closed_interval.hh</text>
</a>
</g>
</g>
<!-- Node12&#45;&gt;Node17 -->
<g id="edge24" class="edge"><title>Node12&#45;&gt;Node17</title>
<path fill="none" stroke="midnightblue" d="M1103,-173.784C1036.4,-165.739 860.645,-144.507 758.714,-132.193"/>
<polygon fill="midnightblue" stroke="midnightblue" points="758.829,-128.681 748.481,-130.957 757.989,-135.631 758.829,-128.681"/>
</g>
<!-- Node17&#45;&gt;Node3 -->
<g id="edge25" class="edge"><title>Node17&#45;&gt;Node3</title>
<path fill="none" stroke="midnightblue" d="M625.259,-112.444C549.309,-101.114 417.724,-81.4853 355.344,-72.18"/>
<polygon fill="midnightblue" stroke="midnightblue" points="355.644,-68.6861 345.237,-70.6723 354.611,-75.6095 355.644,-68.6861"/>
</g>
<!-- Node17&#45;&gt;Node4 -->
<g id="edge26" class="edge"><title>Node17&#45;&gt;Node4</title>
<path fill="none" stroke="midnightblue" d="M661.703,-112.444C639.883,-103.517 605.469,-89.4387 580.726,-79.3168"/>
<polygon fill="midnightblue" stroke="midnightblue" points="582.017,-76.0634 571.437,-75.5164 579.367,-82.5422 582.017,-76.0634"/>
</g>
<!-- Node17&#45;&gt;Node10 -->
<g id="edge27" class="edge"><title>Node17&#45;&gt;Node10</title>
<path fill="none" stroke="midnightblue" d="M672.274,-112.306C655.266,-98.434 619.856,-71.304 585.619,-56 537.792,-34.6222 477.934,-22.0412 441.792,-15.8415"/>
<polygon fill="midnightblue" stroke="midnightblue" points="442.255,-12.3705 431.817,-14.1898 441.111,-19.2764 442.255,-12.3705"/>
</g>
<!-- Node18&#45;&gt;Node14 -->
<g id="edge29" class="edge"><title>Node18&#45;&gt;Node14</title>
<path fill="none" stroke="midnightblue" d="M1130.52,-56.4435C1148.87,-47.6751 1177.62,-33.9355 1198.71,-23.8579"/>
<polygon fill="midnightblue" stroke="midnightblue" points="1200.28,-26.9862 1207.8,-19.5164 1197.27,-20.6703 1200.28,-26.9862"/>
</g>
<!-- Node19&#45;&gt;Node3 -->
<g id="edge33" class="edge"><title>Node19&#45;&gt;Node3</title>
<path fill="none" stroke="midnightblue" d="M745.345,-170.015C706.623,-161.322 638.675,-145.92 580.619,-132 499.727,-112.604 405.012,-88.5975 355.234,-75.8797"/>
<polygon fill="midnightblue" stroke="midnightblue" points="355.871,-72.43 345.316,-73.343 354.136,-79.2117 355.871,-72.43"/>
</g>
<!-- Node19&#45;&gt;Node4 -->
<g id="edge34" class="edge"><title>Node19&#45;&gt;Node4</title>
<path fill="none" stroke="midnightblue" d="M745.483,-174.201C709.843,-169.81 650.827,-158.823 607.619,-132 588.162,-119.922 571.65,-99.1514 561.484,-84.3404"/>
<polygon fill="midnightblue" stroke="midnightblue" points="564.17,-82.0542 555.753,-75.6194 558.32,-85.8986 564.17,-82.0542"/>
</g>
<!-- Node19&#45;&gt;Node10 -->
<g id="edge31" class="edge"><title>Node19&#45;&gt;Node10</title>
<path fill="none" stroke="midnightblue" d="M776.246,-168.268C775.208,-154.588 771.298,-128.015 756.619,-112 672.714,-20.4591 511.149,-10.0926 442.148,-10.1012"/>
<polygon fill="midnightblue" stroke="midnightblue" points="441.868,-6.60316 431.895,-10.1808 441.922,-13.6029 441.868,-6.60316"/>
</g>
<!-- Node19&#45;&gt;Node14 -->
<g id="edge35" class="edge"><title>Node19&#45;&gt;Node14</title>
<path fill="none" stroke="midnightblue" d="M781.74,-168.359C790.525,-154.313 809.841,-126.628 833.619,-112 946.241,-42.7141 1105.06,-20.7161 1181.34,-13.9225"/>
<polygon fill="midnightblue" stroke="midnightblue" points="1181.87,-17.3902 1191.54,-13.0615 1181.28,-10.415 1181.87,-17.3902"/>
</g>
<!-- Node20 -->
<g id="node20" class="node"><title>Node20</title>
<polygon fill="none" stroke="#bfbfbf" points="1260.62,-112.5 1260.62,-131.5 1310.62,-131.5 1310.62,-112.5 1260.62,-112.5"/>
<text text-anchor="middle" x="1285.62" y="-119.5" font-family="Helvetica,sans-Serif" font-size="10.00">iomanip</text>
</g>
<!-- Node19&#45;&gt;Node20 -->
<g id="edge32" class="edge"><title>Node19&#45;&gt;Node20</title>
<path fill="none" stroke="midnightblue" d="M807.621,-175.743C883.63,-172.296 1085.12,-160.949 1250.62,-132 1250.72,-131.982 1250.82,-131.965 1250.92,-131.947"/>
<polygon fill="midnightblue" stroke="midnightblue" points="1251.4,-135.421 1260.49,-129.966 1249.98,-128.566 1251.4,-135.421"/>
</g>
<!-- Node19&#45;&gt;Node21 -->
<g id="edge36" class="edge"><title>Node19&#45;&gt;Node21</title>
<path fill="none" stroke="midnightblue" d="M793.007,-168.324C809.29,-159.703 834.486,-146.364 853.335,-136.386"/>
<polygon fill="midnightblue" stroke="midnightblue" points="855.071,-139.427 862.271,-131.655 851.796,-133.24 855.071,-139.427"/>
</g>
<!-- Node21&#45;&gt;Node22 -->
<g id="edge37" class="edge"><title>Node21&#45;&gt;Node22</title>
<path fill="none" stroke="midnightblue" d="M914.975,-117.002C929.482,-115.421 946.339,-113.603 961.619,-112 1110.65,-96.3683 1287.91,-78.6716 1365.69,-70.952"/>
<polygon fill="midnightblue" stroke="midnightblue" points="1366.39,-74.4002 1375.99,-69.9301 1365.7,-67.4344 1366.39,-74.4002"/>
</g>
<!-- Node23 -->
<g id="node23" class="node"><title>Node23</title>
<g id="a_node23"><a xlink:href="blitz_8hh.html" target="_top" xlink:title="blitz.hh">
<polygon fill="none" stroke="black" points="804.619,-56.5 804.619,-75.5 852.619,-75.5 852.619,-56.5 804.619,-56.5"/>
<text text-anchor="middle" x="828.619" y="-63.5" font-family="Helvetica,sans-Serif" font-size="10.00">blitz.hh</text>
</a>
</g>
</g>
<!-- Node21&#45;&gt;Node23 -->
<g id="edge38" class="edge"><title>Node21&#45;&gt;Node23</title>
<path fill="none" stroke="midnightblue" d="M870.362,-112.083C863.154,-104.298 852.509,-92.8015 843.773,-83.3665"/>
<polygon fill="midnightblue" stroke="midnightblue" points="846.084,-80.7108 836.721,-75.7511 840.947,-85.4666 846.084,-80.7108"/>
</g>
<!-- Node23&#45;&gt;Node10 -->
<g id="edge41" class="edge"><title>Node23&#45;&gt;Node10</title>
<path fill="none" stroke="midnightblue" d="M804.583,-58.8668C799.968,-57.8143 795.158,-56.803 790.619,-56 662.322,-33.308 507.641,-19.0207 441.803,-13.5427"/>
<polygon fill="midnightblue" stroke="midnightblue" points="441.906,-10.0395 431.653,-12.7098 441.333,-17.016 441.906,-10.0395"/>
</g>
<!-- Node23&#45;&gt;Node14 -->
<g id="edge40" class="edge"><title>Node23&#45;&gt;Node14</title>
<path fill="none" stroke="midnightblue" d="M852.659,-58.893C857.274,-57.8381 862.082,-56.8191 866.619,-56 979.129,-35.686 1113.13,-21.5104 1181.19,-15.0133"/>
<polygon fill="midnightblue" stroke="midnightblue" points="1181.9,-18.4613 1191.53,-14.0367 1181.24,-11.4923 1181.9,-18.4613"/>
</g>
<!-- Node24 -->
<g id="node24" class="node"><title>Node24</title>
<polygon fill="none" stroke="#bfbfbf" points="800.619,-0.5 800.619,-19.5 856.619,-19.5 856.619,-0.5 800.619,-0.5"/>
<text text-anchor="middle" x="828.619" y="-7.5" font-family="Helvetica,sans-Serif" font-size="10.00">algorithm</text>
</g>
<!-- Node23&#45;&gt;Node24 -->
<g id="edge39" class="edge"><title>Node23&#45;&gt;Node24</title>
<path fill="none" stroke="midnightblue" d="M828.619,-56.083C828.619,-49.0059 828.619,-38.8611 828.619,-29.9865"/>
<polygon fill="midnightblue" stroke="midnightblue" points="832.119,-29.751 828.619,-19.7511 825.119,-29.7511 832.119,-29.751"/>
</g>
<!-- Node26 -->
<g id="node26" class="node"><title>Node26</title>
<polygon fill="none" stroke="#bfbfbf" points="1370.12,-168.5 1370.12,-187.5 1429.12,-187.5 1429.12,-168.5 1370.12,-168.5"/>
<text text-anchor="middle" x="1399.62" y="-175.5" font-family="Helvetica,sans-Serif" font-size="10.00">functional</text>
</g>
<!-- Node25&#45;&gt;Node26 -->
<g id="edge43" class="edge"><title>Node25&#45;&gt;Node26</title>
<path fill="none" stroke="midnightblue" d="M1399.62,-224.083C1399.62,-217.006 1399.62,-206.861 1399.62,-197.986"/>
<polygon fill="midnightblue" stroke="midnightblue" points="1403.12,-197.751 1399.62,-187.751 1396.12,-197.751 1403.12,-197.751"/>
</g>
<!-- Node25&#45;&gt;Node27 -->
<g id="edge44" class="edge"><title>Node25&#45;&gt;Node27</title>
<path fill="none" stroke="midnightblue" d="M1426.4,-224.444C1456.88,-214.702 1506.57,-198.826 1538.41,-188.651"/>
<polygon fill="midnightblue" stroke="midnightblue" points="1539.62,-191.941 1548.08,-185.563 1537.49,-185.273 1539.62,-191.941"/>
</g>
<!-- Node28 -->
<g id="node28" class="node"><title>Node28</title>
<polygon fill="none" stroke="#bfbfbf" points="1447.12,-168.5 1447.12,-187.5 1530.12,-187.5 1530.12,-168.5 1447.12,-168.5"/>
<text text-anchor="middle" x="1488.62" y="-175.5" font-family="Helvetica,sans-Serif" font-size="10.00">unordered_map</text>
</g>
<!-- Node25&#45;&gt;Node28 -->
<g id="edge45" class="edge"><title>Node25&#45;&gt;Node28</title>
<path fill="none" stroke="midnightblue" d="M1413.92,-224.324C1427.8,-215.9 1449.11,-202.971 1465.42,-193.074"/>
<polygon fill="midnightblue" stroke="midnightblue" points="1467.62,-195.834 1474.35,-187.655 1463.99,-189.85 1467.62,-195.834"/>
</g>
<!-- Node29&#45;&gt;Node12 -->
<g id="edge51" class="edge"><title>Node29&#45;&gt;Node12</title>
<path fill="none" stroke="midnightblue" d="M1486.93,-227.724C1410.6,-217.315 1241.54,-194.262 1166.61,-184.044"/>
<polygon fill="midnightblue" stroke="midnightblue" points="1166.64,-180.516 1156.26,-182.633 1165.69,-187.452 1166.64,-180.516"/>
</g>
<!-- Node30 -->
<g id="node30" class="node"><title>Node30</title>
<polygon fill="none" stroke="#bfbfbf" points="1607.62,-168.5 1607.62,-187.5 1647.62,-187.5 1647.62,-168.5 1607.62,-168.5"/>
<text text-anchor="middle" x="1627.62" y="-175.5" font-family="Helvetica,sans-Serif" font-size="10.00">utility</text>
</g>
<!-- Node29&#45;&gt;Node30 -->
<g id="edge48" class="edge"><title>Node29&#45;&gt;Node30</title>
<path fill="none" stroke="midnightblue" d="M1542.01,-224.324C1558.29,-215.703 1583.49,-202.364 1602.33,-192.386"/>
<polygon fill="midnightblue" stroke="midnightblue" points="1604.07,-195.427 1611.27,-187.655 1600.8,-189.24 1604.07,-195.427"/>
</g>
<!-- Node31 -->
<g id="node31" class="node"><title>Node31</title>
<g id="a_node31"><a xlink:href="equations_8hh.html" target="_top" xlink:title="equations.hh">
<polygon fill="none" stroke="black" points="1533.62,-56.5 1533.62,-75.5 1605.62,-75.5 1605.62,-56.5 1533.62,-56.5"/>
<text text-anchor="middle" x="1569.62" y="-63.5" font-family="Helvetica,sans-Serif" font-size="10.00">equations.hh</text>
</a>
</g>
</g>
<!-- Node29&#45;&gt;Node31 -->
<g id="edge49" class="edge"><title>Node29&#45;&gt;Node31</title>
<path fill="none" stroke="midnightblue" d="M1564.32,-224.909C1598.86,-216.808 1645.65,-203.364 1656.62,-188 1684.22,-149.338 1627.48,-103.897 1593.18,-81.2848"/>
<polygon fill="midnightblue" stroke="midnightblue" points="1594.91,-78.2349 1584.6,-75.7909 1591.14,-84.1303 1594.91,-78.2349"/>
</g>
<!-- Node31&#45;&gt;Node14 -->
<g id="edge50" class="edge"><title>Node31&#45;&gt;Node14</title>
<path fill="none" stroke="midnightblue" d="M1533.45,-59.3231C1469.96,-49.3554 1338.64,-28.7424 1269.85,-17.9433"/>
<polygon fill="midnightblue" stroke="midnightblue" points="1270.19,-14.4538 1259.77,-16.3606 1269.1,-21.3691 1270.19,-14.4538"/>
</g>
<!-- Node32&#45;&gt;Node14 -->
<g id="edge53" class="edge"><title>Node32&#45;&gt;Node14</title>
<path fill="none" stroke="midnightblue" d="M1632.1,-224.36C1647.01,-217.09 1665.73,-205.117 1674.62,-188 1704.32,-130.809 1670.5,-88.0893 1614.62,-56 1556.77,-22.7849 1359.05,-14.05 1269.87,-11.7818"/>
<polygon fill="midnightblue" stroke="midnightblue" points="1269.89,-8.28123 1259.8,-11.5417 1269.72,-15.2792 1269.89,-8.28123"/>
</g>
<!-- Node33&#45;&gt;Node4 -->
<g id="edge55" class="edge"><title>Node33&#45;&gt;Node4</title>
<path fill="none" stroke="midnightblue" d="M1332.16,-168.265C1334.09,-154.084 1335.47,-126.209 1319.62,-112 1305.81,-99.6189 738.039,-74.8865 587.133,-68.5216"/>
<polygon fill="midnightblue" stroke="midnightblue" points="587.14,-65.0189 577.002,-68.0955 586.846,-72.0127 587.14,-65.0189"/>
</g>
<!-- Node33&#45;&gt;Node20 -->
<g id="edge57" class="edge"><title>Node33&#45;&gt;Node20</title>
<path fill="none" stroke="midnightblue" d="M1323.19,-168.083C1316.77,-160.377 1307.31,-149.033 1299.5,-139.653"/>
<polygon fill="midnightblue" stroke="midnightblue" points="1302,-137.193 1292.91,-131.751 1296.62,-141.674 1302,-137.193"/>
</g>
<!-- Node34 -->
<g id="node34" class="node"><title>Node34</title>
<polygon fill="none" stroke="#bfbfbf" points="1443.12,-112.5 1443.12,-131.5 1472.12,-131.5 1472.12,-112.5 1443.12,-112.5"/>
<text text-anchor="middle" x="1457.62" y="-119.5" font-family="Helvetica,sans-Serif" font-size="10.00">ios</text>
</g>
<!-- Node33&#45;&gt;Node34 -->
<g id="edge56" class="edge"><title>Node33&#45;&gt;Node34</title>
<path fill="none" stroke="midnightblue" d="M1350.74,-168.444C1373.14,-158.92 1409.33,-143.531 1433.3,-133.34"/>
<polygon fill="midnightblue" stroke="midnightblue" points="1434.91,-136.457 1442.75,-129.323 1432.18,-130.015 1434.91,-136.457"/>
</g>
<!-- Node35 -->
<g id="node35" class="node"><title>Node35</title>
<polygon fill="none" stroke="#bfbfbf" points="1489.62,-112.5 1489.62,-131.5 1533.62,-131.5 1533.62,-112.5 1489.62,-112.5"/>
<text text-anchor="middle" x="1511.62" y="-119.5" font-family="Helvetica,sans-Serif" font-size="10.00">mutex</text>
</g>
<!-- Node33&#45;&gt;Node35 -->
<g id="edge58" class="edge"><title>Node33&#45;&gt;Node35</title>
<path fill="none" stroke="midnightblue" d="M1352.25,-170.506C1355.06,-169.662 1357.91,-168.81 1360.62,-168 1401.82,-155.679 1449.37,-141.518 1479.93,-132.425"/>
<polygon fill="midnightblue" stroke="midnightblue" points="1481.02,-135.752 1489.61,-129.546 1479.03,-129.043 1481.02,-135.752"/>
</g>
</g>
</svg>
