<?xml version="1.0" encoding="UTF-8" standalone="no"?>
<!DOCTYPE svg PUBLIC "-//W3C//DTD SVG 1.1//EN"
 "http://www.w3.org/Graphics/SVG/1.1/DTD/svg11.dtd">
<!-- Generated by graphviz version 2.36.0 (20140111.2315)
 -->
<!-- Title: /home/travis/build/igankevich/arma/src/nonlinear/nit_transform.hh Pages: 1 -->
<svg width="557pt" height="464pt"
 viewBox="0.00 0.00 557.02 464.00" xmlns="http://www.w3.org/2000/svg" xmlns:xlink="http://www.w3.org/1999/xlink">
<g id="graph0" class="graph" transform="scale(1 1) rotate(0) translate(4 460)">
<title>/home/travis/build/igankevich/arma/src/nonlinear/nit_transform.hh</title>
<!-- Node1 -->
<g id="node1" class="node"><title>Node1</title>
<polygon fill="#bfbfbf" stroke="black" points="323.023,-414.5 323.023,-455.5 455.023,-455.5 455.023,-414.5 323.023,-414.5"/>
<text text-anchor="start" x="331.023" y="-443.5" font-family="Helvetica,sans-Serif" font-size="10.00">/home/travis/build</text>
<text text-anchor="start" x="331.023" y="-432.5" font-family="Helvetica,sans-Serif" font-size="10.00">/igankevich/arma/src</text>
<text text-anchor="middle" x="389.023" y="-421.5" font-family="Helvetica,sans-Serif" font-size="10.00">/nonlinear/nit_transform.hh</text>
</g>
<!-- Node2 -->
<g id="node2" class="node"><title>Node2</title>
<g id="a_node2"><a xlink:href="basic__arma__model_8hh.html" target="_top" xlink:title="/home/travis/build\l/igankevich/arma/src\l/generator/basic_arma\l_model.hh">
<polygon fill="none" stroke="black" points="223.523,-325 223.523,-377 336.523,-377 336.523,-325 223.523,-325"/>
<text text-anchor="start" x="231.523" y="-365" font-family="Helvetica,sans-Serif" font-size="10.00">/home/travis/build</text>
<text text-anchor="start" x="231.523" y="-354" font-family="Helvetica,sans-Serif" font-size="10.00">/igankevich/arma/src</text>
<text text-anchor="start" x="231.523" y="-343" font-family="Helvetica,sans-Serif" font-size="10.00">/generator/basic_arma</text>
<text text-anchor="middle" x="280.023" y="-332" font-family="Helvetica,sans-Serif" font-size="10.00">_model.hh</text>
</a>
</g>
</g>
<!-- Node1&#45;&gt;Node2 -->
<g id="edge1" class="edge"><title>Node1&#45;&gt;Node2</title>
<path fill="none" stroke="midnightblue" d="M354.563,-408.076C341.396,-398.171 326.417,-386.902 313.358,-377.078"/>
<polygon fill="midnightblue" stroke="midnightblue" points="352.819,-411.144 362.914,-414.359 357.027,-405.55 352.819,-411.144"/>
</g>
<!-- Node12 -->
<g id="node12" class="node"><title>Node12</title>
<g id="a_node12"><a xlink:href="basic__arma__model_8cc.html" target="_top" xlink:title="/home/travis/build\l/igankevich/arma/src\l/generator/basic_arma\l_model.cc">
<polygon fill="none" stroke="black" points="344.523,-235 344.523,-287 457.523,-287 457.523,-235 344.523,-235"/>
<text text-anchor="start" x="352.523" y="-275" font-family="Helvetica,sans-Serif" font-size="10.00">/home/travis/build</text>
<text text-anchor="start" x="352.523" y="-264" font-family="Helvetica,sans-Serif" font-size="10.00">/igankevich/arma/src</text>
<text text-anchor="start" x="352.523" y="-253" font-family="Helvetica,sans-Serif" font-size="10.00">/generator/basic_arma</text>
<text text-anchor="middle" x="401.023" y="-242" font-family="Helvetica,sans-Serif" font-size="10.00">_model.cc</text>
</a>
</g>
</g>
<!-- Node1&#45;&gt;Node12 -->
<g id="edge15" class="edge"><title>Node1&#45;&gt;Node12</title>
<path fill="none" stroke="midnightblue" d="M391.097,-404.263C393.409,-371.131 397.106,-318.145 399.275,-287.045"/>
<polygon fill="midnightblue" stroke="midnightblue" points="387.604,-404.05 390.399,-414.269 394.587,-404.537 387.604,-404.05"/>
</g>
<!-- Node13 -->
<g id="node13" class="node"><title>Node13</title>
<g id="a_node13"><a xlink:href="nit__transform_8cc.html" target="_top" xlink:title="/home/travis/build\l/igankevich/arma/src\l/nonlinear/nit_transform.cc">
<polygon fill="none" stroke="black" points="417.023,-330.5 417.023,-371.5 549.023,-371.5 549.023,-330.5 417.023,-330.5"/>
<text text-anchor="start" x="425.023" y="-359.5" font-family="Helvetica,sans-Serif" font-size="10.00">/home/travis/build</text>
<text text-anchor="start" x="425.023" y="-348.5" font-family="Helvetica,sans-Serif" font-size="10.00">/igankevich/arma/src</text>
<text text-anchor="middle" x="483.023" y="-337.5" font-family="Helvetica,sans-Serif" font-size="10.00">/nonlinear/nit_transform.cc</text>
</a>
</g>
</g>
<!-- Node1&#45;&gt;Node13 -->
<g id="edge16" class="edge"><title>Node1&#45;&gt;Node13</title>
<path fill="none" stroke="midnightblue" d="M419.368,-407.528C432.732,-395.871 448.158,-382.414 460.477,-371.667"/>
<polygon fill="midnightblue" stroke="midnightblue" points="417.012,-404.939 411.777,-414.15 421.614,-410.214 417.012,-404.939"/>
</g>
<!-- Node3 -->
<g id="node3" class="node"><title>Node3</title>
<g id="a_node3"><a xlink:href="ar__model_8hh.html" target="_top" xlink:title="/home/travis/build\l/igankevich/arma/src\l/generator/ar_model.hh">
<polygon fill="none" stroke="black" points="210.023,-240.5 210.023,-281.5 326.023,-281.5 326.023,-240.5 210.023,-240.5"/>
<text text-anchor="start" x="218.023" y="-269.5" font-family="Helvetica,sans-Serif" font-size="10.00">/home/travis/build</text>
<text text-anchor="start" x="218.023" y="-258.5" font-family="Helvetica,sans-Serif" font-size="10.00">/igankevich/arma/src</text>
<text text-anchor="middle" x="268.023" y="-247.5" font-family="Helvetica,sans-Serif" font-size="10.00">/generator/ar_model.hh</text>
</a>
</g>
</g>
<!-- Node2&#45;&gt;Node3 -->
<g id="edge2" class="edge"><title>Node2&#45;&gt;Node3</title>
<path fill="none" stroke="midnightblue" d="M275.184,-314.515C273.649,-303.257 272.008,-291.227 270.685,-281.525"/>
<polygon fill="midnightblue" stroke="midnightblue" points="271.733,-315.111 276.552,-324.547 278.668,-314.166 271.733,-315.111"/>
</g>
<!-- Node10 -->
<g id="node10" class="node"><title>Node10</title>
<g id="a_node10"><a xlink:href="ma__model_8hh.html" target="_top" xlink:title="/home/travis/build\l/igankevich/arma/src\l/generator/ma_model.hh">
<polygon fill="none" stroke="black" points="43.0226,-240.5 43.0226,-281.5 165.023,-281.5 165.023,-240.5 43.0226,-240.5"/>
<text text-anchor="start" x="51.0226" y="-269.5" font-family="Helvetica,sans-Serif" font-size="10.00">/home/travis/build</text>
<text text-anchor="start" x="51.0226" y="-258.5" font-family="Helvetica,sans-Serif" font-size="10.00">/igankevich/arma/src</text>
<text text-anchor="middle" x="104.023" y="-247.5" font-family="Helvetica,sans-Serif" font-size="10.00">/generator/ma_model.hh</text>
</a>
</g>
</g>
<!-- Node2&#45;&gt;Node10 -->
<g id="edge10" class="edge"><title>Node2&#45;&gt;Node10</title>
<path fill="none" stroke="midnightblue" d="M220.392,-320.185C194.947,-307.462 165.958,-292.968 143.279,-281.628"/>
<polygon fill="midnightblue" stroke="midnightblue" points="219.079,-323.441 229.588,-324.783 222.209,-317.18 219.079,-323.441"/>
</g>
<!-- Node2&#45;&gt;Node12 -->
<g id="edge14" class="edge"><title>Node2&#45;&gt;Node12</title>
<path fill="none" stroke="midnightblue" d="M322.889,-318.824C337.13,-308.467 352.8,-297.071 366.344,-287.221"/>
<polygon fill="midnightblue" stroke="midnightblue" points="320.725,-316.07 314.696,-324.783 324.842,-321.732 320.725,-316.07"/>
</g>
<!-- Node4 -->
<g id="node4" class="node"><title>Node4</title>
<g id="a_node4"><a xlink:href="common__main_8hh.html" target="_top" xlink:title="/home/travis/build\l/igankevich/arma/src\l/common_main.hh">
<polygon fill="none" stroke="black" points="215.523,-78.5 215.523,-119.5 322.523,-119.5 322.523,-78.5 215.523,-78.5"/>
<text text-anchor="start" x="223.523" y="-107.5" font-family="Helvetica,sans-Serif" font-size="10.00">/home/travis/build</text>
<text text-anchor="start" x="223.523" y="-96.5" font-family="Helvetica,sans-Serif" font-size="10.00">/igankevich/arma/src</text>
<text text-anchor="middle" x="269.023" y="-85.5" font-family="Helvetica,sans-Serif" font-size="10.00">/common_main.hh</text>
</a>
</g>
</g>
<!-- Node3&#45;&gt;Node4 -->
<g id="edge3" class="edge"><title>Node3&#45;&gt;Node4</title>
<path fill="none" stroke="midnightblue" d="M284.106,-231.156C288.935,-220.995 293.592,-209.287 296.023,-198 299.952,-179.752 300.181,-174.198 296.023,-156 293.114,-143.268 286.923,-130.061 281.202,-119.673"/>
<polygon fill="midnightblue" stroke="midnightblue" points="280.844,-229.852 279.491,-240.36 287.102,-232.99 280.844,-229.852"/>
</g>
<!-- Node7 -->
<g id="node7" class="node"><title>Node7</title>
<g id="a_node7"><a xlink:href="arma__model_8hh.html" target="_top" xlink:title="/home/travis/build\l/igankevich/arma/src\l/generator/arma_model.hh">
<polygon fill="none" stroke="black" points="157.023,-156.5 157.023,-197.5 287.023,-197.5 287.023,-156.5 157.023,-156.5"/>
<text text-anchor="start" x="165.023" y="-185.5" font-family="Helvetica,sans-Serif" font-size="10.00">/home/travis/build</text>
<text text-anchor="start" x="165.023" y="-174.5" font-family="Helvetica,sans-Serif" font-size="10.00">/igankevich/arma/src</text>
<text text-anchor="middle" x="222.023" y="-163.5" font-family="Helvetica,sans-Serif" font-size="10.00">/generator/arma_model.hh</text>
</a>
</g>
</g>
<!-- Node3&#45;&gt;Node7 -->
<g id="edge6" class="edge"><title>Node3&#45;&gt;Node7</title>
<path fill="none" stroke="midnightblue" d="M251.877,-231.219C245.652,-220.122 238.69,-207.711 233.055,-197.667"/>
<polygon fill="midnightblue" stroke="midnightblue" points="248.942,-233.141 256.887,-240.15 255.047,-229.716 248.942,-233.141"/>
</g>
<!-- Node9 -->
<g id="node9" class="node"><title>Node9</title>
<g id="a_node9"><a xlink:href="ar__model_8cc.html" target="_top" xlink:title="/home/travis/build\l/igankevich/arma/src\l/generator/ar_model.cc">
<polygon fill="none" stroke="black" points="343.023,-156.5 343.023,-197.5 459.023,-197.5 459.023,-156.5 343.023,-156.5"/>
<text text-anchor="start" x="351.023" y="-185.5" font-family="Helvetica,sans-Serif" font-size="10.00">/home/travis/build</text>
<text text-anchor="start" x="351.023" y="-174.5" font-family="Helvetica,sans-Serif" font-size="10.00">/igankevich/arma/src</text>
<text text-anchor="middle" x="401.023" y="-163.5" font-family="Helvetica,sans-Serif" font-size="10.00">/generator/ar_model.cc</text>
</a>
</g>
</g>
<!-- Node3&#45;&gt;Node9 -->
<g id="edge9" class="edge"><title>Node3&#45;&gt;Node9</title>
<path fill="none" stroke="midnightblue" d="M308.514,-235.036C327.907,-223.079 350.803,-208.963 368.965,-197.765"/>
<polygon fill="midnightblue" stroke="midnightblue" points="306.555,-232.132 299.879,-240.359 310.229,-238.09 306.555,-232.132"/>
</g>
<!-- Node5 -->
<g id="node5" class="node"><title>Node5</title>
<g id="a_node5"><a xlink:href="arma__main_8cc.html" target="_top" xlink:title="/home/travis/build\l/igankevich/arma/src\l/arma_main.cc">
<polygon fill="none" stroke="black" points="153.523,-0.5 153.523,-41.5 260.523,-41.5 260.523,-0.5 153.523,-0.5"/>
<text text-anchor="start" x="161.523" y="-29.5" font-family="Helvetica,sans-Serif" font-size="10.00">/home/travis/build</text>
<text text-anchor="start" x="161.523" y="-18.5" font-family="Helvetica,sans-Serif" font-size="10.00">/igankevich/arma/src</text>
<text text-anchor="middle" x="207.023" y="-7.5" font-family="Helvetica,sans-Serif" font-size="10.00">/arma_main.cc</text>
</a>
</g>
</g>
<!-- Node4&#45;&gt;Node5 -->
<g id="edge4" class="edge"><title>Node4&#45;&gt;Node5</title>
<path fill="none" stroke="midnightblue" d="M246.692,-70.627C238.83,-60.9901 230.16,-50.3617 222.935,-41.5056"/>
<polygon fill="midnightblue" stroke="midnightblue" points="244.023,-72.8919 253.056,-78.4281 249.447,-68.467 244.023,-72.8919"/>
</g>
<!-- Node6 -->
<g id="node6" class="node"><title>Node6</title>
<g id="a_node6"><a xlink:href="arma__realtime_8cc.html" target="_top" xlink:title="/home/travis/build\l/igankevich/arma/src\l/arma_realtime.cc">
<polygon fill="none" stroke="black" points="278.523,-0.5 278.523,-41.5 385.523,-41.5 385.523,-0.5 278.523,-0.5"/>
<text text-anchor="start" x="286.523" y="-29.5" font-family="Helvetica,sans-Serif" font-size="10.00">/home/travis/build</text>
<text text-anchor="start" x="286.523" y="-18.5" font-family="Helvetica,sans-Serif" font-size="10.00">/igankevich/arma/src</text>
<text text-anchor="middle" x="332.023" y="-7.5" font-family="Helvetica,sans-Serif" font-size="10.00">/arma_realtime.cc</text>
</a>
</g>
</g>
<!-- Node4&#45;&gt;Node6 -->
<g id="edge5" class="edge"><title>Node4&#45;&gt;Node6</title>
<path fill="none" stroke="midnightblue" d="M291.713,-70.627C299.702,-60.9901 308.512,-50.3617 315.854,-41.5056"/>
<polygon fill="midnightblue" stroke="midnightblue" points="288.934,-68.4956 285.247,-78.4281 294.323,-72.963 288.934,-68.4956"/>
</g>
<!-- Node7&#45;&gt;Node4 -->
<g id="edge7" class="edge"><title>Node7&#45;&gt;Node4</title>
<path fill="none" stroke="midnightblue" d="M239.489,-147.757C245.304,-138.354 251.648,-128.096 256.96,-119.506"/>
<polygon fill="midnightblue" stroke="midnightblue" points="236.409,-146.082 234.126,-156.428 242.363,-149.764 236.409,-146.082"/>
</g>
<!-- Node8 -->
<g id="node8" class="node"><title>Node8</title>
<g id="a_node8"><a xlink:href="arma__model_8cc.html" target="_top" xlink:title="/home/travis/build\l/igankevich/arma/src\l/generator/arma_model.cc">
<polygon fill="none" stroke="black" points="67.0226,-78.5 67.0226,-119.5 197.023,-119.5 197.023,-78.5 67.0226,-78.5"/>
<text text-anchor="start" x="75.0226" y="-107.5" font-family="Helvetica,sans-Serif" font-size="10.00">/home/travis/build</text>
<text text-anchor="start" x="75.0226" y="-96.5" font-family="Helvetica,sans-Serif" font-size="10.00">/igankevich/arma/src</text>
<text text-anchor="middle" x="132.023" y="-85.5" font-family="Helvetica,sans-Serif" font-size="10.00">/generator/arma_model.cc</text>
</a>
</g>
</g>
<!-- Node7&#45;&gt;Node8 -->
<g id="edge8" class="edge"><title>Node7&#45;&gt;Node8</title>
<path fill="none" stroke="midnightblue" d="M190.971,-149.779C179.205,-139.843 166.028,-128.716 155.121,-119.506"/>
<polygon fill="midnightblue" stroke="midnightblue" points="188.947,-152.65 198.845,-156.428 193.463,-147.302 188.947,-152.65"/>
</g>
<!-- Node10&#45;&gt;Node4 -->
<g id="edge11" class="edge"><title>Node10&#45;&gt;Node4</title>
<path fill="none" stroke="midnightblue" d="M45.7693,-235.208C30.786,-225.848 16.5101,-213.585 8.02265,-198 -0.904962,-181.607 -3.93797,-170.331 8.02265,-156 36.6777,-121.665 162.622,-130.788 206.023,-120 209.03,-119.253 212.103,-118.44 215.195,-117.585"/>
<polygon fill="midnightblue" stroke="midnightblue" points="44.2345,-238.365 54.6346,-240.387 47.7653,-232.321 44.2345,-238.365"/>
</g>
<!-- Node10&#45;&gt;Node7 -->
<g id="edge12" class="edge"><title>Node10&#45;&gt;Node7</title>
<path fill="none" stroke="midnightblue" d="M140.88,-234.387C157.884,-222.571 177.757,-208.761 193.58,-197.765"/>
<polygon fill="midnightblue" stroke="midnightblue" points="138.501,-231.778 132.287,-240.359 142.496,-237.527 138.501,-231.778"/>
</g>
<!-- Node11 -->
<g id="node11" class="node"><title>Node11</title>
<g id="a_node11"><a xlink:href="ma__model_8cc.html" target="_top" xlink:title="/home/travis/build\l/igankevich/arma/src\l/generator/ma_model.cc">
<polygon fill="none" stroke="black" points="17.0226,-156.5 17.0226,-197.5 139.023,-197.5 139.023,-156.5 17.0226,-156.5"/>
<text text-anchor="start" x="25.0226" y="-185.5" font-family="Helvetica,sans-Serif" font-size="10.00">/home/travis/build</text>
<text text-anchor="start" x="25.0226" y="-174.5" font-family="Helvetica,sans-Serif" font-size="10.00">/igankevich/arma/src</text>
<text text-anchor="middle" x="78.0226" y="-163.5" font-family="Helvetica,sans-Serif" font-size="10.00">/generator/ma_model.cc</text>
</a>
</g>
</g>
<!-- Node10&#45;&gt;Node11 -->
<g id="edge13" class="edge"><title>Node10&#45;&gt;Node11</title>
<path fill="none" stroke="midnightblue" d="M94.6853,-230.551C91.2212,-219.626 87.3795,-207.51 84.2586,-197.667"/>
<polygon fill="midnightblue" stroke="midnightblue" points="91.37,-231.676 97.7288,-240.15 98.0426,-229.56 91.37,-231.676"/>
</g>
</g>
</svg>
