<?xml version="1.0" encoding="UTF-8" standalone="no"?>
<!DOCTYPE svg PUBLIC "-//W3C//DTD SVG 1.1//EN"
 "http://www.w3.org/Graphics/SVG/1.1/DTD/svg11.dtd">
<!-- Generated by graphviz version 2.36.0 (20140111.2315)
 -->
<!-- Title: /home/travis/build/igankevich/arma/src/nonlinear/nit_transform.hh Pages: 1 -->
<svg width="1319pt" height="274pt"
 viewBox="0.00 0.00 1319.00 274.00" xmlns="http://www.w3.org/2000/svg" xmlns:xlink="http://www.w3.org/1999/xlink">
<g id="graph0" class="graph" transform="scale(1 1) rotate(0) translate(4 270)">
<title>/home/travis/build/igankevich/arma/src/nonlinear/nit_transform.hh</title>
<!-- Node1 -->
<g id="node1" class="node"><title>Node1</title>
<polygon fill="#bfbfbf" stroke="black" points="359,-224.5 359,-265.5 491,-265.5 491,-224.5 359,-224.5"/>
<text text-anchor="start" x="367" y="-253.5" font-family="Helvetica,sans-Serif" font-size="10.00">/home/travis/build</text>
<text text-anchor="start" x="367" y="-242.5" font-family="Helvetica,sans-Serif" font-size="10.00">/igankevich/arma/src</text>
<text text-anchor="middle" x="425" y="-231.5" font-family="Helvetica,sans-Serif" font-size="10.00">/nonlinear/nit_transform.hh</text>
</g>
<!-- Node2 -->
<g id="node2" class="node"><title>Node2</title>
<polygon fill="none" stroke="#bfbfbf" points="266.5,-56.5 266.5,-75.5 315.5,-75.5 315.5,-56.5 266.5,-56.5"/>
<text text-anchor="middle" x="291" y="-63.5" font-family="Helvetica,sans-Serif" font-size="10.00">istream</text>
</g>
<!-- Node1&#45;&gt;Node2 -->
<g id="edge1" class="edge"><title>Node1&#45;&gt;Node2</title>
<path fill="none" stroke="midnightblue" d="M358.72,-237.338C294.747,-226.907 201.641,-200.209 160,-132 155.368,-124.413 154.836,-119.235 160,-112 165.827,-103.838 219.685,-87.2051 256.503,-76.6071"/>
<polygon fill="midnightblue" stroke="midnightblue" points="257.725,-79.8982 266.381,-73.7899 255.805,-73.1666 257.725,-79.8982"/>
</g>
<!-- Node3 -->
<g id="node3" class="node"><title>Node3</title>
<polygon fill="none" stroke="#bfbfbf" points="438,-56.5 438,-75.5 490,-75.5 490,-56.5 438,-56.5"/>
<text text-anchor="middle" x="464" y="-63.5" font-family="Helvetica,sans-Serif" font-size="10.00">ostream</text>
</g>
<!-- Node1&#45;&gt;Node3 -->
<g id="edge2" class="edge"><title>Node1&#45;&gt;Node3</title>
<path fill="none" stroke="midnightblue" d="M429.323,-224.382C436.913,-189.932 452.533,-119.042 459.936,-85.4424"/>
<polygon fill="midnightblue" stroke="midnightblue" points="463.375,-86.1027 462.109,-75.5838 456.539,-84.5964 463.375,-86.1027"/>
</g>
<!-- Node4 -->
<g id="node4" class="node"><title>Node4</title>
<g id="a_node4"><a xlink:href="gaussian_8hh.html" target="_top" xlink:title="stats/gaussian.hh">
<polygon fill="none" stroke="black" points="169,-112.5 169,-131.5 263,-131.5 263,-112.5 169,-112.5"/>
<text text-anchor="middle" x="216" y="-119.5" font-family="Helvetica,sans-Serif" font-size="10.00">stats/gaussian.hh</text>
</a>
</g>
</g>
<!-- Node1&#45;&gt;Node4 -->
<g id="edge3" class="edge"><title>Node1&#45;&gt;Node4</title>
<path fill="none" stroke="midnightblue" d="M375.559,-224.444C352.594,-214.622 325.282,-201.869 302,-188 276.943,-173.075 250.524,-152.234 233.687,-138.211"/>
<polygon fill="midnightblue" stroke="midnightblue" points="235.713,-135.341 225.813,-131.566 231.198,-140.69 235.713,-135.341"/>
</g>
<!-- Node6 -->
<g id="node6" class="node"><title>Node6</title>
<g id="a_node6"><a xlink:href="skew__normal_8hh.html" target="_top" xlink:title="stats/skew_normal.hh">
<polygon fill="none" stroke="black" points="311.5,-168.5 311.5,-187.5 424.5,-187.5 424.5,-168.5 311.5,-168.5"/>
<text text-anchor="middle" x="368" y="-175.5" font-family="Helvetica,sans-Serif" font-size="10.00">stats/skew_normal.hh</text>
</a>
</g>
</g>
<!-- Node1&#45;&gt;Node6 -->
<g id="edge7" class="edge"><title>Node1&#45;&gt;Node6</title>
<path fill="none" stroke="midnightblue" d="M407.898,-224.498C399.747,-215.203 390.107,-204.21 382.345,-195.358"/>
<polygon fill="midnightblue" stroke="midnightblue" points="384.812,-192.863 375.588,-187.652 379.549,-197.479 384.812,-192.863"/>
</g>
<!-- Node8 -->
<g id="node8" class="node"><title>Node8</title>
<g id="a_node8"><a xlink:href="gram__charlier_8hh.html" target="_top" xlink:title="stats/gram_charlier.hh">
<polygon fill="none" stroke="black" points="-0.5,-112.5 -0.5,-131.5 112.5,-131.5 112.5,-112.5 -0.5,-112.5"/>
<text text-anchor="middle" x="56" y="-119.5" font-family="Helvetica,sans-Serif" font-size="10.00">stats/gram_charlier.hh</text>
</a>
</g>
</g>
<!-- Node1&#45;&gt;Node8 -->
<g id="edge12" class="edge"><title>Node1&#45;&gt;Node8</title>
<path fill="none" stroke="midnightblue" d="M358.938,-241.932C296.259,-237.643 200.926,-224.952 127,-188 103.758,-176.382 82.5573,-154.899 69.4923,-139.82"/>
<polygon fill="midnightblue" stroke="midnightblue" points="71.8873,-137.228 62.7859,-131.805 66.5186,-141.72 71.8873,-137.228"/>
</g>
<!-- Node11 -->
<g id="node11" class="node"><title>Node11</title>
<g id="a_node11"><a xlink:href="linalg_8hh.html" target="_top" xlink:title="linalg.hh">
<polygon fill="none" stroke="black" points="1076.5,-168.5 1076.5,-187.5 1129.5,-187.5 1129.5,-168.5 1076.5,-168.5"/>
<text text-anchor="middle" x="1103" y="-175.5" font-family="Helvetica,sans-Serif" font-size="10.00">linalg.hh</text>
</a>
</g>
</g>
<!-- Node1&#45;&gt;Node11 -->
<g id="edge18" class="edge"><title>Node1&#45;&gt;Node11</title>
<path fill="none" stroke="midnightblue" d="M491.244,-237.649C631.841,-224.17 956.189,-193.075 1065.93,-182.554"/>
<polygon fill="midnightblue" stroke="midnightblue" points="1066.55,-186.011 1076.17,-181.572 1065.88,-179.043 1066.55,-186.011"/>
</g>
<!-- Node17 -->
<g id="node17" class="node"><title>Node17</title>
<g id="a_node17"><a xlink:href="types_8hh.html" target="_top" xlink:title="types.hh">
<polygon fill="none" stroke="black" points="1257,-168.5 1257,-187.5 1311,-187.5 1311,-168.5 1257,-168.5"/>
<text text-anchor="middle" x="1284" y="-175.5" font-family="Helvetica,sans-Serif" font-size="10.00">types.hh</text>
</a>
</g>
</g>
<!-- Node1&#45;&gt;Node17 -->
<g id="edge27" class="edge"><title>Node1&#45;&gt;Node17</title>
<path fill="none" stroke="midnightblue" d="M491.333,-238.981C662.219,-226.05 1113.42,-191.908 1246.53,-181.835"/>
<polygon fill="midnightblue" stroke="midnightblue" points="1246.92,-185.316 1256.63,-181.071 1246.39,-178.336 1246.92,-185.316"/>
</g>
<!-- Node18 -->
<g id="node18" class="node"><title>Node18</title>
<g id="a_node18"><a xlink:href="domain_8hh.html" target="_top" xlink:title="domain.hh">
<polygon fill="none" stroke="black" points="581,-168.5 581,-187.5 643,-187.5 643,-168.5 581,-168.5"/>
<text text-anchor="middle" x="612" y="-175.5" font-family="Helvetica,sans-Serif" font-size="10.00">domain.hh</text>
</a>
</g>
</g>
<!-- Node1&#45;&gt;Node18 -->
<g id="edge29" class="edge"><title>Node1&#45;&gt;Node18</title>
<path fill="none" stroke="midnightblue" d="M481.106,-224.498C512.396,-213.622 550.375,-200.421 577.346,-191.045"/>
<polygon fill="midnightblue" stroke="midnightblue" points="578.811,-194.242 587.107,-187.652 576.513,-187.63 578.811,-194.242"/>
</g>
<!-- Node4&#45;&gt;Node2 -->
<g id="edge4" class="edge"><title>Node4&#45;&gt;Node2</title>
<path fill="none" stroke="midnightblue" d="M228.05,-112.324C239.463,-104.107 256.831,-91.6017 270.435,-81.8069"/>
<polygon fill="midnightblue" stroke="midnightblue" points="272.66,-84.5174 278.731,-75.8339 268.57,-78.8366 272.66,-84.5174"/>
</g>
<!-- Node4&#45;&gt;Node3 -->
<g id="edge5" class="edge"><title>Node4&#45;&gt;Node3</title>
<path fill="none" stroke="midnightblue" d="M255.296,-112.444C302.786,-102.103 382.026,-84.8492 427.991,-74.8407"/>
<polygon fill="midnightblue" stroke="midnightblue" points="428.794,-78.2479 437.821,-72.7003 427.305,-71.4081 428.794,-78.2479"/>
</g>
<!-- Node5 -->
<g id="node5" class="node"><title>Node5</title>
<polygon fill="none" stroke="#bfbfbf" points="176,-56.5 176,-75.5 248,-75.5 248,-56.5 176,-56.5"/>
<text text-anchor="middle" x="212" y="-63.5" font-family="Helvetica,sans-Serif" font-size="10.00">gsl/gsl_cdf.h</text>
</g>
<!-- Node4&#45;&gt;Node5 -->
<g id="edge6" class="edge"><title>Node4&#45;&gt;Node5</title>
<path fill="none" stroke="midnightblue" d="M215.339,-112.083C214.815,-105.006 214.064,-94.8611 213.406,-85.9865"/>
<polygon fill="midnightblue" stroke="midnightblue" points="216.877,-85.4652 212.648,-75.7511 209.897,-85.9823 216.877,-85.4652"/>
</g>
<!-- Node6&#45;&gt;Node2 -->
<g id="edge8" class="edge"><title>Node6&#45;&gt;Node2</title>
<path fill="none" stroke="midnightblue" d="M351.936,-168.372C338.821,-160.537 320.757,-147.803 310,-132 300.593,-118.181 295.774,-99.6607 293.349,-85.9246"/>
<polygon fill="midnightblue" stroke="midnightblue" points="296.764,-85.0938 291.827,-75.7197 289.841,-86.1268 296.764,-85.0938"/>
</g>
<!-- Node6&#45;&gt;Node3 -->
<g id="edge9" class="edge"><title>Node6&#45;&gt;Node3</title>
<path fill="none" stroke="midnightblue" d="M381.828,-168.204C394.154,-159.902 412.176,-146.579 425,-132 437.606,-117.669 448.446,-98.714 455.475,-84.9736"/>
<polygon fill="midnightblue" stroke="midnightblue" points="458.791,-86.1627 460.073,-75.6457 452.512,-83.0675 458.791,-86.1627"/>
</g>
<!-- Node6&#45;&gt;Node4 -->
<g id="edge10" class="edge"><title>Node6&#45;&gt;Node4</title>
<path fill="none" stroke="midnightblue" d="M343.915,-168.444C318.455,-159.399 278.106,-145.064 249.541,-134.916"/>
<polygon fill="midnightblue" stroke="midnightblue" points="250.567,-131.566 239.972,-131.516 248.223,-138.162 250.567,-131.566"/>
</g>
<!-- Node7 -->
<g id="node7" class="node"><title>Node7</title>
<g id="a_node7"><a xlink:href="owen__t_8hh.html" target="_top" xlink:title="apmath/owen_t.hh">
<polygon fill="none" stroke="black" points="319.5,-112.5 319.5,-131.5 416.5,-131.5 416.5,-112.5 319.5,-112.5"/>
<text text-anchor="middle" x="368" y="-119.5" font-family="Helvetica,sans-Serif" font-size="10.00">apmath/owen_t.hh</text>
</a>
</g>
</g>
<!-- Node6&#45;&gt;Node7 -->
<g id="edge11" class="edge"><title>Node6&#45;&gt;Node7</title>
<path fill="none" stroke="midnightblue" d="M368,-168.083C368,-161.006 368,-150.861 368,-141.986"/>
<polygon fill="midnightblue" stroke="midnightblue" points="371.5,-141.751 368,-131.751 364.5,-141.751 371.5,-141.751"/>
</g>
<!-- Node8&#45;&gt;Node2 -->
<g id="edge13" class="edge"><title>Node8&#45;&gt;Node2</title>
<path fill="none" stroke="midnightblue" d="M96.1489,-112.488C134.734,-104.201 194.917,-90.9996 256.289,-76.1022"/>
<polygon fill="midnightblue" stroke="midnightblue" points="257.26,-79.4679 266.146,-73.6972 255.601,-72.6674 257.26,-79.4679"/>
</g>
<!-- Node8&#45;&gt;Node3 -->
<g id="edge14" class="edge"><title>Node8&#45;&gt;Node3</title>
<path fill="none" stroke="midnightblue" d="M112.731,-113.492C197.912,-102.217 356.447,-81.235 427.686,-71.8063"/>
<polygon fill="midnightblue" stroke="midnightblue" points="428.49,-75.2304 437.945,-70.4485 427.572,-68.2909 428.49,-75.2304"/>
</g>
<!-- Node9 -->
<g id="node9" class="node"><title>Node9</title>
<polygon fill="none" stroke="#bfbfbf" points="373,-0.5 373,-19.5 417,-19.5 417,-0.5 373,-0.5"/>
<text text-anchor="middle" x="395" y="-7.5" font-family="Helvetica,sans-Serif" font-size="10.00">cmath</text>
</g>
<!-- Node8&#45;&gt;Node9 -->
<g id="edge15" class="edge"><title>Node8&#45;&gt;Node9</title>
<path fill="none" stroke="midnightblue" d="M67.647,-112.38C87.1629,-98.3642 128.159,-70.7222 167,-56 234.061,-30.5812 317.916,-18.7662 362.913,-13.9182"/>
<polygon fill="midnightblue" stroke="midnightblue" points="363.368,-17.3899 372.957,-12.8831 362.651,-10.4267 363.368,-17.3899"/>
</g>
<!-- Node10 -->
<g id="node10" class="node"><title>Node10</title>
<g id="a_node10"><a xlink:href="physical__constants_8hh.html" target="_top" xlink:title="physical_constants.hh">
<polygon fill="none" stroke="black" points="1,-56.5 1,-75.5 115,-75.5 115,-56.5 1,-56.5"/>
<text text-anchor="middle" x="58" y="-63.5" font-family="Helvetica,sans-Serif" font-size="10.00">physical_constants.hh</text>
</a>
</g>
</g>
<!-- Node8&#45;&gt;Node10 -->
<g id="edge16" class="edge"><title>Node8&#45;&gt;Node10</title>
<path fill="none" stroke="midnightblue" d="M56.3303,-112.083C56.5924,-105.006 56.9681,-94.8611 57.2968,-85.9865"/>
<polygon fill="midnightblue" stroke="midnightblue" points="60.8033,-85.8738 57.6759,-75.7511 53.8081,-85.6147 60.8033,-85.8738"/>
</g>
<!-- Node10&#45;&gt;Node9 -->
<g id="edge17" class="edge"><title>Node10&#45;&gt;Node9</title>
<path fill="none" stroke="midnightblue" d="M111.399,-56.4435C182.161,-45.1048 304.8,-25.4535 362.814,-16.1574"/>
<polygon fill="midnightblue" stroke="midnightblue" points="363.547,-19.5847 372.867,-14.5465 362.439,-12.6729 363.547,-19.5847"/>
</g>
<!-- Node12 -->
<g id="node12" class="node"><title>Node12</title>
<polygon fill="none" stroke="#bfbfbf" points="1223.5,-112.5 1223.5,-131.5 1272.5,-131.5 1272.5,-112.5 1223.5,-112.5"/>
<text text-anchor="middle" x="1248" y="-119.5" font-family="Helvetica,sans-Serif" font-size="10.00">cassert</text>
</g>
<!-- Node11&#45;&gt;Node12 -->
<g id="edge19" class="edge"><title>Node11&#45;&gt;Node12</title>
<path fill="none" stroke="midnightblue" d="M1125.98,-168.444C1150.16,-159.438 1188.42,-145.189 1215.65,-135.049"/>
<polygon fill="midnightblue" stroke="midnightblue" points="1216.98,-138.286 1225.13,-131.516 1214.54,-131.727 1216.98,-138.286"/>
</g>
<!-- Node13 -->
<g id="node13" class="node"><title>Node13</title>
<polygon fill="none" stroke="#bfbfbf" points="1103,-0.5 1103,-19.5 1171,-19.5 1171,-0.5 1103,-0.5"/>
<text text-anchor="middle" x="1137" y="-7.5" font-family="Helvetica,sans-Serif" font-size="10.00">blitz/array.h</text>
</g>
<!-- Node11&#45;&gt;Node13 -->
<g id="edge20" class="edge"><title>Node11&#45;&gt;Node13</title>
<path fill="none" stroke="midnightblue" d="M1129.75,-174.208C1174.76,-168.898 1262.54,-155.704 1281,-132 1318.02,-84.4601 1226.86,-42.5907 1173.07,-22.9146"/>
<polygon fill="midnightblue" stroke="midnightblue" points="1174.1,-19.5642 1163.5,-19.5026 1171.75,-26.1577 1174.1,-19.5642"/>
</g>
<!-- Node14 -->
<g id="node14" class="node"><title>Node14</title>
<polygon fill="none" stroke="#bfbfbf" points="1001.5,-112.5 1001.5,-131.5 1096.5,-131.5 1096.5,-112.5 1001.5,-112.5"/>
<text text-anchor="middle" x="1049" y="-119.5" font-family="Helvetica,sans-Serif" font-size="10.00">lapacke/lapacke.h</text>
</g>
<!-- Node11&#45;&gt;Node14 -->
<g id="edge21" class="edge"><title>Node11&#45;&gt;Node14</title>
<path fill="none" stroke="midnightblue" d="M1094.08,-168.083C1086.22,-160.22 1074.57,-148.569 1065.08,-139.081"/>
<polygon fill="midnightblue" stroke="midnightblue" points="1067.3,-136.347 1057.75,-131.751 1062.35,-141.297 1067.3,-136.347"/>
</g>
<!-- Node15 -->
<g id="node15" class="node"><title>Node15</title>
<polygon fill="none" stroke="#bfbfbf" points="1115,-112.5 1115,-131.5 1205,-131.5 1205,-112.5 1115,-112.5"/>
<text text-anchor="middle" x="1160" y="-119.5" font-family="Helvetica,sans-Serif" font-size="10.00">openblas/cblas.h</text>
</g>
<!-- Node11&#45;&gt;Node15 -->
<g id="edge22" class="edge"><title>Node11&#45;&gt;Node15</title>
<path fill="none" stroke="midnightblue" d="M1112.16,-168.324C1120.5,-160.42 1133.03,-148.548 1143.18,-138.938"/>
<polygon fill="midnightblue" stroke="midnightblue" points="1145.82,-141.252 1150.68,-131.834 1141.01,-136.171 1145.82,-141.252"/>
</g>
<!-- Node16 -->
<g id="node16" class="node"><title>Node16</title>
<g id="a_node16"><a xlink:href="closed__interval_8hh.html" target="_top" xlink:title="apmath/closed_interval.hh">
<polygon fill="none" stroke="black" points="723.5,-112.5 723.5,-131.5 854.5,-131.5 854.5,-112.5 723.5,-112.5"/>
<text text-anchor="middle" x="789" y="-119.5" font-family="Helvetica,sans-Serif" font-size="10.00">apmath/closed_interval.hh</text>
</a>
</g>
</g>
<!-- Node11&#45;&gt;Node16 -->
<g id="edge23" class="edge"><title>Node11&#45;&gt;Node16</title>
<path fill="none" stroke="midnightblue" d="M1076.5,-172.443C1026.5,-163.845 917.147,-145.038 848.643,-133.257"/>
<polygon fill="midnightblue" stroke="midnightblue" points="848.878,-129.746 838.43,-131.501 847.692,-136.645 848.878,-129.746"/>
</g>
<!-- Node16&#45;&gt;Node2 -->
<g id="edge24" class="edge"><title>Node16&#45;&gt;Node2</title>
<path fill="none" stroke="midnightblue" d="M723.156,-113.048C720.061,-112.69 716.997,-112.339 714,-112 570.212,-95.7251 398.727,-78.0013 326.179,-70.5809"/>
<polygon fill="midnightblue" stroke="midnightblue" points="326.109,-67.0557 315.805,-69.5212 325.398,-74.0194 326.109,-67.0557"/>
</g>
<!-- Node16&#45;&gt;Node3 -->
<g id="edge25" class="edge"><title>Node16&#45;&gt;Node3</title>
<path fill="none" stroke="midnightblue" d="M737.503,-112.444C671.283,-101.441 557.953,-82.6107 500.175,-73.0105"/>
<polygon fill="midnightblue" stroke="midnightblue" points="500.495,-69.5158 490.056,-71.3294 499.347,-76.4212 500.495,-69.5158"/>
</g>
<!-- Node16&#45;&gt;Node9 -->
<g id="edge26" class="edge"><title>Node16&#45;&gt;Node9</title>
<path fill="none" stroke="midnightblue" d="M758.411,-112.46C685.367,-92.0668 501.33,-40.6861 426.939,-19.9169"/>
<polygon fill="midnightblue" stroke="midnightblue" points="427.765,-16.5139 417.192,-17.1958 425.883,-23.256 427.765,-16.5139"/>
</g>
<!-- Node17&#45;&gt;Node13 -->
<g id="edge28" class="edge"><title>Node17&#45;&gt;Node13</title>
<path fill="none" stroke="midnightblue" d="M1287.86,-168.249C1291.56,-159.333 1296.89,-145.006 1299,-132 1304.77,-96.4676 1298.17,-79.6159 1271,-56 1245.84,-34.1332 1209.66,-22.8025 1181.24,-16.9832"/>
<polygon fill="midnightblue" stroke="midnightblue" points="1181.62,-13.4948 1171.15,-15.0793 1180.33,-20.3733 1181.62,-13.4948"/>
</g>
<!-- Node18&#45;&gt;Node2 -->
<g id="edge31" class="edge"><title>Node18&#45;&gt;Node2</title>
<path fill="none" stroke="midnightblue" d="M587.524,-168.4C551.829,-155.879 483.381,-131.949 425,-112 391.23,-100.461 352.586,-87.5105 325.503,-78.4758"/>
<polygon fill="midnightblue" stroke="midnightblue" points="326.317,-75.0579 315.724,-75.216 324.104,-81.6987 326.317,-75.0579"/>
</g>
<!-- Node18&#45;&gt;Node3 -->
<g id="edge32" class="edge"><title>Node18&#45;&gt;Node3</title>
<path fill="none" stroke="midnightblue" d="M602.383,-168.141C588.142,-155.195 560.389,-130.628 535,-112 519.653,-100.74 501.514,-89.2725 487.412,-80.7319"/>
<polygon fill="midnightblue" stroke="midnightblue" points="489.175,-77.7083 478.798,-75.5738 485.579,-83.714 489.175,-77.7083"/>
</g>
<!-- Node18&#45;&gt;Node13 -->
<g id="edge34" class="edge"><title>Node18&#45;&gt;Node13</title>
<path fill="none" stroke="midnightblue" d="M643.312,-177.514C704.88,-177.536 845.166,-172.657 954,-132 988.995,-118.927 1077.81,-54.8419 1117.42,-25.5985"/>
<polygon fill="midnightblue" stroke="midnightblue" points="1119.56,-28.3642 1125.51,-19.5984 1115.4,-22.7399 1119.56,-28.3642"/>
</g>
<!-- Node19 -->
<g id="node19" class="node"><title>Node19</title>
<polygon fill="none" stroke="#bfbfbf" points="587.5,-112.5 587.5,-131.5 636.5,-131.5 636.5,-112.5 587.5,-112.5"/>
<text text-anchor="middle" x="612" y="-119.5" font-family="Helvetica,sans-Serif" font-size="10.00">cstddef</text>
</g>
<!-- Node18&#45;&gt;Node19 -->
<g id="edge30" class="edge"><title>Node18&#45;&gt;Node19</title>
<path fill="none" stroke="midnightblue" d="M612,-168.083C612,-161.006 612,-150.861 612,-141.986"/>
<polygon fill="midnightblue" stroke="midnightblue" points="615.5,-141.751 612,-131.751 608.5,-141.751 615.5,-141.751"/>
</g>
<!-- Node20 -->
<g id="node20" class="node"><title>Node20</title>
<polygon fill="none" stroke="#bfbfbf" points="655,-112.5 655,-131.5 705,-131.5 705,-112.5 655,-112.5"/>
<text text-anchor="middle" x="680" y="-119.5" font-family="Helvetica,sans-Serif" font-size="10.00">iomanip</text>
</g>
<!-- Node18&#45;&gt;Node20 -->
<g id="edge33" class="edge"><title>Node18&#45;&gt;Node20</title>
<path fill="none" stroke="midnightblue" d="M622.925,-168.324C633.175,-160.185 648.721,-147.839 661.001,-138.087"/>
<polygon fill="midnightblue" stroke="midnightblue" points="663.221,-140.794 668.876,-131.834 658.868,-135.312 663.221,-140.794"/>
</g>
<!-- Node21 -->
<g id="node21" class="node"><title>Node21</title>
<g id="a_node21"><a xlink:href="validators_8hh.html" target="_top" xlink:title="validators.hh">
<polygon fill="none" stroke="black" points="873,-112.5 873,-131.5 945,-131.5 945,-112.5 873,-112.5"/>
<text text-anchor="middle" x="909" y="-119.5" font-family="Helvetica,sans-Serif" font-size="10.00">validators.hh</text>
</a>
</g>
</g>
<!-- Node18&#45;&gt;Node21 -->
<g id="edge35" class="edge"><title>Node18&#45;&gt;Node21</title>
<path fill="none" stroke="midnightblue" d="M643.334,-171.546C690.866,-163.236 784.023,-146.805 863,-132 863.1,-131.981 863.2,-131.962 863.3,-131.944"/>
<polygon fill="midnightblue" stroke="midnightblue" points="863.68,-135.434 872.851,-130.129 862.373,-128.557 863.68,-135.434"/>
</g>
<!-- Node22 -->
<g id="node22" class="node"><title>Node22</title>
<polygon fill="none" stroke="#bfbfbf" points="884.5,-56.5 884.5,-75.5 943.5,-75.5 943.5,-56.5 884.5,-56.5"/>
<text text-anchor="middle" x="914" y="-63.5" font-family="Helvetica,sans-Serif" font-size="10.00">stdexcept</text>
</g>
<!-- Node21&#45;&gt;Node22 -->
<g id="edge36" class="edge"><title>Node21&#45;&gt;Node22</title>
<path fill="none" stroke="midnightblue" d="M909.826,-112.083C910.481,-105.006 911.42,-94.8611 912.242,-85.9865"/>
<polygon fill="midnightblue" stroke="midnightblue" points="915.753,-86.0312 913.19,-75.7511 908.783,-85.3858 915.753,-86.0312"/>
</g>
<!-- Node23 -->
<g id="node23" class="node"><title>Node23</title>
<g id="a_node23"><a xlink:href="blitz_8hh.html" target="_top" xlink:title="blitz.hh">
<polygon fill="none" stroke="black" points="818,-56.5 818,-75.5 866,-75.5 866,-56.5 818,-56.5"/>
<text text-anchor="middle" x="842" y="-63.5" font-family="Helvetica,sans-Serif" font-size="10.00">blitz.hh</text>
</a>
</g>
</g>
<!-- Node21&#45;&gt;Node23 -->
<g id="edge37" class="edge"><title>Node21&#45;&gt;Node23</title>
<path fill="none" stroke="midnightblue" d="M898.235,-112.324C888.234,-104.263 873.113,-92.0765 861.07,-82.3695"/>
<polygon fill="midnightblue" stroke="midnightblue" points="862.943,-79.3841 852.961,-75.8339 858.55,-84.8343 862.943,-79.3841"/>
</g>
<!-- Node23&#45;&gt;Node9 -->
<g id="edge38" class="edge"><title>Node23&#45;&gt;Node9</title>
<path fill="none" stroke="midnightblue" d="M817.967,-62.0967C742.841,-53.0211 512.369,-25.1788 427.131,-14.8816"/>
<polygon fill="midnightblue" stroke="midnightblue" points="427.362,-11.3841 417.014,-13.6594 426.522,-18.3336 427.362,-11.3841"/>
</g>
<!-- Node23&#45;&gt;Node13 -->
<g id="edge40" class="edge"><title>Node23&#45;&gt;Node13</title>
<path fill="none" stroke="midnightblue" d="M866.082,-58.3449C869.403,-57.5094 872.778,-56.7027 876,-56 951.6,-39.5104 1040.59,-25.2548 1092.7,-17.4214"/>
<polygon fill="midnightblue" stroke="midnightblue" points="1093.24,-20.8795 1102.61,-15.9416 1092.2,-13.9562 1093.24,-20.8795"/>
</g>
<!-- Node24 -->
<g id="node24" class="node"><title>Node24</title>
<polygon fill="none" stroke="#bfbfbf" points="814,-0.5 814,-19.5 870,-19.5 870,-0.5 814,-0.5"/>
<text text-anchor="middle" x="842" y="-7.5" font-family="Helvetica,sans-Serif" font-size="10.00">algorithm</text>
</g>
<!-- Node23&#45;&gt;Node24 -->
<g id="edge39" class="edge"><title>Node23&#45;&gt;Node24</title>
<path fill="none" stroke="midnightblue" d="M842,-56.083C842,-49.0059 842,-38.8611 842,-29.9865"/>
<polygon fill="midnightblue" stroke="midnightblue" points="845.5,-29.751 842,-19.7511 838.5,-29.7511 845.5,-29.751"/>
</g>
</g>
</svg>
