<?xml version="1.0" encoding="UTF-8" standalone="no"?>
<!DOCTYPE svg PUBLIC "-//W3C//DTD SVG 1.1//EN"
 "http://www.w3.org/Graphics/SVG/1.1/DTD/svg11.dtd">
<!-- Generated by graphviz version 2.40.1 (20161225.0304)
 -->
<!-- Title: src/opencl/opencl.hh Pages: 1 -->
<svg width="115pt" height="140pt"
 viewBox="0.00 0.00 115.00 140.00" xmlns="http://www.w3.org/2000/svg" xmlns:xlink="http://www.w3.org/1999/xlink">
<g id="graph0" class="graph" transform="scale(1 1) rotate(0) translate(4 136)">
<title>src/opencl/opencl.hh</title>
<!-- Node0 -->
<g id="node1" class="node">
<title>Node0</title>
<polygon fill="#bfbfbf" stroke="#000000" points="0,-112.5 0,-131.5 107,-131.5 107,-112.5 0,-112.5"/>
<text text-anchor="middle" x="53.5" y="-119.5" font-family="Helvetica,sans-Serif" font-size="10.00" fill="#000000">src/opencl/opencl.hh</text>
</g>
<!-- Node1 -->
<g id="node2" class="node">
<title>Node1</title>
<g id="a_node2"><a xlink:href="cl_8hh_source.html" target="_top" xlink:title="cl.hh">
<polygon fill="none" stroke="#000000" points="34.5,-56.5 34.5,-75.5 72.5,-75.5 72.5,-56.5 34.5,-56.5"/>
<text text-anchor="middle" x="53.5" y="-63.5" font-family="Helvetica,sans-Serif" font-size="10.00" fill="#000000">cl.hh</text>
</a>
</g>
</g>
<!-- Node0&#45;&gt;Node1 -->
<g id="edge1" class="edge">
<title>Node0&#45;&gt;Node1</title>
<path fill="none" stroke="#191970" d="M53.5,-112.2455C53.5,-104.9382 53.5,-94.6944 53.5,-85.7046"/>
<polygon fill="#191970" stroke="#191970" points="57.0001,-85.6426 53.5,-75.6427 50.0001,-85.6427 57.0001,-85.6426"/>
</g>
<!-- Node2 -->
<g id="node3" class="node">
<title>Node2</title>
<polygon fill="none" stroke="#bfbfbf" points="24,-.5 24,-19.5 83,-19.5 83,-.5 24,-.5"/>
<text text-anchor="middle" x="53.5" y="-7.5" font-family="Helvetica,sans-Serif" font-size="10.00" fill="#000000">CL/cl.hpp</text>
</g>
<!-- Node1&#45;&gt;Node2 -->
<g id="edge2" class="edge">
<title>Node1&#45;&gt;Node2</title>
<path fill="none" stroke="#191970" d="M53.5,-56.2455C53.5,-48.9382 53.5,-38.6944 53.5,-29.7046"/>
<polygon fill="#191970" stroke="#191970" points="57.0001,-29.6426 53.5,-19.6427 50.0001,-29.6427 57.0001,-29.6426"/>
</g>
</g>
</svg>
