<?xml version="1.0" encoding="UTF-8" standalone="no"?>
<!DOCTYPE svg PUBLIC "-//W3C//DTD SVG 1.1//EN"
 "http://www.w3.org/Graphics/SVG/1.1/DTD/svg11.dtd">
<!-- Generated by graphviz version 2.36.0 (20140111.2315)
 -->
<!-- Title: /home/travis/build/igankevich/arma/src/output_flags.cc Pages: 1 -->
<svg width="645pt" height="162pt"
 viewBox="0.00 0.00 645.00 162.00" xmlns="http://www.w3.org/2000/svg" xmlns:xlink="http://www.w3.org/1999/xlink">
<g id="graph0" class="graph" transform="scale(1 1) rotate(0) translate(4 158)">
<title>/home/travis/build/igankevich/arma/src/output_flags.cc</title>
<!-- Node1 -->
<g id="node1" class="node"><title>Node1</title>
<polygon fill="#bfbfbf" stroke="black" points="356.5,-112.5 356.5,-153.5 463.5,-153.5 463.5,-112.5 356.5,-112.5"/>
<text text-anchor="start" x="364.5" y="-141.5" font-family="Helvetica,sans-Serif" font-size="10.00">/home/travis/build</text>
<text text-anchor="start" x="364.5" y="-130.5" font-family="Helvetica,sans-Serif" font-size="10.00">/igankevich/arma/src</text>
<text text-anchor="middle" x="410" y="-119.5" font-family="Helvetica,sans-Serif" font-size="10.00">/output_flags.cc</text>
</g>
<!-- Node2 -->
<g id="node2" class="node"><title>Node2</title>
<g id="a_node2"><a xlink:href="output__flags_8hh.html" target="_top" xlink:title="output_flags.hh">
<polygon fill="none" stroke="black" points="133.5,-56.5 133.5,-75.5 216.5,-75.5 216.5,-56.5 133.5,-56.5"/>
<text text-anchor="middle" x="175" y="-63.5" font-family="Helvetica,sans-Serif" font-size="10.00">output_flags.hh</text>
</a>
</g>
</g>
<!-- Node1&#45;&gt;Node2 -->
<g id="edge1" class="edge"><title>Node1&#45;&gt;Node2</title>
<path fill="none" stroke="midnightblue" d="M356.381,-117.169C313.728,-105.372 254.94,-89.111 215.992,-78.3383"/>
<polygon fill="midnightblue" stroke="midnightblue" points="216.623,-74.8815 206.052,-75.5889 214.757,-81.6282 216.623,-74.8815"/>
</g>
<!-- Node7 -->
<g id="node7" class="node"><title>Node7</title>
<polygon fill="none" stroke="#bfbfbf" points="277.5,-0.5 277.5,-19.5 318.5,-19.5 318.5,-0.5 277.5,-0.5"/>
<text text-anchor="middle" x="298" y="-7.5" font-family="Helvetica,sans-Serif" font-size="10.00">string</text>
</g>
<!-- Node1&#45;&gt;Node7 -->
<g id="edge9" class="edge"><title>Node1&#45;&gt;Node7</title>
<path fill="none" stroke="midnightblue" d="M356.327,-118.226C334.68,-109.769 311.83,-96.4888 299,-76 290.398,-62.2632 291.132,-43.4834 293.435,-29.6415"/>
<polygon fill="midnightblue" stroke="midnightblue" points="296.875,-30.291 295.47,-19.7898 290.019,-28.8752 296.875,-30.291"/>
</g>
<!-- Node8 -->
<g id="node8" class="node"><title>Node8</title>
<polygon fill="none" stroke="#bfbfbf" points="308,-56.5 308,-75.5 362,-75.5 362,-56.5 308,-56.5"/>
<text text-anchor="middle" x="335" y="-63.5" font-family="Helvetica,sans-Serif" font-size="10.00">iostream</text>
</g>
<!-- Node1&#45;&gt;Node8 -->
<g id="edge7" class="edge"><title>Node1&#45;&gt;Node8</title>
<path fill="none" stroke="midnightblue" d="M387.498,-112.498C376.33,-102.82 363.039,-91.3002 352.624,-82.274"/>
<polygon fill="midnightblue" stroke="midnightblue" points="354.833,-79.5569 344.984,-75.6525 350.248,-84.8468 354.833,-79.5569"/>
</g>
<!-- Node9 -->
<g id="node9" class="node"><title>Node9</title>
<polygon fill="none" stroke="#bfbfbf" points="380.5,-56.5 380.5,-75.5 439.5,-75.5 439.5,-56.5 380.5,-56.5"/>
<text text-anchor="middle" x="410" y="-63.5" font-family="Helvetica,sans-Serif" font-size="10.00">stdexcept</text>
</g>
<!-- Node1&#45;&gt;Node9 -->
<g id="edge8" class="edge"><title>Node1&#45;&gt;Node9</title>
<path fill="none" stroke="midnightblue" d="M410,-112.498C410,-104.065 410,-94.2351 410,-85.874"/>
<polygon fill="midnightblue" stroke="midnightblue" points="413.5,-85.6525 410,-75.6525 406.5,-85.6525 413.5,-85.6525"/>
</g>
<!-- Node10 -->
<g id="node10" class="node"><title>Node10</title>
<polygon fill="none" stroke="#bfbfbf" points="458,-56.5 458,-75.5 496,-75.5 496,-56.5 458,-56.5"/>
<text text-anchor="middle" x="477" y="-63.5" font-family="Helvetica,sans-Serif" font-size="10.00">array</text>
</g>
<!-- Node1&#45;&gt;Node10 -->
<g id="edge10" class="edge"><title>Node1&#45;&gt;Node10</title>
<path fill="none" stroke="midnightblue" d="M430.102,-112.498C439.881,-103.011 451.483,-91.7557 460.7,-82.8131"/>
<polygon fill="midnightblue" stroke="midnightblue" points="463.341,-85.1277 468.081,-75.6525 458.467,-80.1036 463.341,-85.1277"/>
</g>
<!-- Node11 -->
<g id="node11" class="node"><title>Node11</title>
<polygon fill="none" stroke="#bfbfbf" points="514,-56.5 514,-75.5 570,-75.5 570,-56.5 514,-56.5"/>
<text text-anchor="middle" x="542" y="-63.5" font-family="Helvetica,sans-Serif" font-size="10.00">algorithm</text>
</g>
<!-- Node1&#45;&gt;Node11 -->
<g id="edge11" class="edge"><title>Node1&#45;&gt;Node11</title>
<path fill="none" stroke="midnightblue" d="M449.604,-112.498C470.815,-102.053 496.381,-89.4638 515.238,-80.1782"/>
<polygon fill="midnightblue" stroke="midnightblue" points="517.004,-83.2102 524.429,-75.6525 513.911,-76.9303 517.004,-83.2102"/>
</g>
<!-- Node12 -->
<g id="node12" class="node"><title>Node12</title>
<polygon fill="none" stroke="#bfbfbf" points="588.5,-56.5 588.5,-75.5 637.5,-75.5 637.5,-56.5 588.5,-56.5"/>
<text text-anchor="middle" x="613" y="-63.5" font-family="Helvetica,sans-Serif" font-size="10.00">cassert</text>
</g>
<!-- Node1&#45;&gt;Node12 -->
<g id="edge12" class="edge"><title>Node1&#45;&gt;Node12</title>
<path fill="none" stroke="midnightblue" d="M463.601,-114.837C500.064,-103.162 547.227,-88.0604 578.714,-77.9784"/>
<polygon fill="midnightblue" stroke="midnightblue" points="579.896,-81.2749 588.352,-74.8921 577.761,-74.6084 579.896,-81.2749"/>
</g>
<!-- Node3 -->
<g id="node3" class="node"><title>Node3</title>
<polygon fill="none" stroke="#bfbfbf" points="-0.5,-0.5 -0.5,-19.5 48.5,-19.5 48.5,-0.5 -0.5,-0.5"/>
<text text-anchor="middle" x="24" y="-7.5" font-family="Helvetica,sans-Serif" font-size="10.00">istream</text>
</g>
<!-- Node2&#45;&gt;Node3 -->
<g id="edge2" class="edge"><title>Node2&#45;&gt;Node3</title>
<path fill="none" stroke="midnightblue" d="M151.074,-56.4435C125.781,-47.3986 85.6976,-33.064 57.3202,-22.9158"/>
<polygon fill="midnightblue" stroke="midnightblue" points="58.4091,-19.5882 47.8145,-19.5164 56.0519,-26.1794 58.4091,-19.5882"/>
</g>
<!-- Node4 -->
<g id="node4" class="node"><title>Node4</title>
<polygon fill="none" stroke="#bfbfbf" points="67,-0.5 67,-19.5 119,-19.5 119,-0.5 67,-0.5"/>
<text text-anchor="middle" x="93" y="-7.5" font-family="Helvetica,sans-Serif" font-size="10.00">ostream</text>
</g>
<!-- Node2&#45;&gt;Node4 -->
<g id="edge3" class="edge"><title>Node2&#45;&gt;Node4</title>
<path fill="none" stroke="midnightblue" d="M161.825,-56.324C149.153,-47.979 129.767,-35.2122 114.794,-25.3524"/>
<polygon fill="midnightblue" stroke="midnightblue" points="116.419,-22.2313 106.142,-19.6545 112.569,-28.0776 116.419,-22.2313"/>
</g>
<!-- Node5 -->
<g id="node5" class="node"><title>Node5</title>
<polygon fill="none" stroke="#bfbfbf" points="137.5,-0.5 137.5,-19.5 178.5,-19.5 178.5,-0.5 137.5,-0.5"/>
<text text-anchor="middle" x="158" y="-7.5" font-family="Helvetica,sans-Serif" font-size="10.00">bitset</text>
</g>
<!-- Node2&#45;&gt;Node5 -->
<g id="edge4" class="edge"><title>Node2&#45;&gt;Node5</title>
<path fill="none" stroke="midnightblue" d="M172.193,-56.083C169.915,-48.8486 166.629,-38.4087 163.792,-29.3968"/>
<polygon fill="midnightblue" stroke="midnightblue" points="167.096,-28.2385 160.755,-19.7511 160.419,-30.3406 167.096,-28.2385"/>
</g>
<!-- Node6 -->
<g id="node6" class="node"><title>Node6</title>
<polygon fill="none" stroke="#bfbfbf" points="197,-0.5 197,-19.5 259,-19.5 259,-0.5 197,-0.5"/>
<text text-anchor="middle" x="228" y="-7.5" font-family="Helvetica,sans-Serif" font-size="10.00">type_traits</text>
</g>
<!-- Node2&#45;&gt;Node6 -->
<g id="edge5" class="edge"><title>Node2&#45;&gt;Node6</title>
<path fill="none" stroke="midnightblue" d="M183.752,-56.083C191.47,-48.2195 202.905,-36.5688 212.217,-27.0813"/>
<polygon fill="midnightblue" stroke="midnightblue" points="214.904,-29.3396 219.411,-19.7511 209.908,-24.4363 214.904,-29.3396"/>
</g>
<!-- Node2&#45;&gt;Node7 -->
<g id="edge6" class="edge"><title>Node2&#45;&gt;Node7</title>
<path fill="none" stroke="midnightblue" d="M194.49,-56.4435C214.642,-47.5961 246.323,-33.6875 269.331,-23.5865"/>
<polygon fill="midnightblue" stroke="midnightblue" points="270.852,-26.7411 278.601,-19.5164 268.038,-20.3316 270.852,-26.7411"/>
</g>
</g>
</svg>
