<?xml version="1.0" encoding="UTF-8" standalone="no"?>
<!DOCTYPE svg PUBLIC "-//W3C//DTD SVG 1.1//EN"
 "http://www.w3.org/Graphics/SVG/1.1/DTD/svg11.dtd">
<!-- Generated by graphviz version 2.40.1 (20161225.0304)
 -->
<!-- Title: src/output_flags.hh Pages: 1 -->
<svg width="327pt" height="84pt"
 viewBox="0.00 0.00 326.50 84.00" xmlns="http://www.w3.org/2000/svg" xmlns:xlink="http://www.w3.org/1999/xlink">
<g id="graph0" class="graph" transform="scale(1 1) rotate(0) translate(4 80)">
<title>src/output_flags.hh</title>
<!-- Node0 -->
<g id="node1" class="node">
<title>Node0</title>
<polygon fill="#bfbfbf" stroke="#000000" points="102.5,-56.5 102.5,-75.5 202.5,-75.5 202.5,-56.5 102.5,-56.5"/>
<text text-anchor="middle" x="152.5" y="-63.5" font-family="Helvetica,sans-Serif" font-size="10.00" fill="#000000">src/output_flags.hh</text>
</g>
<!-- Node1 -->
<g id="node2" class="node">
<title>Node1</title>
<polygon fill="none" stroke="#bfbfbf" points="0,-.5 0,-19.5 41,-19.5 41,-.5 0,-.5"/>
<text text-anchor="middle" x="20.5" y="-7.5" font-family="Helvetica,sans-Serif" font-size="10.00" fill="#000000">bitset</text>
</g>
<!-- Node0&#45;&gt;Node1 -->
<g id="edge1" class="edge">
<title>Node0&#45;&gt;Node1</title>
<path fill="none" stroke="#191970" d="M129.8084,-56.3733C107.9106,-47.0833 74.625,-32.9621 50.5383,-22.7435"/>
<polygon fill="#191970" stroke="#191970" points="51.7329,-19.4484 41.1601,-18.7649 48.999,-25.8925 51.7329,-19.4484"/>
</g>
<!-- Node2 -->
<g id="node3" class="node">
<title>Node2</title>
<polygon fill="none" stroke="#bfbfbf" points="59,-.5 59,-19.5 108,-19.5 108,-.5 59,-.5"/>
<text text-anchor="middle" x="83.5" y="-7.5" font-family="Helvetica,sans-Serif" font-size="10.00" fill="#000000">istream</text>
</g>
<!-- Node0&#45;&gt;Node2 -->
<g id="edge2" class="edge">
<title>Node0&#45;&gt;Node2</title>
<path fill="none" stroke="#191970" d="M140.4811,-56.2455C130.2902,-47.9746 115.4638,-35.9416 103.4893,-26.2232"/>
<polygon fill="#191970" stroke="#191970" points="105.3514,-23.2268 95.3812,-19.6427 100.9402,-28.662 105.3514,-23.2268"/>
</g>
<!-- Node3 -->
<g id="node4" class="node">
<title>Node3</title>
<polygon fill="none" stroke="#bfbfbf" points="126.5,-.5 126.5,-19.5 178.5,-19.5 178.5,-.5 126.5,-.5"/>
<text text-anchor="middle" x="152.5" y="-7.5" font-family="Helvetica,sans-Serif" font-size="10.00" fill="#000000">ostream</text>
</g>
<!-- Node0&#45;&gt;Node3 -->
<g id="edge3" class="edge">
<title>Node0&#45;&gt;Node3</title>
<path fill="none" stroke="#191970" d="M152.5,-56.2455C152.5,-48.9382 152.5,-38.6944 152.5,-29.7046"/>
<polygon fill="#191970" stroke="#191970" points="156.0001,-29.6426 152.5,-19.6427 149.0001,-29.6427 156.0001,-29.6426"/>
</g>
<!-- Node4 -->
<g id="node5" class="node">
<title>Node4</title>
<polygon fill="none" stroke="#bfbfbf" points="197,-.5 197,-19.5 238,-19.5 238,-.5 197,-.5"/>
<text text-anchor="middle" x="217.5" y="-7.5" font-family="Helvetica,sans-Serif" font-size="10.00" fill="#000000">string</text>
</g>
<!-- Node0&#45;&gt;Node4 -->
<g id="edge4" class="edge">
<title>Node0&#45;&gt;Node4</title>
<path fill="none" stroke="#191970" d="M163.8221,-56.2455C173.4223,-47.9746 187.3892,-35.9416 198.6695,-26.2232"/>
<polygon fill="#191970" stroke="#191970" points="201.016,-28.8214 206.3076,-19.6427 196.447,-23.5182 201.016,-28.8214"/>
</g>
<!-- Node5 -->
<g id="node6" class="node">
<title>Node5</title>
<polygon fill="none" stroke="#bfbfbf" points="256.5,-.5 256.5,-19.5 318.5,-19.5 318.5,-.5 256.5,-.5"/>
<text text-anchor="middle" x="287.5" y="-7.5" font-family="Helvetica,sans-Serif" font-size="10.00" fill="#000000">type_traits</text>
</g>
<!-- Node0&#45;&gt;Node5 -->
<g id="edge5" class="edge">
<title>Node0&#45;&gt;Node5</title>
<path fill="none" stroke="#191970" d="M175.7073,-56.3733C197.6699,-47.2629 230.8332,-33.5062 255.3401,-23.3404"/>
<polygon fill="#191970" stroke="#191970" points="256.6997,-26.5657 264.5955,-19.5011 254.0176,-20.0999 256.6997,-26.5657"/>
</g>
</g>
</svg>
