<?xml version="1.0" encoding="UTF-8" standalone="no"?>
<!DOCTYPE svg PUBLIC "-//W3C//DTD SVG 1.1//EN"
 "http://www.w3.org/Graphics/SVG/1.1/DTD/svg11.dtd">
<!-- Generated by graphviz version 2.36.0 (20140111.2315)
 -->
<!-- Title: /home/travis/build/igankevich/arma/src/apmath/owen_t.cc Pages: 1 -->
<svg width="214pt" height="162pt"
 viewBox="0.00 0.00 213.81 162.00" xmlns="http://www.w3.org/2000/svg" xmlns:xlink="http://www.w3.org/1999/xlink">
<g id="graph0" class="graph" transform="scale(1 1) rotate(0) translate(4 158)">
<title>/home/travis/build/igankevich/arma/src/apmath/owen_t.cc</title>
<!-- Node1 -->
<g id="node1" class="node"><title>Node1</title>
<polygon fill="#bfbfbf" stroke="black" points="83.5,-112.5 83.5,-153.5 190.5,-153.5 190.5,-112.5 83.5,-112.5"/>
<text text-anchor="start" x="91.5" y="-141.5" font-family="Helvetica,sans-Serif" font-size="10.00">/home/travis/build</text>
<text text-anchor="start" x="91.5" y="-130.5" font-family="Helvetica,sans-Serif" font-size="10.00">/igankevich/arma/src</text>
<text text-anchor="middle" x="137" y="-119.5" font-family="Helvetica,sans-Serif" font-size="10.00">/apmath/owen_t.cc</text>
</g>
<!-- Node2 -->
<g id="node2" class="node"><title>Node2</title>
<g id="a_node2"><a xlink:href="owen__t_8hh.html" target="_top" xlink:title="owen_t.hh">
<polygon fill="none" stroke="black" points="0,-56.5 0,-75.5 62,-75.5 62,-56.5 0,-56.5"/>
<text text-anchor="middle" x="31" y="-63.5" font-family="Helvetica,sans-Serif" font-size="10.00">owen_t.hh</text>
</a>
</g>
</g>
<!-- Node1&#45;&gt;Node2 -->
<g id="edge1" class="edge"><title>Node1&#45;&gt;Node2</title>
<path fill="none" stroke="midnightblue" d="M105.197,-112.498C88.6322,-102.34 68.7607,-90.1551 53.753,-80.9523"/>
<polygon fill="midnightblue" stroke="midnightblue" points="55.4647,-77.8963 45.1102,-75.6525 51.8054,-83.8637 55.4647,-77.8963"/>
</g>
<!-- Node3 -->
<g id="node3" class="node"><title>Node3</title>
<g id="a_node3"><a xlink:href="physical__constants_8hh.html" target="_top" xlink:title="physical_constants.hh">
<polygon fill="none" stroke="black" points="80,-56.5 80,-75.5 194,-75.5 194,-56.5 80,-56.5"/>
<text text-anchor="middle" x="137" y="-63.5" font-family="Helvetica,sans-Serif" font-size="10.00">physical_constants.hh</text>
</a>
</g>
</g>
<!-- Node1&#45;&gt;Node3 -->
<g id="edge2" class="edge"><title>Node1&#45;&gt;Node3</title>
<path fill="none" stroke="midnightblue" d="M137,-112.498C137,-104.065 137,-94.2351 137,-85.874"/>
<polygon fill="midnightblue" stroke="midnightblue" points="140.5,-85.6525 137,-75.6525 133.5,-85.6525 140.5,-85.6525"/>
</g>
<!-- Node4 -->
<g id="node4" class="node"><title>Node4</title>
<polygon fill="none" stroke="#bfbfbf" points="157,-0.5 157,-19.5 201,-19.5 201,-0.5 157,-0.5"/>
<text text-anchor="middle" x="179" y="-7.5" font-family="Helvetica,sans-Serif" font-size="10.00">cmath</text>
</g>
<!-- Node1&#45;&gt;Node4 -->
<g id="edge4" class="edge"><title>Node1&#45;&gt;Node4</title>
<path fill="none" stroke="midnightblue" d="M170.835,-112.258C183.37,-102.995 196.182,-90.7275 203,-76 210.391,-60.035 201.505,-41.0972 192.526,-27.7937"/>
<polygon fill="midnightblue" stroke="midnightblue" points="195.238,-25.5734 186.495,-19.5895 189.598,-29.7197 195.238,-25.5734"/>
</g>
<!-- Node3&#45;&gt;Node4 -->
<g id="edge3" class="edge"><title>Node3&#45;&gt;Node4</title>
<path fill="none" stroke="midnightblue" d="M143.935,-56.083C149.929,-48.3768 158.752,-37.0333 166.048,-27.6531"/>
<polygon fill="midnightblue" stroke="midnightblue" points="168.817,-29.7934 172.194,-19.7511 163.291,-25.4958 168.817,-29.7934"/>
</g>
</g>
</svg>
