<?xml version="1.0" encoding="UTF-8" standalone="no"?>
<!DOCTYPE svg PUBLIC "-//W3C//DTD SVG 1.1//EN"
 "http://www.w3.org/Graphics/SVG/1.1/DTD/svg11.dtd">
<!-- Generated by graphviz version 2.40.1 (20161225.0304)
 -->
<!-- Title: src/parallel_mt.cc Pages: 1 -->
<svg width="833pt" height="140pt"
 viewBox="0.00 0.00 833.00 140.00" xmlns="http://www.w3.org/2000/svg" xmlns:xlink="http://www.w3.org/1999/xlink">
<g id="graph0" class="graph" transform="scale(1 1) rotate(0) translate(4 136)">
<title>src/parallel_mt.cc</title>
<!-- Node0 -->
<g id="node1" class="node">
<title>Node0</title>
<polygon fill="#bfbfbf" stroke="#000000" points="648.5,-112.5 648.5,-131.5 742.5,-131.5 742.5,-112.5 648.5,-112.5"/>
<text text-anchor="middle" x="695.5" y="-119.5" font-family="Helvetica,sans-Serif" font-size="10.00" fill="#000000">src/parallel_mt.cc</text>
</g>
<!-- Node1 -->
<g id="node2" class="node">
<title>Node1</title>
<g id="a_node2"><a xlink:href="parallel__mt_8hh.html" target="_top" xlink:title="parallel_mt.hh">
<polygon fill="none" stroke="#000000" points="368,-56.5 368,-75.5 445,-75.5 445,-56.5 368,-56.5"/>
<text text-anchor="middle" x="406.5" y="-63.5" font-family="Helvetica,sans-Serif" font-size="10.00" fill="#000000">parallel_mt.hh</text>
</a>
</g>
</g>
<!-- Node0&#45;&gt;Node1 -->
<g id="edge1" class="edge">
<title>Node0&#45;&gt;Node1</title>
<path fill="none" stroke="#191970" d="M648.424,-112.878C595.2318,-102.5709 509.0715,-85.8754 455.2137,-75.4393"/>
<polygon fill="#191970" stroke="#191970" points="455.7036,-71.9692 445.2204,-73.5029 454.372,-78.8414 455.7036,-71.9692"/>
</g>
<!-- Node12 -->
<g id="node13" class="node">
<title>Node12</title>
<polygon fill="none" stroke="#bfbfbf" points="640.5,-.5 640.5,-19.5 686.5,-19.5 686.5,-.5 640.5,-.5"/>
<text text-anchor="middle" x="663.5" y="-7.5" font-family="Helvetica,sans-Serif" font-size="10.00" fill="#000000">chrono</text>
</g>
<!-- Node0&#45;&gt;Node12 -->
<g id="edge18" class="edge">
<title>Node0&#45;&gt;Node12</title>
<path fill="none" stroke="#191970" d="M692.7717,-112.4509C687.5289,-94.1013 675.9545,-53.5908 669.0341,-29.3693"/>
<polygon fill="#191970" stroke="#191970" points="672.334,-28.1786 666.2214,-19.5249 665.6033,-30.1017 672.334,-28.1786"/>
</g>
<!-- Node14 -->
<g id="node15" class="node">
<title>Node14</title>
<g id="a_node15"><a xlink:href="errors_8hh.html" target="_top" xlink:title="errors.hh">
<polygon fill="none" stroke="#000000" points="703,-56.5 703,-75.5 758,-75.5 758,-56.5 703,-56.5"/>
<text text-anchor="middle" x="730.5" y="-63.5" font-family="Helvetica,sans-Serif" font-size="10.00" fill="#000000">errors.hh</text>
</a>
</g>
</g>
<!-- Node0&#45;&gt;Node14 -->
<g id="edge14" class="edge">
<title>Node0&#45;&gt;Node14</title>
<path fill="none" stroke="#191970" d="M701.5965,-112.2455C706.4145,-104.5367 713.2751,-93.5598 719.1032,-84.2348"/>
<polygon fill="#191970" stroke="#191970" points="722.1413,-85.9777 724.4733,-75.6427 716.2053,-82.2677 722.1413,-85.9777"/>
</g>
<!-- Node16 -->
<g id="node17" class="node">
<title>Node16</title>
<polygon fill="none" stroke="#bfbfbf" points="776,-56.5 776,-75.5 825,-75.5 825,-56.5 776,-56.5"/>
<text text-anchor="middle" x="800.5" y="-63.5" font-family="Helvetica,sans-Serif" font-size="10.00" fill="#000000">random</text>
</g>
<!-- Node0&#45;&gt;Node16 -->
<g id="edge17" class="edge">
<title>Node0&#45;&gt;Node16</title>
<path fill="none" stroke="#191970" d="M713.7896,-112.2455C730.2762,-103.4527 754.7352,-90.4079 773.4765,-80.4125"/>
<polygon fill="#191970" stroke="#191970" points="775.2435,-83.4368 782.42,-75.6427 771.9494,-77.2604 775.2435,-83.4368"/>
</g>
<!-- Node2 -->
<g id="node3" class="node">
<title>Node2</title>
<polygon fill="none" stroke="#bfbfbf" points="53,-.5 53,-19.5 98,-19.5 98,-.5 53,-.5"/>
<text text-anchor="middle" x="75.5" y="-7.5" font-family="Helvetica,sans-Serif" font-size="10.00" fill="#000000">cstdlib</text>
</g>
<!-- Node1&#45;&gt;Node2 -->
<g id="edge2" class="edge">
<title>Node1&#45;&gt;Node2</title>
<path fill="none" stroke="#191970" d="M367.9176,-61.9425C312.4627,-55.7022 206.9347,-42.3061 107.9723,-19.8054"/>
<polygon fill="#191970" stroke="#191970" points="108.6412,-16.3678 98.11,-17.5272 107.0657,-23.1882 108.6412,-16.3678"/>
</g>
<!-- Node3 -->
<g id="node4" class="node">
<title>Node3</title>
<polygon fill="none" stroke="#bfbfbf" points="116.5,-.5 116.5,-19.5 172.5,-19.5 172.5,-.5 116.5,-.5"/>
<text text-anchor="middle" x="144.5" y="-7.5" font-family="Helvetica,sans-Serif" font-size="10.00" fill="#000000">algorithm</text>
</g>
<!-- Node1&#45;&gt;Node3 -->
<g id="edge3" class="edge">
<title>Node1&#45;&gt;Node3</title>
<path fill="none" stroke="#191970" d="M367.72,-58.8328C324.772,-50.7272 253.2706,-36.7371 182.6862,-20.1787"/>
<polygon fill="#191970" stroke="#191970" points="183.2727,-16.721 172.7356,-17.8256 181.6617,-23.5331 183.2727,-16.721"/>
</g>
<!-- Node4 -->
<g id="node5" class="node">
<title>Node4</title>
<polygon fill="none" stroke="#bfbfbf" points="190.5,-.5 190.5,-19.5 236.5,-19.5 236.5,-.5 190.5,-.5"/>
<text text-anchor="middle" x="213.5" y="-7.5" font-family="Helvetica,sans-Serif" font-size="10.00" fill="#000000">cstdint</text>
</g>
<!-- Node1&#45;&gt;Node4 -->
<g id="edge4" class="edge">
<title>Node1&#45;&gt;Node4</title>
<path fill="none" stroke="#191970" d="M372.195,-56.4621C341.5916,-47.8951 295.3254,-34.801 246.3736,-20.2142"/>
<polygon fill="#191970" stroke="#191970" points="247.1348,-16.7887 236.5513,-17.2778 245.1298,-23.4955 247.1348,-16.7887"/>
</g>
<!-- Node5 -->
<g id="node6" class="node">
<title>Node5</title>
<polygon fill="none" stroke="#bfbfbf" points="254.5,-.5 254.5,-19.5 300.5,-19.5 300.5,-.5 254.5,-.5"/>
<text text-anchor="middle" x="277.5" y="-7.5" font-family="Helvetica,sans-Serif" font-size="10.00" fill="#000000">cstring</text>
</g>
<!-- Node1&#45;&gt;Node5 -->
<g id="edge5" class="edge">
<title>Node1&#45;&gt;Node5</title>
<path fill="none" stroke="#191970" d="M384.3241,-56.3733C363.5234,-47.3435 332.2083,-33.7494 308.8542,-23.6111"/>
<polygon fill="#191970" stroke="#191970" points="309.9532,-20.2727 299.3865,-19.5011 307.1657,-26.6938 309.9532,-20.2727"/>
</g>
<!-- Node6 -->
<g id="node7" class="node">
<title>Node6</title>
<polygon fill="none" stroke="#bfbfbf" points="319,-.5 319,-19.5 368,-19.5 368,-.5 319,-.5"/>
<text text-anchor="middle" x="343.5" y="-7.5" font-family="Helvetica,sans-Serif" font-size="10.00" fill="#000000">istream</text>
</g>
<!-- Node1&#45;&gt;Node6 -->
<g id="edge6" class="edge">
<title>Node1&#45;&gt;Node6</title>
<path fill="none" stroke="#191970" d="M395.5262,-56.2455C386.3118,-48.0549 372.9468,-36.1749 362.0703,-26.5069"/>
<polygon fill="#191970" stroke="#191970" points="364.1474,-23.6704 354.348,-19.6427 359.4968,-28.9023 364.1474,-23.6704"/>
</g>
<!-- Node7 -->
<g id="node8" class="node">
<title>Node7</title>
<polygon fill="none" stroke="#bfbfbf" points="386.5,-.5 386.5,-19.5 426.5,-19.5 426.5,-.5 386.5,-.5"/>
<text text-anchor="middle" x="406.5" y="-7.5" font-family="Helvetica,sans-Serif" font-size="10.00" fill="#000000">limits</text>
</g>
<!-- Node1&#45;&gt;Node7 -->
<g id="edge7" class="edge">
<title>Node1&#45;&gt;Node7</title>
<path fill="none" stroke="#191970" d="M406.5,-56.2455C406.5,-48.9382 406.5,-38.6944 406.5,-29.7046"/>
<polygon fill="#191970" stroke="#191970" points="410.0001,-29.6426 406.5,-19.6427 403.0001,-29.6427 410.0001,-29.6426"/>
</g>
<!-- Node8 -->
<g id="node9" class="node">
<title>Node8</title>
<polygon fill="none" stroke="#bfbfbf" points="705,-.5 705,-19.5 764,-19.5 764,-.5 705,-.5"/>
<text text-anchor="middle" x="734.5" y="-7.5" font-family="Helvetica,sans-Serif" font-size="10.00" fill="#000000">stdexcept</text>
</g>
<!-- Node1&#45;&gt;Node8 -->
<g id="edge8" class="edge">
<title>Node1&#45;&gt;Node8</title>
<path fill="none" stroke="#191970" d="M445.0404,-61.0293C498.7921,-53.8422 599.4809,-39.4579 694.9413,-19.9579"/>
<polygon fill="#191970" stroke="#191970" points="695.6707,-23.3812 704.7561,-17.9308 694.2548,-16.5259 695.6707,-23.3812"/>
</g>
<!-- Node9 -->
<g id="node10" class="node">
<title>Node9</title>
<polygon fill="none" stroke="#bfbfbf" points="444.5,-.5 444.5,-19.5 488.5,-19.5 488.5,-.5 444.5,-.5"/>
<text text-anchor="middle" x="466.5" y="-7.5" font-family="Helvetica,sans-Serif" font-size="10.00" fill="#000000">vector</text>
</g>
<!-- Node1&#45;&gt;Node9 -->
<g id="edge9" class="edge">
<title>Node1&#45;&gt;Node9</title>
<path fill="none" stroke="#191970" d="M416.9512,-56.2455C425.7269,-48.0549 438.4554,-36.1749 448.814,-26.5069"/>
<polygon fill="#191970" stroke="#191970" points="451.2461,-29.0246 456.1686,-19.6427 446.4699,-23.9072 451.2461,-29.0246"/>
</g>
<!-- Node10 -->
<g id="node11" class="node">
<title>Node10</title>
<polygon fill="none" stroke="#bfbfbf" points="506.5,-.5 506.5,-19.5 556.5,-19.5 556.5,-.5 506.5,-.5"/>
<text text-anchor="middle" x="531.5" y="-7.5" font-family="Helvetica,sans-Serif" font-size="10.00" fill="#000000">fstream</text>
</g>
<!-- Node1&#45;&gt;Node10 -->
<g id="edge10" class="edge">
<title>Node1&#45;&gt;Node10</title>
<path fill="none" stroke="#191970" d="M427.9883,-56.3733C448.144,-47.3435 478.488,-33.7494 501.118,-23.6111"/>
<polygon fill="#191970" stroke="#191970" points="502.5971,-26.7838 510.2921,-19.5011 499.7351,-20.3955 502.5971,-26.7838"/>
</g>
<!-- Node11 -->
<g id="node12" class="node">
<title>Node11</title>
<polygon fill="none" stroke="#bfbfbf" points="575,-.5 575,-19.5 622,-19.5 622,-.5 575,-.5"/>
<text text-anchor="middle" x="598.5" y="-7.5" font-family="Helvetica,sans-Serif" font-size="10.00" fill="#000000">iterator</text>
</g>
<!-- Node1&#45;&gt;Node11 -->
<g id="edge11" class="edge">
<title>Node1&#45;&gt;Node11</title>
<path fill="none" stroke="#191970" d="M440.0365,-56.4305C470.2274,-47.7863 516.0608,-34.5909 564.9112,-20.1497"/>
<polygon fill="#191970" stroke="#191970" points="566.123,-23.4412 574.7177,-17.2458 564.1355,-16.7292 566.123,-23.4412"/>
</g>
<!-- Node1&#45;&gt;Node12 -->
<g id="edge12" class="edge">
<title>Node1&#45;&gt;Node12</title>
<path fill="none" stroke="#191970" d="M445.1919,-59.1698C490.0384,-50.9959 566.0426,-36.348 630.5,-20 630.6015,-19.9742 630.7032,-19.9484 630.8051,-19.9224"/>
<polygon fill="#191970" stroke="#191970" points="631.7782,-23.2848 640.4965,-17.2647 629.9269,-16.5341 631.7782,-23.2848"/>
</g>
<!-- Node13 -->
<g id="node14" class="node">
<title>Node13</title>
<polygon fill="none" stroke="#bfbfbf" points="0,-.5 0,-19.5 35,-19.5 35,-.5 0,-.5"/>
<text text-anchor="middle" x="17.5" y="-7.5" font-family="Helvetica,sans-Serif" font-size="10.00" fill="#000000">dc.h</text>
</g>
<!-- Node1&#45;&gt;Node13 -->
<g id="edge13" class="edge">
<title>Node1&#45;&gt;Node13</title>
<path fill="none" stroke="#191970" d="M367.7844,-64.1585C302.5605,-60.3982 166.7225,-49.7369 45.0699,-19.928"/>
<polygon fill="#191970" stroke="#191970" points="45.7698,-16.4952 35.2193,-17.4638 44.071,-23.286 45.7698,-16.4952"/>
</g>
<!-- Node14&#45;&gt;Node8 -->
<g id="edge15" class="edge">
<title>Node14&#45;&gt;Node8</title>
<path fill="none" stroke="#191970" d="M731.1967,-56.2455C731.7187,-48.9382 732.4504,-38.6944 733.0925,-29.7046"/>
<polygon fill="#191970" stroke="#191970" points="736.5898,-29.8667 733.8112,-19.6427 729.6076,-29.3679 736.5898,-29.8667"/>
</g>
<!-- Node15 -->
<g id="node16" class="node">
<title>Node15</title>
<polygon fill="none" stroke="#bfbfbf" points="782,-.5 782,-19.5 823,-19.5 823,-.5 782,-.5"/>
<text text-anchor="middle" x="802.5" y="-7.5" font-family="Helvetica,sans-Serif" font-size="10.00" fill="#000000">string</text>
</g>
<!-- Node14&#45;&gt;Node15 -->
<g id="edge16" class="edge">
<title>Node14&#45;&gt;Node15</title>
<path fill="none" stroke="#191970" d="M743.0414,-56.2455C753.7787,-47.8943 769.4473,-35.7076 782.0047,-25.9408"/>
<polygon fill="#191970" stroke="#191970" points="784.3575,-28.5449 790.1023,-19.6427 780.0599,-23.0194 784.3575,-28.5449"/>
</g>
</g>
</svg>
