<?xml version="1.0" encoding="UTF-8" standalone="no"?>
<!DOCTYPE svg PUBLIC "-//W3C//DTD SVG 1.1//EN"
 "http://www.w3.org/Graphics/SVG/1.1/DTD/svg11.dtd">
<!-- Generated by graphviz version 2.36.0 (20140111.2315)
 -->
<!-- Title: /home/travis/build/igankevich/arma/src/parallel_mt.hh Pages: 1 -->
<svg width="1085pt" height="566pt"
 viewBox="0.00 0.00 1085.00 566.00" xmlns="http://www.w3.org/2000/svg" xmlns:xlink="http://www.w3.org/1999/xlink">
<g id="graph0" class="graph" transform="scale(1 1) rotate(0) translate(4 562)">
<title>/home/travis/build/igankevich/arma/src/parallel_mt.hh</title>
<!-- Node1 -->
<g id="node1" class="node"><title>Node1</title>
<polygon fill="#bfbfbf" stroke="black" points="674.5,-516.5 674.5,-557.5 781.5,-557.5 781.5,-516.5 674.5,-516.5"/>
<text text-anchor="start" x="682.5" y="-545.5" font-family="Helvetica,sans-Serif" font-size="10.00">/home/travis/build</text>
<text text-anchor="start" x="682.5" y="-534.5" font-family="Helvetica,sans-Serif" font-size="10.00">/igankevich/arma/src</text>
<text text-anchor="middle" x="728" y="-523.5" font-family="Helvetica,sans-Serif" font-size="10.00">/parallel_mt.hh</text>
</g>
<!-- Node2 -->
<g id="node2" class="node"><title>Node2</title>
<g id="a_node2"><a xlink:href="basic__model_8hh.html" target="_top" xlink:title="/home/travis/build\l/igankevich/arma/src\l/generator/basic_model.hh">
<polygon fill="none" stroke="black" points="525.5,-438.5 525.5,-479.5 656.5,-479.5 656.5,-438.5 525.5,-438.5"/>
<text text-anchor="start" x="533.5" y="-467.5" font-family="Helvetica,sans-Serif" font-size="10.00">/home/travis/build</text>
<text text-anchor="start" x="533.5" y="-456.5" font-family="Helvetica,sans-Serif" font-size="10.00">/igankevich/arma/src</text>
<text text-anchor="middle" x="591" y="-445.5" font-family="Helvetica,sans-Serif" font-size="10.00">/generator/basic_model.hh</text>
</a>
</g>
</g>
<!-- Node1&#45;&gt;Node2 -->
<g id="edge1" class="edge"><title>Node1&#45;&gt;Node2</title>
<path fill="none" stroke="midnightblue" d="M683.81,-511.486C665.149,-501.134 643.722,-489.247 626.161,-479.506"/>
<polygon fill="midnightblue" stroke="midnightblue" points="682.277,-514.638 692.719,-516.428 685.672,-508.516 682.277,-514.638"/>
</g>
<!-- Node24 -->
<g id="node24" class="node"><title>Node24</title>
<g id="a_node24"><a xlink:href="dcmt_8cc.html" target="_top" xlink:title="/home/travis/build\l/igankevich/arma/src\l/dcmt.cc">
<polygon fill="none" stroke="black" points="674.5,-438.5 674.5,-479.5 781.5,-479.5 781.5,-438.5 674.5,-438.5"/>
<text text-anchor="start" x="682.5" y="-467.5" font-family="Helvetica,sans-Serif" font-size="10.00">/home/travis/build</text>
<text text-anchor="start" x="682.5" y="-456.5" font-family="Helvetica,sans-Serif" font-size="10.00">/igankevich/arma/src</text>
<text text-anchor="middle" x="728" y="-445.5" font-family="Helvetica,sans-Serif" font-size="10.00">/dcmt.cc</text>
</a>
</g>
</g>
<!-- Node1&#45;&gt;Node24 -->
<g id="edge31" class="edge"><title>Node1&#45;&gt;Node24</title>
<path fill="none" stroke="midnightblue" d="M728,-506.297C728,-497.301 728,-487.653 728,-479.506"/>
<polygon fill="midnightblue" stroke="midnightblue" points="724.5,-506.428 728,-516.428 731.5,-506.428 724.5,-506.428"/>
</g>
<!-- Node25 -->
<g id="node25" class="node"><title>Node25</title>
<g id="a_node25"><a xlink:href="ar__model__parallel_8cc.html" target="_top" xlink:title="/home/travis/build\l/igankevich/arma/src\l/generator/ar_model_parallel.cc">
<polygon fill="none" stroke="black" points="800,-438.5 800,-479.5 952,-479.5 952,-438.5 800,-438.5"/>
<text text-anchor="start" x="808" y="-467.5" font-family="Helvetica,sans-Serif" font-size="10.00">/home/travis/build</text>
<text text-anchor="start" x="808" y="-456.5" font-family="Helvetica,sans-Serif" font-size="10.00">/igankevich/arma/src</text>
<text text-anchor="middle" x="876" y="-445.5" font-family="Helvetica,sans-Serif" font-size="10.00">/generator/ar_model_parallel.cc</text>
</a>
</g>
</g>
<!-- Node1&#45;&gt;Node25 -->
<g id="edge32" class="edge"><title>Node1&#45;&gt;Node25</title>
<path fill="none" stroke="midnightblue" d="M775.19,-511.768C795.477,-501.35 818.872,-489.336 838.015,-479.506"/>
<polygon fill="midnightblue" stroke="midnightblue" points="773.411,-508.747 766.114,-516.428 776.608,-514.973 773.411,-508.747"/>
</g>
<!-- Node26 -->
<g id="node26" class="node"><title>Node26</title>
<g id="a_node26"><a xlink:href="parallel__mt_8cc.html" target="_top" xlink:title="/home/travis/build\l/igankevich/arma/src\l/parallel_mt.cc">
<polygon fill="none" stroke="black" points="970.5,-438.5 970.5,-479.5 1077.5,-479.5 1077.5,-438.5 970.5,-438.5"/>
<text text-anchor="start" x="978.5" y="-467.5" font-family="Helvetica,sans-Serif" font-size="10.00">/home/travis/build</text>
<text text-anchor="start" x="978.5" y="-456.5" font-family="Helvetica,sans-Serif" font-size="10.00">/igankevich/arma/src</text>
<text text-anchor="middle" x="1024" y="-445.5" font-family="Helvetica,sans-Serif" font-size="10.00">/parallel_mt.cc</text>
</a>
</g>
</g>
<!-- Node1&#45;&gt;Node26 -->
<g id="edge33" class="edge"><title>Node1&#45;&gt;Node26</title>
<path fill="none" stroke="midnightblue" d="M791.995,-521.917C838.985,-511.262 904.246,-495.807 961,-480 964.095,-479.138 967.267,-478.225 970.462,-477.283"/>
<polygon fill="midnightblue" stroke="midnightblue" points="790.94,-518.567 781.957,-524.183 792.482,-525.395 790.94,-518.567"/>
</g>
<!-- Node27 -->
<g id="node27" class="node"><title>Node27</title>
<g id="a_node27"><a xlink:href="white__noise_8hh.html" target="_top" xlink:title="/home/travis/build\l/igankevich/arma/src\l/white_noise.hh">
<polygon fill="none" stroke="black" points="407.5,-354.5 407.5,-395.5 514.5,-395.5 514.5,-354.5 407.5,-354.5"/>
<text text-anchor="start" x="415.5" y="-383.5" font-family="Helvetica,sans-Serif" font-size="10.00">/home/travis/build</text>
<text text-anchor="start" x="415.5" y="-372.5" font-family="Helvetica,sans-Serif" font-size="10.00">/igankevich/arma/src</text>
<text text-anchor="middle" x="461" y="-361.5" font-family="Helvetica,sans-Serif" font-size="10.00">/white_noise.hh</text>
</a>
</g>
</g>
<!-- Node1&#45;&gt;Node27 -->
<g id="edge34" class="edge"><title>Node1&#45;&gt;Node27</title>
<path fill="none" stroke="midnightblue" d="M664.288,-532.553C618.735,-527.133 558.261,-513.57 516,-480 488.652,-458.276 473.299,-419.171 466.119,-395.598"/>
<polygon fill="midnightblue" stroke="midnightblue" points="664.033,-536.046 674.353,-533.648 664.79,-529.087 664.033,-536.046"/>
</g>
<!-- Node3 -->
<g id="node3" class="node"><title>Node3</title>
<g id="a_node3"><a xlink:href="arma__driver_8hh.html" target="_top" xlink:title="/home/travis/build\l/igankevich/arma/src\l/arma_driver.hh">
<polygon fill="none" stroke="black" points="877.5,-174.5 877.5,-215.5 984.5,-215.5 984.5,-174.5 877.5,-174.5"/>
<text text-anchor="start" x="885.5" y="-203.5" font-family="Helvetica,sans-Serif" font-size="10.00">/home/travis/build</text>
<text text-anchor="start" x="885.5" y="-192.5" font-family="Helvetica,sans-Serif" font-size="10.00">/igankevich/arma/src</text>
<text text-anchor="middle" x="931" y="-181.5" font-family="Helvetica,sans-Serif" font-size="10.00">/arma_driver.hh</text>
</a>
</g>
</g>
<!-- Node2&#45;&gt;Node3 -->
<g id="edge2" class="edge"><title>Node2&#45;&gt;Node3</title>
<path fill="none" stroke="midnightblue" d="M632.853,-433.168C647.983,-423.802 665.019,-412.796 680,-402 768.269,-338.391 866.107,-253.607 908.916,-215.73"/>
<polygon fill="midnightblue" stroke="midnightblue" points="630.89,-430.267 624.196,-438.479 634.55,-436.234 630.89,-430.267"/>
</g>
<!-- Node9 -->
<g id="node9" class="node"><title>Node9</title>
<g id="a_node9"><a xlink:href="basic__arma__model_8hh.html" target="_top" xlink:title="/home/travis/build\l/igankevich/arma/src\l/generator/basic_arma\l_model.hh">
<polygon fill="none" stroke="black" points="229.5,-349 229.5,-401 342.5,-401 342.5,-349 229.5,-349"/>
<text text-anchor="start" x="237.5" y="-389" font-family="Helvetica,sans-Serif" font-size="10.00">/home/travis/build</text>
<text text-anchor="start" x="237.5" y="-378" font-family="Helvetica,sans-Serif" font-size="10.00">/igankevich/arma/src</text>
<text text-anchor="start" x="237.5" y="-367" font-family="Helvetica,sans-Serif" font-size="10.00">/generator/basic_arma</text>
<text text-anchor="middle" x="286" y="-356" font-family="Helvetica,sans-Serif" font-size="10.00">_model.hh</text>
</a>
</g>
</g>
<!-- Node2&#45;&gt;Node9 -->
<g id="edge8" class="edge"><title>Node2&#45;&gt;Node9</title>
<path fill="none" stroke="midnightblue" d="M515.436,-437.684C462.058,-423.334 391.642,-404.402 342.967,-391.316"/>
<polygon fill="midnightblue" stroke="midnightblue" points="514.629,-441.092 525.195,-440.308 516.447,-434.332 514.629,-441.092"/>
</g>
<!-- Node18 -->
<g id="node18" class="node"><title>Node18</title>
<g id="a_node18"><a xlink:href="plain__wave__model_8hh.html" target="_top" xlink:title="/home/travis/build\l/igankevich/arma/src\l/generator/plain_wave\l_model.hh">
<polygon fill="none" stroke="black" points="621,-259 621,-311 733,-311 733,-259 621,-259"/>
<text text-anchor="start" x="629" y="-299" font-family="Helvetica,sans-Serif" font-size="10.00">/home/travis/build</text>
<text text-anchor="start" x="629" y="-288" font-family="Helvetica,sans-Serif" font-size="10.00">/igankevich/arma/src</text>
<text text-anchor="start" x="629" y="-277" font-family="Helvetica,sans-Serif" font-size="10.00">/generator/plain_wave</text>
<text text-anchor="middle" x="677" y="-266" font-family="Helvetica,sans-Serif" font-size="10.00">_model.hh</text>
</a>
</g>
</g>
<!-- Node2&#45;&gt;Node18 -->
<g id="edge22" class="edge"><title>Node2&#45;&gt;Node18</title>
<path fill="none" stroke="midnightblue" d="M630.634,-432.019C640.685,-423.592 650.472,-413.429 657,-402 673.116,-373.785 676.928,-335.87 677.503,-311.189"/>
<polygon fill="midnightblue" stroke="midnightblue" points="628.245,-429.446 622.573,-438.395 632.588,-434.936 628.245,-429.446"/>
</g>
<!-- Node22 -->
<g id="node22" class="node"><title>Node22</title>
<g id="a_node22"><a xlink:href="lh__model_8hh.html" target="_top" xlink:title="/home/travis/build\l/igankevich/arma/src\l/generator/lh_model.hh">
<polygon fill="none" stroke="black" points="533,-354.5 533,-395.5 649,-395.5 649,-354.5 533,-354.5"/>
<text text-anchor="start" x="541" y="-383.5" font-family="Helvetica,sans-Serif" font-size="10.00">/home/travis/build</text>
<text text-anchor="start" x="541" y="-372.5" font-family="Helvetica,sans-Serif" font-size="10.00">/igankevich/arma/src</text>
<text text-anchor="middle" x="591" y="-361.5" font-family="Helvetica,sans-Serif" font-size="10.00">/generator/lh_model.hh</text>
</a>
</g>
</g>
<!-- Node2&#45;&gt;Node22 -->
<g id="edge28" class="edge"><title>Node2&#45;&gt;Node22</title>
<path fill="none" stroke="midnightblue" d="M591,-427.881C591,-417.133 591,-405.309 591,-395.667"/>
<polygon fill="midnightblue" stroke="midnightblue" points="587.5,-428.15 591,-438.15 594.5,-428.15 587.5,-428.15"/>
</g>
<!-- Node4 -->
<g id="node4" class="node"><title>Node4</title>
<g id="a_node4"><a xlink:href="arma__driver_8cc.html" target="_top" xlink:title="/home/travis/build\l/igankevich/arma/src\l/arma_driver.cc">
<polygon fill="none" stroke="black" points="789.5,-84.5 789.5,-125.5 896.5,-125.5 896.5,-84.5 789.5,-84.5"/>
<text text-anchor="start" x="797.5" y="-113.5" font-family="Helvetica,sans-Serif" font-size="10.00">/home/travis/build</text>
<text text-anchor="start" x="797.5" y="-102.5" font-family="Helvetica,sans-Serif" font-size="10.00">/igankevich/arma/src</text>
<text text-anchor="middle" x="843" y="-91.5" font-family="Helvetica,sans-Serif" font-size="10.00">/arma_driver.cc</text>
</a>
</g>
</g>
<!-- Node3&#45;&gt;Node4 -->
<g id="edge3" class="edge"><title>Node3&#45;&gt;Node4</title>
<path fill="none" stroke="midnightblue" d="M904.341,-167.341C890.967,-153.967 875.049,-138.049 862.78,-125.78"/>
<polygon fill="midnightblue" stroke="midnightblue" points="901.924,-169.874 911.47,-174.47 906.874,-164.924 901.924,-169.874"/>
</g>
<!-- Node5 -->
<g id="node5" class="node"><title>Node5</title>
<g id="a_node5"><a xlink:href="arma__main_8cc.html" target="_top" xlink:title="/home/travis/build\l/igankevich/arma/src\l/arma_main.cc">
<polygon fill="none" stroke="black" points="541.5,-0.5 541.5,-41.5 648.5,-41.5 648.5,-0.5 541.5,-0.5"/>
<text text-anchor="start" x="549.5" y="-29.5" font-family="Helvetica,sans-Serif" font-size="10.00">/home/travis/build</text>
<text text-anchor="start" x="549.5" y="-18.5" font-family="Helvetica,sans-Serif" font-size="10.00">/igankevich/arma/src</text>
<text text-anchor="middle" x="595" y="-7.5" font-family="Helvetica,sans-Serif" font-size="10.00">/arma_main.cc</text>
</a>
</g>
</g>
<!-- Node3&#45;&gt;Node5 -->
<g id="edge4" class="edge"><title>Node3&#45;&gt;Node5</title>
<path fill="none" stroke="midnightblue" d="M874.231,-170.562C872.128,-169.697 870.045,-168.84 868,-168 828.914,-151.94 813.206,-158.136 780,-132 756.737,-113.69 764.464,-96.0524 741,-78 713.889,-57.1417 678.097,-43.2499 648.737,-34.5198"/>
<polygon fill="midnightblue" stroke="midnightblue" points="872.955,-173.822 883.535,-174.393 875.62,-167.349 872.955,-173.822"/>
</g>
<!-- Node6 -->
<g id="node6" class="node"><title>Node6</title>
<g id="a_node6"><a xlink:href="arma__realtime__driver_8hh.html" target="_top" xlink:title="/home/travis/build\l/igankevich/arma/src\l/arma_realtime_driver.hh">
<polygon fill="none" stroke="black" points="915,-84.5 915,-125.5 1039,-125.5 1039,-84.5 915,-84.5"/>
<text text-anchor="start" x="923" y="-113.5" font-family="Helvetica,sans-Serif" font-size="10.00">/home/travis/build</text>
<text text-anchor="start" x="923" y="-102.5" font-family="Helvetica,sans-Serif" font-size="10.00">/igankevich/arma/src</text>
<text text-anchor="middle" x="977" y="-91.5" font-family="Helvetica,sans-Serif" font-size="10.00">/arma_realtime_driver.hh</text>
</a>
</g>
</g>
<!-- Node3&#45;&gt;Node6 -->
<g id="edge5" class="edge"><title>Node3&#45;&gt;Node6</title>
<path fill="none" stroke="midnightblue" d="M945.915,-165.468C952.693,-152.501 960.544,-137.481 966.661,-125.78"/>
<polygon fill="midnightblue" stroke="midnightblue" points="942.74,-163.986 941.209,-174.47 948.943,-167.229 942.74,-163.986"/>
</g>
<!-- Node7 -->
<g id="node7" class="node"><title>Node7</title>
<g id="a_node7"><a xlink:href="arma__realtime_8cc.html" target="_top" xlink:title="/home/travis/build\l/igankevich/arma/src\l/arma_realtime.cc">
<polygon fill="none" stroke="black" points="748.5,-0.5 748.5,-41.5 855.5,-41.5 855.5,-0.5 748.5,-0.5"/>
<text text-anchor="start" x="756.5" y="-29.5" font-family="Helvetica,sans-Serif" font-size="10.00">/home/travis/build</text>
<text text-anchor="start" x="756.5" y="-18.5" font-family="Helvetica,sans-Serif" font-size="10.00">/igankevich/arma/src</text>
<text text-anchor="middle" x="802" y="-7.5" font-family="Helvetica,sans-Serif" font-size="10.00">/arma_realtime.cc</text>
</a>
</g>
</g>
<!-- Node6&#45;&gt;Node7 -->
<g id="edge6" class="edge"><title>Node6&#45;&gt;Node7</title>
<path fill="none" stroke="midnightblue" d="M925.746,-79.9838C899.703,-67.7808 868.456,-53.1396 843.878,-41.6227"/>
<polygon fill="midnightblue" stroke="midnightblue" points="924.543,-83.2852 935.083,-84.359 927.513,-76.9466 924.543,-83.2852"/>
</g>
<!-- Node8 -->
<g id="node8" class="node"><title>Node8</title>
<g id="a_node8"><a xlink:href="arma__realtime__driver_8cc.html" target="_top" xlink:title="/home/travis/build\l/igankevich/arma/src\l/arma_realtime_driver.cc">
<polygon fill="none" stroke="black" points="915,-0.5 915,-41.5 1039,-41.5 1039,-0.5 915,-0.5"/>
<text text-anchor="start" x="923" y="-29.5" font-family="Helvetica,sans-Serif" font-size="10.00">/home/travis/build</text>
<text text-anchor="start" x="923" y="-18.5" font-family="Helvetica,sans-Serif" font-size="10.00">/igankevich/arma/src</text>
<text text-anchor="middle" x="977" y="-7.5" font-family="Helvetica,sans-Serif" font-size="10.00">/arma_realtime_driver.cc</text>
</a>
</g>
</g>
<!-- Node6&#45;&gt;Node8 -->
<g id="edge7" class="edge"><title>Node6&#45;&gt;Node8</title>
<path fill="none" stroke="midnightblue" d="M977,-73.881C977,-63.1328 977,-51.309 977,-41.6671"/>
<polygon fill="midnightblue" stroke="midnightblue" points="973.5,-74.1501 977,-84.1501 980.5,-74.1501 973.5,-74.1501"/>
</g>
<!-- Node10 -->
<g id="node10" class="node"><title>Node10</title>
<g id="a_node10"><a xlink:href="ar__model_8hh.html" target="_top" xlink:title="/home/travis/build\l/igankevich/arma/src\l/generator/ar_model.hh">
<polygon fill="none" stroke="black" points="42,-264.5 42,-305.5 158,-305.5 158,-264.5 42,-264.5"/>
<text text-anchor="start" x="50" y="-293.5" font-family="Helvetica,sans-Serif" font-size="10.00">/home/travis/build</text>
<text text-anchor="start" x="50" y="-282.5" font-family="Helvetica,sans-Serif" font-size="10.00">/igankevich/arma/src</text>
<text text-anchor="middle" x="100" y="-271.5" font-family="Helvetica,sans-Serif" font-size="10.00">/generator/ar_model.hh</text>
</a>
</g>
</g>
<!-- Node9&#45;&gt;Node10 -->
<g id="edge9" class="edge"><title>Node9&#45;&gt;Node10</title>
<path fill="none" stroke="midnightblue" d="M223.335,-344.352C196.359,-331.589 165.56,-317.018 141.487,-305.628"/>
<polygon fill="midnightblue" stroke="midnightblue" points="222.164,-347.67 232.7,-348.783 225.157,-341.342 222.164,-347.67"/>
</g>
<!-- Node15 -->
<g id="node15" class="node"><title>Node15</title>
<g id="a_node15"><a xlink:href="ma__model_8hh.html" target="_top" xlink:title="/home/travis/build\l/igankevich/arma/src\l/generator/ma_model.hh">
<polygon fill="none" stroke="black" points="176,-264.5 176,-305.5 298,-305.5 298,-264.5 176,-264.5"/>
<text text-anchor="start" x="184" y="-293.5" font-family="Helvetica,sans-Serif" font-size="10.00">/home/travis/build</text>
<text text-anchor="start" x="184" y="-282.5" font-family="Helvetica,sans-Serif" font-size="10.00">/igankevich/arma/src</text>
<text text-anchor="middle" x="237" y="-271.5" font-family="Helvetica,sans-Serif" font-size="10.00">/generator/ma_model.hh</text>
</a>
</g>
</g>
<!-- Node9&#45;&gt;Node15 -->
<g id="edge17" class="edge"><title>Node9&#45;&gt;Node15</title>
<path fill="none" stroke="midnightblue" d="M266.816,-339.546C260.384,-327.996 253.44,-315.524 247.872,-305.525"/>
<polygon fill="midnightblue" stroke="midnightblue" points="263.904,-341.513 271.827,-348.547 270.02,-338.107 263.904,-341.513"/>
</g>
<!-- Node17 -->
<g id="node17" class="node"><title>Node17</title>
<g id="a_node17"><a xlink:href="basic__arma__model_8cc.html" target="_top" xlink:title="/home/travis/build\l/igankevich/arma/src\l/generator/basic_arma\l_model.cc">
<polygon fill="none" stroke="black" points="316.5,-259 316.5,-311 429.5,-311 429.5,-259 316.5,-259"/>
<text text-anchor="start" x="324.5" y="-299" font-family="Helvetica,sans-Serif" font-size="10.00">/home/travis/build</text>
<text text-anchor="start" x="324.5" y="-288" font-family="Helvetica,sans-Serif" font-size="10.00">/igankevich/arma/src</text>
<text text-anchor="start" x="324.5" y="-277" font-family="Helvetica,sans-Serif" font-size="10.00">/generator/basic_arma</text>
<text text-anchor="middle" x="373" y="-266" font-family="Helvetica,sans-Serif" font-size="10.00">_model.cc</text>
</a>
</g>
</g>
<!-- Node9&#45;&gt;Node17 -->
<g id="edge21" class="edge"><title>Node9&#45;&gt;Node17</title>
<path fill="none" stroke="midnightblue" d="M318.199,-341.431C328.109,-331.407 338.86,-320.533 348.193,-311.092"/>
<polygon fill="midnightblue" stroke="midnightblue" points="315.706,-338.975 311.164,-348.547 320.684,-343.896 315.706,-338.975"/>
</g>
<!-- Node11 -->
<g id="node11" class="node"><title>Node11</title>
<g id="a_node11"><a xlink:href="common__main_8hh.html" target="_top" xlink:title="/home/travis/build\l/igankevich/arma/src\l/common_main.hh">
<polygon fill="none" stroke="black" points="500.5,-84.5 500.5,-125.5 607.5,-125.5 607.5,-84.5 500.5,-84.5"/>
<text text-anchor="start" x="508.5" y="-113.5" font-family="Helvetica,sans-Serif" font-size="10.00">/home/travis/build</text>
<text text-anchor="start" x="508.5" y="-102.5" font-family="Helvetica,sans-Serif" font-size="10.00">/igankevich/arma/src</text>
<text text-anchor="middle" x="554" y="-91.5" font-family="Helvetica,sans-Serif" font-size="10.00">/common_main.hh</text>
</a>
</g>
</g>
<!-- Node10&#45;&gt;Node11 -->
<g id="edge10" class="edge"><title>Node10&#45;&gt;Node11</title>
<path fill="none" stroke="midnightblue" d="M112.338,-254.656C125.818,-224.017 147.548,-178.921 163,-168 190.151,-148.81 399.645,-123.208 500.318,-111.851"/>
<polygon fill="midnightblue" stroke="midnightblue" points="109.038,-253.468 108.269,-264.035 115.46,-256.254 109.038,-253.468"/>
</g>
<!-- Node12 -->
<g id="node12" class="node"><title>Node12</title>
<g id="a_node12"><a xlink:href="arma__model_8hh.html" target="_top" xlink:title="/home/travis/build\l/igankevich/arma/src\l/generator/arma_model.hh">
<polygon fill="none" stroke="black" points="172,-174.5 172,-215.5 302,-215.5 302,-174.5 172,-174.5"/>
<text text-anchor="start" x="180" y="-203.5" font-family="Helvetica,sans-Serif" font-size="10.00">/home/travis/build</text>
<text text-anchor="start" x="180" y="-192.5" font-family="Helvetica,sans-Serif" font-size="10.00">/igankevich/arma/src</text>
<text text-anchor="middle" x="237" y="-181.5" font-family="Helvetica,sans-Serif" font-size="10.00">/generator/arma_model.hh</text>
</a>
</g>
</g>
<!-- Node10&#45;&gt;Node12 -->
<g id="edge13" class="edge"><title>Node10&#45;&gt;Node12</title>
<path fill="none" stroke="midnightblue" d="M138.922,-258.999C160.249,-245.3 186.31,-228.56 206.207,-215.78"/>
<polygon fill="midnightblue" stroke="midnightblue" points="136.927,-256.121 130.405,-264.47 140.71,-262.01 136.927,-256.121"/>
</g>
<!-- Node14 -->
<g id="node14" class="node"><title>Node14</title>
<g id="a_node14"><a xlink:href="ar__model_8cc.html" target="_top" xlink:title="/home/travis/build\l/igankevich/arma/src\l/generator/ar_model.cc">
<polygon fill="none" stroke="black" points="0,-174.5 0,-215.5 116,-215.5 116,-174.5 0,-174.5"/>
<text text-anchor="start" x="8" y="-203.5" font-family="Helvetica,sans-Serif" font-size="10.00">/home/travis/build</text>
<text text-anchor="start" x="8" y="-192.5" font-family="Helvetica,sans-Serif" font-size="10.00">/igankevich/arma/src</text>
<text text-anchor="middle" x="58" y="-181.5" font-family="Helvetica,sans-Serif" font-size="10.00">/generator/ar_model.cc</text>
</a>
</g>
</g>
<!-- Node10&#45;&gt;Node14 -->
<g id="edge16" class="edge"><title>Node10&#45;&gt;Node14</title>
<path fill="none" stroke="midnightblue" d="M86.2019,-255.09C80.0547,-242.21 72.9707,-227.367 67.4403,-215.78"/>
<polygon fill="midnightblue" stroke="midnightblue" points="83.2128,-256.953 90.6788,-264.47 89.5302,-253.938 83.2128,-256.953"/>
</g>
<!-- Node11&#45;&gt;Node5 -->
<g id="edge11" class="edge"><title>Node11&#45;&gt;Node5</title>
<path fill="none" stroke="midnightblue" d="M568.557,-74.8854C574.063,-63.8739 580.195,-51.6104 585.166,-41.6671"/>
<polygon fill="midnightblue" stroke="midnightblue" points="565.267,-73.6405 563.925,-84.1501 571.528,-76.7711 565.267,-73.6405"/>
</g>
<!-- Node11&#45;&gt;Node7 -->
<g id="edge12" class="edge"><title>Node11&#45;&gt;Node7</title>
<path fill="none" stroke="midnightblue" d="M608.69,-80.7024C611.152,-79.7682 613.597,-78.8629 616,-78 659.959,-62.2143 710.794,-47.1182 748.2,-36.5859"/>
<polygon fill="midnightblue" stroke="midnightblue" points="607.203,-77.5251 599.159,-84.4196 609.747,-84.0467 607.203,-77.5251"/>
</g>
<!-- Node12&#45;&gt;Node11 -->
<g id="edge14" class="edge"><title>Node12&#45;&gt;Node11</title>
<path fill="none" stroke="midnightblue" d="M300.747,-171.205C304.206,-170.093 307.64,-169.017 311,-168 375.384,-148.517 450.563,-129.968 500.056,-118.322"/>
<polygon fill="midnightblue" stroke="midnightblue" points="299.381,-167.97 290.975,-174.419 301.568,-174.619 299.381,-167.97"/>
</g>
<!-- Node13 -->
<g id="node13" class="node"><title>Node13</title>
<g id="a_node13"><a xlink:href="arma__model_8cc.html" target="_top" xlink:title="/home/travis/build\l/igankevich/arma/src\l/generator/arma_model.cc">
<polygon fill="none" stroke="black" points="172,-84.5 172,-125.5 302,-125.5 302,-84.5 172,-84.5"/>
<text text-anchor="start" x="180" y="-113.5" font-family="Helvetica,sans-Serif" font-size="10.00">/home/travis/build</text>
<text text-anchor="start" x="180" y="-102.5" font-family="Helvetica,sans-Serif" font-size="10.00">/igankevich/arma/src</text>
<text text-anchor="middle" x="237" y="-91.5" font-family="Helvetica,sans-Serif" font-size="10.00">/generator/arma_model.cc</text>
</a>
</g>
</g>
<!-- Node12&#45;&gt;Node13 -->
<g id="edge15" class="edge"><title>Node12&#45;&gt;Node13</title>
<path fill="none" stroke="midnightblue" d="M237,-164.33C237,-151.629 237,-137.14 237,-125.78"/>
<polygon fill="midnightblue" stroke="midnightblue" points="233.5,-164.47 237,-174.47 240.5,-164.47 233.5,-164.47"/>
</g>
<!-- Node15&#45;&gt;Node11 -->
<g id="edge18" class="edge"><title>Node15&#45;&gt;Node11</title>
<path fill="none" stroke="midnightblue" d="M297.374,-261.101C300.619,-260.019 303.842,-258.978 307,-258 370.017,-238.485 394.582,-256.191 451,-222 491.538,-197.433 525.02,-151.818 541.987,-125.707"/>
<polygon fill="midnightblue" stroke="midnightblue" points="295.945,-257.891 287.623,-264.447 298.217,-264.512 295.945,-257.891"/>
</g>
<!-- Node15&#45;&gt;Node12 -->
<g id="edge19" class="edge"><title>Node15&#45;&gt;Node12</title>
<path fill="none" stroke="midnightblue" d="M237,-254.33C237,-241.629 237,-227.14 237,-215.78"/>
<polygon fill="midnightblue" stroke="midnightblue" points="233.5,-254.47 237,-264.47 240.5,-254.47 233.5,-254.47"/>
</g>
<!-- Node16 -->
<g id="node16" class="node"><title>Node16</title>
<g id="a_node16"><a xlink:href="ma__model_8cc.html" target="_top" xlink:title="/home/travis/build\l/igankevich/arma/src\l/generator/ma_model.cc">
<polygon fill="none" stroke="black" points="320,-174.5 320,-215.5 442,-215.5 442,-174.5 320,-174.5"/>
<text text-anchor="start" x="328" y="-203.5" font-family="Helvetica,sans-Serif" font-size="10.00">/home/travis/build</text>
<text text-anchor="start" x="328" y="-192.5" font-family="Helvetica,sans-Serif" font-size="10.00">/igankevich/arma/src</text>
<text text-anchor="middle" x="381" y="-181.5" font-family="Helvetica,sans-Serif" font-size="10.00">/generator/ma_model.cc</text>
</a>
</g>
</g>
<!-- Node15&#45;&gt;Node16 -->
<g id="edge20" class="edge"><title>Node15&#45;&gt;Node16</title>
<path fill="none" stroke="midnightblue" d="M277.643,-259.163C300.198,-245.379 327.855,-228.477 348.882,-215.627"/>
<polygon fill="midnightblue" stroke="midnightblue" points="275.666,-256.269 268.958,-264.47 279.316,-262.242 275.666,-256.269"/>
</g>
<!-- Node18&#45;&gt;Node11 -->
<g id="edge23" class="edge"><title>Node18&#45;&gt;Node11</title>
<path fill="none" stroke="midnightblue" d="M640.399,-251.835C631.159,-242.721 621.689,-232.428 614,-222 590.99,-190.795 571.949,-149.521 561.841,-125.552"/>
<polygon fill="midnightblue" stroke="midnightblue" points="638.085,-254.465 647.721,-258.87 642.935,-249.418 638.085,-254.465"/>
</g>
<!-- Node19 -->
<g id="node19" class="node"><title>Node19</title>
<g id="a_node19"><a xlink:href="plain__wave__solver_8hh.html" target="_top" xlink:title="/home/travis/build\l/igankevich/arma/src\l/velocity/plain_wave\l_solver.hh">
<polygon fill="none" stroke="black" points="623.5,-169 623.5,-221 730.5,-221 730.5,-169 623.5,-169"/>
<text text-anchor="start" x="631.5" y="-209" font-family="Helvetica,sans-Serif" font-size="10.00">/home/travis/build</text>
<text text-anchor="start" x="631.5" y="-198" font-family="Helvetica,sans-Serif" font-size="10.00">/igankevich/arma/src</text>
<text text-anchor="start" x="631.5" y="-187" font-family="Helvetica,sans-Serif" font-size="10.00">/velocity/plain_wave</text>
<text text-anchor="middle" x="677" y="-176" font-family="Helvetica,sans-Serif" font-size="10.00">_solver.hh</text>
</a>
</g>
</g>
<!-- Node18&#45;&gt;Node19 -->
<g id="edge24" class="edge"><title>Node18&#45;&gt;Node19</title>
<path fill="none" stroke="midnightblue" d="M677,-248.489C677,-239.309 677,-229.616 677,-221.092"/>
<polygon fill="midnightblue" stroke="midnightblue" points="673.5,-248.547 677,-258.547 680.5,-248.547 673.5,-248.547"/>
</g>
<!-- Node21 -->
<g id="node21" class="node"><title>Node21</title>
<g id="a_node21"><a xlink:href="plain__wave__model_8cc.html" target="_top" xlink:title="/home/travis/build\l/igankevich/arma/src\l/generator/plain_wave\l_model.cc">
<polygon fill="none" stroke="black" points="748,-169 748,-221 860,-221 860,-169 748,-169"/>
<text text-anchor="start" x="756" y="-209" font-family="Helvetica,sans-Serif" font-size="10.00">/home/travis/build</text>
<text text-anchor="start" x="756" y="-198" font-family="Helvetica,sans-Serif" font-size="10.00">/igankevich/arma/src</text>
<text text-anchor="start" x="756" y="-187" font-family="Helvetica,sans-Serif" font-size="10.00">/generator/plain_wave</text>
<text text-anchor="middle" x="804" y="-176" font-family="Helvetica,sans-Serif" font-size="10.00">_model.cc</text>
</a>
</g>
</g>
<!-- Node18&#45;&gt;Node21 -->
<g id="edge27" class="edge"><title>Node18&#45;&gt;Node21</title>
<path fill="none" stroke="midnightblue" d="M721.992,-252.824C736.94,-242.467 753.386,-231.071 767.602,-221.221"/>
<polygon fill="midnightblue" stroke="midnightblue" points="719.619,-250.21 713.393,-258.783 723.606,-255.964 719.619,-250.21"/>
</g>
<!-- Node19&#45;&gt;Node11 -->
<g id="edge25" class="edge"><title>Node19&#45;&gt;Node11</title>
<path fill="none" stroke="midnightblue" d="M633.446,-162.839C616.127,-150.449 596.728,-136.57 581.435,-125.628"/>
<polygon fill="midnightblue" stroke="midnightblue" points="631.584,-165.811 641.753,-168.783 635.657,-160.118 631.584,-165.811"/>
</g>
<!-- Node20 -->
<g id="node20" class="node"><title>Node20</title>
<g id="a_node20"><a xlink:href="plain__wave__solver_8cc.html" target="_top" xlink:title="/home/travis/build\l/igankevich/arma/src\l/velocity/plain_wave\l_solver.cc">
<polygon fill="none" stroke="black" points="625.5,-79 625.5,-131 732.5,-131 732.5,-79 625.5,-79"/>
<text text-anchor="start" x="633.5" y="-119" font-family="Helvetica,sans-Serif" font-size="10.00">/home/travis/build</text>
<text text-anchor="start" x="633.5" y="-108" font-family="Helvetica,sans-Serif" font-size="10.00">/igankevich/arma/src</text>
<text text-anchor="start" x="633.5" y="-97" font-family="Helvetica,sans-Serif" font-size="10.00">/velocity/plain_wave</text>
<text text-anchor="middle" x="679" y="-86" font-family="Helvetica,sans-Serif" font-size="10.00">_solver.cc</text>
</a>
</g>
</g>
<!-- Node19&#45;&gt;Node20 -->
<g id="edge26" class="edge"><title>Node19&#45;&gt;Node20</title>
<path fill="none" stroke="midnightblue" d="M677.807,-158.489C678.016,-149.309 678.236,-139.616 678.43,-131.092"/>
<polygon fill="midnightblue" stroke="midnightblue" points="674.307,-158.47 677.578,-168.547 681.305,-158.629 674.307,-158.47"/>
</g>
<!-- Node22&#45;&gt;Node11 -->
<g id="edge29" class="edge"><title>Node22&#45;&gt;Node11</title>
<path fill="none" stroke="midnightblue" d="M586.873,-344.104C579.247,-288.868 563.143,-172.228 556.725,-125.736"/>
<polygon fill="midnightblue" stroke="midnightblue" points="583.444,-344.866 588.279,-354.293 590.379,-343.909 583.444,-344.866"/>
</g>
<!-- Node23 -->
<g id="node23" class="node"><title>Node23</title>
<g id="a_node23"><a xlink:href="lh__model_8cc.html" target="_top" xlink:title="/home/travis/build\l/igankevich/arma/src\l/generator/lh_model.cc">
<polygon fill="none" stroke="black" points="448,-264.5 448,-305.5 564,-305.5 564,-264.5 448,-264.5"/>
<text text-anchor="start" x="456" y="-293.5" font-family="Helvetica,sans-Serif" font-size="10.00">/home/travis/build</text>
<text text-anchor="start" x="456" y="-282.5" font-family="Helvetica,sans-Serif" font-size="10.00">/igankevich/arma/src</text>
<text text-anchor="middle" x="506" y="-271.5" font-family="Helvetica,sans-Serif" font-size="10.00">/generator/lh_model.cc</text>
</a>
</g>
</g>
<!-- Node22&#45;&gt;Node23 -->
<g id="edge30" class="edge"><title>Node22&#45;&gt;Node23</title>
<path fill="none" stroke="midnightblue" d="M564.89,-346.969C552.048,-333.673 536.846,-317.935 525.105,-305.78"/>
<polygon fill="midnightblue" stroke="midnightblue" points="562.671,-349.709 572.136,-354.47 567.706,-344.846 562.671,-349.709"/>
</g>
<!-- Node27&#45;&gt;Node17 -->
<g id="edge35" class="edge"><title>Node27&#45;&gt;Node17</title>
<path fill="none" stroke="midnightblue" d="M434.242,-347.242C422.775,-335.775 409.451,-322.451 398.166,-311.166"/>
<polygon fill="midnightblue" stroke="midnightblue" points="431.924,-349.874 441.47,-354.47 436.874,-344.924 431.924,-349.874"/>
</g>
<!-- Node27&#45;&gt;Node23 -->
<g id="edge36" class="edge"><title>Node27&#45;&gt;Node23</title>
<path fill="none" stroke="midnightblue" d="M475.59,-345.468C482.221,-332.501 489.902,-317.481 495.885,-305.78"/>
<polygon fill="midnightblue" stroke="midnightblue" points="472.424,-343.973 470.987,-354.47 478.656,-347.16 472.424,-343.973"/>
</g>
</g>
</svg>
