<?xml version="1.0" encoding="UTF-8" standalone="no"?>
<!DOCTYPE svg PUBLIC "-//W3C//DTD SVG 1.1//EN"
 "http://www.w3.org/Graphics/SVG/1.1/DTD/svg11.dtd">
<!-- Generated by graphviz version 2.36.0 (20140111.2315)
 -->
<!-- Title: /home/travis/build/igankevich/arma/src/params.hh Pages: 1 -->
<svg width="2269pt" height="542pt"
 viewBox="0.00 0.00 2269.00 542.00" xmlns="http://www.w3.org/2000/svg" xmlns:xlink="http://www.w3.org/1999/xlink">
<g id="graph0" class="graph" transform="scale(1 1) rotate(0) translate(4 538)">
<title>/home/travis/build/igankevich/arma/src/params.hh</title>
<!-- Node1 -->
<g id="node1" class="node"><title>Node1</title>
<polygon fill="#bfbfbf" stroke="black" points="966.5,-492.5 966.5,-533.5 1073.5,-533.5 1073.5,-492.5 966.5,-492.5"/>
<text text-anchor="start" x="974.5" y="-521.5" font-family="Helvetica,sans-Serif" font-size="10.00">/home/travis/build</text>
<text text-anchor="start" x="974.5" y="-510.5" font-family="Helvetica,sans-Serif" font-size="10.00">/igankevich/arma/src</text>
<text text-anchor="middle" x="1020" y="-499.5" font-family="Helvetica,sans-Serif" font-size="10.00">/params.hh</text>
</g>
<!-- Node2 -->
<g id="node2" class="node"><title>Node2</title>
<g id="a_node2"><a xlink:href="acf_8hh.html" target="_top" xlink:title="/home/travis/build\l/igankevich/arma/src\l/acf.hh">
<polygon fill="none" stroke="black" points="-0.5,-408.5 -0.5,-449.5 106.5,-449.5 106.5,-408.5 -0.5,-408.5"/>
<text text-anchor="start" x="7.5" y="-437.5" font-family="Helvetica,sans-Serif" font-size="10.00">/home/travis/build</text>
<text text-anchor="start" x="7.5" y="-426.5" font-family="Helvetica,sans-Serif" font-size="10.00">/igankevich/arma/src</text>
<text text-anchor="middle" x="53" y="-415.5" font-family="Helvetica,sans-Serif" font-size="10.00">/acf.hh</text>
</a>
</g>
</g>
<!-- Node1&#45;&gt;Node2 -->
<g id="edge1" class="edge"><title>Node1&#45;&gt;Node2</title>
<path fill="none" stroke="midnightblue" d="M955.96,-510.525C778.077,-506.027 280.576,-490.631 121,-456 113.589,-454.392 105.917,-452.109 98.5124,-449.557"/>
<polygon fill="midnightblue" stroke="midnightblue" points="956.12,-514.03 966.205,-510.78 956.295,-507.032 956.12,-514.03"/>
</g>
<!-- Node3 -->
<g id="node3" class="node"><title>Node3</title>
<g id="a_node3"><a xlink:href="acf__wrapper_8cc.html" target="_top" xlink:title="/home/travis/build\l/igankevich/arma/src\l/bits/acf_wrapper.cc">
<polygon fill="none" stroke="black" points="38.5,-318.5 38.5,-359.5 145.5,-359.5 145.5,-318.5 38.5,-318.5"/>
<text text-anchor="start" x="46.5" y="-347.5" font-family="Helvetica,sans-Serif" font-size="10.00">/home/travis/build</text>
<text text-anchor="start" x="46.5" y="-336.5" font-family="Helvetica,sans-Serif" font-size="10.00">/igankevich/arma/src</text>
<text text-anchor="middle" x="92" y="-325.5" font-family="Helvetica,sans-Serif" font-size="10.00">/bits/acf_wrapper.cc</text>
</a>
</g>
</g>
<!-- Node1&#45;&gt;Node3 -->
<g id="edge20" class="edge"><title>Node1&#45;&gt;Node3</title>
<path fill="none" stroke="midnightblue" d="M956.295,-511.418C767.661,-509.208 220.926,-499.111 154,-456 136.339,-444.623 112.036,-389.675 99.7632,-359.666"/>
<polygon fill="midnightblue" stroke="midnightblue" points="956.299,-514.918 966.338,-511.532 956.379,-507.919 956.299,-514.918"/>
</g>
<!-- Node4 -->
<g id="node4" class="node"><title>Node4</title>
<g id="a_node4"><a xlink:href="arma__driver_8cc.html" target="_top" xlink:title="/home/travis/build\l/igankevich/arma/src\l/arma_driver.cc">
<polygon fill="none" stroke="black" points="163.5,-408.5 163.5,-449.5 270.5,-449.5 270.5,-408.5 163.5,-408.5"/>
<text text-anchor="start" x="171.5" y="-437.5" font-family="Helvetica,sans-Serif" font-size="10.00">/home/travis/build</text>
<text text-anchor="start" x="171.5" y="-426.5" font-family="Helvetica,sans-Serif" font-size="10.00">/igankevich/arma/src</text>
<text text-anchor="middle" x="217" y="-415.5" font-family="Helvetica,sans-Serif" font-size="10.00">/arma_driver.cc</text>
</a>
</g>
</g>
<!-- Node1&#45;&gt;Node4 -->
<g id="edge3" class="edge"><title>Node1&#45;&gt;Node4</title>
<path fill="none" stroke="midnightblue" d="M956.139,-509.503C801.838,-503.087 412.103,-484.506 285,-456 277.724,-454.368 270.189,-452.107 262.903,-449.594"/>
<polygon fill="midnightblue" stroke="midnightblue" points="956.26,-513.01 966.396,-509.926 956.549,-506.016 956.26,-513.01"/>
</g>
<!-- Node5 -->
<g id="node5" class="node"><title>Node5</title>
<g id="a_node5"><a xlink:href="basic__arma__model_8hh.html" target="_top" xlink:title="/home/travis/build\l/igankevich/arma/src\l/generator/basic_arma\l_model.hh">
<polygon fill="none" stroke="black" points="381.5,-403 381.5,-455 494.5,-455 494.5,-403 381.5,-403"/>
<text text-anchor="start" x="389.5" y="-443" font-family="Helvetica,sans-Serif" font-size="10.00">/home/travis/build</text>
<text text-anchor="start" x="389.5" y="-432" font-family="Helvetica,sans-Serif" font-size="10.00">/igankevich/arma/src</text>
<text text-anchor="start" x="389.5" y="-421" font-family="Helvetica,sans-Serif" font-size="10.00">/generator/basic_arma</text>
<text text-anchor="middle" x="438" y="-410" font-family="Helvetica,sans-Serif" font-size="10.00">_model.hh</text>
</a>
</g>
</g>
<!-- Node1&#45;&gt;Node5 -->
<g id="edge4" class="edge"><title>Node1&#45;&gt;Node5</title>
<path fill="none" stroke="midnightblue" d="M956.279,-503.022C841.896,-486.906 603.539,-453.323 494.565,-437.97"/>
<polygon fill="midnightblue" stroke="midnightblue" points="955.9,-506.503 966.29,-504.433 956.876,-499.572 955.9,-506.503"/>
</g>
<!-- Node13 -->
<g id="node13" class="node"><title>Node13</title>
<g id="a_node13"><a xlink:href="arma__model_8cc.html" target="_top" xlink:title="/home/travis/build\l/igankevich/arma/src\l/generator/arma_model.cc">
<polygon fill="none" stroke="black" points="546,-156.5 546,-197.5 676,-197.5 676,-156.5 546,-156.5"/>
<text text-anchor="start" x="554" y="-185.5" font-family="Helvetica,sans-Serif" font-size="10.00">/home/travis/build</text>
<text text-anchor="start" x="554" y="-174.5" font-family="Helvetica,sans-Serif" font-size="10.00">/igankevich/arma/src</text>
<text text-anchor="middle" x="611" y="-163.5" font-family="Helvetica,sans-Serif" font-size="10.00">/generator/arma_model.cc</text>
</a>
</g>
</g>
<!-- Node1&#45;&gt;Node13 -->
<g id="edge22" class="edge"><title>Node1&#45;&gt;Node13</title>
<path fill="none" stroke="midnightblue" d="M956.13,-509.53C871.859,-504.889 729.979,-491.843 694,-456 623.03,-385.298 695.843,-325.474 655,-234 649.052,-220.678 639.239,-207.739 630.387,-197.661"/>
<polygon fill="midnightblue" stroke="midnightblue" points="956.192,-513.038 966.362,-510.068 956.56,-506.048 956.192,-513.038"/>
</g>
<!-- Node14 -->
<g id="node14" class="node"><title>Node14</title>
<g id="a_node14"><a xlink:href="ar__model_8cc.html" target="_top" xlink:title="/home/travis/build\l/igankevich/arma/src\l/generator/ar_model.cc">
<polygon fill="none" stroke="black" points="531,-234.5 531,-275.5 647,-275.5 647,-234.5 531,-234.5"/>
<text text-anchor="start" x="539" y="-263.5" font-family="Helvetica,sans-Serif" font-size="10.00">/home/travis/build</text>
<text text-anchor="start" x="539" y="-252.5" font-family="Helvetica,sans-Serif" font-size="10.00">/igankevich/arma/src</text>
<text text-anchor="middle" x="589" y="-241.5" font-family="Helvetica,sans-Serif" font-size="10.00">/generator/ar_model.cc</text>
</a>
</g>
</g>
<!-- Node1&#45;&gt;Node14 -->
<g id="edge21" class="edge"><title>Node1&#45;&gt;Node14</title>
<path fill="none" stroke="midnightblue" d="M956.027,-509.997C864.913,-505.848 704.016,-493.311 661,-456 610.446,-412.151 641.828,-374.145 617,-312 612.04,-299.584 605.382,-286.172 599.803,-275.586"/>
<polygon fill="midnightblue" stroke="midnightblue" points="956.098,-513.503 966.24,-510.44 956.401,-506.51 956.098,-513.503"/>
</g>
<!-- Node16 -->
<g id="node16" class="node"><title>Node16</title>
<g id="a_node16"><a xlink:href="ma__model_8cc.html" target="_top" xlink:title="/home/travis/build\l/igankevich/arma/src\l/generator/ma_model.cc">
<polygon fill="none" stroke="black" points="141,-234.5 141,-275.5 263,-275.5 263,-234.5 141,-234.5"/>
<text text-anchor="start" x="149" y="-263.5" font-family="Helvetica,sans-Serif" font-size="10.00">/home/travis/build</text>
<text text-anchor="start" x="149" y="-252.5" font-family="Helvetica,sans-Serif" font-size="10.00">/igankevich/arma/src</text>
<text text-anchor="middle" x="202" y="-241.5" font-family="Helvetica,sans-Serif" font-size="10.00">/generator/ma_model.cc</text>
</a>
</g>
</g>
<!-- Node1&#45;&gt;Node16 -->
<g id="edge24" class="edge"><title>Node1&#45;&gt;Node16</title>
<path fill="none" stroke="midnightblue" d="M955.989,-510.018C814.597,-505.068 479.667,-490.03 372,-456 326.426,-441.595 320.724,-425.314 279,-402 249.49,-385.511 230.644,-394.198 212,-366 194.02,-338.807 195.51,-299.222 198.54,-275.695"/>
<polygon fill="midnightblue" stroke="midnightblue" points="956.119,-513.525 966.233,-510.371 956.36,-506.529 956.119,-513.525"/>
</g>
<!-- Node18 -->
<g id="node18" class="node"><title>Node18</title>
<g id="a_node18"><a xlink:href="lh__model_8cc.html" target="_top" xlink:title="/home/travis/build\l/igankevich/arma/src\l/generator/lh_model.cc">
<polygon fill="none" stroke="black" points="703,-408.5 703,-449.5 819,-449.5 819,-408.5 703,-408.5"/>
<text text-anchor="start" x="711" y="-437.5" font-family="Helvetica,sans-Serif" font-size="10.00">/home/travis/build</text>
<text text-anchor="start" x="711" y="-426.5" font-family="Helvetica,sans-Serif" font-size="10.00">/igankevich/arma/src</text>
<text text-anchor="middle" x="761" y="-415.5" font-family="Helvetica,sans-Serif" font-size="10.00">/generator/lh_model.cc</text>
</a>
</g>
</g>
<!-- Node1&#45;&gt;Node18 -->
<g id="edge23" class="edge"><title>Node1&#45;&gt;Node18</title>
<path fill="none" stroke="midnightblue" d="M956.421,-494.944C918.821,-484.488 870.41,-470.384 828,-456 822.092,-453.996 815.936,-451.783 809.854,-449.52"/>
<polygon fill="midnightblue" stroke="midnightblue" points="955.659,-498.364 966.231,-497.657 957.526,-491.618 955.659,-498.364"/>
</g>
<!-- Node19 -->
<g id="node19" class="node"><title>Node19</title>
<g id="a_node19"><a xlink:href="plain__wave__model_8cc.html" target="_top" xlink:title="/home/travis/build\l/igankevich/arma/src\l/generator/plain_wave\l_model.cc">
<polygon fill="none" stroke="black" points="837,-403 837,-455 949,-455 949,-403 837,-403"/>
<text text-anchor="start" x="845" y="-443" font-family="Helvetica,sans-Serif" font-size="10.00">/home/travis/build</text>
<text text-anchor="start" x="845" y="-432" font-family="Helvetica,sans-Serif" font-size="10.00">/igankevich/arma/src</text>
<text text-anchor="start" x="845" y="-421" font-family="Helvetica,sans-Serif" font-size="10.00">/generator/plain_wave</text>
<text text-anchor="middle" x="893" y="-410" font-family="Helvetica,sans-Serif" font-size="10.00">_model.cc</text>
</a>
</g>
</g>
<!-- Node1&#45;&gt;Node19 -->
<g id="edge25" class="edge"><title>Node1&#45;&gt;Node19</title>
<path fill="none" stroke="midnightblue" d="M981.159,-486.921C965.508,-476.816 947.491,-465.183 931.84,-455.078"/>
<polygon fill="midnightblue" stroke="midnightblue" points="979.281,-489.875 989.58,-492.359 983.078,-483.994 979.281,-489.875"/>
</g>
<!-- Node20 -->
<g id="node20" class="node"><title>Node20</title>
<g id="a_node20"><a xlink:href="linalg_8cc.html" target="_top" xlink:title="/home/travis/build\l/igankevich/arma/src\l/linalg.cc">
<polygon fill="none" stroke="black" points="966.5,-408.5 966.5,-449.5 1073.5,-449.5 1073.5,-408.5 966.5,-408.5"/>
<text text-anchor="start" x="974.5" y="-437.5" font-family="Helvetica,sans-Serif" font-size="10.00">/home/travis/build</text>
<text text-anchor="start" x="974.5" y="-426.5" font-family="Helvetica,sans-Serif" font-size="10.00">/igankevich/arma/src</text>
<text text-anchor="middle" x="1020" y="-415.5" font-family="Helvetica,sans-Serif" font-size="10.00">/linalg.cc</text>
</a>
</g>
</g>
<!-- Node1&#45;&gt;Node20 -->
<g id="edge26" class="edge"><title>Node1&#45;&gt;Node20</title>
<path fill="none" stroke="midnightblue" d="M1020,-481.881C1020,-471.133 1020,-459.309 1020,-449.667"/>
<polygon fill="midnightblue" stroke="midnightblue" points="1016.5,-482.15 1020,-492.15 1023.5,-482.15 1016.5,-482.15"/>
</g>
<!-- Node21 -->
<g id="node21" class="node"><title>Node21</title>
<g id="a_node21"><a xlink:href="nit__transform_8cc.html" target="_top" xlink:title="/home/travis/build\l/igankevich/arma/src\l/nonlinear/nit_transform.cc">
<polygon fill="none" stroke="black" points="1092,-408.5 1092,-449.5 1224,-449.5 1224,-408.5 1092,-408.5"/>
<text text-anchor="start" x="1100" y="-437.5" font-family="Helvetica,sans-Serif" font-size="10.00">/home/travis/build</text>
<text text-anchor="start" x="1100" y="-426.5" font-family="Helvetica,sans-Serif" font-size="10.00">/igankevich/arma/src</text>
<text text-anchor="middle" x="1158" y="-415.5" font-family="Helvetica,sans-Serif" font-size="10.00">/nonlinear/nit_transform.cc</text>
</a>
</g>
</g>
<!-- Node1&#45;&gt;Node21 -->
<g id="edge27" class="edge"><title>Node1&#45;&gt;Node21</title>
<path fill="none" stroke="midnightblue" d="M1061.74,-487.197C1081.92,-475.206 1105.81,-461.013 1124.74,-449.765"/>
<polygon fill="midnightblue" stroke="midnightblue" points="1059.86,-484.242 1053.05,-492.359 1063.44,-490.26 1059.86,-484.242"/>
</g>
<!-- Node22 -->
<g id="node22" class="node"><title>Node22</title>
<g id="a_node22"><a xlink:href="opencl_8cc.html" target="_top" xlink:title="/home/travis/build\l/igankevich/arma/src\l/opencl/opencl.cc">
<polygon fill="none" stroke="black" points="1242.5,-408.5 1242.5,-449.5 1349.5,-449.5 1349.5,-408.5 1242.5,-408.5"/>
<text text-anchor="start" x="1250.5" y="-437.5" font-family="Helvetica,sans-Serif" font-size="10.00">/home/travis/build</text>
<text text-anchor="start" x="1250.5" y="-426.5" font-family="Helvetica,sans-Serif" font-size="10.00">/igankevich/arma/src</text>
<text text-anchor="middle" x="1296" y="-415.5" font-family="Helvetica,sans-Serif" font-size="10.00">/opencl/opencl.cc</text>
</a>
</g>
</g>
<!-- Node1&#45;&gt;Node22 -->
<g id="edge28" class="edge"><title>Node1&#45;&gt;Node22</title>
<path fill="none" stroke="midnightblue" d="M1083.52,-497.667C1126.21,-487.457 1183.51,-472.635 1233,-456 1238.72,-454.077 1244.66,-451.889 1250.51,-449.617"/>
<polygon fill="midnightblue" stroke="midnightblue" points="1082.47,-494.319 1073.54,-500.032 1084.08,-501.13 1082.47,-494.319"/>
</g>
<!-- Node23 -->
<g id="node23" class="node"><title>Node23</title>
<g id="a_node23"><a xlink:href="params_8cc.html" target="_top" xlink:title="/home/travis/build\l/igankevich/arma/src\l/params.cc">
<polygon fill="none" stroke="black" points="1367.5,-408.5 1367.5,-449.5 1474.5,-449.5 1474.5,-408.5 1367.5,-408.5"/>
<text text-anchor="start" x="1375.5" y="-437.5" font-family="Helvetica,sans-Serif" font-size="10.00">/home/travis/build</text>
<text text-anchor="start" x="1375.5" y="-426.5" font-family="Helvetica,sans-Serif" font-size="10.00">/igankevich/arma/src</text>
<text text-anchor="middle" x="1421" y="-415.5" font-family="Helvetica,sans-Serif" font-size="10.00">/params.cc</text>
</a>
</g>
</g>
<!-- Node1&#45;&gt;Node23 -->
<g id="edge29" class="edge"><title>Node1&#45;&gt;Node23</title>
<path fill="none" stroke="midnightblue" d="M1083.74,-505.81C1152.41,-498.135 1264.42,-482.686 1358,-456 1364.26,-454.215 1370.74,-451.997 1377.05,-449.615"/>
<polygon fill="midnightblue" stroke="midnightblue" points="1083.07,-502.362 1073.51,-506.931 1083.84,-509.32 1083.07,-502.362"/>
</g>
<!-- Node24 -->
<g id="node24" class="node"><title>Node24</title>
<g id="a_node24"><a xlink:href="distribution_8cc.html" target="_top" xlink:title="/home/travis/build\l/igankevich/arma/src\l/stats/distribution.cc">
<polygon fill="none" stroke="black" points="1492.5,-408.5 1492.5,-449.5 1599.5,-449.5 1599.5,-408.5 1492.5,-408.5"/>
<text text-anchor="start" x="1500.5" y="-437.5" font-family="Helvetica,sans-Serif" font-size="10.00">/home/travis/build</text>
<text text-anchor="start" x="1500.5" y="-426.5" font-family="Helvetica,sans-Serif" font-size="10.00">/igankevich/arma/src</text>
<text text-anchor="middle" x="1546" y="-415.5" font-family="Helvetica,sans-Serif" font-size="10.00">/stats/distribution.cc</text>
</a>
</g>
</g>
<!-- Node1&#45;&gt;Node24 -->
<g id="edge30" class="edge"><title>Node1&#45;&gt;Node24</title>
<path fill="none" stroke="midnightblue" d="M1083.72,-509.741C1173.94,-505.322 1343.46,-492.505 1483,-456 1489.52,-454.293 1496.27,-452.057 1502.81,-449.613"/>
<polygon fill="midnightblue" stroke="midnightblue" points="1083.47,-506.249 1073.65,-510.215 1083.8,-513.241 1083.47,-506.249"/>
</g>
<!-- Node25 -->
<g id="node25" class="node"><title>Node25</title>
<g id="a_node25"><a xlink:href="gaussian_8cc.html" target="_top" xlink:title="/home/travis/build\l/igankevich/arma/src\l/stats/gaussian.cc">
<polygon fill="none" stroke="black" points="1617.5,-408.5 1617.5,-449.5 1724.5,-449.5 1724.5,-408.5 1617.5,-408.5"/>
<text text-anchor="start" x="1625.5" y="-437.5" font-family="Helvetica,sans-Serif" font-size="10.00">/home/travis/build</text>
<text text-anchor="start" x="1625.5" y="-426.5" font-family="Helvetica,sans-Serif" font-size="10.00">/igankevich/arma/src</text>
<text text-anchor="middle" x="1671" y="-415.5" font-family="Helvetica,sans-Serif" font-size="10.00">/stats/gaussian.cc</text>
</a>
</g>
</g>
<!-- Node1&#45;&gt;Node25 -->
<g id="edge31" class="edge"><title>Node1&#45;&gt;Node25</title>
<path fill="none" stroke="midnightblue" d="M1083.77,-512.061C1192.82,-510.813 1421.43,-502.285 1608,-456 1614.78,-454.319 1621.77,-452.032 1628.53,-449.507"/>
<polygon fill="midnightblue" stroke="midnightblue" points="1083.56,-508.562 1073.59,-512.16 1083.63,-515.562 1083.56,-508.562"/>
</g>
<!-- Node26 -->
<g id="node26" class="node"><title>Node26</title>
<g id="a_node26"><a xlink:href="gram__charlier_8cc.html" target="_top" xlink:title="/home/travis/build\l/igankevich/arma/src\l/stats/gram_charlier.cc">
<polygon fill="none" stroke="black" points="1743,-408.5 1743,-449.5 1859,-449.5 1859,-408.5 1743,-408.5"/>
<text text-anchor="start" x="1751" y="-437.5" font-family="Helvetica,sans-Serif" font-size="10.00">/home/travis/build</text>
<text text-anchor="start" x="1751" y="-426.5" font-family="Helvetica,sans-Serif" font-size="10.00">/igankevich/arma/src</text>
<text text-anchor="middle" x="1801" y="-415.5" font-family="Helvetica,sans-Serif" font-size="10.00">/stats/gram_charlier.cc</text>
</a>
</g>
</g>
<!-- Node1&#45;&gt;Node26 -->
<g id="edge32" class="edge"><title>Node1&#45;&gt;Node26</title>
<path fill="none" stroke="midnightblue" d="M1083.58,-509.342C1234.36,-502.662 1610.16,-483.701 1733,-456 1740.27,-454.36 1747.81,-452.094 1755.09,-449.579"/>
<polygon fill="midnightblue" stroke="midnightblue" points="1083.38,-505.847 1073.55,-509.783 1083.69,-512.84 1083.38,-505.847"/>
</g>
<!-- Node27 -->
<g id="node27" class="node"><title>Node27</title>
<g id="a_node27"><a xlink:href="skew__normal_8cc.html" target="_top" xlink:title="/home/travis/build\l/igankevich/arma/src\l/stats/skew_normal.cc">
<polygon fill="none" stroke="black" points="1877,-408.5 1877,-449.5 1993,-449.5 1993,-408.5 1877,-408.5"/>
<text text-anchor="start" x="1885" y="-437.5" font-family="Helvetica,sans-Serif" font-size="10.00">/home/travis/build</text>
<text text-anchor="start" x="1885" y="-426.5" font-family="Helvetica,sans-Serif" font-size="10.00">/igankevich/arma/src</text>
<text text-anchor="middle" x="1935" y="-415.5" font-family="Helvetica,sans-Serif" font-size="10.00">/stats/skew_normal.cc</text>
</a>
</g>
</g>
<!-- Node1&#45;&gt;Node27 -->
<g id="edge33" class="edge"><title>Node1&#45;&gt;Node27</title>
<path fill="none" stroke="midnightblue" d="M1083.57,-510.255C1253.89,-505.187 1717.64,-488.713 1867,-456 1874.41,-454.378 1882.08,-452.087 1889.48,-449.532"/>
<polygon fill="midnightblue" stroke="midnightblue" points="1083.4,-506.758 1073.51,-510.551 1083.61,-513.755 1083.4,-506.758"/>
</g>
<!-- Node28 -->
<g id="node28" class="node"><title>Node28</title>
<g id="a_node28"><a xlink:href="basic__solver_8cc.html" target="_top" xlink:title="/home/travis/build\l/igankevich/arma/src\l/velocity/basic_solver.cc">
<polygon fill="none" stroke="black" points="2011.5,-408.5 2011.5,-449.5 2136.5,-449.5 2136.5,-408.5 2011.5,-408.5"/>
<text text-anchor="start" x="2019.5" y="-437.5" font-family="Helvetica,sans-Serif" font-size="10.00">/home/travis/build</text>
<text text-anchor="start" x="2019.5" y="-426.5" font-family="Helvetica,sans-Serif" font-size="10.00">/igankevich/arma/src</text>
<text text-anchor="middle" x="2074" y="-415.5" font-family="Helvetica,sans-Serif" font-size="10.00">/velocity/basic_solver.cc</text>
</a>
</g>
</g>
<!-- Node1&#45;&gt;Node28 -->
<g id="edge34" class="edge"><title>Node1&#45;&gt;Node28</title>
<path fill="none" stroke="midnightblue" d="M1083.62,-510.732C1271.95,-506.604 1824.5,-491.702 2001,-456 2008.91,-454.4 2017.13,-452.121 2025.06,-449.57"/>
<polygon fill="midnightblue" stroke="midnightblue" points="1083.52,-507.233 1073.6,-510.949 1083.67,-514.231 1083.52,-507.233"/>
</g>
<!-- Node29 -->
<g id="node29" class="node"><title>Node29</title>
<g id="a_node29"><a xlink:href="plain__wave__solver_8cc.html" target="_top" xlink:title="/home/travis/build\l/igankevich/arma/src\l/velocity/plain_wave\l_solver.cc">
<polygon fill="none" stroke="black" points="2154.5,-403 2154.5,-455 2261.5,-455 2261.5,-403 2154.5,-403"/>
<text text-anchor="start" x="2162.5" y="-443" font-family="Helvetica,sans-Serif" font-size="10.00">/home/travis/build</text>
<text text-anchor="start" x="2162.5" y="-432" font-family="Helvetica,sans-Serif" font-size="10.00">/igankevich/arma/src</text>
<text text-anchor="start" x="2162.5" y="-421" font-family="Helvetica,sans-Serif" font-size="10.00">/velocity/plain_wave</text>
<text text-anchor="middle" x="2208" y="-410" font-family="Helvetica,sans-Serif" font-size="10.00">_solver.cc</text>
</a>
</g>
</g>
<!-- Node1&#45;&gt;Node29 -->
<g id="edge35" class="edge"><title>Node1&#45;&gt;Node29</title>
<path fill="none" stroke="midnightblue" d="M1083.67,-511.675C1290.3,-510.174 1940.58,-501.835 2145,-456 2148.12,-455.301 2151.28,-454.46 2154.44,-453.515"/>
<polygon fill="midnightblue" stroke="midnightblue" points="1083.57,-508.175 1073.59,-511.745 1083.62,-515.175 1083.57,-508.175"/>
</g>
<!-- Node2&#45;&gt;Node3 -->
<g id="edge2" class="edge"><title>Node2&#45;&gt;Node3</title>
<path fill="none" stroke="midnightblue" d="M65.8125,-399.09C71.5207,-386.21 78.0987,-371.367 83.234,-359.78"/>
<polygon fill="midnightblue" stroke="midnightblue" points="62.5073,-397.909 61.6554,-408.47 68.907,-400.746 62.5073,-397.909"/>
</g>
<!-- Node6 -->
<g id="node6" class="node"><title>Node6</title>
<g id="a_node6"><a xlink:href="ar__model_8hh.html" target="_top" xlink:title="/home/travis/build\l/igankevich/arma/src\l/generator/ar_model.hh">
<polygon fill="none" stroke="black" points="493,-318.5 493,-359.5 609,-359.5 609,-318.5 493,-318.5"/>
<text text-anchor="start" x="501" y="-347.5" font-family="Helvetica,sans-Serif" font-size="10.00">/home/travis/build</text>
<text text-anchor="start" x="501" y="-336.5" font-family="Helvetica,sans-Serif" font-size="10.00">/igankevich/arma/src</text>
<text text-anchor="middle" x="551" y="-325.5" font-family="Helvetica,sans-Serif" font-size="10.00">/generator/ar_model.hh</text>
</a>
</g>
</g>
<!-- Node5&#45;&gt;Node6 -->
<g id="edge5" class="edge"><title>Node5&#45;&gt;Node6</title>
<path fill="none" stroke="midnightblue" d="M478.448,-396.501C494.247,-384.197 511.873,-370.47 525.796,-359.628"/>
<polygon fill="midnightblue" stroke="midnightblue" points="476.121,-393.877 470.381,-402.783 480.422,-399.4 476.121,-393.877"/>
</g>
<!-- Node15 -->
<g id="node15" class="node"><title>Node15</title>
<g id="a_node15"><a xlink:href="ma__model_8hh.html" target="_top" xlink:title="/home/travis/build\l/igankevich/arma/src\l/generator/ma_model.hh">
<polygon fill="none" stroke="black" points="221,-318.5 221,-359.5 343,-359.5 343,-318.5 221,-318.5"/>
<text text-anchor="start" x="229" y="-347.5" font-family="Helvetica,sans-Serif" font-size="10.00">/home/travis/build</text>
<text text-anchor="start" x="229" y="-336.5" font-family="Helvetica,sans-Serif" font-size="10.00">/igankevich/arma/src</text>
<text text-anchor="middle" x="282" y="-325.5" font-family="Helvetica,sans-Serif" font-size="10.00">/generator/ma_model.hh</text>
</a>
</g>
</g>
<!-- Node5&#45;&gt;Node15 -->
<g id="edge15" class="edge"><title>Node5&#45;&gt;Node15</title>
<path fill="none" stroke="midnightblue" d="M384.551,-397.85C362.142,-385.208 336.721,-370.868 316.796,-359.628"/>
<polygon fill="midnightblue" stroke="midnightblue" points="382.867,-400.918 393.297,-402.783 386.307,-394.821 382.867,-400.918"/>
</g>
<!-- Node17 -->
<g id="node17" class="node"><title>Node17</title>
<g id="a_node17"><a xlink:href="basic__arma__model_8cc.html" target="_top" xlink:title="/home/travis/build\l/igankevich/arma/src\l/generator/basic_arma\l_model.cc">
<polygon fill="none" stroke="black" points="361.5,-313 361.5,-365 474.5,-365 474.5,-313 361.5,-313"/>
<text text-anchor="start" x="369.5" y="-353" font-family="Helvetica,sans-Serif" font-size="10.00">/home/travis/build</text>
<text text-anchor="start" x="369.5" y="-342" font-family="Helvetica,sans-Serif" font-size="10.00">/igankevich/arma/src</text>
<text text-anchor="start" x="369.5" y="-331" font-family="Helvetica,sans-Serif" font-size="10.00">/generator/basic_arma</text>
<text text-anchor="middle" x="418" y="-320" font-family="Helvetica,sans-Serif" font-size="10.00">_model.cc</text>
</a>
</g>
</g>
<!-- Node5&#45;&gt;Node17 -->
<g id="edge19" class="edge"><title>Node5&#45;&gt;Node17</title>
<path fill="none" stroke="midnightblue" d="M429.997,-392.785C427.89,-383.517 425.661,-373.708 423.703,-365.092"/>
<polygon fill="midnightblue" stroke="midnightblue" points="426.586,-393.571 432.215,-402.547 433.412,-392.02 426.586,-393.571"/>
</g>
<!-- Node7 -->
<g id="node7" class="node"><title>Node7</title>
<g id="a_node7"><a xlink:href="register__all_8hh.html" target="_top" xlink:title="/home/travis/build\l/igankevich/arma/src\l/register_all.hh">
<polygon fill="none" stroke="black" points="356.5,-156.5 356.5,-197.5 463.5,-197.5 463.5,-156.5 356.5,-156.5"/>
<text text-anchor="start" x="364.5" y="-185.5" font-family="Helvetica,sans-Serif" font-size="10.00">/home/travis/build</text>
<text text-anchor="start" x="364.5" y="-174.5" font-family="Helvetica,sans-Serif" font-size="10.00">/igankevich/arma/src</text>
<text text-anchor="middle" x="410" y="-163.5" font-family="Helvetica,sans-Serif" font-size="10.00">/register_all.hh</text>
</a>
</g>
</g>
<!-- Node6&#45;&gt;Node7 -->
<g id="edge6" class="edge"><title>Node6&#45;&gt;Node7</title>
<path fill="none" stroke="midnightblue" d="M536.14,-309.293C523.922,-287.273 505.211,-256.876 484,-234 471.293,-220.295 454.908,-207.513 440.787,-197.63"/>
<polygon fill="midnightblue" stroke="midnightblue" points="533.116,-311.057 540.968,-318.17 539.265,-307.713 533.116,-311.057"/>
</g>
<!-- Node12 -->
<g id="node12" class="node"><title>Node12</title>
<g id="a_node12"><a xlink:href="arma__model_8hh.html" target="_top" xlink:title="/home/travis/build\l/igankevich/arma/src\l/generator/arma_model.hh">
<polygon fill="none" stroke="black" points="345,-234.5 345,-275.5 475,-275.5 475,-234.5 345,-234.5"/>
<text text-anchor="start" x="353" y="-263.5" font-family="Helvetica,sans-Serif" font-size="10.00">/home/travis/build</text>
<text text-anchor="start" x="353" y="-252.5" font-family="Helvetica,sans-Serif" font-size="10.00">/igankevich/arma/src</text>
<text text-anchor="middle" x="410" y="-241.5" font-family="Helvetica,sans-Serif" font-size="10.00">/generator/arma_model.hh</text>
</a>
</g>
</g>
<!-- Node6&#45;&gt;Node12 -->
<g id="edge11" class="edge"><title>Node6&#45;&gt;Node12</title>
<path fill="none" stroke="midnightblue" d="M508.351,-313.197C487.733,-301.206 463.327,-287.013 443.986,-275.765"/>
<polygon fill="midnightblue" stroke="midnightblue" points="506.823,-316.357 517.227,-318.359 510.342,-310.306 506.823,-316.357"/>
</g>
<!-- Node6&#45;&gt;Node14 -->
<g id="edge14" class="edge"><title>Node6&#45;&gt;Node14</title>
<path fill="none" stroke="midnightblue" d="M564.492,-308.885C569.595,-297.874 575.278,-285.61 579.886,-275.667"/>
<polygon fill="midnightblue" stroke="midnightblue" points="561.228,-307.605 560.199,-318.15 567.579,-310.549 561.228,-307.605"/>
</g>
<!-- Node8 -->
<g id="node8" class="node"><title>Node8</title>
<g id="a_node8"><a xlink:href="common__main_8hh.html" target="_top" xlink:title="/home/travis/build\l/igankevich/arma/src\l/common_main.hh">
<polygon fill="none" stroke="black" points="294.5,-78.5 294.5,-119.5 401.5,-119.5 401.5,-78.5 294.5,-78.5"/>
<text text-anchor="start" x="302.5" y="-107.5" font-family="Helvetica,sans-Serif" font-size="10.00">/home/travis/build</text>
<text text-anchor="start" x="302.5" y="-96.5" font-family="Helvetica,sans-Serif" font-size="10.00">/igankevich/arma/src</text>
<text text-anchor="middle" x="348" y="-85.5" font-family="Helvetica,sans-Serif" font-size="10.00">/common_main.hh</text>
</a>
</g>
</g>
<!-- Node7&#45;&gt;Node8 -->
<g id="edge7" class="edge"><title>Node7&#45;&gt;Node8</title>
<path fill="none" stroke="midnightblue" d="M387.669,-148.627C379.808,-138.99 371.137,-128.362 363.912,-119.506"/>
<polygon fill="midnightblue" stroke="midnightblue" points="385,-150.892 394.033,-156.428 390.424,-146.467 385,-150.892"/>
</g>
<!-- Node11 -->
<g id="node11" class="node"><title>Node11</title>
<g id="a_node11"><a xlink:href="visual_8cc.html" target="_top" xlink:title="/home/travis/build\l/igankevich/arma/src\l/visual.cc">
<polygon fill="none" stroke="black" points="419.5,-78.5 419.5,-119.5 526.5,-119.5 526.5,-78.5 419.5,-78.5"/>
<text text-anchor="start" x="427.5" y="-107.5" font-family="Helvetica,sans-Serif" font-size="10.00">/home/travis/build</text>
<text text-anchor="start" x="427.5" y="-96.5" font-family="Helvetica,sans-Serif" font-size="10.00">/igankevich/arma/src</text>
<text text-anchor="middle" x="473" y="-85.5" font-family="Helvetica,sans-Serif" font-size="10.00">/visual.cc</text>
</a>
</g>
</g>
<!-- Node7&#45;&gt;Node11 -->
<g id="edge10" class="edge"><title>Node7&#45;&gt;Node11</title>
<path fill="none" stroke="midnightblue" d="M432.691,-148.627C440.679,-138.99 449.49,-128.362 456.831,-119.506"/>
<polygon fill="midnightblue" stroke="midnightblue" points="429.911,-146.496 426.224,-156.428 435.301,-150.963 429.911,-146.496"/>
</g>
<!-- Node9 -->
<g id="node9" class="node"><title>Node9</title>
<g id="a_node9"><a xlink:href="arma__main_8cc.html" target="_top" xlink:title="/home/travis/build\l/igankevich/arma/src\l/arma_main.cc">
<polygon fill="none" stroke="black" points="232.5,-0.5 232.5,-41.5 339.5,-41.5 339.5,-0.5 232.5,-0.5"/>
<text text-anchor="start" x="240.5" y="-29.5" font-family="Helvetica,sans-Serif" font-size="10.00">/home/travis/build</text>
<text text-anchor="start" x="240.5" y="-18.5" font-family="Helvetica,sans-Serif" font-size="10.00">/igankevich/arma/src</text>
<text text-anchor="middle" x="286" y="-7.5" font-family="Helvetica,sans-Serif" font-size="10.00">/arma_main.cc</text>
</a>
</g>
</g>
<!-- Node8&#45;&gt;Node9 -->
<g id="edge8" class="edge"><title>Node8&#45;&gt;Node9</title>
<path fill="none" stroke="midnightblue" d="M325.669,-70.627C317.808,-60.9901 309.137,-50.3617 301.912,-41.5056"/>
<polygon fill="midnightblue" stroke="midnightblue" points="323,-72.8919 332.033,-78.4281 328.424,-68.467 323,-72.8919"/>
</g>
<!-- Node10 -->
<g id="node10" class="node"><title>Node10</title>
<g id="a_node10"><a xlink:href="arma__realtime_8cc.html" target="_top" xlink:title="/home/travis/build\l/igankevich/arma/src\l/arma_realtime.cc">
<polygon fill="none" stroke="black" points="357.5,-0.5 357.5,-41.5 464.5,-41.5 464.5,-0.5 357.5,-0.5"/>
<text text-anchor="start" x="365.5" y="-29.5" font-family="Helvetica,sans-Serif" font-size="10.00">/home/travis/build</text>
<text text-anchor="start" x="365.5" y="-18.5" font-family="Helvetica,sans-Serif" font-size="10.00">/igankevich/arma/src</text>
<text text-anchor="middle" x="411" y="-7.5" font-family="Helvetica,sans-Serif" font-size="10.00">/arma_realtime.cc</text>
</a>
</g>
</g>
<!-- Node8&#45;&gt;Node10 -->
<g id="edge9" class="edge"><title>Node8&#45;&gt;Node10</title>
<path fill="none" stroke="midnightblue" d="M370.691,-70.627C378.679,-60.9901 387.49,-50.3617 394.831,-41.5056"/>
<polygon fill="midnightblue" stroke="midnightblue" points="367.911,-68.4956 364.224,-78.4281 373.301,-72.963 367.911,-68.4956"/>
</g>
<!-- Node12&#45;&gt;Node7 -->
<g id="edge12" class="edge"><title>Node12&#45;&gt;Node7</title>
<path fill="none" stroke="midnightblue" d="M410,-224.297C410,-215.301 410,-205.653 410,-197.506"/>
<polygon fill="midnightblue" stroke="midnightblue" points="406.5,-224.428 410,-234.428 413.5,-224.428 406.5,-224.428"/>
</g>
<!-- Node12&#45;&gt;Node13 -->
<g id="edge13" class="edge"><title>Node12&#45;&gt;Node13</title>
<path fill="none" stroke="midnightblue" d="M471.127,-230.887C499.343,-220.219 532.478,-207.69 559.413,-197.506"/>
<polygon fill="midnightblue" stroke="midnightblue" points="469.878,-227.618 461.762,-234.428 472.354,-234.165 469.878,-227.618"/>
</g>
<!-- Node15&#45;&gt;Node7 -->
<g id="edge16" class="edge"><title>Node15&#45;&gt;Node7</title>
<path fill="none" stroke="midnightblue" d="M292.957,-308.931C302.214,-286.84 316.998,-256.516 336,-234 347.846,-219.964 363.816,-207.323 377.888,-197.619"/>
<polygon fill="midnightblue" stroke="midnightblue" points="289.613,-307.863 289.097,-318.445 296.1,-310.494 289.613,-307.863"/>
</g>
<!-- Node15&#45;&gt;Node12 -->
<g id="edge17" class="edge"><title>Node15&#45;&gt;Node12</title>
<path fill="none" stroke="midnightblue" d="M321.221,-312.874C339.831,-300.952 361.747,-286.912 379.147,-275.765"/>
<polygon fill="midnightblue" stroke="midnightblue" points="319.192,-310.018 312.659,-318.359 322.968,-315.912 319.192,-310.018"/>
</g>
<!-- Node15&#45;&gt;Node16 -->
<g id="edge18" class="edge"><title>Node15&#45;&gt;Node16</title>
<path fill="none" stroke="midnightblue" d="M255.535,-310.873C244.311,-299.369 231.476,-286.213 221.187,-275.667"/>
<polygon fill="midnightblue" stroke="midnightblue" points="253.146,-313.436 262.634,-318.15 258.156,-308.548 253.146,-313.436"/>
</g>
</g>
</svg>
