<?xml version="1.0" encoding="UTF-8" standalone="no"?>
<!DOCTYPE svg PUBLIC "-//W3C//DTD SVG 1.1//EN"
 "http://www.w3.org/Graphics/SVG/1.1/DTD/svg11.dtd">
<!-- Generated by graphviz version 2.40.1 (20161225.0304)
 -->
<!-- Title: src/parallel_mt.hh Pages: 1 -->
<svg width="773pt" height="84pt"
 viewBox="0.00 0.00 773.00 84.00" xmlns="http://www.w3.org/2000/svg" xmlns:xlink="http://www.w3.org/1999/xlink">
<g id="graph0" class="graph" transform="scale(1 1) rotate(0) translate(4 80)">
<title>src/parallel_mt.hh</title>
<!-- Node0 -->
<g id="node1" class="node">
<title>Node0</title>
<polygon fill="#bfbfbf" stroke="#000000" points="340.5,-56.5 340.5,-75.5 434.5,-75.5 434.5,-56.5 340.5,-56.5"/>
<text text-anchor="middle" x="387.5" y="-63.5" font-family="Helvetica,sans-Serif" font-size="10.00" fill="#000000">src/parallel_mt.hh</text>
</g>
<!-- Node1 -->
<g id="node2" class="node">
<title>Node1</title>
<polygon fill="none" stroke="#bfbfbf" points="0,-.5 0,-19.5 45,-19.5 45,-.5 0,-.5"/>
<text text-anchor="middle" x="22.5" y="-7.5" font-family="Helvetica,sans-Serif" font-size="10.00" fill="#000000">cstdlib</text>
</g>
<!-- Node0&#45;&gt;Node1 -->
<g id="edge1" class="edge">
<title>Node0&#45;&gt;Node1</title>
<path fill="none" stroke="#191970" d="M340.4621,-61.9786C277.5298,-56.0552 162.4049,-43.3207 55.1228,-19.8052"/>
<polygon fill="#191970" stroke="#191970" points="55.6219,-16.3307 45.1,-17.5712 54.099,-23.163 55.6219,-16.3307"/>
</g>
<!-- Node2 -->
<g id="node3" class="node">
<title>Node2</title>
<polygon fill="none" stroke="#bfbfbf" points="63.5,-.5 63.5,-19.5 119.5,-19.5 119.5,-.5 63.5,-.5"/>
<text text-anchor="middle" x="91.5" y="-7.5" font-family="Helvetica,sans-Serif" font-size="10.00" fill="#000000">algorithm</text>
</g>
<!-- Node0&#45;&gt;Node2 -->
<g id="edge2" class="edge">
<title>Node0&#45;&gt;Node2</title>
<path fill="none" stroke="#191970" d="M340.4635,-58.9249C290.5125,-51.1269 209.0644,-37.6021 129.8652,-20.1608"/>
<polygon fill="#191970" stroke="#191970" points="130.2398,-16.6586 119.7181,-17.9016 128.7184,-23.4913 130.2398,-16.6586"/>
</g>
<!-- Node3 -->
<g id="node4" class="node">
<title>Node3</title>
<polygon fill="none" stroke="#bfbfbf" points="137.5,-.5 137.5,-19.5 183.5,-19.5 183.5,-.5 137.5,-.5"/>
<text text-anchor="middle" x="160.5" y="-7.5" font-family="Helvetica,sans-Serif" font-size="10.00" fill="#000000">cstdint</text>
</g>
<!-- Node0&#45;&gt;Node3 -->
<g id="edge3" class="edge">
<title>Node0&#45;&gt;Node3</title>
<path fill="none" stroke="#191970" d="M343.1287,-56.4784C305.626,-48.2187 250.2911,-35.5372 193.4003,-20.1115"/>
<polygon fill="#191970" stroke="#191970" points="194.0834,-16.6698 183.5143,-17.407 192.2363,-23.4217 194.0834,-16.6698"/>
</g>
<!-- Node4 -->
<g id="node5" class="node">
<title>Node4</title>
<polygon fill="none" stroke="#bfbfbf" points="201.5,-.5 201.5,-19.5 247.5,-19.5 247.5,-.5 201.5,-.5"/>
<text text-anchor="middle" x="224.5" y="-7.5" font-family="Helvetica,sans-Serif" font-size="10.00" fill="#000000">cstring</text>
</g>
<!-- Node0&#45;&gt;Node4 -->
<g id="edge4" class="edge">
<title>Node0&#45;&gt;Node4</title>
<path fill="none" stroke="#191970" d="M359.4793,-56.3733C331.102,-46.624 287.2375,-31.554 257.2675,-21.2575"/>
<polygon fill="#191970" stroke="#191970" points="258.2735,-17.9024 247.6788,-17.9633 255.999,-24.5226 258.2735,-17.9024"/>
</g>
<!-- Node5 -->
<g id="node6" class="node">
<title>Node5</title>
<polygon fill="none" stroke="#bfbfbf" points="266,-.5 266,-19.5 315,-19.5 315,-.5 266,-.5"/>
<text text-anchor="middle" x="290.5" y="-7.5" font-family="Helvetica,sans-Serif" font-size="10.00" fill="#000000">istream</text>
</g>
<!-- Node0&#45;&gt;Node5 -->
<g id="edge5" class="edge">
<title>Node0&#45;&gt;Node5</title>
<path fill="none" stroke="#191970" d="M370.6039,-56.2455C355.582,-47.5731 333.3957,-34.7645 316.179,-24.825"/>
<polygon fill="#191970" stroke="#191970" points="317.6128,-21.6114 307.2025,-19.6427 314.1129,-27.6737 317.6128,-21.6114"/>
</g>
<!-- Node6 -->
<g id="node7" class="node">
<title>Node6</title>
<polygon fill="none" stroke="#bfbfbf" points="333.5,-.5 333.5,-19.5 373.5,-19.5 373.5,-.5 333.5,-.5"/>
<text text-anchor="middle" x="353.5" y="-7.5" font-family="Helvetica,sans-Serif" font-size="10.00" fill="#000000">limits</text>
</g>
<!-- Node0&#45;&gt;Node6 -->
<g id="edge6" class="edge">
<title>Node0&#45;&gt;Node6</title>
<path fill="none" stroke="#191970" d="M381.5777,-56.2455C376.8973,-48.5367 370.2327,-37.5598 364.5711,-28.2348"/>
<polygon fill="#191970" stroke="#191970" points="367.5361,-26.3741 359.3545,-19.6427 361.5525,-30.007 367.5361,-26.3741"/>
</g>
<!-- Node7 -->
<g id="node8" class="node">
<title>Node7</title>
<polygon fill="none" stroke="#bfbfbf" points="392,-.5 392,-19.5 451,-19.5 451,-.5 392,-.5"/>
<text text-anchor="middle" x="421.5" y="-7.5" font-family="Helvetica,sans-Serif" font-size="10.00" fill="#000000">stdexcept</text>
</g>
<!-- Node0&#45;&gt;Node7 -->
<g id="edge7" class="edge">
<title>Node0&#45;&gt;Node7</title>
<path fill="none" stroke="#191970" d="M393.4223,-56.2455C398.1027,-48.5367 404.7673,-37.5598 410.4289,-28.2348"/>
<polygon fill="#191970" stroke="#191970" points="413.4475,-30.007 415.6455,-19.6427 407.4639,-26.3741 413.4475,-30.007"/>
</g>
<!-- Node8 -->
<g id="node9" class="node">
<title>Node8</title>
<polygon fill="none" stroke="#bfbfbf" points="469.5,-.5 469.5,-19.5 513.5,-19.5 513.5,-.5 469.5,-.5"/>
<text text-anchor="middle" x="491.5" y="-7.5" font-family="Helvetica,sans-Serif" font-size="10.00" fill="#000000">vector</text>
</g>
<!-- Node0&#45;&gt;Node8 -->
<g id="edge8" class="edge">
<title>Node0&#45;&gt;Node8</title>
<path fill="none" stroke="#191970" d="M405.6154,-56.2455C421.945,-47.4527 446.171,-34.4079 464.7339,-24.4125"/>
<polygon fill="#191970" stroke="#191970" points="466.4468,-27.4654 473.5922,-19.6427 463.1281,-21.3021 466.4468,-27.4654"/>
</g>
<!-- Node9 -->
<g id="node10" class="node">
<title>Node9</title>
<polygon fill="none" stroke="#bfbfbf" points="531.5,-.5 531.5,-19.5 581.5,-19.5 581.5,-.5 531.5,-.5"/>
<text text-anchor="middle" x="556.5" y="-7.5" font-family="Helvetica,sans-Serif" font-size="10.00" fill="#000000">fstream</text>
</g>
<!-- Node0&#45;&gt;Node9 -->
<g id="edge9" class="edge">
<title>Node0&#45;&gt;Node9</title>
<path fill="none" stroke="#191970" d="M416.5521,-56.3733C445.7613,-46.6945 490.7964,-31.7716 521.8502,-21.4816"/>
<polygon fill="#191970" stroke="#191970" points="523.012,-24.7838 531.4035,-18.316 520.8102,-18.1391 523.012,-24.7838"/>
</g>
<!-- Node10 -->
<g id="node11" class="node">
<title>Node10</title>
<polygon fill="none" stroke="#bfbfbf" points="600,-.5 600,-19.5 647,-19.5 647,-.5 600,-.5"/>
<text text-anchor="middle" x="623.5" y="-7.5" font-family="Helvetica,sans-Serif" font-size="10.00" fill="#000000">iterator</text>
</g>
<!-- Node0&#45;&gt;Node10 -->
<g id="edge10" class="edge">
<title>Node0&#45;&gt;Node10</title>
<path fill="none" stroke="#191970" d="M434.0891,-56.4318C473.2061,-48.1758 530.7583,-35.5128 589.8793,-20.0261"/>
<polygon fill="#191970" stroke="#191970" points="590.9909,-23.3525 599.7647,-17.4137 589.2024,-16.5849 590.9909,-23.3525"/>
</g>
<!-- Node11 -->
<g id="node12" class="node">
<title>Node11</title>
<polygon fill="none" stroke="#bfbfbf" points="665.5,-.5 665.5,-19.5 711.5,-19.5 711.5,-.5 665.5,-.5"/>
<text text-anchor="middle" x="688.5" y="-7.5" font-family="Helvetica,sans-Serif" font-size="10.00" fill="#000000">chrono</text>
</g>
<!-- Node0&#45;&gt;Node11 -->
<g id="edge11" class="edge">
<title>Node0&#45;&gt;Node11</title>
<path fill="none" stroke="#191970" d="M434.5379,-59.898C486.4809,-52.7294 572.6916,-39.562 655.3789,-20.0318"/>
<polygon fill="#191970" stroke="#191970" points="656.2731,-23.4167 665.1818,-17.6821 654.6414,-16.6096 656.2731,-23.4167"/>
</g>
<!-- Node12 -->
<g id="node13" class="node">
<title>Node12</title>
<polygon fill="none" stroke="#bfbfbf" points="730,-.5 730,-19.5 765,-19.5 765,-.5 730,-.5"/>
<text text-anchor="middle" x="747.5" y="-7.5" font-family="Helvetica,sans-Serif" font-size="10.00" fill="#000000">dc.h</text>
</g>
<!-- Node0&#45;&gt;Node12 -->
<g id="edge12" class="edge">
<title>Node0&#45;&gt;Node12</title>
<path fill="none" stroke="#191970" d="M434.7154,-62.7262C497.8461,-57.6392 613.1981,-45.8613 719.9809,-19.6228"/>
<polygon fill="#191970" stroke="#191970" points="721.1058,-22.9492 729.9548,-17.1229 719.4039,-16.1592 721.1058,-22.9492"/>
</g>
</g>
</svg>
