<?xml version="1.0" encoding="UTF-8" standalone="no"?>
<!DOCTYPE svg PUBLIC "-//W3C//DTD SVG 1.1//EN"
 "http://www.w3.org/Graphics/SVG/1.1/DTD/svg11.dtd">
<!-- Generated by graphviz version 2.40.1 (20161225.0304)
 -->
<!-- Title: src/params.cc Pages: 1 -->
<svg width="449pt" height="140pt"
 viewBox="0.00 0.00 448.50 140.00" xmlns="http://www.w3.org/2000/svg" xmlns:xlink="http://www.w3.org/1999/xlink">
<g id="graph0" class="graph" transform="scale(1 1) rotate(0) translate(4 136)">
<title>src/params.cc</title>
<!-- Node0 -->
<g id="node1" class="node">
<title>Node0</title>
<polygon fill="#bfbfbf" stroke="#000000" points="192,-112.5 192,-131.5 271,-131.5 271,-112.5 192,-112.5"/>
<text text-anchor="middle" x="231.5" y="-119.5" font-family="Helvetica,sans-Serif" font-size="10.00" fill="#000000">src/params.cc</text>
</g>
<!-- Node1 -->
<g id="node2" class="node">
<title>Node1</title>
<g id="a_node2"><a xlink:href="params_8hh.html" target="_top" xlink:title="params.hh">
<polygon fill="none" stroke="#000000" points="66.5,-56.5 66.5,-75.5 128.5,-75.5 128.5,-56.5 66.5,-56.5"/>
<text text-anchor="middle" x="97.5" y="-63.5" font-family="Helvetica,sans-Serif" font-size="10.00" fill="#000000">params.hh</text>
</a>
</g>
</g>
<!-- Node0&#45;&gt;Node1 -->
<g id="edge1" class="edge">
<title>Node0&#45;&gt;Node1</title>
<path fill="none" stroke="#191970" d="M208.4646,-112.3733C186.7612,-103.3032 154.0382,-89.6279 129.745,-79.4755"/>
<polygon fill="#191970" stroke="#191970" points="130.8111,-76.1278 120.2348,-75.5011 128.1119,-82.5865 130.8111,-76.1278"/>
</g>
<!-- Node5 -->
<g id="node6" class="node">
<title>Node5</title>
<polygon fill="none" stroke="#bfbfbf" points="146.5,-56.5 146.5,-75.5 186.5,-75.5 186.5,-56.5 146.5,-56.5"/>
<text text-anchor="middle" x="166.5" y="-63.5" font-family="Helvetica,sans-Serif" font-size="10.00" fill="#000000">limits</text>
</g>
<!-- Node0&#45;&gt;Node5 -->
<g id="edge5" class="edge">
<title>Node0&#45;&gt;Node5</title>
<path fill="none" stroke="#191970" d="M220.1779,-112.2455C210.5777,-103.9746 196.6108,-91.9416 185.3305,-82.2232"/>
<polygon fill="#191970" stroke="#191970" points="187.553,-79.5182 177.6924,-75.6427 182.984,-84.8214 187.553,-79.5182"/>
</g>
<!-- Node6 -->
<g id="node7" class="node">
<title>Node6</title>
<polygon fill="none" stroke="#bfbfbf" points="204.5,-56.5 204.5,-75.5 258.5,-75.5 258.5,-56.5 204.5,-56.5"/>
<text text-anchor="middle" x="231.5" y="-63.5" font-family="Helvetica,sans-Serif" font-size="10.00" fill="#000000">iostream</text>
</g>
<!-- Node0&#45;&gt;Node6 -->
<g id="edge6" class="edge">
<title>Node0&#45;&gt;Node6</title>
<path fill="none" stroke="#191970" d="M231.5,-112.2455C231.5,-104.9382 231.5,-94.6944 231.5,-85.7046"/>
<polygon fill="#191970" stroke="#191970" points="235.0001,-85.6426 231.5,-75.6427 228.0001,-85.6427 235.0001,-85.6426"/>
</g>
<!-- Node7 -->
<g id="node8" class="node">
<title>Node7</title>
<polygon fill="none" stroke="#bfbfbf" points="276.5,-56.5 276.5,-75.5 326.5,-75.5 326.5,-56.5 276.5,-56.5"/>
<text text-anchor="middle" x="301.5" y="-63.5" font-family="Helvetica,sans-Serif" font-size="10.00" fill="#000000">iomanip</text>
</g>
<!-- Node0&#45;&gt;Node7 -->
<g id="edge7" class="edge">
<title>Node0&#45;&gt;Node7</title>
<path fill="none" stroke="#191970" d="M243.6931,-112.2455C254.1321,-103.8943 269.3655,-91.7076 281.574,-81.9408"/>
<polygon fill="#191970" stroke="#191970" points="283.8244,-84.6227 289.4467,-75.6427 279.4515,-79.1566 283.8244,-84.6227"/>
</g>
<!-- Node8 -->
<g id="node9" class="node">
<title>Node8</title>
<g id="a_node9"><a xlink:href="const__char_8hh.html" target="_top" xlink:title="bits/const_char.hh">
<polygon fill="none" stroke="#000000" points="344.5,-56.5 344.5,-75.5 440.5,-75.5 440.5,-56.5 344.5,-56.5"/>
<text text-anchor="middle" x="392.5" y="-63.5" font-family="Helvetica,sans-Serif" font-size="10.00" fill="#000000">bits/const_char.hh</text>
</a>
</g>
</g>
<!-- Node0&#45;&gt;Node8 -->
<g id="edge8" class="edge">
<title>Node0&#45;&gt;Node8</title>
<path fill="none" stroke="#191970" d="M259.1769,-112.3733C285.8328,-103.1016 326.3238,-89.0178 355.6884,-78.804"/>
<polygon fill="#191970" stroke="#191970" points="356.8891,-82.0921 365.1843,-75.5011 354.5895,-75.4807 356.8891,-82.0921"/>
</g>
<!-- Node2 -->
<g id="node3" class="node">
<title>Node2</title>
<polygon fill="none" stroke="#bfbfbf" points="0,-.5 0,-19.5 59,-19.5 59,-.5 0,-.5"/>
<text text-anchor="middle" x="29.5" y="-7.5" font-family="Helvetica,sans-Serif" font-size="10.00" fill="#000000">functional</text>
</g>
<!-- Node1&#45;&gt;Node2 -->
<g id="edge2" class="edge">
<title>Node1&#45;&gt;Node2</title>
<path fill="none" stroke="#191970" d="M85.6553,-56.2455C75.612,-47.9746 61.0005,-35.9416 49.1996,-26.2232"/>
<polygon fill="#191970" stroke="#191970" points="51.1533,-23.298 41.209,-19.6427 46.7033,-28.7015 51.1533,-23.298"/>
</g>
<!-- Node3 -->
<g id="node4" class="node">
<title>Node3</title>
<polygon fill="none" stroke="#bfbfbf" points="77,-.5 77,-19.5 118,-19.5 118,-.5 77,-.5"/>
<text text-anchor="middle" x="97.5" y="-7.5" font-family="Helvetica,sans-Serif" font-size="10.00" fill="#000000">string</text>
</g>
<!-- Node1&#45;&gt;Node3 -->
<g id="edge3" class="edge">
<title>Node1&#45;&gt;Node3</title>
<path fill="none" stroke="#191970" d="M97.5,-56.2455C97.5,-48.9382 97.5,-38.6944 97.5,-29.7046"/>
<polygon fill="#191970" stroke="#191970" points="101.0001,-29.6426 97.5,-19.6427 94.0001,-29.6427 101.0001,-29.6426"/>
</g>
<!-- Node4 -->
<g id="node5" class="node">
<title>Node4</title>
<polygon fill="none" stroke="#bfbfbf" points="136,-.5 136,-19.5 219,-19.5 219,-.5 136,-.5"/>
<text text-anchor="middle" x="177.5" y="-7.5" font-family="Helvetica,sans-Serif" font-size="10.00" fill="#000000">unordered_map</text>
</g>
<!-- Node1&#45;&gt;Node4 -->
<g id="edge4" class="edge">
<title>Node1&#45;&gt;Node4</title>
<path fill="none" stroke="#191970" d="M111.4349,-56.2455C123.5947,-47.7337 141.4464,-35.2375 155.5285,-25.3801"/>
<polygon fill="#191970" stroke="#191970" points="157.5395,-28.2447 163.7248,-19.6427 153.5253,-22.51 157.5395,-28.2447"/>
</g>
<!-- Node9 -->
<g id="node10" class="node">
<title>Node9</title>
<polygon fill="none" stroke="#bfbfbf" points="368,-.5 368,-19.5 417,-19.5 417,-.5 368,-.5"/>
<text text-anchor="middle" x="392.5" y="-7.5" font-family="Helvetica,sans-Serif" font-size="10.00" fill="#000000">istream</text>
</g>
<!-- Node8&#45;&gt;Node9 -->
<g id="edge9" class="edge">
<title>Node8&#45;&gt;Node9</title>
<path fill="none" stroke="#191970" d="M392.5,-56.2455C392.5,-48.9382 392.5,-38.6944 392.5,-29.7046"/>
<polygon fill="#191970" stroke="#191970" points="396.0001,-29.6426 392.5,-19.6427 389.0001,-29.6427 396.0001,-29.6426"/>
</g>
</g>
</svg>
