<?xml version="1.0" encoding="UTF-8" standalone="no"?>
<!DOCTYPE svg PUBLIC "-//W3C//DTD SVG 1.1//EN"
 "http://www.w3.org/Graphics/SVG/1.1/DTD/svg11.dtd">
<!-- Generated by graphviz version 2.36.0 (20140111.2315)
 -->
<!-- Title: /home/travis/build/igankevich/arma/src/physical_constants.hh Pages: 1 -->
<svg width="1747pt" height="722pt"
 viewBox="0.00 0.00 1747.00 722.00" xmlns="http://www.w3.org/2000/svg" xmlns:xlink="http://www.w3.org/1999/xlink">
<g id="graph0" class="graph" transform="scale(1 1) rotate(0) translate(4 718)">
<title>/home/travis/build/igankevich/arma/src/physical_constants.hh</title>
<!-- Node1 -->
<g id="node1" class="node"><title>Node1</title>
<polygon fill="#bfbfbf" stroke="black" points="1083.5,-672.5 1083.5,-713.5 1200.5,-713.5 1200.5,-672.5 1083.5,-672.5"/>
<text text-anchor="start" x="1091.5" y="-701.5" font-family="Helvetica,sans-Serif" font-size="10.00">/home/travis/build</text>
<text text-anchor="start" x="1091.5" y="-690.5" font-family="Helvetica,sans-Serif" font-size="10.00">/igankevich/arma/src</text>
<text text-anchor="middle" x="1142" y="-679.5" font-family="Helvetica,sans-Serif" font-size="10.00">/physical_constants.hh</text>
</g>
<!-- Node2 -->
<g id="node2" class="node"><title>Node2</title>
<g id="a_node2"><a xlink:href="owen__t_8cc.html" target="_top" xlink:title="/home/travis/build\l/igankevich/arma/src\l/apmath/owen_t.cc">
<polygon fill="none" stroke="black" points="423.5,-588.5 423.5,-629.5 530.5,-629.5 530.5,-588.5 423.5,-588.5"/>
<text text-anchor="start" x="431.5" y="-617.5" font-family="Helvetica,sans-Serif" font-size="10.00">/home/travis/build</text>
<text text-anchor="start" x="431.5" y="-606.5" font-family="Helvetica,sans-Serif" font-size="10.00">/igankevich/arma/src</text>
<text text-anchor="middle" x="477" y="-595.5" font-family="Helvetica,sans-Serif" font-size="10.00">/apmath/owen_t.cc</text>
</a>
</g>
</g>
<!-- Node1&#45;&gt;Node2 -->
<g id="edge1" class="edge"><title>Node1&#45;&gt;Node2</title>
<path fill="none" stroke="midnightblue" d="M1073.12,-692.217C960.102,-691.108 728.992,-682.667 540,-636 533.222,-634.326 526.223,-632.043 519.463,-629.52"/>
<polygon fill="midnightblue" stroke="midnightblue" points="1073.32,-695.719 1083.35,-692.301 1073.38,-688.719 1073.32,-695.719"/>
</g>
<!-- Node3 -->
<g id="node3" class="node"><title>Node3</title>
<g id="a_node3"><a xlink:href="gram__charlier_8hh.html" target="_top" xlink:title="/home/travis/build\l/igankevich/arma/src\l/stats/gram_charlier.hh">
<polygon fill="none" stroke="black" points="549,-588.5 549,-629.5 665,-629.5 665,-588.5 549,-588.5"/>
<text text-anchor="start" x="557" y="-617.5" font-family="Helvetica,sans-Serif" font-size="10.00">/home/travis/build</text>
<text text-anchor="start" x="557" y="-606.5" font-family="Helvetica,sans-Serif" font-size="10.00">/igankevich/arma/src</text>
<text text-anchor="middle" x="607" y="-595.5" font-family="Helvetica,sans-Serif" font-size="10.00">/stats/gram_charlier.hh</text>
</a>
</g>
</g>
<!-- Node1&#45;&gt;Node3 -->
<g id="edge2" class="edge"><title>Node1&#45;&gt;Node3</title>
<path fill="none" stroke="midnightblue" d="M1073.5,-681.501C967.264,-665.218 764.675,-634.167 665.135,-618.91"/>
<polygon fill="midnightblue" stroke="midnightblue" points="1073.06,-684.974 1083.47,-683.029 1074.12,-678.055 1073.06,-684.974"/>
</g>
<!-- Node29 -->
<g id="node29" class="node"><title>Node29</title>
<g id="a_node29"><a xlink:href="plain__wave__model_8hh.html" target="_top" xlink:title="/home/travis/build\l/igankevich/arma/src\l/generator/plain_wave\l_model.hh">
<polygon fill="none" stroke="black" points="815,-583 815,-635 927,-635 927,-583 815,-583"/>
<text text-anchor="start" x="823" y="-623" font-family="Helvetica,sans-Serif" font-size="10.00">/home/travis/build</text>
<text text-anchor="start" x="823" y="-612" font-family="Helvetica,sans-Serif" font-size="10.00">/igankevich/arma/src</text>
<text text-anchor="start" x="823" y="-601" font-family="Helvetica,sans-Serif" font-size="10.00">/generator/plain_wave</text>
<text text-anchor="middle" x="871" y="-590" font-family="Helvetica,sans-Serif" font-size="10.00">_model.hh</text>
</a>
</g>
</g>
<!-- Node1&#45;&gt;Node29 -->
<g id="edge39" class="edge"><title>Node1&#45;&gt;Node29</title>
<path fill="none" stroke="midnightblue" d="M1073.48,-671.266C1028.3,-657.596 969.848,-639.91 927.37,-627.057"/>
<polygon fill="midnightblue" stroke="midnightblue" points="1072.61,-674.661 1083.2,-674.207 1074.64,-667.961 1072.61,-674.661"/>
</g>
<!-- Node31 -->
<g id="node31" class="node"><title>Node31</title>
<g id="a_node31"><a xlink:href="plain__wave__solver_8cc.html" target="_top" xlink:title="/home/travis/build\l/igankevich/arma/src\l/velocity/plain_wave\l_solver.cc">
<polygon fill="none" stroke="black" points="930.5,-403 930.5,-455 1037.5,-455 1037.5,-403 930.5,-403"/>
<text text-anchor="start" x="938.5" y="-443" font-family="Helvetica,sans-Serif" font-size="10.00">/home/travis/build</text>
<text text-anchor="start" x="938.5" y="-432" font-family="Helvetica,sans-Serif" font-size="10.00">/igankevich/arma/src</text>
<text text-anchor="start" x="938.5" y="-421" font-family="Helvetica,sans-Serif" font-size="10.00">/velocity/plain_wave</text>
<text text-anchor="middle" x="984" y="-410" font-family="Helvetica,sans-Serif" font-size="10.00">_solver.cc</text>
</a>
</g>
</g>
<!-- Node1&#45;&gt;Node31 -->
<g id="edge49" class="edge"><title>Node1&#45;&gt;Node31</title>
<path fill="none" stroke="midnightblue" d="M1073.85,-676.493C1051.54,-668.1 1028.74,-655.324 1014,-636 973.018,-582.259 975.901,-497.112 980.432,-455.116"/>
<polygon fill="midnightblue" stroke="midnightblue" points="1072.75,-679.819 1083.35,-679.828 1075.07,-673.214 1072.75,-679.819"/>
</g>
<!-- Node33 -->
<g id="node33" class="node"><title>Node33</title>
<g id="a_node33"><a xlink:href="factor__waves_8cc.html" target="_top" xlink:title="/home/travis/build\l/igankevich/arma/src\l/factor_waves.cc">
<polygon fill="none" stroke="black" points="1023.5,-588.5 1023.5,-629.5 1130.5,-629.5 1130.5,-588.5 1023.5,-588.5"/>
<text text-anchor="start" x="1031.5" y="-617.5" font-family="Helvetica,sans-Serif" font-size="10.00">/home/travis/build</text>
<text text-anchor="start" x="1031.5" y="-606.5" font-family="Helvetica,sans-Serif" font-size="10.00">/igankevich/arma/src</text>
<text text-anchor="middle" x="1077" y="-595.5" font-family="Helvetica,sans-Serif" font-size="10.00">/factor_waves.cc</text>
</a>
</g>
</g>
<!-- Node1&#45;&gt;Node33 -->
<g id="edge45" class="edge"><title>Node1&#45;&gt;Node33</title>
<path fill="none" stroke="midnightblue" d="M1119.97,-664.214C1110.98,-652.869 1100.79,-640.012 1092.59,-629.667"/>
<polygon fill="midnightblue" stroke="midnightblue" points="1117.31,-666.488 1126.27,-672.15 1122.8,-662.139 1117.31,-666.488"/>
</g>
<!-- Node34 -->
<g id="node34" class="node"><title>Node34</title>
<g id="a_node34"><a xlink:href="lh__model_8cc.html" target="_top" xlink:title="/home/travis/build\l/igankevich/arma/src\l/generator/lh_model.cc">
<polygon fill="none" stroke="black" points="1149,-588.5 1149,-629.5 1265,-629.5 1265,-588.5 1149,-588.5"/>
<text text-anchor="start" x="1157" y="-617.5" font-family="Helvetica,sans-Serif" font-size="10.00">/home/travis/build</text>
<text text-anchor="start" x="1157" y="-606.5" font-family="Helvetica,sans-Serif" font-size="10.00">/igankevich/arma/src</text>
<text text-anchor="middle" x="1207" y="-595.5" font-family="Helvetica,sans-Serif" font-size="10.00">/generator/lh_model.cc</text>
</a>
</g>
</g>
<!-- Node1&#45;&gt;Node34 -->
<g id="edge46" class="edge"><title>Node1&#45;&gt;Node34</title>
<path fill="none" stroke="midnightblue" d="M1164.03,-664.214C1173.02,-652.869 1183.21,-640.012 1191.41,-629.667"/>
<polygon fill="midnightblue" stroke="midnightblue" points="1161.2,-662.139 1157.73,-672.15 1166.69,-666.488 1161.2,-662.139"/>
</g>
<!-- Node35 -->
<g id="node35" class="node"><title>Node35</title>
<g id="a_node35"><a xlink:href="high__amplitude__realtime__solver_8cc.html" target="_top" xlink:title="/home/travis/build\l/igankevich/arma/src\l/velocity/high_amplitude\l_realtime_solver.cc">
<polygon fill="none" stroke="black" points="1283,-583 1283,-635 1405,-635 1405,-583 1283,-583"/>
<text text-anchor="start" x="1291" y="-623" font-family="Helvetica,sans-Serif" font-size="10.00">/home/travis/build</text>
<text text-anchor="start" x="1291" y="-612" font-family="Helvetica,sans-Serif" font-size="10.00">/igankevich/arma/src</text>
<text text-anchor="start" x="1291" y="-601" font-family="Helvetica,sans-Serif" font-size="10.00">/velocity/high_amplitude</text>
<text text-anchor="middle" x="1344" y="-590" font-family="Helvetica,sans-Serif" font-size="10.00">_realtime_solver.cc</text>
</a>
</g>
</g>
<!-- Node1&#45;&gt;Node35 -->
<g id="edge47" class="edge"><title>Node1&#45;&gt;Node35</title>
<path fill="none" stroke="midnightblue" d="M1199.49,-668.662C1225.54,-658.09 1256.35,-645.579 1282.82,-634.833"/>
<polygon fill="midnightblue" stroke="midnightblue" points="1198.08,-665.459 1190.13,-672.463 1200.71,-671.945 1198.08,-665.459"/>
</g>
<!-- Node36 -->
<g id="node36" class="node"><title>Node36</title>
<g id="a_node36"><a xlink:href="linear__solver_8cc.html" target="_top" xlink:title="/home/travis/build\l/igankevich/arma/src\l/velocity/linear_solver.cc">
<polygon fill="none" stroke="black" points="1423.5,-588.5 1423.5,-629.5 1548.5,-629.5 1548.5,-588.5 1423.5,-588.5"/>
<text text-anchor="start" x="1431.5" y="-617.5" font-family="Helvetica,sans-Serif" font-size="10.00">/home/travis/build</text>
<text text-anchor="start" x="1431.5" y="-606.5" font-family="Helvetica,sans-Serif" font-size="10.00">/igankevich/arma/src</text>
<text text-anchor="middle" x="1486" y="-595.5" font-family="Helvetica,sans-Serif" font-size="10.00">/velocity/linear_solver.cc</text>
</a>
</g>
</g>
<!-- Node1&#45;&gt;Node36 -->
<g id="edge48" class="edge"><title>Node1&#45;&gt;Node36</title>
<path fill="none" stroke="midnightblue" d="M1210.73,-680.667C1266.12,-670.861 1345.74,-655.243 1414,-636 1420.78,-634.089 1427.84,-631.854 1434.77,-629.513"/>
<polygon fill="midnightblue" stroke="midnightblue" points="1209.93,-677.255 1200.68,-682.43 1211.14,-684.15 1209.93,-677.255"/>
</g>
<!-- Node37 -->
<g id="node37" class="node"><title>Node37</title>
<g id="a_node37"><a xlink:href="integrals_8hh.html" target="_top" xlink:title="/home/travis/build\l/igankevich/arma/src\l/velocity/small_amplitude\l_solver/integrals.hh">
<polygon fill="none" stroke="black" points="1566.5,-583 1566.5,-635 1693.5,-635 1693.5,-583 1566.5,-583"/>
<text text-anchor="start" x="1574.5" y="-623" font-family="Helvetica,sans-Serif" font-size="10.00">/home/travis/build</text>
<text text-anchor="start" x="1574.5" y="-612" font-family="Helvetica,sans-Serif" font-size="10.00">/igankevich/arma/src</text>
<text text-anchor="start" x="1574.5" y="-601" font-family="Helvetica,sans-Serif" font-size="10.00">/velocity/small_amplitude</text>
<text text-anchor="middle" x="1630" y="-590" font-family="Helvetica,sans-Serif" font-size="10.00">_solver/integrals.hh</text>
</a>
</g>
</g>
<!-- Node1&#45;&gt;Node37 -->
<g id="edge50" class="edge"><title>Node1&#45;&gt;Node37</title>
<path fill="none" stroke="midnightblue" d="M1210.85,-687.118C1293.85,-680.225 1437.13,-665.099 1557,-636 1560.01,-635.27 1563.06,-634.461 1566.13,-633.594"/>
<polygon fill="midnightblue" stroke="midnightblue" points="1210.47,-683.637 1200.79,-687.938 1211.04,-690.614 1210.47,-683.637"/>
</g>
<!-- Node38 -->
<g id="node38" class="node"><title>Node38</title>
<g id="a_node38"><a xlink:href="small__amplitude__solver_8cc.html" target="_top" xlink:title="/home/travis/build\l/igankevich/arma/src\l/velocity/small_amplitude\l_solver.cc">
<polygon fill="none" stroke="black" points="1612.5,-493 1612.5,-545 1739.5,-545 1739.5,-493 1612.5,-493"/>
<text text-anchor="start" x="1620.5" y="-533" font-family="Helvetica,sans-Serif" font-size="10.00">/home/travis/build</text>
<text text-anchor="start" x="1620.5" y="-522" font-family="Helvetica,sans-Serif" font-size="10.00">/igankevich/arma/src</text>
<text text-anchor="start" x="1620.5" y="-511" font-family="Helvetica,sans-Serif" font-size="10.00">/velocity/small_amplitude</text>
<text text-anchor="middle" x="1676" y="-500" font-family="Helvetica,sans-Serif" font-size="10.00">_solver.cc</text>
</a>
</g>
</g>
<!-- Node1&#45;&gt;Node38 -->
<g id="edge52" class="edge"><title>Node1&#45;&gt;Node38</title>
<path fill="none" stroke="midnightblue" d="M1210.91,-690.179C1353.33,-685.704 1669.6,-671.802 1702,-636 1724.43,-611.21 1708.06,-571.342 1693.02,-545.407"/>
<polygon fill="midnightblue" stroke="midnightblue" points="1210.44,-686.692 1200.55,-690.498 1210.65,-693.689 1210.44,-686.692"/>
</g>
<!-- Node4 -->
<g id="node4" class="node"><title>Node4</title>
<g id="a_node4"><a xlink:href="distribution_8hh.html" target="_top" xlink:title="/home/travis/build\l/igankevich/arma/src\l/stats/distribution.hh">
<polygon fill="none" stroke="black" points="415.5,-498.5 415.5,-539.5 522.5,-539.5 522.5,-498.5 415.5,-498.5"/>
<text text-anchor="start" x="423.5" y="-527.5" font-family="Helvetica,sans-Serif" font-size="10.00">/home/travis/build</text>
<text text-anchor="start" x="423.5" y="-516.5" font-family="Helvetica,sans-Serif" font-size="10.00">/igankevich/arma/src</text>
<text text-anchor="middle" x="469" y="-505.5" font-family="Helvetica,sans-Serif" font-size="10.00">/stats/distribution.hh</text>
</a>
</g>
</g>
<!-- Node3&#45;&gt;Node4 -->
<g id="edge3" class="edge"><title>Node3&#45;&gt;Node4</title>
<path fill="none" stroke="midnightblue" d="M567.794,-582.999C546.312,-569.3 520.06,-552.56 500.018,-539.78"/>
<polygon fill="midnightblue" stroke="midnightblue" points="566.06,-586.044 576.373,-588.47 569.824,-580.142 566.06,-586.044"/>
</g>
<!-- Node25 -->
<g id="node25" class="node"><title>Node25</title>
<g id="a_node25"><a xlink:href="nit__transform_8hh.html" target="_top" xlink:title="/home/travis/build\l/igankevich/arma/src\l/nonlinear/nit_transform.hh">
<polygon fill="none" stroke="black" points="541,-498.5 541,-539.5 673,-539.5 673,-498.5 541,-498.5"/>
<text text-anchor="start" x="549" y="-527.5" font-family="Helvetica,sans-Serif" font-size="10.00">/home/travis/build</text>
<text text-anchor="start" x="549" y="-516.5" font-family="Helvetica,sans-Serif" font-size="10.00">/igankevich/arma/src</text>
<text text-anchor="middle" x="607" y="-505.5" font-family="Helvetica,sans-Serif" font-size="10.00">/nonlinear/nit_transform.hh</text>
</a>
</g>
</g>
<!-- Node3&#45;&gt;Node25 -->
<g id="edge31" class="edge"><title>Node3&#45;&gt;Node25</title>
<path fill="none" stroke="midnightblue" d="M607,-578.33C607,-565.629 607,-551.14 607,-539.78"/>
<polygon fill="midnightblue" stroke="midnightblue" points="603.5,-578.47 607,-588.47 610.5,-578.47 603.5,-578.47"/>
</g>
<!-- Node28 -->
<g id="node28" class="node"><title>Node28</title>
<g id="a_node28"><a xlink:href="gram__charlier_8cc.html" target="_top" xlink:title="/home/travis/build\l/igankevich/arma/src\l/stats/gram_charlier.cc">
<polygon fill="none" stroke="black" points="281,-498.5 281,-539.5 397,-539.5 397,-498.5 281,-498.5"/>
<text text-anchor="start" x="289" y="-527.5" font-family="Helvetica,sans-Serif" font-size="10.00">/home/travis/build</text>
<text text-anchor="start" x="289" y="-516.5" font-family="Helvetica,sans-Serif" font-size="10.00">/igankevich/arma/src</text>
<text text-anchor="middle" x="339" y="-505.5" font-family="Helvetica,sans-Serif" font-size="10.00">/stats/gram_charlier.cc</text>
</a>
</g>
</g>
<!-- Node3&#45;&gt;Node28 -->
<g id="edge38" class="edge"><title>Node3&#45;&gt;Node28</title>
<path fill="none" stroke="midnightblue" d="M547.869,-584.985C544.879,-583.949 541.911,-582.948 539,-582 480.771,-563.041 464.182,-565.104 406,-546 400.073,-544.054 393.905,-541.876 387.817,-539.631"/>
<polygon fill="midnightblue" stroke="midnightblue" points="546.847,-588.336 557.442,-588.389 549.192,-581.741 546.847,-588.336"/>
</g>
<!-- Node5 -->
<g id="node5" class="node"><title>Node5</title>
<g id="a_node5"><a xlink:href="arma_8hh.html" target="_top" xlink:title="/home/travis/build\l/igankevich/arma/src\l/arma.hh">
<polygon fill="none" stroke="black" points="120.5,-408.5 120.5,-449.5 227.5,-449.5 227.5,-408.5 120.5,-408.5"/>
<text text-anchor="start" x="128.5" y="-437.5" font-family="Helvetica,sans-Serif" font-size="10.00">/home/travis/build</text>
<text text-anchor="start" x="128.5" y="-426.5" font-family="Helvetica,sans-Serif" font-size="10.00">/igankevich/arma/src</text>
<text text-anchor="middle" x="174" y="-415.5" font-family="Helvetica,sans-Serif" font-size="10.00">/arma.hh</text>
</a>
</g>
</g>
<!-- Node4&#45;&gt;Node5 -->
<g id="edge4" class="edge"><title>Node4&#45;&gt;Node5</title>
<path fill="none" stroke="midnightblue" d="M413.949,-494.926C410.94,-493.887 407.943,-492.904 405,-492 331.586,-469.461 309.287,-478.95 236,-456 230.097,-454.151 223.98,-451.954 217.992,-449.631"/>
<polygon fill="midnightblue" stroke="midnightblue" points="412.962,-498.291 423.556,-498.401 415.343,-491.708 412.962,-498.291"/>
</g>
<!-- Node23 -->
<g id="node23" class="node"><title>Node23</title>
<g id="a_node23"><a xlink:href="basic__arma__model__verify_8cc.html" target="_top" xlink:title="/home/travis/build\l/igankevich/arma/src\l/generator/basic_arma\l_model_verify.cc">
<polygon fill="none" stroke="black" points="501.5,-403 501.5,-455 614.5,-455 614.5,-403 501.5,-403"/>
<text text-anchor="start" x="509.5" y="-443" font-family="Helvetica,sans-Serif" font-size="10.00">/home/travis/build</text>
<text text-anchor="start" x="509.5" y="-432" font-family="Helvetica,sans-Serif" font-size="10.00">/igankevich/arma/src</text>
<text text-anchor="start" x="509.5" y="-421" font-family="Helvetica,sans-Serif" font-size="10.00">/generator/basic_arma</text>
<text text-anchor="middle" x="558" y="-410" font-family="Helvetica,sans-Serif" font-size="10.00">_model_verify.cc</text>
</a>
</g>
</g>
<!-- Node4&#45;&gt;Node23 -->
<g id="edge28" class="edge"><title>Node4&#45;&gt;Node23</title>
<path fill="none" stroke="midnightblue" d="M496.062,-491.242C507.659,-479.775 521.134,-466.451 532.548,-455.166"/>
<polygon fill="midnightblue" stroke="midnightblue" points="493.402,-488.95 488.752,-498.47 498.324,-493.928 493.402,-488.95"/>
</g>
<!-- Node24 -->
<g id="node24" class="node"><title>Node24</title>
<g id="a_node24"><a xlink:href="distribution_8cc.html" target="_top" xlink:title="/home/travis/build\l/igankevich/arma/src\l/stats/distribution.cc">
<polygon fill="none" stroke="black" points="245.5,-408.5 245.5,-449.5 352.5,-449.5 352.5,-408.5 245.5,-408.5"/>
<text text-anchor="start" x="253.5" y="-437.5" font-family="Helvetica,sans-Serif" font-size="10.00">/home/travis/build</text>
<text text-anchor="start" x="253.5" y="-426.5" font-family="Helvetica,sans-Serif" font-size="10.00">/igankevich/arma/src</text>
<text text-anchor="middle" x="299" y="-415.5" font-family="Helvetica,sans-Serif" font-size="10.00">/stats/distribution.cc</text>
</a>
</g>
</g>
<!-- Node4&#45;&gt;Node24 -->
<g id="edge30" class="edge"><title>Node4&#45;&gt;Node24</title>
<path fill="none" stroke="midnightblue" d="M422.076,-493.71C395.259,-479.828 362.07,-462.648 336.917,-449.627"/>
<polygon fill="midnightblue" stroke="midnightblue" points="420.782,-496.981 431.271,-498.47 424,-490.765 420.782,-496.981"/>
</g>
<!-- Node6 -->
<g id="node6" class="node"><title>Node6</title>
<g id="a_node6"><a xlink:href="arma_8cc.html" target="_top" xlink:title="/home/travis/build\l/igankevich/arma/src\l/arma.cc">
<polygon fill="none" stroke="black" points="112.5,-318.5 112.5,-359.5 219.5,-359.5 219.5,-318.5 112.5,-318.5"/>
<text text-anchor="start" x="120.5" y="-347.5" font-family="Helvetica,sans-Serif" font-size="10.00">/home/travis/build</text>
<text text-anchor="start" x="120.5" y="-336.5" font-family="Helvetica,sans-Serif" font-size="10.00">/igankevich/arma/src</text>
<text text-anchor="middle" x="166" y="-325.5" font-family="Helvetica,sans-Serif" font-size="10.00">/arma.cc</text>
</a>
</g>
</g>
<!-- Node5&#45;&gt;Node6 -->
<g id="edge5" class="edge"><title>Node5&#45;&gt;Node6</title>
<path fill="none" stroke="midnightblue" d="M171.303,-398.33C170.148,-385.629 168.831,-371.14 167.798,-359.78"/>
<polygon fill="midnightblue" stroke="midnightblue" points="167.833,-398.828 172.225,-408.47 174.805,-398.194 167.833,-398.828"/>
</g>
<!-- Node7 -->
<g id="node7" class="node"><title>Node7</title>
<g id="a_node7"><a xlink:href="arma__driver_8hh.html" target="_top" xlink:title="/home/travis/build\l/igankevich/arma/src\l/arma_driver.hh">
<polygon fill="none" stroke="black" points="142.5,-156.5 142.5,-197.5 249.5,-197.5 249.5,-156.5 142.5,-156.5"/>
<text text-anchor="start" x="150.5" y="-185.5" font-family="Helvetica,sans-Serif" font-size="10.00">/home/travis/build</text>
<text text-anchor="start" x="150.5" y="-174.5" font-family="Helvetica,sans-Serif" font-size="10.00">/igankevich/arma/src</text>
<text text-anchor="middle" x="196" y="-163.5" font-family="Helvetica,sans-Serif" font-size="10.00">/arma_driver.hh</text>
</a>
</g>
</g>
<!-- Node5&#45;&gt;Node7 -->
<g id="edge6" class="edge"><title>Node5&#45;&gt;Node7</title>
<path fill="none" stroke="midnightblue" d="M132.73,-402.091C120.882,-392.357 109.435,-380.163 103,-366 93.0719,-344.15 97.7282,-335.414 103,-312 111.428,-274.568 117.889,-265.358 140,-234 149.35,-220.741 161.978,-207.807 172.876,-197.716"/>
<polygon fill="midnightblue" stroke="midnightblue" points="130.886,-405.089 140.94,-408.431 135.165,-399.549 130.886,-405.089"/>
</g>
<!-- Node14 -->
<g id="node14" class="node"><title>Node14</title>
<g id="a_node14"><a xlink:href="ar__model_8hh.html" target="_top" xlink:title="/home/travis/build\l/igankevich/arma/src\l/generator/ar_model.hh">
<polygon fill="none" stroke="black" points="378,-318.5 378,-359.5 494,-359.5 494,-318.5 378,-318.5"/>
<text text-anchor="start" x="386" y="-347.5" font-family="Helvetica,sans-Serif" font-size="10.00">/home/travis/build</text>
<text text-anchor="start" x="386" y="-336.5" font-family="Helvetica,sans-Serif" font-size="10.00">/igankevich/arma/src</text>
<text text-anchor="middle" x="436" y="-325.5" font-family="Helvetica,sans-Serif" font-size="10.00">/generator/ar_model.hh</text>
</a>
</g>
</g>
<!-- Node5&#45;&gt;Node14 -->
<g id="edge13" class="edge"><title>Node5&#45;&gt;Node14</title>
<path fill="none" stroke="midnightblue" d="M228.241,-404.772C230.853,-403.805 233.449,-402.876 236,-402 293.92,-382.115 310.818,-385.104 369,-366 374.927,-364.054 381.095,-361.876 387.183,-359.631"/>
<polygon fill="midnightblue" stroke="midnightblue" points="226.852,-401.556 218.767,-408.403 229.358,-408.092 226.852,-401.556"/>
</g>
<!-- Node20 -->
<g id="node20" class="node"><title>Node20</title>
<g id="a_node20"><a xlink:href="ma__model_8hh.html" target="_top" xlink:title="/home/travis/build\l/igankevich/arma/src\l/generator/ma_model.hh">
<polygon fill="none" stroke="black" points="238,-318.5 238,-359.5 360,-359.5 360,-318.5 238,-318.5"/>
<text text-anchor="start" x="246" y="-347.5" font-family="Helvetica,sans-Serif" font-size="10.00">/home/travis/build</text>
<text text-anchor="start" x="246" y="-336.5" font-family="Helvetica,sans-Serif" font-size="10.00">/igankevich/arma/src</text>
<text text-anchor="middle" x="299" y="-325.5" font-family="Helvetica,sans-Serif" font-size="10.00">/generator/ma_model.hh</text>
</a>
</g>
</g>
<!-- Node5&#45;&gt;Node20 -->
<g id="edge23" class="edge"><title>Node5&#45;&gt;Node20</title>
<path fill="none" stroke="midnightblue" d="M210.032,-402.633C229.394,-389.003 252.911,-372.446 270.904,-359.78"/>
<polygon fill="midnightblue" stroke="midnightblue" points="207.904,-399.851 201.742,-408.47 211.933,-405.575 207.904,-399.851"/>
</g>
<!-- Node22 -->
<g id="node22" class="node"><title>Node22</title>
<g id="a_node22"><a xlink:href="basic__arma__model_8cc.html" target="_top" xlink:title="/home/travis/build\l/igankevich/arma/src\l/generator/basic_arma\l_model.cc">
<polygon fill="none" stroke="black" points="512.5,-313 512.5,-365 625.5,-365 625.5,-313 512.5,-313"/>
<text text-anchor="start" x="520.5" y="-353" font-family="Helvetica,sans-Serif" font-size="10.00">/home/travis/build</text>
<text text-anchor="start" x="520.5" y="-342" font-family="Helvetica,sans-Serif" font-size="10.00">/igankevich/arma/src</text>
<text text-anchor="start" x="520.5" y="-331" font-family="Helvetica,sans-Serif" font-size="10.00">/generator/basic_arma</text>
<text text-anchor="middle" x="569" y="-320" font-family="Helvetica,sans-Serif" font-size="10.00">_model.cc</text>
</a>
</g>
</g>
<!-- Node5&#45;&gt;Node22 -->
<g id="edge27" class="edge"><title>Node5&#45;&gt;Node22</title>
<path fill="none" stroke="midnightblue" d="M225.955,-405.068C229.323,-403.938 232.69,-402.901 236,-402 351.111,-370.662 386.478,-395.786 502,-366 505.383,-365.128 508.827,-364.135 512.279,-363.059"/>
<polygon fill="midnightblue" stroke="midnightblue" points="224.738,-401.786 216.511,-408.461 227.105,-408.374 224.738,-401.786"/>
</g>
<!-- Node8 -->
<g id="node8" class="node"><title>Node8</title>
<g id="a_node8"><a xlink:href="arma__driver_8cc.html" target="_top" xlink:title="/home/travis/build\l/igankevich/arma/src\l/arma_driver.cc">
<polygon fill="none" stroke="black" points="142.5,-78.5 142.5,-119.5 249.5,-119.5 249.5,-78.5 142.5,-78.5"/>
<text text-anchor="start" x="150.5" y="-107.5" font-family="Helvetica,sans-Serif" font-size="10.00">/home/travis/build</text>
<text text-anchor="start" x="150.5" y="-96.5" font-family="Helvetica,sans-Serif" font-size="10.00">/igankevich/arma/src</text>
<text text-anchor="middle" x="196" y="-85.5" font-family="Helvetica,sans-Serif" font-size="10.00">/arma_driver.cc</text>
</a>
</g>
</g>
<!-- Node7&#45;&gt;Node8 -->
<g id="edge7" class="edge"><title>Node7&#45;&gt;Node8</title>
<path fill="none" stroke="midnightblue" d="M196,-146.297C196,-137.301 196,-127.653 196,-119.506"/>
<polygon fill="midnightblue" stroke="midnightblue" points="192.5,-146.428 196,-156.428 199.5,-146.428 192.5,-146.428"/>
</g>
<!-- Node9 -->
<g id="node9" class="node"><title>Node9</title>
<g id="a_node9"><a xlink:href="arma__main_8cc.html" target="_top" xlink:title="/home/travis/build\l/igankevich/arma/src\l/arma_main.cc">
<polygon fill="none" stroke="black" points="390.5,-0.5 390.5,-41.5 497.5,-41.5 497.5,-0.5 390.5,-0.5"/>
<text text-anchor="start" x="398.5" y="-29.5" font-family="Helvetica,sans-Serif" font-size="10.00">/home/travis/build</text>
<text text-anchor="start" x="398.5" y="-18.5" font-family="Helvetica,sans-Serif" font-size="10.00">/igankevich/arma/src</text>
<text text-anchor="middle" x="444" y="-7.5" font-family="Helvetica,sans-Serif" font-size="10.00">/arma_main.cc</text>
</a>
</g>
</g>
<!-- Node7&#45;&gt;Node9 -->
<g id="edge8" class="edge"><title>Node7&#45;&gt;Node9</title>
<path fill="none" stroke="midnightblue" d="M226.38,-149.522C236.605,-140.36 247.96,-129.902 258,-120 276.136,-102.112 275.879,-92.24 297,-78 325.305,-58.9166 361.016,-45.1179 390.152,-35.9929"/>
<polygon fill="midnightblue" stroke="midnightblue" points="223.967,-146.985 218.823,-156.246 228.62,-152.214 223.967,-146.985"/>
</g>
<!-- Node10 -->
<g id="node10" class="node"><title>Node10</title>
<g id="a_node10"><a xlink:href="arma__realtime__driver_8hh.html" target="_top" xlink:title="/home/travis/build\l/igankevich/arma/src\l/arma_realtime_driver.hh">
<polygon fill="none" stroke="black" points="0,-78.5 0,-119.5 124,-119.5 124,-78.5 0,-78.5"/>
<text text-anchor="start" x="8" y="-107.5" font-family="Helvetica,sans-Serif" font-size="10.00">/home/travis/build</text>
<text text-anchor="start" x="8" y="-96.5" font-family="Helvetica,sans-Serif" font-size="10.00">/igankevich/arma/src</text>
<text text-anchor="middle" x="62" y="-85.5" font-family="Helvetica,sans-Serif" font-size="10.00">/arma_realtime_driver.hh</text>
</a>
</g>
</g>
<!-- Node7&#45;&gt;Node10 -->
<g id="edge9" class="edge"><title>Node7&#45;&gt;Node10</title>
<path fill="none" stroke="midnightblue" d="M152.777,-151.486C134.525,-141.134 113.568,-129.247 96.3914,-119.506"/>
<polygon fill="midnightblue" stroke="midnightblue" points="151.067,-154.539 161.492,-156.428 154.52,-148.45 151.067,-154.539"/>
</g>
<!-- Node13 -->
<g id="node13" class="node"><title>Node13</title>
<g id="a_node13"><a xlink:href="visual_8cc.html" target="_top" xlink:title="/home/travis/build\l/igankevich/arma/src\l/visual.cc">
<polygon fill="none" stroke="black" points="306.5,-78.5 306.5,-119.5 413.5,-119.5 413.5,-78.5 306.5,-78.5"/>
<text text-anchor="start" x="314.5" y="-107.5" font-family="Helvetica,sans-Serif" font-size="10.00">/home/travis/build</text>
<text text-anchor="start" x="314.5" y="-96.5" font-family="Helvetica,sans-Serif" font-size="10.00">/igankevich/arma/src</text>
<text text-anchor="middle" x="360" y="-85.5" font-family="Helvetica,sans-Serif" font-size="10.00">/visual.cc</text>
</a>
</g>
</g>
<!-- Node7&#45;&gt;Node13 -->
<g id="edge12" class="edge"><title>Node7&#45;&gt;Node13</title>
<path fill="none" stroke="midnightblue" d="M247.382,-152.189C270.07,-141.675 296.41,-129.469 317.909,-119.506"/>
<polygon fill="midnightblue" stroke="midnightblue" points="245.836,-149.048 238.234,-156.428 248.779,-155.399 245.836,-149.048"/>
</g>
<!-- Node11 -->
<g id="node11" class="node"><title>Node11</title>
<g id="a_node11"><a xlink:href="arma__realtime_8cc.html" target="_top" xlink:title="/home/travis/build\l/igankevich/arma/src\l/arma_realtime.cc">
<polygon fill="none" stroke="black" points="224.5,-0.5 224.5,-41.5 331.5,-41.5 331.5,-0.5 224.5,-0.5"/>
<text text-anchor="start" x="232.5" y="-29.5" font-family="Helvetica,sans-Serif" font-size="10.00">/home/travis/build</text>
<text text-anchor="start" x="232.5" y="-18.5" font-family="Helvetica,sans-Serif" font-size="10.00">/igankevich/arma/src</text>
<text text-anchor="middle" x="278" y="-7.5" font-family="Helvetica,sans-Serif" font-size="10.00">/arma_realtime.cc</text>
</a>
</g>
</g>
<!-- Node10&#45;&gt;Node11 -->
<g id="edge10" class="edge"><title>Node10&#45;&gt;Node11</title>
<path fill="none" stroke="midnightblue" d="M127.082,-75.1007C158.187,-64.1563 194.965,-51.216 224.427,-40.8498"/>
<polygon fill="midnightblue" stroke="midnightblue" points="125.897,-71.8074 117.625,-78.4281 128.22,-78.4106 125.897,-71.8074"/>
</g>
<!-- Node12 -->
<g id="node12" class="node"><title>Node12</title>
<g id="a_node12"><a xlink:href="arma__realtime__driver_8cc.html" target="_top" xlink:title="/home/travis/build\l/igankevich/arma/src\l/arma_realtime_driver.cc">
<polygon fill="none" stroke="black" points="0,-0.5 0,-41.5 124,-41.5 124,-0.5 0,-0.5"/>
<text text-anchor="start" x="8" y="-29.5" font-family="Helvetica,sans-Serif" font-size="10.00">/home/travis/build</text>
<text text-anchor="start" x="8" y="-18.5" font-family="Helvetica,sans-Serif" font-size="10.00">/igankevich/arma/src</text>
<text text-anchor="middle" x="62" y="-7.5" font-family="Helvetica,sans-Serif" font-size="10.00">/arma_realtime_driver.cc</text>
</a>
</g>
</g>
<!-- Node10&#45;&gt;Node12 -->
<g id="edge11" class="edge"><title>Node10&#45;&gt;Node12</title>
<path fill="none" stroke="midnightblue" d="M62,-68.2965C62,-59.3009 62,-49.6532 62,-41.5056"/>
<polygon fill="midnightblue" stroke="midnightblue" points="58.5001,-68.4281 62,-78.4281 65.5001,-68.4281 58.5001,-68.4281"/>
</g>
<!-- Node15 -->
<g id="node15" class="node"><title>Node15</title>
<g id="a_node15"><a xlink:href="register__all_8hh.html" target="_top" xlink:title="/home/travis/build\l/igankevich/arma/src\l/register_all.hh">
<polygon fill="none" stroke="black" points="431.5,-156.5 431.5,-197.5 538.5,-197.5 538.5,-156.5 431.5,-156.5"/>
<text text-anchor="start" x="439.5" y="-185.5" font-family="Helvetica,sans-Serif" font-size="10.00">/home/travis/build</text>
<text text-anchor="start" x="439.5" y="-174.5" font-family="Helvetica,sans-Serif" font-size="10.00">/igankevich/arma/src</text>
<text text-anchor="middle" x="485" y="-163.5" font-family="Helvetica,sans-Serif" font-size="10.00">/register_all.hh</text>
</a>
</g>
</g>
<!-- Node14&#45;&gt;Node15 -->
<g id="edge14" class="edge"><title>Node14&#45;&gt;Node15</title>
<path fill="none" stroke="midnightblue" d="M451.712,-309.485C456.874,-299.177 462.244,-287.293 466,-276 474.806,-249.524 480.051,-217.588 482.73,-197.532"/>
<polygon fill="midnightblue" stroke="midnightblue" points="448.563,-307.955 447.083,-318.446 454.782,-311.168 448.563,-307.955"/>
</g>
<!-- Node17 -->
<g id="node17" class="node"><title>Node17</title>
<g id="a_node17"><a xlink:href="arma__model_8hh.html" target="_top" xlink:title="/home/travis/build\l/igankevich/arma/src\l/generator/arma_model.hh">
<polygon fill="none" stroke="black" points="327,-234.5 327,-275.5 457,-275.5 457,-234.5 327,-234.5"/>
<text text-anchor="start" x="335" y="-263.5" font-family="Helvetica,sans-Serif" font-size="10.00">/home/travis/build</text>
<text text-anchor="start" x="335" y="-252.5" font-family="Helvetica,sans-Serif" font-size="10.00">/igankevich/arma/src</text>
<text text-anchor="middle" x="392" y="-241.5" font-family="Helvetica,sans-Serif" font-size="10.00">/generator/arma_model.hh</text>
</a>
</g>
</g>
<!-- Node14&#45;&gt;Node17 -->
<g id="edge19" class="edge"><title>Node14&#45;&gt;Node17</title>
<path fill="none" stroke="midnightblue" d="M420.556,-309.219C414.602,-298.122 407.942,-285.711 402.553,-275.667"/>
<polygon fill="midnightblue" stroke="midnightblue" points="417.537,-310.993 425.349,-318.15 423.705,-307.684 417.537,-310.993"/>
</g>
<!-- Node19 -->
<g id="node19" class="node"><title>Node19</title>
<g id="a_node19"><a xlink:href="ar__model_8cc.html" target="_top" xlink:title="/home/travis/build\l/igankevich/arma/src\l/generator/ar_model.cc">
<polygon fill="none" stroke="black" points="513,-234.5 513,-275.5 629,-275.5 629,-234.5 513,-234.5"/>
<text text-anchor="start" x="521" y="-263.5" font-family="Helvetica,sans-Serif" font-size="10.00">/home/travis/build</text>
<text text-anchor="start" x="521" y="-252.5" font-family="Helvetica,sans-Serif" font-size="10.00">/igankevich/arma/src</text>
<text text-anchor="middle" x="571" y="-241.5" font-family="Helvetica,sans-Serif" font-size="10.00">/generator/ar_model.cc</text>
</a>
</g>
</g>
<!-- Node14&#45;&gt;Node19 -->
<g id="edge22" class="edge"><title>Node14&#45;&gt;Node19</title>
<path fill="none" stroke="midnightblue" d="M477.1,-313.036C496.785,-301.079 520.025,-286.963 538.46,-275.765"/>
<polygon fill="midnightblue" stroke="midnightblue" points="475.066,-310.176 468.336,-318.359 478.7,-316.159 475.066,-310.176"/>
</g>
<!-- Node15&#45;&gt;Node13 -->
<g id="edge18" class="edge"><title>Node15&#45;&gt;Node13</title>
<path fill="none" stroke="midnightblue" d="M444.215,-151.203C427.299,-140.918 407.958,-129.159 392.082,-119.506"/>
<polygon fill="midnightblue" stroke="midnightblue" points="442.446,-154.224 452.809,-156.428 446.083,-148.242 442.446,-154.224"/>
</g>
<!-- Node16 -->
<g id="node16" class="node"><title>Node16</title>
<g id="a_node16"><a xlink:href="common__main_8hh.html" target="_top" xlink:title="/home/travis/build\l/igankevich/arma/src\l/common_main.hh">
<polygon fill="none" stroke="black" points="431.5,-78.5 431.5,-119.5 538.5,-119.5 538.5,-78.5 431.5,-78.5"/>
<text text-anchor="start" x="439.5" y="-107.5" font-family="Helvetica,sans-Serif" font-size="10.00">/home/travis/build</text>
<text text-anchor="start" x="439.5" y="-96.5" font-family="Helvetica,sans-Serif" font-size="10.00">/igankevich/arma/src</text>
<text text-anchor="middle" x="485" y="-85.5" font-family="Helvetica,sans-Serif" font-size="10.00">/common_main.hh</text>
</a>
</g>
</g>
<!-- Node15&#45;&gt;Node16 -->
<g id="edge15" class="edge"><title>Node15&#45;&gt;Node16</title>
<path fill="none" stroke="midnightblue" d="M485,-146.297C485,-137.301 485,-127.653 485,-119.506"/>
<polygon fill="midnightblue" stroke="midnightblue" points="481.5,-146.428 485,-156.428 488.5,-146.428 481.5,-146.428"/>
</g>
<!-- Node16&#45;&gt;Node9 -->
<g id="edge16" class="edge"><title>Node16&#45;&gt;Node9</title>
<path fill="none" stroke="midnightblue" d="M469.607,-69.466C464.577,-60.1427 459.109,-50.0074 454.523,-41.5056"/>
<polygon fill="midnightblue" stroke="midnightblue" points="466.613,-71.2889 474.441,-78.4281 472.774,-67.9653 466.613,-71.2889"/>
</g>
<!-- Node16&#45;&gt;Node11 -->
<g id="edge17" class="edge"><title>Node16&#45;&gt;Node11</title>
<path fill="none" stroke="midnightblue" d="M422.048,-74.8874C392.99,-64.2185 358.866,-51.6901 331.127,-41.5056"/>
<polygon fill="midnightblue" stroke="midnightblue" points="421.099,-78.2671 431.692,-78.4281 423.511,-71.6959 421.099,-78.2671"/>
</g>
<!-- Node17&#45;&gt;Node15 -->
<g id="edge20" class="edge"><title>Node17&#45;&gt;Node15</title>
<path fill="none" stroke="midnightblue" d="M423.737,-228.065C435.982,-218.057 449.752,-206.804 461.131,-197.506"/>
<polygon fill="midnightblue" stroke="midnightblue" points="421.478,-225.39 415.95,-234.428 425.908,-230.81 421.478,-225.39"/>
</g>
<!-- Node18 -->
<g id="node18" class="node"><title>Node18</title>
<g id="a_node18"><a xlink:href="arma__model_8cc.html" target="_top" xlink:title="/home/travis/build\l/igankevich/arma/src\l/generator/arma_model.cc">
<polygon fill="none" stroke="black" points="283,-156.5 283,-197.5 413,-197.5 413,-156.5 283,-156.5"/>
<text text-anchor="start" x="291" y="-185.5" font-family="Helvetica,sans-Serif" font-size="10.00">/home/travis/build</text>
<text text-anchor="start" x="291" y="-174.5" font-family="Helvetica,sans-Serif" font-size="10.00">/igankevich/arma/src</text>
<text text-anchor="middle" x="348" y="-163.5" font-family="Helvetica,sans-Serif" font-size="10.00">/generator/arma_model.cc</text>
</a>
</g>
</g>
<!-- Node17&#45;&gt;Node18 -->
<g id="edge21" class="edge"><title>Node17&#45;&gt;Node18</title>
<path fill="none" stroke="midnightblue" d="M375.649,-225.757C370.205,-216.354 364.266,-206.096 359.293,-197.506"/>
<polygon fill="midnightblue" stroke="midnightblue" points="372.629,-227.527 380.669,-234.428 378.687,-224.02 372.629,-227.527"/>
</g>
<!-- Node20&#45;&gt;Node15 -->
<g id="edge24" class="edge"><title>Node20&#45;&gt;Node15</title>
<path fill="none" stroke="midnightblue" d="M296.789,-308.065C296.745,-285.186 300.465,-254.238 318,-234 319.977,-231.718 383.128,-210.921 431.187,-195.333"/>
<polygon fill="midnightblue" stroke="midnightblue" points="293.295,-308.347 297.054,-318.252 300.293,-308.165 293.295,-308.347"/>
</g>
<!-- Node20&#45;&gt;Node17 -->
<g id="edge25" class="edge"><title>Node20&#45;&gt;Node17</title>
<path fill="none" stroke="midnightblue" d="M329.023,-311.528C342.244,-299.871 357.506,-286.414 369.695,-275.667"/>
<polygon fill="midnightblue" stroke="midnightblue" points="326.699,-308.911 321.513,-318.15 331.328,-314.162 326.699,-308.911"/>
</g>
<!-- Node21 -->
<g id="node21" class="node"><title>Node21</title>
<g id="a_node21"><a xlink:href="ma__model_8cc.html" target="_top" xlink:title="/home/travis/build\l/igankevich/arma/src\l/generator/ma_model.cc">
<polygon fill="none" stroke="black" points="149,-234.5 149,-275.5 271,-275.5 271,-234.5 149,-234.5"/>
<text text-anchor="start" x="157" y="-263.5" font-family="Helvetica,sans-Serif" font-size="10.00">/home/travis/build</text>
<text text-anchor="start" x="157" y="-252.5" font-family="Helvetica,sans-Serif" font-size="10.00">/igankevich/arma/src</text>
<text text-anchor="middle" x="210" y="-241.5" font-family="Helvetica,sans-Serif" font-size="10.00">/generator/ma_model.cc</text>
</a>
</g>
</g>
<!-- Node20&#45;&gt;Node21 -->
<g id="edge26" class="edge"><title>Node20&#45;&gt;Node21</title>
<path fill="none" stroke="midnightblue" d="M269.913,-311.201C257.343,-299.62 242.901,-286.313 231.346,-275.667"/>
<polygon fill="midnightblue" stroke="midnightblue" points="267.73,-313.948 277.456,-318.15 272.473,-308.8 267.73,-313.948"/>
</g>
<!-- Node23&#45;&gt;Node22 -->
<g id="edge29" class="edge"><title>Node23&#45;&gt;Node22</title>
<path fill="none" stroke="midnightblue" d="M562.439,-392.489C563.586,-383.309 564.798,-373.616 565.863,-365.092"/>
<polygon fill="midnightblue" stroke="midnightblue" points="558.949,-392.19 561.182,-402.547 565.895,-393.058 558.949,-392.19"/>
</g>
<!-- Node25&#45;&gt;Node22 -->
<g id="edge36" class="edge"><title>Node25&#45;&gt;Node22</title>
<path fill="none" stroke="midnightblue" d="M618.655,-488.892C626.483,-464.894 633.604,-430.32 623,-402 617.845,-388.231 608.096,-375.505 598.285,-365.212"/>
<polygon fill="midnightblue" stroke="midnightblue" points="615.299,-487.885 615.307,-498.48 621.908,-490.193 615.299,-487.885"/>
</g>
<!-- Node26 -->
<g id="node26" class="node"><title>Node26</title>
<g id="a_node26"><a xlink:href="basic__arma__model_8hh.html" target="_top" xlink:title="/home/travis/build\l/igankevich/arma/src\l/generator/basic_arma\l_model.hh">
<polygon fill="none" stroke="black" points="370.5,-403 370.5,-455 483.5,-455 483.5,-403 370.5,-403"/>
<text text-anchor="start" x="378.5" y="-443" font-family="Helvetica,sans-Serif" font-size="10.00">/home/travis/build</text>
<text text-anchor="start" x="378.5" y="-432" font-family="Helvetica,sans-Serif" font-size="10.00">/igankevich/arma/src</text>
<text text-anchor="start" x="378.5" y="-421" font-family="Helvetica,sans-Serif" font-size="10.00">/generator/basic_arma</text>
<text text-anchor="middle" x="427" y="-410" font-family="Helvetica,sans-Serif" font-size="10.00">_model.hh</text>
</a>
</g>
</g>
<!-- Node25&#45;&gt;Node26 -->
<g id="edge32" class="edge"><title>Node25&#45;&gt;Node26</title>
<path fill="none" stroke="midnightblue" d="M557.849,-493.97C533.112,-481.877 503.149,-467.228 478.141,-455.002"/>
<polygon fill="midnightblue" stroke="midnightblue" points="556.531,-497.222 567.052,-498.47 559.606,-490.933 556.531,-497.222"/>
</g>
<!-- Node27 -->
<g id="node27" class="node"><title>Node27</title>
<g id="a_node27"><a xlink:href="nit__transform_8cc.html" target="_top" xlink:title="/home/travis/build\l/igankevich/arma/src\l/nonlinear/nit_transform.cc">
<polygon fill="none" stroke="black" points="671,-408.5 671,-449.5 803,-449.5 803,-408.5 671,-408.5"/>
<text text-anchor="start" x="679" y="-437.5" font-family="Helvetica,sans-Serif" font-size="10.00">/home/travis/build</text>
<text text-anchor="start" x="679" y="-426.5" font-family="Helvetica,sans-Serif" font-size="10.00">/igankevich/arma/src</text>
<text text-anchor="middle" x="737" y="-415.5" font-family="Helvetica,sans-Serif" font-size="10.00">/nonlinear/nit_transform.cc</text>
</a>
</g>
</g>
<!-- Node25&#45;&gt;Node27 -->
<g id="edge37" class="edge"><title>Node25&#45;&gt;Node27</title>
<path fill="none" stroke="midnightblue" d="M644.203,-492.816C664.39,-479.151 688.984,-462.503 707.78,-449.78"/>
<polygon fill="midnightblue" stroke="midnightblue" points="642.17,-489.966 635.851,-498.47 646.094,-495.763 642.17,-489.966"/>
</g>
<!-- Node26&#45;&gt;Node14 -->
<g id="edge33" class="edge"><title>Node26&#45;&gt;Node14</title>
<path fill="none" stroke="midnightblue" d="M430.629,-392.515C431.78,-381.257 433.011,-369.227 434.003,-359.525"/>
<polygon fill="midnightblue" stroke="midnightblue" points="427.139,-392.243 429.603,-402.547 434.103,-392.955 427.139,-392.243"/>
</g>
<!-- Node26&#45;&gt;Node20 -->
<g id="edge34" class="edge"><title>Node26&#45;&gt;Node20</title>
<path fill="none" stroke="midnightblue" d="M381.675,-396.839C363.653,-384.449 343.465,-370.57 327.55,-359.628"/>
<polygon fill="midnightblue" stroke="midnightblue" points="380.097,-400.002 390.32,-402.783 384.063,-394.233 380.097,-400.002"/>
</g>
<!-- Node26&#45;&gt;Node22 -->
<g id="edge35" class="edge"><title>Node26&#45;&gt;Node22</title>
<path fill="none" stroke="midnightblue" d="M476.371,-397.404C493.331,-386.894 512.111,-375.255 528.303,-365.221"/>
<polygon fill="midnightblue" stroke="midnightblue" points="474.348,-394.54 467.692,-402.783 478.035,-400.49 474.348,-394.54"/>
</g>
<!-- Node29&#45;&gt;Node15 -->
<g id="edge40" class="edge"><title>Node29&#45;&gt;Node15</title>
<path fill="none" stroke="midnightblue" d="M858.141,-573.336C855.176,-564.506 852.238,-554.973 850,-546 837.355,-495.311 831,-482.243 831,-430 831,-430 831,-430 831,-338 831,-210.767 635.868,-184.397 538.683,-179.154"/>
<polygon fill="midnightblue" stroke="midnightblue" points="854.887,-574.636 861.466,-582.94 861.502,-572.346 854.887,-574.636"/>
</g>
<!-- Node30 -->
<g id="node30" class="node"><title>Node30</title>
<g id="a_node30"><a xlink:href="plain__wave__solver_8hh.html" target="_top" xlink:title="/home/travis/build\l/igankevich/arma/src\l/velocity/plain_wave\l_solver.hh">
<polygon fill="none" stroke="black" points="859.5,-493 859.5,-545 966.5,-545 966.5,-493 859.5,-493"/>
<text text-anchor="start" x="867.5" y="-533" font-family="Helvetica,sans-Serif" font-size="10.00">/home/travis/build</text>
<text text-anchor="start" x="867.5" y="-522" font-family="Helvetica,sans-Serif" font-size="10.00">/igankevich/arma/src</text>
<text text-anchor="start" x="867.5" y="-511" font-family="Helvetica,sans-Serif" font-size="10.00">/velocity/plain_wave</text>
<text text-anchor="middle" x="913" y="-500" font-family="Helvetica,sans-Serif" font-size="10.00">_solver.hh</text>
</a>
</g>
</g>
<!-- Node29&#45;&gt;Node30 -->
<g id="edge41" class="edge"><title>Node29&#45;&gt;Node30</title>
<path fill="none" stroke="midnightblue" d="M887.525,-573.376C892.031,-563.935 896.825,-553.891 901.024,-545.092"/>
<polygon fill="midnightblue" stroke="midnightblue" points="884.297,-572.014 883.148,-582.547 890.614,-575.03 884.297,-572.014"/>
</g>
<!-- Node32 -->
<g id="node32" class="node"><title>Node32</title>
<g id="a_node32"><a xlink:href="plain__wave__model_8cc.html" target="_top" xlink:title="/home/travis/build\l/igankevich/arma/src\l/generator/plain_wave\l_model.cc">
<polygon fill="none" stroke="black" points="691,-493 691,-545 803,-545 803,-493 691,-493"/>
<text text-anchor="start" x="699" y="-533" font-family="Helvetica,sans-Serif" font-size="10.00">/home/travis/build</text>
<text text-anchor="start" x="699" y="-522" font-family="Helvetica,sans-Serif" font-size="10.00">/igankevich/arma/src</text>
<text text-anchor="start" x="699" y="-511" font-family="Helvetica,sans-Serif" font-size="10.00">/generator/plain_wave</text>
<text text-anchor="middle" x="747" y="-500" font-family="Helvetica,sans-Serif" font-size="10.00">_model.cc</text>
</a>
</g>
</g>
<!-- Node29&#45;&gt;Node32 -->
<g id="edge44" class="edge"><title>Node29&#45;&gt;Node32</title>
<path fill="none" stroke="midnightblue" d="M827.07,-576.824C812.476,-566.467 796.418,-555.071 782.539,-545.221"/>
<polygon fill="midnightblue" stroke="midnightblue" points="825.286,-579.85 835.467,-582.783 829.337,-574.141 825.286,-579.85"/>
</g>
<!-- Node30&#45;&gt;Node15 -->
<g id="edge42" class="edge"><title>Node30&#45;&gt;Node15</title>
<path fill="none" stroke="midnightblue" d="M915.976,-482.404C918.901,-421.756 915.136,-298.693 845,-234 801.354,-193.741 628.094,-182.413 538.813,-179.234"/>
<polygon fill="midnightblue" stroke="midnightblue" points="912.468,-482.443 915.39,-492.627 919.456,-482.843 912.468,-482.443"/>
</g>
<!-- Node30&#45;&gt;Node31 -->
<g id="edge43" class="edge"><title>Node30&#45;&gt;Node31</title>
<path fill="none" stroke="midnightblue" d="M939.986,-484.553C947.875,-474.775 956.36,-464.258 963.755,-455.092"/>
<polygon fill="midnightblue" stroke="midnightblue" points="937.091,-482.566 933.536,-492.547 942.539,-486.962 937.091,-482.566"/>
</g>
<!-- Node37&#45;&gt;Node38 -->
<g id="edge51" class="edge"><title>Node37&#45;&gt;Node38</title>
<path fill="none" stroke="midnightblue" d="M1647.94,-573.671C1652.92,-564.145 1658.24,-553.983 1662.88,-545.092"/>
<polygon fill="midnightblue" stroke="midnightblue" points="1644.84,-572.063 1643.31,-582.547 1651.04,-575.306 1644.84,-572.063"/>
</g>
</g>
</svg>
