<?xml version="1.0" encoding="UTF-8" standalone="no"?>
<!DOCTYPE svg PUBLIC "-//W3C//DTD SVG 1.1//EN"
 "http://www.w3.org/Graphics/SVG/1.1/DTD/svg11.dtd">
<!-- Generated by graphviz version 2.36.0 (20140111.2315)
 -->
<!-- Title: /home/travis/build/igankevich/arma/src/physical_constants.hh Pages: 1 -->
<svg width="1176pt" height="722pt"
 viewBox="0.00 0.00 1175.92 722.00" xmlns="http://www.w3.org/2000/svg" xmlns:xlink="http://www.w3.org/1999/xlink">
<g id="graph0" class="graph" transform="scale(1 1) rotate(0) translate(4 718)">
<title>/home/travis/build/igankevich/arma/src/physical_constants.hh</title>
<!-- Node1 -->
<g id="node1" class="node"><title>Node1</title>
<polygon fill="#bfbfbf" stroke="black" points="519.424,-672.5 519.424,-713.5 636.424,-713.5 636.424,-672.5 519.424,-672.5"/>
<text text-anchor="start" x="527.424" y="-701.5" font-family="Helvetica,sans-Serif" font-size="10.00">/home/travis/build</text>
<text text-anchor="start" x="527.424" y="-690.5" font-family="Helvetica,sans-Serif" font-size="10.00">/igankevich/arma/src</text>
<text text-anchor="middle" x="577.924" y="-679.5" font-family="Helvetica,sans-Serif" font-size="10.00">/physical_constants.hh</text>
</g>
<!-- Node2 -->
<g id="node2" class="node"><title>Node2</title>
<g id="a_node2"><a xlink:href="owen__t_8cc.html" target="_top" xlink:title="/home/travis/build\l/igankevich/arma/src\l/apmath/owen_t.cc">
<polygon fill="none" stroke="black" points="32.4243,-588.5 32.4243,-629.5 139.424,-629.5 139.424,-588.5 32.4243,-588.5"/>
<text text-anchor="start" x="40.4243" y="-617.5" font-family="Helvetica,sans-Serif" font-size="10.00">/home/travis/build</text>
<text text-anchor="start" x="40.4243" y="-606.5" font-family="Helvetica,sans-Serif" font-size="10.00">/igankevich/arma/src</text>
<text text-anchor="middle" x="85.9243" y="-595.5" font-family="Helvetica,sans-Serif" font-size="10.00">/apmath/owen_t.cc</text>
</a>
</g>
</g>
<!-- Node1&#45;&gt;Node2 -->
<g id="edge1" class="edge"><title>Node1&#45;&gt;Node2</title>
<path fill="none" stroke="midnightblue" d="M509.092,-688.71C423.25,-683.32 272.606,-669.608 147.924,-636 141.501,-634.268 134.864,-632.019 128.427,-629.568"/>
<polygon fill="midnightblue" stroke="midnightblue" points="509.039,-692.213 519.233,-689.326 509.464,-685.226 509.039,-692.213"/>
</g>
<!-- Node3 -->
<g id="node3" class="node"><title>Node3</title>
<g id="a_node3"><a xlink:href="plain__wave__model_8hh.html" target="_top" xlink:title="/home/travis/build\l/igankevich/arma/src\l/generator/plain_wave\l_model.hh">
<polygon fill="none" stroke="black" points="156.924,-583 156.924,-635 268.924,-635 268.924,-583 156.924,-583"/>
<text text-anchor="start" x="164.924" y="-623" font-family="Helvetica,sans-Serif" font-size="10.00">/home/travis/build</text>
<text text-anchor="start" x="164.924" y="-612" font-family="Helvetica,sans-Serif" font-size="10.00">/igankevich/arma/src</text>
<text text-anchor="start" x="164.924" y="-601" font-family="Helvetica,sans-Serif" font-size="10.00">/generator/plain_wave</text>
<text text-anchor="middle" x="212.924" y="-590" font-family="Helvetica,sans-Serif" font-size="10.00">_model.hh</text>
</a>
</g>
</g>
<!-- Node1&#45;&gt;Node3 -->
<g id="edge2" class="edge"><title>Node1&#45;&gt;Node3</title>
<path fill="none" stroke="midnightblue" d="M509.167,-682.301C448.895,-673.006 359.236,-657.253 282.924,-636 278.428,-634.748 273.813,-633.334 269.2,-631.828"/>
<polygon fill="midnightblue" stroke="midnightblue" points="508.911,-685.802 519.324,-683.849 509.966,-678.882 508.911,-685.802"/>
</g>
<!-- Node10 -->
<g id="node10" class="node"><title>Node10</title>
<g id="a_node10"><a xlink:href="plain__wave__solver_8cc.html" target="_top" xlink:title="/home/travis/build\l/igankevich/arma/src\l/velocity/plain_wave\l_solver.cc">
<polygon fill="none" stroke="black" points="70.4243,-403 70.4243,-455 177.424,-455 177.424,-403 70.4243,-403"/>
<text text-anchor="start" x="78.4243" y="-443" font-family="Helvetica,sans-Serif" font-size="10.00">/home/travis/build</text>
<text text-anchor="start" x="78.4243" y="-432" font-family="Helvetica,sans-Serif" font-size="10.00">/igankevich/arma/src</text>
<text text-anchor="start" x="78.4243" y="-421" font-family="Helvetica,sans-Serif" font-size="10.00">/velocity/plain_wave</text>
<text text-anchor="middle" x="123.924" y="-410" font-family="Helvetica,sans-Serif" font-size="10.00">_solver.cc</text>
</a>
</g>
</g>
<!-- Node1&#45;&gt;Node10 -->
<g id="edge37" class="edge"><title>Node1&#45;&gt;Node10</title>
<path fill="none" stroke="midnightblue" d="M509.174,-685.401C441.138,-677.489 343.303,-661.941 315.924,-636 267.792,-590.396 321.106,-541.441 276.924,-492 247.942,-459.568 226.204,-472.411 185.924,-456 183.222,-454.899 180.456,-453.765 177.665,-452.615"/>
<polygon fill="midnightblue" stroke="midnightblue" points="509.073,-688.912 519.403,-686.559 509.861,-681.956 509.073,-688.912"/>
</g>
<!-- Node12 -->
<g id="node12" class="node"><title>Node12</title>
<g id="a_node12"><a xlink:href="factor__waves_8cc.html" target="_top" xlink:title="/home/travis/build\l/igankevich/arma/src\l/factor_waves.cc">
<polygon fill="none" stroke="black" points="459.424,-588.5 459.424,-629.5 566.424,-629.5 566.424,-588.5 459.424,-588.5"/>
<text text-anchor="start" x="467.424" y="-617.5" font-family="Helvetica,sans-Serif" font-size="10.00">/home/travis/build</text>
<text text-anchor="start" x="467.424" y="-606.5" font-family="Helvetica,sans-Serif" font-size="10.00">/igankevich/arma/src</text>
<text text-anchor="middle" x="512.924" y="-595.5" font-family="Helvetica,sans-Serif" font-size="10.00">/factor_waves.cc</text>
</a>
</g>
</g>
<!-- Node1&#45;&gt;Node12 -->
<g id="edge12" class="edge"><title>Node1&#45;&gt;Node12</title>
<path fill="none" stroke="midnightblue" d="M555.899,-664.214C546.906,-652.869 536.714,-640.012 528.514,-629.667"/>
<polygon fill="midnightblue" stroke="midnightblue" points="553.235,-666.488 562.19,-672.15 558.721,-662.139 553.235,-666.488"/>
</g>
<!-- Node13 -->
<g id="node13" class="node"><title>Node13</title>
<g id="a_node13"><a xlink:href="lh__model_8cc.html" target="_top" xlink:title="/home/travis/build\l/igankevich/arma/src\l/generator/lh_model.cc">
<polygon fill="none" stroke="black" points="584.924,-588.5 584.924,-629.5 700.924,-629.5 700.924,-588.5 584.924,-588.5"/>
<text text-anchor="start" x="592.924" y="-617.5" font-family="Helvetica,sans-Serif" font-size="10.00">/home/travis/build</text>
<text text-anchor="start" x="592.924" y="-606.5" font-family="Helvetica,sans-Serif" font-size="10.00">/igankevich/arma/src</text>
<text text-anchor="middle" x="642.924" y="-595.5" font-family="Helvetica,sans-Serif" font-size="10.00">/generator/lh_model.cc</text>
</a>
</g>
</g>
<!-- Node1&#45;&gt;Node13 -->
<g id="edge13" class="edge"><title>Node1&#45;&gt;Node13</title>
<path fill="none" stroke="midnightblue" d="M599.95,-664.214C608.943,-652.869 619.134,-640.012 627.335,-629.667"/>
<polygon fill="midnightblue" stroke="midnightblue" points="597.128,-662.139 593.659,-672.15 602.614,-666.488 597.128,-662.139"/>
</g>
<!-- Node14 -->
<g id="node14" class="node"><title>Node14</title>
<g id="a_node14"><a xlink:href="gram__charlier_8hh.html" target="_top" xlink:title="/home/travis/build\l/igankevich/arma/src\l/stats/gram_charlier.hh">
<polygon fill="none" stroke="black" points="324.924,-588.5 324.924,-629.5 440.924,-629.5 440.924,-588.5 324.924,-588.5"/>
<text text-anchor="start" x="332.924" y="-617.5" font-family="Helvetica,sans-Serif" font-size="10.00">/home/travis/build</text>
<text text-anchor="start" x="332.924" y="-606.5" font-family="Helvetica,sans-Serif" font-size="10.00">/igankevich/arma/src</text>
<text text-anchor="middle" x="382.924" y="-595.5" font-family="Helvetica,sans-Serif" font-size="10.00">/stats/gram_charlier.hh</text>
</a>
</g>
</g>
<!-- Node1&#45;&gt;Node14 -->
<g id="edge14" class="edge"><title>Node1&#45;&gt;Node14</title>
<path fill="none" stroke="midnightblue" d="M521.955,-668.464C492.711,-656.167 457.336,-641.291 429.588,-629.623"/>
<polygon fill="midnightblue" stroke="midnightblue" points="520.642,-671.709 531.217,-672.359 523.356,-665.256 520.642,-671.709"/>
</g>
<!-- Node29 -->
<g id="node29" class="node"><title>Node29</title>
<g id="a_node29"><a xlink:href="high__amplitude__realtime__solver_8cc.html" target="_top" xlink:title="/home/travis/build\l/igankevich/arma/src\l/velocity/high_amplitude\l_realtime_solver.cc">
<polygon fill="none" stroke="black" points="718.924,-583 718.924,-635 840.924,-635 840.924,-583 718.924,-583"/>
<text text-anchor="start" x="726.924" y="-623" font-family="Helvetica,sans-Serif" font-size="10.00">/home/travis/build</text>
<text text-anchor="start" x="726.924" y="-612" font-family="Helvetica,sans-Serif" font-size="10.00">/igankevich/arma/src</text>
<text text-anchor="start" x="726.924" y="-601" font-family="Helvetica,sans-Serif" font-size="10.00">/velocity/high_amplitude</text>
<text text-anchor="middle" x="779.924" y="-590" font-family="Helvetica,sans-Serif" font-size="10.00">_realtime_solver.cc</text>
</a>
</g>
</g>
<!-- Node1&#45;&gt;Node29 -->
<g id="edge35" class="edge"><title>Node1&#45;&gt;Node29</title>
<path fill="none" stroke="midnightblue" d="M635.415,-668.662C661.46,-658.09 692.277,-645.579 718.749,-634.833"/>
<polygon fill="midnightblue" stroke="midnightblue" points="634.001,-665.459 626.052,-672.463 636.634,-671.945 634.001,-665.459"/>
</g>
<!-- Node30 -->
<g id="node30" class="node"><title>Node30</title>
<g id="a_node30"><a xlink:href="linear__solver_8cc.html" target="_top" xlink:title="/home/travis/build\l/igankevich/arma/src\l/velocity/linear_solver.cc">
<polygon fill="none" stroke="black" points="859.424,-588.5 859.424,-629.5 984.424,-629.5 984.424,-588.5 859.424,-588.5"/>
<text text-anchor="start" x="867.424" y="-617.5" font-family="Helvetica,sans-Serif" font-size="10.00">/home/travis/build</text>
<text text-anchor="start" x="867.424" y="-606.5" font-family="Helvetica,sans-Serif" font-size="10.00">/igankevich/arma/src</text>
<text text-anchor="middle" x="921.924" y="-595.5" font-family="Helvetica,sans-Serif" font-size="10.00">/velocity/linear_solver.cc</text>
</a>
</g>
</g>
<!-- Node1&#45;&gt;Node30 -->
<g id="edge36" class="edge"><title>Node1&#45;&gt;Node30</title>
<path fill="none" stroke="midnightblue" d="M646.659,-680.667C702.048,-670.861 781.667,-655.243 849.924,-636 856.704,-634.089 863.762,-631.854 870.693,-629.513"/>
<polygon fill="midnightblue" stroke="midnightblue" points="645.852,-677.255 636.607,-682.43 647.061,-684.15 645.852,-677.255"/>
</g>
<!-- Node31 -->
<g id="node31" class="node"><title>Node31</title>
<g id="a_node31"><a xlink:href="integrals_8hh.html" target="_top" xlink:title="/home/travis/build\l/igankevich/arma/src\l/velocity/small_amplitude\l_solver/integrals.hh">
<polygon fill="none" stroke="black" points="1041.42,-583 1041.42,-635 1168.42,-635 1168.42,-583 1041.42,-583"/>
<text text-anchor="start" x="1049.42" y="-623" font-family="Helvetica,sans-Serif" font-size="10.00">/home/travis/build</text>
<text text-anchor="start" x="1049.42" y="-612" font-family="Helvetica,sans-Serif" font-size="10.00">/igankevich/arma/src</text>
<text text-anchor="start" x="1049.42" y="-601" font-family="Helvetica,sans-Serif" font-size="10.00">/velocity/small_amplitude</text>
<text text-anchor="middle" x="1104.92" y="-590" font-family="Helvetica,sans-Serif" font-size="10.00">_solver/integrals.hh</text>
</a>
</g>
</g>
<!-- Node1&#45;&gt;Node31 -->
<g id="edge38" class="edge"><title>Node1&#45;&gt;Node31</title>
<path fill="none" stroke="midnightblue" d="M646.894,-687.648C735.667,-681.081 894.275,-666.069 1026.92,-636 1031.66,-634.927 1036.51,-633.681 1041.36,-632.325"/>
<polygon fill="midnightblue" stroke="midnightblue" points="646.405,-684.175 636.684,-688.389 646.911,-691.156 646.405,-684.175"/>
</g>
<!-- Node32 -->
<g id="node32" class="node"><title>Node32</title>
<g id="a_node32"><a xlink:href="small__amplitude__solver_8cc.html" target="_top" xlink:title="/home/travis/build\l/igankevich/arma/src\l/velocity/small_amplitude\l_solver.cc">
<polygon fill="none" stroke="black" points="995.424,-493 995.424,-545 1122.42,-545 1122.42,-493 995.424,-493"/>
<text text-anchor="start" x="1003.42" y="-533" font-family="Helvetica,sans-Serif" font-size="10.00">/home/travis/build</text>
<text text-anchor="start" x="1003.42" y="-522" font-family="Helvetica,sans-Serif" font-size="10.00">/igankevich/arma/src</text>
<text text-anchor="start" x="1003.42" y="-511" font-family="Helvetica,sans-Serif" font-size="10.00">/velocity/small_amplitude</text>
<text text-anchor="middle" x="1058.92" y="-500" font-family="Helvetica,sans-Serif" font-size="10.00">_solver.cc</text>
</a>
</g>
</g>
<!-- Node1&#45;&gt;Node32 -->
<g id="edge40" class="edge"><title>Node1&#45;&gt;Node32</title>
<path fill="none" stroke="midnightblue" d="M646.619,-690.01C749.602,-685.831 937.818,-673.203 992.924,-636 1009.54,-624.786 1033.84,-575.753 1047.85,-545.138"/>
<polygon fill="midnightblue" stroke="midnightblue" points="646.478,-686.512 636.622,-690.4 646.751,-693.507 646.478,-686.512"/>
</g>
<!-- Node4 -->
<g id="node4" class="node"><title>Node4</title>
<g id="a_node4"><a xlink:href="register__all_8hh.html" target="_top" xlink:title="/home/travis/build\l/igankevich/arma/src\l/register_all.hh">
<polygon fill="none" stroke="black" points="413.424,-156.5 413.424,-197.5 520.424,-197.5 520.424,-156.5 413.424,-156.5"/>
<text text-anchor="start" x="421.424" y="-185.5" font-family="Helvetica,sans-Serif" font-size="10.00">/home/travis/build</text>
<text text-anchor="start" x="421.424" y="-174.5" font-family="Helvetica,sans-Serif" font-size="10.00">/igankevich/arma/src</text>
<text text-anchor="middle" x="466.924" y="-163.5" font-family="Helvetica,sans-Serif" font-size="10.00">/register_all.hh</text>
</a>
</g>
</g>
<!-- Node3&#45;&gt;Node4 -->
<g id="edge3" class="edge"><title>Node3&#45;&gt;Node4</title>
<path fill="none" stroke="midnightblue" d="M146.904,-582.027C89.8545,-565.788 59.2969,-586.942 22.9243,-546 -11.773,-506.944 3.92434,-482.243 3.92434,-430 3.92434,-430 3.92434,-430 3.92434,-338 3.92434,-252.21 291.484,-202.267 413.36,-184.952"/>
<polygon fill="midnightblue" stroke="midnightblue" points="146.094,-585.441 156.683,-585.104 148.195,-578.764 146.094,-585.441"/>
</g>
<!-- Node9 -->
<g id="node9" class="node"><title>Node9</title>
<g id="a_node9"><a xlink:href="plain__wave__solver_8hh.html" target="_top" xlink:title="/home/travis/build\l/igankevich/arma/src\l/velocity/plain_wave\l_solver.hh">
<polygon fill="none" stroke="black" points="32.4243,-493 32.4243,-545 139.424,-545 139.424,-493 32.4243,-493"/>
<text text-anchor="start" x="40.4243" y="-533" font-family="Helvetica,sans-Serif" font-size="10.00">/home/travis/build</text>
<text text-anchor="start" x="40.4243" y="-522" font-family="Helvetica,sans-Serif" font-size="10.00">/igankevich/arma/src</text>
<text text-anchor="start" x="40.4243" y="-511" font-family="Helvetica,sans-Serif" font-size="10.00">/velocity/plain_wave</text>
<text text-anchor="middle" x="85.9243" y="-500" font-family="Helvetica,sans-Serif" font-size="10.00">_solver.hh</text>
</a>
</g>
</g>
<!-- Node3&#45;&gt;Node9 -->
<g id="edge8" class="edge"><title>Node3&#45;&gt;Node9</title>
<path fill="none" stroke="midnightblue" d="M167.932,-576.824C152.985,-566.467 136.538,-555.071 122.323,-545.221"/>
<polygon fill="midnightblue" stroke="midnightblue" points="166.318,-579.964 176.531,-582.783 170.305,-574.21 166.318,-579.964"/>
</g>
<!-- Node11 -->
<g id="node11" class="node"><title>Node11</title>
<g id="a_node11"><a xlink:href="plain__wave__model_8cc.html" target="_top" xlink:title="/home/travis/build\l/igankevich/arma/src\l/generator/plain_wave\l_model.cc">
<polygon fill="none" stroke="black" points="156.924,-493 156.924,-545 268.924,-545 268.924,-493 156.924,-493"/>
<text text-anchor="start" x="164.924" y="-533" font-family="Helvetica,sans-Serif" font-size="10.00">/home/travis/build</text>
<text text-anchor="start" x="164.924" y="-522" font-family="Helvetica,sans-Serif" font-size="10.00">/igankevich/arma/src</text>
<text text-anchor="start" x="164.924" y="-511" font-family="Helvetica,sans-Serif" font-size="10.00">/generator/plain_wave</text>
<text text-anchor="middle" x="212.924" y="-500" font-family="Helvetica,sans-Serif" font-size="10.00">_model.cc</text>
</a>
</g>
</g>
<!-- Node3&#45;&gt;Node11 -->
<g id="edge11" class="edge"><title>Node3&#45;&gt;Node11</title>
<path fill="none" stroke="midnightblue" d="M212.924,-572.489C212.924,-563.309 212.924,-553.616 212.924,-545.092"/>
<polygon fill="midnightblue" stroke="midnightblue" points="209.424,-572.547 212.924,-582.547 216.424,-572.547 209.424,-572.547"/>
</g>
<!-- Node5 -->
<g id="node5" class="node"><title>Node5</title>
<g id="a_node5"><a xlink:href="common__main_8hh.html" target="_top" xlink:title="/home/travis/build\l/igankevich/arma/src\l/common_main.hh">
<polygon fill="none" stroke="black" points="351.424,-78.5 351.424,-119.5 458.424,-119.5 458.424,-78.5 351.424,-78.5"/>
<text text-anchor="start" x="359.424" y="-107.5" font-family="Helvetica,sans-Serif" font-size="10.00">/home/travis/build</text>
<text text-anchor="start" x="359.424" y="-96.5" font-family="Helvetica,sans-Serif" font-size="10.00">/igankevich/arma/src</text>
<text text-anchor="middle" x="404.924" y="-85.5" font-family="Helvetica,sans-Serif" font-size="10.00">/common_main.hh</text>
</a>
</g>
</g>
<!-- Node4&#45;&gt;Node5 -->
<g id="edge4" class="edge"><title>Node4&#45;&gt;Node5</title>
<path fill="none" stroke="midnightblue" d="M444.594,-148.627C436.732,-138.99 428.061,-128.362 420.837,-119.506"/>
<polygon fill="midnightblue" stroke="midnightblue" points="441.924,-150.892 450.958,-156.428 447.349,-146.467 441.924,-150.892"/>
</g>
<!-- Node8 -->
<g id="node8" class="node"><title>Node8</title>
<g id="a_node8"><a xlink:href="visual_8cc.html" target="_top" xlink:title="/home/travis/build\l/igankevich/arma/src\l/visual.cc">
<polygon fill="none" stroke="black" points="476.424,-78.5 476.424,-119.5 583.424,-119.5 583.424,-78.5 476.424,-78.5"/>
<text text-anchor="start" x="484.424" y="-107.5" font-family="Helvetica,sans-Serif" font-size="10.00">/home/travis/build</text>
<text text-anchor="start" x="484.424" y="-96.5" font-family="Helvetica,sans-Serif" font-size="10.00">/igankevich/arma/src</text>
<text text-anchor="middle" x="529.924" y="-85.5" font-family="Helvetica,sans-Serif" font-size="10.00">/visual.cc</text>
</a>
</g>
</g>
<!-- Node4&#45;&gt;Node8 -->
<g id="edge7" class="edge"><title>Node4&#45;&gt;Node8</title>
<path fill="none" stroke="midnightblue" d="M489.615,-148.627C497.604,-138.99 506.414,-128.362 513.755,-119.506"/>
<polygon fill="midnightblue" stroke="midnightblue" points="486.836,-146.496 483.148,-156.428 492.225,-150.963 486.836,-146.496"/>
</g>
<!-- Node6 -->
<g id="node6" class="node"><title>Node6</title>
<g id="a_node6"><a xlink:href="arma__main_8cc.html" target="_top" xlink:title="/home/travis/build\l/igankevich/arma/src\l/arma_main.cc">
<polygon fill="none" stroke="black" points="289.424,-0.5 289.424,-41.5 396.424,-41.5 396.424,-0.5 289.424,-0.5"/>
<text text-anchor="start" x="297.424" y="-29.5" font-family="Helvetica,sans-Serif" font-size="10.00">/home/travis/build</text>
<text text-anchor="start" x="297.424" y="-18.5" font-family="Helvetica,sans-Serif" font-size="10.00">/igankevich/arma/src</text>
<text text-anchor="middle" x="342.924" y="-7.5" font-family="Helvetica,sans-Serif" font-size="10.00">/arma_main.cc</text>
</a>
</g>
</g>
<!-- Node5&#45;&gt;Node6 -->
<g id="edge5" class="edge"><title>Node5&#45;&gt;Node6</title>
<path fill="none" stroke="midnightblue" d="M382.594,-70.627C374.732,-60.9901 366.061,-50.3617 358.837,-41.5056"/>
<polygon fill="midnightblue" stroke="midnightblue" points="379.924,-72.8919 388.958,-78.4281 385.349,-68.467 379.924,-72.8919"/>
</g>
<!-- Node7 -->
<g id="node7" class="node"><title>Node7</title>
<g id="a_node7"><a xlink:href="arma__realtime_8cc.html" target="_top" xlink:title="/home/travis/build\l/igankevich/arma/src\l/arma_realtime.cc">
<polygon fill="none" stroke="black" points="414.424,-0.5 414.424,-41.5 521.424,-41.5 521.424,-0.5 414.424,-0.5"/>
<text text-anchor="start" x="422.424" y="-29.5" font-family="Helvetica,sans-Serif" font-size="10.00">/home/travis/build</text>
<text text-anchor="start" x="422.424" y="-18.5" font-family="Helvetica,sans-Serif" font-size="10.00">/igankevich/arma/src</text>
<text text-anchor="middle" x="467.924" y="-7.5" font-family="Helvetica,sans-Serif" font-size="10.00">/arma_realtime.cc</text>
</a>
</g>
</g>
<!-- Node5&#45;&gt;Node7 -->
<g id="edge6" class="edge"><title>Node5&#45;&gt;Node7</title>
<path fill="none" stroke="midnightblue" d="M427.615,-70.627C435.604,-60.9901 444.414,-50.3617 451.755,-41.5056"/>
<polygon fill="midnightblue" stroke="midnightblue" points="424.836,-68.4956 421.148,-78.4281 430.225,-72.963 424.836,-68.4956"/>
</g>
<!-- Node9&#45;&gt;Node4 -->
<g id="edge9" class="edge"><title>Node9&#45;&gt;Node4</title>
<path fill="none" stroke="midnightblue" d="M66.6475,-483.859C55.7728,-459.721 46.9018,-427.29 60.9243,-402 134.704,-268.936 320.837,-210.256 413.213,-188.655"/>
<polygon fill="midnightblue" stroke="midnightblue" points="63.5515,-485.497 71.0352,-492.997 69.8618,-482.467 63.5515,-485.497"/>
</g>
<!-- Node9&#45;&gt;Node10 -->
<g id="edge10" class="edge"><title>Node9&#45;&gt;Node10</title>
<path fill="none" stroke="midnightblue" d="M101.003,-483.081C105.043,-473.726 109.329,-463.799 113.089,-455.092"/>
<polygon fill="midnightblue" stroke="midnightblue" points="97.6667,-481.979 96.9155,-492.547 104.093,-484.754 97.6667,-481.979"/>
</g>
<!-- Node15 -->
<g id="node15" class="node"><title>Node15</title>
<g id="a_node15"><a xlink:href="nit__transform_8hh.html" target="_top" xlink:title="/home/travis/build\l/igankevich/arma/src\l/nonlinear/nit_transform.hh">
<polygon fill="none" stroke="black" points="451.924,-498.5 451.924,-539.5 583.924,-539.5 583.924,-498.5 451.924,-498.5"/>
<text text-anchor="start" x="459.924" y="-527.5" font-family="Helvetica,sans-Serif" font-size="10.00">/home/travis/build</text>
<text text-anchor="start" x="459.924" y="-516.5" font-family="Helvetica,sans-Serif" font-size="10.00">/igankevich/arma/src</text>
<text text-anchor="middle" x="517.924" y="-505.5" font-family="Helvetica,sans-Serif" font-size="10.00">/nonlinear/nit_transform.hh</text>
</a>
</g>
</g>
<!-- Node14&#45;&gt;Node15 -->
<g id="edge15" class="edge"><title>Node14&#45;&gt;Node15</title>
<path fill="none" stroke="midnightblue" d="M421.278,-582.999C442.294,-569.3 467.974,-552.56 487.58,-539.78"/>
<polygon fill="midnightblue" stroke="midnightblue" points="419.351,-580.077 412.885,-588.47 423.174,-585.941 419.351,-580.077"/>
</g>
<!-- Node25 -->
<g id="node25" class="node"><title>Node25</title>
<g id="a_node25"><a xlink:href="distribution_8hh.html" target="_top" xlink:title="/home/travis/build\l/igankevich/arma/src\l/stats/distribution.hh">
<polygon fill="none" stroke="black" points="326.424,-498.5 326.424,-539.5 433.424,-539.5 433.424,-498.5 326.424,-498.5"/>
<text text-anchor="start" x="334.424" y="-527.5" font-family="Helvetica,sans-Serif" font-size="10.00">/home/travis/build</text>
<text text-anchor="start" x="334.424" y="-516.5" font-family="Helvetica,sans-Serif" font-size="10.00">/igankevich/arma/src</text>
<text text-anchor="middle" x="379.924" y="-505.5" font-family="Helvetica,sans-Serif" font-size="10.00">/stats/distribution.hh</text>
</a>
</g>
</g>
<!-- Node14&#45;&gt;Node25 -->
<g id="edge30" class="edge"><title>Node14&#45;&gt;Node25</title>
<path fill="none" stroke="midnightblue" d="M381.913,-578.33C381.48,-565.629 380.986,-551.14 380.599,-539.78"/>
<polygon fill="midnightblue" stroke="midnightblue" points="378.42,-578.595 382.259,-588.47 385.416,-578.356 378.42,-578.595"/>
</g>
<!-- Node28 -->
<g id="node28" class="node"><title>Node28</title>
<g id="a_node28"><a xlink:href="gram__charlier_8cc.html" target="_top" xlink:title="/home/travis/build\l/igankevich/arma/src\l/stats/gram_charlier.cc">
<polygon fill="none" stroke="black" points="601.924,-498.5 601.924,-539.5 717.924,-539.5 717.924,-498.5 601.924,-498.5"/>
<text text-anchor="start" x="609.924" y="-527.5" font-family="Helvetica,sans-Serif" font-size="10.00">/home/travis/build</text>
<text text-anchor="start" x="609.924" y="-516.5" font-family="Helvetica,sans-Serif" font-size="10.00">/igankevich/arma/src</text>
<text text-anchor="middle" x="659.924" y="-505.5" font-family="Helvetica,sans-Serif" font-size="10.00">/stats/gram_charlier.cc</text>
</a>
</g>
</g>
<!-- Node14&#45;&gt;Node28 -->
<g id="edge34" class="edge"><title>Node14&#45;&gt;Node28</title>
<path fill="none" stroke="midnightblue" d="M440.981,-584.971C443.994,-583.933 446.988,-582.936 449.924,-582 512.371,-562.107 530.478,-565.893 592.924,-546 598.987,-544.069 605.294,-541.875 611.506,-539.6"/>
<polygon fill="midnightblue" stroke="midnightblue" points="439.591,-581.75 431.343,-588.4 441.937,-588.345 439.591,-581.75"/>
</g>
<!-- Node16 -->
<g id="node16" class="node"><title>Node16</title>
<g id="a_node16"><a xlink:href="basic__arma__model_8hh.html" target="_top" xlink:title="/home/travis/build\l/igankevich/arma/src\l/generator/basic_arma\l_model.hh">
<polygon fill="none" stroke="black" points="640.424,-403 640.424,-455 753.424,-455 753.424,-403 640.424,-403"/>
<text text-anchor="start" x="648.424" y="-443" font-family="Helvetica,sans-Serif" font-size="10.00">/home/travis/build</text>
<text text-anchor="start" x="648.424" y="-432" font-family="Helvetica,sans-Serif" font-size="10.00">/igankevich/arma/src</text>
<text text-anchor="start" x="648.424" y="-421" font-family="Helvetica,sans-Serif" font-size="10.00">/generator/basic_arma</text>
<text text-anchor="middle" x="696.924" y="-410" font-family="Helvetica,sans-Serif" font-size="10.00">_model.hh</text>
</a>
</g>
</g>
<!-- Node15&#45;&gt;Node16 -->
<g id="edge16" class="edge"><title>Node15&#45;&gt;Node16</title>
<path fill="none" stroke="midnightblue" d="M566.803,-493.97C591.402,-481.877 621.198,-467.228 646.068,-455.002"/>
<polygon fill="midnightblue" stroke="midnightblue" points="565.08,-490.917 557.65,-498.47 568.169,-497.199 565.08,-490.917"/>
</g>
<!-- Node23 -->
<g id="node23" class="node"><title>Node23</title>
<g id="a_node23"><a xlink:href="basic__arma__model_8cc.html" target="_top" xlink:title="/home/travis/build\l/igankevich/arma/src\l/generator/basic_arma\l_model.cc">
<polygon fill="none" stroke="black" points="367.424,-313 367.424,-365 480.424,-365 480.424,-313 367.424,-313"/>
<text text-anchor="start" x="375.424" y="-353" font-family="Helvetica,sans-Serif" font-size="10.00">/home/travis/build</text>
<text text-anchor="start" x="375.424" y="-342" font-family="Helvetica,sans-Serif" font-size="10.00">/igankevich/arma/src</text>
<text text-anchor="start" x="375.424" y="-331" font-family="Helvetica,sans-Serif" font-size="10.00">/generator/basic_arma</text>
<text text-anchor="middle" x="423.924" y="-320" font-family="Helvetica,sans-Serif" font-size="10.00">_model.cc</text>
</a>
</g>
</g>
<!-- Node15&#45;&gt;Node23 -->
<g id="edge28" class="edge"><title>Node15&#45;&gt;Node23</title>
<path fill="none" stroke="midnightblue" d="M561.756,-492.303C574.166,-482.63 586.136,-470.419 592.924,-456 603.147,-434.286 606.816,-421.571 592.924,-402 564.856,-362.456 535.381,-382.89 489.924,-366 486.923,-364.885 483.85,-363.728 480.752,-362.549"/>
<polygon fill="midnightblue" stroke="midnightblue" points="559.583,-489.556 553.587,-498.29 563.721,-495.202 559.583,-489.556"/>
</g>
<!-- Node24 -->
<g id="node24" class="node"><title>Node24</title>
<g id="a_node24"><a xlink:href="nit__transform_8cc.html" target="_top" xlink:title="/home/travis/build\l/igankevich/arma/src\l/nonlinear/nit_transform.cc">
<polygon fill="none" stroke="black" points="451.924,-408.5 451.924,-449.5 583.924,-449.5 583.924,-408.5 451.924,-408.5"/>
<text text-anchor="start" x="459.924" y="-437.5" font-family="Helvetica,sans-Serif" font-size="10.00">/home/travis/build</text>
<text text-anchor="start" x="459.924" y="-426.5" font-family="Helvetica,sans-Serif" font-size="10.00">/igankevich/arma/src</text>
<text text-anchor="middle" x="517.924" y="-415.5" font-family="Helvetica,sans-Serif" font-size="10.00">/nonlinear/nit_transform.cc</text>
</a>
</g>
</g>
<!-- Node15&#45;&gt;Node24 -->
<g id="edge29" class="edge"><title>Node15&#45;&gt;Node24</title>
<path fill="none" stroke="midnightblue" d="M517.924,-488.33C517.924,-475.629 517.924,-461.14 517.924,-449.78"/>
<polygon fill="midnightblue" stroke="midnightblue" points="514.424,-488.47 517.924,-498.47 521.424,-488.47 514.424,-488.47"/>
</g>
<!-- Node17 -->
<g id="node17" class="node"><title>Node17</title>
<g id="a_node17"><a xlink:href="ar__model_8hh.html" target="_top" xlink:title="/home/travis/build\l/igankevich/arma/src\l/generator/ar_model.hh">
<polygon fill="none" stroke="black" points="638.924,-318.5 638.924,-359.5 754.924,-359.5 754.924,-318.5 638.924,-318.5"/>
<text text-anchor="start" x="646.924" y="-347.5" font-family="Helvetica,sans-Serif" font-size="10.00">/home/travis/build</text>
<text text-anchor="start" x="646.924" y="-336.5" font-family="Helvetica,sans-Serif" font-size="10.00">/igankevich/arma/src</text>
<text text-anchor="middle" x="696.924" y="-325.5" font-family="Helvetica,sans-Serif" font-size="10.00">/generator/ar_model.hh</text>
</a>
</g>
</g>
<!-- Node16&#45;&gt;Node17 -->
<g id="edge17" class="edge"><title>Node16&#45;&gt;Node17</title>
<path fill="none" stroke="midnightblue" d="M696.924,-392.515C696.924,-381.257 696.924,-369.227 696.924,-359.525"/>
<polygon fill="midnightblue" stroke="midnightblue" points="693.424,-392.547 696.924,-402.547 700.424,-392.547 693.424,-392.547"/>
</g>
<!-- Node21 -->
<g id="node21" class="node"><title>Node21</title>
<g id="a_node21"><a xlink:href="ma__model_8hh.html" target="_top" xlink:title="/home/travis/build\l/igankevich/arma/src\l/generator/ma_model.hh">
<polygon fill="none" stroke="black" points="498.924,-318.5 498.924,-359.5 620.924,-359.5 620.924,-318.5 498.924,-318.5"/>
<text text-anchor="start" x="506.924" y="-347.5" font-family="Helvetica,sans-Serif" font-size="10.00">/home/travis/build</text>
<text text-anchor="start" x="506.924" y="-336.5" font-family="Helvetica,sans-Serif" font-size="10.00">/igankevich/arma/src</text>
<text text-anchor="middle" x="559.924" y="-325.5" font-family="Helvetica,sans-Serif" font-size="10.00">/generator/ma_model.hh</text>
</a>
</g>
</g>
<!-- Node16&#45;&gt;Node21 -->
<g id="edge23" class="edge"><title>Node16&#45;&gt;Node21</title>
<path fill="none" stroke="midnightblue" d="M649.2,-397.345C629.713,-384.828 607.748,-370.719 590.482,-359.628"/>
<polygon fill="midnightblue" stroke="midnightblue" points="647.36,-400.323 657.666,-402.783 651.143,-394.433 647.36,-400.323"/>
</g>
<!-- Node16&#45;&gt;Node23 -->
<g id="edge27" class="edge"><title>Node16&#45;&gt;Node23</title>
<path fill="none" stroke="midnightblue" d="M630.306,-403.401C628.834,-402.923 627.372,-402.456 625.924,-402 566.282,-383.23 549.335,-385.492 489.924,-366 486.882,-365.002 483.777,-363.938 480.653,-362.833"/>
<polygon fill="midnightblue" stroke="midnightblue" points="629.523,-406.829 640.117,-406.673 631.738,-400.189 629.523,-406.829"/>
</g>
<!-- Node17&#45;&gt;Node4 -->
<g id="edge18" class="edge"><title>Node17&#45;&gt;Node4</title>
<path fill="none" stroke="midnightblue" d="M692.49,-308.119C687.496,-284.796 677.115,-253.224 655.924,-234 612.789,-194.867 585.686,-214.813 529.924,-198 526.848,-197.072 523.691,-196.109 520.508,-195.127"/>
<polygon fill="midnightblue" stroke="midnightblue" points="689.1,-309.022 694.425,-318.181 695.974,-307.7 689.1,-309.022"/>
</g>
<!-- Node18 -->
<g id="node18" class="node"><title>Node18</title>
<g id="a_node18"><a xlink:href="arma__model_8hh.html" target="_top" xlink:title="/home/travis/build\l/igankevich/arma/src\l/generator/arma_model.hh">
<polygon fill="none" stroke="black" points="516.924,-234.5 516.924,-275.5 646.924,-275.5 646.924,-234.5 516.924,-234.5"/>
<text text-anchor="start" x="524.924" y="-263.5" font-family="Helvetica,sans-Serif" font-size="10.00">/home/travis/build</text>
<text text-anchor="start" x="524.924" y="-252.5" font-family="Helvetica,sans-Serif" font-size="10.00">/igankevich/arma/src</text>
<text text-anchor="middle" x="581.924" y="-241.5" font-family="Helvetica,sans-Serif" font-size="10.00">/generator/arma_model.hh</text>
</a>
</g>
</g>
<!-- Node17&#45;&gt;Node18 -->
<g id="edge19" class="edge"><title>Node17&#45;&gt;Node18</title>
<path fill="none" stroke="midnightblue" d="M661.004,-312.387C644.433,-300.571 625.064,-286.761 609.644,-275.765"/>
<polygon fill="midnightblue" stroke="midnightblue" points="659.205,-315.403 669.379,-318.359 663.269,-309.703 659.205,-315.403"/>
</g>
<!-- Node20 -->
<g id="node20" class="node"><title>Node20</title>
<g id="a_node20"><a xlink:href="ar__model_8cc.html" target="_top" xlink:title="/home/travis/build\l/igankevich/arma/src\l/generator/ar_model.cc">
<polygon fill="none" stroke="black" points="702.924,-234.5 702.924,-275.5 818.924,-275.5 818.924,-234.5 702.924,-234.5"/>
<text text-anchor="start" x="710.924" y="-263.5" font-family="Helvetica,sans-Serif" font-size="10.00">/home/travis/build</text>
<text text-anchor="start" x="710.924" y="-252.5" font-family="Helvetica,sans-Serif" font-size="10.00">/igankevich/arma/src</text>
<text text-anchor="middle" x="760.924" y="-241.5" font-family="Helvetica,sans-Serif" font-size="10.00">/generator/ar_model.cc</text>
</a>
</g>
</g>
<!-- Node17&#45;&gt;Node20 -->
<g id="edge22" class="edge"><title>Node17&#45;&gt;Node20</title>
<path fill="none" stroke="midnightblue" d="M718.611,-310.214C727.466,-298.869 737.5,-286.012 745.574,-275.667"/>
<polygon fill="midnightblue" stroke="midnightblue" points="715.811,-308.113 712.417,-318.15 721.329,-312.42 715.811,-308.113"/>
</g>
<!-- Node18&#45;&gt;Node4 -->
<g id="edge20" class="edge"><title>Node18&#45;&gt;Node4</title>
<path fill="none" stroke="midnightblue" d="M543.543,-228.635C528.187,-218.487 510.778,-206.982 496.439,-197.506"/>
<polygon fill="midnightblue" stroke="midnightblue" points="542.036,-231.835 552.309,-234.428 545.896,-225.995 542.036,-231.835"/>
</g>
<!-- Node19 -->
<g id="node19" class="node"><title>Node19</title>
<g id="a_node19"><a xlink:href="arma__model_8cc.html" target="_top" xlink:title="/home/travis/build\l/igankevich/arma/src\l/generator/arma_model.cc">
<polygon fill="none" stroke="black" points="538.924,-156.5 538.924,-197.5 668.924,-197.5 668.924,-156.5 538.924,-156.5"/>
<text text-anchor="start" x="546.924" y="-185.5" font-family="Helvetica,sans-Serif" font-size="10.00">/home/travis/build</text>
<text text-anchor="start" x="546.924" y="-174.5" font-family="Helvetica,sans-Serif" font-size="10.00">/igankevich/arma/src</text>
<text text-anchor="middle" x="603.924" y="-163.5" font-family="Helvetica,sans-Serif" font-size="10.00">/generator/arma_model.cc</text>
</a>
</g>
</g>
<!-- Node18&#45;&gt;Node19 -->
<g id="edge21" class="edge"><title>Node18&#45;&gt;Node19</title>
<path fill="none" stroke="midnightblue" d="M590.438,-224.59C593.066,-215.511 595.894,-205.742 598.278,-197.506"/>
<polygon fill="midnightblue" stroke="midnightblue" points="587.009,-223.849 587.59,-234.428 593.733,-225.796 587.009,-223.849"/>
</g>
<!-- Node21&#45;&gt;Node4 -->
<g id="edge24" class="edge"><title>Node21&#45;&gt;Node4</title>
<path fill="none" stroke="midnightblue" d="M533.991,-310.727C524.995,-300.374 515.32,-288.143 507.924,-276 492.382,-250.483 480.092,-218.017 473.162,-197.615"/>
<polygon fill="midnightblue" stroke="midnightblue" points="531.424,-313.106 540.69,-318.244 536.65,-308.45 531.424,-313.106"/>
</g>
<!-- Node21&#45;&gt;Node18 -->
<g id="edge25" class="edge"><title>Node21&#45;&gt;Node18</title>
<path fill="none" stroke="midnightblue" d="M567.915,-308.217C570.823,-297.379 574.034,-285.409 576.648,-275.667"/>
<polygon fill="midnightblue" stroke="midnightblue" points="564.461,-307.585 565.25,-318.15 571.222,-309.399 564.461,-307.585"/>
</g>
<!-- Node22 -->
<g id="node22" class="node"><title>Node22</title>
<g id="a_node22"><a xlink:href="ma__model_8cc.html" target="_top" xlink:title="/home/travis/build\l/igankevich/arma/src\l/generator/ma_model.cc">
<polygon fill="none" stroke="black" points="338.924,-234.5 338.924,-275.5 460.924,-275.5 460.924,-234.5 338.924,-234.5"/>
<text text-anchor="start" x="346.924" y="-263.5" font-family="Helvetica,sans-Serif" font-size="10.00">/home/travis/build</text>
<text text-anchor="start" x="346.924" y="-252.5" font-family="Helvetica,sans-Serif" font-size="10.00">/igankevich/arma/src</text>
<text text-anchor="middle" x="399.924" y="-241.5" font-family="Helvetica,sans-Serif" font-size="10.00">/generator/ma_model.cc</text>
</a>
</g>
</g>
<!-- Node21&#45;&gt;Node22 -->
<g id="edge26" class="edge"><title>Node21&#45;&gt;Node22</title>
<path fill="none" stroke="midnightblue" d="M512.436,-313.662C488.752,-301.524 460.487,-287.039 438.213,-275.623"/>
<polygon fill="midnightblue" stroke="midnightblue" points="511.105,-316.913 521.6,-318.359 514.297,-310.683 511.105,-316.913"/>
</g>
<!-- Node26 -->
<g id="node26" class="node"><title>Node26</title>
<g id="a_node26"><a xlink:href="basic__arma__model__verify_8cc.html" target="_top" xlink:title="/home/travis/build\l/igankevich/arma/src\l/generator/basic_arma\l_model_verify.cc">
<polygon fill="none" stroke="black" points="195.424,-403 195.424,-455 308.424,-455 308.424,-403 195.424,-403"/>
<text text-anchor="start" x="203.424" y="-443" font-family="Helvetica,sans-Serif" font-size="10.00">/home/travis/build</text>
<text text-anchor="start" x="203.424" y="-432" font-family="Helvetica,sans-Serif" font-size="10.00">/igankevich/arma/src</text>
<text text-anchor="start" x="203.424" y="-421" font-family="Helvetica,sans-Serif" font-size="10.00">/generator/basic_arma</text>
<text text-anchor="middle" x="251.924" y="-410" font-family="Helvetica,sans-Serif" font-size="10.00">_model_verify.cc</text>
</a>
</g>
</g>
<!-- Node25&#45;&gt;Node26 -->
<g id="edge31" class="edge"><title>Node25&#45;&gt;Node26</title>
<path fill="none" stroke="midnightblue" d="M342.898,-492.545C325.805,-480.793 305.57,-466.881 288.529,-455.166"/>
<polygon fill="midnightblue" stroke="midnightblue" points="341.294,-495.689 351.517,-498.47 345.259,-489.92 341.294,-495.689"/>
</g>
<!-- Node27 -->
<g id="node27" class="node"><title>Node27</title>
<g id="a_node27"><a xlink:href="distribution_8cc.html" target="_top" xlink:title="/home/travis/build\l/igankevich/arma/src\l/stats/distribution.cc">
<polygon fill="none" stroke="black" points="326.424,-408.5 326.424,-449.5 433.424,-449.5 433.424,-408.5 326.424,-408.5"/>
<text text-anchor="start" x="334.424" y="-437.5" font-family="Helvetica,sans-Serif" font-size="10.00">/home/travis/build</text>
<text text-anchor="start" x="334.424" y="-426.5" font-family="Helvetica,sans-Serif" font-size="10.00">/igankevich/arma/src</text>
<text text-anchor="middle" x="379.924" y="-415.5" font-family="Helvetica,sans-Serif" font-size="10.00">/stats/distribution.cc</text>
</a>
</g>
</g>
<!-- Node25&#45;&gt;Node27 -->
<g id="edge33" class="edge"><title>Node25&#45;&gt;Node27</title>
<path fill="none" stroke="midnightblue" d="M379.924,-488.33C379.924,-475.629 379.924,-461.14 379.924,-449.78"/>
<polygon fill="midnightblue" stroke="midnightblue" points="376.424,-488.47 379.924,-498.47 383.424,-488.47 376.424,-488.47"/>
</g>
<!-- Node26&#45;&gt;Node23 -->
<g id="edge32" class="edge"><title>Node26&#45;&gt;Node23</title>
<path fill="none" stroke="midnightblue" d="M310.356,-398.105C331.357,-387.36 354.81,-375.361 374.926,-365.069"/>
<polygon fill="midnightblue" stroke="midnightblue" points="308.521,-395.112 301.213,-402.783 311.709,-401.344 308.521,-395.112"/>
</g>
<!-- Node31&#45;&gt;Node32 -->
<g id="edge39" class="edge"><title>Node31&#45;&gt;Node32</title>
<path fill="none" stroke="midnightblue" d="M1086.98,-573.671C1082,-564.145 1076.69,-553.983 1072.04,-545.092"/>
<polygon fill="midnightblue" stroke="midnightblue" points="1083.88,-575.306 1091.62,-582.547 1090.09,-572.063 1083.88,-575.306"/>
</g>
</g>
</svg>
