<?xml version="1.0" encoding="UTF-8" standalone="no"?>
<!DOCTYPE svg PUBLIC "-//W3C//DTD SVG 1.1//EN"
 "http://www.w3.org/Graphics/SVG/1.1/DTD/svg11.dtd">
<!-- Generated by graphviz version 2.40.1 (20161225.0304)
 -->
<!-- Title: src/physical_constants.hh Pages: 1 -->
<svg width="1175pt" height="542pt"
 viewBox="0.00 0.00 1174.58 542.00" xmlns="http://www.w3.org/2000/svg" xmlns:xlink="http://www.w3.org/1999/xlink">
<g id="graph0" class="graph" transform="scale(1 1) rotate(0) translate(4 538)">
<title>src/physical_constants.hh</title>
<!-- Node2 -->
<g id="node1" class="node">
<title>Node2</title>
<polygon fill="#bfbfbf" stroke="#000000" points="498.5778,-514.5 498.5778,-533.5 629.5778,-533.5 629.5778,-514.5 498.5778,-514.5"/>
<text text-anchor="middle" x="564.0778" y="-521.5" font-family="Helvetica,sans-Serif" font-size="10.00" fill="#000000">src/physical_constants.hh</text>
</g>
<!-- Node3 -->
<g id="node2" class="node">
<title>Node3</title>
<g id="a_node2"><a xlink:href="owen__t_8cc.html" target="_top" xlink:title="src/apmath/owen_t.cc">
<polygon fill="none" stroke="#000000" points="12.5778,-453 12.5778,-472 125.5778,-472 125.5778,-453 12.5778,-453"/>
<text text-anchor="middle" x="69.0778" y="-460" font-family="Helvetica,sans-Serif" font-size="10.00" fill="#000000">src/apmath/owen_t.cc</text>
</a>
</g>
</g>
<!-- Node2&#45;&gt;Node3 -->
<g id="edge1" class="edge">
<title>Node2&#45;&gt;Node3</title>
<path fill="none" stroke="#191970" d="M488.3012,-518.8317C402.0824,-512.2717 257.2619,-499.1873 134.0778,-478 124.7026,-476.3875 114.6643,-474.2177 105.3497,-472.0131"/>
<polygon fill="#191970" stroke="#191970" points="488.2856,-522.3403 498.5197,-519.5995 488.8101,-515.36 488.2856,-522.3403"/>
</g>
<!-- Node4 -->
<g id="node3" class="node">
<title>Node4</title>
<g id="a_node3"><a xlink:href="plain__wave__model_8hh.html" target="_top" xlink:title="src/generator/plain\l_wave_model.hh">
<polygon fill="none" stroke="#000000" points="143.5778,-447.5 143.5778,-477.5 240.5778,-477.5 240.5778,-447.5 143.5778,-447.5"/>
<text text-anchor="start" x="151.5778" y="-465.5" font-family="Helvetica,sans-Serif" font-size="10.00" fill="#000000">src/generator/plain</text>
<text text-anchor="middle" x="192.0778" y="-454.5" font-family="Helvetica,sans-Serif" font-size="10.00" fill="#000000">_wave_model.hh</text>
</a>
</g>
</g>
<!-- Node2&#45;&gt;Node4 -->
<g id="edge2" class="edge">
<title>Node2&#45;&gt;Node4</title>
<path fill="none" stroke="#191970" d="M488.1597,-514.7109C425.4007,-506.5502 334.0924,-493.566 255.0778,-478 250.4363,-477.0856 245.622,-476.054 240.8166,-474.9684"/>
<polygon fill="#191970" stroke="#191970" points="488.0029,-518.2196 498.3687,-516.0285 488.899,-511.2772 488.0029,-518.2196"/>
</g>
<!-- Node11 -->
<g id="node10" class="node">
<title>Node11</title>
<g id="a_node10"><a xlink:href="plain__wave__solver_8cc.html" target="_top" xlink:title="src/velocity/plain\l_wave_solver.cc">
<polygon fill="none" stroke="#000000" points="66.0778,-313.5 66.0778,-343.5 156.0778,-343.5 156.0778,-313.5 66.0778,-313.5"/>
<text text-anchor="start" x="74.0778" y="-331.5" font-family="Helvetica,sans-Serif" font-size="10.00" fill="#000000">src/velocity/plain</text>
<text text-anchor="middle" x="111.0778" y="-320.5" font-family="Helvetica,sans-Serif" font-size="10.00" fill="#000000">_wave_solver.cc</text>
</a>
</g>
</g>
<!-- Node2&#45;&gt;Node11 -->
<g id="edge37" class="edge">
<title>Node2&#45;&gt;Node11</title>
<path fill="none" stroke="#191970" d="M488.0902,-519.6262C417.2463,-514.1054 318.1285,-502.2313 288.0778,-478 251.5857,-448.5746 282.5809,-412.7883 249.0778,-380 242.0643,-373.1361 193.8462,-355.9877 156.3584,-343.3559"/>
<polygon fill="#191970" stroke="#191970" points="488.0916,-523.1361 498.3258,-520.3954 488.6162,-516.1558 488.0916,-523.1361"/>
</g>
<!-- Node13 -->
<g id="node12" class="node">
<title>Node13</title>
<g id="a_node12"><a xlink:href="factor__waves_8cc.html" target="_top" xlink:title="src/factor_waves.cc">
<polygon fill="none" stroke="#000000" points="444.5778,-453 444.5778,-472 549.5778,-472 549.5778,-453 444.5778,-453"/>
<text text-anchor="middle" x="497.0778" y="-460" font-family="Helvetica,sans-Serif" font-size="10.00" fill="#000000">src/factor_waves.cc</text>
</a>
</g>
</g>
<!-- Node2&#45;&gt;Node13 -->
<g id="edge12" class="edge">
<title>Node2&#45;&gt;Node13</title>
<path fill="none" stroke="#191970" d="M546.1547,-507.5482C533.8785,-496.2798 518.0123,-481.716 507.6942,-472.2449"/>
<polygon fill="#191970" stroke="#191970" points="543.8753,-510.2068 553.6091,-514.3906 548.6089,-505.0499 543.8753,-510.2068"/>
</g>
<!-- Node14 -->
<g id="node13" class="node">
<title>Node14</title>
<g id="a_node13"><a xlink:href="lh__model_8cc.html" target="_top" xlink:title="src/generator/lh_model.cc">
<polygon fill="none" stroke="#000000" points="567.5778,-453 567.5778,-472 696.5778,-472 696.5778,-453 567.5778,-453"/>
<text text-anchor="middle" x="632.0778" y="-460" font-family="Helvetica,sans-Serif" font-size="10.00" fill="#000000">src/generator/lh_model.cc</text>
</a>
</g>
</g>
<!-- Node2&#45;&gt;Node14 -->
<g id="edge13" class="edge">
<title>Node2&#45;&gt;Node14</title>
<path fill="none" stroke="#191970" d="M582.2685,-507.5482C594.7278,-496.2798 610.8308,-481.716 621.303,-472.2449"/>
<polygon fill="#191970" stroke="#191970" points="579.7718,-505.0871 574.7028,-514.3906 584.4672,-510.2787 579.7718,-505.0871"/>
</g>
<!-- Node15 -->
<g id="node14" class="node">
<title>Node15</title>
<g id="a_node14"><a xlink:href="gram__charlier_8hh.html" target="_top" xlink:title="src/stats/gram_charlier.hh">
<polygon fill="none" stroke="#000000" points="297.5778,-453 297.5778,-472 426.5778,-472 426.5778,-453 297.5778,-453"/>
<text text-anchor="middle" x="362.0778" y="-460" font-family="Helvetica,sans-Serif" font-size="10.00" fill="#000000">src/stats/gram_charlier.hh</text>
</a>
</g>
</g>
<!-- Node2&#45;&gt;Node15 -->
<g id="edge14" class="edge">
<title>Node2&#45;&gt;Node15</title>
<path fill="none" stroke="#191970" d="M522.6926,-511.4001C484.3528,-499.7273 428.1638,-482.6202 393.4187,-472.0419"/>
<polygon fill="#191970" stroke="#191970" points="521.9294,-514.8263 532.5153,-514.3906 523.9683,-508.1297 521.9294,-514.8263"/>
</g>
<!-- Node30 -->
<g id="node29" class="node">
<title>Node30</title>
<g id="a_node29"><a xlink:href="high__amplitude__realtime__solver_8cc.html" target="_top" xlink:title="src/velocity/high_amplitude\l_realtime_solver.cc">
<polygon fill="none" stroke="#000000" points="714.5778,-447.5 714.5778,-477.5 849.5778,-477.5 849.5778,-447.5 714.5778,-447.5"/>
<text text-anchor="start" x="722.5778" y="-465.5" font-family="Helvetica,sans-Serif" font-size="10.00" fill="#000000">src/velocity/high_amplitude</text>
<text text-anchor="middle" x="782.0778" y="-454.5" font-family="Helvetica,sans-Serif" font-size="10.00" fill="#000000">_realtime_solver.cc</text>
</a>
</g>
</g>
<!-- Node2&#45;&gt;Node30 -->
<g id="edge35" class="edge">
<title>Node2&#45;&gt;Node30</title>
<path fill="none" stroke="#191970" d="M608.0233,-511.6025C642.8597,-501.7748 691.6767,-488.0031 728.749,-477.5446"/>
<polygon fill="#191970" stroke="#191970" points="606.8143,-508.3069 598.1403,-514.3906 608.715,-515.044 606.8143,-508.3069"/>
</g>
<!-- Node31 -->
<g id="node30" class="node">
<title>Node31</title>
<g id="a_node30"><a xlink:href="linear__solver_8cc.html" target="_top" xlink:title="src/velocity/linear\l_solver.cc">
<polygon fill="none" stroke="#000000" points="867.5778,-447.5 867.5778,-477.5 960.5778,-477.5 960.5778,-447.5 867.5778,-447.5"/>
<text text-anchor="start" x="875.5778" y="-465.5" font-family="Helvetica,sans-Serif" font-size="10.00" fill="#000000">src/velocity/linear</text>
<text text-anchor="middle" x="914.0778" y="-454.5" font-family="Helvetica,sans-Serif" font-size="10.00" fill="#000000">_solver.cc</text>
</a>
</g>
</g>
<!-- Node2&#45;&gt;Node31 -->
<g id="edge36" class="edge">
<title>Node2&#45;&gt;Node31</title>
<path fill="none" stroke="#191970" d="M639.9541,-514.5662C699.5842,-506.5664 784.5618,-493.8705 858.0778,-478 861.1346,-477.3401 864.2722,-476.6127 867.4263,-475.8439"/>
<polygon fill="#191970" stroke="#191970" points="639.3183,-511.1198 629.8667,-515.9071 640.2407,-518.0588 639.3183,-511.1198"/>
</g>
<!-- Node32 -->
<g id="node31" class="node">
<title>Node32</title>
<g id="a_node31"><a xlink:href="integrals_8hh.html" target="_top" xlink:title="src/velocity/small\l_amplitude_solver/integrals.hh">
<polygon fill="none" stroke="#000000" points="1017.5778,-447.5 1017.5778,-477.5 1166.5778,-477.5 1166.5778,-447.5 1017.5778,-447.5"/>
<text text-anchor="start" x="1025.5778" y="-465.5" font-family="Helvetica,sans-Serif" font-size="10.00" fill="#000000">src/velocity/small</text>
<text text-anchor="middle" x="1092.0778" y="-454.5" font-family="Helvetica,sans-Serif" font-size="10.00" fill="#000000">_amplitude_solver/integrals.hh</text>
</a>
</g>
</g>
<!-- Node2&#45;&gt;Node32 -->
<g id="edge38" class="edge">
<title>Node2&#45;&gt;Node32</title>
<path fill="none" stroke="#191970" d="M639.8171,-517.6406C727.4656,-509.9162 876.0423,-495.6968 1003.0778,-478 1007.738,-477.3508 1012.5282,-476.6409 1017.3539,-475.8934"/>
<polygon fill="#191970" stroke="#191970" points="639.354,-514.1677 629.6977,-518.5274 639.9651,-521.141 639.354,-514.1677"/>
</g>
<!-- Node33 -->
<g id="node32" class="node">
<title>Node33</title>
<g id="a_node32"><a xlink:href="small__amplitude__solver_8cc.html" target="_top" xlink:title="src/velocity/small\l_amplitude_solver.cc">
<polygon fill="none" stroke="#000000" points="986.0778,-380.5 986.0778,-410.5 1094.0778,-410.5 1094.0778,-380.5 986.0778,-380.5"/>
<text text-anchor="start" x="994.0778" y="-398.5" font-family="Helvetica,sans-Serif" font-size="10.00" fill="#000000">src/velocity/small</text>
<text text-anchor="middle" x="1040.0778" y="-387.5" font-family="Helvetica,sans-Serif" font-size="10.00" fill="#000000">_amplitude_solver.cc</text>
</a>
</g>
</g>
<!-- Node2&#45;&gt;Node33 -->
<g id="edge40" class="edge">
<title>Node2&#45;&gt;Node33</title>
<path fill="none" stroke="#191970" d="M639.8802,-521.9399C740.9827,-518.0861 913.6697,-507.3151 969.0778,-478 998.1411,-462.6234 1020.4967,-430.0364 1031.8364,-410.738"/>
<polygon fill="#191970" stroke="#191970" points="639.5893,-518.4481 629.7246,-522.313 639.8463,-525.4434 639.5893,-518.4481"/>
</g>
<!-- Node5 -->
<g id="node4" class="node">
<title>Node5</title>
<g id="a_node4"><a xlink:href="register__all_8hh.html" target="_top" xlink:title="src/register_all.hh">
<polygon fill="none" stroke="#000000" points="442.0778,-118 442.0778,-137 536.0778,-137 536.0778,-118 442.0778,-118"/>
<text text-anchor="middle" x="489.0778" y="-125" font-family="Helvetica,sans-Serif" font-size="10.00" fill="#000000">src/register_all.hh</text>
</a>
</g>
</g>
<!-- Node4&#45;&gt;Node5 -->
<g id="edge3" class="edge">
<title>Node4&#45;&gt;Node5</title>
<path fill="none" stroke="#191970" d="M133.8938,-445.8326C87.6795,-432.3757 30.133,-415.0371 26.0778,-411 -1.1672,-383.8765 .0778,-366.9444 .0778,-328.5 .0778,-328.5 .0778,-328.5 .0778,-261.5 .0778,-170.5035 319.0259,-139.0868 441.7461,-130.3666"/>
<polygon fill="#191970" stroke="#191970" points="132.9808,-449.212 143.5601,-448.6391 134.9326,-442.4896 132.9808,-449.212"/>
</g>
<!-- Node10 -->
<g id="node9" class="node">
<title>Node10</title>
<g id="a_node9"><a xlink:href="plain__wave__solver_8hh.html" target="_top" xlink:title="src/velocity/plain\l_wave_solver.hh">
<polygon fill="none" stroke="#000000" points="35.0778,-380.5 35.0778,-410.5 125.0778,-410.5 125.0778,-380.5 35.0778,-380.5"/>
<text text-anchor="start" x="43.0778" y="-398.5" font-family="Helvetica,sans-Serif" font-size="10.00" fill="#000000">src/velocity/plain</text>
<text text-anchor="middle" x="80.0778" y="-387.5" font-family="Helvetica,sans-Serif" font-size="10.00" fill="#000000">_wave_solver.hh</text>
</a>
</g>
</g>
<!-- Node4&#45;&gt;Node10 -->
<g id="edge8" class="edge">
<title>Node4&#45;&gt;Node10</title>
<path fill="none" stroke="#191970" d="M157.9363,-442.0761C141.055,-431.9774 121.0303,-419.9983 105.5164,-410.7177"/>
<polygon fill="#191970" stroke="#191970" points="156.5643,-445.3338 166.9428,-447.4639 160.1579,-439.3266 156.5643,-445.3338"/>
</g>
<!-- Node12 -->
<g id="node11" class="node">
<title>Node12</title>
<g id="a_node11"><a xlink:href="plain__wave__model_8cc.html" target="_top" xlink:title="src/generator/plain\l_wave_model.cc">
<polygon fill="none" stroke="#000000" points="143.5778,-380.5 143.5778,-410.5 240.5778,-410.5 240.5778,-380.5 143.5778,-380.5"/>
<text text-anchor="start" x="151.5778" y="-398.5" font-family="Helvetica,sans-Serif" font-size="10.00" fill="#000000">src/generator/plain</text>
<text text-anchor="middle" x="192.0778" y="-387.5" font-family="Helvetica,sans-Serif" font-size="10.00" fill="#000000">_wave_model.cc</text>
</a>
</g>
</g>
<!-- Node4&#45;&gt;Node12 -->
<g id="edge11" class="edge">
<title>Node4&#45;&gt;Node12</title>
<path fill="none" stroke="#191970" d="M192.0778,-437.0249C192.0778,-428.128 192.0778,-418.4287 192.0778,-410.6432"/>
<polygon fill="#191970" stroke="#191970" points="188.5779,-437.2966 192.0778,-447.2967 195.5779,-437.2967 188.5779,-437.2966"/>
</g>
<!-- Node6 -->
<g id="node5" class="node">
<title>Node6</title>
<g id="a_node5"><a xlink:href="common__main_8hh.html" target="_top" xlink:title="src/common_main.hh">
<polygon fill="none" stroke="#000000" points="380.0778,-56.5 380.0778,-75.5 490.0778,-75.5 490.0778,-56.5 380.0778,-56.5"/>
<text text-anchor="middle" x="435.0778" y="-63.5" font-family="Helvetica,sans-Serif" font-size="10.00" fill="#000000">src/common_main.hh</text>
</a>
</g>
</g>
<!-- Node5&#45;&gt;Node6 -->
<g id="edge4" class="edge">
<title>Node5&#45;&gt;Node6</title>
<path fill="none" stroke="#191970" d="M473.7773,-110.0744C464.011,-98.9517 451.7128,-84.9454 443.6343,-75.7449"/>
<polygon fill="#191970" stroke="#191970" points="471.4122,-112.6855 480.6403,-117.8906 476.6723,-108.0669 471.4122,-112.6855"/>
</g>
<!-- Node9 -->
<g id="node8" class="node">
<title>Node9</title>
<g id="a_node8"><a xlink:href="visual_8cc.html" target="_top" xlink:title="src/visual.cc">
<polygon fill="none" stroke="#000000" points="508.0778,-56.5 508.0778,-75.5 580.0778,-75.5 580.0778,-56.5 508.0778,-56.5"/>
<text text-anchor="middle" x="544.0778" y="-63.5" font-family="Helvetica,sans-Serif" font-size="10.00" fill="#000000">src/visual.cc</text>
</a>
</g>
</g>
<!-- Node5&#45;&gt;Node9 -->
<g id="edge7" class="edge">
<title>Node5&#45;&gt;Node9</title>
<path fill="none" stroke="#191970" d="M504.3698,-110.4007C514.3628,-99.2268 527.0541,-85.0356 535.3629,-75.7449"/>
<polygon fill="#191970" stroke="#191970" points="501.7289,-108.1034 497.6716,-117.8906 506.9467,-112.7698 501.7289,-108.1034"/>
</g>
<!-- Node7 -->
<g id="node6" class="node">
<title>Node7</title>
<g id="a_node6"><a xlink:href="arma__main_8cc.html" target="_top" xlink:title="src/arma_main.cc">
<polygon fill="none" stroke="#000000" points="327.5778,-.5 327.5778,-19.5 422.5778,-19.5 422.5778,-.5 327.5778,-.5"/>
<text text-anchor="middle" x="375.0778" y="-7.5" font-family="Helvetica,sans-Serif" font-size="10.00" fill="#000000">src/arma_main.cc</text>
</a>
</g>
</g>
<!-- Node6&#45;&gt;Node7 -->
<g id="edge5" class="edge">
<title>Node6&#45;&gt;Node7</title>
<path fill="none" stroke="#191970" d="M417.25,-49.3607C406.87,-39.6727 394.1487,-27.7995 385.4093,-19.6427"/>
<polygon fill="#191970" stroke="#191970" points="414.9279,-51.981 424.6266,-56.2455 419.7042,-46.8636 414.9279,-51.981"/>
</g>
<!-- Node8 -->
<g id="node7" class="node">
<title>Node8</title>
<g id="a_node7"><a xlink:href="arma__realtime_8cc.html" target="_top" xlink:title="src/arma_realtime.cc">
<polygon fill="none" stroke="#000000" points="441.0778,-.5 441.0778,-19.5 549.0778,-19.5 549.0778,-.5 441.0778,-.5"/>
<text text-anchor="middle" x="495.0778" y="-7.5" font-family="Helvetica,sans-Serif" font-size="10.00" fill="#000000">src/arma_realtime.cc</text>
</a>
</g>
</g>
<!-- Node6&#45;&gt;Node8 -->
<g id="edge6" class="edge">
<title>Node6&#45;&gt;Node8</title>
<path fill="none" stroke="#191970" d="M452.9056,-49.3607C463.2857,-39.6727 476.0069,-27.7995 484.7464,-19.6427"/>
<polygon fill="#191970" stroke="#191970" points="450.4515,-46.8636 445.529,-56.2455 455.2277,-51.981 450.4515,-46.8636"/>
</g>
<!-- Node10&#45;&gt;Node5 -->
<g id="edge9" class="edge">
<title>Node10&#45;&gt;Node5</title>
<path fill="none" stroke="#191970" d="M63.7252,-371.536C54.1233,-354.2252 45.8674,-330.8484 57.0778,-313 141.8421,-178.045 348.6039,-141.043 441.9617,-131.0813"/>
<polygon fill="#191970" stroke="#191970" points="60.9333,-373.6853 69.083,-380.4553 66.934,-370.0807 60.9333,-373.6853"/>
</g>
<!-- Node10&#45;&gt;Node11 -->
<g id="edge10" class="edge">
<title>Node10&#45;&gt;Node11</title>
<path fill="none" stroke="#191970" d="M91.3242,-371.1932C95.585,-361.9844 100.3107,-351.771 104.0713,-343.6432"/>
<polygon fill="#191970" stroke="#191970" points="88.135,-369.7513 87.1122,-380.2967 94.4879,-372.6908 88.135,-369.7513"/>
</g>
<!-- Node16 -->
<g id="node15" class="node">
<title>Node16</title>
<g id="a_node15"><a xlink:href="nit__transform_8hh.html" target="_top" xlink:title="src/nonlinear/nit_transform.hh">
<polygon fill="none" stroke="#000000" points="447.0778,-386 447.0778,-405 593.0778,-405 593.0778,-386 447.0778,-386"/>
<text text-anchor="middle" x="520.0778" y="-393" font-family="Helvetica,sans-Serif" font-size="10.00" fill="#000000">src/nonlinear/nit_transform.hh</text>
</a>
</g>
</g>
<!-- Node15&#45;&gt;Node16 -->
<g id="edge15" class="edge">
<title>Node15&#45;&gt;Node16</title>
<path fill="none" stroke="#191970" d="M394.1215,-448.9118C424.8308,-435.8895 470.3988,-416.5664 497.4823,-405.0817"/>
<polygon fill="#191970" stroke="#191970" points="392.5554,-445.7742 384.7154,-452.9005 395.2882,-452.2187 392.5554,-445.7742"/>
</g>
<!-- Node26 -->
<g id="node25" class="node">
<title>Node26</title>
<g id="a_node25"><a xlink:href="distribution_8hh.html" target="_top" xlink:title="src/stats/distribution.hh">
<polygon fill="none" stroke="#000000" points="302.5778,-386 302.5778,-405 421.5778,-405 421.5778,-386 302.5778,-386"/>
<text text-anchor="middle" x="362.0778" y="-393" font-family="Helvetica,sans-Serif" font-size="10.00" fill="#000000">src/stats/distribution.hh</text>
</a>
</g>
</g>
<!-- Node15&#45;&gt;Node26 -->
<g id="edge30" class="edge">
<title>Node15&#45;&gt;Node26</title>
<path fill="none" stroke="#191970" d="M362.0778,-442.6079C362.0778,-430.214 362.0778,-414.8263 362.0778,-405.0817"/>
<polygon fill="#191970" stroke="#191970" points="358.5779,-442.9005 362.0778,-452.9005 365.5779,-442.9006 358.5779,-442.9005"/>
</g>
<!-- Node29 -->
<g id="node28" class="node">
<title>Node29</title>
<g id="a_node28"><a xlink:href="gram__charlier_8cc.html" target="_top" xlink:title="src/stats/gram_charlier.cc">
<polygon fill="none" stroke="#000000" points="611.5778,-386 611.5778,-405 740.5778,-405 740.5778,-386 611.5778,-386"/>
<text text-anchor="middle" x="676.0778" y="-393" font-family="Helvetica,sans-Serif" font-size="10.00" fill="#000000">src/stats/gram_charlier.cc</text>
</a>
</g>
</g>
<!-- Node15&#45;&gt;Node29 -->
<g id="edge34" class="edge">
<title>Node15&#45;&gt;Node29</title>
<path fill="none" stroke="#191970" d="M416.5412,-450.8788C477.3828,-437.8967 574.7383,-417.1234 631.3229,-405.0496"/>
<polygon fill="#191970" stroke="#191970" points="415.7823,-447.4619 406.7329,-452.9717 417.2431,-454.3078 415.7823,-447.4619"/>
</g>
<!-- Node17 -->
<g id="node16" class="node">
<title>Node17</title>
<g id="a_node16"><a xlink:href="basic__arma__model_8hh.html" target="_top" xlink:title="src/generator/basic\l_arma_model.hh">
<polygon fill="none" stroke="#000000" points="649.0778,-313.5 649.0778,-343.5 749.0778,-343.5 749.0778,-313.5 649.0778,-313.5"/>
<text text-anchor="start" x="657.0778" y="-331.5" font-family="Helvetica,sans-Serif" font-size="10.00" fill="#000000">src/generator/basic</text>
<text text-anchor="middle" x="699.0778" y="-320.5" font-family="Helvetica,sans-Serif" font-size="10.00" fill="#000000">_arma_model.hh</text>
</a>
</g>
</g>
<!-- Node16&#45;&gt;Node17 -->
<g id="edge16" class="edge">
<title>Node16&#45;&gt;Node17</title>
<path fill="none" stroke="#191970" d="M555.3026,-382.3153C585.1101,-371.1583 627.8227,-355.1709 658.945,-343.5218"/>
<polygon fill="#191970" stroke="#191970" points="553.8627,-379.1171 545.7242,-385.9005 556.3165,-385.6729 553.8627,-379.1171"/>
</g>
<!-- Node24 -->
<g id="node23" class="node">
<title>Node24</title>
<g id="a_node23"><a xlink:href="basic__arma__model_8cc.html" target="_top" xlink:title="src/generator/basic\l_arma_model.cc">
<polygon fill="none" stroke="#000000" points="362.0778,-246.5 362.0778,-276.5 462.0778,-276.5 462.0778,-246.5 362.0778,-246.5"/>
<text text-anchor="start" x="370.0778" y="-264.5" font-family="Helvetica,sans-Serif" font-size="10.00" fill="#000000">src/generator/basic</text>
<text text-anchor="middle" x="412.0778" y="-253.5" font-family="Helvetica,sans-Serif" font-size="10.00" fill="#000000">_arma_model.cc</text>
</a>
</g>
</g>
<!-- Node16&#45;&gt;Node24 -->
<g id="edge28" class="edge">
<title>Node16&#45;&gt;Node24</title>
<path fill="none" stroke="#191970" d="M558.278,-381.4933C574.8625,-373.2815 592.6273,-361.0952 602.0778,-344 608.7437,-331.9421 610.4494,-323.9428 602.0778,-313 600.9779,-311.5622 518.0406,-289.4513 462.1188,-274.6734"/>
<polygon fill="#191970" stroke="#191970" points="556.3521,-378.526 548.7214,-385.876 559.2701,-384.8887 556.3521,-378.526"/>
</g>
<!-- Node25 -->
<g id="node24" class="node">
<title>Node25</title>
<g id="a_node24"><a xlink:href="nit__transform_8cc.html" target="_top" xlink:title="src/nonlinear/nit_transform.cc">
<polygon fill="none" stroke="#000000" points="447.0778,-319 447.0778,-338 593.0778,-338 593.0778,-319 447.0778,-319"/>
<text text-anchor="middle" x="520.0778" y="-326" font-family="Helvetica,sans-Serif" font-size="10.00" fill="#000000">src/nonlinear/nit_transform.cc</text>
</a>
</g>
</g>
<!-- Node16&#45;&gt;Node25 -->
<g id="edge29" class="edge">
<title>Node16&#45;&gt;Node25</title>
<path fill="none" stroke="#191970" d="M520.0778,-375.6079C520.0778,-363.214 520.0778,-347.8263 520.0778,-338.0817"/>
<polygon fill="#191970" stroke="#191970" points="516.5779,-375.9005 520.0778,-385.9005 523.5779,-375.9006 516.5779,-375.9005"/>
</g>
<!-- Node18 -->
<g id="node17" class="node">
<title>Node18</title>
<g id="a_node17"><a xlink:href="ar__model_8hh.html" target="_top" xlink:title="src/generator/ar_model.hh">
<polygon fill="none" stroke="#000000" points="634.0778,-252 634.0778,-271 764.0778,-271 764.0778,-252 634.0778,-252"/>
<text text-anchor="middle" x="699.0778" y="-259" font-family="Helvetica,sans-Serif" font-size="10.00" fill="#000000">src/generator/ar_model.hh</text>
</a>
</g>
</g>
<!-- Node17&#45;&gt;Node18 -->
<g id="edge17" class="edge">
<title>Node17&#45;&gt;Node18</title>
<path fill="none" stroke="#191970" d="M699.0778,-303.1199C699.0778,-291.9072 699.0778,-279.4031 699.0778,-271.055"/>
<polygon fill="#191970" stroke="#191970" points="695.5779,-303.2966 699.0778,-313.2967 702.5779,-303.2967 695.5779,-303.2966"/>
</g>
<!-- Node22 -->
<g id="node21" class="node">
<title>Node22</title>
<g id="a_node21"><a xlink:href="ma__model_8hh.html" target="_top" xlink:title="src/generator/ma_model.hh">
<polygon fill="none" stroke="#000000" points="480.5778,-252 480.5778,-271 615.5778,-271 615.5778,-252 480.5778,-252"/>
<text text-anchor="middle" x="548.0778" y="-259" font-family="Helvetica,sans-Serif" font-size="10.00" fill="#000000">src/generator/ma_model.hh</text>
</a>
</g>
</g>
<!-- Node17&#45;&gt;Node22 -->
<g id="edge23" class="edge">
<title>Node17&#45;&gt;Node22</title>
<path fill="none" stroke="#191970" d="M655.9444,-309.3613C627.7528,-296.8525 592.1346,-281.0484 569.7225,-271.1039"/>
<polygon fill="#191970" stroke="#191970" points="654.6303,-312.6073 665.1905,-313.4639 657.4694,-306.2088 654.6303,-312.6073"/>
</g>
<!-- Node17&#45;&gt;Node24 -->
<g id="edge27" class="edge">
<title>Node17&#45;&gt;Node24</title>
<path fill="none" stroke="#191970" d="M638.8741,-313.8804C637.5976,-313.583 636.331,-313.2893 635.0778,-313 562.3654,-296.2164 543.625,-294.4843 471.0778,-277 468.195,-276.3052 465.237,-275.577 462.2547,-274.831"/>
<polygon fill="#191970" stroke="#191970" points="638.2577,-317.3308 648.7934,-316.2136 639.8605,-310.5168 638.2577,-317.3308"/>
</g>
<!-- Node18&#45;&gt;Node5 -->
<g id="edge18" class="edge">
<title>Node18&#45;&gt;Node5</title>
<path fill="none" stroke="#191970" d="M690.7248,-242.5642C681.5716,-223.8844 665.1941,-195.7636 643.0778,-179 633.1362,-171.4645 563.3234,-149.73 521.1826,-137.0333"/>
<polygon fill="#191970" stroke="#191970" points="687.6537,-244.2597 695.0573,-251.8385 693.9958,-241.297 687.6537,-244.2597"/>
</g>
<!-- Node19 -->
<g id="node18" class="node">
<title>Node19</title>
<g id="a_node18"><a xlink:href="arma__model_8hh.html" target="_top" xlink:title="src/generator/arma\l_model.hh">
<polygon fill="none" stroke="#000000" points="536.0778,-179.5 536.0778,-209.5 634.0778,-209.5 634.0778,-179.5 536.0778,-179.5"/>
<text text-anchor="start" x="544.0778" y="-197.5" font-family="Helvetica,sans-Serif" font-size="10.00" fill="#000000">src/generator/arma</text>
<text text-anchor="middle" x="585.0778" y="-186.5" font-family="Helvetica,sans-Serif" font-size="10.00" fill="#000000">_model.hh</text>
</a>
</g>
</g>
<!-- Node18&#45;&gt;Node19 -->
<g id="edge19" class="edge">
<title>Node18&#45;&gt;Node19</title>
<path fill="none" stroke="#191970" d="M674.1227,-246.8334C655.3091,-235.7763 629.5964,-220.6644 610.6372,-209.5218"/>
<polygon fill="#191970" stroke="#191970" points="672.3497,-249.851 682.7444,-251.9005 675.8965,-243.8161 672.3497,-249.851"/>
</g>
<!-- Node21 -->
<g id="node20" class="node">
<title>Node21</title>
<g id="a_node20"><a xlink:href="ar__model_8cc.html" target="_top" xlink:title="src/generator/ar_model.cc">
<polygon fill="none" stroke="#000000" points="690.0778,-185 690.0778,-204 820.0778,-204 820.0778,-185 690.0778,-185"/>
<text text-anchor="middle" x="755.0778" y="-192" font-family="Helvetica,sans-Serif" font-size="10.00" fill="#000000">src/generator/ar_model.cc</text>
</a>
</g>
</g>
<!-- Node18&#45;&gt;Node21 -->
<g id="edge22" class="edge">
<title>Node18&#45;&gt;Node21</title>
<path fill="none" stroke="#191970" d="M713.5252,-244.2147C724.2017,-231.441 738.3427,-214.5224 747.0693,-204.0817"/>
<polygon fill="#191970" stroke="#191970" points="710.8289,-241.9831 707.1013,-251.9005 716.1999,-246.4723 710.8289,-241.9831"/>
</g>
<!-- Node19&#45;&gt;Node5 -->
<g id="edge20" class="edge">
<title>Node19&#45;&gt;Node5</title>
<path fill="none" stroke="#191970" d="M555.0533,-173.5454C537.5557,-161.3335 516.3331,-146.5219 502.7685,-137.055"/>
<polygon fill="#191970" stroke="#191970" points="553.0905,-176.4436 563.2939,-179.2967 557.0967,-170.7033 553.0905,-176.4436"/>
</g>
<!-- Node20 -->
<g id="node19" class="node">
<title>Node20</title>
<g id="a_node19"><a xlink:href="arma__model_8cc.html" target="_top" xlink:title="src/generator/arma\l_model.cc">
<polygon fill="none" stroke="#000000" points="554.0778,-112.5 554.0778,-142.5 652.0778,-142.5 652.0778,-112.5 554.0778,-112.5"/>
<text text-anchor="start" x="562.0778" y="-130.5" font-family="Helvetica,sans-Serif" font-size="10.00" fill="#000000">src/generator/arma</text>
<text text-anchor="middle" x="603.0778" y="-119.5" font-family="Helvetica,sans-Serif" font-size="10.00" fill="#000000">_model.cc</text>
</a>
</g>
</g>
<!-- Node19&#45;&gt;Node20 -->
<g id="edge21" class="edge">
<title>Node19&#45;&gt;Node20</title>
<path fill="none" stroke="#191970" d="M591.7646,-169.6103C594.1973,-160.5553 596.8719,-150.5998 599.0095,-142.6432"/>
<polygon fill="#191970" stroke="#191970" points="588.3768,-168.731 589.1623,-179.2967 595.1371,-170.5472 588.3768,-168.731"/>
</g>
<!-- Node22&#45;&gt;Node5 -->
<g id="edge24" class="edge">
<title>Node22&#45;&gt;Node5</title>
<path fill="none" stroke="#191970" d="M539.666,-242.3952C526.8589,-213.3078 502.9401,-158.9838 493.2825,-137.0496"/>
<polygon fill="#191970" stroke="#191970" points="536.6017,-244.1213 543.8347,-251.8631 543.0082,-241.3005 536.6017,-244.1213"/>
</g>
<!-- Node22&#45;&gt;Node19 -->
<g id="edge25" class="edge">
<title>Node22&#45;&gt;Node19</title>
<path fill="none" stroke="#191970" d="M558.2499,-243.0804C564.0782,-232.5264 571.3001,-219.4489 576.7822,-209.5218"/>
<polygon fill="#191970" stroke="#191970" points="555.1494,-241.4547 553.379,-251.9005 561.2772,-244.8386 555.1494,-241.4547"/>
</g>
<!-- Node23 -->
<g id="node22" class="node">
<title>Node23</title>
<g id="a_node22"><a xlink:href="ma__model_8cc.html" target="_top" xlink:title="src/generator/ma_model.cc">
<polygon fill="none" stroke="#000000" points="344.5778,-185 344.5778,-204 479.5778,-204 479.5778,-185 344.5778,-185"/>
<text text-anchor="middle" x="412.0778" y="-192" font-family="Helvetica,sans-Serif" font-size="10.00" fill="#000000">src/generator/ma_model.cc</text>
</a>
</g>
</g>
<!-- Node22&#45;&gt;Node23 -->
<g id="edge26" class="edge">
<title>Node22&#45;&gt;Node23</title>
<path fill="none" stroke="#191970" d="M519.4596,-247.4013C493.0465,-234.389 454.5368,-215.4173 431.5272,-204.0817"/>
<polygon fill="#191970" stroke="#191970" points="518.0751,-250.6209 528.5923,-251.9005 521.1686,-244.3415 518.0751,-250.6209"/>
</g>
<!-- Node27 -->
<g id="node26" class="node">
<title>Node27</title>
<g id="a_node26"><a xlink:href="basic__arma__model__verify_8cc.html" target="_top" xlink:title="src/generator/basic\l_arma_model_verify.cc">
<polygon fill="none" stroke="#000000" points="174.5778,-313.5 174.5778,-343.5 291.5778,-343.5 291.5778,-313.5 174.5778,-313.5"/>
<text text-anchor="start" x="182.5778" y="-331.5" font-family="Helvetica,sans-Serif" font-size="10.00" fill="#000000">src/generator/basic</text>
<text text-anchor="middle" x="233.0778" y="-320.5" font-family="Helvetica,sans-Serif" font-size="10.00" fill="#000000">_arma_model_verify.cc</text>
</a>
</g>
</g>
<!-- Node26&#45;&gt;Node27 -->
<g id="edge31" class="edge">
<title>Node26&#45;&gt;Node27</title>
<path fill="none" stroke="#191970" d="M334.7056,-381.2834C313.3451,-370.1892 283.7467,-354.8164 262.0003,-343.5218"/>
<polygon fill="#191970" stroke="#191970" points="333.1076,-384.3973 343.5953,-385.9005 336.3341,-378.1852 333.1076,-384.3973"/>
</g>
<!-- Node28 -->
<g id="node27" class="node">
<title>Node28</title>
<g id="a_node27"><a xlink:href="distribution_8cc.html" target="_top" xlink:title="src/stats/distribution.cc">
<polygon fill="none" stroke="#000000" points="309.5778,-319 309.5778,-338 428.5778,-338 428.5778,-319 309.5778,-319"/>
<text text-anchor="middle" x="369.0778" y="-326" font-family="Helvetica,sans-Serif" font-size="10.00" fill="#000000">src/stats/distribution.cc</text>
</a>
</g>
</g>
<!-- Node26&#45;&gt;Node28 -->
<g id="edge33" class="edge">
<title>Node26&#45;&gt;Node28</title>
<path fill="none" stroke="#191970" d="M364.1561,-375.6079C365.451,-363.214 367.0586,-347.8263 368.0767,-338.0817"/>
<polygon fill="#191970" stroke="#191970" points="360.6389,-375.5909 363.0807,-385.9005 367.601,-376.3184 360.6389,-375.5909"/>
</g>
<!-- Node27&#45;&gt;Node24 -->
<g id="edge32" class="edge">
<title>Node27&#45;&gt;Node24</title>
<path fill="none" stroke="#191970" d="M282.8639,-309.865C310.8832,-299.3773 345.4165,-286.4515 371.7315,-276.6017"/>
<polygon fill="#191970" stroke="#191970" points="281.3874,-306.6804 273.2489,-313.4639 283.8413,-313.2362 281.3874,-306.6804"/>
</g>
<!-- Node32&#45;&gt;Node33 -->
<g id="edge39" class="edge">
<title>Node32&#45;&gt;Node33</title>
<path fill="none" stroke="#191970" d="M1074.1113,-439.3509C1066.7361,-429.8482 1058.4045,-419.1132 1051.8307,-410.6432"/>
<polygon fill="#191970" stroke="#191970" points="1071.382,-441.5427 1080.2782,-447.2967 1076.9119,-437.2508 1071.382,-441.5427"/>
</g>
</g>
</svg>
