<?xml version="1.0" encoding="UTF-8" standalone="no"?>
<!DOCTYPE svg PUBLIC "-//W3C//DTD SVG 1.1//EN"
 "http://www.w3.org/Graphics/SVG/1.1/DTD/svg11.dtd">
<!-- Generated by graphviz version 2.36.0 (20140111.2315)
 -->
<!-- Title: /home/travis/build/igankevich/arma/src/velocity/plain_wave_solver.cc Pages: 1 -->
<svg width="1405pt" height="466pt"
 viewBox="0.00 0.00 1405.16 466.00" xmlns="http://www.w3.org/2000/svg" xmlns:xlink="http://www.w3.org/1999/xlink">
<g id="graph0" class="graph" transform="scale(1 1) rotate(0) translate(4 462)">
<title>/home/travis/build/igankevich/arma/src/velocity/plain_wave_solver.cc</title>
<!-- Node1 -->
<g id="node1" class="node"><title>Node1</title>
<polygon fill="#bfbfbf" stroke="black" points="1111.84,-405 1111.84,-457 1218.84,-457 1218.84,-405 1111.84,-405"/>
<text text-anchor="start" x="1119.84" y="-445" font-family="Helvetica,sans-Serif" font-size="10.00">/home/travis/build</text>
<text text-anchor="start" x="1119.84" y="-434" font-family="Helvetica,sans-Serif" font-size="10.00">/igankevich/arma/src</text>
<text text-anchor="start" x="1119.84" y="-423" font-family="Helvetica,sans-Serif" font-size="10.00">/velocity/plain_wave</text>
<text text-anchor="middle" x="1165.34" y="-412" font-family="Helvetica,sans-Serif" font-size="10.00">_solver.cc</text>
</g>
<!-- Node2 -->
<g id="node2" class="node"><title>Node2</title>
<g id="a_node2"><a xlink:href="plain__wave__solver_8hh.html" target="_top" xlink:title="plain_wave_solver.hh">
<polygon fill="none" stroke="black" points="1047.34,-348.5 1047.34,-367.5 1157.34,-367.5 1157.34,-348.5 1047.34,-348.5"/>
<text text-anchor="middle" x="1102.34" y="-355.5" font-family="Helvetica,sans-Serif" font-size="10.00">plain_wave_solver.hh</text>
</a>
</g>
</g>
<!-- Node1&#45;&gt;Node2 -->
<g id="edge1" class="edge"><title>Node1&#45;&gt;Node2</title>
<path fill="none" stroke="midnightblue" d="M1142.95,-404.768C1134.27,-394.982 1124.57,-384.056 1116.83,-375.335"/>
<polygon fill="midnightblue" stroke="midnightblue" points="1119.36,-372.914 1110.11,-367.757 1114.13,-377.56 1119.36,-372.914"/>
</g>
<!-- Node10 -->
<g id="node10" class="node"><title>Node10</title>
<g id="a_node10"><a xlink:href="validators_8hh.html" target="_top" xlink:title="validators.hh">
<polygon fill="none" stroke="black" points="990.338,-112.5 990.338,-131.5 1062.34,-131.5 1062.34,-112.5 990.338,-112.5"/>
<text text-anchor="middle" x="1026.34" y="-119.5" font-family="Helvetica,sans-Serif" font-size="10.00">validators.hh</text>
</a>
</g>
</g>
<!-- Node1&#45;&gt;Node10 -->
<g id="edge55" class="edge"><title>Node1&#45;&gt;Node10</title>
<path fill="none" stroke="midnightblue" d="M1111.69,-423.242C1048.95,-412.149 947.769,-383.611 901.338,-312 858.802,-246.395 957.656,-168.738 1004,-137.286"/>
<polygon fill="midnightblue" stroke="midnightblue" points="1006.12,-140.079 1012.51,-131.629 1002.24,-134.25 1006.12,-140.079"/>
</g>
<!-- Node33 -->
<g id="node33" class="node"><title>Node33</title>
<g id="a_node33"><a xlink:href="physical__constants_8hh.html" target="_top" xlink:title="physical_constants.hh">
<polygon fill="none" stroke="black" points="1222.34,-224.5 1222.34,-243.5 1336.34,-243.5 1336.34,-224.5 1222.34,-224.5"/>
<text text-anchor="middle" x="1279.34" y="-231.5" font-family="Helvetica,sans-Serif" font-size="10.00">physical_constants.hh</text>
</a>
</g>
</g>
<!-- Node1&#45;&gt;Node33 -->
<g id="edge54" class="edge"><title>Node1&#45;&gt;Node33</title>
<path fill="none" stroke="midnightblue" d="M1218.84,-418.893C1273.05,-404.479 1354.06,-373.513 1391.34,-312 1398.71,-299.837 1399.3,-291.783 1391.34,-280 1380.35,-263.737 1362.4,-253.351 1344.07,-246.718"/>
<polygon fill="midnightblue" stroke="midnightblue" points="1345.07,-243.364 1334.48,-243.58 1342.89,-250.016 1345.07,-243.364"/>
</g>
<!-- Node34 -->
<g id="node34" class="node"><title>Node34</title>
<g id="a_node34"><a xlink:href="params_8hh.html" target="_top" xlink:title="params.hh">
<polygon fill="none" stroke="black" points="1198.34,-348.5 1198.34,-367.5 1260.34,-367.5 1260.34,-348.5 1198.34,-348.5"/>
<text text-anchor="middle" x="1229.34" y="-355.5" font-family="Helvetica,sans-Serif" font-size="10.00">params.hh</text>
</a>
</g>
</g>
<!-- Node1&#45;&gt;Node34 -->
<g id="edge56" class="edge"><title>Node1&#45;&gt;Node34</title>
<path fill="none" stroke="midnightblue" d="M1188.08,-404.768C1196.9,-394.982 1206.75,-384.056 1214.61,-375.335"/>
<polygon fill="midnightblue" stroke="midnightblue" points="1217.35,-377.528 1221.44,-367.757 1212.15,-372.842 1217.35,-377.528"/>
</g>
<!-- Node3 -->
<g id="node3" class="node"><title>Node3</title>
<g id="a_node3"><a xlink:href="basic__solver_8hh.html" target="_top" xlink:title="basic_solver.hh">
<polygon fill="none" stroke="black" points="1037.84,-286.5 1037.84,-305.5 1122.84,-305.5 1122.84,-286.5 1037.84,-286.5"/>
<text text-anchor="middle" x="1080.34" y="-293.5" font-family="Helvetica,sans-Serif" font-size="10.00">basic_solver.hh</text>
</a>
</g>
</g>
<!-- Node2&#45;&gt;Node3 -->
<g id="edge2" class="edge"><title>Node2&#45;&gt;Node3</title>
<path fill="none" stroke="midnightblue" d="M1099.19,-348.403C1096.02,-339.76 1091.03,-326.17 1086.99,-315.134"/>
<polygon fill="midnightblue" stroke="midnightblue" points="1090.21,-313.764 1083.48,-305.581 1083.64,-316.174 1090.21,-313.764"/>
</g>
<!-- Node4 -->
<g id="node4" class="node"><title>Node4</title>
<g id="a_node4"><a xlink:href="types_8hh.html" target="_top" xlink:title="types.hh">
<polygon fill="none" stroke="black" points="995.338,-168.5 995.338,-187.5 1049.34,-187.5 1049.34,-168.5 995.338,-168.5"/>
<text text-anchor="middle" x="1022.34" y="-175.5" font-family="Helvetica,sans-Serif" font-size="10.00">types.hh</text>
</a>
</g>
</g>
<!-- Node2&#45;&gt;Node4 -->
<g id="edge53" class="edge"><title>Node2&#45;&gt;Node4</title>
<path fill="none" stroke="midnightblue" d="M1110.01,-348.459C1117.12,-339.927 1127.19,-326.088 1131.34,-312 1135.35,-298.356 1136.54,-293.238 1131.34,-280 1115.65,-240.046 1074.31,-209.363 1047.29,-192.777"/>
<polygon fill="midnightblue" stroke="midnightblue" points="1048.78,-189.593 1038.4,-187.506 1045.21,-195.615 1048.78,-189.593"/>
</g>
<!-- Node17 -->
<g id="node17" class="node"><title>Node17</title>
<g id="a_node17"><a xlink:href="plain__wave__model_8hh.html" target="_top" xlink:title="generator/plain_wave\l_model.hh">
<polygon fill="none" stroke="black" points="910.838,-281 910.838,-311 1019.84,-311 1019.84,-281 910.838,-281"/>
<text text-anchor="start" x="918.838" y="-299" font-family="Helvetica,sans-Serif" font-size="10.00">generator/plain_wave</text>
<text text-anchor="middle" x="965.338" y="-288" font-family="Helvetica,sans-Serif" font-size="10.00">_model.hh</text>
</a>
</g>
</g>
<!-- Node2&#45;&gt;Node17 -->
<g id="edge22" class="edge"><title>Node2&#45;&gt;Node17</title>
<path fill="none" stroke="midnightblue" d="M1082.71,-348.403C1062.96,-339.755 1031.91,-326.155 1006.7,-315.115"/>
<polygon fill="midnightblue" stroke="midnightblue" points="1007.93,-311.831 997.363,-311.025 1005.12,-318.243 1007.93,-311.831"/>
</g>
<!-- Node3&#45;&gt;Node4 -->
<g id="edge3" class="edge"><title>Node3&#45;&gt;Node4</title>
<path fill="none" stroke="midnightblue" d="M1079.29,-286.232C1077.34,-272.345 1072.34,-244.74 1061.34,-224 1055.67,-213.315 1047.04,-202.997 1039.33,-194.943"/>
<polygon fill="midnightblue" stroke="midnightblue" points="1041.63,-192.296 1032.08,-187.713 1036.69,-197.253 1041.63,-192.296"/>
</g>
<!-- Node6 -->
<g id="node6" class="node"><title>Node6</title>
<g id="a_node6"><a xlink:href="domain_8hh.html" target="_top" xlink:title="domain.hh">
<polygon fill="none" stroke="black" points="1125.34,-168.5 1125.34,-187.5 1187.34,-187.5 1187.34,-168.5 1125.34,-168.5"/>
<text text-anchor="middle" x="1156.34" y="-175.5" font-family="Helvetica,sans-Serif" font-size="10.00">domain.hh</text>
</a>
</g>
</g>
<!-- Node3&#45;&gt;Node6 -->
<g id="edge5" class="edge"><title>Node3&#45;&gt;Node6</title>
<path fill="none" stroke="midnightblue" d="M1086.05,-286.281C1098.6,-267.126 1128.77,-221.083 1145.2,-195.994"/>
<polygon fill="midnightblue" stroke="midnightblue" points="1148.21,-197.788 1150.77,-187.505 1142.36,-193.951 1148.21,-197.788"/>
</g>
<!-- Node15 -->
<g id="node15" class="node"><title>Node15</title>
<g id="a_node15"><a xlink:href="discrete__function_8hh.html" target="_top" xlink:title="discrete_function.hh">
<polygon fill="none" stroke="black" points="948.338,-224.5 948.338,-243.5 1052.34,-243.5 1052.34,-224.5 948.338,-224.5"/>
<text text-anchor="middle" x="1000.34" y="-231.5" font-family="Helvetica,sans-Serif" font-size="10.00">discrete_function.hh</text>
</a>
</g>
</g>
<!-- Node3&#45;&gt;Node15 -->
<g id="edge16" class="edge"><title>Node3&#45;&gt;Node15</title>
<path fill="none" stroke="midnightblue" d="M1068.88,-286.403C1056.16,-276.869 1035.43,-261.315 1020.09,-249.811"/>
<polygon fill="midnightblue" stroke="midnightblue" points="1021.88,-246.781 1011.78,-243.581 1017.68,-252.381 1021.88,-246.781"/>
</g>
<!-- Node5 -->
<g id="node5" class="node"><title>Node5</title>
<polygon fill="none" stroke="#bfbfbf" points="1056.34,-0.5 1056.34,-19.5 1124.34,-19.5 1124.34,-0.5 1056.34,-0.5"/>
<text text-anchor="middle" x="1090.34" y="-7.5" font-family="Helvetica,sans-Serif" font-size="10.00">blitz/array.h</text>
</g>
<!-- Node4&#45;&gt;Node5 -->
<g id="edge4" class="edge"><title>Node4&#45;&gt;Node5</title>
<path fill="none" stroke="midnightblue" d="M1035.92,-168.416C1047.33,-160.438 1063.05,-147.475 1071.34,-132 1088.94,-99.1522 1091.34,-54.5742 1091.11,-29.7189"/>
<polygon fill="midnightblue" stroke="midnightblue" points="1094.61,-29.4267 1090.85,-19.5188 1087.61,-29.6044 1094.61,-29.4267"/>
</g>
<!-- Node6&#45;&gt;Node5 -->
<g id="edge9" class="edge"><title>Node6&#45;&gt;Node5</title>
<path fill="none" stroke="midnightblue" d="M1163.05,-168.086C1171.66,-155.484 1184.69,-131.789 1177.34,-112 1163.9,-75.8003 1131.02,-43.8835 1109.75,-26.0442"/>
<polygon fill="midnightblue" stroke="midnightblue" points="1111.93,-23.3068 1101.97,-19.7072 1107.51,-28.7352 1111.93,-23.3068"/>
</g>
<!-- Node7 -->
<g id="node7" class="node"><title>Node7</title>
<polygon fill="none" stroke="#bfbfbf" points="615.838,-112.5 615.838,-131.5 664.838,-131.5 664.838,-112.5 615.838,-112.5"/>
<text text-anchor="middle" x="640.338" y="-119.5" font-family="Helvetica,sans-Serif" font-size="10.00">istream</text>
</g>
<!-- Node6&#45;&gt;Node7 -->
<g id="edge6" class="edge"><title>Node6&#45;&gt;Node7</title>
<path fill="none" stroke="midnightblue" d="M1125.12,-174.12C1028.12,-165.167 735.27,-138.107 675.382,-131.375"/>
<polygon fill="midnightblue" stroke="midnightblue" points="675.477,-127.859 665.115,-130.066 674.592,-134.803 675.477,-127.859"/>
</g>
<!-- Node8 -->
<g id="node8" class="node"><title>Node8</title>
<polygon fill="none" stroke="#bfbfbf" points="882.338,-112.5 882.338,-131.5 934.338,-131.5 934.338,-112.5 882.338,-112.5"/>
<text text-anchor="middle" x="908.338" y="-119.5" font-family="Helvetica,sans-Serif" font-size="10.00">ostream</text>
</g>
<!-- Node6&#45;&gt;Node8 -->
<g id="edge7" class="edge"><title>Node6&#45;&gt;Node8</title>
<path fill="none" stroke="midnightblue" d="M1125.18,-170.216C1079.15,-160.193 993.179,-141.473 944.455,-130.864"/>
<polygon fill="midnightblue" stroke="midnightblue" points="945.167,-127.437 934.652,-128.73 943.678,-134.277 945.167,-127.437"/>
</g>
<!-- Node9 -->
<g id="node9" class="node"><title>Node9</title>
<polygon fill="none" stroke="#bfbfbf" points="1118.34,-112.5 1118.34,-131.5 1168.34,-131.5 1168.34,-112.5 1118.34,-112.5"/>
<text text-anchor="middle" x="1143.34" y="-119.5" font-family="Helvetica,sans-Serif" font-size="10.00">iomanip</text>
</g>
<!-- Node6&#45;&gt;Node9 -->
<g id="edge8" class="edge"><title>Node6&#45;&gt;Node9</title>
<path fill="none" stroke="midnightblue" d="M1154.19,-168.083C1152.47,-160.927 1149.99,-150.635 1147.84,-141.691"/>
<polygon fill="midnightblue" stroke="midnightblue" points="1151.19,-140.654 1145.44,-131.751 1144.38,-142.293 1151.19,-140.654"/>
</g>
<!-- Node6&#45;&gt;Node10 -->
<g id="edge10" class="edge"><title>Node6&#45;&gt;Node10</title>
<path fill="none" stroke="midnightblue" d="M1135.74,-168.444C1114.34,-159.557 1080.66,-145.563 1056.31,-135.451"/>
<polygon fill="midnightblue" stroke="midnightblue" points="1057.42,-132.12 1046.84,-131.516 1054.73,-138.585 1057.42,-132.12"/>
</g>
<!-- Node11 -->
<g id="node11" class="node"><title>Node11</title>
<polygon fill="none" stroke="#bfbfbf" points="741.838,-56.5 741.838,-75.5 800.838,-75.5 800.838,-56.5 741.838,-56.5"/>
<text text-anchor="middle" x="771.338" y="-63.5" font-family="Helvetica,sans-Serif" font-size="10.00">stdexcept</text>
</g>
<!-- Node10&#45;&gt;Node11 -->
<g id="edge11" class="edge"><title>Node10&#45;&gt;Node11</title>
<path fill="none" stroke="midnightblue" d="M990.074,-113.32C942.705,-103.289 860.054,-85.7869 811.044,-75.4084"/>
<polygon fill="midnightblue" stroke="midnightblue" points="811.63,-71.9548 801.122,-73.3071 810.18,-78.803 811.63,-71.9548"/>
</g>
<!-- Node12 -->
<g id="node12" class="node"><title>Node12</title>
<g id="a_node12"><a xlink:href="blitz_8hh.html" target="_top" xlink:title="blitz.hh">
<polygon fill="none" stroke="black" points="1002.34,-56.5 1002.34,-75.5 1050.34,-75.5 1050.34,-56.5 1002.34,-56.5"/>
<text text-anchor="middle" x="1026.34" y="-63.5" font-family="Helvetica,sans-Serif" font-size="10.00">blitz.hh</text>
</a>
</g>
</g>
<!-- Node10&#45;&gt;Node12 -->
<g id="edge12" class="edge"><title>Node10&#45;&gt;Node12</title>
<path fill="none" stroke="midnightblue" d="M1026.34,-112.083C1026.34,-105.006 1026.34,-94.8611 1026.34,-85.9865"/>
<polygon fill="midnightblue" stroke="midnightblue" points="1029.84,-85.751 1026.34,-75.7511 1022.84,-85.7511 1029.84,-85.751"/>
</g>
<!-- Node12&#45;&gt;Node5 -->
<g id="edge14" class="edge"><title>Node12&#45;&gt;Node5</title>
<path fill="none" stroke="midnightblue" d="M1036.62,-56.324C1046.17,-48.2631 1060.62,-36.0765 1072.12,-26.3695"/>
<polygon fill="midnightblue" stroke="midnightblue" points="1074.48,-28.9577 1079.87,-19.8339 1069.97,-23.6076 1074.48,-28.9577"/>
</g>
<!-- Node13 -->
<g id="node13" class="node"><title>Node13</title>
<polygon fill="none" stroke="#bfbfbf" points="470.338,-0.5 470.338,-19.5 526.338,-19.5 526.338,-0.5 470.338,-0.5"/>
<text text-anchor="middle" x="498.338" y="-7.5" font-family="Helvetica,sans-Serif" font-size="10.00">algorithm</text>
</g>
<!-- Node12&#45;&gt;Node13 -->
<g id="edge13" class="edge"><title>Node12&#45;&gt;Node13</title>
<path fill="none" stroke="midnightblue" d="M1002.28,-62.5394C918.592,-53.9805 639.716,-25.4591 536.867,-14.9404"/>
<polygon fill="midnightblue" stroke="midnightblue" points="536.929,-11.4286 526.625,-13.893 536.217,-18.3923 536.929,-11.4286"/>
</g>
<!-- Node14 -->
<g id="node14" class="node"><title>Node14</title>
<polygon fill="none" stroke="#bfbfbf" points="1188.34,-0.5 1188.34,-19.5 1232.34,-19.5 1232.34,-0.5 1188.34,-0.5"/>
<text text-anchor="middle" x="1210.34" y="-7.5" font-family="Helvetica,sans-Serif" font-size="10.00">cmath</text>
</g>
<!-- Node12&#45;&gt;Node14 -->
<g id="edge15" class="edge"><title>Node12&#45;&gt;Node14</title>
<path fill="none" stroke="midnightblue" d="M1050.39,-57.9404C1083.25,-48.2978 1142.23,-30.9887 1178.65,-20.2987"/>
<polygon fill="midnightblue" stroke="midnightblue" points="1179.68,-23.6454 1188.29,-17.4709 1177.71,-16.9286 1179.68,-23.6454"/>
</g>
<!-- Node15&#45;&gt;Node4 -->
<g id="edge21" class="edge"><title>Node15&#45;&gt;Node4</title>
<path fill="none" stroke="midnightblue" d="M1003.97,-224.083C1006.95,-216.77 1011.26,-206.181 1014.96,-197.103"/>
<polygon fill="midnightblue" stroke="midnightblue" points="1018.24,-198.333 1018.77,-187.751 1011.76,-195.691 1018.24,-198.333"/>
</g>
<!-- Node16 -->
<g id="node16" class="node"><title>Node16</title>
<g id="a_node16"><a xlink:href="grid_8hh.html" target="_top" xlink:title="grid.hh">
<polygon fill="none" stroke="black" points="872.338,-168.5 872.338,-187.5 918.338,-187.5 918.338,-168.5 872.338,-168.5"/>
<text text-anchor="middle" x="895.338" y="-175.5" font-family="Helvetica,sans-Serif" font-size="10.00">grid.hh</text>
</a>
</g>
</g>
<!-- Node15&#45;&gt;Node16 -->
<g id="edge17" class="edge"><title>Node15&#45;&gt;Node16</title>
<path fill="none" stroke="midnightblue" d="M983.468,-224.324C966.629,-215.664 940.532,-202.242 921.1,-192.249"/>
<polygon fill="midnightblue" stroke="midnightblue" points="922.66,-189.116 912.166,-187.655 919.459,-195.341 922.66,-189.116"/>
</g>
<!-- Node16&#45;&gt;Node7 -->
<g id="edge18" class="edge"><title>Node16&#45;&gt;Node7</title>
<path fill="none" stroke="midnightblue" d="M872.336,-172.771C833.711,-165.573 753.171,-150.148 675.17,-132.085"/>
<polygon fill="midnightblue" stroke="midnightblue" points="675.713,-128.618 665.179,-129.753 674.122,-135.434 675.713,-128.618"/>
</g>
<!-- Node16&#45;&gt;Node10 -->
<g id="edge20" class="edge"><title>Node16&#45;&gt;Node10</title>
<path fill="none" stroke="midnightblue" d="M916.096,-168.444C937.655,-159.557 971.602,-145.563 996.132,-135.451"/>
<polygon fill="midnightblue" stroke="midnightblue" points="997.767,-138.563 1005.68,-131.516 995.099,-132.092 997.767,-138.563"/>
</g>
<!-- Node16&#45;&gt;Node12 -->
<g id="edge19" class="edge"><title>Node16&#45;&gt;Node12</title>
<path fill="none" stroke="midnightblue" d="M905.618,-168.368C927.81,-149.733 980.45,-105.532 1008.32,-82.1338"/>
<polygon fill="midnightblue" stroke="midnightblue" points="1010.7,-84.7024 1016.11,-75.5914 1006.2,-79.3416 1010.7,-84.7024"/>
</g>
<!-- Node17&#45;&gt;Node4 -->
<g id="edge25" class="edge"><title>Node17&#45;&gt;Node4</title>
<path fill="none" stroke="midnightblue" d="M953.204,-280.977C941.926,-266.142 928.393,-242.385 939.338,-224 949.362,-207.164 968.122,-196.239 985.274,-189.376"/>
<polygon fill="midnightblue" stroke="midnightblue" points="986.912,-192.504 995.108,-185.791 984.515,-185.927 986.912,-192.504"/>
</g>
<!-- Node17&#45;&gt;Node7 -->
<g id="edge23" class="edge"><title>Node17&#45;&gt;Node7</title>
<path fill="none" stroke="midnightblue" d="M910.475,-292.356C858.947,-287.898 781.055,-275.952 721.338,-244 690.025,-227.246 683.621,-217.823 664.338,-188 655.051,-173.637 648.677,-155.177 644.844,-141.602"/>
<polygon fill="midnightblue" stroke="midnightblue" points="648.131,-140.335 642.215,-131.545 641.358,-142.105 648.131,-140.335"/>
</g>
<!-- Node17&#45;&gt;Node8 -->
<g id="edge24" class="edge"><title>Node17&#45;&gt;Node8</title>
<path fill="none" stroke="midnightblue" d="M944.464,-280.92C919.679,-262.798 879.647,-228.744 863.338,-188 855.764,-169.078 872.119,-150.236 887.191,-137.749"/>
<polygon fill="midnightblue" stroke="midnightblue" points="889.498,-140.389 895.271,-131.505 885.218,-134.85 889.498,-140.389"/>
</g>
<!-- Node17&#45;&gt;Node15 -->
<g id="edge26" class="edge"><title>Node17&#45;&gt;Node15</title>
<path fill="none" stroke="midnightblue" d="M973.633,-280.781C978.561,-272.332 984.852,-261.548 990.089,-252.569"/>
<polygon fill="midnightblue" stroke="midnightblue" points="993.23,-254.132 995.245,-243.731 987.183,-250.605 993.23,-254.132"/>
</g>
<!-- Node18 -->
<g id="node18" class="node"><title>Node18</title>
<g id="a_node18"><a xlink:href="basic__model_8hh.html" target="_top" xlink:title="basic_model.hh">
<polygon fill="none" stroke="black" points="730.838,-224.5 730.838,-243.5 815.838,-243.5 815.838,-224.5 730.838,-224.5"/>
<text text-anchor="middle" x="773.338" y="-231.5" font-family="Helvetica,sans-Serif" font-size="10.00">basic_model.hh</text>
</a>
</g>
</g>
<!-- Node17&#45;&gt;Node18 -->
<g id="edge27" class="edge"><title>Node17&#45;&gt;Node18</title>
<path fill="none" stroke="midnightblue" d="M920.323,-280.933C886.818,-270.462 841.641,-256.345 810.253,-246.536"/>
<polygon fill="midnightblue" stroke="midnightblue" points="811.168,-243.155 800.579,-243.513 809.08,-249.836 811.168,-243.155"/>
</g>
<!-- Node17&#45;&gt;Node33 -->
<g id="edge51" class="edge"><title>Node17&#45;&gt;Node33</title>
<path fill="none" stroke="midnightblue" d="M1019.93,-281.803C1022.77,-281.179 1025.59,-280.574 1028.34,-280 1092.33,-266.656 1166.01,-253.735 1216.91,-245.188"/>
<polygon fill="midnightblue" stroke="midnightblue" points="1217.49,-248.639 1226.77,-243.538 1216.33,-241.735 1217.49,-248.639"/>
</g>
<!-- Node18&#45;&gt;Node4 -->
<g id="edge50" class="edge"><title>Node18&#45;&gt;Node4</title>
<path fill="none" stroke="midnightblue" d="M812.793,-224.444C860.092,-214.186 938.759,-197.126 985.067,-187.083"/>
<polygon fill="midnightblue" stroke="midnightblue" points="985.96,-190.471 994.991,-184.931 984.476,-183.63 985.96,-190.471"/>
</g>
<!-- Node18&#45;&gt;Node7 -->
<g id="edge28" class="edge"><title>Node18&#45;&gt;Node7</title>
<path fill="none" stroke="midnightblue" d="M749,-224.354C730.161,-216.816 704.19,-204.5 685.338,-188 670.046,-174.616 657.39,-154.97 649.436,-140.784"/>
<polygon fill="midnightblue" stroke="midnightblue" points="652.315,-138.745 644.505,-131.586 646.145,-142.053 652.315,-138.745"/>
</g>
<!-- Node18&#45;&gt;Node8 -->
<g id="edge29" class="edge"><title>Node18&#45;&gt;Node8</title>
<path fill="none" stroke="midnightblue" d="M779.579,-224.19C789.319,-210.87 809.22,-185.326 830.338,-168 845.652,-155.436 864.914,-144.285 880.465,-136.227"/>
<polygon fill="midnightblue" stroke="midnightblue" points="882.244,-139.25 889.599,-131.624 879.094,-132.999 882.244,-139.25"/>
</g>
<!-- Node18&#45;&gt;Node16 -->
<g id="edge30" class="edge"><title>Node18&#45;&gt;Node16</title>
<path fill="none" stroke="midnightblue" d="M792.669,-224.444C812.658,-215.596 844.081,-201.687 866.902,-191.586"/>
<polygon fill="midnightblue" stroke="midnightblue" points="868.37,-194.764 876.097,-187.516 865.536,-188.363 868.37,-194.764"/>
</g>
<!-- Node19 -->
<g id="node19" class="node"><title>Node19</title>
<g id="a_node19"><a xlink:href="output__flags_8hh.html" target="_top" xlink:title="output_flags.hh">
<polygon fill="none" stroke="black" points="694.838,-168.5 694.838,-187.5 777.838,-187.5 777.838,-168.5 694.838,-168.5"/>
<text text-anchor="middle" x="736.338" y="-175.5" font-family="Helvetica,sans-Serif" font-size="10.00">output_flags.hh</text>
</a>
</g>
</g>
<!-- Node18&#45;&gt;Node19 -->
<g id="edge31" class="edge"><title>Node18&#45;&gt;Node19</title>
<path fill="none" stroke="midnightblue" d="M767.228,-224.083C762.056,-216.534 754.492,-205.495 748.144,-196.23"/>
<polygon fill="midnightblue" stroke="midnightblue" points="750.874,-194.022 742.334,-187.751 745.099,-197.979 750.874,-194.022"/>
</g>
<!-- Node23 -->
<g id="node23" class="node"><title>Node23</title>
<g id="a_node23"><a xlink:href="parallel__mt_8hh.html" target="_top" xlink:title="parallel_mt.hh">
<polygon fill="none" stroke="black" points="311.838,-168.5 311.838,-187.5 388.838,-187.5 388.838,-168.5 311.838,-168.5"/>
<text text-anchor="middle" x="350.338" y="-175.5" font-family="Helvetica,sans-Serif" font-size="10.00">parallel_mt.hh</text>
</a>
</g>
</g>
<!-- Node18&#45;&gt;Node23 -->
<g id="edge37" class="edge"><title>Node18&#45;&gt;Node23</title>
<path fill="none" stroke="midnightblue" d="M730.451,-227.525C651.211,-217.409 482.368,-195.855 398.991,-185.211"/>
<polygon fill="midnightblue" stroke="midnightblue" points="399.38,-181.732 389.017,-183.938 398.493,-188.676 399.38,-181.732"/>
</g>
<!-- Node19&#45;&gt;Node7 -->
<g id="edge33" class="edge"><title>Node19&#45;&gt;Node7</title>
<path fill="none" stroke="midnightblue" d="M720.914,-168.324C705.799,-159.822 682.523,-146.729 664.867,-136.797"/>
<polygon fill="midnightblue" stroke="midnightblue" points="666.156,-133.507 655.724,-131.655 662.724,-139.608 666.156,-133.507"/>
</g>
<!-- Node19&#45;&gt;Node8 -->
<g id="edge34" class="edge"><title>Node19&#45;&gt;Node8</title>
<path fill="none" stroke="midnightblue" d="M763.592,-168.444C793.123,-159.172 840.355,-144.343 872.785,-134.162"/>
<polygon fill="midnightblue" stroke="midnightblue" points="873.845,-137.498 882.338,-131.163 871.748,-130.819 873.845,-137.498"/>
</g>
<!-- Node20 -->
<g id="node20" class="node"><title>Node20</title>
<polygon fill="none" stroke="#bfbfbf" points="763.838,-112.5 763.838,-131.5 804.838,-131.5 804.838,-112.5 763.838,-112.5"/>
<text text-anchor="middle" x="784.338" y="-119.5" font-family="Helvetica,sans-Serif" font-size="10.00">bitset</text>
</g>
<!-- Node19&#45;&gt;Node20 -->
<g id="edge32" class="edge"><title>Node19&#45;&gt;Node20</title>
<path fill="none" stroke="midnightblue" d="M744.264,-168.083C751.184,-160.298 761.404,-148.801 769.79,-139.367"/>
<polygon fill="midnightblue" stroke="midnightblue" points="772.532,-141.55 776.559,-131.751 767.3,-136.9 772.532,-141.55"/>
</g>
<!-- Node21 -->
<g id="node21" class="node"><title>Node21</title>
<polygon fill="none" stroke="#bfbfbf" points="822.838,-112.5 822.838,-131.5 863.838,-131.5 863.838,-112.5 822.838,-112.5"/>
<text text-anchor="middle" x="843.338" y="-119.5" font-family="Helvetica,sans-Serif" font-size="10.00">string</text>
</g>
<!-- Node19&#45;&gt;Node21 -->
<g id="edge35" class="edge"><title>Node19&#45;&gt;Node21</title>
<path fill="none" stroke="midnightblue" d="M753.53,-168.324C770.689,-159.664 797.284,-146.242 817.086,-136.249"/>
<polygon fill="midnightblue" stroke="midnightblue" points="818.839,-139.285 826.189,-131.655 815.685,-133.035 818.839,-139.285"/>
</g>
<!-- Node22 -->
<g id="node22" class="node"><title>Node22</title>
<polygon fill="none" stroke="#bfbfbf" points="683.338,-112.5 683.338,-131.5 745.338,-131.5 745.338,-112.5 683.338,-112.5"/>
<text text-anchor="middle" x="714.338" y="-119.5" font-family="Helvetica,sans-Serif" font-size="10.00">type_traits</text>
</g>
<!-- Node19&#45;&gt;Node22 -->
<g id="edge36" class="edge"><title>Node19&#45;&gt;Node22</title>
<path fill="none" stroke="midnightblue" d="M732.705,-168.083C729.726,-160.77 725.412,-150.181 721.714,-141.103"/>
<polygon fill="midnightblue" stroke="midnightblue" points="724.918,-139.691 717.903,-131.751 718.435,-142.333 724.918,-139.691"/>
</g>
<!-- Node23&#45;&gt;Node7 -->
<g id="edge42" class="edge"><title>Node23&#45;&gt;Node7</title>
<path fill="none" stroke="midnightblue" d="M389.151,-170.653C438.569,-162.432 526.525,-147.329 601.338,-132 602.785,-131.704 604.26,-131.394 605.749,-131.077"/>
<polygon fill="midnightblue" stroke="midnightblue" points="606.61,-134.471 615.621,-128.898 605.102,-127.635 606.61,-134.471"/>
</g>
<!-- Node23&#45;&gt;Node11 -->
<g id="edge44" class="edge"><title>Node23&#45;&gt;Node11</title>
<path fill="none" stroke="midnightblue" d="M389.211,-172.16C433.304,-165.938 506.926,-153.313 567.338,-132 585.708,-125.519 588.177,-119.045 606.338,-112 648.108,-95.7965 697.961,-83.0607 731.857,-75.3341"/>
<polygon fill="midnightblue" stroke="midnightblue" points="732.845,-78.6997 741.838,-73.0986 731.315,-71.8689 732.845,-78.6997"/>
</g>
<!-- Node23&#45;&gt;Node13 -->
<g id="edge39" class="edge"><title>Node23&#45;&gt;Node13</title>
<path fill="none" stroke="midnightblue" d="M311.75,-174.808C225.767,-169.531 24.4011,-154.841 4.33823,-132 -1.52786,-125.322 -1.28251,-118.886 4.33823,-112 62.1348,-41.1911 354.357,-18.697 460.088,-12.8115"/>
<polygon fill="midnightblue" stroke="midnightblue" points="460.506,-16.2941 470.304,-12.2626 460.131,-9.30422 460.506,-16.2941"/>
</g>
<!-- Node24 -->
<g id="node24" class="node"><title>Node24</title>
<polygon fill="none" stroke="#bfbfbf" points="13.8382,-112.5 13.8382,-131.5 58.8382,-131.5 58.8382,-112.5 13.8382,-112.5"/>
<text text-anchor="middle" x="36.3382" y="-119.5" font-family="Helvetica,sans-Serif" font-size="10.00">cstdlib</text>
</g>
<!-- Node23&#45;&gt;Node24 -->
<g id="edge38" class="edge"><title>Node23&#45;&gt;Node24</title>
<path fill="none" stroke="midnightblue" d="M311.759,-172.285C259.063,-165.531 161.494,-151.904 68.8023,-131.87"/>
<polygon fill="midnightblue" stroke="midnightblue" points="69.4993,-128.44 58.982,-129.719 68.0014,-135.278 69.4993,-128.44"/>
</g>
<!-- Node25 -->
<g id="node25" class="node"><title>Node25</title>
<polygon fill="none" stroke="#bfbfbf" points="77.3382,-112.5 77.3382,-131.5 123.338,-131.5 123.338,-112.5 77.3382,-112.5"/>
<text text-anchor="middle" x="100.338" y="-119.5" font-family="Helvetica,sans-Serif" font-size="10.00">cstdint</text>
</g>
<!-- Node23&#45;&gt;Node25 -->
<g id="edge40" class="edge"><title>Node23&#45;&gt;Node25</title>
<path fill="none" stroke="midnightblue" d="M311.562,-169.853C269.877,-161.98 201.462,-148.516 133.396,-132.124"/>
<polygon fill="midnightblue" stroke="midnightblue" points="133.903,-128.645 123.359,-129.684 132.25,-135.447 133.903,-128.645"/>
</g>
<!-- Node26 -->
<g id="node26" class="node"><title>Node26</title>
<polygon fill="none" stroke="#bfbfbf" points="141.338,-112.5 141.338,-131.5 187.338,-131.5 187.338,-112.5 141.338,-112.5"/>
<text text-anchor="middle" x="164.338" y="-119.5" font-family="Helvetica,sans-Serif" font-size="10.00">cstring</text>
</g>
<!-- Node23&#45;&gt;Node26 -->
<g id="edge41" class="edge"><title>Node23&#45;&gt;Node26</title>
<path fill="none" stroke="midnightblue" d="M320.866,-168.444C287.209,-158.672 232.288,-142.727 197.256,-132.557"/>
<polygon fill="midnightblue" stroke="midnightblue" points="198.082,-129.152 187.502,-129.725 196.13,-135.874 198.082,-129.152"/>
</g>
<!-- Node27 -->
<g id="node27" class="node"><title>Node27</title>
<polygon fill="none" stroke="#bfbfbf" points="205.338,-112.5 205.338,-131.5 245.338,-131.5 245.338,-112.5 205.338,-112.5"/>
<text text-anchor="middle" x="225.338" y="-119.5" font-family="Helvetica,sans-Serif" font-size="10.00">limits</text>
</g>
<!-- Node23&#45;&gt;Node27 -->
<g id="edge43" class="edge"><title>Node23&#45;&gt;Node27</title>
<path fill="none" stroke="midnightblue" d="M330.532,-168.444C310.051,-159.596 277.856,-145.687 254.474,-135.586"/>
<polygon fill="midnightblue" stroke="midnightblue" points="255.62,-132.269 245.052,-131.516 252.844,-138.695 255.62,-132.269"/>
</g>
<!-- Node28 -->
<g id="node28" class="node"><title>Node28</title>
<polygon fill="none" stroke="#bfbfbf" points="263.338,-112.5 263.338,-131.5 307.338,-131.5 307.338,-112.5 263.338,-112.5"/>
<text text-anchor="middle" x="285.338" y="-119.5" font-family="Helvetica,sans-Serif" font-size="10.00">vector</text>
</g>
<!-- Node23&#45;&gt;Node28 -->
<g id="edge45" class="edge"><title>Node23&#45;&gt;Node28</title>
<path fill="none" stroke="midnightblue" d="M339.895,-168.324C330.192,-160.263 315.523,-148.077 303.839,-138.369"/>
<polygon fill="midnightblue" stroke="midnightblue" points="305.9,-135.532 295.972,-131.834 301.427,-140.916 305.9,-135.532"/>
</g>
<!-- Node29 -->
<g id="node29" class="node"><title>Node29</title>
<polygon fill="none" stroke="#bfbfbf" points="325.338,-112.5 325.338,-131.5 375.338,-131.5 375.338,-112.5 325.338,-112.5"/>
<text text-anchor="middle" x="350.338" y="-119.5" font-family="Helvetica,sans-Serif" font-size="10.00">fstream</text>
</g>
<!-- Node23&#45;&gt;Node29 -->
<g id="edge46" class="edge"><title>Node23&#45;&gt;Node29</title>
<path fill="none" stroke="midnightblue" d="M350.338,-168.083C350.338,-161.006 350.338,-150.861 350.338,-141.986"/>
<polygon fill="midnightblue" stroke="midnightblue" points="353.838,-141.751 350.338,-131.751 346.838,-141.751 353.838,-141.751"/>
</g>
<!-- Node30 -->
<g id="node30" class="node"><title>Node30</title>
<polygon fill="none" stroke="#bfbfbf" points="393.838,-112.5 393.838,-131.5 440.838,-131.5 440.838,-112.5 393.838,-112.5"/>
<text text-anchor="middle" x="417.338" y="-119.5" font-family="Helvetica,sans-Serif" font-size="10.00">iterator</text>
</g>
<!-- Node23&#45;&gt;Node30 -->
<g id="edge47" class="edge"><title>Node23&#45;&gt;Node30</title>
<path fill="none" stroke="midnightblue" d="M361.103,-168.324C371.104,-160.263 386.225,-148.077 398.269,-138.369"/>
<polygon fill="midnightblue" stroke="midnightblue" points="400.788,-140.834 406.378,-131.834 396.395,-135.384 400.788,-140.834"/>
</g>
<!-- Node31 -->
<g id="node31" class="node"><title>Node31</title>
<polygon fill="none" stroke="#bfbfbf" points="459.338,-112.5 459.338,-131.5 505.338,-131.5 505.338,-112.5 459.338,-112.5"/>
<text text-anchor="middle" x="482.338" y="-119.5" font-family="Helvetica,sans-Serif" font-size="10.00">chrono</text>
</g>
<!-- Node23&#45;&gt;Node31 -->
<g id="edge48" class="edge"><title>Node23&#45;&gt;Node31</title>
<path fill="none" stroke="midnightblue" d="M371.254,-168.444C393.074,-159.517 427.488,-145.439 452.23,-135.317"/>
<polygon fill="midnightblue" stroke="midnightblue" points="453.59,-138.542 461.52,-131.516 450.94,-132.063 453.59,-138.542"/>
</g>
<!-- Node32 -->
<g id="node32" class="node"><title>Node32</title>
<polygon fill="none" stroke="#bfbfbf" points="523.838,-112.5 523.838,-131.5 558.838,-131.5 558.838,-112.5 523.838,-112.5"/>
<text text-anchor="middle" x="541.338" y="-119.5" font-family="Helvetica,sans-Serif" font-size="10.00">dc.h</text>
</g>
<!-- Node23&#45;&gt;Node32 -->
<g id="edge49" class="edge"><title>Node23&#45;&gt;Node32</title>
<path fill="none" stroke="midnightblue" d="M383.471,-168.47C414.692,-160.309 462.982,-147.369 513.808,-132.037"/>
<polygon fill="midnightblue" stroke="midnightblue" points="515.112,-135.299 523.663,-129.043 513.078,-128.601 515.112,-135.299"/>
</g>
<!-- Node33&#45;&gt;Node14 -->
<g id="edge52" class="edge"><title>Node33&#45;&gt;Node14</title>
<path fill="none" stroke="midnightblue" d="M1276.63,-224.297C1266.46,-191.563 1230.35,-75.3752 1216.14,-29.6664"/>
<polygon fill="midnightblue" stroke="midnightblue" points="1219.41,-28.3943 1213.1,-19.8837 1212.73,-30.472 1219.41,-28.3943"/>
</g>
<!-- Node34&#45;&gt;Node21 -->
<g id="edge58" class="edge"><title>Node34&#45;&gt;Node21</title>
<path fill="none" stroke="midnightblue" d="M1224.54,-348.316C1207.04,-317.538 1143.12,-213.088 1058.34,-168 987.127,-130.127 956.932,-150.41 873.777,-131.799"/>
<polygon fill="midnightblue" stroke="midnightblue" points="874.458,-128.363 863.921,-129.468 872.847,-135.175 874.458,-128.363"/>
</g>
<!-- Node35 -->
<g id="node35" class="node"><title>Node35</title>
<polygon fill="none" stroke="#bfbfbf" points="1323.84,-286.5 1323.84,-305.5 1382.84,-305.5 1382.84,-286.5 1323.84,-286.5"/>
<text text-anchor="middle" x="1353.34" y="-293.5" font-family="Helvetica,sans-Serif" font-size="10.00">functional</text>
</g>
<!-- Node34&#45;&gt;Node35 -->
<g id="edge57" class="edge"><title>Node34&#45;&gt;Node35</title>
<path fill="none" stroke="midnightblue" d="M1247.1,-348.403C1267.82,-338.379 1302.29,-321.701 1326.33,-310.07"/>
<polygon fill="midnightblue" stroke="midnightblue" points="1328.13,-313.087 1335.61,-305.581 1325.08,-306.786 1328.13,-313.087"/>
</g>
<!-- Node36 -->
<g id="node36" class="node"><title>Node36</title>
<polygon fill="none" stroke="#bfbfbf" points="1222.84,-286.5 1222.84,-305.5 1305.84,-305.5 1305.84,-286.5 1222.84,-286.5"/>
<text text-anchor="middle" x="1264.34" y="-293.5" font-family="Helvetica,sans-Serif" font-size="10.00">unordered_map</text>
</g>
<!-- Node34&#45;&gt;Node36 -->
<g id="edge59" class="edge"><title>Node34&#45;&gt;Node36</title>
<path fill="none" stroke="midnightblue" d="M1234.35,-348.403C1239.5,-339.582 1247.65,-325.608 1254.16,-314.455"/>
<polygon fill="midnightblue" stroke="midnightblue" points="1257.32,-315.982 1259.33,-305.581 1251.27,-312.455 1257.32,-315.982"/>
</g>
</g>
</svg>
