<?xml version="1.0" encoding="UTF-8" standalone="no"?>
<!DOCTYPE svg PUBLIC "-//W3C//DTD SVG 1.1//EN"
 "http://www.w3.org/Graphics/SVG/1.1/DTD/svg11.dtd">
<!-- Generated by graphviz version 2.40.1 (20161225.0304)
 -->
<!-- Title: src/generator/plain_wave.hh Pages: 1 -->
<svg width="246pt" height="151pt"
 viewBox="0.00 0.00 245.50 151.00" xmlns="http://www.w3.org/2000/svg" xmlns:xlink="http://www.w3.org/1999/xlink">
<g id="graph0" class="graph" transform="scale(1 1) rotate(0) translate(4 147)">
<title>src/generator/plain_wave.hh</title>
<!-- Node0 -->
<g id="node1" class="node">
<title>Node0</title>
<polygon fill="#bfbfbf" stroke="#000000" points="47,-112.5 47,-142.5 144,-142.5 144,-112.5 47,-112.5"/>
<text text-anchor="start" x="55" y="-130.5" font-family="Helvetica,sans-Serif" font-size="10.00" fill="#000000">src/generator/plain</text>
<text text-anchor="middle" x="95.5" y="-119.5" font-family="Helvetica,sans-Serif" font-size="10.00" fill="#000000">_wave.hh</text>
</g>
<!-- Node1 -->
<g id="node2" class="node">
<title>Node1</title>
<polygon fill="none" stroke="#bfbfbf" points="0,-56.5 0,-75.5 67,-75.5 67,-56.5 0,-56.5"/>
<text text-anchor="middle" x="33.5" y="-63.5" font-family="Helvetica,sans-Serif" font-size="10.00" fill="#000000">blitz/array.h</text>
</g>
<!-- Node0&#45;&gt;Node1 -->
<g id="edge1" class="edge">
<title>Node0&#45;&gt;Node1</title>
<path fill="none" stroke="#191970" d="M80.1742,-112.2977C71.2093,-103.4052 59.8712,-92.1586 50.6149,-82.9769"/>
<polygon fill="#191970" stroke="#191970" points="52.9915,-80.4045 43.427,-75.8469 48.0618,-85.3742 52.9915,-80.4045"/>
</g>
<!-- Node2 -->
<g id="node3" class="node">
<title>Node2</title>
<polygon fill="none" stroke="#bfbfbf" points="115.5,-.5 115.5,-19.5 159.5,-19.5 159.5,-.5 115.5,-.5"/>
<text text-anchor="middle" x="137.5" y="-7.5" font-family="Helvetica,sans-Serif" font-size="10.00" fill="#000000">cmath</text>
</g>
<!-- Node0&#45;&gt;Node2 -->
<g id="edge2" class="edge">
<title>Node0&#45;&gt;Node2</title>
<path fill="none" stroke="#191970" d="M98.5643,-112.4328C101.7646,-97.7678 107.319,-74.9805 114.5,-56 118.0041,-46.7382 122.7888,-36.8677 127.0869,-28.6543"/>
<polygon fill="#191970" stroke="#191970" points="130.2989,-30.0722 131.9695,-19.6099 124.1391,-26.7469 130.2989,-30.0722"/>
</g>
<!-- Node3 -->
<g id="node4" class="node">
<title>Node3</title>
<g id="a_node4"><a xlink:href="physical__constants_8hh.html" target="_top" xlink:title="physical_constants.hh">
<polygon fill="none" stroke="#000000" points="123.5,-56.5 123.5,-75.5 237.5,-75.5 237.5,-56.5 123.5,-56.5"/>
<text text-anchor="middle" x="180.5" y="-63.5" font-family="Helvetica,sans-Serif" font-size="10.00" fill="#000000">physical_constants.hh</text>
</a>
</g>
</g>
<!-- Node0&#45;&gt;Node3 -->
<g id="edge3" class="edge">
<title>Node0&#45;&gt;Node3</title>
<path fill="none" stroke="#191970" d="M116.5112,-112.2977C129.2934,-103.0495 145.5946,-91.2551 158.5448,-81.8853"/>
<polygon fill="#191970" stroke="#191970" points="160.8403,-84.5445 166.8904,-75.8469 156.737,-78.8732 160.8403,-84.5445"/>
</g>
<!-- Node3&#45;&gt;Node2 -->
<g id="edge4" class="edge">
<title>Node3&#45;&gt;Node2</title>
<path fill="none" stroke="#191970" d="M173.01,-56.2455C166.9674,-48.3761 158.3097,-37.101 151.0559,-27.6542"/>
<polygon fill="#191970" stroke="#191970" points="153.7705,-25.4426 144.9042,-19.6427 148.2185,-29.7058 153.7705,-25.4426"/>
</g>
</g>
</svg>
