<?xml version="1.0" encoding="UTF-8" standalone="no"?>
<!DOCTYPE svg PUBLIC "-//W3C//DTD SVG 1.1//EN"
 "http://www.w3.org/Graphics/SVG/1.1/DTD/svg11.dtd">
<!-- Generated by graphviz version 2.40.1 (20161225.0304)
 -->
<!-- Title: src/generator/plain_wave_model.hh Pages: 1 -->
<svg width="1235pt" height="319pt"
 viewBox="0.00 0.00 1235.24 319.00" xmlns="http://www.w3.org/2000/svg" xmlns:xlink="http://www.w3.org/1999/xlink">
<g id="graph0" class="graph" transform="scale(1 1) rotate(0) translate(4 315)">
<title>src/generator/plain_wave_model.hh</title>
<!-- Node0 -->
<g id="node1" class="node">
<title>Node0</title>
<polygon fill="#bfbfbf" stroke="#000000" points="224.5,-280.5 224.5,-310.5 321.5,-310.5 321.5,-280.5 224.5,-280.5"/>
<text text-anchor="start" x="232.5" y="-298.5" font-family="Helvetica,sans-Serif" font-size="10.00" fill="#000000">src/generator/plain</text>
<text text-anchor="middle" x="273" y="-287.5" font-family="Helvetica,sans-Serif" font-size="10.00" fill="#000000">_wave_model.hh</text>
</g>
<!-- Node1 -->
<g id="node2" class="node">
<title>Node1</title>
<polygon fill="none" stroke="#bfbfbf" points="525.5,-112.5 525.5,-131.5 574.5,-131.5 574.5,-112.5 525.5,-112.5"/>
<text text-anchor="middle" x="550" y="-119.5" font-family="Helvetica,sans-Serif" font-size="10.00" fill="#000000">istream</text>
</g>
<!-- Node0&#45;&gt;Node1 -->
<g id="edge1" class="edge">
<title>Node0&#45;&gt;Node1</title>
<path fill="none" stroke="#191970" d="M321.7527,-287.1173C355.9524,-279.6421 401.6899,-266.3337 437,-244 481.0882,-216.1142 519.2358,-166.8124 537.8638,-140.2203"/>
<polygon fill="#191970" stroke="#191970" points="540.8461,-142.06 543.6164,-131.8338 535.0736,-138.1004 540.8461,-142.06"/>
</g>
<!-- Node2 -->
<g id="node3" class="node">
<title>Node2</title>
<polygon fill="none" stroke="#bfbfbf" points="52,-112.5 52,-131.5 104,-131.5 104,-112.5 52,-112.5"/>
<text text-anchor="middle" x="78" y="-119.5" font-family="Helvetica,sans-Serif" font-size="10.00" fill="#000000">ostream</text>
</g>
<!-- Node0&#45;&gt;Node2 -->
<g id="edge2" class="edge">
<title>Node0&#45;&gt;Node2</title>
<path fill="none" stroke="#191970" d="M248.8681,-280.3112C233.9989,-270.5674 214.8189,-257.2905 199,-244 158.1643,-209.6913 115.3491,-163.7985 93.2372,-139.2364"/>
<polygon fill="#191970" stroke="#191970" points="95.8387,-136.895 86.5648,-131.7719 90.6198,-141.5601 95.8387,-136.895"/>
</g>
<!-- Node3 -->
<g id="node4" class="node">
<title>Node3</title>
<g id="a_node4"><a xlink:href="basic__model_8hh.html" target="_top" xlink:title="basic_model.hh">
<polygon fill="none" stroke="#000000" points="343.5,-224.5 343.5,-243.5 428.5,-243.5 428.5,-224.5 343.5,-224.5"/>
<text text-anchor="middle" x="386" y="-231.5" font-family="Helvetica,sans-Serif" font-size="10.00" fill="#000000">basic_model.hh</text>
</a>
</g>
</g>
<!-- Node0&#45;&gt;Node3 -->
<g id="edge3" class="edge">
<title>Node0&#45;&gt;Node3</title>
<path fill="none" stroke="#191970" d="M300.6429,-280.4554C318.5049,-270.734 341.6268,-258.15 359.2995,-248.5317"/>
<polygon fill="#191970" stroke="#191970" points="361.3787,-251.3849 368.489,-243.5303 358.0325,-245.2365 361.3787,-251.3849"/>
</g>
<!-- Node25 -->
<g id="node26" class="node">
<title>Node25</title>
<g id="a_node26"><a xlink:href="types_8hh.html" target="_top" xlink:title="types.hh">
<polygon fill="none" stroke="#000000" points="166,-168.5 166,-187.5 220,-187.5 220,-168.5 166,-168.5"/>
<text text-anchor="middle" x="193" y="-175.5" font-family="Helvetica,sans-Serif" font-size="10.00" fill="#000000">types.hh</text>
</a>
</g>
</g>
<!-- Node0&#45;&gt;Node25 -->
<g id="edge45" class="edge">
<title>Node0&#45;&gt;Node25</title>
<path fill="none" stroke="#191970" d="M249.1321,-280.4843C236.4223,-271.3602 221.4968,-258.6554 212,-244 202.8927,-229.9456 198.0595,-211.4462 195.5519,-197.6098"/>
<polygon fill="#191970" stroke="#191970" points="199.0035,-197.0271 194.0023,-187.687 192.0873,-198.1073 199.0035,-197.0271"/>
</g>
<!-- Node26 -->
<g id="node27" class="node">
<title>Node26</title>
<g id="a_node27"><a xlink:href="discrete__function_8hh.html" target="_top" xlink:title="discrete_function.hh">
<polygon fill="none" stroke="#000000" points="221,-224.5 221,-243.5 325,-243.5 325,-224.5 221,-224.5"/>
<text text-anchor="middle" x="273" y="-231.5" font-family="Helvetica,sans-Serif" font-size="10.00" fill="#000000">discrete_function.hh</text>
</a>
</g>
</g>
<!-- Node0&#45;&gt;Node26 -->
<g id="edge37" class="edge">
<title>Node0&#45;&gt;Node26</title>
<path fill="none" stroke="#191970" d="M273,-280.2977C273,-272.3834 273,-262.6043 273,-254.0759"/>
<polygon fill="#191970" stroke="#191970" points="276.5001,-253.8469 273,-243.8469 269.5001,-253.847 276.5001,-253.8469"/>
</g>
<!-- Node27 -->
<g id="node28" class="node">
<title>Node27</title>
<g id="a_node28"><a xlink:href="physical__constants_8hh.html" target="_top" xlink:title="physical_constants.hh">
<polygon fill="none" stroke="#000000" points="972,-56.5 972,-75.5 1086,-75.5 1086,-56.5 972,-56.5"/>
<text text-anchor="middle" x="1029" y="-63.5" font-family="Helvetica,sans-Serif" font-size="10.00" fill="#000000">physical_constants.hh</text>
</a>
</g>
</g>
<!-- Node0&#45;&gt;Node27 -->
<g id="edge40" class="edge">
<title>Node0&#45;&gt;Node27</title>
<path fill="none" stroke="#191970" d="M321.5034,-290.7912C506.9647,-272.3068 1163.7911,-202.2696 1223,-132 1228.7276,-125.2024 1228.5128,-118.9729 1223,-112 1207.234,-92.0586 1145.6962,-79.8572 1096.1001,-73.0787"/>
<polygon fill="#191970" stroke="#191970" points="1096.4097,-69.5893 1086.0384,-71.7542 1095.496,-76.5295 1096.4097,-69.5893"/>
</g>
<!-- Node28 -->
<g id="node29" class="node">
<title>Node28</title>
<g id="a_node29"><a xlink:href="plain__wave__profile_8hh.html" target="_top" xlink:title="plain_wave_profile.hh">
<polygon fill="none" stroke="#000000" points="0,-224.5 0,-243.5 110,-243.5 110,-224.5 0,-224.5"/>
<text text-anchor="middle" x="55" y="-231.5" font-family="Helvetica,sans-Serif" font-size="10.00" fill="#000000">plain_wave_profile.hh</text>
</a>
</g>
</g>
<!-- Node0&#45;&gt;Node28 -->
<g id="edge42" class="edge">
<title>Node0&#45;&gt;Node28</title>
<path fill="none" stroke="#191970" d="M224.3479,-281.7747C186.7252,-271.161 135.0957,-256.5958 98.764,-246.3463"/>
<polygon fill="#191970" stroke="#191970" points="99.5212,-242.9233 88.9466,-243.5767 97.6206,-249.6604 99.5212,-242.9233"/>
</g>
<!-- Node3&#45;&gt;Node1 -->
<g id="edge4" class="edge">
<title>Node3&#45;&gt;Node1</title>
<path fill="none" stroke="#191970" d="M399.9825,-224.4509C428.4251,-205.0268 493.2292,-160.7703 527.6118,-137.2895"/>
<polygon fill="#191970" stroke="#191970" points="529.7687,-140.0549 536.0528,-131.5249 525.8209,-134.2742 529.7687,-140.0549"/>
</g>
<!-- Node3&#45;&gt;Node2 -->
<g id="edge5" class="edge">
<title>Node3&#45;&gt;Node2</title>
<path fill="none" stroke="#191970" d="M358.6923,-224.4635C334.3311,-215.7163 297.8506,-202.0246 267,-188 249.6258,-180.1017 246.6515,-175.2576 229,-168 190.7435,-152.2704 145.1072,-139.0983 114.0925,-130.9359"/>
<polygon fill="#191970" stroke="#191970" points="114.725,-127.4842 104.1667,-128.3633 112.9688,-134.2603 114.725,-127.4842"/>
</g>
<!-- Node4 -->
<g id="node5" class="node">
<title>Node4</title>
<g id="a_node5"><a xlink:href="grid_8hh.html" target="_top" xlink:title="grid.hh">
<polygon fill="none" stroke="#000000" points="276,-168.5 276,-187.5 322,-187.5 322,-168.5 276,-168.5"/>
<text text-anchor="middle" x="299" y="-175.5" font-family="Helvetica,sans-Serif" font-size="10.00" fill="#000000">grid.hh</text>
</a>
</g>
</g>
<!-- Node3&#45;&gt;Node4 -->
<g id="edge6" class="edge">
<title>Node3&#45;&gt;Node4</title>
<path fill="none" stroke="#191970" d="M370.8458,-224.2455C357.4973,-215.6534 337.8414,-203.0014 322.4617,-193.1018"/>
<polygon fill="#191970" stroke="#191970" points="324.2836,-190.1121 313.9806,-187.6427 320.4949,-195.9982 324.2836,-190.1121"/>
</g>
<!-- Node11 -->
<g id="node12" class="node">
<title>Node11</title>
<g id="a_node12"><a xlink:href="output__flags_8hh.html" target="_top" xlink:title="output_flags.hh">
<polygon fill="none" stroke="#000000" points="360.5,-168.5 360.5,-187.5 443.5,-187.5 443.5,-168.5 360.5,-168.5"/>
<text text-anchor="middle" x="402" y="-175.5" font-family="Helvetica,sans-Serif" font-size="10.00" fill="#000000">output_flags.hh</text>
</a>
</g>
</g>
<!-- Node3&#45;&gt;Node11 -->
<g id="edge16" class="edge">
<title>Node3&#45;&gt;Node11</title>
<path fill="none" stroke="#191970" d="M388.787,-224.2455C390.8977,-216.8579 393.866,-206.4689 396.4547,-197.4087"/>
<polygon fill="#191970" stroke="#191970" points="399.863,-198.2195 399.245,-187.6427 393.1323,-196.2964 399.863,-198.2195"/>
</g>
<!-- Node15 -->
<g id="node16" class="node">
<title>Node15</title>
<g id="a_node16"><a xlink:href="parallel__mt_8hh.html" target="_top" xlink:title="parallel_mt.hh">
<polygon fill="none" stroke="#000000" points="771.5,-168.5 771.5,-187.5 848.5,-187.5 848.5,-168.5 771.5,-168.5"/>
<text text-anchor="middle" x="810" y="-175.5" font-family="Helvetica,sans-Serif" font-size="10.00" fill="#000000">parallel_mt.hh</text>
</a>
</g>
</g>
<!-- Node3&#45;&gt;Node15 -->
<g id="edge22" class="edge">
<title>Node3&#45;&gt;Node15</title>
<path fill="none" stroke="#191970" d="M428.5961,-228.3741C507.9229,-217.897 677.8048,-195.4597 761.4424,-184.4133"/>
<polygon fill="#191970" stroke="#191970" points="761.9892,-187.8715 771.4448,-183.0922 761.0726,-180.9318 761.9892,-187.8715"/>
</g>
<!-- Node3&#45;&gt;Node25 -->
<g id="edge35" class="edge">
<title>Node3&#45;&gt;Node25</title>
<path fill="none" stroke="#191970" d="M352.8221,-224.3733C318.6856,-214.4684 265.6215,-199.0715 230.1116,-188.7681"/>
<polygon fill="#191970" stroke="#191970" points="230.7233,-185.3013 220.1441,-185.876 228.7726,-192.024 230.7233,-185.3013"/>
</g>
<!-- Node4&#45;&gt;Node1 -->
<g id="edge8" class="edge">
<title>Node4&#45;&gt;Node1</title>
<path fill="none" stroke="#191970" d="M322.0398,-173.3509C366.8087,-164.2812 464.9043,-144.2243 515.2063,-132.0192"/>
<polygon fill="#191970" stroke="#191970" points="516.3179,-135.3495 525.1784,-129.5407 514.6294,-128.5562 516.3179,-135.3495"/>
</g>
<!-- Node5 -->
<g id="node6" class="node">
<title>Node5</title>
<polygon fill="none" stroke="#bfbfbf" points="225,-.5 225,-19.5 269,-19.5 269,-.5 225,-.5"/>
<text text-anchor="middle" x="247" y="-7.5" font-family="Helvetica,sans-Serif" font-size="10.00" fill="#000000">cmath</text>
</g>
<!-- Node4&#45;&gt;Node5 -->
<g id="edge7" class="edge">
<title>Node4&#45;&gt;Node5</title>
<path fill="none" stroke="#191970" d="M275.8748,-171.0092C257.5146,-164.1708 232.8629,-151.8434 220,-132 201.5698,-103.568 203.6266,-88.2559 214,-56 217.3946,-45.4445 224.2058,-35.2592 230.7631,-27.1676"/>
<polygon fill="#191970" stroke="#191970" points="233.447,-29.4149 237.3508,-19.5654 228.1569,-24.8307 233.447,-29.4149"/>
</g>
<!-- Node6 -->
<g id="node7" class="node">
<title>Node6</title>
<g id="a_node7"><a xlink:href="blitz_8hh.html" target="_top" xlink:title="blitz.hh">
<polygon fill="none" stroke="#000000" points="223,-56.5 223,-75.5 271,-75.5 271,-56.5 223,-56.5"/>
<text text-anchor="middle" x="247" y="-63.5" font-family="Helvetica,sans-Serif" font-size="10.00" fill="#000000">blitz.hh</text>
</a>
</g>
</g>
<!-- Node4&#45;&gt;Node6 -->
<g id="edge9" class="edge">
<title>Node4&#45;&gt;Node6</title>
<path fill="none" stroke="#191970" d="M275.9577,-170.1944C259.0595,-163.1158 237.3331,-150.8636 227,-132 218.7746,-116.9841 225.979,-98.15 233.9419,-84.4487"/>
<polygon fill="#191970" stroke="#191970" points="236.9716,-86.2071 239.3954,-75.8932 231.0688,-82.4444 236.9716,-86.2071"/>
</g>
<!-- Node9 -->
<g id="node10" class="node">
<title>Node9</title>
<g id="a_node10"><a xlink:href="validators_8hh.html" target="_top" xlink:title="validators.hh">
<polygon fill="none" stroke="#000000" points="236,-112.5 236,-131.5 308,-131.5 308,-112.5 236,-112.5"/>
<text text-anchor="middle" x="272" y="-119.5" font-family="Helvetica,sans-Serif" font-size="10.00" fill="#000000">validators.hh</text>
</a>
</g>
</g>
<!-- Node4&#45;&gt;Node9 -->
<g id="edge13" class="edge">
<title>Node4&#45;&gt;Node9</title>
<path fill="none" stroke="#191970" d="M294.297,-168.2455C290.6576,-160.6973 285.5076,-150.0158 281.0738,-140.8197"/>
<polygon fill="#191970" stroke="#191970" points="284.1449,-139.1303 276.6491,-131.6427 277.8395,-142.1704 284.1449,-139.1303"/>
</g>
<!-- Node6&#45;&gt;Node5 -->
<g id="edge12" class="edge">
<title>Node6&#45;&gt;Node5</title>
<path fill="none" stroke="#191970" d="M247,-56.2455C247,-48.9382 247,-38.6944 247,-29.7046"/>
<polygon fill="#191970" stroke="#191970" points="250.5001,-29.6426 247,-19.6427 243.5001,-29.6427 250.5001,-29.6426"/>
</g>
<!-- Node7 -->
<g id="node8" class="node">
<title>Node7</title>
<polygon fill="none" stroke="#bfbfbf" points="431,-.5 431,-19.5 487,-19.5 487,-.5 431,-.5"/>
<text text-anchor="middle" x="459" y="-7.5" font-family="Helvetica,sans-Serif" font-size="10.00" fill="#000000">algorithm</text>
</g>
<!-- Node6&#45;&gt;Node7 -->
<g id="edge10" class="edge">
<title>Node6&#45;&gt;Node7</title>
<path fill="none" stroke="#191970" d="M271.3191,-59.5761C307.9698,-49.8948 377.6772,-31.4815 421.0506,-20.0244"/>
<polygon fill="#191970" stroke="#191970" points="422.1693,-23.349 430.9438,-17.4111 420.3815,-16.5811 422.1693,-23.349"/>
</g>
<!-- Node8 -->
<g id="node9" class="node">
<title>Node8</title>
<polygon fill="none" stroke="#bfbfbf" points="131.5,-.5 131.5,-19.5 198.5,-19.5 198.5,-.5 131.5,-.5"/>
<text text-anchor="middle" x="165" y="-7.5" font-family="Helvetica,sans-Serif" font-size="10.00" fill="#000000">blitz/array.h</text>
</g>
<!-- Node6&#45;&gt;Node8 -->
<g id="edge11" class="edge">
<title>Node6&#45;&gt;Node8</title>
<path fill="none" stroke="#191970" d="M232.7167,-56.2455C220.253,-47.7337 201.9549,-35.2375 187.5208,-25.3801"/>
<polygon fill="#191970" stroke="#191970" points="189.3515,-22.392 179.1196,-19.6427 185.4038,-28.1726 189.3515,-22.392"/>
</g>
<!-- Node9&#45;&gt;Node6 -->
<g id="edge15" class="edge">
<title>Node9&#45;&gt;Node6</title>
<path fill="none" stroke="#191970" d="M267.6453,-112.2455C264.2756,-104.6973 259.507,-94.0158 255.4017,-84.8197"/>
<polygon fill="#191970" stroke="#191970" points="258.5773,-83.3473 251.3048,-75.6427 252.1853,-86.2009 258.5773,-83.3473"/>
</g>
<!-- Node10 -->
<g id="node11" class="node">
<title>Node10</title>
<polygon fill="none" stroke="#bfbfbf" points="680.5,-56.5 680.5,-75.5 739.5,-75.5 739.5,-56.5 680.5,-56.5"/>
<text text-anchor="middle" x="710" y="-63.5" font-family="Helvetica,sans-Serif" font-size="10.00" fill="#000000">stdexcept</text>
</g>
<!-- Node9&#45;&gt;Node10 -->
<g id="edge14" class="edge">
<title>Node9&#45;&gt;Node10</title>
<path fill="none" stroke="#191970" d="M308.2867,-113.6024C311.2276,-113.0238 314.1593,-112.4806 317,-112 445.2062,-90.31 598.675,-75.5467 669.9591,-69.3249"/>
<polygon fill="#191970" stroke="#191970" points="670.611,-72.7817 680.2729,-68.4344 670.0089,-65.8076 670.611,-72.7817"/>
</g>
<!-- Node11&#45;&gt;Node1 -->
<g id="edge18" class="edge">
<title>Node11&#45;&gt;Node1</title>
<path fill="none" stroke="#191970" d="M427.4421,-168.3733C451.8799,-159.1265 488.9672,-145.0935 515.9429,-134.8865"/>
<polygon fill="#191970" stroke="#191970" points="517.2675,-138.1275 525.3817,-131.315 514.7902,-131.5805 517.2675,-138.1275"/>
</g>
<!-- Node11&#45;&gt;Node2 -->
<g id="edge19" class="edge">
<title>Node11&#45;&gt;Node2</title>
<path fill="none" stroke="#191970" d="M360.306,-170.7936C296.1643,-159.7074 174.3783,-138.658 113.9143,-128.2074"/>
<polygon fill="#191970" stroke="#191970" points="114.5093,-124.7584 104.0593,-126.5041 113.3171,-131.6562 114.5093,-124.7584"/>
</g>
<!-- Node12 -->
<g id="node13" class="node">
<title>Node12</title>
<polygon fill="none" stroke="#bfbfbf" points="466.5,-112.5 466.5,-131.5 507.5,-131.5 507.5,-112.5 466.5,-112.5"/>
<text text-anchor="middle" x="487" y="-119.5" font-family="Helvetica,sans-Serif" font-size="10.00" fill="#000000">bitset</text>
</g>
<!-- Node11&#45;&gt;Node12 -->
<g id="edge17" class="edge">
<title>Node11&#45;&gt;Node12</title>
<path fill="none" stroke="#191970" d="M416.8059,-168.2455C429.7256,-159.7337 448.6931,-147.2375 463.6552,-137.3801"/>
<polygon fill="#191970" stroke="#191970" points="465.9387,-140.067 472.3638,-131.6427 462.0876,-134.2216 465.9387,-140.067"/>
</g>
<!-- Node13 -->
<g id="node14" class="node">
<title>Node13</title>
<polygon fill="none" stroke="#bfbfbf" points="326.5,-112.5 326.5,-131.5 367.5,-131.5 367.5,-112.5 326.5,-112.5"/>
<text text-anchor="middle" x="347" y="-119.5" font-family="Helvetica,sans-Serif" font-size="10.00" fill="#000000">string</text>
</g>
<!-- Node11&#45;&gt;Node13 -->
<g id="edge20" class="edge">
<title>Node11&#45;&gt;Node13</title>
<path fill="none" stroke="#191970" d="M392.4197,-168.2455C384.4542,-160.1352 372.9359,-148.4075 363.4921,-138.7919"/>
<polygon fill="#191970" stroke="#191970" points="365.9747,-136.3247 356.4705,-131.6427 360.9805,-141.2297 365.9747,-136.3247"/>
</g>
<!-- Node14 -->
<g id="node15" class="node">
<title>Node14</title>
<polygon fill="none" stroke="#bfbfbf" points="386,-112.5 386,-131.5 448,-131.5 448,-112.5 386,-112.5"/>
<text text-anchor="middle" x="417" y="-119.5" font-family="Helvetica,sans-Serif" font-size="10.00" fill="#000000">type_traits</text>
</g>
<!-- Node11&#45;&gt;Node14 -->
<g id="edge21" class="edge">
<title>Node11&#45;&gt;Node14</title>
<path fill="none" stroke="#191970" d="M404.6128,-168.2455C406.5916,-160.8579 409.3744,-150.4689 411.8012,-141.4087"/>
<polygon fill="#191970" stroke="#191970" points="415.2105,-142.2078 414.4171,-131.6427 408.4489,-140.3966 415.2105,-142.2078"/>
</g>
<!-- Node15&#45;&gt;Node1 -->
<g id="edge27" class="edge">
<title>Node15&#45;&gt;Node1</title>
<path fill="none" stroke="#191970" d="M771.1579,-170.4747C726.9283,-161.7759 652.5617,-146.7558 589,-132 587.5531,-131.6641 586.0777,-131.3151 584.5885,-130.9574"/>
<polygon fill="#191970" stroke="#191970" points="585.2633,-127.519 574.7158,-128.5191 583.5849,-134.3148 585.2633,-127.519"/>
</g>
<!-- Node15&#45;&gt;Node7 -->
<g id="edge24" class="edge">
<title>Node15&#45;&gt;Node7</title>
<path fill="none" stroke="#191970" d="M771.3906,-173.1871C732.2807,-167.2651 670.7654,-155.0318 622,-132 562.9469,-104.1093 504.2294,-52.9292 476.1231,-26.6047"/>
<polygon fill="#191970" stroke="#191970" points="478.3864,-23.9274 468.7237,-19.5819 473.5675,-29.0047 478.3864,-23.9274"/>
</g>
<!-- Node15&#45;&gt;Node10 -->
<g id="edge29" class="edge">
<title>Node15&#45;&gt;Node10</title>
<path fill="none" stroke="#191970" d="M801.4741,-168.4509C784.5738,-149.5227 746.6197,-107.014 725.2928,-83.1279"/>
<polygon fill="#191970" stroke="#191970" points="727.7753,-80.6532 718.5044,-75.5249 722.5538,-85.3154 727.7753,-80.6532"/>
</g>
<!-- Node16 -->
<g id="node17" class="node">
<title>Node16</title>
<polygon fill="none" stroke="#bfbfbf" points="787.5,-112.5 787.5,-131.5 832.5,-131.5 832.5,-112.5 787.5,-112.5"/>
<text text-anchor="middle" x="810" y="-119.5" font-family="Helvetica,sans-Serif" font-size="10.00" fill="#000000">cstdlib</text>
</g>
<!-- Node15&#45;&gt;Node16 -->
<g id="edge23" class="edge">
<title>Node15&#45;&gt;Node16</title>
<path fill="none" stroke="#191970" d="M810,-168.2455C810,-160.9382 810,-150.6944 810,-141.7046"/>
<polygon fill="#191970" stroke="#191970" points="813.5001,-141.6426 810,-131.6427 806.5001,-141.6427 813.5001,-141.6426"/>
</g>
<!-- Node17 -->
<g id="node18" class="node">
<title>Node17</title>
<polygon fill="none" stroke="#bfbfbf" points="851,-112.5 851,-131.5 897,-131.5 897,-112.5 851,-112.5"/>
<text text-anchor="middle" x="874" y="-119.5" font-family="Helvetica,sans-Serif" font-size="10.00" fill="#000000">cstdint</text>
</g>
<!-- Node15&#45;&gt;Node17 -->
<g id="edge25" class="edge">
<title>Node15&#45;&gt;Node17</title>
<path fill="none" stroke="#191970" d="M821.1479,-168.2455C830.5087,-160.0549 844.0858,-148.1749 855.1349,-138.5069"/>
<polygon fill="#191970" stroke="#191970" points="857.7588,-140.8618 862.9798,-131.6427 853.1492,-135.5937 857.7588,-140.8618"/>
</g>
<!-- Node18 -->
<g id="node19" class="node">
<title>Node18</title>
<polygon fill="none" stroke="#bfbfbf" points="915,-112.5 915,-131.5 961,-131.5 961,-112.5 915,-112.5"/>
<text text-anchor="middle" x="938" y="-119.5" font-family="Helvetica,sans-Serif" font-size="10.00" fill="#000000">cstring</text>
</g>
<!-- Node15&#45;&gt;Node18 -->
<g id="edge26" class="edge">
<title>Node15&#45;&gt;Node18</title>
<path fill="none" stroke="#191970" d="M832.004,-168.3733C852.6435,-159.3435 883.7158,-145.7494 906.8889,-135.6111"/>
<polygon fill="#191970" stroke="#191970" points="908.5245,-138.7159 916.2831,-131.5011 905.7187,-132.3028 908.5245,-138.7159"/>
</g>
<!-- Node19 -->
<g id="node20" class="node">
<title>Node19</title>
<polygon fill="none" stroke="#bfbfbf" points="979,-112.5 979,-131.5 1019,-131.5 1019,-112.5 979,-112.5"/>
<text text-anchor="middle" x="999" y="-119.5" font-family="Helvetica,sans-Serif" font-size="10.00" fill="#000000">limits</text>
</g>
<!-- Node15&#45;&gt;Node19 -->
<g id="edge28" class="edge">
<title>Node15&#45;&gt;Node19</title>
<path fill="none" stroke="#191970" d="M845.1149,-168.4715C875.605,-160.0723 921.1429,-147.2282 969.1356,-132.1694"/>
<polygon fill="#191970" stroke="#191970" points="970.2815,-135.4779 978.7632,-129.1287 968.1733,-128.8029 970.2815,-135.4779"/>
</g>
<!-- Node20 -->
<g id="node21" class="node">
<title>Node20</title>
<polygon fill="none" stroke="#bfbfbf" points="1037,-112.5 1037,-131.5 1081,-131.5 1081,-112.5 1037,-112.5"/>
<text text-anchor="middle" x="1059" y="-119.5" font-family="Helvetica,sans-Serif" font-size="10.00" fill="#000000">vector</text>
</g>
<!-- Node15&#45;&gt;Node20 -->
<g id="edge30" class="edge">
<title>Node15&#45;&gt;Node20</title>
<path fill="none" stroke="#191970" d="M848.8789,-171.0619C890.6527,-163.3286 959.1465,-149.8471 1026.7644,-132.1336"/>
<polygon fill="#191970" stroke="#191970" points="1027.963,-135.4368 1036.7312,-129.4897 1026.1681,-128.6709 1027.963,-135.4368"/>
</g>
<!-- Node21 -->
<g id="node22" class="node">
<title>Node21</title>
<polygon fill="none" stroke="#bfbfbf" points="1099,-112.5 1099,-131.5 1149,-131.5 1149,-112.5 1099,-112.5"/>
<text text-anchor="middle" x="1124" y="-119.5" font-family="Helvetica,sans-Serif" font-size="10.00" fill="#000000">fstream</text>
</g>
<!-- Node15&#45;&gt;Node21 -->
<g id="edge31" class="edge">
<title>Node15&#45;&gt;Node21</title>
<path fill="none" stroke="#191970" d="M848.7902,-173.1664C901.2,-166.2997 997.6636,-152.4776 1088.891,-132.0362"/>
<polygon fill="#191970" stroke="#191970" points="1089.8642,-135.4044 1098.84,-129.7754 1088.313,-128.5784 1089.8642,-135.4044"/>
</g>
<!-- Node22 -->
<g id="node23" class="node">
<title>Node22</title>
<polygon fill="none" stroke="#bfbfbf" points="1167.5,-112.5 1167.5,-131.5 1214.5,-131.5 1214.5,-112.5 1167.5,-112.5"/>
<text text-anchor="middle" x="1191" y="-119.5" font-family="Helvetica,sans-Serif" font-size="10.00" fill="#000000">iterator</text>
</g>
<!-- Node15&#45;&gt;Node22 -->
<g id="edge32" class="edge">
<title>Node15&#45;&gt;Node22</title>
<path fill="none" stroke="#191970" d="M848.7162,-174.9557C911.5761,-169.5645 1039.7954,-156.7041 1157.4335,-131.8057"/>
<polygon fill="#191970" stroke="#191970" points="1158.2878,-135.2021 1167.328,-129.6772 1156.8156,-128.3586 1158.2878,-135.2021"/>
</g>
<!-- Node23 -->
<g id="node24" class="node">
<title>Node23</title>
<polygon fill="none" stroke="#bfbfbf" points="631,-112.5 631,-131.5 677,-131.5 677,-112.5 631,-112.5"/>
<text text-anchor="middle" x="654" y="-119.5" font-family="Helvetica,sans-Serif" font-size="10.00" fill="#000000">chrono</text>
</g>
<!-- Node15&#45;&gt;Node23 -->
<g id="edge33" class="edge">
<title>Node15&#45;&gt;Node23</title>
<path fill="none" stroke="#191970" d="M783.1826,-168.3733C756.5317,-158.8062 715.6077,-144.1156 686.9827,-133.8399"/>
<polygon fill="#191970" stroke="#191970" points="688.0086,-130.4896 677.4141,-130.4051 685.6435,-137.078 688.0086,-130.4896"/>
</g>
<!-- Node24 -->
<g id="node25" class="node">
<title>Node24</title>
<polygon fill="none" stroke="#bfbfbf" points="695.5,-112.5 695.5,-131.5 730.5,-131.5 730.5,-112.5 695.5,-112.5"/>
<text text-anchor="middle" x="713" y="-119.5" font-family="Helvetica,sans-Serif" font-size="10.00" fill="#000000">dc.h</text>
</g>
<!-- Node15&#45;&gt;Node24 -->
<g id="edge34" class="edge">
<title>Node15&#45;&gt;Node24</title>
<path fill="none" stroke="#191970" d="M793.1039,-168.2455C778.082,-159.5731 755.8957,-146.7645 738.679,-136.825"/>
<polygon fill="#191970" stroke="#191970" points="740.1128,-133.6114 729.7025,-131.6427 736.6129,-139.6737 740.1128,-133.6114"/>
</g>
<!-- Node25&#45;&gt;Node8 -->
<g id="edge36" class="edge">
<title>Node25&#45;&gt;Node8</title>
<path fill="none" stroke="#191970" d="M181.8498,-168.3293C172.9329,-159.8007 161.1079,-146.5 156,-132 143.8226,-97.4315 152.1526,-54.0298 158.8754,-29.4124"/>
<polygon fill="#191970" stroke="#191970" points="162.32,-30.1033 161.7717,-19.5227 155.6021,-28.1359 162.32,-30.1033"/>
</g>
<!-- Node26&#45;&gt;Node4 -->
<g id="edge38" class="edge">
<title>Node26&#45;&gt;Node4</title>
<path fill="none" stroke="#191970" d="M277.5289,-224.2455C281.0334,-216.6973 285.9927,-206.0158 290.2623,-196.8197"/>
<polygon fill="#191970" stroke="#191970" points="293.4864,-198.1867 294.523,-187.6427 287.1373,-195.2389 293.4864,-198.1867"/>
</g>
<!-- Node26&#45;&gt;Node25 -->
<g id="edge39" class="edge">
<title>Node26&#45;&gt;Node25</title>
<path fill="none" stroke="#191970" d="M259.0651,-224.2455C246.9053,-215.7337 229.0536,-203.2375 214.9715,-193.3801"/>
<polygon fill="#191970" stroke="#191970" points="216.9747,-190.51 206.7752,-187.6427 212.9605,-196.2447 216.9747,-190.51"/>
</g>
<!-- Node27&#45;&gt;Node5 -->
<g id="edge41" class="edge">
<title>Node27&#45;&gt;Node5</title>
<path fill="none" stroke="#191970" d="M971.8145,-61.9049C818.0133,-50.891 399.0695,-20.8899 279.348,-12.3165"/>
<polygon fill="#191970" stroke="#191970" points="279.5657,-8.8232 269.3412,-11.5999 279.0656,-15.8053 279.5657,-8.8232"/>
</g>
<!-- Node28&#45;&gt;Node2 -->
<g id="edge44" class="edge">
<title>Node28&#45;&gt;Node2</title>
<path fill="none" stroke="#191970" d="M56.961,-224.4509C60.7292,-206.1013 69.0483,-165.5908 74.0224,-141.3693"/>
<polygon fill="#191970" stroke="#191970" points="77.4608,-142.0246 76.044,-131.5249 70.6039,-140.6164 77.4608,-142.0246"/>
</g>
<!-- Node29 -->
<g id="node30" class="node">
<title>Node29</title>
<polygon fill="none" stroke="#bfbfbf" points="4.5,-168.5 4.5,-187.5 49.5,-187.5 49.5,-168.5 4.5,-168.5"/>
<text text-anchor="middle" x="27" y="-175.5" font-family="Helvetica,sans-Serif" font-size="10.00" fill="#000000">iosfwd</text>
</g>
<!-- Node28&#45;&gt;Node29 -->
<g id="edge43" class="edge">
<title>Node28&#45;&gt;Node29</title>
<path fill="none" stroke="#191970" d="M50.1228,-224.2455C46.3487,-216.6973 41.0079,-206.0158 36.4099,-196.8197"/>
<polygon fill="#191970" stroke="#191970" points="39.424,-195.0217 31.8213,-187.6427 33.163,-198.1522 39.424,-195.0217"/>
</g>
</g>
</svg>
