<?xml version="1.0" encoding="UTF-8" standalone="no"?>
<!DOCTYPE svg PUBLIC "-//W3C//DTD SVG 1.1//EN"
 "http://www.w3.org/Graphics/SVG/1.1/DTD/svg11.dtd">
<!-- Generated by graphviz version 2.36.0 (20140111.2315)
 -->
<!-- Title: /home/travis/build/igankevich/arma/src/velocity/plain_wave_solver.cc Pages: 1 -->
<svg width="1524pt" height="466pt"
 viewBox="0.00 0.00 1523.99 466.00" xmlns="http://www.w3.org/2000/svg" xmlns:xlink="http://www.w3.org/1999/xlink">
<g id="graph0" class="graph" transform="scale(1 1) rotate(0) translate(4 462)">
<title>/home/travis/build/igankevich/arma/src/velocity/plain_wave_solver.cc</title>
<!-- Node1 -->
<g id="node1" class="node"><title>Node1</title>
<polygon fill="#bfbfbf" stroke="black" points="813.5,-405 813.5,-457 920.5,-457 920.5,-405 813.5,-405"/>
<text text-anchor="start" x="821.5" y="-445" font-family="Helvetica,sans-Serif" font-size="10.00">/home/travis/build</text>
<text text-anchor="start" x="821.5" y="-434" font-family="Helvetica,sans-Serif" font-size="10.00">/igankevich/arma/src</text>
<text text-anchor="start" x="821.5" y="-423" font-family="Helvetica,sans-Serif" font-size="10.00">/velocity/plain_wave</text>
<text text-anchor="middle" x="867" y="-412" font-family="Helvetica,sans-Serif" font-size="10.00">_solver.cc</text>
</g>
<!-- Node2 -->
<g id="node2" class="node"><title>Node2</title>
<g id="a_node2"><a xlink:href="plain__wave__solver_8hh.html" target="_top" xlink:title="plain_wave_solver.hh">
<polygon fill="none" stroke="black" points="319,-348.5 319,-367.5 429,-367.5 429,-348.5 319,-348.5"/>
<text text-anchor="middle" x="374" y="-355.5" font-family="Helvetica,sans-Serif" font-size="10.00">plain_wave_solver.hh</text>
</a>
</g>
</g>
<!-- Node1&#45;&gt;Node2 -->
<g id="edge1" class="edge"><title>Node1&#45;&gt;Node2</title>
<path fill="none" stroke="midnightblue" d="M813.302,-422.267C722.192,-409.145 537.657,-382.569 439.253,-368.397"/>
<polygon fill="midnightblue" stroke="midnightblue" points="439.534,-364.902 429.137,-366.941 438.536,-371.83 439.534,-364.902"/>
</g>
<!-- Node11 -->
<g id="node11" class="node"><title>Node11</title>
<g id="a_node11"><a xlink:href="validators_8hh.html" target="_top" xlink:title="validators.hh">
<polygon fill="none" stroke="black" points="211,-112.5 211,-131.5 283,-131.5 283,-112.5 211,-112.5"/>
<text text-anchor="middle" x="247" y="-119.5" font-family="Helvetica,sans-Serif" font-size="10.00">validators.hh</text>
</a>
</g>
</g>
<!-- Node1&#45;&gt;Node11 -->
<g id="edge57" class="edge"><title>Node1&#45;&gt;Node11</title>
<path fill="none" stroke="midnightblue" d="M813.478,-429.113C713.135,-426.343 490.57,-414.934 310,-368 231.15,-347.505 141,-378.47 141,-297 141,-297 141,-297 141,-233 141,-187.815 187.95,-154.052 219.357,-136.521"/>
<polygon fill="midnightblue" stroke="midnightblue" points="221.372,-139.412 228.536,-131.607 218.068,-133.241 221.372,-139.412"/>
</g>
<!-- Node35 -->
<g id="node35" class="node"><title>Node35</title>
<g id="a_node35"><a xlink:href="physical__constants_8hh.html" target="_top" xlink:title="physical_constants.hh">
<polygon fill="none" stroke="black" points="1247,-224.5 1247,-243.5 1361,-243.5 1361,-224.5 1247,-224.5"/>
<text text-anchor="middle" x="1304" y="-231.5" font-family="Helvetica,sans-Serif" font-size="10.00">physical_constants.hh</text>
</a>
</g>
</g>
<!-- Node1&#45;&gt;Node35 -->
<g id="edge56" class="edge"><title>Node1&#45;&gt;Node35</title>
<path fill="none" stroke="midnightblue" d="M920.523,-429.696C1063.47,-427.524 1447.51,-412.299 1509,-312 1542.43,-257.474 1443.4,-241.359 1371.56,-236.719"/>
<polygon fill="midnightblue" stroke="midnightblue" points="1371.36,-233.201 1361.18,-236.114 1370.96,-240.19 1371.36,-233.201"/>
</g>
<!-- Node36 -->
<g id="node36" class="node"><title>Node36</title>
<g id="a_node36"><a xlink:href="params_8hh.html" target="_top" xlink:title="params.hh">
<polygon fill="none" stroke="black" points="1329,-348.5 1329,-367.5 1391,-367.5 1391,-348.5 1329,-348.5"/>
<text text-anchor="middle" x="1360" y="-355.5" font-family="Helvetica,sans-Serif" font-size="10.00">params.hh</text>
</a>
</g>
</g>
<!-- Node1&#45;&gt;Node36 -->
<g id="edge58" class="edge"><title>Node1&#45;&gt;Node36</title>
<path fill="none" stroke="midnightblue" d="M920.698,-422.267C1019.96,-407.971 1230.12,-377.705 1318.97,-364.909"/>
<polygon fill="midnightblue" stroke="midnightblue" points="1319.54,-368.363 1328.94,-363.474 1318.54,-361.435 1319.54,-368.363"/>
</g>
<!-- Node3 -->
<g id="node3" class="node"><title>Node3</title>
<g id="a_node3"><a xlink:href="basic__solver_8hh.html" target="_top" xlink:title="basic_solver.hh">
<polygon fill="none" stroke="black" points="252.5,-286.5 252.5,-305.5 337.5,-305.5 337.5,-286.5 252.5,-286.5"/>
<text text-anchor="middle" x="295" y="-293.5" font-family="Helvetica,sans-Serif" font-size="10.00">basic_solver.hh</text>
</a>
</g>
</g>
<!-- Node2&#45;&gt;Node3 -->
<g id="edge2" class="edge"><title>Node2&#45;&gt;Node3</title>
<path fill="none" stroke="midnightblue" d="M362.681,-348.403C350.127,-338.869 329.649,-323.315 314.501,-311.811"/>
<polygon fill="midnightblue" stroke="midnightblue" points="316.378,-308.842 306.298,-305.581 312.144,-314.416 316.378,-308.842"/>
</g>
<!-- Node4 -->
<g id="node4" class="node"><title>Node4</title>
<g id="a_node4"><a xlink:href="types_8hh.html" target="_top" xlink:title="types.hh">
<polygon fill="none" stroke="black" points="271,-168.5 271,-187.5 325,-187.5 325,-168.5 271,-168.5"/>
<text text-anchor="middle" x="298" y="-175.5" font-family="Helvetica,sans-Serif" font-size="10.00">types.hh</text>
</a>
</g>
</g>
<!-- Node2&#45;&gt;Node4 -->
<g id="edge55" class="edge"><title>Node2&#45;&gt;Node4</title>
<path fill="none" stroke="midnightblue" d="M318.914,-352.74C291.349,-347.495 260.255,-336.172 243,-312 216.03,-274.218 257.17,-221.229 281.769,-195.002"/>
<polygon fill="midnightblue" stroke="midnightblue" points="284.333,-197.386 288.778,-187.769 279.305,-192.515 284.333,-197.386"/>
</g>
<!-- Node19 -->
<g id="node19" class="node"><title>Node19</title>
<g id="a_node19"><a xlink:href="plain__wave__model_8hh.html" target="_top" xlink:title="generator/plain_wave\l_model.hh">
<polygon fill="none" stroke="black" points="398.5,-281 398.5,-311 507.5,-311 507.5,-281 398.5,-281"/>
<text text-anchor="start" x="406.5" y="-299" font-family="Helvetica,sans-Serif" font-size="10.00">generator/plain_wave</text>
<text text-anchor="middle" x="453" y="-288" font-family="Helvetica,sans-Serif" font-size="10.00">_model.hh</text>
</a>
</g>
</g>
<!-- Node2&#45;&gt;Node19 -->
<g id="edge24" class="edge"><title>Node2&#45;&gt;Node19</title>
<path fill="none" stroke="midnightblue" d="M385.319,-348.403C395.918,-340.353 412.167,-328.013 426.086,-317.441"/>
<polygon fill="midnightblue" stroke="midnightblue" points="428.535,-319.976 434.381,-311.141 424.301,-314.402 428.535,-319.976"/>
</g>
<!-- Node3&#45;&gt;Node4 -->
<g id="edge3" class="edge"><title>Node3&#45;&gt;Node4</title>
<path fill="none" stroke="midnightblue" d="M289.328,-286.321C281.334,-273.007 268.326,-246.696 274,-224 276.439,-214.245 281.437,-204.29 286.243,-196.231"/>
<polygon fill="midnightblue" stroke="midnightblue" points="289.213,-198.083 291.633,-187.768 283.309,-194.322 289.213,-198.083"/>
</g>
<!-- Node6 -->
<g id="node6" class="node"><title>Node6</title>
<g id="a_node6"><a xlink:href="domain_8hh.html" target="_top" xlink:title="domain.hh">
<polygon fill="none" stroke="black" points="186,-168.5 186,-187.5 248,-187.5 248,-168.5 186,-168.5"/>
<text text-anchor="middle" x="217" y="-175.5" font-family="Helvetica,sans-Serif" font-size="10.00">domain.hh</text>
</a>
</g>
</g>
<!-- Node3&#45;&gt;Node6 -->
<g id="edge5" class="edge"><title>Node3&#45;&gt;Node6</title>
<path fill="none" stroke="midnightblue" d="M289.137,-286.281C276.257,-267.126 245.297,-221.083 228.427,-195.994"/>
<polygon fill="midnightblue" stroke="midnightblue" points="231.203,-193.85 222.719,-187.505 225.394,-197.756 231.203,-193.85"/>
</g>
<!-- Node16 -->
<g id="node16" class="node"><title>Node16</title>
<g id="a_node16"><a xlink:href="discrete__function_8hh.html" target="_top" xlink:title="discrete_function.hh">
<polygon fill="none" stroke="black" points="283,-224.5 283,-243.5 387,-243.5 387,-224.5 283,-224.5"/>
<text text-anchor="middle" x="335" y="-231.5" font-family="Helvetica,sans-Serif" font-size="10.00">discrete_function.hh</text>
</a>
</g>
</g>
<!-- Node3&#45;&gt;Node16 -->
<g id="edge17" class="edge"><title>Node3&#45;&gt;Node16</title>
<path fill="none" stroke="midnightblue" d="M300.731,-286.403C306.672,-277.493 316.117,-263.325 323.588,-252.118"/>
<polygon fill="midnightblue" stroke="midnightblue" points="326.645,-253.843 329.28,-243.581 320.82,-249.96 326.645,-253.843"/>
</g>
<!-- Node5 -->
<g id="node5" class="node"><title>Node5</title>
<polygon fill="none" stroke="#bfbfbf" points="248,-0.5 248,-19.5 316,-19.5 316,-0.5 248,-0.5"/>
<text text-anchor="middle" x="282" y="-7.5" font-family="Helvetica,sans-Serif" font-size="10.00">blitz/array.h</text>
</g>
<!-- Node4&#45;&gt;Node5 -->
<g id="edge4" class="edge"><title>Node4&#45;&gt;Node5</title>
<path fill="none" stroke="midnightblue" d="M271.91,-168.343C246.317,-159.261 209.998,-144.583 202,-132 177.303,-93.1472 228.675,-48.0803 260.067,-25.4876"/>
<polygon fill="midnightblue" stroke="midnightblue" points="262.113,-28.3276 268.312,-19.7351 258.108,-22.5869 262.113,-28.3276"/>
</g>
<!-- Node6&#45;&gt;Node5 -->
<g id="edge10" class="edge"><title>Node6&#45;&gt;Node5</title>
<path fill="none" stroke="midnightblue" d="M210.371,-168.275C204.235,-159.607 195.542,-145.669 192,-132 183.404,-98.8273 184.673,-83.5883 205,-56 215.648,-41.5481 232.445,-30.9566 247.636,-23.693"/>
<polygon fill="midnightblue" stroke="midnightblue" points="249.113,-26.8669 256.819,-19.5957 246.26,-20.4745 249.113,-26.8669"/>
</g>
<!-- Node7 -->
<g id="node7" class="node"><title>Node7</title>
<polygon fill="none" stroke="#bfbfbf" points="-0.5,-112.5 -0.5,-131.5 48.5,-131.5 48.5,-112.5 -0.5,-112.5"/>
<text text-anchor="middle" x="24" y="-119.5" font-family="Helvetica,sans-Serif" font-size="10.00">cstddef</text>
</g>
<!-- Node6&#45;&gt;Node7 -->
<g id="edge6" class="edge"><title>Node6&#45;&gt;Node7</title>
<path fill="none" stroke="midnightblue" d="M186.419,-168.444C151.539,-158.685 94.6525,-142.768 58.2953,-132.596"/>
<polygon fill="midnightblue" stroke="midnightblue" points="59.1937,-129.213 48.6204,-129.889 57.3075,-135.954 59.1937,-129.213"/>
</g>
<!-- Node8 -->
<g id="node8" class="node"><title>Node8</title>
<polygon fill="none" stroke="#bfbfbf" points="479.5,-112.5 479.5,-131.5 528.5,-131.5 528.5,-112.5 479.5,-112.5"/>
<text text-anchor="middle" x="504" y="-119.5" font-family="Helvetica,sans-Serif" font-size="10.00">istream</text>
</g>
<!-- Node6&#45;&gt;Node8 -->
<g id="edge7" class="edge"><title>Node6&#45;&gt;Node8</title>
<path fill="none" stroke="midnightblue" d="M248.451,-170.601C252.994,-169.709 257.614,-168.818 262,-168 351.166,-151.37 376.666,-151.962 469.383,-131.972"/>
<polygon fill="midnightblue" stroke="midnightblue" points="470.153,-135.387 479.178,-129.838 468.663,-128.547 470.153,-135.387"/>
</g>
<!-- Node9 -->
<g id="node9" class="node"><title>Node9</title>
<polygon fill="none" stroke="#bfbfbf" points="409,-112.5 409,-131.5 461,-131.5 461,-112.5 409,-112.5"/>
<text text-anchor="middle" x="435" y="-119.5" font-family="Helvetica,sans-Serif" font-size="10.00">ostream</text>
</g>
<!-- Node6&#45;&gt;Node9 -->
<g id="edge8" class="edge"><title>Node6&#45;&gt;Node9</title>
<path fill="none" stroke="midnightblue" d="M248.234,-169.263C288.151,-159.376 357.1,-142.296 399.127,-131.886"/>
<polygon fill="midnightblue" stroke="midnightblue" points="400.078,-135.256 408.943,-129.455 398.394,-128.462 400.078,-135.256"/>
</g>
<!-- Node10 -->
<g id="node10" class="node"><title>Node10</title>
<polygon fill="none" stroke="#bfbfbf" points="67,-112.5 67,-131.5 117,-131.5 117,-112.5 67,-112.5"/>
<text text-anchor="middle" x="92" y="-119.5" font-family="Helvetica,sans-Serif" font-size="10.00">iomanip</text>
</g>
<!-- Node6&#45;&gt;Node10 -->
<g id="edge9" class="edge"><title>Node6&#45;&gt;Node10</title>
<path fill="none" stroke="midnightblue" d="M197.193,-168.444C176.713,-159.596 144.517,-145.687 121.135,-135.586"/>
<polygon fill="midnightblue" stroke="midnightblue" points="122.282,-132.269 111.714,-131.516 119.506,-138.695 122.282,-132.269"/>
</g>
<!-- Node6&#45;&gt;Node11 -->
<g id="edge11" class="edge"><title>Node6&#45;&gt;Node11</title>
<path fill="none" stroke="midnightblue" d="M221.954,-168.083C226.104,-160.613 232.153,-149.724 237.267,-140.52"/>
<polygon fill="midnightblue" stroke="midnightblue" points="240.341,-142.192 242.138,-131.751 234.222,-138.793 240.341,-142.192"/>
</g>
<!-- Node12 -->
<g id="node12" class="node"><title>Node12</title>
<polygon fill="none" stroke="#bfbfbf" points="978.5,-56.5 978.5,-75.5 1037.5,-75.5 1037.5,-56.5 978.5,-56.5"/>
<text text-anchor="middle" x="1008" y="-63.5" font-family="Helvetica,sans-Serif" font-size="10.00">stdexcept</text>
</g>
<!-- Node11&#45;&gt;Node12 -->
<g id="edge12" class="edge"><title>Node11&#45;&gt;Node12</title>
<path fill="none" stroke="midnightblue" d="M283.28,-113.308C286.222,-112.817 289.156,-112.372 292,-112 548.069,-78.5012 859.037,-69.7463 967.991,-67.6285"/>
<polygon fill="midnightblue" stroke="midnightblue" points="968.26,-71.1241 978.193,-67.4383 968.13,-64.1253 968.26,-71.1241"/>
</g>
<!-- Node13 -->
<g id="node13" class="node"><title>Node13</title>
<g id="a_node13"><a xlink:href="blitz_8hh.html" target="_top" xlink:title="blitz.hh">
<polygon fill="none" stroke="black" points="577,-56.5 577,-75.5 625,-75.5 625,-56.5 577,-56.5"/>
<text text-anchor="middle" x="601" y="-63.5" font-family="Helvetica,sans-Serif" font-size="10.00">blitz.hh</text>
</a>
</g>
</g>
<!-- Node11&#45;&gt;Node13 -->
<g id="edge13" class="edge"><title>Node11&#45;&gt;Node13</title>
<path fill="none" stroke="midnightblue" d="M283.319,-113.565C286.252,-113.017 289.174,-112.488 292,-112 391.369,-94.8398 509.473,-78.8589 566.623,-71.4034"/>
<polygon fill="midnightblue" stroke="midnightblue" points="567.426,-74.8286 576.892,-70.0701 566.524,-67.8869 567.426,-74.8286"/>
</g>
<!-- Node13&#45;&gt;Node5 -->
<g id="edge16" class="edge"><title>Node13&#45;&gt;Node5</title>
<path fill="none" stroke="midnightblue" d="M576.761,-60.8969C523.24,-51.8369 394.317,-30.013 326.078,-18.4615"/>
<polygon fill="midnightblue" stroke="midnightblue" points="326.511,-14.9851 316.067,-16.7668 325.343,-21.8869 326.511,-14.9851"/>
</g>
<!-- Node14 -->
<g id="node14" class="node"><title>Node14</title>
<polygon fill="none" stroke="#bfbfbf" points="1191,-0.5 1191,-19.5 1235,-19.5 1235,-0.5 1191,-0.5"/>
<text text-anchor="middle" x="1213" y="-7.5" font-family="Helvetica,sans-Serif" font-size="10.00">cmath</text>
</g>
<!-- Node13&#45;&gt;Node14 -->
<g id="edge14" class="edge"><title>Node13&#45;&gt;Node14</title>
<path fill="none" stroke="midnightblue" d="M625.369,-62.8498C721.218,-54.3925 1072.33,-23.4123 1180.83,-13.8382"/>
<polygon fill="midnightblue" stroke="midnightblue" points="1181.19,-17.3201 1190.85,-12.9546 1180.58,-10.3471 1181.19,-17.3201"/>
</g>
<!-- Node15 -->
<g id="node15" class="node"><title>Node15</title>
<polygon fill="none" stroke="#bfbfbf" points="754,-0.5 754,-19.5 810,-19.5 810,-0.5 754,-0.5"/>
<text text-anchor="middle" x="782" y="-7.5" font-family="Helvetica,sans-Serif" font-size="10.00">algorithm</text>
</g>
<!-- Node13&#45;&gt;Node15 -->
<g id="edge15" class="edge"><title>Node13&#45;&gt;Node15</title>
<path fill="none" stroke="midnightblue" d="M625.035,-57.8292C655.536,-48.7295 708.485,-32.9325 744.364,-22.2283"/>
<polygon fill="midnightblue" stroke="midnightblue" points="745.417,-25.5669 753.999,-19.354 743.415,-18.8591 745.417,-25.5669"/>
</g>
<!-- Node16&#45;&gt;Node4 -->
<g id="edge18" class="edge"><title>Node16&#45;&gt;Node4</title>
<path fill="none" stroke="midnightblue" d="M328.89,-224.083C323.718,-216.534 316.154,-205.495 309.806,-196.23"/>
<polygon fill="midnightblue" stroke="midnightblue" points="312.536,-194.022 303.996,-187.751 306.761,-197.979 312.536,-194.022"/>
</g>
<!-- Node17 -->
<g id="node17" class="node"><title>Node17</title>
<g id="a_node17"><a xlink:href="grid_8hh.html" target="_top" xlink:title="grid.hh">
<polygon fill="none" stroke="black" points="353,-168.5 353,-187.5 399,-187.5 399,-168.5 353,-168.5"/>
<text text-anchor="middle" x="376" y="-175.5" font-family="Helvetica,sans-Serif" font-size="10.00">grid.hh</text>
</a>
</g>
</g>
<!-- Node16&#45;&gt;Node17 -->
<g id="edge19" class="edge"><title>Node16&#45;&gt;Node17</title>
<path fill="none" stroke="midnightblue" d="M341.77,-224.083C347.562,-216.455 356.058,-205.264 363.138,-195.941"/>
<polygon fill="midnightblue" stroke="midnightblue" points="366.096,-197.832 369.356,-187.751 360.521,-193.599 366.096,-197.832"/>
</g>
<!-- Node17&#45;&gt;Node5 -->
<g id="edge22" class="edge"><title>Node17&#45;&gt;Node5</title>
<path fill="none" stroke="midnightblue" d="M375.376,-168.183C374.188,-155.292 370.869,-130.79 362,-112 346.042,-78.193 316.825,-45.4814 298.461,-26.8432"/>
<polygon fill="midnightblue" stroke="midnightblue" points="300.887,-24.3196 291.326,-19.7549 295.954,-29.2857 300.887,-24.3196"/>
</g>
<!-- Node17&#45;&gt;Node8 -->
<g id="edge21" class="edge"><title>Node17&#45;&gt;Node8</title>
<path fill="none" stroke="midnightblue" d="M396.282,-168.444C417.347,-159.557 450.517,-145.563 474.486,-135.451"/>
<polygon fill="midnightblue" stroke="midnightblue" points="475.96,-138.628 483.813,-131.516 473.239,-132.179 475.96,-138.628"/>
</g>
<!-- Node17&#45;&gt;Node11 -->
<g id="edge23" class="edge"><title>Node17&#45;&gt;Node11</title>
<path fill="none" stroke="midnightblue" d="M355.56,-168.444C334.33,-159.557 300.901,-145.563 276.745,-135.451"/>
<polygon fill="midnightblue" stroke="midnightblue" points="277.921,-132.149 267.345,-131.516 275.218,-138.606 277.921,-132.149"/>
</g>
<!-- Node18 -->
<g id="node18" class="node"><title>Node18</title>
<polygon fill="none" stroke="#bfbfbf" points="301,-112.5 301,-131.5 353,-131.5 353,-112.5 301,-112.5"/>
<text text-anchor="middle" x="327" y="-119.5" font-family="Helvetica,sans-Serif" font-size="10.00">stddef.h</text>
</g>
<!-- Node17&#45;&gt;Node18 -->
<g id="edge20" class="edge"><title>Node17&#45;&gt;Node18</title>
<path fill="none" stroke="midnightblue" d="M367.909,-168.083C360.845,-160.298 350.412,-148.801 341.851,-139.367"/>
<polygon fill="midnightblue" stroke="midnightblue" points="344.253,-136.805 334.941,-131.751 339.069,-141.509 344.253,-136.805"/>
</g>
<!-- Node19&#45;&gt;Node4 -->
<g id="edge27" class="edge"><title>Node19&#45;&gt;Node4</title>
<path fill="none" stroke="midnightblue" d="M444.49,-280.828C434.515,-265.2 416.691,-240.138 396,-224 377.688,-209.717 354.113,-198.711 334.675,-191.159"/>
<polygon fill="midnightblue" stroke="midnightblue" points="335.815,-187.848 325.223,-187.627 333.366,-194.406 335.815,-187.848"/>
</g>
<!-- Node19&#45;&gt;Node8 -->
<g id="edge25" class="edge"><title>Node19&#45;&gt;Node8</title>
<path fill="none" stroke="midnightblue" d="M457.174,-280.925C466.361,-249.939 488.331,-175.844 498.573,-141.304"/>
<polygon fill="midnightblue" stroke="midnightblue" points="501.967,-142.167 501.455,-131.585 495.256,-140.177 501.967,-142.167"/>
</g>
<!-- Node19&#45;&gt;Node9 -->
<g id="edge26" class="edge"><title>Node19&#45;&gt;Node9</title>
<path fill="none" stroke="midnightblue" d="M451.527,-280.925C448.298,-250.073 440.597,-176.484 436.963,-141.755"/>
<polygon fill="midnightblue" stroke="midnightblue" points="440.42,-141.166 435.898,-131.585 433.458,-141.895 440.42,-141.166"/>
</g>
<!-- Node19&#45;&gt;Node16 -->
<g id="edge28" class="edge"><title>Node19&#45;&gt;Node16</title>
<path fill="none" stroke="midnightblue" d="M425.334,-280.933C405.871,-271.036 379.998,-257.88 360.931,-248.185"/>
<polygon fill="midnightblue" stroke="midnightblue" points="362.414,-245.013 351.913,-243.6 359.241,-251.252 362.414,-245.013"/>
</g>
<!-- Node20 -->
<g id="node20" class="node"><title>Node20</title>
<g id="a_node20"><a xlink:href="basic__model_8hh.html" target="_top" xlink:title="basic_model.hh">
<polygon fill="none" stroke="black" points="519.5,-224.5 519.5,-243.5 604.5,-243.5 604.5,-224.5 519.5,-224.5"/>
<text text-anchor="middle" x="562" y="-231.5" font-family="Helvetica,sans-Serif" font-size="10.00">basic_model.hh</text>
</a>
</g>
</g>
<!-- Node19&#45;&gt;Node20 -->
<g id="edge29" class="edge"><title>Node19&#45;&gt;Node20</title>
<path fill="none" stroke="midnightblue" d="M478.556,-280.933C496.288,-271.171 519.78,-258.24 537.32,-248.586"/>
<polygon fill="midnightblue" stroke="midnightblue" points="539.304,-251.489 546.377,-243.6 535.928,-245.356 539.304,-251.489"/>
</g>
<!-- Node19&#45;&gt;Node35 -->
<g id="edge53" class="edge"><title>Node19&#45;&gt;Node35</title>
<path fill="none" stroke="midnightblue" d="M507.528,-291.155C656.947,-280.621 1072.69,-251.309 1236.46,-239.762"/>
<polygon fill="midnightblue" stroke="midnightblue" points="1237.14,-243.222 1246.87,-239.028 1236.65,-236.24 1237.14,-243.222"/>
</g>
<!-- Node20&#45;&gt;Node4 -->
<g id="edge52" class="edge"><title>Node20&#45;&gt;Node4</title>
<path fill="none" stroke="midnightblue" d="M520.168,-224.444C469.131,-214.004 383.645,-196.518 334.937,-186.555"/>
<polygon fill="midnightblue" stroke="midnightblue" points="335.626,-183.124 325.127,-184.549 334.223,-189.982 335.626,-183.124"/>
</g>
<!-- Node20&#45;&gt;Node8 -->
<g id="edge30" class="edge"><title>Node20&#45;&gt;Node8</title>
<path fill="none" stroke="midnightblue" d="M560.649,-224.128C558.409,-211.167 553.132,-186.58 543,-168 537.209,-157.381 528.565,-147.068 520.886,-139.001"/>
<polygon fill="midnightblue" stroke="midnightblue" points="523.205,-136.37 513.669,-131.753 518.245,-141.309 523.205,-136.37"/>
</g>
<!-- Node20&#45;&gt;Node9 -->
<g id="edge31" class="edge"><title>Node20&#45;&gt;Node9</title>
<path fill="none" stroke="midnightblue" d="M552.035,-224.368C530.612,-205.814 479.927,-161.913 452.823,-138.438"/>
<polygon fill="midnightblue" stroke="midnightblue" points="454.77,-135.493 444.919,-131.591 450.187,-140.784 454.77,-135.493"/>
</g>
<!-- Node20&#45;&gt;Node17 -->
<g id="edge32" class="edge"><title>Node20&#45;&gt;Node17</title>
<path fill="none" stroke="midnightblue" d="M532.528,-224.444C498.871,-214.672 443.95,-198.727 408.918,-188.557"/>
<polygon fill="midnightblue" stroke="midnightblue" points="409.743,-185.152 399.164,-185.725 407.792,-191.874 409.743,-185.152"/>
</g>
<!-- Node21 -->
<g id="node21" class="node"><title>Node21</title>
<g id="a_node21"><a xlink:href="output__flags_8hh.html" target="_top" xlink:title="output_flags.hh">
<polygon fill="none" stroke="black" points="595.5,-168.5 595.5,-187.5 678.5,-187.5 678.5,-168.5 595.5,-168.5"/>
<text text-anchor="middle" x="637" y="-175.5" font-family="Helvetica,sans-Serif" font-size="10.00">output_flags.hh</text>
</a>
</g>
</g>
<!-- Node20&#45;&gt;Node21 -->
<g id="edge33" class="edge"><title>Node20&#45;&gt;Node21</title>
<path fill="none" stroke="midnightblue" d="M574.05,-224.324C585.463,-216.107 602.831,-203.602 616.435,-193.807"/>
<polygon fill="midnightblue" stroke="midnightblue" points="618.66,-196.517 624.731,-187.834 614.57,-190.837 618.66,-196.517"/>
</g>
<!-- Node25 -->
<g id="node25" class="node"><title>Node25</title>
<g id="a_node25"><a xlink:href="parallel__mt_8hh.html" target="_top" xlink:title="parallel_mt.hh">
<polygon fill="none" stroke="black" points="920.5,-168.5 920.5,-187.5 997.5,-187.5 997.5,-168.5 920.5,-168.5"/>
<text text-anchor="middle" x="959" y="-175.5" font-family="Helvetica,sans-Serif" font-size="10.00">parallel_mt.hh</text>
</a>
</g>
</g>
<!-- Node20&#45;&gt;Node25 -->
<g id="edge39" class="edge"><title>Node20&#45;&gt;Node25</title>
<path fill="none" stroke="midnightblue" d="M604.863,-227.17C679.314,-217.043 832.046,-196.268 910.351,-185.617"/>
<polygon fill="midnightblue" stroke="midnightblue" points="910.998,-189.062 920.435,-184.246 910.054,-182.125 910.998,-189.062"/>
</g>
<!-- Node21&#45;&gt;Node8 -->
<g id="edge34" class="edge"><title>Node21&#45;&gt;Node8</title>
<path fill="none" stroke="midnightblue" d="M615.926,-168.444C593.94,-159.517 559.266,-145.439 534.336,-135.317"/>
<polygon fill="midnightblue" stroke="midnightblue" points="535.558,-132.035 524.976,-131.516 532.924,-138.521 535.558,-132.035"/>
</g>
<!-- Node21&#45;&gt;Node9 -->
<g id="edge35" class="edge"><title>Node21&#45;&gt;Node9</title>
<path fill="none" stroke="midnightblue" d="M604.992,-168.444C568.589,-158.712 509.279,-142.857 471.213,-132.681"/>
<polygon fill="midnightblue" stroke="midnightblue" points="471.641,-129.172 461.077,-129.971 469.833,-135.935 471.641,-129.172"/>
</g>
<!-- Node22 -->
<g id="node22" class="node"><title>Node22</title>
<polygon fill="none" stroke="#bfbfbf" points="546.5,-112.5 546.5,-131.5 587.5,-131.5 587.5,-112.5 546.5,-112.5"/>
<text text-anchor="middle" x="567" y="-119.5" font-family="Helvetica,sans-Serif" font-size="10.00">bitset</text>
</g>
<!-- Node21&#45;&gt;Node22 -->
<g id="edge36" class="edge"><title>Node21&#45;&gt;Node22</title>
<path fill="none" stroke="midnightblue" d="M625.753,-168.324C615.203,-160.185 599.199,-147.839 586.558,-138.087"/>
<polygon fill="midnightblue" stroke="midnightblue" points="588.507,-135.171 578.451,-131.834 584.231,-140.713 588.507,-135.171"/>
</g>
<!-- Node23 -->
<g id="node23" class="node"><title>Node23</title>
<polygon fill="none" stroke="#bfbfbf" points="606,-112.5 606,-131.5 668,-131.5 668,-112.5 606,-112.5"/>
<text text-anchor="middle" x="637" y="-119.5" font-family="Helvetica,sans-Serif" font-size="10.00">type_traits</text>
</g>
<!-- Node21&#45;&gt;Node23 -->
<g id="edge37" class="edge"><title>Node21&#45;&gt;Node23</title>
<path fill="none" stroke="midnightblue" d="M637,-168.083C637,-161.006 637,-150.861 637,-141.986"/>
<polygon fill="midnightblue" stroke="midnightblue" points="640.5,-141.751 637,-131.751 633.5,-141.751 640.5,-141.751"/>
</g>
<!-- Node24 -->
<g id="node24" class="node"><title>Node24</title>
<polygon fill="none" stroke="#bfbfbf" points="1325.5,-112.5 1325.5,-131.5 1366.5,-131.5 1366.5,-112.5 1325.5,-112.5"/>
<text text-anchor="middle" x="1346" y="-119.5" font-family="Helvetica,sans-Serif" font-size="10.00">string</text>
</g>
<!-- Node21&#45;&gt;Node24 -->
<g id="edge38" class="edge"><title>Node21&#45;&gt;Node24</title>
<path fill="none" stroke="midnightblue" d="M678.905,-175.46C803.95,-170.675 1173.95,-155.087 1315.32,-131.595"/>
<polygon fill="midnightblue" stroke="midnightblue" points="1316.24,-134.986 1325.49,-129.817 1315.04,-128.091 1316.24,-134.986"/>
</g>
<!-- Node25&#45;&gt;Node8 -->
<g id="edge44" class="edge"><title>Node25&#45;&gt;Node8</title>
<path fill="none" stroke="midnightblue" d="M920.296,-174.949C847.31,-170.636 684.281,-158.875 538.769,-132.082"/>
<polygon fill="midnightblue" stroke="midnightblue" points="539.24,-128.61 528.767,-130.212 537.953,-135.491 539.24,-128.61"/>
</g>
<!-- Node25&#45;&gt;Node12 -->
<g id="edge46" class="edge"><title>Node25&#45;&gt;Node12</title>
<path fill="none" stroke="midnightblue" d="M997.837,-174.665C1054.09,-170.381 1153.96,-159.08 1176,-132 1212.58,-87.0596 1108.21,-73.1225 1047.75,-68.8518"/>
<polygon fill="midnightblue" stroke="midnightblue" points="1047.94,-65.3569 1037.74,-68.2036 1047.49,-72.3423 1047.94,-65.3569"/>
</g>
<!-- Node25&#45;&gt;Node15 -->
<g id="edge41" class="edge"><title>Node25&#45;&gt;Node15</title>
<path fill="none" stroke="midnightblue" d="M997.877,-175.316C1057.88,-171.809 1168.7,-161.423 1193,-132 1198.66,-125.147 1198.04,-119.319 1193,-112 1150.39,-50.1755 913.87,-22.6931 820.205,-14.123"/>
<polygon fill="midnightblue" stroke="midnightblue" points="820.303,-10.6179 810.031,-13.2155 819.681,-17.5902 820.303,-10.6179"/>
</g>
<!-- Node26 -->
<g id="node26" class="node"><title>Node26</title>
<polygon fill="none" stroke="#bfbfbf" points="1262.5,-112.5 1262.5,-131.5 1307.5,-131.5 1307.5,-112.5 1262.5,-112.5"/>
<text text-anchor="middle" x="1285" y="-119.5" font-family="Helvetica,sans-Serif" font-size="10.00">cstdlib</text>
</g>
<!-- Node25&#45;&gt;Node26 -->
<g id="edge40" class="edge"><title>Node25&#45;&gt;Node26</title>
<path fill="none" stroke="midnightblue" d="M997.515,-172.053C1053.08,-164.678 1158.86,-149.749 1248,-132 1249.46,-131.71 1250.95,-131.401 1252.45,-131.079"/>
<polygon fill="midnightblue" stroke="midnightblue" points="1253.39,-134.453 1262.37,-128.824 1251.84,-127.627 1253.39,-134.453"/>
</g>
<!-- Node27 -->
<g id="node27" class="node"><title>Node27</title>
<polygon fill="none" stroke="#bfbfbf" points="686,-112.5 686,-131.5 732,-131.5 732,-112.5 686,-112.5"/>
<text text-anchor="middle" x="709" y="-119.5" font-family="Helvetica,sans-Serif" font-size="10.00">cstdint</text>
</g>
<!-- Node25&#45;&gt;Node27 -->
<g id="edge42" class="edge"><title>Node25&#45;&gt;Node27</title>
<path fill="none" stroke="midnightblue" d="M920.224,-169.853C878.538,-161.98 810.123,-148.516 742.058,-132.124"/>
<polygon fill="midnightblue" stroke="midnightblue" points="742.565,-128.645 732.021,-129.684 740.911,-135.447 742.565,-128.645"/>
</g>
<!-- Node28 -->
<g id="node28" class="node"><title>Node28</title>
<polygon fill="none" stroke="#bfbfbf" points="750,-112.5 750,-131.5 796,-131.5 796,-112.5 750,-112.5"/>
<text text-anchor="middle" x="773" y="-119.5" font-family="Helvetica,sans-Serif" font-size="10.00">cstring</text>
</g>
<!-- Node25&#45;&gt;Node28 -->
<g id="edge43" class="edge"><title>Node25&#45;&gt;Node28</title>
<path fill="none" stroke="midnightblue" d="M929.528,-168.444C895.871,-158.672 840.95,-142.727 805.918,-132.557"/>
<polygon fill="midnightblue" stroke="midnightblue" points="806.743,-129.152 796.164,-129.725 804.792,-135.874 806.743,-129.152"/>
</g>
<!-- Node29 -->
<g id="node29" class="node"><title>Node29</title>
<polygon fill="none" stroke="#bfbfbf" points="814,-112.5 814,-131.5 854,-131.5 854,-112.5 814,-112.5"/>
<text text-anchor="middle" x="834" y="-119.5" font-family="Helvetica,sans-Serif" font-size="10.00">limits</text>
</g>
<!-- Node25&#45;&gt;Node29 -->
<g id="edge45" class="edge"><title>Node25&#45;&gt;Node29</title>
<path fill="none" stroke="midnightblue" d="M939.193,-168.444C918.713,-159.596 886.517,-145.687 863.135,-135.586"/>
<polygon fill="midnightblue" stroke="midnightblue" points="864.282,-132.269 853.714,-131.516 861.506,-138.695 864.282,-132.269"/>
</g>
<!-- Node30 -->
<g id="node30" class="node"><title>Node30</title>
<polygon fill="none" stroke="#bfbfbf" points="872,-112.5 872,-131.5 916,-131.5 916,-112.5 872,-112.5"/>
<text text-anchor="middle" x="894" y="-119.5" font-family="Helvetica,sans-Serif" font-size="10.00">vector</text>
</g>
<!-- Node25&#45;&gt;Node30 -->
<g id="edge47" class="edge"><title>Node25&#45;&gt;Node30</title>
<path fill="none" stroke="midnightblue" d="M948.557,-168.324C938.854,-160.263 924.185,-148.077 912.5,-138.369"/>
<polygon fill="midnightblue" stroke="midnightblue" points="914.562,-135.532 904.633,-131.834 910.089,-140.916 914.562,-135.532"/>
</g>
<!-- Node31 -->
<g id="node31" class="node"><title>Node31</title>
<polygon fill="none" stroke="#bfbfbf" points="934,-112.5 934,-131.5 984,-131.5 984,-112.5 934,-112.5"/>
<text text-anchor="middle" x="959" y="-119.5" font-family="Helvetica,sans-Serif" font-size="10.00">fstream</text>
</g>
<!-- Node25&#45;&gt;Node31 -->
<g id="edge48" class="edge"><title>Node25&#45;&gt;Node31</title>
<path fill="none" stroke="midnightblue" d="M959,-168.083C959,-161.006 959,-150.861 959,-141.986"/>
<polygon fill="midnightblue" stroke="midnightblue" points="962.5,-141.751 959,-131.751 955.5,-141.751 962.5,-141.751"/>
</g>
<!-- Node32 -->
<g id="node32" class="node"><title>Node32</title>
<polygon fill="none" stroke="#bfbfbf" points="1002.5,-112.5 1002.5,-131.5 1049.5,-131.5 1049.5,-112.5 1002.5,-112.5"/>
<text text-anchor="middle" x="1026" y="-119.5" font-family="Helvetica,sans-Serif" font-size="10.00">iterator</text>
</g>
<!-- Node25&#45;&gt;Node32 -->
<g id="edge49" class="edge"><title>Node25&#45;&gt;Node32</title>
<path fill="none" stroke="midnightblue" d="M969.765,-168.324C979.766,-160.263 994.887,-148.077 1006.93,-138.369"/>
<polygon fill="midnightblue" stroke="midnightblue" points="1009.45,-140.834 1015.04,-131.834 1005.06,-135.384 1009.45,-140.834"/>
</g>
<!-- Node33 -->
<g id="node33" class="node"><title>Node33</title>
<polygon fill="none" stroke="#bfbfbf" points="1068,-112.5 1068,-131.5 1114,-131.5 1114,-112.5 1068,-112.5"/>
<text text-anchor="middle" x="1091" y="-119.5" font-family="Helvetica,sans-Serif" font-size="10.00">chrono</text>
</g>
<!-- Node25&#45;&gt;Node33 -->
<g id="edge50" class="edge"><title>Node25&#45;&gt;Node33</title>
<path fill="none" stroke="midnightblue" d="M979.916,-168.444C1001.74,-159.517 1036.15,-145.439 1060.89,-135.317"/>
<polygon fill="midnightblue" stroke="midnightblue" points="1062.25,-138.542 1070.18,-131.516 1059.6,-132.063 1062.25,-138.542"/>
</g>
<!-- Node34 -->
<g id="node34" class="node"><title>Node34</title>
<polygon fill="none" stroke="#bfbfbf" points="1132.5,-112.5 1132.5,-131.5 1167.5,-131.5 1167.5,-112.5 1132.5,-112.5"/>
<text text-anchor="middle" x="1150" y="-119.5" font-family="Helvetica,sans-Serif" font-size="10.00">dc.h</text>
</g>
<!-- Node25&#45;&gt;Node34 -->
<g id="edge51" class="edge"><title>Node25&#45;&gt;Node34</title>
<path fill="none" stroke="midnightblue" d="M992.133,-168.47C1023.35,-160.309 1071.64,-147.369 1122.47,-132.037"/>
<polygon fill="midnightblue" stroke="midnightblue" points="1123.77,-135.299 1132.32,-129.043 1121.74,-128.601 1123.77,-135.299"/>
</g>
<!-- Node35&#45;&gt;Node14 -->
<g id="edge54" class="edge"><title>Node35&#45;&gt;Node14</title>
<path fill="none" stroke="midnightblue" d="M1316.1,-224.277C1342.01,-204.487 1398.64,-154.593 1375,-112 1347.32,-62.1205 1283.63,-33.6568 1244.86,-20.3591"/>
<polygon fill="midnightblue" stroke="midnightblue" points="1245.71,-16.9514 1235.11,-17.153 1243.52,-23.6012 1245.71,-16.9514"/>
</g>
<!-- Node36&#45;&gt;Node24 -->
<g id="edge60" class="edge"><title>Node36&#45;&gt;Node24</title>
<path fill="none" stroke="midnightblue" d="M1362.2,-348.445C1364.39,-339.446 1367.63,-324.834 1369,-312 1373.14,-273.106 1374.55,-262.848 1370,-224 1366.55,-194.548 1357.62,-161.234 1351.68,-141.188"/>
<polygon fill="midnightblue" stroke="midnightblue" points="1355,-140.074 1348.74,-131.525 1348.3,-142.111 1355,-140.074"/>
</g>
<!-- Node37 -->
<g id="node37" class="node"><title>Node37</title>
<polygon fill="none" stroke="#bfbfbf" points="1301.5,-286.5 1301.5,-305.5 1360.5,-305.5 1360.5,-286.5 1301.5,-286.5"/>
<text text-anchor="middle" x="1331" y="-293.5" font-family="Helvetica,sans-Serif" font-size="10.00">functional</text>
</g>
<!-- Node36&#45;&gt;Node37 -->
<g id="edge59" class="edge"><title>Node36&#45;&gt;Node37</title>
<path fill="none" stroke="midnightblue" d="M1355.85,-348.403C1351.62,-339.671 1344.96,-325.889 1339.6,-314.794"/>
<polygon fill="midnightblue" stroke="midnightblue" points="1342.65,-313.061 1335.15,-305.581 1336.35,-316.107 1342.65,-313.061"/>
</g>
<!-- Node38 -->
<g id="node38" class="node"><title>Node38</title>
<polygon fill="none" stroke="#bfbfbf" points="1417.5,-286.5 1417.5,-305.5 1500.5,-305.5 1500.5,-286.5 1417.5,-286.5"/>
<text text-anchor="middle" x="1459" y="-293.5" font-family="Helvetica,sans-Serif" font-size="10.00">unordered_map</text>
</g>
<!-- Node36&#45;&gt;Node38 -->
<g id="edge61" class="edge"><title>Node36&#45;&gt;Node38</title>
<path fill="none" stroke="midnightblue" d="M1374.18,-348.403C1390.36,-338.601 1417.03,-322.439 1436.14,-310.853"/>
<polygon fill="midnightblue" stroke="midnightblue" points="1438.1,-313.757 1444.84,-305.581 1434.48,-307.77 1438.1,-313.757"/>
</g>
</g>
</svg>
