<?xml version="1.0" encoding="UTF-8" standalone="no"?>
<!DOCTYPE svg PUBLIC "-//W3C//DTD SVG 1.1//EN"
 "http://www.w3.org/Graphics/SVG/1.1/DTD/svg11.dtd">
<!-- Generated by graphviz version 2.40.1 (20161225.0304)
 -->
<!-- Title: src/velocity/plain_wave_solver.hh Pages: 1 -->
<svg width="1330pt" height="386pt"
 viewBox="0.00 0.00 1329.66 386.00" xmlns="http://www.w3.org/2000/svg" xmlns:xlink="http://www.w3.org/1999/xlink">
<g id="graph0" class="graph" transform="scale(1 1) rotate(0) translate(4 382)">
<title>src/velocity/plain_wave_solver.hh</title>
<!-- Node0 -->
<g id="node1" class="node">
<title>Node0</title>
<polygon fill="#bfbfbf" stroke="#000000" points="130.6631,-347.5 130.6631,-377.5 220.6631,-377.5 220.6631,-347.5 130.6631,-347.5"/>
<text text-anchor="start" x="138.6631" y="-365.5" font-family="Helvetica,sans-Serif" font-size="10.00" fill="#000000">src/velocity/plain</text>
<text text-anchor="middle" x="175.6631" y="-354.5" font-family="Helvetica,sans-Serif" font-size="10.00" fill="#000000">_wave_solver.hh</text>
</g>
<!-- Node1 -->
<g id="node2" class="node">
<title>Node1</title>
<g id="a_node2"><a xlink:href="basic__solver_8hh.html" target="_top" xlink:title="basic_solver.hh">
<polygon fill="none" stroke="#000000" points="133.6631,-286 133.6631,-305 217.6631,-305 217.6631,-286 133.6631,-286"/>
<text text-anchor="middle" x="175.6631" y="-293" font-family="Helvetica,sans-Serif" font-size="10.00" fill="#000000">basic_solver.hh</text>
</a>
</g>
</g>
<!-- Node0&#45;&gt;Node1 -->
<g id="edge1" class="edge">
<title>Node0&#45;&gt;Node1</title>
<path fill="none" stroke="#191970" d="M175.6631,-347.2967C175.6631,-337.7699 175.6631,-325.3954 175.6631,-315.1306"/>
<polygon fill="#191970" stroke="#191970" points="179.1632,-315.0549 175.6631,-305.055 172.1632,-315.055 179.1632,-315.0549"/>
</g>
<!-- Node2 -->
<g id="node3" class="node">
<title>Node2</title>
<g id="a_node3"><a xlink:href="types_8hh.html" target="_top" xlink:title="types.hh">
<polygon fill="none" stroke="#000000" points="72.6631,-168.5 72.6631,-187.5 126.6631,-187.5 126.6631,-168.5 72.6631,-168.5"/>
<text text-anchor="middle" x="99.6631" y="-175.5" font-family="Helvetica,sans-Serif" font-size="10.00" fill="#000000">types.hh</text>
</a>
</g>
</g>
<!-- Node0&#45;&gt;Node2 -->
<g id="edge54" class="edge">
<title>Node0&#45;&gt;Node2</title>
<path fill="none" stroke="#191970" d="M155.8829,-347.3899C145.0395,-338.0616 132.2895,-325.1866 124.6631,-311 105.0003,-274.4234 100.5717,-224.9537 99.7142,-197.8303"/>
<polygon fill="#191970" stroke="#191970" points="103.2109,-197.6122 99.5313,-187.6769 96.212,-197.7384 103.2109,-197.6122"/>
</g>
<!-- Node15 -->
<g id="node16" class="node">
<title>Node15</title>
<g id="a_node16"><a xlink:href="plain__wave__model_8hh.html" target="_top" xlink:title="generator/plain_wave\l_model.hh">
<polygon fill="none" stroke="#000000" points="281.1631,-280.5 281.1631,-310.5 390.1631,-310.5 390.1631,-280.5 281.1631,-280.5"/>
<text text-anchor="start" x="289.1631" y="-298.5" font-family="Helvetica,sans-Serif" font-size="10.00" fill="#000000">generator/plain_wave</text>
<text text-anchor="middle" x="335.6631" y="-287.5" font-family="Helvetica,sans-Serif" font-size="10.00" fill="#000000">_model.hh</text>
</a>
</g>
</g>
<!-- Node0&#45;&gt;Node15 -->
<g id="edge23" class="edge">
<title>Node0&#45;&gt;Node15</title>
<path fill="none" stroke="#191970" d="M211.5702,-347.4639C234.8542,-337.7137 265.3851,-324.9289 290.3364,-314.4805"/>
<polygon fill="#191970" stroke="#191970" points="291.7273,-317.6926 299.5994,-310.6017 289.0235,-311.2359 291.7273,-317.6926"/>
</g>
<!-- Node1&#45;&gt;Node2 -->
<g id="edge2" class="edge">
<title>Node1&#45;&gt;Node2</title>
<path fill="none" stroke="#191970" d="M162.9508,-285.7059C151.3226,-276.1653 134.351,-260.6929 123.6631,-244 114.4293,-229.5782 108.1034,-211.1145 104.274,-197.3852"/>
<polygon fill="#191970" stroke="#191970" points="107.6244,-196.3613 101.7304,-187.5573 100.8477,-198.1153 107.6244,-196.3613"/>
</g>
<!-- Node4 -->
<g id="node5" class="node">
<title>Node4</title>
<g id="a_node5"><a xlink:href="domain_8hh.html" target="_top" xlink:title="domain.hh">
<polygon fill="none" stroke="#000000" points="144.6631,-168.5 144.6631,-187.5 206.6631,-187.5 206.6631,-168.5 144.6631,-168.5"/>
<text text-anchor="middle" x="175.6631" y="-175.5" font-family="Helvetica,sans-Serif" font-size="10.00" fill="#000000">domain.hh</text>
</a>
</g>
</g>
<!-- Node1&#45;&gt;Node4 -->
<g id="edge4" class="edge">
<title>Node1&#45;&gt;Node4</title>
<path fill="none" stroke="#191970" d="M175.6631,-285.8845C175.6631,-266.6913 175.6631,-223.286 175.6631,-197.7663"/>
<polygon fill="#191970" stroke="#191970" points="179.1632,-197.7483 175.6631,-187.7484 172.1632,-197.7484 179.1632,-197.7483"/>
</g>
<!-- Node13 -->
<g id="node14" class="node">
<title>Node13</title>
<g id="a_node14"><a xlink:href="discrete__function_8hh.html" target="_top" xlink:title="discrete_function.hh">
<polygon fill="none" stroke="#000000" points="203.6631,-224.5 203.6631,-243.5 307.6631,-243.5 307.6631,-224.5 203.6631,-224.5"/>
<text text-anchor="middle" x="255.6631" y="-231.5" font-family="Helvetica,sans-Serif" font-size="10.00" fill="#000000">discrete_function.hh</text>
</a>
</g>
</g>
<!-- Node1&#45;&gt;Node13 -->
<g id="edge16" class="edge">
<title>Node1&#45;&gt;Node13</title>
<path fill="none" stroke="#191970" d="M188.1631,-285.8906C200.7266,-276.2324 220.3054,-261.1812 235.1479,-249.771"/>
<polygon fill="#191970" stroke="#191970" points="237.4559,-252.4115 243.2509,-243.5419 233.1896,-246.8618 237.4559,-252.4115"/>
</g>
<!-- Node3 -->
<g id="node4" class="node">
<title>Node3</title>
<polygon fill="none" stroke="#bfbfbf" points="60.1631,-.5 60.1631,-19.5 127.1631,-19.5 127.1631,-.5 60.1631,-.5"/>
<text text-anchor="middle" x="93.6631" y="-7.5" font-family="Helvetica,sans-Serif" font-size="10.00" fill="#000000">blitz/array.h</text>
</g>
<!-- Node2&#45;&gt;Node3 -->
<g id="edge3" class="edge">
<title>Node2&#45;&gt;Node3</title>
<path fill="none" stroke="#191970" d="M72.365,-172.6772C50.3966,-166.8011 20.9175,-154.9534 6.6631,-132 -18.1559,-92.035 35.5035,-47.6539 69.1509,-25.0387"/>
<polygon fill="#191970" stroke="#191970" points="71.1563,-27.9095 77.6216,-19.516 67.3332,-22.0457 71.1563,-27.9095"/>
</g>
<!-- Node4&#45;&gt;Node3 -->
<g id="edge9" class="edge">
<title>Node4&#45;&gt;Node3</title>
<path fill="none" stroke="#191970" d="M157.602,-168.365C144.4408,-160.3831 127.293,-147.8039 117.6631,-132 98.1817,-100.0287 94.0814,-55.3808 93.4629,-29.9074"/>
<polygon fill="#191970" stroke="#191970" points="96.961,-29.6387 93.381,-19.6671 89.9612,-29.6948 96.961,-29.6387"/>
</g>
<!-- Node5 -->
<g id="node6" class="node">
<title>Node5</title>
<polygon fill="none" stroke="#bfbfbf" points="243.6631,-.5 243.6631,-19.5 287.6631,-19.5 287.6631,-.5 243.6631,-.5"/>
<text text-anchor="middle" x="265.6631" y="-7.5" font-family="Helvetica,sans-Serif" font-size="10.00" fill="#000000">cmath</text>
</g>
<!-- Node4&#45;&gt;Node5 -->
<g id="edge5" class="edge">
<title>Node4&#45;&gt;Node5</title>
<path fill="none" stroke="#191970" d="M174.9922,-168.3203C173.9658,-146.0864 174.3986,-90.6228 200.6631,-56 210.3447,-43.2373 224.579,-32.6038 237.261,-24.7869"/>
<polygon fill="#191970" stroke="#191970" points="239.2654,-27.6695 246.1338,-19.6026 235.7339,-21.6256 239.2654,-27.6695"/>
</g>
<!-- Node6 -->
<g id="node7" class="node">
<title>Node6</title>
<polygon fill="none" stroke="#bfbfbf" points="15.6631,-112.5 15.6631,-131.5 65.6631,-131.5 65.6631,-112.5 15.6631,-112.5"/>
<text text-anchor="middle" x="40.6631" y="-119.5" font-family="Helvetica,sans-Serif" font-size="10.00" fill="#000000">iomanip</text>
</g>
<!-- Node4&#45;&gt;Node6 -->
<g id="edge6" class="edge">
<title>Node4&#45;&gt;Node6</title>
<path fill="none" stroke="#191970" d="M152.4558,-168.3733C130.4932,-159.2629 97.3299,-145.5062 72.8229,-135.3404"/>
<polygon fill="#191970" stroke="#191970" points="74.1455,-132.0999 63.5676,-131.5011 71.4633,-138.5657 74.1455,-132.0999"/>
</g>
<!-- Node7 -->
<g id="node8" class="node">
<title>Node7</title>
<polygon fill="none" stroke="#bfbfbf" points="434.1631,-112.5 434.1631,-131.5 483.1631,-131.5 483.1631,-112.5 434.1631,-112.5"/>
<text text-anchor="middle" x="458.6631" y="-119.5" font-family="Helvetica,sans-Serif" font-size="10.00" fill="#000000">istream</text>
</g>
<!-- Node4&#45;&gt;Node7 -->
<g id="edge7" class="edge">
<title>Node4&#45;&gt;Node7</title>
<path fill="none" stroke="#191970" d="M206.8727,-172.6501C260.6128,-163.3731 369.3678,-144.2997 424.0007,-131.9221"/>
<polygon fill="#191970" stroke="#191970" points="424.9197,-135.3017 433.8602,-129.6168 423.3259,-128.4856 424.9197,-135.3017"/>
</g>
<!-- Node8 -->
<g id="node9" class="node">
<title>Node8</title>
<polygon fill="none" stroke="#bfbfbf" points="363.6631,-112.5 363.6631,-131.5 415.6631,-131.5 415.6631,-112.5 363.6631,-112.5"/>
<text text-anchor="middle" x="389.6631" y="-119.5" font-family="Helvetica,sans-Serif" font-size="10.00" fill="#000000">ostream</text>
</g>
<!-- Node4&#45;&gt;Node8 -->
<g id="edge8" class="edge">
<title>Node4&#45;&gt;Node8</title>
<path fill="none" stroke="#191970" d="M206.7805,-169.8571C245.7867,-159.6499 312.5116,-142.1892 353.675,-131.4174"/>
<polygon fill="#191970" stroke="#191970" points="354.7689,-134.7491 363.5571,-128.8315 352.9968,-127.9771 354.7689,-134.7491"/>
</g>
<!-- Node9 -->
<g id="node10" class="node">
<title>Node9</title>
<g id="a_node10"><a xlink:href="validators_8hh.html" target="_top" xlink:title="validators.hh">
<polygon fill="none" stroke="#000000" points="197.6631,-112.5 197.6631,-131.5 269.6631,-131.5 269.6631,-112.5 197.6631,-112.5"/>
<text text-anchor="middle" x="233.6631" y="-119.5" font-family="Helvetica,sans-Serif" font-size="10.00" fill="#000000">validators.hh</text>
</a>
</g>
</g>
<!-- Node4&#45;&gt;Node9 -->
<g id="edge10" class="edge">
<title>Node4&#45;&gt;Node9</title>
<path fill="none" stroke="#191970" d="M185.7659,-168.2455C194.1659,-160.1352 206.3124,-148.4075 216.2715,-138.7919"/>
<polygon fill="#191970" stroke="#191970" points="218.9131,-141.1066 223.676,-131.6427 214.0509,-136.0707 218.9131,-141.1066"/>
</g>
<!-- Node10 -->
<g id="node11" class="node">
<title>Node10</title>
<polygon fill="none" stroke="#bfbfbf" points="716.1631,-56.5 716.1631,-75.5 775.1631,-75.5 775.1631,-56.5 716.1631,-56.5"/>
<text text-anchor="middle" x="745.6631" y="-63.5" font-family="Helvetica,sans-Serif" font-size="10.00" fill="#000000">stdexcept</text>
</g>
<!-- Node9&#45;&gt;Node10 -->
<g id="edge11" class="edge">
<title>Node9&#45;&gt;Node10</title>
<path fill="none" stroke="#191970" d="M269.6659,-118.0622C362.4549,-107.9134 609.2289,-80.9225 705.967,-70.3418"/>
<polygon fill="#191970" stroke="#191970" points="706.3692,-73.8187 715.9293,-69.2521 705.6081,-66.8602 706.3692,-73.8187"/>
</g>
<!-- Node11 -->
<g id="node12" class="node">
<title>Node11</title>
<g id="a_node12"><a xlink:href="blitz_8hh.html" target="_top" xlink:title="blitz.hh">
<polygon fill="none" stroke="#000000" points="209.6631,-56.5 209.6631,-75.5 257.6631,-75.5 257.6631,-56.5 209.6631,-56.5"/>
<text text-anchor="middle" x="233.6631" y="-63.5" font-family="Helvetica,sans-Serif" font-size="10.00" fill="#000000">blitz.hh</text>
</a>
</g>
</g>
<!-- Node9&#45;&gt;Node11 -->
<g id="edge12" class="edge">
<title>Node9&#45;&gt;Node11</title>
<path fill="none" stroke="#191970" d="M233.6631,-112.2455C233.6631,-104.9382 233.6631,-94.6944 233.6631,-85.7046"/>
<polygon fill="#191970" stroke="#191970" points="237.1632,-85.6426 233.6631,-75.6427 230.1632,-85.6427 237.1632,-85.6426"/>
</g>
<!-- Node11&#45;&gt;Node3 -->
<g id="edge14" class="edge">
<title>Node11&#45;&gt;Node3</title>
<path fill="none" stroke="#191970" d="M209.5962,-56.3733C186.8202,-47.2629 152.4287,-33.5062 127.0141,-23.3404"/>
<polygon fill="#191970" stroke="#191970" points="128.0006,-19.9654 117.4159,-19.5011 125.4008,-26.4648 128.0006,-19.9654"/>
</g>
<!-- Node11&#45;&gt;Node5 -->
<g id="edge15" class="edge">
<title>Node11&#45;&gt;Node5</title>
<path fill="none" stroke="#191970" d="M239.2371,-56.2455C243.5962,-48.617 249.7841,-37.7881 255.0764,-28.5267"/>
<polygon fill="#191970" stroke="#191970" points="258.2304,-30.0616 260.153,-19.6427 252.1527,-26.5886 258.2304,-30.0616"/>
</g>
<!-- Node12 -->
<g id="node13" class="node">
<title>Node12</title>
<polygon fill="none" stroke="#bfbfbf" points="685.6631,-.5 685.6631,-19.5 741.6631,-19.5 741.6631,-.5 685.6631,-.5"/>
<text text-anchor="middle" x="713.6631" y="-7.5" font-family="Helvetica,sans-Serif" font-size="10.00" fill="#000000">algorithm</text>
</g>
<!-- Node11&#45;&gt;Node12 -->
<g id="edge13" class="edge">
<title>Node11&#45;&gt;Node12</title>
<path fill="none" stroke="#191970" d="M257.9928,-63.0392C274.5343,-61.0334 296.9164,-58.3336 316.6631,-56 448.0723,-40.4707 604.0138,-22.5504 675.0087,-14.4197"/>
<polygon fill="#191970" stroke="#191970" points="675.7189,-17.8614 685.2558,-13.2466 674.9226,-10.9068 675.7189,-17.8614"/>
</g>
<!-- Node13&#45;&gt;Node2 -->
<g id="edge22" class="edge">
<title>Node13&#45;&gt;Node2</title>
<path fill="none" stroke="#191970" d="M228.8457,-224.3733C203.1299,-215.1419 164.1251,-201.1402 135.7032,-190.9375"/>
<polygon fill="#191970" stroke="#191970" points="136.725,-187.5857 126.1305,-187.5011 134.3599,-194.174 136.725,-187.5857"/>
</g>
<!-- Node14 -->
<g id="node15" class="node">
<title>Node14</title>
<g id="a_node15"><a xlink:href="grid_8hh.html" target="_top" xlink:title="grid.hh">
<polygon fill="none" stroke="#000000" points="246.6631,-168.5 246.6631,-187.5 292.6631,-187.5 292.6631,-168.5 246.6631,-168.5"/>
<text text-anchor="middle" x="269.6631" y="-175.5" font-family="Helvetica,sans-Serif" font-size="10.00" fill="#000000">grid.hh</text>
</a>
</g>
</g>
<!-- Node13&#45;&gt;Node14 -->
<g id="edge17" class="edge">
<title>Node13&#45;&gt;Node14</title>
<path fill="none" stroke="#191970" d="M258.1017,-224.2455C259.9486,-216.8579 262.5459,-206.4689 264.8109,-197.4087"/>
<polygon fill="#191970" stroke="#191970" points="268.2225,-198.193 267.2524,-187.6427 261.4315,-196.4952 268.2225,-198.193"/>
</g>
<!-- Node14&#45;&gt;Node5 -->
<g id="edge18" class="edge">
<title>Node14&#45;&gt;Node5</title>
<path fill="none" stroke="#191970" d="M272.1496,-168.2105C274.3644,-158.9529 277.4386,-144.6354 278.6631,-132 282.1572,-95.944 275.2717,-53.9521 270.2553,-29.8234"/>
<polygon fill="#191970" stroke="#191970" points="273.6183,-28.8186 268.0613,-19.7981 266.7802,-30.3152 273.6183,-28.8186"/>
</g>
<!-- Node14&#45;&gt;Node7 -->
<g id="edge19" class="edge">
<title>Node14&#45;&gt;Node7</title>
<path fill="none" stroke="#191970" d="M292.8382,-171.1333C325.7748,-161.3743 386.348,-143.4267 424.4574,-132.135"/>
<polygon fill="#191970" stroke="#191970" points="425.5064,-135.4747 434.1,-129.2779 423.5177,-128.7631 425.5064,-135.4747"/>
</g>
<!-- Node14&#45;&gt;Node9 -->
<g id="edge21" class="edge">
<title>Node14&#45;&gt;Node9</title>
<path fill="none" stroke="#191970" d="M263.3924,-168.2455C258.4367,-160.5367 251.3801,-149.5598 245.3855,-140.2348"/>
<polygon fill="#191970" stroke="#191970" points="248.2137,-138.1618 239.8619,-131.6427 242.3254,-141.9471 248.2137,-138.1618"/>
</g>
<!-- Node14&#45;&gt;Node11 -->
<g id="edge20" class="edge">
<title>Node14&#45;&gt;Node11</title>
<path fill="none" stroke="#191970" d="M246.543,-171.9113C227.2664,-165.4777 201.0294,-153.2442 188.6631,-132 178.3254,-114.2408 195.0298,-94.9292 210.9357,-81.8116"/>
<polygon fill="#191970" stroke="#191970" points="213.2583,-84.4402 219.0332,-75.5576 208.9795,-78.9002 213.2583,-84.4402"/>
</g>
<!-- Node15&#45;&gt;Node2 -->
<g id="edge26" class="edge">
<title>Node15&#45;&gt;Node2</title>
<path fill="none" stroke="#191970" d="M284.7374,-280.4158C257.324,-271.4331 223.3463,-258.8851 194.6631,-244 166.9641,-229.6257 137.8894,-208.3845 119.3145,-193.9088"/>
<polygon fill="#191970" stroke="#191970" points="121.342,-191.05 111.3265,-187.5944 117.001,-196.5415 121.342,-191.05"/>
</g>
<!-- Node15&#45;&gt;Node7 -->
<g id="edge24" class="edge">
<title>Node15&#45;&gt;Node7</title>
<path fill="none" stroke="#191970" d="M390.1929,-285.1931C431.6978,-276.1097 483.8151,-261.599 496.6631,-244 520.065,-211.9443 492.1989,-165.1089 473.293,-139.8072"/>
<polygon fill="#191970" stroke="#191970" points="475.9799,-137.5608 467.0782,-131.8153 470.454,-141.8579 475.9799,-137.5608"/>
</g>
<!-- Node15&#45;&gt;Node8 -->
<g id="edge25" class="edge">
<title>Node15&#45;&gt;Node8</title>
<path fill="none" stroke="#191970" d="M340.3608,-280.4065C350.1318,-249.0126 372.6395,-176.6961 383.534,-141.6925"/>
<polygon fill="#191970" stroke="#191970" points="387.0023,-142.3264 386.6322,-131.738 380.3185,-140.2461 387.0023,-142.3264"/>
</g>
<!-- Node15&#45;&gt;Node13 -->
<g id="edge27" class="edge">
<title>Node15&#45;&gt;Node13</title>
<path fill="none" stroke="#191970" d="M315.8878,-280.2977C303.9732,-271.1384 288.8099,-259.4816 276.6793,-250.1562"/>
<polygon fill="#191970" stroke="#191970" points="278.5334,-247.1668 268.4721,-243.8469 274.267,-252.7165 278.5334,-247.1668"/>
</g>
<!-- Node16 -->
<g id="node17" class="node">
<title>Node16</title>
<g id="a_node17"><a xlink:href="basic__model_8hh.html" target="_top" xlink:title="basic_model.hh">
<polygon fill="none" stroke="#000000" points="402.1631,-224.5 402.1631,-243.5 487.1631,-243.5 487.1631,-224.5 402.1631,-224.5"/>
<text text-anchor="middle" x="444.6631" y="-231.5" font-family="Helvetica,sans-Serif" font-size="10.00" fill="#000000">basic_model.hh</text>
</a>
</g>
</g>
<!-- Node15&#45;&gt;Node16 -->
<g id="edge28" class="edge">
<title>Node15&#45;&gt;Node16</title>
<path fill="none" stroke="#191970" d="M362.3275,-280.4554C379.5572,-270.734 401.8606,-258.15 418.9077,-248.5317"/>
<polygon fill="#191970" stroke="#191970" points="420.7825,-251.4926 427.772,-243.5303 417.3427,-245.3961 420.7825,-251.4926"/>
</g>
<!-- Node31 -->
<g id="node32" class="node">
<title>Node31</title>
<g id="a_node32"><a xlink:href="physical__constants_8hh.html" target="_top" xlink:title="physical_constants.hh">
<polygon fill="none" stroke="#000000" points="325.6631,-56.5 325.6631,-75.5 439.6631,-75.5 439.6631,-56.5 325.6631,-56.5"/>
<text text-anchor="middle" x="382.6631" y="-63.5" font-family="Helvetica,sans-Serif" font-size="10.00" fill="#000000">physical_constants.hh</text>
</a>
</g>
</g>
<!-- Node15&#45;&gt;Node31 -->
<g id="edge52" class="edge">
<title>Node15&#45;&gt;Node31</title>
<path fill="none" stroke="#191970" d="M335.0153,-280.2802C334.1258,-248.2253 334.5174,-171.7925 354.6631,-112 358.0032,-102.0866 363.7724,-92.0515 369.2094,-83.8948"/>
<polygon fill="#191970" stroke="#191970" points="372.1617,-85.7813 375.0594,-75.5904 366.4391,-81.7499 372.1617,-85.7813"/>
</g>
<!-- Node16&#45;&gt;Node2 -->
<g id="edge51" class="edge">
<title>Node16&#45;&gt;Node2</title>
<path fill="none" stroke="#191970" d="M402.1339,-229.3501C344.2105,-222.649 237.1489,-208.9566 136.7112,-188.0119"/>
<polygon fill="#191970" stroke="#191970" points="137.2094,-184.54 126.7017,-185.8955 135.7613,-191.3886 137.2094,-184.54"/>
</g>
<!-- Node16&#45;&gt;Node7 -->
<g id="edge29" class="edge">
<title>Node16&#45;&gt;Node7</title>
<path fill="none" stroke="#191970" d="M445.8567,-224.4509C448.1401,-206.184 453.1687,-165.9553 456.2009,-141.6976"/>
<polygon fill="#191970" stroke="#191970" points="459.705,-141.8818 457.4725,-131.5249 452.7591,-141.0135 459.705,-141.8818"/>
</g>
<!-- Node16&#45;&gt;Node8 -->
<g id="edge30" class="edge">
<title>Node16&#45;&gt;Node8</title>
<path fill="none" stroke="#191970" d="M439.9738,-224.4509C430.8817,-205.936 410.71,-164.8591 398.8553,-140.7187"/>
<polygon fill="#191970" stroke="#191970" points="401.8901,-138.9582 394.3405,-131.5249 395.6068,-142.0438 401.8901,-138.9582"/>
</g>
<!-- Node16&#45;&gt;Node14 -->
<g id="edge31" class="edge">
<title>Node16&#45;&gt;Node14</title>
<path fill="none" stroke="#191970" d="M414.5795,-224.3733C383.3633,-214.3841 334.6914,-198.8091 302.495,-188.5062"/>
<polygon fill="#191970" stroke="#191970" points="303.2545,-185.0745 292.6635,-185.3601 301.121,-191.7415 303.2545,-185.0745"/>
</g>
<!-- Node17 -->
<g id="node18" class="node">
<title>Node17</title>
<g id="a_node18"><a xlink:href="output__flags_8hh.html" target="_top" xlink:title="output_flags.hh">
<polygon fill="none" stroke="#000000" points="539.1631,-168.5 539.1631,-187.5 622.1631,-187.5 622.1631,-168.5 539.1631,-168.5"/>
<text text-anchor="middle" x="580.6631" y="-175.5" font-family="Helvetica,sans-Serif" font-size="10.00" fill="#000000">output_flags.hh</text>
</a>
</g>
</g>
<!-- Node16&#45;&gt;Node17 -->
<g id="edge32" class="edge">
<title>Node16&#45;&gt;Node17</title>
<path fill="none" stroke="#191970" d="M468.0423,-224.3733C490.1676,-215.2629 523.5765,-201.5062 548.265,-191.3404"/>
<polygon fill="#191970" stroke="#191970" points="549.6748,-194.5451 557.5889,-187.5011 547.0095,-188.0723 549.6748,-194.5451"/>
</g>
<!-- Node21 -->
<g id="node22" class="node">
<title>Node21</title>
<g id="a_node22"><a xlink:href="parallel__mt_8hh.html" target="_top" xlink:title="parallel_mt.hh">
<polygon fill="none" stroke="#000000" points="939.1631,-168.5 939.1631,-187.5 1016.1631,-187.5 1016.1631,-168.5 939.1631,-168.5"/>
<text text-anchor="middle" x="977.6631" y="-175.5" font-family="Helvetica,sans-Serif" font-size="10.00" fill="#000000">parallel_mt.hh</text>
</a>
</g>
</g>
<!-- Node16&#45;&gt;Node21 -->
<g id="edge38" class="edge">
<title>Node16&#45;&gt;Node21</title>
<path fill="none" stroke="#191970" d="M487.3797,-229.5119C585.2988,-219.224 825.4647,-193.9908 928.9343,-183.1197"/>
<polygon fill="#191970" stroke="#191970" points="929.5203,-186.5775 939.0999,-182.0517 928.7888,-179.6158 929.5203,-186.5775"/>
</g>
<!-- Node17&#45;&gt;Node7 -->
<g id="edge34" class="edge">
<title>Node17&#45;&gt;Node7</title>
<path fill="none" stroke="#191970" d="M559.6905,-168.3733C540.1064,-159.3838 510.667,-145.8706 488.6121,-135.7471"/>
<polygon fill="#191970" stroke="#191970" points="489.9104,-132.4919 479.362,-131.5011 486.9902,-138.8538 489.9104,-132.4919"/>
</g>
<!-- Node17&#45;&gt;Node8 -->
<g id="edge35" class="edge">
<title>Node17&#45;&gt;Node8</title>
<path fill="none" stroke="#191970" d="M547.829,-168.3733C513.8521,-158.4114 460.9278,-142.8944 425.7859,-132.591"/>
<polygon fill="#191970" stroke="#191970" points="426.5151,-129.1575 415.9343,-129.7026 424.5456,-135.8747 426.5151,-129.1575"/>
</g>
<!-- Node18 -->
<g id="node19" class="node">
<title>Node18</title>
<polygon fill="none" stroke="#bfbfbf" points="501.1631,-112.5 501.1631,-131.5 542.1631,-131.5 542.1631,-112.5 501.1631,-112.5"/>
<text text-anchor="middle" x="521.6631" y="-119.5" font-family="Helvetica,sans-Serif" font-size="10.00" fill="#000000">bitset</text>
</g>
<!-- Node17&#45;&gt;Node18 -->
<g id="edge33" class="edge">
<title>Node17&#45;&gt;Node18</title>
<path fill="none" stroke="#191970" d="M570.3861,-168.2455C561.8413,-160.1352 549.4853,-148.4075 539.3546,-138.7919"/>
<polygon fill="#191970" stroke="#191970" points="541.4849,-135.9884 531.8223,-131.6427 536.6659,-141.0655 541.4849,-135.9884"/>
</g>
<!-- Node19 -->
<g id="node20" class="node">
<title>Node19</title>
<polygon fill="none" stroke="#bfbfbf" points="560.1631,-112.5 560.1631,-131.5 601.1631,-131.5 601.1631,-112.5 560.1631,-112.5"/>
<text text-anchor="middle" x="580.6631" y="-119.5" font-family="Helvetica,sans-Serif" font-size="10.00" fill="#000000">string</text>
</g>
<!-- Node17&#45;&gt;Node19 -->
<g id="edge36" class="edge">
<title>Node17&#45;&gt;Node19</title>
<path fill="none" stroke="#191970" d="M580.6631,-168.2455C580.6631,-160.9382 580.6631,-150.6944 580.6631,-141.7046"/>
<polygon fill="#191970" stroke="#191970" points="584.1632,-141.6426 580.6631,-131.6427 577.1632,-141.6427 584.1632,-141.6426"/>
</g>
<!-- Node20 -->
<g id="node21" class="node">
<title>Node20</title>
<polygon fill="none" stroke="#bfbfbf" points="619.6631,-112.5 619.6631,-131.5 681.6631,-131.5 681.6631,-112.5 619.6631,-112.5"/>
<text text-anchor="middle" x="650.6631" y="-119.5" font-family="Helvetica,sans-Serif" font-size="10.00" fill="#000000">type_traits</text>
</g>
<!-- Node17&#45;&gt;Node20 -->
<g id="edge37" class="edge">
<title>Node17&#45;&gt;Node20</title>
<path fill="none" stroke="#191970" d="M592.8562,-168.2455C603.2952,-159.8943 618.5286,-147.7076 630.7371,-137.9408"/>
<polygon fill="#191970" stroke="#191970" points="632.9875,-140.6227 638.6097,-131.6427 628.6146,-135.1566 632.9875,-140.6227"/>
</g>
<!-- Node21&#45;&gt;Node7 -->
<g id="edge43" class="edge">
<title>Node21&#45;&gt;Node7</title>
<path fill="none" stroke="#191970" d="M938.9552,-176.8417C857.8695,-173.8775 664.2511,-163.9848 493.3375,-131.7753"/>
<polygon fill="#191970" stroke="#191970" points="493.8904,-128.3177 483.4105,-129.8742 492.5737,-135.1927 493.8904,-128.3177"/>
</g>
<!-- Node21&#45;&gt;Node10 -->
<g id="edge45" class="edge">
<title>Node21&#45;&gt;Node10</title>
<path fill="none" stroke="#191970" d="M987.5973,-168.0563C1000.235,-154.2005 1018.8174,-128.8897 1004.6631,-112 977.2236,-79.2576 851.5657,-69.8044 785.9001,-67.0875"/>
<polygon fill="#191970" stroke="#191970" points="785.6439,-63.5754 775.5184,-66.6935 785.3784,-70.5703 785.6439,-63.5754"/>
</g>
<!-- Node21&#45;&gt;Node12 -->
<g id="edge40" class="edge">
<title>Node21&#45;&gt;Node12</title>
<path fill="none" stroke="#191970" d="M991.7621,-168.4109C1009.1408,-155.3947 1034.7461,-131.519 1020.6631,-112 988.5715,-67.5212 826.7487,-31.5396 751.8298,-16.9798"/>
<polygon fill="#191970" stroke="#191970" points="752.3378,-13.5135 741.8577,-15.0688 751.0203,-20.3884 752.3378,-13.5135"/>
</g>
<!-- Node22 -->
<g id="node23" class="node">
<title>Node22</title>
<polygon fill="none" stroke="#bfbfbf" points="1090.1631,-112.5 1090.1631,-131.5 1135.1631,-131.5 1135.1631,-112.5 1090.1631,-112.5"/>
<text text-anchor="middle" x="1112.6631" y="-119.5" font-family="Helvetica,sans-Serif" font-size="10.00" fill="#000000">cstdlib</text>
</g>
<!-- Node21&#45;&gt;Node22 -->
<g id="edge39" class="edge">
<title>Node21&#45;&gt;Node22</title>
<path fill="none" stroke="#191970" d="M1000.8704,-168.3733C1022.833,-159.2629 1055.9963,-145.5062 1080.5032,-135.3404"/>
<polygon fill="#191970" stroke="#191970" points="1081.8628,-138.5657 1089.7586,-131.5011 1079.1807,-132.0999 1081.8628,-138.5657"/>
</g>
<!-- Node23 -->
<g id="node24" class="node">
<title>Node23</title>
<polygon fill="none" stroke="#bfbfbf" points="1153.6631,-112.5 1153.6631,-131.5 1199.6631,-131.5 1199.6631,-112.5 1153.6631,-112.5"/>
<text text-anchor="middle" x="1176.6631" y="-119.5" font-family="Helvetica,sans-Serif" font-size="10.00" fill="#000000">cstdint</text>
</g>
<!-- Node21&#45;&gt;Node23 -->
<g id="edge41" class="edge">
<title>Node21&#45;&gt;Node23</title>
<path fill="none" stroke="#191970" d="M1013.5976,-168.4816C1045.4337,-159.9646 1093.4028,-146.927 1143.8405,-132.1766"/>
<polygon fill="#191970" stroke="#191970" points="1145.0114,-135.4806 1153.6196,-129.3041 1143.0385,-128.7644 1145.0114,-135.4806"/>
</g>
<!-- Node24 -->
<g id="node25" class="node">
<title>Node24</title>
<polygon fill="none" stroke="#bfbfbf" points="1217.6631,-112.5 1217.6631,-131.5 1263.6631,-131.5 1263.6631,-112.5 1217.6631,-112.5"/>
<text text-anchor="middle" x="1240.6631" y="-119.5" font-family="Helvetica,sans-Serif" font-size="10.00" fill="#000000">cstring</text>
</g>
<!-- Node21&#45;&gt;Node24 -->
<g id="edge42" class="edge">
<title>Node21&#45;&gt;Node24</title>
<path fill="none" stroke="#191970" d="M1016.3654,-171.5903C1060.4964,-163.9963 1134.9529,-150.3192 1207.5606,-132.0902"/>
<polygon fill="#191970" stroke="#191970" points="1208.497,-135.4635 1217.3264,-129.6075 1206.7722,-128.6793 1208.497,-135.4635"/>
</g>
<!-- Node25 -->
<g id="node26" class="node">
<title>Node25</title>
<polygon fill="none" stroke="#bfbfbf" points="1281.6631,-112.5 1281.6631,-131.5 1321.6631,-131.5 1321.6631,-112.5 1281.6631,-112.5"/>
<text text-anchor="middle" x="1301.6631" y="-119.5" font-family="Helvetica,sans-Serif" font-size="10.00" fill="#000000">limits</text>
</g>
<!-- Node21&#45;&gt;Node25 -->
<g id="edge44" class="edge">
<title>Node21&#45;&gt;Node25</title>
<path fill="none" stroke="#191970" d="M1016.2827,-174.1893C1071.1693,-168.2938 1174.9267,-155.3789 1271.5874,-131.913"/>
<polygon fill="#191970" stroke="#191970" points="1272.6512,-135.2555 1281.519,-129.4579 1270.9713,-128.4601 1272.6512,-135.2555"/>
</g>
<!-- Node26 -->
<g id="node27" class="node">
<title>Node26</title>
<polygon fill="none" stroke="#bfbfbf" points="699.6631,-112.5 699.6631,-131.5 743.6631,-131.5 743.6631,-112.5 699.6631,-112.5"/>
<text text-anchor="middle" x="721.6631" y="-119.5" font-family="Helvetica,sans-Serif" font-size="10.00" fill="#000000">vector</text>
</g>
<!-- Node21&#45;&gt;Node26 -->
<g id="edge46" class="edge">
<title>Node21&#45;&gt;Node26</title>
<path fill="none" stroke="#191970" d="M939.1466,-171.4624C896.1257,-163.8664 824.2712,-150.305 753.8512,-132.1054"/>
<polygon fill="#191970" stroke="#191970" points="754.4878,-128.6542 743.9274,-129.5067 752.7145,-135.4258 754.4878,-128.6542"/>
</g>
<!-- Node27 -->
<g id="node28" class="node">
<title>Node27</title>
<polygon fill="none" stroke="#bfbfbf" points="761.6631,-112.5 761.6631,-131.5 811.6631,-131.5 811.6631,-112.5 761.6631,-112.5"/>
<text text-anchor="middle" x="786.6631" y="-119.5" font-family="Helvetica,sans-Serif" font-size="10.00" fill="#000000">fstream</text>
</g>
<!-- Node21&#45;&gt;Node27 -->
<g id="edge47" class="edge">
<title>Node21&#45;&gt;Node27</title>
<path fill="none" stroke="#191970" d="M944.829,-168.3733C910.4638,-158.2976 856.7156,-142.539 821.5881,-132.2398"/>
<polygon fill="#191970" stroke="#191970" points="822.3472,-128.8151 811.7664,-129.3601 820.3777,-135.5323 822.3472,-128.8151"/>
</g>
<!-- Node28 -->
<g id="node29" class="node">
<title>Node28</title>
<polygon fill="none" stroke="#bfbfbf" points="830.1631,-112.5 830.1631,-131.5 877.1631,-131.5 877.1631,-112.5 830.1631,-112.5"/>
<text text-anchor="middle" x="853.6631" y="-119.5" font-family="Helvetica,sans-Serif" font-size="10.00" fill="#000000">iterator</text>
</g>
<!-- Node21&#45;&gt;Node28 -->
<g id="edge48" class="edge">
<title>Node21&#45;&gt;Node28</title>
<path fill="none" stroke="#191970" d="M956.3467,-168.3733C936.4415,-159.3838 906.5195,-145.8706 884.1031,-135.7471"/>
<polygon fill="#191970" stroke="#191970" points="885.2556,-132.4272 874.7013,-131.5011 882.3744,-138.8068 885.2556,-132.4272"/>
</g>
<!-- Node29 -->
<g id="node30" class="node">
<title>Node29</title>
<polygon fill="none" stroke="#bfbfbf" points="895.6631,-112.5 895.6631,-131.5 941.6631,-131.5 941.6631,-112.5 895.6631,-112.5"/>
<text text-anchor="middle" x="918.6631" y="-119.5" font-family="Helvetica,sans-Serif" font-size="10.00" fill="#000000">chrono</text>
</g>
<!-- Node21&#45;&gt;Node29 -->
<g id="edge49" class="edge">
<title>Node21&#45;&gt;Node29</title>
<path fill="none" stroke="#191970" d="M967.3861,-168.2455C958.8413,-160.1352 946.4853,-148.4075 936.3546,-138.7919"/>
<polygon fill="#191970" stroke="#191970" points="938.4849,-135.9884 928.8223,-131.6427 933.6659,-141.0655 938.4849,-135.9884"/>
</g>
<!-- Node30 -->
<g id="node31" class="node">
<title>Node30</title>
<polygon fill="none" stroke="#bfbfbf" points="960.1631,-112.5 960.1631,-131.5 995.1631,-131.5 995.1631,-112.5 960.1631,-112.5"/>
<text text-anchor="middle" x="977.6631" y="-119.5" font-family="Helvetica,sans-Serif" font-size="10.00" fill="#000000">dc.h</text>
</g>
<!-- Node21&#45;&gt;Node30 -->
<g id="edge50" class="edge">
<title>Node21&#45;&gt;Node30</title>
<path fill="none" stroke="#191970" d="M977.6631,-168.2455C977.6631,-160.9382 977.6631,-150.6944 977.6631,-141.7046"/>
<polygon fill="#191970" stroke="#191970" points="981.1632,-141.6426 977.6631,-131.6427 974.1632,-141.6427 981.1632,-141.6426"/>
</g>
<!-- Node31&#45;&gt;Node5 -->
<g id="edge53" class="edge">
<title>Node31&#45;&gt;Node5</title>
<path fill="none" stroke="#191970" d="M362.5501,-56.3733C343.8527,-47.4241 315.7887,-33.9917 294.6697,-23.8835"/>
<polygon fill="#191970" stroke="#191970" points="296.0448,-20.6614 285.5136,-19.5011 293.0226,-26.9755 296.0448,-20.6614"/>
</g>
</g>
</svg>
