<?xml version="1.0" encoding="UTF-8" standalone="no"?>
<!DOCTYPE svg PUBLIC "-//W3C//DTD SVG 1.1//EN"
 "http://www.w3.org/Graphics/SVG/1.1/DTD/svg11.dtd">
<!-- Generated by graphviz version 2.40.1 (20161225.0304)
 -->
<!-- Title: src/generator/plain_wave_model.hh Pages: 1 -->
<svg width="403pt" height="285pt"
 viewBox="0.00 0.00 403.00 285.00" xmlns="http://www.w3.org/2000/svg" xmlns:xlink="http://www.w3.org/1999/xlink">
<g id="graph0" class="graph" transform="scale(1 1) rotate(0) translate(4 281)">
<title>src/generator/plain_wave_model.hh</title>
<!-- Node30 -->
<g id="node1" class="node">
<title>Node30</title>
<polygon fill="#bfbfbf" stroke="#000000" points="186,-246.5 186,-276.5 283,-276.5 283,-246.5 186,-246.5"/>
<text text-anchor="start" x="194" y="-264.5" font-family="Helvetica,sans-Serif" font-size="10.00" fill="#000000">src/generator/plain</text>
<text text-anchor="middle" x="234.5" y="-253.5" font-family="Helvetica,sans-Serif" font-size="10.00" fill="#000000">_wave_model.hh</text>
</g>
<!-- Node31 -->
<g id="node2" class="node">
<title>Node31</title>
<g id="a_node2"><a xlink:href="register__all_8hh.html" target="_top" xlink:title="src/register_all.hh">
<polygon fill="none" stroke="#000000" points="114.5,-118 114.5,-137 208.5,-137 208.5,-118 114.5,-118"/>
<text text-anchor="middle" x="161.5" y="-125" font-family="Helvetica,sans-Serif" font-size="10.00" fill="#000000">src/register_all.hh</text>
</a>
</g>
</g>
<!-- Node30&#45;&gt;Node31 -->
<g id="edge1" class="edge">
<title>Node30&#45;&gt;Node31</title>
<path fill="none" stroke="#191970" d="M205.7047,-239.7791C196.4033,-231.4167 186.8614,-221.1693 180.5,-210 166.8976,-186.117 163.0293,-153.1048 161.9323,-137.0443"/>
<polygon fill="#191970" stroke="#191970" points="203.5089,-242.5065 213.3863,-246.3389 208.0547,-237.1833 203.5089,-242.5065"/>
</g>
<!-- Node36 -->
<g id="node7" class="node">
<title>Node36</title>
<g id="a_node7"><a xlink:href="plain__wave__solver_8hh.html" target="_top" xlink:title="src/velocity/plain\l_wave_solver.hh">
<polygon fill="none" stroke="#000000" points="189.5,-179.5 189.5,-209.5 279.5,-209.5 279.5,-179.5 189.5,-179.5"/>
<text text-anchor="start" x="197.5" y="-197.5" font-family="Helvetica,sans-Serif" font-size="10.00" fill="#000000">src/velocity/plain</text>
<text text-anchor="middle" x="234.5" y="-186.5" font-family="Helvetica,sans-Serif" font-size="10.00" fill="#000000">_wave_solver.hh</text>
</a>
</g>
</g>
<!-- Node30&#45;&gt;Node36 -->
<g id="edge6" class="edge">
<title>Node30&#45;&gt;Node36</title>
<path fill="none" stroke="#191970" d="M234.5,-236.0249C234.5,-227.128 234.5,-217.4287 234.5,-209.6432"/>
<polygon fill="#191970" stroke="#191970" points="231.0001,-236.2966 234.5,-246.2967 238.0001,-236.2967 231.0001,-236.2966"/>
</g>
<!-- Node38 -->
<g id="node9" class="node">
<title>Node38</title>
<g id="a_node9"><a xlink:href="plain__wave__model_8cc.html" target="_top" xlink:title="src/generator/plain\l_wave_model.cc">
<polygon fill="none" stroke="#000000" points="298,-179.5 298,-209.5 395,-209.5 395,-179.5 298,-179.5"/>
<text text-anchor="start" x="306" y="-197.5" font-family="Helvetica,sans-Serif" font-size="10.00" fill="#000000">src/generator/plain</text>
<text text-anchor="middle" x="346.5" y="-186.5" font-family="Helvetica,sans-Serif" font-size="10.00" fill="#000000">_wave_model.cc</text>
</a>
</g>
</g>
<!-- Node30&#45;&gt;Node38 -->
<g id="edge9" class="edge">
<title>Node30&#45;&gt;Node38</title>
<path fill="none" stroke="#191970" d="M268.6415,-241.0761C285.5228,-230.9774 305.5475,-218.9983 321.0614,-209.7177"/>
<polygon fill="#191970" stroke="#191970" points="266.4199,-238.3266 259.635,-246.4639 270.0135,-244.3338 266.4199,-238.3266"/>
</g>
<!-- Node32 -->
<g id="node3" class="node">
<title>Node32</title>
<g id="a_node3"><a xlink:href="common__main_8hh.html" target="_top" xlink:title="src/common_main.hh">
<polygon fill="none" stroke="#000000" points="52.5,-56.5 52.5,-75.5 162.5,-75.5 162.5,-56.5 52.5,-56.5"/>
<text text-anchor="middle" x="107.5" y="-63.5" font-family="Helvetica,sans-Serif" font-size="10.00" fill="#000000">src/common_main.hh</text>
</a>
</g>
</g>
<!-- Node31&#45;&gt;Node32 -->
<g id="edge2" class="edge">
<title>Node31&#45;&gt;Node32</title>
<path fill="none" stroke="#191970" d="M146.1995,-110.0744C136.4332,-98.9517 124.135,-84.9454 116.0565,-75.7449"/>
<polygon fill="#191970" stroke="#191970" points="143.8344,-112.6855 153.0625,-117.8906 149.0945,-108.0669 143.8344,-112.6855"/>
</g>
<!-- Node35 -->
<g id="node6" class="node">
<title>Node35</title>
<g id="a_node6"><a xlink:href="visual_8cc.html" target="_top" xlink:title="src/visual.cc">
<polygon fill="none" stroke="#000000" points="180.5,-56.5 180.5,-75.5 252.5,-75.5 252.5,-56.5 180.5,-56.5"/>
<text text-anchor="middle" x="216.5" y="-63.5" font-family="Helvetica,sans-Serif" font-size="10.00" fill="#000000">src/visual.cc</text>
</a>
</g>
</g>
<!-- Node31&#45;&gt;Node35 -->
<g id="edge5" class="edge">
<title>Node31&#45;&gt;Node35</title>
<path fill="none" stroke="#191970" d="M176.792,-110.4007C186.785,-99.2268 199.4763,-85.0356 207.7851,-75.7449"/>
<polygon fill="#191970" stroke="#191970" points="174.1511,-108.1034 170.0938,-117.8906 179.3689,-112.7698 174.1511,-108.1034"/>
</g>
<!-- Node33 -->
<g id="node4" class="node">
<title>Node33</title>
<g id="a_node4"><a xlink:href="arma__main_8cc.html" target="_top" xlink:title="src/arma_main.cc">
<polygon fill="none" stroke="#000000" points="0,-.5 0,-19.5 95,-19.5 95,-.5 0,-.5"/>
<text text-anchor="middle" x="47.5" y="-7.5" font-family="Helvetica,sans-Serif" font-size="10.00" fill="#000000">src/arma_main.cc</text>
</a>
</g>
</g>
<!-- Node32&#45;&gt;Node33 -->
<g id="edge3" class="edge">
<title>Node32&#45;&gt;Node33</title>
<path fill="none" stroke="#191970" d="M89.6722,-49.3607C79.2922,-39.6727 66.5709,-27.7995 57.8314,-19.6427"/>
<polygon fill="#191970" stroke="#191970" points="87.3501,-51.981 97.0488,-56.2455 92.1263,-46.8636 87.3501,-51.981"/>
</g>
<!-- Node34 -->
<g id="node5" class="node">
<title>Node34</title>
<g id="a_node5"><a xlink:href="arma__realtime_8cc.html" target="_top" xlink:title="src/arma_realtime.cc">
<polygon fill="none" stroke="#000000" points="113.5,-.5 113.5,-19.5 221.5,-19.5 221.5,-.5 113.5,-.5"/>
<text text-anchor="middle" x="167.5" y="-7.5" font-family="Helvetica,sans-Serif" font-size="10.00" fill="#000000">src/arma_realtime.cc</text>
</a>
</g>
</g>
<!-- Node32&#45;&gt;Node34 -->
<g id="edge4" class="edge">
<title>Node32&#45;&gt;Node34</title>
<path fill="none" stroke="#191970" d="M125.3278,-49.3607C135.7078,-39.6727 148.4291,-27.7995 157.1686,-19.6427"/>
<polygon fill="#191970" stroke="#191970" points="122.8737,-46.8636 117.9512,-56.2455 127.6499,-51.981 122.8737,-46.8636"/>
</g>
<!-- Node36&#45;&gt;Node31 -->
<g id="edge7" class="edge">
<title>Node36&#45;&gt;Node31</title>
<path fill="none" stroke="#191970" d="M210.2065,-172.2032C197.1974,-160.2634 181.8503,-146.1776 171.9106,-137.055"/>
<polygon fill="#191970" stroke="#191970" points="208.2011,-175.1134 217.9352,-179.2967 212.9344,-169.9562 208.2011,-175.1134"/>
</g>
<!-- Node37 -->
<g id="node8" class="node">
<title>Node37</title>
<g id="a_node8"><a xlink:href="plain__wave__solver_8cc.html" target="_top" xlink:title="src/velocity/plain\l_wave_solver.cc">
<polygon fill="none" stroke="#000000" points="226.5,-112.5 226.5,-142.5 316.5,-142.5 316.5,-112.5 226.5,-112.5"/>
<text text-anchor="start" x="234.5" y="-130.5" font-family="Helvetica,sans-Serif" font-size="10.00" fill="#000000">src/velocity/plain</text>
<text text-anchor="middle" x="271.5" y="-119.5" font-family="Helvetica,sans-Serif" font-size="10.00" fill="#000000">_wave_solver.cc</text>
</a>
</g>
</g>
<!-- Node36&#45;&gt;Node37 -->
<g id="edge8" class="edge">
<title>Node36&#45;&gt;Node37</title>
<path fill="none" stroke="#191970" d="M247.7627,-170.4837C252.8897,-161.1996 258.6016,-150.8565 263.1374,-142.6432"/>
<polygon fill="#191970" stroke="#191970" points="244.6663,-168.8508 242.8959,-179.2967 250.794,-172.2348 244.6663,-168.8508"/>
</g>
</g>
</svg>
