<?xml version="1.0" encoding="UTF-8" standalone="no"?>
<!DOCTYPE svg PUBLIC "-//W3C//DTD SVG 1.1//EN"
 "http://www.w3.org/Graphics/SVG/1.1/DTD/svg11.dtd">
<!-- Generated by graphviz version 2.40.1 (20161225.0304)
 -->
<!-- Title: src/generator/plain_wave_profile.cc Pages: 1 -->
<svg width="258pt" height="151pt"
 viewBox="0.00 0.00 258.00 151.00" xmlns="http://www.w3.org/2000/svg" xmlns:xlink="http://www.w3.org/1999/xlink">
<g id="graph0" class="graph" transform="scale(1 1) rotate(0) translate(4 147)">
<title>src/generator/plain_wave_profile.cc</title>
<!-- Node0 -->
<g id="node1" class="node">
<title>Node0</title>
<polygon fill="#bfbfbf" stroke="#000000" points="107,-112.5 107,-142.5 204,-142.5 204,-112.5 107,-112.5"/>
<text text-anchor="start" x="115" y="-130.5" font-family="Helvetica,sans-Serif" font-size="10.00" fill="#000000">src/generator/plain</text>
<text text-anchor="middle" x="155.5" y="-119.5" font-family="Helvetica,sans-Serif" font-size="10.00" fill="#000000">_wave_profile.cc</text>
</g>
<!-- Node1 -->
<g id="node2" class="node">
<title>Node1</title>
<g id="a_node2"><a xlink:href="plain__wave__profile_8hh.html" target="_top" xlink:title="plain_wave_profile.hh">
<polygon fill="none" stroke="#000000" points=".5,-56.5 .5,-75.5 110.5,-75.5 110.5,-56.5 .5,-56.5"/>
<text text-anchor="middle" x="55.5" y="-63.5" font-family="Helvetica,sans-Serif" font-size="10.00" fill="#000000">plain_wave_profile.hh</text>
</a>
</g>
</g>
<!-- Node0&#45;&gt;Node1 -->
<g id="edge1" class="edge">
<title>Node0&#45;&gt;Node1</title>
<path fill="none" stroke="#191970" d="M131.0372,-112.4554C115.3765,-102.8241 95.1468,-90.3828 79.5644,-80.7996"/>
<polygon fill="#191970" stroke="#191970" points="81.348,-77.7876 70.9965,-75.5303 77.681,-83.7503 81.348,-77.7876"/>
</g>
<!-- Node4 -->
<g id="node5" class="node">
<title>Node4</title>
<polygon fill="none" stroke="#bfbfbf" points="128.5,-56.5 128.5,-75.5 182.5,-75.5 182.5,-56.5 128.5,-56.5"/>
<text text-anchor="middle" x="155.5" y="-63.5" font-family="Helvetica,sans-Serif" font-size="10.00" fill="#000000">iostream</text>
</g>
<!-- Node0&#45;&gt;Node4 -->
<g id="edge4" class="edge">
<title>Node0&#45;&gt;Node4</title>
<path fill="none" stroke="#191970" d="M155.5,-112.2977C155.5,-104.3834 155.5,-94.6043 155.5,-86.0759"/>
<polygon fill="#191970" stroke="#191970" points="159.0001,-85.8469 155.5,-75.8469 152.0001,-85.847 159.0001,-85.8469"/>
</g>
<!-- Node5 -->
<g id="node6" class="node">
<title>Node5</title>
<polygon fill="none" stroke="#bfbfbf" points="201,-56.5 201,-75.5 250,-75.5 250,-56.5 201,-56.5"/>
<text text-anchor="middle" x="225.5" y="-63.5" font-family="Helvetica,sans-Serif" font-size="10.00" fill="#000000">istream</text>
</g>
<!-- Node0&#45;&gt;Node5 -->
<g id="edge5" class="edge">
<title>Node0&#45;&gt;Node5</title>
<path fill="none" stroke="#191970" d="M172.8034,-112.2977C183.0262,-103.3163 195.9823,-91.9334 206.4896,-82.702"/>
<polygon fill="#191970" stroke="#191970" points="209.0897,-85.0766 214.2921,-75.8469 204.4695,-79.8178 209.0897,-85.0766"/>
</g>
<!-- Node2 -->
<g id="node3" class="node">
<title>Node2</title>
<polygon fill="none" stroke="#bfbfbf" points="0,-.5 0,-19.5 45,-19.5 45,-.5 0,-.5"/>
<text text-anchor="middle" x="22.5" y="-7.5" font-family="Helvetica,sans-Serif" font-size="10.00" fill="#000000">iosfwd</text>
</g>
<!-- Node1&#45;&gt;Node2 -->
<g id="edge2" class="edge">
<title>Node1&#45;&gt;Node2</title>
<path fill="none" stroke="#191970" d="M49.7518,-56.2455C45.2565,-48.617 38.8752,-37.7881 33.4175,-28.5267"/>
<polygon fill="#191970" stroke="#191970" points="36.2747,-26.4811 28.1823,-19.6427 30.2439,-30.035 36.2747,-26.4811"/>
</g>
<!-- Node3 -->
<g id="node4" class="node">
<title>Node3</title>
<polygon fill="none" stroke="#bfbfbf" points="63.5,-.5 63.5,-19.5 115.5,-19.5 115.5,-.5 63.5,-.5"/>
<text text-anchor="middle" x="89.5" y="-7.5" font-family="Helvetica,sans-Serif" font-size="10.00" fill="#000000">ostream</text>
</g>
<!-- Node1&#45;&gt;Node3 -->
<g id="edge3" class="edge">
<title>Node1&#45;&gt;Node3</title>
<path fill="none" stroke="#191970" d="M61.4223,-56.2455C66.1027,-48.5367 72.7673,-37.5598 78.4289,-28.2348"/>
<polygon fill="#191970" stroke="#191970" points="81.4475,-30.007 83.6455,-19.6427 75.4639,-26.3741 81.4475,-30.007"/>
</g>
</g>
</svg>
