<?xml version="1.0" encoding="UTF-8" standalone="no"?>
<!DOCTYPE svg PUBLIC "-//W3C//DTD SVG 1.1//EN"
 "http://www.w3.org/Graphics/SVG/1.1/DTD/svg11.dtd">
<!-- Generated by graphviz version 2.36.0 (20140111.2315)
 -->
<!-- Title: /home/travis/build/igankevich/arma/src/generator/plain_wave_model.cc Pages: 1 -->
<svg width="1788pt" height="398pt"
 viewBox="0.00 0.00 1788.00 398.00" xmlns="http://www.w3.org/2000/svg" xmlns:xlink="http://www.w3.org/1999/xlink">
<g id="graph0" class="graph" transform="scale(1 1) rotate(0) translate(4 394)">
<title>/home/travis/build/igankevich/arma/src/generator/plain_wave_model.cc</title>
<!-- Node1 -->
<g id="node1" class="node"><title>Node1</title>
<polygon fill="#bfbfbf" stroke="black" points="1271,-337 1271,-389 1383,-389 1383,-337 1271,-337"/>
<text text-anchor="start" x="1279" y="-377" font-family="Helvetica,sans-Serif" font-size="10.00">/home/travis/build</text>
<text text-anchor="start" x="1279" y="-366" font-family="Helvetica,sans-Serif" font-size="10.00">/igankevich/arma/src</text>
<text text-anchor="start" x="1279" y="-355" font-family="Helvetica,sans-Serif" font-size="10.00">/generator/plain_wave</text>
<text text-anchor="middle" x="1327" y="-344" font-family="Helvetica,sans-Serif" font-size="10.00">_model.cc</text>
</g>
<!-- Node2 -->
<g id="node2" class="node"><title>Node2</title>
<g id="a_node2"><a xlink:href="plain__wave__model_8hh.html" target="_top" xlink:title="plain_wave_model.hh">
<polygon fill="none" stroke="black" points="814,-280.5 814,-299.5 924,-299.5 924,-280.5 814,-280.5"/>
<text text-anchor="middle" x="869" y="-287.5" font-family="Helvetica,sans-Serif" font-size="10.00">plain_wave_model.hh</text>
</a>
</g>
</g>
<!-- Node1&#45;&gt;Node2 -->
<g id="edge1" class="edge"><title>Node1&#45;&gt;Node2</title>
<path fill="none" stroke="midnightblue" d="M1270.84,-353.294C1185.62,-340.084 1024.07,-315.039 933.928,-301.065"/>
<polygon fill="midnightblue" stroke="midnightblue" points="934.251,-297.574 923.833,-299.5 933.179,-304.491 934.251,-297.574"/>
</g>
<!-- Node10 -->
<g id="node10" class="node"><title>Node10</title>
<g id="a_node10"><a xlink:href="validators_8hh.html" target="_top" xlink:title="validators.hh">
<polygon fill="none" stroke="black" points="1091,-112.5 1091,-131.5 1163,-131.5 1163,-112.5 1091,-112.5"/>
<text text-anchor="middle" x="1127" y="-119.5" font-family="Helvetica,sans-Serif" font-size="10.00">validators.hh</text>
</a>
</g>
</g>
<!-- Node1&#45;&gt;Node10 -->
<g id="edge44" class="edge"><title>Node1&#45;&gt;Node10</title>
<path fill="none" stroke="midnightblue" d="M1293.8,-336.805C1254.79,-305.668 1190.41,-249.245 1151,-188 1141.74,-173.616 1135.37,-155.159 1131.52,-141.59"/>
<polygon fill="midnightblue" stroke="midnightblue" points="1134.81,-140.323 1128.89,-131.539 1128.04,-142.1 1134.81,-140.323"/>
</g>
<!-- Node11 -->
<g id="node11" class="node"><title>Node11</title>
<polygon fill="none" stroke="#bfbfbf" points="172.5,-56.5 172.5,-75.5 231.5,-75.5 231.5,-56.5 172.5,-56.5"/>
<text text-anchor="middle" x="202" y="-63.5" font-family="Helvetica,sans-Serif" font-size="10.00">stdexcept</text>
</g>
<!-- Node1&#45;&gt;Node11 -->
<g id="edge58" class="edge"><title>Node1&#45;&gt;Node11</title>
<path fill="none" stroke="midnightblue" d="M1270.83,-359.618C1018.25,-348.543 0,-299.874 0,-235 0,-235 0,-235 0,-177 0,-103.92 103.236,-79.1107 162.103,-70.9046"/>
<polygon fill="midnightblue" stroke="midnightblue" points="162.726,-74.3533 172.194,-69.5992 161.828,-67.4111 162.726,-74.3533"/>
</g>
<!-- Node13 -->
<g id="node13" class="node"><title>Node13</title>
<polygon fill="none" stroke="#bfbfbf" points="1343,-0.5 1343,-19.5 1387,-19.5 1387,-0.5 1343,-0.5"/>
<text text-anchor="middle" x="1365" y="-7.5" font-family="Helvetica,sans-Serif" font-size="10.00">cmath</text>
</g>
<!-- Node1&#45;&gt;Node13 -->
<g id="edge61" class="edge"><title>Node1&#45;&gt;Node13</title>
<path fill="none" stroke="midnightblue" d="M1374.96,-336.776C1390.05,-326.953 1405.71,-314.532 1417,-300 1435.9,-275.684 1441,-265.795 1441,-235 1441,-235 1441,-235 1441,-177 1441,-123.039 1458.16,-102.628 1431,-56 1422.89,-42.0764 1408.55,-31.5221 1395.3,-24.1468"/>
<polygon fill="midnightblue" stroke="midnightblue" points="1396.88,-21.0258 1386.39,-19.5463 1393.67,-27.2452 1396.88,-21.0258"/>
</g>
<!-- Node14 -->
<g id="node14" class="node"><title>Node14</title>
<polygon fill="none" stroke="#bfbfbf" points="1200,-0.5 1200,-19.5 1256,-19.5 1256,-0.5 1200,-0.5"/>
<text text-anchor="middle" x="1228" y="-7.5" font-family="Helvetica,sans-Serif" font-size="10.00">algorithm</text>
</g>
<!-- Node1&#45;&gt;Node14 -->
<g id="edge57" class="edge"><title>Node1&#45;&gt;Node14</title>
<path fill="none" stroke="midnightblue" d="M1353.15,-336.892C1375.14,-312.983 1403,-274.827 1403,-235 1403,-235 1403,-235 1403,-177 1403,-112.568 1348.39,-117.384 1299,-76 1279.73,-59.8491 1258.58,-40.2285 1244.42,-26.7967"/>
<polygon fill="midnightblue" stroke="midnightblue" points="1246.61,-24.0478 1236.96,-19.6764 1241.78,-29.1121 1246.61,-24.0478"/>
</g>
<!-- Node19 -->
<g id="node19" class="node"><title>Node19</title>
<polygon fill="none" stroke="#bfbfbf" points="1469.5,-112.5 1469.5,-131.5 1510.5,-131.5 1510.5,-112.5 1469.5,-112.5"/>
<text text-anchor="middle" x="1490" y="-119.5" font-family="Helvetica,sans-Serif" font-size="10.00">string</text>
</g>
<!-- Node1&#45;&gt;Node19 -->
<g id="edge62" class="edge"><title>Node1&#45;&gt;Node19</title>
<path fill="none" stroke="midnightblue" d="M1383.27,-351.849C1473.75,-334.174 1644.64,-294.735 1676,-244 1716.01,-179.256 1583.48,-142.377 1520.9,-128.914"/>
<polygon fill="midnightblue" stroke="midnightblue" points="1521.29,-125.421 1510.79,-126.812 1519.86,-132.274 1521.29,-125.421"/>
</g>
<!-- Node25 -->
<g id="node25" class="node"><title>Node25</title>
<polygon fill="none" stroke="#bfbfbf" points="66,-112.5 66,-131.5 110,-131.5 110,-112.5 66,-112.5"/>
<text text-anchor="middle" x="88" y="-119.5" font-family="Helvetica,sans-Serif" font-size="10.00">vector</text>
</g>
<!-- Node1&#45;&gt;Node25 -->
<g id="edge59" class="edge"><title>Node1&#45;&gt;Node25</title>
<path fill="none" stroke="midnightblue" d="M1270.73,-357.201C1174.76,-348.597 973.457,-328.72 805,-300 692.327,-280.79 665.137,-270.697 554,-244 363.106,-198.143 313.195,-185.155 120.225,-132.283"/>
<polygon fill="midnightblue" stroke="midnightblue" points="120.897,-128.838 110.328,-129.571 119.047,-135.589 120.897,-128.838"/>
</g>
<!-- Node31 -->
<g id="node31" class="node"><title>Node31</title>
<g id="a_node31"><a xlink:href="params_8hh.html" target="_top" xlink:title="params.hh">
<polygon fill="none" stroke="black" points="1494,-280.5 1494,-299.5 1556,-299.5 1556,-280.5 1494,-280.5"/>
<text text-anchor="middle" x="1525" y="-287.5" font-family="Helvetica,sans-Serif" font-size="10.00">params.hh</text>
</a>
</g>
</g>
<!-- Node1&#45;&gt;Node31 -->
<g id="edge45" class="edge"><title>Node1&#45;&gt;Node31</title>
<path fill="none" stroke="midnightblue" d="M1383.21,-341.844C1418.24,-329.284 1462.11,-313.55 1491.71,-302.938"/>
<polygon fill="midnightblue" stroke="midnightblue" points="1492.93,-306.218 1501.16,-299.548 1490.57,-299.629 1492.93,-306.218"/>
</g>
<!-- Node34 -->
<g id="node34" class="node"><title>Node34</title>
<g id="a_node34"><a xlink:href="domain_8hh.html" target="_top" xlink:title="domain.hh">
<polygon fill="none" stroke="black" points="1160,-168.5 1160,-187.5 1222,-187.5 1222,-168.5 1160,-168.5"/>
<text text-anchor="middle" x="1191" y="-175.5" font-family="Helvetica,sans-Serif" font-size="10.00">domain.hh</text>
</a>
</g>
</g>
<!-- Node1&#45;&gt;Node34 -->
<g id="edge49" class="edge"><title>Node1&#45;&gt;Node34</title>
<path fill="none" stroke="midnightblue" d="M1308.37,-336.938C1280.3,-299.162 1227.87,-228.607 1203.74,-196.146"/>
<polygon fill="midnightblue" stroke="midnightblue" points="1206.25,-193.653 1197.48,-187.715 1200.63,-197.829 1206.25,-193.653"/>
</g>
<!-- Node36 -->
<g id="node36" class="node"><title>Node36</title>
<polygon fill="none" stroke="#bfbfbf" points="1287,-112.5 1287,-131.5 1337,-131.5 1337,-112.5 1287,-112.5"/>
<text text-anchor="middle" x="1312" y="-119.5" font-family="Helvetica,sans-Serif" font-size="10.00">iomanip</text>
</g>
<!-- Node1&#45;&gt;Node36 -->
<g id="edge60" class="edge"><title>Node1&#45;&gt;Node36</title>
<path fill="none" stroke="midnightblue" d="M1325.42,-336.875C1322.41,-288.79 1315.87,-184.733 1313.19,-141.953"/>
<polygon fill="midnightblue" stroke="midnightblue" points="1316.67,-141.583 1312.55,-131.822 1309.69,-142.022 1316.67,-141.583"/>
</g>
<!-- Node37 -->
<g id="node37" class="node"><title>Node37</title>
<g id="a_node37"><a xlink:href="profile_8hh.html" target="_top" xlink:title="profile.hh">
<polygon fill="none" stroke="black" points="1724,-280.5 1724,-299.5 1780,-299.5 1780,-280.5 1724,-280.5"/>
<text text-anchor="middle" x="1752" y="-287.5" font-family="Helvetica,sans-Serif" font-size="10.00">profile.hh</text>
</a>
</g>
</g>
<!-- Node1&#45;&gt;Node37 -->
<g id="edge56" class="edge"><title>Node1&#45;&gt;Node37</title>
<path fill="none" stroke="midnightblue" d="M1383.29,-353.799C1458.1,-342.692 1594.32,-321.744 1710,-300 1711.24,-299.768 1712.49,-299.527 1713.76,-299.279"/>
<polygon fill="midnightblue" stroke="midnightblue" points="1714.46,-302.708 1723.57,-297.295 1713.08,-295.847 1714.46,-302.708"/>
</g>
<!-- Node3 -->
<g id="node3" class="node"><title>Node3</title>
<polygon fill="none" stroke="#bfbfbf" points="814.5,-112.5 814.5,-131.5 863.5,-131.5 863.5,-112.5 814.5,-112.5"/>
<text text-anchor="middle" x="839" y="-119.5" font-family="Helvetica,sans-Serif" font-size="10.00">istream</text>
</g>
<!-- Node2&#45;&gt;Node3 -->
<g id="edge2" class="edge"><title>Node2&#45;&gt;Node3</title>
<path fill="none" stroke="midnightblue" d="M867.387,-280.075C862.665,-253.945 848.797,-177.211 842.357,-141.577"/>
<polygon fill="midnightblue" stroke="midnightblue" points="845.771,-140.786 840.548,-131.568 838.883,-142.031 845.771,-140.786"/>
</g>
<!-- Node4 -->
<g id="node4" class="node"><title>Node4</title>
<polygon fill="none" stroke="#bfbfbf" points="1021,-112.5 1021,-131.5 1073,-131.5 1073,-112.5 1021,-112.5"/>
<text text-anchor="middle" x="1047" y="-119.5" font-family="Helvetica,sans-Serif" font-size="10.00">ostream</text>
</g>
<!-- Node2&#45;&gt;Node4 -->
<g id="edge3" class="edge"><title>Node2&#45;&gt;Node4</title>
<path fill="none" stroke="midnightblue" d="M886.899,-280.457C916.808,-265.423 977.364,-231.651 1015,-188 1026.91,-174.184 1035.6,-155.16 1040.89,-141.264"/>
<polygon fill="midnightblue" stroke="midnightblue" points="1044.2,-142.402 1044.27,-131.808 1037.61,-140.045 1044.2,-142.402"/>
</g>
<!-- Node5 -->
<g id="node5" class="node"><title>Node5</title>
<g id="a_node5"><a xlink:href="types_8hh.html" target="_top" xlink:title="types.hh">
<polygon fill="none" stroke="black" points="397,-168.5 397,-187.5 451,-187.5 451,-168.5 397,-168.5"/>
<text text-anchor="middle" x="424" y="-175.5" font-family="Helvetica,sans-Serif" font-size="10.00">types.hh</text>
</a>
</g>
</g>
<!-- Node2&#45;&gt;Node5 -->
<g id="edge4" class="edge"><title>Node2&#45;&gt;Node5</title>
<path fill="none" stroke="midnightblue" d="M813.572,-280.97C763.618,-273.224 688.353,-260.291 624,-244 563.928,-228.793 495.599,-205.179 456.367,-190.99"/>
<polygon fill="midnightblue" stroke="midnightblue" points="457.402,-187.642 446.807,-187.51 455.007,-194.22 457.402,-187.642"/>
</g>
<!-- Node7 -->
<g id="node7" class="node"><title>Node7</title>
<g id="a_node7"><a xlink:href="discrete__function_8hh.html" target="_top" xlink:title="discrete_function.hh">
<polygon fill="none" stroke="black" points="633,-224.5 633,-243.5 737,-243.5 737,-224.5 633,-224.5"/>
<text text-anchor="middle" x="685" y="-231.5" font-family="Helvetica,sans-Serif" font-size="10.00">discrete_function.hh</text>
</a>
</g>
</g>
<!-- Node2&#45;&gt;Node7 -->
<g id="edge6" class="edge"><title>Node2&#45;&gt;Node7</title>
<path fill="none" stroke="midnightblue" d="M839.845,-280.444C808.487,-271.241 758.469,-256.562 723.803,-246.388"/>
<polygon fill="midnightblue" stroke="midnightblue" points="724.6,-242.974 714.019,-243.516 722.629,-249.691 724.6,-242.974"/>
</g>
<!-- Node15 -->
<g id="node15" class="node"><title>Node15</title>
<g id="a_node15"><a xlink:href="basic__model_8hh.html" target="_top" xlink:title="basic_model.hh">
<polygon fill="none" stroke="black" points="755.5,-224.5 755.5,-243.5 840.5,-243.5 840.5,-224.5 755.5,-224.5"/>
<text text-anchor="middle" x="798" y="-231.5" font-family="Helvetica,sans-Serif" font-size="10.00">basic_model.hh</text>
</a>
</g>
</g>
<!-- Node2&#45;&gt;Node15 -->
<g id="edge18" class="edge"><title>Node2&#45;&gt;Node15</title>
<path fill="none" stroke="midnightblue" d="M857.593,-280.324C846.891,-272.185 830.659,-259.839 817.837,-250.087"/>
<polygon fill="midnightblue" stroke="midnightblue" points="819.693,-247.102 809.615,-243.834 815.456,-252.673 819.693,-247.102"/>
</g>
<!-- Node30 -->
<g id="node30" class="node"><title>Node30</title>
<g id="a_node30"><a xlink:href="physical__constants_8hh.html" target="_top" xlink:title="physical_constants.hh">
<polygon fill="none" stroke="black" points="1308,-56.5 1308,-75.5 1422,-75.5 1422,-56.5 1308,-56.5"/>
<text text-anchor="middle" x="1365" y="-63.5" font-family="Helvetica,sans-Serif" font-size="10.00">physical_constants.hh</text>
</a>
</g>
</g>
<!-- Node2&#45;&gt;Node30 -->
<g id="edge42" class="edge"><title>Node2&#45;&gt;Node30</title>
<path fill="none" stroke="midnightblue" d="M908.19,-280.44C975.257,-265.263 1115.85,-231.133 1230,-188 1283.55,-167.764 1309,-175.686 1346,-132 1357.03,-118.974 1361.66,-99.8163 1363.6,-85.6715"/>
<polygon fill="midnightblue" stroke="midnightblue" points="1367.1,-85.925 1364.65,-75.6153 1360.13,-85.1971 1367.1,-85.925"/>
</g>
<!-- Node6 -->
<g id="node6" class="node"><title>Node6</title>
<polygon fill="none" stroke="#bfbfbf" points="898,-0.5 898,-19.5 966,-19.5 966,-0.5 898,-0.5"/>
<text text-anchor="middle" x="932" y="-7.5" font-family="Helvetica,sans-Serif" font-size="10.00">blitz/array.h</text>
</g>
<!-- Node5&#45;&gt;Node6 -->
<g id="edge5" class="edge"><title>Node5&#45;&gt;Node6</title>
<path fill="none" stroke="midnightblue" d="M396.914,-175.712C315.877,-171.586 79.5192,-157.449 57,-132 51.1095,-125.343 52.4118,-119.613 57,-112 84.5027,-66.3654 111.681,-70.3269 163,-56 300.76,-17.541 745.168,-11.9344 887.62,-11.1304"/>
<polygon fill="midnightblue" stroke="midnightblue" points="887.756,-14.6299 897.737,-11.0786 887.72,-7.62995 887.756,-14.6299"/>
</g>
<!-- Node7&#45;&gt;Node5 -->
<g id="edge7" class="edge"><title>Node7&#45;&gt;Node5</title>
<path fill="none" stroke="midnightblue" d="M639.186,-224.499C595.761,-216.293 528.473,-203.196 461.041,-188.153"/>
<polygon fill="midnightblue" stroke="midnightblue" points="461.618,-184.696 451.094,-185.92 460.084,-191.526 461.618,-184.696"/>
</g>
<!-- Node8 -->
<g id="node8" class="node"><title>Node8</title>
<g id="a_node8"><a xlink:href="grid_8hh.html" target="_top" xlink:title="grid.hh">
<polygon fill="none" stroke="black" points="749,-168.5 749,-187.5 795,-187.5 795,-168.5 749,-168.5"/>
<text text-anchor="middle" x="772" y="-175.5" font-family="Helvetica,sans-Serif" font-size="10.00">grid.hh</text>
</a>
</g>
</g>
<!-- Node7&#45;&gt;Node8 -->
<g id="edge8" class="edge"><title>Node7&#45;&gt;Node8</title>
<path fill="none" stroke="midnightblue" d="M698.978,-224.324C712.55,-215.9 733.38,-202.971 749.325,-193.074"/>
<polygon fill="midnightblue" stroke="midnightblue" points="751.406,-195.902 758.057,-187.655 747.714,-189.954 751.406,-195.902"/>
</g>
<!-- Node8&#45;&gt;Node3 -->
<g id="edge10" class="edge"><title>Node8&#45;&gt;Node3</title>
<path fill="none" stroke="midnightblue" d="M782.765,-168.324C792.766,-160.263 807.887,-148.077 819.93,-138.369"/>
<polygon fill="midnightblue" stroke="midnightblue" points="822.45,-140.834 828.039,-131.834 818.057,-135.384 822.45,-140.834"/>
</g>
<!-- Node8&#45;&gt;Node6 -->
<g id="edge11" class="edge"><title>Node8&#45;&gt;Node6</title>
<path fill="none" stroke="midnightblue" d="M760.931,-168.488C746.056,-155.977 722.813,-131.944 735,-112 768.141,-57.7667 840.668,-31.4548 887.868,-19.6217"/>
<polygon fill="midnightblue" stroke="midnightblue" points="888.91,-22.9715 897.824,-17.2454 887.284,-16.1628 888.91,-22.9715"/>
</g>
<!-- Node9 -->
<g id="node9" class="node"><title>Node9</title>
<polygon fill="none" stroke="#bfbfbf" points="744,-112.5 744,-131.5 796,-131.5 796,-112.5 744,-112.5"/>
<text text-anchor="middle" x="770" y="-119.5" font-family="Helvetica,sans-Serif" font-size="10.00">stddef.h</text>
</g>
<!-- Node8&#45;&gt;Node9 -->
<g id="edge9" class="edge"><title>Node8&#45;&gt;Node9</title>
<path fill="none" stroke="midnightblue" d="M771.67,-168.083C771.408,-161.006 771.032,-150.861 770.703,-141.986"/>
<polygon fill="midnightblue" stroke="midnightblue" points="774.192,-141.615 770.324,-131.751 767.197,-141.874 774.192,-141.615"/>
</g>
<!-- Node8&#45;&gt;Node10 -->
<g id="edge12" class="edge"><title>Node8&#45;&gt;Node10</title>
<path fill="none" stroke="midnightblue" d="M795.011,-174.086C845.032,-167.661 967.618,-151.427 1080.49,-132.186"/>
<polygon fill="midnightblue" stroke="midnightblue" points="1081.42,-135.578 1090.68,-130.436 1080.23,-128.679 1081.42,-135.578"/>
</g>
<!-- Node10&#45;&gt;Node11 -->
<g id="edge13" class="edge"><title>Node10&#45;&gt;Node11</title>
<path fill="none" stroke="midnightblue" d="M1090.73,-113.271C1087.78,-112.789 1084.85,-112.355 1082,-112 759.714,-71.7507 366.726,-67.3109 241.98,-66.9678"/>
<polygon fill="midnightblue" stroke="midnightblue" points="241.772,-63.4674 231.765,-66.9474 241.758,-70.4674 241.772,-63.4674"/>
</g>
<!-- Node12 -->
<g id="node12" class="node"><title>Node12</title>
<g id="a_node12"><a xlink:href="blitz_8hh.html" target="_top" xlink:title="blitz.hh">
<polygon fill="none" stroke="black" points="1204,-56.5 1204,-75.5 1252,-75.5 1252,-56.5 1204,-56.5"/>
<text text-anchor="middle" x="1228" y="-63.5" font-family="Helvetica,sans-Serif" font-size="10.00">blitz.hh</text>
</a>
</g>
</g>
<!-- Node10&#45;&gt;Node12 -->
<g id="edge14" class="edge"><title>Node10&#45;&gt;Node12</title>
<path fill="none" stroke="midnightblue" d="M1143.23,-112.324C1159.35,-103.703 1184.3,-90.3643 1202.96,-80.3855"/>
<polygon fill="midnightblue" stroke="midnightblue" points="1204.64,-83.456 1211.81,-75.6545 1201.34,-77.283 1204.64,-83.456"/>
</g>
<!-- Node12&#45;&gt;Node6 -->
<g id="edge17" class="edge"><title>Node12&#45;&gt;Node6</title>
<path fill="none" stroke="midnightblue" d="M1203.93,-59.0687C1199.31,-57.9976 1194.52,-56.9277 1190,-56 1115.42,-40.6775 1028.01,-26.1454 976.47,-17.9262"/>
<polygon fill="midnightblue" stroke="midnightblue" points="976.77,-14.4301 966.345,-16.3192 975.673,-21.3435 976.77,-14.4301"/>
</g>
<!-- Node12&#45;&gt;Node13 -->
<g id="edge15" class="edge"><title>Node12&#45;&gt;Node13</title>
<path fill="none" stroke="midnightblue" d="M1249.71,-56.4435C1272.35,-47.5171 1308.07,-33.4387 1333.75,-23.3168"/>
<polygon fill="midnightblue" stroke="midnightblue" points="1335.37,-26.4397 1343.39,-19.5164 1332.81,-19.9273 1335.37,-26.4397"/>
</g>
<!-- Node12&#45;&gt;Node14 -->
<g id="edge16" class="edge"><title>Node12&#45;&gt;Node14</title>
<path fill="none" stroke="midnightblue" d="M1228,-56.083C1228,-49.0059 1228,-38.8611 1228,-29.9865"/>
<polygon fill="midnightblue" stroke="midnightblue" points="1231.5,-29.751 1228,-19.7511 1224.5,-29.7511 1231.5,-29.751"/>
</g>
<!-- Node15&#45;&gt;Node3 -->
<g id="edge19" class="edge"><title>Node15&#45;&gt;Node3</title>
<path fill="none" stroke="midnightblue" d="M801.217,-224.368C807.864,-206.537 823.235,-165.295 832.19,-141.272"/>
<polygon fill="midnightblue" stroke="midnightblue" points="835.585,-142.184 835.798,-131.591 829.026,-139.739 835.585,-142.184"/>
</g>
<!-- Node15&#45;&gt;Node4 -->
<g id="edge20" class="edge"><title>Node15&#45;&gt;Node4</title>
<path fill="none" stroke="midnightblue" d="M840.591,-230.328C881.221,-226.149 942.891,-215.44 989,-188 1009.02,-176.086 1025.95,-154.978 1036.25,-140.052"/>
<polygon fill="midnightblue" stroke="midnightblue" points="1039.18,-141.966 1041.78,-131.695 1033.35,-138.102 1039.18,-141.966"/>
</g>
<!-- Node15&#45;&gt;Node5 -->
<g id="edge41" class="edge"><title>Node15&#45;&gt;Node5</title>
<path fill="none" stroke="midnightblue" d="M755.459,-225.472C752.261,-224.957 749.081,-224.46 746,-224 622.509,-205.551 587.68,-211.264 461.131,-188.009"/>
<polygon fill="midnightblue" stroke="midnightblue" points="461.522,-184.522 451.05,-186.132 460.24,-191.404 461.522,-184.522"/>
</g>
<!-- Node15&#45;&gt;Node8 -->
<g id="edge21" class="edge"><title>Node15&#45;&gt;Node8</title>
<path fill="none" stroke="midnightblue" d="M793.707,-224.083C790.148,-216.691 784.978,-205.953 780.576,-196.811"/>
<polygon fill="midnightblue" stroke="midnightblue" points="783.705,-195.243 776.213,-187.751 777.398,-198.279 783.705,-195.243"/>
</g>
<!-- Node16 -->
<g id="node16" class="node"><title>Node16</title>
<g id="a_node16"><a xlink:href="output__flags_8hh.html" target="_top" xlink:title="output_flags.hh">
<polygon fill="none" stroke="black" points="897.5,-168.5 897.5,-187.5 980.5,-187.5 980.5,-168.5 897.5,-168.5"/>
<text text-anchor="middle" x="939" y="-175.5" font-family="Helvetica,sans-Serif" font-size="10.00">output_flags.hh</text>
</a>
</g>
</g>
<!-- Node15&#45;&gt;Node16 -->
<g id="edge22" class="edge"><title>Node15&#45;&gt;Node16</title>
<path fill="none" stroke="midnightblue" d="M820.342,-224.444C843.753,-215.478 880.736,-201.314 907.19,-191.183"/>
<polygon fill="midnightblue" stroke="midnightblue" points="908.676,-194.361 916.763,-187.516 906.172,-187.824 908.676,-194.361"/>
</g>
<!-- Node20 -->
<g id="node20" class="node"><title>Node20</title>
<g id="a_node20"><a xlink:href="parallel__mt_8hh.html" target="_top" xlink:title="parallel_mt.hh">
<polygon fill="none" stroke="black" points="469.5,-168.5 469.5,-187.5 546.5,-187.5 546.5,-168.5 469.5,-168.5"/>
<text text-anchor="middle" x="508" y="-175.5" font-family="Helvetica,sans-Serif" font-size="10.00">parallel_mt.hh</text>
</a>
</g>
</g>
<!-- Node15&#45;&gt;Node20 -->
<g id="edge28" class="edge"><title>Node15&#45;&gt;Node20</title>
<path fill="none" stroke="midnightblue" d="M755.21,-225.032C702.258,-215.172 612.306,-198.423 556.744,-188.076"/>
<polygon fill="midnightblue" stroke="midnightblue" points="557.258,-184.612 546.786,-186.222 555.977,-191.494 557.258,-184.612"/>
</g>
<!-- Node16&#45;&gt;Node3 -->
<g id="edge23" class="edge"><title>Node16&#45;&gt;Node3</title>
<path fill="none" stroke="midnightblue" d="M922.933,-168.324C907.042,-159.743 882.493,-146.486 864.042,-136.522"/>
<polygon fill="midnightblue" stroke="midnightblue" points="865.489,-133.326 855.027,-131.655 862.163,-139.486 865.489,-133.326"/>
</g>
<!-- Node16&#45;&gt;Node4 -->
<g id="edge24" class="edge"><title>Node16&#45;&gt;Node4</title>
<path fill="none" stroke="midnightblue" d="M956.352,-168.324C973.672,-159.664 1000.52,-146.242 1020.5,-136.249"/>
<polygon fill="midnightblue" stroke="midnightblue" points="1022.31,-139.257 1029.69,-131.655 1019.18,-132.996 1022.31,-139.257"/>
</g>
<!-- Node17 -->
<g id="node17" class="node"><title>Node17</title>
<polygon fill="none" stroke="#bfbfbf" points="881.5,-112.5 881.5,-131.5 922.5,-131.5 922.5,-112.5 881.5,-112.5"/>
<text text-anchor="middle" x="902" y="-119.5" font-family="Helvetica,sans-Serif" font-size="10.00">bitset</text>
</g>
<!-- Node16&#45;&gt;Node17 -->
<g id="edge25" class="edge"><title>Node16&#45;&gt;Node17</title>
<path fill="none" stroke="midnightblue" d="M932.89,-168.083C927.718,-160.534 920.154,-149.495 913.806,-140.23"/>
<polygon fill="midnightblue" stroke="midnightblue" points="916.536,-138.022 907.996,-131.751 910.761,-141.979 916.536,-138.022"/>
</g>
<!-- Node18 -->
<g id="node18" class="node"><title>Node18</title>
<polygon fill="none" stroke="#bfbfbf" points="941,-112.5 941,-131.5 1003,-131.5 1003,-112.5 941,-112.5"/>
<text text-anchor="middle" x="972" y="-119.5" font-family="Helvetica,sans-Serif" font-size="10.00">type_traits</text>
</g>
<!-- Node16&#45;&gt;Node18 -->
<g id="edge26" class="edge"><title>Node16&#45;&gt;Node18</title>
<path fill="none" stroke="midnightblue" d="M944.449,-168.083C949.014,-160.613 955.668,-149.724 961.293,-140.52"/>
<polygon fill="midnightblue" stroke="midnightblue" points="964.424,-142.109 966.652,-131.751 958.451,-138.459 964.424,-142.109"/>
</g>
<!-- Node16&#45;&gt;Node19 -->
<g id="edge27" class="edge"><title>Node16&#45;&gt;Node19</title>
<path fill="none" stroke="midnightblue" d="M980.867,-172.897C1087.28,-162.468 1366.26,-135.126 1459.3,-126.008"/>
<polygon fill="midnightblue" stroke="midnightblue" points="1459.85,-129.472 1469.46,-125.013 1459.16,-122.505 1459.85,-129.472"/>
</g>
<!-- Node20&#45;&gt;Node3 -->
<g id="edge33" class="edge"><title>Node20&#45;&gt;Node3</title>
<path fill="none" stroke="midnightblue" d="M546.683,-172.499C601.76,-165.793 706.083,-151.997 804.392,-131.925"/>
<polygon fill="midnightblue" stroke="midnightblue" points="805.107,-135.352 814.191,-129.899 803.69,-128.497 805.107,-135.352"/>
</g>
<!-- Node20&#45;&gt;Node11 -->
<g id="edge35" class="edge"><title>Node20&#45;&gt;Node11</title>
<path fill="none" stroke="midnightblue" d="M469.249,-169.611C466.122,-169.052 463.01,-168.509 460,-168 407.041,-159.049 261.452,-167.333 221,-132 207.876,-120.536 203.58,-100.558 202.289,-85.7675"/>
<polygon fill="midnightblue" stroke="midnightblue" points="205.78,-85.5102 201.791,-75.6952 198.789,-85.8559 205.78,-85.5102"/>
</g>
<!-- Node20&#45;&gt;Node14 -->
<g id="edge30" class="edge"><title>Node20&#45;&gt;Node14</title>
<path fill="none" stroke="midnightblue" d="M535.423,-168.409C577.913,-155.265 662.34,-129.818 735,-112 903.24,-70.7439 1106.6,-32.8092 1189.76,-17.7981"/>
<polygon fill="midnightblue" stroke="midnightblue" points="1190.54,-21.2147 1199.76,-15.9993 1189.3,-14.3253 1190.54,-21.2147"/>
</g>
<!-- Node21 -->
<g id="node21" class="node"><title>Node21</title>
<polygon fill="none" stroke="#bfbfbf" points="128.5,-112.5 128.5,-131.5 173.5,-131.5 173.5,-112.5 128.5,-112.5"/>
<text text-anchor="middle" x="151" y="-119.5" font-family="Helvetica,sans-Serif" font-size="10.00">cstdlib</text>
</g>
<!-- Node20&#45;&gt;Node21 -->
<g id="edge29" class="edge"><title>Node20&#45;&gt;Node21</title>
<path fill="none" stroke="midnightblue" d="M469.259,-169.551C466.13,-169.006 463.014,-168.482 460,-168 339.585,-148.757 307.86,-154.443 188,-132 186.538,-131.726 185.047,-131.431 183.544,-131.12"/>
<polygon fill="midnightblue" stroke="midnightblue" points="184.137,-127.667 173.615,-128.907 182.614,-134.499 184.137,-127.667"/>
</g>
<!-- Node22 -->
<g id="node22" class="node"><title>Node22</title>
<polygon fill="none" stroke="#bfbfbf" points="230,-112.5 230,-131.5 276,-131.5 276,-112.5 230,-112.5"/>
<text text-anchor="middle" x="253" y="-119.5" font-family="Helvetica,sans-Serif" font-size="10.00">cstdint</text>
</g>
<!-- Node20&#45;&gt;Node22 -->
<g id="edge31" class="edge"><title>Node20&#45;&gt;Node22</title>
<path fill="none" stroke="midnightblue" d="M469.392,-169.573C419.039,-159.828 332.722,-142.91 285.925,-132.051"/>
<polygon fill="midnightblue" stroke="midnightblue" points="286.556,-128.603 276.018,-129.697 284.938,-135.414 286.556,-128.603"/>
</g>
<!-- Node23 -->
<g id="node23" class="node"><title>Node23</title>
<polygon fill="none" stroke="#bfbfbf" points="294,-112.5 294,-131.5 340,-131.5 340,-112.5 294,-112.5"/>
<text text-anchor="middle" x="317" y="-119.5" font-family="Helvetica,sans-Serif" font-size="10.00">cstring</text>
</g>
<!-- Node20&#45;&gt;Node23 -->
<g id="edge32" class="edge"><title>Node20&#45;&gt;Node23</title>
<path fill="none" stroke="midnightblue" d="M477.735,-168.444C442.982,-158.618 386.151,-142.551 350.206,-132.388"/>
<polygon fill="midnightblue" stroke="midnightblue" points="350.789,-128.916 340.214,-129.563 348.884,-135.652 350.789,-128.916"/>
</g>
<!-- Node24 -->
<g id="node24" class="node"><title>Node24</title>
<polygon fill="none" stroke="#bfbfbf" points="358,-112.5 358,-131.5 398,-131.5 398,-112.5 358,-112.5"/>
<text text-anchor="middle" x="378" y="-119.5" font-family="Helvetica,sans-Serif" font-size="10.00">limits</text>
</g>
<!-- Node20&#45;&gt;Node24 -->
<g id="edge34" class="edge"><title>Node20&#45;&gt;Node24</title>
<path fill="none" stroke="midnightblue" d="M487.401,-168.444C465.881,-159.504 431.922,-145.398 407.547,-135.273"/>
<polygon fill="midnightblue" stroke="midnightblue" points="408.653,-131.943 398.075,-131.339 405.968,-138.407 408.653,-131.943"/>
</g>
<!-- Node20&#45;&gt;Node25 -->
<g id="edge36" class="edge"><title>Node20&#45;&gt;Node25</title>
<path fill="none" stroke="midnightblue" d="M469.272,-169.463C466.14,-168.937 463.02,-168.442 460,-168 312.447,-146.414 270.341,-160.715 120.278,-131.927"/>
<polygon fill="midnightblue" stroke="midnightblue" points="120.72,-128.447 110.235,-129.967 119.38,-135.318 120.72,-128.447"/>
</g>
<!-- Node26 -->
<g id="node26" class="node"><title>Node26</title>
<polygon fill="none" stroke="#bfbfbf" points="416,-112.5 416,-131.5 466,-131.5 466,-112.5 416,-112.5"/>
<text text-anchor="middle" x="441" y="-119.5" font-family="Helvetica,sans-Serif" font-size="10.00">fstream</text>
</g>
<!-- Node20&#45;&gt;Node26 -->
<g id="edge37" class="edge"><title>Node20&#45;&gt;Node26</title>
<path fill="none" stroke="midnightblue" d="M497.235,-168.324C487.234,-160.263 472.113,-148.077 460.07,-138.369"/>
<polygon fill="midnightblue" stroke="midnightblue" points="461.943,-135.384 451.961,-131.834 457.55,-140.834 461.943,-135.384"/>
</g>
<!-- Node27 -->
<g id="node27" class="node"><title>Node27</title>
<polygon fill="none" stroke="#bfbfbf" points="484.5,-112.5 484.5,-131.5 531.5,-131.5 531.5,-112.5 484.5,-112.5"/>
<text text-anchor="middle" x="508" y="-119.5" font-family="Helvetica,sans-Serif" font-size="10.00">iterator</text>
</g>
<!-- Node20&#45;&gt;Node27 -->
<g id="edge38" class="edge"><title>Node20&#45;&gt;Node27</title>
<path fill="none" stroke="midnightblue" d="M508,-168.083C508,-161.006 508,-150.861 508,-141.986"/>
<polygon fill="midnightblue" stroke="midnightblue" points="511.5,-141.751 508,-131.751 504.5,-141.751 511.5,-141.751"/>
</g>
<!-- Node28 -->
<g id="node28" class="node"><title>Node28</title>
<polygon fill="none" stroke="#bfbfbf" points="550,-112.5 550,-131.5 596,-131.5 596,-112.5 550,-112.5"/>
<text text-anchor="middle" x="573" y="-119.5" font-family="Helvetica,sans-Serif" font-size="10.00">chrono</text>
</g>
<!-- Node20&#45;&gt;Node28 -->
<g id="edge39" class="edge"><title>Node20&#45;&gt;Node28</title>
<path fill="none" stroke="midnightblue" d="M518.443,-168.324C528.146,-160.263 542.815,-148.077 554.5,-138.369"/>
<polygon fill="midnightblue" stroke="midnightblue" points="556.911,-140.916 562.367,-131.834 552.438,-135.532 556.911,-140.916"/>
</g>
<!-- Node29 -->
<g id="node29" class="node"><title>Node29</title>
<polygon fill="none" stroke="#bfbfbf" points="614.5,-112.5 614.5,-131.5 649.5,-131.5 649.5,-112.5 614.5,-112.5"/>
<text text-anchor="middle" x="632" y="-119.5" font-family="Helvetica,sans-Serif" font-size="10.00">dc.h</text>
</g>
<!-- Node20&#45;&gt;Node29 -->
<g id="edge40" class="edge"><title>Node20&#45;&gt;Node29</title>
<path fill="none" stroke="midnightblue" d="M527.648,-168.444C548.562,-159.336 581.792,-144.865 605.121,-134.705"/>
<polygon fill="midnightblue" stroke="midnightblue" points="606.678,-137.845 614.449,-130.643 603.883,-131.427 606.678,-137.845"/>
</g>
<!-- Node30&#45;&gt;Node13 -->
<g id="edge43" class="edge"><title>Node30&#45;&gt;Node13</title>
<path fill="none" stroke="midnightblue" d="M1365,-56.083C1365,-49.0059 1365,-38.8611 1365,-29.9865"/>
<polygon fill="midnightblue" stroke="midnightblue" points="1368.5,-29.751 1365,-19.7511 1361.5,-29.7511 1368.5,-29.751"/>
</g>
<!-- Node31&#45;&gt;Node19 -->
<g id="edge47" class="edge"><title>Node31&#45;&gt;Node19</title>
<path fill="none" stroke="midnightblue" d="M1518.05,-280.305C1511.58,-271.66 1502.3,-257.738 1498,-244 1487.14,-209.294 1487.29,-166.334 1488.54,-142.06"/>
<polygon fill="midnightblue" stroke="midnightblue" points="1492.06,-141.966 1489.2,-131.763 1485.07,-141.52 1492.06,-141.966"/>
</g>
<!-- Node32 -->
<g id="node32" class="node"><title>Node32</title>
<polygon fill="none" stroke="#bfbfbf" points="1608.5,-224.5 1608.5,-243.5 1667.5,-243.5 1667.5,-224.5 1608.5,-224.5"/>
<text text-anchor="middle" x="1638" y="-231.5" font-family="Helvetica,sans-Serif" font-size="10.00">functional</text>
</g>
<!-- Node31&#45;&gt;Node32 -->
<g id="edge46" class="edge"><title>Node31&#45;&gt;Node32</title>
<path fill="none" stroke="midnightblue" d="M1542.91,-280.444C1561.25,-271.675 1590.01,-257.935 1611.09,-247.858"/>
<polygon fill="midnightblue" stroke="midnightblue" points="1612.67,-250.986 1620.18,-243.516 1609.65,-244.67 1612.67,-250.986"/>
</g>
<!-- Node33 -->
<g id="node33" class="node"><title>Node33</title>
<polygon fill="none" stroke="#bfbfbf" points="1507.5,-224.5 1507.5,-243.5 1590.5,-243.5 1590.5,-224.5 1507.5,-224.5"/>
<text text-anchor="middle" x="1549" y="-231.5" font-family="Helvetica,sans-Serif" font-size="10.00">unordered_map</text>
</g>
<!-- Node31&#45;&gt;Node33 -->
<g id="edge48" class="edge"><title>Node31&#45;&gt;Node33</title>
<path fill="none" stroke="midnightblue" d="M1528.96,-280.083C1532.21,-272.77 1536.92,-262.181 1540.95,-253.103"/>
<polygon fill="midnightblue" stroke="midnightblue" points="1544.25,-254.311 1545.11,-243.751 1537.85,-251.468 1544.25,-254.311"/>
</g>
<!-- Node34&#45;&gt;Node3 -->
<g id="edge51" class="edge"><title>Node34&#45;&gt;Node3</title>
<path fill="none" stroke="midnightblue" d="M1159.98,-173.939C1104.38,-168.171 983.957,-154.397 873.735,-132.157"/>
<polygon fill="midnightblue" stroke="midnightblue" points="874.284,-128.696 863.785,-130.12 872.88,-135.554 874.284,-128.696"/>
</g>
<!-- Node34&#45;&gt;Node4 -->
<g id="edge52" class="edge"><title>Node34&#45;&gt;Node4</title>
<path fill="none" stroke="midnightblue" d="M1168.18,-168.444C1144.17,-159.438 1106.17,-145.189 1079.13,-135.049"/>
<polygon fill="midnightblue" stroke="midnightblue" points="1080.3,-131.751 1069.71,-131.516 1077.84,-138.305 1080.3,-131.751"/>
</g>
<!-- Node34&#45;&gt;Node6 -->
<g id="edge54" class="edge"><title>Node34&#45;&gt;Node6</title>
<path fill="none" stroke="midnightblue" d="M1190.75,-168.298C1189.92,-154.66 1186.4,-128.143 1172,-112 1120.4,-54.1633 1030.27,-28.4942 976.361,-17.8475"/>
<polygon fill="midnightblue" stroke="midnightblue" points="976.885,-14.3846 966.409,-15.9716 975.588,-21.2634 976.885,-14.3846"/>
</g>
<!-- Node34&#45;&gt;Node10 -->
<g id="edge55" class="edge"><title>Node34&#45;&gt;Node10</title>
<path fill="none" stroke="midnightblue" d="M1180.72,-168.324C1171.16,-160.263 1156.72,-148.077 1145.22,-138.369"/>
<polygon fill="midnightblue" stroke="midnightblue" points="1147.37,-135.608 1137.47,-131.834 1142.86,-140.958 1147.37,-135.608"/>
</g>
<!-- Node35 -->
<g id="node35" class="node"><title>Node35</title>
<polygon fill="none" stroke="#bfbfbf" points="1219.5,-112.5 1219.5,-131.5 1268.5,-131.5 1268.5,-112.5 1219.5,-112.5"/>
<text text-anchor="middle" x="1244" y="-119.5" font-family="Helvetica,sans-Serif" font-size="10.00">cstddef</text>
</g>
<!-- Node34&#45;&gt;Node35 -->
<g id="edge50" class="edge"><title>Node34&#45;&gt;Node35</title>
<path fill="none" stroke="midnightblue" d="M1199.75,-168.083C1207.47,-160.22 1218.9,-148.569 1228.22,-139.081"/>
<polygon fill="midnightblue" stroke="midnightblue" points="1230.9,-141.34 1235.41,-131.751 1225.91,-136.436 1230.9,-141.34"/>
</g>
<!-- Node34&#45;&gt;Node36 -->
<g id="edge53" class="edge"><title>Node34&#45;&gt;Node36</title>
<path fill="none" stroke="midnightblue" d="M1210.17,-168.444C1229.91,-159.636 1260.89,-145.812 1283.49,-135.722"/>
<polygon fill="midnightblue" stroke="midnightblue" points="1285.21,-138.788 1292.92,-131.516 1282.36,-132.396 1285.21,-138.788"/>
</g>
</g>
</svg>
