<?xml version="1.0" encoding="UTF-8" standalone="no"?>
<!DOCTYPE svg PUBLIC "-//W3C//DTD SVG 1.1//EN"
 "http://www.w3.org/Graphics/SVG/1.1/DTD/svg11.dtd">
<!-- Generated by graphviz version 2.40.1 (20161225.0304)
 -->
<!-- Title: src/generator/plain_wave_model.cc Pages: 1 -->
<svg width="1773pt" height="375pt"
 viewBox="0.00 0.00 1773.00 375.00" xmlns="http://www.w3.org/2000/svg" xmlns:xlink="http://www.w3.org/1999/xlink">
<g id="graph0" class="graph" transform="scale(1 1) rotate(0) translate(4 371)">
<title>src/generator/plain_wave_model.cc</title>
<!-- Node0 -->
<g id="node1" class="node">
<title>Node0</title>
<polygon fill="#bfbfbf" stroke="#000000" points="1236.5,-336.5 1236.5,-366.5 1333.5,-366.5 1333.5,-336.5 1236.5,-336.5"/>
<text text-anchor="start" x="1244.5" y="-354.5" font-family="Helvetica,sans-Serif" font-size="10.00" fill="#000000">src/generator/plain</text>
<text text-anchor="middle" x="1285" y="-343.5" font-family="Helvetica,sans-Serif" font-size="10.00" fill="#000000">_wave_model.cc</text>
</g>
<!-- Node1 -->
<g id="node2" class="node">
<title>Node1</title>
<g id="a_node2"><a xlink:href="plain__wave__model_8hh.html" target="_top" xlink:title="plain_wave_model.hh">
<polygon fill="none" stroke="#000000" points="798,-280.5 798,-299.5 908,-299.5 908,-280.5 798,-280.5"/>
<text text-anchor="middle" x="853" y="-287.5" font-family="Helvetica,sans-Serif" font-size="10.00" fill="#000000">plain_wave_model.hh</text>
</a>
</g>
</g>
<!-- Node0&#45;&gt;Node1 -->
<g id="edge1" class="edge">
<title>Node0&#45;&gt;Node1</title>
<path fill="none" stroke="#191970" d="M1236.2839,-344.5647C1158.3852,-333.475 1005.6928,-311.7375 918.3803,-299.3076"/>
<polygon fill="#191970" stroke="#191970" points="918.7189,-295.8206 908.3254,-297.8762 917.7322,-302.7507 918.7189,-295.8206"/>
</g>
<!-- Node6 -->
<g id="node7" class="node">
<title>Node6</title>
<polygon fill="none" stroke="#bfbfbf" points="1254,-.5 1254,-19.5 1298,-19.5 1298,-.5 1254,-.5"/>
<text text-anchor="middle" x="1276" y="-7.5" font-family="Helvetica,sans-Serif" font-size="10.00" fill="#000000">cmath</text>
</g>
<!-- Node0&#45;&gt;Node6 -->
<g id="edge66" class="edge">
<title>Node0&#45;&gt;Node6</title>
<path fill="none" stroke="#191970" d="M1310.1783,-336.3403C1363.9125,-301.8192 1483.1971,-212.5197 1461,-112 1455.083,-85.2049 1455.8301,-73.8633 1435,-56 1415.9366,-39.6518 1348.786,-24.1841 1308.0982,-16.0154"/>
<polygon fill="#191970" stroke="#191970" points="1308.6111,-12.5493 1298.1234,-14.0523 1307.2594,-19.4175 1308.6111,-12.5493"/>
</g>
<!-- Node8 -->
<g id="node9" class="node">
<title>Node8</title>
<polygon fill="none" stroke="#bfbfbf" points="86,-.5 86,-19.5 142,-19.5 142,-.5 86,-.5"/>
<text text-anchor="middle" x="114" y="-7.5" font-family="Helvetica,sans-Serif" font-size="10.00" fill="#000000">algorithm</text>
</g>
<!-- Node0&#45;&gt;Node8 -->
<g id="edge65" class="edge">
<title>Node0&#45;&gt;Node8</title>
<path fill="none" stroke="#191970" d="M1236.465,-350.2138C1061.583,-345.3939 464.0908,-327.2732 275,-300 150.5944,-282.0566 0,-359.6929 0,-234 0,-234 0,-234 0,-122 0,-75.4628 48.9383,-41.828 82.6864,-24.1659"/>
<polygon fill="#191970" stroke="#191970" points="84.3862,-27.2289 91.749,-19.6105 81.2424,-20.9746 84.3862,-27.2289"/>
</g>
<!-- Node10 -->
<g id="node11" class="node">
<title>Node10</title>
<g id="a_node11"><a xlink:href="validators_8hh.html" target="_top" xlink:title="validators.hh">
<polygon fill="none" stroke="#000000" points="1058,-112.5 1058,-131.5 1130,-131.5 1130,-112.5 1058,-112.5"/>
<text text-anchor="middle" x="1094" y="-119.5" font-family="Helvetica,sans-Serif" font-size="10.00" fill="#000000">validators.hh</text>
</a>
</g>
</g>
<!-- Node0&#45;&gt;Node10 -->
<g id="edge64" class="edge">
<title>Node0&#45;&gt;Node10</title>
<path fill="none" stroke="#191970" d="M1291.576,-336.4216C1305.3471,-302.258 1332.7938,-218.0417 1293,-168 1274.2747,-144.4525 1192.9407,-131.911 1140.2245,-126.1308"/>
<polygon fill="#191970" stroke="#191970" points="1140.4014,-122.6302 1130.0899,-125.0637 1139.6684,-129.5917 1140.4014,-122.6302"/>
</g>
<!-- Node11 -->
<g id="node12" class="node">
<title>Node11</title>
<polygon fill="none" stroke="#bfbfbf" points="623.5,-56.5 623.5,-75.5 682.5,-75.5 682.5,-56.5 623.5,-56.5"/>
<text text-anchor="middle" x="653" y="-63.5" font-family="Helvetica,sans-Serif" font-size="10.00" fill="#000000">stdexcept</text>
</g>
<!-- Node0&#45;&gt;Node11 -->
<g id="edge68" class="edge">
<title>Node0&#45;&gt;Node11</title>
<path fill="none" stroke="#191970" d="M1236.4847,-349.3745C1010.9617,-339.1813 76,-293.3443 76,-234 76,-234 76,-234 76,-178 76,-139.2415 98.5029,-129.6684 133,-112 175.3875,-90.2904 498.7128,-73.2206 613.0749,-67.8064"/>
<polygon fill="#191970" stroke="#191970" points="613.3346,-71.2982 623.1597,-67.3336 613.0068,-64.3058 613.3346,-71.2982"/>
</g>
<!-- Node14 -->
<g id="node15" class="node">
<title>Node14</title>
<polygon fill="none" stroke="#bfbfbf" points="1622.5,-112.5 1622.5,-131.5 1663.5,-131.5 1663.5,-112.5 1622.5,-112.5"/>
<text text-anchor="middle" x="1643" y="-119.5" font-family="Helvetica,sans-Serif" font-size="10.00" fill="#000000">string</text>
</g>
<!-- Node0&#45;&gt;Node14 -->
<g id="edge69" class="edge">
<title>Node0&#45;&gt;Node14</title>
<path fill="none" stroke="#191970" d="M1333.7201,-346.2681C1405.9054,-337.968 1537.3352,-320.5957 1580,-300 1634.6278,-273.6294 1650.0849,-248.1411 1658,-188 1659.1599,-179.1871 1659.3952,-176.7787 1658,-168 1656.5699,-159.0016 1653.6588,-149.3703 1650.7784,-141.2579"/>
<polygon fill="#191970" stroke="#191970" points="1653.9537,-139.7599 1647.1368,-131.6493 1647.408,-142.2407 1653.9537,-139.7599"/>
</g>
<!-- Node21 -->
<g id="node22" class="node">
<title>Node21</title>
<polygon fill="none" stroke="#bfbfbf" points="681,-112.5 681,-131.5 725,-131.5 725,-112.5 681,-112.5"/>
<text text-anchor="middle" x="703" y="-119.5" font-family="Helvetica,sans-Serif" font-size="10.00" fill="#000000">vector</text>
</g>
<!-- Node0&#45;&gt;Node21 -->
<g id="edge70" class="edge">
<title>Node0&#45;&gt;Node21</title>
<path fill="none" stroke="#191970" d="M1253.135,-336.3691C1197.1561,-310.2885 1077.0254,-256.5417 971,-224 897.5838,-201.4669 872.7657,-217.831 802,-188 771.9579,-175.3359 741.3296,-153.2009 722.2566,-138.0866"/>
<polygon fill="#191970" stroke="#191970" points="724.3273,-135.2599 714.3501,-131.6954 719.9268,-140.7038 724.3273,-135.2599"/>
</g>
<!-- Node31 -->
<g id="node32" class="node">
<title>Node31</title>
<g id="a_node32"><a xlink:href="domain_8hh.html" target="_top" xlink:title="domain.hh">
<polygon fill="none" stroke="#000000" points="1116,-224.5 1116,-243.5 1178,-243.5 1178,-224.5 1116,-224.5"/>
<text text-anchor="middle" x="1147" y="-231.5" font-family="Helvetica,sans-Serif" font-size="10.00" fill="#000000">domain.hh</text>
</a>
</g>
</g>
<!-- Node0&#45;&gt;Node31 -->
<g id="edge47" class="edge">
<title>Node0&#45;&gt;Node31</title>
<path fill="none" stroke="#191970" d="M1267.2414,-336.3795C1241.2293,-314.2315 1192.9588,-273.1316 1166.1683,-250.3209"/>
<polygon fill="#191970" stroke="#191970" points="1168.1633,-247.4226 1158.2803,-243.6046 1163.6253,-252.7524 1168.1633,-247.4226"/>
</g>
<!-- Node32 -->
<g id="node33" class="node">
<title>Node32</title>
<polygon fill="none" stroke="#bfbfbf" points="1234,-168.5 1234,-187.5 1284,-187.5 1284,-168.5 1234,-168.5"/>
<text text-anchor="middle" x="1259" y="-175.5" font-family="Helvetica,sans-Serif" font-size="10.00" fill="#000000">iomanip</text>
</g>
<!-- Node0&#45;&gt;Node32 -->
<g id="edge67" class="edge">
<title>Node0&#45;&gt;Node32</title>
<path fill="none" stroke="#191970" d="M1282.7382,-336.4065C1278.0336,-305.0126 1267.1965,-232.6961 1261.951,-197.6925"/>
<polygon fill="#191970" stroke="#191970" points="1265.4027,-197.1088 1260.4593,-187.738 1258.48,-198.1463 1265.4027,-197.1088"/>
</g>
<!-- Node33 -->
<g id="node34" class="node">
<title>Node33</title>
<g id="a_node34"><a xlink:href="params_8hh.html" target="_top" xlink:title="params.hh">
<polygon fill="none" stroke="#000000" points="1509,-280.5 1509,-299.5 1571,-299.5 1571,-280.5 1509,-280.5"/>
<text text-anchor="middle" x="1540" y="-287.5" font-family="Helvetica,sans-Serif" font-size="10.00" fill="#000000">params.hh</text>
</a>
</g>
</g>
<!-- Node0&#45;&gt;Node33 -->
<g id="edge55" class="edge">
<title>Node0&#45;&gt;Node33</title>
<path fill="none" stroke="#191970" d="M1333.5638,-339.7876C1381.5243,-328.2206 1454.0525,-310.7285 1499.1431,-299.8537"/>
<polygon fill="#191970" stroke="#191970" points="1499.9798,-303.2524 1508.8805,-297.5053 1498.3386,-296.4475 1499.9798,-303.2524"/>
</g>
<!-- Node36 -->
<g id="node37" class="node">
<title>Node36</title>
<g id="a_node37"><a xlink:href="plain__wave_8hh.html" target="_top" xlink:title="plain_wave.hh">
<polygon fill="none" stroke="#000000" points="1372.5,-112.5 1372.5,-131.5 1451.5,-131.5 1451.5,-112.5 1372.5,-112.5"/>
<text text-anchor="middle" x="1412" y="-119.5" font-family="Helvetica,sans-Serif" font-size="10.00" fill="#000000">plain_wave.hh</text>
</a>
</g>
</g>
<!-- Node0&#45;&gt;Node36 -->
<g id="edge59" class="edge">
<title>Node0&#45;&gt;Node36</title>
<path fill="none" stroke="#191970" d="M1303.6672,-336.2981C1314.4836,-326.7505 1327.7485,-313.6838 1337,-300 1372.5908,-247.3582 1396.5853,-175.1212 1406.6505,-141.1405"/>
<polygon fill="#191970" stroke="#191970" points="1410.0153,-142.1037 1409.4261,-131.5253 1403.2899,-140.1623 1410.0153,-142.1037"/>
</g>
<!-- Node37 -->
<g id="node38" class="node">
<title>Node37</title>
<g id="a_node38"><a xlink:href="profile_8hh.html" target="_top" xlink:title="profile.hh">
<polygon fill="none" stroke="#000000" points="1709,-280.5 1709,-299.5 1765,-299.5 1765,-280.5 1709,-280.5"/>
<text text-anchor="middle" x="1737" y="-287.5" font-family="Helvetica,sans-Serif" font-size="10.00" fill="#000000">profile.hh</text>
</a>
</g>
</g>
<!-- Node0&#45;&gt;Node37 -->
<g id="edge63" class="edge">
<title>Node0&#45;&gt;Node37</title>
<path fill="none" stroke="#191970" d="M1333.5439,-347.1284C1410.5547,-339.8062 1565.2924,-323.5156 1695,-300 1696.2446,-299.7744 1697.5076,-299.535 1698.7811,-299.2848"/>
<polygon fill="#191970" stroke="#191970" points="1699.565,-302.6965 1708.6218,-297.1987 1698.1133,-295.8486 1699.565,-302.6965"/>
</g>
<!-- Node2 -->
<g id="node3" class="node">
<title>Node2</title>
<polygon fill="none" stroke="#bfbfbf" points="952.5,-112.5 952.5,-131.5 1001.5,-131.5 1001.5,-112.5 952.5,-112.5"/>
<text text-anchor="middle" x="977" y="-119.5" font-family="Helvetica,sans-Serif" font-size="10.00" fill="#000000">istream</text>
</g>
<!-- Node1&#45;&gt;Node2 -->
<g id="edge2" class="edge">
<title>Node1&#45;&gt;Node2</title>
<path fill="none" stroke="#191970" d="M908.1205,-282.0167C931.3501,-275.6873 956.352,-264.3406 971,-244 992.7952,-213.7347 987.4752,-167.4725 982.0099,-141.4782"/>
<polygon fill="#191970" stroke="#191970" points="985.4072,-140.6345 979.7374,-131.6844 978.5884,-142.2168 985.4072,-140.6345"/>
</g>
<!-- Node3 -->
<g id="node4" class="node">
<title>Node3</title>
<polygon fill="none" stroke="#bfbfbf" points="743,-112.5 743,-131.5 795,-131.5 795,-112.5 743,-112.5"/>
<text text-anchor="middle" x="769" y="-119.5" font-family="Helvetica,sans-Serif" font-size="10.00" fill="#000000">ostream</text>
</g>
<!-- Node1&#45;&gt;Node3 -->
<g id="edge3" class="edge">
<title>Node1&#45;&gt;Node3</title>
<path fill="none" stroke="#191970" d="M799.7467,-280.4288C779.0403,-273.8245 757.3618,-262.7016 745,-244 723.9832,-212.2046 743.3732,-166.2344 757.4305,-140.7665"/>
<polygon fill="#191970" stroke="#191970" points="760.6479,-142.1953 762.6396,-131.7893 754.5934,-138.682 760.6479,-142.1953"/>
</g>
<!-- Node4 -->
<g id="node5" class="node">
<title>Node4</title>
<g id="a_node5"><a xlink:href="basic__model_8hh.html" target="_top" xlink:title="basic_model.hh">
<polygon fill="none" stroke="#000000" points="754.5,-224.5 754.5,-243.5 839.5,-243.5 839.5,-224.5 754.5,-224.5"/>
<text text-anchor="middle" x="797" y="-231.5" font-family="Helvetica,sans-Serif" font-size="10.00" fill="#000000">basic_model.hh</text>
</a>
</g>
</g>
<!-- Node1&#45;&gt;Node4 -->
<g id="edge4" class="edge">
<title>Node1&#45;&gt;Node4</title>
<path fill="none" stroke="#191970" d="M843.2455,-280.2455C835.1352,-272.1352 823.4075,-260.4075 813.7919,-250.7919"/>
<polygon fill="#191970" stroke="#191970" points="816.1887,-248.2389 806.6427,-243.6427 811.2389,-253.1887 816.1887,-248.2389"/>
</g>
<!-- Node26 -->
<g id="node27" class="node">
<title>Node26</title>
<g id="a_node27"><a xlink:href="types_8hh.html" target="_top" xlink:title="types.hh">
<polygon fill="none" stroke="#000000" points="450,-168.5 450,-187.5 504,-187.5 504,-168.5 450,-168.5"/>
<text text-anchor="middle" x="477" y="-175.5" font-family="Helvetica,sans-Serif" font-size="10.00" fill="#000000">types.hh</text>
</a>
</g>
</g>
<!-- Node1&#45;&gt;Node26 -->
<g id="edge46" class="edge">
<title>Node1&#45;&gt;Node26</title>
<path fill="none" stroke="#191970" d="M797.9785,-287.3286C741.3821,-283.0876 651.5067,-272.1492 579,-244 547.6562,-231.8314 515.7972,-209.226 496.2182,-193.9"/>
<polygon fill="#191970" stroke="#191970" points="498.3714,-191.1404 488.3744,-187.6318 494.0014,-196.6088 498.3714,-191.1404"/>
</g>
<!-- Node27 -->
<g id="node28" class="node">
<title>Node27</title>
<g id="a_node28"><a xlink:href="discrete__function_8hh.html" target="_top" xlink:title="discrete_function.hh">
<polygon fill="none" stroke="#000000" points="858,-224.5 858,-243.5 962,-243.5 962,-224.5 858,-224.5"/>
<text text-anchor="middle" x="910" y="-231.5" font-family="Helvetica,sans-Serif" font-size="10.00" fill="#000000">discrete_function.hh</text>
</a>
</g>
</g>
<!-- Node1&#45;&gt;Node27 -->
<g id="edge38" class="edge">
<title>Node1&#45;&gt;Node27</title>
<path fill="none" stroke="#191970" d="M862.9286,-280.2455C871.1838,-272.1352 883.1209,-260.4075 892.9082,-250.7919"/>
<polygon fill="#191970" stroke="#191970" points="895.5046,-253.1476 900.1851,-243.6427 890.5989,-248.1542 895.5046,-253.1476"/>
</g>
<!-- Node28 -->
<g id="node29" class="node">
<title>Node28</title>
<g id="a_node29"><a xlink:href="physical__constants_8hh.html" target="_top" xlink:title="physical_constants.hh">
<polygon fill="none" stroke="#000000" points="1262,-56.5 1262,-75.5 1376,-75.5 1376,-56.5 1262,-56.5"/>
<text text-anchor="middle" x="1319" y="-63.5" font-family="Helvetica,sans-Serif" font-size="10.00" fill="#000000">physical_constants.hh</text>
</a>
</g>
</g>
<!-- Node1&#45;&gt;Node28 -->
<g id="edge41" class="edge">
<title>Node1&#45;&gt;Node28</title>
<path fill="none" stroke="#191970" d="M908.0927,-288.2681C975.3894,-284.8325 1092.0017,-274.5823 1187,-244 1237.7181,-227.6726 1260.8665,-230.5012 1293,-188 1315.8678,-157.754 1319.6173,-111.812 1319.7031,-85.7928"/>
<polygon fill="#191970" stroke="#191970" points="1323.2008,-85.6121 1319.5505,-75.666 1316.2016,-85.7176 1323.2008,-85.6121"/>
</g>
<!-- Node29 -->
<g id="node30" class="node">
<title>Node29</title>
<g id="a_node30"><a xlink:href="plain__wave__profile_8hh.html" target="_top" xlink:title="plain_wave_profile.hh">
<polygon fill="none" stroke="#000000" points="588,-224.5 588,-243.5 698,-243.5 698,-224.5 588,-224.5"/>
<text text-anchor="middle" x="643" y="-231.5" font-family="Helvetica,sans-Serif" font-size="10.00" fill="#000000">plain_wave_profile.hh</text>
</a>
</g>
</g>
<!-- Node1&#45;&gt;Node29 -->
<g id="edge43" class="edge">
<title>Node1&#45;&gt;Node29</title>
<path fill="none" stroke="#191970" d="M816.8997,-280.3733C781.3752,-270.9001 727.012,-256.4032 688.5381,-246.1435"/>
<polygon fill="#191970" stroke="#191970" points="689.1934,-242.696 678.6292,-243.5011 687.3897,-249.4596 689.1934,-242.696"/>
</g>
<!-- Node4&#45;&gt;Node2 -->
<g id="edge5" class="edge">
<title>Node4&#45;&gt;Node2</title>
<path fill="none" stroke="#191970" d="M833.3869,-224.4157C867.7468,-214.8707 916.2846,-199.9566 932,-188 948.321,-175.5827 960.8017,-155.4889 968.4329,-140.7303"/>
<polygon fill="#191970" stroke="#191970" points="971.6851,-142.0467 972.9289,-131.5251 965.3952,-138.9746 971.6851,-142.0467"/>
</g>
<!-- Node4&#45;&gt;Node3 -->
<g id="edge6" class="edge">
<title>Node4&#45;&gt;Node3</title>
<path fill="none" stroke="#191970" d="M794.6127,-224.4509C790.0253,-206.1013 779.8977,-165.5908 773.8423,-141.3693"/>
<polygon fill="#191970" stroke="#191970" points="777.2022,-140.3774 771.3812,-131.5249 770.4112,-142.0752 777.2022,-140.3774"/>
</g>
<!-- Node5 -->
<g id="node6" class="node">
<title>Node5</title>
<g id="a_node6"><a xlink:href="grid_8hh.html" target="_top" xlink:title="grid.hh">
<polygon fill="none" stroke="#000000" points="1056,-168.5 1056,-187.5 1102,-187.5 1102,-168.5 1056,-168.5"/>
<text text-anchor="middle" x="1079" y="-175.5" font-family="Helvetica,sans-Serif" font-size="10.00" fill="#000000">grid.hh</text>
</a>
</g>
</g>
<!-- Node4&#45;&gt;Node5 -->
<g id="edge7" class="edge">
<title>Node4&#45;&gt;Node5</title>
<path fill="none" stroke="#191970" d="M839.5236,-225.5556C895.9514,-214.3501 994.4076,-194.7985 1045.7336,-184.6061"/>
<polygon fill="#191970" stroke="#191970" points="1046.5148,-188.0194 1055.6415,-182.6386 1045.1513,-181.1535 1046.5148,-188.0194"/>
</g>
<!-- Node12 -->
<g id="node13" class="node">
<title>Node12</title>
<g id="a_node13"><a xlink:href="output__flags_8hh.html" target="_top" xlink:title="output_flags.hh">
<polygon fill="none" stroke="#000000" points="840.5,-168.5 840.5,-187.5 923.5,-187.5 923.5,-168.5 840.5,-168.5"/>
<text text-anchor="middle" x="882" y="-175.5" font-family="Helvetica,sans-Serif" font-size="10.00" fill="#000000">output_flags.hh</text>
</a>
</g>
</g>
<!-- Node4&#45;&gt;Node12 -->
<g id="edge17" class="edge">
<title>Node4&#45;&gt;Node12</title>
<path fill="none" stroke="#191970" d="M811.8059,-224.2455C824.7256,-215.7337 843.6931,-203.2375 858.6552,-193.3801"/>
<polygon fill="#191970" stroke="#191970" points="860.9387,-196.067 867.3638,-187.6427 857.0876,-190.2216 860.9387,-196.067"/>
</g>
<!-- Node16 -->
<g id="node17" class="node">
<title>Node16</title>
<g id="a_node17"><a xlink:href="parallel__mt_8hh.html" target="_top" xlink:title="parallel_mt.hh">
<polygon fill="none" stroke="#000000" points="522.5,-168.5 522.5,-187.5 599.5,-187.5 599.5,-168.5 522.5,-168.5"/>
<text text-anchor="middle" x="561" y="-175.5" font-family="Helvetica,sans-Serif" font-size="10.00" fill="#000000">parallel_mt.hh</text>
</a>
</g>
</g>
<!-- Node4&#45;&gt;Node16 -->
<g id="edge23" class="edge">
<title>Node4&#45;&gt;Node16</title>
<path fill="none" stroke="#191970" d="M756.6983,-224.4369C715.905,-214.7571 652.8098,-199.7854 609.3484,-189.4725"/>
<polygon fill="#191970" stroke="#191970" points="610.1072,-186.0554 599.5693,-187.152 608.491,-192.8663 610.1072,-186.0554"/>
</g>
<!-- Node4&#45;&gt;Node26 -->
<g id="edge36" class="edge">
<title>Node4&#45;&gt;Node26</title>
<path fill="none" stroke="#191970" d="M754.3821,-228.5918C700.5481,-221.4317 604.919,-207.6219 513.9679,-188.0232"/>
<polygon fill="#191970" stroke="#191970" points="514.5631,-184.5708 504.0467,-185.8578 513.0703,-191.4098 514.5631,-184.5708"/>
</g>
<!-- Node5&#45;&gt;Node2 -->
<g id="edge9" class="edge">
<title>Node5&#45;&gt;Node2</title>
<path fill="none" stroke="#191970" d="M1061.233,-168.2455C1045.2905,-159.4928 1021.6741,-146.527 1003.5011,-136.5496"/>
<polygon fill="#191970" stroke="#191970" points="1005.0137,-133.3873 994.5634,-131.6427 1001.6448,-139.5233 1005.0137,-133.3873"/>
</g>
<!-- Node5&#45;&gt;Node6 -->
<g id="edge8" class="edge">
<title>Node5&#45;&gt;Node6</title>
<path fill="none" stroke="#191970" d="M1092.1673,-168.4923C1104.524,-159.4338 1123.3895,-145.2509 1139,-132 1176.6349,-100.0539 1182.9069,-88.5736 1220,-56 1231.6371,-45.7807 1245.0305,-34.7537 1255.8007,-26.0585"/>
<polygon fill="#191970" stroke="#191970" points="1258.1838,-28.6337 1263.7921,-19.6449 1253.8024,-23.1744 1258.1838,-28.6337"/>
</g>
<!-- Node7 -->
<g id="node8" class="node">
<title>Node7</title>
<g id="a_node8"><a xlink:href="blitz_8hh.html" target="_top" xlink:title="blitz.hh">
<polygon fill="none" stroke="#000000" points="1070,-56.5 1070,-75.5 1118,-75.5 1118,-56.5 1070,-56.5"/>
<text text-anchor="middle" x="1094" y="-63.5" font-family="Helvetica,sans-Serif" font-size="10.00" fill="#000000">blitz.hh</text>
</a>
</g>
</g>
<!-- Node5&#45;&gt;Node7 -->
<g id="edge10" class="edge">
<title>Node5&#45;&gt;Node7</title>
<path fill="none" stroke="#191970" d="M1069.1924,-168.2652C1057.5615,-155.4817 1040.7303,-132.2792 1049,-112 1053.7156,-100.4363 1062.8927,-90.2008 1071.7362,-82.3383"/>
<polygon fill="#191970" stroke="#191970" points="1074.1496,-84.8842 1079.6263,-75.8147 1069.6891,-79.4894 1074.1496,-84.8842"/>
</g>
<!-- Node5&#45;&gt;Node10 -->
<g id="edge14" class="edge">
<title>Node5&#45;&gt;Node10</title>
<path fill="none" stroke="#191970" d="M1081.6128,-168.2455C1083.5916,-160.8579 1086.3744,-150.4689 1088.8012,-141.4087"/>
<polygon fill="#191970" stroke="#191970" points="1092.2105,-142.2078 1091.4171,-131.6427 1085.4489,-140.3966 1092.2105,-142.2078"/>
</g>
<!-- Node7&#45;&gt;Node6 -->
<g id="edge13" class="edge">
<title>Node7&#45;&gt;Node6</title>
<path fill="none" stroke="#191970" d="M1118.1682,-58.5636C1150.4668,-48.6256 1207.7991,-30.9849 1243.7542,-19.9218"/>
<polygon fill="#191970" stroke="#191970" points="1245.2039,-23.1377 1253.7323,-16.8516 1243.1452,-16.4473 1245.2039,-23.1377"/>
</g>
<!-- Node7&#45;&gt;Node8 -->
<g id="edge11" class="edge">
<title>Node7&#45;&gt;Node8</title>
<path fill="none" stroke="#191970" d="M1069.7751,-64.6157C938.8203,-57.1326 315.4389,-21.5108 152.8532,-12.2202"/>
<polygon fill="#191970" stroke="#191970" points="152.5708,-8.6984 142.3873,-11.6221 152.1713,-15.687 152.5708,-8.6984"/>
</g>
<!-- Node9 -->
<g id="node10" class="node">
<title>Node9</title>
<polygon fill="none" stroke="#bfbfbf" points="1093.5,-.5 1093.5,-19.5 1160.5,-19.5 1160.5,-.5 1093.5,-.5"/>
<text text-anchor="middle" x="1127" y="-7.5" font-family="Helvetica,sans-Serif" font-size="10.00" fill="#000000">blitz/array.h</text>
</g>
<!-- Node7&#45;&gt;Node9 -->
<g id="edge12" class="edge">
<title>Node7&#45;&gt;Node9</title>
<path fill="none" stroke="#191970" d="M1099.7482,-56.2455C1104.2435,-48.617 1110.6248,-37.7881 1116.0825,-28.5267"/>
<polygon fill="#191970" stroke="#191970" points="1119.2561,-30.035 1121.3177,-19.6427 1113.2253,-26.4811 1119.2561,-30.035"/>
</g>
<!-- Node10&#45;&gt;Node7 -->
<g id="edge16" class="edge">
<title>Node10&#45;&gt;Node7</title>
<path fill="none" stroke="#191970" d="M1094,-112.2455C1094,-104.9382 1094,-94.6944 1094,-85.7046"/>
<polygon fill="#191970" stroke="#191970" points="1097.5001,-85.6426 1094,-75.6427 1090.5001,-85.6427 1097.5001,-85.6426"/>
</g>
<!-- Node10&#45;&gt;Node11 -->
<g id="edge15" class="edge">
<title>Node10&#45;&gt;Node11</title>
<path fill="none" stroke="#191970" d="M1057.9111,-117.4173C976.2557,-107.0483 777.8359,-81.8522 692.7821,-71.0517"/>
<polygon fill="#191970" stroke="#191970" points="693.1091,-67.5652 682.7478,-69.7775 692.2273,-74.5094 693.1091,-67.5652"/>
</g>
<!-- Node12&#45;&gt;Node2 -->
<g id="edge19" class="edge">
<title>Node12&#45;&gt;Node2</title>
<path fill="none" stroke="#191970" d="M898.5477,-168.2455C913.2599,-159.5731 934.9888,-146.7645 951.8505,-136.825"/>
<polygon fill="#191970" stroke="#191970" points="953.8046,-139.736 960.6419,-131.6427 950.2498,-133.7057 953.8046,-139.736"/>
</g>
<!-- Node12&#45;&gt;Node3 -->
<g id="edge20" class="edge">
<title>Node12&#45;&gt;Node3</title>
<path fill="none" stroke="#191970" d="M862.5746,-168.3733C844.5979,-159.4644 817.6559,-146.1127 797.291,-136.0203"/>
<polygon fill="#191970" stroke="#191970" points="798.6861,-132.8055 788.1719,-131.5011 795.5778,-139.0776 798.6861,-132.8055"/>
</g>
<!-- Node13 -->
<g id="node14" class="node">
<title>Node13</title>
<polygon fill="none" stroke="#bfbfbf" points="893.5,-112.5 893.5,-131.5 934.5,-131.5 934.5,-112.5 893.5,-112.5"/>
<text text-anchor="middle" x="914" y="-119.5" font-family="Helvetica,sans-Serif" font-size="10.00" fill="#000000">bitset</text>
</g>
<!-- Node12&#45;&gt;Node13 -->
<g id="edge18" class="edge">
<title>Node12&#45;&gt;Node13</title>
<path fill="none" stroke="#191970" d="M887.574,-168.2455C891.9331,-160.617 898.1211,-149.7881 903.4133,-140.5267"/>
<polygon fill="#191970" stroke="#191970" points="906.5673,-142.0616 908.4899,-131.6427 900.4896,-138.5886 906.5673,-142.0616"/>
</g>
<!-- Node12&#45;&gt;Node14 -->
<g id="edge21" class="edge">
<title>Node12&#45;&gt;Node14</title>
<path fill="none" stroke="#191970" d="M923.7265,-174.9295C1060.442,-164.8689 1492.949,-133.0419 1612.2576,-124.2623"/>
<polygon fill="#191970" stroke="#191970" points="1612.7812,-127.7333 1622.4973,-123.5087 1612.2674,-120.7522 1612.7812,-127.7333"/>
</g>
<!-- Node15 -->
<g id="node16" class="node">
<title>Node15</title>
<polygon fill="none" stroke="#bfbfbf" points="813,-112.5 813,-131.5 875,-131.5 875,-112.5 813,-112.5"/>
<text text-anchor="middle" x="844" y="-119.5" font-family="Helvetica,sans-Serif" font-size="10.00" fill="#000000">type_traits</text>
</g>
<!-- Node12&#45;&gt;Node15 -->
<g id="edge22" class="edge">
<title>Node12&#45;&gt;Node15</title>
<path fill="none" stroke="#191970" d="M875.3809,-168.2455C870.0954,-160.4564 862.5459,-149.3308 856.1762,-139.9439"/>
<polygon fill="#191970" stroke="#191970" points="859.0545,-137.9522 850.5432,-131.6427 853.2621,-141.8827 859.0545,-137.9522"/>
</g>
<!-- Node16&#45;&gt;Node2 -->
<g id="edge28" class="edge">
<title>Node16&#45;&gt;Node2</title>
<path fill="none" stroke="#191970" d="M599.5649,-175.4852C667.1827,-170.6167 811.5761,-158.1748 942.44,-131.806"/>
<polygon fill="#191970" stroke="#191970" points="943.143,-135.2347 952.2378,-129.8001 941.739,-128.377 943.143,-135.2347"/>
</g>
<!-- Node16&#45;&gt;Node8 -->
<g id="edge25" class="edge">
<title>Node16&#45;&gt;Node8</title>
<path fill="none" stroke="#191970" d="M522.294,-169.5517C519.1571,-168.9844 516.03,-168.4577 513,-168 429.129,-155.3306 194.7519,-190.1512 133,-132 105.1568,-105.7803 106.8951,-56.8486 110.5058,-29.5987"/>
<polygon fill="#191970" stroke="#191970" points="113.9694,-30.1025 112.0324,-19.6863 107.051,-29.037 113.9694,-30.1025"/>
</g>
<!-- Node16&#45;&gt;Node11 -->
<g id="edge30" class="edge">
<title>Node16&#45;&gt;Node11</title>
<path fill="none" stroke="#191970" d="M584.9684,-168.3887C601.0451,-160.7773 621.4917,-148.6464 634,-132 644.0604,-118.6113 648.8009,-100.0472 651.0306,-86.0167"/>
<polygon fill="#191970" stroke="#191970" points="654.5245,-86.2879 652.3342,-75.9219 647.5822,-85.3913 654.5245,-86.2879"/>
</g>
<!-- Node17 -->
<g id="node18" class="node">
<title>Node17</title>
<polygon fill="none" stroke="#bfbfbf" points="325.5,-112.5 325.5,-131.5 370.5,-131.5 370.5,-112.5 325.5,-112.5"/>
<text text-anchor="middle" x="348" y="-119.5" font-family="Helvetica,sans-Serif" font-size="10.00" fill="#000000">cstdlib</text>
</g>
<!-- Node16&#45;&gt;Node17 -->
<g id="edge24" class="edge">
<title>Node16&#45;&gt;Node17</title>
<path fill="none" stroke="#191970" d="M522.3524,-168.8186C487.6775,-160.4385 435.1897,-147.4036 380.5434,-132.0448"/>
<polygon fill="#191970" stroke="#191970" points="381.2556,-128.609 370.6804,-129.2537 379.3495,-135.3445 381.2556,-128.609"/>
</g>
<!-- Node18 -->
<g id="node19" class="node">
<title>Node18</title>
<polygon fill="none" stroke="#bfbfbf" points="389,-112.5 389,-131.5 435,-131.5 435,-112.5 389,-112.5"/>
<text text-anchor="middle" x="412" y="-119.5" font-family="Helvetica,sans-Serif" font-size="10.00" fill="#000000">cstdint</text>
</g>
<!-- Node16&#45;&gt;Node18 -->
<g id="edge26" class="edge">
<title>Node16&#45;&gt;Node18</title>
<path fill="none" stroke="#191970" d="M535.386,-168.3733C510.3385,-158.9594 472.0915,-144.5847 444.8249,-134.3369"/>
<polygon fill="#191970" stroke="#191970" points="445.913,-131.0068 435.3209,-130.7649 443.4503,-137.5593 445.913,-131.0068"/>
</g>
<!-- Node19 -->
<g id="node20" class="node">
<title>Node19</title>
<polygon fill="none" stroke="#bfbfbf" points="453,-112.5 453,-131.5 499,-131.5 499,-112.5 453,-112.5"/>
<text text-anchor="middle" x="476" y="-119.5" font-family="Helvetica,sans-Serif" font-size="10.00" fill="#000000">cstring</text>
</g>
<!-- Node16&#45;&gt;Node19 -->
<g id="edge27" class="edge">
<title>Node16&#45;&gt;Node19</title>
<path fill="none" stroke="#191970" d="M546.1941,-168.2455C533.2744,-159.7337 514.3069,-147.2375 499.3448,-137.3801"/>
<polygon fill="#191970" stroke="#191970" points="500.9124,-134.2216 490.6362,-131.6427 497.0613,-140.067 500.9124,-134.2216"/>
</g>
<!-- Node20 -->
<g id="node21" class="node">
<title>Node20</title>
<polygon fill="none" stroke="#bfbfbf" points="517,-112.5 517,-131.5 557,-131.5 557,-112.5 517,-112.5"/>
<text text-anchor="middle" x="537" y="-119.5" font-family="Helvetica,sans-Serif" font-size="10.00" fill="#000000">limits</text>
</g>
<!-- Node16&#45;&gt;Node20 -->
<g id="edge29" class="edge">
<title>Node16&#45;&gt;Node20</title>
<path fill="none" stroke="#191970" d="M556.8195,-168.2455C553.619,-160.7776 549.104,-150.2427 545.1916,-141.1137"/>
<polygon fill="#191970" stroke="#191970" points="548.2888,-139.4554 541.1326,-131.6427 541.8548,-142.2129 548.2888,-139.4554"/>
</g>
<!-- Node16&#45;&gt;Node21 -->
<g id="edge31" class="edge">
<title>Node16&#45;&gt;Node21</title>
<path fill="none" stroke="#191970" d="M585.4107,-168.3733C609.1768,-159.0007 645.4121,-144.7107 671.3747,-134.472"/>
<polygon fill="#191970" stroke="#191970" points="672.756,-137.6896 680.7747,-130.7649 670.1879,-131.1777 672.756,-137.6896"/>
</g>
<!-- Node22 -->
<g id="node23" class="node">
<title>Node22</title>
<polygon fill="none" stroke="#bfbfbf" points="575,-112.5 575,-131.5 625,-131.5 625,-112.5 575,-112.5"/>
<text text-anchor="middle" x="600" y="-119.5" font-family="Helvetica,sans-Serif" font-size="10.00" fill="#000000">fstream</text>
</g>
<!-- Node16&#45;&gt;Node22 -->
<g id="edge32" class="edge">
<title>Node16&#45;&gt;Node22</title>
<path fill="none" stroke="#191970" d="M567.7933,-168.2455C573.2178,-160.4564 580.9661,-149.3308 587.5033,-139.9439"/>
<polygon fill="#191970" stroke="#191970" points="590.4417,-141.849 593.2846,-131.6427 584.6975,-137.8485 590.4417,-141.849"/>
</g>
<!-- Node23 -->
<g id="node24" class="node">
<title>Node23</title>
<polygon fill="none" stroke="#bfbfbf" points="142.5,-112.5 142.5,-131.5 189.5,-131.5 189.5,-112.5 142.5,-112.5"/>
<text text-anchor="middle" x="166" y="-119.5" font-family="Helvetica,sans-Serif" font-size="10.00" fill="#000000">iterator</text>
</g>
<!-- Node16&#45;&gt;Node23 -->
<g id="edge33" class="edge">
<title>Node16&#45;&gt;Node23</title>
<path fill="none" stroke="#191970" d="M522.2837,-169.6178C519.1491,-169.0357 516.0254,-168.4875 513,-168 377.5697,-146.1758 338.3773,-159.8092 199.8125,-131.8158"/>
<polygon fill="#191970" stroke="#191970" points="200.1616,-128.3144 189.6614,-129.7273 198.7509,-135.1708 200.1616,-128.3144"/>
</g>
<!-- Node24 -->
<g id="node25" class="node">
<title>Node24</title>
<polygon fill="none" stroke="#bfbfbf" points="208,-112.5 208,-131.5 254,-131.5 254,-112.5 208,-112.5"/>
<text text-anchor="middle" x="231" y="-119.5" font-family="Helvetica,sans-Serif" font-size="10.00" fill="#000000">chrono</text>
</g>
<!-- Node16&#45;&gt;Node24 -->
<g id="edge34" class="edge">
<title>Node16&#45;&gt;Node24</title>
<path fill="none" stroke="#191970" d="M522.2674,-169.7144C519.1365,-169.1107 516.018,-168.5311 513,-168 405.5729,-149.0939 374.2405,-156.3744 264.1333,-131.9706"/>
<polygon fill="#191970" stroke="#191970" points="264.8262,-128.539 254.3013,-129.7546 263.287,-135.3677 264.8262,-128.539"/>
</g>
<!-- Node25 -->
<g id="node26" class="node">
<title>Node25</title>
<polygon fill="none" stroke="#bfbfbf" points="272.5,-112.5 272.5,-131.5 307.5,-131.5 307.5,-112.5 272.5,-112.5"/>
<text text-anchor="middle" x="290" y="-119.5" font-family="Helvetica,sans-Serif" font-size="10.00" fill="#000000">dc.h</text>
</g>
<!-- Node16&#45;&gt;Node25 -->
<g id="edge35" class="edge">
<title>Node16&#45;&gt;Node25</title>
<path fill="none" stroke="#191970" d="M522.244,-169.8404C519.1183,-169.2083 516.0075,-168.588 513,-168 428.7192,-151.5226 403.4494,-155.7449 317.4079,-132.036"/>
<polygon fill="#191970" stroke="#191970" points="318.3283,-128.6592 307.7547,-129.3308 316.4393,-135.3995 318.3283,-128.6592"/>
</g>
<!-- Node26&#45;&gt;Node9 -->
<g id="edge37" class="edge">
<title>Node26&#45;&gt;Node9</title>
<path fill="none" stroke="#191970" d="M449.6258,-170.1196C446.3972,-169.3335 443.1363,-168.6043 440,-168 372.551,-155.0039 178.655,-183.3215 133,-132 127.092,-125.3587 127.0892,-118.6389 133,-112 197.1114,-39.9915 899.4616,-16.1274 1083.2154,-11.0933"/>
<polygon fill="#191970" stroke="#191970" points="1083.4199,-14.5892 1093.3221,-10.8212 1083.2315,-7.5917 1083.4199,-14.5892"/>
</g>
<!-- Node27&#45;&gt;Node5 -->
<g id="edge39" class="edge">
<title>Node27&#45;&gt;Node5</title>
<path fill="none" stroke="#191970" d="M939.0521,-224.3733C968.8574,-214.4969 1015.1411,-199.1603 1046.2337,-188.8575"/>
<polygon fill="#191970" stroke="#191970" points="1047.3633,-192.1704 1055.7548,-185.7026 1045.1614,-185.5257 1047.3633,-192.1704"/>
</g>
<!-- Node27&#45;&gt;Node26 -->
<g id="edge40" class="edge">
<title>Node27&#45;&gt;Node26</title>
<path fill="none" stroke="#191970" d="M857.9343,-225.3976C854.5752,-224.9059 851.2418,-224.4353 848,-224 702.7745,-204.499 661.8274,-215.6302 513.914,-187.8992"/>
<polygon fill="#191970" stroke="#191970" points="514.4923,-184.4465 504.0143,-186.0157 513.1839,-191.3232 514.4923,-184.4465"/>
</g>
<!-- Node28&#45;&gt;Node6 -->
<g id="edge42" class="edge">
<title>Node28&#45;&gt;Node6</title>
<path fill="none" stroke="#191970" d="M1311.51,-56.2455C1305.4674,-48.3761 1296.8097,-37.101 1289.5559,-27.6542"/>
<polygon fill="#191970" stroke="#191970" points="1292.2705,-25.4426 1283.4042,-19.6427 1286.7185,-29.7058 1292.2705,-25.4426"/>
</g>
<!-- Node29&#45;&gt;Node3 -->
<g id="edge45" class="edge">
<title>Node29&#45;&gt;Node3</title>
<path fill="none" stroke="#191970" d="M653.7427,-224.4509C675.3159,-205.2747 724.1167,-161.8962 750.7763,-138.1988"/>
<polygon fill="#191970" stroke="#191970" points="753.1357,-140.7845 758.2845,-131.5249 748.4851,-135.5526 753.1357,-140.7845"/>
</g>
<!-- Node30 -->
<g id="node31" class="node">
<title>Node30</title>
<polygon fill="none" stroke="#bfbfbf" points="386.5,-168.5 386.5,-187.5 431.5,-187.5 431.5,-168.5 386.5,-168.5"/>
<text text-anchor="middle" x="409" y="-175.5" font-family="Helvetica,sans-Serif" font-size="10.00" fill="#000000">iosfwd</text>
</g>
<!-- Node29&#45;&gt;Node30 -->
<g id="edge44" class="edge">
<title>Node29&#45;&gt;Node30</title>
<path fill="none" stroke="#191970" d="M596.208,-224.4404C557.2683,-216.2385 500.1955,-203.6492 441.4795,-187.9712"/>
<polygon fill="#191970" stroke="#191970" points="442.2272,-184.5479 431.6609,-185.3243 440.4051,-191.3066 442.2272,-184.5479"/>
</g>
<!-- Node31&#45;&gt;Node2 -->
<g id="edge50" class="edge">
<title>Node31&#45;&gt;Node2</title>
<path fill="none" stroke="#191970" d="M1120.2878,-224.4632C1099.4013,-216.3726 1070.128,-203.6053 1047,-188 1026.1664,-173.9429 1005.6404,-153.6093 992.2579,-139.2338"/>
<polygon fill="#191970" stroke="#191970" points="994.5785,-136.584 985.2556,-131.5507 989.4048,-141.2993 994.5785,-136.584"/>
</g>
<!-- Node31&#45;&gt;Node3 -->
<g id="edge51" class="edge">
<title>Node31&#45;&gt;Node3</title>
<path fill="none" stroke="#191970" d="M1115.7364,-230.6348C1040.9385,-222.4156 856.0097,-201.0393 831,-188 809.7585,-176.9254 791.8381,-155.6518 780.8108,-140.2439"/>
<polygon fill="#191970" stroke="#191970" points="783.401,-137.8311 774.8673,-131.552 777.6227,-141.7823 783.401,-137.8311"/>
</g>
<!-- Node31&#45;&gt;Node5 -->
<g id="edge53" class="edge">
<title>Node31&#45;&gt;Node5</title>
<path fill="none" stroke="#191970" d="M1135.1553,-224.2455C1125.112,-215.9746 1110.5005,-203.9416 1098.6996,-194.2232"/>
<polygon fill="#191970" stroke="#191970" points="1100.6533,-191.298 1090.709,-187.6427 1096.2033,-196.7015 1100.6533,-191.298"/>
</g>
<!-- Node31&#45;&gt;Node6 -->
<g id="edge48" class="edge">
<title>Node31&#45;&gt;Node6</title>
<path fill="none" stroke="#191970" d="M1152.543,-224.375C1172.2667,-190.1261 1239.2569,-73.802 1265.4141,-28.3817"/>
<polygon fill="#191970" stroke="#191970" points="1268.5201,-30.0016 1270.4777,-19.5891 1262.4541,-26.5082 1268.5201,-30.0016"/>
</g>
<!-- Node31&#45;&gt;Node9 -->
<g id="edge52" class="edge">
<title>Node31&#45;&gt;Node9</title>
<path fill="none" stroke="#191970" d="M1146.5442,-224.4956C1145.5218,-203.9455 1142.8316,-153.8525 1139,-112 1136.3666,-83.2349 1132.2607,-50.0296 1129.6004,-29.5227"/>
<polygon fill="#191970" stroke="#191970" points="1133.0625,-29.0042 1128.2898,-19.5453 1126.1221,-29.916 1133.0625,-29.0042"/>
</g>
<!-- Node31&#45;&gt;Node10 -->
<g id="edge54" class="edge">
<title>Node31&#45;&gt;Node10</title>
<path fill="none" stroke="#191970" d="M1142.4812,-224.4509C1133.7197,-205.936 1114.2815,-164.8591 1102.8579,-140.7187"/>
<polygon fill="#191970" stroke="#191970" points="1105.9484,-139.0668 1098.5073,-131.5249 1099.6211,-142.061 1105.9484,-139.0668"/>
</g>
<!-- Node31&#45;&gt;Node32 -->
<g id="edge49" class="edge">
<title>Node31&#45;&gt;Node32</title>
<path fill="none" stroke="#191970" d="M1166.2535,-224.3733C1184.0712,-215.4644 1210.7747,-202.1127 1230.9594,-192.0203"/>
<polygon fill="#191970" stroke="#191970" points="1232.6187,-195.1038 1239.9978,-187.5011 1229.4882,-188.8428 1232.6187,-195.1038"/>
</g>
<!-- Node33&#45;&gt;Node14 -->
<g id="edge57" class="edge">
<title>Node33&#45;&gt;Node14</title>
<path fill="none" stroke="#191970" d="M1571.1552,-280.7206C1589.4497,-273.6309 1611.3886,-261.9622 1624,-244 1645.5667,-213.283 1646.5203,-167.5143 1644.9689,-141.6517"/>
<polygon fill="#191970" stroke="#191970" points="1648.4508,-141.2845 1644.1742,-131.5912 1641.4726,-141.8357 1648.4508,-141.2845"/>
</g>
<!-- Node34 -->
<g id="node35" class="node">
<title>Node34</title>
<polygon fill="none" stroke="#bfbfbf" points="1555.5,-224.5 1555.5,-243.5 1614.5,-243.5 1614.5,-224.5 1555.5,-224.5"/>
<text text-anchor="middle" x="1585" y="-231.5" font-family="Helvetica,sans-Serif" font-size="10.00" fill="#000000">functional</text>
</g>
<!-- Node33&#45;&gt;Node34 -->
<g id="edge56" class="edge">
<title>Node33&#45;&gt;Node34</title>
<path fill="none" stroke="#191970" d="M1547.8384,-280.2455C1554.162,-272.3761 1563.2224,-261.101 1570.8136,-251.6542"/>
<polygon fill="#191970" stroke="#191970" points="1573.7158,-253.6302 1577.2514,-243.6427 1568.2592,-249.2454 1573.7158,-253.6302"/>
</g>
<!-- Node35 -->
<g id="node36" class="node">
<title>Node35</title>
<polygon fill="none" stroke="#bfbfbf" points="1454.5,-224.5 1454.5,-243.5 1537.5,-243.5 1537.5,-224.5 1454.5,-224.5"/>
<text text-anchor="middle" x="1496" y="-231.5" font-family="Helvetica,sans-Serif" font-size="10.00" fill="#000000">unordered_map</text>
</g>
<!-- Node33&#45;&gt;Node35 -->
<g id="edge58" class="edge">
<title>Node33&#45;&gt;Node35</title>
<path fill="none" stroke="#191970" d="M1532.3358,-280.2455C1526.1527,-272.3761 1517.2937,-261.101 1509.8711,-251.6542"/>
<polygon fill="#191970" stroke="#191970" points="1512.5068,-249.3435 1503.5764,-243.6427 1507.0025,-253.6683 1512.5068,-249.3435"/>
</g>
<!-- Node36&#45;&gt;Node6 -->
<g id="edge61" class="edge">
<title>Node36&#45;&gt;Node6</title>
<path fill="none" stroke="#191970" d="M1416.493,-112.4317C1422.2658,-98.5744 1430.1805,-72.7494 1418,-56 1404.9742,-38.0881 1346.0371,-23.5881 1308.3052,-15.9291"/>
<polygon fill="#191970" stroke="#191970" points="1308.7691,-12.4533 1298.281,-13.9531 1307.4153,-19.3211 1308.7691,-12.4533"/>
</g>
<!-- Node36&#45;&gt;Node9 -->
<g id="edge60" class="edge">
<title>Node36&#45;&gt;Node9</title>
<path fill="none" stroke="#191970" d="M1410.9298,-112.193C1408.7799,-97.5438 1402.5277,-70.1583 1385,-56 1368.5461,-42.7091 1239.8667,-24.4557 1170.6808,-15.4618"/>
<polygon fill="#191970" stroke="#191970" points="1170.8849,-11.9593 1160.5195,-14.1519 1169.9899,-18.9018 1170.8849,-11.9593"/>
</g>
<!-- Node36&#45;&gt;Node28 -->
<g id="edge62" class="edge">
<title>Node36&#45;&gt;Node28</title>
<path fill="none" stroke="#191970" d="M1395.8006,-112.2455C1381.3982,-103.5731 1360.1268,-90.7645 1343.6201,-80.825"/>
<polygon fill="#191970" stroke="#191970" points="1345.386,-77.8028 1335.0137,-75.6427 1341.775,-83.7996 1345.386,-77.8028"/>
</g>
</g>
</svg>
