<?xml version="1.0" encoding="UTF-8" standalone="no"?>
<!DOCTYPE svg PUBLIC "-//W3C//DTD SVG 1.1//EN"
 "http://www.w3.org/Graphics/SVG/1.1/DTD/svg11.dtd">
<!-- Generated by graphviz version 2.36.0 (20140111.2315)
 -->
<!-- Title: /home/travis/build/igankevich/arma/src/velocity/plain_wave_solver.hh Pages: 1 -->
<svg width="1257pt" height="410pt"
 viewBox="0.00 0.00 1257.14 410.00" xmlns="http://www.w3.org/2000/svg" xmlns:xlink="http://www.w3.org/1999/xlink">
<g id="graph0" class="graph" transform="scale(1 1) rotate(0) translate(4 406)">
<title>/home/travis/build/igankevich/arma/src/velocity/plain_wave_solver.hh</title>
<!-- Node1 -->
<g id="node1" class="node"><title>Node1</title>
<polygon fill="#bfbfbf" stroke="black" points="43.5,-349 43.5,-401 150.5,-401 150.5,-349 43.5,-349"/>
<text text-anchor="start" x="51.5" y="-389" font-family="Helvetica,sans-Serif" font-size="10.00">/home/travis/build</text>
<text text-anchor="start" x="51.5" y="-378" font-family="Helvetica,sans-Serif" font-size="10.00">/igankevich/arma/src</text>
<text text-anchor="start" x="51.5" y="-367" font-family="Helvetica,sans-Serif" font-size="10.00">/velocity/plain_wave</text>
<text text-anchor="middle" x="97" y="-356" font-family="Helvetica,sans-Serif" font-size="10.00">_solver.hh</text>
</g>
<!-- Node2 -->
<g id="node2" class="node"><title>Node2</title>
<g id="a_node2"><a xlink:href="basic__solver_8hh.html" target="_top" xlink:title="basic_solver.hh">
<polygon fill="none" stroke="black" points="54.5,-286.5 54.5,-305.5 139.5,-305.5 139.5,-286.5 54.5,-286.5"/>
<text text-anchor="middle" x="97" y="-293.5" font-family="Helvetica,sans-Serif" font-size="10.00">basic_solver.hh</text>
</a>
</g>
</g>
<!-- Node1&#45;&gt;Node2 -->
<g id="edge1" class="edge"><title>Node1&#45;&gt;Node2</title>
<path fill="none" stroke="midnightblue" d="M97,-348.787C97,-338.069 97,-325.785 97,-315.871"/>
<polygon fill="midnightblue" stroke="midnightblue" points="100.5,-315.558 97,-305.558 93.5001,-315.558 100.5,-315.558"/>
</g>
<!-- Node3 -->
<g id="node3" class="node"><title>Node3</title>
<g id="a_node3"><a xlink:href="types_8hh.html" target="_top" xlink:title="types.hh">
<polygon fill="none" stroke="black" points="115,-168.5 115,-187.5 169,-187.5 169,-168.5 115,-168.5"/>
<text text-anchor="middle" x="142" y="-175.5" font-family="Helvetica,sans-Serif" font-size="10.00">types.hh</text>
</a>
</g>
</g>
<!-- Node1&#45;&gt;Node3 -->
<g id="edge52" class="edge"><title>Node1&#45;&gt;Node3</title>
<path fill="none" stroke="midnightblue" d="M69.0565,-348.904C59.5142,-338.537 49.9955,-325.73 45,-312 40.1372,-298.635 39.6904,-293.194 45,-280 60.1306,-242.402 96.6876,-210.942 120.35,-193.57"/>
<polygon fill="midnightblue" stroke="midnightblue" points="122.596,-196.267 128.716,-187.618 118.538,-190.563 122.596,-196.267"/>
</g>
<!-- Node16 -->
<g id="node16" class="node"><title>Node16</title>
<g id="a_node16"><a xlink:href="plain__wave__model_8hh.html" target="_top" xlink:title="generator/plain_wave\l_model.hh">
<polygon fill="none" stroke="black" points="240.5,-281 240.5,-311 349.5,-311 349.5,-281 240.5,-281"/>
<text text-anchor="start" x="248.5" y="-299" font-family="Helvetica,sans-Serif" font-size="10.00">generator/plain_wave</text>
<text text-anchor="middle" x="295" y="-288" font-family="Helvetica,sans-Serif" font-size="10.00">_model.hh</text>
</a>
</g>
</g>
<!-- Node1&#45;&gt;Node16 -->
<g id="edge21" class="edge"><title>Node1&#45;&gt;Node16</title>
<path fill="none" stroke="midnightblue" d="M150.582,-353.163C181.451,-341.158 219.841,-326.228 249.28,-314.78"/>
<polygon fill="midnightblue" stroke="midnightblue" points="250.845,-317.927 258.896,-311.04 248.307,-311.403 250.845,-317.927"/>
</g>
<!-- Node2&#45;&gt;Node3 -->
<g id="edge2" class="edge"><title>Node2&#45;&gt;Node3</title>
<path fill="none" stroke="midnightblue" d="M99.6478,-286.142C103.775,-272.593 112.188,-245.98 121,-224 124.695,-214.784 129.316,-204.752 133.281,-196.504"/>
<polygon fill="midnightblue" stroke="midnightblue" points="136.435,-198.023 137.687,-187.503 130.147,-194.946 136.435,-198.023"/>
</g>
<!-- Node5 -->
<g id="node5" class="node"><title>Node5</title>
<g id="a_node5"><a xlink:href="domain_8hh.html" target="_top" xlink:title="domain.hh">
<polygon fill="none" stroke="black" points="35,-168.5 35,-187.5 97,-187.5 97,-168.5 35,-168.5"/>
<text text-anchor="middle" x="66" y="-175.5" font-family="Helvetica,sans-Serif" font-size="10.00">domain.hh</text>
</a>
</g>
</g>
<!-- Node2&#45;&gt;Node5 -->
<g id="edge4" class="edge"><title>Node2&#45;&gt;Node5</title>
<path fill="none" stroke="midnightblue" d="M94.59,-286.346C91.7747,-276.207 86.9933,-258.899 83,-244 78.8428,-228.489 74.2404,-210.862 70.8739,-197.882"/>
<polygon fill="midnightblue" stroke="midnightblue" points="74.1692,-196.645 68.2759,-187.84 67.3924,-198.398 74.1692,-196.645"/>
</g>
<!-- Node14 -->
<g id="node14" class="node"><title>Node14</title>
<g id="a_node14"><a xlink:href="discrete__function_8hh.html" target="_top" xlink:title="discrete_function.hh">
<polygon fill="none" stroke="black" points="163,-224.5 163,-243.5 267,-243.5 267,-224.5 163,-224.5"/>
<text text-anchor="middle" x="215" y="-231.5" font-family="Helvetica,sans-Serif" font-size="10.00">discrete_function.hh</text>
</a>
</g>
</g>
<!-- Node2&#45;&gt;Node14 -->
<g id="edge15" class="edge"><title>Node2&#45;&gt;Node14</title>
<path fill="none" stroke="midnightblue" d="M113.907,-286.403C133.534,-276.423 166.131,-259.849 188.99,-248.225"/>
<polygon fill="midnightblue" stroke="midnightblue" points="190.797,-251.233 198.125,-243.581 187.625,-244.993 190.797,-251.233"/>
</g>
<!-- Node4 -->
<g id="node4" class="node"><title>Node4</title>
<polygon fill="none" stroke="#bfbfbf" points="82,-0.5 82,-19.5 150,-19.5 150,-0.5 82,-0.5"/>
<text text-anchor="middle" x="116" y="-7.5" font-family="Helvetica,sans-Serif" font-size="10.00">blitz/array.h</text>
</g>
<!-- Node3&#45;&gt;Node4 -->
<g id="edge3" class="edge"><title>Node3&#45;&gt;Node4</title>
<path fill="none" stroke="midnightblue" d="M140.602,-168.075C136.51,-141.945 124.491,-65.2106 118.91,-29.577"/>
<polygon fill="midnightblue" stroke="midnightblue" points="122.347,-28.906 117.342,-19.5681 115.432,-29.9893 122.347,-28.906"/>
</g>
<!-- Node5&#45;&gt;Node4 -->
<g id="edge8" class="edge"><title>Node5&#45;&gt;Node4</title>
<path fill="none" stroke="midnightblue" d="M68.6882,-168.075C76.5586,-141.945 99.6715,-65.2106 110.405,-29.577"/>
<polygon fill="midnightblue" stroke="midnightblue" points="113.886,-30.1526 113.419,-19.5681 107.184,-28.1338 113.886,-30.1526"/>
</g>
<!-- Node6 -->
<g id="node6" class="node"><title>Node6</title>
<polygon fill="none" stroke="#bfbfbf" points="342.5,-112.5 342.5,-131.5 391.5,-131.5 391.5,-112.5 342.5,-112.5"/>
<text text-anchor="middle" x="367" y="-119.5" font-family="Helvetica,sans-Serif" font-size="10.00">istream</text>
</g>
<!-- Node5&#45;&gt;Node6 -->
<g id="edge5" class="edge"><title>Node5&#45;&gt;Node6</title>
<path fill="none" stroke="midnightblue" d="M97.4032,-169.735C100.305,-169.124 103.204,-168.536 106,-168 203.19,-149.379 231.31,-152.85 332.193,-131.977"/>
<polygon fill="midnightblue" stroke="midnightblue" points="333.119,-135.359 342.187,-129.879 331.682,-128.508 333.119,-135.359"/>
</g>
<!-- Node7 -->
<g id="node7" class="node"><title>Node7</title>
<polygon fill="none" stroke="#bfbfbf" points="272,-112.5 272,-131.5 324,-131.5 324,-112.5 272,-112.5"/>
<text text-anchor="middle" x="298" y="-119.5" font-family="Helvetica,sans-Serif" font-size="10.00">ostream</text>
</g>
<!-- Node5&#45;&gt;Node7 -->
<g id="edge6" class="edge"><title>Node5&#45;&gt;Node7</title>
<path fill="none" stroke="midnightblue" d="M97.3112,-169.957C140.944,-160.124 218.744,-142.527 261.755,-132.244"/>
<polygon fill="midnightblue" stroke="midnightblue" points="262.745,-135.606 271.646,-129.858 261.104,-128.801 262.745,-135.606"/>
</g>
<!-- Node8 -->
<g id="node8" class="node"><title>Node8</title>
<polygon fill="none" stroke="#bfbfbf" points="0,-112.5 0,-131.5 50,-131.5 50,-112.5 0,-112.5"/>
<text text-anchor="middle" x="25" y="-119.5" font-family="Helvetica,sans-Serif" font-size="10.00">iomanip</text>
</g>
<!-- Node5&#45;&gt;Node8 -->
<g id="edge7" class="edge"><title>Node5&#45;&gt;Node8</title>
<path fill="none" stroke="midnightblue" d="M59.2297,-168.083C53.4384,-160.455 44.9415,-149.264 37.8625,-139.941"/>
<polygon fill="midnightblue" stroke="midnightblue" points="40.479,-137.599 31.6443,-131.751 34.9039,-141.832 40.479,-137.599"/>
</g>
<!-- Node9 -->
<g id="node9" class="node"><title>Node9</title>
<g id="a_node9"><a xlink:href="validators_8hh.html" target="_top" xlink:title="validators.hh">
<polygon fill="none" stroke="black" points="182,-112.5 182,-131.5 254,-131.5 254,-112.5 182,-112.5"/>
<text text-anchor="middle" x="218" y="-119.5" font-family="Helvetica,sans-Serif" font-size="10.00">validators.hh</text>
</a>
</g>
</g>
<!-- Node5&#45;&gt;Node9 -->
<g id="edge9" class="edge"><title>Node5&#45;&gt;Node9</title>
<path fill="none" stroke="midnightblue" d="M90.0849,-168.444C115.545,-159.399 155.894,-145.064 184.459,-134.916"/>
<polygon fill="midnightblue" stroke="midnightblue" points="185.777,-138.162 194.028,-131.516 183.433,-131.566 185.777,-138.162"/>
</g>
<!-- Node10 -->
<g id="node10" class="node"><title>Node10</title>
<polygon fill="none" stroke="#bfbfbf" points="441.5,-56.5 441.5,-75.5 500.5,-75.5 500.5,-56.5 441.5,-56.5"/>
<text text-anchor="middle" x="471" y="-63.5" font-family="Helvetica,sans-Serif" font-size="10.00">stdexcept</text>
</g>
<!-- Node9&#45;&gt;Node10 -->
<g id="edge10" class="edge"><title>Node9&#45;&gt;Node10</title>
<path fill="none" stroke="midnightblue" d="M254.249,-113.263C301.191,-103.244 382.731,-85.84 431.301,-75.4734"/>
<polygon fill="midnightblue" stroke="midnightblue" points="432.091,-78.8836 441.14,-73.3732 430.63,-72.0378 432.091,-78.8836"/>
</g>
<!-- Node11 -->
<g id="node11" class="node"><title>Node11</title>
<g id="a_node11"><a xlink:href="blitz_8hh.html" target="_top" xlink:title="blitz.hh">
<polygon fill="none" stroke="black" points="194,-56.5 194,-75.5 242,-75.5 242,-56.5 194,-56.5"/>
<text text-anchor="middle" x="218" y="-63.5" font-family="Helvetica,sans-Serif" font-size="10.00">blitz.hh</text>
</a>
</g>
</g>
<!-- Node9&#45;&gt;Node11 -->
<g id="edge11" class="edge"><title>Node9&#45;&gt;Node11</title>
<path fill="none" stroke="midnightblue" d="M218,-112.083C218,-105.006 218,-94.8611 218,-85.9865"/>
<polygon fill="midnightblue" stroke="midnightblue" points="221.5,-85.751 218,-75.7511 214.5,-85.7511 221.5,-85.751"/>
</g>
<!-- Node11&#45;&gt;Node4 -->
<g id="edge13" class="edge"><title>Node11&#45;&gt;Node4</title>
<path fill="none" stroke="midnightblue" d="M201.612,-56.324C185.329,-47.7034 160.133,-34.3643 141.284,-24.3855"/>
<polygon fill="midnightblue" stroke="midnightblue" points="142.823,-21.2402 132.347,-19.6545 139.548,-27.4267 142.823,-21.2402"/>
</g>
<!-- Node12 -->
<g id="node12" class="node"><title>Node12</title>
<polygon fill="none" stroke="#bfbfbf" points="375,-0.5 375,-19.5 431,-19.5 431,-0.5 375,-0.5"/>
<text text-anchor="middle" x="403" y="-7.5" font-family="Helvetica,sans-Serif" font-size="10.00">algorithm</text>
</g>
<!-- Node11&#45;&gt;Node12 -->
<g id="edge12" class="edge"><title>Node11&#45;&gt;Node12</title>
<path fill="none" stroke="midnightblue" d="M242.186,-57.9404C273.43,-48.8205 328.169,-32.8425 364.996,-22.0929"/>
<polygon fill="midnightblue" stroke="midnightblue" points="366.255,-25.3716 374.874,-19.2097 364.294,-18.652 366.255,-25.3716"/>
</g>
<!-- Node13 -->
<g id="node13" class="node"><title>Node13</title>
<polygon fill="none" stroke="#bfbfbf" points="819,-0.5 819,-19.5 863,-19.5 863,-0.5 819,-0.5"/>
<text text-anchor="middle" x="841" y="-7.5" font-family="Helvetica,sans-Serif" font-size="10.00">cmath</text>
</g>
<!-- Node11&#45;&gt;Node13 -->
<g id="edge14" class="edge"><title>Node11&#45;&gt;Node13</title>
<path fill="none" stroke="midnightblue" d="M242.041,-62.9162C338.561,-54.5501 698.015,-23.3935 808.49,-13.8179"/>
<polygon fill="midnightblue" stroke="midnightblue" points="809.019,-17.2852 818.679,-12.9347 808.414,-10.3114 809.019,-17.2852"/>
</g>
<!-- Node14&#45;&gt;Node3 -->
<g id="edge20" class="edge"><title>Node14&#45;&gt;Node3</title>
<path fill="none" stroke="midnightblue" d="M203.271,-224.324C192.163,-216.107 175.258,-203.602 162.017,-193.807"/>
<polygon fill="midnightblue" stroke="midnightblue" points="164.063,-190.967 153.942,-187.834 159.9,-196.595 164.063,-190.967"/>
</g>
<!-- Node15 -->
<g id="node15" class="node"><title>Node15</title>
<g id="a_node15"><a xlink:href="grid_8hh.html" target="_top" xlink:title="grid.hh">
<polygon fill="none" stroke="black" points="195,-168.5 195,-187.5 241,-187.5 241,-168.5 195,-168.5"/>
<text text-anchor="middle" x="218" y="-175.5" font-family="Helvetica,sans-Serif" font-size="10.00">grid.hh</text>
</a>
</g>
</g>
<!-- Node14&#45;&gt;Node15 -->
<g id="edge16" class="edge"><title>Node14&#45;&gt;Node15</title>
<path fill="none" stroke="midnightblue" d="M215.495,-224.083C215.889,-217.006 216.452,-206.861 216.945,-197.986"/>
<polygon fill="midnightblue" stroke="midnightblue" points="220.454,-197.93 217.514,-187.751 213.464,-197.542 220.454,-197.93"/>
</g>
<!-- Node15&#45;&gt;Node6 -->
<g id="edge17" class="edge"><title>Node15&#45;&gt;Node6</title>
<path fill="none" stroke="midnightblue" d="M241.281,-168.562C266.175,-159.541 305.855,-145.16 333.971,-134.97"/>
<polygon fill="midnightblue" stroke="midnightblue" points="335.181,-138.254 343.391,-131.556 332.796,-131.673 335.181,-138.254"/>
</g>
<!-- Node15&#45;&gt;Node9 -->
<g id="edge19" class="edge"><title>Node15&#45;&gt;Node9</title>
<path fill="none" stroke="midnightblue" d="M218,-168.083C218,-161.006 218,-150.861 218,-141.986"/>
<polygon fill="midnightblue" stroke="midnightblue" points="221.5,-141.751 218,-131.751 214.5,-141.751 221.5,-141.751"/>
</g>
<!-- Node15&#45;&gt;Node11 -->
<g id="edge18" class="edge"><title>Node15&#45;&gt;Node11</title>
<path fill="none" stroke="midnightblue" d="M204.855,-168.463C188.492,-156.671 163.756,-134.317 173,-112 177.92,-100.121 187.667,-89.7428 196.834,-81.9557"/>
<polygon fill="midnightblue" stroke="midnightblue" points="199.253,-84.5058 204.936,-75.5641 194.917,-79.0101 199.253,-84.5058"/>
</g>
<!-- Node16&#45;&gt;Node3 -->
<g id="edge24" class="edge"><title>Node16&#45;&gt;Node3</title>
<path fill="none" stroke="midnightblue" d="M240.309,-288.487C210.52,-282.067 175.461,-269.318 154,-244 143.227,-231.291 140.814,-212.09 140.743,-197.849"/>
<polygon fill="midnightblue" stroke="midnightblue" points="144.246,-197.819 141.074,-187.71 137.25,-197.591 144.246,-197.819"/>
</g>
<!-- Node16&#45;&gt;Node6 -->
<g id="edge22" class="edge"><title>Node16&#45;&gt;Node6</title>
<path fill="none" stroke="midnightblue" d="M349.73,-286.264C374.664,-279.252 401.923,-266.644 417,-244 439.862,-209.664 405.181,-163.2 383.054,-139.06"/>
<polygon fill="midnightblue" stroke="midnightblue" points="385.559,-136.615 376.132,-131.779 380.485,-141.438 385.559,-136.615"/>
</g>
<!-- Node16&#45;&gt;Node7 -->
<g id="edge23" class="edge"><title>Node16&#45;&gt;Node7</title>
<path fill="none" stroke="midnightblue" d="M295.246,-280.925C295.784,-250.073 297.067,-176.484 297.673,-141.755"/>
<polygon fill="midnightblue" stroke="midnightblue" points="301.175,-141.644 297.85,-131.585 294.176,-141.522 301.175,-141.644"/>
</g>
<!-- Node16&#45;&gt;Node14 -->
<g id="edge25" class="edge"><title>Node16&#45;&gt;Node14</title>
<path fill="none" stroke="midnightblue" d="M276.041,-280.781C263.577,-271.433 247.303,-259.227 234.693,-249.77"/>
<polygon fill="midnightblue" stroke="midnightblue" points="236.741,-246.931 226.641,-243.731 232.541,-252.531 236.741,-246.931"/>
</g>
<!-- Node17 -->
<g id="node17" class="node"><title>Node17</title>
<g id="a_node17"><a xlink:href="basic__model_8hh.html" target="_top" xlink:title="basic_model.hh">
<polygon fill="none" stroke="black" points="323.5,-224.5 323.5,-243.5 408.5,-243.5 408.5,-224.5 323.5,-224.5"/>
<text text-anchor="middle" x="366" y="-231.5" font-family="Helvetica,sans-Serif" font-size="10.00">basic_model.hh</text>
</a>
</g>
</g>
<!-- Node16&#45;&gt;Node17 -->
<g id="edge26" class="edge"><title>Node16&#45;&gt;Node17</title>
<path fill="none" stroke="midnightblue" d="M311.826,-280.781C322.675,-271.613 336.777,-259.696 347.873,-250.319"/>
<polygon fill="midnightblue" stroke="midnightblue" points="350.29,-252.858 355.669,-243.731 345.772,-247.512 350.29,-252.858"/>
</g>
<!-- Node32 -->
<g id="node32" class="node"><title>Node32</title>
<g id="a_node32"><a xlink:href="physical__constants_8hh.html" target="_top" xlink:title="physical_constants.hh">
<polygon fill="none" stroke="black" points="969,-56.5 969,-75.5 1083,-75.5 1083,-56.5 969,-56.5"/>
<text text-anchor="middle" x="1026" y="-63.5" font-family="Helvetica,sans-Serif" font-size="10.00">physical_constants.hh</text>
</a>
</g>
</g>
<!-- Node16&#45;&gt;Node32 -->
<g id="edge50" class="edge"><title>Node16&#45;&gt;Node32</title>
<path fill="none" stroke="midnightblue" d="M349.737,-294.344C533.537,-290.876 1123.57,-269.073 1239,-132 1281.9,-81.0556 1170.62,-69.2407 1093.23,-66.9621"/>
<polygon fill="midnightblue" stroke="midnightblue" points="1093.11,-63.4582 1083.02,-66.7101 1092.94,-70.456 1093.11,-63.4582"/>
</g>
<!-- Node17&#45;&gt;Node3 -->
<g id="edge49" class="edge"><title>Node17&#45;&gt;Node3</title>
<path fill="none" stroke="midnightblue" d="M330.507,-224.444C289.137,-214.47 221.091,-198.067 179.061,-187.934"/>
<polygon fill="midnightblue" stroke="midnightblue" points="179.766,-184.504 169.225,-185.563 178.126,-191.309 179.766,-184.504"/>
</g>
<!-- Node17&#45;&gt;Node6 -->
<g id="edge27" class="edge"><title>Node17&#45;&gt;Node6</title>
<path fill="none" stroke="midnightblue" d="M366.078,-224.368C366.24,-206.617 366.612,-165.666 366.831,-141.597"/>
<polygon fill="midnightblue" stroke="midnightblue" points="370.331,-141.623 366.922,-131.591 363.331,-141.559 370.331,-141.623"/>
</g>
<!-- Node17&#45;&gt;Node7 -->
<g id="edge28" class="edge"><title>Node17&#45;&gt;Node7</title>
<path fill="none" stroke="midnightblue" d="M360.664,-224.368C349.492,-206.296 323.455,-164.176 308.699,-140.307"/>
<polygon fill="midnightblue" stroke="midnightblue" points="311.546,-138.257 303.311,-131.591 305.592,-141.938 311.546,-138.257"/>
</g>
<!-- Node17&#45;&gt;Node15 -->
<g id="edge29" class="edge"><title>Node17&#45;&gt;Node15</title>
<path fill="none" stroke="midnightblue" d="M342.549,-224.444C317.867,-215.438 278.815,-201.189 251.023,-191.049"/>
<polygon fill="midnightblue" stroke="midnightblue" points="251.935,-187.656 241.341,-187.516 249.536,-194.232 251.935,-187.656"/>
</g>
<!-- Node18 -->
<g id="node18" class="node"><title>Node18</title>
<g id="a_node18"><a xlink:href="output__flags_8hh.html" target="_top" xlink:title="output_flags.hh">
<polygon fill="none" stroke="black" points="458.5,-168.5 458.5,-187.5 541.5,-187.5 541.5,-168.5 458.5,-168.5"/>
<text text-anchor="middle" x="500" y="-175.5" font-family="Helvetica,sans-Serif" font-size="10.00">output_flags.hh</text>
</a>
</g>
</g>
<!-- Node17&#45;&gt;Node18 -->
<g id="edge30" class="edge"><title>Node17&#45;&gt;Node18</title>
<path fill="none" stroke="midnightblue" d="M387.233,-224.444C409.384,-215.517 444.319,-201.439 469.436,-191.317"/>
<polygon fill="midnightblue" stroke="midnightblue" points="470.9,-194.501 478.867,-187.516 468.283,-188.008 470.9,-194.501"/>
</g>
<!-- Node22 -->
<g id="node22" class="node"><title>Node22</title>
<g id="a_node22"><a xlink:href="parallel__mt_8hh.html" target="_top" xlink:title="parallel_mt.hh">
<polygon fill="none" stroke="black" points="786.5,-168.5 786.5,-187.5 863.5,-187.5 863.5,-168.5 786.5,-168.5"/>
<text text-anchor="middle" x="825" y="-175.5" font-family="Helvetica,sans-Serif" font-size="10.00">parallel_mt.hh</text>
</a>
</g>
</g>
<!-- Node17&#45;&gt;Node22 -->
<g id="edge36" class="edge"><title>Node17&#45;&gt;Node22</title>
<path fill="none" stroke="midnightblue" d="M408.769,-227.968C494.38,-217.897 686.302,-195.317 776.463,-184.71"/>
<polygon fill="midnightblue" stroke="midnightblue" points="776.9,-188.183 786.422,-183.539 776.082,-181.231 776.9,-188.183"/>
</g>
<!-- Node18&#45;&gt;Node6 -->
<g id="edge32" class="edge"><title>Node18&#45;&gt;Node6</title>
<path fill="none" stroke="midnightblue" d="M478.926,-168.444C456.94,-159.517 422.266,-145.439 397.336,-135.317"/>
<polygon fill="midnightblue" stroke="midnightblue" points="398.558,-132.035 387.976,-131.516 395.924,-138.521 398.558,-132.035"/>
</g>
<!-- Node18&#45;&gt;Node7 -->
<g id="edge33" class="edge"><title>Node18&#45;&gt;Node7</title>
<path fill="none" stroke="midnightblue" d="M467.992,-168.444C431.589,-158.712 372.279,-142.857 334.213,-132.681"/>
<polygon fill="midnightblue" stroke="midnightblue" points="334.641,-129.172 324.077,-129.971 332.833,-135.935 334.641,-129.172"/>
</g>
<!-- Node19 -->
<g id="node19" class="node"><title>Node19</title>
<polygon fill="none" stroke="#bfbfbf" points="549.5,-112.5 549.5,-131.5 590.5,-131.5 590.5,-112.5 549.5,-112.5"/>
<text text-anchor="middle" x="570" y="-119.5" font-family="Helvetica,sans-Serif" font-size="10.00">bitset</text>
</g>
<!-- Node18&#45;&gt;Node19 -->
<g id="edge31" class="edge"><title>Node18&#45;&gt;Node19</title>
<path fill="none" stroke="midnightblue" d="M511.247,-168.324C521.797,-160.185 537.801,-147.839 550.442,-138.087"/>
<polygon fill="midnightblue" stroke="midnightblue" points="552.769,-140.713 558.549,-131.834 548.493,-135.171 552.769,-140.713"/>
</g>
<!-- Node20 -->
<g id="node20" class="node"><title>Node20</title>
<polygon fill="none" stroke="#bfbfbf" points="409.5,-112.5 409.5,-131.5 450.5,-131.5 450.5,-112.5 409.5,-112.5"/>
<text text-anchor="middle" x="430" y="-119.5" font-family="Helvetica,sans-Serif" font-size="10.00">string</text>
</g>
<!-- Node18&#45;&gt;Node20 -->
<g id="edge34" class="edge"><title>Node18&#45;&gt;Node20</title>
<path fill="none" stroke="midnightblue" d="M488.753,-168.324C478.203,-160.185 462.199,-147.839 449.558,-138.087"/>
<polygon fill="midnightblue" stroke="midnightblue" points="451.507,-135.171 441.451,-131.834 447.231,-140.713 451.507,-135.171"/>
</g>
<!-- Node21 -->
<g id="node21" class="node"><title>Node21</title>
<polygon fill="none" stroke="#bfbfbf" points="469,-112.5 469,-131.5 531,-131.5 531,-112.5 469,-112.5"/>
<text text-anchor="middle" x="500" y="-119.5" font-family="Helvetica,sans-Serif" font-size="10.00">type_traits</text>
</g>
<!-- Node18&#45;&gt;Node21 -->
<g id="edge35" class="edge"><title>Node18&#45;&gt;Node21</title>
<path fill="none" stroke="midnightblue" d="M500,-168.083C500,-161.006 500,-150.861 500,-141.986"/>
<polygon fill="midnightblue" stroke="midnightblue" points="503.5,-141.751 500,-131.751 496.5,-141.751 503.5,-141.751"/>
</g>
<!-- Node22&#45;&gt;Node6 -->
<g id="edge41" class="edge"><title>Node22&#45;&gt;Node6</title>
<path fill="none" stroke="midnightblue" d="M786.313,-174.991C712.953,-170.731 548.521,-159.039 401.848,-132.095"/>
<polygon fill="midnightblue" stroke="midnightblue" points="402.239,-128.608 391.767,-130.214 400.955,-135.489 402.239,-128.608"/>
</g>
<!-- Node22&#45;&gt;Node10 -->
<g id="edge43" class="edge"><title>Node22&#45;&gt;Node10</title>
<path fill="none" stroke="midnightblue" d="M798.054,-168.394C771.773,-159.814 730.787,-145.94 696,-132 676.06,-124.01 672.286,-119.065 652,-112 604.344,-95.4018 547.631,-82.3353 510.551,-74.652"/>
<polygon fill="midnightblue" stroke="midnightblue" points="511.134,-71.199 500.636,-72.6292 509.735,-78.0577 511.134,-71.199"/>
</g>
<!-- Node22&#45;&gt;Node12 -->
<g id="edge38" class="edge"><title>Node22&#45;&gt;Node12</title>
<path fill="none" stroke="midnightblue" d="M806.783,-168.384C787.655,-159.335 756.706,-144.684 730,-132 711.324,-123.13 707.103,-119.908 688,-112 600.332,-75.7073 494.384,-40.314 439.674,-22.6425"/>
<polygon fill="midnightblue" stroke="midnightblue" points="440.662,-19.2837 430.07,-19.5528 438.518,-25.9473 440.662,-19.2837"/>
</g>
<!-- Node23 -->
<g id="node23" class="node"><title>Node23</title>
<polygon fill="none" stroke="#bfbfbf" points="738.5,-112.5 738.5,-131.5 783.5,-131.5 783.5,-112.5 738.5,-112.5"/>
<text text-anchor="middle" x="761" y="-119.5" font-family="Helvetica,sans-Serif" font-size="10.00">cstdlib</text>
</g>
<!-- Node22&#45;&gt;Node23 -->
<g id="edge37" class="edge"><title>Node22&#45;&gt;Node23</title>
<path fill="none" stroke="midnightblue" d="M814.717,-168.324C805.164,-160.263 790.72,-148.077 779.216,-138.369"/>
<polygon fill="midnightblue" stroke="midnightblue" points="781.37,-135.608 771.47,-131.834 776.856,-140.958 781.37,-135.608"/>
</g>
<!-- Node24 -->
<g id="node24" class="node"><title>Node24</title>
<polygon fill="none" stroke="#bfbfbf" points="802,-112.5 802,-131.5 848,-131.5 848,-112.5 802,-112.5"/>
<text text-anchor="middle" x="825" y="-119.5" font-family="Helvetica,sans-Serif" font-size="10.00">cstdint</text>
</g>
<!-- Node22&#45;&gt;Node24 -->
<g id="edge39" class="edge"><title>Node22&#45;&gt;Node24</title>
<path fill="none" stroke="midnightblue" d="M825,-168.083C825,-161.006 825,-150.861 825,-141.986"/>
<polygon fill="midnightblue" stroke="midnightblue" points="828.5,-141.751 825,-131.751 821.5,-141.751 828.5,-141.751"/>
</g>
<!-- Node25 -->
<g id="node25" class="node"><title>Node25</title>
<polygon fill="none" stroke="#bfbfbf" points="866,-112.5 866,-131.5 912,-131.5 912,-112.5 866,-112.5"/>
<text text-anchor="middle" x="889" y="-119.5" font-family="Helvetica,sans-Serif" font-size="10.00">cstring</text>
</g>
<!-- Node22&#45;&gt;Node25 -->
<g id="edge40" class="edge"><title>Node22&#45;&gt;Node25</title>
<path fill="none" stroke="midnightblue" d="M835.283,-168.324C844.836,-160.263 859.28,-148.077 870.784,-138.369"/>
<polygon fill="midnightblue" stroke="midnightblue" points="873.144,-140.958 878.53,-131.834 868.63,-135.608 873.144,-140.958"/>
</g>
<!-- Node26 -->
<g id="node26" class="node"><title>Node26</title>
<polygon fill="none" stroke="#bfbfbf" points="930,-112.5 930,-131.5 970,-131.5 970,-112.5 930,-112.5"/>
<text text-anchor="middle" x="950" y="-119.5" font-family="Helvetica,sans-Serif" font-size="10.00">limits</text>
</g>
<!-- Node22&#45;&gt;Node26 -->
<g id="edge42" class="edge"><title>Node22&#45;&gt;Node26</title>
<path fill="none" stroke="midnightblue" d="M844.807,-168.444C865.287,-159.596 897.483,-145.687 920.865,-135.586"/>
<polygon fill="midnightblue" stroke="midnightblue" points="922.494,-138.695 930.286,-131.516 919.718,-132.269 922.494,-138.695"/>
</g>
<!-- Node27 -->
<g id="node27" class="node"><title>Node27</title>
<polygon fill="none" stroke="#bfbfbf" points="988,-112.5 988,-131.5 1032,-131.5 1032,-112.5 988,-112.5"/>
<text text-anchor="middle" x="1010" y="-119.5" font-family="Helvetica,sans-Serif" font-size="10.00">vector</text>
</g>
<!-- Node22&#45;&gt;Node27 -->
<g id="edge44" class="edge"><title>Node22&#45;&gt;Node27</title>
<path fill="none" stroke="midnightblue" d="M854.314,-168.444C888.068,-158.591 943.324,-142.462 978.124,-132.304"/>
<polygon fill="midnightblue" stroke="midnightblue" points="979.172,-135.644 987.791,-129.483 977.211,-128.925 979.172,-135.644"/>
</g>
<!-- Node28 -->
<g id="node28" class="node"><title>Node28</title>
<polygon fill="none" stroke="#bfbfbf" points="1050,-112.5 1050,-131.5 1100,-131.5 1100,-112.5 1050,-112.5"/>
<text text-anchor="middle" x="1075" y="-119.5" font-family="Helvetica,sans-Serif" font-size="10.00">fstream</text>
</g>
<!-- Node22&#45;&gt;Node28 -->
<g id="edge45" class="edge"><title>Node22&#45;&gt;Node28</title>
<path fill="none" stroke="midnightblue" d="M863.566,-169.476C906.684,-160.937 978.534,-146.327 1040,-132 1040.1,-131.977 1040.2,-131.954 1040.3,-131.93"/>
<polygon fill="midnightblue" stroke="midnightblue" points="1040.91,-135.385 1049.8,-129.626 1039.26,-128.582 1040.91,-135.385"/>
</g>
<!-- Node29 -->
<g id="node29" class="node"><title>Node29</title>
<polygon fill="none" stroke="#bfbfbf" points="1118.5,-112.5 1118.5,-131.5 1165.5,-131.5 1165.5,-112.5 1118.5,-112.5"/>
<text text-anchor="middle" x="1142" y="-119.5" font-family="Helvetica,sans-Serif" font-size="10.00">iterator</text>
</g>
<!-- Node22&#45;&gt;Node29 -->
<g id="edge46" class="edge"><title>Node22&#45;&gt;Node29</title>
<path fill="none" stroke="midnightblue" d="M863.834,-172.213C916.881,-165.375 1015.12,-151.651 1108.4,-131.918"/>
<polygon fill="midnightblue" stroke="midnightblue" points="1109.24,-135.318 1118.28,-129.801 1107.77,-128.474 1109.24,-135.318"/>
</g>
<!-- Node30 -->
<g id="node30" class="node"><title>Node30</title>
<polygon fill="none" stroke="#bfbfbf" points="1184,-112.5 1184,-131.5 1230,-131.5 1230,-112.5 1184,-112.5"/>
<text text-anchor="middle" x="1207" y="-119.5" font-family="Helvetica,sans-Serif" font-size="10.00">chrono</text>
</g>
<!-- Node22&#45;&gt;Node30 -->
<g id="edge47" class="edge"><title>Node22&#45;&gt;Node30</title>
<path fill="none" stroke="midnightblue" d="M863.757,-173.764C926.699,-168.128 1055.15,-155.039 1173.69,-131.78"/>
<polygon fill="midnightblue" stroke="midnightblue" points="1174.54,-135.18 1183.66,-129.794 1173.17,-128.314 1174.54,-135.18"/>
</g>
<!-- Node31 -->
<g id="node31" class="node"><title>Node31</title>
<polygon fill="none" stroke="#bfbfbf" points="608.5,-112.5 608.5,-131.5 643.5,-131.5 643.5,-112.5 608.5,-112.5"/>
<text text-anchor="middle" x="626" y="-119.5" font-family="Helvetica,sans-Serif" font-size="10.00">dc.h</text>
</g>
<!-- Node22&#45;&gt;Node31 -->
<g id="edge48" class="edge"><title>Node22&#45;&gt;Node31</title>
<path fill="none" stroke="midnightblue" d="M792.957,-168.477C759.317,-159.504 704.899,-144.913 658,-132 656.539,-131.598 655.042,-131.184 653.53,-130.764"/>
<polygon fill="midnightblue" stroke="midnightblue" points="654.169,-127.308 643.596,-127.986 652.284,-134.05 654.169,-127.308"/>
</g>
<!-- Node32&#45;&gt;Node13 -->
<g id="edge51" class="edge"><title>Node32&#45;&gt;Node13</title>
<path fill="none" stroke="midnightblue" d="M996.686,-56.4435C962.932,-46.591 907.676,-30.4621 872.876,-20.3044"/>
<polygon fill="midnightblue" stroke="midnightblue" points="873.789,-16.9249 863.209,-17.4826 871.828,-23.6445 873.789,-16.9249"/>
</g>
</g>
</svg>
