<?xml version="1.0" encoding="UTF-8" standalone="no"?>
<!DOCTYPE svg PUBLIC "-//W3C//DTD SVG 1.1//EN"
 "http://www.w3.org/Graphics/SVG/1.1/DTD/svg11.dtd">
<!-- Generated by graphviz version 2.40.1 (20161225.0304)
 -->
<!-- Title: src/velocity/plain_wave_solver.cc Pages: 1 -->
<svg width="1267pt" height="442pt"
 viewBox="0.00 0.00 1267.18 442.00" xmlns="http://www.w3.org/2000/svg" xmlns:xlink="http://www.w3.org/1999/xlink">
<g id="graph0" class="graph" transform="scale(1 1) rotate(0) translate(4 438)">
<title>src/velocity/plain_wave_solver.cc</title>
<!-- Node0 -->
<g id="node1" class="node">
<title>Node0</title>
<polygon fill="#bfbfbf" stroke="#000000" points="398.594,-403.5 398.594,-433.5 488.594,-433.5 488.594,-403.5 398.594,-403.5"/>
<text text-anchor="start" x="406.594" y="-421.5" font-family="Helvetica,sans-Serif" font-size="10.00" fill="#000000">src/velocity/plain</text>
<text text-anchor="middle" x="443.594" y="-410.5" font-family="Helvetica,sans-Serif" font-size="10.00" fill="#000000">_wave_solver.cc</text>
</g>
<!-- Node1 -->
<g id="node2" class="node">
<title>Node1</title>
<g id="a_node2"><a xlink:href="plain__wave__solver_8hh.html" target="_top" xlink:title="plain_wave_solver.hh">
<polygon fill="none" stroke="#000000" points="123.594,-347.5 123.594,-366.5 233.594,-366.5 233.594,-347.5 123.594,-347.5"/>
<text text-anchor="middle" x="178.594" y="-354.5" font-family="Helvetica,sans-Serif" font-size="10.00" fill="#000000">plain_wave_solver.hh</text>
</a>
</g>
</g>
<!-- Node0&#45;&gt;Node1 -->
<g id="edge1" class="edge">
<title>Node0&#45;&gt;Node1</title>
<path fill="none" stroke="#191970" d="M398.34,-407.9977C351.5546,-397.1399 278.6446,-380.2193 229.7839,-368.8799"/>
<polygon fill="#191970" stroke="#191970" points="230.2731,-365.4005 219.7407,-366.5491 228.6905,-372.2193 230.2731,-365.4005"/>
</g>
<!-- Node10 -->
<g id="node11" class="node">
<title>Node10</title>
<g id="a_node11"><a xlink:href="validators_8hh.html" target="_top" xlink:title="validators.hh">
<polygon fill="none" stroke="#000000" points="231.594,-112.5 231.594,-131.5 303.594,-131.5 303.594,-112.5 231.594,-112.5"/>
<text text-anchor="middle" x="267.594" y="-119.5" font-family="Helvetica,sans-Serif" font-size="10.00" fill="#000000">validators.hh</text>
</a>
</g>
</g>
<!-- Node0&#45;&gt;Node10 -->
<g id="edge57" class="edge">
<title>Node0&#45;&gt;Node10</title>
<path fill="none" stroke="#191970" d="M398.5165,-403.9174C353.3853,-386.1531 290.594,-351.3941 290.594,-295.5 290.594,-295.5 290.594,-295.5 290.594,-234 290.594,-200.906 280.8392,-163.4151 274.0352,-141.2901"/>
<polygon fill="#191970" stroke="#191970" points="277.3646,-140.2105 270.9877,-131.7497 270.6966,-142.3405 277.3646,-140.2105"/>
</g>
<!-- Node32 -->
<g id="node33" class="node">
<title>Node32</title>
<g id="a_node33"><a xlink:href="physical__constants_8hh.html" target="_top" xlink:title="physical_constants.hh">
<polygon fill="none" stroke="#000000" points="758.594,-224.5 758.594,-243.5 872.594,-243.5 872.594,-224.5 758.594,-224.5"/>
<text text-anchor="middle" x="815.594" y="-231.5" font-family="Helvetica,sans-Serif" font-size="10.00" fill="#000000">physical_constants.hh</text>
</a>
</g>
</g>
<!-- Node0&#45;&gt;Node32 -->
<g id="edge56" class="edge">
<title>Node0&#45;&gt;Node32</title>
<path fill="none" stroke="#191970" d="M488.6228,-410.9902C574.4461,-395.7261 756.4863,-358.4653 796.594,-311 810.0243,-295.106 814.2192,-271.1436 815.4024,-254.1778"/>
<polygon fill="#191970" stroke="#191970" points="818.9174,-253.8661 815.8168,-243.7352 811.9229,-253.5885 818.9174,-253.8661"/>
</g>
<!-- Node33 -->
<g id="node34" class="node">
<title>Node33</title>
<g id="a_node34"><a xlink:href="params_8hh.html" target="_top" xlink:title="params.hh">
<polygon fill="none" stroke="#000000" points="596.594,-347.5 596.594,-366.5 658.594,-366.5 658.594,-347.5 596.594,-347.5"/>
<text text-anchor="middle" x="627.594" y="-354.5" font-family="Helvetica,sans-Serif" font-size="10.00" fill="#000000">params.hh</text>
</a>
</g>
</g>
<!-- Node0&#45;&gt;Node33 -->
<g id="edge58" class="edge">
<title>Node0&#45;&gt;Node33</title>
<path fill="none" stroke="#191970" d="M488.6055,-403.4554C519.5756,-393.104 560.2568,-379.5067 589.596,-369.7004"/>
<polygon fill="#191970" stroke="#191970" points="590.7058,-373.0199 599.0805,-366.5303 588.4867,-366.3809 590.7058,-373.0199"/>
</g>
<!-- Node2 -->
<g id="node3" class="node">
<title>Node2</title>
<g id="a_node3"><a xlink:href="basic__solver_8hh.html" target="_top" xlink:title="basic_solver.hh">
<polygon fill="none" stroke="#000000" points="79.594,-286 79.594,-305 163.594,-305 163.594,-286 79.594,-286"/>
<text text-anchor="middle" x="121.594" y="-293" font-family="Helvetica,sans-Serif" font-size="10.00" fill="#000000">basic_solver.hh</text>
</a>
</g>
</g>
<!-- Node1&#45;&gt;Node2 -->
<g id="edge2" class="edge">
<title>Node1&#45;&gt;Node2</title>
<path fill="none" stroke="#191970" d="M169.6878,-347.3906C161.1213,-338.1478 147.9771,-323.966 137.5937,-312.7628"/>
<polygon fill="#191970" stroke="#191970" points="139.9905,-310.2 130.6258,-305.2449 134.8565,-314.9584 139.9905,-310.2"/>
</g>
<!-- Node3 -->
<g id="node4" class="node">
<title>Node3</title>
<g id="a_node4"><a xlink:href="types_8hh.html" target="_top" xlink:title="types.hh">
<polygon fill="none" stroke="#000000" points="27.594,-168.5 27.594,-187.5 81.594,-187.5 81.594,-168.5 27.594,-168.5"/>
<text text-anchor="middle" x="54.594" y="-175.5" font-family="Helvetica,sans-Serif" font-size="10.00" fill="#000000">types.hh</text>
</a>
</g>
</g>
<!-- Node1&#45;&gt;Node3 -->
<g id="edge55" class="edge">
<title>Node1&#45;&gt;Node3</title>
<path fill="none" stroke="#191970" d="M128.9227,-347.4793C107.6856,-340.8323 84.6031,-329.6619 70.594,-311 45.5604,-277.6519 47.7443,-225.7759 51.3003,-197.6833"/>
<polygon fill="#191970" stroke="#191970" points="54.8003,-197.9374 52.7807,-187.5368 47.8736,-196.9267 54.8003,-197.9374"/>
</g>
<!-- Node16 -->
<g id="node17" class="node">
<title>Node16</title>
<g id="a_node17"><a xlink:href="plain__wave__model_8hh.html" target="_top" xlink:title="generator/plain_wave\l_model.hh">
<polygon fill="none" stroke="#000000" points="319.094,-280.5 319.094,-310.5 428.094,-310.5 428.094,-280.5 319.094,-280.5"/>
<text text-anchor="start" x="327.094" y="-298.5" font-family="Helvetica,sans-Serif" font-size="10.00" fill="#000000">generator/plain_wave</text>
<text text-anchor="middle" x="373.594" y="-287.5" font-family="Helvetica,sans-Serif" font-size="10.00" fill="#000000">_model.hh</text>
</a>
</g>
</g>
<!-- Node1&#45;&gt;Node16 -->
<g id="edge24" class="edge">
<title>Node1&#45;&gt;Node16</title>
<path fill="none" stroke="#191970" d="M209.0628,-347.3906C237.6529,-338.3737 281.1471,-324.6563 316.2368,-313.5896"/>
<polygon fill="#191970" stroke="#191970" points="317.4075,-316.8904 325.8916,-310.5446 315.3019,-310.2145 317.4075,-316.8904"/>
</g>
<!-- Node2&#45;&gt;Node3 -->
<g id="edge3" class="edge">
<title>Node2&#45;&gt;Node3</title>
<path fill="none" stroke="#191970" d="M116.1111,-285.8845C105.0197,-266.4331 79.7483,-222.1138 65.2833,-196.7462"/>
<polygon fill="#191970" stroke="#191970" points="68.1466,-194.7017 60.1527,-187.7484 62.0657,-198.1691 68.1466,-194.7017"/>
</g>
<!-- Node5 -->
<g id="node6" class="node">
<title>Node5</title>
<g id="a_node6"><a xlink:href="domain_8hh.html" target="_top" xlink:title="domain.hh">
<polygon fill="none" stroke="#000000" points="99.594,-168.5 99.594,-187.5 161.594,-187.5 161.594,-168.5 99.594,-168.5"/>
<text text-anchor="middle" x="130.594" y="-175.5" font-family="Helvetica,sans-Serif" font-size="10.00" fill="#000000">domain.hh</text>
</a>
</g>
</g>
<!-- Node2&#45;&gt;Node5 -->
<g id="edge5" class="edge">
<title>Node2&#45;&gt;Node5</title>
<path fill="none" stroke="#191970" d="M122.3305,-285.8845C123.8006,-266.6913 127.1253,-223.286 129.08,-197.7663"/>
<polygon fill="#191970" stroke="#191970" points="132.5733,-197.9865 129.8473,-187.7484 125.5937,-197.4518 132.5733,-197.9865"/>
</g>
<!-- Node14 -->
<g id="node15" class="node">
<title>Node14</title>
<g id="a_node15"><a xlink:href="discrete__function_8hh.html" target="_top" xlink:title="discrete_function.hh">
<polygon fill="none" stroke="#000000" points="158.594,-224.5 158.594,-243.5 262.594,-243.5 262.594,-224.5 158.594,-224.5"/>
<text text-anchor="middle" x="210.594" y="-231.5" font-family="Helvetica,sans-Serif" font-size="10.00" fill="#000000">discrete_function.hh</text>
</a>
</g>
</g>
<!-- Node2&#45;&gt;Node14 -->
<g id="edge17" class="edge">
<title>Node2&#45;&gt;Node14</title>
<path fill="none" stroke="#191970" d="M135.5003,-285.8906C149.6078,-276.1421 171.6664,-260.8994 188.2325,-249.4521"/>
<polygon fill="#191970" stroke="#191970" points="190.5482,-252.1063 196.7854,-243.5419 186.5688,-246.3474 190.5482,-252.1063"/>
</g>
<!-- Node4 -->
<g id="node5" class="node">
<title>Node4</title>
<polygon fill="none" stroke="#bfbfbf" points="56.094,-.5 56.094,-19.5 123.094,-19.5 123.094,-.5 56.094,-.5"/>
<text text-anchor="middle" x="89.594" y="-7.5" font-family="Helvetica,sans-Serif" font-size="10.00" fill="#000000">blitz/array.h</text>
</g>
<!-- Node3&#45;&gt;Node4 -->
<g id="edge4" class="edge">
<title>Node3&#45;&gt;Node4</title>
<path fill="none" stroke="#191970" d="M37.5373,-168.377C25.2851,-160.4014 9.7232,-147.8248 2.594,-132 -1.0571,-123.8956 -.4798,-120.3405 2.594,-112 15.8101,-76.1397 47.8655,-44.3177 69.155,-26.1071"/>
<polygon fill="#191970" stroke="#191970" points="71.5374,-28.6782 76.9948,-19.597 67.0655,-23.2929 71.5374,-28.6782"/>
</g>
<!-- Node5&#45;&gt;Node4 -->
<g id="edge10" class="edge">
<title>Node5&#45;&gt;Node4</title>
<path fill="none" stroke="#191970" d="M126.4844,-168.2795C122.7156,-159.0706 117.1894,-144.786 113.594,-132 103.6058,-96.4799 96.2562,-54.0034 92.4745,-29.6955"/>
<polygon fill="#191970" stroke="#191970" points="95.9058,-28.9776 90.9499,-19.6133 88.9845,-30.0242 95.9058,-28.9776"/>
</g>
<!-- Node6 -->
<g id="node7" class="node">
<title>Node6</title>
<polygon fill="none" stroke="#bfbfbf" points="169.594,-.5 169.594,-19.5 213.594,-19.5 213.594,-.5 169.594,-.5"/>
<text text-anchor="middle" x="191.594" y="-7.5" font-family="Helvetica,sans-Serif" font-size="10.00" fill="#000000">cmath</text>
</g>
<!-- Node5&#45;&gt;Node6 -->
<g id="edge6" class="edge">
<title>Node5&#45;&gt;Node6</title>
<path fill="none" stroke="#191970" d="M134.0484,-168.4862C143.7746,-141.6994 171.5306,-65.2565 184.6121,-29.2289"/>
<polygon fill="#191970" stroke="#191970" points="187.9024,-30.422 188.0255,-19.8279 181.3227,-28.0329 187.9024,-30.422"/>
</g>
<!-- Node7 -->
<g id="node8" class="node">
<title>Node7</title>
<polygon fill="none" stroke="#bfbfbf" points="11.594,-112.5 11.594,-131.5 61.594,-131.5 61.594,-112.5 11.594,-112.5"/>
<text text-anchor="middle" x="36.594" y="-119.5" font-family="Helvetica,sans-Serif" font-size="10.00" fill="#000000">iomanip</text>
</g>
<!-- Node5&#45;&gt;Node7 -->
<g id="edge7" class="edge">
<title>Node5&#45;&gt;Node7</title>
<path fill="none" stroke="#191970" d="M114.2205,-168.2455C99.6632,-159.5731 78.163,-146.7645 61.4788,-136.825"/>
<polygon fill="#191970" stroke="#191970" points="63.1623,-133.7539 52.7799,-131.6427 59.5796,-139.7676 63.1623,-133.7539"/>
</g>
<!-- Node8 -->
<g id="node9" class="node">
<title>Node8</title>
<polygon fill="none" stroke="#bfbfbf" points="322.094,-112.5 322.094,-131.5 371.094,-131.5 371.094,-112.5 322.094,-112.5"/>
<text text-anchor="middle" x="346.594" y="-119.5" font-family="Helvetica,sans-Serif" font-size="10.00" fill="#000000">istream</text>
</g>
<!-- Node5&#45;&gt;Node8 -->
<g id="edge8" class="edge">
<title>Node5&#45;&gt;Node8</title>
<path fill="none" stroke="#191970" d="M161.6037,-170.5476C195.9884,-162.1998 253.3238,-148.0312 311.9445,-132.1046"/>
<polygon fill="#191970" stroke="#191970" points="313.0182,-135.4396 321.743,-129.429 311.1742,-128.6868 313.0182,-135.4396"/>
</g>
<!-- Node9 -->
<g id="node10" class="node">
<title>Node9</title>
<polygon fill="none" stroke="#bfbfbf" points="389.594,-112.5 389.594,-131.5 441.594,-131.5 441.594,-112.5 389.594,-112.5"/>
<text text-anchor="middle" x="415.594" y="-119.5" font-family="Helvetica,sans-Serif" font-size="10.00" fill="#000000">ostream</text>
</g>
<!-- Node5&#45;&gt;Node9 -->
<g id="edge9" class="edge">
<title>Node5&#45;&gt;Node9</title>
<path fill="none" stroke="#191970" d="M161.9223,-172.6245C215.8677,-163.3075 325.0429,-144.1714 379.4784,-132.0587"/>
<polygon fill="#191970" stroke="#191970" points="380.3269,-135.4551 389.2918,-129.8088 378.7625,-128.6321 380.3269,-135.4551"/>
</g>
<!-- Node5&#45;&gt;Node10 -->
<g id="edge11" class="edge">
<title>Node5&#45;&gt;Node10</title>
<path fill="none" stroke="#191970" d="M154.1451,-168.3733C176.4331,-159.2629 210.0877,-145.5062 234.9577,-135.3404"/>
<polygon fill="#191970" stroke="#191970" points="236.4179,-138.5247 244.3502,-131.5011 233.7693,-132.0451 236.4179,-138.5247"/>
</g>
<!-- Node11 -->
<g id="node12" class="node">
<title>Node11</title>
<polygon fill="none" stroke="#bfbfbf" points="668.094,-56.5 668.094,-75.5 727.094,-75.5 727.094,-56.5 668.094,-56.5"/>
<text text-anchor="middle" x="697.594" y="-63.5" font-family="Helvetica,sans-Serif" font-size="10.00" fill="#000000">stdexcept</text>
</g>
<!-- Node10&#45;&gt;Node11 -->
<g id="edge12" class="edge">
<title>Node10&#45;&gt;Node11</title>
<path fill="none" stroke="#191970" d="M303.6907,-113.8142C307.0308,-113.1592 310.3702,-112.5422 313.594,-112 438.6095,-90.9721 588.0966,-75.9399 657.956,-69.4975"/>
<polygon fill="#191970" stroke="#191970" points="658.4309,-72.9688 668.071,-68.5736 657.7941,-65.9978 658.4309,-72.9688"/>
</g>
<!-- Node12 -->
<g id="node13" class="node">
<title>Node12</title>
<g id="a_node13"><a xlink:href="blitz_8hh.html" target="_top" xlink:title="blitz.hh">
<polygon fill="none" stroke="#000000" points="193.594,-56.5 193.594,-75.5 241.594,-75.5 241.594,-56.5 193.594,-56.5"/>
<text text-anchor="middle" x="217.594" y="-63.5" font-family="Helvetica,sans-Serif" font-size="10.00" fill="#000000">blitz.hh</text>
</a>
</g>
</g>
<!-- Node10&#45;&gt;Node12 -->
<g id="edge13" class="edge">
<title>Node10&#45;&gt;Node12</title>
<path fill="none" stroke="#191970" d="M258.8847,-112.2455C251.7867,-104.2958 241.5856,-92.8706 233.099,-83.3656"/>
<polygon fill="#191970" stroke="#191970" points="235.4745,-80.771 226.2035,-75.6427 230.2529,-85.4331 235.4745,-80.771"/>
</g>
<!-- Node12&#45;&gt;Node4 -->
<g id="edge15" class="edge">
<title>Node12&#45;&gt;Node4</title>
<path fill="none" stroke="#191970" d="M195.59,-56.3733C174.9505,-47.3435 143.8782,-33.7494 120.7051,-23.6111"/>
<polygon fill="#191970" stroke="#191970" points="121.8753,-20.3028 111.3109,-19.5011 119.0696,-26.7159 121.8753,-20.3028"/>
</g>
<!-- Node12&#45;&gt;Node6 -->
<g id="edge16" class="edge">
<title>Node12&#45;&gt;Node6</title>
<path fill="none" stroke="#191970" d="M213.0651,-56.2455C209.5606,-48.6973 204.6013,-38.0158 200.3317,-28.8197"/>
<polygon fill="#191970" stroke="#191970" points="203.4567,-27.2389 196.071,-19.6427 197.1076,-30.1867 203.4567,-27.2389"/>
</g>
<!-- Node13 -->
<g id="node14" class="node">
<title>Node13</title>
<polygon fill="none" stroke="#bfbfbf" points="769.594,-.5 769.594,-19.5 825.594,-19.5 825.594,-.5 769.594,-.5"/>
<text text-anchor="middle" x="797.594" y="-7.5" font-family="Helvetica,sans-Serif" font-size="10.00" fill="#000000">algorithm</text>
</g>
<!-- Node12&#45;&gt;Node13 -->
<g id="edge14" class="edge">
<title>Node12&#45;&gt;Node13</title>
<path fill="none" stroke="#191970" d="M241.7775,-63.665C331.9165,-54.962 648.8127,-24.3651 759.2729,-13.7"/>
<polygon fill="#191970" stroke="#191970" points="759.6863,-17.1764 769.3036,-12.7315 759.0135,-10.2088 759.6863,-17.1764"/>
</g>
<!-- Node14&#45;&gt;Node3 -->
<g id="edge23" class="edge">
<title>Node14&#45;&gt;Node3</title>
<path fill="none" stroke="#191970" d="M183.7766,-224.3733C158.0608,-215.1419 119.056,-201.1402 90.6341,-190.9375"/>
<polygon fill="#191970" stroke="#191970" points="91.6559,-187.5857 81.0614,-187.5011 89.2908,-194.174 91.6559,-187.5857"/>
</g>
<!-- Node15 -->
<g id="node16" class="node">
<title>Node15</title>
<g id="a_node16"><a xlink:href="grid_8hh.html" target="_top" xlink:title="grid.hh">
<polygon fill="none" stroke="#000000" points="201.594,-168.5 201.594,-187.5 247.594,-187.5 247.594,-168.5 201.594,-168.5"/>
<text text-anchor="middle" x="224.594" y="-175.5" font-family="Helvetica,sans-Serif" font-size="10.00" fill="#000000">grid.hh</text>
</a>
</g>
</g>
<!-- Node14&#45;&gt;Node15 -->
<g id="edge18" class="edge">
<title>Node14&#45;&gt;Node15</title>
<path fill="none" stroke="#191970" d="M213.0326,-224.2455C214.8795,-216.8579 217.4768,-206.4689 219.7418,-197.4087"/>
<polygon fill="#191970" stroke="#191970" points="223.1534,-198.193 222.1833,-187.6427 216.3624,-196.4952 223.1534,-198.193"/>
</g>
<!-- Node15&#45;&gt;Node6 -->
<g id="edge19" class="edge">
<title>Node15&#45;&gt;Node6</title>
<path fill="none" stroke="#191970" d="M219.3276,-168.2378C210.0897,-150.4965 191.3081,-111.5114 184.594,-76 181.6841,-60.6091 183.8383,-42.9537 186.499,-29.7784"/>
<polygon fill="#191970" stroke="#191970" points="189.9376,-30.4414 188.753,-19.913 183.1135,-28.8822 189.9376,-30.4414"/>
</g>
<!-- Node15&#45;&gt;Node8 -->
<g id="edge20" class="edge">
<title>Node15&#45;&gt;Node8</title>
<path fill="none" stroke="#191970" d="M245.5666,-168.3733C265.1507,-159.3838 294.5901,-145.8706 316.645,-135.7471"/>
<polygon fill="#191970" stroke="#191970" points="318.2669,-138.8538 325.8951,-131.5011 315.3467,-132.4919 318.2669,-138.8538"/>
</g>
<!-- Node15&#45;&gt;Node10 -->
<g id="edge22" class="edge">
<title>Node15&#45;&gt;Node10</title>
<path fill="none" stroke="#191970" d="M232.084,-168.2455C238.1266,-160.3761 246.7843,-149.101 254.0381,-139.6542"/>
<polygon fill="#191970" stroke="#191970" points="256.8755,-141.7058 260.1898,-131.6427 251.3235,-137.4426 256.8755,-141.7058"/>
</g>
<!-- Node15&#45;&gt;Node12 -->
<g id="edge21" class="edge">
<title>Node15&#45;&gt;Node12</title>
<path fill="none" stroke="#191970" d="M223.9972,-168.4509C222.8555,-150.184 220.3412,-109.9553 218.8251,-85.6976"/>
<polygon fill="#191970" stroke="#191970" points="222.3064,-85.2871 218.1893,-75.5249 215.32,-85.7238 222.3064,-85.2871"/>
</g>
<!-- Node16&#45;&gt;Node3 -->
<g id="edge27" class="edge">
<title>Node16&#45;&gt;Node3</title>
<path fill="none" stroke="#191970" d="M318.8023,-288.8508C272.2768,-281.8281 204.5126,-268.3005 149.594,-244 120.8698,-231.29 91.7833,-209.4746 73.4992,-194.4241"/>
<polygon fill="#191970" stroke="#191970" points="75.3468,-191.4048 65.4401,-187.6487 70.8422,-196.7629 75.3468,-191.4048"/>
</g>
<!-- Node16&#45;&gt;Node8 -->
<g id="edge25" class="edge">
<title>Node16&#45;&gt;Node8</title>
<path fill="none" stroke="#191970" d="M364.0777,-280.3856C358.3889,-270.4576 351.6841,-256.9545 348.594,-244 340.1926,-208.7794 342.1187,-166.2025 344.3266,-141.7947"/>
<polygon fill="#191970" stroke="#191970" points="347.8267,-141.9696 345.3568,-131.6667 340.8627,-141.2612 347.8267,-141.9696"/>
</g>
<!-- Node16&#45;&gt;Node9 -->
<g id="edge26" class="edge">
<title>Node16&#45;&gt;Node9</title>
<path fill="none" stroke="#191970" d="M411.2852,-280.3598C426.6902,-272.0741 442.9058,-260.1476 451.594,-244 470.0577,-209.6841 445.9638,-164.7112 429.2085,-140.0766"/>
<polygon fill="#191970" stroke="#191970" points="431.8972,-137.8179 423.2503,-131.6957 426.192,-141.8739 431.8972,-137.8179"/>
</g>
<!-- Node16&#45;&gt;Node14 -->
<g id="edge28" class="edge">
<title>Node16&#45;&gt;Node14</title>
<path fill="none" stroke="#191970" d="M333.7197,-280.4554C306.642,-270.239 271.1846,-256.8609 245.2774,-247.0861"/>
<polygon fill="#191970" stroke="#191970" points="246.445,-243.7858 235.8532,-243.5303 243.9739,-250.3352 246.445,-243.7858"/>
</g>
<!-- Node17 -->
<g id="node18" class="node">
<title>Node17</title>
<g id="a_node18"><a xlink:href="basic__model_8hh.html" target="_top" xlink:title="basic_model.hh">
<polygon fill="none" stroke="#000000" points="357.094,-224.5 357.094,-243.5 442.094,-243.5 442.094,-224.5 357.094,-224.5"/>
<text text-anchor="middle" x="399.594" y="-231.5" font-family="Helvetica,sans-Serif" font-size="10.00" fill="#000000">basic_model.hh</text>
</a>
</g>
</g>
<!-- Node16&#45;&gt;Node17 -->
<g id="edge29" class="edge">
<title>Node16&#45;&gt;Node17</title>
<path fill="none" stroke="#191970" d="M380.021,-280.2977C383.4797,-272.1166 387.7807,-261.943 391.4694,-253.2179"/>
<polygon fill="#191970" stroke="#191970" points="394.7608,-254.4205 395.4311,-243.8469 388.3133,-251.6947 394.7608,-254.4205"/>
</g>
<!-- Node16&#45;&gt;Node32 -->
<g id="edge53" class="edge">
<title>Node16&#45;&gt;Node32</title>
<path fill="none" stroke="#191970" d="M428.2352,-287.8972C509.1068,-276.6447 660.523,-255.5766 748.1775,-243.3804"/>
<polygon fill="#191970" stroke="#191970" points="748.8588,-246.8194 758.281,-241.9745 747.8941,-239.8861 748.8588,-246.8194"/>
</g>
<!-- Node17&#45;&gt;Node3 -->
<g id="edge52" class="edge">
<title>Node17&#45;&gt;Node3</title>
<path fill="none" stroke="#191970" d="M357.0648,-229.3501C299.1414,-222.649 192.0798,-208.9566 91.6421,-188.0119"/>
<polygon fill="#191970" stroke="#191970" points="92.1403,-184.54 81.6326,-185.8955 90.6922,-191.3886 92.1403,-184.54"/>
</g>
<!-- Node17&#45;&gt;Node8 -->
<g id="edge30" class="edge">
<title>Node17&#45;&gt;Node8</title>
<path fill="none" stroke="#191970" d="M395.0753,-224.4509C386.3137,-205.936 366.8755,-164.8591 355.452,-140.7187"/>
<polygon fill="#191970" stroke="#191970" points="358.5424,-139.0668 351.1013,-131.5249 352.2151,-142.061 358.5424,-139.0668"/>
</g>
<!-- Node17&#45;&gt;Node9 -->
<g id="edge31" class="edge">
<title>Node17&#45;&gt;Node9</title>
<path fill="none" stroke="#191970" d="M400.9582,-224.4509C403.5677,-206.184 409.3147,-165.9553 412.7801,-141.6976"/>
<polygon fill="#191970" stroke="#191970" points="416.2838,-141.9194 414.2333,-131.5249 409.3542,-140.9294 416.2838,-141.9194"/>
</g>
<!-- Node17&#45;&gt;Node15 -->
<g id="edge32" class="edge">
<title>Node17&#45;&gt;Node15</title>
<path fill="none" stroke="#191970" d="M369.5104,-224.3733C338.2942,-214.3841 289.6224,-198.8091 257.4259,-188.5062"/>
<polygon fill="#191970" stroke="#191970" points="258.1854,-185.0745 247.5945,-185.3601 256.052,-191.7415 258.1854,-185.0745"/>
</g>
<!-- Node18 -->
<g id="node19" class="node">
<title>Node18</title>
<g id="a_node19"><a xlink:href="output__flags_8hh.html" target="_top" xlink:title="output_flags.hh">
<polygon fill="none" stroke="#000000" points="487.094,-168.5 487.094,-187.5 570.094,-187.5 570.094,-168.5 487.094,-168.5"/>
<text text-anchor="middle" x="528.594" y="-175.5" font-family="Helvetica,sans-Serif" font-size="10.00" fill="#000000">output_flags.hh</text>
</a>
</g>
</g>
<!-- Node17&#45;&gt;Node18 -->
<g id="edge33" class="edge">
<title>Node17&#45;&gt;Node18</title>
<path fill="none" stroke="#191970" d="M421.7699,-224.3733C442.5706,-215.3435 473.8857,-201.7494 497.2398,-191.6111"/>
<polygon fill="#191970" stroke="#191970" points="498.9283,-194.6938 506.7075,-187.5011 496.1408,-188.2727 498.9283,-194.6938"/>
</g>
<!-- Node22 -->
<g id="node23" class="node">
<title>Node22</title>
<g id="a_node23"><a xlink:href="parallel__mt_8hh.html" target="_top" xlink:title="parallel_mt.hh">
<polygon fill="none" stroke="#000000" points="898.094,-168.5 898.094,-187.5 975.094,-187.5 975.094,-168.5 898.094,-168.5"/>
<text text-anchor="middle" x="936.594" y="-175.5" font-family="Helvetica,sans-Serif" font-size="10.00" fill="#000000">parallel_mt.hh</text>
</a>
</g>
</g>
<!-- Node17&#45;&gt;Node22 -->
<g id="edge39" class="edge">
<title>Node17&#45;&gt;Node22</title>
<path fill="none" stroke="#191970" d="M442.1804,-229.559C540.632,-219.2921 783.5188,-193.9632 887.7733,-183.0912"/>
<polygon fill="#191970" stroke="#191970" points="888.4296,-186.5418 898.0126,-182.0234 887.7035,-179.5796 888.4296,-186.5418"/>
</g>
<!-- Node18&#45;&gt;Node8 -->
<g id="edge35" class="edge">
<title>Node18&#45;&gt;Node8</title>
<path fill="none" stroke="#191970" d="M497.3071,-168.3733C464.978,-158.4259 414.6466,-142.9393 381.1602,-132.6358"/>
<polygon fill="#191970" stroke="#191970" points="381.9344,-129.2121 371.3473,-129.6164 379.8757,-135.9025 381.9344,-129.2121"/>
</g>
<!-- Node18&#45;&gt;Node9 -->
<g id="edge36" class="edge">
<title>Node18&#45;&gt;Node9</title>
<path fill="none" stroke="#191970" d="M509.1686,-168.3733C491.1919,-159.4644 464.2499,-146.1127 443.885,-136.0203"/>
<polygon fill="#191970" stroke="#191970" points="445.2802,-132.8055 434.7659,-131.5011 442.1718,-139.0776 445.2802,-132.8055"/>
</g>
<!-- Node19 -->
<g id="node20" class="node">
<title>Node19</title>
<polygon fill="none" stroke="#bfbfbf" points="460.094,-112.5 460.094,-131.5 501.094,-131.5 501.094,-112.5 460.094,-112.5"/>
<text text-anchor="middle" x="480.594" y="-119.5" font-family="Helvetica,sans-Serif" font-size="10.00" fill="#000000">bitset</text>
</g>
<!-- Node18&#45;&gt;Node19 -->
<g id="edge34" class="edge">
<title>Node18&#45;&gt;Node19</title>
<path fill="none" stroke="#191970" d="M520.233,-168.2455C513.419,-160.2958 503.6259,-148.8706 495.4788,-139.3656"/>
<polygon fill="#191970" stroke="#191970" points="498.0245,-136.9575 488.8592,-131.6427 492.7097,-141.513 498.0245,-136.9575"/>
</g>
<!-- Node20 -->
<g id="node21" class="node">
<title>Node20</title>
<polygon fill="none" stroke="#bfbfbf" points="600.094,-112.5 600.094,-131.5 641.094,-131.5 641.094,-112.5 600.094,-112.5"/>
<text text-anchor="middle" x="620.594" y="-119.5" font-family="Helvetica,sans-Serif" font-size="10.00" fill="#000000">string</text>
</g>
<!-- Node18&#45;&gt;Node20 -->
<g id="edge37" class="edge">
<title>Node18&#45;&gt;Node20</title>
<path fill="none" stroke="#191970" d="M544.6192,-168.2455C558.7348,-159.6534 579.5204,-147.0014 595.7839,-137.1018"/>
<polygon fill="#191970" stroke="#191970" points="598.0303,-139.8319 604.7525,-131.6427 594.3906,-133.8525 598.0303,-139.8319"/>
</g>
<!-- Node21 -->
<g id="node22" class="node">
<title>Node21</title>
<polygon fill="none" stroke="#bfbfbf" points="519.594,-112.5 519.594,-131.5 581.594,-131.5 581.594,-112.5 519.594,-112.5"/>
<text text-anchor="middle" x="550.594" y="-119.5" font-family="Helvetica,sans-Serif" font-size="10.00" fill="#000000">type_traits</text>
</g>
<!-- Node18&#45;&gt;Node21 -->
<g id="edge38" class="edge">
<title>Node18&#45;&gt;Node21</title>
<path fill="none" stroke="#191970" d="M532.4261,-168.2455C535.3599,-160.7776 539.4987,-150.2427 543.085,-141.1137"/>
<polygon fill="#191970" stroke="#191970" points="546.4069,-142.23 546.8058,-131.6427 539.8916,-139.6704 546.4069,-142.23"/>
</g>
<!-- Node22&#45;&gt;Node8 -->
<g id="edge44" class="edge">
<title>Node22&#45;&gt;Node8</title>
<path fill="none" stroke="#191970" d="M897.8126,-177.4962C808.2623,-175.7567 580.1967,-168.0286 381.3782,-131.7703"/>
<polygon fill="#191970" stroke="#191970" points="381.8051,-128.2899 371.3348,-129.9094 380.5298,-135.1727 381.8051,-128.2899"/>
</g>
<!-- Node22&#45;&gt;Node11 -->
<g id="edge46" class="edge">
<title>Node22&#45;&gt;Node11</title>
<path fill="none" stroke="#191970" d="M975.118,-174.4004C1030.1681,-167.8282 1121.0861,-150.8112 1086.594,-112 1063.6251,-86.1549 831.641,-72.3424 737.2371,-67.7559"/>
<polygon fill="#191970" stroke="#191970" points="737.3737,-64.2585 727.2185,-67.2788 737.0407,-71.2506 737.3737,-64.2585"/>
</g>
<!-- Node22&#45;&gt;Node13 -->
<g id="edge41" class="edge">
<title>Node22&#45;&gt;Node13</title>
<path fill="none" stroke="#191970" d="M975.1409,-175.1825C1055.4262,-168.9222 1234.6412,-152.7554 1252.594,-132 1258.4091,-125.2771 1258.1496,-118.9389 1252.594,-112 1200.2984,-46.6831 935.7801,-20.3435 835.874,-12.623"/>
<polygon fill="#191970" stroke="#191970" points="835.8613,-9.1122 825.627,-11.8522 835.3362,-16.0925 835.8613,-9.1122"/>
</g>
<!-- Node23 -->
<g id="node24" class="node">
<title>Node23</title>
<polygon fill="none" stroke="#bfbfbf" points="1134.094,-112.5 1134.094,-131.5 1179.094,-131.5 1179.094,-112.5 1134.094,-112.5"/>
<text text-anchor="middle" x="1156.594" y="-119.5" font-family="Helvetica,sans-Serif" font-size="10.00" fill="#000000">cstdlib</text>
</g>
<!-- Node22&#45;&gt;Node23 -->
<g id="edge40" class="edge">
<title>Node22&#45;&gt;Node23</title>
<path fill="none" stroke="#191970" d="M975.202,-168.5058C1012.2733,-159.3398 1069.8267,-144.9791 1119.594,-132 1121.0427,-131.6222 1122.5226,-131.2335 1124.017,-130.8389"/>
<polygon fill="#191970" stroke="#191970" points="1125.1532,-134.1582 1133.9127,-128.1982 1123.3483,-127.3949 1125.1532,-134.1582"/>
</g>
<!-- Node24 -->
<g id="node25" class="node">
<title>Node24</title>
<polygon fill="none" stroke="#bfbfbf" points="1031.594,-112.5 1031.594,-131.5 1077.594,-131.5 1077.594,-112.5 1031.594,-112.5"/>
<text text-anchor="middle" x="1054.594" y="-119.5" font-family="Helvetica,sans-Serif" font-size="10.00" fill="#000000">cstdint</text>
</g>
<!-- Node22&#45;&gt;Node24 -->
<g id="edge42" class="edge">
<title>Node22&#45;&gt;Node24</title>
<path fill="none" stroke="#191970" d="M956.8789,-168.3733C975.7361,-159.4241 1004.04,-145.9917 1025.3395,-135.8835"/>
<polygon fill="#191970" stroke="#191970" points="1027.0401,-138.9506 1034.5738,-131.5011 1024.0389,-132.6266 1027.0401,-138.9506"/>
</g>
<!-- Node25 -->
<g id="node26" class="node">
<title>Node25</title>
<polygon fill="none" stroke="#bfbfbf" points="1197.594,-112.5 1197.594,-131.5 1243.594,-131.5 1243.594,-112.5 1197.594,-112.5"/>
<text text-anchor="middle" x="1220.594" y="-119.5" font-family="Helvetica,sans-Serif" font-size="10.00" fill="#000000">cstring</text>
</g>
<!-- Node22&#45;&gt;Node25 -->
<g id="edge43" class="edge">
<title>Node22&#45;&gt;Node25</title>
<path fill="none" stroke="#191970" d="M975.3288,-172.437C1023.1283,-165.2419 1107.0131,-151.5414 1187.4754,-132.0562"/>
<polygon fill="#191970" stroke="#191970" points="1188.3916,-135.4353 1197.2683,-129.6514 1186.7221,-128.6373 1188.3916,-135.4353"/>
</g>
<!-- Node26 -->
<g id="node27" class="node">
<title>Node26</title>
<polygon fill="none" stroke="#bfbfbf" points="659.594,-112.5 659.594,-131.5 699.594,-131.5 699.594,-112.5 659.594,-112.5"/>
<text text-anchor="middle" x="679.594" y="-119.5" font-family="Helvetica,sans-Serif" font-size="10.00" fill="#000000">limits</text>
</g>
<!-- Node22&#45;&gt;Node26 -->
<g id="edge45" class="edge">
<title>Node22&#45;&gt;Node26</title>
<path fill="none" stroke="#191970" d="M897.9049,-171.8106C854.3039,-164.4812 781.1933,-151.1277 709.8243,-132.0678"/>
<polygon fill="#191970" stroke="#191970" points="710.3361,-128.5803 699.7686,-129.3405 708.5037,-135.3362 710.3361,-128.5803"/>
</g>
<!-- Node27 -->
<g id="node28" class="node">
<title>Node27</title>
<polygon fill="none" stroke="#bfbfbf" points="717.594,-112.5 717.594,-131.5 761.594,-131.5 761.594,-112.5 717.594,-112.5"/>
<text text-anchor="middle" x="739.594" y="-119.5" font-family="Helvetica,sans-Serif" font-size="10.00" fill="#000000">vector</text>
</g>
<!-- Node22&#45;&gt;Node27 -->
<g id="edge47" class="edge">
<title>Node22&#45;&gt;Node27</title>
<path fill="none" stroke="#191970" d="M900.5262,-168.4707C868.8578,-160.0003 821.3314,-147.0396 771.5582,-132.2112"/>
<polygon fill="#191970" stroke="#191970" points="772.4941,-128.838 761.9103,-129.3216 770.4856,-135.5436 772.4941,-128.838"/>
</g>
<!-- Node28 -->
<g id="node29" class="node">
<title>Node28</title>
<polygon fill="none" stroke="#bfbfbf" points="779.594,-112.5 779.594,-131.5 829.594,-131.5 829.594,-112.5 779.594,-112.5"/>
<text text-anchor="middle" x="804.594" y="-119.5" font-family="Helvetica,sans-Serif" font-size="10.00" fill="#000000">fstream</text>
</g>
<!-- Node22&#45;&gt;Node28 -->
<g id="edge48" class="edge">
<title>Node22&#45;&gt;Node28</title>
<path fill="none" stroke="#191970" d="M913.9024,-168.3733C892.5229,-159.3032 860.2883,-145.6279 836.3578,-135.4755"/>
<polygon fill="#191970" stroke="#191970" points="837.5623,-132.1846 826.9895,-131.5011 834.8284,-138.6287 837.5623,-132.1846"/>
</g>
<!-- Node29 -->
<g id="node30" class="node">
<title>Node29</title>
<polygon fill="none" stroke="#bfbfbf" points="848.094,-112.5 848.094,-131.5 895.094,-131.5 895.094,-112.5 848.094,-112.5"/>
<text text-anchor="middle" x="871.594" y="-119.5" font-family="Helvetica,sans-Serif" font-size="10.00" fill="#000000">iterator</text>
</g>
<!-- Node22&#45;&gt;Node29 -->
<g id="edge49" class="edge">
<title>Node22&#45;&gt;Node29</title>
<path fill="none" stroke="#191970" d="M925.2719,-168.2455C915.6717,-159.9746 901.7048,-147.9416 890.4245,-138.2232"/>
<polygon fill="#191970" stroke="#191970" points="892.647,-135.5182 882.7864,-131.6427 888.078,-140.8214 892.647,-135.5182"/>
</g>
<!-- Node30 -->
<g id="node31" class="node">
<title>Node30</title>
<polygon fill="none" stroke="#bfbfbf" points="913.594,-112.5 913.594,-131.5 959.594,-131.5 959.594,-112.5 913.594,-112.5"/>
<text text-anchor="middle" x="936.594" y="-119.5" font-family="Helvetica,sans-Serif" font-size="10.00" fill="#000000">chrono</text>
</g>
<!-- Node22&#45;&gt;Node30 -->
<g id="edge50" class="edge">
<title>Node22&#45;&gt;Node30</title>
<path fill="none" stroke="#191970" d="M936.594,-168.2455C936.594,-160.9382 936.594,-150.6944 936.594,-141.7046"/>
<polygon fill="#191970" stroke="#191970" points="940.0941,-141.6426 936.594,-131.6427 933.0941,-141.6427 940.0941,-141.6426"/>
</g>
<!-- Node31 -->
<g id="node32" class="node">
<title>Node31</title>
<polygon fill="none" stroke="#bfbfbf" points="978.094,-112.5 978.094,-131.5 1013.094,-131.5 1013.094,-112.5 978.094,-112.5"/>
<text text-anchor="middle" x="995.594" y="-119.5" font-family="Helvetica,sans-Serif" font-size="10.00" fill="#000000">dc.h</text>
</g>
<!-- Node22&#45;&gt;Node31 -->
<g id="edge51" class="edge">
<title>Node22&#45;&gt;Node31</title>
<path fill="none" stroke="#191970" d="M946.871,-168.2455C955.4158,-160.1352 967.7718,-148.4075 977.9025,-138.7919"/>
<polygon fill="#191970" stroke="#191970" points="980.5912,-141.0655 985.4348,-131.6427 975.7722,-135.9884 980.5912,-141.0655"/>
</g>
<!-- Node32&#45;&gt;Node6 -->
<g id="edge54" class="edge">
<title>Node32&#45;&gt;Node6</title>
<path fill="none" stroke="#191970" d="M872.816,-227.9089C1002.925,-212.9398 1305.7278,-171.2122 1252.594,-112 1182.1143,-33.4575 394.8403,-13.9007 224.1245,-10.5715"/>
<polygon fill="#191970" stroke="#191970" points="224.0693,-7.07 214.0046,-10.3793 223.9363,-14.0687 224.0693,-7.07"/>
</g>
<!-- Node33&#45;&gt;Node20 -->
<g id="edge60" class="edge">
<title>Node33&#45;&gt;Node20</title>
<path fill="none" stroke="#191970" d="M625.1075,-347.2105C622.8927,-337.9529 619.8185,-323.6354 618.594,-311 612.6507,-249.6707 616.5021,-176.6268 618.9771,-142.049"/>
<polygon fill="#191970" stroke="#191970" points="622.4828,-142.1055 619.7476,-131.8698 615.5028,-141.5771 622.4828,-142.1055"/>
</g>
<!-- Node34 -->
<g id="node35" class="node">
<title>Node34</title>
<polygon fill="none" stroke="#bfbfbf" points="627.094,-286 627.094,-305 686.094,-305 686.094,-286 627.094,-286"/>
<text text-anchor="middle" x="656.594" y="-293" font-family="Helvetica,sans-Serif" font-size="10.00" fill="#000000">functional</text>
</g>
<!-- Node33&#45;&gt;Node34 -->
<g id="edge59" class="edge">
<title>Node33&#45;&gt;Node34</title>
<path fill="none" stroke="#191970" d="M632.1253,-347.3906C636.2721,-338.5965 642.5272,-325.3312 647.675,-314.4145"/>
<polygon fill="#191970" stroke="#191970" points="650.8995,-315.7825 651.9989,-305.2449 644.5681,-312.7969 650.8995,-315.7825"/>
</g>
<!-- Node35 -->
<g id="node36" class="node">
<title>Node35</title>
<polygon fill="none" stroke="#bfbfbf" points="704.094,-286 704.094,-305 787.094,-305 787.094,-286 704.094,-286"/>
<text text-anchor="middle" x="745.594" y="-293" font-family="Helvetica,sans-Serif" font-size="10.00" fill="#000000">unordered_map</text>
</g>
<!-- Node33&#45;&gt;Node35 -->
<g id="edge61" class="edge">
<title>Node33&#45;&gt;Node35</title>
<path fill="none" stroke="#191970" d="M646.0315,-347.3906C665.4287,-337.2811 696.163,-321.2628 718.3557,-309.6962"/>
<polygon fill="#191970" stroke="#191970" points="720.0358,-312.7675 727.286,-305.0419 716.8005,-306.56 720.0358,-312.7675"/>
</g>
</g>
</svg>
