<?xml version="1.0" encoding="UTF-8" standalone="no"?>
<!DOCTYPE svg PUBLIC "-//W3C//DTD SVG 1.1//EN"
 "http://www.w3.org/Graphics/SVG/1.1/DTD/svg11.dtd">
<!-- Generated by graphviz version 2.40.1 (20161225.0304)
 -->
<!-- Title: src/apmath/polynomial.cc Pages: 1 -->
<svg width="396pt" height="140pt"
 viewBox="0.00 0.00 395.50 140.00" xmlns="http://www.w3.org/2000/svg" xmlns:xlink="http://www.w3.org/1999/xlink">
<g id="graph0" class="graph" transform="scale(1 1) rotate(0) translate(4 136)">
<title>src/apmath/polynomial.cc</title>
<!-- Node0 -->
<g id="node1" class="node">
<title>Node0</title>
<polygon fill="#bfbfbf" stroke="#000000" points="197.5,-112.5 197.5,-131.5 325.5,-131.5 325.5,-112.5 197.5,-112.5"/>
<text text-anchor="middle" x="261.5" y="-119.5" font-family="Helvetica,sans-Serif" font-size="10.00" fill="#000000">src/apmath/polynomial.cc</text>
</g>
<!-- Node1 -->
<g id="node2" class="node">
<title>Node1</title>
<g id="a_node2"><a xlink:href="apmath_2polynomial_8hh.html" target="_top" xlink:title="polynomial.hh">
<polygon fill="none" stroke="#000000" points="106,-56.5 106,-75.5 183,-75.5 183,-56.5 106,-56.5"/>
<text text-anchor="middle" x="144.5" y="-63.5" font-family="Helvetica,sans-Serif" font-size="10.00" fill="#000000">polynomial.hh</text>
</a>
</g>
</g>
<!-- Node0&#45;&gt;Node1 -->
<g id="edge1" class="edge">
<title>Node0&#45;&gt;Node1</title>
<path fill="none" stroke="#191970" d="M241.387,-112.3733C222.6897,-103.4241 194.6256,-89.9917 173.5066,-79.8835"/>
<polygon fill="#191970" stroke="#191970" points="174.8817,-76.6614 164.3506,-75.5011 171.8595,-82.9755 174.8817,-76.6614"/>
</g>
<!-- Node6 -->
<g id="node7" class="node">
<title>Node6</title>
<polygon fill="none" stroke="#bfbfbf" points="201.5,-56.5 201.5,-75.5 251.5,-75.5 251.5,-56.5 201.5,-56.5"/>
<text text-anchor="middle" x="226.5" y="-63.5" font-family="Helvetica,sans-Serif" font-size="10.00" fill="#000000">iomanip</text>
</g>
<!-- Node0&#45;&gt;Node6 -->
<g id="edge6" class="edge">
<title>Node0&#45;&gt;Node6</title>
<path fill="none" stroke="#191970" d="M255.4035,-112.2455C250.5855,-104.5367 243.7249,-93.5598 237.8968,-84.2348"/>
<polygon fill="#191970" stroke="#191970" points="240.7947,-82.2677 232.5267,-75.6427 234.8587,-85.9777 240.7947,-82.2677"/>
</g>
<!-- Node7 -->
<g id="node8" class="node">
<title>Node7</title>
<polygon fill="none" stroke="#bfbfbf" points="269.5,-56.5 269.5,-75.5 325.5,-75.5 325.5,-56.5 269.5,-56.5"/>
<text text-anchor="middle" x="297.5" y="-63.5" font-family="Helvetica,sans-Serif" font-size="10.00" fill="#000000">algorithm</text>
</g>
<!-- Node0&#45;&gt;Node7 -->
<g id="edge7" class="edge">
<title>Node0&#45;&gt;Node7</title>
<path fill="none" stroke="#191970" d="M267.7707,-112.2455C272.7264,-104.5367 279.783,-93.5598 285.7776,-84.2348"/>
<polygon fill="#191970" stroke="#191970" points="288.8376,-85.9471 291.3011,-75.6427 282.9494,-82.1618 288.8376,-85.9471"/>
</g>
<!-- Node8 -->
<g id="node9" class="node">
<title>Node8</title>
<polygon fill="none" stroke="#bfbfbf" points="343.5,-56.5 343.5,-75.5 387.5,-75.5 387.5,-56.5 343.5,-56.5"/>
<text text-anchor="middle" x="365.5" y="-63.5" font-family="Helvetica,sans-Serif" font-size="10.00" fill="#000000">cmath</text>
</g>
<!-- Node0&#45;&gt;Node8 -->
<g id="edge8" class="edge">
<title>Node0&#45;&gt;Node8</title>
<path fill="none" stroke="#191970" d="M279.6154,-112.2455C295.945,-103.4527 320.171,-90.4079 338.7339,-80.4125"/>
<polygon fill="#191970" stroke="#191970" points="340.4468,-83.4654 347.5922,-75.6427 337.1281,-77.3021 340.4468,-83.4654"/>
</g>
<!-- Node2 -->
<g id="node3" class="node">
<title>Node2</title>
<polygon fill="none" stroke="#bfbfbf" points="0,-.5 0,-19.5 67,-19.5 67,-.5 0,-.5"/>
<text text-anchor="middle" x="33.5" y="-7.5" font-family="Helvetica,sans-Serif" font-size="10.00" fill="#000000">blitz/array.h</text>
</g>
<!-- Node1&#45;&gt;Node2 -->
<g id="edge2" class="edge">
<title>Node1&#45;&gt;Node2</title>
<path fill="none" stroke="#191970" d="M125.4184,-56.3733C107.7598,-47.4644 81.2947,-34.1127 61.2902,-24.0203"/>
<polygon fill="#191970" stroke="#191970" points="62.8372,-20.8806 52.3326,-19.5011 59.6842,-27.1303 62.8372,-20.8806"/>
</g>
<!-- Node3 -->
<g id="node4" class="node">
<title>Node3</title>
<polygon fill="none" stroke="#bfbfbf" points="85.5,-.5 85.5,-19.5 137.5,-19.5 137.5,-.5 85.5,-.5"/>
<text text-anchor="middle" x="111.5" y="-7.5" font-family="Helvetica,sans-Serif" font-size="10.00" fill="#000000">ostream</text>
</g>
<!-- Node1&#45;&gt;Node3 -->
<g id="edge3" class="edge">
<title>Node1&#45;&gt;Node3</title>
<path fill="none" stroke="#191970" d="M138.7518,-56.2455C134.2565,-48.617 127.8752,-37.7881 122.4175,-28.5267"/>
<polygon fill="#191970" stroke="#191970" points="125.2747,-26.4811 117.1823,-19.6427 119.2439,-30.035 125.2747,-26.4811"/>
</g>
<!-- Node4 -->
<g id="node5" class="node">
<title>Node4</title>
<polygon fill="none" stroke="#bfbfbf" points="155.5,-.5 155.5,-19.5 199.5,-19.5 199.5,-.5 155.5,-.5"/>
<text text-anchor="middle" x="177.5" y="-7.5" font-family="Helvetica,sans-Serif" font-size="10.00" fill="#000000">vector</text>
</g>
<!-- Node1&#45;&gt;Node4 -->
<g id="edge4" class="edge">
<title>Node1&#45;&gt;Node4</title>
<path fill="none" stroke="#191970" d="M150.2482,-56.2455C154.7435,-48.617 161.1248,-37.7881 166.5825,-28.5267"/>
<polygon fill="#191970" stroke="#191970" points="169.7561,-30.035 171.8177,-19.6427 163.7253,-26.4811 169.7561,-30.035"/>
</g>
<!-- Node5 -->
<g id="node6" class="node">
<title>Node5</title>
<polygon fill="none" stroke="#bfbfbf" points="218,-.5 218,-19.5 291,-19.5 291,-.5 218,-.5"/>
<text text-anchor="middle" x="254.5" y="-7.5" font-family="Helvetica,sans-Serif" font-size="10.00" fill="#000000">initializer_list</text>
</g>
<!-- Node1&#45;&gt;Node5 -->
<g id="edge5" class="edge">
<title>Node1&#45;&gt;Node5</title>
<path fill="none" stroke="#191970" d="M163.6605,-56.2455C181.0111,-47.4125 206.7901,-34.2887 226.4583,-24.2758"/>
<polygon fill="#191970" stroke="#191970" points="228.2353,-27.2986 235.559,-19.6427 225.0595,-21.0605 228.2353,-27.2986"/>
</g>
</g>
</svg>
