<?xml version="1.0" encoding="UTF-8" standalone="no"?>
<!DOCTYPE svg PUBLIC "-//W3C//DTD SVG 1.1//EN"
 "http://www.w3.org/Graphics/SVG/1.1/DTD/svg11.dtd">
<!-- Generated by graphviz version 2.36.0 (20140111.2315)
 -->
<!-- Title: /home/travis/build/igankevich/arma/src/apmath/polynomial.cc Pages: 1 -->
<svg width="396pt" height="162pt"
 viewBox="0.00 0.00 396.00 162.00" xmlns="http://www.w3.org/2000/svg" xmlns:xlink="http://www.w3.org/1999/xlink">
<g id="graph0" class="graph" transform="scale(1 1) rotate(0) translate(4 158)">
<title>/home/travis/build/igankevich/arma/src/apmath/polynomial.cc</title>
<!-- Node1 -->
<g id="node1" class="node"><title>Node1</title>
<polygon fill="#bfbfbf" stroke="black" points="204.5,-112.5 204.5,-153.5 319.5,-153.5 319.5,-112.5 204.5,-112.5"/>
<text text-anchor="start" x="212.5" y="-141.5" font-family="Helvetica,sans-Serif" font-size="10.00">/home/travis/build</text>
<text text-anchor="start" x="212.5" y="-130.5" font-family="Helvetica,sans-Serif" font-size="10.00">/igankevich/arma/src</text>
<text text-anchor="middle" x="262" y="-119.5" font-family="Helvetica,sans-Serif" font-size="10.00">/apmath/polynomial.cc</text>
</g>
<!-- Node2 -->
<g id="node2" class="node"><title>Node2</title>
<g id="a_node2"><a xlink:href="apmath_2polynomial_8hh.html" target="_top" xlink:title="polynomial.hh">
<polygon fill="none" stroke="black" points="106.5,-56.5 106.5,-75.5 183.5,-75.5 183.5,-56.5 106.5,-56.5"/>
<text text-anchor="middle" x="145" y="-63.5" font-family="Helvetica,sans-Serif" font-size="10.00">polynomial.hh</text>
</a>
</g>
</g>
<!-- Node1&#45;&gt;Node2 -->
<g id="edge1" class="edge"><title>Node1&#45;&gt;Node2</title>
<path fill="none" stroke="midnightblue" d="M226.896,-112.498C208.44,-102.245 186.265,-89.925 169.647,-80.6927"/>
<polygon fill="midnightblue" stroke="midnightblue" points="171.016,-77.4494 160.574,-75.6525 167.616,-83.5685 171.016,-77.4494"/>
</g>
<!-- Node7 -->
<g id="node7" class="node"><title>Node7</title>
<polygon fill="none" stroke="#bfbfbf" points="202,-56.5 202,-75.5 252,-75.5 252,-56.5 202,-56.5"/>
<text text-anchor="middle" x="227" y="-63.5" font-family="Helvetica,sans-Serif" font-size="10.00">iomanip</text>
</g>
<!-- Node1&#45;&gt;Node7 -->
<g id="edge6" class="edge"><title>Node1&#45;&gt;Node7</title>
<path fill="none" stroke="midnightblue" d="M251.499,-112.498C246.7,-103.586 241.061,-93.1135 236.403,-84.4636"/>
<polygon fill="midnightblue" stroke="midnightblue" points="239.482,-82.7978 231.659,-75.6525 233.318,-86.1166 239.482,-82.7978"/>
</g>
<!-- Node8 -->
<g id="node8" class="node"><title>Node8</title>
<polygon fill="none" stroke="#bfbfbf" points="270,-56.5 270,-75.5 326,-75.5 326,-56.5 270,-56.5"/>
<text text-anchor="middle" x="298" y="-63.5" font-family="Helvetica,sans-Serif" font-size="10.00">algorithm</text>
</g>
<!-- Node1&#45;&gt;Node8 -->
<g id="edge7" class="edge"><title>Node1&#45;&gt;Node8</title>
<path fill="none" stroke="midnightblue" d="M272.801,-112.498C277.737,-103.586 283.537,-93.1135 288.328,-84.4636"/>
<polygon fill="midnightblue" stroke="midnightblue" points="291.425,-86.0962 293.208,-75.6525 285.301,-82.7046 291.425,-86.0962"/>
</g>
<!-- Node9 -->
<g id="node9" class="node"><title>Node9</title>
<polygon fill="none" stroke="#bfbfbf" points="344,-56.5 344,-75.5 388,-75.5 388,-56.5 344,-56.5"/>
<text text-anchor="middle" x="366" y="-63.5" font-family="Helvetica,sans-Serif" font-size="10.00">cmath</text>
</g>
<!-- Node1&#45;&gt;Node9 -->
<g id="edge8" class="edge"><title>Node1&#45;&gt;Node9</title>
<path fill="none" stroke="midnightblue" d="M293.203,-112.498C309.302,-102.436 328.584,-90.3849 343.258,-81.2136"/>
<polygon fill="midnightblue" stroke="midnightblue" points="345.531,-83.9205 352.156,-75.6525 341.821,-77.9845 345.531,-83.9205"/>
</g>
<!-- Node3 -->
<g id="node3" class="node"><title>Node3</title>
<polygon fill="none" stroke="#bfbfbf" points="0,-0.5 0,-19.5 68,-19.5 68,-0.5 0,-0.5"/>
<text text-anchor="middle" x="34" y="-7.5" font-family="Helvetica,sans-Serif" font-size="10.00">blitz/array.h</text>
</g>
<!-- Node2&#45;&gt;Node3 -->
<g id="edge2" class="edge"><title>Node2&#45;&gt;Node3</title>
<path fill="none" stroke="midnightblue" d="M127.166,-56.324C109.284,-47.6247 81.5249,-34.1202 60.9544,-24.113"/>
<polygon fill="midnightblue" stroke="midnightblue" points="62.3133,-20.8819 51.7898,-19.6545 59.251,-27.1765 62.3133,-20.8819"/>
</g>
<!-- Node4 -->
<g id="node4" class="node"><title>Node4</title>
<polygon fill="none" stroke="#bfbfbf" points="86,-0.5 86,-19.5 138,-19.5 138,-0.5 86,-0.5"/>
<text text-anchor="middle" x="112" y="-7.5" font-family="Helvetica,sans-Serif" font-size="10.00">ostream</text>
</g>
<!-- Node2&#45;&gt;Node4 -->
<g id="edge3" class="edge"><title>Node2&#45;&gt;Node4</title>
<path fill="none" stroke="midnightblue" d="M139.551,-56.083C134.986,-48.6127 128.332,-37.7244 122.707,-28.5199"/>
<polygon fill="midnightblue" stroke="midnightblue" points="125.549,-26.4588 117.348,-19.7511 119.576,-30.109 125.549,-26.4588"/>
</g>
<!-- Node5 -->
<g id="node5" class="node"><title>Node5</title>
<polygon fill="none" stroke="#bfbfbf" points="156,-0.5 156,-19.5 200,-19.5 200,-0.5 156,-0.5"/>
<text text-anchor="middle" x="178" y="-7.5" font-family="Helvetica,sans-Serif" font-size="10.00">vector</text>
</g>
<!-- Node2&#45;&gt;Node5 -->
<g id="edge4" class="edge"><title>Node2&#45;&gt;Node5</title>
<path fill="none" stroke="midnightblue" d="M150.449,-56.083C155.014,-48.6127 161.668,-37.7244 167.293,-28.5199"/>
<polygon fill="midnightblue" stroke="midnightblue" points="170.424,-30.109 172.652,-19.7511 164.451,-26.4588 170.424,-30.109"/>
</g>
<!-- Node6 -->
<g id="node6" class="node"><title>Node6</title>
<polygon fill="none" stroke="#bfbfbf" points="218.5,-0.5 218.5,-19.5 291.5,-19.5 291.5,-0.5 218.5,-0.5"/>
<text text-anchor="middle" x="255" y="-7.5" font-family="Helvetica,sans-Serif" font-size="10.00">initializer_list</text>
</g>
<!-- Node2&#45;&gt;Node6 -->
<g id="edge5" class="edge"><title>Node2&#45;&gt;Node6</title>
<path fill="none" stroke="midnightblue" d="M162.673,-56.324C180.394,-47.6247 207.903,-34.1202 228.288,-24.113"/>
<polygon fill="midnightblue" stroke="midnightblue" points="229.936,-27.2031 237.37,-19.6545 226.851,-20.9195 229.936,-27.2031"/>
</g>
</g>
</svg>
