<?xml version="1.0" encoding="UTF-8" standalone="no"?>
<!DOCTYPE svg PUBLIC "-//W3C//DTD SVG 1.1//EN"
 "http://www.w3.org/Graphics/SVG/1.1/DTD/svg11.dtd">
<!-- Generated by graphviz version 2.36.0 (20140111.2315)
 -->
<!-- Title: /home/travis/build/igankevich/arma/src/profile.hh Pages: 1 -->
<svg width="1408pt" height="308pt"
 viewBox="0.00 0.00 1408.00 308.00" xmlns="http://www.w3.org/2000/svg" xmlns:xlink="http://www.w3.org/1999/xlink">
<g id="graph0" class="graph" transform="scale(1 1) rotate(0) translate(4 304)">
<title>/home/travis/build/igankevich/arma/src/profile.hh</title>
<!-- Node1 -->
<g id="node1" class="node"><title>Node1</title>
<polygon fill="#bfbfbf" stroke="black" points="614.5,-258.5 614.5,-299.5 721.5,-299.5 721.5,-258.5 614.5,-258.5"/>
<text text-anchor="start" x="622.5" y="-287.5" font-family="Helvetica,sans-Serif" font-size="10.00">/home/travis/build</text>
<text text-anchor="start" x="622.5" y="-276.5" font-family="Helvetica,sans-Serif" font-size="10.00">/igankevich/arma/src</text>
<text text-anchor="middle" x="668" y="-265.5" font-family="Helvetica,sans-Serif" font-size="10.00">/profile.hh</text>
</g>
<!-- Node2 -->
<g id="node2" class="node"><title>Node2</title>
<g id="a_node2"><a xlink:href="arma__driver_8cc.html" target="_top" xlink:title="/home/travis/build\l/igankevich/arma/src\l/arma_driver.cc">
<polygon fill="none" stroke="black" points="-0.5,-174.5 -0.5,-215.5 106.5,-215.5 106.5,-174.5 -0.5,-174.5"/>
<text text-anchor="start" x="7.5" y="-203.5" font-family="Helvetica,sans-Serif" font-size="10.00">/home/travis/build</text>
<text text-anchor="start" x="7.5" y="-192.5" font-family="Helvetica,sans-Serif" font-size="10.00">/igankevich/arma/src</text>
<text text-anchor="middle" x="53" y="-181.5" font-family="Helvetica,sans-Serif" font-size="10.00">/arma_driver.cc</text>
</a>
</g>
</g>
<!-- Node1&#45;&gt;Node2 -->
<g id="edge1" class="edge"><title>Node1&#45;&gt;Node2</title>
<path fill="none" stroke="midnightblue" d="M604.464,-277.629C500.516,-275.682 288.323,-266.072 115,-222 108.439,-220.332 101.668,-218.085 95.1201,-215.607"/>
<polygon fill="midnightblue" stroke="midnightblue" points="604.424,-281.129 614.482,-277.799 604.543,-274.13 604.424,-281.129"/>
</g>
<!-- Node3 -->
<g id="node3" class="node"><title>Node3</title>
<g id="a_node3"><a xlink:href="common__main_8hh.html" target="_top" xlink:title="/home/travis/build\l/igankevich/arma/src\l/common_main.hh">
<polygon fill="none" stroke="black" points="124.5,-174.5 124.5,-215.5 231.5,-215.5 231.5,-174.5 124.5,-174.5"/>
<text text-anchor="start" x="132.5" y="-203.5" font-family="Helvetica,sans-Serif" font-size="10.00">/home/travis/build</text>
<text text-anchor="start" x="132.5" y="-192.5" font-family="Helvetica,sans-Serif" font-size="10.00">/igankevich/arma/src</text>
<text text-anchor="middle" x="178" y="-181.5" font-family="Helvetica,sans-Serif" font-size="10.00">/common_main.hh</text>
</a>
</g>
</g>
<!-- Node1&#45;&gt;Node3 -->
<g id="edge2" class="edge"><title>Node1&#45;&gt;Node3</title>
<path fill="none" stroke="midnightblue" d="M604.201,-274.181C520.792,-268.137 370.639,-253.635 246,-222 239.14,-220.259 232.027,-218.035 225.1,-215.624"/>
<polygon fill="midnightblue" stroke="midnightblue" points="604.061,-277.68 614.283,-274.894 604.555,-270.697 604.061,-277.68"/>
</g>
<!-- Node6 -->
<g id="node6" class="node"><title>Node6</title>
<g id="a_node6"><a xlink:href="ar__model__opencl_8cc.html" target="_top" xlink:title="/home/travis/build\l/igankevich/arma/src\l/generator/ar_model_opencl.cc">
<polygon fill="none" stroke="black" points="580,-0.5 580,-41.5 730,-41.5 730,-0.5 580,-0.5"/>
<text text-anchor="start" x="588" y="-29.5" font-family="Helvetica,sans-Serif" font-size="10.00">/home/travis/build</text>
<text text-anchor="start" x="588" y="-18.5" font-family="Helvetica,sans-Serif" font-size="10.00">/igankevich/arma/src</text>
<text text-anchor="middle" x="655" y="-7.5" font-family="Helvetica,sans-Serif" font-size="10.00">/generator/ar_model_opencl.cc</text>
</a>
</g>
</g>
<!-- Node1&#45;&gt;Node6 -->
<g id="edge5" class="edge"><title>Node1&#45;&gt;Node6</title>
<path fill="none" stroke="midnightblue" d="M603.906,-278.471C504.499,-277.68 320.262,-269.628 279,-222 185.803,-114.425 445.368,-55.5463 579.872,-32.9554"/>
<polygon fill="midnightblue" stroke="midnightblue" points="604.111,-281.972 614.131,-278.529 604.151,-274.972 604.111,-281.972"/>
</g>
<!-- Node7 -->
<g id="node7" class="node"><title>Node7</title>
<g id="a_node7"><a xlink:href="ar__model__sequential_8cc.html" target="_top" xlink:title="/home/travis/build\l/igankevich/arma/src\l/generator/ar_model_sequential.cc">
<polygon fill="none" stroke="black" points="288,-174.5 288,-215.5 454,-215.5 454,-174.5 288,-174.5"/>
<text text-anchor="start" x="296" y="-203.5" font-family="Helvetica,sans-Serif" font-size="10.00">/home/travis/build</text>
<text text-anchor="start" x="296" y="-192.5" font-family="Helvetica,sans-Serif" font-size="10.00">/igankevich/arma/src</text>
<text text-anchor="middle" x="371" y="-181.5" font-family="Helvetica,sans-Serif" font-size="10.00">/generator/ar_model_sequential.cc</text>
</a>
</g>
</g>
<!-- Node1&#45;&gt;Node7 -->
<g id="edge6" class="edge"><title>Node1&#45;&gt;Node7</title>
<path fill="none" stroke="midnightblue" d="M604.695,-260.861C564.16,-249.848 510.453,-235.187 463,-222 455.484,-219.911 447.626,-217.713 439.807,-215.516"/>
<polygon fill="midnightblue" stroke="midnightblue" points="603.874,-264.264 614.442,-263.507 605.709,-257.509 603.874,-264.264"/>
</g>
<!-- Node8 -->
<g id="node8" class="node"><title>Node8</title>
<g id="a_node8"><a xlink:href="ma__model_8cc.html" target="_top" xlink:title="/home/travis/build\l/igankevich/arma/src\l/generator/ma_model.cc">
<polygon fill="none" stroke="black" points="472,-174.5 472,-215.5 594,-215.5 594,-174.5 472,-174.5"/>
<text text-anchor="start" x="480" y="-203.5" font-family="Helvetica,sans-Serif" font-size="10.00">/home/travis/build</text>
<text text-anchor="start" x="480" y="-192.5" font-family="Helvetica,sans-Serif" font-size="10.00">/igankevich/arma/src</text>
<text text-anchor="middle" x="533" y="-181.5" font-family="Helvetica,sans-Serif" font-size="10.00">/generator/ma_model.cc</text>
</a>
</g>
</g>
<!-- Node1&#45;&gt;Node8 -->
<g id="edge7" class="edge"><title>Node1&#45;&gt;Node8</title>
<path fill="none" stroke="midnightblue" d="M626.9,-253.036C607.215,-241.079 583.975,-226.963 565.54,-215.765"/>
<polygon fill="midnightblue" stroke="midnightblue" points="625.3,-256.159 635.664,-258.359 628.934,-250.176 625.3,-256.159"/>
</g>
<!-- Node9 -->
<g id="node9" class="node"><title>Node9</title>
<g id="a_node9"><a xlink:href="plain__wave__model_8cc.html" target="_top" xlink:title="/home/travis/build\l/igankevich/arma/src\l/generator/plain_wave\l_model.cc">
<polygon fill="none" stroke="black" points="612,-169 612,-221 724,-221 724,-169 612,-169"/>
<text text-anchor="start" x="620" y="-209" font-family="Helvetica,sans-Serif" font-size="10.00">/home/travis/build</text>
<text text-anchor="start" x="620" y="-198" font-family="Helvetica,sans-Serif" font-size="10.00">/igankevich/arma/src</text>
<text text-anchor="start" x="620" y="-187" font-family="Helvetica,sans-Serif" font-size="10.00">/generator/plain_wave</text>
<text text-anchor="middle" x="668" y="-176" font-family="Helvetica,sans-Serif" font-size="10.00">_model.cc</text>
</a>
</g>
</g>
<!-- Node1&#45;&gt;Node9 -->
<g id="edge8" class="edge"><title>Node1&#45;&gt;Node9</title>
<path fill="none" stroke="midnightblue" d="M668,-247.938C668,-239.176 668,-229.695 668,-221.261"/>
<polygon fill="midnightblue" stroke="midnightblue" points="664.5,-248.15 668,-258.15 671.5,-248.15 664.5,-248.15"/>
</g>
<!-- Node10 -->
<g id="node10" class="node"><title>Node10</title>
<g id="a_node10"><a xlink:href="profile_8cc.html" target="_top" xlink:title="/home/travis/build\l/igankevich/arma/src\l/profile.cc">
<polygon fill="none" stroke="black" points="741.5,-174.5 741.5,-215.5 848.5,-215.5 848.5,-174.5 741.5,-174.5"/>
<text text-anchor="start" x="749.5" y="-203.5" font-family="Helvetica,sans-Serif" font-size="10.00">/home/travis/build</text>
<text text-anchor="start" x="749.5" y="-192.5" font-family="Helvetica,sans-Serif" font-size="10.00">/igankevich/arma/src</text>
<text text-anchor="middle" x="795" y="-181.5" font-family="Helvetica,sans-Serif" font-size="10.00">/profile.cc</text>
</a>
</g>
</g>
<!-- Node1&#45;&gt;Node10 -->
<g id="edge9" class="edge"><title>Node1&#45;&gt;Node10</title>
<path fill="none" stroke="midnightblue" d="M706.915,-252.874C725.379,-240.952 747.124,-226.912 764.388,-215.765"/>
<polygon fill="midnightblue" stroke="midnightblue" points="704.922,-249.994 698.42,-258.359 708.719,-255.875 704.922,-249.994"/>
</g>
<!-- Node11 -->
<g id="node11" class="node"><title>Node11</title>
<g id="a_node11"><a xlink:href="profile__counters_8hh.html" target="_top" xlink:title="/home/travis/build\l/igankevich/arma/src\l/profile_counters.hh">
<polygon fill="none" stroke="black" points="866.5,-174.5 866.5,-215.5 973.5,-215.5 973.5,-174.5 866.5,-174.5"/>
<text text-anchor="start" x="874.5" y="-203.5" font-family="Helvetica,sans-Serif" font-size="10.00">/home/travis/build</text>
<text text-anchor="start" x="874.5" y="-192.5" font-family="Helvetica,sans-Serif" font-size="10.00">/igankevich/arma/src</text>
<text text-anchor="middle" x="920" y="-181.5" font-family="Helvetica,sans-Serif" font-size="10.00">/profile_counters.hh</text>
</a>
</g>
</g>
<!-- Node1&#45;&gt;Node11 -->
<g id="edge10" class="edge"><title>Node1&#45;&gt;Node11</title>
<path fill="none" stroke="midnightblue" d="M731.475,-260.962C768.407,-250.61 815.681,-236.604 857,-222 862.578,-220.029 868.38,-217.835 874.107,-215.582"/>
<polygon fill="midnightblue" stroke="midnightblue" points="730.528,-257.592 721.834,-263.647 732.406,-264.336 730.528,-257.592"/>
</g>
<!-- Node16 -->
<g id="node16" class="node"><title>Node16</title>
<g id="a_node16"><a xlink:href="basic__solver_8cc.html" target="_top" xlink:title="/home/travis/build\l/igankevich/arma/src\l/velocity/basic_solver.cc">
<polygon fill="none" stroke="black" points="991.5,-174.5 991.5,-215.5 1116.5,-215.5 1116.5,-174.5 991.5,-174.5"/>
<text text-anchor="start" x="999.5" y="-203.5" font-family="Helvetica,sans-Serif" font-size="10.00">/home/travis/build</text>
<text text-anchor="start" x="999.5" y="-192.5" font-family="Helvetica,sans-Serif" font-size="10.00">/igankevich/arma/src</text>
<text text-anchor="middle" x="1054" y="-181.5" font-family="Helvetica,sans-Serif" font-size="10.00">/velocity/basic_solver.cc</text>
</a>
</g>
</g>
<!-- Node1&#45;&gt;Node16 -->
<g id="edge16" class="edge"><title>Node1&#45;&gt;Node16</title>
<path fill="none" stroke="midnightblue" d="M731.598,-269.896C795.526,-260.996 896.571,-244.864 982,-222 988.933,-220.145 996.144,-217.915 1003.21,-215.552"/>
<polygon fill="midnightblue" stroke="midnightblue" points="731.094,-266.432 721.664,-271.262 732.048,-273.367 731.094,-266.432"/>
</g>
<!-- Node17 -->
<g id="node17" class="node"><title>Node17</title>
<g id="a_node17"><a xlink:href="high__amplitude__realtime__solver_8cc.html" target="_top" xlink:title="/home/travis/build\l/igankevich/arma/src\l/velocity/high_amplitude\l_realtime_solver.cc">
<polygon fill="none" stroke="black" points="1135,-169 1135,-221 1257,-221 1257,-169 1135,-169"/>
<text text-anchor="start" x="1143" y="-209" font-family="Helvetica,sans-Serif" font-size="10.00">/home/travis/build</text>
<text text-anchor="start" x="1143" y="-198" font-family="Helvetica,sans-Serif" font-size="10.00">/igankevich/arma/src</text>
<text text-anchor="start" x="1143" y="-187" font-family="Helvetica,sans-Serif" font-size="10.00">/velocity/high_amplitude</text>
<text text-anchor="middle" x="1196" y="-176" font-family="Helvetica,sans-Serif" font-size="10.00">_realtime_solver.cc</text>
</a>
</g>
</g>
<!-- Node1&#45;&gt;Node17 -->
<g id="edge17" class="edge"><title>Node1&#45;&gt;Node17</title>
<path fill="none" stroke="midnightblue" d="M732.054,-274.784C821.207,-269.265 987.274,-255.191 1125,-222 1128.19,-221.231 1131.43,-220.365 1134.69,-219.427"/>
<polygon fill="midnightblue" stroke="midnightblue" points="731.603,-271.305 721.832,-275.4 732.024,-278.292 731.603,-271.305"/>
</g>
<!-- Node18 -->
<g id="node18" class="node"><title>Node18</title>
<g id="a_node18"><a xlink:href="linear__solver_8cc.html" target="_top" xlink:title="/home/travis/build\l/igankevich/arma/src\l/velocity/linear_solver.cc">
<polygon fill="none" stroke="black" points="1275.5,-174.5 1275.5,-215.5 1400.5,-215.5 1400.5,-174.5 1275.5,-174.5"/>
<text text-anchor="start" x="1283.5" y="-203.5" font-family="Helvetica,sans-Serif" font-size="10.00">/home/travis/build</text>
<text text-anchor="start" x="1283.5" y="-192.5" font-family="Helvetica,sans-Serif" font-size="10.00">/igankevich/arma/src</text>
<text text-anchor="middle" x="1338" y="-181.5" font-family="Helvetica,sans-Serif" font-size="10.00">/velocity/linear_solver.cc</text>
</a>
</g>
</g>
<!-- Node1&#45;&gt;Node18 -->
<g id="edge18" class="edge"><title>Node1&#45;&gt;Node18</title>
<path fill="none" stroke="midnightblue" d="M732.205,-277.288C842.615,-274.891 1075,-264.703 1266,-222 1273.52,-220.318 1281.33,-218.064 1288.91,-215.583"/>
<polygon fill="midnightblue" stroke="midnightblue" points="731.834,-273.794 721.907,-277.496 731.976,-280.793 731.834,-273.794"/>
</g>
<!-- Node4 -->
<g id="node4" class="node"><title>Node4</title>
<g id="a_node4"><a xlink:href="arma__main_8cc.html" target="_top" xlink:title="/home/travis/build\l/igankevich/arma/src\l/arma_main.cc">
<polygon fill="none" stroke="black" points="-0.5,-84.5 -0.5,-125.5 106.5,-125.5 106.5,-84.5 -0.5,-84.5"/>
<text text-anchor="start" x="7.5" y="-113.5" font-family="Helvetica,sans-Serif" font-size="10.00">/home/travis/build</text>
<text text-anchor="start" x="7.5" y="-102.5" font-family="Helvetica,sans-Serif" font-size="10.00">/igankevich/arma/src</text>
<text text-anchor="middle" x="53" y="-91.5" font-family="Helvetica,sans-Serif" font-size="10.00">/arma_main.cc</text>
</a>
</g>
</g>
<!-- Node3&#45;&gt;Node4 -->
<g id="edge3" class="edge"><title>Node3&#45;&gt;Node4</title>
<path fill="none" stroke="midnightblue" d="M141.968,-168.633C122.606,-155.003 99.0885,-138.446 81.0962,-125.78"/>
<polygon fill="midnightblue" stroke="midnightblue" points="140.067,-171.575 150.258,-174.47 144.096,-165.851 140.067,-171.575"/>
</g>
<!-- Node5 -->
<g id="node5" class="node"><title>Node5</title>
<g id="a_node5"><a xlink:href="arma__realtime_8cc.html" target="_top" xlink:title="/home/travis/build\l/igankevich/arma/src\l/arma_realtime.cc">
<polygon fill="none" stroke="black" points="124.5,-84.5 124.5,-125.5 231.5,-125.5 231.5,-84.5 124.5,-84.5"/>
<text text-anchor="start" x="132.5" y="-113.5" font-family="Helvetica,sans-Serif" font-size="10.00">/home/travis/build</text>
<text text-anchor="start" x="132.5" y="-102.5" font-family="Helvetica,sans-Serif" font-size="10.00">/igankevich/arma/src</text>
<text text-anchor="middle" x="178" y="-91.5" font-family="Helvetica,sans-Serif" font-size="10.00">/arma_realtime.cc</text>
</a>
</g>
</g>
<!-- Node3&#45;&gt;Node5 -->
<g id="edge4" class="edge"><title>Node3&#45;&gt;Node5</title>
<path fill="none" stroke="midnightblue" d="M178,-164.33C178,-151.629 178,-137.14 178,-125.78"/>
<polygon fill="midnightblue" stroke="midnightblue" points="174.5,-164.47 178,-174.47 181.5,-164.47 174.5,-164.47"/>
</g>
<!-- Node12 -->
<g id="node12" class="node"><title>Node12</title>
<g id="a_node12"><a xlink:href="ar__model__parallel_8cc.html" target="_top" xlink:title="/home/travis/build\l/igankevich/arma/src\l/generator/ar_model_parallel.cc">
<polygon fill="none" stroke="black" points="560,-84.5 560,-125.5 712,-125.5 712,-84.5 560,-84.5"/>
<text text-anchor="start" x="568" y="-113.5" font-family="Helvetica,sans-Serif" font-size="10.00">/home/travis/build</text>
<text text-anchor="start" x="568" y="-102.5" font-family="Helvetica,sans-Serif" font-size="10.00">/igankevich/arma/src</text>
<text text-anchor="middle" x="636" y="-91.5" font-family="Helvetica,sans-Serif" font-size="10.00">/generator/ar_model_parallel.cc</text>
</a>
</g>
</g>
<!-- Node11&#45;&gt;Node12 -->
<g id="edge11" class="edge"><title>Node11&#45;&gt;Node12</title>
<path fill="none" stroke="midnightblue" d="M864.879,-170.772C862.226,-169.805 859.59,-168.876 857,-168 798.174,-148.113 781.728,-148.987 722,-132 714.799,-129.952 707.274,-127.758 699.801,-125.544"/>
<polygon fill="midnightblue" stroke="midnightblue" points="863.91,-174.147 874.502,-174.402 866.382,-167.598 863.91,-174.147"/>
</g>
<!-- Node13 -->
<g id="node13" class="node"><title>Node13</title>
<g id="a_node13"><a xlink:href="basic__arma__model_8cc.html" target="_top" xlink:title="/home/travis/build\l/igankevich/arma/src\l/generator/basic_arma\l_model.cc">
<polygon fill="none" stroke="black" points="730.5,-79 730.5,-131 843.5,-131 843.5,-79 730.5,-79"/>
<text text-anchor="start" x="738.5" y="-119" font-family="Helvetica,sans-Serif" font-size="10.00">/home/travis/build</text>
<text text-anchor="start" x="738.5" y="-108" font-family="Helvetica,sans-Serif" font-size="10.00">/igankevich/arma/src</text>
<text text-anchor="start" x="738.5" y="-97" font-family="Helvetica,sans-Serif" font-size="10.00">/generator/basic_arma</text>
<text text-anchor="middle" x="787" y="-86" font-family="Helvetica,sans-Serif" font-size="10.00">_model.cc</text>
</a>
</g>
</g>
<!-- Node11&#45;&gt;Node13 -->
<g id="edge12" class="edge"><title>Node11&#45;&gt;Node13</title>
<path fill="none" stroke="midnightblue" d="M882.016,-168.868C864.153,-157.049 842.904,-142.989 825.035,-131.166"/>
<polygon fill="midnightblue" stroke="midnightblue" points="880.212,-171.871 890.483,-174.47 884.075,-166.033 880.212,-171.871"/>
</g>
<!-- Node14 -->
<g id="node14" class="node"><title>Node14</title>
<g id="a_node14"><a xlink:href="lh__model_8cc.html" target="_top" xlink:title="/home/travis/build\l/igankevich/arma/src\l/generator/lh_model.cc">
<polygon fill="none" stroke="black" points="862,-84.5 862,-125.5 978,-125.5 978,-84.5 862,-84.5"/>
<text text-anchor="start" x="870" y="-113.5" font-family="Helvetica,sans-Serif" font-size="10.00">/home/travis/build</text>
<text text-anchor="start" x="870" y="-102.5" font-family="Helvetica,sans-Serif" font-size="10.00">/igankevich/arma/src</text>
<text text-anchor="middle" x="920" y="-91.5" font-family="Helvetica,sans-Serif" font-size="10.00">/generator/lh_model.cc</text>
</a>
</g>
</g>
<!-- Node11&#45;&gt;Node14 -->
<g id="edge13" class="edge"><title>Node11&#45;&gt;Node14</title>
<path fill="none" stroke="midnightblue" d="M920,-164.33C920,-151.629 920,-137.14 920,-125.78"/>
<polygon fill="midnightblue" stroke="midnightblue" points="916.5,-164.47 920,-174.47 923.5,-164.47 916.5,-164.47"/>
</g>
<!-- Node15 -->
<g id="node15" class="node"><title>Node15</title>
<g id="a_node15"><a xlink:href="array_8hh.html" target="_top" xlink:title="/home/travis/build\l/igankevich/arma/src\l/opencl/array.hh">
<polygon fill="none" stroke="black" points="996.5,-84.5 996.5,-125.5 1103.5,-125.5 1103.5,-84.5 996.5,-84.5"/>
<text text-anchor="start" x="1004.5" y="-113.5" font-family="Helvetica,sans-Serif" font-size="10.00">/home/travis/build</text>
<text text-anchor="start" x="1004.5" y="-102.5" font-family="Helvetica,sans-Serif" font-size="10.00">/igankevich/arma/src</text>
<text text-anchor="middle" x="1050" y="-91.5" font-family="Helvetica,sans-Serif" font-size="10.00">/opencl/array.hh</text>
</a>
</g>
</g>
<!-- Node11&#45;&gt;Node15 -->
<g id="edge14" class="edge"><title>Node11&#45;&gt;Node15</title>
<path fill="none" stroke="midnightblue" d="M957.203,-168.816C977.39,-155.151 1001.98,-138.503 1020.78,-125.78"/>
<polygon fill="midnightblue" stroke="midnightblue" points="955.17,-165.966 948.851,-174.47 959.094,-171.763 955.17,-165.966"/>
</g>
<!-- Node15&#45;&gt;Node6 -->
<g id="edge15" class="edge"><title>Node15&#45;&gt;Node6</title>
<path fill="none" stroke="midnightblue" d="M995.64,-80.9893C992.402,-79.9086 989.173,-78.9011 986,-78 899.941,-53.5569 798.081,-38.2927 730.309,-29.9879"/>
<polygon fill="midnightblue" stroke="midnightblue" points="994.733,-84.3811 1005.33,-84.4177 997.068,-77.7821 994.733,-84.3811"/>
</g>
</g>
</svg>
