<?xml version="1.0" encoding="UTF-8" standalone="no"?>
<!DOCTYPE svg PUBLIC "-//W3C//DTD SVG 1.1//EN"
 "http://www.w3.org/Graphics/SVG/1.1/DTD/svg11.dtd">
<!-- Generated by graphviz version 2.40.1 (20161225.0304)
 -->
<!-- Title: src/stats/qq_graph.cc Pages: 1 -->
<svg width="302pt" height="207pt"
 viewBox="0.00 0.00 301.50 207.00" xmlns="http://www.w3.org/2000/svg" xmlns:xlink="http://www.w3.org/1999/xlink">
<g id="graph0" class="graph" transform="scale(1 1) rotate(0) translate(4 203)">
<title>src/stats/qq_graph.cc</title>
<!-- Node0 -->
<g id="node1" class="node">
<title>Node0</title>
<polygon fill="#bfbfbf" stroke="#000000" points="51,-179.5 51,-198.5 162,-198.5 162,-179.5 51,-179.5"/>
<text text-anchor="middle" x="106.5" y="-186.5" font-family="Helvetica,sans-Serif" font-size="10.00" fill="#000000">src/stats/qq_graph.cc</text>
</g>
<!-- Node1 -->
<g id="node2" class="node">
<title>Node1</title>
<g id="a_node2"><a xlink:href="qq__graph_8hh.html" target="_top" xlink:title="qq_graph.hh">
<polygon fill="none" stroke="#000000" points="34.5,-123.5 34.5,-142.5 104.5,-142.5 104.5,-123.5 34.5,-123.5"/>
<text text-anchor="middle" x="69.5" y="-130.5" font-family="Helvetica,sans-Serif" font-size="10.00" fill="#000000">qq_graph.hh</text>
</a>
</g>
</g>
<!-- Node0&#45;&gt;Node1 -->
<g id="edge1" class="edge">
<title>Node0&#45;&gt;Node1</title>
<path fill="none" stroke="#191970" d="M100.0551,-179.2455C94.9618,-171.5367 87.7092,-160.5598 81.548,-151.2348"/>
<polygon fill="#191970" stroke="#191970" points="84.3038,-149.0566 75.8711,-142.6427 78.4635,-152.9155 84.3038,-149.0566"/>
</g>
<!-- Node7 -->
<g id="node8" class="node">
<title>Node7</title>
<polygon fill="none" stroke="#bfbfbf" points="122.5,-123.5 122.5,-142.5 166.5,-142.5 166.5,-123.5 122.5,-123.5"/>
<text text-anchor="middle" x="144.5" y="-130.5" font-family="Helvetica,sans-Serif" font-size="10.00" fill="#000000">cmath</text>
</g>
<!-- Node0&#45;&gt;Node7 -->
<g id="edge8" class="edge">
<title>Node0&#45;&gt;Node7</title>
<path fill="none" stroke="#191970" d="M113.1191,-179.2455C118.4046,-171.4564 125.9541,-160.3308 132.3238,-150.9439"/>
<polygon fill="#191970" stroke="#191970" points="135.2379,-152.8827 137.9568,-142.6427 129.4455,-148.9522 135.2379,-152.8827"/>
</g>
<!-- Node2 -->
<g id="node3" class="node">
<title>Node2</title>
<polygon fill="none" stroke="#bfbfbf" points="0,-6 0,-25 67,-25 67,-6 0,-6"/>
<text text-anchor="middle" x="33.5" y="-13" font-family="Helvetica,sans-Serif" font-size="10.00" fill="#000000">blitz/array.h</text>
</g>
<!-- Node1&#45;&gt;Node2 -->
<g id="edge2" class="edge">
<title>Node1&#45;&gt;Node2</title>
<path fill="none" stroke="#191970" d="M58.3498,-123.3293C49.4329,-114.8007 37.6079,-101.5 32.5,-87 26.5836,-70.2047 27.6111,-49.7837 29.6585,-35.0726"/>
<polygon fill="#191970" stroke="#191970" points="33.1304,-35.5304 31.3248,-25.0906 26.2259,-34.3778 33.1304,-35.5304"/>
</g>
<!-- Node3 -->
<g id="node4" class="node">
<title>Node3</title>
<polygon fill="none" stroke="#bfbfbf" points="41.5,-67.5 41.5,-86.5 97.5,-86.5 97.5,-67.5 41.5,-67.5"/>
<text text-anchor="middle" x="69.5" y="-74.5" font-family="Helvetica,sans-Serif" font-size="10.00" fill="#000000">algorithm</text>
</g>
<!-- Node1&#45;&gt;Node3 -->
<g id="edge3" class="edge">
<title>Node1&#45;&gt;Node3</title>
<path fill="none" stroke="#191970" d="M69.5,-123.2455C69.5,-115.9382 69.5,-105.6944 69.5,-96.7046"/>
<polygon fill="#191970" stroke="#191970" points="73.0001,-96.6426 69.5,-86.6427 66.0001,-96.6427 73.0001,-96.6426"/>
</g>
<!-- Node4 -->
<g id="node5" class="node">
<title>Node4</title>
<g id="a_node5"><a xlink:href="statistics_8hh.html" target="_top" xlink:title="statistics.hh">
<polygon fill="none" stroke="#000000" points="115.5,-67.5 115.5,-86.5 185.5,-86.5 185.5,-67.5 115.5,-67.5"/>
<text text-anchor="middle" x="150.5" y="-74.5" font-family="Helvetica,sans-Serif" font-size="10.00" fill="#000000">statistics.hh</text>
</a>
</g>
</g>
<!-- Node1&#45;&gt;Node4 -->
<g id="edge4" class="edge">
<title>Node1&#45;&gt;Node4</title>
<path fill="none" stroke="#191970" d="M83.6091,-123.2455C95.9209,-114.7337 113.9958,-102.2375 128.2538,-92.3801"/>
<polygon fill="#191970" stroke="#191970" points="130.3174,-95.2085 136.5526,-86.6427 126.3366,-89.4506 130.3174,-95.2085"/>
</g>
<!-- Node4&#45;&gt;Node2 -->
<g id="edge5" class="edge">
<title>Node4&#45;&gt;Node2</title>
<path fill="none" stroke="#191970" d="M132.2188,-67.3906C112.9859,-57.2811 82.5121,-41.2628 60.5075,-29.6962"/>
<polygon fill="#191970" stroke="#191970" points="62.133,-26.5967 51.6529,-25.0419 58.876,-32.7928 62.133,-26.5967"/>
</g>
<!-- Node5 -->
<g id="node6" class="node">
<title>Node5</title>
<polygon fill="none" stroke="#bfbfbf" points="95.5,-.5 95.5,-30.5 185.5,-30.5 185.5,-.5 95.5,-.5"/>
<text text-anchor="start" x="103.5" y="-18.5" font-family="Helvetica,sans-Serif" font-size="10.00" fill="#000000">gsl/gsl_statistics</text>
<text text-anchor="middle" x="140.5" y="-7.5" font-family="Helvetica,sans-Serif" font-size="10.00" fill="#000000">_float.h</text>
</g>
<!-- Node4&#45;&gt;Node5 -->
<g id="edge6" class="edge">
<title>Node4&#45;&gt;Node5</title>
<path fill="none" stroke="#191970" d="M148.9375,-67.3906C147.7721,-60.2234 146.1238,-50.0862 144.5929,-40.671"/>
<polygon fill="#191970" stroke="#191970" points="148.0059,-39.8532 142.9463,-30.5446 141.0967,-40.9767 148.0059,-39.8532"/>
</g>
<!-- Node6 -->
<g id="node7" class="node">
<title>Node6</title>
<polygon fill="none" stroke="#bfbfbf" points="203.5,-.5 203.5,-30.5 293.5,-30.5 293.5,-.5 203.5,-.5"/>
<text text-anchor="start" x="211.5" y="-18.5" font-family="Helvetica,sans-Serif" font-size="10.00" fill="#000000">gsl/gsl_statistics</text>
<text text-anchor="middle" x="248.5" y="-7.5" font-family="Helvetica,sans-Serif" font-size="10.00" fill="#000000">_double.h</text>
</g>
<!-- Node4&#45;&gt;Node6 -->
<g id="edge7" class="edge">
<title>Node4&#45;&gt;Node6</title>
<path fill="none" stroke="#191970" d="M165.8125,-67.3906C179.1984,-58.9903 199.0853,-46.5103 216.0014,-35.8945"/>
<polygon fill="#191970" stroke="#191970" points="217.9167,-38.8248 224.5265,-30.5446 214.1958,-32.8956 217.9167,-38.8248"/>
</g>
</g>
</svg>
