<?xml version="1.0" encoding="UTF-8" standalone="no"?>
<!DOCTYPE svg PUBLIC "-//W3C//DTD SVG 1.1//EN"
 "http://www.w3.org/Graphics/SVG/1.1/DTD/svg11.dtd">
<!-- Generated by graphviz version 2.36.0 (20140111.2315)
 -->
<!-- Title: /home/travis/build/igankevich/arma/src/stats/qq_graph.hh Pages: 1 -->
<svg width="302pt" height="174pt"
 viewBox="0.00 0.00 302.00 174.00" xmlns="http://www.w3.org/2000/svg" xmlns:xlink="http://www.w3.org/1999/xlink">
<g id="graph0" class="graph" transform="scale(1 1) rotate(0) translate(4 170)">
<title>/home/travis/build/igankevich/arma/src/stats/qq_graph.hh</title>
<!-- Node1 -->
<g id="node1" class="node"><title>Node1</title>
<polygon fill="#bfbfbf" stroke="black" points="16.5,-124.5 16.5,-165.5 123.5,-165.5 123.5,-124.5 16.5,-124.5"/>
<text text-anchor="start" x="24.5" y="-153.5" font-family="Helvetica,sans-Serif" font-size="10.00">/home/travis/build</text>
<text text-anchor="start" x="24.5" y="-142.5" font-family="Helvetica,sans-Serif" font-size="10.00">/igankevich/arma/src</text>
<text text-anchor="middle" x="70" y="-131.5" font-family="Helvetica,sans-Serif" font-size="10.00">/stats/qq_graph.hh</text>
</g>
<!-- Node2 -->
<g id="node2" class="node"><title>Node2</title>
<polygon fill="none" stroke="#bfbfbf" points="0,-6.5 0,-25.5 68,-25.5 68,-6.5 0,-6.5"/>
<text text-anchor="middle" x="34" y="-13.5" font-family="Helvetica,sans-Serif" font-size="10.00">blitz/array.h</text>
</g>
<!-- Node1&#45;&gt;Node2 -->
<g id="edge1" class="edge"><title>Node1&#45;&gt;Node2</title>
<path fill="none" stroke="midnightblue" d="M52.9809,-124.462C45.2665,-114.314 36.9909,-101.28 33,-88 27.8488,-70.8591 28.8621,-50.3239 30.7046,-35.7577"/>
<polygon fill="midnightblue" stroke="midnightblue" points="34.2159,-35.9469 32.258,-25.5345 27.2954,-34.8952 34.2159,-35.9469"/>
</g>
<!-- Node3 -->
<g id="node3" class="node"><title>Node3</title>
<polygon fill="none" stroke="#bfbfbf" points="42,-68.5 42,-87.5 98,-87.5 98,-68.5 42,-68.5"/>
<text text-anchor="middle" x="70" y="-75.5" font-family="Helvetica,sans-Serif" font-size="10.00">algorithm</text>
</g>
<!-- Node1&#45;&gt;Node3 -->
<g id="edge2" class="edge"><title>Node1&#45;&gt;Node3</title>
<path fill="none" stroke="midnightblue" d="M70,-124.498C70,-116.065 70,-106.235 70,-97.874"/>
<polygon fill="midnightblue" stroke="midnightblue" points="73.5001,-97.6525 70,-87.6525 66.5001,-97.6525 73.5001,-97.6525"/>
</g>
<!-- Node4 -->
<g id="node4" class="node"><title>Node4</title>
<g id="a_node4"><a xlink:href="statistics_8hh.html" target="_top" xlink:title="statistics.hh">
<polygon fill="none" stroke="black" points="116,-68.5 116,-87.5 186,-87.5 186,-68.5 116,-68.5"/>
<text text-anchor="middle" x="151" y="-75.5" font-family="Helvetica,sans-Serif" font-size="10.00">statistics.hh</text>
</a>
</g>
</g>
<!-- Node1&#45;&gt;Node4 -->
<g id="edge3" class="edge"><title>Node1&#45;&gt;Node4</title>
<path fill="none" stroke="midnightblue" d="M94.3027,-124.498C106.483,-114.724 121.003,-103.072 132.299,-94.0066"/>
<polygon fill="midnightblue" stroke="midnightblue" points="134.609,-96.641 140.218,-87.6525 130.228,-91.1815 134.609,-96.641"/>
</g>
<!-- Node4&#45;&gt;Node2 -->
<g id="edge4" class="edge"><title>Node4&#45;&gt;Node2</title>
<path fill="none" stroke="midnightblue" d="M134.237,-68.4035C114.775,-58.4232 82.455,-41.8487 59.7893,-30.2253"/>
<polygon fill="midnightblue" stroke="midnightblue" points="61.2275,-27.0294 50.7322,-25.5806 58.0332,-33.2582 61.2275,-27.0294"/>
</g>
<!-- Node5 -->
<g id="node5" class="node"><title>Node5</title>
<polygon fill="none" stroke="#bfbfbf" points="96,-1 96,-31 186,-31 186,-1 96,-1"/>
<text text-anchor="start" x="104" y="-19" font-family="Helvetica,sans-Serif" font-size="10.00">gsl/gsl_statistics</text>
<text text-anchor="middle" x="141" y="-8" font-family="Helvetica,sans-Serif" font-size="10.00">_float.h</text>
</g>
<!-- Node4&#45;&gt;Node5 -->
<g id="edge5" class="edge"><title>Node4&#45;&gt;Node5</title>
<path fill="none" stroke="midnightblue" d="M149.567,-68.4035C148.377,-61.2646 146.625,-50.7517 145.015,-41.0903"/>
<polygon fill="midnightblue" stroke="midnightblue" points="148.453,-40.4293 143.357,-31.1408 141.548,-41.5802 148.453,-40.4293"/>
</g>
<!-- Node6 -->
<g id="node6" class="node"><title>Node6</title>
<polygon fill="none" stroke="#bfbfbf" points="204,-1 204,-31 294,-31 294,-1 204,-1"/>
<text text-anchor="start" x="212" y="-19" font-family="Helvetica,sans-Serif" font-size="10.00">gsl/gsl_statistics</text>
<text text-anchor="middle" x="249" y="-8" font-family="Helvetica,sans-Serif" font-size="10.00">_double.h</text>
</g>
<!-- Node4&#45;&gt;Node6 -->
<g id="edge6" class="edge"><title>Node4&#45;&gt;Node6</title>
<path fill="none" stroke="midnightblue" d="M165.041,-68.4035C178.562,-60.1254 199.493,-47.3106 217.073,-36.5474"/>
<polygon fill="midnightblue" stroke="midnightblue" points="219.202,-39.3474 225.903,-31.1408 215.547,-33.3774 219.202,-39.3474"/>
</g>
</g>
</svg>
