<?xml version="1.0" encoding="UTF-8" standalone="no"?>
<!DOCTYPE svg PUBLIC "-//W3C//DTD SVG 1.1//EN"
 "http://www.w3.org/Graphics/SVG/1.1/DTD/svg11.dtd">
<!-- Generated by graphviz version 2.36.0 (20140111.2315)
 -->
<!-- Title: /home/travis/build/igankevich/arma/src/stats/qq_graph.hh Pages: 1 -->
<svg width="303pt" height="308pt"
 viewBox="0.00 0.00 303.00 308.00" xmlns="http://www.w3.org/2000/svg" xmlns:xlink="http://www.w3.org/1999/xlink">
<g id="graph0" class="graph" transform="scale(1 1) rotate(0) translate(4 304)">
<title>/home/travis/build/igankevich/arma/src/stats/qq_graph.hh</title>
<!-- Node1 -->
<g id="node1" class="node"><title>Node1</title>
<polygon fill="#bfbfbf" stroke="black" points="61.5,-258.5 61.5,-299.5 168.5,-299.5 168.5,-258.5 61.5,-258.5"/>
<text text-anchor="start" x="69.5" y="-287.5" font-family="Helvetica,sans-Serif" font-size="10.00">/home/travis/build</text>
<text text-anchor="start" x="69.5" y="-276.5" font-family="Helvetica,sans-Serif" font-size="10.00">/igankevich/arma/src</text>
<text text-anchor="middle" x="115" y="-265.5" font-family="Helvetica,sans-Serif" font-size="10.00">/stats/qq_graph.hh</text>
</g>
<!-- Node2 -->
<g id="node2" class="node"><title>Node2</title>
<g id="a_node2"><a xlink:href="qq__graph_8cc.html" target="_top" xlink:title="/home/travis/build\l/igankevich/arma/src\l/stats/qq_graph.cc">
<polygon fill="none" stroke="black" points="-0.5,-180.5 -0.5,-221.5 106.5,-221.5 106.5,-180.5 -0.5,-180.5"/>
<text text-anchor="start" x="7.5" y="-209.5" font-family="Helvetica,sans-Serif" font-size="10.00">/home/travis/build</text>
<text text-anchor="start" x="7.5" y="-198.5" font-family="Helvetica,sans-Serif" font-size="10.00">/igankevich/arma/src</text>
<text text-anchor="middle" x="53" y="-187.5" font-family="Helvetica,sans-Serif" font-size="10.00">/stats/qq_graph.cc</text>
</a>
</g>
</g>
<!-- Node1&#45;&gt;Node2 -->
<g id="edge1" class="edge"><title>Node1&#45;&gt;Node2</title>
<path fill="none" stroke="midnightblue" d="M92.6694,-250.627C84.8077,-240.99 76.1371,-230.362 68.9124,-221.506"/>
<polygon fill="midnightblue" stroke="midnightblue" points="90.0001,-252.892 99.0335,-258.428 95.4242,-248.467 90.0001,-252.892"/>
</g>
<!-- Node3 -->
<g id="node3" class="node"><title>Node3</title>
<g id="a_node3"><a xlink:href="summary_8hh.html" target="_top" xlink:title="/home/travis/build\l/igankevich/arma/src\l/stats/summary.hh">
<polygon fill="none" stroke="black" points="124.5,-180.5 124.5,-221.5 231.5,-221.5 231.5,-180.5 124.5,-180.5"/>
<text text-anchor="start" x="132.5" y="-209.5" font-family="Helvetica,sans-Serif" font-size="10.00">/home/travis/build</text>
<text text-anchor="start" x="132.5" y="-198.5" font-family="Helvetica,sans-Serif" font-size="10.00">/igankevich/arma/src</text>
<text text-anchor="middle" x="178" y="-187.5" font-family="Helvetica,sans-Serif" font-size="10.00">/stats/summary.hh</text>
</a>
</g>
</g>
<!-- Node1&#45;&gt;Node3 -->
<g id="edge2" class="edge"><title>Node1&#45;&gt;Node3</title>
<path fill="none" stroke="midnightblue" d="M137.691,-250.627C145.679,-240.99 154.49,-230.362 161.831,-221.506"/>
<polygon fill="midnightblue" stroke="midnightblue" points="134.911,-248.496 131.224,-258.428 140.301,-252.963 134.911,-248.496"/>
</g>
<!-- Node4 -->
<g id="node4" class="node"><title>Node4</title>
<g id="a_node4"><a xlink:href="basic__arma__model__verify_8cc.html" target="_top" xlink:title="/home/travis/build\l/igankevich/arma/src\l/generator/basic_arma\l_model_verify.cc">
<polygon fill="none" stroke="black" points="57.5,-91 57.5,-143 170.5,-143 170.5,-91 57.5,-91"/>
<text text-anchor="start" x="65.5" y="-131" font-family="Helvetica,sans-Serif" font-size="10.00">/home/travis/build</text>
<text text-anchor="start" x="65.5" y="-120" font-family="Helvetica,sans-Serif" font-size="10.00">/igankevich/arma/src</text>
<text text-anchor="start" x="65.5" y="-109" font-family="Helvetica,sans-Serif" font-size="10.00">/generator/basic_arma</text>
<text text-anchor="middle" x="114" y="-98" font-family="Helvetica,sans-Serif" font-size="10.00">_model_verify.cc</text>
</a>
</g>
</g>
<!-- Node3&#45;&gt;Node4 -->
<g id="edge3" class="edge"><title>Node3&#45;&gt;Node4</title>
<path fill="none" stroke="midnightblue" d="M156.326,-172.231C149.006,-162.851 140.877,-152.436 133.716,-143.261"/>
<polygon fill="midnightblue" stroke="midnightblue" points="153.596,-174.42 162.507,-180.15 159.114,-170.113 153.596,-174.42"/>
</g>
<!-- Node6 -->
<g id="node6" class="node"><title>Node6</title>
<g id="a_node6"><a xlink:href="summary_8cc.html" target="_top" xlink:title="/home/travis/build\l/igankevich/arma/src\l/stats/summary.cc">
<polygon fill="none" stroke="black" points="188.5,-96.5 188.5,-137.5 295.5,-137.5 295.5,-96.5 188.5,-96.5"/>
<text text-anchor="start" x="196.5" y="-125.5" font-family="Helvetica,sans-Serif" font-size="10.00">/home/travis/build</text>
<text text-anchor="start" x="196.5" y="-114.5" font-family="Helvetica,sans-Serif" font-size="10.00">/igankevich/arma/src</text>
<text text-anchor="middle" x="242" y="-103.5" font-family="Helvetica,sans-Serif" font-size="10.00">/stats/summary.cc</text>
</a>
</g>
</g>
<!-- Node3&#45;&gt;Node6 -->
<g id="edge5" class="edge"><title>Node3&#45;&gt;Node6</title>
<path fill="none" stroke="midnightblue" d="M199.687,-172.214C208.542,-160.869 218.576,-148.012 226.65,-137.667"/>
<polygon fill="midnightblue" stroke="midnightblue" points="196.886,-170.113 193.493,-180.15 202.404,-174.42 196.886,-170.113"/>
</g>
<!-- Node5 -->
<g id="node5" class="node"><title>Node5</title>
<g id="a_node5"><a xlink:href="basic__arma__model_8cc.html" target="_top" xlink:title="/home/travis/build\l/igankevich/arma/src\l/generator/basic_arma\l_model.cc">
<polygon fill="none" stroke="black" points="57.5,-1 57.5,-53 170.5,-53 170.5,-1 57.5,-1"/>
<text text-anchor="start" x="65.5" y="-41" font-family="Helvetica,sans-Serif" font-size="10.00">/home/travis/build</text>
<text text-anchor="start" x="65.5" y="-30" font-family="Helvetica,sans-Serif" font-size="10.00">/igankevich/arma/src</text>
<text text-anchor="start" x="65.5" y="-19" font-family="Helvetica,sans-Serif" font-size="10.00">/generator/basic_arma</text>
<text text-anchor="middle" x="114" y="-8" font-family="Helvetica,sans-Serif" font-size="10.00">_model.cc</text>
</a>
</g>
</g>
<!-- Node4&#45;&gt;Node5 -->
<g id="edge4" class="edge"><title>Node4&#45;&gt;Node5</title>
<path fill="none" stroke="midnightblue" d="M114,-80.4892C114,-71.3088 114,-61.616 114,-53.0921"/>
<polygon fill="midnightblue" stroke="midnightblue" points="110.5,-80.5467 114,-90.5468 117.5,-80.5468 110.5,-80.5467"/>
</g>
</g>
</svg>
