<?xml version="1.0" encoding="UTF-8" standalone="no"?>
<!DOCTYPE svg PUBLIC "-//W3C//DTD SVG 1.1//EN"
 "http://www.w3.org/Graphics/SVG/1.1/DTD/svg11.dtd">
<!-- Generated by graphviz version 2.36.0 (20140111.2315)
 -->
<!-- Title: /home/travis/build/igankevich/arma/src/stats/qq_graph.hh Pages: 1 -->
<svg width="935pt" height="464pt"
 viewBox="0.00 0.00 935.00 464.00" xmlns="http://www.w3.org/2000/svg" xmlns:xlink="http://www.w3.org/1999/xlink">
<g id="graph0" class="graph" transform="scale(1 1) rotate(0) translate(4 460)">
<title>/home/travis/build/igankevich/arma/src/stats/qq_graph.hh</title>
<!-- Node1 -->
<g id="node1" class="node"><title>Node1</title>
<polygon fill="#bfbfbf" stroke="black" points="513.5,-414.5 513.5,-455.5 620.5,-455.5 620.5,-414.5 513.5,-414.5"/>
<text text-anchor="start" x="521.5" y="-443.5" font-family="Helvetica,sans-Serif" font-size="10.00">/home/travis/build</text>
<text text-anchor="start" x="521.5" y="-432.5" font-family="Helvetica,sans-Serif" font-size="10.00">/igankevich/arma/src</text>
<text text-anchor="middle" x="567" y="-421.5" font-family="Helvetica,sans-Serif" font-size="10.00">/stats/qq_graph.hh</text>
</g>
<!-- Node2 -->
<g id="node2" class="node"><title>Node2</title>
<g id="a_node2"><a xlink:href="arma_8hh.html" target="_top" xlink:title="/home/travis/build\l/igankevich/arma/src\l/arma.hh">
<polygon fill="none" stroke="black" points="358.5,-336.5 358.5,-377.5 465.5,-377.5 465.5,-336.5 358.5,-336.5"/>
<text text-anchor="start" x="366.5" y="-365.5" font-family="Helvetica,sans-Serif" font-size="10.00">/home/travis/build</text>
<text text-anchor="start" x="366.5" y="-354.5" font-family="Helvetica,sans-Serif" font-size="10.00">/igankevich/arma/src</text>
<text text-anchor="middle" x="412" y="-343.5" font-family="Helvetica,sans-Serif" font-size="10.00">/arma.hh</text>
</a>
</g>
</g>
<!-- Node1&#45;&gt;Node2 -->
<g id="edge1" class="edge"><title>Node1&#45;&gt;Node2</title>
<path fill="none" stroke="midnightblue" d="M517.865,-409.908C496.553,-399.458 471.92,-387.38 451.781,-377.506"/>
<polygon fill="midnightblue" stroke="midnightblue" points="516.564,-413.168 527.084,-414.428 519.646,-406.883 516.564,-413.168"/>
</g>
<!-- Node18 -->
<g id="node18" class="node"><title>Node18</title>
<g id="a_node18"><a xlink:href="qq__graph_8cc.html" target="_top" xlink:title="/home/travis/build\l/igankevich/arma/src\l/stats/qq_graph.cc">
<polygon fill="none" stroke="black" points="513.5,-336.5 513.5,-377.5 620.5,-377.5 620.5,-336.5 513.5,-336.5"/>
<text text-anchor="start" x="521.5" y="-365.5" font-family="Helvetica,sans-Serif" font-size="10.00">/home/travis/build</text>
<text text-anchor="start" x="521.5" y="-354.5" font-family="Helvetica,sans-Serif" font-size="10.00">/igankevich/arma/src</text>
<text text-anchor="middle" x="567" y="-343.5" font-family="Helvetica,sans-Serif" font-size="10.00">/stats/qq_graph.cc</text>
</a>
</g>
</g>
<!-- Node1&#45;&gt;Node18 -->
<g id="edge22" class="edge"><title>Node1&#45;&gt;Node18</title>
<path fill="none" stroke="midnightblue" d="M567,-404.297C567,-395.301 567,-385.653 567,-377.506"/>
<polygon fill="midnightblue" stroke="midnightblue" points="563.5,-404.428 567,-414.428 570.5,-404.428 563.5,-404.428"/>
</g>
<!-- Node19 -->
<g id="node19" class="node"><title>Node19</title>
<g id="a_node19"><a xlink:href="summary_8hh.html" target="_top" xlink:title="/home/travis/build\l/igankevich/arma/src\l/stats/summary.hh">
<polygon fill="none" stroke="black" points="691.5,-336.5 691.5,-377.5 798.5,-377.5 798.5,-336.5 691.5,-336.5"/>
<text text-anchor="start" x="699.5" y="-365.5" font-family="Helvetica,sans-Serif" font-size="10.00">/home/travis/build</text>
<text text-anchor="start" x="699.5" y="-354.5" font-family="Helvetica,sans-Serif" font-size="10.00">/igankevich/arma/src</text>
<text text-anchor="middle" x="745" y="-343.5" font-family="Helvetica,sans-Serif" font-size="10.00">/stats/summary.hh</text>
</a>
</g>
</g>
<!-- Node1&#45;&gt;Node19 -->
<g id="edge23" class="edge"><title>Node1&#45;&gt;Node19</title>
<path fill="none" stroke="midnightblue" d="M622.112,-410.469C646.884,-399.892 675.774,-387.557 699.316,-377.506"/>
<polygon fill="midnightblue" stroke="midnightblue" points="620.662,-407.282 612.839,-414.428 623.411,-413.72 620.662,-407.282"/>
</g>
<!-- Node3 -->
<g id="node3" class="node"><title>Node3</title>
<g id="a_node3"><a xlink:href="arma_8cc.html" target="_top" xlink:title="/home/travis/build\l/igankevich/arma/src\l/arma.cc">
<polygon fill="none" stroke="black" points="175.5,-252.5 175.5,-293.5 282.5,-293.5 282.5,-252.5 175.5,-252.5"/>
<text text-anchor="start" x="183.5" y="-281.5" font-family="Helvetica,sans-Serif" font-size="10.00">/home/travis/build</text>
<text text-anchor="start" x="183.5" y="-270.5" font-family="Helvetica,sans-Serif" font-size="10.00">/igankevich/arma/src</text>
<text text-anchor="middle" x="229" y="-259.5" font-family="Helvetica,sans-Serif" font-size="10.00">/arma.cc</text>
</a>
</g>
</g>
<!-- Node2&#45;&gt;Node3 -->
<g id="edge2" class="edge"><title>Node2&#45;&gt;Node3</title>
<path fill="none" stroke="midnightblue" d="M358.761,-332.144C331.456,-319.909 298.607,-305.19 272.792,-293.623"/>
<polygon fill="midnightblue" stroke="midnightblue" points="357.61,-335.464 368.167,-336.359 360.472,-329.076 357.61,-335.464"/>
</g>
<!-- Node4 -->
<g id="node4" class="node"><title>Node4</title>
<g id="a_node4"><a xlink:href="arma__driver_8hh.html" target="_top" xlink:title="/home/travis/build\l/igankevich/arma/src\l/arma_driver.hh">
<polygon fill="none" stroke="black" points="89.5,-162.5 89.5,-203.5 196.5,-203.5 196.5,-162.5 89.5,-162.5"/>
<text text-anchor="start" x="97.5" y="-191.5" font-family="Helvetica,sans-Serif" font-size="10.00">/home/travis/build</text>
<text text-anchor="start" x="97.5" y="-180.5" font-family="Helvetica,sans-Serif" font-size="10.00">/igankevich/arma/src</text>
<text text-anchor="middle" x="143" y="-169.5" font-family="Helvetica,sans-Serif" font-size="10.00">/arma_driver.hh</text>
</a>
</g>
</g>
<!-- Node2&#45;&gt;Node4 -->
<g id="edge3" class="edge"><title>Node2&#45;&gt;Node4</title>
<path fill="none" stroke="midnightblue" d="M348.358,-349.371C284.115,-341.35 190.926,-325.636 166,-300 140.954,-274.24 139.402,-229.492 140.928,-203.754"/>
<polygon fill="midnightblue" stroke="midnightblue" points="348.056,-352.86 358.405,-350.592 348.901,-345.911 348.056,-352.86"/>
</g>
<!-- Node10 -->
<g id="node10" class="node"><title>Node10</title>
<g id="a_node10"><a xlink:href="ar__model_8hh.html" target="_top" xlink:title="/home/travis/build\l/igankevich/arma/src\l/generator/ar_model.hh">
<polygon fill="none" stroke="black" points="301,-252.5 301,-293.5 417,-293.5 417,-252.5 301,-252.5"/>
<text text-anchor="start" x="309" y="-281.5" font-family="Helvetica,sans-Serif" font-size="10.00">/home/travis/build</text>
<text text-anchor="start" x="309" y="-270.5" font-family="Helvetica,sans-Serif" font-size="10.00">/igankevich/arma/src</text>
<text text-anchor="middle" x="359" y="-259.5" font-family="Helvetica,sans-Serif" font-size="10.00">/generator/ar_model.hh</text>
</a>
</g>
</g>
<!-- Node2&#45;&gt;Node10 -->
<g id="edge9" class="edge"><title>Node2&#45;&gt;Node10</title>
<path fill="none" stroke="midnightblue" d="M393.612,-327.551C386.386,-316.37 378.268,-303.811 371.712,-293.667"/>
<polygon fill="midnightblue" stroke="midnightblue" points="390.802,-329.652 399.17,-336.15 396.681,-325.852 390.802,-329.652"/>
</g>
<!-- Node15 -->
<g id="node15" class="node"><title>Node15</title>
<g id="a_node15"><a xlink:href="ma__model_8hh.html" target="_top" xlink:title="/home/travis/build\l/igankevich/arma/src\l/generator/ma_model.hh">
<polygon fill="none" stroke="black" points="435,-252.5 435,-293.5 557,-293.5 557,-252.5 435,-252.5"/>
<text text-anchor="start" x="443" y="-281.5" font-family="Helvetica,sans-Serif" font-size="10.00">/home/travis/build</text>
<text text-anchor="start" x="443" y="-270.5" font-family="Helvetica,sans-Serif" font-size="10.00">/igankevich/arma/src</text>
<text text-anchor="middle" x="496" y="-259.5" font-family="Helvetica,sans-Serif" font-size="10.00">/generator/ma_model.hh</text>
</a>
</g>
</g>
<!-- Node2&#45;&gt;Node15 -->
<g id="edge17" class="edge"><title>Node2&#45;&gt;Node15</title>
<path fill="none" stroke="midnightblue" d="M439.789,-328.873C451.573,-317.369 465.05,-304.213 475.853,-293.667"/>
<polygon fill="midnightblue" stroke="midnightblue" points="437.045,-326.66 432.334,-336.15 441.935,-331.669 437.045,-326.66"/>
</g>
<!-- Node17 -->
<g id="node17" class="node"><title>Node17</title>
<g id="a_node17"><a xlink:href="basic__arma__model_8cc.html" target="_top" xlink:title="/home/travis/build\l/igankevich/arma/src\l/generator/basic_arma\l_model.cc">
<polygon fill="none" stroke="black" points="713.5,-157 713.5,-209 826.5,-209 826.5,-157 713.5,-157"/>
<text text-anchor="start" x="721.5" y="-197" font-family="Helvetica,sans-Serif" font-size="10.00">/home/travis/build</text>
<text text-anchor="start" x="721.5" y="-186" font-family="Helvetica,sans-Serif" font-size="10.00">/igankevich/arma/src</text>
<text text-anchor="start" x="721.5" y="-175" font-family="Helvetica,sans-Serif" font-size="10.00">/generator/basic_arma</text>
<text text-anchor="middle" x="770" y="-164" font-family="Helvetica,sans-Serif" font-size="10.00">_model.cc</text>
</a>
</g>
</g>
<!-- Node2&#45;&gt;Node17 -->
<g id="edge21" class="edge"><title>Node2&#45;&gt;Node17</title>
<path fill="none" stroke="midnightblue" d="M475.373,-335.65C503.564,-325.913 536.893,-313.451 566,-300 625.174,-272.654 690.068,-234.178 730.417,-209.166"/>
<polygon fill="midnightblue" stroke="midnightblue" points="473.964,-332.433 465.632,-338.977 476.226,-339.057 473.964,-332.433"/>
</g>
<!-- Node5 -->
<g id="node5" class="node"><title>Node5</title>
<g id="a_node5"><a xlink:href="arma__driver_8cc.html" target="_top" xlink:title="/home/travis/build\l/igankevich/arma/src\l/arma_driver.cc">
<polygon fill="none" stroke="black" points="180.5,-78.5 180.5,-119.5 287.5,-119.5 287.5,-78.5 180.5,-78.5"/>
<text text-anchor="start" x="188.5" y="-107.5" font-family="Helvetica,sans-Serif" font-size="10.00">/home/travis/build</text>
<text text-anchor="start" x="188.5" y="-96.5" font-family="Helvetica,sans-Serif" font-size="10.00">/igankevich/arma/src</text>
<text text-anchor="middle" x="234" y="-85.5" font-family="Helvetica,sans-Serif" font-size="10.00">/arma_driver.cc</text>
</a>
</g>
</g>
<!-- Node4&#45;&gt;Node5 -->
<g id="edge4" class="edge"><title>Node4&#45;&gt;Node5</title>
<path fill="none" stroke="midnightblue" d="M172.74,-155.201C185.593,-143.62 200.36,-130.313 212.174,-119.667"/>
<polygon fill="midnightblue" stroke="midnightblue" points="170.115,-152.856 165.029,-162.15 174.8,-158.056 170.115,-152.856"/>
</g>
<!-- Node6 -->
<g id="node6" class="node"><title>Node6</title>
<g id="a_node6"><a xlink:href="arma__main_8cc.html" target="_top" xlink:title="/home/travis/build\l/igankevich/arma/src\l/arma_main.cc">
<polygon fill="none" stroke="black" points="295.5,-0.5 295.5,-41.5 402.5,-41.5 402.5,-0.5 295.5,-0.5"/>
<text text-anchor="start" x="303.5" y="-29.5" font-family="Helvetica,sans-Serif" font-size="10.00">/home/travis/build</text>
<text text-anchor="start" x="303.5" y="-18.5" font-family="Helvetica,sans-Serif" font-size="10.00">/igankevich/arma/src</text>
<text text-anchor="middle" x="349" y="-7.5" font-family="Helvetica,sans-Serif" font-size="10.00">/arma_main.cc</text>
</a>
</g>
</g>
<!-- Node4&#45;&gt;Node6 -->
<g id="edge5" class="edge"><title>Node4&#45;&gt;Node6</title>
<path fill="none" stroke="midnightblue" d="M143.568,-152.168C145.587,-129.082 152.006,-97.8054 171,-78 175.499,-73.3091 244.323,-52.4882 295.046,-37.6067"/>
<polygon fill="midnightblue" stroke="midnightblue" points="140.057,-152.238 142.908,-162.443 147.042,-152.688 140.057,-152.238"/>
</g>
<!-- Node7 -->
<g id="node7" class="node"><title>Node7</title>
<g id="a_node7"><a xlink:href="arma__realtime__driver_8hh.html" target="_top" xlink:title="/home/travis/build\l/igankevich/arma/src\l/arma_realtime_driver.hh">
<polygon fill="none" stroke="black" points="0,-78.5 0,-119.5 124,-119.5 124,-78.5 0,-78.5"/>
<text text-anchor="start" x="8" y="-107.5" font-family="Helvetica,sans-Serif" font-size="10.00">/home/travis/build</text>
<text text-anchor="start" x="8" y="-96.5" font-family="Helvetica,sans-Serif" font-size="10.00">/igankevich/arma/src</text>
<text text-anchor="middle" x="62" y="-85.5" font-family="Helvetica,sans-Serif" font-size="10.00">/arma_realtime_driver.hh</text>
</a>
</g>
</g>
<!-- Node4&#45;&gt;Node7 -->
<g id="edge6" class="edge"><title>Node4&#45;&gt;Node7</title>
<path fill="none" stroke="midnightblue" d="M116.204,-154.873C104.84,-143.369 91.8445,-130.213 81.4273,-119.667"/>
<polygon fill="midnightblue" stroke="midnightblue" points="113.875,-157.495 123.392,-162.15 118.855,-152.576 113.875,-157.495"/>
</g>
<!-- Node8 -->
<g id="node8" class="node"><title>Node8</title>
<g id="a_node8"><a xlink:href="arma__realtime_8cc.html" target="_top" xlink:title="/home/travis/build\l/igankevich/arma/src\l/arma_realtime.cc">
<polygon fill="none" stroke="black" points="161.5,-0.5 161.5,-41.5 268.5,-41.5 268.5,-0.5 161.5,-0.5"/>
<text text-anchor="start" x="169.5" y="-29.5" font-family="Helvetica,sans-Serif" font-size="10.00">/home/travis/build</text>
<text text-anchor="start" x="169.5" y="-18.5" font-family="Helvetica,sans-Serif" font-size="10.00">/igankevich/arma/src</text>
<text text-anchor="middle" x="215" y="-7.5" font-family="Helvetica,sans-Serif" font-size="10.00">/arma_realtime.cc</text>
</a>
</g>
</g>
<!-- Node7&#45;&gt;Node8 -->
<g id="edge7" class="edge"><title>Node7&#45;&gt;Node8</title>
<path fill="none" stroke="midnightblue" d="M110.501,-73.9082C131.538,-63.4581 155.853,-51.3801 175.732,-41.5056"/>
<polygon fill="midnightblue" stroke="midnightblue" points="108.8,-70.8448 101.401,-78.4281 111.914,-77.1139 108.8,-70.8448"/>
</g>
<!-- Node9 -->
<g id="node9" class="node"><title>Node9</title>
<g id="a_node9"><a xlink:href="arma__realtime__driver_8cc.html" target="_top" xlink:title="/home/travis/build\l/igankevich/arma/src\l/arma_realtime_driver.cc">
<polygon fill="none" stroke="black" points="0,-0.5 0,-41.5 124,-41.5 124,-0.5 0,-0.5"/>
<text text-anchor="start" x="8" y="-29.5" font-family="Helvetica,sans-Serif" font-size="10.00">/home/travis/build</text>
<text text-anchor="start" x="8" y="-18.5" font-family="Helvetica,sans-Serif" font-size="10.00">/igankevich/arma/src</text>
<text text-anchor="middle" x="62" y="-7.5" font-family="Helvetica,sans-Serif" font-size="10.00">/arma_realtime_driver.cc</text>
</a>
</g>
</g>
<!-- Node7&#45;&gt;Node9 -->
<g id="edge8" class="edge"><title>Node7&#45;&gt;Node9</title>
<path fill="none" stroke="midnightblue" d="M62,-68.2965C62,-59.3009 62,-49.6532 62,-41.5056"/>
<polygon fill="midnightblue" stroke="midnightblue" points="58.5001,-68.4281 62,-78.4281 65.5001,-68.4281 58.5001,-68.4281"/>
</g>
<!-- Node11 -->
<g id="node11" class="node"><title>Node11</title>
<g id="a_node11"><a xlink:href="common__main_8hh.html" target="_top" xlink:title="/home/travis/build\l/igankevich/arma/src\l/common_main.hh">
<polygon fill="none" stroke="black" points="305.5,-78.5 305.5,-119.5 412.5,-119.5 412.5,-78.5 305.5,-78.5"/>
<text text-anchor="start" x="313.5" y="-107.5" font-family="Helvetica,sans-Serif" font-size="10.00">/home/travis/build</text>
<text text-anchor="start" x="313.5" y="-96.5" font-family="Helvetica,sans-Serif" font-size="10.00">/igankevich/arma/src</text>
<text text-anchor="middle" x="359" y="-85.5" font-family="Helvetica,sans-Serif" font-size="10.00">/common_main.hh</text>
</a>
</g>
</g>
<!-- Node10&#45;&gt;Node11 -->
<g id="edge10" class="edge"><title>Node10&#45;&gt;Node11</title>
<path fill="none" stroke="midnightblue" d="M359,-242.113C359,-206.905 359,-149.428 359,-119.5"/>
<polygon fill="midnightblue" stroke="midnightblue" points="355.5,-242.269 359,-252.269 362.5,-242.269 355.5,-242.269"/>
</g>
<!-- Node12 -->
<g id="node12" class="node"><title>Node12</title>
<g id="a_node12"><a xlink:href="arma__model_8hh.html" target="_top" xlink:title="/home/travis/build\l/igankevich/arma/src\l/generator/arma_model.hh">
<polygon fill="none" stroke="black" points="425,-162.5 425,-203.5 555,-203.5 555,-162.5 425,-162.5"/>
<text text-anchor="start" x="433" y="-191.5" font-family="Helvetica,sans-Serif" font-size="10.00">/home/travis/build</text>
<text text-anchor="start" x="433" y="-180.5" font-family="Helvetica,sans-Serif" font-size="10.00">/igankevich/arma/src</text>
<text text-anchor="middle" x="490" y="-169.5" font-family="Helvetica,sans-Serif" font-size="10.00">/generator/arma_model.hh</text>
</a>
</g>
</g>
<!-- Node10&#45;&gt;Node12 -->
<g id="edge13" class="edge"><title>Node10&#45;&gt;Node12</title>
<path fill="none" stroke="midnightblue" d="M396.489,-246.816C416.831,-233.151 441.615,-216.503 460.555,-203.78"/>
<polygon fill="midnightblue" stroke="midnightblue" points="394.422,-243.988 388.073,-252.47 398.326,-249.799 394.422,-243.988"/>
</g>
<!-- Node14 -->
<g id="node14" class="node"><title>Node14</title>
<g id="a_node14"><a xlink:href="ar__model_8cc.html" target="_top" xlink:title="/home/travis/build\l/igankevich/arma/src\l/generator/ar_model.cc">
<polygon fill="none" stroke="black" points="215,-162.5 215,-203.5 331,-203.5 331,-162.5 215,-162.5"/>
<text text-anchor="start" x="223" y="-191.5" font-family="Helvetica,sans-Serif" font-size="10.00">/home/travis/build</text>
<text text-anchor="start" x="223" y="-180.5" font-family="Helvetica,sans-Serif" font-size="10.00">/igankevich/arma/src</text>
<text text-anchor="middle" x="273" y="-169.5" font-family="Helvetica,sans-Serif" font-size="10.00">/generator/ar_model.cc</text>
</a>
</g>
</g>
<!-- Node10&#45;&gt;Node14 -->
<g id="edge16" class="edge"><title>Node10&#45;&gt;Node14</title>
<path fill="none" stroke="midnightblue" d="M332.583,-244.969C319.589,-231.673 304.209,-215.935 292.33,-203.78"/>
<polygon fill="midnightblue" stroke="midnightblue" points="330.421,-247.764 339.914,-252.47 335.428,-242.872 330.421,-247.764"/>
</g>
<!-- Node11&#45;&gt;Node6 -->
<g id="edge11" class="edge"><title>Node11&#45;&gt;Node6</title>
<path fill="none" stroke="midnightblue" d="M355.092,-68.2965C353.908,-59.3009 352.639,-49.6532 351.567,-41.5056"/>
<polygon fill="midnightblue" stroke="midnightblue" points="351.65,-68.9702 356.425,-78.4281 358.59,-68.0569 351.65,-68.9702"/>
</g>
<!-- Node11&#45;&gt;Node8 -->
<g id="edge12" class="edge"><title>Node11&#45;&gt;Node8</title>
<path fill="none" stroke="midnightblue" d="M312.819,-73.6266C293.142,-63.2416 270.5,-51.2915 251.958,-41.5056"/>
<polygon fill="midnightblue" stroke="midnightblue" points="311.439,-76.8558 321.916,-78.4281 314.706,-70.6651 311.439,-76.8558"/>
</g>
<!-- Node12&#45;&gt;Node11 -->
<g id="edge14" class="edge"><title>Node12&#45;&gt;Node11</title>
<path fill="none" stroke="midnightblue" d="M450.118,-157.036C431.016,-145.079 408.465,-130.963 390.576,-119.765"/>
<polygon fill="midnightblue" stroke="midnightblue" points="448.289,-160.02 458.622,-162.359 452.003,-154.086 448.289,-160.02"/>
</g>
<!-- Node13 -->
<g id="node13" class="node"><title>Node13</title>
<g id="a_node13"><a xlink:href="arma__model_8cc.html" target="_top" xlink:title="/home/travis/build\l/igankevich/arma/src\l/generator/arma_model.cc">
<polygon fill="none" stroke="black" points="431,-78.5 431,-119.5 561,-119.5 561,-78.5 431,-78.5"/>
<text text-anchor="start" x="439" y="-107.5" font-family="Helvetica,sans-Serif" font-size="10.00">/home/travis/build</text>
<text text-anchor="start" x="439" y="-96.5" font-family="Helvetica,sans-Serif" font-size="10.00">/igankevich/arma/src</text>
<text text-anchor="middle" x="496" y="-85.5" font-family="Helvetica,sans-Serif" font-size="10.00">/generator/arma_model.cc</text>
</a>
</g>
</g>
<!-- Node12&#45;&gt;Node13 -->
<g id="edge15" class="edge"><title>Node12&#45;&gt;Node13</title>
<path fill="none" stroke="midnightblue" d="M492.204,-151.881C492.99,-141.133 493.855,-129.309 494.561,-119.667"/>
<polygon fill="midnightblue" stroke="midnightblue" points="488.692,-151.921 491.452,-162.15 495.673,-152.432 488.692,-151.921"/>
</g>
<!-- Node15&#45;&gt;Node11 -->
<g id="edge18" class="edge"><title>Node15&#45;&gt;Node11</title>
<path fill="none" stroke="midnightblue" d="M456.04,-246.34C442.221,-236.167 427.366,-223.638 416,-210 392.728,-182.076 375.341,-143.082 366.212,-119.803"/>
<polygon fill="midnightblue" stroke="midnightblue" points="454.298,-249.397 464.471,-252.358 458.365,-243.699 454.298,-249.397"/>
</g>
<!-- Node15&#45;&gt;Node12 -->
<g id="edge19" class="edge"><title>Node15&#45;&gt;Node12</title>
<path fill="none" stroke="midnightblue" d="M493.977,-242.33C493.111,-229.629 492.123,-215.14 491.349,-203.78"/>
<polygon fill="midnightblue" stroke="midnightblue" points="490.496,-242.731 494.668,-252.47 497.48,-242.255 490.496,-242.731"/>
</g>
<!-- Node16 -->
<g id="node16" class="node"><title>Node16</title>
<g id="a_node16"><a xlink:href="ma__model_8cc.html" target="_top" xlink:title="/home/travis/build\l/igankevich/arma/src\l/generator/ma_model.cc">
<polygon fill="none" stroke="black" points="573,-162.5 573,-203.5 695,-203.5 695,-162.5 573,-162.5"/>
<text text-anchor="start" x="581" y="-191.5" font-family="Helvetica,sans-Serif" font-size="10.00">/home/travis/build</text>
<text text-anchor="start" x="581" y="-180.5" font-family="Helvetica,sans-Serif" font-size="10.00">/igankevich/arma/src</text>
<text text-anchor="middle" x="634" y="-169.5" font-family="Helvetica,sans-Serif" font-size="10.00">/generator/ma_model.cc</text>
</a>
</g>
</g>
<!-- Node15&#45;&gt;Node16 -->
<g id="edge20" class="edge"><title>Node15&#45;&gt;Node16</title>
<path fill="none" stroke="midnightblue" d="M535.206,-246.999C556.688,-233.3 582.94,-216.56 602.982,-203.78"/>
<polygon fill="midnightblue" stroke="midnightblue" points="533.176,-244.142 526.627,-252.47 536.94,-250.044 533.176,-244.142"/>
</g>
<!-- Node20 -->
<g id="node20" class="node"><title>Node20</title>
<g id="a_node20"><a xlink:href="basic__arma__model__verify_8cc.html" target="_top" xlink:title="/home/travis/build\l/igankevich/arma/src\l/generator/basic_arma\l_model_verify.cc">
<polygon fill="none" stroke="black" points="688.5,-247 688.5,-299 801.5,-299 801.5,-247 688.5,-247"/>
<text text-anchor="start" x="696.5" y="-287" font-family="Helvetica,sans-Serif" font-size="10.00">/home/travis/build</text>
<text text-anchor="start" x="696.5" y="-276" font-family="Helvetica,sans-Serif" font-size="10.00">/igankevich/arma/src</text>
<text text-anchor="start" x="696.5" y="-265" font-family="Helvetica,sans-Serif" font-size="10.00">/generator/basic_arma</text>
<text text-anchor="middle" x="745" y="-254" font-family="Helvetica,sans-Serif" font-size="10.00">_model_verify.cc</text>
</a>
</g>
</g>
<!-- Node19&#45;&gt;Node20 -->
<g id="edge24" class="edge"><title>Node19&#45;&gt;Node20</title>
<path fill="none" stroke="midnightblue" d="M745,-325.938C745,-317.176 745,-307.695 745,-299.261"/>
<polygon fill="midnightblue" stroke="midnightblue" points="741.5,-326.15 745,-336.15 748.5,-326.15 741.5,-326.15"/>
</g>
<!-- Node21 -->
<g id="node21" class="node"><title>Node21</title>
<g id="a_node21"><a xlink:href="summary_8cc.html" target="_top" xlink:title="/home/travis/build\l/igankevich/arma/src\l/stats/summary.cc">
<polygon fill="none" stroke="black" points="819.5,-252.5 819.5,-293.5 926.5,-293.5 926.5,-252.5 819.5,-252.5"/>
<text text-anchor="start" x="827.5" y="-281.5" font-family="Helvetica,sans-Serif" font-size="10.00">/home/travis/build</text>
<text text-anchor="start" x="827.5" y="-270.5" font-family="Helvetica,sans-Serif" font-size="10.00">/igankevich/arma/src</text>
<text text-anchor="middle" x="873" y="-259.5" font-family="Helvetica,sans-Serif" font-size="10.00">/stats/summary.cc</text>
</a>
</g>
</g>
<!-- Node19&#45;&gt;Node21 -->
<g id="edge26" class="edge"><title>Node19&#45;&gt;Node21</title>
<path fill="none" stroke="midnightblue" d="M784.221,-330.874C802.831,-318.952 824.747,-304.912 842.147,-293.765"/>
<polygon fill="midnightblue" stroke="midnightblue" points="782.192,-328.018 775.659,-336.359 785.968,-333.912 782.192,-328.018"/>
</g>
<!-- Node20&#45;&gt;Node17 -->
<g id="edge25" class="edge"><title>Node20&#45;&gt;Node17</title>
<path fill="none" stroke="midnightblue" d="M755.004,-236.785C757.637,-227.517 760.424,-217.708 762.872,-209.092"/>
<polygon fill="midnightblue" stroke="midnightblue" points="751.597,-235.971 752.231,-246.547 758.331,-237.884 751.597,-235.971"/>
</g>
</g>
</svg>
