<?xml version="1.0" encoding="UTF-8" standalone="no"?>
<!DOCTYPE svg PUBLIC "-//W3C//DTD SVG 1.1//EN"
 "http://www.w3.org/Graphics/SVG/1.1/DTD/svg11.dtd">
<!-- Generated by graphviz version 2.36.0 (20140111.2315)
 -->
<!-- Title: /home/travis/build/igankevich/arma/src/stats/qq_graph.cc Pages: 1 -->
<svg width="302pt" height="230pt"
 viewBox="0.00 0.00 302.00 230.00" xmlns="http://www.w3.org/2000/svg" xmlns:xlink="http://www.w3.org/1999/xlink">
<g id="graph0" class="graph" transform="scale(1 1) rotate(0) translate(4 226)">
<title>/home/travis/build/igankevich/arma/src/stats/qq_graph.cc</title>
<!-- Node1 -->
<g id="node1" class="node"><title>Node1</title>
<polygon fill="#bfbfbf" stroke="black" points="53.5,-180.5 53.5,-221.5 160.5,-221.5 160.5,-180.5 53.5,-180.5"/>
<text text-anchor="start" x="61.5" y="-209.5" font-family="Helvetica,sans-Serif" font-size="10.00">/home/travis/build</text>
<text text-anchor="start" x="61.5" y="-198.5" font-family="Helvetica,sans-Serif" font-size="10.00">/igankevich/arma/src</text>
<text text-anchor="middle" x="107" y="-187.5" font-family="Helvetica,sans-Serif" font-size="10.00">/stats/qq_graph.cc</text>
</g>
<!-- Node2 -->
<g id="node2" class="node"><title>Node2</title>
<g id="a_node2"><a xlink:href="qq__graph_8hh.html" target="_top" xlink:title="qq_graph.hh">
<polygon fill="none" stroke="black" points="35,-124.5 35,-143.5 105,-143.5 105,-124.5 35,-124.5"/>
<text text-anchor="middle" x="70" y="-131.5" font-family="Helvetica,sans-Serif" font-size="10.00">qq_graph.hh</text>
</a>
</g>
</g>
<!-- Node1&#45;&gt;Node2 -->
<g id="edge1" class="edge"><title>Node1&#45;&gt;Node2</title>
<path fill="none" stroke="midnightblue" d="M95.8988,-180.498C90.826,-171.586 84.8646,-161.113 79.9408,-152.464"/>
<polygon fill="midnightblue" stroke="midnightblue" points="82.914,-150.612 74.9253,-143.652 76.8306,-154.075 82.914,-150.612"/>
</g>
<!-- Node8 -->
<g id="node8" class="node"><title>Node8</title>
<polygon fill="none" stroke="#bfbfbf" points="123,-124.5 123,-143.5 167,-143.5 167,-124.5 123,-124.5"/>
<text text-anchor="middle" x="145" y="-131.5" font-family="Helvetica,sans-Serif" font-size="10.00">cmath</text>
</g>
<!-- Node1&#45;&gt;Node8 -->
<g id="edge8" class="edge"><title>Node1&#45;&gt;Node8</title>
<path fill="none" stroke="midnightblue" d="M118.401,-180.498C123.611,-171.586 129.734,-161.113 134.791,-152.464"/>
<polygon fill="midnightblue" stroke="midnightblue" points="137.916,-154.052 139.942,-143.652 131.873,-150.519 137.916,-154.052"/>
</g>
<!-- Node3 -->
<g id="node3" class="node"><title>Node3</title>
<polygon fill="none" stroke="#bfbfbf" points="0,-6.5 0,-25.5 68,-25.5 68,-6.5 0,-6.5"/>
<text text-anchor="middle" x="34" y="-13.5" font-family="Helvetica,sans-Serif" font-size="10.00">blitz/array.h</text>
</g>
<!-- Node2&#45;&gt;Node3 -->
<g id="edge2" class="edge"><title>Node2&#45;&gt;Node3</title>
<path fill="none" stroke="midnightblue" d="M59.5615,-124.245C50.5764,-115.969 38.2541,-102.663 33,-88 26.9028,-70.9841 28.118,-50.1687 30.2694,-35.4882"/>
<polygon fill="midnightblue" stroke="midnightblue" points="33.7198,-36.0752 31.9915,-25.6223 26.824,-34.8715 33.7198,-36.0752"/>
</g>
<!-- Node4 -->
<g id="node4" class="node"><title>Node4</title>
<polygon fill="none" stroke="#bfbfbf" points="42,-68.5 42,-87.5 98,-87.5 98,-68.5 42,-68.5"/>
<text text-anchor="middle" x="70" y="-75.5" font-family="Helvetica,sans-Serif" font-size="10.00">algorithm</text>
</g>
<!-- Node2&#45;&gt;Node4 -->
<g id="edge3" class="edge"><title>Node2&#45;&gt;Node4</title>
<path fill="none" stroke="midnightblue" d="M70,-124.083C70,-117.006 70,-106.861 70,-97.9865"/>
<polygon fill="midnightblue" stroke="midnightblue" points="73.5001,-97.751 70,-87.7511 66.5001,-97.7511 73.5001,-97.751"/>
</g>
<!-- Node5 -->
<g id="node5" class="node"><title>Node5</title>
<g id="a_node5"><a xlink:href="statistics_8hh.html" target="_top" xlink:title="statistics.hh">
<polygon fill="none" stroke="black" points="116,-68.5 116,-87.5 186,-87.5 186,-68.5 116,-68.5"/>
<text text-anchor="middle" x="151" y="-75.5" font-family="Helvetica,sans-Serif" font-size="10.00">statistics.hh</text>
</a>
</g>
</g>
<!-- Node2&#45;&gt;Node5 -->
<g id="edge4" class="edge"><title>Node2&#45;&gt;Node5</title>
<path fill="none" stroke="midnightblue" d="M83.0141,-124.324C95.5316,-115.979 114.682,-103.212 129.471,-93.3524"/>
<polygon fill="midnightblue" stroke="midnightblue" points="131.639,-96.1137 138.018,-87.6545 127.756,-90.2894 131.639,-96.1137"/>
</g>
<!-- Node5&#45;&gt;Node3 -->
<g id="edge5" class="edge"><title>Node5&#45;&gt;Node3</title>
<path fill="none" stroke="midnightblue" d="M134.237,-68.4035C114.775,-58.4232 82.455,-41.8487 59.7893,-30.2253"/>
<polygon fill="midnightblue" stroke="midnightblue" points="61.2275,-27.0294 50.7322,-25.5806 58.0332,-33.2582 61.2275,-27.0294"/>
</g>
<!-- Node6 -->
<g id="node6" class="node"><title>Node6</title>
<polygon fill="none" stroke="#bfbfbf" points="96,-1 96,-31 186,-31 186,-1 96,-1"/>
<text text-anchor="start" x="104" y="-19" font-family="Helvetica,sans-Serif" font-size="10.00">gsl/gsl_statistics</text>
<text text-anchor="middle" x="141" y="-8" font-family="Helvetica,sans-Serif" font-size="10.00">_float.h</text>
</g>
<!-- Node5&#45;&gt;Node6 -->
<g id="edge6" class="edge"><title>Node5&#45;&gt;Node6</title>
<path fill="none" stroke="midnightblue" d="M149.567,-68.4035C148.377,-61.2646 146.625,-50.7517 145.015,-41.0903"/>
<polygon fill="midnightblue" stroke="midnightblue" points="148.453,-40.4293 143.357,-31.1408 141.548,-41.5802 148.453,-40.4293"/>
</g>
<!-- Node7 -->
<g id="node7" class="node"><title>Node7</title>
<polygon fill="none" stroke="#bfbfbf" points="204,-1 204,-31 294,-31 294,-1 204,-1"/>
<text text-anchor="start" x="212" y="-19" font-family="Helvetica,sans-Serif" font-size="10.00">gsl/gsl_statistics</text>
<text text-anchor="middle" x="249" y="-8" font-family="Helvetica,sans-Serif" font-size="10.00">_double.h</text>
</g>
<!-- Node5&#45;&gt;Node7 -->
<g id="edge7" class="edge"><title>Node5&#45;&gt;Node7</title>
<path fill="none" stroke="midnightblue" d="M165.041,-68.4035C178.562,-60.1254 199.493,-47.3106 217.073,-36.5474"/>
<polygon fill="midnightblue" stroke="midnightblue" points="219.202,-39.3474 225.903,-31.1408 215.547,-33.3774 219.202,-39.3474"/>
</g>
</g>
</svg>
