<?xml version="1.0" encoding="UTF-8" standalone="no"?>
<!DOCTYPE svg PUBLIC "-//W3C//DTD SVG 1.1//EN"
 "http://www.w3.org/Graphics/SVG/1.1/DTD/svg11.dtd">
<!-- Generated by graphviz version 2.36.0 (20140111.2315)
 -->
<!-- Title: /home/travis/build/igankevich/arma/src/nonlinear/series.hh Pages: 1 -->
<svg width="265pt" height="128pt"
 viewBox="0.00 0.00 265.00 128.00" xmlns="http://www.w3.org/2000/svg" xmlns:xlink="http://www.w3.org/1999/xlink">
<g id="graph0" class="graph" transform="scale(1 1) rotate(0) translate(4 124)">
<title>/home/travis/build/igankevich/arma/src/nonlinear/series.hh</title>
<!-- Node1 -->
<g id="node1" class="node"><title>Node1</title>
<polygon fill="#bfbfbf" stroke="black" points="81.5,-78.5 81.5,-119.5 188.5,-119.5 188.5,-78.5 81.5,-78.5"/>
<text text-anchor="start" x="89.5" y="-107.5" font-family="Helvetica,sans-Serif" font-size="10.00">/home/travis/build</text>
<text text-anchor="start" x="89.5" y="-96.5" font-family="Helvetica,sans-Serif" font-size="10.00">/igankevich/arma/src</text>
<text text-anchor="middle" x="135" y="-85.5" font-family="Helvetica,sans-Serif" font-size="10.00">/nonlinear/series.hh</text>
</g>
<!-- Node2 -->
<g id="node2" class="node"><title>Node2</title>
<g id="a_node2"><a xlink:href="nit__transform_8cc.html" target="_top" xlink:title="/home/travis/build\l/igankevich/arma/src\l/nonlinear/nit_transform.cc">
<polygon fill="none" stroke="black" points="0,-0.5 0,-41.5 132,-41.5 132,-0.5 0,-0.5"/>
<text text-anchor="start" x="8" y="-29.5" font-family="Helvetica,sans-Serif" font-size="10.00">/home/travis/build</text>
<text text-anchor="start" x="8" y="-18.5" font-family="Helvetica,sans-Serif" font-size="10.00">/igankevich/arma/src</text>
<text text-anchor="middle" x="66" y="-7.5" font-family="Helvetica,sans-Serif" font-size="10.00">/nonlinear/nit_transform.cc</text>
</a>
</g>
</g>
<!-- Node1&#45;&gt;Node2 -->
<g id="edge1" class="edge"><title>Node1&#45;&gt;Node2</title>
<path fill="none" stroke="midnightblue" d="M110.41,-70.9158C101.592,-61.2029 91.8298,-50.4502 83.709,-41.5056"/>
<polygon fill="midnightblue" stroke="midnightblue" points="107.918,-73.3769 117.231,-78.4281 113.1,-68.6716 107.918,-73.3769"/>
</g>
<!-- Node3 -->
<g id="node3" class="node"><title>Node3</title>
<g id="a_node3"><a xlink:href="series_8cc.html" target="_top" xlink:title="/home/travis/build\l/igankevich/arma/src\l/nonlinear/series.cc">
<polygon fill="none" stroke="black" points="150.5,-0.5 150.5,-41.5 257.5,-41.5 257.5,-0.5 150.5,-0.5"/>
<text text-anchor="start" x="158.5" y="-29.5" font-family="Helvetica,sans-Serif" font-size="10.00">/home/travis/build</text>
<text text-anchor="start" x="158.5" y="-18.5" font-family="Helvetica,sans-Serif" font-size="10.00">/igankevich/arma/src</text>
<text text-anchor="middle" x="204" y="-7.5" font-family="Helvetica,sans-Serif" font-size="10.00">/nonlinear/series.cc</text>
</a>
</g>
</g>
<!-- Node1&#45;&gt;Node3 -->
<g id="edge2" class="edge"><title>Node1&#45;&gt;Node3</title>
<path fill="none" stroke="midnightblue" d="M159.59,-70.9158C168.408,-61.2029 178.17,-50.4502 186.291,-41.5056"/>
<polygon fill="midnightblue" stroke="midnightblue" points="156.9,-68.6716 152.769,-78.4281 162.082,-73.3769 156.9,-68.6716"/>
</g>
</g>
</svg>
