<?xml version="1.0" encoding="UTF-8" standalone="no"?>
<!DOCTYPE svg PUBLIC "-//W3C//DTD SVG 1.1//EN"
 "http://www.w3.org/Graphics/SVG/1.1/DTD/svg11.dtd">
<!-- Generated by graphviz version 2.36.0 (20140111.2315)
 -->
<!-- Title: /home/travis/build/igankevich/arma/src/stats/skew_normal.hh Pages: 1 -->
<svg width="901pt" height="620pt"
 viewBox="0.00 0.00 901.00 620.00" xmlns="http://www.w3.org/2000/svg" xmlns:xlink="http://www.w3.org/1999/xlink">
<g id="graph0" class="graph" transform="scale(1 1) rotate(0) translate(4 616)">
<title>/home/travis/build/igankevich/arma/src/stats/skew_normal.hh</title>
<!-- Node1 -->
<g id="node1" class="node"><title>Node1</title>
<polygon fill="#bfbfbf" stroke="black" points="623,-570.5 623,-611.5 739,-611.5 739,-570.5 623,-570.5"/>
<text text-anchor="start" x="631" y="-599.5" font-family="Helvetica,sans-Serif" font-size="10.00">/home/travis/build</text>
<text text-anchor="start" x="631" y="-588.5" font-family="Helvetica,sans-Serif" font-size="10.00">/igankevich/arma/src</text>
<text text-anchor="middle" x="681" y="-577.5" font-family="Helvetica,sans-Serif" font-size="10.00">/stats/skew_normal.hh</text>
</g>
<!-- Node2 -->
<g id="node2" class="node"><title>Node2</title>
<g id="a_node2"><a xlink:href="distribution_8hh.html" target="_top" xlink:title="/home/travis/build\l/igankevich/arma/src\l/stats/distribution.hh">
<polygon fill="none" stroke="black" points="386.5,-492.5 386.5,-533.5 493.5,-533.5 493.5,-492.5 386.5,-492.5"/>
<text text-anchor="start" x="394.5" y="-521.5" font-family="Helvetica,sans-Serif" font-size="10.00">/home/travis/build</text>
<text text-anchor="start" x="394.5" y="-510.5" font-family="Helvetica,sans-Serif" font-size="10.00">/igankevich/arma/src</text>
<text text-anchor="middle" x="440" y="-499.5" font-family="Helvetica,sans-Serif" font-size="10.00">/stats/distribution.hh</text>
</a>
</g>
</g>
<!-- Node1&#45;&gt;Node2 -->
<g id="edge1" class="edge"><title>Node1&#45;&gt;Node2</title>
<path fill="none" stroke="midnightblue" d="M613.069,-568.578C575.327,-556.676 529.028,-542.075 493.817,-530.971"/>
<polygon fill="midnightblue" stroke="midnightblue" points="612.378,-572.03 622.968,-571.699 614.483,-565.354 612.378,-572.03"/>
</g>
<!-- Node23 -->
<g id="node23" class="node"><title>Node23</title>
<g id="a_node23"><a xlink:href="nit__transform_8hh.html" target="_top" xlink:title="/home/travis/build\l/igankevich/arma/src\l/nonlinear/nit_transform.hh">
<polygon fill="none" stroke="black" points="615,-492.5 615,-533.5 747,-533.5 747,-492.5 615,-492.5"/>
<text text-anchor="start" x="623" y="-521.5" font-family="Helvetica,sans-Serif" font-size="10.00">/home/travis/build</text>
<text text-anchor="start" x="623" y="-510.5" font-family="Helvetica,sans-Serif" font-size="10.00">/igankevich/arma/src</text>
<text text-anchor="middle" x="681" y="-499.5" font-family="Helvetica,sans-Serif" font-size="10.00">/nonlinear/nit_transform.hh</text>
</a>
</g>
</g>
<!-- Node1&#45;&gt;Node23 -->
<g id="edge29" class="edge"><title>Node1&#45;&gt;Node23</title>
<path fill="none" stroke="midnightblue" d="M681,-560.297C681,-551.301 681,-541.653 681,-533.506"/>
<polygon fill="midnightblue" stroke="midnightblue" points="677.5,-560.428 681,-570.428 684.5,-560.428 677.5,-560.428"/>
</g>
<!-- Node26 -->
<g id="node26" class="node"><title>Node26</title>
<g id="a_node26"><a xlink:href="skew__normal_8cc.html" target="_top" xlink:title="/home/travis/build\l/igankevich/arma/src\l/stats/skew_normal.cc">
<polygon fill="none" stroke="black" points="765,-492.5 765,-533.5 881,-533.5 881,-492.5 765,-492.5"/>
<text text-anchor="start" x="773" y="-521.5" font-family="Helvetica,sans-Serif" font-size="10.00">/home/travis/build</text>
<text text-anchor="start" x="773" y="-510.5" font-family="Helvetica,sans-Serif" font-size="10.00">/igankevich/arma/src</text>
<text text-anchor="middle" x="823" y="-499.5" font-family="Helvetica,sans-Serif" font-size="10.00">/stats/skew_normal.cc</text>
</a>
</g>
</g>
<!-- Node1&#45;&gt;Node26 -->
<g id="edge36" class="edge"><title>Node1&#45;&gt;Node26</title>
<path fill="none" stroke="midnightblue" d="M726.54,-565.627C745.943,-555.242 768.271,-543.292 786.555,-533.506"/>
<polygon fill="midnightblue" stroke="midnightblue" points="724.734,-562.623 717.569,-570.428 728.037,-568.795 724.734,-562.623"/>
</g>
<!-- Node3 -->
<g id="node3" class="node"><title>Node3</title>
<g id="a_node3"><a xlink:href="arma_8hh.html" target="_top" xlink:title="/home/travis/build\l/igankevich/arma/src\l/arma.hh">
<polygon fill="none" stroke="black" points="210.5,-408.5 210.5,-449.5 317.5,-449.5 317.5,-408.5 210.5,-408.5"/>
<text text-anchor="start" x="218.5" y="-437.5" font-family="Helvetica,sans-Serif" font-size="10.00">/home/travis/build</text>
<text text-anchor="start" x="218.5" y="-426.5" font-family="Helvetica,sans-Serif" font-size="10.00">/igankevich/arma/src</text>
<text text-anchor="middle" x="264" y="-415.5" font-family="Helvetica,sans-Serif" font-size="10.00">/arma.hh</text>
</a>
</g>
</g>
<!-- Node2&#45;&gt;Node3 -->
<g id="edge2" class="edge"><title>Node2&#45;&gt;Node3</title>
<path fill="none" stroke="midnightblue" d="M388.453,-487.984C362.261,-475.781 330.836,-461.14 306.117,-449.623"/>
<polygon fill="midnightblue" stroke="midnightblue" points="387.301,-491.308 397.844,-492.359 390.257,-484.963 387.301,-491.308"/>
</g>
<!-- Node21 -->
<g id="node21" class="node"><title>Node21</title>
<g id="a_node21"><a xlink:href="basic__arma__model__verify_8cc.html" target="_top" xlink:title="/home/travis/build\l/igankevich/arma/src\l/generator/basic_arma\l_model_verify.cc">
<polygon fill="none" stroke="black" points="591.5,-403 591.5,-455 704.5,-455 704.5,-403 591.5,-403"/>
<text text-anchor="start" x="599.5" y="-443" font-family="Helvetica,sans-Serif" font-size="10.00">/home/travis/build</text>
<text text-anchor="start" x="599.5" y="-432" font-family="Helvetica,sans-Serif" font-size="10.00">/igankevich/arma/src</text>
<text text-anchor="start" x="599.5" y="-421" font-family="Helvetica,sans-Serif" font-size="10.00">/generator/basic_arma</text>
<text text-anchor="middle" x="648" y="-410" font-family="Helvetica,sans-Serif" font-size="10.00">_model_verify.cc</text>
</a>
</g>
</g>
<!-- Node2&#45;&gt;Node21 -->
<g id="edge26" class="edge"><title>Node2&#45;&gt;Node21</title>
<path fill="none" stroke="midnightblue" d="M499.147,-488.682C528.127,-477.258 562.855,-463.567 591.475,-452.284"/>
<polygon fill="midnightblue" stroke="midnightblue" points="497.576,-485.539 489.557,-492.463 500.144,-492.052 497.576,-485.539"/>
</g>
<!-- Node22 -->
<g id="node22" class="node"><title>Node22</title>
<g id="a_node22"><a xlink:href="distribution_8cc.html" target="_top" xlink:title="/home/travis/build\l/igankevich/arma/src\l/stats/distribution.cc">
<polygon fill="none" stroke="black" points="335.5,-408.5 335.5,-449.5 442.5,-449.5 442.5,-408.5 335.5,-408.5"/>
<text text-anchor="start" x="343.5" y="-437.5" font-family="Helvetica,sans-Serif" font-size="10.00">/home/travis/build</text>
<text text-anchor="start" x="343.5" y="-426.5" font-family="Helvetica,sans-Serif" font-size="10.00">/igankevich/arma/src</text>
<text text-anchor="middle" x="389" y="-415.5" font-family="Helvetica,sans-Serif" font-size="10.00">/stats/distribution.cc</text>
</a>
</g>
</g>
<!-- Node2&#45;&gt;Node22 -->
<g id="edge28" class="edge"><title>Node2&#45;&gt;Node22</title>
<path fill="none" stroke="midnightblue" d="M422.306,-483.551C415.352,-472.37 407.541,-459.811 401.232,-449.667"/>
<polygon fill="midnightblue" stroke="midnightblue" points="419.401,-485.507 427.654,-492.15 425.345,-481.81 419.401,-485.507"/>
</g>
<!-- Node4 -->
<g id="node4" class="node"><title>Node4</title>
<g id="a_node4"><a xlink:href="arma_8cc.html" target="_top" xlink:title="/home/travis/build\l/igankevich/arma/src\l/arma.cc">
<polygon fill="none" stroke="black" points="194.5,-318.5 194.5,-359.5 301.5,-359.5 301.5,-318.5 194.5,-318.5"/>
<text text-anchor="start" x="202.5" y="-347.5" font-family="Helvetica,sans-Serif" font-size="10.00">/home/travis/build</text>
<text text-anchor="start" x="202.5" y="-336.5" font-family="Helvetica,sans-Serif" font-size="10.00">/igankevich/arma/src</text>
<text text-anchor="middle" x="248" y="-325.5" font-family="Helvetica,sans-Serif" font-size="10.00">/arma.cc</text>
</a>
</g>
</g>
<!-- Node3&#45;&gt;Node4 -->
<g id="edge3" class="edge"><title>Node3&#45;&gt;Node4</title>
<path fill="none" stroke="midnightblue" d="M258.605,-398.33C256.296,-385.629 253.662,-371.14 251.596,-359.78"/>
<polygon fill="midnightblue" stroke="midnightblue" points="255.217,-399.257 260.449,-408.47 262.104,-398.005 255.217,-399.257"/>
</g>
<!-- Node5 -->
<g id="node5" class="node"><title>Node5</title>
<g id="a_node5"><a xlink:href="arma__driver_8hh.html" target="_top" xlink:title="/home/travis/build\l/igankevich/arma/src\l/arma_driver.hh">
<polygon fill="none" stroke="black" points="112.5,-156.5 112.5,-197.5 219.5,-197.5 219.5,-156.5 112.5,-156.5"/>
<text text-anchor="start" x="120.5" y="-185.5" font-family="Helvetica,sans-Serif" font-size="10.00">/home/travis/build</text>
<text text-anchor="start" x="120.5" y="-174.5" font-family="Helvetica,sans-Serif" font-size="10.00">/igankevich/arma/src</text>
<text text-anchor="middle" x="166" y="-163.5" font-family="Helvetica,sans-Serif" font-size="10.00">/arma_driver.hh</text>
</a>
</g>
</g>
<!-- Node3&#45;&gt;Node5 -->
<g id="edge4" class="edge"><title>Node3&#45;&gt;Node5</title>
<path fill="none" stroke="midnightblue" d="M218.763,-402.292C205.742,-392.619 192.929,-380.41 185,-366 154.792,-311.105 159.084,-233.472 163.21,-197.588"/>
<polygon fill="midnightblue" stroke="midnightblue" points="217.103,-405.403 227.3,-408.28 221.123,-399.672 217.103,-405.403"/>
</g>
<!-- Node12 -->
<g id="node12" class="node"><title>Node12</title>
<g id="a_node12"><a xlink:href="ar__model_8hh.html" target="_top" xlink:title="/home/travis/build\l/igankevich/arma/src\l/generator/ar_model.hh">
<polygon fill="none" stroke="black" points="320,-318.5 320,-359.5 436,-359.5 436,-318.5 320,-318.5"/>
<text text-anchor="start" x="328" y="-347.5" font-family="Helvetica,sans-Serif" font-size="10.00">/home/travis/build</text>
<text text-anchor="start" x="328" y="-336.5" font-family="Helvetica,sans-Serif" font-size="10.00">/igankevich/arma/src</text>
<text text-anchor="middle" x="378" y="-325.5" font-family="Helvetica,sans-Serif" font-size="10.00">/generator/ar_model.hh</text>
</a>
</g>
</g>
<!-- Node3&#45;&gt;Node12 -->
<g id="edge11" class="edge"><title>Node3&#45;&gt;Node12</title>
<path fill="none" stroke="midnightblue" d="M297.576,-402.081C315.095,-388.558 336.188,-372.276 352.376,-359.78"/>
<polygon fill="midnightblue" stroke="midnightblue" points="295.078,-399.589 289.3,-408.47 299.355,-405.13 295.078,-399.589"/>
</g>
<!-- Node18 -->
<g id="node18" class="node"><title>Node18</title>
<g id="a_node18"><a xlink:href="ma__model_8hh.html" target="_top" xlink:title="/home/travis/build\l/igankevich/arma/src\l/generator/ma_model.hh">
<polygon fill="none" stroke="black" points="454,-318.5 454,-359.5 576,-359.5 576,-318.5 454,-318.5"/>
<text text-anchor="start" x="462" y="-347.5" font-family="Helvetica,sans-Serif" font-size="10.00">/home/travis/build</text>
<text text-anchor="start" x="462" y="-336.5" font-family="Helvetica,sans-Serif" font-size="10.00">/igankevich/arma/src</text>
<text text-anchor="middle" x="515" y="-325.5" font-family="Helvetica,sans-Serif" font-size="10.00">/generator/ma_model.hh</text>
</a>
</g>
</g>
<!-- Node3&#45;&gt;Node18 -->
<g id="edge21" class="edge"><title>Node3&#45;&gt;Node18</title>
<path fill="none" stroke="midnightblue" d="M318.694,-404.713C321.155,-403.776 323.599,-402.867 326,-402 377.57,-383.374 392.015,-383.434 444,-366 449.974,-363.997 456.204,-361.83 462.383,-359.633"/>
<polygon fill="midnightblue" stroke="midnightblue" points="317.204,-401.538 309.166,-408.439 319.754,-408.057 317.204,-401.538"/>
</g>
<!-- Node20 -->
<g id="node20" class="node"><title>Node20</title>
<g id="a_node20"><a xlink:href="basic__arma__model_8cc.html" target="_top" xlink:title="/home/travis/build\l/igankevich/arma/src\l/generator/basic_arma\l_model.cc">
<polygon fill="none" stroke="black" points="594.5,-313 594.5,-365 707.5,-365 707.5,-313 594.5,-313"/>
<text text-anchor="start" x="602.5" y="-353" font-family="Helvetica,sans-Serif" font-size="10.00">/home/travis/build</text>
<text text-anchor="start" x="602.5" y="-342" font-family="Helvetica,sans-Serif" font-size="10.00">/igankevich/arma/src</text>
<text text-anchor="start" x="602.5" y="-331" font-family="Helvetica,sans-Serif" font-size="10.00">/generator/basic_arma</text>
<text text-anchor="middle" x="651" y="-320" font-family="Helvetica,sans-Serif" font-size="10.00">_model.cc</text>
</a>
</g>
</g>
<!-- Node3&#45;&gt;Node20 -->
<g id="edge25" class="edge"><title>Node3&#45;&gt;Node20</title>
<path fill="none" stroke="midnightblue" d="M315.959,-405.082C319.326,-403.949 322.692,-402.907 326,-402 438.082,-371.27 472.59,-395.506 585,-366 588.097,-365.187 591.246,-364.271 594.404,-363.281"/>
<polygon fill="midnightblue" stroke="midnightblue" points="314.739,-401.801 306.516,-408.482 317.111,-408.387 314.739,-401.801"/>
</g>
<!-- Node6 -->
<g id="node6" class="node"><title>Node6</title>
<g id="a_node6"><a xlink:href="arma__driver_8cc.html" target="_top" xlink:title="/home/travis/build\l/igankevich/arma/src\l/arma_driver.cc">
<polygon fill="none" stroke="black" points="180.5,-78.5 180.5,-119.5 287.5,-119.5 287.5,-78.5 180.5,-78.5"/>
<text text-anchor="start" x="188.5" y="-107.5" font-family="Helvetica,sans-Serif" font-size="10.00">/home/travis/build</text>
<text text-anchor="start" x="188.5" y="-96.5" font-family="Helvetica,sans-Serif" font-size="10.00">/igankevich/arma/src</text>
<text text-anchor="middle" x="234" y="-85.5" font-family="Helvetica,sans-Serif" font-size="10.00">/arma_driver.cc</text>
</a>
</g>
</g>
<!-- Node5&#45;&gt;Node6 -->
<g id="edge5" class="edge"><title>Node5&#45;&gt;Node6</title>
<path fill="none" stroke="midnightblue" d="M190.233,-148.916C198.924,-139.203 208.545,-128.45 216.548,-119.506"/>
<polygon fill="midnightblue" stroke="midnightblue" points="187.571,-146.642 183.512,-156.428 192.788,-151.309 187.571,-146.642"/>
</g>
<!-- Node7 -->
<g id="node7" class="node"><title>Node7</title>
<g id="a_node7"><a xlink:href="arma__main_8cc.html" target="_top" xlink:title="/home/travis/build\l/igankevich/arma/src\l/arma_main.cc">
<polygon fill="none" stroke="black" points="389.5,-0.5 389.5,-41.5 496.5,-41.5 496.5,-0.5 389.5,-0.5"/>
<text text-anchor="start" x="397.5" y="-29.5" font-family="Helvetica,sans-Serif" font-size="10.00">/home/travis/build</text>
<text text-anchor="start" x="397.5" y="-18.5" font-family="Helvetica,sans-Serif" font-size="10.00">/igankevich/arma/src</text>
<text text-anchor="middle" x="443" y="-7.5" font-family="Helvetica,sans-Serif" font-size="10.00">/arma_main.cc</text>
</a>
</g>
</g>
<!-- Node5&#45;&gt;Node7 -->
<g id="edge6" class="edge"><title>Node5&#45;&gt;Node7</title>
<path fill="none" stroke="midnightblue" d="M158.763,-146.224C155.43,-124.761 155.17,-96.4405 171,-78 172.793,-75.9108 310.639,-48.2665 389.377,-32.6176"/>
<polygon fill="midnightblue" stroke="midnightblue" points="155.335,-146.935 160.589,-156.136 162.22,-145.667 155.335,-146.935"/>
</g>
<!-- Node8 -->
<g id="node8" class="node"><title>Node8</title>
<g id="a_node8"><a xlink:href="arma__realtime__driver_8hh.html" target="_top" xlink:title="/home/travis/build\l/igankevich/arma/src\l/arma_realtime_driver.hh">
<polygon fill="none" stroke="black" points="0,-78.5 0,-119.5 124,-119.5 124,-78.5 0,-78.5"/>
<text text-anchor="start" x="8" y="-107.5" font-family="Helvetica,sans-Serif" font-size="10.00">/home/travis/build</text>
<text text-anchor="start" x="8" y="-96.5" font-family="Helvetica,sans-Serif" font-size="10.00">/igankevich/arma/src</text>
<text text-anchor="middle" x="62" y="-85.5" font-family="Helvetica,sans-Serif" font-size="10.00">/arma_realtime_driver.hh</text>
</a>
</g>
</g>
<!-- Node5&#45;&gt;Node8 -->
<g id="edge7" class="edge"><title>Node5&#45;&gt;Node8</title>
<path fill="none" stroke="midnightblue" d="M130.9,-150.35C117.109,-140.272 101.538,-128.893 88.6918,-119.506"/>
<polygon fill="midnightblue" stroke="midnightblue" points="129.078,-153.354 139.217,-156.428 133.209,-147.702 129.078,-153.354"/>
</g>
<!-- Node11 -->
<g id="node11" class="node"><title>Node11</title>
<g id="a_node11"><a xlink:href="visual_8cc.html" target="_top" xlink:title="/home/travis/build\l/igankevich/arma/src\l/visual.cc">
<polygon fill="none" stroke="black" points="305.5,-78.5 305.5,-119.5 412.5,-119.5 412.5,-78.5 305.5,-78.5"/>
<text text-anchor="start" x="313.5" y="-107.5" font-family="Helvetica,sans-Serif" font-size="10.00">/home/travis/build</text>
<text text-anchor="start" x="313.5" y="-96.5" font-family="Helvetica,sans-Serif" font-size="10.00">/igankevich/arma/src</text>
<text text-anchor="middle" x="359" y="-85.5" font-family="Helvetica,sans-Serif" font-size="10.00">/visual.cc</text>
</a>
</g>
</g>
<!-- Node5&#45;&gt;Node11 -->
<g id="edge10" class="edge"><title>Node5&#45;&gt;Node11</title>
<path fill="none" stroke="midnightblue" d="M225.048,-152.748C252.064,-142.11 283.715,-129.646 309.466,-119.506"/>
<polygon fill="midnightblue" stroke="midnightblue" points="223.724,-149.507 215.702,-156.428 226.289,-156.021 223.724,-149.507"/>
</g>
<!-- Node9 -->
<g id="node9" class="node"><title>Node9</title>
<g id="a_node9"><a xlink:href="arma__realtime_8cc.html" target="_top" xlink:title="/home/travis/build\l/igankevich/arma/src\l/arma_realtime.cc">
<polygon fill="none" stroke="black" points="223.5,-0.5 223.5,-41.5 330.5,-41.5 330.5,-0.5 223.5,-0.5"/>
<text text-anchor="start" x="231.5" y="-29.5" font-family="Helvetica,sans-Serif" font-size="10.00">/home/travis/build</text>
<text text-anchor="start" x="231.5" y="-18.5" font-family="Helvetica,sans-Serif" font-size="10.00">/igankevich/arma/src</text>
<text text-anchor="middle" x="277" y="-7.5" font-family="Helvetica,sans-Serif" font-size="10.00">/arma_realtime.cc</text>
</a>
</g>
</g>
<!-- Node8&#45;&gt;Node9 -->
<g id="edge8" class="edge"><title>Node8&#45;&gt;Node9</title>
<path fill="none" stroke="midnightblue" d="M127.143,-74.9725C157.898,-64.1013 194.157,-51.284 223.305,-40.9804"/>
<polygon fill="midnightblue" stroke="midnightblue" points="125.63,-71.7954 117.368,-78.4281 127.963,-78.3952 125.63,-71.7954"/>
</g>
<!-- Node10 -->
<g id="node10" class="node"><title>Node10</title>
<g id="a_node10"><a xlink:href="arma__realtime__driver_8cc.html" target="_top" xlink:title="/home/travis/build\l/igankevich/arma/src\l/arma_realtime_driver.cc">
<polygon fill="none" stroke="black" points="0,-0.5 0,-41.5 124,-41.5 124,-0.5 0,-0.5"/>
<text text-anchor="start" x="8" y="-29.5" font-family="Helvetica,sans-Serif" font-size="10.00">/home/travis/build</text>
<text text-anchor="start" x="8" y="-18.5" font-family="Helvetica,sans-Serif" font-size="10.00">/igankevich/arma/src</text>
<text text-anchor="middle" x="62" y="-7.5" font-family="Helvetica,sans-Serif" font-size="10.00">/arma_realtime_driver.cc</text>
</a>
</g>
</g>
<!-- Node8&#45;&gt;Node10 -->
<g id="edge9" class="edge"><title>Node8&#45;&gt;Node10</title>
<path fill="none" stroke="midnightblue" d="M62,-68.2965C62,-59.3009 62,-49.6532 62,-41.5056"/>
<polygon fill="midnightblue" stroke="midnightblue" points="58.5001,-68.4281 62,-78.4281 65.5001,-68.4281 58.5001,-68.4281"/>
</g>
<!-- Node13 -->
<g id="node13" class="node"><title>Node13</title>
<g id="a_node13"><a xlink:href="register__all_8hh.html" target="_top" xlink:title="/home/travis/build\l/igankevich/arma/src\l/register_all.hh">
<polygon fill="none" stroke="black" points="415.5,-156.5 415.5,-197.5 522.5,-197.5 522.5,-156.5 415.5,-156.5"/>
<text text-anchor="start" x="423.5" y="-185.5" font-family="Helvetica,sans-Serif" font-size="10.00">/home/travis/build</text>
<text text-anchor="start" x="423.5" y="-174.5" font-family="Helvetica,sans-Serif" font-size="10.00">/igankevich/arma/src</text>
<text text-anchor="middle" x="469" y="-163.5" font-family="Helvetica,sans-Serif" font-size="10.00">/register_all.hh</text>
</a>
</g>
</g>
<!-- Node12&#45;&gt;Node13 -->
<g id="edge12" class="edge"><title>Node12&#45;&gt;Node13</title>
<path fill="none" stroke="midnightblue" d="M363.498,-309.299C354.551,-287.22 347.175,-256.742 361,-234 367.967,-222.54 394.601,-208.668 419.674,-197.598"/>
<polygon fill="midnightblue" stroke="midnightblue" points="360.304,-310.73 367.51,-318.497 366.72,-307.931 360.304,-310.73"/>
</g>
<!-- Node15 -->
<g id="node15" class="node"><title>Node15</title>
<g id="a_node15"><a xlink:href="arma__model_8hh.html" target="_top" xlink:title="/home/travis/build\l/igankevich/arma/src\l/generator/arma_model.hh">
<polygon fill="none" stroke="black" points="370,-234.5 370,-275.5 500,-275.5 500,-234.5 370,-234.5"/>
<text text-anchor="start" x="378" y="-263.5" font-family="Helvetica,sans-Serif" font-size="10.00">/home/travis/build</text>
<text text-anchor="start" x="378" y="-252.5" font-family="Helvetica,sans-Serif" font-size="10.00">/igankevich/arma/src</text>
<text text-anchor="middle" x="435" y="-241.5" font-family="Helvetica,sans-Serif" font-size="10.00">/generator/arma_model.hh</text>
</a>
</g>
</g>
<!-- Node12&#45;&gt;Node15 -->
<g id="edge17" class="edge"><title>Node12&#45;&gt;Node15</title>
<path fill="none" stroke="midnightblue" d="M397.545,-309.883C405.374,-298.619 414.208,-285.912 421.329,-275.667"/>
<polygon fill="midnightblue" stroke="midnightblue" points="394.632,-307.941 391.798,-318.15 400.38,-311.937 394.632,-307.941"/>
</g>
<!-- Node17 -->
<g id="node17" class="node"><title>Node17</title>
<g id="a_node17"><a xlink:href="ar__model_8cc.html" target="_top" xlink:title="/home/travis/build\l/igankevich/arma/src\l/generator/ar_model.cc">
<polygon fill="none" stroke="black" points="198,-234.5 198,-275.5 314,-275.5 314,-234.5 198,-234.5"/>
<text text-anchor="start" x="206" y="-263.5" font-family="Helvetica,sans-Serif" font-size="10.00">/home/travis/build</text>
<text text-anchor="start" x="206" y="-252.5" font-family="Helvetica,sans-Serif" font-size="10.00">/igankevich/arma/src</text>
<text text-anchor="middle" x="256" y="-241.5" font-family="Helvetica,sans-Serif" font-size="10.00">/generator/ar_model.cc</text>
</a>
</g>
</g>
<!-- Node12&#45;&gt;Node17 -->
<g id="edge20" class="edge"><title>Node12&#45;&gt;Node17</title>
<path fill="none" stroke="midnightblue" d="M340.376,-312.712C322.691,-300.825 301.916,-286.862 285.406,-275.765"/>
<polygon fill="midnightblue" stroke="midnightblue" points="338.526,-315.685 348.778,-318.359 342.431,-309.876 338.526,-315.685"/>
</g>
<!-- Node13&#45;&gt;Node11 -->
<g id="edge16" class="edge"><title>Node13&#45;&gt;Node11</title>
<path fill="none" stroke="midnightblue" d="M432.288,-150.635C417.599,-140.487 400.947,-128.982 387.232,-119.506"/>
<polygon fill="midnightblue" stroke="midnightblue" points="430.455,-153.623 440.672,-156.428 434.434,-147.864 430.455,-153.623"/>
</g>
<!-- Node14 -->
<g id="node14" class="node"><title>Node14</title>
<g id="a_node14"><a xlink:href="common__main_8hh.html" target="_top" xlink:title="/home/travis/build\l/igankevich/arma/src\l/common_main.hh">
<polygon fill="none" stroke="black" points="430.5,-78.5 430.5,-119.5 537.5,-119.5 537.5,-78.5 430.5,-78.5"/>
<text text-anchor="start" x="438.5" y="-107.5" font-family="Helvetica,sans-Serif" font-size="10.00">/home/travis/build</text>
<text text-anchor="start" x="438.5" y="-96.5" font-family="Helvetica,sans-Serif" font-size="10.00">/igankevich/arma/src</text>
<text text-anchor="middle" x="484" y="-85.5" font-family="Helvetica,sans-Serif" font-size="10.00">/common_main.hh</text>
</a>
</g>
</g>
<!-- Node13&#45;&gt;Node14 -->
<g id="edge13" class="edge"><title>Node13&#45;&gt;Node14</title>
<path fill="none" stroke="midnightblue" d="M474.805,-146.59C476.597,-137.511 478.525,-127.742 480.15,-119.506"/>
<polygon fill="midnightblue" stroke="midnightblue" points="471.366,-145.94 472.863,-156.428 478.233,-147.295 471.366,-145.94"/>
</g>
<!-- Node14&#45;&gt;Node7 -->
<g id="edge14" class="edge"><title>Node14&#45;&gt;Node7</title>
<path fill="none" stroke="midnightblue" d="M468.607,-69.466C463.577,-60.1427 458.109,-50.0074 453.523,-41.5056"/>
<polygon fill="midnightblue" stroke="midnightblue" points="465.613,-71.2889 473.441,-78.4281 471.774,-67.9653 465.613,-71.2889"/>
</g>
<!-- Node14&#45;&gt;Node9 -->
<g id="edge15" class="edge"><title>Node14&#45;&gt;Node9</title>
<path fill="none" stroke="midnightblue" d="M421.048,-74.8874C391.99,-64.2185 357.866,-51.6901 330.127,-41.5056"/>
<polygon fill="midnightblue" stroke="midnightblue" points="420.099,-78.2671 430.692,-78.4281 422.511,-71.6959 420.099,-78.2671"/>
</g>
<!-- Node15&#45;&gt;Node13 -->
<g id="edge18" class="edge"><title>Node15&#45;&gt;Node13</title>
<path fill="none" stroke="midnightblue" d="M447.896,-225.174C452.031,-215.932 456.51,-205.919 460.274,-197.506"/>
<polygon fill="midnightblue" stroke="midnightblue" points="444.645,-223.871 443.756,-234.428 451.034,-226.729 444.645,-223.871"/>
</g>
<!-- Node16 -->
<g id="node16" class="node"><title>Node16</title>
<g id="a_node16"><a xlink:href="arma__model_8cc.html" target="_top" xlink:title="/home/travis/build\l/igankevich/arma/src\l/generator/arma_model.cc">
<polygon fill="none" stroke="black" points="267,-156.5 267,-197.5 397,-197.5 397,-156.5 267,-156.5"/>
<text text-anchor="start" x="275" y="-185.5" font-family="Helvetica,sans-Serif" font-size="10.00">/home/travis/build</text>
<text text-anchor="start" x="275" y="-174.5" font-family="Helvetica,sans-Serif" font-size="10.00">/igankevich/arma/src</text>
<text text-anchor="middle" x="332" y="-163.5" font-family="Helvetica,sans-Serif" font-size="10.00">/generator/arma_model.cc</text>
</a>
</g>
</g>
<!-- Node15&#45;&gt;Node16 -->
<g id="edge19" class="edge"><title>Node15&#45;&gt;Node16</title>
<path fill="none" stroke="midnightblue" d="M400.238,-228.35C386.579,-218.272 371.158,-206.893 358.435,-197.506"/>
<polygon fill="midnightblue" stroke="midnightblue" points="398.35,-231.307 408.475,-234.428 402.506,-225.674 398.35,-231.307"/>
</g>
<!-- Node18&#45;&gt;Node13 -->
<g id="edge22" class="edge"><title>Node18&#45;&gt;Node13</title>
<path fill="none" stroke="midnightblue" d="M517.601,-308.135C518.428,-286.867 517.436,-257.93 509,-234 504.313,-220.704 495.448,-207.767 487.253,-197.683"/>
<polygon fill="midnightblue" stroke="midnightblue" points="514.102,-308.022 517.053,-318.197 521.092,-308.402 514.102,-308.022"/>
</g>
<!-- Node18&#45;&gt;Node15 -->
<g id="edge23" class="edge"><title>Node18&#45;&gt;Node15</title>
<path fill="none" stroke="midnightblue" d="M488.535,-310.873C477.311,-299.369 464.476,-286.213 454.187,-275.667"/>
<polygon fill="midnightblue" stroke="midnightblue" points="486.146,-313.436 495.634,-318.15 491.156,-308.548 486.146,-313.436"/>
</g>
<!-- Node19 -->
<g id="node19" class="node"><title>Node19</title>
<g id="a_node19"><a xlink:href="ma__model_8cc.html" target="_top" xlink:title="/home/travis/build\l/igankevich/arma/src\l/generator/ma_model.cc">
<polygon fill="none" stroke="black" points="556,-234.5 556,-275.5 678,-275.5 678,-234.5 556,-234.5"/>
<text text-anchor="start" x="564" y="-263.5" font-family="Helvetica,sans-Serif" font-size="10.00">/home/travis/build</text>
<text text-anchor="start" x="564" y="-252.5" font-family="Helvetica,sans-Serif" font-size="10.00">/igankevich/arma/src</text>
<text text-anchor="middle" x="617" y="-241.5" font-family="Helvetica,sans-Serif" font-size="10.00">/generator/ma_model.cc</text>
</a>
</g>
</g>
<!-- Node18&#45;&gt;Node19 -->
<g id="edge24" class="edge"><title>Node18&#45;&gt;Node19</title>
<path fill="none" stroke="midnightblue" d="M547.265,-312.062C561.873,-300.318 578.862,-286.66 592.414,-275.765"/>
<polygon fill="midnightblue" stroke="midnightblue" points="545.032,-309.366 539.432,-318.359 549.418,-314.821 545.032,-309.366"/>
</g>
<!-- Node21&#45;&gt;Node20 -->
<g id="edge27" class="edge"><title>Node21&#45;&gt;Node20</title>
<path fill="none" stroke="midnightblue" d="M649.211,-392.489C649.524,-383.309 649.854,-373.616 650.145,-365.092"/>
<polygon fill="midnightblue" stroke="midnightblue" points="645.711,-392.433 648.868,-402.547 652.706,-392.672 645.711,-392.433"/>
</g>
<!-- Node23&#45;&gt;Node20 -->
<g id="edge34" class="edge"><title>Node23&#45;&gt;Node20</title>
<path fill="none" stroke="midnightblue" d="M700.967,-483.643C705.886,-475.144 710.467,-465.537 713,-456 719.16,-432.804 722.184,-424.173 713,-402 707.116,-387.796 696.225,-375.149 685.192,-365.042"/>
<polygon fill="midnightblue" stroke="midnightblue" points="697.852,-482.026 695.578,-492.374 703.809,-485.703 697.852,-482.026"/>
</g>
<!-- Node24 -->
<g id="node24" class="node"><title>Node24</title>
<g id="a_node24"><a xlink:href="basic__arma__model_8hh.html" target="_top" xlink:title="/home/travis/build\l/igankevich/arma/src\l/generator/basic_arma\l_model.hh">
<polygon fill="none" stroke="black" points="460.5,-403 460.5,-455 573.5,-455 573.5,-403 460.5,-403"/>
<text text-anchor="start" x="468.5" y="-443" font-family="Helvetica,sans-Serif" font-size="10.00">/home/travis/build</text>
<text text-anchor="start" x="468.5" y="-432" font-family="Helvetica,sans-Serif" font-size="10.00">/igankevich/arma/src</text>
<text text-anchor="start" x="468.5" y="-421" font-family="Helvetica,sans-Serif" font-size="10.00">/generator/basic_arma</text>
<text text-anchor="middle" x="517" y="-410" font-family="Helvetica,sans-Serif" font-size="10.00">_model.hh</text>
</a>
</g>
</g>
<!-- Node23&#45;&gt;Node24 -->
<g id="edge30" class="edge"><title>Node23&#45;&gt;Node24</title>
<path fill="none" stroke="midnightblue" d="M632.52,-487.76C611.927,-477.464 587.928,-465.464 567.156,-455.078"/>
<polygon fill="midnightblue" stroke="midnightblue" points="631.208,-491.017 641.718,-492.359 634.339,-484.756 631.208,-491.017"/>
</g>
<!-- Node25 -->
<g id="node25" class="node"><title>Node25</title>
<g id="a_node25"><a xlink:href="nit__transform_8cc.html" target="_top" xlink:title="/home/travis/build\l/igankevich/arma/src\l/nonlinear/nit_transform.cc">
<polygon fill="none" stroke="black" points="761,-408.5 761,-449.5 893,-449.5 893,-408.5 761,-408.5"/>
<text text-anchor="start" x="769" y="-437.5" font-family="Helvetica,sans-Serif" font-size="10.00">/home/travis/build</text>
<text text-anchor="start" x="769" y="-426.5" font-family="Helvetica,sans-Serif" font-size="10.00">/igankevich/arma/src</text>
<text text-anchor="middle" x="827" y="-415.5" font-family="Helvetica,sans-Serif" font-size="10.00">/nonlinear/nit_transform.cc</text>
</a>
</g>
</g>
<!-- Node23&#45;&gt;Node25 -->
<g id="edge35" class="edge"><title>Node23&#45;&gt;Node25</title>
<path fill="none" stroke="midnightblue" d="M724.908,-487.339C746.401,-475.268 771.916,-460.938 792.062,-449.623"/>
<polygon fill="midnightblue" stroke="midnightblue" points="722.976,-484.41 715.971,-492.359 726.404,-490.514 722.976,-484.41"/>
</g>
<!-- Node24&#45;&gt;Node12 -->
<g id="edge31" class="edge"><title>Node24&#45;&gt;Node12</title>
<path fill="none" stroke="midnightblue" d="M468.579,-397.345C448.808,-384.828 426.522,-370.719 409.004,-359.628"/>
<polygon fill="midnightblue" stroke="midnightblue" points="466.847,-400.391 477.168,-402.783 470.591,-394.476 466.847,-400.391"/>
</g>
<!-- Node24&#45;&gt;Node18 -->
<g id="edge32" class="edge"><title>Node24&#45;&gt;Node18</title>
<path fill="none" stroke="midnightblue" d="M516.194,-392.515C515.938,-381.257 515.664,-369.227 515.444,-359.525"/>
<polygon fill="midnightblue" stroke="midnightblue" points="512.695,-392.629 516.422,-402.547 519.693,-392.47 512.695,-392.629"/>
</g>
<!-- Node24&#45;&gt;Node20 -->
<g id="edge33" class="edge"><title>Node24&#45;&gt;Node20</title>
<path fill="none" stroke="midnightblue" d="M564.031,-397.114C579.919,-386.68 597.456,-375.163 612.595,-365.221"/>
<polygon fill="midnightblue" stroke="midnightblue" points="561.836,-394.368 555.399,-402.783 565.679,-400.219 561.836,-394.368"/>
</g>
</g>
</svg>
