<?xml version="1.0" encoding="UTF-8" standalone="no"?>
<!DOCTYPE svg PUBLIC "-//W3C//DTD SVG 1.1//EN"
 "http://www.w3.org/Graphics/SVG/1.1/DTD/svg11.dtd">
<!-- Generated by graphviz version 2.40.1 (20161225.0304)
 -->
<!-- Title: src/stats/skew_normal.hh Pages: 1 -->
<svg width="300pt" height="140pt"
 viewBox="0.00 0.00 300.00 140.00" xmlns="http://www.w3.org/2000/svg" xmlns:xlink="http://www.w3.org/1999/xlink">
<g id="graph0" class="graph" transform="scale(1 1) rotate(0) translate(4 136)">
<title>src/stats/skew_normal.hh</title>
<!-- Node0 -->
<g id="node1" class="node">
<title>Node0</title>
<polygon fill="#bfbfbf" stroke="#000000" points="70,-112.5 70,-131.5 199,-131.5 199,-112.5 70,-112.5"/>
<text text-anchor="middle" x="134.5" y="-119.5" font-family="Helvetica,sans-Serif" font-size="10.00" fill="#000000">src/stats/skew_normal.hh</text>
</g>
<!-- Node1 -->
<g id="node2" class="node">
<title>Node1</title>
<polygon fill="none" stroke="#bfbfbf" points="0,-.5 0,-19.5 49,-19.5 49,-.5 0,-.5"/>
<text text-anchor="middle" x="24.5" y="-7.5" font-family="Helvetica,sans-Serif" font-size="10.00" fill="#000000">istream</text>
</g>
<!-- Node0&#45;&gt;Node1 -->
<g id="edge1" class="edge">
<title>Node0&#45;&gt;Node1</title>
<path fill="none" stroke="#191970" d="M112.6419,-112.496C96.4073,-104.5829 74.5592,-92.0322 59.5,-76 46.9047,-62.5909 37.5219,-43.7791 31.6584,-29.6682"/>
<polygon fill="#191970" stroke="#191970" points="34.765,-28.0016 27.8657,-19.9611 28.245,-30.5492 34.765,-28.0016"/>
</g>
<!-- Node2 -->
<g id="node3" class="node">
<title>Node2</title>
<polygon fill="none" stroke="#bfbfbf" points="157.5,-.5 157.5,-19.5 209.5,-19.5 209.5,-.5 157.5,-.5"/>
<text text-anchor="middle" x="183.5" y="-7.5" font-family="Helvetica,sans-Serif" font-size="10.00" fill="#000000">ostream</text>
</g>
<!-- Node0&#45;&gt;Node2 -->
<g id="edge2" class="edge">
<title>Node0&#45;&gt;Node2</title>
<path fill="none" stroke="#191970" d="M138.6777,-112.4509C146.778,-93.936 164.7492,-52.8591 175.3106,-28.7187"/>
<polygon fill="#191970" stroke="#191970" points="178.5312,-30.0894 179.3329,-19.5249 172.1181,-27.2836 178.5312,-30.0894"/>
</g>
<!-- Node3 -->
<g id="node4" class="node">
<title>Node3</title>
<g id="a_node4"><a xlink:href="gaussian_8hh.html" target="_top" xlink:title="gaussian.hh">
<polygon fill="none" stroke="#000000" points="69,-56.5 69,-75.5 138,-75.5 138,-56.5 69,-56.5"/>
<text text-anchor="middle" x="103.5" y="-63.5" font-family="Helvetica,sans-Serif" font-size="10.00" fill="#000000">gaussian.hh</text>
</a>
</g>
</g>
<!-- Node0&#45;&gt;Node3 -->
<g id="edge3" class="edge">
<title>Node0&#45;&gt;Node3</title>
<path fill="none" stroke="#191970" d="M129.1002,-112.2455C124.8773,-104.617 118.8827,-93.7881 113.7559,-84.5267"/>
<polygon fill="#191970" stroke="#191970" points="116.7432,-82.6965 108.8379,-75.6427 110.619,-86.0867 116.7432,-82.6965"/>
</g>
<!-- Node5 -->
<g id="node6" class="node">
<title>Node5</title>
<g id="a_node6"><a xlink:href="owen__t_8hh.html" target="_top" xlink:title="apmath/owen_t.hh">
<polygon fill="none" stroke="#000000" points="195,-56.5 195,-75.5 292,-75.5 292,-56.5 195,-56.5"/>
<text text-anchor="middle" x="243.5" y="-63.5" font-family="Helvetica,sans-Serif" font-size="10.00" fill="#000000">apmath/owen_t.hh</text>
</a>
</g>
</g>
<!-- Node0&#45;&gt;Node5 -->
<g id="edge7" class="edge">
<title>Node0&#45;&gt;Node5</title>
<path fill="none" stroke="#191970" d="M153.4864,-112.2455C170.6792,-103.4125 196.2238,-90.2887 215.7132,-80.2758"/>
<polygon fill="#191970" stroke="#191970" points="217.4359,-83.3257 224.7312,-75.6427 214.237,-77.0993 217.4359,-83.3257"/>
</g>
<!-- Node3&#45;&gt;Node1 -->
<g id="edge4" class="edge">
<title>Node3&#45;&gt;Node1</title>
<path fill="none" stroke="#191970" d="M89.7393,-56.2455C77.8448,-47.814 60.435,-35.4729 46.5915,-25.6598"/>
<polygon fill="#191970" stroke="#191970" points="48.2854,-22.5704 38.1031,-19.6427 44.2372,-28.2811 48.2854,-22.5704"/>
</g>
<!-- Node3&#45;&gt;Node2 -->
<g id="edge5" class="edge">
<title>Node3&#45;&gt;Node2</title>
<path fill="none" stroke="#191970" d="M117.4349,-56.2455C129.5947,-47.7337 147.4464,-35.2375 161.5285,-25.3801"/>
<polygon fill="#191970" stroke="#191970" points="163.5395,-28.2447 169.7248,-19.6427 159.5253,-22.51 163.5395,-28.2447"/>
</g>
<!-- Node4 -->
<g id="node5" class="node">
<title>Node4</title>
<polygon fill="none" stroke="#bfbfbf" points="67.5,-.5 67.5,-19.5 139.5,-19.5 139.5,-.5 67.5,-.5"/>
<text text-anchor="middle" x="103.5" y="-7.5" font-family="Helvetica,sans-Serif" font-size="10.00" fill="#000000">gsl/gsl_cdf.h</text>
</g>
<!-- Node3&#45;&gt;Node4 -->
<g id="edge6" class="edge">
<title>Node3&#45;&gt;Node4</title>
<path fill="none" stroke="#191970" d="M103.5,-56.2455C103.5,-48.9382 103.5,-38.6944 103.5,-29.7046"/>
<polygon fill="#191970" stroke="#191970" points="107.0001,-29.6426 103.5,-19.6427 100.0001,-29.6427 107.0001,-29.6426"/>
</g>
</g>
</svg>
