<?xml version="1.0" encoding="UTF-8" standalone="no"?>
<!DOCTYPE svg PUBLIC "-//W3C//DTD SVG 1.1//EN"
 "http://www.w3.org/Graphics/SVG/1.1/DTD/svg11.dtd">
<!-- Generated by graphviz version 2.36.0 (20140111.2315)
 -->
<!-- Title: /home/travis/build/igankevich/arma/src/velocity/small_amplitude_solver.hh Pages: 1 -->
<svg width="437pt" height="398pt"
 viewBox="0.00 0.00 437.00 398.00" xmlns="http://www.w3.org/2000/svg" xmlns:xlink="http://www.w3.org/1999/xlink">
<g id="graph0" class="graph" transform="scale(1 1) rotate(0) translate(4 394)">
<title>/home/travis/build/igankevich/arma/src/velocity/small_amplitude_solver.hh</title>
<!-- Node1 -->
<g id="node1" class="node"><title>Node1</title>
<polygon fill="#bfbfbf" stroke="black" points="85.5,-337 85.5,-389 212.5,-389 212.5,-337 85.5,-337"/>
<text text-anchor="start" x="93.5" y="-377" font-family="Helvetica,sans-Serif" font-size="10.00">/home/travis/build</text>
<text text-anchor="start" x="93.5" y="-366" font-family="Helvetica,sans-Serif" font-size="10.00">/igankevich/arma/src</text>
<text text-anchor="start" x="93.5" y="-355" font-family="Helvetica,sans-Serif" font-size="10.00">/velocity/small_amplitude</text>
<text text-anchor="middle" x="149" y="-344" font-family="Helvetica,sans-Serif" font-size="10.00">_solver.hh</text>
</g>
<!-- Node2 -->
<g id="node2" class="node"><title>Node2</title>
<g id="a_node2"><a xlink:href="basic__solver_8hh.html" target="_top" xlink:title="basic_solver.hh">
<polygon fill="none" stroke="black" points="106.5,-280.5 106.5,-299.5 191.5,-299.5 191.5,-280.5 106.5,-280.5"/>
<text text-anchor="middle" x="149" y="-287.5" font-family="Helvetica,sans-Serif" font-size="10.00">basic_solver.hh</text>
</a>
</g>
</g>
<!-- Node1&#45;&gt;Node2 -->
<g id="edge1" class="edge"><title>Node1&#45;&gt;Node2</title>
<path fill="none" stroke="midnightblue" d="M149,-336.768C149,-327.89 149,-318.074 149,-309.816"/>
<polygon fill="midnightblue" stroke="midnightblue" points="152.5,-309.757 149,-299.757 145.5,-309.757 152.5,-309.757"/>
</g>
<!-- Node3 -->
<g id="node3" class="node"><title>Node3</title>
<g id="a_node3"><a xlink:href="types_8hh.html" target="_top" xlink:title="types.hh">
<polygon fill="none" stroke="black" points="56,-168.5 56,-187.5 110,-187.5 110,-168.5 56,-168.5"/>
<text text-anchor="middle" x="83" y="-175.5" font-family="Helvetica,sans-Serif" font-size="10.00">types.hh</text>
</a>
</g>
</g>
<!-- Node2&#45;&gt;Node3 -->
<g id="edge2" class="edge"><title>Node2&#45;&gt;Node3</title>
<path fill="none" stroke="midnightblue" d="M143.821,-280.368C132.977,-262.296 107.706,-220.176 93.3844,-196.307"/>
<polygon fill="midnightblue" stroke="midnightblue" points="96.3011,-194.366 88.1549,-187.591 90.2986,-197.967 96.3011,-194.366"/>
</g>
<!-- Node5 -->
<g id="node5" class="node"><title>Node5</title>
<g id="a_node5"><a xlink:href="domain_8hh.html" target="_top" xlink:title="domain.hh">
<polygon fill="none" stroke="black" points="128,-168.5 128,-187.5 190,-187.5 190,-168.5 128,-168.5"/>
<text text-anchor="middle" x="159" y="-175.5" font-family="Helvetica,sans-Serif" font-size="10.00">domain.hh</text>
</a>
</g>
</g>
<!-- Node2&#45;&gt;Node5 -->
<g id="edge4" class="edge"><title>Node2&#45;&gt;Node5</title>
<path fill="none" stroke="midnightblue" d="M149.785,-280.368C151.398,-262.617 155.121,-221.666 157.309,-197.597"/>
<polygon fill="midnightblue" stroke="midnightblue" points="160.799,-197.867 158.219,-187.591 153.828,-197.233 160.799,-197.867"/>
</g>
<!-- Node14 -->
<g id="node14" class="node"><title>Node14</title>
<g id="a_node14"><a xlink:href="discrete__function_8hh.html" target="_top" xlink:title="discrete_function.hh">
<polygon fill="none" stroke="black" points="177,-224.5 177,-243.5 281,-243.5 281,-224.5 177,-224.5"/>
<text text-anchor="middle" x="229" y="-231.5" font-family="Helvetica,sans-Serif" font-size="10.00">discrete_function.hh</text>
</a>
</g>
</g>
<!-- Node2&#45;&gt;Node14 -->
<g id="edge16" class="edge"><title>Node2&#45;&gt;Node14</title>
<path fill="none" stroke="midnightblue" d="M161.853,-280.324C174.216,-271.979 193.13,-259.212 207.737,-249.352"/>
<polygon fill="midnightblue" stroke="midnightblue" points="209.848,-252.15 216.179,-243.655 205.932,-246.348 209.848,-252.15"/>
</g>
<!-- Node4 -->
<g id="node4" class="node"><title>Node4</title>
<polygon fill="none" stroke="#bfbfbf" points="0,-0.5 0,-19.5 68,-19.5 68,-0.5 0,-0.5"/>
<text text-anchor="middle" x="34" y="-7.5" font-family="Helvetica,sans-Serif" font-size="10.00">blitz/array.h</text>
</g>
<!-- Node3&#45;&gt;Node4 -->
<g id="edge3" class="edge"><title>Node3&#45;&gt;Node4</title>
<path fill="none" stroke="midnightblue" d="M62.1527,-168.427C47.4221,-161.129 28.7951,-149.091 20,-132 2.88882,-98.7497 16.0966,-53.7013 25.9021,-29.0188"/>
<polygon fill="midnightblue" stroke="midnightblue" points="29.2545,-30.077 29.9224,-19.5032 22.8064,-27.3526 29.2545,-30.077"/>
</g>
<!-- Node5&#45;&gt;Node4 -->
<g id="edge9" class="edge"><title>Node5&#45;&gt;Node4</title>
<path fill="none" stroke="midnightblue" d="M132.561,-168.339C106.038,-159.127 67.761,-144.227 58,-132 34.3624,-102.392 31.933,-55.9225 32.6882,-30.0346"/>
<polygon fill="midnightblue" stroke="midnightblue" points="36.1997,-29.8826 33.1945,-19.7229 29.2082,-29.5392 36.1997,-29.8826"/>
</g>
<!-- Node6 -->
<g id="node6" class="node"><title>Node6</title>
<polygon fill="none" stroke="#bfbfbf" points="311,-0.5 311,-19.5 355,-19.5 355,-0.5 311,-0.5"/>
<text text-anchor="middle" x="333" y="-7.5" font-family="Helvetica,sans-Serif" font-size="10.00">cmath</text>
</g>
<!-- Node5&#45;&gt;Node6 -->
<g id="edge5" class="edge"><title>Node5&#45;&gt;Node6</title>
<path fill="none" stroke="midnightblue" d="M137.251,-168.347C111.896,-156.931 75.3347,-135.513 91,-112 138.448,-40.7834 246.687,-19.6969 300.865,-13.519"/>
<polygon fill="midnightblue" stroke="midnightblue" points="301.361,-16.9864 310.945,-12.4718 300.637,-10.0239 301.361,-16.9864"/>
</g>
<!-- Node7 -->
<g id="node7" class="node"><title>Node7</title>
<polygon fill="none" stroke="#bfbfbf" points="100,-112.5 100,-131.5 150,-131.5 150,-112.5 100,-112.5"/>
<text text-anchor="middle" x="125" y="-119.5" font-family="Helvetica,sans-Serif" font-size="10.00">iomanip</text>
</g>
<!-- Node5&#45;&gt;Node7 -->
<g id="edge6" class="edge"><title>Node5&#45;&gt;Node7</title>
<path fill="none" stroke="midnightblue" d="M153.386,-168.083C148.633,-160.534 141.682,-149.495 135.848,-140.23"/>
<polygon fill="midnightblue" stroke="midnightblue" points="138.8,-138.349 130.51,-131.751 132.876,-142.078 138.8,-138.349"/>
</g>
<!-- Node8 -->
<g id="node8" class="node"><title>Node8</title>
<polygon fill="none" stroke="#bfbfbf" points="238.5,-112.5 238.5,-131.5 287.5,-131.5 287.5,-112.5 238.5,-112.5"/>
<text text-anchor="middle" x="263" y="-119.5" font-family="Helvetica,sans-Serif" font-size="10.00">istream</text>
</g>
<!-- Node5&#45;&gt;Node8 -->
<g id="edge7" class="edge"><title>Node5&#45;&gt;Node8</title>
<path fill="none" stroke="midnightblue" d="M175.709,-168.324C192.312,-159.703 218.002,-146.364 237.22,-136.386"/>
<polygon fill="midnightblue" stroke="midnightblue" points="239.07,-139.369 246.332,-131.655 235.844,-133.156 239.07,-139.369"/>
</g>
<!-- Node9 -->
<g id="node9" class="node"><title>Node9</title>
<polygon fill="none" stroke="#bfbfbf" points="168,-112.5 168,-131.5 220,-131.5 220,-112.5 168,-112.5"/>
<text text-anchor="middle" x="194" y="-119.5" font-family="Helvetica,sans-Serif" font-size="10.00">ostream</text>
</g>
<!-- Node5&#45;&gt;Node9 -->
<g id="edge8" class="edge"><title>Node5&#45;&gt;Node9</title>
<path fill="none" stroke="midnightblue" d="M164.78,-168.083C169.672,-160.534 176.827,-149.495 182.833,-140.23"/>
<polygon fill="midnightblue" stroke="midnightblue" points="185.826,-142.046 188.328,-131.751 179.952,-138.239 185.826,-142.046"/>
</g>
<!-- Node10 -->
<g id="node10" class="node"><title>Node10</title>
<g id="a_node10"><a xlink:href="validators_8hh.html" target="_top" xlink:title="validators.hh">
<polygon fill="none" stroke="black" points="306,-112.5 306,-131.5 378,-131.5 378,-112.5 306,-112.5"/>
<text text-anchor="middle" x="342" y="-119.5" font-family="Helvetica,sans-Serif" font-size="10.00">validators.hh</text>
</a>
</g>
</g>
<!-- Node5&#45;&gt;Node10 -->
<g id="edge10" class="edge"><title>Node5&#45;&gt;Node10</title>
<path fill="none" stroke="midnightblue" d="M187.997,-168.444C219.185,-159.241 268.93,-144.562 303.408,-134.388"/>
<polygon fill="midnightblue" stroke="midnightblue" points="304.538,-137.704 313.139,-131.516 302.557,-130.99 304.538,-137.704"/>
</g>
<!-- Node11 -->
<g id="node11" class="node"><title>Node11</title>
<polygon fill="none" stroke="#bfbfbf" points="265.5,-56.5 265.5,-75.5 324.5,-75.5 324.5,-56.5 265.5,-56.5"/>
<text text-anchor="middle" x="295" y="-63.5" font-family="Helvetica,sans-Serif" font-size="10.00">stdexcept</text>
</g>
<!-- Node10&#45;&gt;Node11 -->
<g id="edge11" class="edge"><title>Node10&#45;&gt;Node11</title>
<path fill="none" stroke="midnightblue" d="M334.239,-112.083C327.463,-104.298 317.457,-92.8015 309.245,-83.3665"/>
<polygon fill="midnightblue" stroke="midnightblue" points="311.822,-80.9963 302.617,-75.7511 306.542,-85.592 311.822,-80.9963"/>
</g>
<!-- Node12 -->
<g id="node12" class="node"><title>Node12</title>
<g id="a_node12"><a xlink:href="blitz_8hh.html" target="_top" xlink:title="blitz.hh">
<polygon fill="none" stroke="black" points="343,-56.5 343,-75.5 391,-75.5 391,-56.5 343,-56.5"/>
<text text-anchor="middle" x="367" y="-63.5" font-family="Helvetica,sans-Serif" font-size="10.00">blitz.hh</text>
</a>
</g>
</g>
<!-- Node10&#45;&gt;Node12 -->
<g id="edge12" class="edge"><title>Node10&#45;&gt;Node12</title>
<path fill="none" stroke="midnightblue" d="M346.128,-112.083C349.514,-104.77 354.416,-94.1814 358.619,-85.1034"/>
<polygon fill="midnightblue" stroke="midnightblue" points="361.923,-86.2962 362.949,-75.7511 355.571,-83.3553 361.923,-86.2962"/>
</g>
<!-- Node12&#45;&gt;Node4 -->
<g id="edge14" class="edge"><title>Node12&#45;&gt;Node4</title>
<path fill="none" stroke="midnightblue" d="M342.931,-58.2806C339.608,-57.455 336.229,-56.6682 333,-56 243.287,-37.4333 136.933,-23.2677 78.3218,-16.1313"/>
<polygon fill="midnightblue" stroke="midnightblue" points="78.6417,-12.6446 68.2946,-14.9225 77.8038,-19.5943 78.6417,-12.6446"/>
</g>
<!-- Node12&#45;&gt;Node6 -->
<g id="edge15" class="edge"><title>Node12&#45;&gt;Node6</title>
<path fill="none" stroke="midnightblue" d="M361.386,-56.083C356.633,-48.5341 349.682,-37.4948 343.848,-28.2298"/>
<polygon fill="midnightblue" stroke="midnightblue" points="346.8,-26.3486 338.51,-19.7511 340.876,-30.0783 346.8,-26.3486"/>
</g>
<!-- Node13 -->
<g id="node13" class="node"><title>Node13</title>
<polygon fill="none" stroke="#bfbfbf" points="373,-0.5 373,-19.5 429,-19.5 429,-0.5 373,-0.5"/>
<text text-anchor="middle" x="401" y="-7.5" font-family="Helvetica,sans-Serif" font-size="10.00">algorithm</text>
</g>
<!-- Node12&#45;&gt;Node13 -->
<g id="edge13" class="edge"><title>Node12&#45;&gt;Node13</title>
<path fill="none" stroke="midnightblue" d="M372.614,-56.083C377.367,-48.5341 384.318,-37.4948 390.152,-28.2298"/>
<polygon fill="midnightblue" stroke="midnightblue" points="393.124,-30.0783 395.49,-19.7511 387.2,-26.3486 393.124,-30.0783"/>
</g>
<!-- Node14&#45;&gt;Node3 -->
<g id="edge22" class="edge"><title>Node14&#45;&gt;Node3</title>
<path fill="none" stroke="midnightblue" d="M205.866,-224.444C181.518,-215.438 142.993,-201.189 115.577,-191.049"/>
<polygon fill="midnightblue" stroke="midnightblue" points="116.619,-187.703 106.026,-187.516 114.191,-194.268 116.619,-187.703"/>
</g>
<!-- Node15 -->
<g id="node15" class="node"><title>Node15</title>
<g id="a_node15"><a xlink:href="grid_8hh.html" target="_top" xlink:title="grid.hh">
<polygon fill="none" stroke="black" points="319,-168.5 319,-187.5 365,-187.5 365,-168.5 319,-168.5"/>
<text text-anchor="middle" x="342" y="-175.5" font-family="Helvetica,sans-Serif" font-size="10.00">grid.hh</text>
</a>
</g>
</g>
<!-- Node14&#45;&gt;Node15 -->
<g id="edge17" class="edge"><title>Node14&#45;&gt;Node15</title>
<path fill="none" stroke="midnightblue" d="M246.905,-224.444C265.254,-215.675 294.005,-201.935 315.094,-191.858"/>
<polygon fill="midnightblue" stroke="midnightblue" points="316.665,-194.986 324.179,-187.516 313.647,-188.67 316.665,-194.986"/>
</g>
<!-- Node15&#45;&gt;Node6 -->
<g id="edge18" class="edge"><title>Node15&#45;&gt;Node6</title>
<path fill="none" stroke="midnightblue" d="M361.296,-168.48C375.429,-161.081 393.557,-148.887 402,-132 408.231,-119.538 414.474,-82.0266 400,-56 392.143,-41.8714 377.759,-31.3377 364.328,-24.0282"/>
<polygon fill="midnightblue" stroke="midnightblue" points="365.78,-20.8409 355.273,-19.4784 362.637,-27.0957 365.78,-20.8409"/>
</g>
<!-- Node15&#45;&gt;Node8 -->
<g id="edge19" class="edge"><title>Node15&#45;&gt;Node8</title>
<path fill="none" stroke="midnightblue" d="M329.307,-168.324C317.099,-159.979 298.422,-147.212 283.997,-137.352"/>
<polygon fill="midnightblue" stroke="midnightblue" points="285.892,-134.408 275.661,-131.655 281.942,-140.187 285.892,-134.408"/>
</g>
<!-- Node15&#45;&gt;Node10 -->
<g id="edge21" class="edge"><title>Node15&#45;&gt;Node10</title>
<path fill="none" stroke="midnightblue" d="M342,-168.083C342,-161.006 342,-150.861 342,-141.986"/>
<polygon fill="midnightblue" stroke="midnightblue" points="345.5,-141.751 342,-131.751 338.5,-141.751 345.5,-141.751"/>
</g>
<!-- Node15&#45;&gt;Node12 -->
<g id="edge20" class="edge"><title>Node15&#45;&gt;Node12</title>
<path fill="none" stroke="midnightblue" d="M355.064,-168.436C365.914,-160.471 380.573,-147.515 387,-132 393.544,-116.2 386.281,-97.4713 378.739,-84.1856"/>
<polygon fill="midnightblue" stroke="midnightblue" points="381.647,-82.2343 373.392,-75.5934 375.704,-85.9328 381.647,-82.2343"/>
</g>
</g>
</svg>
