<?xml version="1.0" encoding="UTF-8" standalone="no"?>
<!DOCTYPE svg PUBLIC "-//W3C//DTD SVG 1.1//EN"
 "http://www.w3.org/Graphics/SVG/1.1/DTD/svg11.dtd">
<!-- Generated by graphviz version 2.40.1 (20161225.0304)
 -->
<!-- Title: src/velocity/small_amplitude_solver.hh Pages: 1 -->
<svg width="445pt" height="375pt"
 viewBox="0.00 0.00 445.00 375.00" xmlns="http://www.w3.org/2000/svg" xmlns:xlink="http://www.w3.org/1999/xlink">
<g id="graph0" class="graph" transform="scale(1 1) rotate(0) translate(4 371)">
<title>src/velocity/small_amplitude_solver.hh</title>
<!-- Node0 -->
<g id="node1" class="node">
<title>Node0</title>
<polygon fill="#bfbfbf" stroke="#000000" points="72,-336.5 72,-366.5 180,-366.5 180,-336.5 72,-336.5"/>
<text text-anchor="start" x="80" y="-354.5" font-family="Helvetica,sans-Serif" font-size="10.00" fill="#000000">src/velocity/small</text>
<text text-anchor="middle" x="126" y="-343.5" font-family="Helvetica,sans-Serif" font-size="10.00" fill="#000000">_amplitude_solver.hh</text>
</g>
<!-- Node1 -->
<g id="node2" class="node">
<title>Node1</title>
<g id="a_node2"><a xlink:href="basic__solver_8hh.html" target="_top" xlink:title="basic_solver.hh">
<polygon fill="none" stroke="#000000" points="84,-280.5 84,-299.5 168,-299.5 168,-280.5 84,-280.5"/>
<text text-anchor="middle" x="126" y="-287.5" font-family="Helvetica,sans-Serif" font-size="10.00" fill="#000000">basic_solver.hh</text>
</a>
</g>
</g>
<!-- Node0&#45;&gt;Node1 -->
<g id="edge1" class="edge">
<title>Node0&#45;&gt;Node1</title>
<path fill="none" stroke="#191970" d="M126,-336.2977C126,-328.3834 126,-318.6043 126,-310.0759"/>
<polygon fill="#191970" stroke="#191970" points="129.5001,-309.8469 126,-299.8469 122.5001,-309.847 129.5001,-309.8469"/>
</g>
<!-- Node2 -->
<g id="node3" class="node">
<title>Node2</title>
<g id="a_node3"><a xlink:href="types_8hh.html" target="_top" xlink:title="types.hh">
<polygon fill="none" stroke="#000000" points="0,-168.5 0,-187.5 54,-187.5 54,-168.5 0,-168.5"/>
<text text-anchor="middle" x="27" y="-175.5" font-family="Helvetica,sans-Serif" font-size="10.00" fill="#000000">types.hh</text>
</a>
</g>
</g>
<!-- Node1&#45;&gt;Node2 -->
<g id="edge2" class="edge">
<title>Node1&#45;&gt;Node2</title>
<path fill="none" stroke="#191970" d="M109.7958,-280.3722C96.6019,-271.9648 78.0841,-258.8119 65,-244 52.4621,-229.8065 42.0584,-210.8344 35.3257,-196.8744"/>
<polygon fill="#191970" stroke="#191970" points="38.4719,-195.339 31.0941,-187.7351 32.1197,-198.2802 38.4719,-195.339"/>
</g>
<!-- Node4 -->
<g id="node5" class="node">
<title>Node4</title>
<g id="a_node5"><a xlink:href="domain_8hh.html" target="_top" xlink:title="domain.hh">
<polygon fill="none" stroke="#000000" points="209,-224.5 209,-243.5 271,-243.5 271,-224.5 209,-224.5"/>
<text text-anchor="middle" x="240" y="-231.5" font-family="Helvetica,sans-Serif" font-size="10.00" fill="#000000">domain.hh</text>
</a>
</g>
</g>
<!-- Node1&#45;&gt;Node4 -->
<g id="edge4" class="edge">
<title>Node1&#45;&gt;Node4</title>
<path fill="none" stroke="#191970" d="M145.5973,-280.3733C163.7331,-271.4644 190.9135,-258.1127 211.4587,-248.0203"/>
<polygon fill="#191970" stroke="#191970" points="213.2261,-251.0517 220.6584,-243.5011 210.1397,-244.7688 213.2261,-251.0517"/>
</g>
<!-- Node14 -->
<g id="node15" class="node">
<title>Node14</title>
<g id="a_node15"><a xlink:href="discrete__function_8hh.html" target="_top" xlink:title="discrete_function.hh">
<polygon fill="none" stroke="#000000" points="74,-224.5 74,-243.5 178,-243.5 178,-224.5 74,-224.5"/>
<text text-anchor="middle" x="126" y="-231.5" font-family="Helvetica,sans-Serif" font-size="10.00" fill="#000000">discrete_function.hh</text>
</a>
</g>
</g>
<!-- Node1&#45;&gt;Node14 -->
<g id="edge21" class="edge">
<title>Node1&#45;&gt;Node14</title>
<path fill="none" stroke="#191970" d="M126,-280.2455C126,-272.9382 126,-262.6944 126,-253.7046"/>
<polygon fill="#191970" stroke="#191970" points="129.5001,-253.6426 126,-243.6427 122.5001,-253.6427 129.5001,-253.6426"/>
</g>
<!-- Node3 -->
<g id="node4" class="node">
<title>Node3</title>
<polygon fill="none" stroke="#bfbfbf" points="13.5,-.5 13.5,-19.5 80.5,-19.5 80.5,-.5 13.5,-.5"/>
<text text-anchor="middle" x="47" y="-7.5" font-family="Helvetica,sans-Serif" font-size="10.00" fill="#000000">blitz/array.h</text>
</g>
<!-- Node2&#45;&gt;Node3 -->
<g id="edge3" class="edge">
<title>Node2&#45;&gt;Node3</title>
<path fill="none" stroke="#191970" d="M28.1326,-168.4862C31.2941,-141.9293 40.2661,-66.5651 44.5993,-30.1655"/>
<polygon fill="#191970" stroke="#191970" points="48.1233,-30.1715 45.83,-19.8279 41.1723,-29.344 48.1233,-30.1715"/>
</g>
<!-- Node4&#45;&gt;Node3 -->
<g id="edge9" class="edge">
<title>Node4&#45;&gt;Node3</title>
<path fill="none" stroke="#191970" d="M208.9859,-226.9511C173.6327,-218.3417 118.8151,-203.0578 104,-188 81.4861,-165.1173 59.7244,-71.2767 51.0009,-29.8324"/>
<polygon fill="#191970" stroke="#191970" points="54.3896,-28.9352 48.9398,-19.8494 47.5342,-30.3506 54.3896,-28.9352"/>
</g>
<!-- Node5 -->
<g id="node6" class="node">
<title>Node5</title>
<polygon fill="none" stroke="#bfbfbf" points="173,-.5 173,-19.5 217,-19.5 217,-.5 173,-.5"/>
<text text-anchor="middle" x="195" y="-7.5" font-family="Helvetica,sans-Serif" font-size="10.00" fill="#000000">cmath</text>
</g>
<!-- Node4&#45;&gt;Node5 -->
<g id="edge5" class="edge">
<title>Node4&#45;&gt;Node5</title>
<path fill="none" stroke="#191970" d="M255.1868,-224.3578C278.635,-208.4549 322.747,-174.2428 340,-132 347.0456,-114.7493 344.8937,-69.4996 334,-56 320.4882,-39.2559 264.0622,-24.5414 227.3878,-16.4943"/>
<polygon fill="#191970" stroke="#191970" points="227.6754,-12.9768 217.1648,-14.3106 226.2131,-19.8224 227.6754,-12.9768"/>
</g>
<!-- Node6 -->
<g id="node7" class="node">
<title>Node6</title>
<polygon fill="none" stroke="#bfbfbf" points="387,-168.5 387,-187.5 437,-187.5 437,-168.5 387,-168.5"/>
<text text-anchor="middle" x="412" y="-175.5" font-family="Helvetica,sans-Serif" font-size="10.00" fill="#000000">iomanip</text>
</g>
<!-- Node4&#45;&gt;Node6 -->
<g id="edge6" class="edge">
<title>Node4&#45;&gt;Node6</title>
<path fill="none" stroke="#191970" d="M269.5679,-224.3733C299.3822,-214.6663 345.3974,-199.6846 377.0112,-189.3917"/>
<polygon fill="#191970" stroke="#191970" points="378.3054,-192.6512 386.7305,-186.2273 376.1382,-185.9951 378.3054,-192.6512"/>
</g>
<!-- Node7 -->
<g id="node8" class="node">
<title>Node7</title>
<polygon fill="none" stroke="#bfbfbf" points="191.5,-112.5 191.5,-131.5 240.5,-131.5 240.5,-112.5 191.5,-112.5"/>
<text text-anchor="middle" x="216" y="-119.5" font-family="Helvetica,sans-Serif" font-size="10.00" fill="#000000">istream</text>
</g>
<!-- Node4&#45;&gt;Node7 -->
<g id="edge7" class="edge">
<title>Node4&#45;&gt;Node7</title>
<path fill="none" stroke="#191970" d="M240.9308,-224.4364C241.9207,-211.4492 242.7606,-187.6062 238,-168 235.7131,-158.5816 231.3584,-148.8056 227.1229,-140.7005"/>
<polygon fill="#191970" stroke="#191970" points="230.081,-138.8183 222.1626,-131.7792 223.9631,-142.2199 230.081,-138.8183"/>
</g>
<!-- Node8 -->
<g id="node9" class="node">
<title>Node8</title>
<polygon fill="none" stroke="#bfbfbf" points="177,-168.5 177,-187.5 229,-187.5 229,-168.5 177,-168.5"/>
<text text-anchor="middle" x="203" y="-175.5" font-family="Helvetica,sans-Serif" font-size="10.00" fill="#000000">ostream</text>
</g>
<!-- Node4&#45;&gt;Node8 -->
<g id="edge8" class="edge">
<title>Node4&#45;&gt;Node8</title>
<path fill="none" stroke="#191970" d="M233.5551,-224.2455C228.4618,-216.5367 221.2092,-205.5598 215.048,-196.2348"/>
<polygon fill="#191970" stroke="#191970" points="217.8038,-194.0566 209.3711,-187.6427 211.9635,-197.9155 217.8038,-194.0566"/>
</g>
<!-- Node9 -->
<g id="node10" class="node">
<title>Node9</title>
<g id="a_node10"><a xlink:href="grid_8hh.html" target="_top" xlink:title="grid.hh">
<polygon fill="none" stroke="#000000" points="113,-168.5 113,-187.5 159,-187.5 159,-168.5 113,-168.5"/>
<text text-anchor="middle" x="136" y="-175.5" font-family="Helvetica,sans-Serif" font-size="10.00" fill="#000000">grid.hh</text>
</a>
</g>
</g>
<!-- Node4&#45;&gt;Node9 -->
<g id="edge10" class="edge">
<title>Node4&#45;&gt;Node9</title>
<path fill="none" stroke="#191970" d="M221.8846,-224.2455C205.555,-215.4527 181.329,-202.4079 162.7661,-192.4125"/>
<polygon fill="#191970" stroke="#191970" points="164.3719,-189.3021 153.9078,-187.6427 161.0532,-195.4654 164.3719,-189.3021"/>
</g>
<!-- Node12 -->
<g id="node13" class="node">
<title>Node12</title>
<g id="a_node13"><a xlink:href="validators_8hh.html" target="_top" xlink:title="validators.hh">
<polygon fill="none" stroke="#000000" points="259,-112.5 259,-131.5 331,-131.5 331,-112.5 259,-112.5"/>
<text text-anchor="middle" x="295" y="-119.5" font-family="Helvetica,sans-Serif" font-size="10.00" fill="#000000">validators.hh</text>
</a>
</g>
</g>
<!-- Node4&#45;&gt;Node12 -->
<g id="edge20" class="edge">
<title>Node4&#45;&gt;Node12</title>
<path fill="none" stroke="#191970" d="M244.6893,-224.4509C253.7814,-205.936 273.9531,-164.8591 285.8078,-140.7187"/>
<polygon fill="#191970" stroke="#191970" points="289.0563,-142.0438 290.3226,-131.5249 282.773,-138.9582 289.0563,-142.0438"/>
</g>
<!-- Node9&#45;&gt;Node5 -->
<g id="edge11" class="edge">
<title>Node9&#45;&gt;Node5</title>
<path fill="none" stroke="#191970" d="M139.3411,-168.4862C148.708,-141.8144 175.3643,-65.9117 188.0833,-29.695"/>
<polygon fill="#191970" stroke="#191970" points="191.5372,-30.4227 191.5485,-19.8279 184.9327,-28.1032 191.5372,-30.4227"/>
</g>
<!-- Node9&#45;&gt;Node7 -->
<g id="edge12" class="edge">
<title>Node9&#45;&gt;Node7</title>
<path fill="none" stroke="#191970" d="M149.9349,-168.2455C162.0947,-159.7337 179.9464,-147.2375 194.0285,-137.3801"/>
<polygon fill="#191970" stroke="#191970" points="196.0395,-140.2447 202.2248,-131.6427 192.0253,-134.51 196.0395,-140.2447"/>
</g>
<!-- Node10 -->
<g id="node11" class="node">
<title>Node10</title>
<g id="a_node11"><a xlink:href="blitz_8hh.html" target="_top" xlink:title="blitz.hh">
<polygon fill="none" stroke="#000000" points="103,-56.5 103,-75.5 151,-75.5 151,-56.5 103,-56.5"/>
<text text-anchor="middle" x="127" y="-63.5" font-family="Helvetica,sans-Serif" font-size="10.00" fill="#000000">blitz.hh</text>
</a>
</g>
</g>
<!-- Node9&#45;&gt;Node10 -->
<g id="edge13" class="edge">
<title>Node9&#45;&gt;Node10</title>
<path fill="none" stroke="#191970" d="M135.2327,-168.4509C133.7648,-150.184 130.5321,-109.9553 128.5828,-85.6976"/>
<polygon fill="#191970" stroke="#191970" points="132.0552,-85.2124 127.7654,-75.5249 125.0777,-85.7731 132.0552,-85.2124"/>
</g>
<!-- Node9&#45;&gt;Node12 -->
<g id="edge17" class="edge">
<title>Node9&#45;&gt;Node12</title>
<path fill="none" stroke="#191970" d="M159.12,-169.8571C185.1556,-160.6873 227.8124,-145.6635 258.3888,-134.8945"/>
<polygon fill="#191970" stroke="#191970" points="259.586,-138.1837 267.8553,-131.5604 257.2605,-131.5812 259.586,-138.1837"/>
</g>
<!-- Node10&#45;&gt;Node3 -->
<g id="edge15" class="edge">
<title>Node10&#45;&gt;Node3</title>
<path fill="none" stroke="#191970" d="M113.0651,-56.2455C100.9053,-47.7337 83.0536,-35.2375 68.9715,-25.3801"/>
<polygon fill="#191970" stroke="#191970" points="70.9747,-22.51 60.7752,-19.6427 66.9605,-28.2447 70.9747,-22.51"/>
</g>
<!-- Node10&#45;&gt;Node5 -->
<g id="edge16" class="edge">
<title>Node10&#45;&gt;Node5</title>
<path fill="none" stroke="#191970" d="M138.8447,-56.2455C148.888,-47.9746 163.4995,-35.9416 175.3004,-26.2232"/>
<polygon fill="#191970" stroke="#191970" points="177.7967,-28.7015 183.291,-19.6427 173.3467,-23.298 177.7967,-28.7015"/>
</g>
<!-- Node11 -->
<g id="node12" class="node">
<title>Node11</title>
<polygon fill="none" stroke="#bfbfbf" points="99,-.5 99,-19.5 155,-19.5 155,-.5 99,-.5"/>
<text text-anchor="middle" x="127" y="-7.5" font-family="Helvetica,sans-Serif" font-size="10.00" fill="#000000">algorithm</text>
</g>
<!-- Node10&#45;&gt;Node11 -->
<g id="edge14" class="edge">
<title>Node10&#45;&gt;Node11</title>
<path fill="none" stroke="#191970" d="M127,-56.2455C127,-48.9382 127,-38.6944 127,-29.7046"/>
<polygon fill="#191970" stroke="#191970" points="130.5001,-29.6426 127,-19.6427 123.5001,-29.6427 130.5001,-29.6426"/>
</g>
<!-- Node12&#45;&gt;Node10 -->
<g id="edge19" class="edge">
<title>Node12&#45;&gt;Node10</title>
<path fill="none" stroke="#191970" d="M266.1198,-112.3733C236.9563,-102.6521 191.9224,-87.6408 161.04,-77.3467"/>
<polygon fill="#191970" stroke="#191970" points="161.7464,-73.8929 151.1527,-74.0509 159.5327,-80.5336 161.7464,-73.8929"/>
</g>
<!-- Node13 -->
<g id="node14" class="node">
<title>Node13</title>
<polygon fill="none" stroke="#bfbfbf" points="265.5,-56.5 265.5,-75.5 324.5,-75.5 324.5,-56.5 265.5,-56.5"/>
<text text-anchor="middle" x="295" y="-63.5" font-family="Helvetica,sans-Serif" font-size="10.00" fill="#000000">stdexcept</text>
</g>
<!-- Node12&#45;&gt;Node13 -->
<g id="edge18" class="edge">
<title>Node12&#45;&gt;Node13</title>
<path fill="none" stroke="#191970" d="M295,-112.2455C295,-104.9382 295,-94.6944 295,-85.7046"/>
<polygon fill="#191970" stroke="#191970" points="298.5001,-85.6426 295,-75.6427 291.5001,-85.6427 298.5001,-85.6426"/>
</g>
<!-- Node14&#45;&gt;Node2 -->
<g id="edge23" class="edge">
<title>Node14&#45;&gt;Node2</title>
<path fill="none" stroke="#191970" d="M108.7555,-224.2455C93.4239,-215.5731 70.7801,-202.7645 53.2084,-192.825"/>
<polygon fill="#191970" stroke="#191970" points="54.4741,-189.5198 44.0469,-187.6427 51.0276,-195.6126 54.4741,-189.5198"/>
</g>
<!-- Node14&#45;&gt;Node9 -->
<g id="edge22" class="edge">
<title>Node14&#45;&gt;Node9</title>
<path fill="none" stroke="#191970" d="M127.7419,-224.2455C129.0467,-216.9382 130.876,-206.6944 132.4813,-197.7046"/>
<polygon fill="#191970" stroke="#191970" points="135.9656,-198.1022 134.2781,-187.6427 129.0746,-196.8717 135.9656,-198.1022"/>
</g>
</g>
</svg>
