<?xml version="1.0" encoding="UTF-8" standalone="no"?>
<!DOCTYPE svg PUBLIC "-//W3C//DTD SVG 1.1//EN"
 "http://www.w3.org/Graphics/SVG/1.1/DTD/svg11.dtd">
<!-- Generated by graphviz version 2.40.1 (20161225.0304)
 -->
<!-- Title: src/velocity/small_amplitude_solver.cc Pages: 1 -->
<svg width="1495pt" height="464pt"
 viewBox="0.00 0.00 1495.13 464.00" xmlns="http://www.w3.org/2000/svg" xmlns:xlink="http://www.w3.org/1999/xlink">
<g id="graph0" class="graph" transform="scale(1 1) rotate(0) translate(4 460)">
<title>src/velocity/small_amplitude_solver.cc</title>
<!-- Node0 -->
<g id="node1" class="node">
<title>Node0</title>
<polygon fill="#bfbfbf" stroke="#000000" points="369.1292,-425.5 369.1292,-455.5 477.1292,-455.5 477.1292,-425.5 369.1292,-425.5"/>
<text text-anchor="start" x="377.1292" y="-443.5" font-family="Helvetica,sans-Serif" font-size="10.00" fill="#000000">src/velocity/small</text>
<text text-anchor="middle" x="423.1292" y="-432.5" font-family="Helvetica,sans-Serif" font-size="10.00" fill="#000000">_amplitude_solver.cc</text>
</g>
<!-- Node1 -->
<g id="node2" class="node">
<title>Node1</title>
<g id="a_node2"><a xlink:href="small__amplitude__solver_8hh.html" target="_top" xlink:title="small_amplitude_solver.hh">
<polygon fill="none" stroke="#000000" points="212.6292,-369.5 212.6292,-388.5 343.6292,-388.5 343.6292,-369.5 212.6292,-369.5"/>
<text text-anchor="middle" x="278.1292" y="-376.5" font-family="Helvetica,sans-Serif" font-size="10.00" fill="#000000">small_amplitude_solver.hh</text>
</a>
</g>
</g>
<!-- Node0&#45;&gt;Node1 -->
<g id="edge1" class="edge">
<title>Node0&#45;&gt;Node1</title>
<path fill="none" stroke="#191970" d="M387.6582,-425.4554C363.8891,-415.374 332.8613,-402.2139 309.9007,-392.4755"/>
<polygon fill="#191970" stroke="#191970" points="311.1719,-389.2129 300.5991,-388.5303 308.4386,-395.6572 311.1719,-389.2129"/>
</g>
<!-- Node16 -->
<g id="node17" class="node">
<title>Node16</title>
<g id="a_node17"><a xlink:href="derivative_8hh.html" target="_top" xlink:title="derivative.hh">
<polygon fill="none" stroke="#000000" points="69.1292,-313.5 69.1292,-332.5 141.1292,-332.5 141.1292,-313.5 69.1292,-313.5"/>
<text text-anchor="middle" x="105.1292" y="-320.5" font-family="Helvetica,sans-Serif" font-size="10.00" fill="#000000">derivative.hh</text>
</a>
</g>
</g>
<!-- Node0&#45;&gt;Node16 -->
<g id="edge24" class="edge">
<title>Node0&#45;&gt;Node16</title>
<path fill="none" stroke="#191970" d="M368.9493,-433.4236C323.3233,-426.1634 257.062,-412.5258 203.1292,-389 173.4549,-376.0559 143.1209,-353.9862 124.2197,-338.963"/>
<polygon fill="#191970" stroke="#191970" points="126.3566,-336.1898 116.3832,-332.6144 121.9502,-341.6289 126.3566,-336.1898"/>
</g>
<!-- Node17 -->
<g id="node18" class="node">
<title>Node17</title>
<g id="a_node18"><a xlink:href="physical__constants_8hh.html" target="_top" xlink:title="physical_constants.hh">
<polygon fill="none" stroke="#000000" points="1373.1292,-190.5 1373.1292,-209.5 1487.1292,-209.5 1487.1292,-190.5 1373.1292,-190.5"/>
<text text-anchor="middle" x="1430.1292" y="-197.5" font-family="Helvetica,sans-Serif" font-size="10.00" fill="#000000">physical_constants.hh</text>
</a>
</g>
</g>
<!-- Node0&#45;&gt;Node17 -->
<g id="edge26" class="edge">
<title>Node0&#45;&gt;Node17</title>
<path fill="none" stroke="#191970" d="M477.2699,-427.5697C653.6221,-385.4518 1209.9532,-252.5843 1380.1592,-211.9343"/>
<polygon fill="#191970" stroke="#191970" points="1381.187,-215.2873 1390.1004,-209.56 1379.5609,-208.4788 1381.187,-215.2873"/>
</g>
<!-- Node18 -->
<g id="node19" class="node">
<title>Node18</title>
<g id="a_node19"><a xlink:href="integrals_8hh.html" target="_top" xlink:title="small_amplitude_solver\l/integrals.hh">
<polygon fill="none" stroke="#000000" points="457.6292,-246.5 457.6292,-276.5 576.6292,-276.5 576.6292,-246.5 457.6292,-246.5"/>
<text text-anchor="start" x="465.6292" y="-264.5" font-family="Helvetica,sans-Serif" font-size="10.00" fill="#000000">small_amplitude_solver</text>
<text text-anchor="middle" x="517.1292" y="-253.5" font-family="Helvetica,sans-Serif" font-size="10.00" fill="#000000">/integrals.hh</text>
</a>
</g>
</g>
<!-- Node0&#45;&gt;Node18 -->
<g id="edge28" class="edge">
<title>Node0&#45;&gt;Node18</title>
<path fill="none" stroke="#191970" d="M431.1436,-425.2386C447.446,-394.1946 484.5898,-323.4633 504.297,-285.9359"/>
<polygon fill="#191970" stroke="#191970" points="507.5845,-287.2036 509.1351,-276.7228 501.387,-283.949 507.5845,-287.2036"/>
</g>
<!-- Node2 -->
<g id="node3" class="node">
<title>Node2</title>
<g id="a_node3"><a xlink:href="basic__solver_8hh.html" target="_top" xlink:title="basic_solver.hh">
<polygon fill="none" stroke="#000000" points="195.1292,-313.5 195.1292,-332.5 279.1292,-332.5 279.1292,-313.5 195.1292,-313.5"/>
<text text-anchor="middle" x="237.1292" y="-320.5" font-family="Helvetica,sans-Serif" font-size="10.00" fill="#000000">basic_solver.hh</text>
</a>
</g>
</g>
<!-- Node1&#45;&gt;Node2 -->
<g id="edge2" class="edge">
<title>Node1&#45;&gt;Node2</title>
<path fill="none" stroke="#191970" d="M270.9876,-369.2455C265.2848,-361.4564 257.1392,-350.3308 250.2668,-340.9439"/>
<polygon fill="#191970" stroke="#191970" points="252.9205,-338.6437 244.189,-332.6427 247.2724,-342.7789 252.9205,-338.6437"/>
</g>
<!-- Node3 -->
<g id="node4" class="node">
<title>Node3</title>
<g id="a_node4"><a xlink:href="types_8hh.html" target="_top" xlink:title="types.hh">
<polygon fill="none" stroke="#000000" points="93.1292,-190.5 93.1292,-209.5 147.1292,-209.5 147.1292,-190.5 93.1292,-190.5"/>
<text text-anchor="middle" x="120.1292" y="-197.5" font-family="Helvetica,sans-Serif" font-size="10.00" fill="#000000">types.hh</text>
</a>
</g>
</g>
<!-- Node2&#45;&gt;Node3 -->
<g id="edge3" class="edge">
<title>Node2&#45;&gt;Node3</title>
<path fill="none" stroke="#191970" d="M211.7713,-313.4686C194.2773,-305.8285 171.4927,-293.6302 156.1292,-277 140.8504,-260.4615 130.9961,-236.2847 125.5276,-219.4496"/>
<polygon fill="#191970" stroke="#191970" points="128.7951,-218.1625 122.5544,-209.6007 122.0938,-220.1856 128.7951,-218.1625"/>
</g>
<!-- Node5 -->
<g id="node6" class="node">
<title>Node5</title>
<g id="a_node6"><a xlink:href="domain_8hh.html" target="_top" xlink:title="domain.hh">
<polygon fill="none" stroke="#000000" points="266.1292,-190.5 266.1292,-209.5 328.1292,-209.5 328.1292,-190.5 266.1292,-190.5"/>
<text text-anchor="middle" x="297.1292" y="-197.5" font-family="Helvetica,sans-Serif" font-size="10.00" fill="#000000">domain.hh</text>
</a>
</g>
</g>
<!-- Node2&#45;&gt;Node5 -->
<g id="edge5" class="edge">
<title>Node2&#45;&gt;Node5</title>
<path fill="none" stroke="#191970" d="M248.5485,-313.1732C257.8582,-304.5494 270.6487,-291.1966 278.1292,-277 287.6329,-258.9639 292.499,-236.0335 294.9129,-219.9035"/>
<polygon fill="#191970" stroke="#191970" points="298.4435,-219.8967 296.2685,-209.5275 291.5025,-218.9898 298.4435,-219.8967"/>
</g>
<!-- Node14 -->
<g id="node15" class="node">
<title>Node14</title>
<g id="a_node15"><a xlink:href="discrete__function_8hh.html" target="_top" xlink:title="discrete_function.hh">
<polygon fill="none" stroke="#000000" points="165.1292,-252 165.1292,-271 269.1292,-271 269.1292,-252 165.1292,-252"/>
<text text-anchor="middle" x="217.1292" y="-259" font-family="Helvetica,sans-Serif" font-size="10.00" fill="#000000">discrete_function.hh</text>
</a>
</g>
</g>
<!-- Node2&#45;&gt;Node14 -->
<g id="edge17" class="edge">
<title>Node2&#45;&gt;Node14</title>
<path fill="none" stroke="#191970" d="M234.0042,-313.3906C231.2027,-304.776 227.0059,-291.8708 223.4986,-281.0858"/>
<polygon fill="#191970" stroke="#191970" points="226.7194,-279.6722 220.2983,-271.2449 220.0625,-281.8371 226.7194,-279.6722"/>
</g>
<!-- Node4 -->
<g id="node5" class="node">
<title>Node4</title>
<polygon fill="none" stroke="#bfbfbf" points="173.6292,-.5 173.6292,-19.5 240.6292,-19.5 240.6292,-.5 173.6292,-.5"/>
<text text-anchor="middle" x="207.1292" y="-7.5" font-family="Helvetica,sans-Serif" font-size="10.00" fill="#000000">blitz/array.h</text>
</g>
<!-- Node3&#45;&gt;Node4 -->
<g id="edge4" class="edge">
<title>Node3&#45;&gt;Node4</title>
<path fill="none" stroke="#191970" d="M92.9165,-195.8976C68.9056,-190.6811 35.2883,-179.1157 19.1292,-154 -4.4375,-117.3708 -7.7614,-90.2634 19.1292,-56 20.2674,-54.5497 108.2724,-33.4521 163.4572,-20.3387"/>
<polygon fill="#191970" stroke="#191970" points="164.4302,-23.7051 173.3512,-17.9896 162.8131,-16.8944 164.4302,-23.7051"/>
</g>
<!-- Node5&#45;&gt;Node4 -->
<g id="edge10" class="edge">
<title>Node5&#45;&gt;Node4</title>
<path fill="none" stroke="#191970" d="M302.361,-190.4788C307.0245,-181.4109 313.5062,-167.2215 316.1292,-154 319.7618,-135.6902 321.6117,-129.8434 316.1292,-112 307.2952,-83.2485 299.6231,-77.0406 278.1292,-56 265.3869,-43.5264 248.7622,-32.5381 234.8032,-24.4318"/>
<polygon fill="#191970" stroke="#191970" points="236.5157,-21.3794 226.0828,-19.5343 233.088,-27.4827 236.5157,-21.3794"/>
</g>
<!-- Node6 -->
<g id="node7" class="node">
<title>Node6</title>
<polygon fill="none" stroke="#bfbfbf" points="351.1292,-.5 351.1292,-19.5 395.1292,-19.5 395.1292,-.5 351.1292,-.5"/>
<text text-anchor="middle" x="373.1292" y="-7.5" font-family="Helvetica,sans-Serif" font-size="10.00" fill="#000000">cmath</text>
</g>
<!-- Node5&#45;&gt;Node6 -->
<g id="edge6" class="edge">
<title>Node5&#45;&gt;Node6</title>
<path fill="none" stroke="#191970" d="M312.958,-190.3461C324.8881,-182.1908 340.6023,-169.3938 349.1292,-154 371.2462,-114.0718 374.1226,-59.0563 373.8839,-29.9415"/>
<polygon fill="#191970" stroke="#191970" points="377.3802,-29.7331 373.6618,-19.8122 370.3819,-29.8865 377.3802,-29.7331"/>
</g>
<!-- Node7 -->
<g id="node8" class="node">
<title>Node7</title>
<polygon fill="none" stroke="#bfbfbf" points="257.1292,-123.5 257.1292,-142.5 307.1292,-142.5 307.1292,-123.5 257.1292,-123.5"/>
<text text-anchor="middle" x="282.1292" y="-130.5" font-family="Helvetica,sans-Serif" font-size="10.00" fill="#000000">iomanip</text>
</g>
<!-- Node5&#45;&gt;Node7 -->
<g id="edge7" class="edge">
<title>Node5&#45;&gt;Node7</title>
<path fill="none" stroke="#191970" d="M294.9801,-190.4005C292.7746,-180.5495 289.2811,-164.9451 286.4929,-152.4912"/>
<polygon fill="#191970" stroke="#191970" points="289.8746,-151.5754 284.2744,-142.5817 283.0437,-153.1048 289.8746,-151.5754"/>
</g>
<!-- Node8 -->
<g id="node9" class="node">
<title>Node8</title>
<polygon fill="none" stroke="#bfbfbf" points="99.6292,-123.5 99.6292,-142.5 148.6292,-142.5 148.6292,-123.5 99.6292,-123.5"/>
<text text-anchor="middle" x="124.1292" y="-130.5" font-family="Helvetica,sans-Serif" font-size="10.00" fill="#000000">istream</text>
</g>
<!-- Node5&#45;&gt;Node8 -->
<g id="edge8" class="edge">
<title>Node5&#45;&gt;Node8</title>
<path fill="none" stroke="#191970" d="M265.9669,-191.9467C237.2601,-184.005 193.8355,-170.6549 158.1292,-154 154.3469,-152.2357 150.4647,-150.1411 146.7384,-147.9686"/>
<polygon fill="#191970" stroke="#191970" points="148.2931,-144.8156 137.9428,-142.5523 144.6226,-150.7762 148.2931,-144.8156"/>
</g>
<!-- Node9 -->
<g id="node10" class="node">
<title>Node9</title>
<polygon fill="none" stroke="#bfbfbf" points="401.1292,-123.5 401.1292,-142.5 453.1292,-142.5 453.1292,-123.5 401.1292,-123.5"/>
<text text-anchor="middle" x="427.1292" y="-130.5" font-family="Helvetica,sans-Serif" font-size="10.00" fill="#000000">ostream</text>
</g>
<!-- Node5&#45;&gt;Node9 -->
<g id="edge9" class="edge">
<title>Node5&#45;&gt;Node9</title>
<path fill="none" stroke="#191970" d="M316.1228,-190.3682C334.359,-181.1025 362.667,-166.6723 387.1292,-154 391.236,-151.8726 395.5732,-149.611 399.8167,-147.3899"/>
<polygon fill="#191970" stroke="#191970" points="401.6022,-150.4057 408.8312,-142.6602 398.3498,-144.2071 401.6022,-150.4057"/>
</g>
<!-- Node10 -->
<g id="node11" class="node">
<title>Node10</title>
<g id="a_node11"><a xlink:href="validators_8hh.html" target="_top" xlink:title="validators.hh">
<polygon fill="none" stroke="#000000" points="167.1292,-123.5 167.1292,-142.5 239.1292,-142.5 239.1292,-123.5 167.1292,-123.5"/>
<text text-anchor="middle" x="203.1292" y="-130.5" font-family="Helvetica,sans-Serif" font-size="10.00" fill="#000000">validators.hh</text>
</a>
</g>
</g>
<!-- Node5&#45;&gt;Node10 -->
<g id="edge11" class="edge">
<title>Node5&#45;&gt;Node10</title>
<path fill="none" stroke="#191970" d="M283.6613,-190.4005C268.3048,-179.4549 242.9829,-161.4064 224.8317,-148.4688"/>
<polygon fill="#191970" stroke="#191970" points="226.7468,-145.5358 216.5721,-142.5817 222.6839,-151.236 226.7468,-145.5358"/>
</g>
<!-- Node11 -->
<g id="node12" class="node">
<title>Node11</title>
<polygon fill="none" stroke="#bfbfbf" points="209.6292,-56.5 209.6292,-75.5 268.6292,-75.5 268.6292,-56.5 209.6292,-56.5"/>
<text text-anchor="middle" x="239.1292" y="-63.5" font-family="Helvetica,sans-Serif" font-size="10.00" fill="#000000">stdexcept</text>
</g>
<!-- Node10&#45;&gt;Node11 -->
<g id="edge12" class="edge">
<title>Node10&#45;&gt;Node11</title>
<path fill="none" stroke="#191970" d="M208.2871,-123.4005C213.6872,-113.3505 222.3047,-97.3122 229.0598,-84.7403"/>
<polygon fill="#191970" stroke="#191970" points="232.3308,-86.0472 233.9809,-75.5817 226.1645,-82.734 232.3308,-86.0472"/>
</g>
<!-- Node12 -->
<g id="node13" class="node">
<title>Node12</title>
<g id="a_node13"><a xlink:href="blitz_8hh.html" target="_top" xlink:title="blitz.hh">
<polygon fill="none" stroke="#000000" points="143.1292,-56.5 143.1292,-75.5 191.1292,-75.5 191.1292,-56.5 143.1292,-56.5"/>
<text text-anchor="middle" x="167.1292" y="-63.5" font-family="Helvetica,sans-Serif" font-size="10.00" fill="#000000">blitz.hh</text>
</a>
</g>
</g>
<!-- Node10&#45;&gt;Node12 -->
<g id="edge13" class="edge">
<title>Node10&#45;&gt;Node12</title>
<path fill="none" stroke="#191970" d="M197.9713,-123.4005C192.5713,-113.3505 183.9537,-97.3122 177.1986,-84.7403"/>
<polygon fill="#191970" stroke="#191970" points="180.0939,-82.734 172.2776,-75.5817 173.9277,-86.0472 180.0939,-82.734"/>
</g>
<!-- Node12&#45;&gt;Node4 -->
<g id="edge15" class="edge">
<title>Node12&#45;&gt;Node4</title>
<path fill="none" stroke="#191970" d="M174.0967,-56.2455C179.6603,-48.4564 187.6072,-37.3308 194.3121,-27.9439"/>
<polygon fill="#191970" stroke="#191970" points="197.2772,-29.8144 200.2416,-19.6427 191.5811,-25.7457 197.2772,-29.8144"/>
</g>
<!-- Node12&#45;&gt;Node6 -->
<g id="edge16" class="edge">
<title>Node12&#45;&gt;Node6</title>
<path fill="none" stroke="#191970" d="M191.2516,-58.5858C194.2369,-57.6991 197.2502,-56.8187 200.1292,-56 249.0278,-42.0946 306.0707,-27.1782 340.885,-18.2203"/>
<polygon fill="#191970" stroke="#191970" points="342.1261,-21.5153 350.9421,-15.6393 340.386,-14.7351 342.1261,-21.5153"/>
</g>
<!-- Node13 -->
<g id="node14" class="node">
<title>Node13</title>
<polygon fill="none" stroke="#bfbfbf" points="99.1292,-.5 99.1292,-19.5 155.1292,-19.5 155.1292,-.5 99.1292,-.5"/>
<text text-anchor="middle" x="127.1292" y="-7.5" font-family="Helvetica,sans-Serif" font-size="10.00" fill="#000000">algorithm</text>
</g>
<!-- Node12&#45;&gt;Node13 -->
<g id="edge14" class="edge">
<title>Node12&#45;&gt;Node13</title>
<path fill="none" stroke="#191970" d="M160.1618,-56.2455C154.5981,-48.4564 146.6512,-37.3308 139.9463,-27.9439"/>
<polygon fill="#191970" stroke="#191970" points="142.6773,-25.7457 134.0168,-19.6427 136.9812,-29.8144 142.6773,-25.7457"/>
</g>
<!-- Node14&#45;&gt;Node3 -->
<g id="edge23" class="edge">
<title>Node14&#45;&gt;Node3</title>
<path fill="none" stroke="#191970" d="M201.973,-251.8906C186.4549,-242.0519 162.11,-226.6167 144.0008,-215.1351"/>
<polygon fill="#191970" stroke="#191970" points="145.4988,-211.9407 135.179,-209.5419 141.7505,-217.8526 145.4988,-211.9407"/>
</g>
<!-- Node15 -->
<g id="node16" class="node">
<title>Node15</title>
<g id="a_node16"><a xlink:href="grid_8hh.html" target="_top" xlink:title="grid.hh">
<polygon fill="none" stroke="#000000" points="165.1292,-190.5 165.1292,-209.5 211.1292,-209.5 211.1292,-190.5 165.1292,-190.5"/>
<text text-anchor="middle" x="188.1292" y="-197.5" font-family="Helvetica,sans-Serif" font-size="10.00" fill="#000000">grid.hh</text>
</a>
</g>
</g>
<!-- Node14&#45;&gt;Node15 -->
<g id="edge18" class="edge">
<title>Node14&#45;&gt;Node15</title>
<path fill="none" stroke="#191970" d="M212.598,-251.8906C208.4511,-243.0965 202.196,-229.8312 197.0483,-218.9145"/>
<polygon fill="#191970" stroke="#191970" points="200.1552,-217.2969 192.7244,-209.7449 193.8238,-220.2825 200.1552,-217.2969"/>
</g>
<!-- Node15&#45;&gt;Node6 -->
<g id="edge19" class="edge">
<title>Node15&#45;&gt;Node6</title>
<path fill="none" stroke="#191970" d="M165.0888,-191.8192C134.6207,-180.7724 84.1678,-161.5952 79.1292,-154 68.8102,-138.4449 72.0636,-129.2778 79.1292,-112 92.334,-79.7103 103.3862,-72.4879 134.1292,-56 169.5492,-37.0038 284.3095,-20.838 340.9311,-13.7862"/>
<polygon fill="#191970" stroke="#191970" points="341.6174,-17.2284 351.1174,-12.538 340.7659,-10.2803 341.6174,-17.2284"/>
</g>
<!-- Node15&#45;&gt;Node8 -->
<g id="edge20" class="edge">
<title>Node15&#45;&gt;Node8</title>
<path fill="none" stroke="#191970" d="M178.9596,-190.4005C168.8843,-179.853 152.5085,-162.7096 140.2723,-149.8998"/>
<polygon fill="#191970" stroke="#191970" points="142.7201,-147.3952 133.2819,-142.5817 137.6583,-152.2304 142.7201,-147.3952"/>
</g>
<!-- Node15&#45;&gt;Node10 -->
<g id="edge22" class="edge">
<title>Node15&#45;&gt;Node10</title>
<path fill="none" stroke="#191970" d="M190.2784,-190.4005C192.4838,-180.5495 195.9773,-164.9451 198.7655,-152.4912"/>
<polygon fill="#191970" stroke="#191970" points="202.2147,-153.1048 200.9841,-142.5817 195.3838,-151.5754 202.2147,-153.1048"/>
</g>
<!-- Node15&#45;&gt;Node12 -->
<g id="edge21" class="edge">
<title>Node15&#45;&gt;Node12</title>
<path fill="none" stroke="#191970" d="M164.8178,-192.3175C138.6267,-183.1585 98.6455,-167.4053 90.1292,-154 80.1195,-138.244 80.9167,-128.2349 90.1292,-112 99.5088,-95.4708 117.446,-84.2469 133.6495,-77.0266"/>
<polygon fill="#191970" stroke="#191970" points="134.9875,-80.2608 142.9117,-73.2282 132.3314,-73.7843 134.9875,-80.2608"/>
</g>
<!-- Node16&#45;&gt;Node3 -->
<g id="edge25" class="edge">
<title>Node16&#45;&gt;Node3</title>
<path fill="none" stroke="#191970" d="M106.3062,-313.3484C108.7598,-293.2295 114.4633,-246.4608 117.7256,-219.7098"/>
<polygon fill="#191970" stroke="#191970" points="121.2213,-219.9569 118.9577,-209.6068 114.2728,-219.1095 121.2213,-219.9569"/>
</g>
<!-- Node17&#45;&gt;Node6 -->
<g id="edge27" class="edge">
<title>Node17&#45;&gt;Node6</title>
<path fill="none" stroke="#191970" d="M1429.5287,-190.1256C1427.3027,-163.2037 1417.0606,-88.3764 1371.1292,-56 1330.7698,-27.5512 572.3336,-13.3135 405.433,-10.5176"/>
<polygon fill="#191970" stroke="#191970" points="405.3655,-7.0161 395.3089,-10.3499 405.2495,-14.0151 405.3655,-7.0161"/>
</g>
<!-- Node18&#45;&gt;Node3 -->
<g id="edge42" class="edge">
<title>Node18&#45;&gt;Node3</title>
<path fill="none" stroke="#191970" d="M457.6279,-255.3987C387.8386,-247.7106 268.5605,-232.9154 157.2217,-210.0095"/>
<polygon fill="#191970" stroke="#191970" points="157.6678,-206.5274 147.164,-207.9134 156.2395,-213.3801 157.6678,-206.5274"/>
</g>
<!-- Node18&#45;&gt;Node6 -->
<g id="edge29" class="edge">
<title>Node18&#45;&gt;Node6</title>
<path fill="none" stroke="#191970" d="M576.8716,-260.2563C782.55,-254.9304 1443.0959,-228.6464 1338.1292,-112 1274.2369,-40.9984 566.2071,-15.7461 405.4592,-10.9077"/>
<polygon fill="#191970" stroke="#191970" points="405.359,-7.4033 395.2599,-10.6062 405.1521,-14.4003 405.359,-7.4033"/>
</g>
<!-- Node18&#45;&gt;Node17 -->
<g id="edge41" class="edge">
<title>Node18&#45;&gt;Node17</title>
<path fill="none" stroke="#191970" d="M576.7244,-259.4706C714.6494,-254.4211 1066.4249,-239.5181 1359.1292,-210 1360.2439,-209.8876 1361.3679,-209.7707 1362.4993,-209.6499"/>
<polygon fill="#191970" stroke="#191970" points="1363.2888,-213.0824 1372.825,-208.4661 1362.4915,-206.1279 1363.2888,-213.0824"/>
</g>
<!-- Node19 -->
<g id="node20" class="node">
<title>Node19</title>
<polygon fill="none" stroke="#bfbfbf" points="355.1292,-190.5 355.1292,-209.5 405.1292,-209.5 405.1292,-190.5 355.1292,-190.5"/>
<text text-anchor="middle" x="380.1292" y="-197.5" font-family="Helvetica,sans-Serif" font-size="10.00" fill="#000000">fstream</text>
</g>
<!-- Node18&#45;&gt;Node19 -->
<g id="edge30" class="edge">
<title>Node18&#45;&gt;Node19</title>
<path fill="none" stroke="#191970" d="M483.6153,-246.4554C461.358,-236.464 432.3645,-223.4487 410.7307,-213.7372"/>
<polygon fill="#191970" stroke="#191970" points="411.9157,-210.4327 401.3594,-209.5303 409.0489,-216.8187 411.9157,-210.4327"/>
</g>
<!-- Node20 -->
<g id="node21" class="node">
<title>Node20</title>
<polygon fill="none" stroke="#bfbfbf" points="423.1292,-190.5 423.1292,-209.5 477.1292,-209.5 477.1292,-190.5 423.1292,-190.5"/>
<text text-anchor="middle" x="450.1292" y="-197.5" font-family="Helvetica,sans-Serif" font-size="10.00" fill="#000000">iostream</text>
</g>
<!-- Node18&#45;&gt;Node20 -->
<g id="edge31" class="edge">
<title>Node18&#45;&gt;Node20</title>
<path fill="none" stroke="#191970" d="M500.5674,-246.2977C490.7827,-237.3163 478.3819,-225.9334 468.3249,-216.702"/>
<polygon fill="#191970" stroke="#191970" points="470.5906,-214.0307 460.8568,-209.8469 465.857,-219.1876 470.5906,-214.0307"/>
</g>
<!-- Node21 -->
<g id="node22" class="node">
<title>Node21</title>
<polygon fill="none" stroke="#bfbfbf" points="495.1292,-190.5 495.1292,-209.5 539.1292,-209.5 539.1292,-190.5 495.1292,-190.5"/>
<text text-anchor="middle" x="517.1292" y="-197.5" font-family="Helvetica,sans-Serif" font-size="10.00" fill="#000000">vector</text>
</g>
<!-- Node18&#45;&gt;Node21 -->
<g id="edge32" class="edge">
<title>Node18&#45;&gt;Node21</title>
<path fill="none" stroke="#191970" d="M517.1292,-246.2977C517.1292,-238.3834 517.1292,-228.6043 517.1292,-220.0759"/>
<polygon fill="#191970" stroke="#191970" points="520.6293,-219.8469 517.1292,-209.8469 513.6293,-219.847 520.6293,-219.8469"/>
</g>
<!-- Node22 -->
<g id="node23" class="node">
<title>Node22</title>
<g id="a_node23"><a xlink:href="delaunay__interpolation_8hh.html" target="_top" xlink:title="delaunay_interpolation.hh">
<polygon fill="none" stroke="#000000" points="729.6292,-190.5 729.6292,-209.5 856.6292,-209.5 856.6292,-190.5 729.6292,-190.5"/>
<text text-anchor="middle" x="793.1292" y="-197.5" font-family="Helvetica,sans-Serif" font-size="10.00" fill="#000000">delaunay_interpolation.hh</text>
</a>
</g>
</g>
<!-- Node18&#45;&gt;Node22 -->
<g id="edge33" class="edge">
<title>Node18&#45;&gt;Node22</title>
<path fill="none" stroke="#191970" d="M576.6773,-248.2311C625.3974,-237.375 693.6527,-222.166 740.4156,-211.746"/>
<polygon fill="#191970" stroke="#191970" points="741.3467,-215.1244 750.346,-209.5332 739.8242,-208.292 741.3467,-215.1244"/>
</g>
<!-- Node30 -->
<g id="node31" class="node">
<title>Node30</title>
<g id="a_node31"><a xlink:href="wave_8hh.html" target="_top" xlink:title="wave.hh">
<polygon fill="none" stroke="#000000" points="557.6292,-190.5 557.6292,-209.5 610.6292,-209.5 610.6292,-190.5 557.6292,-190.5"/>
<text text-anchor="middle" x="584.1292" y="-197.5" font-family="Helvetica,sans-Serif" font-size="10.00" fill="#000000">wave.hh</text>
</a>
</g>
</g>
<!-- Node18&#45;&gt;Node30 -->
<g id="edge43" class="edge">
<title>Node18&#45;&gt;Node30</title>
<path fill="none" stroke="#191970" d="M533.691,-246.2977C543.4757,-237.3163 555.8766,-225.9334 565.9335,-216.702"/>
<polygon fill="#191970" stroke="#191970" points="568.4015,-219.1876 573.4017,-209.8469 563.6679,-214.0307 568.4015,-219.1876"/>
</g>
<!-- Node23 -->
<g id="node24" class="node">
<title>Node23</title>
<polygon fill="none" stroke="#bfbfbf" points="607.6292,-123.5 607.6292,-142.5 642.6292,-142.5 642.6292,-123.5 607.6292,-123.5"/>
<text text-anchor="middle" x="625.1292" y="-130.5" font-family="Helvetica,sans-Serif" font-size="10.00" fill="#000000">map</text>
</g>
<!-- Node22&#45;&gt;Node23 -->
<g id="edge34" class="edge">
<title>Node22&#45;&gt;Node23</title>
<path fill="none" stroke="#191970" d="M751.5025,-190.477C722.5916,-182.9061 683.7391,-170.7873 652.1292,-154 649.3348,-152.5159 646.534,-150.74 643.8505,-148.8579"/>
<polygon fill="#191970" stroke="#191970" points="645.8951,-146.0152 635.8287,-142.7106 641.6372,-151.5713 645.8951,-146.0152"/>
</g>
<!-- Node24 -->
<g id="node25" class="node">
<title>Node24</title>
<polygon fill="none" stroke="#bfbfbf" points="661.1292,-123.5 661.1292,-142.5 771.1292,-142.5 771.1292,-123.5 661.1292,-123.5"/>
<text text-anchor="middle" x="716.1292" y="-130.5" font-family="Helvetica,sans-Serif" font-size="10.00" fill="#000000">CGAL/number_utils.h</text>
</g>
<!-- Node22&#45;&gt;Node24 -->
<g id="edge35" class="edge">
<title>Node22&#45;&gt;Node24</title>
<path fill="none" stroke="#191970" d="M782.097,-190.4005C769.7464,-179.6539 749.5269,-162.0603 734.7235,-149.1794"/>
<polygon fill="#191970" stroke="#191970" points="736.9824,-146.5055 727.141,-142.5817 732.3875,-151.7863 736.9824,-146.5055"/>
</g>
<!-- Node25 -->
<g id="node26" class="node">
<title>Node25</title>
<polygon fill="none" stroke="#bfbfbf" points="789.1292,-123.5 789.1292,-142.5 953.1292,-142.5 953.1292,-123.5 789.1292,-123.5"/>
<text text-anchor="middle" x="871.1292" y="-130.5" font-family="Helvetica,sans-Serif" font-size="10.00" fill="#000000">CGAL/Delaunay_triangulation_2.h</text>
</g>
<!-- Node22&#45;&gt;Node25 -->
<g id="edge36" class="edge">
<title>Node22&#45;&gt;Node25</title>
<path fill="none" stroke="#191970" d="M804.3047,-190.4005C816.8157,-179.6539 837.2978,-162.0603 852.2934,-149.1794"/>
<polygon fill="#191970" stroke="#191970" points="854.6693,-151.7526 859.9745,-142.5817 850.1081,-146.4426 854.6693,-151.7526"/>
</g>
<!-- Node26 -->
<g id="node27" class="node">
<title>Node26</title>
<polygon fill="none" stroke="#bfbfbf" points="971.1292,-112.5 971.1292,-153.5 1093.1292,-153.5 1093.1292,-112.5 971.1292,-112.5"/>
<text text-anchor="start" x="979.1292" y="-141.5" font-family="Helvetica,sans-Serif" font-size="10.00" fill="#000000">CGAL/Exact_predicates</text>
<text text-anchor="start" x="979.1292" y="-130.5" font-family="Helvetica,sans-Serif" font-size="10.00" fill="#000000">_inexact_constructions</text>
<text text-anchor="middle" x="1032.1292" y="-119.5" font-family="Helvetica,sans-Serif" font-size="10.00" fill="#000000">_kernel.h</text>
</g>
<!-- Node22&#45;&gt;Node26 -->
<g id="edge37" class="edge">
<title>Node22&#45;&gt;Node26</title>
<path fill="none" stroke="#191970" d="M829.1387,-190.4859C861.3296,-181.9169 910.0301,-168.7974 961.1605,-154.2477"/>
<polygon fill="#191970" stroke="#191970" points="962.4181,-157.5286 971.073,-151.4176 960.4963,-150.7975 962.4181,-157.5286"/>
</g>
<!-- Node27 -->
<g id="node28" class="node">
<title>Node27</title>
<polygon fill="none" stroke="#bfbfbf" points="1111.1292,-118 1111.1292,-148 1211.1292,-148 1211.1292,-118 1111.1292,-118"/>
<text text-anchor="start" x="1119.1292" y="-136" font-family="Helvetica,sans-Serif" font-size="10.00" fill="#000000">CGAL/Interpolation</text>
<text text-anchor="middle" x="1161.1292" y="-125" font-family="Helvetica,sans-Serif" font-size="10.00" fill="#000000">_traits_2.h</text>
</g>
<!-- Node22&#45;&gt;Node27 -->
<g id="edge38" class="edge">
<title>Node22&#45;&gt;Node27</title>
<path fill="none" stroke="#191970" d="M856.8618,-194.1653C919.8393,-187.5478 1018.5964,-174.8732 1102.1292,-154 1105.5014,-153.1574 1108.9514,-152.1977 1112.4072,-151.1634"/>
<polygon fill="#191970" stroke="#191970" points="1113.6297,-154.4475 1122.1021,-148.0859 1111.5118,-147.7756 1113.6297,-154.4475"/>
</g>
<!-- Node28 -->
<g id="node29" class="node">
<title>Node28</title>
<polygon fill="none" stroke="#bfbfbf" points="1229.6292,-118 1229.6292,-148 1328.6292,-148 1328.6292,-118 1229.6292,-118"/>
<text text-anchor="start" x="1237.6292" y="-136" font-family="Helvetica,sans-Serif" font-size="10.00" fill="#000000">CGAL/interpolation</text>
<text text-anchor="middle" x="1279.1292" y="-125" font-family="Helvetica,sans-Serif" font-size="10.00" fill="#000000">_functions.h</text>
</g>
<!-- Node22&#45;&gt;Node28 -->
<g id="edge39" class="edge">
<title>Node22&#45;&gt;Node28</title>
<path fill="none" stroke="#191970" d="M856.8397,-197.7939C940.9692,-193.8262 1093.2893,-182.9814 1220.1292,-154 1223.733,-153.1766 1227.4203,-152.2015 1231.1052,-151.1294"/>
<polygon fill="#191970" stroke="#191970" points="1232.2934,-154.4252 1240.7953,-148.1032 1230.2066,-147.7434 1232.2934,-154.4252"/>
</g>
<!-- Node29 -->
<g id="node30" class="node">
<title>Node29</title>
<polygon fill="none" stroke="#bfbfbf" points="471.1292,-118 471.1292,-148 589.1292,-148 589.1292,-118 471.1292,-118"/>
<text text-anchor="start" x="479.1292" y="-136" font-family="Helvetica,sans-Serif" font-size="10.00" fill="#000000">CGAL/natural_neighbor</text>
<text text-anchor="middle" x="530.1292" y="-125" font-family="Helvetica,sans-Serif" font-size="10.00" fill="#000000">_coordinates_2.h</text>
</g>
<!-- Node22&#45;&gt;Node29 -->
<g id="edge40" class="edge">
<title>Node22&#45;&gt;Node29</title>
<path fill="none" stroke="#191970" d="M749.3996,-190.4534C709.9508,-181.6463 650.4197,-167.8713 599.1292,-154 595.5332,-153.0275 591.8411,-151.9974 588.1239,-150.9362"/>
<polygon fill="#191970" stroke="#191970" points="588.8536,-147.5035 578.2741,-148.073 586.8996,-154.2253 588.8536,-147.5035"/>
</g>
<!-- Node30&#45;&gt;Node9 -->
<g id="edge44" class="edge">
<title>Node30&#45;&gt;Node9</title>
<path fill="none" stroke="#191970" d="M557.3776,-191.4648C532.2679,-183.0935 493.9185,-169.3753 462.1292,-154 458.2538,-152.1256 454.2468,-149.9582 450.3887,-147.7425"/>
<polygon fill="#191970" stroke="#191970" points="452.1681,-144.7285 441.7893,-142.5997 448.5753,-150.7362 452.1681,-144.7285"/>
</g>
</g>
</svg>
