<?xml version="1.0" encoding="UTF-8" standalone="no"?>
<!DOCTYPE svg PUBLIC "-//W3C//DTD SVG 1.1//EN"
 "http://www.w3.org/Graphics/SVG/1.1/DTD/svg11.dtd">
<!-- Generated by graphviz version 2.36.0 (20140111.2315)
 -->
<!-- Title: /home/travis/build/igankevich/arma/src/velocity/small_amplitude_solver.hh Pages: 1 -->
<svg width="359pt" height="398pt"
 viewBox="0.00 0.00 359.38 398.00" xmlns="http://www.w3.org/2000/svg" xmlns:xlink="http://www.w3.org/1999/xlink">
<g id="graph0" class="graph" transform="scale(1 1) rotate(0) translate(4 394)">
<title>/home/travis/build/igankevich/arma/src/velocity/small_amplitude_solver.hh</title>
<!-- Node1 -->
<g id="node1" class="node"><title>Node1</title>
<polygon fill="#bfbfbf" stroke="black" points="82.5,-337 82.5,-389 209.5,-389 209.5,-337 82.5,-337"/>
<text text-anchor="start" x="90.5" y="-377" font-family="Helvetica,sans-Serif" font-size="10.00">/home/travis/build</text>
<text text-anchor="start" x="90.5" y="-366" font-family="Helvetica,sans-Serif" font-size="10.00">/igankevich/arma/src</text>
<text text-anchor="start" x="90.5" y="-355" font-family="Helvetica,sans-Serif" font-size="10.00">/velocity/small_amplitude</text>
<text text-anchor="middle" x="146" y="-344" font-family="Helvetica,sans-Serif" font-size="10.00">_solver.hh</text>
</g>
<!-- Node2 -->
<g id="node2" class="node"><title>Node2</title>
<g id="a_node2"><a xlink:href="basic__solver_8hh.html" target="_top" xlink:title="basic_solver.hh">
<polygon fill="none" stroke="black" points="103.5,-280.5 103.5,-299.5 188.5,-299.5 188.5,-280.5 103.5,-280.5"/>
<text text-anchor="middle" x="146" y="-287.5" font-family="Helvetica,sans-Serif" font-size="10.00">basic_solver.hh</text>
</a>
</g>
</g>
<!-- Node1&#45;&gt;Node2 -->
<g id="edge1" class="edge"><title>Node1&#45;&gt;Node2</title>
<path fill="none" stroke="midnightblue" d="M146,-336.768C146,-327.89 146,-318.074 146,-309.816"/>
<polygon fill="midnightblue" stroke="midnightblue" points="149.5,-309.757 146,-299.757 142.5,-309.757 149.5,-309.757"/>
</g>
<!-- Node3 -->
<g id="node3" class="node"><title>Node3</title>
<g id="a_node3"><a xlink:href="types_8hh.html" target="_top" xlink:title="types.hh">
<polygon fill="none" stroke="black" points="54,-168.5 54,-187.5 108,-187.5 108,-168.5 54,-168.5"/>
<text text-anchor="middle" x="81" y="-175.5" font-family="Helvetica,sans-Serif" font-size="10.00">types.hh</text>
</a>
</g>
</g>
<!-- Node2&#45;&gt;Node3 -->
<g id="edge2" class="edge"><title>Node2&#45;&gt;Node3</title>
<path fill="none" stroke="midnightblue" d="M140.9,-280.368C130.22,-262.296 105.332,-220.176 91.2271,-196.307"/>
<polygon fill="midnightblue" stroke="midnightblue" points="94.1773,-194.42 86.0767,-187.591 88.1508,-197.981 94.1773,-194.42"/>
</g>
<!-- Node5 -->
<g id="node5" class="node"><title>Node5</title>
<g id="a_node5"><a xlink:href="domain_8hh.html" target="_top" xlink:title="domain.hh">
<polygon fill="none" stroke="black" points="126,-168.5 126,-187.5 188,-187.5 188,-168.5 126,-168.5"/>
<text text-anchor="middle" x="157" y="-175.5" font-family="Helvetica,sans-Serif" font-size="10.00">domain.hh</text>
</a>
</g>
</g>
<!-- Node2&#45;&gt;Node5 -->
<g id="edge4" class="edge"><title>Node2&#45;&gt;Node5</title>
<path fill="none" stroke="midnightblue" d="M146.863,-280.368C148.638,-262.617 152.733,-221.666 155.14,-197.597"/>
<polygon fill="midnightblue" stroke="midnightblue" points="158.628,-197.89 156.141,-187.591 151.663,-197.193 158.628,-197.89"/>
</g>
<!-- Node14 -->
<g id="node14" class="node"><title>Node14</title>
<g id="a_node14"><a xlink:href="discrete__function_8hh.html" target="_top" xlink:title="discrete_function.hh">
<polygon fill="none" stroke="black" points="174,-224.5 174,-243.5 278,-243.5 278,-224.5 174,-224.5"/>
<text text-anchor="middle" x="226" y="-231.5" font-family="Helvetica,sans-Serif" font-size="10.00">discrete_function.hh</text>
</a>
</g>
</g>
<!-- Node2&#45;&gt;Node14 -->
<g id="edge15" class="edge"><title>Node2&#45;&gt;Node14</title>
<path fill="none" stroke="midnightblue" d="M158.853,-280.324C171.216,-271.979 190.13,-259.212 204.737,-249.352"/>
<polygon fill="midnightblue" stroke="midnightblue" points="206.848,-252.15 213.179,-243.655 202.932,-246.348 206.848,-252.15"/>
</g>
<!-- Node4 -->
<g id="node4" class="node"><title>Node4</title>
<polygon fill="none" stroke="#bfbfbf" points="0,-0.5 0,-19.5 68,-19.5 68,-0.5 0,-0.5"/>
<text text-anchor="middle" x="34" y="-7.5" font-family="Helvetica,sans-Serif" font-size="10.00">blitz/array.h</text>
</g>
<!-- Node3&#45;&gt;Node4 -->
<g id="edge3" class="edge"><title>Node3&#45;&gt;Node4</title>
<path fill="none" stroke="midnightblue" d="M61.0939,-168.41C46.775,-161.04 28.542,-148.916 20,-132 3.1521,-98.635 16.2425,-53.6625 25.9619,-29.0157"/>
<polygon fill="midnightblue" stroke="midnightblue" points="29.1908,-30.3662 29.8238,-19.7903 22.7337,-27.6631 29.1908,-30.3662"/>
</g>
<!-- Node5&#45;&gt;Node4 -->
<g id="edge8" class="edge"><title>Node5&#45;&gt;Node4</title>
<path fill="none" stroke="midnightblue" d="M129.432,-168.433C102.055,-159.362 62.7889,-144.637 53,-132 29.9628,-102.261 29.6917,-55.8419 31.7232,-29.9972"/>
<polygon fill="midnightblue" stroke="midnightblue" points="35.2399,-30.0012 32.7451,-19.7043 28.2742,-29.3096 35.2399,-30.0012"/>
</g>
<!-- Node6 -->
<g id="node6" class="node"><title>Node6</title>
<polygon fill="none" stroke="#bfbfbf" points="290.5,-112.5 290.5,-131.5 339.5,-131.5 339.5,-112.5 290.5,-112.5"/>
<text text-anchor="middle" x="315" y="-119.5" font-family="Helvetica,sans-Serif" font-size="10.00">istream</text>
</g>
<!-- Node5&#45;&gt;Node6 -->
<g id="edge5" class="edge"><title>Node5&#45;&gt;Node6</title>
<path fill="none" stroke="midnightblue" d="M182.036,-168.444C208.694,-159.332 251.057,-144.854 280.785,-134.694"/>
<polygon fill="midnightblue" stroke="midnightblue" points="282.011,-137.974 290.342,-131.428 279.747,-131.35 282.011,-137.974"/>
</g>
<!-- Node7 -->
<g id="node7" class="node"><title>Node7</title>
<polygon fill="none" stroke="#bfbfbf" points="62,-112.5 62,-131.5 114,-131.5 114,-112.5 62,-112.5"/>
<text text-anchor="middle" x="88" y="-119.5" font-family="Helvetica,sans-Serif" font-size="10.00">ostream</text>
</g>
<!-- Node5&#45;&gt;Node7 -->
<g id="edge6" class="edge"><title>Node5&#45;&gt;Node7</title>
<path fill="none" stroke="midnightblue" d="M145.914,-168.324C135.514,-160.185 119.739,-147.839 107.278,-138.087"/>
<polygon fill="midnightblue" stroke="midnightblue" points="109.32,-135.241 99.2878,-131.834 105.006,-140.753 109.32,-135.241"/>
</g>
<!-- Node8 -->
<g id="node8" class="node"><title>Node8</title>
<polygon fill="none" stroke="#bfbfbf" points="132,-112.5 132,-131.5 182,-131.5 182,-112.5 132,-112.5"/>
<text text-anchor="middle" x="157" y="-119.5" font-family="Helvetica,sans-Serif" font-size="10.00">iomanip</text>
</g>
<!-- Node5&#45;&gt;Node8 -->
<g id="edge7" class="edge"><title>Node5&#45;&gt;Node8</title>
<path fill="none" stroke="midnightblue" d="M157,-168.083C157,-161.006 157,-150.861 157,-141.986"/>
<polygon fill="midnightblue" stroke="midnightblue" points="160.5,-141.751 157,-131.751 153.5,-141.751 160.5,-141.751"/>
</g>
<!-- Node9 -->
<g id="node9" class="node"><title>Node9</title>
<g id="a_node9"><a xlink:href="validators_8hh.html" target="_top" xlink:title="validators.hh">
<polygon fill="none" stroke="black" points="200,-112.5 200,-131.5 272,-131.5 272,-112.5 200,-112.5"/>
<text text-anchor="middle" x="236" y="-119.5" font-family="Helvetica,sans-Serif" font-size="10.00">validators.hh</text>
</a>
</g>
</g>
<!-- Node5&#45;&gt;Node9 -->
<g id="edge9" class="edge"><title>Node5&#45;&gt;Node9</title>
<path fill="none" stroke="midnightblue" d="M169.693,-168.324C181.901,-159.979 200.578,-147.212 215.003,-137.352"/>
<polygon fill="midnightblue" stroke="midnightblue" points="217.058,-140.187 223.339,-131.655 213.108,-134.408 217.058,-140.187"/>
</g>
<!-- Node10 -->
<g id="node10" class="node"><title>Node10</title>
<polygon fill="none" stroke="#bfbfbf" points="170.5,-56.5 170.5,-75.5 229.5,-75.5 229.5,-56.5 170.5,-56.5"/>
<text text-anchor="middle" x="200" y="-63.5" font-family="Helvetica,sans-Serif" font-size="10.00">stdexcept</text>
</g>
<!-- Node9&#45;&gt;Node10 -->
<g id="edge10" class="edge"><title>Node9&#45;&gt;Node10</title>
<path fill="none" stroke="midnightblue" d="M230.055,-112.083C225.023,-104.534 217.663,-93.4948 211.487,-84.2298"/>
<polygon fill="midnightblue" stroke="midnightblue" points="214.293,-82.1301 205.834,-75.7511 208.469,-86.0131 214.293,-82.1301"/>
</g>
<!-- Node11 -->
<g id="node11" class="node"><title>Node11</title>
<g id="a_node11"><a xlink:href="blitz_8hh.html" target="_top" xlink:title="blitz.hh">
<polygon fill="none" stroke="black" points="248,-56.5 248,-75.5 296,-75.5 296,-56.5 248,-56.5"/>
<text text-anchor="middle" x="272" y="-63.5" font-family="Helvetica,sans-Serif" font-size="10.00">blitz.hh</text>
</a>
</g>
</g>
<!-- Node9&#45;&gt;Node11 -->
<g id="edge11" class="edge"><title>Node9&#45;&gt;Node11</title>
<path fill="none" stroke="midnightblue" d="M241.945,-112.083C246.977,-104.534 254.337,-93.4948 260.513,-84.2298"/>
<polygon fill="midnightblue" stroke="midnightblue" points="263.531,-86.0131 266.166,-75.7511 257.707,-82.1301 263.531,-86.0131"/>
</g>
<!-- Node11&#45;&gt;Node4 -->
<g id="edge13" class="edge"><title>Node11&#45;&gt;Node4</title>
<path fill="none" stroke="midnightblue" d="M247.886,-58.4841C244.57,-57.6269 241.204,-56.7772 238,-56 183.087,-42.6817 119.457,-28.9073 78.0572,-20.1646"/>
<polygon fill="midnightblue" stroke="midnightblue" points="78.5362,-16.6888 68.0297,-18.0536 77.0942,-23.5386 78.5362,-16.6888"/>
</g>
<!-- Node12 -->
<g id="node12" class="node"><title>Node12</title>
<polygon fill="none" stroke="#bfbfbf" points="210,-0.5 210,-19.5 266,-19.5 266,-0.5 210,-0.5"/>
<text text-anchor="middle" x="238" y="-7.5" font-family="Helvetica,sans-Serif" font-size="10.00">algorithm</text>
</g>
<!-- Node11&#45;&gt;Node12 -->
<g id="edge12" class="edge"><title>Node11&#45;&gt;Node12</title>
<path fill="none" stroke="midnightblue" d="M266.386,-56.083C261.633,-48.5341 254.682,-37.4948 248.848,-28.2298"/>
<polygon fill="midnightblue" stroke="midnightblue" points="251.8,-26.3486 243.51,-19.7511 245.876,-30.0783 251.8,-26.3486"/>
</g>
<!-- Node13 -->
<g id="node13" class="node"><title>Node13</title>
<polygon fill="none" stroke="#bfbfbf" points="284,-0.5 284,-19.5 328,-19.5 328,-0.5 284,-0.5"/>
<text text-anchor="middle" x="306" y="-7.5" font-family="Helvetica,sans-Serif" font-size="10.00">cmath</text>
</g>
<!-- Node11&#45;&gt;Node13 -->
<g id="edge14" class="edge"><title>Node11&#45;&gt;Node13</title>
<path fill="none" stroke="midnightblue" d="M277.614,-56.083C282.367,-48.5341 289.318,-37.4948 295.152,-28.2298"/>
<polygon fill="midnightblue" stroke="midnightblue" points="298.124,-30.0783 300.49,-19.7511 292.2,-26.3486 298.124,-30.0783"/>
</g>
<!-- Node14&#45;&gt;Node3 -->
<g id="edge20" class="edge"><title>Node14&#45;&gt;Node3</title>
<path fill="none" stroke="midnightblue" d="M203.024,-224.444C178.843,-215.438 140.582,-201.189 113.354,-191.049"/>
<polygon fill="midnightblue" stroke="midnightblue" points="114.461,-187.727 103.868,-187.516 112.018,-194.286 114.461,-187.727"/>
</g>
<!-- Node15 -->
<g id="node15" class="node"><title>Node15</title>
<g id="a_node15"><a xlink:href="grid_8hh.html" target="_top" xlink:title="grid.hh">
<polygon fill="none" stroke="black" points="252,-168.5 252,-187.5 298,-187.5 298,-168.5 252,-168.5"/>
<text text-anchor="middle" x="275" y="-175.5" font-family="Helvetica,sans-Serif" font-size="10.00">grid.hh</text>
</a>
</g>
</g>
<!-- Node14&#45;&gt;Node15 -->
<g id="edge16" class="edge"><title>Node14&#45;&gt;Node15</title>
<path fill="none" stroke="midnightblue" d="M234.091,-224.083C241.155,-216.298 251.588,-204.801 260.149,-195.367"/>
<polygon fill="midnightblue" stroke="midnightblue" points="262.931,-197.509 267.059,-187.751 257.747,-192.805 262.931,-197.509"/>
</g>
<!-- Node15&#45;&gt;Node6 -->
<g id="edge17" class="edge"><title>Node15&#45;&gt;Node6</title>
<path fill="none" stroke="midnightblue" d="M281.605,-168.083C287.255,-160.455 295.545,-149.264 302.451,-139.941"/>
<polygon fill="midnightblue" stroke="midnightblue" points="305.378,-141.87 308.518,-131.751 299.753,-137.703 305.378,-141.87"/>
</g>
<!-- Node15&#45;&gt;Node9 -->
<g id="edge19" class="edge"><title>Node15&#45;&gt;Node9</title>
<path fill="none" stroke="midnightblue" d="M268.56,-168.083C263.051,-160.455 254.969,-149.264 248.235,-139.941"/>
<polygon fill="midnightblue" stroke="midnightblue" points="251.013,-137.809 242.32,-131.751 245.338,-141.907 251.013,-137.809"/>
</g>
<!-- Node15&#45;&gt;Node11 -->
<g id="edge18" class="edge"><title>Node15&#45;&gt;Node11</title>
<path fill="none" stroke="midnightblue" d="M298.09,-168.788C324.532,-157.983 362.455,-137.357 348,-112 338.881,-96.0038 321.596,-85.1132 305.812,-78.058"/>
<polygon fill="midnightblue" stroke="midnightblue" points="306.844,-74.6989 296.264,-74.1494 304.192,-81.1771 306.844,-74.6989"/>
</g>
</g>
</svg>
