<?xml version="1.0" encoding="UTF-8" standalone="no"?>
<!DOCTYPE svg PUBLIC "-//W3C//DTD SVG 1.1//EN"
 "http://www.w3.org/Graphics/SVG/1.1/DTD/svg11.dtd">
<!-- Generated by graphviz version 2.36.0 (20140111.2315)
 -->
<!-- Title: /home/travis/build/igankevich/arma/src/imgui/stb_textedit.h Pages: 1 -->
<svg width="247pt" height="206pt"
 viewBox="0.00 0.00 247.00 206.00" xmlns="http://www.w3.org/2000/svg" xmlns:xlink="http://www.w3.org/1999/xlink">
<g id="graph0" class="graph" transform="scale(1 1) rotate(0) translate(4 202)">
<title>/home/travis/build/igankevich/arma/src/imgui/stb_textedit.h</title>
<!-- Node1 -->
<g id="node1" class="node"><title>Node1</title>
<polygon fill="#bfbfbf" stroke="black" points="41.5,-156.5 41.5,-197.5 148.5,-197.5 148.5,-156.5 41.5,-156.5"/>
<text text-anchor="start" x="49.5" y="-185.5" font-family="Helvetica,sans-Serif" font-size="10.00">/home/travis/build</text>
<text text-anchor="start" x="49.5" y="-174.5" font-family="Helvetica,sans-Serif" font-size="10.00">/igankevich/arma/src</text>
<text text-anchor="middle" x="95" y="-163.5" font-family="Helvetica,sans-Serif" font-size="10.00">/imgui/stb_textedit.h</text>
</g>
<!-- Node2 -->
<g id="node2" class="node"><title>Node2</title>
<g id="a_node2"><a xlink:href="imgui__internal_8h.html" target="_top" xlink:title="/home/travis/build\l/igankevich/arma/src\l/imgui/imgui_internal.h">
<polygon fill="none" stroke="black" points="81,-78.5 81,-119.5 195,-119.5 195,-78.5 81,-78.5"/>
<text text-anchor="start" x="89" y="-107.5" font-family="Helvetica,sans-Serif" font-size="10.00">/home/travis/build</text>
<text text-anchor="start" x="89" y="-96.5" font-family="Helvetica,sans-Serif" font-size="10.00">/igankevich/arma/src</text>
<text text-anchor="middle" x="138" y="-85.5" font-family="Helvetica,sans-Serif" font-size="10.00">/imgui/imgui_internal.h</text>
</a>
</g>
</g>
<!-- Node1&#45;&gt;Node2 -->
<g id="edge1" class="edge"><title>Node1&#45;&gt;Node2</title>
<path fill="none" stroke="midnightblue" d="M111.144,-147.466C116.419,-138.143 122.154,-128.007 126.964,-119.506"/>
<polygon fill="midnightblue" stroke="midnightblue" points="107.952,-146.001 106.074,-156.428 114.044,-149.448 107.952,-146.001"/>
</g>
<!-- Node3 -->
<g id="node3" class="node"><title>Node3</title>
<g id="a_node3"><a xlink:href="imgui_8cpp.html" target="_top" xlink:title="/home/travis/build\l/igankevich/arma/src\l/imgui/imgui.cpp">
<polygon fill="none" stroke="black" points="-0.5,-0.5 -0.5,-41.5 106.5,-41.5 106.5,-0.5 -0.5,-0.5"/>
<text text-anchor="start" x="7.5" y="-29.5" font-family="Helvetica,sans-Serif" font-size="10.00">/home/travis/build</text>
<text text-anchor="start" x="7.5" y="-18.5" font-family="Helvetica,sans-Serif" font-size="10.00">/igankevich/arma/src</text>
<text text-anchor="middle" x="53" y="-7.5" font-family="Helvetica,sans-Serif" font-size="10.00">/imgui/imgui.cpp</text>
</a>
</g>
</g>
<!-- Node1&#45;&gt;Node3 -->
<g id="edge4" class="edge"><title>Node1&#45;&gt;Node3</title>
<path fill="none" stroke="midnightblue" d="M81.8725,-147.147C78.3065,-138.539 74.6913,-128.999 72,-120 64.0547,-93.4335 58.6192,-61.7939 55.6598,-41.8001"/>
<polygon fill="midnightblue" stroke="midnightblue" points="78.6752,-148.572 85.8259,-156.389 85.1112,-145.819 78.6752,-148.572"/>
</g>
<!-- Node2&#45;&gt;Node3 -->
<g id="edge2" class="edge"><title>Node2&#45;&gt;Node3</title>
<path fill="none" stroke="midnightblue" d="M108.352,-71.4916C97.3224,-61.6294 85.0174,-50.6273 74.8154,-41.5056"/>
<polygon fill="midnightblue" stroke="midnightblue" points="106.323,-74.3719 116.11,-78.4281 110.989,-69.1535 106.323,-74.3719"/>
</g>
<!-- Node4 -->
<g id="node4" class="node"><title>Node4</title>
<g id="a_node4"><a xlink:href="imgui__draw_8cpp.html" target="_top" xlink:title="/home/travis/build\l/igankevich/arma/src\l/imgui/imgui_draw.cpp">
<polygon fill="none" stroke="black" points="125,-0.5 125,-41.5 239,-41.5 239,-0.5 125,-0.5"/>
<text text-anchor="start" x="133" y="-29.5" font-family="Helvetica,sans-Serif" font-size="10.00">/home/travis/build</text>
<text text-anchor="start" x="133" y="-18.5" font-family="Helvetica,sans-Serif" font-size="10.00">/igankevich/arma/src</text>
<text text-anchor="middle" x="182" y="-7.5" font-family="Helvetica,sans-Serif" font-size="10.00">/imgui/imgui_draw.cpp</text>
</a>
</g>
</g>
<!-- Node2&#45;&gt;Node4 -->
<g id="edge3" class="edge"><title>Node2&#45;&gt;Node4</title>
<path fill="none" stroke="midnightblue" d="M154.351,-69.7571C159.795,-60.354 165.734,-50.096 170.707,-41.5056"/>
<polygon fill="midnightblue" stroke="midnightblue" points="151.313,-68.0202 149.331,-78.4281 157.371,-71.5275 151.313,-68.0202"/>
</g>
</g>
</svg>
