<?xml version="1.0" encoding="UTF-8" standalone="no"?>
<!DOCTYPE svg PUBLIC "-//W3C//DTD SVG 1.1//EN"
 "http://www.w3.org/Graphics/SVG/1.1/DTD/svg11.dtd">
<!-- Generated by graphviz version 2.40.1 (20161225.0304)
 -->
<!-- Title: src/imgui/stb_textedit.h Pages: 1 -->
<svg width="254pt" height="140pt"
 viewBox="0.00 0.00 254.00 140.00" xmlns="http://www.w3.org/2000/svg" xmlns:xlink="http://www.w3.org/1999/xlink">
<g id="graph0" class="graph" transform="scale(1 1) rotate(0) translate(4 136)">
<title>src/imgui/stb_textedit.h</title>
<!-- Node2 -->
<g id="node1" class="node">
<title>Node2</title>
<polygon fill="#bfbfbf" stroke="#000000" points="37,-112.5 37,-131.5 156,-131.5 156,-112.5 37,-112.5"/>
<text text-anchor="middle" x="96.5" y="-119.5" font-family="Helvetica,sans-Serif" font-size="10.00" fill="#000000">src/imgui/stb_textedit.h</text>
</g>
<!-- Node3 -->
<g id="node2" class="node">
<title>Node3</title>
<g id="a_node2"><a xlink:href="imgui__internal_8h.html" target="_top" xlink:title="src/imgui/imgui_internal.h">
<polygon fill="none" stroke="#000000" points="78.5,-56.5 78.5,-75.5 206.5,-75.5 206.5,-56.5 78.5,-56.5"/>
<text text-anchor="middle" x="142.5" y="-63.5" font-family="Helvetica,sans-Serif" font-size="10.00" fill="#000000">src/imgui/imgui_internal.h</text>
</a>
</g>
</g>
<!-- Node2&#45;&gt;Node3 -->
<g id="edge1" class="edge">
<title>Node2&#45;&gt;Node3</title>
<path fill="none" stroke="#191970" d="M110.8747,-104.5004C118.6971,-94.9775 128.076,-83.5596 134.5792,-75.6427"/>
<polygon fill="#191970" stroke="#191970" points="108.1555,-102.2967 104.5126,-112.2455 113.5646,-106.7399 108.1555,-102.2967"/>
</g>
<!-- Node4 -->
<g id="node3" class="node">
<title>Node4</title>
<g id="a_node3"><a xlink:href="imgui_8cpp.html" target="_top" xlink:title="src/imgui/imgui.cpp">
<polygon fill="none" stroke="#000000" points="0,-.5 0,-19.5 101,-19.5 101,-.5 0,-.5"/>
<text text-anchor="middle" x="50.5" y="-7.5" font-family="Helvetica,sans-Serif" font-size="10.00" fill="#000000">src/imgui/imgui.cpp</text>
</a>
</g>
</g>
<!-- Node2&#45;&gt;Node4 -->
<g id="edge4" class="edge">
<title>Node2&#45;&gt;Node4</title>
<path fill="none" stroke="#191970" d="M84.1864,-103.4661C79.1382,-95.2919 73.5437,-85.4185 69.5,-76 61.2209,-56.7164 55.3451,-32.7525 52.4812,-19.6581"/>
<polygon fill="#191970" stroke="#191970" points="81.4027,-105.6098 89.7361,-112.1523 87.3015,-101.841 81.4027,-105.6098"/>
</g>
<!-- Node3&#45;&gt;Node4 -->
<g id="edge2" class="edge">
<title>Node3&#45;&gt;Node4</title>
<path fill="none" stroke="#191970" d="M117.4776,-50.769C101.175,-40.8456 80.399,-28.1994 66.3415,-19.6427"/>
<polygon fill="#191970" stroke="#191970" points="116.113,-54.0357 126.4748,-56.2455 119.7527,-48.0563 116.113,-54.0357"/>
</g>
<!-- Node5 -->
<g id="node4" class="node">
<title>Node5</title>
<g id="a_node4"><a xlink:href="imgui__draw_8cpp.html" target="_top" xlink:title="src/imgui/imgui_draw.cpp">
<polygon fill="none" stroke="#000000" points="119,-.5 119,-19.5 246,-19.5 246,-.5 119,-.5"/>
<text text-anchor="middle" x="182.5" y="-7.5" font-family="Helvetica,sans-Serif" font-size="10.00" fill="#000000">src/imgui/imgui_draw.cpp</text>
</a>
</g>
</g>
<!-- Node3&#45;&gt;Node5 -->
<g id="edge3" class="edge">
<title>Node3&#45;&gt;Node5</title>
<path fill="none" stroke="#191970" d="M155.4136,-47.9209C162.1303,-38.5176 170.0717,-27.3997 175.6124,-19.6427"/>
<polygon fill="#191970" stroke="#191970" points="152.4318,-46.0738 149.4675,-56.2455 158.128,-50.1425 152.4318,-46.0738"/>
</g>
</g>
</svg>
