<?xml version="1.0" encoding="UTF-8" standalone="no"?>
<!DOCTYPE svg PUBLIC "-//W3C//DTD SVG 1.1//EN"
 "http://www.w3.org/Graphics/SVG/1.1/DTD/svg11.dtd">
<!-- Generated by graphviz version 2.36.0 (20140111.2315)
 -->
<!-- Title: ImDrawChannel Pages: 1 -->
<svg width="918pt" height="1380pt"
 viewBox="0.00 0.00 917.67 1380.00" xmlns="http://www.w3.org/2000/svg" xmlns:xlink="http://www.w3.org/1999/xlink">
<g id="graph0" class="graph" transform="scale(1 1) rotate(0) translate(4 1376)">
<title>ImDrawChannel</title>
<!-- Node1 -->
<g id="node1" class="node"><title>Node1</title>
<polygon fill="#bfbfbf" stroke="black" points="708.168,-1044.5 708.168,-1101.5 795.168,-1101.5 795.168,-1044.5 708.168,-1044.5"/>
<text text-anchor="middle" x="751.668" y="-1089.5" font-family="Helvetica,sans-Serif" font-size="10.00">ImDrawChannel</text>
<polyline fill="none" stroke="black" points="708.168,-1082.5 795.168,-1082.5 "/>
<text text-anchor="middle" x="751.668" y="-1070.5" font-family="Helvetica,sans-Serif" font-size="10.00"> </text>
<polyline fill="none" stroke="black" points="708.168,-1063.5 795.168,-1063.5 "/>
<text text-anchor="middle" x="751.668" y="-1051.5" font-family="Helvetica,sans-Serif" font-size="10.00"> </text>
</g>
<!-- Node10 -->
<g id="node10" class="node"><title>Node10</title>
<g id="a_node10"><a xlink:href="classImVector.html" target="_top" xlink:title="{ImVector\&lt; ImDrawChannel \&gt;\n|+ Size\l+ Capacity\l|+ ImVector()\l+ ~ImVector()\l+ empty()\l+ size()\l+ capacity()\l+ operator[]()\l+ operator[]()\l+ clear()\l+ begin()\l+ begin()\land 14 more...\l}">
<polygon fill="none" stroke="black" points="679.168,-622 679.168,-800 824.168,-800 824.168,-622 679.168,-622"/>
<text text-anchor="middle" x="751.668" y="-788" font-family="Helvetica,sans-Serif" font-size="10.00">ImVector&lt; ImDrawChannel &gt;</text>
<polyline fill="none" stroke="black" points="679.168,-781 824.168,-781 "/>
<text text-anchor="start" x="687.168" y="-769" font-family="Helvetica,sans-Serif" font-size="10.00">+ Size</text>
<text text-anchor="start" x="687.168" y="-758" font-family="Helvetica,sans-Serif" font-size="10.00">+ Capacity</text>
<polyline fill="none" stroke="black" points="679.168,-751 824.168,-751 "/>
<text text-anchor="start" x="687.168" y="-739" font-family="Helvetica,sans-Serif" font-size="10.00">+ ImVector()</text>
<text text-anchor="start" x="687.168" y="-728" font-family="Helvetica,sans-Serif" font-size="10.00">+ ~ImVector()</text>
<text text-anchor="start" x="687.168" y="-717" font-family="Helvetica,sans-Serif" font-size="10.00">+ empty()</text>
<text text-anchor="start" x="687.168" y="-706" font-family="Helvetica,sans-Serif" font-size="10.00">+ size()</text>
<text text-anchor="start" x="687.168" y="-695" font-family="Helvetica,sans-Serif" font-size="10.00">+ capacity()</text>
<text text-anchor="start" x="687.168" y="-684" font-family="Helvetica,sans-Serif" font-size="10.00">+ operator[]()</text>
<text text-anchor="start" x="687.168" y="-673" font-family="Helvetica,sans-Serif" font-size="10.00">+ operator[]()</text>
<text text-anchor="start" x="687.168" y="-662" font-family="Helvetica,sans-Serif" font-size="10.00">+ clear()</text>
<text text-anchor="start" x="687.168" y="-651" font-family="Helvetica,sans-Serif" font-size="10.00">+ begin()</text>
<text text-anchor="start" x="687.168" y="-640" font-family="Helvetica,sans-Serif" font-size="10.00">+ begin()</text>
<text text-anchor="start" x="687.168" y="-629" font-family="Helvetica,sans-Serif" font-size="10.00">and 14 more...</text>
</a>
</g>
</g>
<!-- Node1&#45;&gt;Node10 -->
<g id="edge11" class="edge"><title>Node1&#45;&gt;Node10</title>
<path fill="none" stroke="#404040" d="M751.668,-1044.35C751.668,-995.432 751.668,-891.375 751.668,-812.643"/>
<polygon fill="none" stroke="#404040" points="751.668,-812.237 747.668,-806.237 751.668,-800.237 755.668,-806.237 751.668,-812.237"/>
<text text-anchor="middle" x="767.168" y="-911.5" font-family="Helvetica,sans-Serif" font-size="10.00"> +Data</text>
</g>
<!-- Node2 -->
<g id="node2" class="node"><title>Node2</title>
<g id="a_node2"><a xlink:href="classImVector.html" target="_top" xlink:title="{ImVector\&lt; ImDrawCmd \&gt;\n|+ Size\l+ Capacity\l|+ ImVector()\l+ ~ImVector()\l+ empty()\l+ size()\l+ capacity()\l+ operator[]()\l+ operator[]()\l+ clear()\l+ begin()\l+ begin()\land 14 more...\l}">
<polygon fill="none" stroke="black" points="387.668,-1 387.668,-179 517.668,-179 517.668,-1 387.668,-1"/>
<text text-anchor="middle" x="452.668" y="-167" font-family="Helvetica,sans-Serif" font-size="10.00">ImVector&lt; ImDrawCmd &gt;</text>
<polyline fill="none" stroke="black" points="387.668,-160 517.668,-160 "/>
<text text-anchor="start" x="395.668" y="-148" font-family="Helvetica,sans-Serif" font-size="10.00">+ Size</text>
<text text-anchor="start" x="395.668" y="-137" font-family="Helvetica,sans-Serif" font-size="10.00">+ Capacity</text>
<polyline fill="none" stroke="black" points="387.668,-130 517.668,-130 "/>
<text text-anchor="start" x="395.668" y="-118" font-family="Helvetica,sans-Serif" font-size="10.00">+ ImVector()</text>
<text text-anchor="start" x="395.668" y="-107" font-family="Helvetica,sans-Serif" font-size="10.00">+ ~ImVector()</text>
<text text-anchor="start" x="395.668" y="-96" font-family="Helvetica,sans-Serif" font-size="10.00">+ empty()</text>
<text text-anchor="start" x="395.668" y="-85" font-family="Helvetica,sans-Serif" font-size="10.00">+ size()</text>
<text text-anchor="start" x="395.668" y="-74" font-family="Helvetica,sans-Serif" font-size="10.00">+ capacity()</text>
<text text-anchor="start" x="395.668" y="-63" font-family="Helvetica,sans-Serif" font-size="10.00">+ operator[]()</text>
<text text-anchor="start" x="395.668" y="-52" font-family="Helvetica,sans-Serif" font-size="10.00">+ operator[]()</text>
<text text-anchor="start" x="395.668" y="-41" font-family="Helvetica,sans-Serif" font-size="10.00">+ clear()</text>
<text text-anchor="start" x="395.668" y="-30" font-family="Helvetica,sans-Serif" font-size="10.00">+ begin()</text>
<text text-anchor="start" x="395.668" y="-19" font-family="Helvetica,sans-Serif" font-size="10.00">+ begin()</text>
<text text-anchor="start" x="395.668" y="-8" font-family="Helvetica,sans-Serif" font-size="10.00">and 14 more...</text>
</a>
</g>
</g>
<!-- Node2&#45;&gt;Node1 -->
<g id="edge1" class="edge"><title>Node2&#45;&gt;Node1</title>
<path fill="none" stroke="#404040" d="M517.825,-91.2844C631.17,-95.5815 852.668,-122.469 852.668,-267 852.668,-712 852.668,-712 852.668,-712 852.668,-845.052 832.517,-879.098 786.668,-1004 783.051,-1013.85 778.329,-1024.11 773.531,-1033.57"/>
<polygon fill="none" stroke="#404040" points="773.502,-1033.63 774.255,-1040.8 767.924,-1044.25 767.172,-1037.08 773.502,-1033.63"/>
<text text-anchor="middle" x="881.168" y="-459.5" font-family="Helvetica,sans-Serif" font-size="10.00"> +CmdBuffer</text>
</g>
<!-- Node5 -->
<g id="node5" class="node"><title>Node5</title>
<g id="a_node5"><a xlink:href="structImDrawList.html" target="_top" xlink:title="{ImDrawList\n|+ _OwnerName\l+ _VtxCurrentIdx\l+ _IdxWritePtr\l+ _ChannelsCurrent\l+ _ChannelsCount\l|+ ImDrawList()\l+ ~ImDrawList()\l+ PushClipRect()\l+ PushClipRectFullScreen()\l+ PopClipRect()\l+ PushTextureID()\l+ PopTextureID()\l+ AddLine()\l+ AddRect()\l+ AddRectFilled()\land 39 more...\l}">
<polygon fill="none" stroke="black" points="340.168,-356.5 340.168,-567.5 479.168,-567.5 479.168,-356.5 340.168,-356.5"/>
<text text-anchor="middle" x="409.668" y="-555.5" font-family="Helvetica,sans-Serif" font-size="10.00">ImDrawList</text>
<polyline fill="none" stroke="black" points="340.168,-548.5 479.168,-548.5 "/>
<text text-anchor="start" x="348.168" y="-536.5" font-family="Helvetica,sans-Serif" font-size="10.00">+ _OwnerName</text>
<text text-anchor="start" x="348.168" y="-525.5" font-family="Helvetica,sans-Serif" font-size="10.00">+ _VtxCurrentIdx</text>
<text text-anchor="start" x="348.168" y="-514.5" font-family="Helvetica,sans-Serif" font-size="10.00">+ _IdxWritePtr</text>
<text text-anchor="start" x="348.168" y="-503.5" font-family="Helvetica,sans-Serif" font-size="10.00">+ _ChannelsCurrent</text>
<text text-anchor="start" x="348.168" y="-492.5" font-family="Helvetica,sans-Serif" font-size="10.00">+ _ChannelsCount</text>
<polyline fill="none" stroke="black" points="340.168,-485.5 479.168,-485.5 "/>
<text text-anchor="start" x="348.168" y="-473.5" font-family="Helvetica,sans-Serif" font-size="10.00">+ ImDrawList()</text>
<text text-anchor="start" x="348.168" y="-462.5" font-family="Helvetica,sans-Serif" font-size="10.00">+ ~ImDrawList()</text>
<text text-anchor="start" x="348.168" y="-451.5" font-family="Helvetica,sans-Serif" font-size="10.00">+ PushClipRect()</text>
<text text-anchor="start" x="348.168" y="-440.5" font-family="Helvetica,sans-Serif" font-size="10.00">+ PushClipRectFullScreen()</text>
<text text-anchor="start" x="348.168" y="-429.5" font-family="Helvetica,sans-Serif" font-size="10.00">+ PopClipRect()</text>
<text text-anchor="start" x="348.168" y="-418.5" font-family="Helvetica,sans-Serif" font-size="10.00">+ PushTextureID()</text>
<text text-anchor="start" x="348.168" y="-407.5" font-family="Helvetica,sans-Serif" font-size="10.00">+ PopTextureID()</text>
<text text-anchor="start" x="348.168" y="-396.5" font-family="Helvetica,sans-Serif" font-size="10.00">+ AddLine()</text>
<text text-anchor="start" x="348.168" y="-385.5" font-family="Helvetica,sans-Serif" font-size="10.00">+ AddRect()</text>
<text text-anchor="start" x="348.168" y="-374.5" font-family="Helvetica,sans-Serif" font-size="10.00">+ AddRectFilled()</text>
<text text-anchor="start" x="348.168" y="-363.5" font-family="Helvetica,sans-Serif" font-size="10.00">and 39 more...</text>
</a>
</g>
</g>
<!-- Node2&#45;&gt;Node5 -->
<g id="edge15" class="edge"><title>Node2&#45;&gt;Node5</title>
<path fill="none" stroke="#404040" d="M451.41,-179.11C449.796,-226.416 446.269,-285.612 438.668,-338 438.37,-340.052 438.055,-342.121 437.724,-344.202"/>
<polygon fill="none" stroke="#404040" points="437.691,-344.396 440.621,-350.985 435.666,-356.224 432.735,-349.635 437.691,-344.396"/>
<text text-anchor="middle" x="478.168" y="-265.5" font-family="Helvetica,sans-Serif" font-size="10.00"> +CmdBuffer</text>
</g>
<!-- Node3 -->
<g id="node3" class="node"><title>Node3</title>
<g id="a_node3"><a xlink:href="structImDrawCmd.html" target="_top" xlink:title="{ImDrawCmd\n|+ ElemCount\l+ TextureId\l+ UserCallbackData\l|+ ImDrawCmd()\l}">
<polygon fill="none" stroke="black" points="310.668,-228.5 310.668,-307.5 416.668,-307.5 416.668,-228.5 310.668,-228.5"/>
<text text-anchor="middle" x="363.668" y="-295.5" font-family="Helvetica,sans-Serif" font-size="10.00">ImDrawCmd</text>
<polyline fill="none" stroke="black" points="310.668,-288.5 416.668,-288.5 "/>
<text text-anchor="start" x="318.668" y="-276.5" font-family="Helvetica,sans-Serif" font-size="10.00">+ ElemCount</text>
<text text-anchor="start" x="318.668" y="-265.5" font-family="Helvetica,sans-Serif" font-size="10.00">+ TextureId</text>
<text text-anchor="start" x="318.668" y="-254.5" font-family="Helvetica,sans-Serif" font-size="10.00">+ UserCallbackData</text>
<polyline fill="none" stroke="black" points="310.668,-247.5 416.668,-247.5 "/>
<text text-anchor="start" x="318.668" y="-235.5" font-family="Helvetica,sans-Serif" font-size="10.00">+ ImDrawCmd()</text>
</a>
</g>
</g>
<!-- Node3&#45;&gt;Node2 -->
<g id="edge2" class="edge"><title>Node3&#45;&gt;Node2</title>
<path fill="none" stroke="#404040" d="M383.2,-228.376C389.014,-216.879 395.669,-203.718 402.505,-190.2"/>
<polygon fill="none" stroke="#404040" points="402.598,-190.015 401.736,-182.855 408.013,-179.306 408.875,-186.466 402.598,-190.015"/>
<text text-anchor="middle" x="413.168" y="-201.5" font-family="Helvetica,sans-Serif" font-size="10.00"> +Data</text>
</g>
<!-- Node4 -->
<g id="node4" class="node"><title>Node4</title>
<g id="a_node4"><a xlink:href="structImVec4.html" target="_top" xlink:title="{ImVec4\n|+ x\l+ y\l+ z\l+ w\l|+ ImVec4()\l+ ImVec4()\l}">
<polygon fill="none" stroke="black" points="15.1681,-1022.5 15.1681,-1123.5 80.1681,-1123.5 80.1681,-1022.5 15.1681,-1022.5"/>
<text text-anchor="middle" x="47.6681" y="-1111.5" font-family="Helvetica,sans-Serif" font-size="10.00">ImVec4</text>
<polyline fill="none" stroke="black" points="15.1681,-1104.5 80.1681,-1104.5 "/>
<text text-anchor="start" x="23.1681" y="-1092.5" font-family="Helvetica,sans-Serif" font-size="10.00">+ x</text>
<text text-anchor="start" x="23.1681" y="-1081.5" font-family="Helvetica,sans-Serif" font-size="10.00">+ y</text>
<text text-anchor="start" x="23.1681" y="-1070.5" font-family="Helvetica,sans-Serif" font-size="10.00">+ z</text>
<text text-anchor="start" x="23.1681" y="-1059.5" font-family="Helvetica,sans-Serif" font-size="10.00">+ w</text>
<polyline fill="none" stroke="black" points="15.1681,-1052.5 80.1681,-1052.5 "/>
<text text-anchor="start" x="23.1681" y="-1040.5" font-family="Helvetica,sans-Serif" font-size="10.00">+ ImVec4()</text>
<text text-anchor="start" x="23.1681" y="-1029.5" font-family="Helvetica,sans-Serif" font-size="10.00">+ ImVec4()</text>
</a>
</g>
</g>
<!-- Node4&#45;&gt;Node3 -->
<g id="edge3" class="edge"><title>Node4&#45;&gt;Node3</title>
<path fill="none" stroke="#404040" d="M32.8808,-1022.17C8.56394,-930.288 -30.3932,-730.397 41.6681,-586 101.592,-465.923 225.216,-364.772 300.648,-310.872"/>
<polygon fill="none" stroke="#404040" points="300.709,-310.829 303.298,-304.099 310.506,-303.901 307.917,-310.631 300.709,-310.829"/>
<text text-anchor="middle" x="65.6681" y="-589.5" font-family="Helvetica,sans-Serif" font-size="10.00"> +ClipRect</text>
</g>
<!-- Node6 -->
<g id="node6" class="node"><title>Node6</title>
<g id="a_node6"><a xlink:href="classImVector.html" target="_top" xlink:title="{ImVector\&lt; ImVec4 \&gt;\n|+ Size\l+ Capacity\l|+ ImVector()\l+ ~ImVector()\l+ empty()\l+ size()\l+ capacity()\l+ operator[]()\l+ operator[]()\l+ clear()\l+ begin()\l+ begin()\land 14 more...\l}">
<polygon fill="none" stroke="black" points="46.6681,-622 46.6681,-800 154.668,-800 154.668,-622 46.6681,-622"/>
<text text-anchor="middle" x="100.668" y="-788" font-family="Helvetica,sans-Serif" font-size="10.00">ImVector&lt; ImVec4 &gt;</text>
<polyline fill="none" stroke="black" points="46.6681,-781 154.668,-781 "/>
<text text-anchor="start" x="54.6681" y="-769" font-family="Helvetica,sans-Serif" font-size="10.00">+ Size</text>
<text text-anchor="start" x="54.6681" y="-758" font-family="Helvetica,sans-Serif" font-size="10.00">+ Capacity</text>
<polyline fill="none" stroke="black" points="46.6681,-751 154.668,-751 "/>
<text text-anchor="start" x="54.6681" y="-739" font-family="Helvetica,sans-Serif" font-size="10.00">+ ImVector()</text>
<text text-anchor="start" x="54.6681" y="-728" font-family="Helvetica,sans-Serif" font-size="10.00">+ ~ImVector()</text>
<text text-anchor="start" x="54.6681" y="-717" font-family="Helvetica,sans-Serif" font-size="10.00">+ empty()</text>
<text text-anchor="start" x="54.6681" y="-706" font-family="Helvetica,sans-Serif" font-size="10.00">+ size()</text>
<text text-anchor="start" x="54.6681" y="-695" font-family="Helvetica,sans-Serif" font-size="10.00">+ capacity()</text>
<text text-anchor="start" x="54.6681" y="-684" font-family="Helvetica,sans-Serif" font-size="10.00">+ operator[]()</text>
<text text-anchor="start" x="54.6681" y="-673" font-family="Helvetica,sans-Serif" font-size="10.00">+ operator[]()</text>
<text text-anchor="start" x="54.6681" y="-662" font-family="Helvetica,sans-Serif" font-size="10.00">+ clear()</text>
<text text-anchor="start" x="54.6681" y="-651" font-family="Helvetica,sans-Serif" font-size="10.00">+ begin()</text>
<text text-anchor="start" x="54.6681" y="-640" font-family="Helvetica,sans-Serif" font-size="10.00">+ begin()</text>
<text text-anchor="start" x="54.6681" y="-629" font-family="Helvetica,sans-Serif" font-size="10.00">and 14 more...</text>
</a>
</g>
</g>
<!-- Node4&#45;&gt;Node6 -->
<g id="edge6" class="edge"><title>Node4&#45;&gt;Node6</title>
<path fill="none" stroke="#404040" d="M54.9819,-1022.32C62.9247,-968.37 75.824,-880.752 85.8939,-812.354"/>
<polygon fill="none" stroke="#404040" points="85.9275,-812.125 82.8441,-805.606 87.6754,-800.253 90.7588,-806.771 85.9275,-812.125"/>
<text text-anchor="middle" x="99.1681" y="-911.5" font-family="Helvetica,sans-Serif" font-size="10.00"> +Data</text>
</g>
<!-- Node5&#45;&gt;Node3 -->
<g id="edge4" class="edge"><title>Node5&#45;&gt;Node3</title>
<path fill="none" stroke="#404040" d="M373.894,-356.416C372.326,-350.222 370.898,-344.051 369.668,-338 368.488,-332.193 367.539,-326.065 366.777,-319.954"/>
<polygon fill="none" stroke="#404040" points="366.727,-319.478 362.116,-313.933 365.461,-307.545 370.071,-313.089 366.727,-319.478"/>
<text text-anchor="middle" x="404.168" y="-329.5" font-family="Helvetica,sans-Serif" font-size="10.00"> +UserCallback</text>
</g>
<!-- Node6&#45;&gt;Node5 -->
<g id="edge5" class="edge"><title>Node6&#45;&gt;Node5</title>
<path fill="none" stroke="#404040" d="M87.0858,-621.712C88.675,-608.967 92.472,-596.597 99.6681,-586 150.432,-511.245 254.509,-481.923 328.032,-470.422"/>
<polygon fill="none" stroke="#404040" points="328.14,-470.406 333.495,-465.577 340.013,-468.662 334.658,-473.492 328.14,-470.406"/>
<text text-anchor="middle" x="139.168" y="-589.5" font-family="Helvetica,sans-Serif" font-size="10.00"> +_ClipRectStack</text>
</g>
<!-- Node7 -->
<g id="node7" class="node"><title>Node7</title>
<g id="a_node7"><a xlink:href="classImVector.html" target="_top" xlink:title="{ImVector\&lt; ImDrawVert \&gt;\n|+ Size\l+ Capacity\l|+ ImVector()\l+ ~ImVector()\l+ empty()\l+ size()\l+ capacity()\l+ operator[]()\l+ operator[]()\l+ clear()\l+ begin()\l+ begin()\land 14 more...\l}">
<polygon fill="none" stroke="black" points="246.168,-622 246.168,-800 373.168,-800 373.168,-622 246.168,-622"/>
<text text-anchor="middle" x="309.668" y="-788" font-family="Helvetica,sans-Serif" font-size="10.00">ImVector&lt; ImDrawVert &gt;</text>
<polyline fill="none" stroke="black" points="246.168,-781 373.168,-781 "/>
<text text-anchor="start" x="254.168" y="-769" font-family="Helvetica,sans-Serif" font-size="10.00">+ Size</text>
<text text-anchor="start" x="254.168" y="-758" font-family="Helvetica,sans-Serif" font-size="10.00">+ Capacity</text>
<polyline fill="none" stroke="black" points="246.168,-751 373.168,-751 "/>
<text text-anchor="start" x="254.168" y="-739" font-family="Helvetica,sans-Serif" font-size="10.00">+ ImVector()</text>
<text text-anchor="start" x="254.168" y="-728" font-family="Helvetica,sans-Serif" font-size="10.00">+ ~ImVector()</text>
<text text-anchor="start" x="254.168" y="-717" font-family="Helvetica,sans-Serif" font-size="10.00">+ empty()</text>
<text text-anchor="start" x="254.168" y="-706" font-family="Helvetica,sans-Serif" font-size="10.00">+ size()</text>
<text text-anchor="start" x="254.168" y="-695" font-family="Helvetica,sans-Serif" font-size="10.00">+ capacity()</text>
<text text-anchor="start" x="254.168" y="-684" font-family="Helvetica,sans-Serif" font-size="10.00">+ operator[]()</text>
<text text-anchor="start" x="254.168" y="-673" font-family="Helvetica,sans-Serif" font-size="10.00">+ operator[]()</text>
<text text-anchor="start" x="254.168" y="-662" font-family="Helvetica,sans-Serif" font-size="10.00">+ clear()</text>
<text text-anchor="start" x="254.168" y="-651" font-family="Helvetica,sans-Serif" font-size="10.00">+ begin()</text>
<text text-anchor="start" x="254.168" y="-640" font-family="Helvetica,sans-Serif" font-size="10.00">+ begin()</text>
<text text-anchor="start" x="254.168" y="-629" font-family="Helvetica,sans-Serif" font-size="10.00">and 14 more...</text>
</a>
</g>
</g>
<!-- Node7&#45;&gt;Node5 -->
<g id="edge7" class="edge"><title>Node7&#45;&gt;Node5</title>
<path fill="none" stroke="#404040" d="M332.063,-621.836C335.875,-609.66 340.098,-597.422 344.668,-586 345.614,-583.635 346.593,-581.256 347.6,-578.868"/>
<polygon fill="none" stroke="#404040" points="347.697,-578.646 346.433,-571.547 352.5,-567.65 353.764,-574.749 347.697,-578.646"/>
<text text-anchor="middle" x="370.168" y="-589.5" font-family="Helvetica,sans-Serif" font-size="10.00"> +VtxBuffer</text>
</g>
<!-- Node8 -->
<g id="node8" class="node"><title>Node8</title>
<g id="a_node8"><a xlink:href="structImDrawVert.html" target="_top" xlink:title="{ImDrawVert\n|+ col\l|}">
<polygon fill="none" stroke="black" points="275.168,-1044.5 275.168,-1101.5 344.168,-1101.5 344.168,-1044.5 275.168,-1044.5"/>
<text text-anchor="middle" x="309.668" y="-1089.5" font-family="Helvetica,sans-Serif" font-size="10.00">ImDrawVert</text>
<polyline fill="none" stroke="black" points="275.168,-1082.5 344.168,-1082.5 "/>
<text text-anchor="start" x="283.168" y="-1070.5" font-family="Helvetica,sans-Serif" font-size="10.00">+ col</text>
<polyline fill="none" stroke="black" points="275.168,-1063.5 344.168,-1063.5 "/>
<text text-anchor="middle" x="309.668" y="-1051.5" font-family="Helvetica,sans-Serif" font-size="10.00"> </text>
</a>
</g>
</g>
<!-- Node8&#45;&gt;Node5 -->
<g id="edge14" class="edge"><title>Node8&#45;&gt;Node5</title>
<path fill="none" stroke="#404040" d="M326.217,-1044.36C332.807,-1032.32 339.935,-1017.82 344.668,-1004 392.835,-863.396 406.362,-691.609 409.626,-579.872"/>
<polygon fill="none" stroke="#404040" points="409.634,-579.559 405.794,-573.456 409.951,-567.563 413.791,-573.667 409.634,-579.559"/>
<text text-anchor="middle" x="441.668" y="-708.5" font-family="Helvetica,sans-Serif" font-size="10.00"> +_VtxWritePtr</text>
</g>
<!-- Node8&#45;&gt;Node7 -->
<g id="edge8" class="edge"><title>Node8&#45;&gt;Node7</title>
<path fill="none" stroke="#404040" d="M309.668,-1044.35C309.668,-995.432 309.668,-891.375 309.668,-812.643"/>
<polygon fill="none" stroke="#404040" points="309.668,-812.237 305.668,-806.237 309.668,-800.237 313.668,-806.237 309.668,-812.237"/>
<text text-anchor="middle" x="325.168" y="-911.5" font-family="Helvetica,sans-Serif" font-size="10.00"> +Data</text>
</g>
<!-- Node9 -->
<g id="node9" class="node"><title>Node9</title>
<g id="a_node9"><a xlink:href="structImVec2.html" target="_top" xlink:title="{ImVec2\n|+ x\l+ y\l|+ ImVec2()\l+ ImVec2()\l}">
<polygon fill="none" stroke="black" points="233.168,-1237.5 233.168,-1316.5 298.168,-1316.5 298.168,-1237.5 233.168,-1237.5"/>
<text text-anchor="middle" x="265.668" y="-1304.5" font-family="Helvetica,sans-Serif" font-size="10.00">ImVec2</text>
<polyline fill="none" stroke="black" points="233.168,-1297.5 298.168,-1297.5 "/>
<text text-anchor="start" x="241.168" y="-1285.5" font-family="Helvetica,sans-Serif" font-size="10.00">+ x</text>
<text text-anchor="start" x="241.168" y="-1274.5" font-family="Helvetica,sans-Serif" font-size="10.00">+ y</text>
<polyline fill="none" stroke="black" points="233.168,-1267.5 298.168,-1267.5 "/>
<text text-anchor="start" x="241.168" y="-1255.5" font-family="Helvetica,sans-Serif" font-size="10.00">+ ImVec2()</text>
<text text-anchor="start" x="241.168" y="-1244.5" font-family="Helvetica,sans-Serif" font-size="10.00">+ ImVec2()</text>
</a>
</g>
</g>
<!-- Node9&#45;&gt;Node8 -->
<g id="edge9" class="edge"><title>Node9&#45;&gt;Node8</title>
<path fill="none" stroke="#404040" d="M274.152,-1237.05C281.881,-1201.57 293.244,-1149.4 301.023,-1113.69"/>
<polygon fill="none" stroke="#404040" points="301.06,-1113.52 298.428,-1106.81 303.614,-1101.8 306.245,-1108.51 301.06,-1113.52"/>
<text text-anchor="middle" x="307.168" y="-1156" font-family="Helvetica,sans-Serif" font-size="10.00"> +pos</text>
<text text-anchor="middle" x="307.168" y="-1145" font-family="Helvetica,sans-Serif" font-size="10.00">+uv</text>
</g>
<!-- Node11 -->
<g id="node11" class="node"><title>Node11</title>
<g id="a_node11"><a xlink:href="classImVector.html" target="_top" xlink:title="{ImVector\&lt; ImVec2 \&gt;\n|+ Size\l+ Capacity\l|+ ImVector()\l+ ~ImVector()\l+ empty()\l+ size()\l+ capacity()\l+ operator[]()\l+ operator[]()\l+ clear()\l+ begin()\l+ begin()\land 14 more...\l}">
<polygon fill="none" stroke="black" points="158.668,-825 158.668,-1003 266.668,-1003 266.668,-825 158.668,-825"/>
<text text-anchor="middle" x="212.668" y="-991" font-family="Helvetica,sans-Serif" font-size="10.00">ImVector&lt; ImVec2 &gt;</text>
<polyline fill="none" stroke="black" points="158.668,-984 266.668,-984 "/>
<text text-anchor="start" x="166.668" y="-972" font-family="Helvetica,sans-Serif" font-size="10.00">+ Size</text>
<text text-anchor="start" x="166.668" y="-961" font-family="Helvetica,sans-Serif" font-size="10.00">+ Capacity</text>
<polyline fill="none" stroke="black" points="158.668,-954 266.668,-954 "/>
<text text-anchor="start" x="166.668" y="-942" font-family="Helvetica,sans-Serif" font-size="10.00">+ ImVector()</text>
<text text-anchor="start" x="166.668" y="-931" font-family="Helvetica,sans-Serif" font-size="10.00">+ ~ImVector()</text>
<text text-anchor="start" x="166.668" y="-920" font-family="Helvetica,sans-Serif" font-size="10.00">+ empty()</text>
<text text-anchor="start" x="166.668" y="-909" font-family="Helvetica,sans-Serif" font-size="10.00">+ size()</text>
<text text-anchor="start" x="166.668" y="-898" font-family="Helvetica,sans-Serif" font-size="10.00">+ capacity()</text>
<text text-anchor="start" x="166.668" y="-887" font-family="Helvetica,sans-Serif" font-size="10.00">+ operator[]()</text>
<text text-anchor="start" x="166.668" y="-876" font-family="Helvetica,sans-Serif" font-size="10.00">+ operator[]()</text>
<text text-anchor="start" x="166.668" y="-865" font-family="Helvetica,sans-Serif" font-size="10.00">+ clear()</text>
<text text-anchor="start" x="166.668" y="-854" font-family="Helvetica,sans-Serif" font-size="10.00">+ begin()</text>
<text text-anchor="start" x="166.668" y="-843" font-family="Helvetica,sans-Serif" font-size="10.00">+ begin()</text>
<text text-anchor="start" x="166.668" y="-832" font-family="Helvetica,sans-Serif" font-size="10.00">and 14 more...</text>
</a>
</g>
</g>
<!-- Node9&#45;&gt;Node11 -->
<g id="edge13" class="edge"><title>Node9&#45;&gt;Node11</title>
<path fill="none" stroke="#404040" d="M259.996,-1237.37C252.281,-1184.82 238.203,-1088.92 227.399,-1015.34"/>
<polygon fill="none" stroke="#404040" points="227.37,-1015.14 222.541,-1009.78 225.627,-1003.27 230.456,-1008.62 227.37,-1015.14"/>
<text text-anchor="middle" x="265.168" y="-1150.5" font-family="Helvetica,sans-Serif" font-size="10.00"> +Data</text>
</g>
<!-- Node10&#45;&gt;Node5 -->
<g id="edge10" class="edge"><title>Node10&#45;&gt;Node5</title>
<path fill="none" stroke="#404040" d="M679.098,-624.233C675.983,-621.383 672.835,-618.628 669.668,-616 614.428,-570.159 543.813,-529.548 490.119,-501.706"/>
<polygon fill="none" stroke="#404040" points="489.947,-501.618 482.783,-502.436 479.273,-496.136 486.437,-495.319 489.947,-501.618"/>
<text text-anchor="middle" x="672.668" y="-589.5" font-family="Helvetica,sans-Serif" font-size="10.00"> +_Channels</text>
</g>
<!-- Node11&#45;&gt;Node5 -->
<g id="edge12" class="edge"><title>Node11&#45;&gt;Node5</title>
<path fill="none" stroke="#404040" d="M187.789,-824.696C175.387,-762.946 169.121,-680.345 201.668,-616 228.371,-563.209 282.819,-524.187 329.309,-498.767"/>
<polygon fill="none" stroke="#404040" points="329.417,-498.709 332.836,-492.36 340.012,-493.074 336.593,-499.423 329.417,-498.709"/>
<text text-anchor="middle" x="219.168" y="-708.5" font-family="Helvetica,sans-Serif" font-size="10.00"> +_Path</text>
</g>
<!-- Node12 -->
<g id="node12" class="node"><title>Node12</title>
<g id="a_node12"><a xlink:href="classImVector.html" target="_top" xlink:title="{ImVector\&lt; ImDrawIdx \&gt;\n|+ Size\l+ Capacity\l+ Data\l|+ ImVector()\l+ ~ImVector()\l+ empty()\l+ size()\l+ capacity()\l+ operator[]()\l+ operator[]()\l+ clear()\l+ begin()\l+ begin()\land 14 more...\l}">
<polygon fill="none" stroke="black" points="458.668,-1182.5 458.668,-1371.5 580.668,-1371.5 580.668,-1182.5 458.668,-1182.5"/>
<text text-anchor="middle" x="519.668" y="-1359.5" font-family="Helvetica,sans-Serif" font-size="10.00">ImVector&lt; ImDrawIdx &gt;</text>
<polyline fill="none" stroke="black" points="458.668,-1352.5 580.668,-1352.5 "/>
<text text-anchor="start" x="466.668" y="-1340.5" font-family="Helvetica,sans-Serif" font-size="10.00">+ Size</text>
<text text-anchor="start" x="466.668" y="-1329.5" font-family="Helvetica,sans-Serif" font-size="10.00">+ Capacity</text>
<text text-anchor="start" x="466.668" y="-1318.5" font-family="Helvetica,sans-Serif" font-size="10.00">+ Data</text>
<polyline fill="none" stroke="black" points="458.668,-1311.5 580.668,-1311.5 "/>
<text text-anchor="start" x="466.668" y="-1299.5" font-family="Helvetica,sans-Serif" font-size="10.00">+ ImVector()</text>
<text text-anchor="start" x="466.668" y="-1288.5" font-family="Helvetica,sans-Serif" font-size="10.00">+ ~ImVector()</text>
<text text-anchor="start" x="466.668" y="-1277.5" font-family="Helvetica,sans-Serif" font-size="10.00">+ empty()</text>
<text text-anchor="start" x="466.668" y="-1266.5" font-family="Helvetica,sans-Serif" font-size="10.00">+ size()</text>
<text text-anchor="start" x="466.668" y="-1255.5" font-family="Helvetica,sans-Serif" font-size="10.00">+ capacity()</text>
<text text-anchor="start" x="466.668" y="-1244.5" font-family="Helvetica,sans-Serif" font-size="10.00">+ operator[]()</text>
<text text-anchor="start" x="466.668" y="-1233.5" font-family="Helvetica,sans-Serif" font-size="10.00">+ operator[]()</text>
<text text-anchor="start" x="466.668" y="-1222.5" font-family="Helvetica,sans-Serif" font-size="10.00">+ clear()</text>
<text text-anchor="start" x="466.668" y="-1211.5" font-family="Helvetica,sans-Serif" font-size="10.00">+ begin()</text>
<text text-anchor="start" x="466.668" y="-1200.5" font-family="Helvetica,sans-Serif" font-size="10.00">+ begin()</text>
<text text-anchor="start" x="466.668" y="-1189.5" font-family="Helvetica,sans-Serif" font-size="10.00">and 14 more...</text>
</a>
</g>
</g>
<!-- Node12&#45;&gt;Node1 -->
<g id="edge18" class="edge"><title>Node12&#45;&gt;Node1</title>
<path fill="none" stroke="#404040" d="M580.927,-1222.66C621.964,-1186.93 674.861,-1140.87 710.829,-1109.56"/>
<polygon fill="none" stroke="#404040" points="710.995,-1109.41 712.893,-1102.46 720.045,-1101.53 718.147,-1108.49 710.995,-1109.41"/>
<text text-anchor="middle" x="695.168" y="-1150.5" font-family="Helvetica,sans-Serif" font-size="10.00"> +IdxBuffer</text>
</g>
<!-- Node12&#45;&gt;Node5 -->
<g id="edge16" class="edge"><title>Node12&#45;&gt;Node5</title>
<path fill="none" stroke="#404040" d="M524.334,-1182.31C528.426,-1052.9 527.499,-813.101 478.668,-616 475.668,-603.89 471.741,-591.551 467.282,-579.398"/>
<polygon fill="none" stroke="#404040" points="467.14,-579.026 461.261,-574.85 462.856,-567.817 468.734,-571.994 467.14,-579.026"/>
<text text-anchor="middle" x="550.168" y="-911.5" font-family="Helvetica,sans-Serif" font-size="10.00"> +IdxBuffer</text>
</g>
<!-- Node13 -->
<g id="node13" class="node"><title>Node13</title>
<g id="a_node13"><a xlink:href="classImVector.html" target="_top" xlink:title="{ImVector\&lt; ImTextureID \&gt;\n|+ Size\l+ Capacity\l+ Data\l|+ ImVector()\l+ ~ImVector()\l+ empty()\l+ size()\l+ capacity()\l+ operator[]()\l+ operator[]()\l+ clear()\l+ begin()\l+ begin()\land 14 more...\l}">
<polygon fill="none" stroke="black" points="532.168,-616.5 532.168,-805.5 661.168,-805.5 661.168,-616.5 532.168,-616.5"/>
<text text-anchor="middle" x="596.668" y="-793.5" font-family="Helvetica,sans-Serif" font-size="10.00">ImVector&lt; ImTextureID &gt;</text>
<polyline fill="none" stroke="black" points="532.168,-786.5 661.168,-786.5 "/>
<text text-anchor="start" x="540.168" y="-774.5" font-family="Helvetica,sans-Serif" font-size="10.00">+ Size</text>
<text text-anchor="start" x="540.168" y="-763.5" font-family="Helvetica,sans-Serif" font-size="10.00">+ Capacity</text>
<text text-anchor="start" x="540.168" y="-752.5" font-family="Helvetica,sans-Serif" font-size="10.00">+ Data</text>
<polyline fill="none" stroke="black" points="532.168,-745.5 661.168,-745.5 "/>
<text text-anchor="start" x="540.168" y="-733.5" font-family="Helvetica,sans-Serif" font-size="10.00">+ ImVector()</text>
<text text-anchor="start" x="540.168" y="-722.5" font-family="Helvetica,sans-Serif" font-size="10.00">+ ~ImVector()</text>
<text text-anchor="start" x="540.168" y="-711.5" font-family="Helvetica,sans-Serif" font-size="10.00">+ empty()</text>
<text text-anchor="start" x="540.168" y="-700.5" font-family="Helvetica,sans-Serif" font-size="10.00">+ size()</text>
<text text-anchor="start" x="540.168" y="-689.5" font-family="Helvetica,sans-Serif" font-size="10.00">+ capacity()</text>
<text text-anchor="start" x="540.168" y="-678.5" font-family="Helvetica,sans-Serif" font-size="10.00">+ operator[]()</text>
<text text-anchor="start" x="540.168" y="-667.5" font-family="Helvetica,sans-Serif" font-size="10.00">+ operator[]()</text>
<text text-anchor="start" x="540.168" y="-656.5" font-family="Helvetica,sans-Serif" font-size="10.00">+ clear()</text>
<text text-anchor="start" x="540.168" y="-645.5" font-family="Helvetica,sans-Serif" font-size="10.00">+ begin()</text>
<text text-anchor="start" x="540.168" y="-634.5" font-family="Helvetica,sans-Serif" font-size="10.00">+ begin()</text>
<text text-anchor="start" x="540.168" y="-623.5" font-family="Helvetica,sans-Serif" font-size="10.00">and 14 more...</text>
</a>
</g>
</g>
<!-- Node13&#45;&gt;Node5 -->
<g id="edge17" class="edge"><title>Node13&#45;&gt;Node5</title>
<path fill="none" stroke="#404040" d="M539.08,-616.189C532.091,-605.846 524.87,-595.595 517.668,-586 508.22,-573.413 497.805,-560.515 487.284,-548.031"/>
<polygon fill="none" stroke="#404040" points="487.013,-547.712 480.077,-545.737 479.232,-538.576 486.168,-540.55 487.013,-547.712"/>
<text text-anchor="middle" x="566.668" y="-589.5" font-family="Helvetica,sans-Serif" font-size="10.00"> +_TextureIdStack</text>
</g>
</g>
</svg>
