<?xml version="1.0" encoding="UTF-8" standalone="no"?>
<!DOCTYPE svg PUBLIC "-//W3C//DTD SVG 1.1//EN"
 "http://www.w3.org/Graphics/SVG/1.1/DTD/svg11.dtd">
<!-- Generated by graphviz version 2.40.1 (20161225.0304)
 -->
<!-- Title: ImFontConfig Pages: 1 -->
<svg width="821pt" height="1424pt"
 viewBox="0.00 0.00 821.00 1424.00" xmlns="http://www.w3.org/2000/svg" xmlns:xlink="http://www.w3.org/1999/xlink">
<g id="graph0" class="graph" transform="scale(1 1) rotate(0) translate(4 1420)">
<title>ImFontConfig</title>
<!-- Node1 -->
<g id="node1" class="node">
<title>Node1</title>
<polygon fill="#bfbfbf" stroke="#000000" points="80.5,-1017 80.5,-1184 211.5,-1184 211.5,-1017 80.5,-1017"/>
<text text-anchor="middle" x="146" y="-1172" font-family="Helvetica,sans-Serif" font-size="10.00" fill="#000000">ImFontConfig</text>
<polyline fill="none" stroke="#000000" points="80.5,-1165 211.5,-1165 "/>
<text text-anchor="start" x="88.5" y="-1153" font-family="Helvetica,sans-Serif" font-size="10.00" fill="#000000">+ FontData</text>
<text text-anchor="start" x="88.5" y="-1142" font-family="Helvetica,sans-Serif" font-size="10.00" fill="#000000">+ FontDataSize</text>
<text text-anchor="start" x="88.5" y="-1131" font-family="Helvetica,sans-Serif" font-size="10.00" fill="#000000">+ FontDataOwnedByAtlas</text>
<text text-anchor="start" x="88.5" y="-1120" font-family="Helvetica,sans-Serif" font-size="10.00" fill="#000000">+ FontNo</text>
<text text-anchor="start" x="88.5" y="-1109" font-family="Helvetica,sans-Serif" font-size="10.00" fill="#000000">+ SizePixels</text>
<text text-anchor="start" x="88.5" y="-1098" font-family="Helvetica,sans-Serif" font-size="10.00" fill="#000000">+ OversampleH</text>
<text text-anchor="start" x="88.5" y="-1087" font-family="Helvetica,sans-Serif" font-size="10.00" fill="#000000">+ OversampleV</text>
<text text-anchor="start" x="88.5" y="-1076" font-family="Helvetica,sans-Serif" font-size="10.00" fill="#000000">+ PixelSnapH</text>
<text text-anchor="start" x="88.5" y="-1065" font-family="Helvetica,sans-Serif" font-size="10.00" fill="#000000">+ GlyphRanges</text>
<text text-anchor="start" x="88.5" y="-1054" font-family="Helvetica,sans-Serif" font-size="10.00" fill="#000000">+ MergeMode</text>
<text text-anchor="start" x="88.5" y="-1043" font-family="Helvetica,sans-Serif" font-size="10.00" fill="#000000">+ Name</text>
<polyline fill="none" stroke="#000000" points="80.5,-1036 211.5,-1036 "/>
<text text-anchor="start" x="88.5" y="-1024" font-family="Helvetica,sans-Serif" font-size="10.00" fill="#000000">+ ImFontConfig()</text>
</g>
<!-- Node3 -->
<g id="node3" class="node">
<title>Node3</title>
<g id="a_node3"><a xlink:href="structImFont.html" target="_top" xlink:title="{ImFont\n|+ FontSize\l+ Scale\l+ FallbackXAdvance\l+ FallbackChar\l+ ConfigDataCount\l+ Ascent\l+ Descent\l+ MetricsTotalSurface\l|+ ImFont()\l+ ~ImFont()\l+ Clear()\l+ BuildLookupTable()\l+ FindGlyph()\l+ SetFallbackChar()\l+ GetCharAdvance()\l+ IsLoaded()\l+ CalcTextSizeA()\l+ CalcWordWrapPositionA()\l+ RenderChar()\l+ RenderText()\l+ GrowIndex()\l+ AddRemapChar()\l}">
<polygon fill="none" stroke="#000000" points="264,-675.5 264,-952.5 404,-952.5 404,-675.5 264,-675.5"/>
<text text-anchor="middle" x="334" y="-940.5" font-family="Helvetica,sans-Serif" font-size="10.00" fill="#000000">ImFont</text>
<polyline fill="none" stroke="#000000" points="264,-933.5 404,-933.5 "/>
<text text-anchor="start" x="272" y="-921.5" font-family="Helvetica,sans-Serif" font-size="10.00" fill="#000000">+ FontSize</text>
<text text-anchor="start" x="272" y="-910.5" font-family="Helvetica,sans-Serif" font-size="10.00" fill="#000000">+ Scale</text>
<text text-anchor="start" x="272" y="-899.5" font-family="Helvetica,sans-Serif" font-size="10.00" fill="#000000">+ FallbackXAdvance</text>
<text text-anchor="start" x="272" y="-888.5" font-family="Helvetica,sans-Serif" font-size="10.00" fill="#000000">+ FallbackChar</text>
<text text-anchor="start" x="272" y="-877.5" font-family="Helvetica,sans-Serif" font-size="10.00" fill="#000000">+ ConfigDataCount</text>
<text text-anchor="start" x="272" y="-866.5" font-family="Helvetica,sans-Serif" font-size="10.00" fill="#000000">+ Ascent</text>
<text text-anchor="start" x="272" y="-855.5" font-family="Helvetica,sans-Serif" font-size="10.00" fill="#000000">+ Descent</text>
<text text-anchor="start" x="272" y="-844.5" font-family="Helvetica,sans-Serif" font-size="10.00" fill="#000000">+ MetricsTotalSurface</text>
<polyline fill="none" stroke="#000000" points="264,-837.5 404,-837.5 "/>
<text text-anchor="start" x="272" y="-825.5" font-family="Helvetica,sans-Serif" font-size="10.00" fill="#000000">+ ImFont()</text>
<text text-anchor="start" x="272" y="-814.5" font-family="Helvetica,sans-Serif" font-size="10.00" fill="#000000">+ ~ImFont()</text>
<text text-anchor="start" x="272" y="-803.5" font-family="Helvetica,sans-Serif" font-size="10.00" fill="#000000">+ Clear()</text>
<text text-anchor="start" x="272" y="-792.5" font-family="Helvetica,sans-Serif" font-size="10.00" fill="#000000">+ BuildLookupTable()</text>
<text text-anchor="start" x="272" y="-781.5" font-family="Helvetica,sans-Serif" font-size="10.00" fill="#000000">+ FindGlyph()</text>
<text text-anchor="start" x="272" y="-770.5" font-family="Helvetica,sans-Serif" font-size="10.00" fill="#000000">+ SetFallbackChar()</text>
<text text-anchor="start" x="272" y="-759.5" font-family="Helvetica,sans-Serif" font-size="10.00" fill="#000000">+ GetCharAdvance()</text>
<text text-anchor="start" x="272" y="-748.5" font-family="Helvetica,sans-Serif" font-size="10.00" fill="#000000">+ IsLoaded()</text>
<text text-anchor="start" x="272" y="-737.5" font-family="Helvetica,sans-Serif" font-size="10.00" fill="#000000">+ CalcTextSizeA()</text>
<text text-anchor="start" x="272" y="-726.5" font-family="Helvetica,sans-Serif" font-size="10.00" fill="#000000">+ CalcWordWrapPositionA()</text>
<text text-anchor="start" x="272" y="-715.5" font-family="Helvetica,sans-Serif" font-size="10.00" fill="#000000">+ RenderChar()</text>
<text text-anchor="start" x="272" y="-704.5" font-family="Helvetica,sans-Serif" font-size="10.00" fill="#000000">+ RenderText()</text>
<text text-anchor="start" x="272" y="-693.5" font-family="Helvetica,sans-Serif" font-size="10.00" fill="#000000">+ GrowIndex()</text>
<text text-anchor="start" x="272" y="-682.5" font-family="Helvetica,sans-Serif" font-size="10.00" fill="#000000">+ AddRemapChar()</text>
</a>
</g>
</g>
<!-- Node1&#45;&gt;Node3 -->
<g id="edge8" class="edge">
<title>Node1&#45;&gt;Node3</title>
<path fill="none" stroke="#404040" d="M149.1052,-1016.7122C152.026,-1000.9155 156.6924,-984.9811 164,-971 185.0874,-930.6548 220.8141,-895.2656 254.0888,-868.3498"/>
<polygon fill="none" stroke="#404040" points="254.4406,-868.0717 256.667,-861.2129 263.8546,-860.6301 261.6281,-867.4889 254.4406,-868.0717"/>
<text text-anchor="middle" x="193.5" y="-974" font-family="Helvetica,sans-Serif" font-size="10.00" fill="#000000"> +ConfigData</text>
</g>
<!-- Node8 -->
<g id="node8" class="node">
<title>Node8</title>
<g id="a_node8"><a xlink:href="classImVector.html" target="_top" xlink:title="{ImVector\&lt; ImFontConfig \&gt;\n|+ Size\l+ Capacity\l|+ ImVector()\l+ ~ImVector()\l+ empty()\l+ size()\l+ capacity()\l+ operator[]()\l+ operator[]()\l+ clear()\l+ begin()\l+ begin()\land 14 more...\l}">
<polygon fill="none" stroke="#000000" points="46.5,-478.5 46.5,-656.5 179.5,-656.5 179.5,-478.5 46.5,-478.5"/>
<text text-anchor="middle" x="113" y="-644.5" font-family="Helvetica,sans-Serif" font-size="10.00" fill="#000000">ImVector&lt; ImFontConfig &gt;</text>
<polyline fill="none" stroke="#000000" points="46.5,-637.5 179.5,-637.5 "/>
<text text-anchor="start" x="54.5" y="-625.5" font-family="Helvetica,sans-Serif" font-size="10.00" fill="#000000">+ Size</text>
<text text-anchor="start" x="54.5" y="-614.5" font-family="Helvetica,sans-Serif" font-size="10.00" fill="#000000">+ Capacity</text>
<polyline fill="none" stroke="#000000" points="46.5,-607.5 179.5,-607.5 "/>
<text text-anchor="start" x="54.5" y="-595.5" font-family="Helvetica,sans-Serif" font-size="10.00" fill="#000000">+ ImVector()</text>
<text text-anchor="start" x="54.5" y="-584.5" font-family="Helvetica,sans-Serif" font-size="10.00" fill="#000000">+ ~ImVector()</text>
<text text-anchor="start" x="54.5" y="-573.5" font-family="Helvetica,sans-Serif" font-size="10.00" fill="#000000">+ empty()</text>
<text text-anchor="start" x="54.5" y="-562.5" font-family="Helvetica,sans-Serif" font-size="10.00" fill="#000000">+ size()</text>
<text text-anchor="start" x="54.5" y="-551.5" font-family="Helvetica,sans-Serif" font-size="10.00" fill="#000000">+ capacity()</text>
<text text-anchor="start" x="54.5" y="-540.5" font-family="Helvetica,sans-Serif" font-size="10.00" fill="#000000">+ operator[]()</text>
<text text-anchor="start" x="54.5" y="-529.5" font-family="Helvetica,sans-Serif" font-size="10.00" fill="#000000">+ operator[]()</text>
<text text-anchor="start" x="54.5" y="-518.5" font-family="Helvetica,sans-Serif" font-size="10.00" fill="#000000">+ clear()</text>
<text text-anchor="start" x="54.5" y="-507.5" font-family="Helvetica,sans-Serif" font-size="10.00" fill="#000000">+ begin()</text>
<text text-anchor="start" x="54.5" y="-496.5" font-family="Helvetica,sans-Serif" font-size="10.00" fill="#000000">+ begin()</text>
<text text-anchor="start" x="54.5" y="-485.5" font-family="Helvetica,sans-Serif" font-size="10.00" fill="#000000">and 14 more...</text>
</a>
</g>
</g>
<!-- Node1&#45;&gt;Node8 -->
<g id="edge12" class="edge">
<title>Node1&#45;&gt;Node8</title>
<path fill="none" stroke="#404040" d="M129.6086,-1016.879C127.78,-1005.2028 126.1614,-993.3276 125,-982 114.0826,-875.5152 111.799,-752.8976 111.8029,-668.809"/>
<polygon fill="none" stroke="#404040" points="111.8029,-668.6886 107.8111,-662.6832 111.8193,-656.6886 115.8111,-662.6941 111.8029,-668.6886"/>
<text text-anchor="middle" x="140.5" y="-974" font-family="Helvetica,sans-Serif" font-size="10.00" fill="#000000"> +Data</text>
</g>
<!-- Node2 -->
<g id="node2" class="node">
<title>Node2</title>
<g id="a_node2"><a xlink:href="structImVec2.html" target="_top" xlink:title="{ImVec2\n|+ x\l+ y\l|+ ImVec2()\l+ ImVec2()\l}">
<polygon fill="none" stroke="#000000" points="111.5,-1298 111.5,-1377 176.5,-1377 176.5,-1298 111.5,-1298"/>
<text text-anchor="middle" x="144" y="-1365" font-family="Helvetica,sans-Serif" font-size="10.00" fill="#000000">ImVec2</text>
<polyline fill="none" stroke="#000000" points="111.5,-1358 176.5,-1358 "/>
<text text-anchor="start" x="119.5" y="-1346" font-family="Helvetica,sans-Serif" font-size="10.00" fill="#000000">+ x</text>
<text text-anchor="start" x="119.5" y="-1335" font-family="Helvetica,sans-Serif" font-size="10.00" fill="#000000">+ y</text>
<polyline fill="none" stroke="#000000" points="111.5,-1328 176.5,-1328 "/>
<text text-anchor="start" x="119.5" y="-1316" font-family="Helvetica,sans-Serif" font-size="10.00" fill="#000000">+ ImVec2()</text>
<text text-anchor="start" x="119.5" y="-1305" font-family="Helvetica,sans-Serif" font-size="10.00" fill="#000000">+ ImVec2()</text>
</a>
</g>
</g>
<!-- Node2&#45;&gt;Node1 -->
<g id="edge1" class="edge">
<title>Node2&#45;&gt;Node1</title>
<path fill="none" stroke="#404040" d="M144.3348,-1297.8315C144.5685,-1270.1308 144.891,-1231.9118 145.19,-1196.4814"/>
<polygon fill="none" stroke="#404040" points="145.1933,-1196.0869 141.2441,-1190.0533 145.2946,-1184.0873 149.2438,-1190.1209 145.1933,-1196.0869"/>
<text text-anchor="middle" x="190.5" y="-1233" font-family="Helvetica,sans-Serif" font-size="10.00" fill="#000000"> +GlyphOffset</text>
<text text-anchor="middle" x="190.5" y="-1222" font-family="Helvetica,sans-Serif" font-size="10.00" fill="#000000">+GlyphExtraSpacing</text>
</g>
<!-- Node2&#45;&gt;Node3 -->
<g id="edge4" class="edge">
<title>Node2&#45;&gt;Node3</title>
<path fill="none" stroke="#404040" d="M176.618,-1313.03C197.4063,-1295.4552 222.8283,-1269.8467 236,-1241 280.6918,-1143.1229 207.3253,-1094.377 259,-1000 265.234,-988.6144 274.6336,-992.6879 282,-982 285.996,-976.2023 289.694,-970.0857 293.1153,-963.7548"/>
<polygon fill="none" stroke="#404040" points="293.185,-963.6173 292.3334,-956.4566 298.6156,-952.9164 299.4673,-960.077 293.185,-963.6173"/>
<text text-anchor="middle" x="293.5" y="-1098" font-family="Helvetica,sans-Serif" font-size="10.00" fill="#000000"> +DisplayOffset</text>
</g>
<!-- Node7 -->
<g id="node7" class="node">
<title>Node7</title>
<g id="a_node7"><a xlink:href="structImFontAtlas.html" target="_top" xlink:title="{ImFontAtlas\n|+ TexID\l+ TexPixelsAlpha8\l+ TexPixelsRGBA32\l+ TexWidth\l+ TexHeight\l+ TexDesiredWidth\l|+ ImFontAtlas()\l+ ~ImFontAtlas()\l+ AddFont()\l+ AddFontDefault()\l+ AddFontFromFileTTF()\l+ AddFontFromMemoryTTF()\l+ AddFontFromMemoryCompressedTTF()\l+ AddFontFromMemoryCompressed\lBase85TTF()\l+ ClearTexData()\l+ ClearInputData()\land 13 more...\l}">
<polygon fill="none" stroke="#000000" points="78,-.5 78,-233.5 278,-233.5 278,-.5 78,-.5"/>
<text text-anchor="middle" x="178" y="-221.5" font-family="Helvetica,sans-Serif" font-size="10.00" fill="#000000">ImFontAtlas</text>
<polyline fill="none" stroke="#000000" points="78,-214.5 278,-214.5 "/>
<text text-anchor="start" x="86" y="-202.5" font-family="Helvetica,sans-Serif" font-size="10.00" fill="#000000">+ TexID</text>
<text text-anchor="start" x="86" y="-191.5" font-family="Helvetica,sans-Serif" font-size="10.00" fill="#000000">+ TexPixelsAlpha8</text>
<text text-anchor="start" x="86" y="-180.5" font-family="Helvetica,sans-Serif" font-size="10.00" fill="#000000">+ TexPixelsRGBA32</text>
<text text-anchor="start" x="86" y="-169.5" font-family="Helvetica,sans-Serif" font-size="10.00" fill="#000000">+ TexWidth</text>
<text text-anchor="start" x="86" y="-158.5" font-family="Helvetica,sans-Serif" font-size="10.00" fill="#000000">+ TexHeight</text>
<text text-anchor="start" x="86" y="-147.5" font-family="Helvetica,sans-Serif" font-size="10.00" fill="#000000">+ TexDesiredWidth</text>
<polyline fill="none" stroke="#000000" points="78,-140.5 278,-140.5 "/>
<text text-anchor="start" x="86" y="-128.5" font-family="Helvetica,sans-Serif" font-size="10.00" fill="#000000">+ ImFontAtlas()</text>
<text text-anchor="start" x="86" y="-117.5" font-family="Helvetica,sans-Serif" font-size="10.00" fill="#000000">+ ~ImFontAtlas()</text>
<text text-anchor="start" x="86" y="-106.5" font-family="Helvetica,sans-Serif" font-size="10.00" fill="#000000">+ AddFont()</text>
<text text-anchor="start" x="86" y="-95.5" font-family="Helvetica,sans-Serif" font-size="10.00" fill="#000000">+ AddFontDefault()</text>
<text text-anchor="start" x="86" y="-84.5" font-family="Helvetica,sans-Serif" font-size="10.00" fill="#000000">+ AddFontFromFileTTF()</text>
<text text-anchor="start" x="86" y="-73.5" font-family="Helvetica,sans-Serif" font-size="10.00" fill="#000000">+ AddFontFromMemoryTTF()</text>
<text text-anchor="start" x="86" y="-62.5" font-family="Helvetica,sans-Serif" font-size="10.00" fill="#000000">+ AddFontFromMemoryCompressedTTF()</text>
<text text-anchor="start" x="86" y="-51.5" font-family="Helvetica,sans-Serif" font-size="10.00" fill="#000000">+ AddFontFromMemoryCompressed</text>
<text text-anchor="start" x="86" y="-40.5" font-family="Helvetica,sans-Serif" font-size="10.00" fill="#000000">Base85TTF()</text>
<text text-anchor="start" x="86" y="-29.5" font-family="Helvetica,sans-Serif" font-size="10.00" fill="#000000">+ ClearTexData()</text>
<text text-anchor="start" x="86" y="-18.5" font-family="Helvetica,sans-Serif" font-size="10.00" fill="#000000">+ ClearInputData()</text>
<text text-anchor="start" x="86" y="-7.5" font-family="Helvetica,sans-Serif" font-size="10.00" fill="#000000">and 13 more...</text>
</a>
</g>
</g>
<!-- Node2&#45;&gt;Node7 -->
<g id="edge10" class="edge">
<title>Node2&#45;&gt;Node7</title>
<path fill="none" stroke="#404040" d="M111.3242,-1308.0668C68.8381,-1266.3912 0,-1185.7174 0,-1100.5 0,-1100.5 0,-1100.5 0,-370.5 0,-311.6343 32.5448,-256.7608 69.8025,-213.2283"/>
<polygon fill="none" stroke="#404040" points="69.8919,-213.1266 70.8488,-205.9793 77.8144,-204.1137 76.8575,-211.261 69.8919,-213.1266"/>
<text text-anchor="middle" x="42.5" y="-811.5" font-family="Helvetica,sans-Serif" font-size="10.00" fill="#000000"> +TexUvWhitePixel</text>
</g>
<!-- Node3&#45;&gt;Node1 -->
<g id="edge2" class="edge">
<title>Node3&#45;&gt;Node1</title>
<path fill="none" stroke="#404040" d="M263.7125,-925.481C251.5739,-944.4097 239,-963.8175 227,-982 221.6815,-990.0586 216.1174,-998.3924 210.504,-1006.7335"/>
<polygon fill="none" stroke="#404040" points="210.3596,-1006.9474 210.3178,-1014.1584 203.6455,-1016.8933 203.6872,-1009.6823 210.3596,-1006.9474"/>
<text text-anchor="middle" x="255.5" y="-974" font-family="Helvetica,sans-Serif" font-size="10.00" fill="#000000"> +DstFont</text>
</g>
<!-- Node9 -->
<g id="node9" class="node">
<title>Node9</title>
<g id="a_node9"><a xlink:href="classImVector.html" target="_top" xlink:title="{ImVector\&lt; ImFont *\&gt;\n|+ Size\l+ Capacity\l|+ ImVector()\l+ ~ImVector()\l+ empty()\l+ size()\l+ capacity()\l+ operator[]()\l+ operator[]()\l+ clear()\l+ begin()\l+ begin()\land 14 more...\l}">
<polygon fill="none" stroke="#000000" points="190,-281.5 190,-459.5 298,-459.5 298,-281.5 190,-281.5"/>
<text text-anchor="middle" x="244" y="-447.5" font-family="Helvetica,sans-Serif" font-size="10.00" fill="#000000">ImVector&lt; ImFont *&gt;</text>
<polyline fill="none" stroke="#000000" points="190,-440.5 298,-440.5 "/>
<text text-anchor="start" x="198" y="-428.5" font-family="Helvetica,sans-Serif" font-size="10.00" fill="#000000">+ Size</text>
<text text-anchor="start" x="198" y="-417.5" font-family="Helvetica,sans-Serif" font-size="10.00" fill="#000000">+ Capacity</text>
<polyline fill="none" stroke="#000000" points="190,-410.5 298,-410.5 "/>
<text text-anchor="start" x="198" y="-398.5" font-family="Helvetica,sans-Serif" font-size="10.00" fill="#000000">+ ImVector()</text>
<text text-anchor="start" x="198" y="-387.5" font-family="Helvetica,sans-Serif" font-size="10.00" fill="#000000">+ ~ImVector()</text>
<text text-anchor="start" x="198" y="-376.5" font-family="Helvetica,sans-Serif" font-size="10.00" fill="#000000">+ empty()</text>
<text text-anchor="start" x="198" y="-365.5" font-family="Helvetica,sans-Serif" font-size="10.00" fill="#000000">+ size()</text>
<text text-anchor="start" x="198" y="-354.5" font-family="Helvetica,sans-Serif" font-size="10.00" fill="#000000">+ capacity()</text>
<text text-anchor="start" x="198" y="-343.5" font-family="Helvetica,sans-Serif" font-size="10.00" fill="#000000">+ operator[]()</text>
<text text-anchor="start" x="198" y="-332.5" font-family="Helvetica,sans-Serif" font-size="10.00" fill="#000000">+ operator[]()</text>
<text text-anchor="start" x="198" y="-321.5" font-family="Helvetica,sans-Serif" font-size="10.00" fill="#000000">+ clear()</text>
<text text-anchor="start" x="198" y="-310.5" font-family="Helvetica,sans-Serif" font-size="10.00" fill="#000000">+ begin()</text>
<text text-anchor="start" x="198" y="-299.5" font-family="Helvetica,sans-Serif" font-size="10.00" fill="#000000">+ begin()</text>
<text text-anchor="start" x="198" y="-288.5" font-family="Helvetica,sans-Serif" font-size="10.00" fill="#000000">and 14 more...</text>
</a>
</g>
</g>
<!-- Node3&#45;&gt;Node9 -->
<g id="edge14" class="edge">
<title>Node3&#45;&gt;Node9</title>
<path fill="none" stroke="#404040" d="M293.2099,-675.1204C291.7271,-669.0128 290.3153,-662.9526 289,-657 275.5142,-595.9679 264.5257,-526.7564 256.7838,-471.6503"/>
<polygon fill="none" stroke="#404040" points="256.7828,-471.6427 251.9956,-466.2498 255.1323,-459.7567 259.9196,-465.1495 256.7828,-471.6427"/>
<text text-anchor="middle" x="304.5" y="-565" font-family="Helvetica,sans-Serif" font-size="10.00" fill="#000000"> +Data</text>
</g>
<!-- Node4 -->
<g id="node4" class="node">
<title>Node4</title>
<g id="a_node4"><a xlink:href="structImFont_1_1Glyph.html" target="_top" xlink:title="{ImFont::Glyph\n|+ Codepoint\l+ XAdvance\l+ X0\l+ Y0\l+ X1\l+ Y1\l+ U0\l+ V0\l+ U1\l+ V1\l|}">
<polygon fill="none" stroke="#000000" points="443.5,-1259.5 443.5,-1415.5 522.5,-1415.5 522.5,-1259.5 443.5,-1259.5"/>
<text text-anchor="middle" x="483" y="-1403.5" font-family="Helvetica,sans-Serif" font-size="10.00" fill="#000000">ImFont::Glyph</text>
<polyline fill="none" stroke="#000000" points="443.5,-1396.5 522.5,-1396.5 "/>
<text text-anchor="start" x="451.5" y="-1384.5" font-family="Helvetica,sans-Serif" font-size="10.00" fill="#000000">+ Codepoint</text>
<text text-anchor="start" x="451.5" y="-1373.5" font-family="Helvetica,sans-Serif" font-size="10.00" fill="#000000">+ XAdvance</text>
<text text-anchor="start" x="451.5" y="-1362.5" font-family="Helvetica,sans-Serif" font-size="10.00" fill="#000000">+ X0</text>
<text text-anchor="start" x="451.5" y="-1351.5" font-family="Helvetica,sans-Serif" font-size="10.00" fill="#000000">+ Y0</text>
<text text-anchor="start" x="451.5" y="-1340.5" font-family="Helvetica,sans-Serif" font-size="10.00" fill="#000000">+ X1</text>
<text text-anchor="start" x="451.5" y="-1329.5" font-family="Helvetica,sans-Serif" font-size="10.00" fill="#000000">+ Y1</text>
<text text-anchor="start" x="451.5" y="-1318.5" font-family="Helvetica,sans-Serif" font-size="10.00" fill="#000000">+ U0</text>
<text text-anchor="start" x="451.5" y="-1307.5" font-family="Helvetica,sans-Serif" font-size="10.00" fill="#000000">+ V0</text>
<text text-anchor="start" x="451.5" y="-1296.5" font-family="Helvetica,sans-Serif" font-size="10.00" fill="#000000">+ U1</text>
<text text-anchor="start" x="451.5" y="-1285.5" font-family="Helvetica,sans-Serif" font-size="10.00" fill="#000000">+ V1</text>
<polyline fill="none" stroke="#000000" points="443.5,-1278.5 522.5,-1278.5 "/>
<text text-anchor="middle" x="483" y="-1266.5" font-family="Helvetica,sans-Serif" font-size="10.00" fill="#000000"> </text>
</a>
</g>
</g>
<!-- Node4&#45;&gt;Node3 -->
<g id="edge3" class="edge">
<title>Node4&#45;&gt;Node3</title>
<path fill="none" stroke="#404040" d="M497.2843,-1259.2149C506.7304,-1189.117 512.4339,-1084.6363 482,-1000 467.321,-959.178 439.7413,-920.5182 412.3312,-889.1284"/>
<polygon fill="none" stroke="#404040" points="412.2205,-889.0043 405.2413,-887.1902 404.2315,-880.0501 411.2108,-881.8642 412.2205,-889.0043"/>
<text text-anchor="middle" x="541" y="-1098" font-family="Helvetica,sans-Serif" font-size="10.00" fill="#000000"> +FallbackGlyph</text>
</g>
<!-- Node5 -->
<g id="node5" class="node">
<title>Node5</title>
<g id="a_node5"><a xlink:href="classImVector.html" target="_top" xlink:title="{ImVector\&lt; ImFont::Glyph \&gt;\n|+ Size\l+ Capacity\l|+ ImVector()\l+ ~ImVector()\l+ empty()\l+ size()\l+ capacity()\l+ operator[]()\l+ operator[]()\l+ clear()\l+ begin()\l+ begin()\land 14 more...\l}">
<polygon fill="none" stroke="#000000" points="337,-1011.5 337,-1189.5 473,-1189.5 473,-1011.5 337,-1011.5"/>
<text text-anchor="middle" x="405" y="-1177.5" font-family="Helvetica,sans-Serif" font-size="10.00" fill="#000000">ImVector&lt; ImFont::Glyph &gt;</text>
<polyline fill="none" stroke="#000000" points="337,-1170.5 473,-1170.5 "/>
<text text-anchor="start" x="345" y="-1158.5" font-family="Helvetica,sans-Serif" font-size="10.00" fill="#000000">+ Size</text>
<text text-anchor="start" x="345" y="-1147.5" font-family="Helvetica,sans-Serif" font-size="10.00" fill="#000000">+ Capacity</text>
<polyline fill="none" stroke="#000000" points="337,-1140.5 473,-1140.5 "/>
<text text-anchor="start" x="345" y="-1128.5" font-family="Helvetica,sans-Serif" font-size="10.00" fill="#000000">+ ImVector()</text>
<text text-anchor="start" x="345" y="-1117.5" font-family="Helvetica,sans-Serif" font-size="10.00" fill="#000000">+ ~ImVector()</text>
<text text-anchor="start" x="345" y="-1106.5" font-family="Helvetica,sans-Serif" font-size="10.00" fill="#000000">+ empty()</text>
<text text-anchor="start" x="345" y="-1095.5" font-family="Helvetica,sans-Serif" font-size="10.00" fill="#000000">+ size()</text>
<text text-anchor="start" x="345" y="-1084.5" font-family="Helvetica,sans-Serif" font-size="10.00" fill="#000000">+ capacity()</text>
<text text-anchor="start" x="345" y="-1073.5" font-family="Helvetica,sans-Serif" font-size="10.00" fill="#000000">+ operator[]()</text>
<text text-anchor="start" x="345" y="-1062.5" font-family="Helvetica,sans-Serif" font-size="10.00" fill="#000000">+ operator[]()</text>
<text text-anchor="start" x="345" y="-1051.5" font-family="Helvetica,sans-Serif" font-size="10.00" fill="#000000">+ clear()</text>
<text text-anchor="start" x="345" y="-1040.5" font-family="Helvetica,sans-Serif" font-size="10.00" fill="#000000">+ begin()</text>
<text text-anchor="start" x="345" y="-1029.5" font-family="Helvetica,sans-Serif" font-size="10.00" fill="#000000">+ begin()</text>
<text text-anchor="start" x="345" y="-1018.5" font-family="Helvetica,sans-Serif" font-size="10.00" fill="#000000">and 14 more...</text>
</a>
</g>
</g>
<!-- Node4&#45;&gt;Node5 -->
<g id="edge6" class="edge">
<title>Node4&#45;&gt;Node5</title>
<path fill="none" stroke="#404040" d="M457.2437,-1259.2405C451.1518,-1240.7304 444.5706,-1220.7338 438.2006,-1201.3787"/>
<polygon fill="none" stroke="#404040" points="438.1258,-1201.1511 432.4505,-1196.7024 434.3743,-1189.7526 440.0495,-1194.2014 438.1258,-1201.1511"/>
<text text-anchor="middle" x="466.5" y="-1227.5" font-family="Helvetica,sans-Serif" font-size="10.00" fill="#000000"> +Data</text>
</g>
<!-- Node5&#45;&gt;Node3 -->
<g id="edge5" class="edge">
<title>Node5&#45;&gt;Node3</title>
<path fill="none" stroke="#404040" d="M382.9243,-1011.4201C379.2065,-996.4176 375.2582,-980.4855 371.28,-964.4328"/>
<polygon fill="none" stroke="#404040" points="371.2675,-964.3819 365.9416,-959.5202 368.3809,-952.7342 373.7068,-957.5959 371.2675,-964.3819"/>
<text text-anchor="middle" x="394" y="-974" font-family="Helvetica,sans-Serif" font-size="10.00" fill="#000000"> +Glyphs</text>
</g>
<!-- Node6 -->
<g id="node6" class="node">
<title>Node6</title>
<g id="a_node6"><a xlink:href="classImVector.html" target="_top" xlink:title="{ImVector\&lt; unsigned\l short \&gt;\n|+ Size\l+ Capacity\l+ Data\l|+ ImVector()\l+ ~ImVector()\l+ empty()\l+ size()\l+ capacity()\l+ operator[]()\l+ operator[]()\l+ clear()\l+ begin()\l+ begin()\land 14 more...\l}">
<polygon fill="none" stroke="#000000" points="599,-1000.5 599,-1200.5 703,-1200.5 703,-1000.5 599,-1000.5"/>
<text text-anchor="start" x="607" y="-1188.5" font-family="Helvetica,sans-Serif" font-size="10.00" fill="#000000">ImVector&lt; unsigned</text>
<text text-anchor="middle" x="651" y="-1177.5" font-family="Helvetica,sans-Serif" font-size="10.00" fill="#000000"> short &gt;</text>
<polyline fill="none" stroke="#000000" points="599,-1170.5 703,-1170.5 "/>
<text text-anchor="start" x="607" y="-1158.5" font-family="Helvetica,sans-Serif" font-size="10.00" fill="#000000">+ Size</text>
<text text-anchor="start" x="607" y="-1147.5" font-family="Helvetica,sans-Serif" font-size="10.00" fill="#000000">+ Capacity</text>
<text text-anchor="start" x="607" y="-1136.5" font-family="Helvetica,sans-Serif" font-size="10.00" fill="#000000">+ Data</text>
<polyline fill="none" stroke="#000000" points="599,-1129.5 703,-1129.5 "/>
<text text-anchor="start" x="607" y="-1117.5" font-family="Helvetica,sans-Serif" font-size="10.00" fill="#000000">+ ImVector()</text>
<text text-anchor="start" x="607" y="-1106.5" font-family="Helvetica,sans-Serif" font-size="10.00" fill="#000000">+ ~ImVector()</text>
<text text-anchor="start" x="607" y="-1095.5" font-family="Helvetica,sans-Serif" font-size="10.00" fill="#000000">+ empty()</text>
<text text-anchor="start" x="607" y="-1084.5" font-family="Helvetica,sans-Serif" font-size="10.00" fill="#000000">+ size()</text>
<text text-anchor="start" x="607" y="-1073.5" font-family="Helvetica,sans-Serif" font-size="10.00" fill="#000000">+ capacity()</text>
<text text-anchor="start" x="607" y="-1062.5" font-family="Helvetica,sans-Serif" font-size="10.00" fill="#000000">+ operator[]()</text>
<text text-anchor="start" x="607" y="-1051.5" font-family="Helvetica,sans-Serif" font-size="10.00" fill="#000000">+ operator[]()</text>
<text text-anchor="start" x="607" y="-1040.5" font-family="Helvetica,sans-Serif" font-size="10.00" fill="#000000">+ clear()</text>
<text text-anchor="start" x="607" y="-1029.5" font-family="Helvetica,sans-Serif" font-size="10.00" fill="#000000">+ begin()</text>
<text text-anchor="start" x="607" y="-1018.5" font-family="Helvetica,sans-Serif" font-size="10.00" fill="#000000">+ begin()</text>
<text text-anchor="start" x="607" y="-1007.5" font-family="Helvetica,sans-Serif" font-size="10.00" fill="#000000">and 14 more...</text>
</a>
</g>
</g>
<!-- Node6&#45;&gt;Node3 -->
<g id="edge7" class="edge">
<title>Node6&#45;&gt;Node3</title>
<path fill="none" stroke="#404040" d="M598.9785,-1016.2311C594.4785,-1010.5562 589.8026,-1005.0827 585,-1000 534.3637,-946.4104 466.73,-897.2876 414.4281,-862.9984"/>
<polygon fill="none" stroke="#404040" points="414.2444,-862.8792 407.0338,-862.9646 404.1817,-856.3415 411.3923,-856.2561 414.2444,-862.8792"/>
<text text-anchor="middle" x="593.5" y="-974" font-family="Helvetica,sans-Serif" font-size="10.00" fill="#000000"> +IndexLookup</text>
</g>
<!-- Node7&#45;&gt;Node3 -->
<g id="edge9" class="edge">
<title>Node7&#45;&gt;Node3</title>
<path fill="none" stroke="#404040" d="M278.1919,-226.6736C289.6604,-243.8877 299.8011,-262.2283 307,-281 353.9673,-403.4704 357.2456,-553.4847 350.7919,-663.1268"/>
<polygon fill="none" stroke="#404040" points="350.7806,-663.3073 354.3959,-669.5467 350.0269,-675.2836 346.4117,-669.0442 350.7806,-663.3073"/>
<text text-anchor="middle" x="384" y="-368" font-family="Helvetica,sans-Serif" font-size="10.00" fill="#000000"> +ContainerAtlas</text>
</g>
<!-- Node8&#45;&gt;Node7 -->
<g id="edge11" class="edge">
<title>Node8&#45;&gt;Node7</title>
<path fill="none" stroke="#404040" d="M109.0297,-478.3744C108.1555,-421.4632 110.0913,-346.3591 122,-281 124.1235,-269.3454 126.9186,-257.3961 130.1284,-245.5187"/>
<polygon fill="none" stroke="#404040" points="130.2102,-245.2283 127.9887,-238.3679 133.467,-233.6787 135.6885,-240.5391 130.2102,-245.2283"/>
<text text-anchor="middle" x="151.5" y="-368" font-family="Helvetica,sans-Serif" font-size="10.00" fill="#000000"> +ConfigData</text>
</g>
<!-- Node9&#45;&gt;Node7 -->
<g id="edge13" class="edge">
<title>Node9&#45;&gt;Node7</title>
<path fill="none" stroke="#404040" d="M220.8237,-281.4818C217.7837,-269.8058 214.6214,-257.6596 211.4536,-245.4921"/>
<polygon fill="none" stroke="#404040" points="211.442,-245.4473 206.0592,-240.6487 208.4184,-233.8344 213.8012,-238.633 211.442,-245.4473"/>
<text text-anchor="middle" x="232" y="-255" font-family="Helvetica,sans-Serif" font-size="10.00" fill="#000000"> +Fonts</text>
</g>
<!-- Node10 -->
<g id="node10" class="node">
<title>Node10</title>
<g id="a_node10"><a xlink:href="classImVector.html" target="_top" xlink:title="{ImVector\&lt; float \&gt;\n|+ Size\l+ Capacity\l+ Data\l|+ ImVector()\l+ ~ImVector()\l+ empty()\l+ size()\l+ capacity()\l+ operator[]()\l+ operator[]()\l+ clear()\l+ begin()\l+ begin()\land 14 more...\l}">
<polygon fill="none" stroke="#000000" points="721,-1006 721,-1195 813,-1195 813,-1006 721,-1006"/>
<text text-anchor="middle" x="767" y="-1183" font-family="Helvetica,sans-Serif" font-size="10.00" fill="#000000">ImVector&lt; float &gt;</text>
<polyline fill="none" stroke="#000000" points="721,-1176 813,-1176 "/>
<text text-anchor="start" x="729" y="-1164" font-family="Helvetica,sans-Serif" font-size="10.00" fill="#000000">+ Size</text>
<text text-anchor="start" x="729" y="-1153" font-family="Helvetica,sans-Serif" font-size="10.00" fill="#000000">+ Capacity</text>
<text text-anchor="start" x="729" y="-1142" font-family="Helvetica,sans-Serif" font-size="10.00" fill="#000000">+ Data</text>
<polyline fill="none" stroke="#000000" points="721,-1135 813,-1135 "/>
<text text-anchor="start" x="729" y="-1123" font-family="Helvetica,sans-Serif" font-size="10.00" fill="#000000">+ ImVector()</text>
<text text-anchor="start" x="729" y="-1112" font-family="Helvetica,sans-Serif" font-size="10.00" fill="#000000">+ ~ImVector()</text>
<text text-anchor="start" x="729" y="-1101" font-family="Helvetica,sans-Serif" font-size="10.00" fill="#000000">+ empty()</text>
<text text-anchor="start" x="729" y="-1090" font-family="Helvetica,sans-Serif" font-size="10.00" fill="#000000">+ size()</text>
<text text-anchor="start" x="729" y="-1079" font-family="Helvetica,sans-Serif" font-size="10.00" fill="#000000">+ capacity()</text>
<text text-anchor="start" x="729" y="-1068" font-family="Helvetica,sans-Serif" font-size="10.00" fill="#000000">+ operator[]()</text>
<text text-anchor="start" x="729" y="-1057" font-family="Helvetica,sans-Serif" font-size="10.00" fill="#000000">+ operator[]()</text>
<text text-anchor="start" x="729" y="-1046" font-family="Helvetica,sans-Serif" font-size="10.00" fill="#000000">+ clear()</text>
<text text-anchor="start" x="729" y="-1035" font-family="Helvetica,sans-Serif" font-size="10.00" fill="#000000">+ begin()</text>
<text text-anchor="start" x="729" y="-1024" font-family="Helvetica,sans-Serif" font-size="10.00" fill="#000000">+ begin()</text>
<text text-anchor="start" x="729" y="-1013" font-family="Helvetica,sans-Serif" font-size="10.00" fill="#000000">and 14 more...</text>
</a>
</g>
</g>
<!-- Node10&#45;&gt;Node3 -->
<g id="edge15" class="edge">
<title>Node10&#45;&gt;Node3</title>
<path fill="none" stroke="#404040" d="M720.6765,-1009.2203C717.9091,-1005.9796 715.017,-1002.8886 712,-1000 626.8168,-918.4408 498.9802,-865.8331 416.0151,-838.0623"/>
<polygon fill="none" stroke="#404040" points="415.7611,-837.9788 408.8112,-839.902 404.3628,-834.2264 411.3128,-832.3032 415.7611,-837.9788"/>
<text text-anchor="middle" x="725.5" y="-974" font-family="Helvetica,sans-Serif" font-size="10.00" fill="#000000"> +IndexXAdvance</text>
</g>
</g>
</svg>
