<?xml version="1.0" encoding="UTF-8" standalone="no"?>
<!DOCTYPE svg PUBLIC "-//W3C//DTD SVG 1.1//EN"
 "http://www.w3.org/Graphics/SVG/1.1/DTD/svg11.dtd">
<!-- Generated by graphviz version 2.36.0 (20140111.2315)
 -->
<!-- Title: arma::generator::ARMA_model&lt; T &gt; Pages: 1 -->
<svg width="392pt" height="1296pt"
 viewBox="0.00 0.00 392.00 1296.00" xmlns="http://www.w3.org/2000/svg" xmlns:xlink="http://www.w3.org/1999/xlink">
<g id="graph0" class="graph" transform="scale(1 1) rotate(0) translate(4 1292)">
<title>arma::generator::ARMA_model&lt; T &gt;</title>
<!-- Node1 -->
<g id="node1" class="node"><title>Node1</title>
<polygon fill="#bfbfbf" stroke="black" points="163,-1 163,-223 293,-223 293,-1 163,-1"/>
<text text-anchor="start" x="171" y="-211" font-family="Helvetica,sans-Serif" font-size="10.00">arma::generator::ARMA</text>
<text text-anchor="middle" x="228" y="-200" font-family="Helvetica,sans-Serif" font-size="10.00">_model&lt; T &gt;</text>
<polyline fill="none" stroke="black" points="163,-193 293,-193 "/>
<text text-anchor="middle" x="228" y="-181" font-family="Helvetica,sans-Serif" font-size="10.00"> </text>
<polyline fill="none" stroke="black" points="163,-174 293,-174 "/>
<text text-anchor="start" x="171" y="-162" font-family="Helvetica,sans-Serif" font-size="10.00">+ ARMA_model()</text>
<text text-anchor="start" x="171" y="-151" font-family="Helvetica,sans-Serif" font-size="10.00">+ ARMA_model()</text>
<text text-anchor="start" x="171" y="-140" font-family="Helvetica,sans-Serif" font-size="10.00">+ acf()</text>
<text text-anchor="start" x="171" y="-129" font-family="Helvetica,sans-Serif" font-size="10.00">+ order()</text>
<text text-anchor="start" x="171" y="-118" font-family="Helvetica,sans-Serif" font-size="10.00">+ white_noise_variance()</text>
<text text-anchor="start" x="171" y="-107" font-family="Helvetica,sans-Serif" font-size="10.00">+ validate()</text>
<text text-anchor="start" x="171" y="-96" font-family="Helvetica,sans-Serif" font-size="10.00">+ determine_coefficients()</text>
<text text-anchor="start" x="171" y="-85" font-family="Helvetica,sans-Serif" font-size="10.00">+ generate()</text>
<text text-anchor="start" x="171" y="-74" font-family="Helvetica,sans-Serif" font-size="10.00">+ verify()</text>
<text text-anchor="start" x="171" y="-63" font-family="Helvetica,sans-Serif" font-size="10.00"># white_noise_variance()</text>
<text text-anchor="start" x="171" y="-52" font-family="Helvetica,sans-Serif" font-size="10.00"># write()</text>
<text text-anchor="start" x="171" y="-41" font-family="Helvetica,sans-Serif" font-size="10.00"># read()</text>
<text text-anchor="start" x="171" y="-30" font-family="Helvetica,sans-Serif" font-size="10.00">&#45; generate_surface()</text>
<text text-anchor="start" x="171" y="-19" font-family="Helvetica,sans-Serif" font-size="10.00">&#45; slice_back()</text>
<text text-anchor="start" x="171" y="-8" font-family="Helvetica,sans-Serif" font-size="10.00">&#45; slice_front()</text>
</g>
<!-- Node2 -->
<g id="node2" class="node"><title>Node2</title>
<g id="a_node2"><a xlink:href="classarma_1_1generator_1_1AR__model.html" target="_top" xlink:title="Uses autoregressive process, standing waves. ">
<polygon fill="none" stroke="black" points="-0.5,-268 -0.5,-512 144.5,-512 144.5,-268 -0.5,-268"/>
<text text-anchor="start" x="7.5" y="-500" font-family="Helvetica,sans-Serif" font-size="10.00">arma::generator::AR</text>
<text text-anchor="middle" x="72" y="-489" font-family="Helvetica,sans-Serif" font-size="10.00">_model&lt; T &gt;</text>
<polyline fill="none" stroke="black" points="-0.5,-482 144.5,-482 "/>
<text text-anchor="start" x="7.5" y="-470" font-family="Helvetica,sans-Serif" font-size="10.00">&#45; _partition</text>
<text text-anchor="start" x="7.5" y="-459" font-family="Helvetica,sans-Serif" font-size="10.00">&#45; _phi</text>
<text text-anchor="start" x="7.5" y="-448" font-family="Helvetica,sans-Serif" font-size="10.00">&#45; _doleastsquares</text>
<polyline fill="none" stroke="black" points="-0.5,-441 144.5,-441 "/>
<text text-anchor="start" x="7.5" y="-429" font-family="Helvetica,sans-Serif" font-size="10.00">+ AR_model()</text>
<text text-anchor="start" x="7.5" y="-418" font-family="Helvetica,sans-Serif" font-size="10.00">+ AR_model()</text>
<text text-anchor="start" x="7.5" y="-407" font-family="Helvetica,sans-Serif" font-size="10.00">+ coefficients()</text>
<text text-anchor="start" x="7.5" y="-396" font-family="Helvetica,sans-Serif" font-size="10.00">+ white_noise_variance()</text>
<text text-anchor="start" x="7.5" y="-385" font-family="Helvetica,sans-Serif" font-size="10.00">+ writes_in_parallel()</text>
<text text-anchor="start" x="7.5" y="-374" font-family="Helvetica,sans-Serif" font-size="10.00">+ validate()</text>
<text text-anchor="start" x="7.5" y="-363" font-family="Helvetica,sans-Serif" font-size="10.00">+ do_generate()</text>
<text text-anchor="start" x="7.5" y="-352" font-family="Helvetica,sans-Serif" font-size="10.00">+ determine_coefficients()</text>
<text text-anchor="start" x="7.5" y="-341" font-family="Helvetica,sans-Serif" font-size="10.00"># generate_surface()</text>
<text text-anchor="start" x="7.5" y="-330" font-family="Helvetica,sans-Serif" font-size="10.00"># white_noise_variance()</text>
<text text-anchor="start" x="7.5" y="-319" font-family="Helvetica,sans-Serif" font-size="10.00"># write()</text>
<text text-anchor="start" x="7.5" y="-308" font-family="Helvetica,sans-Serif" font-size="10.00"># read()</text>
<text text-anchor="start" x="7.5" y="-297" font-family="Helvetica,sans-Serif" font-size="10.00">&#45; determine_coefficients_old()</text>
<text text-anchor="start" x="7.5" y="-286" font-family="Helvetica,sans-Serif" font-size="10.00">&#45; determine_coefficients</text>
<text text-anchor="start" x="7.5" y="-275" font-family="Helvetica,sans-Serif" font-size="10.00">_iteratively()</text>
</a>
</g>
</g>
<!-- Node2&#45;&gt;Node1 -->
<g id="edge1" class="edge"><title>Node2&#45;&gt;Node1</title>
<path fill="none" stroke="midnightblue" d="M145.379,-259.176C152.2,-247.109 159.067,-234.958 165.773,-223.094"/>
<polygon fill="none" stroke="midnightblue" points="142.298,-257.515 140.424,-267.942 148.391,-260.959 142.298,-257.515"/>
</g>
<!-- Node3 -->
<g id="node3" class="node"><title>Node3</title>
<g id="a_node3"><a xlink:href="classarma_1_1generator_1_1Basic__ARMA__model.html" target="_top" xlink:title="Base class for AR, MA and ARMA models. ">
<polygon fill="none" stroke="black" points="135,-566.5 135,-799.5 265,-799.5 265,-566.5 135,-566.5"/>
<text text-anchor="start" x="143" y="-787.5" font-family="Helvetica,sans-Serif" font-size="10.00">arma::generator::Basic</text>
<text text-anchor="middle" x="200" y="-776.5" font-family="Helvetica,sans-Serif" font-size="10.00">_ARMA_model&lt; T &gt;</text>
<polyline fill="none" stroke="black" points="135,-769.5 265,-769.5 "/>
<text text-anchor="start" x="143" y="-757.5" font-family="Helvetica,sans-Serif" font-size="10.00"># _order</text>
<text text-anchor="start" x="143" y="-746.5" font-family="Helvetica,sans-Serif" font-size="10.00"># _nittransform</text>
<text text-anchor="start" x="143" y="-735.5" font-family="Helvetica,sans-Serif" font-size="10.00"># _linear</text>
<text text-anchor="start" x="143" y="-724.5" font-family="Helvetica,sans-Serif" font-size="10.00"># _validate</text>
<polyline fill="none" stroke="black" points="135,-717.5 265,-717.5 "/>
<text text-anchor="start" x="143" y="-705.5" font-family="Helvetica,sans-Serif" font-size="10.00">+ Basic_ARMA_model()</text>
<text text-anchor="start" x="143" y="-694.5" font-family="Helvetica,sans-Serif" font-size="10.00">+ Basic_ARMA_model()</text>
<text text-anchor="start" x="143" y="-683.5" font-family="Helvetica,sans-Serif" font-size="10.00">+ order()</text>
<text text-anchor="start" x="143" y="-672.5" font-family="Helvetica,sans-Serif" font-size="10.00">+ acf()</text>
<text text-anchor="start" x="143" y="-661.5" font-family="Helvetica,sans-Serif" font-size="10.00">+ acf_variance()</text>
<text text-anchor="start" x="143" y="-650.5" font-family="Helvetica,sans-Serif" font-size="10.00">+ setacf()</text>
<text text-anchor="start" x="143" y="-639.5" font-family="Helvetica,sans-Serif" font-size="10.00">+ white_noise_variance()</text>
<text text-anchor="start" x="143" y="-628.5" font-family="Helvetica,sans-Serif" font-size="10.00">+ determine_coefficients()</text>
<text text-anchor="start" x="143" y="-617.5" font-family="Helvetica,sans-Serif" font-size="10.00">+ verify()</text>
<text text-anchor="start" x="143" y="-606.5" font-family="Helvetica,sans-Serif" font-size="10.00">+ parameters()</text>
<text text-anchor="start" x="143" y="-595.5" font-family="Helvetica,sans-Serif" font-size="10.00">+ generate()</text>
<text text-anchor="start" x="143" y="-584.5" font-family="Helvetica,sans-Serif" font-size="10.00"># do_generate()</text>
<text text-anchor="start" x="143" y="-573.5" font-family="Helvetica,sans-Serif" font-size="10.00"># generate_white_noise()</text>
</a>
</g>
</g>
<!-- Node3&#45;&gt;Node2 -->
<g id="edge2" class="edge"><title>Node3&#45;&gt;Node2</title>
<path fill="none" stroke="midnightblue" d="M144.996,-556.951C138.464,-542.103 131.806,-526.964 125.299,-512.171"/>
<polygon fill="none" stroke="midnightblue" points="141.813,-558.409 149.043,-566.153 148.221,-555.59 141.813,-558.409"/>
</g>
<!-- Node9 -->
<g id="node9" class="node"><title>Node9</title>
<g id="a_node9"><a xlink:href="structarma_1_1generator_1_1MA__model.html" target="_top" xlink:title="Uses moving average process, propagating waves. ">
<polygon fill="none" stroke="black" points="163,-262.5 163,-517.5 293,-517.5 293,-262.5 163,-262.5"/>
<text text-anchor="start" x="171" y="-505.5" font-family="Helvetica,sans-Serif" font-size="10.00">arma::generator::MA</text>
<text text-anchor="middle" x="228" y="-494.5" font-family="Helvetica,sans-Serif" font-size="10.00">_model&lt; T &gt;</text>
<polyline fill="none" stroke="black" points="163,-487.5 293,-487.5 "/>
<text text-anchor="start" x="171" y="-475.5" font-family="Helvetica,sans-Serif" font-size="10.00">&#45; _theta</text>
<text text-anchor="start" x="171" y="-464.5" font-family="Helvetica,sans-Serif" font-size="10.00">&#45; _algo</text>
<text text-anchor="start" x="171" y="-453.5" font-family="Helvetica,sans-Serif" font-size="10.00">&#45; _maxiter</text>
<text text-anchor="start" x="171" y="-442.5" font-family="Helvetica,sans-Serif" font-size="10.00">&#45; _eps</text>
<text text-anchor="start" x="171" y="-431.5" font-family="Helvetica,sans-Serif" font-size="10.00">&#45; _minvarwn</text>
<polyline fill="none" stroke="black" points="163,-424.5 293,-424.5 "/>
<text text-anchor="start" x="171" y="-412.5" font-family="Helvetica,sans-Serif" font-size="10.00">+ MA_model()</text>
<text text-anchor="start" x="171" y="-401.5" font-family="Helvetica,sans-Serif" font-size="10.00">+ MA_model()</text>
<text text-anchor="start" x="171" y="-390.5" font-family="Helvetica,sans-Serif" font-size="10.00">+ coefficients()</text>
<text text-anchor="start" x="171" y="-379.5" font-family="Helvetica,sans-Serif" font-size="10.00">+ white_noise_variance()</text>
<text text-anchor="start" x="171" y="-368.5" font-family="Helvetica,sans-Serif" font-size="10.00">+ validate()</text>
<text text-anchor="start" x="171" y="-357.5" font-family="Helvetica,sans-Serif" font-size="10.00">+ determine_coefficients()</text>
<text text-anchor="start" x="171" y="-346.5" font-family="Helvetica,sans-Serif" font-size="10.00"># generate_surface()</text>
<text text-anchor="start" x="171" y="-335.5" font-family="Helvetica,sans-Serif" font-size="10.00"># white_noise_variance()</text>
<text text-anchor="start" x="171" y="-324.5" font-family="Helvetica,sans-Serif" font-size="10.00"># do_generate()</text>
<text text-anchor="start" x="171" y="-313.5" font-family="Helvetica,sans-Serif" font-size="10.00"># write()</text>
<text text-anchor="start" x="171" y="-302.5" font-family="Helvetica,sans-Serif" font-size="10.00"># read()</text>
<text text-anchor="start" x="171" y="-291.5" font-family="Helvetica,sans-Serif" font-size="10.00">&#45; fixed_point_iteration()</text>
<text text-anchor="start" x="171" y="-280.5" font-family="Helvetica,sans-Serif" font-size="10.00">&#45; newton_raphson()</text>
<text text-anchor="start" x="171" y="-269.5" font-family="Helvetica,sans-Serif" font-size="10.00">&#45; recompute_acf()</text>
</a>
</g>
</g>
<!-- Node3&#45;&gt;Node9 -->
<g id="edge9" class="edge"><title>Node3&#45;&gt;Node9</title>
<path fill="none" stroke="midnightblue" d="M212.117,-556.065C213.334,-543.423 214.57,-530.581 215.787,-517.929"/>
<polygon fill="none" stroke="midnightblue" points="208.621,-555.864 211.147,-566.153 215.589,-556.534 208.621,-555.864"/>
</g>
<!-- Node4 -->
<g id="node4" class="node"><title>Node4</title>
<g id="a_node4"><a xlink:href="classarma_1_1generator_1_1Basic__model.html" target="_top" xlink:title="A base class for all generators. ">
<polygon fill="none" stroke="black" points="126,-848.5 126,-1059.5 242,-1059.5 242,-848.5 126,-848.5"/>
<text text-anchor="start" x="134" y="-1047.5" font-family="Helvetica,sans-Serif" font-size="10.00">arma::generator::Basic</text>
<text text-anchor="middle" x="184" y="-1036.5" font-family="Helvetica,sans-Serif" font-size="10.00">_model&lt; T &gt;</text>
<polyline fill="none" stroke="black" points="126,-1029.5 242,-1029.5 "/>
<text text-anchor="start" x="134" y="-1017.5" font-family="Helvetica,sans-Serif" font-size="10.00"># _noseed</text>
<polyline fill="none" stroke="black" points="126,-1010.5 242,-1010.5 "/>
<text text-anchor="start" x="134" y="-998.5" font-family="Helvetica,sans-Serif" font-size="10.00">+ Basic_model()</text>
<text text-anchor="start" x="134" y="-987.5" font-family="Helvetica,sans-Serif" font-size="10.00">+ Basic_model()</text>
<text text-anchor="start" x="134" y="-976.5" font-family="Helvetica,sans-Serif" font-size="10.00">+ Basic_model()</text>
<text text-anchor="start" x="134" y="-965.5" font-family="Helvetica,sans-Serif" font-size="10.00">+ ~Basic_model()</text>
<text text-anchor="start" x="134" y="-954.5" font-family="Helvetica,sans-Serif" font-size="10.00">+ setgrid()</text>
<text text-anchor="start" x="134" y="-943.5" font-family="Helvetica,sans-Serif" font-size="10.00">+ grid()</text>
<text text-anchor="start" x="134" y="-932.5" font-family="Helvetica,sans-Serif" font-size="10.00">+ oflags()</text>
<text text-anchor="start" x="134" y="-921.5" font-family="Helvetica,sans-Serif" font-size="10.00">+ writes_in_parallel()</text>
<text text-anchor="start" x="134" y="-910.5" font-family="Helvetica,sans-Serif" font-size="10.00">+ validate()</text>
<text text-anchor="start" x="134" y="-899.5" font-family="Helvetica,sans-Serif" font-size="10.00">+ generate()</text>
<text text-anchor="start" x="134" y="-888.5" font-family="Helvetica,sans-Serif" font-size="10.00">+ verify()</text>
<text text-anchor="start" x="134" y="-877.5" font-family="Helvetica,sans-Serif" font-size="10.00"># write()</text>
<text text-anchor="start" x="134" y="-866.5" font-family="Helvetica,sans-Serif" font-size="10.00"># read()</text>
<text text-anchor="start" x="134" y="-855.5" font-family="Helvetica,sans-Serif" font-size="10.00"># newseed()</text>
</a>
</g>
</g>
<!-- Node4&#45;&gt;Node3 -->
<g id="edge3" class="edge"><title>Node4&#45;&gt;Node3</title>
<path fill="none" stroke="midnightblue" d="M190.836,-838.076C191.593,-825.343 192.365,-812.371 193.122,-799.629"/>
<polygon fill="none" stroke="midnightblue" points="187.332,-838.037 190.232,-848.227 194.319,-838.453 187.332,-838.037"/>
</g>
<!-- Node5 -->
<g id="node5" class="node"><title>Node5</title>
<g id="a_node5"><a xlink:href="structarma_1_1Grid.html" target="_top" xlink:title="{arma::Grid\&lt; T, 3 \&gt;\n|&#45; _npoints\l&#45; _length\l|+ Grid()\l+ Grid()\l+ Grid()\l+ Grid()\l+ ~Grid()\l+ num_points()\l+ num_points()\l+ size()\l+ num_patches()\l+ num_patches()\land 12 more...\l}">
<polygon fill="none" stroke="black" points="26,-1109 26,-1287 124,-1287 124,-1109 26,-1109"/>
<text text-anchor="middle" x="75" y="-1275" font-family="Helvetica,sans-Serif" font-size="10.00">arma::Grid&lt; T, 3 &gt;</text>
<polyline fill="none" stroke="black" points="26,-1268 124,-1268 "/>
<text text-anchor="start" x="34" y="-1256" font-family="Helvetica,sans-Serif" font-size="10.00">&#45; _npoints</text>
<text text-anchor="start" x="34" y="-1245" font-family="Helvetica,sans-Serif" font-size="10.00">&#45; _length</text>
<polyline fill="none" stroke="black" points="26,-1238 124,-1238 "/>
<text text-anchor="start" x="34" y="-1226" font-family="Helvetica,sans-Serif" font-size="10.00">+ Grid()</text>
<text text-anchor="start" x="34" y="-1215" font-family="Helvetica,sans-Serif" font-size="10.00">+ Grid()</text>
<text text-anchor="start" x="34" y="-1204" font-family="Helvetica,sans-Serif" font-size="10.00">+ Grid()</text>
<text text-anchor="start" x="34" y="-1193" font-family="Helvetica,sans-Serif" font-size="10.00">+ Grid()</text>
<text text-anchor="start" x="34" y="-1182" font-family="Helvetica,sans-Serif" font-size="10.00">+ ~Grid()</text>
<text text-anchor="start" x="34" y="-1171" font-family="Helvetica,sans-Serif" font-size="10.00">+ num_points()</text>
<text text-anchor="start" x="34" y="-1160" font-family="Helvetica,sans-Serif" font-size="10.00">+ num_points()</text>
<text text-anchor="start" x="34" y="-1149" font-family="Helvetica,sans-Serif" font-size="10.00">+ size()</text>
<text text-anchor="start" x="34" y="-1138" font-family="Helvetica,sans-Serif" font-size="10.00">+ num_patches()</text>
<text text-anchor="start" x="34" y="-1127" font-family="Helvetica,sans-Serif" font-size="10.00">+ num_patches()</text>
<text text-anchor="start" x="34" y="-1116" font-family="Helvetica,sans-Serif" font-size="10.00">and 12 more...</text>
</a>
</g>
</g>
<!-- Node5&#45;&gt;Node4 -->
<g id="edge4" class="edge"><title>Node5&#45;&gt;Node4</title>
<path fill="none" stroke="#404040" d="M114.66,-1108.95C120.215,-1096.61 125.993,-1083.79 131.738,-1071.03"/>
<polygon fill="none" stroke="#404040" points="131.844,-1070.8 130.661,-1063.68 136.772,-1059.86 137.955,-1066.97 131.844,-1070.8"/>
<text text-anchor="middle" x="148.5" y="-1081.5" font-family="Helvetica,sans-Serif" font-size="10.00"> #_outgrid</text>
</g>
<!-- Node6 -->
<g id="node6" class="node"><title>Node6</title>
<g id="a_node6"><a xlink:href="classarma_1_1Output__flags.html" target="_top" xlink:title="Flags that determine what and how is written to disk. ">
<polygon fill="none" stroke="black" points="142,-1147.5 142,-1248.5 242,-1248.5 242,-1147.5 142,-1147.5"/>
<text text-anchor="middle" x="192" y="-1236.5" font-family="Helvetica,sans-Serif" font-size="10.00">arma::Output_flags</text>
<polyline fill="none" stroke="black" points="142,-1229.5 242,-1229.5 "/>
<text text-anchor="start" x="150" y="-1217.5" font-family="Helvetica,sans-Serif" font-size="10.00">&#45; _flags</text>
<polyline fill="none" stroke="black" points="142,-1210.5 242,-1210.5 "/>
<text text-anchor="start" x="150" y="-1198.5" font-family="Helvetica,sans-Serif" font-size="10.00">+ setf()</text>
<text text-anchor="start" x="150" y="-1187.5" font-family="Helvetica,sans-Serif" font-size="10.00">+ isset()</text>
<text text-anchor="start" x="150" y="-1176.5" font-family="Helvetica,sans-Serif" font-size="10.00">+ operator==()</text>
<text text-anchor="start" x="150" y="-1165.5" font-family="Helvetica,sans-Serif" font-size="10.00">+ operator!=()</text>
<text text-anchor="start" x="150" y="-1154.5" font-family="Helvetica,sans-Serif" font-size="10.00">&#45; prune()</text>
</a>
</g>
</g>
<!-- Node6&#45;&gt;Node4 -->
<g id="edge5" class="edge"><title>Node6&#45;&gt;Node4</title>
<path fill="none" stroke="#404040" d="M190.362,-1147.44C189.636,-1125.5 188.749,-1098.67 187.871,-1072.09"/>
<polygon fill="none" stroke="#404040" points="187.865,-1071.91 183.669,-1066.05 187.468,-1059.92 191.664,-1065.78 187.865,-1071.91"/>
<text text-anchor="middle" x="209" y="-1081.5" font-family="Helvetica,sans-Serif" font-size="10.00"> #_oflags</text>
</g>
<!-- Node7 -->
<g id="node7" class="node"><title>Node7</title>
<g id="a_node7"><a xlink:href="classarma_1_1Discrete__function.html" target="_top" xlink:title="{arma::Discrete_function\l\&lt; T, 3 \&gt;\n|&#45; _grid\l|+ grid()\l+ setgrid()\l+ operator=()\l}">
<polygon fill="none" stroke="black" points="260.5,-909 260.5,-999 381.5,-999 381.5,-909 260.5,-909"/>
<text text-anchor="start" x="268.5" y="-987" font-family="Helvetica,sans-Serif" font-size="10.00">arma::Discrete_function</text>
<text text-anchor="middle" x="321" y="-976" font-family="Helvetica,sans-Serif" font-size="10.00">&lt; T, 3 &gt;</text>
<polyline fill="none" stroke="black" points="260.5,-969 381.5,-969 "/>
<text text-anchor="start" x="268.5" y="-957" font-family="Helvetica,sans-Serif" font-size="10.00">&#45; _grid</text>
<polyline fill="none" stroke="black" points="260.5,-950 381.5,-950 "/>
<text text-anchor="start" x="268.5" y="-938" font-family="Helvetica,sans-Serif" font-size="10.00">+ grid()</text>
<text text-anchor="start" x="268.5" y="-927" font-family="Helvetica,sans-Serif" font-size="10.00">+ setgrid()</text>
<text text-anchor="start" x="268.5" y="-916" font-family="Helvetica,sans-Serif" font-size="10.00">+ operator=()</text>
</a>
</g>
</g>
<!-- Node7&#45;&gt;Node1 -->
<g id="edge10" class="edge"><title>Node7&#45;&gt;Node1</title>
<path fill="none" stroke="#404040" d="M326.251,-908.863C338.058,-798.029 361.271,-499.848 302,-262 299.741,-252.935 296.872,-243.783 293.582,-234.71"/>
<polygon fill="none" stroke="#404040" points="293.494,-234.479 287.614,-230.305 289.205,-223.271 295.086,-227.445 293.494,-234.479"/>
<text text-anchor="middle" x="361" y="-539.5" font-family="Helvetica,sans-Serif" font-size="10.00"> &#45;_acf_orig</text>
</g>
<!-- Node7&#45;&gt;Node3 -->
<g id="edge6" class="edge"><title>Node7&#45;&gt;Node3</title>
<path fill="none" stroke="#404040" d="M301.155,-908.881C289.055,-881.982 272.918,-846.106 257.092,-810.924"/>
<polygon fill="none" stroke="#404040" points="256.893,-810.481 250.784,-806.65 251.97,-799.538 258.08,-803.369 256.893,-810.481"/>
<text text-anchor="middle" x="279" y="-821.5" font-family="Helvetica,sans-Serif" font-size="10.00"> #_acf</text>
</g>
<!-- Node8 -->
<g id="node8" class="node"><title>Node8</title>
<polygon fill="none" stroke="#bfbfbf" points="268.5,-1169.5 268.5,-1226.5 373.5,-1226.5 373.5,-1169.5 268.5,-1169.5"/>
<text text-anchor="middle" x="321" y="-1214.5" font-family="Helvetica,sans-Serif" font-size="10.00">arma::Array&lt; T, N &gt;</text>
<polyline fill="none" stroke="#bfbfbf" points="268.5,-1207.5 373.5,-1207.5 "/>
<text text-anchor="middle" x="321" y="-1195.5" font-family="Helvetica,sans-Serif" font-size="10.00"> </text>
<polyline fill="none" stroke="#bfbfbf" points="268.5,-1188.5 373.5,-1188.5 "/>
<text text-anchor="middle" x="321" y="-1176.5" font-family="Helvetica,sans-Serif" font-size="10.00"> </text>
</g>
<!-- Node8&#45;&gt;Node7 -->
<g id="edge7" class="edge"><title>Node8&#45;&gt;Node7</title>
<path fill="none" stroke="midnightblue" d="M321,-1159.12C321,-1115.8 321,-1044.99 321,-999.197"/>
<polygon fill="none" stroke="midnightblue" points="317.5,-1159.24 321,-1169.24 324.5,-1159.24 317.5,-1159.24"/>
</g>
<!-- Node9&#45;&gt;Node1 -->
<g id="edge8" class="edge"><title>Node9&#45;&gt;Node1</title>
<path fill="none" stroke="midnightblue" d="M228,-252.206C228,-242.502 228,-232.789 228,-223.26"/>
<polygon fill="none" stroke="midnightblue" points="224.5,-252.309 228,-262.309 231.5,-252.309 224.5,-252.309"/>
</g>
</g>
</svg>
