<?xml version="1.0" encoding="UTF-8" standalone="no"?>
<!DOCTYPE svg PUBLIC "-//W3C//DTD SVG 1.1//EN"
 "http://www.w3.org/Graphics/SVG/1.1/DTD/svg11.dtd">
<!-- Generated by graphviz version 2.36.0 (20140111.2315)
 -->
<!-- Title: ImFontAtlas Pages: 1 -->
<svg width="875pt" height="1240pt"
 viewBox="0.00 0.00 875.00 1240.00" xmlns="http://www.w3.org/2000/svg" xmlns:xlink="http://www.w3.org/1999/xlink">
<g id="graph0" class="graph" transform="scale(1 1) rotate(0) translate(4 1236)">
<title>ImFontAtlas</title>
<!-- Node1 -->
<g id="node1" class="node"><title>Node1</title>
<polygon fill="#bfbfbf" stroke="black" points="0,-792.5 0,-1025.5 200,-1025.5 200,-792.5 0,-792.5"/>
<text text-anchor="middle" x="100" y="-1013.5" font-family="Helvetica,sans-Serif" font-size="10.00">ImFontAtlas</text>
<polyline fill="none" stroke="black" points="0,-1006.5 200,-1006.5 "/>
<text text-anchor="start" x="8" y="-994.5" font-family="Helvetica,sans-Serif" font-size="10.00">+ TexID</text>
<text text-anchor="start" x="8" y="-983.5" font-family="Helvetica,sans-Serif" font-size="10.00">+ TexPixelsAlpha8</text>
<text text-anchor="start" x="8" y="-972.5" font-family="Helvetica,sans-Serif" font-size="10.00">+ TexPixelsRGBA32</text>
<text text-anchor="start" x="8" y="-961.5" font-family="Helvetica,sans-Serif" font-size="10.00">+ TexWidth</text>
<text text-anchor="start" x="8" y="-950.5" font-family="Helvetica,sans-Serif" font-size="10.00">+ TexHeight</text>
<text text-anchor="start" x="8" y="-939.5" font-family="Helvetica,sans-Serif" font-size="10.00">+ TexDesiredWidth</text>
<polyline fill="none" stroke="black" points="0,-932.5 200,-932.5 "/>
<text text-anchor="start" x="8" y="-920.5" font-family="Helvetica,sans-Serif" font-size="10.00">+ ImFontAtlas()</text>
<text text-anchor="start" x="8" y="-909.5" font-family="Helvetica,sans-Serif" font-size="10.00">+ ~ImFontAtlas()</text>
<text text-anchor="start" x="8" y="-898.5" font-family="Helvetica,sans-Serif" font-size="10.00">+ AddFont()</text>
<text text-anchor="start" x="8" y="-887.5" font-family="Helvetica,sans-Serif" font-size="10.00">+ AddFontDefault()</text>
<text text-anchor="start" x="8" y="-876.5" font-family="Helvetica,sans-Serif" font-size="10.00">+ AddFontFromFileTTF()</text>
<text text-anchor="start" x="8" y="-865.5" font-family="Helvetica,sans-Serif" font-size="10.00">+ AddFontFromMemoryTTF()</text>
<text text-anchor="start" x="8" y="-854.5" font-family="Helvetica,sans-Serif" font-size="10.00">+ AddFontFromMemoryCompressedTTF()</text>
<text text-anchor="start" x="8" y="-843.5" font-family="Helvetica,sans-Serif" font-size="10.00">+ AddFontFromMemoryCompressed</text>
<text text-anchor="start" x="8" y="-832.5" font-family="Helvetica,sans-Serif" font-size="10.00">Base85TTF()</text>
<text text-anchor="start" x="8" y="-821.5" font-family="Helvetica,sans-Serif" font-size="10.00">+ ClearTexData()</text>
<text text-anchor="start" x="8" y="-810.5" font-family="Helvetica,sans-Serif" font-size="10.00">+ ClearInputData()</text>
<text text-anchor="start" x="8" y="-799.5" font-family="Helvetica,sans-Serif" font-size="10.00">and 13 more...</text>
</g>
<!-- Node3 -->
<g id="node3" class="node"><title>Node3</title>
<g id="a_node3"><a xlink:href="structImFont.html" target="_top" xlink:title="{ImFont\n|+ FontSize\l+ Scale\l+ FallbackXAdvance\l+ FallbackChar\l+ ConfigDataCount\l+ Ascent\l+ Descent\l+ MetricsTotalSurface\l|+ ImFont()\l+ ~ImFont()\l+ Clear()\l+ BuildLookupTable()\l+ FindGlyph()\l+ SetFallbackChar()\l+ GetCharAdvance()\l+ IsLoaded()\l+ CalcTextSizeA()\l+ CalcWordWrapPositionA()\l+ RenderChar()\l+ RenderText()\l+ GrowIndex()\l+ AddRemapChar()\l}">
<polygon fill="none" stroke="black" points="328,-456.5 328,-733.5 468,-733.5 468,-456.5 328,-456.5"/>
<text text-anchor="middle" x="398" y="-721.5" font-family="Helvetica,sans-Serif" font-size="10.00">ImFont</text>
<polyline fill="none" stroke="black" points="328,-714.5 468,-714.5 "/>
<text text-anchor="start" x="336" y="-702.5" font-family="Helvetica,sans-Serif" font-size="10.00">+ FontSize</text>
<text text-anchor="start" x="336" y="-691.5" font-family="Helvetica,sans-Serif" font-size="10.00">+ Scale</text>
<text text-anchor="start" x="336" y="-680.5" font-family="Helvetica,sans-Serif" font-size="10.00">+ FallbackXAdvance</text>
<text text-anchor="start" x="336" y="-669.5" font-family="Helvetica,sans-Serif" font-size="10.00">+ FallbackChar</text>
<text text-anchor="start" x="336" y="-658.5" font-family="Helvetica,sans-Serif" font-size="10.00">+ ConfigDataCount</text>
<text text-anchor="start" x="336" y="-647.5" font-family="Helvetica,sans-Serif" font-size="10.00">+ Ascent</text>
<text text-anchor="start" x="336" y="-636.5" font-family="Helvetica,sans-Serif" font-size="10.00">+ Descent</text>
<text text-anchor="start" x="336" y="-625.5" font-family="Helvetica,sans-Serif" font-size="10.00">+ MetricsTotalSurface</text>
<polyline fill="none" stroke="black" points="328,-618.5 468,-618.5 "/>
<text text-anchor="start" x="336" y="-606.5" font-family="Helvetica,sans-Serif" font-size="10.00">+ ImFont()</text>
<text text-anchor="start" x="336" y="-595.5" font-family="Helvetica,sans-Serif" font-size="10.00">+ ~ImFont()</text>
<text text-anchor="start" x="336" y="-584.5" font-family="Helvetica,sans-Serif" font-size="10.00">+ Clear()</text>
<text text-anchor="start" x="336" y="-573.5" font-family="Helvetica,sans-Serif" font-size="10.00">+ BuildLookupTable()</text>
<text text-anchor="start" x="336" y="-562.5" font-family="Helvetica,sans-Serif" font-size="10.00">+ FindGlyph()</text>
<text text-anchor="start" x="336" y="-551.5" font-family="Helvetica,sans-Serif" font-size="10.00">+ SetFallbackChar()</text>
<text text-anchor="start" x="336" y="-540.5" font-family="Helvetica,sans-Serif" font-size="10.00">+ GetCharAdvance()</text>
<text text-anchor="start" x="336" y="-529.5" font-family="Helvetica,sans-Serif" font-size="10.00">+ IsLoaded()</text>
<text text-anchor="start" x="336" y="-518.5" font-family="Helvetica,sans-Serif" font-size="10.00">+ CalcTextSizeA()</text>
<text text-anchor="start" x="336" y="-507.5" font-family="Helvetica,sans-Serif" font-size="10.00">+ CalcWordWrapPositionA()</text>
<text text-anchor="start" x="336" y="-496.5" font-family="Helvetica,sans-Serif" font-size="10.00">+ RenderChar()</text>
<text text-anchor="start" x="336" y="-485.5" font-family="Helvetica,sans-Serif" font-size="10.00">+ RenderText()</text>
<text text-anchor="start" x="336" y="-474.5" font-family="Helvetica,sans-Serif" font-size="10.00">+ GrowIndex()</text>
<text text-anchor="start" x="336" y="-463.5" font-family="Helvetica,sans-Serif" font-size="10.00">+ AddRemapChar()</text>
</a>
</g>
</g>
<!-- Node1&#45;&gt;Node3 -->
<g id="edge11" class="edge"><title>Node1&#45;&gt;Node3</title>
<path fill="none" stroke="#404040" d="M113.044,-792.16C117.876,-777.833 124.351,-764.023 133,-752 178.031,-689.402 256.609,-647.78 316.542,-623.392"/>
<polygon fill="none" stroke="#404040" points="316.73,-623.317 320.832,-617.386 327.884,-618.89 323.783,-624.822 316.73,-623.317"/>
<text text-anchor="middle" x="170" y="-760.5" font-family="Helvetica,sans-Serif" font-size="10.00"> +ContainerAtlas</text>
</g>
<!-- Node2 -->
<g id="node2" class="node"><title>Node2</title>
<g id="a_node2"><a xlink:href="classImVector.html" target="_top" xlink:title="{ImVector\&lt; ImFont * \&gt;\n|+ Size\l+ Capacity\l|+ ImVector()\l+ ~ImVector()\l+ empty()\l+ size()\l+ capacity()\l+ operator[]()\l+ operator[]()\l+ clear()\l+ begin()\l+ begin()\land 14 more...\l}">
<polygon fill="none" stroke="black" points="86,-229 86,-407 198,-407 198,-229 86,-229"/>
<text text-anchor="middle" x="142" y="-395" font-family="Helvetica,sans-Serif" font-size="10.00">ImVector&lt; ImFont * &gt;</text>
<polyline fill="none" stroke="black" points="86,-388 198,-388 "/>
<text text-anchor="start" x="94" y="-376" font-family="Helvetica,sans-Serif" font-size="10.00">+ Size</text>
<text text-anchor="start" x="94" y="-365" font-family="Helvetica,sans-Serif" font-size="10.00">+ Capacity</text>
<polyline fill="none" stroke="black" points="86,-358 198,-358 "/>
<text text-anchor="start" x="94" y="-346" font-family="Helvetica,sans-Serif" font-size="10.00">+ ImVector()</text>
<text text-anchor="start" x="94" y="-335" font-family="Helvetica,sans-Serif" font-size="10.00">+ ~ImVector()</text>
<text text-anchor="start" x="94" y="-324" font-family="Helvetica,sans-Serif" font-size="10.00">+ empty()</text>
<text text-anchor="start" x="94" y="-313" font-family="Helvetica,sans-Serif" font-size="10.00">+ size()</text>
<text text-anchor="start" x="94" y="-302" font-family="Helvetica,sans-Serif" font-size="10.00">+ capacity()</text>
<text text-anchor="start" x="94" y="-291" font-family="Helvetica,sans-Serif" font-size="10.00">+ operator[]()</text>
<text text-anchor="start" x="94" y="-280" font-family="Helvetica,sans-Serif" font-size="10.00">+ operator[]()</text>
<text text-anchor="start" x="94" y="-269" font-family="Helvetica,sans-Serif" font-size="10.00">+ clear()</text>
<text text-anchor="start" x="94" y="-258" font-family="Helvetica,sans-Serif" font-size="10.00">+ begin()</text>
<text text-anchor="start" x="94" y="-247" font-family="Helvetica,sans-Serif" font-size="10.00">+ begin()</text>
<text text-anchor="start" x="94" y="-236" font-family="Helvetica,sans-Serif" font-size="10.00">and 14 more...</text>
</a>
</g>
</g>
<!-- Node2&#45;&gt;Node1 -->
<g id="edge1" class="edge"><title>Node2&#45;&gt;Node1</title>
<path fill="none" stroke="#404040" d="M135.72,-407.065C128.667,-505.985 117.155,-667.417 109.113,-780.205"/>
<polygon fill="none" stroke="#404040" points="109.101,-780.366 112.664,-786.635 108.248,-792.335 104.685,-786.066 109.101,-780.366"/>
<text text-anchor="middle" x="149" y="-592.5" font-family="Helvetica,sans-Serif" font-size="10.00"> +Fonts</text>
</g>
<!-- Node3&#45;&gt;Node2 -->
<g id="edge2" class="edge"><title>Node3&#45;&gt;Node2</title>
<path fill="none" stroke="#404040" d="M327.601,-519.005C295.883,-485.15 257.997,-444.619 224,-408 218.43,-402 212.655,-395.764 206.867,-389.504"/>
<polygon fill="none" stroke="#404040" points="206.543,-389.153 199.534,-387.46 198.401,-380.338 205.41,-382.031 206.543,-389.153"/>
<text text-anchor="middle" x="263.5" y="-429.5" font-family="Helvetica,sans-Serif" font-size="10.00"> +Data</text>
</g>
<!-- Node8 -->
<g id="node8" class="node"><title>Node8</title>
<g id="a_node8"><a xlink:href="structImFontConfig.html" target="_top" xlink:title="{ImFontConfig\n|+ FontData\l+ FontDataSize\l+ FontDataOwnedByAtlas\l+ FontNo\l+ SizePixels\l+ OversampleH\l+ OversampleV\l+ PixelSnapH\l+ GlyphRanges\l+ MergeMode\l+ Name\l|+ ImFontConfig()\l}">
<polygon fill="none" stroke="black" points="233.5,-234.5 233.5,-401.5 364.5,-401.5 364.5,-234.5 233.5,-234.5"/>
<text text-anchor="middle" x="299" y="-389.5" font-family="Helvetica,sans-Serif" font-size="10.00">ImFontConfig</text>
<polyline fill="none" stroke="black" points="233.5,-382.5 364.5,-382.5 "/>
<text text-anchor="start" x="241.5" y="-370.5" font-family="Helvetica,sans-Serif" font-size="10.00">+ FontData</text>
<text text-anchor="start" x="241.5" y="-359.5" font-family="Helvetica,sans-Serif" font-size="10.00">+ FontDataSize</text>
<text text-anchor="start" x="241.5" y="-348.5" font-family="Helvetica,sans-Serif" font-size="10.00">+ FontDataOwnedByAtlas</text>
<text text-anchor="start" x="241.5" y="-337.5" font-family="Helvetica,sans-Serif" font-size="10.00">+ FontNo</text>
<text text-anchor="start" x="241.5" y="-326.5" font-family="Helvetica,sans-Serif" font-size="10.00">+ SizePixels</text>
<text text-anchor="start" x="241.5" y="-315.5" font-family="Helvetica,sans-Serif" font-size="10.00">+ OversampleH</text>
<text text-anchor="start" x="241.5" y="-304.5" font-family="Helvetica,sans-Serif" font-size="10.00">+ OversampleV</text>
<text text-anchor="start" x="241.5" y="-293.5" font-family="Helvetica,sans-Serif" font-size="10.00">+ PixelSnapH</text>
<text text-anchor="start" x="241.5" y="-282.5" font-family="Helvetica,sans-Serif" font-size="10.00">+ GlyphRanges</text>
<text text-anchor="start" x="241.5" y="-271.5" font-family="Helvetica,sans-Serif" font-size="10.00">+ MergeMode</text>
<text text-anchor="start" x="241.5" y="-260.5" font-family="Helvetica,sans-Serif" font-size="10.00">+ Name</text>
<polyline fill="none" stroke="black" points="233.5,-253.5 364.5,-253.5 "/>
<text text-anchor="start" x="241.5" y="-241.5" font-family="Helvetica,sans-Serif" font-size="10.00">+ ImFontConfig()</text>
</a>
</g>
</g>
<!-- Node3&#45;&gt;Node8 -->
<g id="edge10" class="edge"><title>Node3&#45;&gt;Node8</title>
<path fill="none" stroke="#404040" d="M385.708,-456.405C383.045,-445.956 379.844,-435.709 376,-426 374.226,-421.52 372.223,-417.053 370.041,-412.627"/>
<polygon fill="none" stroke="#404040" points="369.886,-412.334 363.545,-408.901 364.275,-401.727 370.616,-405.16 369.886,-412.334"/>
<text text-anchor="middle" x="402.5" y="-429.5" font-family="Helvetica,sans-Serif" font-size="10.00"> +DstFont</text>
</g>
<!-- Node4 -->
<g id="node4" class="node"><title>Node4</title>
<g id="a_node4"><a xlink:href="structImFont_1_1Glyph.html" target="_top" xlink:title="{ImFont::Glyph\n|+ Codepoint\l+ XAdvance\l+ X0\l+ Y0\l+ X1\l+ Y1\l+ U0\l+ V0\l+ U1\l+ V1\l|}">
<polygon fill="none" stroke="black" points="564.5,-1075 564.5,-1231 643.5,-1231 643.5,-1075 564.5,-1075"/>
<text text-anchor="middle" x="604" y="-1219" font-family="Helvetica,sans-Serif" font-size="10.00">ImFont::Glyph</text>
<polyline fill="none" stroke="black" points="564.5,-1212 643.5,-1212 "/>
<text text-anchor="start" x="572.5" y="-1200" font-family="Helvetica,sans-Serif" font-size="10.00">+ Codepoint</text>
<text text-anchor="start" x="572.5" y="-1189" font-family="Helvetica,sans-Serif" font-size="10.00">+ XAdvance</text>
<text text-anchor="start" x="572.5" y="-1178" font-family="Helvetica,sans-Serif" font-size="10.00">+ X0</text>
<text text-anchor="start" x="572.5" y="-1167" font-family="Helvetica,sans-Serif" font-size="10.00">+ Y0</text>
<text text-anchor="start" x="572.5" y="-1156" font-family="Helvetica,sans-Serif" font-size="10.00">+ X1</text>
<text text-anchor="start" x="572.5" y="-1145" font-family="Helvetica,sans-Serif" font-size="10.00">+ Y1</text>
<text text-anchor="start" x="572.5" y="-1134" font-family="Helvetica,sans-Serif" font-size="10.00">+ U0</text>
<text text-anchor="start" x="572.5" y="-1123" font-family="Helvetica,sans-Serif" font-size="10.00">+ V0</text>
<text text-anchor="start" x="572.5" y="-1112" font-family="Helvetica,sans-Serif" font-size="10.00">+ U1</text>
<text text-anchor="start" x="572.5" y="-1101" font-family="Helvetica,sans-Serif" font-size="10.00">+ V1</text>
<polyline fill="none" stroke="black" points="564.5,-1094 643.5,-1094 "/>
<text text-anchor="middle" x="604" y="-1082" font-family="Helvetica,sans-Serif" font-size="10.00"> </text>
</a>
</g>
</g>
<!-- Node4&#45;&gt;Node3 -->
<g id="edge3" class="edge"><title>Node4&#45;&gt;Node3</title>
<path fill="none" stroke="#404040" d="M564.35,-1086.87C554.309,-1067.83 544.532,-1046.6 538,-1026 506.285,-926 539.963,-891.595 507,-792 498.528,-766.402 486.663,-740.31 473.861,-715.865"/>
<polygon fill="none" stroke="#404040" points="473.779,-715.712 467.423,-712.305 468.124,-705.128 474.479,-708.535 473.779,-715.712"/>
<text text-anchor="middle" x="574" y="-906.5" font-family="Helvetica,sans-Serif" font-size="10.00"> +FallbackGlyph</text>
</g>
<!-- Node6 -->
<g id="node6" class="node"><title>Node6</title>
<g id="a_node6"><a xlink:href="classImVector.html" target="_top" xlink:title="{ImVector\&lt; ImFont::Glyph \&gt;\n|+ Size\l+ Capacity\l|+ ImVector()\l+ ~ImVector()\l+ empty()\l+ size()\l+ capacity()\l+ operator[]()\l+ operator[]()\l+ clear()\l+ begin()\l+ begin()\land 14 more...\l}">
<polygon fill="none" stroke="black" points="730.5,-820 730.5,-998 867.5,-998 867.5,-820 730.5,-820"/>
<text text-anchor="middle" x="799" y="-986" font-family="Helvetica,sans-Serif" font-size="10.00">ImVector&lt; ImFont::Glyph &gt;</text>
<polyline fill="none" stroke="black" points="730.5,-979 867.5,-979 "/>
<text text-anchor="start" x="738.5" y="-967" font-family="Helvetica,sans-Serif" font-size="10.00">+ Size</text>
<text text-anchor="start" x="738.5" y="-956" font-family="Helvetica,sans-Serif" font-size="10.00">+ Capacity</text>
<polyline fill="none" stroke="black" points="730.5,-949 867.5,-949 "/>
<text text-anchor="start" x="738.5" y="-937" font-family="Helvetica,sans-Serif" font-size="10.00">+ ImVector()</text>
<text text-anchor="start" x="738.5" y="-926" font-family="Helvetica,sans-Serif" font-size="10.00">+ ~ImVector()</text>
<text text-anchor="start" x="738.5" y="-915" font-family="Helvetica,sans-Serif" font-size="10.00">+ empty()</text>
<text text-anchor="start" x="738.5" y="-904" font-family="Helvetica,sans-Serif" font-size="10.00">+ size()</text>
<text text-anchor="start" x="738.5" y="-893" font-family="Helvetica,sans-Serif" font-size="10.00">+ capacity()</text>
<text text-anchor="start" x="738.5" y="-882" font-family="Helvetica,sans-Serif" font-size="10.00">+ operator[]()</text>
<text text-anchor="start" x="738.5" y="-871" font-family="Helvetica,sans-Serif" font-size="10.00">+ operator[]()</text>
<text text-anchor="start" x="738.5" y="-860" font-family="Helvetica,sans-Serif" font-size="10.00">+ clear()</text>
<text text-anchor="start" x="738.5" y="-849" font-family="Helvetica,sans-Serif" font-size="10.00">+ begin()</text>
<text text-anchor="start" x="738.5" y="-838" font-family="Helvetica,sans-Serif" font-size="10.00">+ begin()</text>
<text text-anchor="start" x="738.5" y="-827" font-family="Helvetica,sans-Serif" font-size="10.00">and 14 more...</text>
</a>
</g>
</g>
<!-- Node4&#45;&gt;Node6 -->
<g id="edge6" class="edge"><title>Node4&#45;&gt;Node6</title>
<path fill="none" stroke="#404040" d="M643.612,-1112.58C667.102,-1088.43 696.896,-1056.41 721,-1026 725.6,-1020.2 730.211,-1014.13 734.766,-1007.94"/>
<polygon fill="none" stroke="#404040" points="734.827,-1007.86 735.108,-1000.65 741.868,-998.14 741.586,-1005.35 734.827,-1007.86"/>
<text text-anchor="middle" x="722.5" y="-1047.5" font-family="Helvetica,sans-Serif" font-size="10.00"> +Data</text>
</g>
<!-- Node5 -->
<g id="node5" class="node"><title>Node5</title>
<g id="a_node5"><a xlink:href="structImVec2.html" target="_top" xlink:title="{ImVec2\n|+ x\l+ y\l|+ ImVec2()\l+ ImVec2()\l}">
<polygon fill="none" stroke="black" points="196.5,-1113.5 196.5,-1192.5 261.5,-1192.5 261.5,-1113.5 196.5,-1113.5"/>
<text text-anchor="middle" x="229" y="-1180.5" font-family="Helvetica,sans-Serif" font-size="10.00">ImVec2</text>
<polyline fill="none" stroke="black" points="196.5,-1173.5 261.5,-1173.5 "/>
<text text-anchor="start" x="204.5" y="-1161.5" font-family="Helvetica,sans-Serif" font-size="10.00">+ x</text>
<text text-anchor="start" x="204.5" y="-1150.5" font-family="Helvetica,sans-Serif" font-size="10.00">+ y</text>
<polyline fill="none" stroke="black" points="196.5,-1143.5 261.5,-1143.5 "/>
<text text-anchor="start" x="204.5" y="-1131.5" font-family="Helvetica,sans-Serif" font-size="10.00">+ ImVec2()</text>
<text text-anchor="start" x="204.5" y="-1120.5" font-family="Helvetica,sans-Serif" font-size="10.00">+ ImVec2()</text>
</a>
</g>
</g>
<!-- Node5&#45;&gt;Node1 -->
<g id="edge13" class="edge"><title>Node5&#45;&gt;Node1</title>
<path fill="none" stroke="#404040" d="M196.457,-1129.31C173.977,-1111.86 145.297,-1085.76 129,-1056 125.661,-1049.9 122.703,-1043.47 120.084,-1036.85"/>
<polygon fill="none" stroke="#404040" points="120.075,-1036.82 114.27,-1032.55 115.987,-1025.54 121.792,-1029.82 120.075,-1036.82"/>
<text text-anchor="middle" x="172" y="-1047.5" font-family="Helvetica,sans-Serif" font-size="10.00"> +TexUvWhitePixel</text>
</g>
<!-- Node5&#45;&gt;Node3 -->
<g id="edge4" class="edge"><title>Node5&#45;&gt;Node3</title>
<path fill="none" stroke="#404040" d="M261.681,-1138.03C301.393,-1119.09 366.711,-1081.18 396,-1026 441.129,-940.98 441.306,-832.524 430.365,-745.807"/>
<polygon fill="none" stroke="#404040" points="430.339,-745.614 425.58,-740.196 428.75,-733.719 433.509,-739.137 430.339,-745.614"/>
<text text-anchor="middle" x="472" y="-906.5" font-family="Helvetica,sans-Serif" font-size="10.00"> +DisplayOffset</text>
</g>
<!-- Node5&#45;&gt;Node8 -->
<g id="edge9" class="edge"><title>Node5&#45;&gt;Node8</title>
<path fill="none" stroke="#404040" d="M227.41,-1113.12C222.416,-982.095 209.299,-557.588 243,-426 244.105,-421.684 245.413,-417.347 246.882,-413.023"/>
<polygon fill="none" stroke="#404040" points="246.937,-412.876 245.278,-405.858 251.118,-401.628 252.777,-408.645 246.937,-412.876"/>
<text text-anchor="middle" x="266.5" y="-766" font-family="Helvetica,sans-Serif" font-size="10.00"> +GlyphOffset</text>
<text text-anchor="middle" x="266.5" y="-755" font-family="Helvetica,sans-Serif" font-size="10.00">+GlyphExtraSpacing</text>
</g>
<!-- Node6&#45;&gt;Node3 -->
<g id="edge5" class="edge"><title>Node6&#45;&gt;Node3</title>
<path fill="none" stroke="#404040" d="M743.563,-819.914C736.349,-810.199 728.758,-800.689 721,-792 653.825,-716.759 550.808,-661.19 479.246,-628.808"/>
<polygon fill="none" stroke="#404040" points="479,-628.698 471.891,-629.907 468.041,-623.81 475.15,-622.601 479,-628.698"/>
<text text-anchor="middle" x="720" y="-760.5" font-family="Helvetica,sans-Serif" font-size="10.00"> +Glyphs</text>
</g>
<!-- Node7 -->
<g id="node7" class="node"><title>Node7</title>
<g id="a_node7"><a xlink:href="classImVector.html" target="_top" xlink:title="{ImVector\&lt; unsigned\l short \&gt;\n|+ Size\l+ Capacity\l+ Data\l|+ ImVector()\l+ ~ImVector()\l+ empty()\l+ size()\l+ capacity()\l+ operator[]()\l+ operator[]()\l+ clear()\l+ begin()\l+ begin()\land 14 more...\l}">
<polygon fill="none" stroke="black" points="283,-809 283,-1009 387,-1009 387,-809 283,-809"/>
<text text-anchor="start" x="291" y="-997" font-family="Helvetica,sans-Serif" font-size="10.00">ImVector&lt; unsigned</text>
<text text-anchor="middle" x="335" y="-986" font-family="Helvetica,sans-Serif" font-size="10.00"> short &gt;</text>
<polyline fill="none" stroke="black" points="283,-979 387,-979 "/>
<text text-anchor="start" x="291" y="-967" font-family="Helvetica,sans-Serif" font-size="10.00">+ Size</text>
<text text-anchor="start" x="291" y="-956" font-family="Helvetica,sans-Serif" font-size="10.00">+ Capacity</text>
<text text-anchor="start" x="291" y="-945" font-family="Helvetica,sans-Serif" font-size="10.00">+ Data</text>
<polyline fill="none" stroke="black" points="283,-938 387,-938 "/>
<text text-anchor="start" x="291" y="-926" font-family="Helvetica,sans-Serif" font-size="10.00">+ ImVector()</text>
<text text-anchor="start" x="291" y="-915" font-family="Helvetica,sans-Serif" font-size="10.00">+ ~ImVector()</text>
<text text-anchor="start" x="291" y="-904" font-family="Helvetica,sans-Serif" font-size="10.00">+ empty()</text>
<text text-anchor="start" x="291" y="-893" font-family="Helvetica,sans-Serif" font-size="10.00">+ size()</text>
<text text-anchor="start" x="291" y="-882" font-family="Helvetica,sans-Serif" font-size="10.00">+ capacity()</text>
<text text-anchor="start" x="291" y="-871" font-family="Helvetica,sans-Serif" font-size="10.00">+ operator[]()</text>
<text text-anchor="start" x="291" y="-860" font-family="Helvetica,sans-Serif" font-size="10.00">+ operator[]()</text>
<text text-anchor="start" x="291" y="-849" font-family="Helvetica,sans-Serif" font-size="10.00">+ clear()</text>
<text text-anchor="start" x="291" y="-838" font-family="Helvetica,sans-Serif" font-size="10.00">+ begin()</text>
<text text-anchor="start" x="291" y="-827" font-family="Helvetica,sans-Serif" font-size="10.00">+ begin()</text>
<text text-anchor="start" x="291" y="-816" font-family="Helvetica,sans-Serif" font-size="10.00">and 14 more...</text>
</a>
</g>
</g>
<!-- Node7&#45;&gt;Node3 -->
<g id="edge7" class="edge"><title>Node7&#45;&gt;Node3</title>
<path fill="none" stroke="#404040" d="M336.604,-808.867C338.069,-789.872 340.391,-770.229 344,-752 344.43,-749.828 344.883,-747.644 345.358,-745.453"/>
<polygon fill="none" stroke="#404040" points="345.38,-745.358 342.839,-738.609 348.091,-733.668 350.632,-740.417 345.38,-745.358"/>
<text text-anchor="middle" x="376.5" y="-760.5" font-family="Helvetica,sans-Serif" font-size="10.00"> +IndexLookup</text>
</g>
<!-- Node8&#45;&gt;Node3 -->
<g id="edge8" class="edge"><title>Node8&#45;&gt;Node3</title>
<path fill="none" stroke="#404040" d="M307.919,-401.761C310.277,-414.065 313.251,-426.476 317,-438 318.927,-443.924 321.062,-449.895 323.359,-455.869"/>
<polygon fill="none" stroke="#404040" points="323.496,-456.209 329.443,-460.288 327.965,-467.346 322.018,-463.267 323.496,-456.209"/>
<text text-anchor="middle" x="346.5" y="-429.5" font-family="Helvetica,sans-Serif" font-size="10.00"> +ConfigData</text>
</g>
<!-- Node10 -->
<g id="node10" class="node"><title>Node10</title>
<g id="a_node10"><a xlink:href="classImVector.html" target="_top" xlink:title="{ImVector\&lt; ImFontConfig \&gt;\n|+ Size\l+ Capacity\l|+ ImVector()\l+ ~ImVector()\l+ empty()\l+ size()\l+ capacity()\l+ operator[]()\l+ operator[]()\l+ clear()\l+ begin()\l+ begin()\land 14 more...\l}">
<polygon fill="none" stroke="black" points="34,-1 34,-179 168,-179 168,-1 34,-1"/>
<text text-anchor="middle" x="101" y="-167" font-family="Helvetica,sans-Serif" font-size="10.00">ImVector&lt; ImFontConfig &gt;</text>
<polyline fill="none" stroke="black" points="34,-160 168,-160 "/>
<text text-anchor="start" x="42" y="-148" font-family="Helvetica,sans-Serif" font-size="10.00">+ Size</text>
<text text-anchor="start" x="42" y="-137" font-family="Helvetica,sans-Serif" font-size="10.00">+ Capacity</text>
<polyline fill="none" stroke="black" points="34,-130 168,-130 "/>
<text text-anchor="start" x="42" y="-118" font-family="Helvetica,sans-Serif" font-size="10.00">+ ImVector()</text>
<text text-anchor="start" x="42" y="-107" font-family="Helvetica,sans-Serif" font-size="10.00">+ ~ImVector()</text>
<text text-anchor="start" x="42" y="-96" font-family="Helvetica,sans-Serif" font-size="10.00">+ empty()</text>
<text text-anchor="start" x="42" y="-85" font-family="Helvetica,sans-Serif" font-size="10.00">+ size()</text>
<text text-anchor="start" x="42" y="-74" font-family="Helvetica,sans-Serif" font-size="10.00">+ capacity()</text>
<text text-anchor="start" x="42" y="-63" font-family="Helvetica,sans-Serif" font-size="10.00">+ operator[]()</text>
<text text-anchor="start" x="42" y="-52" font-family="Helvetica,sans-Serif" font-size="10.00">+ operator[]()</text>
<text text-anchor="start" x="42" y="-41" font-family="Helvetica,sans-Serif" font-size="10.00">+ clear()</text>
<text text-anchor="start" x="42" y="-30" font-family="Helvetica,sans-Serif" font-size="10.00">+ begin()</text>
<text text-anchor="start" x="42" y="-19" font-family="Helvetica,sans-Serif" font-size="10.00">+ begin()</text>
<text text-anchor="start" x="42" y="-8" font-family="Helvetica,sans-Serif" font-size="10.00">and 14 more...</text>
</a>
</g>
</g>
<!-- Node8&#45;&gt;Node10 -->
<g id="edge15" class="edge"><title>Node8&#45;&gt;Node10</title>
<path fill="none" stroke="#404040" d="M233.344,-242.059C215.023,-221.148 194.977,-198.267 176.154,-176.782"/>
<polygon fill="none" stroke="#404040" points="176.079,-176.696 169.116,-174.819 168.171,-167.67 175.133,-169.547 176.079,-176.696"/>
<text text-anchor="middle" x="215.5" y="-201.5" font-family="Helvetica,sans-Serif" font-size="10.00"> +Data</text>
</g>
<!-- Node9 -->
<g id="node9" class="node"><title>Node9</title>
<g id="a_node9"><a xlink:href="classImVector.html" target="_top" xlink:title="{ImVector\&lt; float \&gt;\n|+ Size\l+ Capacity\l+ Data\l|+ ImVector()\l+ ~ImVector()\l+ empty()\l+ size()\l+ capacity()\l+ operator[]()\l+ operator[]()\l+ clear()\l+ begin()\l+ begin()\land 14 more...\l}">
<polygon fill="none" stroke="black" points="619.5,-814.5 619.5,-1003.5 712.5,-1003.5 712.5,-814.5 619.5,-814.5"/>
<text text-anchor="middle" x="666" y="-991.5" font-family="Helvetica,sans-Serif" font-size="10.00">ImVector&lt; float &gt;</text>
<polyline fill="none" stroke="black" points="619.5,-984.5 712.5,-984.5 "/>
<text text-anchor="start" x="627.5" y="-972.5" font-family="Helvetica,sans-Serif" font-size="10.00">+ Size</text>
<text text-anchor="start" x="627.5" y="-961.5" font-family="Helvetica,sans-Serif" font-size="10.00">+ Capacity</text>
<text text-anchor="start" x="627.5" y="-950.5" font-family="Helvetica,sans-Serif" font-size="10.00">+ Data</text>
<polyline fill="none" stroke="black" points="619.5,-943.5 712.5,-943.5 "/>
<text text-anchor="start" x="627.5" y="-931.5" font-family="Helvetica,sans-Serif" font-size="10.00">+ ImVector()</text>
<text text-anchor="start" x="627.5" y="-920.5" font-family="Helvetica,sans-Serif" font-size="10.00">+ ~ImVector()</text>
<text text-anchor="start" x="627.5" y="-909.5" font-family="Helvetica,sans-Serif" font-size="10.00">+ empty()</text>
<text text-anchor="start" x="627.5" y="-898.5" font-family="Helvetica,sans-Serif" font-size="10.00">+ size()</text>
<text text-anchor="start" x="627.5" y="-887.5" font-family="Helvetica,sans-Serif" font-size="10.00">+ capacity()</text>
<text text-anchor="start" x="627.5" y="-876.5" font-family="Helvetica,sans-Serif" font-size="10.00">+ operator[]()</text>
<text text-anchor="start" x="627.5" y="-865.5" font-family="Helvetica,sans-Serif" font-size="10.00">+ operator[]()</text>
<text text-anchor="start" x="627.5" y="-854.5" font-family="Helvetica,sans-Serif" font-size="10.00">+ clear()</text>
<text text-anchor="start" x="627.5" y="-843.5" font-family="Helvetica,sans-Serif" font-size="10.00">+ begin()</text>
<text text-anchor="start" x="627.5" y="-832.5" font-family="Helvetica,sans-Serif" font-size="10.00">+ begin()</text>
<text text-anchor="start" x="627.5" y="-821.5" font-family="Helvetica,sans-Serif" font-size="10.00">and 14 more...</text>
</a>
</g>
</g>
<!-- Node9&#45;&gt;Node3 -->
<g id="edge12" class="edge"><title>Node9&#45;&gt;Node3</title>
<path fill="none" stroke="#404040" d="M620.18,-814.202C615.369,-806.488 610.29,-798.982 605,-792 568.182,-743.408 518.868,-696.198 477.608,-660.29"/>
<polygon fill="none" stroke="#404040" points="477.48,-660.18 470.325,-659.289 468.394,-652.342 475.55,-653.232 477.48,-660.18"/>
<text text-anchor="middle" x="630.5" y="-760.5" font-family="Helvetica,sans-Serif" font-size="10.00"> +IndexXAdvance</text>
</g>
<!-- Node10&#45;&gt;Node1 -->
<g id="edge14" class="edge"><title>Node10&#45;&gt;Node1</title>
<path fill="none" stroke="#404040" d="M83.5749,-179.171C80.9413,-195.354 78.5805,-212.142 77,-228 57.8821,-419.826 72.4867,-643.429 85.5874,-780.335"/>
<polygon fill="none" stroke="#404040" points="85.6079,-780.547 90.1694,-786.132 86.7685,-792.491 82.2069,-786.905 85.6079,-780.547"/>
<text text-anchor="middle" x="97.5" y="-429.5" font-family="Helvetica,sans-Serif" font-size="10.00"> +ConfigData</text>
</g>
</g>
</svg>
