<?xml version="1.0" encoding="UTF-8" standalone="no"?>
<!DOCTYPE svg PUBLIC "-//W3C//DTD SVG 1.1//EN"
 "http://www.w3.org/Graphics/SVG/1.1/DTD/svg11.dtd">
<!-- Generated by graphviz version 2.36.0 (20140111.2315)
 -->
<!-- Title: arma::generator::ARMA_model&lt; T &gt; Pages: 1 -->
<svg width="398pt" height="1308pt"
 viewBox="0.00 0.00 398.00 1308.00" xmlns="http://www.w3.org/2000/svg" xmlns:xlink="http://www.w3.org/1999/xlink">
<g id="graph0" class="graph" transform="scale(1 1) rotate(0) translate(4 1304)">
<title>arma::generator::ARMA_model&lt; T &gt;</title>
<!-- Node1 -->
<g id="node1" class="node"><title>Node1</title>
<polygon fill="#bfbfbf" stroke="black" points="168,-1 168,-223 298,-223 298,-1 168,-1"/>
<text text-anchor="start" x="176" y="-211" font-family="Helvetica,sans-Serif" font-size="10.00">arma::generator::ARMA</text>
<text text-anchor="middle" x="233" y="-200" font-family="Helvetica,sans-Serif" font-size="10.00">_model&lt; T &gt;</text>
<polyline fill="none" stroke="black" points="168,-193 298,-193 "/>
<text text-anchor="middle" x="233" y="-181" font-family="Helvetica,sans-Serif" font-size="10.00"> </text>
<polyline fill="none" stroke="black" points="168,-174 298,-174 "/>
<text text-anchor="start" x="176" y="-162" font-family="Helvetica,sans-Serif" font-size="10.00">+ ARMA_model()</text>
<text text-anchor="start" x="176" y="-151" font-family="Helvetica,sans-Serif" font-size="10.00">+ ARMA_model()</text>
<text text-anchor="start" x="176" y="-140" font-family="Helvetica,sans-Serif" font-size="10.00">+ acf()</text>
<text text-anchor="start" x="176" y="-129" font-family="Helvetica,sans-Serif" font-size="10.00">+ order()</text>
<text text-anchor="start" x="176" y="-118" font-family="Helvetica,sans-Serif" font-size="10.00">+ white_noise_variance()</text>
<text text-anchor="start" x="176" y="-107" font-family="Helvetica,sans-Serif" font-size="10.00">+ validate()</text>
<text text-anchor="start" x="176" y="-96" font-family="Helvetica,sans-Serif" font-size="10.00">+ determine_coefficients()</text>
<text text-anchor="start" x="176" y="-85" font-family="Helvetica,sans-Serif" font-size="10.00">+ generate()</text>
<text text-anchor="start" x="176" y="-74" font-family="Helvetica,sans-Serif" font-size="10.00">+ verify()</text>
<text text-anchor="start" x="176" y="-63" font-family="Helvetica,sans-Serif" font-size="10.00"># white_noise_variance()</text>
<text text-anchor="start" x="176" y="-52" font-family="Helvetica,sans-Serif" font-size="10.00"># write()</text>
<text text-anchor="start" x="176" y="-41" font-family="Helvetica,sans-Serif" font-size="10.00"># read()</text>
<text text-anchor="start" x="176" y="-30" font-family="Helvetica,sans-Serif" font-size="10.00">&#45; generate_surface()</text>
<text text-anchor="start" x="176" y="-19" font-family="Helvetica,sans-Serif" font-size="10.00">&#45; slice_back()</text>
<text text-anchor="start" x="176" y="-8" font-family="Helvetica,sans-Serif" font-size="10.00">&#45; slice_front()</text>
</g>
<!-- Node2 -->
<g id="node2" class="node"><title>Node2</title>
<g id="a_node2"><a xlink:href="classarma_1_1generator_1_1AR__model.html" target="_top" xlink:title="Uses autoregressive process, standing waves. ">
<polygon fill="none" stroke="black" points="0,-268.5 0,-523.5 150,-523.5 150,-268.5 0,-268.5"/>
<text text-anchor="start" x="8" y="-511.5" font-family="Helvetica,sans-Serif" font-size="10.00">arma::generator::AR</text>
<text text-anchor="middle" x="75" y="-500.5" font-family="Helvetica,sans-Serif" font-size="10.00">_model&lt; T &gt;</text>
<polyline fill="none" stroke="black" points="0,-493.5 150,-493.5 "/>
<text text-anchor="start" x="8" y="-481.5" font-family="Helvetica,sans-Serif" font-size="10.00">&#45; _partition</text>
<text text-anchor="start" x="8" y="-470.5" font-family="Helvetica,sans-Serif" font-size="10.00">&#45; _phi</text>
<text text-anchor="start" x="8" y="-459.5" font-family="Helvetica,sans-Serif" font-size="10.00">&#45; _algorithm</text>
<text text-anchor="start" x="8" y="-448.5" font-family="Helvetica,sans-Serif" font-size="10.00">&#45; _varwn</text>
<polyline fill="none" stroke="black" points="0,-441.5 150,-441.5 "/>
<text text-anchor="start" x="8" y="-429.5" font-family="Helvetica,sans-Serif" font-size="10.00">+ AR_model()</text>
<text text-anchor="start" x="8" y="-418.5" font-family="Helvetica,sans-Serif" font-size="10.00">+ AR_model()</text>
<text text-anchor="start" x="8" y="-407.5" font-family="Helvetica,sans-Serif" font-size="10.00">+ coefficients()</text>
<text text-anchor="start" x="8" y="-396.5" font-family="Helvetica,sans-Serif" font-size="10.00">+ white_noise_variance()</text>
<text text-anchor="start" x="8" y="-385.5" font-family="Helvetica,sans-Serif" font-size="10.00">+ writes_in_parallel()</text>
<text text-anchor="start" x="8" y="-374.5" font-family="Helvetica,sans-Serif" font-size="10.00">+ validate()</text>
<text text-anchor="start" x="8" y="-363.5" font-family="Helvetica,sans-Serif" font-size="10.00">+ do_generate()</text>
<text text-anchor="start" x="8" y="-352.5" font-family="Helvetica,sans-Serif" font-size="10.00">+ determine_coefficients()</text>
<text text-anchor="start" x="8" y="-341.5" font-family="Helvetica,sans-Serif" font-size="10.00"># generate_surface()</text>
<text text-anchor="start" x="8" y="-330.5" font-family="Helvetica,sans-Serif" font-size="10.00"># white_noise_variance()</text>
<text text-anchor="start" x="8" y="-319.5" font-family="Helvetica,sans-Serif" font-size="10.00"># write()</text>
<text text-anchor="start" x="8" y="-308.5" font-family="Helvetica,sans-Serif" font-size="10.00"># read()</text>
<text text-anchor="start" x="8" y="-297.5" font-family="Helvetica,sans-Serif" font-size="10.00">&#45; determine_coefficients</text>
<text text-anchor="start" x="8" y="-286.5" font-family="Helvetica,sans-Serif" font-size="10.00">_gauss()</text>
<text text-anchor="start" x="8" y="-275.5" font-family="Helvetica,sans-Serif" font-size="10.00">&#45; determine_coefficients_choi()</text>
</a>
</g>
</g>
<!-- Node2&#45;&gt;Node1 -->
<g id="edge1" class="edge"><title>Node2&#45;&gt;Node1</title>
<path fill="none" stroke="midnightblue" d="M150.874,-259.579C157.701,-247.394 164.559,-235.154 171.244,-223.224"/>
<polygon fill="none" stroke="midnightblue" points="147.747,-258.001 145.912,-268.435 153.853,-261.422 147.747,-258.001"/>
</g>
<!-- Node3 -->
<g id="node3" class="node"><title>Node3</title>
<g id="a_node3"><a xlink:href="classarma_1_1generator_1_1Basic__ARMA__model.html" target="_top" xlink:title="Base class for AR, MA and ARMA models. ">
<polygon fill="none" stroke="black" points="140,-578.5 140,-811.5 270,-811.5 270,-578.5 140,-578.5"/>
<text text-anchor="start" x="148" y="-799.5" font-family="Helvetica,sans-Serif" font-size="10.00">arma::generator::Basic</text>
<text text-anchor="middle" x="205" y="-788.5" font-family="Helvetica,sans-Serif" font-size="10.00">_ARMA_model&lt; T &gt;</text>
<polyline fill="none" stroke="black" points="140,-781.5 270,-781.5 "/>
<text text-anchor="start" x="148" y="-769.5" font-family="Helvetica,sans-Serif" font-size="10.00"># _order</text>
<text text-anchor="start" x="148" y="-758.5" font-family="Helvetica,sans-Serif" font-size="10.00"># _nittransform</text>
<text text-anchor="start" x="148" y="-747.5" font-family="Helvetica,sans-Serif" font-size="10.00"># _linear</text>
<text text-anchor="start" x="148" y="-736.5" font-family="Helvetica,sans-Serif" font-size="10.00"># _validate</text>
<polyline fill="none" stroke="black" points="140,-729.5 270,-729.5 "/>
<text text-anchor="start" x="148" y="-717.5" font-family="Helvetica,sans-Serif" font-size="10.00">+ Basic_ARMA_model()</text>
<text text-anchor="start" x="148" y="-706.5" font-family="Helvetica,sans-Serif" font-size="10.00">+ Basic_ARMA_model()</text>
<text text-anchor="start" x="148" y="-695.5" font-family="Helvetica,sans-Serif" font-size="10.00">+ order()</text>
<text text-anchor="start" x="148" y="-684.5" font-family="Helvetica,sans-Serif" font-size="10.00">+ acf()</text>
<text text-anchor="start" x="148" y="-673.5" font-family="Helvetica,sans-Serif" font-size="10.00">+ acf_variance()</text>
<text text-anchor="start" x="148" y="-662.5" font-family="Helvetica,sans-Serif" font-size="10.00">+ setacf()</text>
<text text-anchor="start" x="148" y="-651.5" font-family="Helvetica,sans-Serif" font-size="10.00">+ white_noise_variance()</text>
<text text-anchor="start" x="148" y="-640.5" font-family="Helvetica,sans-Serif" font-size="10.00">+ determine_coefficients()</text>
<text text-anchor="start" x="148" y="-629.5" font-family="Helvetica,sans-Serif" font-size="10.00">+ verify()</text>
<text text-anchor="start" x="148" y="-618.5" font-family="Helvetica,sans-Serif" font-size="10.00">+ parameters()</text>
<text text-anchor="start" x="148" y="-607.5" font-family="Helvetica,sans-Serif" font-size="10.00">+ generate()</text>
<text text-anchor="start" x="148" y="-596.5" font-family="Helvetica,sans-Serif" font-size="10.00"># do_generate()</text>
<text text-anchor="start" x="148" y="-585.5" font-family="Helvetica,sans-Serif" font-size="10.00"># generate_white_noise()</text>
</a>
</g>
</g>
<!-- Node3&#45;&gt;Node2 -->
<g id="edge2" class="edge"><title>Node3&#45;&gt;Node2</title>
<path fill="none" stroke="midnightblue" d="M150.299,-569.03C143.733,-554.029 137.023,-538.7 130.447,-523.675"/>
<polygon fill="none" stroke="midnightblue" points="147.15,-570.564 154.366,-578.322 153.563,-567.757 147.15,-570.564"/>
</g>
<!-- Node9 -->
<g id="node9" class="node"><title>Node9</title>
<g id="a_node9"><a xlink:href="structarma_1_1generator_1_1MA__model.html" target="_top" xlink:title="Uses moving average process, propagating waves. ">
<polygon fill="none" stroke="black" points="168,-263 168,-529 298,-529 298,-263 168,-263"/>
<text text-anchor="start" x="176" y="-517" font-family="Helvetica,sans-Serif" font-size="10.00">arma::generator::MA</text>
<text text-anchor="middle" x="233" y="-506" font-family="Helvetica,sans-Serif" font-size="10.00">_model&lt; T &gt;</text>
<polyline fill="none" stroke="black" points="168,-499 298,-499 "/>
<text text-anchor="start" x="176" y="-487" font-family="Helvetica,sans-Serif" font-size="10.00">&#45; _theta</text>
<text text-anchor="start" x="176" y="-476" font-family="Helvetica,sans-Serif" font-size="10.00">&#45; _algo</text>
<text text-anchor="start" x="176" y="-465" font-family="Helvetica,sans-Serif" font-size="10.00">&#45; _maxiter</text>
<text text-anchor="start" x="176" y="-454" font-family="Helvetica,sans-Serif" font-size="10.00">&#45; _eps</text>
<text text-anchor="start" x="176" y="-443" font-family="Helvetica,sans-Serif" font-size="10.00">&#45; _minvarwn</text>
<text text-anchor="start" x="176" y="-432" font-family="Helvetica,sans-Serif" font-size="10.00">&#45; _varwn</text>
<polyline fill="none" stroke="black" points="168,-425 298,-425 "/>
<text text-anchor="start" x="176" y="-413" font-family="Helvetica,sans-Serif" font-size="10.00">+ MA_model()</text>
<text text-anchor="start" x="176" y="-402" font-family="Helvetica,sans-Serif" font-size="10.00">+ MA_model()</text>
<text text-anchor="start" x="176" y="-391" font-family="Helvetica,sans-Serif" font-size="10.00">+ coefficients()</text>
<text text-anchor="start" x="176" y="-380" font-family="Helvetica,sans-Serif" font-size="10.00">+ white_noise_variance()</text>
<text text-anchor="start" x="176" y="-369" font-family="Helvetica,sans-Serif" font-size="10.00">+ validate()</text>
<text text-anchor="start" x="176" y="-358" font-family="Helvetica,sans-Serif" font-size="10.00">+ determine_coefficients()</text>
<text text-anchor="start" x="176" y="-347" font-family="Helvetica,sans-Serif" font-size="10.00"># generate_surface()</text>
<text text-anchor="start" x="176" y="-336" font-family="Helvetica,sans-Serif" font-size="10.00"># white_noise_variance()</text>
<text text-anchor="start" x="176" y="-325" font-family="Helvetica,sans-Serif" font-size="10.00"># do_generate()</text>
<text text-anchor="start" x="176" y="-314" font-family="Helvetica,sans-Serif" font-size="10.00"># write()</text>
<text text-anchor="start" x="176" y="-303" font-family="Helvetica,sans-Serif" font-size="10.00"># read()</text>
<text text-anchor="start" x="176" y="-292" font-family="Helvetica,sans-Serif" font-size="10.00">&#45; fixed_point_iteration()</text>
<text text-anchor="start" x="176" y="-281" font-family="Helvetica,sans-Serif" font-size="10.00">&#45; newton_raphson()</text>
<text text-anchor="start" x="176" y="-270" font-family="Helvetica,sans-Serif" font-size="10.00">&#45; recompute_acf()</text>
</a>
</g>
</g>
<!-- Node3&#45;&gt;Node9 -->
<g id="edge9" class="edge"><title>Node3&#45;&gt;Node9</title>
<path fill="none" stroke="midnightblue" d="M216.874,-568.053C218.088,-555.177 219.323,-542.07 220.543,-529.13"/>
<polygon fill="none" stroke="midnightblue" points="213.36,-568.037 215.906,-578.322 220.329,-568.694 213.36,-568.037"/>
</g>
<!-- Node4 -->
<g id="node4" class="node"><title>Node4</title>
<g id="a_node4"><a xlink:href="classarma_1_1generator_1_1Basic__model.html" target="_top" xlink:title="A base class for all generators. ">
<polygon fill="none" stroke="black" points="131,-860.5 131,-1071.5 247,-1071.5 247,-860.5 131,-860.5"/>
<text text-anchor="start" x="139" y="-1059.5" font-family="Helvetica,sans-Serif" font-size="10.00">arma::generator::Basic</text>
<text text-anchor="middle" x="189" y="-1048.5" font-family="Helvetica,sans-Serif" font-size="10.00">_model&lt; T &gt;</text>
<polyline fill="none" stroke="black" points="131,-1041.5 247,-1041.5 "/>
<text text-anchor="start" x="139" y="-1029.5" font-family="Helvetica,sans-Serif" font-size="10.00"># _noseed</text>
<polyline fill="none" stroke="black" points="131,-1022.5 247,-1022.5 "/>
<text text-anchor="start" x="139" y="-1010.5" font-family="Helvetica,sans-Serif" font-size="10.00">+ Basic_model()</text>
<text text-anchor="start" x="139" y="-999.5" font-family="Helvetica,sans-Serif" font-size="10.00">+ Basic_model()</text>
<text text-anchor="start" x="139" y="-988.5" font-family="Helvetica,sans-Serif" font-size="10.00">+ Basic_model()</text>
<text text-anchor="start" x="139" y="-977.5" font-family="Helvetica,sans-Serif" font-size="10.00">+ ~Basic_model()</text>
<text text-anchor="start" x="139" y="-966.5" font-family="Helvetica,sans-Serif" font-size="10.00">+ setgrid()</text>
<text text-anchor="start" x="139" y="-955.5" font-family="Helvetica,sans-Serif" font-size="10.00">+ grid()</text>
<text text-anchor="start" x="139" y="-944.5" font-family="Helvetica,sans-Serif" font-size="10.00">+ oflags()</text>
<text text-anchor="start" x="139" y="-933.5" font-family="Helvetica,sans-Serif" font-size="10.00">+ writes_in_parallel()</text>
<text text-anchor="start" x="139" y="-922.5" font-family="Helvetica,sans-Serif" font-size="10.00">+ validate()</text>
<text text-anchor="start" x="139" y="-911.5" font-family="Helvetica,sans-Serif" font-size="10.00">+ generate()</text>
<text text-anchor="start" x="139" y="-900.5" font-family="Helvetica,sans-Serif" font-size="10.00">+ verify()</text>
<text text-anchor="start" x="139" y="-889.5" font-family="Helvetica,sans-Serif" font-size="10.00"># write()</text>
<text text-anchor="start" x="139" y="-878.5" font-family="Helvetica,sans-Serif" font-size="10.00"># read()</text>
<text text-anchor="start" x="139" y="-867.5" font-family="Helvetica,sans-Serif" font-size="10.00"># newseed()</text>
</a>
</g>
</g>
<!-- Node4&#45;&gt;Node3 -->
<g id="edge3" class="edge"><title>Node4&#45;&gt;Node3</title>
<path fill="none" stroke="midnightblue" d="M195.836,-850.076C196.593,-837.343 197.365,-824.371 198.122,-811.629"/>
<polygon fill="none" stroke="midnightblue" points="192.332,-850.037 195.232,-860.227 199.319,-850.453 192.332,-850.037"/>
</g>
<!-- Node5 -->
<g id="node5" class="node"><title>Node5</title>
<g id="a_node5"><a xlink:href="structarma_1_1Grid.html" target="_top" xlink:title="{arma::Grid\&lt; T, 3 \&gt;\n|&#45; _npoints\l&#45; _length\l|+ Grid()\l+ Grid()\l+ Grid()\l+ Grid()\l+ ~Grid()\l+ num_points()\l+ num_points()\l+ size()\l+ num_patches()\l+ num_patches()\land 12 more...\l}">
<polygon fill="none" stroke="black" points="31,-1121 31,-1299 129,-1299 129,-1121 31,-1121"/>
<text text-anchor="middle" x="80" y="-1287" font-family="Helvetica,sans-Serif" font-size="10.00">arma::Grid&lt; T, 3 &gt;</text>
<polyline fill="none" stroke="black" points="31,-1280 129,-1280 "/>
<text text-anchor="start" x="39" y="-1268" font-family="Helvetica,sans-Serif" font-size="10.00">&#45; _npoints</text>
<text text-anchor="start" x="39" y="-1257" font-family="Helvetica,sans-Serif" font-size="10.00">&#45; _length</text>
<polyline fill="none" stroke="black" points="31,-1250 129,-1250 "/>
<text text-anchor="start" x="39" y="-1238" font-family="Helvetica,sans-Serif" font-size="10.00">+ Grid()</text>
<text text-anchor="start" x="39" y="-1227" font-family="Helvetica,sans-Serif" font-size="10.00">+ Grid()</text>
<text text-anchor="start" x="39" y="-1216" font-family="Helvetica,sans-Serif" font-size="10.00">+ Grid()</text>
<text text-anchor="start" x="39" y="-1205" font-family="Helvetica,sans-Serif" font-size="10.00">+ Grid()</text>
<text text-anchor="start" x="39" y="-1194" font-family="Helvetica,sans-Serif" font-size="10.00">+ ~Grid()</text>
<text text-anchor="start" x="39" y="-1183" font-family="Helvetica,sans-Serif" font-size="10.00">+ num_points()</text>
<text text-anchor="start" x="39" y="-1172" font-family="Helvetica,sans-Serif" font-size="10.00">+ num_points()</text>
<text text-anchor="start" x="39" y="-1161" font-family="Helvetica,sans-Serif" font-size="10.00">+ size()</text>
<text text-anchor="start" x="39" y="-1150" font-family="Helvetica,sans-Serif" font-size="10.00">+ num_patches()</text>
<text text-anchor="start" x="39" y="-1139" font-family="Helvetica,sans-Serif" font-size="10.00">+ num_patches()</text>
<text text-anchor="start" x="39" y="-1128" font-family="Helvetica,sans-Serif" font-size="10.00">and 12 more...</text>
</a>
</g>
</g>
<!-- Node5&#45;&gt;Node4 -->
<g id="edge4" class="edge"><title>Node5&#45;&gt;Node4</title>
<path fill="none" stroke="#404040" d="M119.66,-1120.95C125.215,-1108.61 130.993,-1095.79 136.738,-1083.03"/>
<polygon fill="none" stroke="#404040" points="136.844,-1082.8 135.661,-1075.68 141.772,-1071.86 142.955,-1078.97 136.844,-1082.8"/>
<text text-anchor="middle" x="153.5" y="-1093.5" font-family="Helvetica,sans-Serif" font-size="10.00"> #_outgrid</text>
</g>
<!-- Node6 -->
<g id="node6" class="node"><title>Node6</title>
<g id="a_node6"><a xlink:href="classarma_1_1Output__flags.html" target="_top" xlink:title="Flags that determine what and how is written to disk. ">
<polygon fill="none" stroke="black" points="147,-1159.5 147,-1260.5 247,-1260.5 247,-1159.5 147,-1159.5"/>
<text text-anchor="middle" x="197" y="-1248.5" font-family="Helvetica,sans-Serif" font-size="10.00">arma::Output_flags</text>
<polyline fill="none" stroke="black" points="147,-1241.5 247,-1241.5 "/>
<text text-anchor="start" x="155" y="-1229.5" font-family="Helvetica,sans-Serif" font-size="10.00">&#45; _flags</text>
<polyline fill="none" stroke="black" points="147,-1222.5 247,-1222.5 "/>
<text text-anchor="start" x="155" y="-1210.5" font-family="Helvetica,sans-Serif" font-size="10.00">+ setf()</text>
<text text-anchor="start" x="155" y="-1199.5" font-family="Helvetica,sans-Serif" font-size="10.00">+ isset()</text>
<text text-anchor="start" x="155" y="-1188.5" font-family="Helvetica,sans-Serif" font-size="10.00">+ operator==()</text>
<text text-anchor="start" x="155" y="-1177.5" font-family="Helvetica,sans-Serif" font-size="10.00">+ operator!=()</text>
<text text-anchor="start" x="155" y="-1166.5" font-family="Helvetica,sans-Serif" font-size="10.00">&#45; prune()</text>
</a>
</g>
</g>
<!-- Node6&#45;&gt;Node4 -->
<g id="edge5" class="edge"><title>Node6&#45;&gt;Node4</title>
<path fill="none" stroke="#404040" d="M195.362,-1159.44C194.636,-1137.5 193.749,-1110.67 192.871,-1084.09"/>
<polygon fill="none" stroke="#404040" points="192.865,-1083.91 188.669,-1078.05 192.468,-1071.92 196.664,-1077.78 192.865,-1083.91"/>
<text text-anchor="middle" x="214" y="-1093.5" font-family="Helvetica,sans-Serif" font-size="10.00"> #_oflags</text>
</g>
<!-- Node7 -->
<g id="node7" class="node"><title>Node7</title>
<g id="a_node7"><a xlink:href="classarma_1_1Discrete__function.html" target="_top" xlink:title="{arma::Discrete_function\l\&lt; T, 3 \&gt;\n|&#45; _grid\l|+ grid()\l+ setgrid()\l+ operator=()\l}">
<polygon fill="none" stroke="black" points="265.5,-921 265.5,-1011 386.5,-1011 386.5,-921 265.5,-921"/>
<text text-anchor="start" x="273.5" y="-999" font-family="Helvetica,sans-Serif" font-size="10.00">arma::Discrete_function</text>
<text text-anchor="middle" x="326" y="-988" font-family="Helvetica,sans-Serif" font-size="10.00">&lt; T, 3 &gt;</text>
<polyline fill="none" stroke="black" points="265.5,-981 386.5,-981 "/>
<text text-anchor="start" x="273.5" y="-969" font-family="Helvetica,sans-Serif" font-size="10.00">&#45; _grid</text>
<polyline fill="none" stroke="black" points="265.5,-962 386.5,-962 "/>
<text text-anchor="start" x="273.5" y="-950" font-family="Helvetica,sans-Serif" font-size="10.00">+ grid()</text>
<text text-anchor="start" x="273.5" y="-939" font-family="Helvetica,sans-Serif" font-size="10.00">+ setgrid()</text>
<text text-anchor="start" x="273.5" y="-928" font-family="Helvetica,sans-Serif" font-size="10.00">+ operator=()</text>
</a>
</g>
</g>
<!-- Node7&#45;&gt;Node1 -->
<g id="edge10" class="edge"><title>Node7&#45;&gt;Node1</title>
<path fill="none" stroke="#404040" d="M331.281,-920.923C343.334,-808.828 367.391,-504.582 307,-262 304.743,-252.935 301.876,-243.782 298.587,-234.708"/>
<polygon fill="none" stroke="#404040" points="298.499,-234.478 292.619,-230.303 294.211,-223.27 300.091,-227.445 298.499,-234.478"/>
<text text-anchor="middle" x="367" y="-551.5" font-family="Helvetica,sans-Serif" font-size="10.00"> &#45;_acf_orig</text>
</g>
<!-- Node7&#45;&gt;Node3 -->
<g id="edge6" class="edge"><title>Node7&#45;&gt;Node3</title>
<path fill="none" stroke="#404040" d="M306.155,-920.881C294.055,-893.982 277.918,-858.106 262.092,-822.924"/>
<polygon fill="none" stroke="#404040" points="261.893,-822.481 255.784,-818.65 256.97,-811.538 263.08,-815.369 261.893,-822.481"/>
<text text-anchor="middle" x="284" y="-833.5" font-family="Helvetica,sans-Serif" font-size="10.00"> #_acf</text>
</g>
<!-- Node8 -->
<g id="node8" class="node"><title>Node8</title>
<polygon fill="none" stroke="#bfbfbf" points="273.5,-1181.5 273.5,-1238.5 378.5,-1238.5 378.5,-1181.5 273.5,-1181.5"/>
<text text-anchor="middle" x="326" y="-1226.5" font-family="Helvetica,sans-Serif" font-size="10.00">arma::Array&lt; T, N &gt;</text>
<polyline fill="none" stroke="#bfbfbf" points="273.5,-1219.5 378.5,-1219.5 "/>
<text text-anchor="middle" x="326" y="-1207.5" font-family="Helvetica,sans-Serif" font-size="10.00"> </text>
<polyline fill="none" stroke="#bfbfbf" points="273.5,-1200.5 378.5,-1200.5 "/>
<text text-anchor="middle" x="326" y="-1188.5" font-family="Helvetica,sans-Serif" font-size="10.00"> </text>
</g>
<!-- Node8&#45;&gt;Node7 -->
<g id="edge7" class="edge"><title>Node8&#45;&gt;Node7</title>
<path fill="none" stroke="midnightblue" d="M326,-1171.12C326,-1127.8 326,-1056.99 326,-1011.2"/>
<polygon fill="none" stroke="midnightblue" points="322.5,-1171.24 326,-1181.24 329.5,-1171.24 322.5,-1171.24"/>
</g>
<!-- Node9&#45;&gt;Node1 -->
<g id="edge8" class="edge"><title>Node9&#45;&gt;Node1</title>
<path fill="none" stroke="midnightblue" d="M233,-252.475C233,-242.688 233,-232.911 233,-223.332"/>
<polygon fill="none" stroke="midnightblue" points="229.5,-252.67 233,-262.67 236.5,-252.67 229.5,-252.67"/>
</g>
</g>
</svg>
