<?xml version="1.0" encoding="UTF-8" standalone="no"?>
<!DOCTYPE svg PUBLIC "-//W3C//DTD SVG 1.1//EN"
 "http://www.w3.org/Graphics/SVG/1.1/DTD/svg11.dtd">
<!-- Generated by graphviz version 2.40.1 (20161225.0304)
 -->
<!-- Title: arma::opengl::GL_type&lt; GLbyte &gt; Pages: 1 -->
<svg width="129pt" height="182pt"
 viewBox="0.00 0.00 129.00 182.00" xmlns="http://www.w3.org/2000/svg" xmlns:xlink="http://www.w3.org/1999/xlink">
<g id="graph0" class="graph" transform="scale(1 1) rotate(0) translate(4 178)">
<title>arma::opengl::GL_type&lt; GLbyte &gt;</title>
<!-- Node0 -->
<g id="node1" class="node">
<title>Node0</title>
<polygon fill="#bfbfbf" stroke="#000000" points="2.5,-.5 2.5,-68.5 118.5,-68.5 118.5,-.5 2.5,-.5"/>
<text text-anchor="start" x="10.5" y="-56.5" font-family="Helvetica,sans-Serif" font-size="10.00" fill="#000000">arma::opengl::GL_type</text>
<text text-anchor="middle" x="60.5" y="-45.5" font-family="Helvetica,sans-Serif" font-size="10.00" fill="#000000">&lt; GLbyte &gt;</text>
<polyline fill="none" stroke="#000000" points="2.5,-38.5 118.5,-38.5 "/>
<text text-anchor="middle" x="60.5" y="-26.5" font-family="Helvetica,sans-Serif" font-size="10.00" fill="#000000"> </text>
<polyline fill="none" stroke="#000000" points="2.5,-19.5 118.5,-19.5 "/>
<text text-anchor="middle" x="60.5" y="-7.5" font-family="Helvetica,sans-Serif" font-size="10.00" fill="#000000"> </text>
</g>
<!-- Node1 -->
<g id="node2" class="node">
<title>Node1</title>
<polygon fill="none" stroke="#bfbfbf" points="0,-105.5 0,-173.5 121,-173.5 121,-105.5 0,-105.5"/>
<text text-anchor="start" x="8" y="-161.5" font-family="Helvetica,sans-Serif" font-size="10.00" fill="#000000">std::integral_constant</text>
<text text-anchor="middle" x="60.5" y="-150.5" font-family="Helvetica,sans-Serif" font-size="10.00" fill="#000000">&lt; GLenum, GL_BYTE &gt;</text>
<polyline fill="none" stroke="#bfbfbf" points="0,-143.5 121,-143.5 "/>
<text text-anchor="middle" x="60.5" y="-131.5" font-family="Helvetica,sans-Serif" font-size="10.00" fill="#000000"> </text>
<polyline fill="none" stroke="#bfbfbf" points="0,-124.5 121,-124.5 "/>
<text text-anchor="middle" x="60.5" y="-112.5" font-family="Helvetica,sans-Serif" font-size="10.00" fill="#000000"> </text>
</g>
<!-- Node1&#45;&gt;Node0 -->
<g id="edge1" class="edge">
<title>Node1&#45;&gt;Node0</title>
<path fill="none" stroke="#191970" d="M60.5,-95.2353C60.5,-86.3902 60.5,-77.2253 60.5,-68.7788"/>
<polygon fill="none" stroke="#191970" points="57.0001,-95.4095 60.5,-105.4095 64.0001,-95.4095 57.0001,-95.4095"/>
</g>
</g>
</svg>
