<?xml version="1.0" encoding="UTF-8" standalone="no"?>
<!DOCTYPE svg PUBLIC "-//W3C//DTD SVG 1.1//EN"
 "http://www.w3.org/Graphics/SVG/1.1/DTD/svg11.dtd">
<!-- Generated by graphviz version 2.40.1 (20161225.0304)
 -->
<!-- Title: ImGuiColMod Pages: 1 -->
<svg width="114pt" height="215pt"
 viewBox="0.00 0.00 113.50 215.00" xmlns="http://www.w3.org/2000/svg" xmlns:xlink="http://www.w3.org/1999/xlink">
<g id="graph0" class="graph" transform="scale(1 1) rotate(0) translate(4 211)">
<title>ImGuiColMod</title>
<!-- Node1 -->
<g id="node1" class="node">
<title>Node1</title>
<polygon fill="#bfbfbf" stroke="#000000" points="0,-.5 0,-57.5 77,-57.5 77,-.5 0,-.5"/>
<text text-anchor="middle" x="38.5" y="-45.5" font-family="Helvetica,sans-Serif" font-size="10.00" fill="#000000">ImGuiColMod</text>
<polyline fill="none" stroke="#000000" points="0,-38.5 77,-38.5 "/>
<text text-anchor="start" x="8" y="-26.5" font-family="Helvetica,sans-Serif" font-size="10.00" fill="#000000">+ Col</text>
<polyline fill="none" stroke="#000000" points="0,-19.5 77,-19.5 "/>
<text text-anchor="middle" x="38.5" y="-7.5" font-family="Helvetica,sans-Serif" font-size="10.00" fill="#000000"> </text>
</g>
<!-- Node2 -->
<g id="node2" class="node">
<title>Node2</title>
<g id="a_node2"><a xlink:href="structImVec4.html" target="_top" xlink:title="{ImVec4\n|+ x\l+ y\l+ z\l+ w\l|+ ImVec4()\l+ ImVec4()\l}">
<polygon fill="none" stroke="#000000" points="6,-105.5 6,-206.5 71,-206.5 71,-105.5 6,-105.5"/>
<text text-anchor="middle" x="38.5" y="-194.5" font-family="Helvetica,sans-Serif" font-size="10.00" fill="#000000">ImVec4</text>
<polyline fill="none" stroke="#000000" points="6,-187.5 71,-187.5 "/>
<text text-anchor="start" x="14" y="-175.5" font-family="Helvetica,sans-Serif" font-size="10.00" fill="#000000">+ x</text>
<text text-anchor="start" x="14" y="-164.5" font-family="Helvetica,sans-Serif" font-size="10.00" fill="#000000">+ y</text>
<text text-anchor="start" x="14" y="-153.5" font-family="Helvetica,sans-Serif" font-size="10.00" fill="#000000">+ z</text>
<text text-anchor="start" x="14" y="-142.5" font-family="Helvetica,sans-Serif" font-size="10.00" fill="#000000">+ w</text>
<polyline fill="none" stroke="#000000" points="6,-135.5 71,-135.5 "/>
<text text-anchor="start" x="14" y="-123.5" font-family="Helvetica,sans-Serif" font-size="10.00" fill="#000000">+ ImVec4()</text>
<text text-anchor="start" x="14" y="-112.5" font-family="Helvetica,sans-Serif" font-size="10.00" fill="#000000">+ ImVec4()</text>
</a>
</g>
</g>
<!-- Node2&#45;&gt;Node1 -->
<g id="edge1" class="edge">
<title>Node2&#45;&gt;Node1</title>
<path fill="none" stroke="#404040" d="M38.5,-105.4413C38.5,-93.681 38.5,-81.3021 38.5,-70.0123"/>
<polygon fill="none" stroke="#404040" points="38.5001,-69.8195 34.5,-63.8195 38.5,-57.8195 42.5,-63.8195 38.5001,-69.8195"/>
<text text-anchor="middle" x="72" y="-79" font-family="Helvetica,sans-Serif" font-size="10.00" fill="#000000"> +BackupValue</text>
</g>
</g>
</svg>
