<?xml version="1.0" encoding="UTF-8" standalone="no"?>
<!DOCTYPE svg PUBLIC "-//W3C//DTD SVG 1.1//EN"
 "http://www.w3.org/Graphics/SVG/1.1/DTD/svg11.dtd">
<!-- Generated by graphviz version 2.36.0 (20140111.2315)
 -->
<!-- Title: arma::generator::MA_model&lt; T &gt; Pages: 1 -->
<svg width="363pt" height="1046pt"
 viewBox="0.00 0.00 363.00 1046.00" xmlns="http://www.w3.org/2000/svg" xmlns:xlink="http://www.w3.org/1999/xlink">
<g id="graph0" class="graph" transform="scale(1 1) rotate(0) translate(4 1042)">
<title>arma::generator::MA_model&lt; T &gt;</title>
<!-- Node1 -->
<g id="node1" class="node"><title>Node1</title>
<polygon fill="#bfbfbf" stroke="black" points="174,-0.5 174,-277.5 304,-277.5 304,-0.5 174,-0.5"/>
<text text-anchor="start" x="182" y="-265.5" font-family="Helvetica,sans-Serif" font-size="10.00">arma::generator::MA</text>
<text text-anchor="middle" x="239" y="-254.5" font-family="Helvetica,sans-Serif" font-size="10.00">_model&lt; T &gt;</text>
<polyline fill="none" stroke="black" points="174,-247.5 304,-247.5 "/>
<text text-anchor="start" x="182" y="-235.5" font-family="Helvetica,sans-Serif" font-size="10.00">&#45; _theta</text>
<text text-anchor="start" x="182" y="-224.5" font-family="Helvetica,sans-Serif" font-size="10.00">&#45; _algo</text>
<text text-anchor="start" x="182" y="-213.5" font-family="Helvetica,sans-Serif" font-size="10.00">&#45; _maxiter</text>
<text text-anchor="start" x="182" y="-202.5" font-family="Helvetica,sans-Serif" font-size="10.00">&#45; _eps</text>
<text text-anchor="start" x="182" y="-191.5" font-family="Helvetica,sans-Serif" font-size="10.00">&#45; _minvarwn</text>
<text text-anchor="start" x="182" y="-180.5" font-family="Helvetica,sans-Serif" font-size="10.00">&#45; _varwn</text>
<polyline fill="none" stroke="black" points="174,-173.5 304,-173.5 "/>
<text text-anchor="start" x="182" y="-161.5" font-family="Helvetica,sans-Serif" font-size="10.00">+ MA_model()</text>
<text text-anchor="start" x="182" y="-150.5" font-family="Helvetica,sans-Serif" font-size="10.00">+ MA_model()</text>
<text text-anchor="start" x="182" y="-139.5" font-family="Helvetica,sans-Serif" font-size="10.00">+ coefficients()</text>
<text text-anchor="start" x="182" y="-128.5" font-family="Helvetica,sans-Serif" font-size="10.00">+ white_noise_variance()</text>
<text text-anchor="start" x="182" y="-117.5" font-family="Helvetica,sans-Serif" font-size="10.00">+ validate()</text>
<text text-anchor="start" x="182" y="-106.5" font-family="Helvetica,sans-Serif" font-size="10.00">+ determine_coefficients()</text>
<text text-anchor="start" x="182" y="-95.5" font-family="Helvetica,sans-Serif" font-size="10.00"># generate_surface()</text>
<text text-anchor="start" x="182" y="-84.5" font-family="Helvetica,sans-Serif" font-size="10.00"># white_noise_variance()</text>
<text text-anchor="start" x="182" y="-73.5" font-family="Helvetica,sans-Serif" font-size="10.00"># do_generate()</text>
<text text-anchor="start" x="182" y="-62.5" font-family="Helvetica,sans-Serif" font-size="10.00"># write()</text>
<text text-anchor="start" x="182" y="-51.5" font-family="Helvetica,sans-Serif" font-size="10.00"># read()</text>
<text text-anchor="start" x="182" y="-40.5" font-family="Helvetica,sans-Serif" font-size="10.00">&#45; fixed_point_iteration()</text>
<text text-anchor="start" x="182" y="-29.5" font-family="Helvetica,sans-Serif" font-size="10.00">&#45; newton_raphson()</text>
<text text-anchor="start" x="182" y="-18.5" font-family="Helvetica,sans-Serif" font-size="10.00">&#45; newton_raphson_2()</text>
<text text-anchor="start" x="182" y="-7.5" font-family="Helvetica,sans-Serif" font-size="10.00">&#45; recompute_acf()</text>
</g>
<!-- Node2 -->
<g id="node2" class="node"><title>Node2</title>
<g id="a_node2"><a xlink:href="classarma_1_1generator_1_1Basic__ARMA__model.html" target="_top" xlink:title="Base class for AR, MA and ARMA models. ">
<polygon fill="none" stroke="black" points="174,-316.5 174,-549.5 304,-549.5 304,-316.5 174,-316.5"/>
<text text-anchor="start" x="182" y="-537.5" font-family="Helvetica,sans-Serif" font-size="10.00">arma::generator::Basic</text>
<text text-anchor="middle" x="239" y="-526.5" font-family="Helvetica,sans-Serif" font-size="10.00">_ARMA_model&lt; T &gt;</text>
<polyline fill="none" stroke="black" points="174,-519.5 304,-519.5 "/>
<text text-anchor="start" x="182" y="-507.5" font-family="Helvetica,sans-Serif" font-size="10.00"># _order</text>
<text text-anchor="start" x="182" y="-496.5" font-family="Helvetica,sans-Serif" font-size="10.00"># _nittransform</text>
<text text-anchor="start" x="182" y="-485.5" font-family="Helvetica,sans-Serif" font-size="10.00"># _linear</text>
<text text-anchor="start" x="182" y="-474.5" font-family="Helvetica,sans-Serif" font-size="10.00"># _validate</text>
<polyline fill="none" stroke="black" points="174,-467.5 304,-467.5 "/>
<text text-anchor="start" x="182" y="-455.5" font-family="Helvetica,sans-Serif" font-size="10.00">+ Basic_ARMA_model()</text>
<text text-anchor="start" x="182" y="-444.5" font-family="Helvetica,sans-Serif" font-size="10.00">+ Basic_ARMA_model()</text>
<text text-anchor="start" x="182" y="-433.5" font-family="Helvetica,sans-Serif" font-size="10.00">+ order()</text>
<text text-anchor="start" x="182" y="-422.5" font-family="Helvetica,sans-Serif" font-size="10.00">+ acf()</text>
<text text-anchor="start" x="182" y="-411.5" font-family="Helvetica,sans-Serif" font-size="10.00">+ acf_variance()</text>
<text text-anchor="start" x="182" y="-400.5" font-family="Helvetica,sans-Serif" font-size="10.00">+ setacf()</text>
<text text-anchor="start" x="182" y="-389.5" font-family="Helvetica,sans-Serif" font-size="10.00">+ white_noise_variance()</text>
<text text-anchor="start" x="182" y="-378.5" font-family="Helvetica,sans-Serif" font-size="10.00">+ determine_coefficients()</text>
<text text-anchor="start" x="182" y="-367.5" font-family="Helvetica,sans-Serif" font-size="10.00">+ verify()</text>
<text text-anchor="start" x="182" y="-356.5" font-family="Helvetica,sans-Serif" font-size="10.00">+ parameters()</text>
<text text-anchor="start" x="182" y="-345.5" font-family="Helvetica,sans-Serif" font-size="10.00">+ generate()</text>
<text text-anchor="start" x="182" y="-334.5" font-family="Helvetica,sans-Serif" font-size="10.00"># do_generate()</text>
<text text-anchor="start" x="182" y="-323.5" font-family="Helvetica,sans-Serif" font-size="10.00"># generate_white_noise()</text>
</a>
</g>
</g>
<!-- Node2&#45;&gt;Node1 -->
<g id="edge1" class="edge"><title>Node2&#45;&gt;Node1</title>
<path fill="none" stroke="midnightblue" d="M239,-306.092C239,-296.753 239,-287.302 239,-277.896"/>
<polygon fill="none" stroke="midnightblue" points="235.5,-306.174 239,-316.174 242.5,-306.175 235.5,-306.174"/>
</g>
<!-- Node3 -->
<g id="node3" class="node"><title>Node3</title>
<g id="a_node3"><a xlink:href="classarma_1_1generator_1_1Basic__model.html" target="_top" xlink:title="A base class for all generators. ">
<polygon fill="none" stroke="black" points="100,-598.5 100,-809.5 216,-809.5 216,-598.5 100,-598.5"/>
<text text-anchor="start" x="108" y="-797.5" font-family="Helvetica,sans-Serif" font-size="10.00">arma::generator::Basic</text>
<text text-anchor="middle" x="158" y="-786.5" font-family="Helvetica,sans-Serif" font-size="10.00">_model&lt; T &gt;</text>
<polyline fill="none" stroke="black" points="100,-779.5 216,-779.5 "/>
<text text-anchor="start" x="108" y="-767.5" font-family="Helvetica,sans-Serif" font-size="10.00"># _noseed</text>
<polyline fill="none" stroke="black" points="100,-760.5 216,-760.5 "/>
<text text-anchor="start" x="108" y="-748.5" font-family="Helvetica,sans-Serif" font-size="10.00">+ Basic_model()</text>
<text text-anchor="start" x="108" y="-737.5" font-family="Helvetica,sans-Serif" font-size="10.00">+ Basic_model()</text>
<text text-anchor="start" x="108" y="-726.5" font-family="Helvetica,sans-Serif" font-size="10.00">+ Basic_model()</text>
<text text-anchor="start" x="108" y="-715.5" font-family="Helvetica,sans-Serif" font-size="10.00">+ ~Basic_model()</text>
<text text-anchor="start" x="108" y="-704.5" font-family="Helvetica,sans-Serif" font-size="10.00">+ setgrid()</text>
<text text-anchor="start" x="108" y="-693.5" font-family="Helvetica,sans-Serif" font-size="10.00">+ grid()</text>
<text text-anchor="start" x="108" y="-682.5" font-family="Helvetica,sans-Serif" font-size="10.00">+ oflags()</text>
<text text-anchor="start" x="108" y="-671.5" font-family="Helvetica,sans-Serif" font-size="10.00">+ writes_in_parallel()</text>
<text text-anchor="start" x="108" y="-660.5" font-family="Helvetica,sans-Serif" font-size="10.00">+ validate()</text>
<text text-anchor="start" x="108" y="-649.5" font-family="Helvetica,sans-Serif" font-size="10.00">+ generate()</text>
<text text-anchor="start" x="108" y="-638.5" font-family="Helvetica,sans-Serif" font-size="10.00">+ verify()</text>
<text text-anchor="start" x="108" y="-627.5" font-family="Helvetica,sans-Serif" font-size="10.00"># write()</text>
<text text-anchor="start" x="108" y="-616.5" font-family="Helvetica,sans-Serif" font-size="10.00"># read()</text>
<text text-anchor="start" x="108" y="-605.5" font-family="Helvetica,sans-Serif" font-size="10.00"># newseed()</text>
</a>
</g>
</g>
<!-- Node3&#45;&gt;Node2 -->
<g id="edge2" class="edge"><title>Node3&#45;&gt;Node2</title>
<path fill="none" stroke="midnightblue" d="M192.492,-588.454C196.362,-575.6 200.308,-562.497 204.182,-549.629"/>
<polygon fill="none" stroke="midnightblue" points="189.081,-587.643 189.549,-598.227 195.783,-589.661 189.081,-587.643"/>
</g>
<!-- Node4 -->
<g id="node4" class="node"><title>Node4</title>
<g id="a_node4"><a xlink:href="structarma_1_1Grid.html" target="_top" xlink:title="{arma::Grid\&lt; T, 3 \&gt;\n|&#45; _npoints\l&#45; _length\l|+ Grid()\l+ Grid()\l+ Grid()\l+ Grid()\l+ ~Grid()\l+ num_points()\l+ num_points()\l+ size()\l+ num_patches()\l+ num_patches()\land 12 more...\l}">
<polygon fill="none" stroke="black" points="0,-859 0,-1037 98,-1037 98,-859 0,-859"/>
<text text-anchor="middle" x="49" y="-1025" font-family="Helvetica,sans-Serif" font-size="10.00">arma::Grid&lt; T, 3 &gt;</text>
<polyline fill="none" stroke="black" points="0,-1018 98,-1018 "/>
<text text-anchor="start" x="8" y="-1006" font-family="Helvetica,sans-Serif" font-size="10.00">&#45; _npoints</text>
<text text-anchor="start" x="8" y="-995" font-family="Helvetica,sans-Serif" font-size="10.00">&#45; _length</text>
<polyline fill="none" stroke="black" points="0,-988 98,-988 "/>
<text text-anchor="start" x="8" y="-976" font-family="Helvetica,sans-Serif" font-size="10.00">+ Grid()</text>
<text text-anchor="start" x="8" y="-965" font-family="Helvetica,sans-Serif" font-size="10.00">+ Grid()</text>
<text text-anchor="start" x="8" y="-954" font-family="Helvetica,sans-Serif" font-size="10.00">+ Grid()</text>
<text text-anchor="start" x="8" y="-943" font-family="Helvetica,sans-Serif" font-size="10.00">+ Grid()</text>
<text text-anchor="start" x="8" y="-932" font-family="Helvetica,sans-Serif" font-size="10.00">+ ~Grid()</text>
<text text-anchor="start" x="8" y="-921" font-family="Helvetica,sans-Serif" font-size="10.00">+ num_points()</text>
<text text-anchor="start" x="8" y="-910" font-family="Helvetica,sans-Serif" font-size="10.00">+ num_points()</text>
<text text-anchor="start" x="8" y="-899" font-family="Helvetica,sans-Serif" font-size="10.00">+ size()</text>
<text text-anchor="start" x="8" y="-888" font-family="Helvetica,sans-Serif" font-size="10.00">+ num_patches()</text>
<text text-anchor="start" x="8" y="-877" font-family="Helvetica,sans-Serif" font-size="10.00">+ num_patches()</text>
<text text-anchor="start" x="8" y="-866" font-family="Helvetica,sans-Serif" font-size="10.00">and 12 more...</text>
</a>
</g>
</g>
<!-- Node4&#45;&gt;Node3 -->
<g id="edge3" class="edge"><title>Node4&#45;&gt;Node3</title>
<path fill="none" stroke="#404040" d="M88.6598,-858.948C94.2152,-846.614 99.9933,-833.785 105.738,-821.031"/>
<polygon fill="none" stroke="#404040" points="105.844,-820.797 104.661,-813.683 110.772,-809.855 111.955,-816.969 105.844,-820.797"/>
<text text-anchor="middle" x="122.5" y="-831.5" font-family="Helvetica,sans-Serif" font-size="10.00"> #_outgrid</text>
</g>
<!-- Node5 -->
<g id="node5" class="node"><title>Node5</title>
<g id="a_node5"><a xlink:href="classarma_1_1Output__flags.html" target="_top" xlink:title="Flags that determine what and how is written to disk. ">
<polygon fill="none" stroke="black" points="116,-897.5 116,-998.5 216,-998.5 216,-897.5 116,-897.5"/>
<text text-anchor="middle" x="166" y="-986.5" font-family="Helvetica,sans-Serif" font-size="10.00">arma::Output_flags</text>
<polyline fill="none" stroke="black" points="116,-979.5 216,-979.5 "/>
<text text-anchor="start" x="124" y="-967.5" font-family="Helvetica,sans-Serif" font-size="10.00">&#45; _flags</text>
<polyline fill="none" stroke="black" points="116,-960.5 216,-960.5 "/>
<text text-anchor="start" x="124" y="-948.5" font-family="Helvetica,sans-Serif" font-size="10.00">+ setf()</text>
<text text-anchor="start" x="124" y="-937.5" font-family="Helvetica,sans-Serif" font-size="10.00">+ isset()</text>
<text text-anchor="start" x="124" y="-926.5" font-family="Helvetica,sans-Serif" font-size="10.00">+ operator==()</text>
<text text-anchor="start" x="124" y="-915.5" font-family="Helvetica,sans-Serif" font-size="10.00">+ operator!=()</text>
<text text-anchor="start" x="124" y="-904.5" font-family="Helvetica,sans-Serif" font-size="10.00">&#45; prune()</text>
</a>
</g>
</g>
<!-- Node5&#45;&gt;Node3 -->
<g id="edge4" class="edge"><title>Node5&#45;&gt;Node3</title>
<path fill="none" stroke="#404040" d="M164.362,-897.444C163.636,-875.499 162.749,-848.67 161.871,-822.092"/>
<polygon fill="none" stroke="#404040" points="161.865,-821.911 157.669,-816.046 161.468,-809.917 165.664,-815.782 161.865,-821.911"/>
<text text-anchor="middle" x="183" y="-831.5" font-family="Helvetica,sans-Serif" font-size="10.00"> #_oflags</text>
</g>
<!-- Node6 -->
<g id="node6" class="node"><title>Node6</title>
<g id="a_node6"><a xlink:href="classarma_1_1Discrete__function.html" target="_top" xlink:title="{arma::Discrete_function\l\&lt; T, 3 \&gt;\n|&#45; _grid\l|+ grid()\l+ setgrid()\l+ operator=()\l}">
<polygon fill="none" stroke="black" points="234.5,-659 234.5,-749 355.5,-749 355.5,-659 234.5,-659"/>
<text text-anchor="start" x="242.5" y="-737" font-family="Helvetica,sans-Serif" font-size="10.00">arma::Discrete_function</text>
<text text-anchor="middle" x="295" y="-726" font-family="Helvetica,sans-Serif" font-size="10.00">&lt; T, 3 &gt;</text>
<polyline fill="none" stroke="black" points="234.5,-719 355.5,-719 "/>
<text text-anchor="start" x="242.5" y="-707" font-family="Helvetica,sans-Serif" font-size="10.00">&#45; _grid</text>
<polyline fill="none" stroke="black" points="234.5,-700 355.5,-700 "/>
<text text-anchor="start" x="242.5" y="-688" font-family="Helvetica,sans-Serif" font-size="10.00">+ grid()</text>
<text text-anchor="start" x="242.5" y="-677" font-family="Helvetica,sans-Serif" font-size="10.00">+ setgrid()</text>
<text text-anchor="start" x="242.5" y="-666" font-family="Helvetica,sans-Serif" font-size="10.00">+ operator=()</text>
</a>
</g>
</g>
<!-- Node6&#45;&gt;Node2 -->
<g id="edge5" class="edge"><title>Node6&#45;&gt;Node2</title>
<path fill="none" stroke="#404040" d="M285.815,-658.881C280.24,-632.099 272.812,-596.417 265.518,-561.381"/>
<polygon fill="none" stroke="#404040" points="265.498,-561.286 260.359,-556.227 263.052,-549.538 268.191,-554.596 265.498,-561.286"/>
<text text-anchor="middle" x="283" y="-571.5" font-family="Helvetica,sans-Serif" font-size="10.00"> #_acf</text>
</g>
<!-- Node7 -->
<g id="node7" class="node"><title>Node7</title>
<polygon fill="none" stroke="#bfbfbf" points="242.5,-919.5 242.5,-976.5 347.5,-976.5 347.5,-919.5 242.5,-919.5"/>
<text text-anchor="middle" x="295" y="-964.5" font-family="Helvetica,sans-Serif" font-size="10.00">arma::Array&lt; T, N &gt;</text>
<polyline fill="none" stroke="#bfbfbf" points="242.5,-957.5 347.5,-957.5 "/>
<text text-anchor="middle" x="295" y="-945.5" font-family="Helvetica,sans-Serif" font-size="10.00"> </text>
<polyline fill="none" stroke="#bfbfbf" points="242.5,-938.5 347.5,-938.5 "/>
<text text-anchor="middle" x="295" y="-926.5" font-family="Helvetica,sans-Serif" font-size="10.00"> </text>
</g>
<!-- Node7&#45;&gt;Node6 -->
<g id="edge6" class="edge"><title>Node7&#45;&gt;Node6</title>
<path fill="none" stroke="midnightblue" d="M295,-909.116C295,-865.802 295,-794.991 295,-749.197"/>
<polygon fill="none" stroke="midnightblue" points="291.5,-909.239 295,-919.24 298.5,-909.24 291.5,-909.239"/>
</g>
</g>
</svg>
