<?xml version="1.0" encoding="UTF-8" standalone="no"?>
<!DOCTYPE svg PUBLIC "-//W3C//DTD SVG 1.1//EN"
 "http://www.w3.org/Graphics/SVG/1.1/DTD/svg11.dtd">
<!-- Generated by graphviz version 2.36.0 (20140111.2315)
 -->
<!-- Title: arma::generator::AR_model&lt; T &gt; Pages: 1 -->
<svg width="363pt" height="1004pt"
 viewBox="0.00 0.00 363.00 1004.00" xmlns="http://www.w3.org/2000/svg" xmlns:xlink="http://www.w3.org/1999/xlink">
<g id="graph0" class="graph" transform="scale(1 1) rotate(0) translate(4 1000)">
<title>arma::generator::AR_model&lt; T &gt;</title>
<!-- Node1 -->
<g id="node1" class="node"><title>Node1</title>
<polygon fill="#bfbfbf" stroke="black" points="166.5,-1 166.5,-245 311.5,-245 311.5,-1 166.5,-1"/>
<text text-anchor="start" x="174.5" y="-233" font-family="Helvetica,sans-Serif" font-size="10.00">arma::generator::AR</text>
<text text-anchor="middle" x="239" y="-222" font-family="Helvetica,sans-Serif" font-size="10.00">_model&lt; T &gt;</text>
<polyline fill="none" stroke="black" points="166.5,-215 311.5,-215 "/>
<text text-anchor="start" x="174.5" y="-203" font-family="Helvetica,sans-Serif" font-size="10.00">&#45; _partition</text>
<text text-anchor="start" x="174.5" y="-192" font-family="Helvetica,sans-Serif" font-size="10.00">&#45; _phi</text>
<text text-anchor="start" x="174.5" y="-181" font-family="Helvetica,sans-Serif" font-size="10.00">&#45; _doleastsquares</text>
<polyline fill="none" stroke="black" points="166.5,-174 311.5,-174 "/>
<text text-anchor="start" x="174.5" y="-162" font-family="Helvetica,sans-Serif" font-size="10.00">+ AR_model()</text>
<text text-anchor="start" x="174.5" y="-151" font-family="Helvetica,sans-Serif" font-size="10.00">+ AR_model()</text>
<text text-anchor="start" x="174.5" y="-140" font-family="Helvetica,sans-Serif" font-size="10.00">+ coefficients()</text>
<text text-anchor="start" x="174.5" y="-129" font-family="Helvetica,sans-Serif" font-size="10.00">+ white_noise_variance()</text>
<text text-anchor="start" x="174.5" y="-118" font-family="Helvetica,sans-Serif" font-size="10.00">+ writes_in_parallel()</text>
<text text-anchor="start" x="174.5" y="-107" font-family="Helvetica,sans-Serif" font-size="10.00">+ validate()</text>
<text text-anchor="start" x="174.5" y="-96" font-family="Helvetica,sans-Serif" font-size="10.00">+ do_generate()</text>
<text text-anchor="start" x="174.5" y="-85" font-family="Helvetica,sans-Serif" font-size="10.00">+ determine_coefficients()</text>
<text text-anchor="start" x="174.5" y="-74" font-family="Helvetica,sans-Serif" font-size="10.00"># generate_surface()</text>
<text text-anchor="start" x="174.5" y="-63" font-family="Helvetica,sans-Serif" font-size="10.00"># white_noise_variance()</text>
<text text-anchor="start" x="174.5" y="-52" font-family="Helvetica,sans-Serif" font-size="10.00"># write()</text>
<text text-anchor="start" x="174.5" y="-41" font-family="Helvetica,sans-Serif" font-size="10.00"># read()</text>
<text text-anchor="start" x="174.5" y="-30" font-family="Helvetica,sans-Serif" font-size="10.00">&#45; determine_coefficients_old()</text>
<text text-anchor="start" x="174.5" y="-19" font-family="Helvetica,sans-Serif" font-size="10.00">&#45; determine_coefficients</text>
<text text-anchor="start" x="174.5" y="-8" font-family="Helvetica,sans-Serif" font-size="10.00">_iteratively()</text>
</g>
<!-- Node2 -->
<g id="node2" class="node"><title>Node2</title>
<g id="a_node2"><a xlink:href="classarma_1_1generator_1_1Basic__ARMA__model.html" target="_top" xlink:title="Base class for AR, MA and ARMA models. ">
<polygon fill="none" stroke="black" points="174,-285 174,-507 304,-507 304,-285 174,-285"/>
<text text-anchor="start" x="182" y="-495" font-family="Helvetica,sans-Serif" font-size="10.00">arma::generator::Basic</text>
<text text-anchor="middle" x="239" y="-484" font-family="Helvetica,sans-Serif" font-size="10.00">_ARMA_model&lt; T &gt;</text>
<polyline fill="none" stroke="black" points="174,-477 304,-477 "/>
<text text-anchor="start" x="182" y="-465" font-family="Helvetica,sans-Serif" font-size="10.00"># _order</text>
<text text-anchor="start" x="182" y="-454" font-family="Helvetica,sans-Serif" font-size="10.00"># _nittransform</text>
<text text-anchor="start" x="182" y="-443" font-family="Helvetica,sans-Serif" font-size="10.00"># _linear</text>
<polyline fill="none" stroke="black" points="174,-436 304,-436 "/>
<text text-anchor="start" x="182" y="-424" font-family="Helvetica,sans-Serif" font-size="10.00">+ Basic_ARMA_model()</text>
<text text-anchor="start" x="182" y="-413" font-family="Helvetica,sans-Serif" font-size="10.00">+ Basic_ARMA_model()</text>
<text text-anchor="start" x="182" y="-402" font-family="Helvetica,sans-Serif" font-size="10.00">+ order()</text>
<text text-anchor="start" x="182" y="-391" font-family="Helvetica,sans-Serif" font-size="10.00">+ acf()</text>
<text text-anchor="start" x="182" y="-380" font-family="Helvetica,sans-Serif" font-size="10.00">+ acf_variance()</text>
<text text-anchor="start" x="182" y="-369" font-family="Helvetica,sans-Serif" font-size="10.00">+ setacf()</text>
<text text-anchor="start" x="182" y="-358" font-family="Helvetica,sans-Serif" font-size="10.00">+ white_noise_variance()</text>
<text text-anchor="start" x="182" y="-347" font-family="Helvetica,sans-Serif" font-size="10.00">+ determine_coefficients()</text>
<text text-anchor="start" x="182" y="-336" font-family="Helvetica,sans-Serif" font-size="10.00">+ verify()</text>
<text text-anchor="start" x="182" y="-325" font-family="Helvetica,sans-Serif" font-size="10.00">+ parameters()</text>
<text text-anchor="start" x="182" y="-314" font-family="Helvetica,sans-Serif" font-size="10.00">+ generate()</text>
<text text-anchor="start" x="182" y="-303" font-family="Helvetica,sans-Serif" font-size="10.00"># do_generate()</text>
<text text-anchor="start" x="182" y="-292" font-family="Helvetica,sans-Serif" font-size="10.00"># generate_white_noise()</text>
</a>
</g>
</g>
<!-- Node2&#45;&gt;Node1 -->
<g id="edge1" class="edge"><title>Node2&#45;&gt;Node1</title>
<path fill="none" stroke="midnightblue" d="M239,-274.631C239,-264.852 239,-254.967 239,-245.183"/>
<polygon fill="none" stroke="midnightblue" points="235.5,-274.774 239,-284.774 242.5,-274.774 235.5,-274.774"/>
</g>
<!-- Node3 -->
<g id="node3" class="node"><title>Node3</title>
<g id="a_node3"><a xlink:href="classarma_1_1generator_1_1Basic__model.html" target="_top" xlink:title="A base class for all generators. ">
<polygon fill="none" stroke="black" points="100,-556.5 100,-767.5 216,-767.5 216,-556.5 100,-556.5"/>
<text text-anchor="start" x="108" y="-755.5" font-family="Helvetica,sans-Serif" font-size="10.00">arma::generator::Basic</text>
<text text-anchor="middle" x="158" y="-744.5" font-family="Helvetica,sans-Serif" font-size="10.00">_model&lt; T &gt;</text>
<polyline fill="none" stroke="black" points="100,-737.5 216,-737.5 "/>
<text text-anchor="start" x="108" y="-725.5" font-family="Helvetica,sans-Serif" font-size="10.00"># _noseed</text>
<polyline fill="none" stroke="black" points="100,-718.5 216,-718.5 "/>
<text text-anchor="start" x="108" y="-706.5" font-family="Helvetica,sans-Serif" font-size="10.00">+ Basic_model()</text>
<text text-anchor="start" x="108" y="-695.5" font-family="Helvetica,sans-Serif" font-size="10.00">+ Basic_model()</text>
<text text-anchor="start" x="108" y="-684.5" font-family="Helvetica,sans-Serif" font-size="10.00">+ Basic_model()</text>
<text text-anchor="start" x="108" y="-673.5" font-family="Helvetica,sans-Serif" font-size="10.00">+ ~Basic_model()</text>
<text text-anchor="start" x="108" y="-662.5" font-family="Helvetica,sans-Serif" font-size="10.00">+ setgrid()</text>
<text text-anchor="start" x="108" y="-651.5" font-family="Helvetica,sans-Serif" font-size="10.00">+ grid()</text>
<text text-anchor="start" x="108" y="-640.5" font-family="Helvetica,sans-Serif" font-size="10.00">+ oflags()</text>
<text text-anchor="start" x="108" y="-629.5" font-family="Helvetica,sans-Serif" font-size="10.00">+ writes_in_parallel()</text>
<text text-anchor="start" x="108" y="-618.5" font-family="Helvetica,sans-Serif" font-size="10.00">+ validate()</text>
<text text-anchor="start" x="108" y="-607.5" font-family="Helvetica,sans-Serif" font-size="10.00">+ generate()</text>
<text text-anchor="start" x="108" y="-596.5" font-family="Helvetica,sans-Serif" font-size="10.00">+ verify()</text>
<text text-anchor="start" x="108" y="-585.5" font-family="Helvetica,sans-Serif" font-size="10.00"># write()</text>
<text text-anchor="start" x="108" y="-574.5" font-family="Helvetica,sans-Serif" font-size="10.00"># read()</text>
<text text-anchor="start" x="108" y="-563.5" font-family="Helvetica,sans-Serif" font-size="10.00"># newseed()</text>
</a>
</g>
</g>
<!-- Node3&#45;&gt;Node2 -->
<g id="edge2" class="edge"><title>Node3&#45;&gt;Node2</title>
<path fill="none" stroke="midnightblue" d="M193.163,-546.394C197.151,-533.395 201.21,-520.168 205.18,-507.227"/>
<polygon fill="none" stroke="midnightblue" points="189.717,-545.694 190.13,-556.281 196.409,-547.748 189.717,-545.694"/>
</g>
<!-- Node4 -->
<g id="node4" class="node"><title>Node4</title>
<g id="a_node4"><a xlink:href="structarma_1_1Grid.html" target="_top" xlink:title="{arma::Grid\&lt; T, 3 \&gt;\n|&#45; _npoints\l&#45; _length\l|+ Grid()\l+ Grid()\l+ Grid()\l+ Grid()\l+ ~Grid()\l+ num_points()\l+ num_points()\l+ size()\l+ num_patches()\l+ num_patches()\land 12 more...\l}">
<polygon fill="none" stroke="black" points="0,-817 0,-995 98,-995 98,-817 0,-817"/>
<text text-anchor="middle" x="49" y="-983" font-family="Helvetica,sans-Serif" font-size="10.00">arma::Grid&lt; T, 3 &gt;</text>
<polyline fill="none" stroke="black" points="0,-976 98,-976 "/>
<text text-anchor="start" x="8" y="-964" font-family="Helvetica,sans-Serif" font-size="10.00">&#45; _npoints</text>
<text text-anchor="start" x="8" y="-953" font-family="Helvetica,sans-Serif" font-size="10.00">&#45; _length</text>
<polyline fill="none" stroke="black" points="0,-946 98,-946 "/>
<text text-anchor="start" x="8" y="-934" font-family="Helvetica,sans-Serif" font-size="10.00">+ Grid()</text>
<text text-anchor="start" x="8" y="-923" font-family="Helvetica,sans-Serif" font-size="10.00">+ Grid()</text>
<text text-anchor="start" x="8" y="-912" font-family="Helvetica,sans-Serif" font-size="10.00">+ Grid()</text>
<text text-anchor="start" x="8" y="-901" font-family="Helvetica,sans-Serif" font-size="10.00">+ Grid()</text>
<text text-anchor="start" x="8" y="-890" font-family="Helvetica,sans-Serif" font-size="10.00">+ ~Grid()</text>
<text text-anchor="start" x="8" y="-879" font-family="Helvetica,sans-Serif" font-size="10.00">+ num_points()</text>
<text text-anchor="start" x="8" y="-868" font-family="Helvetica,sans-Serif" font-size="10.00">+ num_points()</text>
<text text-anchor="start" x="8" y="-857" font-family="Helvetica,sans-Serif" font-size="10.00">+ size()</text>
<text text-anchor="start" x="8" y="-846" font-family="Helvetica,sans-Serif" font-size="10.00">+ num_patches()</text>
<text text-anchor="start" x="8" y="-835" font-family="Helvetica,sans-Serif" font-size="10.00">+ num_patches()</text>
<text text-anchor="start" x="8" y="-824" font-family="Helvetica,sans-Serif" font-size="10.00">and 12 more...</text>
</a>
</g>
</g>
<!-- Node4&#45;&gt;Node3 -->
<g id="edge3" class="edge"><title>Node4&#45;&gt;Node3</title>
<path fill="none" stroke="#404040" d="M88.6598,-816.948C94.2152,-804.614 99.9933,-791.785 105.738,-779.031"/>
<polygon fill="none" stroke="#404040" points="105.844,-778.797 104.661,-771.683 110.772,-767.855 111.955,-774.969 105.844,-778.797"/>
<text text-anchor="middle" x="122.5" y="-789.5" font-family="Helvetica,sans-Serif" font-size="10.00"> #_outgrid</text>
</g>
<!-- Node5 -->
<g id="node5" class="node"><title>Node5</title>
<g id="a_node5"><a xlink:href="classarma_1_1Output__flags.html" target="_top" xlink:title="Flags that determine what and how is written to disk. ">
<polygon fill="none" stroke="black" points="116,-855.5 116,-956.5 216,-956.5 216,-855.5 116,-855.5"/>
<text text-anchor="middle" x="166" y="-944.5" font-family="Helvetica,sans-Serif" font-size="10.00">arma::Output_flags</text>
<polyline fill="none" stroke="black" points="116,-937.5 216,-937.5 "/>
<text text-anchor="start" x="124" y="-925.5" font-family="Helvetica,sans-Serif" font-size="10.00">&#45; _flags</text>
<polyline fill="none" stroke="black" points="116,-918.5 216,-918.5 "/>
<text text-anchor="start" x="124" y="-906.5" font-family="Helvetica,sans-Serif" font-size="10.00">+ setf()</text>
<text text-anchor="start" x="124" y="-895.5" font-family="Helvetica,sans-Serif" font-size="10.00">+ isset()</text>
<text text-anchor="start" x="124" y="-884.5" font-family="Helvetica,sans-Serif" font-size="10.00">+ operator==()</text>
<text text-anchor="start" x="124" y="-873.5" font-family="Helvetica,sans-Serif" font-size="10.00">+ operator!=()</text>
<text text-anchor="start" x="124" y="-862.5" font-family="Helvetica,sans-Serif" font-size="10.00">&#45; prune()</text>
</a>
</g>
</g>
<!-- Node5&#45;&gt;Node3 -->
<g id="edge4" class="edge"><title>Node5&#45;&gt;Node3</title>
<path fill="none" stroke="#404040" d="M164.362,-855.444C163.636,-833.499 162.749,-806.67 161.871,-780.092"/>
<polygon fill="none" stroke="#404040" points="161.865,-779.911 157.669,-774.046 161.468,-767.917 165.664,-773.782 161.865,-779.911"/>
<text text-anchor="middle" x="183" y="-789.5" font-family="Helvetica,sans-Serif" font-size="10.00"> #_oflags</text>
</g>
<!-- Node6 -->
<g id="node6" class="node"><title>Node6</title>
<g id="a_node6"><a xlink:href="classarma_1_1Discrete__function.html" target="_top" xlink:title="{arma::Discrete_function\l\&lt; T, 3 \&gt;\n|&#45; _grid\l|+ grid()\l+ setgrid()\l+ operator=()\l}">
<polygon fill="none" stroke="black" points="234.5,-617 234.5,-707 355.5,-707 355.5,-617 234.5,-617"/>
<text text-anchor="start" x="242.5" y="-695" font-family="Helvetica,sans-Serif" font-size="10.00">arma::Discrete_function</text>
<text text-anchor="middle" x="295" y="-684" font-family="Helvetica,sans-Serif" font-size="10.00">&lt; T, 3 &gt;</text>
<polyline fill="none" stroke="black" points="234.5,-677 355.5,-677 "/>
<text text-anchor="start" x="242.5" y="-665" font-family="Helvetica,sans-Serif" font-size="10.00">&#45; _grid</text>
<polyline fill="none" stroke="black" points="234.5,-658 355.5,-658 "/>
<text text-anchor="start" x="242.5" y="-646" font-family="Helvetica,sans-Serif" font-size="10.00">+ grid()</text>
<text text-anchor="start" x="242.5" y="-635" font-family="Helvetica,sans-Serif" font-size="10.00">+ setgrid()</text>
<text text-anchor="start" x="242.5" y="-624" font-family="Helvetica,sans-Serif" font-size="10.00">+ operator=()</text>
</a>
</g>
</g>
<!-- Node6&#45;&gt;Node2 -->
<g id="edge5" class="edge"><title>Node6&#45;&gt;Node2</title>
<path fill="none" stroke="#404040" d="M285.627,-616.812C279.906,-589.843 272.287,-553.924 264.868,-518.951"/>
<polygon fill="none" stroke="#404040" points="264.853,-518.88 259.695,-513.841 262.363,-507.141 267.521,-512.181 264.853,-518.88"/>
<text text-anchor="middle" x="283" y="-529.5" font-family="Helvetica,sans-Serif" font-size="10.00"> #_acf</text>
</g>
<!-- Node7 -->
<g id="node7" class="node"><title>Node7</title>
<polygon fill="none" stroke="#bfbfbf" points="242.5,-877.5 242.5,-934.5 347.5,-934.5 347.5,-877.5 242.5,-877.5"/>
<text text-anchor="middle" x="295" y="-922.5" font-family="Helvetica,sans-Serif" font-size="10.00">arma::Array&lt; T, N &gt;</text>
<polyline fill="none" stroke="#bfbfbf" points="242.5,-915.5 347.5,-915.5 "/>
<text text-anchor="middle" x="295" y="-903.5" font-family="Helvetica,sans-Serif" font-size="10.00"> </text>
<polyline fill="none" stroke="#bfbfbf" points="242.5,-896.5 347.5,-896.5 "/>
<text text-anchor="middle" x="295" y="-884.5" font-family="Helvetica,sans-Serif" font-size="10.00"> </text>
</g>
<!-- Node7&#45;&gt;Node6 -->
<g id="edge6" class="edge"><title>Node7&#45;&gt;Node6</title>
<path fill="none" stroke="midnightblue" d="M295,-867.116C295,-823.802 295,-752.991 295,-707.197"/>
<polygon fill="none" stroke="midnightblue" points="291.5,-867.239 295,-877.24 298.5,-867.24 291.5,-867.239"/>
</g>
</g>
</svg>
