<?xml version="1.0" encoding="UTF-8" standalone="no"?>
<!DOCTYPE svg PUBLIC "-//W3C//DTD SVG 1.1//EN"
 "http://www.w3.org/Graphics/SVG/1.1/DTD/svg11.dtd">
<!-- Generated by graphviz version 2.36.0 (20140111.2315)
 -->
<!-- Title: ImFontConfig Pages: 1 -->
<svg width="820pt" height="1430pt"
 viewBox="0.00 0.00 820.00 1430.00" xmlns="http://www.w3.org/2000/svg" xmlns:xlink="http://www.w3.org/1999/xlink">
<g id="graph0" class="graph" transform="scale(1 1) rotate(0) translate(4 1426)">
<title>ImFontConfig</title>
<!-- Node1 -->
<g id="node1" class="node"><title>Node1</title>
<polygon fill="#bfbfbf" stroke="black" points="75.5,-1021.5 75.5,-1188.5 206.5,-1188.5 206.5,-1021.5 75.5,-1021.5"/>
<text text-anchor="middle" x="141" y="-1176.5" font-family="Helvetica,sans-Serif" font-size="10.00">ImFontConfig</text>
<polyline fill="none" stroke="black" points="75.5,-1169.5 206.5,-1169.5 "/>
<text text-anchor="start" x="83.5" y="-1157.5" font-family="Helvetica,sans-Serif" font-size="10.00">+ FontData</text>
<text text-anchor="start" x="83.5" y="-1146.5" font-family="Helvetica,sans-Serif" font-size="10.00">+ FontDataSize</text>
<text text-anchor="start" x="83.5" y="-1135.5" font-family="Helvetica,sans-Serif" font-size="10.00">+ FontDataOwnedByAtlas</text>
<text text-anchor="start" x="83.5" y="-1124.5" font-family="Helvetica,sans-Serif" font-size="10.00">+ FontNo</text>
<text text-anchor="start" x="83.5" y="-1113.5" font-family="Helvetica,sans-Serif" font-size="10.00">+ SizePixels</text>
<text text-anchor="start" x="83.5" y="-1102.5" font-family="Helvetica,sans-Serif" font-size="10.00">+ OversampleH</text>
<text text-anchor="start" x="83.5" y="-1091.5" font-family="Helvetica,sans-Serif" font-size="10.00">+ OversampleV</text>
<text text-anchor="start" x="83.5" y="-1080.5" font-family="Helvetica,sans-Serif" font-size="10.00">+ PixelSnapH</text>
<text text-anchor="start" x="83.5" y="-1069.5" font-family="Helvetica,sans-Serif" font-size="10.00">+ GlyphRanges</text>
<text text-anchor="start" x="83.5" y="-1058.5" font-family="Helvetica,sans-Serif" font-size="10.00">+ MergeMode</text>
<text text-anchor="start" x="83.5" y="-1047.5" font-family="Helvetica,sans-Serif" font-size="10.00">+ Name</text>
<polyline fill="none" stroke="black" points="75.5,-1040.5 206.5,-1040.5 "/>
<text text-anchor="start" x="83.5" y="-1028.5" font-family="Helvetica,sans-Serif" font-size="10.00">+ ImFontConfig()</text>
</g>
<!-- Node3 -->
<g id="node3" class="node"><title>Node3</title>
<g id="a_node3"><a xlink:href="structImFont.html" target="_top" xlink:title="{ImFont\n|+ FontSize\l+ Scale\l+ FallbackXAdvance\l+ FallbackChar\l+ ConfigDataCount\l+ Ascent\l+ Descent\l+ MetricsTotalSurface\l|+ ImFont()\l+ ~ImFont()\l+ Clear()\l+ BuildLookupTable()\l+ FindGlyph()\l+ SetFallbackChar()\l+ GetCharAdvance()\l+ IsLoaded()\l+ CalcTextSizeA()\l+ CalcWordWrapPositionA()\l+ RenderChar()\l+ RenderText()\l+ GrowIndex()\l+ AddRemapChar()\l}">
<polygon fill="none" stroke="black" points="269,-678.5 269,-955.5 409,-955.5 409,-678.5 269,-678.5"/>
<text text-anchor="middle" x="339" y="-943.5" font-family="Helvetica,sans-Serif" font-size="10.00">ImFont</text>
<polyline fill="none" stroke="black" points="269,-936.5 409,-936.5 "/>
<text text-anchor="start" x="277" y="-924.5" font-family="Helvetica,sans-Serif" font-size="10.00">+ FontSize</text>
<text text-anchor="start" x="277" y="-913.5" font-family="Helvetica,sans-Serif" font-size="10.00">+ Scale</text>
<text text-anchor="start" x="277" y="-902.5" font-family="Helvetica,sans-Serif" font-size="10.00">+ FallbackXAdvance</text>
<text text-anchor="start" x="277" y="-891.5" font-family="Helvetica,sans-Serif" font-size="10.00">+ FallbackChar</text>
<text text-anchor="start" x="277" y="-880.5" font-family="Helvetica,sans-Serif" font-size="10.00">+ ConfigDataCount</text>
<text text-anchor="start" x="277" y="-869.5" font-family="Helvetica,sans-Serif" font-size="10.00">+ Ascent</text>
<text text-anchor="start" x="277" y="-858.5" font-family="Helvetica,sans-Serif" font-size="10.00">+ Descent</text>
<text text-anchor="start" x="277" y="-847.5" font-family="Helvetica,sans-Serif" font-size="10.00">+ MetricsTotalSurface</text>
<polyline fill="none" stroke="black" points="269,-840.5 409,-840.5 "/>
<text text-anchor="start" x="277" y="-828.5" font-family="Helvetica,sans-Serif" font-size="10.00">+ ImFont()</text>
<text text-anchor="start" x="277" y="-817.5" font-family="Helvetica,sans-Serif" font-size="10.00">+ ~ImFont()</text>
<text text-anchor="start" x="277" y="-806.5" font-family="Helvetica,sans-Serif" font-size="10.00">+ Clear()</text>
<text text-anchor="start" x="277" y="-795.5" font-family="Helvetica,sans-Serif" font-size="10.00">+ BuildLookupTable()</text>
<text text-anchor="start" x="277" y="-784.5" font-family="Helvetica,sans-Serif" font-size="10.00">+ FindGlyph()</text>
<text text-anchor="start" x="277" y="-773.5" font-family="Helvetica,sans-Serif" font-size="10.00">+ SetFallbackChar()</text>
<text text-anchor="start" x="277" y="-762.5" font-family="Helvetica,sans-Serif" font-size="10.00">+ GetCharAdvance()</text>
<text text-anchor="start" x="277" y="-751.5" font-family="Helvetica,sans-Serif" font-size="10.00">+ IsLoaded()</text>
<text text-anchor="start" x="277" y="-740.5" font-family="Helvetica,sans-Serif" font-size="10.00">+ CalcTextSizeA()</text>
<text text-anchor="start" x="277" y="-729.5" font-family="Helvetica,sans-Serif" font-size="10.00">+ CalcWordWrapPositionA()</text>
<text text-anchor="start" x="277" y="-718.5" font-family="Helvetica,sans-Serif" font-size="10.00">+ RenderChar()</text>
<text text-anchor="start" x="277" y="-707.5" font-family="Helvetica,sans-Serif" font-size="10.00">+ RenderText()</text>
<text text-anchor="start" x="277" y="-696.5" font-family="Helvetica,sans-Serif" font-size="10.00">+ GrowIndex()</text>
<text text-anchor="start" x="277" y="-685.5" font-family="Helvetica,sans-Serif" font-size="10.00">+ AddRemapChar()</text>
</a>
</g>
</g>
<!-- Node1&#45;&gt;Node3 -->
<g id="edge8" class="edge"><title>Node1&#45;&gt;Node3</title>
<path fill="none" stroke="#404040" d="M147.843,-1021.4C151.48,-1005 156.915,-988.412 165,-974 187.77,-933.409 225.072,-897.872 259.311,-871.009"/>
<polygon fill="none" stroke="#404040" points="259.355,-870.975 261.677,-864.148 268.872,-863.666 266.55,-870.493 259.355,-870.975"/>
<text text-anchor="middle" x="194.5" y="-977.5" font-family="Helvetica,sans-Serif" font-size="10.00"> +ConfigData</text>
</g>
<!-- Node9 -->
<g id="node9" class="node"><title>Node9</title>
<g id="a_node9"><a xlink:href="classImVector.html" target="_top" xlink:title="{ImVector\&lt; ImFontConfig \&gt;\n|+ Size\l+ Capacity\l|+ ImVector()\l+ ~ImVector()\l+ empty()\l+ size()\l+ capacity()\l+ operator[]()\l+ operator[]()\l+ clear()\l+ begin()\l+ begin()\land 14 more...\l}">
<polygon fill="none" stroke="black" points="47,-481 47,-659 181,-659 181,-481 47,-481"/>
<text text-anchor="middle" x="114" y="-647" font-family="Helvetica,sans-Serif" font-size="10.00">ImVector&lt; ImFontConfig &gt;</text>
<polyline fill="none" stroke="black" points="47,-640 181,-640 "/>
<text text-anchor="start" x="55" y="-628" font-family="Helvetica,sans-Serif" font-size="10.00">+ Size</text>
<text text-anchor="start" x="55" y="-617" font-family="Helvetica,sans-Serif" font-size="10.00">+ Capacity</text>
<polyline fill="none" stroke="black" points="47,-610 181,-610 "/>
<text text-anchor="start" x="55" y="-598" font-family="Helvetica,sans-Serif" font-size="10.00">+ ImVector()</text>
<text text-anchor="start" x="55" y="-587" font-family="Helvetica,sans-Serif" font-size="10.00">+ ~ImVector()</text>
<text text-anchor="start" x="55" y="-576" font-family="Helvetica,sans-Serif" font-size="10.00">+ empty()</text>
<text text-anchor="start" x="55" y="-565" font-family="Helvetica,sans-Serif" font-size="10.00">+ size()</text>
<text text-anchor="start" x="55" y="-554" font-family="Helvetica,sans-Serif" font-size="10.00">+ capacity()</text>
<text text-anchor="start" x="55" y="-543" font-family="Helvetica,sans-Serif" font-size="10.00">+ operator[]()</text>
<text text-anchor="start" x="55" y="-532" font-family="Helvetica,sans-Serif" font-size="10.00">+ operator[]()</text>
<text text-anchor="start" x="55" y="-521" font-family="Helvetica,sans-Serif" font-size="10.00">+ clear()</text>
<text text-anchor="start" x="55" y="-510" font-family="Helvetica,sans-Serif" font-size="10.00">+ begin()</text>
<text text-anchor="start" x="55" y="-499" font-family="Helvetica,sans-Serif" font-size="10.00">+ begin()</text>
<text text-anchor="start" x="55" y="-488" font-family="Helvetica,sans-Serif" font-size="10.00">and 14 more...</text>
</a>
</g>
</g>
<!-- Node1&#45;&gt;Node9 -->
<g id="edge14" class="edge"><title>Node1&#45;&gt;Node9</title>
<path fill="none" stroke="#404040" d="M129.446,-1021.26C128.098,-1009.45 126.889,-997.427 126,-986 117.657,-878.809 114.963,-755.637 114.166,-671.499"/>
<polygon fill="none" stroke="#404040" points="114.165,-671.375 110.114,-665.41 114.062,-659.375 118.114,-665.341 114.165,-671.375"/>
<text text-anchor="middle" x="141.5" y="-977.5" font-family="Helvetica,sans-Serif" font-size="10.00"> +Data</text>
</g>
<!-- Node2 -->
<g id="node2" class="node"><title>Node2</title>
<g id="a_node2"><a xlink:href="structImVec2.html" target="_top" xlink:title="{ImVec2\n|+ x\l+ y\l|+ ImVec2()\l+ ImVec2()\l}">
<polygon fill="none" stroke="black" points="106.5,-1303.5 106.5,-1382.5 171.5,-1382.5 171.5,-1303.5 106.5,-1303.5"/>
<text text-anchor="middle" x="139" y="-1370.5" font-family="Helvetica,sans-Serif" font-size="10.00">ImVec2</text>
<polyline fill="none" stroke="black" points="106.5,-1363.5 171.5,-1363.5 "/>
<text text-anchor="start" x="114.5" y="-1351.5" font-family="Helvetica,sans-Serif" font-size="10.00">+ x</text>
<text text-anchor="start" x="114.5" y="-1340.5" font-family="Helvetica,sans-Serif" font-size="10.00">+ y</text>
<polyline fill="none" stroke="black" points="106.5,-1333.5 171.5,-1333.5 "/>
<text text-anchor="start" x="114.5" y="-1321.5" font-family="Helvetica,sans-Serif" font-size="10.00">+ ImVec2()</text>
<text text-anchor="start" x="114.5" y="-1310.5" font-family="Helvetica,sans-Serif" font-size="10.00">+ ImVec2()</text>
</a>
</g>
</g>
<!-- Node2&#45;&gt;Node1 -->
<g id="edge1" class="edge"><title>Node2&#45;&gt;Node1</title>
<path fill="none" stroke="#404040" d="M139.328,-1303.29C139.564,-1275.45 139.893,-1236.64 140.197,-1200.81"/>
<polygon fill="none" stroke="#404040" points="140.197,-1200.79 136.248,-1194.75 140.298,-1188.79 144.247,-1194.82 140.197,-1200.79"/>
<text text-anchor="middle" x="185.5" y="-1238" font-family="Helvetica,sans-Serif" font-size="10.00"> +GlyphOffset</text>
<text text-anchor="middle" x="185.5" y="-1227" font-family="Helvetica,sans-Serif" font-size="10.00">+GlyphExtraSpacing</text>
</g>
<!-- Node2&#45;&gt;Node3 -->
<g id="edge4" class="edge"><title>Node2&#45;&gt;Node3</title>
<path fill="none" stroke="#404040" d="M171.621,-1317.69C192.41,-1300.23 217.832,-1274.75 231,-1246 275.984,-1147.77 196.376,-1095.39 254,-1004 262.293,-990.847 274.303,-998.155 284,-986 288.836,-979.939 293.253,-973.437 297.286,-966.642"/>
<polygon fill="none" stroke="#404040" points="297.507,-966.243 296.91,-959.057 303.314,-955.742 303.911,-962.928 297.507,-966.243"/>
<text text-anchor="middle" x="289" y="-1102.5" font-family="Helvetica,sans-Serif" font-size="10.00"> +DisplayOffset</text>
</g>
<!-- Node7 -->
<g id="node7" class="node"><title>Node7</title>
<g id="a_node7"><a xlink:href="structImFontAtlas.html" target="_top" xlink:title="{ImFontAtlas\n|+ TexID\l+ TexPixelsAlpha8\l+ TexPixelsRGBA32\l+ TexWidth\l+ TexHeight\l+ TexDesiredWidth\l|+ ImFontAtlas()\l+ ~ImFontAtlas()\l+ AddFont()\l+ AddFontDefault()\l+ AddFontFromFileTTF()\l+ AddFontFromMemoryTTF()\l+ AddFontFromMemoryCompressedTTF()\l+ AddFontFromMemoryCompressed\lBase85TTF()\l+ ClearTexData()\l+ ClearInputData()\land 13 more...\l}">
<polygon fill="none" stroke="black" points="55,-0.5 55,-233.5 255,-233.5 255,-0.5 55,-0.5"/>
<text text-anchor="middle" x="155" y="-221.5" font-family="Helvetica,sans-Serif" font-size="10.00">ImFontAtlas</text>
<polyline fill="none" stroke="black" points="55,-214.5 255,-214.5 "/>
<text text-anchor="start" x="63" y="-202.5" font-family="Helvetica,sans-Serif" font-size="10.00">+ TexID</text>
<text text-anchor="start" x="63" y="-191.5" font-family="Helvetica,sans-Serif" font-size="10.00">+ TexPixelsAlpha8</text>
<text text-anchor="start" x="63" y="-180.5" font-family="Helvetica,sans-Serif" font-size="10.00">+ TexPixelsRGBA32</text>
<text text-anchor="start" x="63" y="-169.5" font-family="Helvetica,sans-Serif" font-size="10.00">+ TexWidth</text>
<text text-anchor="start" x="63" y="-158.5" font-family="Helvetica,sans-Serif" font-size="10.00">+ TexHeight</text>
<text text-anchor="start" x="63" y="-147.5" font-family="Helvetica,sans-Serif" font-size="10.00">+ TexDesiredWidth</text>
<polyline fill="none" stroke="black" points="55,-140.5 255,-140.5 "/>
<text text-anchor="start" x="63" y="-128.5" font-family="Helvetica,sans-Serif" font-size="10.00">+ ImFontAtlas()</text>
<text text-anchor="start" x="63" y="-117.5" font-family="Helvetica,sans-Serif" font-size="10.00">+ ~ImFontAtlas()</text>
<text text-anchor="start" x="63" y="-106.5" font-family="Helvetica,sans-Serif" font-size="10.00">+ AddFont()</text>
<text text-anchor="start" x="63" y="-95.5" font-family="Helvetica,sans-Serif" font-size="10.00">+ AddFontDefault()</text>
<text text-anchor="start" x="63" y="-84.5" font-family="Helvetica,sans-Serif" font-size="10.00">+ AddFontFromFileTTF()</text>
<text text-anchor="start" x="63" y="-73.5" font-family="Helvetica,sans-Serif" font-size="10.00">+ AddFontFromMemoryTTF()</text>
<text text-anchor="start" x="63" y="-62.5" font-family="Helvetica,sans-Serif" font-size="10.00">+ AddFontFromMemoryCompressedTTF()</text>
<text text-anchor="start" x="63" y="-51.5" font-family="Helvetica,sans-Serif" font-size="10.00">+ AddFontFromMemoryCompressed</text>
<text text-anchor="start" x="63" y="-40.5" font-family="Helvetica,sans-Serif" font-size="10.00">Base85TTF()</text>
<text text-anchor="start" x="63" y="-29.5" font-family="Helvetica,sans-Serif" font-size="10.00">+ ClearTexData()</text>
<text text-anchor="start" x="63" y="-18.5" font-family="Helvetica,sans-Serif" font-size="10.00">+ ClearInputData()</text>
<text text-anchor="start" x="63" y="-7.5" font-family="Helvetica,sans-Serif" font-size="10.00">and 13 more...</text>
</a>
</g>
</g>
<!-- Node2&#45;&gt;Node7 -->
<g id="edge12" class="edge"><title>Node2&#45;&gt;Node7</title>
<path fill="none" stroke="#404040" d="M106.411,-1311.42C65.3265,-1269.4 0,-1189.45 0,-1106 0,-1106 0,-1106 0,-371 0,-322.207 21.2207,-274.884 47.9583,-234.624"/>
<polygon fill="none" stroke="#404040" points="48.0823,-234.443 48.1741,-227.232 54.8653,-224.544 54.7735,-231.754 48.0823,-234.443"/>
<text text-anchor="middle" x="43" y="-814.5" font-family="Helvetica,sans-Serif" font-size="10.00"> +TexUvWhitePixel</text>
</g>
<!-- Node3&#45;&gt;Node1 -->
<g id="edge2" class="edge"><title>Node3&#45;&gt;Node1</title>
<path fill="none" stroke="#404040" d="M268.757,-926.101C255.404,-946.138 241.41,-966.797 228,-986 222.239,-994.249 216.183,-1002.76 210.06,-1011.27"/>
<polygon fill="none" stroke="#404040" points="209.89,-1011.5 209.613,-1018.71 202.856,-1021.23 203.132,-1014.02 209.89,-1011.5"/>
<text text-anchor="middle" x="257.5" y="-977.5" font-family="Helvetica,sans-Serif" font-size="10.00"> +DstFont</text>
</g>
<!-- Node8 -->
<g id="node8" class="node"><title>Node8</title>
<g id="a_node8"><a xlink:href="classImVector.html" target="_top" xlink:title="{ImVector\&lt; ImFont * \&gt;\n|+ Size\l+ Capacity\l|+ ImVector()\l+ ~ImVector()\l+ empty()\l+ size()\l+ capacity()\l+ operator[]()\l+ operator[]()\l+ clear()\l+ begin()\l+ begin()\land 14 more...\l}">
<polygon fill="none" stroke="black" points="191,-283 191,-461 303,-461 303,-283 191,-283"/>
<text text-anchor="middle" x="247" y="-449" font-family="Helvetica,sans-Serif" font-size="10.00">ImVector&lt; ImFont * &gt;</text>
<polyline fill="none" stroke="black" points="191,-442 303,-442 "/>
<text text-anchor="start" x="199" y="-430" font-family="Helvetica,sans-Serif" font-size="10.00">+ Size</text>
<text text-anchor="start" x="199" y="-419" font-family="Helvetica,sans-Serif" font-size="10.00">+ Capacity</text>
<polyline fill="none" stroke="black" points="191,-412 303,-412 "/>
<text text-anchor="start" x="199" y="-400" font-family="Helvetica,sans-Serif" font-size="10.00">+ ImVector()</text>
<text text-anchor="start" x="199" y="-389" font-family="Helvetica,sans-Serif" font-size="10.00">+ ~ImVector()</text>
<text text-anchor="start" x="199" y="-378" font-family="Helvetica,sans-Serif" font-size="10.00">+ empty()</text>
<text text-anchor="start" x="199" y="-367" font-family="Helvetica,sans-Serif" font-size="10.00">+ size()</text>
<text text-anchor="start" x="199" y="-356" font-family="Helvetica,sans-Serif" font-size="10.00">+ capacity()</text>
<text text-anchor="start" x="199" y="-345" font-family="Helvetica,sans-Serif" font-size="10.00">+ operator[]()</text>
<text text-anchor="start" x="199" y="-334" font-family="Helvetica,sans-Serif" font-size="10.00">+ operator[]()</text>
<text text-anchor="start" x="199" y="-323" font-family="Helvetica,sans-Serif" font-size="10.00">+ clear()</text>
<text text-anchor="start" x="199" y="-312" font-family="Helvetica,sans-Serif" font-size="10.00">+ begin()</text>
<text text-anchor="start" x="199" y="-301" font-family="Helvetica,sans-Serif" font-size="10.00">+ begin()</text>
<text text-anchor="start" x="199" y="-290" font-family="Helvetica,sans-Serif" font-size="10.00">and 14 more...</text>
</a>
</g>
</g>
<!-- Node3&#45;&gt;Node8 -->
<g id="edge11" class="edge"><title>Node3&#45;&gt;Node8</title>
<path fill="none" stroke="#404040" d="M298.356,-678.422C296.824,-672.212 295.363,-666.05 294,-660 280.122,-598.395 268.585,-528.48 260.416,-473.08"/>
<polygon fill="none" stroke="#404040" points="260.404,-473.003 255.58,-467.643 258.672,-461.129 263.496,-466.488 260.404,-473.003"/>
<text text-anchor="middle" x="309.5" y="-567.5" font-family="Helvetica,sans-Serif" font-size="10.00"> +Data</text>
</g>
<!-- Node4 -->
<g id="node4" class="node"><title>Node4</title>
<g id="a_node4"><a xlink:href="structImFont_1_1Glyph.html" target="_top" xlink:title="{ImFont::Glyph\n|+ Codepoint\l+ XAdvance\l+ X0\l+ Y0\l+ X1\l+ Y1\l+ U0\l+ V0\l+ U1\l+ V1\l|}">
<polygon fill="none" stroke="black" points="429.5,-1265 429.5,-1421 508.5,-1421 508.5,-1265 429.5,-1265"/>
<text text-anchor="middle" x="469" y="-1409" font-family="Helvetica,sans-Serif" font-size="10.00">ImFont::Glyph</text>
<polyline fill="none" stroke="black" points="429.5,-1402 508.5,-1402 "/>
<text text-anchor="start" x="437.5" y="-1390" font-family="Helvetica,sans-Serif" font-size="10.00">+ Codepoint</text>
<text text-anchor="start" x="437.5" y="-1379" font-family="Helvetica,sans-Serif" font-size="10.00">+ XAdvance</text>
<text text-anchor="start" x="437.5" y="-1368" font-family="Helvetica,sans-Serif" font-size="10.00">+ X0</text>
<text text-anchor="start" x="437.5" y="-1357" font-family="Helvetica,sans-Serif" font-size="10.00">+ Y0</text>
<text text-anchor="start" x="437.5" y="-1346" font-family="Helvetica,sans-Serif" font-size="10.00">+ X1</text>
<text text-anchor="start" x="437.5" y="-1335" font-family="Helvetica,sans-Serif" font-size="10.00">+ Y1</text>
<text text-anchor="start" x="437.5" y="-1324" font-family="Helvetica,sans-Serif" font-size="10.00">+ U0</text>
<text text-anchor="start" x="437.5" y="-1313" font-family="Helvetica,sans-Serif" font-size="10.00">+ V0</text>
<text text-anchor="start" x="437.5" y="-1302" font-family="Helvetica,sans-Serif" font-size="10.00">+ U1</text>
<text text-anchor="start" x="437.5" y="-1291" font-family="Helvetica,sans-Serif" font-size="10.00">+ V1</text>
<polyline fill="none" stroke="black" points="429.5,-1284 508.5,-1284 "/>
<text text-anchor="middle" x="469" y="-1272" font-family="Helvetica,sans-Serif" font-size="10.00"> </text>
</a>
</g>
</g>
<!-- Node4&#45;&gt;Node3 -->
<g id="edge3" class="edge"><title>Node4&#45;&gt;Node3</title>
<path fill="none" stroke="#404040" d="M486.09,-1264.96C498.191,-1194.98 507.71,-1089.88 479,-1004 466.11,-965.441 441.733,-928.465 416.888,-897.783"/>
<polygon fill="none" stroke="#404040" points="416.828,-897.71 409.92,-895.64 409.174,-888.468 416.082,-890.538 416.828,-897.71"/>
<text text-anchor="middle" x="534" y="-1102.5" font-family="Helvetica,sans-Serif" font-size="10.00"> +FallbackGlyph</text>
</g>
<!-- Node5 -->
<g id="node5" class="node"><title>Node5</title>
<g id="a_node5"><a xlink:href="classImVector.html" target="_top" xlink:title="{ImVector\&lt; ImFont::Glyph \&gt;\n|+ Size\l+ Capacity\l|+ ImVector()\l+ ~ImVector()\l+ empty()\l+ size()\l+ capacity()\l+ operator[]()\l+ operator[]()\l+ clear()\l+ begin()\l+ begin()\land 14 more...\l}">
<polygon fill="none" stroke="black" points="333.5,-1016 333.5,-1194 470.5,-1194 470.5,-1016 333.5,-1016"/>
<text text-anchor="middle" x="402" y="-1182" font-family="Helvetica,sans-Serif" font-size="10.00">ImVector&lt; ImFont::Glyph &gt;</text>
<polyline fill="none" stroke="black" points="333.5,-1175 470.5,-1175 "/>
<text text-anchor="start" x="341.5" y="-1163" font-family="Helvetica,sans-Serif" font-size="10.00">+ Size</text>
<text text-anchor="start" x="341.5" y="-1152" font-family="Helvetica,sans-Serif" font-size="10.00">+ Capacity</text>
<polyline fill="none" stroke="black" points="333.5,-1145 470.5,-1145 "/>
<text text-anchor="start" x="341.5" y="-1133" font-family="Helvetica,sans-Serif" font-size="10.00">+ ImVector()</text>
<text text-anchor="start" x="341.5" y="-1122" font-family="Helvetica,sans-Serif" font-size="10.00">+ ~ImVector()</text>
<text text-anchor="start" x="341.5" y="-1111" font-family="Helvetica,sans-Serif" font-size="10.00">+ empty()</text>
<text text-anchor="start" x="341.5" y="-1100" font-family="Helvetica,sans-Serif" font-size="10.00">+ size()</text>
<text text-anchor="start" x="341.5" y="-1089" font-family="Helvetica,sans-Serif" font-size="10.00">+ capacity()</text>
<text text-anchor="start" x="341.5" y="-1078" font-family="Helvetica,sans-Serif" font-size="10.00">+ operator[]()</text>
<text text-anchor="start" x="341.5" y="-1067" font-family="Helvetica,sans-Serif" font-size="10.00">+ operator[]()</text>
<text text-anchor="start" x="341.5" y="-1056" font-family="Helvetica,sans-Serif" font-size="10.00">+ clear()</text>
<text text-anchor="start" x="341.5" y="-1045" font-family="Helvetica,sans-Serif" font-size="10.00">+ begin()</text>
<text text-anchor="start" x="341.5" y="-1034" font-family="Helvetica,sans-Serif" font-size="10.00">+ begin()</text>
<text text-anchor="start" x="341.5" y="-1023" font-family="Helvetica,sans-Serif" font-size="10.00">and 14 more...</text>
</a>
</g>
</g>
<!-- Node4&#45;&gt;Node5 -->
<g id="edge6" class="edge"><title>Node4&#45;&gt;Node5</title>
<path fill="none" stroke="#404040" d="M447.062,-1264.72C441.727,-1245.93 435.947,-1225.57 430.361,-1205.9"/>
<polygon fill="none" stroke="#404040" points="430.285,-1205.63 424.799,-1200.95 427.008,-1194.09 432.494,-1198.77 430.285,-1205.63"/>
<text text-anchor="middle" x="457.5" y="-1232.5" font-family="Helvetica,sans-Serif" font-size="10.00"> +Data</text>
</g>
<!-- Node5&#45;&gt;Node3 -->
<g id="edge5" class="edge"><title>Node5&#45;&gt;Node3</title>
<path fill="none" stroke="#404040" d="M382.584,-1015.86C379.195,-1000.47 375.585,-984.085 371.95,-967.583"/>
<polygon fill="none" stroke="#404040" points="371.883,-967.278 366.686,-962.279 369.301,-955.559 374.499,-960.558 371.883,-967.278"/>
<text text-anchor="middle" x="395" y="-977.5" font-family="Helvetica,sans-Serif" font-size="10.00"> +Glyphs</text>
</g>
<!-- Node6 -->
<g id="node6" class="node"><title>Node6</title>
<g id="a_node6"><a xlink:href="classImVector.html" target="_top" xlink:title="{ImVector\&lt; unsigned\l short \&gt;\n|+ Size\l+ Capacity\l+ Data\l|+ ImVector()\l+ ~ImVector()\l+ empty()\l+ size()\l+ capacity()\l+ operator[]()\l+ operator[]()\l+ clear()\l+ begin()\l+ begin()\land 14 more...\l}">
<polygon fill="none" stroke="black" points="597,-1005 597,-1205 701,-1205 701,-1005 597,-1005"/>
<text text-anchor="start" x="605" y="-1193" font-family="Helvetica,sans-Serif" font-size="10.00">ImVector&lt; unsigned</text>
<text text-anchor="middle" x="649" y="-1182" font-family="Helvetica,sans-Serif" font-size="10.00"> short &gt;</text>
<polyline fill="none" stroke="black" points="597,-1175 701,-1175 "/>
<text text-anchor="start" x="605" y="-1163" font-family="Helvetica,sans-Serif" font-size="10.00">+ Size</text>
<text text-anchor="start" x="605" y="-1152" font-family="Helvetica,sans-Serif" font-size="10.00">+ Capacity</text>
<text text-anchor="start" x="605" y="-1141" font-family="Helvetica,sans-Serif" font-size="10.00">+ Data</text>
<polyline fill="none" stroke="black" points="597,-1134 701,-1134 "/>
<text text-anchor="start" x="605" y="-1122" font-family="Helvetica,sans-Serif" font-size="10.00">+ ImVector()</text>
<text text-anchor="start" x="605" y="-1111" font-family="Helvetica,sans-Serif" font-size="10.00">+ ~ImVector()</text>
<text text-anchor="start" x="605" y="-1100" font-family="Helvetica,sans-Serif" font-size="10.00">+ empty()</text>
<text text-anchor="start" x="605" y="-1089" font-family="Helvetica,sans-Serif" font-size="10.00">+ size()</text>
<text text-anchor="start" x="605" y="-1078" font-family="Helvetica,sans-Serif" font-size="10.00">+ capacity()</text>
<text text-anchor="start" x="605" y="-1067" font-family="Helvetica,sans-Serif" font-size="10.00">+ operator[]()</text>
<text text-anchor="start" x="605" y="-1056" font-family="Helvetica,sans-Serif" font-size="10.00">+ operator[]()</text>
<text text-anchor="start" x="605" y="-1045" font-family="Helvetica,sans-Serif" font-size="10.00">+ clear()</text>
<text text-anchor="start" x="605" y="-1034" font-family="Helvetica,sans-Serif" font-size="10.00">+ begin()</text>
<text text-anchor="start" x="605" y="-1023" font-family="Helvetica,sans-Serif" font-size="10.00">+ begin()</text>
<text text-anchor="start" x="605" y="-1012" font-family="Helvetica,sans-Serif" font-size="10.00">and 14 more...</text>
</a>
</g>
</g>
<!-- Node6&#45;&gt;Node3 -->
<g id="edge7" class="edge"><title>Node6&#45;&gt;Node3</title>
<path fill="none" stroke="#404040" d="M596.876,-1020.23C592.4,-1014.56 587.757,-1009.09 583,-1004 534.352,-951.929 469.913,-903.485 419.474,-869.097"/>
<polygon fill="none" stroke="#404040" points="419.201,-868.913 411.99,-868.867 409.258,-862.194 416.469,-862.239 419.201,-868.913"/>
<text text-anchor="middle" x="592.5" y="-977.5" font-family="Helvetica,sans-Serif" font-size="10.00"> +IndexLookup</text>
</g>
<!-- Node7&#45;&gt;Node3 -->
<g id="edge9" class="edge"><title>Node7&#45;&gt;Node3</title>
<path fill="none" stroke="#404040" d="M255.211,-201.442C277.314,-225.098 297.993,-252.519 311,-282 364.501,-403.267 367.035,-555.364 358.811,-666.186"/>
<polygon fill="none" stroke="#404040" points="358.786,-666.508 362.302,-672.804 357.843,-678.471 354.327,-672.175 358.786,-666.508"/>
<text text-anchor="middle" x="394" y="-369.5" font-family="Helvetica,sans-Serif" font-size="10.00"> +ContainerAtlas</text>
</g>
<!-- Node8&#45;&gt;Node7 -->
<g id="edge10" class="edge"><title>Node8&#45;&gt;Node7</title>
<path fill="none" stroke="#404040" d="M214.952,-282.868C210.545,-270.749 205.949,-258.11 201.349,-245.459"/>
<polygon fill="none" stroke="#404040" points="201.229,-245.129 195.419,-240.857 197.128,-233.851 202.937,-238.123 201.229,-245.129"/>
<text text-anchor="middle" x="224" y="-255.5" font-family="Helvetica,sans-Serif" font-size="10.00"> +Fonts</text>
</g>
<!-- Node9&#45;&gt;Node7 -->
<g id="edge13" class="edge"><title>Node9&#45;&gt;Node7</title>
<path fill="none" stroke="#404040" d="M113.096,-480.81C113.417,-423.904 115.532,-348.381 123,-282 124.326,-270.217 126.044,-258.015 127.995,-245.83"/>
<polygon fill="none" stroke="#404040" points="128.049,-245.503 125.088,-238.928 130.018,-233.666 132.98,-240.241 128.049,-245.503"/>
<text text-anchor="middle" x="152.5" y="-369.5" font-family="Helvetica,sans-Serif" font-size="10.00"> +ConfigData</text>
</g>
<!-- Node10 -->
<g id="node10" class="node"><title>Node10</title>
<g id="a_node10"><a xlink:href="classImVector.html" target="_top" xlink:title="{ImVector\&lt; float \&gt;\n|+ Size\l+ Capacity\l+ Data\l|+ ImVector()\l+ ~ImVector()\l+ empty()\l+ size()\l+ capacity()\l+ operator[]()\l+ operator[]()\l+ clear()\l+ begin()\l+ begin()\land 14 more...\l}">
<polygon fill="none" stroke="black" points="719.5,-1010.5 719.5,-1199.5 812.5,-1199.5 812.5,-1010.5 719.5,-1010.5"/>
<text text-anchor="middle" x="766" y="-1187.5" font-family="Helvetica,sans-Serif" font-size="10.00">ImVector&lt; float &gt;</text>
<polyline fill="none" stroke="black" points="719.5,-1180.5 812.5,-1180.5 "/>
<text text-anchor="start" x="727.5" y="-1168.5" font-family="Helvetica,sans-Serif" font-size="10.00">+ Size</text>
<text text-anchor="start" x="727.5" y="-1157.5" font-family="Helvetica,sans-Serif" font-size="10.00">+ Capacity</text>
<text text-anchor="start" x="727.5" y="-1146.5" font-family="Helvetica,sans-Serif" font-size="10.00">+ Data</text>
<polyline fill="none" stroke="black" points="719.5,-1139.5 812.5,-1139.5 "/>
<text text-anchor="start" x="727.5" y="-1127.5" font-family="Helvetica,sans-Serif" font-size="10.00">+ ImVector()</text>
<text text-anchor="start" x="727.5" y="-1116.5" font-family="Helvetica,sans-Serif" font-size="10.00">+ ~ImVector()</text>
<text text-anchor="start" x="727.5" y="-1105.5" font-family="Helvetica,sans-Serif" font-size="10.00">+ empty()</text>
<text text-anchor="start" x="727.5" y="-1094.5" font-family="Helvetica,sans-Serif" font-size="10.00">+ size()</text>
<text text-anchor="start" x="727.5" y="-1083.5" font-family="Helvetica,sans-Serif" font-size="10.00">+ capacity()</text>
<text text-anchor="start" x="727.5" y="-1072.5" font-family="Helvetica,sans-Serif" font-size="10.00">+ operator[]()</text>
<text text-anchor="start" x="727.5" y="-1061.5" font-family="Helvetica,sans-Serif" font-size="10.00">+ operator[]()</text>
<text text-anchor="start" x="727.5" y="-1050.5" font-family="Helvetica,sans-Serif" font-size="10.00">+ clear()</text>
<text text-anchor="start" x="727.5" y="-1039.5" font-family="Helvetica,sans-Serif" font-size="10.00">+ begin()</text>
<text text-anchor="start" x="727.5" y="-1028.5" font-family="Helvetica,sans-Serif" font-size="10.00">+ begin()</text>
<text text-anchor="start" x="727.5" y="-1017.5" font-family="Helvetica,sans-Serif" font-size="10.00">and 14 more...</text>
</a>
</g>
</g>
<!-- Node10&#45;&gt;Node3 -->
<g id="edge15" class="edge"><title>Node10&#45;&gt;Node3</title>
<path fill="none" stroke="#404040" d="M719.499,-1014.13C716.476,-1010.56 713.309,-1007.16 710,-1004 626.575,-924.308 502.364,-871.539 421.029,-843.191"/>
<polygon fill="none" stroke="#404040" points="420.7,-843.079 413.727,-844.916 409.349,-839.186 416.322,-837.348 420.7,-843.079"/>
<text text-anchor="middle" x="724.5" y="-977.5" font-family="Helvetica,sans-Serif" font-size="10.00"> +IndexXAdvance</text>
</g>
</g>
</svg>
