<?xml version="1.0" encoding="UTF-8" standalone="no"?>
<!DOCTYPE svg PUBLIC "-//W3C//DTD SVG 1.1//EN"
 "http://www.w3.org/Graphics/SVG/1.1/DTD/svg11.dtd">
<!-- Generated by graphviz version 2.36.0 (20140111.2315)
 -->
<!-- Title: ImGuiStb::STB_TexteditState Pages: 1 -->
<svg width="154pt" height="478pt"
 viewBox="0.00 0.00 154.00 478.00" xmlns="http://www.w3.org/2000/svg" xmlns:xlink="http://www.w3.org/1999/xlink">
<g id="graph0" class="graph" transform="scale(1 1) rotate(0) translate(4 474)">
<title>ImGuiStb::STB_TexteditState</title>
<!-- Node1 -->
<g id="node1" class="node"><title>Node1</title>
<polygon fill="#bfbfbf" stroke="black" points="-0.5,-1 -0.5,-179 146.5,-179 146.5,-1 -0.5,-1"/>
<text text-anchor="middle" x="73" y="-167" font-family="Helvetica,sans-Serif" font-size="10.00">ImGuiStb::STB_TexteditState</text>
<polyline fill="none" stroke="black" points="-0.5,-160 146.5,-160 "/>
<text text-anchor="start" x="7.5" y="-148" font-family="Helvetica,sans-Serif" font-size="10.00">+ cursor</text>
<text text-anchor="start" x="7.5" y="-137" font-family="Helvetica,sans-Serif" font-size="10.00">+ select_start</text>
<text text-anchor="start" x="7.5" y="-126" font-family="Helvetica,sans-Serif" font-size="10.00">+ select_end</text>
<text text-anchor="start" x="7.5" y="-115" font-family="Helvetica,sans-Serif" font-size="10.00">+ insert_mode</text>
<text text-anchor="start" x="7.5" y="-104" font-family="Helvetica,sans-Serif" font-size="10.00">+ cursor_at_end_of_line</text>
<text text-anchor="start" x="7.5" y="-93" font-family="Helvetica,sans-Serif" font-size="10.00">+ initialized</text>
<text text-anchor="start" x="7.5" y="-82" font-family="Helvetica,sans-Serif" font-size="10.00">+ has_preferred_x</text>
<text text-anchor="start" x="7.5" y="-71" font-family="Helvetica,sans-Serif" font-size="10.00">+ single_line</text>
<text text-anchor="start" x="7.5" y="-60" font-family="Helvetica,sans-Serif" font-size="10.00">+ padding1</text>
<text text-anchor="start" x="7.5" y="-49" font-family="Helvetica,sans-Serif" font-size="10.00">+ padding2</text>
<text text-anchor="start" x="7.5" y="-38" font-family="Helvetica,sans-Serif" font-size="10.00">+ padding3</text>
<text text-anchor="start" x="7.5" y="-27" font-family="Helvetica,sans-Serif" font-size="10.00">+ preferred_x</text>
<polyline fill="none" stroke="black" points="-0.5,-20 146.5,-20 "/>
<text text-anchor="middle" x="73" y="-8" font-family="Helvetica,sans-Serif" font-size="10.00"> </text>
</g>
<!-- Node2 -->
<g id="node2" class="node"><title>Node2</title>
<g id="a_node2"><a xlink:href="structImGuiStb_1_1StbUndoState.html" target="_top" xlink:title="{ImGuiStb::StbUndoState\n|+ undo_char\l+ undo_point\l+ redo_point\l+ undo_char_point\l+ redo_char_point\l|}">
<polygon fill="none" stroke="black" points="10.5,-228.5 10.5,-329.5 135.5,-329.5 135.5,-228.5 10.5,-228.5"/>
<text text-anchor="middle" x="73" y="-317.5" font-family="Helvetica,sans-Serif" font-size="10.00">ImGuiStb::StbUndoState</text>
<polyline fill="none" stroke="black" points="10.5,-310.5 135.5,-310.5 "/>
<text text-anchor="start" x="18.5" y="-298.5" font-family="Helvetica,sans-Serif" font-size="10.00">+ undo_char</text>
<text text-anchor="start" x="18.5" y="-287.5" font-family="Helvetica,sans-Serif" font-size="10.00">+ undo_point</text>
<text text-anchor="start" x="18.5" y="-276.5" font-family="Helvetica,sans-Serif" font-size="10.00">+ redo_point</text>
<text text-anchor="start" x="18.5" y="-265.5" font-family="Helvetica,sans-Serif" font-size="10.00">+ undo_char_point</text>
<text text-anchor="start" x="18.5" y="-254.5" font-family="Helvetica,sans-Serif" font-size="10.00">+ redo_char_point</text>
<polyline fill="none" stroke="black" points="10.5,-247.5 135.5,-247.5 "/>
<text text-anchor="middle" x="73" y="-235.5" font-family="Helvetica,sans-Serif" font-size="10.00"> </text>
</a>
</g>
</g>
<!-- Node2&#45;&gt;Node1 -->
<g id="edge1" class="edge"><title>Node2&#45;&gt;Node1</title>
<path fill="none" stroke="#404040" d="M73,-228.378C73,-216.899 73,-204.278 73,-191.482"/>
<polygon fill="none" stroke="#404040" points="73.0001,-191.191 69,-185.191 73,-179.191 77,-185.191 73.0001,-191.191"/>
<text text-anchor="middle" x="99" y="-201.5" font-family="Helvetica,sans-Serif" font-size="10.00"> +undostate</text>
</g>
<!-- Node3 -->
<g id="node3" class="node"><title>Node3</title>
<g id="a_node3"><a xlink:href="structImGuiStb_1_1StbUndoRecord.html" target="_top" xlink:title="{ImGuiStb::StbUndoRecord\n|+ where\l+ insert_length\l+ delete_length\l+ char_storage\l|}">
<polygon fill="none" stroke="black" points="6,-379 6,-469 140,-469 140,-379 6,-379"/>
<text text-anchor="middle" x="73" y="-457" font-family="Helvetica,sans-Serif" font-size="10.00">ImGuiStb::StbUndoRecord</text>
<polyline fill="none" stroke="black" points="6,-450 140,-450 "/>
<text text-anchor="start" x="14" y="-438" font-family="Helvetica,sans-Serif" font-size="10.00">+ where</text>
<text text-anchor="start" x="14" y="-427" font-family="Helvetica,sans-Serif" font-size="10.00">+ insert_length</text>
<text text-anchor="start" x="14" y="-416" font-family="Helvetica,sans-Serif" font-size="10.00">+ delete_length</text>
<text text-anchor="start" x="14" y="-405" font-family="Helvetica,sans-Serif" font-size="10.00">+ char_storage</text>
<polyline fill="none" stroke="black" points="6,-398 140,-398 "/>
<text text-anchor="middle" x="73" y="-386" font-family="Helvetica,sans-Serif" font-size="10.00"> </text>
</a>
</g>
</g>
<!-- Node3&#45;&gt;Node2 -->
<g id="edge2" class="edge"><title>Node3&#45;&gt;Node2</title>
<path fill="none" stroke="#404040" d="M73,-378.928C73,-367.234 73,-354.386 73,-341.933"/>
<polygon fill="none" stroke="#404040" points="73.0001,-341.668 69,-335.668 73,-329.668 77,-335.668 73.0001,-341.668"/>
<text text-anchor="middle" x="97.5" y="-351.5" font-family="Helvetica,sans-Serif" font-size="10.00"> +undo_rec</text>
</g>
</g>
</svg>
