<?xml version="1.0" encoding="UTF-8" standalone="no"?>
<!DOCTYPE svg PUBLIC "-//W3C//DTD SVG 1.1//EN"
 "http://www.w3.org/Graphics/SVG/1.1/DTD/svg11.dtd">
<!-- Generated by graphviz version 2.36.0 (20140111.2315)
 -->
<!-- Title: ImGuiSizeConstraintCallbackData Pages: 1 -->
<svg width="174pt" height="216pt"
 viewBox="0.00 0.00 174.00 216.00" xmlns="http://www.w3.org/2000/svg" xmlns:xlink="http://www.w3.org/1999/xlink">
<g id="graph0" class="graph" transform="scale(1 1) rotate(0) translate(4 212)">
<title>ImGuiSizeConstraintCallbackData</title>
<!-- Node1 -->
<g id="node1" class="node"><title>Node1</title>
<polygon fill="#bfbfbf" stroke="black" points="-0.5,-0.5 -0.5,-57.5 166.5,-57.5 166.5,-0.5 -0.5,-0.5"/>
<text text-anchor="middle" x="83" y="-45.5" font-family="Helvetica,sans-Serif" font-size="10.00">ImGuiSizeConstraintCallbackData</text>
<polyline fill="none" stroke="black" points="-0.5,-38.5 166.5,-38.5 "/>
<text text-anchor="start" x="7.5" y="-26.5" font-family="Helvetica,sans-Serif" font-size="10.00">+ UserData</text>
<polyline fill="none" stroke="black" points="-0.5,-19.5 166.5,-19.5 "/>
<text text-anchor="middle" x="83" y="-7.5" font-family="Helvetica,sans-Serif" font-size="10.00"> </text>
</g>
<!-- Node2 -->
<g id="node2" class="node"><title>Node2</title>
<g id="a_node2"><a xlink:href="structImVec2.html" target="_top" xlink:title="{ImVec2\n|+ x\l+ y\l|+ ImVec2()\l+ ImVec2()\l}">
<polygon fill="none" stroke="black" points="50.5,-128.5 50.5,-207.5 115.5,-207.5 115.5,-128.5 50.5,-128.5"/>
<text text-anchor="middle" x="83" y="-195.5" font-family="Helvetica,sans-Serif" font-size="10.00">ImVec2</text>
<polyline fill="none" stroke="black" points="50.5,-188.5 115.5,-188.5 "/>
<text text-anchor="start" x="58.5" y="-176.5" font-family="Helvetica,sans-Serif" font-size="10.00">+ x</text>
<text text-anchor="start" x="58.5" y="-165.5" font-family="Helvetica,sans-Serif" font-size="10.00">+ y</text>
<polyline fill="none" stroke="black" points="50.5,-158.5 115.5,-158.5 "/>
<text text-anchor="start" x="58.5" y="-146.5" font-family="Helvetica,sans-Serif" font-size="10.00">+ ImVec2()</text>
<text text-anchor="start" x="58.5" y="-135.5" font-family="Helvetica,sans-Serif" font-size="10.00">+ ImVec2()</text>
</a>
</g>
</g>
<!-- Node2&#45;&gt;Node1 -->
<g id="edge1" class="edge"><title>Node2&#45;&gt;Node1</title>
<path fill="none" stroke="#404040" d="M83,-128.473C83,-110.211 83,-88.4083 83,-69.9657"/>
<polygon fill="none" stroke="#404040" points="83.0001,-69.8194 79,-63.8195 83,-57.8194 87,-63.8194 83.0001,-69.8194"/>
<text text-anchor="middle" x="114.5" y="-101.5" font-family="Helvetica,sans-Serif" font-size="10.00"> +DesiredSize</text>
<text text-anchor="middle" x="114.5" y="-90.5" font-family="Helvetica,sans-Serif" font-size="10.00">+CurrentSize</text>
<text text-anchor="middle" x="114.5" y="-79.5" font-family="Helvetica,sans-Serif" font-size="10.00">+Pos</text>
</g>
</g>
</svg>
