<?xml version="1.0" encoding="UTF-8" standalone="no"?>
<!DOCTYPE svg PUBLIC "-//W3C//DTD SVG 1.1//EN"
 "http://www.w3.org/Graphics/SVG/1.1/DTD/svg11.dtd">
<!-- Generated by graphviz version 2.40.1 (20161225.0304)
 -->
<!-- Title: ImGuiSizeConstraintCallbackData Pages: 1 -->
<svg width="175pt" height="215pt"
 viewBox="0.00 0.00 175.00 215.00" xmlns="http://www.w3.org/2000/svg" xmlns:xlink="http://www.w3.org/1999/xlink">
<g id="graph0" class="graph" transform="scale(1 1) rotate(0) translate(4 211)">
<title>ImGuiSizeConstraintCallbackData</title>
<!-- Node1 -->
<g id="node1" class="node">
<title>Node1</title>
<polygon fill="#bfbfbf" stroke="#000000" points="0,-.5 0,-57.5 167,-57.5 167,-.5 0,-.5"/>
<text text-anchor="middle" x="83.5" y="-45.5" font-family="Helvetica,sans-Serif" font-size="10.00" fill="#000000">ImGuiSizeConstraintCallbackData</text>
<polyline fill="none" stroke="#000000" points="0,-38.5 167,-38.5 "/>
<text text-anchor="start" x="8" y="-26.5" font-family="Helvetica,sans-Serif" font-size="10.00" fill="#000000">+ UserData</text>
<polyline fill="none" stroke="#000000" points="0,-19.5 167,-19.5 "/>
<text text-anchor="middle" x="83.5" y="-7.5" font-family="Helvetica,sans-Serif" font-size="10.00" fill="#000000"> </text>
</g>
<!-- Node2 -->
<g id="node2" class="node">
<title>Node2</title>
<g id="a_node2"><a xlink:href="structImVec2.html" target="_top" xlink:title="{ImVec2\n|+ x\l+ y\l|+ ImVec2()\l+ ImVec2()\l}">
<polygon fill="none" stroke="#000000" points="51,-127.5 51,-206.5 116,-206.5 116,-127.5 51,-127.5"/>
<text text-anchor="middle" x="83.5" y="-194.5" font-family="Helvetica,sans-Serif" font-size="10.00" fill="#000000">ImVec2</text>
<polyline fill="none" stroke="#000000" points="51,-187.5 116,-187.5 "/>
<text text-anchor="start" x="59" y="-175.5" font-family="Helvetica,sans-Serif" font-size="10.00" fill="#000000">+ x</text>
<text text-anchor="start" x="59" y="-164.5" font-family="Helvetica,sans-Serif" font-size="10.00" fill="#000000">+ y</text>
<polyline fill="none" stroke="#000000" points="51,-157.5 116,-157.5 "/>
<text text-anchor="start" x="59" y="-145.5" font-family="Helvetica,sans-Serif" font-size="10.00" fill="#000000">+ ImVec2()</text>
<text text-anchor="start" x="59" y="-134.5" font-family="Helvetica,sans-Serif" font-size="10.00" fill="#000000">+ ImVec2()</text>
</a>
</g>
</g>
<!-- Node2&#45;&gt;Node1 -->
<g id="edge1" class="edge">
<title>Node2&#45;&gt;Node1</title>
<path fill="none" stroke="#404040" d="M83.5,-127.4547C83.5,-109.3353 83.5,-87.8797 83.5,-69.6302"/>
<polygon fill="none" stroke="#404040" points="83.5001,-69.5885 79.5,-63.5885 83.5,-57.5885 87.5,-63.5884 83.5001,-69.5885"/>
<text text-anchor="middle" x="115" y="-101" font-family="Helvetica,sans-Serif" font-size="10.00" fill="#000000"> +DesiredSize</text>
<text text-anchor="middle" x="115" y="-90" font-family="Helvetica,sans-Serif" font-size="10.00" fill="#000000">+CurrentSize</text>
<text text-anchor="middle" x="115" y="-79" font-family="Helvetica,sans-Serif" font-size="10.00" fill="#000000">+Pos</text>
</g>
</g>
</svg>
