<?xml version="1.0" encoding="UTF-8" standalone="no"?>
<!DOCTYPE svg PUBLIC "-//W3C//DTD SVG 1.1//EN"
 "http://www.w3.org/Graphics/SVG/1.1/DTD/svg11.dtd">
<!-- Generated by graphviz version 2.36.0 (20140111.2315)
 -->
<!-- Title: arma::opengl::GL_type&lt; GLfloat &gt; Pages: 1 -->
<svg width="134pt" height="184pt"
 viewBox="0.00 0.00 134.00 184.00" xmlns="http://www.w3.org/2000/svg" xmlns:xlink="http://www.w3.org/1999/xlink">
<g id="graph0" class="graph" transform="scale(1 1) rotate(0) translate(4 180)">
<title>arma::opengl::GL_type&lt; GLfloat &gt;</title>
<!-- Node1 -->
<g id="node1" class="node"><title>Node1</title>
<polygon fill="#bfbfbf" stroke="black" points="5,-1 5,-69 121,-69 121,-1 5,-1"/>
<text text-anchor="start" x="13" y="-57" font-family="Helvetica,sans-Serif" font-size="10.00">arma::opengl::GL_type</text>
<text text-anchor="middle" x="63" y="-46" font-family="Helvetica,sans-Serif" font-size="10.00">&lt; GLfloat &gt;</text>
<polyline fill="none" stroke="black" points="5,-39 121,-39 "/>
<text text-anchor="middle" x="63" y="-27" font-family="Helvetica,sans-Serif" font-size="10.00"> </text>
<polyline fill="none" stroke="black" points="5,-20 121,-20 "/>
<text text-anchor="middle" x="63" y="-8" font-family="Helvetica,sans-Serif" font-size="10.00"> </text>
</g>
<!-- Node2 -->
<g id="node2" class="node"><title>Node2</title>
<polygon fill="none" stroke="#bfbfbf" points="-0.5,-107 -0.5,-175 126.5,-175 126.5,-107 -0.5,-107"/>
<text text-anchor="start" x="7.5" y="-163" font-family="Helvetica,sans-Serif" font-size="10.00">std::integral_constant</text>
<text text-anchor="middle" x="63" y="-152" font-family="Helvetica,sans-Serif" font-size="10.00">&lt; GLenum, GL_FLOAT &gt;</text>
<polyline fill="none" stroke="#bfbfbf" points="-0.5,-145 126.5,-145 "/>
<text text-anchor="middle" x="63" y="-133" font-family="Helvetica,sans-Serif" font-size="10.00"> </text>
<polyline fill="none" stroke="#bfbfbf" points="-0.5,-126 126.5,-126 "/>
<text text-anchor="middle" x="63" y="-114" font-family="Helvetica,sans-Serif" font-size="10.00"> </text>
</g>
<!-- Node2&#45;&gt;Node1 -->
<g id="edge1" class="edge"><title>Node2&#45;&gt;Node1</title>
<path fill="none" stroke="midnightblue" d="M63,-96.6737C63,-87.5025 63,-77.9608 63,-69.2336"/>
<polygon fill="none" stroke="midnightblue" points="59.5001,-96.8078 63,-106.808 66.5001,-96.8078 59.5001,-96.8078"/>
</g>
</g>
</svg>
