<?xml version="1.0" encoding="UTF-8" standalone="no"?>
<!DOCTYPE svg PUBLIC "-//W3C//DTD SVG 1.1//EN"
 "http://www.w3.org/Graphics/SVG/1.1/DTD/svg11.dtd">
<!-- Generated by graphviz version 2.36.0 (20140111.2315)
 -->
<!-- Title: arma::opengl::GL_type&lt; GLdouble &gt; Pages: 1 -->
<svg width="144pt" height="184pt"
 viewBox="0.00 0.00 144.00 184.00" xmlns="http://www.w3.org/2000/svg" xmlns:xlink="http://www.w3.org/1999/xlink">
<g id="graph0" class="graph" transform="scale(1 1) rotate(0) translate(4 180)">
<title>arma::opengl::GL_type&lt; GLdouble &gt;</title>
<!-- Node1 -->
<g id="node1" class="node"><title>Node1</title>
<polygon fill="#bfbfbf" stroke="black" points="10,-1 10,-69 126,-69 126,-1 10,-1"/>
<text text-anchor="start" x="18" y="-57" font-family="Helvetica,sans-Serif" font-size="10.00">arma::opengl::GL_type</text>
<text text-anchor="middle" x="68" y="-46" font-family="Helvetica,sans-Serif" font-size="10.00">&lt; GLdouble &gt;</text>
<polyline fill="none" stroke="black" points="10,-39 126,-39 "/>
<text text-anchor="middle" x="68" y="-27" font-family="Helvetica,sans-Serif" font-size="10.00"> </text>
<polyline fill="none" stroke="black" points="10,-20 126,-20 "/>
<text text-anchor="middle" x="68" y="-8" font-family="Helvetica,sans-Serif" font-size="10.00"> </text>
</g>
<!-- Node2 -->
<g id="node2" class="node"><title>Node2</title>
<polygon fill="none" stroke="#bfbfbf" points="-0.5,-107 -0.5,-175 136.5,-175 136.5,-107 -0.5,-107"/>
<text text-anchor="start" x="7.5" y="-163" font-family="Helvetica,sans-Serif" font-size="10.00">std::integral_constant</text>
<text text-anchor="middle" x="68" y="-152" font-family="Helvetica,sans-Serif" font-size="10.00">&lt; GLenum, GL_DOUBLE &gt;</text>
<polyline fill="none" stroke="#bfbfbf" points="-0.5,-145 136.5,-145 "/>
<text text-anchor="middle" x="68" y="-133" font-family="Helvetica,sans-Serif" font-size="10.00"> </text>
<polyline fill="none" stroke="#bfbfbf" points="-0.5,-126 136.5,-126 "/>
<text text-anchor="middle" x="68" y="-114" font-family="Helvetica,sans-Serif" font-size="10.00"> </text>
</g>
<!-- Node2&#45;&gt;Node1 -->
<g id="edge1" class="edge"><title>Node2&#45;&gt;Node1</title>
<path fill="none" stroke="midnightblue" d="M68,-96.6737C68,-87.5025 68,-77.9608 68,-69.2336"/>
<polygon fill="none" stroke="midnightblue" points="64.5001,-96.8078 68,-106.808 71.5001,-96.8078 64.5001,-96.8078"/>
</g>
</g>
</svg>
