<?xml version="1.0" encoding="UTF-8" standalone="no"?>
<!DOCTYPE svg PUBLIC "-//W3C//DTD SVG 1.1//EN"
 "http://www.w3.org/Graphics/SVG/1.1/DTD/svg11.dtd">
<!-- Generated by graphviz version 2.36.0 (20140111.2315)
 -->
<!-- Title: arma::ARMA_driver&lt; T &gt; Pages: 1 -->
<svg width="480pt" height="752pt"
 viewBox="0.00 0.00 480.00 752.00" xmlns="http://www.w3.org/2000/svg" xmlns:xlink="http://www.w3.org/1999/xlink">
<g id="graph0" class="graph" transform="scale(1 1) rotate(0) translate(4 748)">
<title>arma::ARMA_driver&lt; T &gt;</title>
<!-- Node1 -->
<g id="node1" class="node"><title>Node1</title>
<polygon fill="#bfbfbf" stroke="black" points="193,-1 193,-223 321,-223 321,-1 193,-1"/>
<text text-anchor="middle" x="257" y="-211" font-family="Helvetica,sans-Serif" font-size="10.00">arma::ARMA_driver&lt; T &gt;</text>
<polyline fill="none" stroke="black" points="193,-204 321,-204 "/>
<text text-anchor="start" x="201" y="-192" font-family="Helvetica,sans-Serif" font-size="10.00">&#45; _vpotentials</text>
<text text-anchor="start" x="201" y="-181" font-family="Helvetica,sans-Serif" font-size="10.00">&#45; _solvers</text>
<text text-anchor="start" x="201" y="-170" font-family="Helvetica,sans-Serif" font-size="10.00">&#45; _models</text>
<polyline fill="none" stroke="black" points="193,-163 321,-163 "/>
<text text-anchor="start" x="201" y="-151" font-family="Helvetica,sans-Serif" font-size="10.00">+ ARMA_driver()</text>
<text text-anchor="start" x="201" y="-140" font-family="Helvetica,sans-Serif" font-size="10.00">+ ~ARMA_driver()</text>
<text text-anchor="start" x="201" y="-129" font-family="Helvetica,sans-Serif" font-size="10.00">+ open()</text>
<text text-anchor="start" x="201" y="-118" font-family="Helvetica,sans-Serif" font-size="10.00">+ wavy_surface()</text>
<text text-anchor="start" x="201" y="-107" font-family="Helvetica,sans-Serif" font-size="10.00">+ wavy_surface_grid()</text>
<text text-anchor="start" x="201" y="-96" font-family="Helvetica,sans-Serif" font-size="10.00">+ velocity_potentials()</text>
<text text-anchor="start" x="201" y="-85" font-family="Helvetica,sans-Serif" font-size="10.00">+ velocity_potential</text>
<text text-anchor="start" x="201" y="-74" font-family="Helvetica,sans-Serif" font-size="10.00">_solver()</text>
<text text-anchor="start" x="201" y="-63" font-family="Helvetica,sans-Serif" font-size="10.00">+ velocity_potential</text>
<text text-anchor="start" x="201" y="-52" font-family="Helvetica,sans-Serif" font-size="10.00">_solver()</text>
<text text-anchor="start" x="201" y="-41" font-family="Helvetica,sans-Serif" font-size="10.00">+ oflags()</text>
<text text-anchor="start" x="201" y="-30" font-family="Helvetica,sans-Serif" font-size="10.00">+ velocity_potential_grid()</text>
<text text-anchor="start" x="201" y="-19" font-family="Helvetica,sans-Serif" font-size="10.00">and 8 more...</text>
<text text-anchor="start" x="201" y="-8" font-family="Helvetica,sans-Serif" font-size="10.00">&#45; echo_parameters()</text>
</g>
<!-- Node2 -->
<g id="node2" class="node"><title>Node2</title>
<g id="a_node2"><a xlink:href="classarma_1_1velocity_1_1Velocity__potential__solver.html" target="_top" xlink:title="Base class for all velocity potential field solvers. ">
<polygon fill="none" stroke="black" points="0,-273 0,-495 146,-495 146,-273 0,-273"/>
<text text-anchor="start" x="8" y="-483" font-family="Helvetica,sans-Serif" font-size="10.00">arma::velocity::Velocity</text>
<text text-anchor="middle" x="73" y="-472" font-family="Helvetica,sans-Serif" font-size="10.00">_potential_solver&lt; T &gt;</text>
<polyline fill="none" stroke="black" points="0,-465 146,-465 "/>
<text text-anchor="start" x="8" y="-453" font-family="Helvetica,sans-Serif" font-size="10.00"># _depth</text>
<polyline fill="none" stroke="black" points="0,-446 146,-446 "/>
<text text-anchor="start" x="8" y="-434" font-family="Helvetica,sans-Serif" font-size="10.00">+ Velocity_potential</text>
<text text-anchor="start" x="8" y="-423" font-family="Helvetica,sans-Serif" font-size="10.00">_solver()</text>
<text text-anchor="start" x="8" y="-412" font-family="Helvetica,sans-Serif" font-size="10.00">+ Velocity_potential</text>
<text text-anchor="start" x="8" y="-401" font-family="Helvetica,sans-Serif" font-size="10.00">_solver()</text>
<text text-anchor="start" x="8" y="-390" font-family="Helvetica,sans-Serif" font-size="10.00">+ Velocity_potential</text>
<text text-anchor="start" x="8" y="-379" font-family="Helvetica,sans-Serif" font-size="10.00">_solver()</text>
<text text-anchor="start" x="8" y="-368" font-family="Helvetica,sans-Serif" font-size="10.00">+ ~Velocity_potential</text>
<text text-anchor="start" x="8" y="-357" font-family="Helvetica,sans-Serif" font-size="10.00">_solver()</text>
<text text-anchor="start" x="8" y="-346" font-family="Helvetica,sans-Serif" font-size="10.00">+ operator()()</text>
<text text-anchor="start" x="8" y="-335" font-family="Helvetica,sans-Serif" font-size="10.00">+ domain()</text>
<text text-anchor="start" x="8" y="-324" font-family="Helvetica,sans-Serif" font-size="10.00"># precompute()</text>
<text text-anchor="start" x="8" y="-313" font-family="Helvetica,sans-Serif" font-size="10.00"># precompute()</text>
<text text-anchor="start" x="8" y="-302" font-family="Helvetica,sans-Serif" font-size="10.00"># compute_velocity_field_2d()</text>
<text text-anchor="start" x="8" y="-291" font-family="Helvetica,sans-Serif" font-size="10.00"># write()</text>
<text text-anchor="start" x="8" y="-280" font-family="Helvetica,sans-Serif" font-size="10.00"># read()</text>
</a>
</g>
</g>
<!-- Node2&#45;&gt;Node1 -->
<g id="edge1" class="edge"><title>Node2&#45;&gt;Node1</title>
<path fill="none" stroke="#404040" d="M146.25,-275.513C159.393,-256.228 173.069,-236.16 186.142,-216.976"/>
<polygon fill="none" stroke="#404040" points="186.16,-216.949 186.234,-209.739 192.918,-207.033 192.845,-214.244 186.16,-216.949"/>
<text text-anchor="middle" x="184" y="-245.5" font-family="Helvetica,sans-Serif" font-size="10.00"> &#45;_solver</text>
</g>
<!-- Node3 -->
<g id="node3" class="node"><title>Node3</title>
<g id="a_node3"><a xlink:href="structarma_1_1Domain.html" target="_top" xlink:title="{arma::Domain\&lt; T \&gt;\n|&#45; _lbound\l&#45; _ubound\l&#45; _npoints\l|+ Domain()\l+ Domain()\l+ Domain()\l+ Domain()\l+ Domain()\l+ Domain()\l+ Domain()\l+ ~Domain()\l+ operator=()\l+ num_points()\land 16 more...\l}">
<polygon fill="none" stroke="black" points="13,-554.5 13,-743.5 115,-743.5 115,-554.5 13,-554.5"/>
<text text-anchor="middle" x="64" y="-731.5" font-family="Helvetica,sans-Serif" font-size="10.00">arma::Domain&lt; T &gt;</text>
<polyline fill="none" stroke="black" points="13,-724.5 115,-724.5 "/>
<text text-anchor="start" x="21" y="-712.5" font-family="Helvetica,sans-Serif" font-size="10.00">&#45; _lbound</text>
<text text-anchor="start" x="21" y="-701.5" font-family="Helvetica,sans-Serif" font-size="10.00">&#45; _ubound</text>
<text text-anchor="start" x="21" y="-690.5" font-family="Helvetica,sans-Serif" font-size="10.00">&#45; _npoints</text>
<polyline fill="none" stroke="black" points="13,-683.5 115,-683.5 "/>
<text text-anchor="start" x="21" y="-671.5" font-family="Helvetica,sans-Serif" font-size="10.00">+ Domain()</text>
<text text-anchor="start" x="21" y="-660.5" font-family="Helvetica,sans-Serif" font-size="10.00">+ Domain()</text>
<text text-anchor="start" x="21" y="-649.5" font-family="Helvetica,sans-Serif" font-size="10.00">+ Domain()</text>
<text text-anchor="start" x="21" y="-638.5" font-family="Helvetica,sans-Serif" font-size="10.00">+ Domain()</text>
<text text-anchor="start" x="21" y="-627.5" font-family="Helvetica,sans-Serif" font-size="10.00">+ Domain()</text>
<text text-anchor="start" x="21" y="-616.5" font-family="Helvetica,sans-Serif" font-size="10.00">+ Domain()</text>
<text text-anchor="start" x="21" y="-605.5" font-family="Helvetica,sans-Serif" font-size="10.00">+ Domain()</text>
<text text-anchor="start" x="21" y="-594.5" font-family="Helvetica,sans-Serif" font-size="10.00">+ ~Domain()</text>
<text text-anchor="start" x="21" y="-583.5" font-family="Helvetica,sans-Serif" font-size="10.00">+ operator=()</text>
<text text-anchor="start" x="21" y="-572.5" font-family="Helvetica,sans-Serif" font-size="10.00">+ num_points()</text>
<text text-anchor="start" x="21" y="-561.5" font-family="Helvetica,sans-Serif" font-size="10.00">and 16 more...</text>
</a>
</g>
</g>
<!-- Node3&#45;&gt;Node2 -->
<g id="edge2" class="edge"><title>Node3&#45;&gt;Node2</title>
<path fill="none" stroke="#404040" d="M67.2111,-554.165C67.7249,-539.149 68.2633,-523.418 68.7961,-507.849"/>
<polygon fill="none" stroke="#404040" points="68.8111,-507.407 65.0187,-501.274 69.2216,-495.414 73.014,-501.547 68.8111,-507.407"/>
<text text-anchor="middle" x="92" y="-528" font-family="Helvetica,sans-Serif" font-size="10.00"> #_domain</text>
<text text-anchor="middle" x="92" y="-517" font-family="Helvetica,sans-Serif" font-size="10.00">#_wnmax</text>
</g>
<!-- Node4 -->
<g id="node4" class="node"><title>Node4</title>
<g id="a_node4"><a xlink:href="classarma_1_1generator_1_1Basic__model.html" target="_top" xlink:title="A base class for all generators. ">
<polygon fill="none" stroke="black" points="199,-278.5 199,-489.5 315,-489.5 315,-278.5 199,-278.5"/>
<text text-anchor="start" x="207" y="-477.5" font-family="Helvetica,sans-Serif" font-size="10.00">arma::generator::Basic</text>
<text text-anchor="middle" x="257" y="-466.5" font-family="Helvetica,sans-Serif" font-size="10.00">_model&lt; T &gt;</text>
<polyline fill="none" stroke="black" points="199,-459.5 315,-459.5 "/>
<text text-anchor="start" x="207" y="-447.5" font-family="Helvetica,sans-Serif" font-size="10.00"># _noseed</text>
<polyline fill="none" stroke="black" points="199,-440.5 315,-440.5 "/>
<text text-anchor="start" x="207" y="-428.5" font-family="Helvetica,sans-Serif" font-size="10.00">+ Basic_model()</text>
<text text-anchor="start" x="207" y="-417.5" font-family="Helvetica,sans-Serif" font-size="10.00">+ Basic_model()</text>
<text text-anchor="start" x="207" y="-406.5" font-family="Helvetica,sans-Serif" font-size="10.00">+ Basic_model()</text>
<text text-anchor="start" x="207" y="-395.5" font-family="Helvetica,sans-Serif" font-size="10.00">+ ~Basic_model()</text>
<text text-anchor="start" x="207" y="-384.5" font-family="Helvetica,sans-Serif" font-size="10.00">+ setgrid()</text>
<text text-anchor="start" x="207" y="-373.5" font-family="Helvetica,sans-Serif" font-size="10.00">+ grid()</text>
<text text-anchor="start" x="207" y="-362.5" font-family="Helvetica,sans-Serif" font-size="10.00">+ oflags()</text>
<text text-anchor="start" x="207" y="-351.5" font-family="Helvetica,sans-Serif" font-size="10.00">+ writes_in_parallel()</text>
<text text-anchor="start" x="207" y="-340.5" font-family="Helvetica,sans-Serif" font-size="10.00">+ validate()</text>
<text text-anchor="start" x="207" y="-329.5" font-family="Helvetica,sans-Serif" font-size="10.00">+ generate()</text>
<text text-anchor="start" x="207" y="-318.5" font-family="Helvetica,sans-Serif" font-size="10.00">+ verify()</text>
<text text-anchor="start" x="207" y="-307.5" font-family="Helvetica,sans-Serif" font-size="10.00"># write()</text>
<text text-anchor="start" x="207" y="-296.5" font-family="Helvetica,sans-Serif" font-size="10.00"># read()</text>
<text text-anchor="start" x="207" y="-285.5" font-family="Helvetica,sans-Serif" font-size="10.00"># newseed()</text>
</a>
</g>
</g>
<!-- Node4&#45;&gt;Node1 -->
<g id="edge3" class="edge"><title>Node4&#45;&gt;Node1</title>
<path fill="none" stroke="#404040" d="M257,-278.225C257,-264.096 257,-249.502 257,-235.106"/>
<polygon fill="none" stroke="#404040" points="257,-235.073 253,-229.073 257,-223.073 261,-229.073 257,-235.073"/>
<text text-anchor="middle" x="276" y="-245.5" font-family="Helvetica,sans-Serif" font-size="10.00"> &#45;_model</text>
</g>
<!-- Node5 -->
<g id="node5" class="node"><title>Node5</title>
<g id="a_node5"><a xlink:href="structarma_1_1Grid.html" target="_top" xlink:title="{arma::Grid\&lt; T, 3 \&gt;\n|&#45; _npoints\l&#45; _length\l|+ Grid()\l+ Grid()\l+ Grid()\l+ Grid()\l+ ~Grid()\l+ num_points()\l+ num_points()\l+ size()\l+ num_patches()\l+ num_patches()\land 12 more...\l}">
<polygon fill="none" stroke="black" points="133,-560 133,-738 231,-738 231,-560 133,-560"/>
<text text-anchor="middle" x="182" y="-726" font-family="Helvetica,sans-Serif" font-size="10.00">arma::Grid&lt; T, 3 &gt;</text>
<polyline fill="none" stroke="black" points="133,-719 231,-719 "/>
<text text-anchor="start" x="141" y="-707" font-family="Helvetica,sans-Serif" font-size="10.00">&#45; _npoints</text>
<text text-anchor="start" x="141" y="-696" font-family="Helvetica,sans-Serif" font-size="10.00">&#45; _length</text>
<polyline fill="none" stroke="black" points="133,-689 231,-689 "/>
<text text-anchor="start" x="141" y="-677" font-family="Helvetica,sans-Serif" font-size="10.00">+ Grid()</text>
<text text-anchor="start" x="141" y="-666" font-family="Helvetica,sans-Serif" font-size="10.00">+ Grid()</text>
<text text-anchor="start" x="141" y="-655" font-family="Helvetica,sans-Serif" font-size="10.00">+ Grid()</text>
<text text-anchor="start" x="141" y="-644" font-family="Helvetica,sans-Serif" font-size="10.00">+ Grid()</text>
<text text-anchor="start" x="141" y="-633" font-family="Helvetica,sans-Serif" font-size="10.00">+ ~Grid()</text>
<text text-anchor="start" x="141" y="-622" font-family="Helvetica,sans-Serif" font-size="10.00">+ num_points()</text>
<text text-anchor="start" x="141" y="-611" font-family="Helvetica,sans-Serif" font-size="10.00">+ num_points()</text>
<text text-anchor="start" x="141" y="-600" font-family="Helvetica,sans-Serif" font-size="10.00">+ size()</text>
<text text-anchor="start" x="141" y="-589" font-family="Helvetica,sans-Serif" font-size="10.00">+ num_patches()</text>
<text text-anchor="start" x="141" y="-578" font-family="Helvetica,sans-Serif" font-size="10.00">+ num_patches()</text>
<text text-anchor="start" x="141" y="-567" font-family="Helvetica,sans-Serif" font-size="10.00">and 12 more...</text>
</a>
</g>
</g>
<!-- Node5&#45;&gt;Node4 -->
<g id="edge4" class="edge"><title>Node5&#45;&gt;Node4</title>
<path fill="none" stroke="#404040" d="M207.183,-559.693C212.494,-541.069 218.176,-521.144 223.732,-501.66"/>
<polygon fill="none" stroke="#404040" points="223.787,-501.468 221.586,-494.601 227.078,-489.928 229.279,-496.795 223.787,-501.468"/>
<text text-anchor="middle" x="241.5" y="-522.5" font-family="Helvetica,sans-Serif" font-size="10.00"> #_outgrid</text>
</g>
<!-- Node6 -->
<g id="node6" class="node"><title>Node6</title>
<g id="a_node6"><a xlink:href="classarma_1_1Output__flags.html" target="_top" xlink:title="Flags that determine what and how is written to disk. ">
<polygon fill="none" stroke="black" points="249,-598.5 249,-699.5 349,-699.5 349,-598.5 249,-598.5"/>
<text text-anchor="middle" x="299" y="-687.5" font-family="Helvetica,sans-Serif" font-size="10.00">arma::Output_flags</text>
<polyline fill="none" stroke="black" points="249,-680.5 349,-680.5 "/>
<text text-anchor="start" x="257" y="-668.5" font-family="Helvetica,sans-Serif" font-size="10.00">&#45; _flags</text>
<polyline fill="none" stroke="black" points="249,-661.5 349,-661.5 "/>
<text text-anchor="start" x="257" y="-649.5" font-family="Helvetica,sans-Serif" font-size="10.00">+ setf()</text>
<text text-anchor="start" x="257" y="-638.5" font-family="Helvetica,sans-Serif" font-size="10.00">+ isset()</text>
<text text-anchor="start" x="257" y="-627.5" font-family="Helvetica,sans-Serif" font-size="10.00">+ operator==()</text>
<text text-anchor="start" x="257" y="-616.5" font-family="Helvetica,sans-Serif" font-size="10.00">+ operator!=()</text>
<text text-anchor="start" x="257" y="-605.5" font-family="Helvetica,sans-Serif" font-size="10.00">&#45; prune()</text>
</a>
</g>
</g>
<!-- Node6&#45;&gt;Node4 -->
<g id="edge5" class="edge"><title>Node6&#45;&gt;Node4</title>
<path fill="none" stroke="#404040" d="M291.051,-598.223C286.668,-570.781 281.03,-535.472 275.607,-501.515"/>
<polygon fill="none" stroke="#404040" points="275.593,-501.425 270.696,-496.13 273.7,-489.575 278.596,-494.869 275.593,-501.425"/>
<text text-anchor="middle" x="301" y="-522.5" font-family="Helvetica,sans-Serif" font-size="10.00"> #_oflags</text>
</g>
<!-- Node7 -->
<g id="node7" class="node"><title>Node7</title>
<g id="a_node7"><a xlink:href="classarma_1_1Discrete__function.html" target="_top" xlink:title="{arma::Discrete_function\l\&lt; T, 3 \&gt;\n|&#45; _grid\l|+ grid()\l+ setgrid()\l+ operator=()\l}">
<polygon fill="none" stroke="black" points="350.5,-339 350.5,-429 471.5,-429 471.5,-339 350.5,-339"/>
<text text-anchor="start" x="358.5" y="-417" font-family="Helvetica,sans-Serif" font-size="10.00">arma::Discrete_function</text>
<text text-anchor="middle" x="411" y="-406" font-family="Helvetica,sans-Serif" font-size="10.00">&lt; T, 3 &gt;</text>
<polyline fill="none" stroke="black" points="350.5,-399 471.5,-399 "/>
<text text-anchor="start" x="358.5" y="-387" font-family="Helvetica,sans-Serif" font-size="10.00">&#45; _grid</text>
<polyline fill="none" stroke="black" points="350.5,-380 471.5,-380 "/>
<text text-anchor="start" x="358.5" y="-368" font-family="Helvetica,sans-Serif" font-size="10.00">+ grid()</text>
<text text-anchor="start" x="358.5" y="-357" font-family="Helvetica,sans-Serif" font-size="10.00">+ setgrid()</text>
<text text-anchor="start" x="358.5" y="-346" font-family="Helvetica,sans-Serif" font-size="10.00">+ operator=()</text>
</a>
</g>
</g>
<!-- Node7&#45;&gt;Node1 -->
<g id="edge6" class="edge"><title>Node7&#45;&gt;Node1</title>
<path fill="none" stroke="#404040" d="M385.742,-338.717C369.363,-310 347.17,-271.089 325.824,-233.665"/>
<polygon fill="none" stroke="#404040" points="325.777,-233.582 319.329,-230.352 319.831,-223.159 326.278,-226.389 325.777,-233.582"/>
<text text-anchor="middle" x="349.5" y="-245.5" font-family="Helvetica,sans-Serif" font-size="10.00"> &#45;_zeta</text>
</g>
<!-- Node8 -->
<g id="node8" class="node"><title>Node8</title>
<polygon fill="none" stroke="#bfbfbf" points="367.5,-620.5 367.5,-677.5 472.5,-677.5 472.5,-620.5 367.5,-620.5"/>
<text text-anchor="middle" x="420" y="-665.5" font-family="Helvetica,sans-Serif" font-size="10.00">arma::Array&lt; T, N &gt;</text>
<polyline fill="none" stroke="#bfbfbf" points="367.5,-658.5 472.5,-658.5 "/>
<text text-anchor="middle" x="420" y="-646.5" font-family="Helvetica,sans-Serif" font-size="10.00"> </text>
<polyline fill="none" stroke="#bfbfbf" points="367.5,-639.5 472.5,-639.5 "/>
<text text-anchor="middle" x="420" y="-627.5" font-family="Helvetica,sans-Serif" font-size="10.00"> </text>
</g>
<!-- Node8&#45;&gt;Node7 -->
<g id="edge7" class="edge"><title>Node8&#45;&gt;Node7</title>
<path fill="none" stroke="midnightblue" d="M418.703,-610.107C417.065,-562.229 414.25,-479.974 412.515,-429.26"/>
<polygon fill="none" stroke="midnightblue" points="415.214,-610.477 419.054,-620.351 422.21,-610.238 415.214,-610.477"/>
</g>
</g>
</svg>
