<?xml version="1.0" encoding="UTF-8" standalone="no"?>
<!DOCTYPE svg PUBLIC "-//W3C//DTD SVG 1.1//EN"
 "http://www.w3.org/Graphics/SVG/1.1/DTD/svg11.dtd">
<!-- Generated by graphviz version 2.36.0 (20140111.2315)
 -->
<!-- Title: /home/travis/build/igankevich/arma/src/stats/summary.hh Pages: 1 -->
<svg width="385pt" height="230pt"
 viewBox="0.00 0.00 385.00 230.00" xmlns="http://www.w3.org/2000/svg" xmlns:xlink="http://www.w3.org/1999/xlink">
<g id="graph0" class="graph" transform="scale(1 1) rotate(0) translate(4 226)">
<title>/home/travis/build/igankevich/arma/src/stats/summary.hh</title>
<!-- Node1 -->
<g id="node1" class="node"><title>Node1</title>
<polygon fill="#bfbfbf" stroke="black" points="15.5,-180.5 15.5,-221.5 122.5,-221.5 122.5,-180.5 15.5,-180.5"/>
<text text-anchor="start" x="23.5" y="-209.5" font-family="Helvetica,sans-Serif" font-size="10.00">/home/travis/build</text>
<text text-anchor="start" x="23.5" y="-198.5" font-family="Helvetica,sans-Serif" font-size="10.00">/igankevich/arma/src</text>
<text text-anchor="middle" x="69" y="-187.5" font-family="Helvetica,sans-Serif" font-size="10.00">/stats/summary.hh</text>
</g>
<!-- Node2 -->
<g id="node2" class="node"><title>Node2</title>
<polygon fill="none" stroke="#bfbfbf" points="-0.5,-124.5 -0.5,-143.5 40.5,-143.5 40.5,-124.5 -0.5,-124.5"/>
<text text-anchor="middle" x="20" y="-131.5" font-family="Helvetica,sans-Serif" font-size="10.00">string</text>
</g>
<!-- Node1&#45;&gt;Node2 -->
<g id="edge1" class="edge"><title>Node1&#45;&gt;Node2</title>
<path fill="none" stroke="midnightblue" d="M54.2984,-180.498C47.4359,-171.395 39.3454,-160.662 32.7461,-151.908"/>
<polygon fill="midnightblue" stroke="midnightblue" points="35.3372,-149.531 26.5226,-143.652 29.7475,-153.745 35.3372,-149.531"/>
</g>
<!-- Node3 -->
<g id="node3" class="node"><title>Node3</title>
<polygon fill="none" stroke="#bfbfbf" points="73,-6.5 73,-25.5 141,-25.5 141,-6.5 73,-6.5"/>
<text text-anchor="middle" x="107" y="-13.5" font-family="Helvetica,sans-Serif" font-size="10.00">blitz/array.h</text>
</g>
<!-- Node1&#45;&gt;Node3 -->
<g id="edge2" class="edge"><title>Node1&#45;&gt;Node3</title>
<path fill="none" stroke="midnightblue" d="M73.0667,-180.416C80.4291,-144.96 95.8729,-70.5856 103.106,-35.7503"/>
<polygon fill="midnightblue" stroke="midnightblue" points="106.615,-36.0685 105.221,-25.5658 99.7612,-34.6453 106.615,-36.0685"/>
</g>
<!-- Node4 -->
<g id="node4" class="node"><title>Node4</title>
<g id="a_node4"><a xlink:href="qq__graph_8hh.html" target="_top" xlink:title="qq_graph.hh">
<polygon fill="none" stroke="black" points="112,-124.5 112,-143.5 182,-143.5 182,-124.5 112,-124.5"/>
<text text-anchor="middle" x="147" y="-131.5" font-family="Helvetica,sans-Serif" font-size="10.00">qq_graph.hh</text>
</a>
</g>
</g>
<!-- Node1&#45;&gt;Node4 -->
<g id="edge3" class="edge"><title>Node1&#45;&gt;Node4</title>
<path fill="none" stroke="midnightblue" d="M92.4026,-180.498C104.016,-170.82 117.84,-159.3 128.671,-150.274"/>
<polygon fill="midnightblue" stroke="midnightblue" points="131.175,-152.743 136.617,-143.652 126.694,-147.366 131.175,-152.743"/>
</g>
<!-- Node4&#45;&gt;Node3 -->
<g id="edge4" class="edge"><title>Node4&#45;&gt;Node3</title>
<path fill="none" stroke="midnightblue" d="M142.346,-124.23C137.741,-115.3 130.718,-100.962 126,-88 119.733,-70.7803 114.518,-50.5371 111.147,-36.0815"/>
<polygon fill="midnightblue" stroke="midnightblue" points="114.465,-34.8844 108.854,-25.8975 107.636,-36.4221 114.465,-34.8844"/>
</g>
<!-- Node5 -->
<g id="node5" class="node"><title>Node5</title>
<polygon fill="none" stroke="#bfbfbf" points="135,-68.5 135,-87.5 191,-87.5 191,-68.5 135,-68.5"/>
<text text-anchor="middle" x="163" y="-75.5" font-family="Helvetica,sans-Serif" font-size="10.00">algorithm</text>
</g>
<!-- Node4&#45;&gt;Node5 -->
<g id="edge5" class="edge"><title>Node4&#45;&gt;Node5</title>
<path fill="none" stroke="midnightblue" d="M149.642,-124.083C151.786,-116.849 154.879,-106.409 157.549,-97.3968"/>
<polygon fill="midnightblue" stroke="midnightblue" points="160.922,-98.3334 160.407,-87.7511 154.21,-96.3447 160.922,-98.3334"/>
</g>
<!-- Node6 -->
<g id="node6" class="node"><title>Node6</title>
<g id="a_node6"><a xlink:href="statistics_8hh.html" target="_top" xlink:title="statistics.hh">
<polygon fill="none" stroke="black" points="209,-68.5 209,-87.5 279,-87.5 279,-68.5 209,-68.5"/>
<text text-anchor="middle" x="244" y="-75.5" font-family="Helvetica,sans-Serif" font-size="10.00">statistics.hh</text>
</a>
</g>
</g>
<!-- Node4&#45;&gt;Node6 -->
<g id="edge6" class="edge"><title>Node4&#45;&gt;Node6</title>
<path fill="none" stroke="midnightblue" d="M162.585,-124.324C177.999,-115.743 201.812,-102.486 219.71,-92.5224"/>
<polygon fill="midnightblue" stroke="midnightblue" points="221.419,-95.5767 228.454,-87.6545 218.014,-89.4606 221.419,-95.5767"/>
</g>
<!-- Node6&#45;&gt;Node3 -->
<g id="edge7" class="edge"><title>Node6&#45;&gt;Node3</title>
<path fill="none" stroke="midnightblue" d="M224.371,-68.4035C201.176,-58.245 162.381,-41.2547 135.787,-29.6074"/>
<polygon fill="midnightblue" stroke="midnightblue" points="137.157,-26.3863 126.592,-25.5806 134.348,-32.7984 137.157,-26.3863"/>
</g>
<!-- Node7 -->
<g id="node7" class="node"><title>Node7</title>
<polygon fill="none" stroke="#bfbfbf" points="179,-1 179,-31 269,-31 269,-1 179,-1"/>
<text text-anchor="start" x="187" y="-19" font-family="Helvetica,sans-Serif" font-size="10.00">gsl/gsl_statistics</text>
<text text-anchor="middle" x="224" y="-8" font-family="Helvetica,sans-Serif" font-size="10.00">_float.h</text>
</g>
<!-- Node6&#45;&gt;Node7 -->
<g id="edge8" class="edge"><title>Node6&#45;&gt;Node7</title>
<path fill="none" stroke="midnightblue" d="M241.134,-68.4035C238.73,-61.1886 235.176,-50.5277 231.927,-40.7823"/>
<polygon fill="midnightblue" stroke="midnightblue" points="235.196,-39.5208 228.714,-31.1408 228.556,-41.7345 235.196,-39.5208"/>
</g>
<!-- Node8 -->
<g id="node8" class="node"><title>Node8</title>
<polygon fill="none" stroke="#bfbfbf" points="287,-1 287,-31 377,-31 377,-1 287,-1"/>
<text text-anchor="start" x="295" y="-19" font-family="Helvetica,sans-Serif" font-size="10.00">gsl/gsl_statistics</text>
<text text-anchor="middle" x="332" y="-8" font-family="Helvetica,sans-Serif" font-size="10.00">_double.h</text>
</g>
<!-- Node6&#45;&gt;Node8 -->
<g id="edge9" class="edge"><title>Node6&#45;&gt;Node8</title>
<path fill="none" stroke="midnightblue" d="M256.608,-68.4035C268.638,-60.2014 287.2,-47.5454 302.895,-36.8441"/>
<polygon fill="midnightblue" stroke="midnightblue" points="304.97,-39.666 311.26,-31.1408 301.026,-33.8824 304.97,-39.666"/>
</g>
</g>
</svg>
