<?xml version="1.0" encoding="UTF-8" standalone="no"?>
<!DOCTYPE svg PUBLIC "-//W3C//DTD SVG 1.1//EN"
 "http://www.w3.org/Graphics/SVG/1.1/DTD/svg11.dtd">
<!-- Generated by graphviz version 2.40.1 (20161225.0304)
 -->
<!-- Title: src/stats/summary.hh Pages: 1 -->
<svg width="448pt" height="207pt"
 viewBox="0.00 0.00 448.00 207.00" xmlns="http://www.w3.org/2000/svg" xmlns:xlink="http://www.w3.org/1999/xlink">
<g id="graph0" class="graph" transform="scale(1 1) rotate(0) translate(4 203)">
<title>src/stats/summary.hh</title>
<!-- Node0 -->
<g id="node1" class="node">
<title>Node0</title>
<polygon fill="#bfbfbf" stroke="#000000" points="51.5,-179.5 51.5,-198.5 162.5,-198.5 162.5,-179.5 51.5,-179.5"/>
<text text-anchor="middle" x="107" y="-186.5" font-family="Helvetica,sans-Serif" font-size="10.00" fill="#000000">src/stats/summary.hh</text>
</g>
<!-- Node1 -->
<g id="node2" class="node">
<title>Node1</title>
<polygon fill="none" stroke="#bfbfbf" points="0,-123.5 0,-142.5 44,-142.5 44,-123.5 0,-123.5"/>
<text text-anchor="middle" x="22" y="-130.5" font-family="Helvetica,sans-Serif" font-size="10.00" fill="#000000">cmath</text>
</g>
<!-- Node0&#45;&gt;Node1 -->
<g id="edge1" class="edge">
<title>Node0&#45;&gt;Node1</title>
<path fill="none" stroke="#191970" d="M92.1941,-179.2455C79.2744,-170.7337 60.3069,-158.2375 45.3448,-148.3801"/>
<polygon fill="#191970" stroke="#191970" points="46.9124,-145.2216 36.6362,-142.6427 43.0613,-151.067 46.9124,-145.2216"/>
</g>
<!-- Node2 -->
<g id="node3" class="node">
<title>Node2</title>
<polygon fill="none" stroke="#bfbfbf" points="62.5,-123.5 62.5,-142.5 103.5,-142.5 103.5,-123.5 62.5,-123.5"/>
<text text-anchor="middle" x="83" y="-130.5" font-family="Helvetica,sans-Serif" font-size="10.00" fill="#000000">string</text>
</g>
<!-- Node0&#45;&gt;Node2 -->
<g id="edge2" class="edge">
<title>Node0&#45;&gt;Node2</title>
<path fill="none" stroke="#191970" d="M102.8195,-179.2455C99.619,-171.7776 95.104,-161.2427 91.1916,-152.1137"/>
<polygon fill="#191970" stroke="#191970" points="94.2888,-150.4554 87.1326,-142.6427 87.8548,-153.2129 94.2888,-150.4554"/>
</g>
<!-- Node3 -->
<g id="node4" class="node">
<title>Node3</title>
<polygon fill="none" stroke="#bfbfbf" points="136.5,-6 136.5,-25 203.5,-25 203.5,-6 136.5,-6"/>
<text text-anchor="middle" x="170" y="-13" font-family="Helvetica,sans-Serif" font-size="10.00" fill="#000000">blitz/array.h</text>
</g>
<!-- Node0&#45;&gt;Node3 -->
<g id="edge3" class="edge">
<title>Node0&#45;&gt;Node3</title>
<path fill="none" stroke="#191970" d="M110.4769,-179.4248C120.4785,-151.8807 149.4668,-72.0477 162.9498,-34.916"/>
<polygon fill="#191970" stroke="#191970" points="166.3329,-35.8536 166.4562,-25.2595 159.7532,-33.4644 166.3329,-35.8536"/>
</g>
<!-- Node4 -->
<g id="node5" class="node">
<title>Node4</title>
<g id="a_node5"><a xlink:href="qq__graph_8hh.html" target="_top" xlink:title="qq_graph.hh">
<polygon fill="none" stroke="#000000" points="175,-123.5 175,-142.5 245,-142.5 245,-123.5 175,-123.5"/>
<text text-anchor="middle" x="210" y="-130.5" font-family="Helvetica,sans-Serif" font-size="10.00" fill="#000000">qq_graph.hh</text>
</a>
</g>
</g>
<!-- Node0&#45;&gt;Node4 -->
<g id="edge4" class="edge">
<title>Node0&#45;&gt;Node4</title>
<path fill="none" stroke="#191970" d="M124.9412,-179.2455C141.04,-170.4928 164.8879,-157.527 183.2391,-147.5496"/>
<polygon fill="#191970" stroke="#191970" points="185.1507,-150.4942 192.2644,-142.6427 181.8071,-144.3444 185.1507,-150.4942"/>
</g>
<!-- Node4&#45;&gt;Node3 -->
<g id="edge5" class="edge">
<title>Node4&#45;&gt;Node3</title>
<path fill="none" stroke="#191970" d="M205.0047,-123.3284C200.4065,-114.1541 193.6187,-99.8928 189,-87 182.8558,-69.8489 177.6873,-49.7533 174.2995,-35.2415"/>
<polygon fill="#191970" stroke="#191970" points="177.6878,-34.3563 172.0693,-25.374 170.86,-35.8996 177.6878,-34.3563"/>
</g>
<!-- Node5 -->
<g id="node6" class="node">
<title>Node5</title>
<polygon fill="none" stroke="#bfbfbf" points="198,-67.5 198,-86.5 254,-86.5 254,-67.5 198,-67.5"/>
<text text-anchor="middle" x="226" y="-74.5" font-family="Helvetica,sans-Serif" font-size="10.00" fill="#000000">algorithm</text>
</g>
<!-- Node4&#45;&gt;Node5 -->
<g id="edge6" class="edge">
<title>Node4&#45;&gt;Node5</title>
<path fill="none" stroke="#191970" d="M212.787,-123.2455C214.8977,-115.8579 217.866,-105.4689 220.4547,-96.4087"/>
<polygon fill="#191970" stroke="#191970" points="223.863,-97.2195 223.245,-86.6427 217.1323,-95.2964 223.863,-97.2195"/>
</g>
<!-- Node6 -->
<g id="node7" class="node">
<title>Node6</title>
<g id="a_node7"><a xlink:href="statistics_8hh.html" target="_top" xlink:title="statistics.hh">
<polygon fill="none" stroke="#000000" points="272,-67.5 272,-86.5 342,-86.5 342,-67.5 272,-67.5"/>
<text text-anchor="middle" x="307" y="-74.5" font-family="Helvetica,sans-Serif" font-size="10.00" fill="#000000">statistics.hh</text>
</a>
</g>
</g>
<!-- Node4&#45;&gt;Node6 -->
<g id="edge7" class="edge">
<title>Node4&#45;&gt;Node6</title>
<path fill="none" stroke="#191970" d="M226.8961,-123.2455C241.918,-114.5731 264.1043,-101.7645 281.321,-91.825"/>
<polygon fill="#191970" stroke="#191970" points="283.3871,-94.6737 290.2975,-86.6427 279.8872,-88.6114 283.3871,-94.6737"/>
</g>
<!-- Node6&#45;&gt;Node3 -->
<g id="edge8" class="edge">
<title>Node6&#45;&gt;Node3</title>
<path fill="none" stroke="#191970" d="M285.5938,-67.3906C262.7717,-57.1457 226.4321,-40.8326 200.5943,-29.2339"/>
<polygon fill="#191970" stroke="#191970" points="201.8123,-25.9443 191.2559,-25.0419 198.9455,-32.3303 201.8123,-25.9443"/>
</g>
<!-- Node7 -->
<g id="node8" class="node">
<title>Node7</title>
<polygon fill="none" stroke="#bfbfbf" points="242,-.5 242,-30.5 332,-30.5 332,-.5 242,-.5"/>
<text text-anchor="start" x="250" y="-18.5" font-family="Helvetica,sans-Serif" font-size="10.00" fill="#000000">gsl/gsl_statistics</text>
<text text-anchor="middle" x="287" y="-7.5" font-family="Helvetica,sans-Serif" font-size="10.00" fill="#000000">_float.h</text>
</g>
<!-- Node6&#45;&gt;Node7 -->
<g id="edge9" class="edge">
<title>Node6&#45;&gt;Node7</title>
<path fill="none" stroke="#191970" d="M303.875,-67.3906C301.4941,-60.0692 298.1053,-49.6488 294.9885,-40.0647"/>
<polygon fill="#191970" stroke="#191970" points="298.3137,-38.9719 291.8926,-30.5446 291.6568,-41.1368 298.3137,-38.9719"/>
</g>
<!-- Node8 -->
<g id="node9" class="node">
<title>Node8</title>
<polygon fill="none" stroke="#bfbfbf" points="350,-.5 350,-30.5 440,-30.5 440,-.5 350,-.5"/>
<text text-anchor="start" x="358" y="-18.5" font-family="Helvetica,sans-Serif" font-size="10.00" fill="#000000">gsl/gsl_statistics</text>
<text text-anchor="middle" x="395" y="-7.5" font-family="Helvetica,sans-Serif" font-size="10.00" fill="#000000">_double.h</text>
</g>
<!-- Node6&#45;&gt;Node8 -->
<g id="edge10" class="edge">
<title>Node6&#45;&gt;Node8</title>
<path fill="none" stroke="#191970" d="M320.75,-67.3906C332.5495,-59.1444 349.9742,-46.9669 364.9788,-36.4807"/>
<polygon fill="#191970" stroke="#191970" points="367.281,-39.1419 373.4728,-30.5446 363.2711,-33.4042 367.281,-39.1419"/>
</g>
</g>
</svg>
