<?xml version="1.0" encoding="UTF-8" standalone="no"?>
<!DOCTYPE svg PUBLIC "-//W3C//DTD SVG 1.1//EN"
 "http://www.w3.org/Graphics/SVG/1.1/DTD/svg11.dtd">
<!-- Generated by graphviz version 2.40.1 (20161225.0304)
 -->
<!-- Title: src/nonlinear/transforms.hh Pages: 1 -->
<svg width="449pt" height="196pt"
 viewBox="0.00 0.00 449.00 196.00" xmlns="http://www.w3.org/2000/svg" xmlns:xlink="http://www.w3.org/1999/xlink">
<g id="graph0" class="graph" transform="scale(1 1) rotate(0) translate(4 192)">
<title>src/nonlinear/transforms.hh</title>
<!-- Node0 -->
<g id="node1" class="node">
<title>Node0</title>
<polygon fill="#bfbfbf" stroke="#000000" points="26.5,-168.5 26.5,-187.5 161.5,-187.5 161.5,-168.5 26.5,-168.5"/>
<text text-anchor="middle" x="94" y="-175.5" font-family="Helvetica,sans-Serif" font-size="10.00" fill="#000000">src/nonlinear/transforms.hh</text>
</g>
<!-- Node1 -->
<g id="node2" class="node">
<title>Node1</title>
<polygon fill="none" stroke="#bfbfbf" points="0,-112.5 0,-131.5 40,-131.5 40,-112.5 0,-112.5"/>
<text text-anchor="middle" x="20" y="-119.5" font-family="Helvetica,sans-Serif" font-size="10.00" fill="#000000">utility</text>
</g>
<!-- Node0&#45;&gt;Node1 -->
<g id="edge1" class="edge">
<title>Node0&#45;&gt;Node1</title>
<path fill="none" stroke="#191970" d="M81.1102,-168.2455C70.0746,-159.8943 53.9708,-147.7076 41.0647,-137.9408"/>
<polygon fill="#191970" stroke="#191970" points="42.8283,-134.8862 32.7421,-131.6427 38.6041,-140.4681 42.8283,-134.8862"/>
</g>
<!-- Node2 -->
<g id="node3" class="node">
<title>Node2</title>
<g id="a_node3"><a xlink:href="equations_8hh.html" target="_top" xlink:title="equations.hh">
<polygon fill="none" stroke="#000000" points="58,-112.5 58,-131.5 130,-131.5 130,-112.5 58,-112.5"/>
<text text-anchor="middle" x="94" y="-119.5" font-family="Helvetica,sans-Serif" font-size="10.00" fill="#000000">equations.hh</text>
</a>
</g>
</g>
<!-- Node0&#45;&gt;Node2 -->
<g id="edge2" class="edge">
<title>Node0&#45;&gt;Node2</title>
<path fill="none" stroke="#191970" d="M94,-168.2455C94,-160.9382 94,-150.6944 94,-141.7046"/>
<polygon fill="#191970" stroke="#191970" points="97.5001,-141.6426 94,-131.6427 90.5001,-141.6427 97.5001,-141.6426"/>
</g>
<!-- Node4 -->
<g id="node5" class="node">
<title>Node4</title>
<g id="a_node5"><a xlink:href="linalg_8hh.html" target="_top" xlink:title="linalg.hh">
<polygon fill="none" stroke="#000000" points="148.5,-112.5 148.5,-131.5 201.5,-131.5 201.5,-112.5 148.5,-112.5"/>
<text text-anchor="middle" x="175" y="-119.5" font-family="Helvetica,sans-Serif" font-size="10.00" fill="#000000">linalg.hh</text>
</a>
</g>
</g>
<!-- Node0&#45;&gt;Node4 -->
<g id="edge4" class="edge">
<title>Node0&#45;&gt;Node4</title>
<path fill="none" stroke="#191970" d="M108.1091,-168.2455C120.4209,-159.7337 138.4958,-147.2375 152.7538,-137.3801"/>
<polygon fill="#191970" stroke="#191970" points="154.8174,-140.2085 161.0526,-131.6427 150.8366,-134.4506 154.8174,-140.2085"/>
</g>
<!-- Node3 -->
<g id="node4" class="node">
<title>Node3</title>
<polygon fill="none" stroke="#bfbfbf" points="60.5,-56.5 60.5,-75.5 127.5,-75.5 127.5,-56.5 60.5,-56.5"/>
<text text-anchor="middle" x="94" y="-63.5" font-family="Helvetica,sans-Serif" font-size="10.00" fill="#000000">blitz/array.h</text>
</g>
<!-- Node2&#45;&gt;Node3 -->
<g id="edge3" class="edge">
<title>Node2&#45;&gt;Node3</title>
<path fill="none" stroke="#191970" d="M94,-112.2455C94,-104.9382 94,-94.6944 94,-85.7046"/>
<polygon fill="#191970" stroke="#191970" points="97.5001,-85.6426 94,-75.6427 90.5001,-85.6427 97.5001,-85.6426"/>
</g>
<!-- Node4&#45;&gt;Node3 -->
<g id="edge6" class="edge">
<title>Node4&#45;&gt;Node3</title>
<path fill="none" stroke="#191970" d="M160.8909,-112.2455C148.5791,-103.7337 130.5042,-91.2375 116.2462,-81.3801"/>
<polygon fill="#191970" stroke="#191970" points="118.1634,-78.4506 107.9474,-75.6427 114.1826,-84.2085 118.1634,-78.4506"/>
</g>
<!-- Node5 -->
<g id="node6" class="node">
<title>Node5</title>
<polygon fill="none" stroke="#bfbfbf" points="145.5,-56.5 145.5,-75.5 194.5,-75.5 194.5,-56.5 145.5,-56.5"/>
<text text-anchor="middle" x="170" y="-63.5" font-family="Helvetica,sans-Serif" font-size="10.00" fill="#000000">cassert</text>
</g>
<!-- Node4&#45;&gt;Node5 -->
<g id="edge5" class="edge">
<title>Node4&#45;&gt;Node5</title>
<path fill="none" stroke="#191970" d="M174.1291,-112.2455C173.4766,-104.9382 172.562,-94.6944 171.7593,-85.7046"/>
<polygon fill="#191970" stroke="#191970" points="175.2365,-85.2918 170.861,-75.6427 168.2642,-85.9143 175.2365,-85.2918"/>
</g>
<!-- Node6 -->
<g id="node7" class="node">
<title>Node6</title>
<polygon fill="none" stroke="#bfbfbf" points="213,-56.5 213,-75.5 269,-75.5 269,-56.5 213,-56.5"/>
<text text-anchor="middle" x="241" y="-63.5" font-family="Helvetica,sans-Serif" font-size="10.00" fill="#000000">config.hh</text>
</g>
<!-- Node4&#45;&gt;Node6 -->
<g id="edge7" class="edge">
<title>Node4&#45;&gt;Node6</title>
<path fill="none" stroke="#191970" d="M186.4963,-112.2455C196.2442,-103.9746 210.4259,-91.9416 221.8798,-82.2232"/>
<polygon fill="#191970" stroke="#191970" points="224.2747,-84.7813 229.6354,-75.6427 219.7459,-79.4437 224.2747,-84.7813"/>
</g>
<!-- Node7 -->
<g id="node8" class="node">
<title>Node7</title>
<g id="a_node8"><a xlink:href="closed__interval_8hh.html" target="_top" xlink:title="apmath/closed_interval.hh">
<polygon fill="none" stroke="#000000" points="287.5,-56.5 287.5,-75.5 418.5,-75.5 418.5,-56.5 287.5,-56.5"/>
<text text-anchor="middle" x="353" y="-63.5" font-family="Helvetica,sans-Serif" font-size="10.00" fill="#000000">apmath/closed_interval.hh</text>
</a>
</g>
</g>
<!-- Node4&#45;&gt;Node7 -->
<g id="edge8" class="edge">
<title>Node4&#45;&gt;Node7</title>
<path fill="none" stroke="#191970" d="M201.6484,-113.6162C231.1309,-104.3408 278.9585,-89.294 312.9537,-78.5989"/>
<polygon fill="#191970" stroke="#191970" points="314.0969,-81.9084 322.5856,-75.5686 311.9961,-75.231 314.0969,-81.9084"/>
</g>
<!-- Node8 -->
<g id="node9" class="node">
<title>Node8</title>
<polygon fill="none" stroke="#bfbfbf" points="259.5,-.5 259.5,-19.5 308.5,-19.5 308.5,-.5 259.5,-.5"/>
<text text-anchor="middle" x="284" y="-7.5" font-family="Helvetica,sans-Serif" font-size="10.00" fill="#000000">istream</text>
</g>
<!-- Node7&#45;&gt;Node8 -->
<g id="edge9" class="edge">
<title>Node7&#45;&gt;Node8</title>
<path fill="none" stroke="#191970" d="M340.9811,-56.2455C330.7902,-47.9746 315.9638,-35.9416 303.9893,-26.2232"/>
<polygon fill="#191970" stroke="#191970" points="305.8514,-23.2268 295.8812,-19.6427 301.4402,-28.662 305.8514,-23.2268"/>
</g>
<!-- Node9 -->
<g id="node10" class="node">
<title>Node9</title>
<polygon fill="none" stroke="#bfbfbf" points="327,-.5 327,-19.5 379,-19.5 379,-.5 327,-.5"/>
<text text-anchor="middle" x="353" y="-7.5" font-family="Helvetica,sans-Serif" font-size="10.00" fill="#000000">ostream</text>
</g>
<!-- Node7&#45;&gt;Node9 -->
<g id="edge10" class="edge">
<title>Node7&#45;&gt;Node9</title>
<path fill="none" stroke="#191970" d="M353,-56.2455C353,-48.9382 353,-38.6944 353,-29.7046"/>
<polygon fill="#191970" stroke="#191970" points="356.5001,-29.6426 353,-19.6427 349.5001,-29.6427 356.5001,-29.6426"/>
</g>
<!-- Node10 -->
<g id="node11" class="node">
<title>Node10</title>
<polygon fill="none" stroke="#bfbfbf" points="397,-.5 397,-19.5 441,-19.5 441,-.5 397,-.5"/>
<text text-anchor="middle" x="419" y="-7.5" font-family="Helvetica,sans-Serif" font-size="10.00" fill="#000000">cmath</text>
</g>
<!-- Node7&#45;&gt;Node10 -->
<g id="edge11" class="edge">
<title>Node7&#45;&gt;Node10</title>
<path fill="none" stroke="#191970" d="M364.4963,-56.2455C374.2442,-47.9746 388.4259,-35.9416 399.8798,-26.2232"/>
<polygon fill="#191970" stroke="#191970" points="402.2747,-28.7813 407.6354,-19.6427 397.7459,-23.4437 402.2747,-28.7813"/>
</g>
</g>
</svg>
