<?xml version="1.0" encoding="UTF-8" standalone="no"?>
<!DOCTYPE svg PUBLIC "-//W3C//DTD SVG 1.1//EN"
 "http://www.w3.org/Graphics/SVG/1.1/DTD/svg11.dtd">
<!-- Generated by graphviz version 2.40.1 (20161225.0304)
 -->
<!-- Title: src/util.hh Pages: 1 -->
<svg width="1565pt" height="207pt"
 viewBox="0.00 0.00 1565.00 207.00" xmlns="http://www.w3.org/2000/svg" xmlns:xlink="http://www.w3.org/1999/xlink">
<g id="graph0" class="graph" transform="scale(1 1) rotate(0) translate(4 203)">
<title>src/util.hh</title>
<!-- Node5 -->
<g id="node1" class="node">
<title>Node5</title>
<polygon fill="#bfbfbf" stroke="#000000" points="804,-179.5 804,-198.5 863,-198.5 863,-179.5 804,-179.5"/>
<text text-anchor="middle" x="833.5" y="-186.5" font-family="Helvetica,sans-Serif" font-size="10.00" fill="#000000">src/util.hh</text>
</g>
<!-- Node6 -->
<g id="node2" class="node">
<title>Node6</title>
<g id="a_node2"><a xlink:href="fourier__opencl_8cc.html" target="_top" xlink:title="src/apmath/fourier\l_opencl.cc">
<polygon fill="none" stroke="#000000" points="68,-112.5 68,-142.5 163,-142.5 163,-112.5 68,-112.5"/>
<text text-anchor="start" x="76" y="-130.5" font-family="Helvetica,sans-Serif" font-size="10.00" fill="#000000">src/apmath/fourier</text>
<text text-anchor="middle" x="115.5" y="-119.5" font-family="Helvetica,sans-Serif" font-size="10.00" fill="#000000">_opencl.cc</text>
</a>
</g>
</g>
<!-- Node5&#45;&gt;Node6 -->
<g id="edge1" class="edge">
<title>Node5&#45;&gt;Node6</title>
<path fill="none" stroke="#191970" d="M793.69,-187.2554C669.9587,-181.6713 293.1826,-163.4049 172.5,-143 169.4665,-142.4871 166.3612,-141.8816 163.2426,-141.2121"/>
<polygon fill="#191970" stroke="#191970" points="793.7044,-190.7594 803.8512,-187.711 794.0181,-183.7665 793.7044,-190.7594"/>
</g>
<!-- Node7 -->
<g id="node3" class="node">
<title>Node7</title>
<g id="a_node3"><a xlink:href="arma__driver_8hh.html" target="_top" xlink:title="src/arma_driver.hh">
<polygon fill="none" stroke="#000000" points="181,-118 181,-137 278,-137 278,-118 181,-118"/>
<text text-anchor="middle" x="229.5" y="-125" font-family="Helvetica,sans-Serif" font-size="10.00" fill="#000000">src/arma_driver.hh</text>
</a>
</g>
</g>
<!-- Node5&#45;&gt;Node7 -->
<g id="edge2" class="edge">
<title>Node5&#45;&gt;Node7</title>
<path fill="none" stroke="#191970" d="M793.8883,-188.0628C703.4778,-185.402 475.2268,-175.7263 287.5,-143 278.8749,-141.4964 269.6654,-139.3107 261.1836,-137.0524"/>
<polygon fill="#191970" stroke="#191970" points="793.8734,-191.5637 803.9681,-188.3468 794.0707,-184.5664 793.8734,-191.5637"/>
</g>
<!-- Node14 -->
<g id="node10" class="node">
<title>Node14</title>
<g id="a_node10"><a xlink:href="ar__model_8cc.html" target="_top" xlink:title="src/generator/ar_model.cc">
<polygon fill="none" stroke="#000000" points="296.5,-118 296.5,-137 426.5,-137 426.5,-118 296.5,-118"/>
<text text-anchor="middle" x="361.5" y="-125" font-family="Helvetica,sans-Serif" font-size="10.00" fill="#000000">src/generator/ar_model.cc</text>
</a>
</g>
</g>
<!-- Node5&#45;&gt;Node14 -->
<g id="edge9" class="edge">
<title>Node5&#45;&gt;Node14</title>
<path fill="none" stroke="#191970" d="M793.5174,-185.5982C721.6046,-179.2089 565.7888,-164.129 435.5,-143 425.1346,-141.319 414.021,-139.175 403.6391,-137.0215"/>
<polygon fill="#191970" stroke="#191970" points="793.6458,-189.123 803.9142,-186.5131 794.2595,-182.1499 793.6458,-189.123"/>
</g>
<!-- Node15 -->
<g id="node11" class="node">
<title>Node15</title>
<g id="a_node11"><a xlink:href="ar__model__bscheduler_8cc.html" target="_top" xlink:title="src/generator/ar_model\l_bscheduler.cc">
<polygon fill="none" stroke="#000000" points="444.5,-112.5 444.5,-142.5 560.5,-142.5 560.5,-112.5 444.5,-112.5"/>
<text text-anchor="start" x="452.5" y="-130.5" font-family="Helvetica,sans-Serif" font-size="10.00" fill="#000000">src/generator/ar_model</text>
<text text-anchor="middle" x="502.5" y="-119.5" font-family="Helvetica,sans-Serif" font-size="10.00" fill="#000000">_bscheduler.cc</text>
</a>
</g>
</g>
<!-- Node5&#45;&gt;Node15 -->
<g id="edge10" class="edge">
<title>Node5&#45;&gt;Node15</title>
<path fill="none" stroke="#191970" d="M793.606,-182.748C741.7983,-174.4689 648.6312,-159.0347 569.5,-143 566.5747,-142.4072 563.5817,-141.7824 560.5623,-141.1375"/>
<polygon fill="#191970" stroke="#191970" points="793.2808,-186.2402 803.7066,-184.3551 794.3808,-179.3272 793.2808,-186.2402"/>
</g>
<!-- Node16 -->
<g id="node12" class="node">
<title>Node16</title>
<g id="a_node12"><a xlink:href="ar__model__opencl_8cc.html" target="_top" xlink:title="src/generator/ar_model\l_opencl.cc">
<polygon fill="none" stroke="#000000" points="578.5,-112.5 578.5,-142.5 694.5,-142.5 694.5,-112.5 578.5,-112.5"/>
<text text-anchor="start" x="586.5" y="-130.5" font-family="Helvetica,sans-Serif" font-size="10.00" fill="#000000">src/generator/ar_model</text>
<text text-anchor="middle" x="636.5" y="-119.5" font-family="Helvetica,sans-Serif" font-size="10.00" fill="#000000">_opencl.cc</text>
</a>
</g>
</g>
<!-- Node5&#45;&gt;Node16 -->
<g id="edge11" class="edge">
<title>Node5&#45;&gt;Node16</title>
<path fill="none" stroke="#191970" d="M793.8371,-176.6179C762.3699,-166.7944 718.257,-153.0231 684.7448,-142.5612"/>
<polygon fill="#191970" stroke="#191970" points="792.9913,-180.0204 803.5799,-179.6595 795.0773,-173.3384 792.9913,-180.0204"/>
</g>
<!-- Node17 -->
<g id="node13" class="node">
<title>Node17</title>
<g id="a_node13"><a xlink:href="ar__model__parallel_8cc.html" target="_top" xlink:title="src/generator/ar_model\l_parallel.cc">
<polygon fill="none" stroke="#000000" points="712.5,-112.5 712.5,-142.5 828.5,-142.5 828.5,-112.5 712.5,-112.5"/>
<text text-anchor="start" x="720.5" y="-130.5" font-family="Helvetica,sans-Serif" font-size="10.00" fill="#000000">src/generator/ar_model</text>
<text text-anchor="middle" x="770.5" y="-119.5" font-family="Helvetica,sans-Serif" font-size="10.00" fill="#000000">_parallel.cc</text>
</a>
</g>
</g>
<!-- Node5&#45;&gt;Node17 -->
<g id="edge12" class="edge">
<title>Node5&#45;&gt;Node17</title>
<path fill="none" stroke="#191970" d="M816.3006,-172.2101C806.8047,-162.9403 795.1077,-151.5218 785.9115,-142.5446"/>
<polygon fill="#191970" stroke="#191970" points="814.0556,-174.9097 823.6563,-179.3906 818.9454,-169.9007 814.0556,-174.9097"/>
</g>
<!-- Node18 -->
<g id="node14" class="node">
<title>Node18</title>
<g id="a_node14"><a xlink:href="basic__arma__model_8cc.html" target="_top" xlink:title="src/generator/basic\l_arma_model.cc">
<polygon fill="none" stroke="#000000" points="846.5,-112.5 846.5,-142.5 946.5,-142.5 946.5,-112.5 846.5,-112.5"/>
<text text-anchor="start" x="854.5" y="-130.5" font-family="Helvetica,sans-Serif" font-size="10.00" fill="#000000">src/generator/basic</text>
<text text-anchor="middle" x="896.5" y="-119.5" font-family="Helvetica,sans-Serif" font-size="10.00" fill="#000000">_arma_model.cc</text>
</a>
</g>
</g>
<!-- Node5&#45;&gt;Node18 -->
<g id="edge13" class="edge">
<title>Node5&#45;&gt;Node18</title>
<path fill="none" stroke="#191970" d="M850.6994,-172.2101C860.1953,-162.9403 871.8923,-151.5218 881.0885,-142.5446"/>
<polygon fill="#191970" stroke="#191970" points="848.0546,-169.9007 843.3438,-179.3906 852.9444,-174.9097 848.0546,-169.9007"/>
</g>
<!-- Node19 -->
<g id="node15" class="node">
<title>Node19</title>
<g id="a_node15"><a xlink:href="nit__transform_8cc.html" target="_top" xlink:title="src/nonlinear/nit_transform.cc">
<polygon fill="none" stroke="#000000" points="964.5,-118 964.5,-137 1110.5,-137 1110.5,-118 964.5,-118"/>
<text text-anchor="middle" x="1037.5" y="-125" font-family="Helvetica,sans-Serif" font-size="10.00" fill="#000000">src/nonlinear/nit_transform.cc</text>
</a>
</g>
</g>
<!-- Node5&#45;&gt;Node19 -->
<g id="edge14" class="edge">
<title>Node5&#45;&gt;Node19</title>
<path fill="none" stroke="#191970" d="M873.0459,-177.0781C911.7655,-165.4052 970.0057,-147.8475 1005.7859,-137.0609"/>
<polygon fill="#191970" stroke="#191970" points="871.7275,-173.8199 863.1634,-180.0574 873.748,-180.5219 871.7275,-173.8199"/>
</g>
<!-- Node20 -->
<g id="node16" class="node">
<title>Node20</title>
<g id="a_node16"><a xlink:href="opencl_8cc.html" target="_top" xlink:title="src/opencl/opencl.cc">
<polygon fill="none" stroke="#000000" points="1129,-118 1129,-137 1236,-137 1236,-118 1129,-118"/>
<text text-anchor="middle" x="1182.5" y="-125" font-family="Helvetica,sans-Serif" font-size="10.00" fill="#000000">src/opencl/opencl.cc</text>
</a>
</g>
</g>
<!-- Node5&#45;&gt;Node20 -->
<g id="edge15" class="edge">
<title>Node5&#45;&gt;Node20</title>
<path fill="none" stroke="#191970" d="M873.3942,-183.6344C928.8385,-175.9388 1032.2229,-160.7244 1119.5,-143 1128.1099,-141.2515 1137.3217,-139.1295 1145.9694,-137.024"/>
<polygon fill="#191970" stroke="#191970" points="872.7171,-180.1946 863.2887,-185.0273 873.673,-187.129 872.7171,-180.1946"/>
</g>
<!-- Node21 -->
<g id="node17" class="node">
<title>Node21</title>
<g id="a_node17"><a xlink:href="profile_8cc.html" target="_top" xlink:title="src/profile.cc">
<polygon fill="none" stroke="#000000" points="1254,-118 1254,-137 1327,-137 1327,-118 1254,-118"/>
<text text-anchor="middle" x="1290.5" y="-125" font-family="Helvetica,sans-Serif" font-size="10.00" fill="#000000">src/profile.cc</text>
</a>
</g>
</g>
<!-- Node5&#45;&gt;Node21 -->
<g id="edge16" class="edge">
<title>Node5&#45;&gt;Node21</title>
<path fill="none" stroke="#191970" d="M873.3616,-187.4677C947.4738,-183.9774 1111.1515,-173.248 1245.5,-143 1252.2714,-141.4754 1259.444,-139.2826 1266.0255,-137.0241"/>
<polygon fill="#191970" stroke="#191970" points="872.923,-183.9839 863.0911,-187.9316 873.2389,-190.9767 872.923,-183.9839"/>
</g>
<!-- Node22 -->
<g id="node18" class="node">
<title>Node22</title>
<g id="a_node18"><a xlink:href="util_8cc.html" target="_top" xlink:title="src/util.cc">
<polygon fill="none" stroke="#000000" points="1345,-118 1345,-137 1404,-137 1404,-118 1345,-118"/>
<text text-anchor="middle" x="1374.5" y="-125" font-family="Helvetica,sans-Serif" font-size="10.00" fill="#000000">src/util.cc</text>
</a>
</g>
</g>
<!-- Node5&#45;&gt;Node22 -->
<g id="edge17" class="edge">
<title>Node5&#45;&gt;Node22</title>
<path fill="none" stroke="#191970" d="M873.5847,-186.8674C976.6221,-181.1404 1248.7676,-164.3994 1336.5,-143 1342.4529,-141.548 1348.6947,-139.3223 1354.3594,-137.0066"/>
<polygon fill="#191970" stroke="#191970" points="873.0889,-183.3893 863.2965,-187.4337 873.4737,-190.3787 873.0889,-183.3893"/>
</g>
<!-- Node23 -->
<g id="node19" class="node">
<title>Node23</title>
<g id="a_node19"><a xlink:href="high__amplitude__realtime__solver_8cc.html" target="_top" xlink:title="src/velocity/high_amplitude\l_realtime_solver.cc">
<polygon fill="none" stroke="#000000" points="1422,-112.5 1422,-142.5 1557,-142.5 1557,-112.5 1422,-112.5"/>
<text text-anchor="start" x="1430" y="-130.5" font-family="Helvetica,sans-Serif" font-size="10.00" fill="#000000">src/velocity/high_amplitude</text>
<text text-anchor="middle" x="1489.5" y="-119.5" font-family="Helvetica,sans-Serif" font-size="10.00" fill="#000000">_realtime_solver.cc</text>
</a>
</g>
</g>
<!-- Node5&#45;&gt;Node23 -->
<g id="edge18" class="edge">
<title>Node5&#45;&gt;Node23</title>
<path fill="none" stroke="#191970" d="M873.4485,-187.5126C967.8085,-183.6335 1211.7341,-171.4675 1413.5,-143 1416.1668,-142.6237 1418.8808,-142.2117 1421.6183,-141.7717"/>
<polygon fill="#191970" stroke="#191970" points="873.0672,-184.025 863.2161,-187.9246 873.3489,-191.0193 873.0672,-184.025"/>
</g>
<!-- Node8 -->
<g id="node4" class="node">
<title>Node8</title>
<g id="a_node4"><a xlink:href="arma__driver_8cc.html" target="_top" xlink:title="src/arma_driver.cc">
<polygon fill="none" stroke="#000000" points="0,-56.5 0,-75.5 97,-75.5 97,-56.5 0,-56.5"/>
<text text-anchor="middle" x="48.5" y="-63.5" font-family="Helvetica,sans-Serif" font-size="10.00" fill="#000000">src/arma_driver.cc</text>
</a>
</g>
</g>
<!-- Node7&#45;&gt;Node8 -->
<g id="edge3" class="edge">
<title>Node7&#45;&gt;Node8</title>
<path fill="none" stroke="#191970" d="M191.5367,-114.6009C157.2076,-102.9366 107.4507,-86.0302 76.5827,-75.5419"/>
<polygon fill="#191970" stroke="#191970" points="190.6244,-117.9873 201.2188,-117.8906 192.8764,-111.3595 190.6244,-117.9873"/>
</g>
<!-- Node9 -->
<g id="node5" class="node">
<title>Node9</title>
<g id="a_node5"><a xlink:href="arma__main_8cc.html" target="_top" xlink:title="src/arma_main.cc">
<polygon fill="none" stroke="#000000" points="115,-56.5 115,-75.5 210,-75.5 210,-56.5 115,-56.5"/>
<text text-anchor="middle" x="162.5" y="-63.5" font-family="Helvetica,sans-Serif" font-size="10.00" fill="#000000">src/arma_main.cc</text>
</a>
</g>
</g>
<!-- Node7&#45;&gt;Node9 -->
<g id="edge4" class="edge">
<title>Node7&#45;&gt;Node9</title>
<path fill="none" stroke="#191970" d="M211.5769,-111.0482C199.3007,-99.7798 183.4345,-85.216 173.1163,-75.7449"/>
<polygon fill="#191970" stroke="#191970" points="209.2975,-113.7068 219.0313,-117.8906 214.031,-108.5499 209.2975,-113.7068"/>
</g>
<!-- Node10 -->
<g id="node6" class="node">
<title>Node10</title>
<g id="a_node6"><a xlink:href="arma__realtime__driver_8hh.html" target="_top" xlink:title="src/arma_realtime_driver.hh">
<polygon fill="none" stroke="#000000" points="228,-56.5 228,-75.5 365,-75.5 365,-56.5 228,-56.5"/>
<text text-anchor="middle" x="296.5" y="-63.5" font-family="Helvetica,sans-Serif" font-size="10.00" fill="#000000">src/arma_realtime_driver.hh</text>
</a>
</g>
</g>
<!-- Node7&#45;&gt;Node10 -->
<g id="edge5" class="edge">
<title>Node7&#45;&gt;Node10</title>
<path fill="none" stroke="#191970" d="M247.4231,-111.0482C259.6993,-99.7798 275.5655,-85.216 285.8837,-75.7449"/>
<polygon fill="#191970" stroke="#191970" points="244.969,-108.5499 239.9688,-117.8906 249.7025,-113.7068 244.969,-108.5499"/>
</g>
<!-- Node13 -->
<g id="node9" class="node">
<title>Node13</title>
<g id="a_node9"><a xlink:href="visual_8cc.html" target="_top" xlink:title="src/visual.cc">
<polygon fill="none" stroke="#000000" points="383.5,-56.5 383.5,-75.5 455.5,-75.5 455.5,-56.5 383.5,-56.5"/>
<text text-anchor="middle" x="419.5" y="-63.5" font-family="Helvetica,sans-Serif" font-size="10.00" fill="#000000">src/visual.cc</text>
</a>
</g>
</g>
<!-- Node7&#45;&gt;Node13 -->
<g id="edge8" class="edge">
<title>Node7&#45;&gt;Node13</title>
<path fill="none" stroke="#191970" d="M268.8879,-114.7507C304.9383,-103.0818 357.479,-86.0752 390.021,-75.5419"/>
<polygon fill="#191970" stroke="#191970" points="267.6237,-111.4811 259.1875,-117.8906 269.7794,-118.1409 267.6237,-111.4811"/>
</g>
<!-- Node11 -->
<g id="node7" class="node">
<title>Node11</title>
<g id="a_node7"><a xlink:href="arma__realtime_8cc.html" target="_top" xlink:title="src/arma_realtime.cc">
<polygon fill="none" stroke="#000000" points="171.5,-.5 171.5,-19.5 279.5,-19.5 279.5,-.5 171.5,-.5"/>
<text text-anchor="middle" x="225.5" y="-7.5" font-family="Helvetica,sans-Serif" font-size="10.00" fill="#000000">src/arma_realtime.cc</text>
</a>
</g>
</g>
<!-- Node10&#45;&gt;Node11 -->
<g id="edge6" class="edge">
<title>Node10&#45;&gt;Node11</title>
<path fill="none" stroke="#191970" d="M276.123,-49.928C263.7129,-40.1397 248.27,-27.9595 237.7255,-19.6427"/>
<polygon fill="#191970" stroke="#191970" points="274.1136,-52.8007 284.1327,-56.2455 278.4486,-47.3046 274.1136,-52.8007"/>
</g>
<!-- Node12 -->
<g id="node8" class="node">
<title>Node12</title>
<g id="a_node8"><a xlink:href="arma__realtime__driver_8cc.html" target="_top" xlink:title="src/arma_realtime_driver.cc">
<polygon fill="none" stroke="#000000" points="298,-.5 298,-19.5 435,-19.5 435,-.5 298,-.5"/>
<text text-anchor="middle" x="366.5" y="-7.5" font-family="Helvetica,sans-Serif" font-size="10.00" fill="#000000">src/arma_realtime_driver.cc</text>
</a>
</g>
</g>
<!-- Node10&#45;&gt;Node12 -->
<g id="edge7" class="edge">
<title>Node10&#45;&gt;Node12</title>
<path fill="none" stroke="#191970" d="M316.59,-49.928C328.8253,-40.1397 344.0507,-27.9595 354.4467,-19.6427"/>
<polygon fill="#191970" stroke="#191970" points="314.3153,-47.2655 308.6931,-56.2455 318.6882,-52.7316 314.3153,-47.2655"/>
</g>
</g>
</svg>
