<?xml version="1.0" encoding="UTF-8" standalone="no"?>
<!DOCTYPE svg PUBLIC "-//W3C//DTD SVG 1.1//EN"
 "http://www.w3.org/Graphics/SVG/1.1/DTD/svg11.dtd">
<!-- Generated by graphviz version 2.36.0 (20140111.2315)
 -->
<!-- Title: /home/travis/build/igankevich/arma/src/util.cc Pages: 1 -->
<svg width="286pt" height="162pt"
 viewBox="0.00 0.00 286.00 162.00" xmlns="http://www.w3.org/2000/svg" xmlns:xlink="http://www.w3.org/1999/xlink">
<g id="graph0" class="graph" transform="scale(1 1) rotate(0) translate(4 158)">
<title>/home/travis/build/igankevich/arma/src/util.cc</title>
<!-- Node1 -->
<g id="node1" class="node"><title>Node1</title>
<polygon fill="#bfbfbf" stroke="black" points="126.5,-112.5 126.5,-153.5 233.5,-153.5 233.5,-112.5 126.5,-112.5"/>
<text text-anchor="start" x="134.5" y="-141.5" font-family="Helvetica,sans-Serif" font-size="10.00">/home/travis/build</text>
<text text-anchor="start" x="134.5" y="-130.5" font-family="Helvetica,sans-Serif" font-size="10.00">/igankevich/arma/src</text>
<text text-anchor="middle" x="180" y="-119.5" font-family="Helvetica,sans-Serif" font-size="10.00">/util.cc</text>
</g>
<!-- Node2 -->
<g id="node2" class="node"><title>Node2</title>
<g id="a_node2"><a xlink:href="util_8hh.html" target="_top" xlink:title="util.hh">
<polygon fill="none" stroke="black" points="92.5,-56.5 92.5,-75.5 135.5,-75.5 135.5,-56.5 92.5,-56.5"/>
<text text-anchor="middle" x="114" y="-63.5" font-family="Helvetica,sans-Serif" font-size="10.00">util.hh</text>
</a>
</g>
</g>
<!-- Node1&#45;&gt;Node2 -->
<g id="edge1" class="edge"><title>Node1&#45;&gt;Node2</title>
<path fill="none" stroke="midnightblue" d="M160.198,-112.498C150.565,-103.011 139.137,-91.7557 130.056,-82.8131"/>
<polygon fill="midnightblue" stroke="midnightblue" points="132.366,-80.1757 122.786,-75.6525 127.455,-85.1631 132.366,-80.1757"/>
</g>
<!-- Node7 -->
<g id="node7" class="node"><title>Node7</title>
<polygon fill="none" stroke="#bfbfbf" points="154,-56.5 154,-75.5 206,-75.5 206,-56.5 154,-56.5"/>
<text text-anchor="middle" x="180" y="-63.5" font-family="Helvetica,sans-Serif" font-size="10.00">sstream</text>
</g>
<!-- Node1&#45;&gt;Node7 -->
<g id="edge6" class="edge"><title>Node1&#45;&gt;Node7</title>
<path fill="none" stroke="midnightblue" d="M180,-112.498C180,-104.065 180,-94.2351 180,-85.874"/>
<polygon fill="midnightblue" stroke="midnightblue" points="183.5,-85.6525 180,-75.6525 176.5,-85.6525 183.5,-85.6525"/>
</g>
<!-- Node8 -->
<g id="node8" class="node"><title>Node8</title>
<polygon fill="none" stroke="#bfbfbf" points="224,-56.5 224,-75.5 278,-75.5 278,-56.5 224,-56.5"/>
<text text-anchor="middle" x="251" y="-63.5" font-family="Helvetica,sans-Serif" font-size="10.00">iostream</text>
</g>
<!-- Node1&#45;&gt;Node8 -->
<g id="edge7" class="edge"><title>Node1&#45;&gt;Node8</title>
<path fill="none" stroke="midnightblue" d="M201.302,-112.498C211.769,-102.915 224.208,-91.5281 234.022,-82.5428"/>
<polygon fill="midnightblue" stroke="midnightblue" points="236.536,-84.9866 241.549,-75.6525 231.81,-79.8235 236.536,-84.9866"/>
</g>
<!-- Node3 -->
<g id="node3" class="node"><title>Node3</title>
<polygon fill="none" stroke="#bfbfbf" points="0,-0.5 0,-19.5 52,-19.5 52,-0.5 0,-0.5"/>
<text text-anchor="middle" x="26" y="-7.5" font-family="Helvetica,sans-Serif" font-size="10.00">ostream</text>
</g>
<!-- Node2&#45;&gt;Node3 -->
<g id="edge2" class="edge"><title>Node2&#45;&gt;Node3</title>
<path fill="none" stroke="midnightblue" d="M99.8613,-56.324C86.1337,-47.9002 65.0637,-34.9709 48.9357,-25.0741"/>
<polygon fill="midnightblue" stroke="midnightblue" points="50.4574,-21.9016 40.1036,-19.6545 46.7963,-27.8678 50.4574,-21.9016"/>
</g>
<!-- Node4 -->
<g id="node4" class="node"><title>Node4</title>
<polygon fill="none" stroke="#bfbfbf" points="70.5,-0.5 70.5,-19.5 99.5,-19.5 99.5,-0.5 70.5,-0.5"/>
<text text-anchor="middle" x="85" y="-7.5" font-family="Helvetica,sans-Serif" font-size="10.00">ios</text>
</g>
<!-- Node2&#45;&gt;Node4 -->
<g id="edge3" class="edge"><title>Node2&#45;&gt;Node4</title>
<path fill="none" stroke="midnightblue" d="M109.211,-56.083C105.242,-48.6913 99.4749,-37.9533 94.5652,-28.8111"/>
<polygon fill="midnightblue" stroke="midnightblue" points="97.5145,-26.9051 89.6997,-19.7511 91.3475,-30.217 97.5145,-26.9051"/>
</g>
<!-- Node5 -->
<g id="node5" class="node"><title>Node5</title>
<polygon fill="none" stroke="#bfbfbf" points="118,-0.5 118,-19.5 168,-19.5 168,-0.5 118,-0.5"/>
<text text-anchor="middle" x="143" y="-7.5" font-family="Helvetica,sans-Serif" font-size="10.00">iomanip</text>
</g>
<!-- Node2&#45;&gt;Node5 -->
<g id="edge4" class="edge"><title>Node2&#45;&gt;Node5</title>
<path fill="none" stroke="midnightblue" d="M118.789,-56.083C122.758,-48.6913 128.525,-37.9533 133.435,-28.8111"/>
<polygon fill="midnightblue" stroke="midnightblue" points="136.653,-30.217 138.3,-19.7511 130.486,-26.9051 136.653,-30.217"/>
</g>
<!-- Node6 -->
<g id="node6" class="node"><title>Node6</title>
<polygon fill="none" stroke="#bfbfbf" points="186,-0.5 186,-19.5 230,-19.5 230,-0.5 186,-0.5"/>
<text text-anchor="middle" x="208" y="-7.5" font-family="Helvetica,sans-Serif" font-size="10.00">mutex</text>
</g>
<!-- Node2&#45;&gt;Node6 -->
<g id="edge5" class="edge"><title>Node2&#45;&gt;Node6</title>
<path fill="none" stroke="midnightblue" d="M129.103,-56.324C143.903,-47.8215 166.694,-34.7288 183.982,-24.7975"/>
<polygon fill="midnightblue" stroke="midnightblue" points="186.007,-27.6707 192.935,-19.6545 182.52,-21.6009 186.007,-27.6707"/>
</g>
</g>
</svg>
