<?xml version="1.0" encoding="UTF-8" standalone="no"?>
<!DOCTYPE svg PUBLIC "-//W3C//DTD SVG 1.1//EN"
 "http://www.w3.org/Graphics/SVG/1.1/DTD/svg11.dtd">
<!-- Generated by graphviz version 2.40.1 (20161225.0304)
 -->
<!-- Title: src/visual.cc Pages: 1 -->
<svg width="2200pt" height="453pt"
 viewBox="0.00 0.00 2200.49 453.00" xmlns="http://www.w3.org/2000/svg" xmlns:xlink="http://www.w3.org/1999/xlink">
<g id="graph0" class="graph" transform="scale(1 1) rotate(0) translate(4 449)">
<title>src/visual.cc</title>
<!-- Node0 -->
<g id="node1" class="node">
<title>Node0</title>
<polygon fill="#bfbfbf" stroke="#000000" points="408.4862,-425.5 408.4862,-444.5 480.4862,-444.5 480.4862,-425.5 408.4862,-425.5"/>
<text text-anchor="middle" x="444.4862" y="-432.5" font-family="Helvetica,sans-Serif" font-size="10.00" fill="#000000">src/visual.cc</text>
</g>
<!-- Node1 -->
<g id="node2" class="node">
<title>Node1</title>
<polygon fill="none" stroke="#bfbfbf" points="5.4862,-.5 5.4862,-19.5 61.4862,-19.5 61.4862,-.5 5.4862,-.5"/>
<text text-anchor="middle" x="33.4862" y="-7.5" font-family="Helvetica,sans-Serif" font-size="10.00" fill="#000000">algorithm</text>
</g>
<!-- Node0&#45;&gt;Node1 -->
<g id="edge1" class="edge">
<title>Node0&#45;&gt;Node1</title>
<path fill="none" stroke="#191970" d="M408.438,-433.4005C311.346,-428.7739 49.6958,-414.0845 20.4862,-389 -4.4585,-367.5781 1.4862,-350.3806 1.4862,-317.5 1.4862,-317.5 1.4862,-317.5 1.4862,-122 1.4862,-88.132 15.1817,-50.643 24.6534,-28.7657"/>
<polygon fill="#191970" stroke="#191970" points="27.8556,-30.1784 28.7645,-19.6226 21.4713,-27.3077 27.8556,-30.1784"/>
</g>
<!-- Node2 -->
<g id="node3" class="node">
<title>Node2</title>
<polygon fill="none" stroke="#bfbfbf" points="29.4862,-369.5 29.4862,-388.5 75.4862,-388.5 75.4862,-369.5 29.4862,-369.5"/>
<text text-anchor="middle" x="52.4862" y="-376.5" font-family="Helvetica,sans-Serif" font-size="10.00" fill="#000000">atomic</text>
</g>
<!-- Node0&#45;&gt;Node2 -->
<g id="edge2" class="edge">
<title>Node0&#45;&gt;Node2</title>
<path fill="none" stroke="#191970" d="M408.4493,-431.9531C344.0156,-426.1458 204.9908,-411.9827 89.4862,-389 88.2381,-388.7517 86.9699,-388.4846 85.6917,-388.203"/>
<polygon fill="#191970" stroke="#191970" points="86.4035,-384.7744 75.8613,-385.8295 84.7605,-391.5788 86.4035,-384.7744"/>
</g>
<!-- Node3 -->
<g id="node4" class="node">
<title>Node3</title>
<polygon fill="none" stroke="#bfbfbf" points="91.4862,-.5 91.4862,-19.5 141.4862,-19.5 141.4862,-.5 91.4862,-.5"/>
<text text-anchor="middle" x="116.4862" y="-7.5" font-family="Helvetica,sans-Serif" font-size="10.00" fill="#000000">fstream</text>
</g>
<!-- Node0&#45;&gt;Node3 -->
<g id="edge3" class="edge">
<title>Node0&#45;&gt;Node3</title>
<path fill="none" stroke="#191970" d="M408.3509,-434.3505C339.0289,-432.3129 191.1521,-423.882 156.4862,-389 56.8313,-288.7238 95.6649,-91.811 111.2316,-29.4343"/>
<polygon fill="#191970" stroke="#191970" points="114.6328,-30.2617 113.7489,-19.7038 107.8559,-28.5084 114.6328,-30.2617"/>
</g>
<!-- Node4 -->
<g id="node5" class="node">
<title>Node4</title>
<polygon fill="none" stroke="#bfbfbf" points="183.4862,-112.5 183.4862,-131.5 233.4862,-131.5 233.4862,-112.5 183.4862,-112.5"/>
<text text-anchor="middle" x="208.4862" y="-119.5" font-family="Helvetica,sans-Serif" font-size="10.00" fill="#000000">iomanip</text>
</g>
<!-- Node0&#45;&gt;Node4 -->
<g id="edge4" class="edge">
<title>Node0&#45;&gt;Node4</title>
<path fill="none" stroke="#191970" d="M430.4925,-425.4922C389.6173,-396.8522 270.0457,-306.7104 218.4862,-199 209.8684,-180.997 207.874,-158.0614 207.7242,-141.9212"/>
<polygon fill="#191970" stroke="#191970" points="211.2293,-141.5863 207.8729,-131.5372 204.23,-141.4861 211.2293,-141.5863"/>
</g>
<!-- Node5 -->
<g id="node6" class="node">
<title>Node5</title>
<polygon fill="none" stroke="#bfbfbf" points="183.4862,-369.5 183.4862,-388.5 237.4862,-388.5 237.4862,-369.5 183.4862,-369.5"/>
<text text-anchor="middle" x="210.4862" y="-376.5" font-family="Helvetica,sans-Serif" font-size="10.00" fill="#000000">iostream</text>
</g>
<!-- Node0&#45;&gt;Node5 -->
<g id="edge5" class="edge">
<title>Node0&#45;&gt;Node5</title>
<path fill="none" stroke="#191970" d="M408.2434,-427.0673C370.4749,-418.693 309.3472,-404.8386 247.5074,-389.1864"/>
<polygon fill="#191970" stroke="#191970" points="248.1343,-385.7344 237.5799,-386.6594 246.4075,-392.5181 248.1343,-385.7344"/>
</g>
<!-- Node6 -->
<g id="node7" class="node">
<title>Node6</title>
<polygon fill="none" stroke="#bfbfbf" points="255.4862,-369.5 255.4862,-388.5 307.4862,-388.5 307.4862,-369.5 255.4862,-369.5"/>
<text text-anchor="middle" x="281.4862" y="-376.5" font-family="Helvetica,sans-Serif" font-size="10.00" fill="#000000">sstream</text>
</g>
<!-- Node0&#45;&gt;Node6 -->
<g id="edge6" class="edge">
<title>Node0&#45;&gt;Node6</title>
<path fill="none" stroke="#191970" d="M416.4655,-425.3733C388.9877,-415.933 346.9892,-401.5041 317.1448,-391.2508"/>
<polygon fill="#191970" stroke="#191970" points="318.1228,-387.8861 307.5281,-387.9469 315.8483,-394.5063 318.1228,-387.8861"/>
</g>
<!-- Node7 -->
<g id="node8" class="node">
<title>Node7</title>
<polygon fill="none" stroke="#bfbfbf" points="170.9862,-.5 170.9862,-19.5 229.9862,-19.5 229.9862,-.5 170.9862,-.5"/>
<text text-anchor="middle" x="200.4862" y="-7.5" font-family="Helvetica,sans-Serif" font-size="10.00" fill="#000000">stdexcept</text>
</g>
<!-- Node0&#45;&gt;Node7 -->
<g id="edge7" class="edge">
<title>Node0&#45;&gt;Node7</title>
<path fill="none" stroke="#191970" d="M408.364,-433.5702C342.8661,-430.2362 208.1551,-419.737 174.4862,-389 150.2028,-366.8312 155.4862,-350.3806 155.4862,-317.5 155.4862,-317.5 155.4862,-317.5 155.4862,-183.5 155.4862,-150.6194 159.6265,-141.3313 174.4862,-112 183.7713,-93.6722 196.6527,-95.3759 203.4862,-76 208.7318,-61.1264 207.477,-43.1902 205.1914,-29.7721"/>
<polygon fill="#191970" stroke="#191970" points="208.5719,-28.8319 203.1491,-19.73 201.7123,-30.227 208.5719,-28.8319"/>
</g>
<!-- Node8 -->
<g id="node9" class="node">
<title>Node8</title>
<polygon fill="none" stroke="#bfbfbf" points="422.4862,-369.5 422.4862,-388.5 466.4862,-388.5 466.4862,-369.5 422.4862,-369.5"/>
<text text-anchor="middle" x="444.4862" y="-376.5" font-family="Helvetica,sans-Serif" font-size="10.00" fill="#000000">thread</text>
</g>
<!-- Node0&#45;&gt;Node8 -->
<g id="edge8" class="edge">
<title>Node0&#45;&gt;Node8</title>
<path fill="none" stroke="#191970" d="M444.4862,-425.2455C444.4862,-417.9382 444.4862,-407.6944 444.4862,-398.7046"/>
<polygon fill="#191970" stroke="#191970" points="447.9863,-398.6426 444.4862,-388.6427 440.9863,-398.6427 447.9863,-398.6426"/>
</g>
<!-- Node9 -->
<g id="node10" class="node">
<title>Node9</title>
<g id="a_node10"><a xlink:href="arma__driver_8hh.html" target="_top" xlink:title="arma_driver.hh">
<polygon fill="none" stroke="#000000" points="513.4862,-241 513.4862,-260 593.4862,-260 593.4862,-241 513.4862,-241"/>
<text text-anchor="middle" x="553.4862" y="-248" font-family="Helvetica,sans-Serif" font-size="10.00" fill="#000000">arma_driver.hh</text>
</a>
</g>
</g>
<!-- Node0&#45;&gt;Node9 -->
<g id="edge9" class="edge">
<title>Node0&#45;&gt;Node9</title>
<path fill="none" stroke="#191970" d="M451.3695,-425.2788C457.8104,-416.0694 467.5959,-401.7845 475.4862,-389 501.4466,-346.9367 529.2639,-295.9325 543.6308,-269.0909"/>
<polygon fill="#191970" stroke="#191970" points="546.8316,-270.5267 548.4466,-260.0556 540.6543,-267.2341 546.8316,-270.5267"/>
</g>
<!-- Node16 -->
<g id="node17" class="node">
<title>Node16</title>
<g id="a_node17"><a xlink:href="types_8hh.html" target="_top" xlink:title="types.hh">
<polygon fill="none" stroke="#000000" points="1273.4862,-56.5 1273.4862,-75.5 1327.4862,-75.5 1327.4862,-56.5 1273.4862,-56.5"/>
<text text-anchor="middle" x="1300.4862" y="-63.5" font-family="Helvetica,sans-Serif" font-size="10.00" fill="#000000">types.hh</text>
</a>
</g>
</g>
<!-- Node0&#45;&gt;Node16 -->
<g id="edge90" class="edge">
<title>Node0&#45;&gt;Node16</title>
<path fill="none" stroke="#191970" d="M480.5854,-434.4194C593.8356,-432.2793 952.0899,-423.0861 1246.4862,-389 1389.9116,-372.3938 1440.8487,-404.1466 1566.4862,-333 1602.7378,-312.4713 1672.2472,-206.1402 1655.4862,-168 1640.6794,-134.3068 1627.6423,-127.9732 1594.4862,-112 1549.773,-90.4591 1406.5667,-75.3407 1337.8992,-69.1382"/>
<polygon fill="#191970" stroke="#191970" points="1338.2072,-65.6519 1327.9368,-68.2538 1337.5881,-72.6244 1338.2072,-65.6519"/>
</g>
<!-- Node42 -->
<g id="node29" class="node">
<title>Node42</title>
<g id="a_node29"><a xlink:href="register__all_8hh.html" target="_top" xlink:title="register_all.hh">
<polygon fill="none" stroke="#000000" points="1160.9862,-369.5 1160.9862,-388.5 1237.9862,-388.5 1237.9862,-369.5 1160.9862,-369.5"/>
<text text-anchor="middle" x="1199.4862" y="-376.5" font-family="Helvetica,sans-Serif" font-size="10.00" fill="#000000">register_all.hh</text>
</a>
</g>
</g>
<!-- Node0&#45;&gt;Node42 -->
<g id="edge48" class="edge">
<title>Node0&#45;&gt;Node42</title>
<path fill="none" stroke="#191970" d="M480.647,-432.3179C604.186,-423.1547 1009.6299,-393.0821 1150.6325,-382.6236"/>
<polygon fill="#191970" stroke="#191970" points="1150.9993,-386.1061 1160.7129,-381.8759 1150.4814,-379.1253 1150.9993,-386.1061"/>
</g>
<!-- Node73 -->
<g id="node39" class="node">
<title>Node73</title>
<g id="a_node39"><a xlink:href="opengl_8hh.html" target="_top" xlink:title="opengl.hh">
<polygon fill="none" stroke="#000000" points="1614.9862,-369.5 1614.9862,-388.5 1673.9862,-388.5 1673.9862,-369.5 1614.9862,-369.5"/>
<text text-anchor="middle" x="1644.4862" y="-376.5" font-family="Helvetica,sans-Serif" font-size="10.00" fill="#000000">opengl.hh</text>
</a>
</g>
</g>
<!-- Node0&#45;&gt;Node73 -->
<g id="edge86" class="edge">
<title>Node0&#45;&gt;Node73</title>
<path fill="none" stroke="#191970" d="M480.5255,-434.4579C650.8402,-431.7597 1376.1074,-418.7054 1600.4862,-389 1601.9423,-388.8072 1603.4211,-388.589 1604.9116,-388.3502"/>
<polygon fill="#191970" stroke="#191970" points="1605.6,-391.7824 1614.7982,-386.5247 1604.3289,-384.8987 1605.6,-391.7824"/>
</g>
<!-- Node76 -->
<g id="node42" class="node">
<title>Node76</title>
<polygon fill="none" stroke="#bfbfbf" points="1692.4862,-369.5 1692.4862,-388.5 1736.4862,-388.5 1736.4862,-369.5 1692.4862,-369.5"/>
<text text-anchor="middle" x="1714.4862" y="-376.5" font-family="Helvetica,sans-Serif" font-size="10.00" fill="#000000">SDL.h</text>
</g>
<!-- Node0&#45;&gt;Node76 -->
<g id="edge91" class="edge">
<title>Node0&#45;&gt;Node76</title>
<path fill="none" stroke="#191970" d="M480.7089,-434.2276C672.1102,-430.0697 1561.5262,-409.7651 1682.4862,-389 1682.5866,-388.9828 1682.6871,-388.9653 1682.7877,-388.9476"/>
<polygon fill="#191970" stroke="#191970" points="1683.3299,-392.4143 1692.2923,-386.764 1681.7624,-385.592 1683.3299,-392.4143"/>
</g>
<!-- Node77 -->
<g id="node43" class="node">
<title>Node77</title>
<g id="a_node43"><a xlink:href="imgui_8h.html" target="_top" xlink:title="imgui/imgui.h">
<polygon fill="none" stroke="#000000" points="1882.4862,-369.5 1882.4862,-388.5 1956.4862,-388.5 1956.4862,-369.5 1882.4862,-369.5"/>
<text text-anchor="middle" x="1919.4862" y="-376.5" font-family="Helvetica,sans-Serif" font-size="10.00" fill="#000000">imgui/imgui.h</text>
</a>
</g>
</g>
<!-- Node0&#45;&gt;Node77 -->
<g id="edge92" class="edge">
<title>Node0&#45;&gt;Node77</title>
<path fill="none" stroke="#191970" d="M480.7138,-434.0122C633.9842,-429.7711 1244.2852,-412.2601 1745.4862,-389 1788.2177,-387.0169 1836.8184,-384.1743 1871.7737,-382.0264"/>
<polygon fill="#191970" stroke="#191970" points="1872.3974,-385.4946 1882.1622,-381.3838 1871.9652,-378.508 1872.3974,-385.4946"/>
</g>
<!-- Node84 -->
<g id="node50" class="node">
<title>Node84</title>
<g id="a_node50"><a xlink:href="imgui__sdl_8h.html" target="_top" xlink:title="imgui/imgui_sdl.h">
<polygon fill="none" stroke="#000000" points="1974.4862,-369.5 1974.4862,-388.5 2066.4862,-388.5 2066.4862,-369.5 1974.4862,-369.5"/>
<text text-anchor="middle" x="2020.4862" y="-376.5" font-family="Helvetica,sans-Serif" font-size="10.00" fill="#000000">imgui/imgui_sdl.h</text>
</a>
</g>
</g>
<!-- Node0&#45;&gt;Node84 -->
<g id="edge99" class="edge">
<title>Node0&#45;&gt;Node84</title>
<path fill="none" stroke="#191970" d="M480.6433,-434.6417C679.5776,-432.5599 1643.1543,-421.0199 1964.1182,-388.9582"/>
<polygon fill="#191970" stroke="#191970" points="1964.7555,-392.4112 1974.345,-387.9064 1964.0393,-385.4479 1964.7555,-392.4112"/>
</g>
<!-- Node10 -->
<g id="node11" class="node">
<title>Node10</title>
<polygon fill="none" stroke="#bfbfbf" points="581.9862,-174 581.9862,-193 640.9862,-193 640.9862,-174 581.9862,-174"/>
<text text-anchor="middle" x="611.4862" y="-181" font-family="Helvetica,sans-Serif" font-size="10.00" fill="#000000">functional</text>
</g>
<!-- Node9&#45;&gt;Node10 -->
<g id="edge10" class="edge">
<title>Node9&#45;&gt;Node10</title>
<path fill="none" stroke="#191970" d="M561.7962,-240.9005C570.8408,-230.4525 585.4879,-213.5325 596.5416,-200.7635"/>
<polygon fill="#191970" stroke="#191970" points="599.2928,-202.9331 603.1916,-193.0817 594.0003,-198.3515 599.2928,-202.9331"/>
</g>
<!-- Node11 -->
<g id="node12" class="node">
<title>Node11</title>
<polygon fill="none" stroke="#bfbfbf" points="582.9862,-.5 582.9862,-19.5 631.9862,-19.5 631.9862,-.5 582.9862,-.5"/>
<text text-anchor="middle" x="607.4862" y="-7.5" font-family="Helvetica,sans-Serif" font-size="10.00" fill="#000000">istream</text>
</g>
<!-- Node9&#45;&gt;Node11 -->
<g id="edge11" class="edge">
<title>Node9&#45;&gt;Node11</title>
<path fill="none" stroke="#191970" d="M549.3066,-240.8434C539.9949,-217.9261 519.5029,-158.6804 534.4862,-112 545.434,-77.892 572.4544,-45.5016 590.3711,-26.7049"/>
<polygon fill="#191970" stroke="#191970" points="592.9175,-29.1071 597.4189,-19.516 587.9189,-24.2066 592.9175,-29.1071"/>
</g>
<!-- Node12 -->
<g id="node13" class="node">
<title>Node12</title>
<polygon fill="none" stroke="#bfbfbf" points="368.4862,-.5 368.4862,-19.5 420.4862,-19.5 420.4862,-.5 368.4862,-.5"/>
<text text-anchor="middle" x="394.4862" y="-7.5" font-family="Helvetica,sans-Serif" font-size="10.00" fill="#000000">ostream</text>
</g>
<!-- Node9&#45;&gt;Node12 -->
<g id="edge12" class="edge">
<title>Node9&#45;&gt;Node12</title>
<path fill="none" stroke="#191970" d="M513.3655,-245.769C461.4826,-238.7307 375.4991,-223.6223 356.4862,-199 316.6776,-147.4468 359.3534,-65.0526 382.1106,-28.4998"/>
<polygon fill="#191970" stroke="#191970" points="385.2042,-30.1595 387.6612,-19.8534 379.3135,-26.3779 385.2042,-30.1595"/>
</g>
<!-- Node13 -->
<g id="node14" class="node">
<title>Node13</title>
<polygon fill="none" stroke="#bfbfbf" points="293.9862,-.5 293.9862,-19.5 334.9862,-19.5 334.9862,-.5 293.9862,-.5"/>
<text text-anchor="middle" x="314.4862" y="-7.5" font-family="Helvetica,sans-Serif" font-size="10.00" fill="#000000">string</text>
</g>
<!-- Node9&#45;&gt;Node13 -->
<g id="edge13" class="edge">
<title>Node9&#45;&gt;Node13</title>
<path fill="none" stroke="#191970" d="M513.2628,-246.2233C457.8795,-239.4678 362.372,-224.4156 339.4862,-199 296.7338,-151.5219 304.2404,-68.1859 310.5199,-30.0618"/>
<polygon fill="#191970" stroke="#191970" points="314.0452,-30.2334 312.3723,-19.7714 307.1559,-28.9931 314.0452,-30.2334"/>
</g>
<!-- Node14 -->
<g id="node15" class="node">
<title>Node14</title>
<polygon fill="none" stroke="#bfbfbf" points="365.9862,-174 365.9862,-193 448.9862,-193 448.9862,-174 365.9862,-174"/>
<text text-anchor="middle" x="407.4862" y="-181" font-family="Helvetica,sans-Serif" font-size="10.00" fill="#000000">unordered_map</text>
</g>
<!-- Node9&#45;&gt;Node14 -->
<g id="edge14" class="edge">
<title>Node9&#45;&gt;Node14</title>
<path fill="none" stroke="#191970" d="M532.5679,-240.9005C507.7406,-229.5072 466.1429,-210.4178 437.792,-197.4075"/>
<polygon fill="#191970" stroke="#191970" points="438.9141,-194.0715 428.3656,-193.0817 435.9945,-200.4336 438.9141,-194.0715"/>
</g>
<!-- Node15 -->
<g id="node16" class="node">
<title>Node15</title>
<polygon fill="none" stroke="#bfbfbf" points="1070.4862,-174 1070.4862,-193 1126.4862,-193 1126.4862,-174 1070.4862,-174"/>
<text text-anchor="middle" x="1098.4862" y="-181" font-family="Helvetica,sans-Serif" font-size="10.00" fill="#000000">config.hh</text>
</g>
<!-- Node9&#45;&gt;Node15 -->
<g id="edge15" class="edge">
<title>Node9&#45;&gt;Node15</title>
<path fill="none" stroke="#191970" d="M593.4959,-249.803C679.3914,-247.5691 887.3795,-238.2005 1056.4862,-199 1059.6662,-198.2628 1062.9334,-197.3503 1066.1733,-196.3399"/>
<polygon fill="#191970" stroke="#191970" points="1067.3626,-199.6323 1075.6978,-193.0921 1065.1033,-193.0069 1067.3626,-199.6323"/>
</g>
<!-- Node9&#45;&gt;Node16 -->
<g id="edge16" class="edge">
<title>Node9&#45;&gt;Node16</title>
<path fill="none" stroke="#191970" d="M593.6956,-248.2868C680.8473,-243.0004 884.3101,-227.8764 946.4862,-199 965.0328,-190.3864 963.6892,-179.6633 980.4862,-168 1025.2228,-136.9363 1038.2246,-130.4002 1089.4862,-112 1148.4921,-90.82 1220.4362,-77.6831 1263.2426,-71.1185"/>
<polygon fill="#191970" stroke="#191970" points="1263.8406,-74.5681 1273.2131,-69.6279 1262.8055,-67.645 1263.8406,-74.5681"/>
</g>
<!-- Node18 -->
<g id="node19" class="node">
<title>Node18</title>
<g id="a_node19"><a xlink:href="arma_8hh.html" target="_top" xlink:title="arma.hh">
<polygon fill="none" stroke="#000000" points="1220.4862,-112.5 1220.4862,-131.5 1272.4862,-131.5 1272.4862,-112.5 1220.4862,-112.5"/>
<text text-anchor="middle" x="1246.4862" y="-119.5" font-family="Helvetica,sans-Serif" font-size="10.00" fill="#000000">arma.hh</text>
</a>
</g>
</g>
<!-- Node9&#45;&gt;Node18 -->
<g id="edge18" class="edge">
<title>Node9&#45;&gt;Node18</title>
<path fill="none" stroke="#191970" d="M593.6792,-248.6727C691.7969,-243.7943 941.1699,-228.7633 1018.4862,-199 1040.4731,-190.536 1040.0721,-177.8233 1061.4862,-168 1121.0027,-140.698 1143.1738,-148.6002 1210.3587,-132.1458"/>
<polygon fill="#191970" stroke="#191970" points="1211.3175,-135.5135 1220.1461,-129.6562 1209.5919,-128.7295 1211.3175,-135.5135"/>
</g>
<!-- Node19 -->
<g id="node20" class="node">
<title>Node19</title>
<g id="a_node20"><a xlink:href="basic__model_8hh.html" target="_top" xlink:title="generator/basic_model.hh">
<polygon fill="none" stroke="#000000" points="543.4862,-112.5 543.4862,-131.5 671.4862,-131.5 671.4862,-112.5 543.4862,-112.5"/>
<text text-anchor="middle" x="607.4862" y="-119.5" font-family="Helvetica,sans-Serif" font-size="10.00" fill="#000000">generator/basic_model.hh</text>
</a>
</g>
</g>
<!-- Node9&#45;&gt;Node19 -->
<g id="edge20" class="edge">
<title>Node9&#45;&gt;Node19</title>
<path fill="none" stroke="#191970" d="M554.3681,-240.9204C556.11,-225.0879 560.8817,-192.7528 572.4862,-168 577.2916,-157.7498 584.6585,-147.6007 591.3962,-139.4541"/>
<polygon fill="#191970" stroke="#191970" points="594.152,-141.6184 598.0561,-131.7691 588.862,-137.0341 594.152,-141.6184"/>
</g>
<!-- Node20 -->
<g id="node21" class="node">
<title>Node20</title>
<g id="a_node21"><a xlink:href="grid_8hh.html" target="_top" xlink:title="grid.hh">
<polygon fill="none" stroke="#ff0000" points="778.4862,-56.5 778.4862,-75.5 824.4862,-75.5 824.4862,-56.5 778.4862,-56.5"/>
<text text-anchor="middle" x="801.4862" y="-63.5" font-family="Helvetica,sans-Serif" font-size="10.00" fill="#000000">grid.hh</text>
</a>
</g>
</g>
<!-- Node9&#45;&gt;Node20 -->
<g id="edge38" class="edge">
<title>Node9&#45;&gt;Node20</title>
<path fill="none" stroke="#191970" d="M574.4997,-240.9352C594.4972,-231.4439 625.073,-215.9038 649.4862,-199 677.2585,-179.7704 749.326,-114.1491 783.282,-82.8597"/>
<polygon fill="#191970" stroke="#191970" points="786.0705,-85.0488 791.0435,-75.6936 781.3219,-79.9057 786.0705,-85.0488"/>
</g>
<!-- Node24 -->
<g id="node22" class="node">
<title>Node24</title>
<g id="a_node22"><a xlink:href="output__flags_8hh.html" target="_top" xlink:title="output_flags.hh">
<polygon fill="none" stroke="#000000" points="441.9862,-56.5 441.9862,-75.5 524.9862,-75.5 524.9862,-56.5 441.9862,-56.5"/>
<text text-anchor="middle" x="483.4862" y="-63.5" font-family="Helvetica,sans-Serif" font-size="10.00" fill="#000000">output_flags.hh</text>
</a>
</g>
</g>
<!-- Node9&#45;&gt;Node24 -->
<g id="edge37" class="edge">
<title>Node9&#45;&gt;Node24</title>
<path fill="none" stroke="#191970" d="M539.4561,-240.8283C527.2593,-231.592 510.2146,-216.5126 501.4862,-199 483.115,-162.1404 481.5313,-112.7785 482.3114,-85.749"/>
<polygon fill="#191970" stroke="#191970" points="485.8135,-85.7755 482.7484,-75.6337 478.82,-85.4733 485.8135,-85.7755"/>
</g>
<!-- Node36 -->
<g id="node26" class="node">
<title>Node36</title>
<g id="a_node26"><a xlink:href="basic__solver_8hh.html" target="_top" xlink:title="velocity/basic_solver.hh">
<polygon fill="none" stroke="#ff0000" points="1489.9862,-174 1489.9862,-193 1610.9862,-193 1610.9862,-174 1489.9862,-174"/>
<text text-anchor="middle" x="1550.4862" y="-181" font-family="Helvetica,sans-Serif" font-size="10.00" fill="#000000">velocity/basic_solver.hh</text>
</a>
</g>
</g>
<!-- Node9&#45;&gt;Node36 -->
<g id="edge39" class="edge">
<title>Node9&#45;&gt;Node36</title>
<path fill="none" stroke="#191970" d="M593.8507,-249.3572C719.5915,-245.5405 1115.3418,-231.5894 1441.4862,-199 1453.9423,-197.7553 1467.159,-196.1331 1479.932,-194.4079"/>
<polygon fill="#191970" stroke="#191970" points="1480.6313,-197.8445 1490.0575,-193.0075 1479.6722,-190.9106 1480.6313,-197.8445"/>
</g>
<!-- Node38 -->
<g id="node27" class="node">
<title>Node38</title>
<g id="a_node27"><a xlink:href="discrete__function_8hh.html" target="_top" xlink:title="discrete_function.hh">
<polygon fill="none" stroke="#000000" points="1098.4862,-112.5 1098.4862,-131.5 1202.4862,-131.5 1202.4862,-112.5 1098.4862,-112.5"/>
<text text-anchor="middle" x="1150.4862" y="-119.5" font-family="Helvetica,sans-Serif" font-size="10.00" fill="#000000">discrete_function.hh</text>
</a>
</g>
</g>
<!-- Node9&#45;&gt;Node38 -->
<g id="edge44" class="edge">
<title>Node9&#45;&gt;Node38</title>
<path fill="none" stroke="#191970" d="M593.6842,-247.9675C685.8172,-241.7915 909.7341,-224.565 980.4862,-199 1004.3705,-190.3698 1005.8099,-179.4334 1028.4862,-168 1054.8668,-154.6989 1086.0595,-143.0037 1110.3004,-134.7342"/>
<polygon fill="#191970" stroke="#191970" points="1111.5258,-138.0149 1119.8933,-131.5161 1109.2994,-131.3784 1111.5258,-138.0149"/>
</g>
<!-- Node39 -->
<g id="node28" class="node">
<title>Node39</title>
<g id="a_node28"><a xlink:href="util_8hh.html" target="_top" xlink:title="util.hh">
<polygon fill="none" stroke="#ff0000" points="227.9862,-174 227.9862,-193 270.9862,-193 270.9862,-174 227.9862,-174"/>
<text text-anchor="middle" x="249.4862" y="-181" font-family="Helvetica,sans-Serif" font-size="10.00" fill="#000000">util.hh</text>
</a>
</g>
</g>
<!-- Node9&#45;&gt;Node39 -->
<g id="edge45" class="edge">
<title>Node9&#45;&gt;Node39</title>
<path fill="none" stroke="#191970" d="M513.3224,-245.5503C460.3264,-238.3952 364.5137,-223.291 285.4862,-199 283.3723,-198.3502 281.2149,-197.6156 279.0591,-196.8282"/>
<polygon fill="#191970" stroke="#191970" points="280.3441,-193.5727 269.7582,-193.1371 277.7619,-200.079 280.3441,-193.5727"/>
</g>
<!-- Node17 -->
<g id="node18" class="node">
<title>Node17</title>
<polygon fill="none" stroke="#bfbfbf" points="1266.9862,-.5 1266.9862,-19.5 1333.9862,-19.5 1333.9862,-.5 1266.9862,-.5"/>
<text text-anchor="middle" x="1300.4862" y="-7.5" font-family="Helvetica,sans-Serif" font-size="10.00" fill="#000000">blitz/array.h</text>
</g>
<!-- Node16&#45;&gt;Node17 -->
<g id="edge17" class="edge">
<title>Node16&#45;&gt;Node17</title>
<path fill="none" stroke="#191970" d="M1300.4862,-56.2455C1300.4862,-48.9382 1300.4862,-38.6944 1300.4862,-29.7046"/>
<polygon fill="#191970" stroke="#191970" points="1303.9863,-29.6426 1300.4862,-19.6427 1296.9863,-29.6427 1303.9863,-29.6426"/>
</g>
<!-- Node18&#45;&gt;Node16 -->
<g id="edge19" class="edge">
<title>Node18&#45;&gt;Node16</title>
<path fill="none" stroke="#191970" d="M1255.8923,-112.2455C1263.6355,-104.2155 1274.7982,-92.6394 1284.018,-83.0781"/>
<polygon fill="#191970" stroke="#191970" points="1286.766,-85.2706 1291.1879,-75.6427 1281.727,-80.4117 1286.766,-85.2706"/>
</g>
<!-- Node19&#45;&gt;Node11 -->
<g id="edge21" class="edge">
<title>Node19&#45;&gt;Node11</title>
<path fill="none" stroke="#191970" d="M607.4862,-112.4509C607.4862,-94.184 607.4862,-53.9553 607.4862,-29.6976"/>
<polygon fill="#191970" stroke="#191970" points="610.9863,-29.5249 607.4862,-19.5249 603.9863,-29.5249 610.9863,-29.5249"/>
</g>
<!-- Node19&#45;&gt;Node12 -->
<g id="edge22" class="edge">
<title>Node19&#45;&gt;Node12</title>
<path fill="none" stroke="#191970" d="M553.2623,-112.4875C509.209,-103.9094 451.3907,-90.4525 432.4862,-76 417.1029,-64.2395 406.884,-44.3345 400.9553,-29.4527"/>
<polygon fill="#191970" stroke="#191970" points="404.1071,-27.8809 397.3839,-19.6925 397.5334,-30.2863 404.1071,-27.8809"/>
</g>
<!-- Node19&#45;&gt;Node16 -->
<g id="edge36" class="edge">
<title>Node19&#45;&gt;Node16</title>
<path fill="none" stroke="#191970" d="M671.7494,-116.807C813.7996,-105.3282 1150.7916,-78.0965 1263.2374,-69.01"/>
<polygon fill="#191970" stroke="#191970" points="1263.7186,-72.4826 1273.4042,-68.1884 1263.1547,-65.5054 1263.7186,-72.4826"/>
</g>
<!-- Node19&#45;&gt;Node20 -->
<g id="edge23" class="edge">
<title>Node19&#45;&gt;Node20</title>
<path fill="none" stroke="#191970" d="M640.836,-112.3733C676.5298,-102.0699 732.8109,-85.8238 768.4021,-75.55"/>
<polygon fill="#191970" stroke="#191970" points="769.6604,-78.8298 778.2975,-72.6936 767.719,-72.1044 769.6604,-78.8298"/>
</g>
<!-- Node19&#45;&gt;Node24 -->
<g id="edge25" class="edge">
<title>Node19&#45;&gt;Node24</title>
<path fill="none" stroke="#191970" d="M586.1698,-112.3733C566.2646,-103.3838 536.3426,-89.8706 513.9262,-79.7471"/>
<polygon fill="#191970" stroke="#191970" points="515.0787,-76.4272 504.5244,-75.5011 512.1975,-82.8068 515.0787,-76.4272"/>
</g>
<!-- Node27 -->
<g id="node25" class="node">
<title>Node27</title>
<g id="a_node25"><a xlink:href="parallel__mt_8hh.html" target="_top" xlink:title="parallel_mt.hh">
<polygon fill="none" stroke="#ff0000" points="117.9862,-56.5 117.9862,-75.5 194.9862,-75.5 194.9862,-56.5 117.9862,-56.5"/>
<text text-anchor="middle" x="156.4862" y="-63.5" font-family="Helvetica,sans-Serif" font-size="10.00" fill="#000000">parallel_mt.hh</text>
</a>
</g>
</g>
<!-- Node19&#45;&gt;Node27 -->
<g id="edge31" class="edge">
<title>Node19&#45;&gt;Node27</title>
<path fill="none" stroke="#191970" d="M543.3478,-114.036C452.1607,-102.7135 287.0476,-82.2116 205.1947,-72.0481"/>
<polygon fill="#191970" stroke="#191970" points="205.5165,-68.5612 195.1614,-70.8022 204.6538,-75.5079 205.5165,-68.5612"/>
</g>
<!-- Node20&#45;&gt;Node11 -->
<g id="edge24" class="edge">
<title>Node20&#45;&gt;Node11</title>
<path fill="none" stroke="#191970" d="M778.47,-59.3562C744.5845,-49.5748 681.0425,-31.2327 641.6883,-19.8728"/>
<polygon fill="#191970" stroke="#191970" points="642.5749,-16.4859 631.9965,-17.0751 640.6335,-23.2113 642.5749,-16.4859"/>
</g>
<!-- Node24&#45;&gt;Node11 -->
<g id="edge27" class="edge">
<title>Node24&#45;&gt;Node11</title>
<path fill="none" stroke="#191970" d="M504.8025,-56.3733C524.7078,-47.3838 554.6298,-33.8706 577.0462,-23.7471"/>
<polygon fill="#191970" stroke="#191970" points="578.7748,-26.8068 586.448,-19.5011 575.8937,-20.4272 578.7748,-26.8068"/>
</g>
<!-- Node24&#45;&gt;Node12 -->
<g id="edge28" class="edge">
<title>Node24&#45;&gt;Node12</title>
<path fill="none" stroke="#191970" d="M467.9836,-56.2455C454.3282,-47.6534 434.2205,-35.0014 418.4873,-25.1018"/>
<polygon fill="#191970" stroke="#191970" points="420.1391,-22.006 409.8111,-19.6427 416.4111,-27.9307 420.1391,-22.006"/>
</g>
<!-- Node24&#45;&gt;Node13 -->
<g id="edge29" class="edge">
<title>Node24&#45;&gt;Node13</title>
<path fill="none" stroke="#191970" d="M454.434,-56.3733C423.9099,-46.2587 376.1029,-30.4174 345.0297,-20.1209"/>
<polygon fill="#191970" stroke="#191970" points="345.7758,-16.6811 335.1825,-16.8579 343.574,-23.3258 345.7758,-16.6811"/>
</g>
<!-- Node25 -->
<g id="node23" class="node">
<title>Node25</title>
<polygon fill="none" stroke="#bfbfbf" points="462.9862,-.5 462.9862,-19.5 503.9862,-19.5 503.9862,-.5 462.9862,-.5"/>
<text text-anchor="middle" x="483.4862" y="-7.5" font-family="Helvetica,sans-Serif" font-size="10.00" fill="#000000">bitset</text>
</g>
<!-- Node24&#45;&gt;Node25 -->
<g id="edge26" class="edge">
<title>Node24&#45;&gt;Node25</title>
<path fill="none" stroke="#191970" d="M483.4862,-56.2455C483.4862,-48.9382 483.4862,-38.6944 483.4862,-29.7046"/>
<polygon fill="#191970" stroke="#191970" points="486.9863,-29.6426 483.4862,-19.6427 479.9863,-29.6427 486.9863,-29.6426"/>
</g>
<!-- Node26 -->
<g id="node24" class="node">
<title>Node26</title>
<polygon fill="none" stroke="#bfbfbf" points="1543.4862,-.5 1543.4862,-19.5 1605.4862,-19.5 1605.4862,-.5 1543.4862,-.5"/>
<text text-anchor="middle" x="1574.4862" y="-7.5" font-family="Helvetica,sans-Serif" font-size="10.00" fill="#000000">type_traits</text>
</g>
<!-- Node24&#45;&gt;Node26 -->
<g id="edge30" class="edge">
<title>Node24&#45;&gt;Node26</title>
<path fill="none" stroke="#191970" d="M525.2537,-63.8561C698.6767,-54.9545 1360.9315,-20.9616 1533.2853,-12.1148"/>
<polygon fill="#191970" stroke="#191970" points="1533.6504,-15.6008 1543.4578,-11.5927 1533.2915,-8.61 1533.6504,-15.6008"/>
</g>
<!-- Node27&#45;&gt;Node1 -->
<g id="edge32" class="edge">
<title>Node27&#45;&gt;Node1</title>
<path fill="none" stroke="#191970" d="M135.3417,-56.3733C115.597,-47.3838 85.9163,-33.8706 63.6807,-23.7471"/>
<polygon fill="#191970" stroke="#191970" points="64.9061,-20.4594 54.3547,-19.5011 62.0056,-26.8302 64.9061,-20.4594"/>
</g>
<!-- Node27&#45;&gt;Node3 -->
<g id="edge35" class="edge">
<title>Node27&#45;&gt;Node3</title>
<path fill="none" stroke="#191970" d="M149.5187,-56.2455C143.9551,-48.4564 136.0082,-37.3308 129.3033,-27.9439"/>
<polygon fill="#191970" stroke="#191970" points="132.0343,-25.7457 123.3738,-19.6427 126.3382,-29.8144 132.0343,-25.7457"/>
</g>
<!-- Node27&#45;&gt;Node7 -->
<g id="edge34" class="edge">
<title>Node27&#45;&gt;Node7</title>
<path fill="none" stroke="#191970" d="M164.1504,-56.2455C170.3335,-48.3761 179.1925,-37.101 186.615,-27.6542"/>
<polygon fill="#191970" stroke="#191970" points="189.4837,-29.6683 192.9098,-19.6427 183.9794,-25.3435 189.4837,-29.6683"/>
</g>
<!-- Node27&#45;&gt;Node11 -->
<g id="edge33" class="edge">
<title>Node27&#45;&gt;Node11</title>
<path fill="none" stroke="#191970" d="M195.3285,-61.177C282.0157,-50.4132 490.1209,-24.5731 572.7846,-14.3088"/>
<polygon fill="#191970" stroke="#191970" points="573.4185,-17.7571 582.911,-13.0515 572.5559,-10.8104 573.4185,-17.7571"/>
</g>
<!-- Node36&#45;&gt;Node16 -->
<g id="edge40" class="edge">
<title>Node36&#45;&gt;Node16</title>
<path fill="none" stroke="#191970" d="M1542.8836,-173.5438C1530.4878,-158.0148 1504.3866,-128.1383 1475.4862,-112 1431.8004,-87.6054 1374.7319,-75.7595 1337.8446,-70.2906"/>
<polygon fill="#191970" stroke="#191970" points="1337.9311,-66.7688 1327.543,-68.8515 1336.9626,-73.7014 1337.9311,-66.7688"/>
</g>
<!-- Node36&#45;&gt;Node38 -->
<g id="edge41" class="edge">
<title>Node36&#45;&gt;Node38</title>
<path fill="none" stroke="#191970" d="M1489.8278,-174.504C1424.0939,-164.7058 1315.8304,-148.4252 1212.6871,-132.1768"/>
<polygon fill="#191970" stroke="#191970" points="1213.1464,-128.7061 1202.7231,-130.6048 1212.0554,-135.6206 1213.1464,-128.7061"/>
</g>
<!-- Node38&#45;&gt;Node16 -->
<g id="edge43" class="edge">
<title>Node38&#45;&gt;Node16</title>
<path fill="none" stroke="#191970" d="M1176.2721,-112.3733C1200.8909,-103.1822 1238.1762,-89.2624 1265.4736,-79.0713"/>
<polygon fill="#191970" stroke="#191970" points="1266.8925,-82.2777 1275.0367,-75.5011 1264.4442,-75.7198 1266.8925,-82.2777"/>
</g>
<!-- Node38&#45;&gt;Node20 -->
<g id="edge42" class="edge">
<title>Node38&#45;&gt;Node20</title>
<path fill="none" stroke="#191970" d="M1098.2374,-113.6162C1025.5867,-101.9588 896.121,-81.1849 835.0866,-71.3915"/>
<polygon fill="#191970" stroke="#191970" points="835.2882,-67.8791 824.86,-69.7505 834.1792,-74.7907 835.2882,-67.8791"/>
</g>
<!-- Node39&#45;&gt;Node4 -->
<g id="edge47" class="edge">
<title>Node39&#45;&gt;Node4</title>
<path fill="none" stroke="#191970" d="M243.0799,-173.8906C237.0975,-164.917 228.0115,-151.2879 220.6523,-140.2491"/>
<polygon fill="#191970" stroke="#191970" points="223.442,-138.1239 214.9827,-131.7449 217.6176,-142.0068 223.442,-138.1239"/>
</g>
<!-- Node39&#45;&gt;Node12 -->
<g id="edge46" class="edge">
<title>Node39&#45;&gt;Node12</title>
<path fill="none" stroke="#191970" d="M253.2162,-173.872C262.3725,-151.1796 287.8363,-93.4414 323.4862,-56 335.5004,-43.382 351.6255,-32.5807 365.4719,-24.6218"/>
<polygon fill="#191970" stroke="#191970" points="367.5495,-27.4731 374.6154,-19.5785 364.1686,-21.3436 367.5495,-27.4731"/>
</g>
<!-- Node42&#45;&gt;Node15 -->
<g id="edge49" class="edge">
<title>Node42&#45;&gt;Node15</title>
<path fill="none" stroke="#191970" d="M1188.3386,-369.3596C1178.8271,-360.6492 1165.3253,-347.0706 1156.4862,-333 1129.5665,-290.1476 1111.6331,-232.7741 1103.4969,-203.1074"/>
<polygon fill="#191970" stroke="#191970" points="1106.8104,-201.9481 1100.8601,-193.182 1100.0451,-203.7455 1106.8104,-201.9481"/>
</g>
<!-- Node43 -->
<g id="node30" class="node">
<title>Node43</title>
<g id="a_node30"><a xlink:href="ar__model_8hh.html" target="_top" xlink:title="generator/ar_model.hh">
<polygon fill="none" stroke="#ff0000" points="1319.9862,-174 1319.9862,-193 1432.9862,-193 1432.9862,-174 1319.9862,-174"/>
<text text-anchor="middle" x="1376.4862" y="-181" font-family="Helvetica,sans-Serif" font-size="10.00" fill="#000000">generator/ar_model.hh</text>
</a>
</g>
</g>
<!-- Node42&#45;&gt;Node43 -->
<g id="edge50" class="edge">
<title>Node42&#45;&gt;Node43</title>
<path fill="none" stroke="#191970" d="M1212.1585,-369.2572C1223.6,-360.264 1240.7037,-346.3241 1254.4862,-333 1299.0394,-289.9283 1342.9049,-231.0449 1363.8144,-201.6889"/>
<polygon fill="#191970" stroke="#191970" points="1366.8617,-203.4411 1369.7683,-193.2527 1361.1426,-199.4047 1366.8617,-203.4411"/>
</g>
<!-- Node57 -->
<g id="node31" class="node">
<title>Node57</title>
<g id="a_node31"><a xlink:href="ma__model_8hh.html" target="_top" xlink:title="generator/ma_model.hh">
<polygon fill="none" stroke="#ff0000" points="1182.9862,-174 1182.9862,-193 1301.9862,-193 1301.9862,-174 1182.9862,-174"/>
<text text-anchor="middle" x="1242.4862" y="-181" font-family="Helvetica,sans-Serif" font-size="10.00" fill="#000000">generator/ma_model.hh</text>
</a>
</g>
</g>
<!-- Node42&#45;&gt;Node57 -->
<g id="edge54" class="edge">
<title>Node42&#45;&gt;Node57</title>
<path fill="none" stroke="#191970" d="M1188.336,-369.3293C1179.4191,-360.8007 1167.5941,-347.5 1162.4862,-333 1155.377,-312.8188 1164.8025,-242.9891 1169.4862,-235 1178.9703,-218.8225 1195.7791,-206.4385 1210.8784,-197.8732"/>
<polygon fill="#191970" stroke="#191970" points="1212.7925,-200.8195 1219.9781,-193.0338 1209.5056,-194.6391 1212.7925,-200.8195"/>
</g>
<!-- Node59 -->
<g id="node32" class="node">
<title>Node59</title>
<g id="a_node32"><a xlink:href="arma__model_8hh.html" target="_top" xlink:title="generator/arma_model.hh">
<polygon fill="none" stroke="#000000" points="1178.9862,-241 1178.9862,-260 1305.9862,-260 1305.9862,-241 1178.9862,-241"/>
<text text-anchor="middle" x="1242.4862" y="-248" font-family="Helvetica,sans-Serif" font-size="10.00" fill="#000000">generator/arma_model.hh</text>
</a>
</g>
</g>
<!-- Node42&#45;&gt;Node59 -->
<g id="edge58" class="edge">
<title>Node42&#45;&gt;Node59</title>
<path fill="none" stroke="#191970" d="M1210.3675,-369.229C1219.1203,-360.6393 1230.8554,-347.3051 1236.4862,-333 1244.4351,-312.8054 1245.09,-287.7033 1244.2925,-270.5254"/>
<polygon fill="#191970" stroke="#191970" points="1247.751,-269.796 1243.5801,-260.0567 1240.7672,-270.2713 1247.751,-269.796"/>
</g>
<!-- Node60 -->
<g id="node33" class="node">
<title>Node60</title>
<g id="a_node33"><a xlink:href="plain__wave__model_8hh.html" target="_top" xlink:title="generator/plain_wave\l_model.hh">
<polygon fill="none" stroke="#ff0000" points="697.9862,-168.5 697.9862,-198.5 806.9862,-198.5 806.9862,-168.5 697.9862,-168.5"/>
<text text-anchor="start" x="705.9862" y="-186.5" font-family="Helvetica,sans-Serif" font-size="10.00" fill="#000000">generator/plain_wave</text>
<text text-anchor="middle" x="752.4862" y="-175.5" font-family="Helvetica,sans-Serif" font-size="10.00" fill="#000000">_model.hh</text>
</a>
</g>
</g>
<!-- Node42&#45;&gt;Node60 -->
<g id="edge63" class="edge">
<title>Node42&#45;&gt;Node60</title>
<path fill="none" stroke="#191970" d="M1170.2341,-369.4719C1143.8868,-360.6771 1104.2295,-346.9098 1070.4862,-333 967.9632,-290.7377 850.7042,-233.1172 791.3267,-203.2571"/>
<polygon fill="#191970" stroke="#191970" points="792.8102,-200.0854 782.3051,-198.7097 789.6594,-206.3362 792.8102,-200.0854"/>
</g>
<!-- Node61 -->
<g id="node34" class="node">
<title>Node61</title>
<g id="a_node34"><a xlink:href="lh__model_8hh.html" target="_top" xlink:title="generator/lh_model.hh">
<polygon fill="none" stroke="#ff0000" points="824.9862,-174 824.9862,-193 937.9862,-193 937.9862,-174 824.9862,-174"/>
<text text-anchor="middle" x="881.4862" y="-181" font-family="Helvetica,sans-Serif" font-size="10.00" fill="#000000">generator/lh_model.hh</text>
</a>
</g>
</g>
<!-- Node42&#45;&gt;Node61 -->
<g id="edge69" class="edge">
<title>Node42&#45;&gt;Node61</title>
<path fill="none" stroke="#191970" d="M1183.7165,-369.3051C1132.1009,-337.5729 967.9601,-236.6624 905.7257,-198.402"/>
<polygon fill="#191970" stroke="#191970" points="907.328,-195.2785 896.976,-193.0229 903.6619,-201.2418 907.328,-195.2785"/>
</g>
<!-- Node62 -->
<g id="node35" class="node">
<title>Node62</title>
<g id="a_node35"><a xlink:href="high__amplitude__solver_8hh.html" target="_top" xlink:title="velocity/high_amplitude\l_solver.hh">
<polygon fill="none" stroke="#000000" points="1438.9862,-302.5 1438.9862,-332.5 1557.9862,-332.5 1557.9862,-302.5 1438.9862,-302.5"/>
<text text-anchor="start" x="1446.9862" y="-320.5" font-family="Helvetica,sans-Serif" font-size="10.00" fill="#000000">velocity/high_amplitude</text>
<text text-anchor="middle" x="1498.4862" y="-309.5" font-family="Helvetica,sans-Serif" font-size="10.00" fill="#000000">_solver.hh</text>
</a>
</g>
</g>
<!-- Node42&#45;&gt;Node62 -->
<g id="edge76" class="edge">
<title>Node42&#45;&gt;Node62</title>
<path fill="none" stroke="#191970" d="M1238.117,-371.1609C1282.9466,-362.0503 1359.0888,-346.534 1424.4862,-333 1425.9322,-332.7007 1427.3941,-332.3979 1428.8675,-332.0922"/>
<polygon fill="#191970" stroke="#191970" points="1429.6385,-335.5069 1438.7169,-330.045 1428.2139,-328.6534 1429.6385,-335.5069"/>
</g>
<!-- Node63 -->
<g id="node36" class="node">
<title>Node63</title>
<g id="a_node36"><a xlink:href="linear__solver_8hh.html" target="_top" xlink:title="linear_solver.hh">
<polygon fill="none" stroke="#ff0000" points="1482.4862,-241 1482.4862,-260 1566.4862,-260 1566.4862,-241 1482.4862,-241"/>
<text text-anchor="middle" x="1524.4862" y="-248" font-family="Helvetica,sans-Serif" font-size="10.00" fill="#000000">linear_solver.hh</text>
</a>
</g>
</g>
<!-- Node42&#45;&gt;Node63 -->
<g id="edge80" class="edge">
<title>Node42&#45;&gt;Node63</title>
<path fill="none" stroke="#191970" d="M1238.2636,-372.4601C1275.258,-365.4326 1332.0651,-352.5638 1378.4862,-333 1402.9297,-322.6985 1406.4861,-315.2137 1429.4862,-302 1452.0302,-289.0483 1478.0066,-275.0268 1497.0923,-264.8894"/>
<polygon fill="#191970" stroke="#191970" points="1498.9251,-267.8794 1506.126,-260.1077 1495.6504,-261.6926 1498.9251,-267.8794"/>
</g>
<!-- Node71 -->
<g id="node37" class="node">
<title>Node71</title>
<g id="a_node37"><a xlink:href="plain__wave__solver_8hh.html" target="_top" xlink:title="velocity/plain_wave\l_solver.hh">
<polygon fill="none" stroke="#000000" points="1362.4862,-235.5 1362.4862,-265.5 1464.4862,-265.5 1464.4862,-235.5 1362.4862,-235.5"/>
<text text-anchor="start" x="1370.4862" y="-253.5" font-family="Helvetica,sans-Serif" font-size="10.00" fill="#000000">velocity/plain_wave</text>
<text text-anchor="middle" x="1413.4862" y="-242.5" font-family="Helvetica,sans-Serif" font-size="10.00" fill="#000000">_solver.hh</text>
</a>
</g>
</g>
<!-- Node42&#45;&gt;Node71 -->
<g id="edge81" class="edge">
<title>Node42&#45;&gt;Node71</title>
<path fill="none" stroke="#191970" d="M1238.0658,-373.6314C1269.9059,-367.743 1315.1153,-355.9022 1348.4862,-333 1370.6078,-317.8181 1388.7731,-292.8338 1400.222,-274.3308"/>
<polygon fill="#191970" stroke="#191970" points="1403.3209,-275.9676 1405.4364,-265.586 1397.3087,-272.3825 1403.3209,-275.9676"/>
</g>
<!-- Node72 -->
<g id="node38" class="node">
<title>Node72</title>
<g id="a_node38"><a xlink:href="profile_8hh.html" target="_top" xlink:title="profile.hh">
<polygon fill="none" stroke="#000000" points="1171.4862,-308 1171.4862,-327 1227.4862,-327 1227.4862,-308 1171.4862,-308"/>
<text text-anchor="middle" x="1199.4862" y="-315" font-family="Helvetica,sans-Serif" font-size="10.00" fill="#000000">profile.hh</text>
</a>
</g>
</g>
<!-- Node42&#45;&gt;Node72 -->
<g id="edge85" class="edge">
<title>Node42&#45;&gt;Node72</title>
<path fill="none" stroke="#191970" d="M1199.4862,-369.3906C1199.4862,-360.8657 1199.4862,-348.1392 1199.4862,-337.4235"/>
<polygon fill="#191970" stroke="#191970" points="1202.9863,-337.2448 1199.4862,-327.2449 1195.9863,-337.2449 1202.9863,-337.2448"/>
</g>
<!-- Node43&#45;&gt;Node16 -->
<g id="edge53" class="edge">
<title>Node43&#45;&gt;Node16</title>
<path fill="none" stroke="#191970" d="M1370.2668,-173.8845C1357.6298,-154.3471 1328.7654,-109.7211 1312.3943,-84.4106"/>
<polygon fill="#191970" stroke="#191970" points="1315.1614,-82.2442 1306.7915,-75.7484 1309.2838,-86.0459 1315.1614,-82.2442"/>
</g>
<!-- Node43&#45;&gt;Node18 -->
<g id="edge51" class="edge">
<title>Node43&#45;&gt;Node18</title>
<path fill="none" stroke="#191970" d="M1356.1737,-173.8906C1334.6131,-163.6908 1300.3384,-147.4763 1275.8418,-135.8875"/>
<polygon fill="#191970" stroke="#191970" points="1277.1923,-132.6545 1266.656,-131.5419 1274.1988,-138.9822 1277.1923,-132.6545"/>
</g>
<!-- Node43&#45;&gt;Node38 -->
<g id="edge52" class="edge">
<title>Node43&#45;&gt;Node38</title>
<path fill="none" stroke="#191970" d="M1341.1737,-173.8906C1301.8671,-163.1944 1238.2535,-145.8836 1195.4268,-134.2294"/>
<polygon fill="#191970" stroke="#191970" points="1196.1189,-130.7905 1185.5507,-131.5419 1194.2808,-137.5449 1196.1189,-130.7905"/>
</g>
<!-- Node57&#45;&gt;Node16 -->
<g id="edge57" class="edge">
<title>Node57&#45;&gt;Node16</title>
<path fill="none" stroke="#191970" d="M1251.4365,-173.9743C1260.2261,-164.1514 1273.4519,-148.0456 1281.4862,-132 1288.8267,-117.34 1293.7631,-99.388 1296.7604,-85.9094"/>
<polygon fill="#191970" stroke="#191970" points="1300.2511,-86.3095 1298.8321,-75.8101 1293.3939,-84.9028 1300.2511,-86.3095"/>
</g>
<!-- Node57&#45;&gt;Node18 -->
<g id="edge55" class="edge">
<title>Node57&#45;&gt;Node18</title>
<path fill="none" stroke="#191970" d="M1243.1112,-173.8906C1243.6656,-165.3657 1244.4934,-152.6392 1245.1903,-141.9235"/>
<polygon fill="#191970" stroke="#191970" points="1248.6959,-141.951 1245.8524,-131.7449 1241.7106,-141.4966 1248.6959,-141.951"/>
</g>
<!-- Node57&#45;&gt;Node38 -->
<g id="edge56" class="edge">
<title>Node57&#45;&gt;Node38</title>
<path fill="none" stroke="#191970" d="M1228.1112,-173.8906C1213.393,-164.0519 1190.303,-148.6167 1173.1272,-137.1351"/>
<polygon fill="#191970" stroke="#191970" points="1175.0189,-134.1896 1164.7602,-131.5419 1171.1287,-140.0091 1175.0189,-134.1896"/>
</g>
<!-- Node59&#45;&gt;Node16 -->
<g id="edge62" class="edge">
<title>Node59&#45;&gt;Node16</title>
<path fill="none" stroke="#191970" d="M1306.1094,-242.5258C1357.8412,-234.581 1424.8834,-220.4464 1441.4862,-199 1479.6895,-149.6514 1388.5417,-102.0027 1335.4077,-79.4898"/>
<polygon fill="#191970" stroke="#191970" points="1336.547,-76.1735 1325.9686,-75.584 1333.8705,-82.6416 1336.547,-76.1735"/>
</g>
<!-- Node59&#45;&gt;Node38 -->
<g id="edge60" class="edge">
<title>Node59&#45;&gt;Node38</title>
<path fill="none" stroke="#191970" d="M1223.7102,-240.9531C1208.0985,-232.0946 1186.4155,-217.5014 1173.4862,-199 1161.5384,-181.9033 1155.7014,-158.5151 1152.9126,-142.0143"/>
<polygon fill="#191970" stroke="#191970" points="1156.3373,-141.2434 1151.4313,-131.853 1149.4105,-142.2533 1156.3373,-141.2434"/>
</g>
<!-- Node59&#45;&gt;Node43 -->
<g id="edge59" class="edge">
<title>Node59&#45;&gt;Node43</title>
<path fill="none" stroke="#191970" d="M1261.6851,-240.9005C1284.3723,-229.5569 1322.3175,-210.5844 1348.3297,-197.5783"/>
<polygon fill="#191970" stroke="#191970" points="1349.9438,-200.6843 1357.3229,-193.0817 1346.8133,-194.4234 1349.9438,-200.6843"/>
</g>
<!-- Node59&#45;&gt;Node57 -->
<g id="edge61" class="edge">
<title>Node59&#45;&gt;Node57</title>
<path fill="none" stroke="#191970" d="M1242.4862,-240.9005C1242.4862,-231.149 1242.4862,-215.7597 1242.4862,-203.3695"/>
<polygon fill="#191970" stroke="#191970" points="1245.9863,-203.0816 1242.4862,-193.0817 1238.9863,-203.0817 1245.9863,-203.0816"/>
</g>
<!-- Node60&#45;&gt;Node11 -->
<g id="edge64" class="edge">
<title>Node60&#45;&gt;Node11</title>
<path fill="none" stroke="#191970" d="M739.872,-168.4065C713.0672,-136.3331 650.5652,-61.5463 622.0888,-27.4728"/>
<polygon fill="#191970" stroke="#191970" points="624.7229,-25.1667 615.6246,-19.738 619.3517,-29.6556 624.7229,-25.1667"/>
</g>
<!-- Node60&#45;&gt;Node12 -->
<g id="edge65" class="edge">
<title>Node60&#45;&gt;Node12</title>
<path fill="none" stroke="#191970" d="M697.9126,-173.637C611.3448,-156.8402 448.5299,-120.1744 411.4862,-76 400.6877,-63.1229 396.6386,-44.2187 395.1735,-29.939"/>
<polygon fill="#191970" stroke="#191970" points="398.6463,-29.4202 394.473,-19.6819 391.6626,-29.8972 398.6463,-29.4202"/>
</g>
<!-- Node60&#45;&gt;Node16 -->
<g id="edge66" class="edge">
<title>Node60&#45;&gt;Node16</title>
<path fill="none" stroke="#191970" d="M781.4004,-168.411C814.5485,-151.8139 870.9625,-125.685 922.4862,-112 1044.391,-79.6212 1194.5482,-69.9546 1263.1336,-67.1308"/>
<polygon fill="#191970" stroke="#191970" points="1263.5662,-70.6169 1273.4239,-66.734 1263.2964,-63.6221 1263.5662,-70.6169"/>
</g>
<!-- Node60&#45;&gt;Node19 -->
<g id="edge68" class="edge">
<title>Node60&#45;&gt;Node19</title>
<path fill="none" stroke="#191970" d="M717.0152,-168.4554C693.246,-158.374 662.2182,-145.2139 639.2577,-135.4755"/>
<polygon fill="#191970" stroke="#191970" points="640.5289,-132.2129 629.956,-131.5303 637.7955,-138.6572 640.5289,-132.2129"/>
</g>
<!-- Node60&#45;&gt;Node38 -->
<g id="edge67" class="edge">
<title>Node60&#45;&gt;Node38</title>
<path fill="none" stroke="#191970" d="M807.045,-169.7059C809.8939,-169.1018 812.7203,-168.5286 815.4862,-168 909.9588,-149.9437 1020.7218,-136.1579 1088.228,-128.5722"/>
<polygon fill="#191970" stroke="#191970" points="1088.7231,-132.0388 1098.2742,-127.4533 1087.9482,-125.0818 1088.7231,-132.0388"/>
</g>
<!-- Node61&#45;&gt;Node11 -->
<g id="edge70" class="edge">
<title>Node61&#45;&gt;Node11</title>
<path fill="none" stroke="#191970" d="M880.895,-173.7291C878.8858,-149.6777 870.2101,-87.296 833.4862,-56 805.0706,-31.7844 698.131,-18.4392 642.1462,-12.977"/>
<polygon fill="#191970" stroke="#191970" points="642.276,-9.4738 631.9912,-12.0183 641.618,-16.4428 642.276,-9.4738"/>
</g>
<!-- Node61&#45;&gt;Node12 -->
<g id="edge71" class="edge">
<title>Node61&#45;&gt;Node12</title>
<path fill="none" stroke="#191970" d="M856.259,-173.9464C799.0525,-152.3507 655.0039,-98.3562 533.4862,-56 498.6409,-43.8544 458.6164,-30.6912 430.4921,-21.5703"/>
<polygon fill="#191970" stroke="#191970" points="431.2925,-18.1507 420.7006,-18.4023 429.1375,-24.8108 431.2925,-18.1507"/>
</g>
<!-- Node61&#45;&gt;Node16 -->
<g id="edge72" class="edge">
<title>Node61&#45;&gt;Node16</title>
<path fill="none" stroke="#191970" d="M887.7916,-173.8834C898.8016,-157.9827 923.1759,-126.5277 952.4862,-112 1006.4615,-85.2469 1184.6174,-72.3806 1262.961,-67.9079"/>
<polygon fill="#191970" stroke="#191970" points="1263.5394,-71.3813 1273.3299,-67.332 1263.1511,-64.3921 1263.5394,-71.3813"/>
</g>
<!-- Node61&#45;&gt;Node19 -->
<g id="edge75" class="edge">
<title>Node61&#45;&gt;Node19</title>
<path fill="none" stroke="#191970" d="M841.3679,-173.9902C832.8297,-171.991 823.8634,-169.9099 815.4862,-168 763.1868,-156.0762 703.382,-142.8978 661.3645,-133.7139"/>
<polygon fill="#191970" stroke="#191970" points="661.8646,-130.2407 651.3481,-131.5266 660.3712,-137.0795 661.8646,-130.2407"/>
</g>
<!-- Node61&#45;&gt;Node20 -->
<g id="edge74" class="edge">
<title>Node61&#45;&gt;Node20</title>
<path fill="none" stroke="#191970" d="M872.3416,-173.6793C863.2135,-163.6269 849.0602,-147.3463 838.4862,-132 828.0331,-116.8292 817.9283,-98.4718 810.9275,-84.9727"/>
<polygon fill="#191970" stroke="#191970" points="813.8791,-83.0555 806.2247,-75.7301 807.6403,-86.23 813.8791,-83.0555"/>
</g>
<!-- Node61&#45;&gt;Node38 -->
<g id="edge73" class="edge">
<title>Node61&#45;&gt;Node38</title>
<path fill="none" stroke="#191970" d="M923.2223,-173.9581C970.5377,-163.1406 1047.7154,-145.4959 1098.7998,-133.8168"/>
<polygon fill="#191970" stroke="#191970" points="1099.6838,-137.2051 1108.6522,-131.5643 1098.1236,-130.3811 1099.6838,-137.2051"/>
</g>
<!-- Node62&#45;&gt;Node16 -->
<g id="edge77" class="edge">
<title>Node62&#45;&gt;Node16</title>
<path fill="none" stroke="#191970" d="M1532.5123,-302.3591C1582.8056,-277.6684 1667.9343,-225.6649 1637.4862,-168 1616.8797,-128.974 1596.3242,-128.7306 1555.4862,-112 1482.0348,-81.9084 1388.6935,-71.445 1337.7754,-67.8479"/>
<polygon fill="#191970" stroke="#191970" points="1337.7837,-64.341 1327.5763,-67.1799 1337.3262,-71.3261 1337.7837,-64.341"/>
</g>
<!-- Node62&#45;&gt;Node63 -->
<g id="edge78" class="edge">
<title>Node62&#45;&gt;Node63</title>
<path fill="none" stroke="#191970" d="M1504.386,-302.2967C1508.1616,-292.5672 1513.0898,-279.8675 1517.1214,-269.4784"/>
<polygon fill="#191970" stroke="#191970" points="1520.4234,-270.6439 1520.7783,-260.055 1513.8975,-268.1114 1520.4234,-270.6439"/>
</g>
<!-- Node63&#45;&gt;Node36 -->
<g id="edge79" class="edge">
<title>Node63&#45;&gt;Node36</title>
<path fill="none" stroke="#191970" d="M1528.2113,-240.9005C1532.0727,-230.95 1538.2121,-215.1292 1543.0685,-202.6147"/>
<polygon fill="#191970" stroke="#191970" points="1546.413,-203.6706 1546.7679,-193.0817 1539.8872,-201.1381 1546.413,-203.6706"/>
</g>
<!-- Node71&#45;&gt;Node16 -->
<g id="edge84" class="edge">
<title>Node71&#45;&gt;Node16</title>
<path fill="none" stroke="#191970" d="M1464.5395,-237.2703C1467.5658,-236.4988 1470.5654,-235.7373 1473.4862,-235 1542.7097,-217.5248 1657.4417,-228.4703 1619.4862,-168 1588.9306,-119.3191 1415.3173,-84.9949 1337.8282,-71.8862"/>
<polygon fill="#191970" stroke="#191970" points="1337.9957,-68.3661 1327.5569,-70.1781 1336.8472,-75.2713 1337.9957,-68.3661"/>
</g>
<!-- Node71&#45;&gt;Node36 -->
<g id="edge82" class="edge">
<title>Node71&#45;&gt;Node36</title>
<path fill="none" stroke="#191970" d="M1444.2317,-235.4639C1467.4256,-224.1209 1499.0177,-208.6707 1521.7156,-197.5703"/>
<polygon fill="#191970" stroke="#191970" points="1523.4027,-200.6414 1530.8483,-193.1039 1520.3274,-194.3531 1523.4027,-200.6414"/>
</g>
<!-- Node71&#45;&gt;Node60 -->
<g id="edge83" class="edge">
<title>Node71&#45;&gt;Node60</title>
<path fill="none" stroke="#191970" d="M1362.4687,-241.6806C1347.0839,-239.2459 1330.1288,-236.7857 1314.4862,-235 1096.8029,-210.1505 1036.8656,-232.9953 816.9232,-199.0637"/>
<polygon fill="#191970" stroke="#191970" points="817.4277,-195.6002 807.0069,-197.5125 816.3458,-202.5161 817.4277,-195.6002"/>
</g>
<!-- Node73&#45;&gt;Node26 -->
<g id="edge89" class="edge">
<title>Node73&#45;&gt;Node26</title>
<path fill="none" stroke="#191970" d="M1671.4813,-369.3581C1697.0713,-359.7027 1732.9747,-344.6452 1742.4862,-333 1766.3528,-303.7794 1762.4862,-288.2287 1762.4862,-250.5 1762.4862,-250.5 1762.4862,-250.5 1762.4862,-122 1762.4862,-54.045 1670.708,-26.374 1615.4025,-15.8685"/>
<polygon fill="#191970" stroke="#191970" points="1615.9909,-12.4182 1605.5306,-14.1008 1614.7571,-19.3086 1615.9909,-12.4182"/>
</g>
<!-- Node74 -->
<g id="node40" class="node">
<title>Node74</title>
<polygon fill="none" stroke="#bfbfbf" points="1614.4862,-308 1614.4862,-327 1662.4862,-327 1662.4862,-308 1614.4862,-308"/>
<text text-anchor="middle" x="1638.4862" y="-315" font-family="Helvetica,sans-Serif" font-size="10.00" fill="#000000">GL/gl.h</text>
</g>
<!-- Node73&#45;&gt;Node74 -->
<g id="edge87" class="edge">
<title>Node73&#45;&gt;Node74</title>
<path fill="none" stroke="#191970" d="M1643.5487,-369.3906C1642.717,-360.8657 1641.4754,-348.1392 1640.4299,-337.4235"/>
<polygon fill="#191970" stroke="#191970" points="1643.8914,-336.8577 1639.4369,-327.2449 1636.9245,-337.5375 1643.8914,-336.8577"/>
</g>
<!-- Node75 -->
<g id="node41" class="node">
<title>Node75</title>
<polygon fill="none" stroke="#bfbfbf" points="1680.9862,-308 1680.9862,-327 1733.9862,-327 1733.9862,-308 1680.9862,-308"/>
<text text-anchor="middle" x="1707.4862" y="-315" font-family="Helvetica,sans-Serif" font-size="10.00" fill="#000000">GL/glx.h</text>
</g>
<!-- Node73&#45;&gt;Node75 -->
<g id="edge88" class="edge">
<title>Node73&#45;&gt;Node75</title>
<path fill="none" stroke="#191970" d="M1654.3299,-369.3906C1663.8901,-360.0581 1678.6085,-345.6902 1690.1357,-334.4374"/>
<polygon fill="#191970" stroke="#191970" points="1692.7928,-336.7348 1697.5036,-327.2449 1687.903,-331.7257 1692.7928,-336.7348"/>
</g>
<!-- Node78 -->
<g id="node44" class="node">
<title>Node78</title>
<g id="a_node44"><a xlink:href="imconfig_8h.html" target="_top" xlink:title="imconfig.h">
<polygon fill="none" stroke="#000000" points="1998.4862,-308 1998.4862,-327 2060.4862,-327 2060.4862,-308 1998.4862,-308"/>
<text text-anchor="middle" x="2029.4862" y="-315" font-family="Helvetica,sans-Serif" font-size="10.00" fill="#000000">imconfig.h</text>
</a>
</g>
</g>
<!-- Node77&#45;&gt;Node78 -->
<g id="edge93" class="edge">
<title>Node77&#45;&gt;Node78</title>
<path fill="none" stroke="#191970" d="M1936.6737,-369.3906C1954.5944,-359.3713 1982.8957,-343.5483 2003.5385,-332.0071"/>
<polygon fill="#191970" stroke="#191970" points="2005.3989,-334.9769 2012.4194,-327.0419 2001.9829,-328.867 2005.3989,-334.9769"/>
</g>
<!-- Node79 -->
<g id="node45" class="node">
<title>Node79</title>
<polygon fill="none" stroke="#bfbfbf" points="2078.4862,-308 2078.4862,-327 2122.4862,-327 2122.4862,-308 2078.4862,-308"/>
<text text-anchor="middle" x="2100.4862" y="-315" font-family="Helvetica,sans-Serif" font-size="10.00" fill="#000000">float.h</text>
</g>
<!-- Node77&#45;&gt;Node79 -->
<g id="edge94" class="edge">
<title>Node77&#45;&gt;Node79</title>
<path fill="none" stroke="#191970" d="M1956.756,-369.4271C1987.4723,-361.0983 2031.9313,-348.0262 2069.4862,-333 2070.8479,-332.4552 2072.2314,-331.8735 2073.6201,-331.2671"/>
<polygon fill="#191970" stroke="#191970" points="2075.1078,-334.4352 2082.6862,-327.0313 2072.1447,-328.0933 2075.1078,-334.4352"/>
</g>
<!-- Node80 -->
<g id="node46" class="node">
<title>Node80</title>
<polygon fill="none" stroke="#bfbfbf" points="2140.4862,-308 2140.4862,-327 2192.4862,-327 2192.4862,-308 2140.4862,-308"/>
<text text-anchor="middle" x="2166.4862" y="-315" font-family="Helvetica,sans-Serif" font-size="10.00" fill="#000000">stdarg.h</text>
</g>
<!-- Node77&#45;&gt;Node80 -->
<g id="edge95" class="edge">
<title>Node77&#45;&gt;Node80</title>
<path fill="none" stroke="#191970" d="M1956.6429,-370.9208C1959.6348,-370.2707 1962.611,-369.6243 1965.4862,-369 2039.26,-352.9815 2059.7133,-356.4054 2131.4862,-333 2133.3816,-332.3819 2135.3135,-331.6958 2137.2472,-330.9661"/>
<polygon fill="#191970" stroke="#191970" points="2138.8421,-334.0952 2146.771,-327.0678 2136.1904,-327.6169 2138.8421,-334.0952"/>
</g>
<!-- Node81 -->
<g id="node47" class="node">
<title>Node81</title>
<polygon fill="none" stroke="#bfbfbf" points="1790.4862,-308 1790.4862,-327 1842.4862,-327 1842.4862,-308 1790.4862,-308"/>
<text text-anchor="middle" x="1816.4862" y="-315" font-family="Helvetica,sans-Serif" font-size="10.00" fill="#000000">stddef.h</text>
</g>
<!-- Node77&#45;&gt;Node81 -->
<g id="edge96" class="edge">
<title>Node77&#45;&gt;Node81</title>
<path fill="none" stroke="#191970" d="M1903.3924,-369.3906C1886.7633,-359.4616 1860.5885,-343.833 1841.3068,-332.3201"/>
<polygon fill="#191970" stroke="#191970" points="1842.8472,-329.1634 1832.4669,-327.0419 1839.2586,-335.1736 1842.8472,-329.1634"/>
</g>
<!-- Node82 -->
<g id="node48" class="node">
<title>Node82</title>
<polygon fill="none" stroke="#bfbfbf" points="1860.9862,-308 1860.9862,-327 1909.9862,-327 1909.9862,-308 1860.9862,-308"/>
<text text-anchor="middle" x="1885.4862" y="-315" font-family="Helvetica,sans-Serif" font-size="10.00" fill="#000000">string.h</text>
</g>
<!-- Node77&#45;&gt;Node82 -->
<g id="edge97" class="edge">
<title>Node77&#45;&gt;Node82</title>
<path fill="none" stroke="#191970" d="M1914.1737,-369.3906C1909.2623,-360.5068 1901.8283,-347.0601 1895.7586,-336.0811"/>
<polygon fill="#191970" stroke="#191970" points="1898.775,-334.3031 1890.8736,-327.2449 1892.6489,-337.6899 1898.775,-334.3031"/>
</g>
<!-- Node83 -->
<g id="node49" class="node">
<title>Node83</title>
<polygon fill="none" stroke="#bfbfbf" points="1928.4862,-308 1928.4862,-327 1980.4862,-327 1980.4862,-308 1928.4862,-308"/>
<text text-anchor="middle" x="1954.4862" y="-315" font-family="Helvetica,sans-Serif" font-size="10.00" fill="#000000">assert.h</text>
</g>
<!-- Node77&#45;&gt;Node83 -->
<g id="edge98" class="edge">
<title>Node77&#45;&gt;Node83</title>
<path fill="none" stroke="#191970" d="M1924.9549,-369.3906C1930.0108,-360.5068 1937.6634,-347.0601 1943.9116,-336.0811"/>
<polygon fill="#191970" stroke="#191970" points="1947.036,-337.6672 1948.9403,-327.2449 1940.9522,-334.2048 1947.036,-337.6672"/>
</g>
</g>
</svg>
