<?xml version="1.0" encoding="UTF-8" standalone="no"?>
<!DOCTYPE svg PUBLIC "-//W3C//DTD SVG 1.1//EN"
 "http://www.w3.org/Graphics/SVG/1.1/DTD/svg11.dtd">
<!-- Generated by graphviz version 2.36.0 (20140111.2315)
 -->
<!-- Title: /home/travis/build/igankevich/arma/src/generator/voodoo.hh Pages: 1 -->
<svg width="234pt" height="162pt"
 viewBox="0.00 0.00 234.00 162.00" xmlns="http://www.w3.org/2000/svg" xmlns:xlink="http://www.w3.org/1999/xlink">
<g id="graph0" class="graph" transform="scale(1 1) rotate(0) translate(4 158)">
<title>/home/travis/build/igankevich/arma/src/generator/voodoo.hh</title>
<!-- Node1 -->
<g id="node1" class="node"><title>Node1</title>
<polygon fill="#bfbfbf" stroke="black" points="51,-112.5 51,-153.5 159,-153.5 159,-112.5 51,-112.5"/>
<text text-anchor="start" x="59" y="-141.5" font-family="Helvetica,sans-Serif" font-size="10.00">/home/travis/build</text>
<text text-anchor="start" x="59" y="-130.5" font-family="Helvetica,sans-Serif" font-size="10.00">/igankevich/arma/src</text>
<text text-anchor="middle" x="105" y="-119.5" font-family="Helvetica,sans-Serif" font-size="10.00">/generator/voodoo.hh</text>
</g>
<!-- Node2 -->
<g id="node2" class="node"><title>Node2</title>
<polygon fill="none" stroke="#bfbfbf" points="0,-56.5 0,-75.5 52,-75.5 52,-56.5 0,-56.5"/>
<text text-anchor="middle" x="26" y="-63.5" font-family="Helvetica,sans-Serif" font-size="10.00">assert.h</text>
</g>
<!-- Node1&#45;&gt;Node2 -->
<g id="edge1" class="edge"><title>Node1&#45;&gt;Node2</title>
<path fill="none" stroke="midnightblue" d="M81.2974,-112.498C69.4181,-102.724 55.2566,-91.0719 44.2388,-82.0066"/>
<polygon fill="midnightblue" stroke="midnightblue" points="46.462,-79.3034 36.5161,-75.6525 42.0145,-84.7089 46.462,-79.3034"/>
</g>
<!-- Node3 -->
<g id="node3" class="node"><title>Node3</title>
<polygon fill="none" stroke="#bfbfbf" points="105,-0.5 105,-19.5 173,-19.5 173,-0.5 105,-0.5"/>
<text text-anchor="middle" x="139" y="-7.5" font-family="Helvetica,sans-Serif" font-size="10.00">blitz/array.h</text>
</g>
<!-- Node1&#45;&gt;Node3 -->
<g id="edge2" class="edge"><title>Node1&#45;&gt;Node3</title>
<path fill="none" stroke="midnightblue" d="M99.3577,-112.304C95.8634,-96.5678 93.2064,-74.2119 100,-56 104.173,-44.8124 112.52,-34.5598 120.424,-26.6759"/>
<polygon fill="midnightblue" stroke="midnightblue" points="123.062,-29.0029 128.01,-19.6346 118.299,-23.8724 123.062,-29.0029"/>
</g>
<!-- Node4 -->
<g id="node4" class="node"><title>Node4</title>
<polygon fill="none" stroke="#bfbfbf" points="108.5,-56.5 108.5,-75.5 153.5,-75.5 153.5,-56.5 108.5,-56.5"/>
<text text-anchor="middle" x="131" y="-63.5" font-family="Helvetica,sans-Serif" font-size="10.00">cstdlib</text>
</g>
<!-- Node1&#45;&gt;Node4 -->
<g id="edge3" class="edge"><title>Node1&#45;&gt;Node4</title>
<path fill="none" stroke="midnightblue" d="M112.801,-112.498C116.289,-103.778 120.375,-93.5632 123.79,-85.0241"/>
<polygon fill="midnightblue" stroke="midnightblue" points="127.075,-86.2372 127.539,-75.6525 120.575,-83.6374 127.075,-86.2372"/>
</g>
<!-- Node5 -->
<g id="node5" class="node"><title>Node5</title>
<g id="a_node5"><a xlink:href="types_8hh.html" target="_top" xlink:title="types.hh">
<polygon fill="none" stroke="black" points="172,-56.5 172,-75.5 226,-75.5 226,-56.5 172,-56.5"/>
<text text-anchor="middle" x="199" y="-63.5" font-family="Helvetica,sans-Serif" font-size="10.00">types.hh</text>
</a>
</g>
</g>
<!-- Node1&#45;&gt;Node5 -->
<g id="edge4" class="edge"><title>Node1&#45;&gt;Node5</title>
<path fill="none" stroke="midnightblue" d="M133.203,-112.498C147.615,-102.532 164.85,-90.6142 178.065,-81.4764"/>
<polygon fill="midnightblue" stroke="midnightblue" points="180.253,-84.2189 186.487,-75.6525 176.271,-78.4613 180.253,-84.2189"/>
</g>
<!-- Node5&#45;&gt;Node3 -->
<g id="edge5" class="edge"><title>Node5&#45;&gt;Node3</title>
<path fill="none" stroke="midnightblue" d="M189.36,-56.324C180.49,-48.3414 167.125,-36.3128 156.392,-26.6529"/>
<polygon fill="midnightblue" stroke="midnightblue" points="158.59,-23.922 148.815,-19.8339 153.907,-29.1251 158.59,-23.922"/>
</g>
</g>
</svg>
