<?xml version="1.0" encoding="UTF-8" standalone="no"?>
<!DOCTYPE svg PUBLIC "-//W3C//DTD SVG 1.1//EN"
 "http://www.w3.org/Graphics/SVG/1.1/DTD/svg11.dtd">
<!-- Generated by graphviz version 2.40.1 (20161225.0304)
 -->
<!-- Title: src/generator/voodoo.hh Pages: 1 -->
<svg width="432pt" height="84pt"
 viewBox="0.00 0.00 432.00 84.00" xmlns="http://www.w3.org/2000/svg" xmlns:xlink="http://www.w3.org/1999/xlink">
<g id="graph0" class="graph" transform="scale(1 1) rotate(0) translate(4 80)">
<title>src/generator/voodoo.hh</title>
<!-- Node5 -->
<g id="node1" class="node">
<title>Node5</title>
<polygon fill="#bfbfbf" stroke="#000000" points="155,-56.5 155,-75.5 277,-75.5 277,-56.5 155,-56.5"/>
<text text-anchor="middle" x="216" y="-63.5" font-family="Helvetica,sans-Serif" font-size="10.00" fill="#000000">src/generator/voodoo.hh</text>
</g>
<!-- Node6 -->
<g id="node2" class="node">
<title>Node6</title>
<g id="a_node2"><a xlink:href="ar__model_8cc.html" target="_top" xlink:title="src/generator/ar_model.cc">
<polygon fill="none" stroke="#000000" points="0,-.5 0,-19.5 130,-19.5 130,-.5 0,-.5"/>
<text text-anchor="middle" x="65" y="-7.5" font-family="Helvetica,sans-Serif" font-size="10.00" fill="#000000">src/generator/ar_model.cc</text>
</a>
</g>
</g>
<!-- Node5&#45;&gt;Node6 -->
<g id="edge1" class="edge">
<title>Node5&#45;&gt;Node6</title>
<path fill="none" stroke="#191970" d="M180.377,-52.7888C152.8062,-42.5639 115.2851,-28.6488 90.6191,-19.5011"/>
<polygon fill="#191970" stroke="#191970" points="179.4491,-56.1776 190.0422,-56.3733 181.8832,-49.6144 179.4491,-56.1776"/>
</g>
<!-- Node7 -->
<g id="node3" class="node">
<title>Node7</title>
<g id="a_node3"><a xlink:href="ma__model_8cc.html" target="_top" xlink:title="src/generator/ma_model.cc">
<polygon fill="none" stroke="#000000" points="148.5,-.5 148.5,-19.5 283.5,-19.5 283.5,-.5 148.5,-.5"/>
<text text-anchor="middle" x="216" y="-7.5" font-family="Helvetica,sans-Serif" font-size="10.00" fill="#000000">src/generator/ma_model.cc</text>
</a>
</g>
</g>
<!-- Node5&#45;&gt;Node7 -->
<g id="edge2" class="edge">
<title>Node5&#45;&gt;Node7</title>
<path fill="none" stroke="#191970" d="M216,-46.1575C216,-37.155 216,-26.9199 216,-19.6427"/>
<polygon fill="#191970" stroke="#191970" points="212.5001,-46.2455 216,-56.2455 219.5001,-46.2456 212.5001,-46.2455"/>
</g>
<!-- Node8 -->
<g id="node4" class="node">
<title>Node8</title>
<g id="a_node4"><a xlink:href="voodoo_8cc.html" target="_top" xlink:title="src/generator/voodoo.cc">
<polygon fill="none" stroke="#000000" points="302,-.5 302,-19.5 424,-19.5 424,-.5 302,-.5"/>
<text text-anchor="middle" x="363" y="-7.5" font-family="Helvetica,sans-Serif" font-size="10.00" fill="#000000">src/generator/voodoo.cc</text>
</a>
</g>
</g>
<!-- Node5&#45;&gt;Node8 -->
<g id="edge3" class="edge">
<title>Node5&#45;&gt;Node8</title>
<path fill="none" stroke="#191970" d="M250.6794,-52.7888C277.5198,-42.5639 314.047,-28.6488 338.0596,-19.5011"/>
<polygon fill="#191970" stroke="#191970" points="249.3691,-49.5425 241.2702,-56.3733 251.8611,-56.0839 249.3691,-49.5425"/>
</g>
</g>
</svg>
