<?xml version="1.0" encoding="UTF-8" standalone="no"?>
<!DOCTYPE svg PUBLIC "-//W3C//DTD SVG 1.1//EN"
 "http://www.w3.org/Graphics/SVG/1.1/DTD/svg11.dtd">
<!-- Generated by graphviz version 2.36.0 (20140111.2315)
 -->
<!-- Title: /home/travis/build/igankevich/arma/src/stats/waves.cc Pages: 1 -->
<svg width="389pt" height="218pt"
 viewBox="0.00 0.00 389.00 218.00" xmlns="http://www.w3.org/2000/svg" xmlns:xlink="http://www.w3.org/1999/xlink">
<g id="graph0" class="graph" transform="scale(1 1) rotate(0) translate(4 214)">
<title>/home/travis/build/igankevich/arma/src/stats/waves.cc</title>
<!-- Node1 -->
<g id="node1" class="node"><title>Node1</title>
<polygon fill="#bfbfbf" stroke="black" points="135.5,-168.5 135.5,-209.5 242.5,-209.5 242.5,-168.5 135.5,-168.5"/>
<text text-anchor="start" x="143.5" y="-197.5" font-family="Helvetica,sans-Serif" font-size="10.00">/home/travis/build</text>
<text text-anchor="start" x="143.5" y="-186.5" font-family="Helvetica,sans-Serif" font-size="10.00">/igankevich/arma/src</text>
<text text-anchor="middle" x="189" y="-175.5" font-family="Helvetica,sans-Serif" font-size="10.00">/stats/waves.cc</text>
</g>
<!-- Node2 -->
<g id="node2" class="node"><title>Node2</title>
<g id="a_node2"><a xlink:href="waves_8hh.html" target="_top" xlink:title="waves.hh">
<polygon fill="none" stroke="black" points="159.5,-112.5 159.5,-131.5 218.5,-131.5 218.5,-112.5 159.5,-112.5"/>
<text text-anchor="middle" x="189" y="-119.5" font-family="Helvetica,sans-Serif" font-size="10.00">waves.hh</text>
</a>
</g>
</g>
<!-- Node1&#45;&gt;Node2 -->
<g id="edge1" class="edge"><title>Node1&#45;&gt;Node2</title>
<path fill="none" stroke="midnightblue" d="M189,-168.498C189,-160.065 189,-150.235 189,-141.874"/>
<polygon fill="midnightblue" stroke="midnightblue" points="192.5,-141.652 189,-131.652 185.5,-141.653 192.5,-141.652"/>
</g>
<!-- Node3 -->
<g id="node3" class="node"><title>Node3</title>
<g id="a_node3"><a xlink:href="types_8hh.html" target="_top" xlink:title="types.hh">
<polygon fill="none" stroke="black" points="7,-56.5 7,-75.5 61,-75.5 61,-56.5 7,-56.5"/>
<text text-anchor="middle" x="34" y="-63.5" font-family="Helvetica,sans-Serif" font-size="10.00">types.hh</text>
</a>
</g>
</g>
<!-- Node2&#45;&gt;Node3 -->
<g id="edge2" class="edge"><title>Node2&#45;&gt;Node3</title>
<path fill="none" stroke="midnightblue" d="M164.44,-112.444C138.477,-103.399 97.332,-89.064 68.2029,-78.9158"/>
<polygon fill="midnightblue" stroke="midnightblue" points="69.0401,-75.5013 58.4453,-75.5164 66.7371,-82.1116 69.0401,-75.5013"/>
</g>
<!-- Node5 -->
<g id="node5" class="node"><title>Node5</title>
<polygon fill="none" stroke="#bfbfbf" points="79,-56.5 79,-75.5 123,-75.5 123,-56.5 79,-56.5"/>
<text text-anchor="middle" x="101" y="-63.5" font-family="Helvetica,sans-Serif" font-size="10.00">cmath</text>
</g>
<!-- Node2&#45;&gt;Node5 -->
<g id="edge4" class="edge"><title>Node2&#45;&gt;Node5</title>
<path fill="none" stroke="midnightblue" d="M174.861,-112.324C161.134,-103.9 140.064,-90.9709 123.936,-81.0741"/>
<polygon fill="midnightblue" stroke="midnightblue" points="125.457,-77.9016 115.104,-75.6545 121.796,-83.8678 125.457,-77.9016"/>
</g>
<!-- Node6 -->
<g id="node6" class="node"><title>Node6</title>
<polygon fill="none" stroke="#bfbfbf" points="141,-56.5 141,-75.5 179,-75.5 179,-56.5 141,-56.5"/>
<text text-anchor="middle" x="160" y="-63.5" font-family="Helvetica,sans-Serif" font-size="10.00">tuple</text>
</g>
<!-- Node2&#45;&gt;Node6 -->
<g id="edge5" class="edge"><title>Node2&#45;&gt;Node6</title>
<path fill="none" stroke="midnightblue" d="M184.211,-112.083C180.242,-104.691 174.475,-93.9533 169.565,-84.8111"/>
<polygon fill="midnightblue" stroke="midnightblue" points="172.514,-82.9051 164.7,-75.7511 166.347,-86.217 172.514,-82.9051"/>
</g>
<!-- Node7 -->
<g id="node7" class="node"><title>Node7</title>
<polygon fill="none" stroke="#bfbfbf" points="197,-56.5 197,-75.5 241,-75.5 241,-56.5 197,-56.5"/>
<text text-anchor="middle" x="219" y="-63.5" font-family="Helvetica,sans-Serif" font-size="10.00">vector</text>
</g>
<!-- Node2&#45;&gt;Node7 -->
<g id="edge6" class="edge"><title>Node2&#45;&gt;Node7</title>
<path fill="none" stroke="midnightblue" d="M193.954,-112.083C198.104,-104.613 204.153,-93.7244 209.267,-84.5199"/>
<polygon fill="midnightblue" stroke="midnightblue" points="212.341,-86.1924 214.138,-75.7511 206.222,-82.7929 212.341,-86.1924"/>
</g>
<!-- Node8 -->
<g id="node8" class="node"><title>Node8</title>
<polygon fill="none" stroke="#bfbfbf" points="259.5,-56.5 259.5,-75.5 306.5,-75.5 306.5,-56.5 259.5,-56.5"/>
<text text-anchor="middle" x="283" y="-63.5" font-family="Helvetica,sans-Serif" font-size="10.00">iterator</text>
</g>
<!-- Node2&#45;&gt;Node8 -->
<g id="edge7" class="edge"><title>Node2&#45;&gt;Node8</title>
<path fill="none" stroke="midnightblue" d="M204.103,-112.324C218.903,-103.822 241.694,-90.7288 258.982,-80.7975"/>
<polygon fill="midnightblue" stroke="midnightblue" points="261.007,-83.6707 267.935,-75.6545 257.52,-77.6009 261.007,-83.6707"/>
</g>
<!-- Node9 -->
<g id="node9" class="node"><title>Node9</title>
<polygon fill="none" stroke="#bfbfbf" points="325,-56.5 325,-75.5 381,-75.5 381,-56.5 325,-56.5"/>
<text text-anchor="middle" x="353" y="-63.5" font-family="Helvetica,sans-Serif" font-size="10.00">algorithm</text>
</g>
<!-- Node2&#45;&gt;Node9 -->
<g id="edge8" class="edge"><title>Node2&#45;&gt;Node9</title>
<path fill="none" stroke="midnightblue" d="M214.986,-112.444C242.696,-103.32 286.752,-88.8133 317.616,-78.6509"/>
<polygon fill="midnightblue" stroke="midnightblue" points="318.732,-81.9684 327.135,-75.5164 316.542,-75.3196 318.732,-81.9684"/>
</g>
<!-- Node4 -->
<g id="node4" class="node"><title>Node4</title>
<polygon fill="none" stroke="#bfbfbf" points="0,-0.5 0,-19.5 68,-19.5 68,-0.5 0,-0.5"/>
<text text-anchor="middle" x="34" y="-7.5" font-family="Helvetica,sans-Serif" font-size="10.00">blitz/array.h</text>
</g>
<!-- Node3&#45;&gt;Node4 -->
<g id="edge3" class="edge"><title>Node3&#45;&gt;Node4</title>
<path fill="none" stroke="midnightblue" d="M34,-56.083C34,-49.0059 34,-38.8611 34,-29.9865"/>
<polygon fill="midnightblue" stroke="midnightblue" points="37.5001,-29.751 34,-19.7511 30.5001,-29.7511 37.5001,-29.751"/>
</g>
</g>
</svg>
