<?xml version="1.0" encoding="UTF-8" standalone="no"?>
<!DOCTYPE svg PUBLIC "-//W3C//DTD SVG 1.1//EN"
 "http://www.w3.org/Graphics/SVG/1.1/DTD/svg11.dtd">
<!-- Generated by graphviz version 2.40.1 (20161225.0304)
 -->
<!-- Title: src/stats/waves.hh Pages: 1 -->
<svg width="695pt" height="308pt"
 viewBox="0.00 0.00 695.00 308.00" xmlns="http://www.w3.org/2000/svg" xmlns:xlink="http://www.w3.org/1999/xlink">
<g id="graph0" class="graph" transform="scale(1 1) rotate(0) translate(4 304)">
<title>src/stats/waves.hh</title>
<!-- Node0 -->
<g id="node1" class="node">
<title>Node0</title>
<polygon fill="#bfbfbf" stroke="#000000" points="380,-280.5 380,-299.5 480,-299.5 480,-280.5 380,-280.5"/>
<text text-anchor="middle" x="430" y="-287.5" font-family="Helvetica,sans-Serif" font-size="10.00" fill="#000000">src/stats/waves.hh</text>
</g>
<!-- Node1 -->
<g id="node2" class="node">
<title>Node1</title>
<g id="a_node2"><a xlink:href="domain_8hh.html" target="_top" xlink:title="domain.hh">
<polygon fill="none" stroke="#000000" points="170,-224.5 170,-243.5 232,-243.5 232,-224.5 170,-224.5"/>
<text text-anchor="middle" x="201" y="-231.5" font-family="Helvetica,sans-Serif" font-size="10.00" fill="#000000">domain.hh</text>
</a>
</g>
</g>
<!-- Node0&#45;&gt;Node1 -->
<g id="edge1" class="edge">
<title>Node0&#45;&gt;Node1</title>
<path fill="none" stroke="#191970" d="M390.8937,-280.4369C349.4708,-270.3073 284.3494,-254.3824 242.1621,-244.0659"/>
<polygon fill="#191970" stroke="#191970" points="242.7659,-240.6104 232.2207,-241.6348 241.1031,-247.4101 242.7659,-240.6104"/>
</g>
<!-- Node2 -->
<g id="node3" class="node">
<title>Node2</title>
<polygon fill="none" stroke="#bfbfbf" points="77,-.5 77,-19.5 121,-19.5 121,-.5 77,-.5"/>
<text text-anchor="middle" x="99" y="-7.5" font-family="Helvetica,sans-Serif" font-size="10.00" fill="#000000">cmath</text>
</g>
<!-- Node0&#45;&gt;Node2 -->
<g id="edge22" class="edge">
<title>Node0&#45;&gt;Node2</title>
<path fill="none" stroke="#191970" d="M379.832,-287.5006C266.4027,-280.4812 0,-255.7221 0,-178 0,-178 0,-178 0,-122 0,-78.255 42.9217,-43.5596 72.2418,-24.9623"/>
<polygon fill="#191970" stroke="#191970" points="74.1281,-27.9114 80.8419,-19.7153 70.4823,-21.9358 74.1281,-27.9114"/>
</g>
<!-- Node7 -->
<g id="node8" class="node">
<title>Node7</title>
<g id="a_node8"><a xlink:href="grid_8hh.html" target="_top" xlink:title="grid.hh">
<polygon fill="none" stroke="#000000" points="280,-168.5 280,-187.5 326,-187.5 326,-168.5 280,-168.5"/>
<text text-anchor="middle" x="303" y="-175.5" font-family="Helvetica,sans-Serif" font-size="10.00" fill="#000000">grid.hh</text>
</a>
</g>
</g>
<!-- Node0&#45;&gt;Node7 -->
<g id="edge18" class="edge">
<title>Node0&#45;&gt;Node7</title>
<path fill="none" stroke="#191970" d="M419.1721,-280.4509C397.4276,-261.2747 348.2395,-217.8962 321.3683,-194.1988"/>
<polygon fill="#191970" stroke="#191970" points="323.6157,-191.5141 313.8005,-187.5249 318.9857,-196.7642 323.6157,-191.5141"/>
</g>
<!-- Node9 -->
<g id="node10" class="node">
<title>Node9</title>
<polygon fill="none" stroke="#bfbfbf" points="344,-.5 344,-19.5 400,-19.5 400,-.5 344,-.5"/>
<text text-anchor="middle" x="372" y="-7.5" font-family="Helvetica,sans-Serif" font-size="10.00" fill="#000000">algorithm</text>
</g>
<!-- Node0&#45;&gt;Node9 -->
<g id="edge21" class="edge">
<title>Node0&#45;&gt;Node9</title>
<path fill="none" stroke="#191970" d="M430,-280.4116C430,-261.0538 430,-215.9167 430,-178 430,-178 430,-178 430,-122 430,-85.0488 404.798,-48.1465 387.6192,-27.2847"/>
<polygon fill="#191970" stroke="#191970" points="390.2216,-24.9426 381.0625,-19.6171 384.9015,-29.4919 390.2216,-24.9426"/>
</g>
<!-- Node12 -->
<g id="node13" class="node">
<title>Node12</title>
<g id="a_node13"><a xlink:href="types_8hh.html" target="_top" xlink:title="types.hh">
<polygon fill="none" stroke="#000000" points="348,-112.5 348,-131.5 402,-131.5 402,-112.5 348,-112.5"/>
<text text-anchor="middle" x="375" y="-119.5" font-family="Helvetica,sans-Serif" font-size="10.00" fill="#000000">types.hh</text>
</a>
</g>
</g>
<!-- Node0&#45;&gt;Node12 -->
<g id="edge19" class="edge">
<title>Node0&#45;&gt;Node12</title>
<path fill="none" stroke="#191970" d="M426.8854,-280.4862C418.1535,-253.8144 393.3044,-177.9117 381.4478,-141.695"/>
<polygon fill="#191970" stroke="#191970" points="384.6551,-140.2426 378.2175,-131.8279 378.0026,-142.4205 384.6551,-140.2426"/>
</g>
<!-- Node13 -->
<g id="node14" class="node">
<title>Node13</title>
<polygon fill="none" stroke="#bfbfbf" points="458.5,-224.5 458.5,-243.5 503.5,-243.5 503.5,-224.5 458.5,-224.5"/>
<text text-anchor="middle" x="481" y="-231.5" font-family="Helvetica,sans-Serif" font-size="10.00" fill="#000000">iosfwd</text>
</g>
<!-- Node0&#45;&gt;Node13 -->
<g id="edge23" class="edge">
<title>Node0&#45;&gt;Node13</title>
<path fill="none" stroke="#191970" d="M438.8835,-280.2455C446.1966,-272.2155 456.7391,-260.6394 465.4467,-251.0781"/>
<polygon fill="#191970" stroke="#191970" points="468.0727,-253.3928 472.2183,-243.6427 462.8972,-248.6795 468.0727,-253.3928"/>
</g>
<!-- Node14 -->
<g id="node15" class="node">
<title>Node14</title>
<polygon fill="none" stroke="#bfbfbf" points="521.5,-224.5 521.5,-243.5 568.5,-243.5 568.5,-224.5 521.5,-224.5"/>
<text text-anchor="middle" x="545" y="-231.5" font-family="Helvetica,sans-Serif" font-size="10.00" fill="#000000">iterator</text>
</g>
<!-- Node0&#45;&gt;Node14 -->
<g id="edge24" class="edge">
<title>Node0&#45;&gt;Node14</title>
<path fill="none" stroke="#191970" d="M449.7692,-280.3733C468.1469,-271.4241 495.7312,-257.9917 516.4893,-247.8835"/>
<polygon fill="#191970" stroke="#191970" points="518.0304,-251.026 525.4888,-243.5011 514.9657,-244.7325 518.0304,-251.026"/>
</g>
<!-- Node15 -->
<g id="node16" class="node">
<title>Node15</title>
<polygon fill="none" stroke="#bfbfbf" points="587,-224.5 587,-243.5 625,-243.5 625,-224.5 587,-224.5"/>
<text text-anchor="middle" x="606" y="-231.5" font-family="Helvetica,sans-Serif" font-size="10.00" fill="#000000">tuple</text>
</g>
<!-- Node0&#45;&gt;Node15 -->
<g id="edge25" class="edge">
<title>Node0&#45;&gt;Node15</title>
<path fill="none" stroke="#191970" d="M462.1697,-280.4234C490.2365,-271.9751 532.2633,-259.102 577.1412,-244.201"/>
<polygon fill="#191970" stroke="#191970" points="578.3795,-247.4776 586.7569,-240.9914 576.1632,-240.8377 578.3795,-247.4776"/>
</g>
<!-- Node16 -->
<g id="node17" class="node">
<title>Node16</title>
<polygon fill="none" stroke="#bfbfbf" points="643,-224.5 643,-243.5 687,-243.5 687,-224.5 643,-224.5"/>
<text text-anchor="middle" x="665" y="-231.5" font-family="Helvetica,sans-Serif" font-size="10.00" fill="#000000">vector</text>
</g>
<!-- Node0&#45;&gt;Node16 -->
<g id="edge26" class="edge">
<title>Node0&#45;&gt;Node16</title>
<path fill="none" stroke="#191970" d="M478.1156,-280.43C517.4564,-272.3171 574.6913,-259.8599 632.9795,-244.1127"/>
<polygon fill="#191970" stroke="#191970" points="633.9965,-247.4632 642.7211,-241.4523 632.1523,-240.7105 633.9965,-247.4632"/>
</g>
<!-- Node1&#45;&gt;Node2 -->
<g id="edge2" class="edge">
<title>Node1&#45;&gt;Node2</title>
<path fill="none" stroke="#191970" d="M169.5788,-227.0985C147.3499,-220.6272 118.4957,-208.7428 101,-188 62.718,-142.6132 80.7699,-65.0955 92.1615,-29.238"/>
<polygon fill="#191970" stroke="#191970" points="95.5562,-30.1228 95.4133,-19.5289 88.9186,-27.8997 95.5562,-30.1228"/>
</g>
<!-- Node3 -->
<g id="node4" class="node">
<title>Node3</title>
<polygon fill="none" stroke="#bfbfbf" points="142,-168.5 142,-187.5 192,-187.5 192,-168.5 142,-168.5"/>
<text text-anchor="middle" x="167" y="-175.5" font-family="Helvetica,sans-Serif" font-size="10.00" fill="#000000">iomanip</text>
</g>
<!-- Node1&#45;&gt;Node3 -->
<g id="edge3" class="edge">
<title>Node1&#45;&gt;Node3</title>
<path fill="none" stroke="#191970" d="M195.0777,-224.2455C190.3973,-216.5367 183.7327,-205.5598 178.0711,-196.2348"/>
<polygon fill="#191970" stroke="#191970" points="181.0361,-194.3741 172.8545,-187.6427 175.0525,-198.007 181.0361,-194.3741"/>
</g>
<!-- Node4 -->
<g id="node5" class="node">
<title>Node4</title>
<polygon fill="none" stroke="#bfbfbf" points="104.5,-112.5 104.5,-131.5 153.5,-131.5 153.5,-112.5 104.5,-112.5"/>
<text text-anchor="middle" x="129" y="-119.5" font-family="Helvetica,sans-Serif" font-size="10.00" fill="#000000">istream</text>
</g>
<!-- Node1&#45;&gt;Node4 -->
<g id="edge4" class="edge">
<title>Node1&#45;&gt;Node4</title>
<path fill="none" stroke="#191970" d="M176.8507,-224.4174C161.4678,-216.9436 142.6733,-204.9622 133,-188 125.0128,-173.9943 124.5858,-155.4902 125.8275,-141.6396"/>
<polygon fill="#191970" stroke="#191970" points="129.302,-142.0609 127.0686,-131.7042 122.356,-141.1932 129.302,-142.0609"/>
</g>
<!-- Node5 -->
<g id="node6" class="node">
<title>Node5</title>
<polygon fill="none" stroke="#bfbfbf" points="210,-168.5 210,-187.5 262,-187.5 262,-168.5 210,-168.5"/>
<text text-anchor="middle" x="236" y="-175.5" font-family="Helvetica,sans-Serif" font-size="10.00" fill="#000000">ostream</text>
</g>
<!-- Node1&#45;&gt;Node5 -->
<g id="edge5" class="edge">
<title>Node1&#45;&gt;Node5</title>
<path fill="none" stroke="#191970" d="M207.0965,-224.2455C211.9145,-216.5367 218.7751,-205.5598 224.6032,-196.2348"/>
<polygon fill="#191970" stroke="#191970" points="227.6413,-197.9777 229.9733,-187.6427 221.7053,-194.2677 227.6413,-197.9777"/>
</g>
<!-- Node6 -->
<g id="node7" class="node">
<title>Node6</title>
<polygon fill="none" stroke="#bfbfbf" points="200.5,-.5 200.5,-19.5 267.5,-19.5 267.5,-.5 200.5,-.5"/>
<text text-anchor="middle" x="234" y="-7.5" font-family="Helvetica,sans-Serif" font-size="10.00" fill="#000000">blitz/array.h</text>
</g>
<!-- Node1&#45;&gt;Node6 -->
<g id="edge6" class="edge">
<title>Node1&#45;&gt;Node6</title>
<path fill="none" stroke="#191970" d="M177.4334,-224.4685C160.5631,-216.69 138.23,-204.3221 123,-188 98.4418,-161.6808 78.7337,-144.1124 95,-112 116.8511,-68.8623 166.4791,-39.5492 200.1239,-23.7915"/>
<polygon fill="#191970" stroke="#191970" points="201.9054,-26.8274 209.578,-19.5211 199.0238,-20.448 201.9054,-26.8274"/>
</g>
<!-- Node1&#45;&gt;Node7 -->
<g id="edge7" class="edge">
<title>Node1&#45;&gt;Node7</title>
<path fill="none" stroke="#191970" d="M218.767,-224.2455C234.7095,-215.4928 258.3259,-202.527 276.4989,-192.5496"/>
<polygon fill="#191970" stroke="#191970" points="278.3552,-195.5233 285.4366,-187.6427 274.9863,-189.3873 278.3552,-195.5233"/>
</g>
<!-- Node10 -->
<g id="node11" class="node">
<title>Node10</title>
<g id="a_node11"><a xlink:href="validators_8hh.html" target="_top" xlink:title="validators.hh">
<polygon fill="none" stroke="#000000" points="258,-112.5 258,-131.5 330,-131.5 330,-112.5 258,-112.5"/>
<text text-anchor="middle" x="294" y="-119.5" font-family="Helvetica,sans-Serif" font-size="10.00" fill="#000000">validators.hh</text>
</a>
</g>
</g>
<!-- Node1&#45;&gt;Node10 -->
<g id="edge17" class="edge">
<title>Node1&#45;&gt;Node10</title>
<path fill="none" stroke="#191970" d="M232.0938,-227.6747C267.7464,-219.717 322.8513,-205.015 335,-188 346.7478,-171.5465 330.6873,-151.7368 315.3527,-138.1402"/>
<polygon fill="#191970" stroke="#191970" points="317.4762,-135.3539 307.5509,-131.647 312.9982,-140.7342 317.4762,-135.3539"/>
</g>
<!-- Node7&#45;&gt;Node2 -->
<g id="edge8" class="edge">
<title>Node7&#45;&gt;Node2</title>
<path fill="none" stroke="#191970" d="M288.2334,-168.4178C274.6234,-159.4215 254.018,-145.3808 237,-132 191.8599,-96.5076 142.1483,-50.7815 116.4877,-26.6406"/>
<polygon fill="#191970" stroke="#191970" points="118.7101,-23.9252 109.0376,-19.6014 113.9026,-29.0133 118.7101,-23.9252"/>
</g>
<!-- Node7&#45;&gt;Node4 -->
<g id="edge9" class="edge">
<title>Node7&#45;&gt;Node4</title>
<path fill="none" stroke="#191970" d="M279.8941,-170.5636C250.0249,-160.9506 197.762,-144.1303 163.2643,-133.0276"/>
<polygon fill="#191970" stroke="#191970" points="164.1977,-129.6512 153.6062,-129.9192 162.0531,-136.3146 164.1977,-129.6512"/>
</g>
<!-- Node8 -->
<g id="node9" class="node">
<title>Node8</title>
<g id="a_node9"><a xlink:href="blitz_8hh.html" target="_top" xlink:title="blitz.hh">
<polygon fill="none" stroke="#000000" points="210,-56.5 210,-75.5 258,-75.5 258,-56.5 210,-56.5"/>
<text text-anchor="middle" x="234" y="-63.5" font-family="Helvetica,sans-Serif" font-size="10.00" fill="#000000">blitz.hh</text>
</a>
</g>
</g>
<!-- Node7&#45;&gt;Node8 -->
<g id="edge10" class="edge">
<title>Node7&#45;&gt;Node8</title>
<path fill="none" stroke="#191970" d="M286.8153,-168.3394C274.5659,-160.1804 258.3114,-147.3816 249,-132 240.5378,-118.0212 236.8429,-99.7541 235.2331,-85.9824"/>
<polygon fill="#191970" stroke="#191970" points="238.6874,-85.3136 234.3123,-75.6643 231.7151,-85.9359 238.6874,-85.3136"/>
</g>
<!-- Node7&#45;&gt;Node10 -->
<g id="edge14" class="edge">
<title>Node7&#45;&gt;Node10</title>
<path fill="none" stroke="#191970" d="M301.4323,-168.2455C300.2579,-160.9382 298.6116,-150.6944 297.1668,-141.7046"/>
<polygon fill="#191970" stroke="#191970" points="300.5922,-140.9606 295.5497,-131.6427 293.6809,-142.0714 300.5922,-140.9606"/>
</g>
<!-- Node8&#45;&gt;Node2 -->
<g id="edge13" class="edge">
<title>Node8&#45;&gt;Node2</title>
<path fill="none" stroke="#191970" d="M210.7927,-56.3733C188.5639,-47.1524 154.8612,-33.1721 130.2725,-22.9723"/>
<polygon fill="#191970" stroke="#191970" points="131.5885,-19.729 121.0105,-19.1303 128.9063,-26.1948 131.5885,-19.729"/>
</g>
<!-- Node8&#45;&gt;Node6 -->
<g id="edge12" class="edge">
<title>Node8&#45;&gt;Node6</title>
<path fill="none" stroke="#191970" d="M234,-56.2455C234,-48.9382 234,-38.6944 234,-29.7046"/>
<polygon fill="#191970" stroke="#191970" points="237.5001,-29.6426 234,-19.6427 230.5001,-29.6427 237.5001,-29.6426"/>
</g>
<!-- Node8&#45;&gt;Node9 -->
<g id="edge11" class="edge">
<title>Node8&#45;&gt;Node9</title>
<path fill="none" stroke="#191970" d="M257.723,-56.3733C280.1737,-47.2629 314.0739,-33.5062 339.1255,-23.3404"/>
<polygon fill="#191970" stroke="#191970" points="340.6365,-26.5045 348.5865,-19.5011 338.0043,-20.0182 340.6365,-26.5045"/>
</g>
<!-- Node10&#45;&gt;Node8 -->
<g id="edge16" class="edge">
<title>Node10&#45;&gt;Node8</title>
<path fill="none" stroke="#191970" d="M283.5488,-112.2455C274.7731,-104.0549 262.0446,-92.1749 251.686,-82.5069"/>
<polygon fill="#191970" stroke="#191970" points="254.0301,-79.9072 244.3314,-75.6427 249.2539,-85.0246 254.0301,-79.9072"/>
</g>
<!-- Node11 -->
<g id="node12" class="node">
<title>Node11</title>
<polygon fill="none" stroke="#bfbfbf" points="276.5,-56.5 276.5,-75.5 335.5,-75.5 335.5,-56.5 276.5,-56.5"/>
<text text-anchor="middle" x="306" y="-63.5" font-family="Helvetica,sans-Serif" font-size="10.00" fill="#000000">stdexcept</text>
</g>
<!-- Node10&#45;&gt;Node11 -->
<g id="edge15" class="edge">
<title>Node10&#45;&gt;Node11</title>
<path fill="none" stroke="#191970" d="M296.0902,-112.2455C297.6561,-104.9382 299.8512,-94.6944 301.7776,-85.7046"/>
<polygon fill="#191970" stroke="#191970" points="305.2607,-86.1541 303.9337,-75.6427 298.416,-84.6873 305.2607,-86.1541"/>
</g>
<!-- Node12&#45;&gt;Node6 -->
<g id="edge20" class="edge">
<title>Node12&#45;&gt;Node6</title>
<path fill="none" stroke="#191970" d="M372.7766,-112.1707C369.0965,-97.9883 360.4556,-71.7623 344,-56 325.6572,-38.43 299.626,-27.1348 277.4911,-20.1359"/>
<polygon fill="#191970" stroke="#191970" points="278.2192,-16.7013 267.6369,-17.2154 276.2301,-23.4128 278.2192,-16.7013"/>
</g>
</g>
</svg>
