<?xml version="1.0" encoding="UTF-8" standalone="no"?>
<!DOCTYPE svg PUBLIC "-//W3C//DTD SVG 1.1//EN"
 "http://www.w3.org/Graphics/SVG/1.1/DTD/svg11.dtd">
<!-- Generated by graphviz version 2.36.0 (20140111.2315)
 -->
<!-- Title: /home/travis/build/igankevich/arma/src/velocity/small_amplitude_solver/wave.hh Pages: 1 -->
<svg width="376pt" height="242pt"
 viewBox="0.00 0.00 376.00 242.00" xmlns="http://www.w3.org/2000/svg" xmlns:xlink="http://www.w3.org/1999/xlink">
<g id="graph0" class="graph" transform="scale(1 1) rotate(0) translate(4 238)">
<title>/home/travis/build/igankevich/arma/src/velocity/small_amplitude_solver/wave.hh</title>
<!-- Node1 -->
<g id="node1" class="node"><title>Node1</title>
<polygon fill="#bfbfbf" stroke="black" points="163.5,-181 163.5,-233 290.5,-233 290.5,-181 163.5,-181"/>
<text text-anchor="start" x="171.5" y="-221" font-family="Helvetica,sans-Serif" font-size="10.00">/home/travis/build</text>
<text text-anchor="start" x="171.5" y="-210" font-family="Helvetica,sans-Serif" font-size="10.00">/igankevich/arma/src</text>
<text text-anchor="start" x="171.5" y="-199" font-family="Helvetica,sans-Serif" font-size="10.00">/velocity/small_amplitude</text>
<text text-anchor="middle" x="227" y="-188" font-family="Helvetica,sans-Serif" font-size="10.00">_solver/wave.hh</text>
</g>
<!-- Node2 -->
<g id="node2" class="node"><title>Node2</title>
<g id="a_node2"><a xlink:href="linear__interpolation_8hh.html" target="_top" xlink:title="/home/travis/build\l/igankevich/arma/src\l/velocity/small_amplitude\l_solver/linear_interpolation.hh">
<polygon fill="none" stroke="black" points="77,-91 77,-143 223,-143 223,-91 77,-91"/>
<text text-anchor="start" x="85" y="-131" font-family="Helvetica,sans-Serif" font-size="10.00">/home/travis/build</text>
<text text-anchor="start" x="85" y="-120" font-family="Helvetica,sans-Serif" font-size="10.00">/igankevich/arma/src</text>
<text text-anchor="start" x="85" y="-109" font-family="Helvetica,sans-Serif" font-size="10.00">/velocity/small_amplitude</text>
<text text-anchor="middle" x="150" y="-98" font-family="Helvetica,sans-Serif" font-size="10.00">_solver/linear_interpolation.hh</text>
</a>
</g>
</g>
<!-- Node1&#45;&gt;Node2 -->
<g id="edge1" class="edge"><title>Node1&#45;&gt;Node2</title>
<path fill="none" stroke="midnightblue" d="M197.99,-172.846C189.362,-162.985 180.056,-152.349 171.956,-143.092"/>
<polygon fill="midnightblue" stroke="midnightblue" points="195.509,-175.326 204.728,-180.547 200.777,-170.716 195.509,-175.326"/>
</g>
<!-- Node5 -->
<g id="node5" class="node"><title>Node5</title>
<g id="a_node5"><a xlink:href="wave_8cc.html" target="_top" xlink:title="/home/travis/build\l/igankevich/arma/src\l/velocity/small_amplitude\l_solver/wave.cc">
<polygon fill="none" stroke="black" points="241.5,-91 241.5,-143 368.5,-143 368.5,-91 241.5,-91"/>
<text text-anchor="start" x="249.5" y="-131" font-family="Helvetica,sans-Serif" font-size="10.00">/home/travis/build</text>
<text text-anchor="start" x="249.5" y="-120" font-family="Helvetica,sans-Serif" font-size="10.00">/igankevich/arma/src</text>
<text text-anchor="start" x="249.5" y="-109" font-family="Helvetica,sans-Serif" font-size="10.00">/velocity/small_amplitude</text>
<text text-anchor="middle" x="305" y="-98" font-family="Helvetica,sans-Serif" font-size="10.00">_solver/wave.cc</text>
</a>
</g>
</g>
<!-- Node1&#45;&gt;Node5 -->
<g id="edge4" class="edge"><title>Node1&#45;&gt;Node5</title>
<path fill="none" stroke="midnightblue" d="M256.387,-172.846C265.127,-162.985 274.554,-152.349 282.759,-143.092"/>
<polygon fill="midnightblue" stroke="midnightblue" points="253.575,-170.742 249.561,-180.547 258.813,-175.385 253.575,-170.742"/>
</g>
<!-- Node3 -->
<g id="node3" class="node"><title>Node3</title>
<g id="a_node3"><a xlink:href="linear__interpolation_8cc.html" target="_top" xlink:title="/home/travis/build\l/igankevich/arma/src\l/velocity/small_amplitude\l_solver/linear_interpolation.cc">
<polygon fill="none" stroke="black" points="0,-1 0,-53 146,-53 146,-1 0,-1"/>
<text text-anchor="start" x="8" y="-41" font-family="Helvetica,sans-Serif" font-size="10.00">/home/travis/build</text>
<text text-anchor="start" x="8" y="-30" font-family="Helvetica,sans-Serif" font-size="10.00">/igankevich/arma/src</text>
<text text-anchor="start" x="8" y="-19" font-family="Helvetica,sans-Serif" font-size="10.00">/velocity/small_amplitude</text>
<text text-anchor="middle" x="73" y="-8" font-family="Helvetica,sans-Serif" font-size="10.00">_solver/linear_interpolation.cc</text>
</a>
</g>
</g>
<!-- Node2&#45;&gt;Node3 -->
<g id="edge2" class="edge"><title>Node2&#45;&gt;Node3</title>
<path fill="none" stroke="midnightblue" d="M120.99,-82.8459C112.362,-72.9851 103.056,-62.3492 94.9556,-53.0921"/>
<polygon fill="midnightblue" stroke="midnightblue" points="118.509,-85.3257 127.728,-90.5468 123.777,-80.7162 118.509,-85.3257"/>
</g>
<!-- Node4 -->
<g id="node4" class="node"><title>Node4</title>
<g id="a_node4"><a xlink:href="small__amplitude__solver_8cc.html" target="_top" xlink:title="/home/travis/build\l/igankevich/arma/src\l/velocity/small_amplitude\l_solver.cc">
<polygon fill="none" stroke="black" points="164.5,-1 164.5,-53 291.5,-53 291.5,-1 164.5,-1"/>
<text text-anchor="start" x="172.5" y="-41" font-family="Helvetica,sans-Serif" font-size="10.00">/home/travis/build</text>
<text text-anchor="start" x="172.5" y="-30" font-family="Helvetica,sans-Serif" font-size="10.00">/igankevich/arma/src</text>
<text text-anchor="start" x="172.5" y="-19" font-family="Helvetica,sans-Serif" font-size="10.00">/velocity/small_amplitude</text>
<text text-anchor="middle" x="228" y="-8" font-family="Helvetica,sans-Serif" font-size="10.00">_solver.cc</text>
</a>
</g>
</g>
<!-- Node2&#45;&gt;Node4 -->
<g id="edge3" class="edge"><title>Node2&#45;&gt;Node4</title>
<path fill="none" stroke="midnightblue" d="M179.387,-82.8459C188.127,-72.9851 197.554,-62.3492 205.759,-53.0921"/>
<polygon fill="midnightblue" stroke="midnightblue" points="176.575,-80.7417 172.561,-90.5468 181.813,-85.3848 176.575,-80.7417"/>
</g>
</g>
</svg>
