<?xml version="1.0" encoding="UTF-8" standalone="no"?>
<!DOCTYPE svg PUBLIC "-//W3C//DTD SVG 1.1//EN"
 "http://www.w3.org/Graphics/SVG/1.1/DTD/svg11.dtd">
<!-- Generated by graphviz version 2.40.1 (20161225.0304)
 -->
<!-- Title: src/stats/weibull.hh Pages: 1 -->
<svg width="262pt" height="218pt"
 viewBox="0.00 0.00 262.00 218.00" xmlns="http://www.w3.org/2000/svg" xmlns:xlink="http://www.w3.org/1999/xlink">
<g id="graph0" class="graph" transform="scale(1 1) rotate(0) translate(4 214)">
<title>src/stats/weibull.hh</title>
<!-- Node4 -->
<g id="node1" class="node">
<title>Node4</title>
<polygon fill="#bfbfbf" stroke="#000000" points="76,-190.5 76,-209.5 177,-209.5 177,-190.5 76,-190.5"/>
<text text-anchor="middle" x="126.5" y="-197.5" font-family="Helvetica,sans-Serif" font-size="10.00" fill="#000000">src/stats/weibull.hh</text>
</g>
<!-- Node5 -->
<g id="node2" class="node">
<title>Node5</title>
<g id="a_node2"><a xlink:href="distribution_8hh.html" target="_top" xlink:title="src/stats/distribution.hh">
<polygon fill="none" stroke="#000000" points="67,-134.5 67,-153.5 186,-153.5 186,-134.5 67,-134.5"/>
<text text-anchor="middle" x="126.5" y="-141.5" font-family="Helvetica,sans-Serif" font-size="10.00" fill="#000000">src/stats/distribution.hh</text>
</a>
</g>
</g>
<!-- Node4&#45;&gt;Node5 -->
<g id="edge1" class="edge">
<title>Node4&#45;&gt;Node5</title>
<path fill="none" stroke="#191970" d="M126.5,-180.1575C126.5,-171.155 126.5,-160.9199 126.5,-153.6427"/>
<polygon fill="#191970" stroke="#191970" points="123.0001,-180.2455 126.5,-190.2455 130.0001,-180.2456 123.0001,-180.2455"/>
</g>
<!-- Node6 -->
<g id="node3" class="node">
<title>Node6</title>
<g id="a_node3"><a xlink:href="basic__arma__model__verify_8cc.html" target="_top" xlink:title="src/generator/basic\l_arma_model_verify.cc">
<polygon fill="none" stroke="#000000" points="0,-67.5 0,-97.5 117,-97.5 117,-67.5 0,-67.5"/>
<text text-anchor="start" x="8" y="-85.5" font-family="Helvetica,sans-Serif" font-size="10.00" fill="#000000">src/generator/basic</text>
<text text-anchor="middle" x="58.5" y="-74.5" font-family="Helvetica,sans-Serif" font-size="10.00" fill="#000000">_arma_model_verify.cc</text>
</a>
</g>
</g>
<!-- Node5&#45;&gt;Node6 -->
<g id="edge2" class="edge">
<title>Node5&#45;&gt;Node6</title>
<path fill="none" stroke="#191970" d="M108.2423,-127.4875C97.9388,-118.1689 85.16,-106.6116 75.1347,-97.5446"/>
<polygon fill="#191970" stroke="#191970" points="106.1106,-130.2787 115.875,-134.3906 110.806,-125.0871 106.1106,-130.2787"/>
</g>
<!-- Node8 -->
<g id="node5" class="node">
<title>Node8</title>
<g id="a_node5"><a xlink:href="distribution_8cc.html" target="_top" xlink:title="src/stats/distribution.cc">
<polygon fill="none" stroke="#000000" points="135,-73 135,-92 254,-92 254,-73 135,-73"/>
<text text-anchor="middle" x="194.5" y="-80" font-family="Helvetica,sans-Serif" font-size="10.00" fill="#000000">src/stats/distribution.cc</text>
</a>
</g>
</g>
<!-- Node5&#45;&gt;Node8 -->
<g id="edge4" class="edge">
<title>Node5&#45;&gt;Node8</title>
<path fill="none" stroke="#191970" d="M144.6906,-127.5482C157.15,-116.2798 173.253,-101.716 183.7252,-92.2449"/>
<polygon fill="#191970" stroke="#191970" points="142.194,-125.0871 137.125,-134.3906 146.8894,-130.2787 142.194,-125.0871"/>
</g>
<!-- Node7 -->
<g id="node4" class="node">
<title>Node7</title>
<g id="a_node4"><a xlink:href="basic__arma__model_8cc.html" target="_top" xlink:title="src/generator/basic\l_arma_model.cc">
<polygon fill="none" stroke="#000000" points="8.5,-.5 8.5,-30.5 108.5,-30.5 108.5,-.5 8.5,-.5"/>
<text text-anchor="start" x="16.5" y="-18.5" font-family="Helvetica,sans-Serif" font-size="10.00" fill="#000000">src/generator/basic</text>
<text text-anchor="middle" x="58.5" y="-7.5" font-family="Helvetica,sans-Serif" font-size="10.00" fill="#000000">_arma_model.cc</text>
</a>
</g>
</g>
<!-- Node6&#45;&gt;Node7 -->
<g id="edge3" class="edge">
<title>Node6&#45;&gt;Node7</title>
<path fill="none" stroke="#191970" d="M58.5,-57.0249C58.5,-48.128 58.5,-38.4287 58.5,-30.6432"/>
<polygon fill="#191970" stroke="#191970" points="55.0001,-57.2966 58.5,-67.2967 62.0001,-57.2967 55.0001,-57.2966"/>
</g>
</g>
</svg>
