<?xml version="1.0" encoding="UTF-8" standalone="no"?>
<!DOCTYPE svg PUBLIC "-//W3C//DTD SVG 1.1//EN"
 "http://www.w3.org/Graphics/SVG/1.1/DTD/svg11.dtd">
<!-- Generated by graphviz version 2.36.0 (20140111.2315)
 -->
<!-- Title: /home/travis/build/igankevich/arma/src/stats/weibull.hh Pages: 1 -->
<svg width="772pt" height="542pt"
 viewBox="0.00 0.00 772.00 542.00" xmlns="http://www.w3.org/2000/svg" xmlns:xlink="http://www.w3.org/1999/xlink">
<g id="graph0" class="graph" transform="scale(1 1) rotate(0) translate(4 538)">
<title>/home/travis/build/igankevich/arma/src/stats/weibull.hh</title>
<!-- Node1 -->
<g id="node1" class="node"><title>Node1</title>
<polygon fill="#bfbfbf" stroke="black" points="528.5,-492.5 528.5,-533.5 635.5,-533.5 635.5,-492.5 528.5,-492.5"/>
<text text-anchor="start" x="536.5" y="-521.5" font-family="Helvetica,sans-Serif" font-size="10.00">/home/travis/build</text>
<text text-anchor="start" x="536.5" y="-510.5" font-family="Helvetica,sans-Serif" font-size="10.00">/igankevich/arma/src</text>
<text text-anchor="middle" x="582" y="-499.5" font-family="Helvetica,sans-Serif" font-size="10.00">/stats/weibull.hh</text>
</g>
<!-- Node2 -->
<g id="node2" class="node"><title>Node2</title>
<g id="a_node2"><a xlink:href="distribution_8hh.html" target="_top" xlink:title="/home/travis/build\l/igankevich/arma/src\l/stats/distribution.hh">
<polygon fill="none" stroke="black" points="528.5,-414.5 528.5,-455.5 635.5,-455.5 635.5,-414.5 528.5,-414.5"/>
<text text-anchor="start" x="536.5" y="-443.5" font-family="Helvetica,sans-Serif" font-size="10.00">/home/travis/build</text>
<text text-anchor="start" x="536.5" y="-432.5" font-family="Helvetica,sans-Serif" font-size="10.00">/igankevich/arma/src</text>
<text text-anchor="middle" x="582" y="-421.5" font-family="Helvetica,sans-Serif" font-size="10.00">/stats/distribution.hh</text>
</a>
</g>
</g>
<!-- Node1&#45;&gt;Node2 -->
<g id="edge1" class="edge"><title>Node1&#45;&gt;Node2</title>
<path fill="none" stroke="midnightblue" d="M582,-482.297C582,-473.301 582,-463.653 582,-455.506"/>
<polygon fill="midnightblue" stroke="midnightblue" points="578.5,-482.428 582,-492.428 585.5,-482.428 578.5,-482.428"/>
</g>
<!-- Node3 -->
<g id="node3" class="node"><title>Node3</title>
<g id="a_node3"><a xlink:href="arma_8hh.html" target="_top" xlink:title="/home/travis/build\l/igankevich/arma/src\l/arma.hh">
<polygon fill="none" stroke="black" points="379.5,-330.5 379.5,-371.5 486.5,-371.5 486.5,-330.5 379.5,-330.5"/>
<text text-anchor="start" x="387.5" y="-359.5" font-family="Helvetica,sans-Serif" font-size="10.00">/home/travis/build</text>
<text text-anchor="start" x="387.5" y="-348.5" font-family="Helvetica,sans-Serif" font-size="10.00">/igankevich/arma/src</text>
<text text-anchor="middle" x="433" y="-337.5" font-family="Helvetica,sans-Serif" font-size="10.00">/arma.hh</text>
</a>
</g>
</g>
<!-- Node2&#45;&gt;Node3 -->
<g id="edge2" class="edge"><title>Node2&#45;&gt;Node3</title>
<path fill="none" stroke="midnightblue" d="M537.483,-409.501C515.488,-397.396 489.308,-382.988 468.656,-371.623"/>
<polygon fill="midnightblue" stroke="midnightblue" points="535.862,-412.604 546.311,-414.359 539.237,-406.471 535.862,-412.604"/>
</g>
<!-- Node19 -->
<g id="node19" class="node"><title>Node19</title>
<g id="a_node19"><a xlink:href="basic__arma__model__verify_8cc.html" target="_top" xlink:title="/home/travis/build\l/igankevich/arma/src\l/generator/basic_arma\l_model_verify.cc">
<polygon fill="none" stroke="black" points="525.5,-325 525.5,-377 638.5,-377 638.5,-325 525.5,-325"/>
<text text-anchor="start" x="533.5" y="-365" font-family="Helvetica,sans-Serif" font-size="10.00">/home/travis/build</text>
<text text-anchor="start" x="533.5" y="-354" font-family="Helvetica,sans-Serif" font-size="10.00">/igankevich/arma/src</text>
<text text-anchor="start" x="533.5" y="-343" font-family="Helvetica,sans-Serif" font-size="10.00">/generator/basic_arma</text>
<text text-anchor="middle" x="582" y="-332" font-family="Helvetica,sans-Serif" font-size="10.00">_model_verify.cc</text>
</a>
</g>
</g>
<!-- Node2&#45;&gt;Node19 -->
<g id="edge23" class="edge"><title>Node2&#45;&gt;Node19</title>
<path fill="none" stroke="midnightblue" d="M582,-403.938C582,-395.176 582,-385.695 582,-377.261"/>
<polygon fill="midnightblue" stroke="midnightblue" points="578.5,-404.15 582,-414.15 585.5,-404.15 578.5,-404.15"/>
</g>
<!-- Node20 -->
<g id="node20" class="node"><title>Node20</title>
<g id="a_node20"><a xlink:href="distribution_8cc.html" target="_top" xlink:title="/home/travis/build\l/igankevich/arma/src\l/stats/distribution.cc">
<polygon fill="none" stroke="black" points="656.5,-330.5 656.5,-371.5 763.5,-371.5 763.5,-330.5 656.5,-330.5"/>
<text text-anchor="start" x="664.5" y="-359.5" font-family="Helvetica,sans-Serif" font-size="10.00">/home/travis/build</text>
<text text-anchor="start" x="664.5" y="-348.5" font-family="Helvetica,sans-Serif" font-size="10.00">/igankevich/arma/src</text>
<text text-anchor="middle" x="710" y="-337.5" font-family="Helvetica,sans-Serif" font-size="10.00">/stats/distribution.cc</text>
</a>
</g>
</g>
<!-- Node2&#45;&gt;Node20 -->
<g id="edge25" class="edge"><title>Node2&#45;&gt;Node20</title>
<path fill="none" stroke="midnightblue" d="M621.221,-408.874C639.831,-396.952 661.747,-382.912 679.147,-371.765"/>
<polygon fill="midnightblue" stroke="midnightblue" points="619.192,-406.018 612.659,-414.359 622.968,-411.912 619.192,-406.018"/>
</g>
<!-- Node4 -->
<g id="node4" class="node"><title>Node4</title>
<g id="a_node4"><a xlink:href="arma_8cc.html" target="_top" xlink:title="/home/travis/build\l/igankevich/arma/src\l/arma.cc">
<polygon fill="none" stroke="black" points="238.5,-240.5 238.5,-281.5 345.5,-281.5 345.5,-240.5 238.5,-240.5"/>
<text text-anchor="start" x="246.5" y="-269.5" font-family="Helvetica,sans-Serif" font-size="10.00">/home/travis/build</text>
<text text-anchor="start" x="246.5" y="-258.5" font-family="Helvetica,sans-Serif" font-size="10.00">/igankevich/arma/src</text>
<text text-anchor="middle" x="292" y="-247.5" font-family="Helvetica,sans-Serif" font-size="10.00">/arma.cc</text>
</a>
</g>
</g>
<!-- Node3&#45;&gt;Node4 -->
<g id="edge3" class="edge"><title>Node3&#45;&gt;Node4</title>
<path fill="none" stroke="midnightblue" d="M392.942,-324.999C370.992,-311.3 344.17,-294.56 323.693,-281.78"/>
<polygon fill="midnightblue" stroke="midnightblue" points="391.371,-328.145 401.708,-330.47 395.077,-322.206 391.371,-328.145"/>
</g>
<!-- Node5 -->
<g id="node5" class="node"><title>Node5</title>
<g id="a_node5"><a xlink:href="arma__driver_8hh.html" target="_top" xlink:title="/home/travis/build\l/igankevich/arma/src\l/arma_driver.hh">
<polygon fill="none" stroke="black" points="498.5,-156.5 498.5,-197.5 605.5,-197.5 605.5,-156.5 498.5,-156.5"/>
<text text-anchor="start" x="506.5" y="-185.5" font-family="Helvetica,sans-Serif" font-size="10.00">/home/travis/build</text>
<text text-anchor="start" x="506.5" y="-174.5" font-family="Helvetica,sans-Serif" font-size="10.00">/igankevich/arma/src</text>
<text text-anchor="middle" x="552" y="-163.5" font-family="Helvetica,sans-Serif" font-size="10.00">/arma_driver.hh</text>
</a>
</g>
</g>
<!-- Node3&#45;&gt;Node5 -->
<g id="edge4" class="edge"><title>Node3&#45;&gt;Node5</title>
<path fill="none" stroke="midnightblue" d="M459.202,-322.838C468.755,-312.341 479.33,-299.984 488,-288 509.627,-258.105 530.273,-220.403 542.014,-197.801"/>
<polygon fill="midnightblue" stroke="midnightblue" points="456.367,-320.749 452.145,-330.467 461.505,-325.503 456.367,-320.749"/>
</g>
<!-- Node11 -->
<g id="node11" class="node"><title>Node11</title>
<g id="a_node11"><a xlink:href="ar__model_8hh.html" target="_top" xlink:title="/home/travis/build\l/igankevich/arma/src\l/generator/ar_model.hh">
<polygon fill="none" stroke="black" points="364,-240.5 364,-281.5 480,-281.5 480,-240.5 364,-240.5"/>
<text text-anchor="start" x="372" y="-269.5" font-family="Helvetica,sans-Serif" font-size="10.00">/home/travis/build</text>
<text text-anchor="start" x="372" y="-258.5" font-family="Helvetica,sans-Serif" font-size="10.00">/igankevich/arma/src</text>
<text text-anchor="middle" x="422" y="-247.5" font-family="Helvetica,sans-Serif" font-size="10.00">/generator/ar_model.hh</text>
</a>
</g>
</g>
<!-- Node3&#45;&gt;Node11 -->
<g id="edge10" class="edge"><title>Node3&#45;&gt;Node11</title>
<path fill="none" stroke="midnightblue" d="M429.291,-320.33C427.704,-307.629 425.892,-293.14 424.472,-281.78"/>
<polygon fill="midnightblue" stroke="midnightblue" points="425.845,-320.981 430.559,-330.47 432.791,-320.113 425.845,-320.981"/>
</g>
<!-- Node16 -->
<g id="node16" class="node"><title>Node16</title>
<g id="a_node16"><a xlink:href="ma__model_8hh.html" target="_top" xlink:title="/home/travis/build\l/igankevich/arma/src\l/generator/ma_model.hh">
<polygon fill="none" stroke="black" points="98,-240.5 98,-281.5 220,-281.5 220,-240.5 98,-240.5"/>
<text text-anchor="start" x="106" y="-269.5" font-family="Helvetica,sans-Serif" font-size="10.00">/home/travis/build</text>
<text text-anchor="start" x="106" y="-258.5" font-family="Helvetica,sans-Serif" font-size="10.00">/igankevich/arma/src</text>
<text text-anchor="middle" x="159" y="-247.5" font-family="Helvetica,sans-Serif" font-size="10.00">/generator/ma_model.hh</text>
</a>
</g>
</g>
<!-- Node3&#45;&gt;Node16 -->
<g id="edge18" class="edge"><title>Node3&#45;&gt;Node16</title>
<path fill="none" stroke="midnightblue" d="M369.729,-331.845C329.284,-319.976 275.822,-303.794 229,-288 222.981,-285.97 216.701,-283.764 210.482,-281.524"/>
<polygon fill="midnightblue" stroke="midnightblue" points="368.877,-335.242 379.457,-334.691 370.842,-328.524 368.877,-335.242"/>
</g>
<!-- Node18 -->
<g id="node18" class="node"><title>Node18</title>
<g id="a_node18"><a xlink:href="basic__arma__model_8cc.html" target="_top" xlink:title="/home/travis/build\l/igankevich/arma/src\l/generator/basic_arma\l_model.cc">
<polygon fill="none" stroke="black" points="536.5,-235 536.5,-287 649.5,-287 649.5,-235 536.5,-235"/>
<text text-anchor="start" x="544.5" y="-275" font-family="Helvetica,sans-Serif" font-size="10.00">/home/travis/build</text>
<text text-anchor="start" x="544.5" y="-264" font-family="Helvetica,sans-Serif" font-size="10.00">/igankevich/arma/src</text>
<text text-anchor="start" x="544.5" y="-253" font-family="Helvetica,sans-Serif" font-size="10.00">/generator/basic_arma</text>
<text text-anchor="middle" x="593" y="-242" font-family="Helvetica,sans-Serif" font-size="10.00">_model.cc</text>
</a>
</g>
</g>
<!-- Node3&#45;&gt;Node18 -->
<g id="edge22" class="edge"><title>Node3&#45;&gt;Node18</title>
<path fill="none" stroke="midnightblue" d="M477.272,-325.65C499.148,-313.619 525.508,-299.121 547.542,-287.002"/>
<polygon fill="midnightblue" stroke="midnightblue" points="475.585,-322.584 468.509,-330.47 478.958,-328.717 475.585,-322.584"/>
</g>
<!-- Node6 -->
<g id="node6" class="node"><title>Node6</title>
<g id="a_node6"><a xlink:href="arma__driver_8cc.html" target="_top" xlink:title="/home/travis/build\l/igankevich/arma/src\l/arma_driver.cc">
<polygon fill="none" stroke="black" points="621.5,-78.5 621.5,-119.5 728.5,-119.5 728.5,-78.5 621.5,-78.5"/>
<text text-anchor="start" x="629.5" y="-107.5" font-family="Helvetica,sans-Serif" font-size="10.00">/home/travis/build</text>
<text text-anchor="start" x="629.5" y="-96.5" font-family="Helvetica,sans-Serif" font-size="10.00">/igankevich/arma/src</text>
<text text-anchor="middle" x="675" y="-85.5" font-family="Helvetica,sans-Serif" font-size="10.00">/arma_driver.cc</text>
</a>
</g>
</g>
<!-- Node5&#45;&gt;Node6 -->
<g id="edge5" class="edge"><title>Node5&#45;&gt;Node6</title>
<path fill="none" stroke="midnightblue" d="M592.591,-150.919C609.127,-140.702 627.952,-129.07 643.432,-119.506"/>
<polygon fill="midnightblue" stroke="midnightblue" points="590.343,-148.194 583.676,-156.428 594.022,-154.149 590.343,-148.194"/>
</g>
<!-- Node7 -->
<g id="node7" class="node"><title>Node7</title>
<g id="a_node7"><a xlink:href="arma__main_8cc.html" target="_top" xlink:title="/home/travis/build\l/igankevich/arma/src\l/arma_main.cc">
<polygon fill="none" stroke="black" points="282.5,-0.5 282.5,-41.5 389.5,-41.5 389.5,-0.5 282.5,-0.5"/>
<text text-anchor="start" x="290.5" y="-29.5" font-family="Helvetica,sans-Serif" font-size="10.00">/home/travis/build</text>
<text text-anchor="start" x="290.5" y="-18.5" font-family="Helvetica,sans-Serif" font-size="10.00">/igankevich/arma/src</text>
<text text-anchor="middle" x="336" y="-7.5" font-family="Helvetica,sans-Serif" font-size="10.00">/arma_main.cc</text>
</a>
</g>
</g>
<!-- Node5&#45;&gt;Node7 -->
<g id="edge6" class="edge"><title>Node5&#45;&gt;Node7</title>
<path fill="none" stroke="midnightblue" d="M514.21,-150.566C500.249,-141.071 484.339,-130.136 470,-120 432.343,-93.382 389.414,-61.7553 362.512,-41.7784"/>
<polygon fill="midnightblue" stroke="midnightblue" points="512.379,-153.553 522.62,-156.271 516.309,-147.76 512.379,-153.553"/>
</g>
<!-- Node8 -->
<g id="node8" class="node"><title>Node8</title>
<g id="a_node8"><a xlink:href="arma__realtime__driver_8hh.html" target="_top" xlink:title="/home/travis/build\l/igankevich/arma/src\l/arma_realtime_driver.hh">
<polygon fill="none" stroke="black" points="479,-78.5 479,-119.5 603,-119.5 603,-78.5 479,-78.5"/>
<text text-anchor="start" x="487" y="-107.5" font-family="Helvetica,sans-Serif" font-size="10.00">/home/travis/build</text>
<text text-anchor="start" x="487" y="-96.5" font-family="Helvetica,sans-Serif" font-size="10.00">/igankevich/arma/src</text>
<text text-anchor="middle" x="541" y="-85.5" font-family="Helvetica,sans-Serif" font-size="10.00">/arma_realtime_driver.hh</text>
</a>
</g>
</g>
<!-- Node5&#45;&gt;Node8 -->
<g id="edge7" class="edge"><title>Node5&#45;&gt;Node8</title>
<path fill="none" stroke="midnightblue" d="M547.701,-146.297C546.399,-137.301 545.002,-127.653 543.823,-119.506"/>
<polygon fill="midnightblue" stroke="midnightblue" points="544.271,-147.033 549.167,-156.428 551.199,-146.03 544.271,-147.033"/>
</g>
<!-- Node9 -->
<g id="node9" class="node"><title>Node9</title>
<g id="a_node9"><a xlink:href="arma__realtime_8cc.html" target="_top" xlink:title="/home/travis/build\l/igankevich/arma/src\l/arma_realtime.cc">
<polygon fill="none" stroke="black" points="407.5,-0.5 407.5,-41.5 514.5,-41.5 514.5,-0.5 407.5,-0.5"/>
<text text-anchor="start" x="415.5" y="-29.5" font-family="Helvetica,sans-Serif" font-size="10.00">/home/travis/build</text>
<text text-anchor="start" x="415.5" y="-18.5" font-family="Helvetica,sans-Serif" font-size="10.00">/igankevich/arma/src</text>
<text text-anchor="middle" x="461" y="-7.5" font-family="Helvetica,sans-Serif" font-size="10.00">/arma_realtime.cc</text>
</a>
</g>
</g>
<!-- Node8&#45;&gt;Node9 -->
<g id="edge8" class="edge"><title>Node8&#45;&gt;Node9</title>
<path fill="none" stroke="midnightblue" d="M513.096,-71.4916C502.715,-61.6294 491.134,-50.6273 481.532,-41.5056"/>
<polygon fill="midnightblue" stroke="midnightblue" points="510.737,-74.0781 520.398,-78.4281 515.559,-69.0031 510.737,-74.0781"/>
</g>
<!-- Node10 -->
<g id="node10" class="node"><title>Node10</title>
<g id="a_node10"><a xlink:href="arma__realtime__driver_8cc.html" target="_top" xlink:title="/home/travis/build\l/igankevich/arma/src\l/arma_realtime_driver.cc">
<polygon fill="none" stroke="black" points="533,-0.5 533,-41.5 657,-41.5 657,-0.5 533,-0.5"/>
<text text-anchor="start" x="541" y="-29.5" font-family="Helvetica,sans-Serif" font-size="10.00">/home/travis/build</text>
<text text-anchor="start" x="541" y="-18.5" font-family="Helvetica,sans-Serif" font-size="10.00">/igankevich/arma/src</text>
<text text-anchor="middle" x="595" y="-7.5" font-family="Helvetica,sans-Serif" font-size="10.00">/arma_realtime_driver.cc</text>
</a>
</g>
</g>
<!-- Node8&#45;&gt;Node10 -->
<g id="edge9" class="edge"><title>Node8&#45;&gt;Node10</title>
<path fill="none" stroke="midnightblue" d="M560.861,-70.0476C567.598,-60.5657 574.974,-50.1845 581.141,-41.5056"/>
<polygon fill="midnightblue" stroke="midnightblue" points="557.845,-68.2491 554.906,-78.4281 563.552,-72.3035 557.845,-68.2491"/>
</g>
<!-- Node12 -->
<g id="node12" class="node"><title>Node12</title>
<g id="a_node12"><a xlink:href="common__main_8hh.html" target="_top" xlink:title="/home/travis/build\l/igankevich/arma/src\l/common_main.hh">
<polygon fill="none" stroke="black" points="282.5,-78.5 282.5,-119.5 389.5,-119.5 389.5,-78.5 282.5,-78.5"/>
<text text-anchor="start" x="290.5" y="-107.5" font-family="Helvetica,sans-Serif" font-size="10.00">/home/travis/build</text>
<text text-anchor="start" x="290.5" y="-96.5" font-family="Helvetica,sans-Serif" font-size="10.00">/igankevich/arma/src</text>
<text text-anchor="middle" x="336" y="-85.5" font-family="Helvetica,sans-Serif" font-size="10.00">/common_main.hh</text>
</a>
</g>
</g>
<!-- Node11&#45;&gt;Node12 -->
<g id="edge11" class="edge"><title>Node11&#45;&gt;Node12</title>
<path fill="none" stroke="midnightblue" d="M385.678,-233.905C374.215,-223.916 362.576,-211.615 355,-198 341.263,-173.316 337.317,-140.335 336.262,-119.63"/>
<polygon fill="midnightblue" stroke="midnightblue" points="383.608,-236.735 393.534,-240.439 388.084,-231.354 383.608,-236.735"/>
</g>
<!-- Node13 -->
<g id="node13" class="node"><title>Node13</title>
<g id="a_node13"><a xlink:href="arma__model_8hh.html" target="_top" xlink:title="/home/travis/build\l/igankevich/arma/src\l/generator/arma_model.hh">
<polygon fill="none" stroke="black" points="140,-156.5 140,-197.5 270,-197.5 270,-156.5 140,-156.5"/>
<text text-anchor="start" x="148" y="-185.5" font-family="Helvetica,sans-Serif" font-size="10.00">/home/travis/build</text>
<text text-anchor="start" x="148" y="-174.5" font-family="Helvetica,sans-Serif" font-size="10.00">/igankevich/arma/src</text>
<text text-anchor="middle" x="205" y="-163.5" font-family="Helvetica,sans-Serif" font-size="10.00">/generator/arma_model.hh</text>
</a>
</g>
</g>
<!-- Node11&#45;&gt;Node13 -->
<g id="edge14" class="edge"><title>Node11&#45;&gt;Node13</title>
<path fill="none" stroke="midnightblue" d="M361.252,-236.753C358.803,-235.822 356.378,-234.902 354,-234 321.958,-221.853 285.999,-208.335 257.434,-197.624"/>
<polygon fill="midnightblue" stroke="midnightblue" points="360.181,-240.091 370.772,-240.377 362.672,-233.548 360.181,-240.091"/>
</g>
<!-- Node15 -->
<g id="node15" class="node"><title>Node15</title>
<g id="a_node15"><a xlink:href="ar__model_8cc.html" target="_top" xlink:title="/home/travis/build\l/igankevich/arma/src\l/generator/ar_model.cc">
<polygon fill="none" stroke="black" points="364,-156.5 364,-197.5 480,-197.5 480,-156.5 364,-156.5"/>
<text text-anchor="start" x="372" y="-185.5" font-family="Helvetica,sans-Serif" font-size="10.00">/home/travis/build</text>
<text text-anchor="start" x="372" y="-174.5" font-family="Helvetica,sans-Serif" font-size="10.00">/igankevich/arma/src</text>
<text text-anchor="middle" x="422" y="-163.5" font-family="Helvetica,sans-Serif" font-size="10.00">/generator/ar_model.cc</text>
</a>
</g>
</g>
<!-- Node11&#45;&gt;Node15 -->
<g id="edge17" class="edge"><title>Node11&#45;&gt;Node15</title>
<path fill="none" stroke="midnightblue" d="M422,-229.881C422,-219.133 422,-207.309 422,-197.667"/>
<polygon fill="midnightblue" stroke="midnightblue" points="418.5,-230.15 422,-240.15 425.5,-230.15 418.5,-230.15"/>
</g>
<!-- Node12&#45;&gt;Node7 -->
<g id="edge12" class="edge"><title>Node12&#45;&gt;Node7</title>
<path fill="none" stroke="midnightblue" d="M336,-68.2965C336,-59.3009 336,-49.6532 336,-41.5056"/>
<polygon fill="midnightblue" stroke="midnightblue" points="332.5,-68.4281 336,-78.4281 339.5,-68.4281 332.5,-68.4281"/>
</g>
<!-- Node12&#45;&gt;Node9 -->
<g id="edge13" class="edge"><title>Node12&#45;&gt;Node9</title>
<path fill="none" stroke="midnightblue" d="M376.785,-73.2029C393.701,-62.9176 413.042,-51.1587 428.918,-41.5056"/>
<polygon fill="midnightblue" stroke="midnightblue" points="374.917,-70.2423 368.191,-78.4281 378.554,-76.2236 374.917,-70.2423"/>
</g>
<!-- Node13&#45;&gt;Node12 -->
<g id="edge15" class="edge"><title>Node13&#45;&gt;Node12</title>
<path fill="none" stroke="midnightblue" d="M247.742,-151.203C265.471,-140.918 285.74,-129.159 302.379,-119.506"/>
<polygon fill="midnightblue" stroke="midnightblue" points="245.629,-148.382 238.736,-156.428 249.142,-154.437 245.629,-148.382"/>
</g>
<!-- Node14 -->
<g id="node14" class="node"><title>Node14</title>
<g id="a_node14"><a xlink:href="arma__model_8cc.html" target="_top" xlink:title="/home/travis/build\l/igankevich/arma/src\l/generator/arma_model.cc">
<polygon fill="none" stroke="black" points="134,-78.5 134,-119.5 264,-119.5 264,-78.5 134,-78.5"/>
<text text-anchor="start" x="142" y="-107.5" font-family="Helvetica,sans-Serif" font-size="10.00">/home/travis/build</text>
<text text-anchor="start" x="142" y="-96.5" font-family="Helvetica,sans-Serif" font-size="10.00">/igankevich/arma/src</text>
<text text-anchor="middle" x="199" y="-85.5" font-family="Helvetica,sans-Serif" font-size="10.00">/generator/arma_model.cc</text>
</a>
</g>
</g>
<!-- Node13&#45;&gt;Node14 -->
<g id="edge16" class="edge"><title>Node13&#45;&gt;Node14</title>
<path fill="none" stroke="midnightblue" d="M202.655,-146.297C201.945,-137.301 201.183,-127.653 200.54,-119.506"/>
<polygon fill="midnightblue" stroke="midnightblue" points="199.179,-146.735 203.455,-156.428 206.157,-146.184 199.179,-146.735"/>
</g>
<!-- Node16&#45;&gt;Node12 -->
<g id="edge19" class="edge"><title>Node16&#45;&gt;Node12</title>
<path fill="none" stroke="midnightblue" d="M221.221,-236.139C241.245,-226.409 262.498,-213.698 279,-198 302.53,-175.616 319.407,-141.375 328.433,-119.861"/>
<polygon fill="midnightblue" stroke="midnightblue" points="219.698,-232.988 212.129,-240.401 222.669,-239.326 219.698,-232.988"/>
</g>
<!-- Node16&#45;&gt;Node13 -->
<g id="edge20" class="edge"><title>Node16&#45;&gt;Node13</title>
<path fill="none" stroke="midnightblue" d="M175.146,-231.219C181.371,-220.122 188.333,-207.711 193.967,-197.667"/>
<polygon fill="midnightblue" stroke="midnightblue" points="171.975,-229.716 170.135,-240.15 178.08,-233.141 171.975,-229.716"/>
</g>
<!-- Node17 -->
<g id="node17" class="node"><title>Node17</title>
<g id="a_node17"><a xlink:href="ma__model_8cc.html" target="_top" xlink:title="/home/travis/build\l/igankevich/arma/src\l/generator/ma_model.cc">
<polygon fill="none" stroke="black" points="0,-156.5 0,-197.5 122,-197.5 122,-156.5 0,-156.5"/>
<text text-anchor="start" x="8" y="-185.5" font-family="Helvetica,sans-Serif" font-size="10.00">/home/travis/build</text>
<text text-anchor="start" x="8" y="-174.5" font-family="Helvetica,sans-Serif" font-size="10.00">/igankevich/arma/src</text>
<text text-anchor="middle" x="61" y="-163.5" font-family="Helvetica,sans-Serif" font-size="10.00">/generator/ma_model.cc</text>
</a>
</g>
</g>
<!-- Node16&#45;&gt;Node17 -->
<g id="edge21" class="edge"><title>Node16&#45;&gt;Node17</title>
<path fill="none" stroke="midnightblue" d="M127.363,-233.528C113.431,-221.871 97.3483,-208.414 84.5046,-197.667"/>
<polygon fill="midnightblue" stroke="midnightblue" points="125.362,-236.417 135.277,-240.15 129.854,-231.049 125.362,-236.417"/>
</g>
<!-- Node19&#45;&gt;Node18 -->
<g id="edge24" class="edge"><title>Node19&#45;&gt;Node18</title>
<path fill="none" stroke="midnightblue" d="M586.439,-314.489C587.586,-305.309 588.798,-295.616 589.863,-287.092"/>
<polygon fill="midnightblue" stroke="midnightblue" points="582.949,-314.19 585.182,-324.547 589.895,-315.058 582.949,-314.19"/>
</g>
</g>
</svg>
