<?xml version="1.0" encoding="UTF-8" standalone="no"?>
<!DOCTYPE svg PUBLIC "-//W3C//DTD SVG 1.1//EN"
 "http://www.w3.org/Graphics/SVG/1.1/DTD/svg11.dtd">
<!-- Generated by graphviz version 2.36.0 (20140111.2315)
 -->
<!-- Title: /home/travis/build/igankevich/arma/src/white_noise.hh Pages: 1 -->
<svg width="859pt" height="162pt"
 viewBox="0.00 0.00 859.00 162.00" xmlns="http://www.w3.org/2000/svg" xmlns:xlink="http://www.w3.org/1999/xlink">
<g id="graph0" class="graph" transform="scale(1 1) rotate(0) translate(4 158)">
<title>/home/travis/build/igankevich/arma/src/white_noise.hh</title>
<!-- Node1 -->
<g id="node1" class="node"><title>Node1</title>
<polygon fill="#bfbfbf" stroke="black" points="344.5,-112.5 344.5,-153.5 451.5,-153.5 451.5,-112.5 344.5,-112.5"/>
<text text-anchor="start" x="352.5" y="-141.5" font-family="Helvetica,sans-Serif" font-size="10.00">/home/travis/build</text>
<text text-anchor="start" x="352.5" y="-130.5" font-family="Helvetica,sans-Serif" font-size="10.00">/igankevich/arma/src</text>
<text text-anchor="middle" x="398" y="-119.5" font-family="Helvetica,sans-Serif" font-size="10.00">/white_noise.hh</text>
</g>
<!-- Node2 -->
<g id="node2" class="node"><title>Node2</title>
<polygon fill="none" stroke="#bfbfbf" points="267,-56.5 267,-75.5 311,-75.5 311,-56.5 267,-56.5"/>
<text text-anchor="middle" x="289" y="-63.5" font-family="Helvetica,sans-Serif" font-size="10.00">cmath</text>
</g>
<!-- Node1&#45;&gt;Node2 -->
<g id="edge1" class="edge"><title>Node1&#45;&gt;Node2</title>
<path fill="none" stroke="midnightblue" d="M365.296,-112.498C348.263,-102.34 327.829,-90.1551 312.397,-80.9523"/>
<polygon fill="midnightblue" stroke="midnightblue" points="313.891,-77.7682 303.51,-75.6525 310.306,-83.7804 313.891,-77.7682"/>
</g>
<!-- Node3 -->
<g id="node3" class="node"><title>Node3</title>
<g id="a_node3"><a xlink:href="types_8hh.html" target="_top" xlink:title="types.hh">
<polygon fill="none" stroke="black" points="329,-56.5 329,-75.5 383,-75.5 383,-56.5 329,-56.5"/>
<text text-anchor="middle" x="356" y="-63.5" font-family="Helvetica,sans-Serif" font-size="10.00">types.hh</text>
</a>
</g>
</g>
<!-- Node1&#45;&gt;Node3 -->
<g id="edge2" class="edge"><title>Node1&#45;&gt;Node3</title>
<path fill="none" stroke="midnightblue" d="M385.399,-112.498C379.578,-103.49 372.728,-92.8881 367.104,-84.1852"/>
<polygon fill="midnightblue" stroke="midnightblue" points="369.958,-82.1522 361.591,-75.6525 364.078,-85.9512 369.958,-82.1522"/>
</g>
<!-- Node5 -->
<g id="node5" class="node"><title>Node5</title>
<g id="a_node5"><a xlink:href="parallel__mt_8hh.html" target="_top" xlink:title="parallel_mt.hh">
<polygon fill="none" stroke="black" points="401.5,-56.5 401.5,-75.5 478.5,-75.5 478.5,-56.5 401.5,-56.5"/>
<text text-anchor="middle" x="440" y="-63.5" font-family="Helvetica,sans-Serif" font-size="10.00">parallel_mt.hh</text>
</a>
</g>
</g>
<!-- Node1&#45;&gt;Node5 -->
<g id="edge4" class="edge"><title>Node1&#45;&gt;Node5</title>
<path fill="none" stroke="midnightblue" d="M410.601,-112.498C416.422,-103.49 423.272,-92.8881 428.896,-84.1852"/>
<polygon fill="midnightblue" stroke="midnightblue" points="431.922,-85.9512 434.409,-75.6525 426.042,-82.1522 431.922,-85.9512"/>
</g>
<!-- Node18 -->
<g id="node18" class="node"><title>Node18</title>
<polygon fill="none" stroke="#bfbfbf" points="497,-56.5 497,-75.5 553,-75.5 553,-56.5 497,-56.5"/>
<text text-anchor="middle" x="525" y="-63.5" font-family="Helvetica,sans-Serif" font-size="10.00">config.hh</text>
</g>
<!-- Node1&#45;&gt;Node18 -->
<g id="edge17" class="edge"><title>Node1&#45;&gt;Node18</title>
<path fill="none" stroke="midnightblue" d="M436.104,-112.498C456.325,-102.149 480.658,-89.6946 498.751,-80.4346"/>
<polygon fill="midnightblue" stroke="midnightblue" points="500.787,-83.3242 508.094,-75.6525 497.598,-77.093 500.787,-83.3242"/>
</g>
<!-- Node4 -->
<g id="node4" class="node"><title>Node4</title>
<polygon fill="none" stroke="#bfbfbf" points="0,-0.5 0,-19.5 68,-19.5 68,-0.5 0,-0.5"/>
<text text-anchor="middle" x="34" y="-7.5" font-family="Helvetica,sans-Serif" font-size="10.00">blitz/array.h</text>
</g>
<!-- Node3&#45;&gt;Node4 -->
<g id="edge3" class="edge"><title>Node3&#45;&gt;Node4</title>
<path fill="none" stroke="midnightblue" d="M328.985,-58.1283C325.632,-57.3644 322.244,-56.6345 319,-56 215.409,-35.7396 185.762,-38.9325 78.1894,-20.1186"/>
<polygon fill="midnightblue" stroke="midnightblue" points="78.6897,-16.6528 68.2323,-18.3538 77.468,-23.5454 78.6897,-16.6528"/>
</g>
<!-- Node6 -->
<g id="node6" class="node"><title>Node6</title>
<polygon fill="none" stroke="#bfbfbf" points="86.5,-0.5 86.5,-19.5 131.5,-19.5 131.5,-0.5 86.5,-0.5"/>
<text text-anchor="middle" x="109" y="-7.5" font-family="Helvetica,sans-Serif" font-size="10.00">cstdlib</text>
</g>
<!-- Node5&#45;&gt;Node6 -->
<g id="edge5" class="edge"><title>Node5&#45;&gt;Node6</title>
<path fill="none" stroke="midnightblue" d="M401.253,-57.5873C398.125,-57.034 395.011,-56.498 392,-56 283.962,-38.1321 253,-43.0034 141.585,-19.86"/>
<polygon fill="midnightblue" stroke="midnightblue" points="142.141,-16.4004 131.634,-17.7638 140.698,-23.25 142.141,-16.4004"/>
</g>
<!-- Node7 -->
<g id="node7" class="node"><title>Node7</title>
<polygon fill="none" stroke="#bfbfbf" points="150,-0.5 150,-19.5 206,-19.5 206,-0.5 150,-0.5"/>
<text text-anchor="middle" x="178" y="-7.5" font-family="Helvetica,sans-Serif" font-size="10.00">algorithm</text>
</g>
<!-- Node5&#45;&gt;Node7 -->
<g id="edge6" class="edge"><title>Node5&#45;&gt;Node7</title>
<path fill="none" stroke="midnightblue" d="M401.279,-57.7585C358.384,-49.6252 286.931,-35.7494 216.223,-20.2037"/>
<polygon fill="midnightblue" stroke="midnightblue" points="216.774,-16.741 206.254,-17.9995 215.262,-23.5759 216.774,-16.741"/>
</g>
<!-- Node8 -->
<g id="node8" class="node"><title>Node8</title>
<polygon fill="none" stroke="#bfbfbf" points="224,-0.5 224,-19.5 270,-19.5 270,-0.5 224,-0.5"/>
<text text-anchor="middle" x="247" y="-7.5" font-family="Helvetica,sans-Serif" font-size="10.00">cstdint</text>
</g>
<!-- Node5&#45;&gt;Node8 -->
<g id="edge7" class="edge"><title>Node5&#45;&gt;Node8</title>
<path fill="none" stroke="midnightblue" d="M409.431,-56.4716C379.003,-47.9794 330.71,-34.4914 279.918,-20.2544"/>
<polygon fill="midnightblue" stroke="midnightblue" points="280.644,-16.8231 270.071,-17.4935 278.755,-23.5632 280.644,-16.8231"/>
</g>
<!-- Node9 -->
<g id="node9" class="node"><title>Node9</title>
<polygon fill="none" stroke="#bfbfbf" points="288,-0.5 288,-19.5 334,-19.5 334,-0.5 288,-0.5"/>
<text text-anchor="middle" x="311" y="-7.5" font-family="Helvetica,sans-Serif" font-size="10.00">cstring</text>
</g>
<!-- Node5&#45;&gt;Node9 -->
<g id="edge8" class="edge"><title>Node5&#45;&gt;Node9</title>
<path fill="none" stroke="midnightblue" d="M419.56,-56.4435C398.33,-47.5566 364.901,-33.5632 340.745,-23.4514"/>
<polygon fill="midnightblue" stroke="midnightblue" points="341.921,-20.1493 331.345,-19.5164 339.218,-26.6064 341.921,-20.1493"/>
</g>
<!-- Node10 -->
<g id="node10" class="node"><title>Node10</title>
<polygon fill="none" stroke="#bfbfbf" points="352.5,-0.5 352.5,-19.5 401.5,-19.5 401.5,-0.5 352.5,-0.5"/>
<text text-anchor="middle" x="377" y="-7.5" font-family="Helvetica,sans-Serif" font-size="10.00">istream</text>
</g>
<!-- Node5&#45;&gt;Node10 -->
<g id="edge9" class="edge"><title>Node5&#45;&gt;Node10</title>
<path fill="none" stroke="midnightblue" d="M429.878,-56.324C420.474,-48.2631 406.256,-36.0765 394.931,-26.3695"/>
<polygon fill="midnightblue" stroke="midnightblue" points="397.177,-23.6844 387.306,-19.8339 392.621,-28.9993 397.177,-23.6844"/>
</g>
<!-- Node11 -->
<g id="node11" class="node"><title>Node11</title>
<polygon fill="none" stroke="#bfbfbf" points="420,-0.5 420,-19.5 460,-19.5 460,-0.5 420,-0.5"/>
<text text-anchor="middle" x="440" y="-7.5" font-family="Helvetica,sans-Serif" font-size="10.00">limits</text>
</g>
<!-- Node5&#45;&gt;Node11 -->
<g id="edge10" class="edge"><title>Node5&#45;&gt;Node11</title>
<path fill="none" stroke="midnightblue" d="M440,-56.083C440,-49.0059 440,-38.8611 440,-29.9865"/>
<polygon fill="midnightblue" stroke="midnightblue" points="443.5,-29.751 440,-19.7511 436.5,-29.7511 443.5,-29.751"/>
</g>
<!-- Node12 -->
<g id="node12" class="node"><title>Node12</title>
<polygon fill="none" stroke="#bfbfbf" points="478.5,-0.5 478.5,-19.5 537.5,-19.5 537.5,-0.5 478.5,-0.5"/>
<text text-anchor="middle" x="508" y="-7.5" font-family="Helvetica,sans-Serif" font-size="10.00">stdexcept</text>
</g>
<!-- Node5&#45;&gt;Node12 -->
<g id="edge11" class="edge"><title>Node5&#45;&gt;Node12</title>
<path fill="none" stroke="midnightblue" d="M450.925,-56.324C461.175,-48.1849 476.721,-35.8395 489.001,-26.0874"/>
<polygon fill="midnightblue" stroke="midnightblue" points="491.221,-28.7937 496.876,-19.8339 486.868,-23.3119 491.221,-28.7937"/>
</g>
<!-- Node13 -->
<g id="node13" class="node"><title>Node13</title>
<polygon fill="none" stroke="#bfbfbf" points="556,-0.5 556,-19.5 600,-19.5 600,-0.5 556,-0.5"/>
<text text-anchor="middle" x="578" y="-7.5" font-family="Helvetica,sans-Serif" font-size="10.00">vector</text>
</g>
<!-- Node5&#45;&gt;Node13 -->
<g id="edge12" class="edge"><title>Node5&#45;&gt;Node13</title>
<path fill="none" stroke="midnightblue" d="M461.867,-56.4435C484.779,-47.4776 520.975,-33.314 546.866,-23.1827"/>
<polygon fill="midnightblue" stroke="midnightblue" points="548.199,-26.4198 556.236,-19.5164 545.648,-19.9011 548.199,-26.4198"/>
</g>
<!-- Node14 -->
<g id="node14" class="node"><title>Node14</title>
<polygon fill="none" stroke="#bfbfbf" points="618,-0.5 618,-19.5 668,-19.5 668,-0.5 618,-0.5"/>
<text text-anchor="middle" x="643" y="-7.5" font-family="Helvetica,sans-Serif" font-size="10.00">fstream</text>
</g>
<!-- Node5&#45;&gt;Node14 -->
<g id="edge13" class="edge"><title>Node5&#45;&gt;Node14</title>
<path fill="none" stroke="midnightblue" d="M472.166,-56.4435C509.214,-46.5883 569.87,-30.4533 608.054,-20.2961"/>
<polygon fill="midnightblue" stroke="midnightblue" points="608.955,-23.6782 617.719,-17.7251 607.155,-16.9135 608.955,-23.6782"/>
</g>
<!-- Node15 -->
<g id="node15" class="node"><title>Node15</title>
<polygon fill="none" stroke="#bfbfbf" points="686.5,-0.5 686.5,-19.5 733.5,-19.5 733.5,-0.5 686.5,-0.5"/>
<text text-anchor="middle" x="710" y="-7.5" font-family="Helvetica,sans-Serif" font-size="10.00">iterator</text>
</g>
<!-- Node5&#45;&gt;Node15 -->
<g id="edge14" class="edge"><title>Node5&#45;&gt;Node15</title>
<path fill="none" stroke="midnightblue" d="M478.736,-57.7273C536.104,-46.9463 640.062,-27.3667 676.041,-19.9266"/>
<polygon fill="midnightblue" stroke="midnightblue" points="677.231,-23.2503 686.263,-17.7132 675.749,-16.4089 677.231,-23.2503"/>
</g>
<!-- Node16 -->
<g id="node16" class="node"><title>Node16</title>
<polygon fill="none" stroke="#bfbfbf" points="752,-0.5 752,-19.5 798,-19.5 798,-0.5 752,-0.5"/>
<text text-anchor="middle" x="775" y="-7.5" font-family="Helvetica,sans-Serif" font-size="10.00">chrono</text>
</g>
<!-- Node5&#45;&gt;Node16 -->
<g id="edge15" class="edge"><title>Node5&#45;&gt;Node16</title>
<path fill="none" stroke="midnightblue" d="M478.746,-57.5818C481.874,-57.0297 484.988,-56.4955 488,-56 597.318,-38.0136 628.58,-42.7499 741.561,-19.8325"/>
<polygon fill="midnightblue" stroke="midnightblue" points="742.562,-23.1999 751.652,-17.7569 741.152,-16.3435 742.562,-23.1999"/>
</g>
<!-- Node17 -->
<g id="node17" class="node"><title>Node17</title>
<polygon fill="none" stroke="#bfbfbf" points="816.5,-0.5 816.5,-19.5 851.5,-19.5 851.5,-0.5 816.5,-0.5"/>
<text text-anchor="middle" x="834" y="-7.5" font-family="Helvetica,sans-Serif" font-size="10.00">dc.h</text>
</g>
<!-- Node5&#45;&gt;Node17 -->
<g id="edge16" class="edge"><title>Node5&#45;&gt;Node17</title>
<path fill="none" stroke="midnightblue" d="M478.732,-57.4869C481.863,-56.956 484.981,-56.4527 488,-56 625.931,-35.3143 665.886,-50.0325 806.57,-19.6138"/>
<polygon fill="midnightblue" stroke="midnightblue" points="807.416,-23.0116 816.43,-17.4445 805.911,-16.1751 807.416,-23.0116"/>
</g>
</g>
</svg>
