<?xml version="1.0" encoding="UTF-8" standalone="no"?>
<!DOCTYPE svg PUBLIC "-//W3C//DTD SVG 1.1//EN"
 "http://www.w3.org/Graphics/SVG/1.1/DTD/svg11.dtd">
<!-- Generated by graphviz version 2.40.1 (20161225.0304)
 -->
<!-- Title: src/white_noise.hh Pages: 1 -->
<svg width="256pt" height="95pt"
 viewBox="0.00 0.00 255.50 95.00" xmlns="http://www.w3.org/2000/svg" xmlns:xlink="http://www.w3.org/1999/xlink">
<g id="graph0" class="graph" transform="scale(1 1) rotate(0) translate(4 91)">
<title>src/white_noise.hh</title>
<!-- Node18 -->
<g id="node1" class="node">
<title>Node18</title>
<polygon fill="#bfbfbf" stroke="#000000" points="67,-67.5 67,-86.5 165,-86.5 165,-67.5 67,-67.5"/>
<text text-anchor="middle" x="116" y="-74.5" font-family="Helvetica,sans-Serif" font-size="10.00" fill="#000000">src/white_noise.hh</text>
</g>
<!-- Node19 -->
<g id="node2" class="node">
<title>Node19</title>
<g id="a_node2"><a xlink:href="basic__arma__model_8cc.html" target="_top" xlink:title="src/generator/basic\l_arma_model.cc">
<polygon fill="none" stroke="#000000" points="0,-.5 0,-30.5 100,-30.5 100,-.5 0,-.5"/>
<text text-anchor="start" x="8" y="-18.5" font-family="Helvetica,sans-Serif" font-size="10.00" fill="#000000">src/generator/basic</text>
<text text-anchor="middle" x="50" y="-7.5" font-family="Helvetica,sans-Serif" font-size="10.00" fill="#000000">_arma_model.cc</text>
</a>
</g>
</g>
<!-- Node18&#45;&gt;Node19 -->
<g id="edge1" class="edge">
<title>Node18&#45;&gt;Node19</title>
<path fill="none" stroke="#191970" d="M98.2793,-60.4875C88.2788,-51.1689 75.8759,-39.6116 66.1454,-30.5446"/>
<polygon fill="#191970" stroke="#191970" points="95.9853,-63.134 105.6875,-67.3906 100.7574,-58.0127 95.9853,-63.134"/>
</g>
<!-- Node20 -->
<g id="node3" class="node">
<title>Node20</title>
<g id="a_node3"><a xlink:href="lh__model_8cc.html" target="_top" xlink:title="src/generator/lh_model.cc">
<polygon fill="none" stroke="#000000" points="118.5,-6 118.5,-25 247.5,-25 247.5,-6 118.5,-6"/>
<text text-anchor="middle" x="183" y="-13" font-family="Helvetica,sans-Serif" font-size="10.00" fill="#000000">src/generator/lh_model.cc</text>
</a>
</g>
</g>
<!-- Node18&#45;&gt;Node20 -->
<g id="edge2" class="edge">
<title>Node18&#45;&gt;Node20</title>
<path fill="none" stroke="#191970" d="M133.9231,-60.5482C146.1993,-49.2798 162.0655,-34.716 172.3837,-25.2449"/>
<polygon fill="#191970" stroke="#191970" points="131.469,-58.0499 126.4688,-67.3906 136.2025,-63.2068 131.469,-58.0499"/>
</g>
</g>
</svg>
