<?xml version="1.0" encoding="UTF-8" standalone="no"?>
<!DOCTYPE svg PUBLIC "-//W3C//DTD SVG 1.1//EN"
 "http://www.w3.org/Graphics/SVG/1.1/DTD/svg11.dtd">
<!-- Generated by graphviz version 2.36.0 (20140111.2315)
 -->
<!-- Title: /home/travis/build/igankevich/arma/src/bits/write_csv.hh Pages: 1 -->
<svg width="299pt" height="274pt"
 viewBox="0.00 0.00 298.85 274.00" xmlns="http://www.w3.org/2000/svg" xmlns:xlink="http://www.w3.org/1999/xlink">
<g id="graph0" class="graph" transform="scale(1 1) rotate(0) translate(4 270)">
<title>/home/travis/build/igankevich/arma/src/bits/write_csv.hh</title>
<!-- Node1 -->
<g id="node1" class="node"><title>Node1</title>
<polygon fill="#bfbfbf" stroke="black" points="70.3547,-224.5 70.3547,-265.5 177.355,-265.5 177.355,-224.5 70.3547,-224.5"/>
<text text-anchor="start" x="78.3547" y="-253.5" font-family="Helvetica,sans-Serif" font-size="10.00">/home/travis/build</text>
<text text-anchor="start" x="78.3547" y="-242.5" font-family="Helvetica,sans-Serif" font-size="10.00">/igankevich/arma/src</text>
<text text-anchor="middle" x="123.855" y="-231.5" font-family="Helvetica,sans-Serif" font-size="10.00">/bits/write_csv.hh</text>
</g>
<!-- Node2 -->
<g id="node2" class="node"><title>Node2</title>
<g id="a_node2"><a xlink:href="grid_8hh.html" target="_top" xlink:title="grid.hh">
<polygon fill="none" stroke="black" points="67.8547,-168.5 67.8547,-187.5 113.855,-187.5 113.855,-168.5 67.8547,-168.5"/>
<text text-anchor="middle" x="90.8547" y="-175.5" font-family="Helvetica,sans-Serif" font-size="10.00">grid.hh</text>
</a>
</g>
</g>
<!-- Node1&#45;&gt;Node2 -->
<g id="edge1" class="edge"><title>Node1&#45;&gt;Node2</title>
<path fill="none" stroke="midnightblue" d="M113.954,-224.498C109.478,-215.682 104.227,-205.339 99.8628,-196.743"/>
<polygon fill="midnightblue" stroke="midnightblue" points="102.895,-194.985 95.2475,-187.652 96.6536,-198.154 102.895,-194.985"/>
</g>
<!-- Node5 -->
<g id="node5" class="node"><title>Node5</title>
<polygon fill="none" stroke="#bfbfbf" points="56.8547,-0.5 56.8547,-19.5 124.855,-19.5 124.855,-0.5 56.8547,-0.5"/>
<text text-anchor="middle" x="90.8547" y="-7.5" font-family="Helvetica,sans-Serif" font-size="10.00">blitz/array.h</text>
</g>
<!-- Node1&#45;&gt;Node5 -->
<g id="edge11" class="edge"><title>Node1&#45;&gt;Node5</title>
<path fill="none" stroke="midnightblue" d="M90.0808,-224.361C60.7778,-205.11 20.5204,-172.753 3.85468,-132 -13.7943,-88.8428 36.517,-46.4857 67.8533,-25.1885"/>
<polygon fill="midnightblue" stroke="midnightblue" points="70.0552,-27.9299 76.4949,-19.5168 66.2142,-22.0778 70.0552,-27.9299"/>
</g>
<!-- Node11 -->
<g id="node11" class="node"><title>Node11</title>
<polygon fill="none" stroke="#bfbfbf" points="131.855,-168.5 131.855,-187.5 181.855,-187.5 181.855,-168.5 131.855,-168.5"/>
<text text-anchor="middle" x="156.855" y="-175.5" font-family="Helvetica,sans-Serif" font-size="10.00">fstream</text>
</g>
<!-- Node1&#45;&gt;Node11 -->
<g id="edge12" class="edge"><title>Node1&#45;&gt;Node11</title>
<path fill="none" stroke="midnightblue" d="M133.756,-224.498C138.231,-215.682 143.483,-205.339 147.847,-196.743"/>
<polygon fill="midnightblue" stroke="midnightblue" points="151.056,-198.154 152.462,-187.652 144.814,-194.985 151.056,-198.154"/>
</g>
<!-- Node12 -->
<g id="node12" class="node"><title>Node12</title>
<polygon fill="none" stroke="#bfbfbf" points="200.355,-168.5 200.355,-187.5 241.355,-187.5 241.355,-168.5 200.355,-168.5"/>
<text text-anchor="middle" x="220.855" y="-175.5" font-family="Helvetica,sans-Serif" font-size="10.00">string</text>
</g>
<!-- Node1&#45;&gt;Node12 -->
<g id="edge13" class="edge"><title>Node1&#45;&gt;Node12</title>
<path fill="none" stroke="midnightblue" d="M152.958,-224.498C167.83,-214.532 185.615,-202.614 199.251,-193.476"/>
<polygon fill="midnightblue" stroke="midnightblue" points="201.584,-196.127 207.943,-187.652 197.687,-190.312 201.584,-196.127"/>
</g>
<!-- Node3 -->
<g id="node3" class="node"><title>Node3</title>
<polygon fill="none" stroke="#bfbfbf" points="118.855,-112.5 118.855,-131.5 170.855,-131.5 170.855,-112.5 118.855,-112.5"/>
<text text-anchor="middle" x="144.855" y="-119.5" font-family="Helvetica,sans-Serif" font-size="10.00">stddef.h</text>
</g>
<!-- Node2&#45;&gt;Node3 -->
<g id="edge2" class="edge"><title>Node2&#45;&gt;Node3</title>
<path fill="none" stroke="midnightblue" d="M99.7717,-168.083C107.635,-160.22 119.286,-148.569 128.773,-139.081"/>
<polygon fill="midnightblue" stroke="midnightblue" points="131.507,-141.297 136.104,-131.751 126.558,-136.347 131.507,-141.297"/>
</g>
<!-- Node4 -->
<g id="node4" class="node"><title>Node4</title>
<polygon fill="none" stroke="#bfbfbf" points="13.3547,-112.5 13.3547,-131.5 62.3547,-131.5 62.3547,-112.5 13.3547,-112.5"/>
<text text-anchor="middle" x="37.8547" y="-119.5" font-family="Helvetica,sans-Serif" font-size="10.00">istream</text>
</g>
<!-- Node2&#45;&gt;Node4 -->
<g id="edge3" class="edge"><title>Node2&#45;&gt;Node4</title>
<path fill="none" stroke="midnightblue" d="M82.1028,-168.083C74.385,-160.22 62.95,-148.569 53.6381,-139.081"/>
<polygon fill="midnightblue" stroke="midnightblue" points="55.9463,-136.436 46.4437,-131.751 50.9505,-141.34 55.9463,-136.436"/>
</g>
<!-- Node2&#45;&gt;Node5 -->
<g id="edge4" class="edge"><title>Node2&#45;&gt;Node5</title>
<path fill="none" stroke="midnightblue" d="M90.8547,-168.075C90.8547,-141.945 90.8547,-65.2106 90.8547,-29.577"/>
<polygon fill="midnightblue" stroke="midnightblue" points="94.3548,-29.5681 90.8547,-19.5681 87.3548,-29.5681 94.3548,-29.5681"/>
</g>
<!-- Node6 -->
<g id="node6" class="node"><title>Node6</title>
<g id="a_node6"><a xlink:href="validators_8hh.html" target="_top" xlink:title="validators.hh">
<polygon fill="none" stroke="black" points="188.855,-112.5 188.855,-131.5 260.855,-131.5 260.855,-112.5 188.855,-112.5"/>
<text text-anchor="middle" x="224.855" y="-119.5" font-family="Helvetica,sans-Serif" font-size="10.00">validators.hh</text>
</a>
</g>
</g>
<!-- Node2&#45;&gt;Node6 -->
<g id="edge5" class="edge"><title>Node2&#45;&gt;Node6</title>
<path fill="none" stroke="midnightblue" d="M112.087,-168.444C134.238,-159.517 169.173,-145.439 194.291,-135.317"/>
<polygon fill="midnightblue" stroke="midnightblue" points="195.754,-138.501 203.721,-131.516 193.138,-132.008 195.754,-138.501"/>
</g>
<!-- Node7 -->
<g id="node7" class="node"><title>Node7</title>
<polygon fill="none" stroke="#bfbfbf" points="123.355,-56.5 123.355,-75.5 182.355,-75.5 182.355,-56.5 123.355,-56.5"/>
<text text-anchor="middle" x="152.855" y="-63.5" font-family="Helvetica,sans-Serif" font-size="10.00">stdexcept</text>
</g>
<!-- Node6&#45;&gt;Node7 -->
<g id="edge6" class="edge"><title>Node6&#45;&gt;Node7</title>
<path fill="none" stroke="midnightblue" d="M213.287,-112.324C202.434,-104.185 185.974,-91.8395 172.971,-82.0874"/>
<polygon fill="midnightblue" stroke="midnightblue" points="174.733,-79.0339 164.633,-75.8339 170.533,-84.6339 174.733,-79.0339"/>
</g>
<!-- Node8 -->
<g id="node8" class="node"><title>Node8</title>
<g id="a_node8"><a xlink:href="blitz_8hh.html" target="_top" xlink:title="blitz.hh">
<polygon fill="none" stroke="black" points="200.855,-56.5 200.855,-75.5 248.855,-75.5 248.855,-56.5 200.855,-56.5"/>
<text text-anchor="middle" x="224.855" y="-63.5" font-family="Helvetica,sans-Serif" font-size="10.00">blitz.hh</text>
</a>
</g>
</g>
<!-- Node6&#45;&gt;Node8 -->
<g id="edge7" class="edge"><title>Node6&#45;&gt;Node8</title>
<path fill="none" stroke="midnightblue" d="M224.855,-112.083C224.855,-105.006 224.855,-94.8611 224.855,-85.9865"/>
<polygon fill="midnightblue" stroke="midnightblue" points="228.355,-85.751 224.855,-75.7511 221.355,-85.7511 228.355,-85.751"/>
</g>
<!-- Node8&#45;&gt;Node5 -->
<g id="edge10" class="edge"><title>Node8&#45;&gt;Node5</title>
<path fill="none" stroke="midnightblue" d="M203.622,-56.4435C181.471,-47.5171 146.536,-33.4387 121.419,-23.3168"/>
<polygon fill="midnightblue" stroke="midnightblue" points="122.571,-20.0079 111.988,-19.5164 119.955,-26.5006 122.571,-20.0079"/>
</g>
<!-- Node9 -->
<g id="node9" class="node"><title>Node9</title>
<polygon fill="none" stroke="#bfbfbf" points="172.855,-0.5 172.855,-19.5 216.855,-19.5 216.855,-0.5 172.855,-0.5"/>
<text text-anchor="middle" x="194.855" y="-7.5" font-family="Helvetica,sans-Serif" font-size="10.00">cmath</text>
</g>
<!-- Node8&#45;&gt;Node9 -->
<g id="edge8" class="edge"><title>Node8&#45;&gt;Node9</title>
<path fill="none" stroke="midnightblue" d="M219.901,-56.083C215.751,-48.6127 209.702,-37.7244 204.588,-28.5199"/>
<polygon fill="midnightblue" stroke="midnightblue" points="207.632,-26.7929 199.716,-19.7511 201.513,-30.1924 207.632,-26.7929"/>
</g>
<!-- Node10 -->
<g id="node10" class="node"><title>Node10</title>
<polygon fill="none" stroke="#bfbfbf" points="234.855,-0.5 234.855,-19.5 290.855,-19.5 290.855,-0.5 234.855,-0.5"/>
<text text-anchor="middle" x="262.855" y="-7.5" font-family="Helvetica,sans-Serif" font-size="10.00">algorithm</text>
</g>
<!-- Node8&#45;&gt;Node10 -->
<g id="edge9" class="edge"><title>Node8&#45;&gt;Node10</title>
<path fill="none" stroke="midnightblue" d="M231.13,-56.083C236.497,-48.4554 244.372,-37.2645 250.933,-27.9408"/>
<polygon fill="midnightblue" stroke="midnightblue" points="253.804,-29.9434 256.697,-19.7511 248.079,-25.9149 253.804,-29.9434"/>
</g>
</g>
</svg>
