<?xml version="1.0" encoding="UTF-8" standalone="no"?>
<!DOCTYPE svg PUBLIC "-//W3C//DTD SVG 1.1//EN"
 "http://www.w3.org/Graphics/SVG/1.1/DTD/svg11.dtd">
<!-- Generated by graphviz version 2.36.0 (20140111.2315)
 -->
<!-- Title: /home/travis/build/igankevich/arma/src/bits/write_csv.hh Pages: 1 -->
<svg width="383pt" height="274pt"
 viewBox="0.00 0.00 383.00 274.00" xmlns="http://www.w3.org/2000/svg" xmlns:xlink="http://www.w3.org/1999/xlink">
<g id="graph0" class="graph" transform="scale(1 1) rotate(0) translate(4 270)">
<title>/home/travis/build/igankevich/arma/src/bits/write_csv.hh</title>
<!-- Node1 -->
<g id="node1" class="node"><title>Node1</title>
<polygon fill="#bfbfbf" stroke="black" points="210.5,-224.5 210.5,-265.5 317.5,-265.5 317.5,-224.5 210.5,-224.5"/>
<text text-anchor="start" x="218.5" y="-253.5" font-family="Helvetica,sans-Serif" font-size="10.00">/home/travis/build</text>
<text text-anchor="start" x="218.5" y="-242.5" font-family="Helvetica,sans-Serif" font-size="10.00">/igankevich/arma/src</text>
<text text-anchor="middle" x="264" y="-231.5" font-family="Helvetica,sans-Serif" font-size="10.00">/bits/write_csv.hh</text>
</g>
<!-- Node2 -->
<g id="node2" class="node"><title>Node2</title>
<g id="a_node2"><a xlink:href="grid_8hh.html" target="_top" xlink:title="grid.hh">
<polygon fill="none" stroke="black" points="87,-168.5 87,-187.5 133,-187.5 133,-168.5 87,-168.5"/>
<text text-anchor="middle" x="110" y="-175.5" font-family="Helvetica,sans-Serif" font-size="10.00">grid.hh</text>
</a>
</g>
</g>
<!-- Node1&#45;&gt;Node2 -->
<g id="edge1" class="edge"><title>Node1&#45;&gt;Node2</title>
<path fill="none" stroke="midnightblue" d="M217.795,-224.498C192.481,-213.813 161.851,-200.885 139.721,-191.545"/>
<polygon fill="midnightblue" stroke="midnightblue" points="141.074,-188.317 130.5,-187.652 138.352,-194.766 141.074,-188.317"/>
</g>
<!-- Node7 -->
<g id="node7" class="node"><title>Node7</title>
<polygon fill="none" stroke="#bfbfbf" points="179,-0.5 179,-19.5 247,-19.5 247,-0.5 179,-0.5"/>
<text text-anchor="middle" x="213" y="-7.5" font-family="Helvetica,sans-Serif" font-size="10.00">blitz/array.h</text>
</g>
<!-- Node1&#45;&gt;Node7 -->
<g id="edge11" class="edge"><title>Node1&#45;&gt;Node7</title>
<path fill="none" stroke="midnightblue" d="M259.652,-224.135C249.922,-179.684 226.511,-72.7257 217.059,-29.5445"/>
<polygon fill="midnightblue" stroke="midnightblue" points="220.437,-28.6067 214.879,-19.5863 213.599,-30.1035 220.437,-28.6067"/>
</g>
<!-- Node10 -->
<g id="node10" class="node"><title>Node10</title>
<polygon fill="none" stroke="#bfbfbf" points="266,-168.5 266,-187.5 316,-187.5 316,-168.5 266,-168.5"/>
<text text-anchor="middle" x="291" y="-175.5" font-family="Helvetica,sans-Serif" font-size="10.00">fstream</text>
</g>
<!-- Node1&#45;&gt;Node10 -->
<g id="edge12" class="edge"><title>Node1&#45;&gt;Node10</title>
<path fill="none" stroke="midnightblue" d="M272.101,-224.498C275.723,-215.778 279.966,-205.563 283.513,-197.024"/>
<polygon fill="midnightblue" stroke="midnightblue" points="286.802,-198.23 287.406,-187.652 280.338,-195.545 286.802,-198.23"/>
</g>
<!-- Node11 -->
<g id="node11" class="node"><title>Node11</title>
<polygon fill="none" stroke="#bfbfbf" points="334.5,-168.5 334.5,-187.5 375.5,-187.5 375.5,-168.5 334.5,-168.5"/>
<text text-anchor="middle" x="355" y="-175.5" font-family="Helvetica,sans-Serif" font-size="10.00">string</text>
</g>
<!-- Node1&#45;&gt;Node11 -->
<g id="edge13" class="edge"><title>Node1&#45;&gt;Node11</title>
<path fill="none" stroke="midnightblue" d="M291.303,-224.498C305.255,-214.532 321.94,-202.614 334.733,-193.476"/>
<polygon fill="midnightblue" stroke="midnightblue" points="336.784,-196.313 342.887,-187.652 332.715,-190.617 336.784,-196.313"/>
</g>
<!-- Node3 -->
<g id="node3" class="node"><title>Node3</title>
<polygon fill="none" stroke="#bfbfbf" points="0,-0.5 0,-19.5 44,-19.5 44,-0.5 0,-0.5"/>
<text text-anchor="middle" x="22" y="-7.5" font-family="Helvetica,sans-Serif" font-size="10.00">cmath</text>
</g>
<!-- Node2&#45;&gt;Node3 -->
<g id="edge2" class="edge"><title>Node2&#45;&gt;Node3</title>
<path fill="none" stroke="midnightblue" d="M86.9019,-172.112C66.1542,-166.369 36.8852,-154.604 23,-132 3.55592,-100.347 10.4967,-54.6891 16.6491,-29.477"/>
<polygon fill="midnightblue" stroke="midnightblue" points="20.0511,-30.3028 19.2406,-19.739 13.2866,-28.5025 20.0511,-30.3028"/>
</g>
<!-- Node4 -->
<g id="node4" class="node"><title>Node4</title>
<polygon fill="none" stroke="#bfbfbf" points="32.5,-112.5 32.5,-131.5 81.5,-131.5 81.5,-112.5 32.5,-112.5"/>
<text text-anchor="middle" x="57" y="-119.5" font-family="Helvetica,sans-Serif" font-size="10.00">istream</text>
</g>
<!-- Node2&#45;&gt;Node4 -->
<g id="edge3" class="edge"><title>Node2&#45;&gt;Node4</title>
<path fill="none" stroke="midnightblue" d="M101.248,-168.083C93.5303,-160.22 82.0953,-148.569 72.7835,-139.081"/>
<polygon fill="midnightblue" stroke="midnightblue" points="75.0916,-136.436 65.589,-131.751 70.0958,-141.34 75.0916,-136.436"/>
</g>
<!-- Node5 -->
<g id="node5" class="node"><title>Node5</title>
<g id="a_node5"><a xlink:href="blitz_8hh.html" target="_top" xlink:title="blitz.hh">
<polygon fill="none" stroke="black" points="84,-56.5 84,-75.5 132,-75.5 132,-56.5 84,-56.5"/>
<text text-anchor="middle" x="108" y="-63.5" font-family="Helvetica,sans-Serif" font-size="10.00">blitz.hh</text>
</a>
</g>
</g>
<!-- Node2&#45;&gt;Node5 -->
<g id="edge4" class="edge"><title>Node2&#45;&gt;Node5</title>
<path fill="none" stroke="midnightblue" d="M109.843,-168.368C109.52,-150.617 108.776,-109.666 108.338,-85.5974"/>
<polygon fill="midnightblue" stroke="midnightblue" points="111.838,-85.5261 108.156,-75.5914 104.839,-85.6534 111.838,-85.5261"/>
</g>
<!-- Node8 -->
<g id="node8" class="node"><title>Node8</title>
<g id="a_node8"><a xlink:href="validators_8hh.html" target="_top" xlink:title="validators.hh">
<polygon fill="none" stroke="black" points="138,-112.5 138,-131.5 210,-131.5 210,-112.5 138,-112.5"/>
<text text-anchor="middle" x="174" y="-119.5" font-family="Helvetica,sans-Serif" font-size="10.00">validators.hh</text>
</a>
</g>
</g>
<!-- Node2&#45;&gt;Node8 -->
<g id="edge8" class="edge"><title>Node2&#45;&gt;Node8</title>
<path fill="none" stroke="midnightblue" d="M120.283,-168.324C129.836,-160.263 144.28,-148.077 155.784,-138.369"/>
<polygon fill="midnightblue" stroke="midnightblue" points="158.144,-140.958 163.53,-131.834 153.63,-135.608 158.144,-140.958"/>
</g>
<!-- Node5&#45;&gt;Node3 -->
<g id="edge7" class="edge"><title>Node5&#45;&gt;Node3</title>
<path fill="none" stroke="midnightblue" d="M94.1826,-56.324C80.767,-47.9002 60.1759,-34.9709 44.4144,-25.0741"/>
<polygon fill="midnightblue" stroke="midnightblue" points="46.1132,-22.0081 35.7831,-19.6545 42.3908,-27.9364 46.1132,-22.0081"/>
</g>
<!-- Node6 -->
<g id="node6" class="node"><title>Node6</title>
<polygon fill="none" stroke="#bfbfbf" points="80,-0.5 80,-19.5 136,-19.5 136,-0.5 80,-0.5"/>
<text text-anchor="middle" x="108" y="-7.5" font-family="Helvetica,sans-Serif" font-size="10.00">algorithm</text>
</g>
<!-- Node5&#45;&gt;Node6 -->
<g id="edge5" class="edge"><title>Node5&#45;&gt;Node6</title>
<path fill="none" stroke="midnightblue" d="M108,-56.083C108,-49.0059 108,-38.8611 108,-29.9865"/>
<polygon fill="midnightblue" stroke="midnightblue" points="111.5,-29.751 108,-19.7511 104.5,-29.7511 111.5,-29.751"/>
</g>
<!-- Node5&#45;&gt;Node7 -->
<g id="edge6" class="edge"><title>Node5&#45;&gt;Node7</title>
<path fill="none" stroke="midnightblue" d="M124.87,-56.324C141.709,-47.6641 167.807,-34.2424 187.238,-24.249"/>
<polygon fill="midnightblue" stroke="midnightblue" points="188.88,-27.3405 196.172,-19.6545 185.678,-21.1155 188.88,-27.3405"/>
</g>
<!-- Node8&#45;&gt;Node5 -->
<g id="edge10" class="edge"><title>Node8&#45;&gt;Node5</title>
<path fill="none" stroke="midnightblue" d="M163.396,-112.324C153.544,-104.263 138.649,-92.0765 126.785,-82.3695"/>
<polygon fill="midnightblue" stroke="midnightblue" points="128.753,-79.4575 118.797,-75.8339 124.32,-84.8752 128.753,-79.4575"/>
</g>
<!-- Node9 -->
<g id="node9" class="node"><title>Node9</title>
<polygon fill="none" stroke="#bfbfbf" points="150.5,-56.5 150.5,-75.5 209.5,-75.5 209.5,-56.5 150.5,-56.5"/>
<text text-anchor="middle" x="180" y="-63.5" font-family="Helvetica,sans-Serif" font-size="10.00">stdexcept</text>
</g>
<!-- Node8&#45;&gt;Node9 -->
<g id="edge9" class="edge"><title>Node8&#45;&gt;Node9</title>
<path fill="none" stroke="midnightblue" d="M174.991,-112.083C175.786,-104.927 176.929,-94.6353 177.923,-85.6911"/>
<polygon fill="midnightblue" stroke="midnightblue" points="181.402,-86.0765 179.028,-75.7511 174.445,-85.3034 181.402,-86.0765"/>
</g>
</g>
</svg>
