<?xml version="1.0" encoding="UTF-8" standalone="no"?>
<!DOCTYPE svg PUBLIC "-//W3C//DTD SVG 1.1//EN"
 "http://www.w3.org/Graphics/SVG/1.1/DTD/svg11.dtd">
<!-- Generated by graphviz version 2.40.1 (20161225.0304)
 -->
<!-- Title: src/yule_walker.cc Pages: 1 -->
<svg width="813pt" height="196pt"
 viewBox="0.00 0.00 813.00 196.00" xmlns="http://www.w3.org/2000/svg" xmlns:xlink="http://www.w3.org/1999/xlink">
<g id="graph0" class="graph" transform="scale(1 1) rotate(0) translate(4 192)">
<title>src/yule_walker.cc</title>
<!-- Node0 -->
<g id="node1" class="node">
<title>Node0</title>
<polygon fill="#bfbfbf" stroke="#000000" points="292.5,-168.5 292.5,-187.5 390.5,-187.5 390.5,-168.5 292.5,-168.5"/>
<text text-anchor="middle" x="341.5" y="-175.5" font-family="Helvetica,sans-Serif" font-size="10.00" fill="#000000">src/yule_walker.cc</text>
</g>
<!-- Node1 -->
<g id="node2" class="node">
<title>Node1</title>
<g id="a_node2"><a xlink:href="yule__walker_8hh.html" target="_top" xlink:title="yule_walker.hh">
<polygon fill="none" stroke="#000000" points="144,-112.5 144,-131.5 225,-131.5 225,-112.5 144,-112.5"/>
<text text-anchor="middle" x="184.5" y="-119.5" font-family="Helvetica,sans-Serif" font-size="10.00" fill="#000000">yule_walker.hh</text>
</a>
</g>
</g>
<!-- Node0&#45;&gt;Node1 -->
<g id="edge1" class="edge">
<title>Node0&#45;&gt;Node1</title>
<path fill="none" stroke="#191970" d="M314.5107,-168.3733C288.6301,-159.1419 249.3752,-145.1402 220.7711,-134.9375"/>
<polygon fill="#191970" stroke="#191970" points="221.7317,-131.5642 211.1371,-131.5011 219.38,-138.1573 221.7317,-131.5642"/>
</g>
<!-- Node5 -->
<g id="node6" class="node">
<title>Node5</title>
<polygon fill="none" stroke="#bfbfbf" points="69.5,-112.5 69.5,-131.5 125.5,-131.5 125.5,-112.5 69.5,-112.5"/>
<text text-anchor="middle" x="97.5" y="-119.5" font-family="Helvetica,sans-Serif" font-size="10.00" fill="#000000">algorithm</text>
</g>
<!-- Node0&#45;&gt;Node5 -->
<g id="edge5" class="edge">
<title>Node0&#45;&gt;Node5</title>
<path fill="none" stroke="#191970" d="M295.7287,-168.4509C255.826,-159.9861 196.1693,-146.9956 135.4919,-132.1705"/>
<polygon fill="#191970" stroke="#191970" points="136.294,-128.7635 125.7476,-129.7758 134.6234,-135.5613 136.294,-128.7635"/>
</g>
<!-- Node6 -->
<g id="node7" class="node">
<title>Node6</title>
<polygon fill="none" stroke="#bfbfbf" points="494,-56.5 494,-75.5 543,-75.5 543,-56.5 494,-56.5"/>
<text text-anchor="middle" x="518.5" y="-63.5" font-family="Helvetica,sans-Serif" font-size="10.00" fill="#000000">cassert</text>
</g>
<!-- Node0&#45;&gt;Node6 -->
<g id="edge6" class="edge">
<title>Node0&#45;&gt;Node6</title>
<path fill="none" stroke="#191970" d="M390.8935,-174.3042C447.0226,-168.9576 533.4655,-156.8478 553.5,-132 565.7265,-116.8361 551.5608,-96.7486 537.7618,-82.7337"/>
<polygon fill="#191970" stroke="#191970" points="539.9622,-79.9963 530.3033,-75.6423 535.1388,-85.0693 539.9622,-79.9963"/>
</g>
<!-- Node7 -->
<g id="node8" class="node">
<title>Node7</title>
<polygon fill="none" stroke="#bfbfbf" points="243.5,-112.5 243.5,-131.5 293.5,-131.5 293.5,-112.5 243.5,-112.5"/>
<text text-anchor="middle" x="268.5" y="-119.5" font-family="Helvetica,sans-Serif" font-size="10.00" fill="#000000">fstream</text>
</g>
<!-- Node0&#45;&gt;Node7 -->
<g id="edge7" class="edge">
<title>Node0&#45;&gt;Node7</title>
<path fill="none" stroke="#191970" d="M328.7844,-168.2455C317.898,-159.8943 302.0117,-147.7076 289.28,-137.9408"/>
<polygon fill="#191970" stroke="#191970" points="291.1346,-134.9523 281.0699,-131.6427 286.8739,-140.5063 291.1346,-134.9523"/>
</g>
<!-- Node8 -->
<g id="node9" class="node">
<title>Node8</title>
<polygon fill="none" stroke="#bfbfbf" points="312,-112.5 312,-131.5 371,-131.5 371,-112.5 312,-112.5"/>
<text text-anchor="middle" x="341.5" y="-119.5" font-family="Helvetica,sans-Serif" font-size="10.00" fill="#000000">stdexcept</text>
</g>
<!-- Node0&#45;&gt;Node8 -->
<g id="edge8" class="edge">
<title>Node0&#45;&gt;Node8</title>
<path fill="none" stroke="#191970" d="M341.5,-168.2455C341.5,-160.9382 341.5,-150.6944 341.5,-141.7046"/>
<polygon fill="#191970" stroke="#191970" points="345.0001,-141.6426 341.5,-131.6427 338.0001,-141.6427 345.0001,-141.6426"/>
</g>
<!-- Node9 -->
<g id="node10" class="node">
<title>Node9</title>
<polygon fill="none" stroke="#bfbfbf" points="389,-112.5 389,-131.5 472,-131.5 472,-112.5 389,-112.5"/>
<text text-anchor="middle" x="430.5" y="-119.5" font-family="Helvetica,sans-Serif" font-size="10.00" fill="#000000">unordered_map</text>
</g>
<!-- Node0&#45;&gt;Node9 -->
<g id="edge9" class="edge">
<title>Node0&#45;&gt;Node9</title>
<path fill="none" stroke="#191970" d="M357.0026,-168.2455C370.658,-159.6534 390.7657,-147.0014 406.4989,-137.1018"/>
<polygon fill="#191970" stroke="#191970" points="408.5751,-139.9307 415.175,-131.6427 404.8471,-134.006 408.5751,-139.9307"/>
</g>
<!-- Node10 -->
<g id="node11" class="node">
<title>Node10</title>
<polygon fill="none" stroke="#bfbfbf" points="490.5,-112.5 490.5,-131.5 544.5,-131.5 544.5,-112.5 490.5,-112.5"/>
<text text-anchor="middle" x="517.5" y="-119.5" font-family="Helvetica,sans-Serif" font-size="10.00" fill="#000000">iostream</text>
</g>
<!-- Node0&#45;&gt;Node10 -->
<g id="edge10" class="edge">
<title>Node0&#45;&gt;Node10</title>
<path fill="none" stroke="#191970" d="M371.7555,-168.3733C401.9499,-158.7659 448.3833,-143.9917 480.6963,-133.7103"/>
<polygon fill="#191970" stroke="#191970" points="481.7695,-137.0418 490.2375,-130.6744 479.647,-130.3713 481.7695,-137.0418"/>
</g>
<!-- Node11 -->
<g id="node12" class="node">
<title>Node11</title>
<g id="a_node12"><a xlink:href="chop_8hh.html" target="_top" xlink:title="chop.hh">
<polygon fill="none" stroke="#000000" points="0,-112.5 0,-131.5 51,-131.5 51,-112.5 0,-112.5"/>
<text text-anchor="middle" x="25.5" y="-119.5" font-family="Helvetica,sans-Serif" font-size="10.00" fill="#000000">chop.hh</text>
</a>
</g>
</g>
<!-- Node0&#45;&gt;Node11 -->
<g id="edge11" class="edge">
<title>Node0&#45;&gt;Node11</title>
<path fill="none" stroke="#191970" d="M292.4365,-171.7271C238.1304,-164.3928 147.8773,-151.0475 60.8034,-131.8474"/>
<polygon fill="#191970" stroke="#191970" points="61.5489,-128.4277 51.0264,-129.6634 60.0228,-135.2594 61.5489,-128.4277"/>
</g>
<!-- Node12 -->
<g id="node13" class="node">
<title>Node12</title>
<g id="a_node13"><a xlink:href="linalg_8hh.html" target="_top" xlink:title="linalg.hh">
<polygon fill="none" stroke="#000000" points="601,-112.5 601,-131.5 654,-131.5 654,-112.5 601,-112.5"/>
<text text-anchor="middle" x="627.5" y="-119.5" font-family="Helvetica,sans-Serif" font-size="10.00" fill="#000000">linalg.hh</text>
</a>
</g>
</g>
<!-- Node0&#45;&gt;Node12 -->
<g id="edge13" class="edge">
<title>Node0&#45;&gt;Node12</title>
<path fill="none" stroke="#191970" d="M390.929,-169.5223C440.5228,-160.8278 519.0231,-146.5525 586.5,-132 587.9324,-131.6911 589.3913,-131.3694 590.8636,-131.0388"/>
<polygon fill="#191970" stroke="#191970" points="591.6916,-134.4398 600.6413,-128.7693 590.1088,-127.621 591.6916,-134.4398"/>
</g>
<!-- Node2 -->
<g id="node3" class="node">
<title>Node2</title>
<polygon fill="none" stroke="#bfbfbf" points="547.5,-.5 547.5,-19.5 591.5,-19.5 591.5,-.5 547.5,-.5"/>
<text text-anchor="middle" x="569.5" y="-7.5" font-family="Helvetica,sans-Serif" font-size="10.00" fill="#000000">cmath</text>
</g>
<!-- Node1&#45;&gt;Node2 -->
<g id="edge2" class="edge">
<title>Node1&#45;&gt;Node2</title>
<path fill="none" stroke="#191970" d="M217.3249,-112.4509C290.2923,-91.224 465.2004,-40.3417 537.4449,-19.3251"/>
<polygon fill="#191970" stroke="#191970" points="538.7103,-22.6022 547.3346,-16.4481 536.755,-15.8808 538.7103,-22.6022"/>
</g>
<!-- Node3 -->
<g id="node4" class="node">
<title>Node3</title>
<g id="a_node4"><a xlink:href="types_8hh.html" target="_top" xlink:title="types.hh">
<polygon fill="none" stroke="#000000" points="157.5,-56.5 157.5,-75.5 211.5,-75.5 211.5,-56.5 157.5,-56.5"/>
<text text-anchor="middle" x="184.5" y="-63.5" font-family="Helvetica,sans-Serif" font-size="10.00" fill="#000000">types.hh</text>
</a>
</g>
</g>
<!-- Node1&#45;&gt;Node3 -->
<g id="edge3" class="edge">
<title>Node1&#45;&gt;Node3</title>
<path fill="none" stroke="#191970" d="M184.5,-112.2455C184.5,-104.9382 184.5,-94.6944 184.5,-85.7046"/>
<polygon fill="#191970" stroke="#191970" points="188.0001,-85.6426 184.5,-75.6427 181.0001,-85.6427 188.0001,-85.6426"/>
</g>
<!-- Node4 -->
<g id="node5" class="node">
<title>Node4</title>
<polygon fill="none" stroke="#bfbfbf" points="289,-.5 289,-19.5 356,-19.5 356,-.5 289,-.5"/>
<text text-anchor="middle" x="322.5" y="-7.5" font-family="Helvetica,sans-Serif" font-size="10.00" fill="#000000">blitz/array.h</text>
</g>
<!-- Node3&#45;&gt;Node4 -->
<g id="edge4" class="edge">
<title>Node3&#45;&gt;Node4</title>
<path fill="none" stroke="#191970" d="M208.223,-56.3733C230.6737,-47.2629 264.5739,-33.5062 289.6255,-23.3404"/>
<polygon fill="#191970" stroke="#191970" points="291.1365,-26.5045 299.0865,-19.5011 288.5043,-20.0182 291.1365,-26.5045"/>
</g>
<!-- Node11&#45;&gt;Node3 -->
<g id="edge12" class="edge">
<title>Node11&#45;&gt;Node3</title>
<path fill="none" stroke="#191970" d="M51.0461,-113.0026C77.2305,-103.7804 118.2002,-89.3509 147.8408,-78.9114"/>
<polygon fill="#191970" stroke="#191970" points="149.1515,-82.1606 157.4209,-75.5373 146.826,-75.5581 149.1515,-82.1606"/>
</g>
<!-- Node12&#45;&gt;Node4 -->
<g id="edge15" class="edge">
<title>Node12&#45;&gt;Node4</title>
<path fill="none" stroke="#191970" d="M619.4148,-112.1535C606.764,-97.4527 580.7925,-70.0008 552.5,-56 520.3748,-40.1026 423.6685,-24.3166 366.3934,-16.0066"/>
<polygon fill="#191970" stroke="#191970" points="366.5775,-12.4973 356.1822,-14.5435 365.5847,-19.4265 366.5775,-12.4973"/>
</g>
<!-- Node12&#45;&gt;Node6 -->
<g id="edge14" class="edge">
<title>Node12&#45;&gt;Node6</title>
<path fill="none" stroke="#191970" d="M608.5136,-112.2455C591.3208,-103.4125 565.7762,-90.2887 546.2868,-80.2758"/>
<polygon fill="#191970" stroke="#191970" points="547.763,-77.0993 537.2688,-75.6427 544.5641,-83.3257 547.763,-77.0993"/>
</g>
<!-- Node13 -->
<g id="node14" class="node">
<title>Node13</title>
<polygon fill="none" stroke="#bfbfbf" points="599.5,-56.5 599.5,-75.5 655.5,-75.5 655.5,-56.5 599.5,-56.5"/>
<text text-anchor="middle" x="627.5" y="-63.5" font-family="Helvetica,sans-Serif" font-size="10.00" fill="#000000">config.hh</text>
</g>
<!-- Node12&#45;&gt;Node13 -->
<g id="edge16" class="edge">
<title>Node12&#45;&gt;Node13</title>
<path fill="none" stroke="#191970" d="M627.5,-112.2455C627.5,-104.9382 627.5,-94.6944 627.5,-85.7046"/>
<polygon fill="#191970" stroke="#191970" points="631.0001,-85.6426 627.5,-75.6427 624.0001,-85.6427 631.0001,-85.6426"/>
</g>
<!-- Node14 -->
<g id="node15" class="node">
<title>Node14</title>
<g id="a_node15"><a xlink:href="closed__interval_8hh.html" target="_top" xlink:title="apmath/closed_interval.hh">
<polygon fill="none" stroke="#000000" points="674,-56.5 674,-75.5 805,-75.5 805,-56.5 674,-56.5"/>
<text text-anchor="middle" x="739.5" y="-63.5" font-family="Helvetica,sans-Serif" font-size="10.00" fill="#000000">apmath/closed_interval.hh</text>
</a>
</g>
</g>
<!-- Node12&#45;&gt;Node14 -->
<g id="edge17" class="edge">
<title>Node12&#45;&gt;Node14</title>
<path fill="none" stroke="#191970" d="M646.7535,-112.3733C664.5712,-103.4644 691.2747,-90.1127 711.4594,-80.0203"/>
<polygon fill="#191970" stroke="#191970" points="713.1187,-83.1038 720.4978,-75.5011 709.9882,-76.8428 713.1187,-83.1038"/>
</g>
<!-- Node14&#45;&gt;Node2 -->
<g id="edge20" class="edge">
<title>Node14&#45;&gt;Node2</title>
<path fill="none" stroke="#191970" d="M710.276,-56.3733C679.866,-46.3559 632.4031,-30.721 601.1292,-20.419"/>
<polygon fill="#191970" stroke="#191970" points="602.1793,-17.08 591.5863,-17.2755 599.9892,-23.7286 602.1793,-17.08"/>
</g>
<!-- Node15 -->
<g id="node16" class="node">
<title>Node15</title>
<polygon fill="none" stroke="#bfbfbf" points="680,-.5 680,-19.5 729,-19.5 729,-.5 680,-.5"/>
<text text-anchor="middle" x="704.5" y="-7.5" font-family="Helvetica,sans-Serif" font-size="10.00" fill="#000000">istream</text>
</g>
<!-- Node14&#45;&gt;Node15 -->
<g id="edge18" class="edge">
<title>Node14&#45;&gt;Node15</title>
<path fill="none" stroke="#191970" d="M733.4035,-56.2455C728.5855,-48.5367 721.7249,-37.5598 715.8968,-28.2348"/>
<polygon fill="#191970" stroke="#191970" points="718.7947,-26.2677 710.5267,-19.6427 712.8587,-29.9777 718.7947,-26.2677"/>
</g>
<!-- Node16 -->
<g id="node17" class="node">
<title>Node16</title>
<polygon fill="none" stroke="#bfbfbf" points="747.5,-.5 747.5,-19.5 799.5,-19.5 799.5,-.5 747.5,-.5"/>
<text text-anchor="middle" x="773.5" y="-7.5" font-family="Helvetica,sans-Serif" font-size="10.00" fill="#000000">ostream</text>
</g>
<!-- Node14&#45;&gt;Node16 -->
<g id="edge19" class="edge">
<title>Node14&#45;&gt;Node16</title>
<path fill="none" stroke="#191970" d="M745.4223,-56.2455C750.1027,-48.5367 756.7673,-37.5598 762.4289,-28.2348"/>
<polygon fill="#191970" stroke="#191970" points="765.4475,-30.007 767.6455,-19.6427 759.4639,-26.3741 765.4475,-30.007"/>
</g>
</g>
</svg>
