<?xml version="1.0" encoding="UTF-8" standalone="no"?>
<!DOCTYPE svg PUBLIC "-//W3C//DTD SVG 1.1//EN"
 "http://www.w3.org/Graphics/SVG/1.1/DTD/svg11.dtd">
<!-- Generated by graphviz version 2.36.0 (20140111.2315)
 -->
<!-- Title: /home/travis/build/igankevich/arma/src/yule_walker.cc Pages: 1 -->
<svg width="575pt" height="218pt"
 viewBox="0.00 0.00 575.00 218.00" xmlns="http://www.w3.org/2000/svg" xmlns:xlink="http://www.w3.org/1999/xlink">
<g id="graph0" class="graph" transform="scale(1 1) rotate(0) translate(4 214)">
<title>/home/travis/build/igankevich/arma/src/yule_walker.cc</title>
<!-- Node1 -->
<g id="node1" class="node"><title>Node1</title>
<polygon fill="#bfbfbf" stroke="black" points="83.5,-168.5 83.5,-209.5 190.5,-209.5 190.5,-168.5 83.5,-168.5"/>
<text text-anchor="start" x="91.5" y="-197.5" font-family="Helvetica,sans-Serif" font-size="10.00">/home/travis/build</text>
<text text-anchor="start" x="91.5" y="-186.5" font-family="Helvetica,sans-Serif" font-size="10.00">/igankevich/arma/src</text>
<text text-anchor="middle" x="137" y="-175.5" font-family="Helvetica,sans-Serif" font-size="10.00">/yule_walker.cc</text>
</g>
<!-- Node2 -->
<g id="node2" class="node"><title>Node2</title>
<g id="a_node2"><a xlink:href="yule__walker_8hh.html" target="_top" xlink:title="yule_walker.hh">
<polygon fill="none" stroke="black" points="0,-112.5 0,-131.5 82,-131.5 82,-112.5 0,-112.5"/>
<text text-anchor="middle" x="41" y="-119.5" font-family="Helvetica,sans-Serif" font-size="10.00">yule_walker.hh</text>
</a>
</g>
</g>
<!-- Node1&#45;&gt;Node2 -->
<g id="edge1" class="edge"><title>Node1&#45;&gt;Node2</title>
<path fill="none" stroke="midnightblue" d="M108.197,-168.498C93.4782,-158.532 75.8764,-146.614 62.3805,-137.476"/>
<polygon fill="midnightblue" stroke="midnightblue" points="64.0219,-134.361 53.7791,-131.652 60.0972,-140.157 64.0219,-134.361"/>
</g>
<!-- Node5 -->
<g id="node5" class="node"><title>Node5</title>
<polygon fill="none" stroke="#bfbfbf" points="85.5,-56.5 85.5,-75.5 134.5,-75.5 134.5,-56.5 85.5,-56.5"/>
<text text-anchor="middle" x="110" y="-63.5" font-family="Helvetica,sans-Serif" font-size="10.00">cassert</text>
</g>
<!-- Node1&#45;&gt;Node5 -->
<g id="edge4" class="edge"><title>Node1&#45;&gt;Node5</title>
<path fill="none" stroke="midnightblue" d="M132.602,-168.29C127.489,-145.375 119.114,-107.846 114.122,-85.4732"/>
<polygon fill="midnightblue" stroke="midnightblue" points="117.507,-84.5725 111.913,-75.5748 110.675,-86.097 117.507,-84.5725"/>
</g>
<!-- Node6 -->
<g id="node6" class="node"><title>Node6</title>
<polygon fill="none" stroke="#bfbfbf" points="138,-112.5 138,-131.5 192,-131.5 192,-112.5 138,-112.5"/>
<text text-anchor="middle" x="165" y="-119.5" font-family="Helvetica,sans-Serif" font-size="10.00">iostream</text>
</g>
<!-- Node1&#45;&gt;Node6 -->
<g id="edge5" class="edge"><title>Node1&#45;&gt;Node6</title>
<path fill="none" stroke="midnightblue" d="M145.401,-168.498C149.157,-159.778 153.557,-149.563 157.236,-141.024"/>
<polygon fill="midnightblue" stroke="midnightblue" points="160.531,-142.221 161.273,-131.652 154.102,-139.452 160.531,-142.221"/>
</g>
<!-- Node7 -->
<g id="node7" class="node"><title>Node7</title>
<g id="a_node7"><a xlink:href="linalg_8hh.html" target="_top" xlink:title="linalg.hh">
<polygon fill="none" stroke="black" points="211.5,-112.5 211.5,-131.5 264.5,-131.5 264.5,-112.5 211.5,-112.5"/>
<text text-anchor="middle" x="238" y="-119.5" font-family="Helvetica,sans-Serif" font-size="10.00">linalg.hh</text>
</a>
</g>
</g>
<!-- Node1&#45;&gt;Node7 -->
<g id="edge6" class="edge"><title>Node1&#45;&gt;Node7</title>
<path fill="none" stroke="midnightblue" d="M167.303,-168.498C182.937,-158.436 201.664,-146.385 215.914,-137.214"/>
<polygon fill="midnightblue" stroke="midnightblue" points="218.04,-140.008 224.555,-131.652 214.252,-134.121 218.04,-140.008"/>
</g>
<!-- Node3 -->
<g id="node3" class="node"><title>Node3</title>
<g id="a_node3"><a xlink:href="types_8hh.html" target="_top" xlink:title="types.hh">
<polygon fill="none" stroke="black" points="13,-56.5 13,-75.5 67,-75.5 67,-56.5 13,-56.5"/>
<text text-anchor="middle" x="40" y="-63.5" font-family="Helvetica,sans-Serif" font-size="10.00">types.hh</text>
</a>
</g>
</g>
<!-- Node2&#45;&gt;Node3 -->
<g id="edge2" class="edge"><title>Node2&#45;&gt;Node3</title>
<path fill="none" stroke="midnightblue" d="M40.8349,-112.083C40.7038,-105.006 40.5159,-94.8611 40.3516,-85.9865"/>
<polygon fill="midnightblue" stroke="midnightblue" points="43.8467,-85.6845 40.1621,-75.7511 36.8479,-85.8142 43.8467,-85.6845"/>
</g>
<!-- Node4 -->
<g id="node4" class="node"><title>Node4</title>
<polygon fill="none" stroke="#bfbfbf" points="67,-0.5 67,-19.5 135,-19.5 135,-0.5 67,-0.5"/>
<text text-anchor="middle" x="101" y="-7.5" font-family="Helvetica,sans-Serif" font-size="10.00">blitz/array.h</text>
</g>
<!-- Node3&#45;&gt;Node4 -->
<g id="edge3" class="edge"><title>Node3&#45;&gt;Node4</title>
<path fill="none" stroke="midnightblue" d="M49.8007,-56.324C58.8181,-48.3414 72.406,-36.3128 83.318,-26.6529"/>
<polygon fill="midnightblue" stroke="midnightblue" points="85.8533,-29.083 91.021,-19.8339 81.2134,-23.8416 85.8533,-29.083"/>
</g>
<!-- Node7&#45;&gt;Node4 -->
<g id="edge8" class="edge"><title>Node7&#45;&gt;Node4</title>
<path fill="none" stroke="midnightblue" d="M227.25,-112.368C204.041,-93.7334 148.99,-49.5324 119.849,-26.1338"/>
<polygon fill="midnightblue" stroke="midnightblue" points="121.689,-23.1231 111.7,-19.5914 117.307,-28.5814 121.689,-23.1231"/>
</g>
<!-- Node7&#45;&gt;Node5 -->
<g id="edge7" class="edge"><title>Node7&#45;&gt;Node5</title>
<path fill="none" stroke="midnightblue" d="M217.718,-112.444C196.653,-103.557 163.483,-89.5632 139.514,-79.4514"/>
<polygon fill="midnightblue" stroke="midnightblue" points="140.761,-76.1787 130.187,-75.5164 138.04,-82.6283 140.761,-76.1787"/>
</g>
<!-- Node8 -->
<g id="node8" class="node"><title>Node8</title>
<polygon fill="none" stroke="#bfbfbf" points="191.5,-56.5 191.5,-75.5 286.5,-75.5 286.5,-56.5 191.5,-56.5"/>
<text text-anchor="middle" x="239" y="-63.5" font-family="Helvetica,sans-Serif" font-size="10.00">lapacke/lapacke.h</text>
</g>
<!-- Node7&#45;&gt;Node8 -->
<g id="edge9" class="edge"><title>Node7&#45;&gt;Node8</title>
<path fill="none" stroke="midnightblue" d="M238.165,-112.083C238.296,-105.006 238.484,-94.8611 238.648,-85.9865"/>
<polygon fill="midnightblue" stroke="midnightblue" points="242.152,-85.8142 238.838,-75.7511 235.153,-85.6845 242.152,-85.8142"/>
</g>
<!-- Node9 -->
<g id="node9" class="node"><title>Node9</title>
<polygon fill="none" stroke="#bfbfbf" points="305,-56.5 305,-75.5 395,-75.5 395,-56.5 305,-56.5"/>
<text text-anchor="middle" x="350" y="-63.5" font-family="Helvetica,sans-Serif" font-size="10.00">openblas/cblas.h</text>
</g>
<!-- Node7&#45;&gt;Node9 -->
<g id="edge10" class="edge"><title>Node7&#45;&gt;Node9</title>
<path fill="none" stroke="midnightblue" d="M255.995,-112.324C274.038,-103.625 302.047,-90.1202 322.803,-80.113"/>
<polygon fill="midnightblue" stroke="midnightblue" points="324.562,-83.1502 332.05,-75.6545 321.522,-76.8449 324.562,-83.1502"/>
</g>
<!-- Node10 -->
<g id="node10" class="node"><title>Node10</title>
<g id="a_node10"><a xlink:href="closed__interval_8hh.html" target="_top" xlink:title="apmath/closed_interval.hh">
<polygon fill="none" stroke="black" points="413.5,-56.5 413.5,-75.5 544.5,-75.5 544.5,-56.5 413.5,-56.5"/>
<text text-anchor="middle" x="479" y="-63.5" font-family="Helvetica,sans-Serif" font-size="10.00">apmath/closed_interval.hh</text>
</a>
</g>
</g>
<!-- Node7&#45;&gt;Node10 -->
<g id="edge11" class="edge"><title>Node7&#45;&gt;Node10</title>
<path fill="none" stroke="midnightblue" d="M264.712,-115.015C304.726,-106.049 380.85,-88.992 430.757,-77.8097"/>
<polygon fill="midnightblue" stroke="midnightblue" points="431.685,-81.1886 440.678,-75.5868 430.154,-74.358 431.685,-81.1886"/>
</g>
<!-- Node11 -->
<g id="node11" class="node"><title>Node11</title>
<polygon fill="none" stroke="#bfbfbf" points="385.5,-0.5 385.5,-19.5 434.5,-19.5 434.5,-0.5 385.5,-0.5"/>
<text text-anchor="middle" x="410" y="-7.5" font-family="Helvetica,sans-Serif" font-size="10.00">istream</text>
</g>
<!-- Node10&#45;&gt;Node11 -->
<g id="edge12" class="edge"><title>Node10&#45;&gt;Node11</title>
<path fill="none" stroke="midnightblue" d="M467.914,-56.324C457.514,-48.1849 441.739,-35.8395 429.278,-26.0874"/>
<polygon fill="midnightblue" stroke="midnightblue" points="431.32,-23.2407 421.288,-19.8339 427.006,-28.7533 431.32,-23.2407"/>
</g>
<!-- Node12 -->
<g id="node12" class="node"><title>Node12</title>
<polygon fill="none" stroke="#bfbfbf" points="453,-0.5 453,-19.5 505,-19.5 505,-0.5 453,-0.5"/>
<text text-anchor="middle" x="479" y="-7.5" font-family="Helvetica,sans-Serif" font-size="10.00">ostream</text>
</g>
<!-- Node10&#45;&gt;Node12 -->
<g id="edge13" class="edge"><title>Node10&#45;&gt;Node12</title>
<path fill="none" stroke="midnightblue" d="M479,-56.083C479,-49.0059 479,-38.8611 479,-29.9865"/>
<polygon fill="midnightblue" stroke="midnightblue" points="482.5,-29.751 479,-19.7511 475.5,-29.7511 482.5,-29.751"/>
</g>
<!-- Node13 -->
<g id="node13" class="node"><title>Node13</title>
<polygon fill="none" stroke="#bfbfbf" points="523,-0.5 523,-19.5 567,-19.5 567,-0.5 523,-0.5"/>
<text text-anchor="middle" x="545" y="-7.5" font-family="Helvetica,sans-Serif" font-size="10.00">cmath</text>
</g>
<!-- Node10&#45;&gt;Node13 -->
<g id="edge14" class="edge"><title>Node10&#45;&gt;Node13</title>
<path fill="none" stroke="midnightblue" d="M489.604,-56.324C499.456,-48.2631 514.351,-36.0765 526.215,-26.3695"/>
<polygon fill="midnightblue" stroke="midnightblue" points="528.68,-28.8752 534.203,-19.8339 524.247,-23.4575 528.68,-28.8752"/>
</g>
</g>
</svg>
