<?xml version="1.0" encoding="UTF-8" standalone="no"?>
<!DOCTYPE svg PUBLIC "-//W3C//DTD SVG 1.1//EN"
 "http://www.w3.org/Graphics/SVG/1.1/DTD/svg11.dtd">
<!-- Generated by graphviz version 2.40.1 (20161225.0304)
 -->
<!-- Title: src/yule_walker.hh Pages: 1 -->
<svg width="254pt" height="84pt"
 viewBox="0.00 0.00 254.00 84.00" xmlns="http://www.w3.org/2000/svg" xmlns:xlink="http://www.w3.org/1999/xlink">
<g id="graph0" class="graph" transform="scale(1 1) rotate(0) translate(4 80)">
<title>src/yule_walker.hh</title>
<!-- Node4 -->
<g id="node1" class="node">
<title>Node4</title>
<polygon fill="#bfbfbf" stroke="#000000" points="82,-56.5 82,-75.5 180,-75.5 180,-56.5 82,-56.5"/>
<text text-anchor="middle" x="131" y="-63.5" font-family="Helvetica,sans-Serif" font-size="10.00" fill="#000000">src/yule_walker.hh</text>
</g>
<!-- Node5 -->
<g id="node2" class="node">
<title>Node5</title>
<g id="a_node2"><a xlink:href="ar__model_8cc.html" target="_top" xlink:title="src/generator/ar_model.cc">
<polygon fill="none" stroke="#000000" points="0,-.5 0,-19.5 130,-19.5 130,-.5 0,-.5"/>
<text text-anchor="middle" x="65" y="-7.5" font-family="Helvetica,sans-Serif" font-size="10.00" fill="#000000">src/generator/ar_model.cc</text>
</a>
</g>
</g>
<!-- Node4&#45;&gt;Node5 -->
<g id="edge1" class="edge">
<title>Node4&#45;&gt;Node5</title>
<path fill="none" stroke="#191970" d="M111.7245,-49.645C100.2462,-39.9058 86.0723,-27.8795 76.3646,-19.6427"/>
<polygon fill="#191970" stroke="#191970" points="109.6141,-52.4445 119.5037,-56.2455 114.143,-47.1069 109.6141,-52.4445"/>
</g>
<!-- Node6 -->
<g id="node3" class="node">
<title>Node6</title>
<g id="a_node3"><a xlink:href="yule__walker_8cc.html" target="_top" xlink:title="src/yule_walker.cc">
<polygon fill="none" stroke="#000000" points="148,-.5 148,-19.5 246,-19.5 246,-.5 148,-.5"/>
<text text-anchor="middle" x="197" y="-7.5" font-family="Helvetica,sans-Serif" font-size="10.00" fill="#000000">src/yule_walker.cc</text>
</a>
</g>
</g>
<!-- Node4&#45;&gt;Node6 -->
<g id="edge2" class="edge">
<title>Node4&#45;&gt;Node6</title>
<path fill="none" stroke="#191970" d="M150.2755,-49.645C161.7538,-39.9058 175.9277,-27.8795 185.6354,-19.6427"/>
<polygon fill="#191970" stroke="#191970" points="147.857,-47.1069 142.4963,-56.2455 152.3859,-52.4445 147.857,-47.1069"/>
</g>
</g>
</svg>
